<?xml version="1.0" standalone="no"?>
<!DOCTYPE svg PUBLIC "-//W3C//DTD SVG 1.1//EN" "http://www.w3.org/Graphics/SVG/1.1/DTD/svg11.dtd" >
<svg xmlns="http://www.w3.org/2000/svg" xmlns:xlink="http://www.w3.org/1999/xlink" version="1.1">
<metadata>
Created by FontForge 20170731 at Mon Nov 21 16:50:47 2022
 By Aleksey,,,
(c) 2012, 2013, 2014, 2015 by Stawix Ruecha &#38; Foundry. All rights reserved.
</metadata>
<defs>
<font id="AmsiProNarw-BlackItalic" horiz-adv-x="770" >
  <font-face 
    font-family="AmsiProNarw-BlackItalic"
    font-weight="400"
    font-style="italic"
    font-stretch="semi-condensed"
    units-per-em="2048"
    panose-1="2 11 10 6 2 2 1 1 1 4"
    ascent="1753"
    descent="-295"
    x-height="1110"
    cap-height="1446"
    bbox="-473.411 -588 2458 2130"
    underline-thickness="112"
    underline-position="-206"
    slope="-10"
    unicode-range="U+0020-FB4E"
  />
<missing-glyph horiz-adv-x="1007" 
d="M0 1413h1008v-1413h-1008v1413zM907 193v1030l-344 -516zM100 1223v-1030l344 514zM504 797l344 516h-686zM504 616l-342 -516h684z" />
    <glyph glyph-name="f_f" unicode="ff" horiz-adv-x="1290" 
d="M1157 1067h141q58 0 48 -55l-27 -150q-8 -53 -62 -53h-145l-133 -758q-12 -51 -59 -51h-199q-55 0 -47 51l133 758h-291l-135 -758q-8 -51 -59 -51h-197q-59 0 -47 51l133 758h-70q-53 0 -45 51l27 154q8 53 57 53h76l14 86q28 167 108 237q79 70 236 70q99 0 150 -16
q44 -15 37 -53l-21 -117q-6 -53 -55 -49q-15 0 -28 1t-29 1q-40 0 -65 -22q-24 -21 -32 -77l-10 -61h291l14 78q30 174 113 245q82 70 246 70q101 0 155 -16q40 -12 35 -53l-22 -125q-11 -56 -58 -54q-42 5 -59 5q-54 0 -78 -24q-26 -26 -33 -81z" />
    <glyph glyph-name="fi" unicode="fi" horiz-adv-x="1159" 
d="M1153 1012l-170 -959q-8 -53 -59 -53h-205q-55 0 -47 53l135 756h-291l-135 -758q-8 -51 -59 -51h-197q-59 0 -47 51l133 758h-70q-53 0 -45 51l27 154q8 53 57 53h76l14 84q28 165 107 238q77 71 233 71q110 0 158 -16q44 -15 37 -53l-21 -117q-6 -53 -55 -49
q-16 0 -30 1t-31 1q-40 0 -65 -22q-23 -20 -34 -79l-10 -59h547q57 0 47 -55zM1221 1393l-27 -144q-8 -51 -59 -51h-205q-54 0 -47 51l24 144q12 53 60 53h204q58 0 50 -53z" />
    <glyph glyph-name="fl" unicode="fl" horiz-adv-x="1161" 
d="M1214 1360l-231 -1307q-8 -53 -59 -53h-203q-55 0 -47 53l205 1164q-70 8 -129 8q-86 0 -130 -28q-42 -27 -53 -91l-8 -39h98q57 0 45 -55l-24 -150q-12 -53 -62 -53h-100l-135 -758q-8 -51 -59 -51h-197q-59 0 -47 51l133 758h-70q-53 0 -45 51l27 154q8 53 57 53h76
l6 39q38 198 149 278q112 80 377 80q234 0 383 -41q51 -16 43 -63z" />
    <glyph glyph-name="f_f_i" unicode="ffi" horiz-adv-x="1755" 
d="M1749 1012l-170 -959q-8 -53 -59 -53h-205q-57 0 -45 53l133 756h-291l-133 -758q-12 -51 -59 -51h-199q-55 0 -47 51l133 758h-291l-135 -758q-8 -51 -59 -51h-197q-59 0 -47 51l133 758h-72q-51 0 -43 51l27 154q8 53 57 53h76l14 86q28 167 108 237q79 70 236 70
q108 0 150 -16q44 -15 37 -53l-21 -117q-6 -53 -55 -49q-15 0 -28 1t-29 1q-40 0 -65 -22q-24 -21 -32 -77l-10 -61h291l16 86q28 167 108 237q79 70 236 70q101 0 152 -16q43 -15 39 -53l-21 -117q-8 -53 -57 -49q-15 0 -29 1t-30 1q-42 0 -66 -22q-22 -21 -33 -77l-10 -61
h545q54 0 47 -55zM1817 1393l-27 -144q-8 -51 -59 -51h-205q-55 0 -47 51l24 144q12 53 62 53h204q56 0 48 -53z" />
    <glyph glyph-name="f_f_l" unicode="ffl" horiz-adv-x="1757" 
d="M1112 809l-133 -758q-12 -51 -59 -51h-199q-55 0 -47 51l133 758h-291l-135 -758q-8 -51 -59 -51h-197q-59 0 -47 51l133 758h-70q-53 0 -45 51l27 154q8 53 57 53h76l14 86q28 167 108 237q79 70 236 70q99 0 150 -16q44 -15 37 -53l-21 -117q-6 -53 -55 -49
q-15 0 -28 1t-29 1q-40 0 -65 -22q-24 -21 -32 -77l-10 -61h291l8 39q34 197 147 278q112 80 377 80q217 0 383 -41q50 -15 43 -63l-231 -1307q-8 -53 -57 -53h-205q-55 0 -47 53l205 1164q-70 8 -127 8q-88 0 -130 -27q-43 -27 -53 -92l-8 -39h96q57 0 47 -55l-26 -150
q-8 -53 -62 -53h-100z" />
    <glyph glyph-name="f_b" unicode="fb" horiz-adv-x="1779" 
d="M1069 555q-14 -80 -14 -152q0 -167 133 -167q88 0 139 72t84 247q16 105 16 162q0 84 -30 121q-29 36 -97 36q-88 0 -144 -74q-57 -75 -87 -245zM1214 1360l-63 -356q44 57 116 92q71 34 156 34q324 0 324 -366q0 -98 -21 -209q-52 -302 -165 -439q-112 -136 -304 -136
q-93 0 -170 39q-80 41 -102 100l-20 -74q-17 -45 -64 -45h-180q-55 0 -47 53l205 1164q-70 8 -129 8q-88 0 -129 -27q-42 -28 -54 -92l-6 -39h96q55 0 45 -55l-24 -150q-12 -53 -62 -53h-100l-135 -758q-8 -51 -59 -51h-197q-59 0 -47 51l133 758h-70q-53 0 -45 51l27 154
q11 53 59 53h74l6 39q38 198 149 278q112 80 377 80q217 0 383 -41q51 -16 43 -63z" />
    <glyph glyph-name="f_f_b" unicode="ffb" horiz-adv-x="2375" 
d="M1665 555q-14 -80 -14 -152q0 -167 133 -167q88 0 140 72q53 73 83 247q18 119 18 162q0 157 -129 157q-88 0 -144 -74q-57 -75 -87 -245zM1810 1360l-63 -356q95 126 272 126q156 0 240 -92t84 -276q0 -95 -21 -209q-52 -301 -166 -437t-303 -136q-93 0 -170 39
q-79 40 -100 100l-22 -74q-17 -45 -64 -45h-180q-55 0 -47 53l205 1164q-70 8 -127 8q-88 0 -130 -27q-43 -27 -53 -92l-8 -39h96q57 0 47 -55l-26 -150q-8 -53 -60 -53h-102l-133 -758q-6 -27 -20 -40q-12 -11 -39 -11h-199q-55 0 -47 51l133 758h-291l-135 -758
q-8 -51 -59 -51h-197q-59 0 -47 51l133 758h-72q-51 0 -43 51l27 154q11 53 57 53h76l14 86q28 167 108 237q79 70 236 70q99 0 150 -16q44 -10 37 -53l-21 -117q-11 -53 -55 -49q-15 0 -28 1t-29 1q-40 0 -65 -22q-24 -21 -32 -77l-10 -61h291l8 39q37 200 148 279
q110 79 376 79q217 0 383 -41q50 -15 43 -63z" />
    <glyph glyph-name="f_h" unicode="fh" horiz-adv-x="1736" 
d="M1214 1360l-63 -356q113 126 279 126q135 0 205 -71q71 -73 71 -203q0 -43 -10 -102l-125 -701q-8 -53 -60 -53h-202q-59 0 -47 53l110 633q8 53 8 68q0 100 -98 100q-158 0 -195 -207l-104 -594q-8 -53 -59 -53h-203q-55 0 -47 53l205 1164q-70 8 -129 8q-86 0 -130 -28
q-42 -27 -53 -91l-6 -39h96q57 0 45 -55l-24 -150q-12 -53 -62 -53h-100l-135 -758q-8 -51 -59 -51h-197q-55 0 -47 51l133 758h-70q-53 0 -45 51l27 154q8 53 57 53h76l6 39q38 198 149 278q112 80 377 80q217 0 383 -41q51 -16 43 -63z" />
    <glyph glyph-name="f_f_h" unicode="ffh" horiz-adv-x="2334" 
d="M1810 1360l-63 -356q113 126 278 126q136 0 206 -71q71 -73 71 -203q0 -43 -10 -102l-125 -701q-8 -53 -60 -53h-202q-59 0 -47 53l110 635q8 53 8 66q0 100 -98 100q-158 0 -195 -207l-104 -594q-8 -53 -57 -53h-205q-55 0 -47 53l205 1164q-70 8 -127 8q-88 0 -130 -27
q-43 -27 -53 -92l-8 -39h96q57 0 47 -55l-26 -150q-8 -53 -60 -53h-102l-133 -758q-12 -51 -59 -51h-199q-55 0 -47 51l133 758h-291l-135 -758q-8 -51 -59 -51h-197q-59 0 -47 51l133 758h-70q-53 0 -45 51l27 154q8 53 57 53h76l14 86q28 167 108 237q79 70 234 70
q101 0 152 -16q44 -15 37 -53l-21 -117q-6 -53 -55 -49q-15 0 -28 1t-29 1q-40 0 -65 -22q-24 -21 -32 -77l-10 -61h291l8 39q34 197 147 278q112 80 377 80q217 0 383 -41q50 -15 43 -63z" />
    <glyph glyph-name="f_j" unicode="fj" horiz-adv-x="1159" 
d="M1155 1012l-166 -934q-30 -177 -104 -246q-75 -70 -232 -70q-94 0 -145 17q-45 7 -37 53l25 150q8 51 57 47q2 0 26 -2q5 0 10 -0.5t8 -1t5 -0.5q37 0 56 22t30 80l121 682h-293l-135 -758q-8 -51 -59 -51h-197q-59 0 -47 51l133 758h-70q-53 0 -45 51l27 154q8 53 57 53
h76l14 86q28 165 109 237q79 70 235 70q103 0 154 -16q44 -15 37 -53l-21 -117q-6 -53 -55 -49q-15 0 -29 1t-30 1q-42 0 -67 -22q-24 -21 -32 -77l-10 -61h547q54 0 47 -55zM1223 1393l-27 -144q-8 -51 -59 -51h-205q-54 0 -47 51l24 144q12 53 62 53h205q55 0 47 -53z" />
    <glyph glyph-name="f_f_j" unicode="ffj" horiz-adv-x="1755" 
d="M1751 1012l-166 -934q-30 -177 -104 -246q-75 -70 -232 -70q-99 0 -145 17q-45 7 -37 53l25 150q8 51 57 47q2 0 5 -0.5t8 -1t10 -0.5q24 -2 26 -2q36 0 57 22q22 23 29 78l121 684h-293l-133 -758q-12 -51 -59 -51h-199q-55 0 -47 51l133 758h-291l-135 -758
q-8 -51 -59 -51h-197q-59 0 -47 51l133 758h-70q-53 0 -45 51l27 154q8 53 57 53h76l14 86q28 167 108 237q79 70 236 70q99 0 150 -16q44 -15 37 -53l-21 -117q-6 -53 -55 -49q-15 0 -28 1t-29 1q-40 0 -65 -22q-24 -21 -32 -77l-10 -61h291l16 86q28 167 108 237
q79 70 236 70q101 0 152 -16q46 -15 39 -53l-21 -117q-8 -53 -57 -49q-15 0 -29 1t-30 1q-42 0 -66 -22q-22 -21 -33 -77l-10 -61h547q57 0 47 -55zM1819 1393l-27 -144q-8 -51 -59 -51h-205q-54 0 -47 51l24 144q12 53 62 53h205q55 0 47 -53z" />
    <glyph glyph-name="f_k" unicode="fk" horiz-adv-x="1662" 
d="M1214 1360l-104 -594l276 303q35 41 82 41h236q31 0 37 -23q6 -22 -19 -47l-405 -432l248 -540q12 -28 1 -48t-40 -20h-215q-55 0 -72 45l-182 422l-72 -414q-8 -53 -59 -53h-203q-57 0 -49 53l205 1164q-70 8 -129 8q-88 0 -129 -27q-42 -28 -54 -92l-6 -39h96
q55 0 45 -55l-24 -150q-12 -53 -62 -53h-100l-135 -758q-8 -51 -59 -51h-197q-59 0 -47 51l133 758h-70q-53 0 -45 51l27 154q6 53 57 53h76l6 39q38 198 149 278q112 80 377 80q216 0 386 -41q47 -14 40 -63z" />
    <glyph glyph-name="f_f_k" unicode="ffk" horiz-adv-x="2258" 
d="M1810 1360l-104 -594l276 303q35 41 82 41h236q31 0 37 -23q6 -22 -19 -47l-405 -432l248 -540q12 -28 1 -48t-40 -20h-215q-55 0 -72 45l-182 422l-72 -414q-8 -53 -59 -53h-203q-57 0 -49 53l205 1164q-70 8 -127 8q-88 0 -130 -27q-43 -27 -53 -92l-8 -39h96
q53 0 47 -55l-26 -150q-8 -53 -62 -53h-100l-133 -758q-12 -51 -59 -51h-199q-55 0 -47 51l133 758h-291l-135 -758q-8 -51 -59 -51h-197q-59 0 -47 51l133 758h-70q-53 0 -45 51l27 154q8 53 57 53h76l14 86q28 167 108 237q79 70 236 70q99 0 150 -16q44 -10 37 -53
l-21 -117q-8 -54 -55 -49q-15 0 -28 1t-29 1q-80 0 -97 -99l-10 -61h291l8 39q34 197 147 278q112 80 377 80q215 0 385 -41q51 -17 41 -63z" />
    <glyph glyph-name="f_t" unicode="ft" horiz-adv-x="1302" 
d="M561 1067h295l41 231q8 52 59 52h193q55 0 47 -52l-41 -231h150q54 0 47 -55l-27 -150q-8 -53 -61 -53h-152l-78 -438q-12 -73 3 -97t73 -24q3 0 31 2q4 0 9.5 0.5t8 1t5.5 0.5h5q25 2 35 -10t6 -39l-26 -148q-8 -45 -56 -53q-63 -18 -131 -18q-149 0 -217 52
q-69 52 -69 177q0 51 12 119l84 475h-291l-135 -758q-8 -51 -59 -51h-197q-59 0 -47 51l133 758h-72q-51 0 -43 51l27 154q8 53 57 53h76l14 86q28 167 108 237q79 70 236 70q99 0 150 -16q44 -15 37 -53l-21 -117q-6 -53 -55 -49q-15 0 -28 1t-29 1q-40 0 -65 -22
q-24 -21 -32 -77z" />
    <glyph glyph-name="f_f_t" unicode="fft" horiz-adv-x="1898" 
d="M852 1067l16 86q28 167 108 237q79 70 234 70q102 0 150 -16q43 -15 39 -53l-21 -117q-8 -53 -57 -49q-15 0 -28 1t-29 1q-40 0 -64 -22q-22 -21 -33 -77l-10 -61h295l41 231q8 52 59 52h193q55 0 47 -52l-41 -231h150q58 0 47 -53l-27 -152q-8 -53 -59 -53h-154
l-78 -438q-15 -72 2 -97q16 -24 74 -24q5 0 29 2t28 2q23 2 33 -10t6 -39l-20 -146q-4 -43 -53 -55q-66 -18 -136 -18q-147 0 -215 52q-69 52 -69 175q0 54 12 123l82 473h-291l-133 -758q-12 -51 -59 -51h-199q-55 0 -47 51l133 758h-291l-135 -758q-8 -51 -59 -51h-197
q-59 0 -47 51l133 758h-72q-51 0 -43 51l27 154q8 53 57 53h76l14 86q28 167 108 237q79 70 236 70q99 0 150 -16q44 -15 37 -53l-21 -117q-6 -53 -55 -49q-15 0 -28 1t-29 1q-40 0 -65 -22q-24 -21 -32 -77l-10 -61h291z" />
    <glyph glyph-name="t_t" unicode="tt" horiz-adv-x="1298" 
d="M1262 809h-154l-78 -438q-12 -73 4 -97t74 -24q5 0 29 2t26 2q25 2 34 -10q9 -13 5 -39l-18 -146q-7 -42 -56 -55q-63 -18 -135 -18q-147 0 -215 52q-69 52 -69 177q0 53 12 121l84 473h-297l-78 -438q-15 -69 1 -96q15 -25 67 -25q4 0 26 2t25 2q23 2 33 -10t6 -39
l-21 -146q-4 -43 -53 -55q-66 -18 -129 -18q-144 0 -211 52q-68 53 -68 177q0 48 13 121l84 473h-70q-55 0 -47 51l27 154q12 53 59 53h80l41 236q7 51 61 51h191q55 0 47 -51l-41 -236h301l41 236q12 51 61 51h193q55 0 47 -51l-41 -236h150q57 0 45 -55l-25 -150
q-12 -53 -61 -53z" />
    <glyph glyph-name="t_t_f" unicode="ttf" horiz-adv-x="1892" 
d="M1108 809l-78 -438q-12 -70 3 -96q15 -25 71 -25q3 0 31 2q6 0 12 0.5t9 1t5 0.5q25 2 34 -10q9 -13 5 -39l-24 -148q-8 -45 -56 -53q-63 -18 -129 -18q-146 0 -214 52t-68 179q0 53 12 121l84 471h-297l-78 -438q-15 -69 1 -96q15 -25 67 -25q4 0 26 2t25 2q23 2 33 -10
t6 -39l-21 -146q-4 -43 -53 -55q-66 -18 -129 -18q-144 0 -211 52t-67 177q0 51 12 123l84 471h-70q-55 0 -47 51l27 154q12 53 59 53h80l41 236q7 51 61 51h191q55 0 47 -51l-41 -236h301l41 236q12 51 61 51h193q55 0 47 -51l-41 -236h303l12 76q33 177 114 247
q80 70 245 70q104 0 155 -16q43 -12 35 -53l-22 -125q-11 -56 -58 -54q-37 5 -59 5q-52 0 -77 -23q-24 -22 -34 -82l-8 -45h144q55 0 45 -55l-25 -150q-12 -53 -61 -53h-148l-133 -758q-7 -51 -59 -51h-197q-57 0 -49 51l135 758h-303z" />
    <glyph glyph-name=".notdef" horiz-adv-x="1007" 
d="M0 1413h1008v-1413h-1008v1413zM907 193v1030l-344 -516zM100 1223v-1030l344 514zM504 797l344 516h-686zM504 616l-342 -516h684z" />
    <glyph glyph-name=".null" horiz-adv-x="0" 
 />
    <glyph glyph-name="nonmarkingreturn" horiz-adv-x="681" 
 />
    <glyph glyph-name="space" unicode=" " horiz-adv-x="473" 
 />
    <glyph glyph-name="exclam" unicode="!" horiz-adv-x="575" 
d="M51 55l39 215q11 54 66 54h209q60 0 49 -54l-37 -215q-12 -55 -64 -55h-213q-59 0 -49 55zM356 455h-143q-58 0 -47 53l102 881q6 57 62 57h254q59 0 47 -57l-207 -881q-17 -53 -68 -53z" />
    <glyph glyph-name="quotedbl" unicode="&#x22;" horiz-adv-x="768" 
d="M463 1272l-125 -363h-107l5 363q0 64 8 123q11 55 43 78q33 24 100 24q69 0 95 -26t16 -76q-5 -31 -35 -123zM815 1272l-125 -363h-106l2 363q0 74 10 123q18 102 143 102q68 0 94 -26q25 -25 15 -76q-6 -37 -33 -123z" />
    <glyph glyph-name="numbersign" unicode="#" horiz-adv-x="1177" 
d="M1235 1370l-141 -315h102q53 0 45 -54l-12 -67q-8 -53 -62 -53h-151l-139 -318h106q53 0 45 -53l-12 -68q-12 -53 -64 -53h-153l-160 -362q-25 -52 -72 -37l-73 20q-53 15 -29 66l139 313h-237l-160 -362q-23 -53 -72 -37l-74 20q-50 15 -26 66l139 313h-104
q-53 0 -45 53l12 68q8 53 63 53h150l141 318h-106q-53 0 -45 53l12 67q8 54 61 54h154l162 364q24 52 71 37l74 -18q52 -15 29 -68l-141 -315h237l162 364q25 52 72 37l73 -18q50 -15 29 -68zM586 881l-142 -318h238l139 318h-235z" />
    <glyph glyph-name="dollar" unicode="$" horiz-adv-x="1069" 
d="M838 1589l-23 -125q165 -12 252 -53q50 -18 29 -70l-58 -155q-23 -56 -80 -39q-93 35 -227 35q-88 0 -153 -34q-66 -34 -66 -110q0 -35 31 -72q32 -38 64 -59q12 -8 98 -59q150 -84 223 -166t73 -223q0 -189 -119 -308t-321 -157l-24 -137q-8 -52 -58 -52h-84
q-51 0 -43 52l21 125q-208 6 -326 63q-29 12 -37 26q-8 15 2 44l62 157q21 61 80 37q124 -45 243 -45q104 0 184 37q81 37 81 123q0 34 -29 66q-30 33 -59 52q-27 18 -109 64q-138 73 -215 160q-78 88 -78 238q0 198 119 312q118 114 338 144l22 129q7 51 58 51h86
q51 0 43 -51z" />
    <glyph glyph-name="percent" unicode="%" horiz-adv-x="1746" 
d="M1501 1395l-940 -1350q-33 -45 -76 -45h-129q-58 0 -20 51l938 1350q30 45 76 45h129q26 0 32 -14q6 -15 -10 -37zM154 1034q73 426 389 426q138 0 211 -79t73 -222q0 -61 -12 -129q-72 -424 -387 -424q-138 0 -211 79q-74 80 -74 224q0 67 11 125zM586 1032
q12 78 12 123q0 109 -74 109q-52 0 -86 -54q-31 -50 -53 -178q-14 -64 -14 -121q0 -110 75 -110q51 0 84 53t56 178zM1022 416q74 426 389 426q138 0 211 -79q74 -80 74 -224q0 -54 -13 -129q-73 -424 -389 -424q-135 0 -210 80q-74 78 -74 223q0 59 12 127zM1452 414
q14 67 14 125q0 106 -73 106q-101 0 -142 -231q-14 -85 -14 -125q0 -107 74 -107q52 0 87 54q32 49 54 178z" />
    <glyph glyph-name="ampersand" unicode="&#x26;" horiz-adv-x="1329" 
d="M1278 723q0 -241 -184 -461l120 -207q12 -22 3 -38q-10 -17 -33 -17h-209q-49 0 -66 25l-37 63q-157 -106 -352 -106q-208 0 -339 99q-130 99 -130 275t102 306q103 131 279 198l-22 43q-54 103 -54 211q0 176 125 265t324 89q143 0 250 -36q51 -21 39 -72l-41 -121
q-18 -58 -80 -43q-78 21 -144 21q-182 0 -182 -127q0 -45 49 -127l265 -465q55 95 55 231q0 64 59 64h162q41 0 41 -70zM588 252q96 0 164 47l-205 360q-76 -39 -121 -101q-47 -65 -47 -148q0 -72 52 -115t157 -43z" />
    <glyph glyph-name="quotesingle" unicode="'" horiz-adv-x="415" 
d="M463 1272l-125 -363h-107l5 363q0 64 8 123q11 55 43 78q33 24 100 24q69 0 95 -26t16 -76q-5 -31 -35 -123z" />
    <glyph glyph-name="parenleft" unicode="(" horiz-adv-x="679" 
d="M109 379q0 286 120 562q123 284 332 495q30 30 68 30h145q27 0 31 -19q5 -20 -12 -38q-178 -229 -280 -508q-101 -276 -101 -565q0 -278 100 -518q8 -22 -2 -39q-11 -19 -37 -19h-145q-41 0 -56 29q-163 251 -163 590z" />
    <glyph glyph-name="parenright" unicode=")" horiz-adv-x="679" 
d="M621 850q0 -285 -120 -564q-120 -280 -333 -497q-29 -29 -66 -29h-147q-27 0 -30 20q-3 19 14 38q175 230 277 510q101 276 101 563q0 288 -100 518q-8 22 2 39q10 18 37 18h147q38 0 56 -30q162 -257 162 -586z" />
    <glyph glyph-name="asterisk" unicode="*" horiz-adv-x="821" 
d="M457 727q-51 0 -68 18q-16 17 -8 64q6 29 36 98t38 101q-23 -16 -86 -68q-61 -51 -90 -66q-82 -43 -111 37q-33 79 49 119q26 14 100 34q73 19 103 32q-17 8 -91 32q-70 22 -89 35q-37 24 -37 54q0 27 30 65q33 45 62 53t61 -14q25 -17 68 -69q42 -50 61 -68q2 30 -3 101
q-5 75 -1 99q7 45 31 65q22 19 76 19q51 0 66 -19q15 -20 8 -65q-6 -30 -36 -101q-31 -76 -38 -99q31 21 87 68q62 52 91 67q40 22 67 14q26 -8 44 -51q17 -48 5 -72q-13 -26 -55 -49q-27 -14 -103 -34q-80 -21 -101 -29q26 -14 94 -34t88 -34q37 -27 37 -53t-31 -66
q-60 -80 -123 -37q-25 16 -68 66q-40 47 -63 68q-2 -32 4 -105q6 -76 0 -94q-6 -43 -30 -63q-23 -19 -74 -19z" />
    <glyph glyph-name="plus" unicode="+" horiz-adv-x="1122" 
d="M1001 590h-276l-55 -307q-8 -54 -60 -54h-178q-55 0 -47 54l55 307h-272q-53 0 -47 53l29 150q6 51 59 51h276l52 299q12 53 61 53h178q55 0 47 -53l-53 -299h270q54 0 47 -51l-26 -150q-8 -53 -60 -53z" />
    <glyph glyph-name="comma" unicode="," horiz-adv-x="479" 
d="M301 10l-149 -221q-23 -33 -52 -33h-73q-22 0 -26 15q-4 14 7 34l107 195h-56q-59 0 -49 55l39 207q7 55 64 55h194q61 0 51 -55l-32 -184q-5 -39 -25 -68z" />
    <glyph glyph-name="hyphen" unicode="-" horiz-adv-x="694" 
d="M573 455h-454q-53 0 -45 53l26 149q8 52 60 52h452q55 0 47 -52l-26 -149q-8 -53 -60 -53z" />
    <glyph glyph-name="period" unicode="." horiz-adv-x="479" 
d="M10 55l39 207q7 55 64 55h194q61 0 51 -55l-36 -207q-10 -55 -62 -55h-201q-59 0 -49 55z" />
    <glyph glyph-name="slash" unicode="/" horiz-adv-x="825" 
d="M-51 63l719 1334q28 49 75 49h187q32 0 43 -19q11 -18 -6 -47l-721 -1331q-28 -49 -74 -49h-188q-70 0 -35 63z" />
    <glyph glyph-name="zero" unicode="0" horiz-adv-x="1212" 
d="M762 1468q210 0 323 -117q115 -120 115 -366q0 -112 -24 -262q-69 -391 -229 -568q-159 -175 -408 -175q-439 0 -439 479q0 105 27 264q69 392 226 569q156 176 409 176zM571 266q98 0 163 104q65 105 110 353q28 164 28 248q0 211 -143 211q-98 0 -163 -105
q-63 -103 -107 -354q-29 -153 -29 -250q0 -207 141 -207z" />
    <glyph glyph-name="one" unicode="1" horiz-adv-x="915" 
d="M344 57l182 1039l-213 -142q-43 -24 -63 4l-84 125q-25 36 14 60l383 280q34 23 78 23h215q56 0 49 -57l-235 -1332q-8 -57 -64 -57h-211q-63 0 -51 57z" />
    <glyph glyph-name="two" unicode="2" horiz-adv-x="1120" 
d="M475 973q0 -82 -57 -82h-193q-49 0 -49 74q0 230 149 367q148 136 377 136q216 0 323 -98q108 -99 108 -250q0 -128 -60 -259q-60 -130 -160 -239q-102 -111 -199 -192t-212 -156h438q27 0 40 -14q13 -15 9 -41l-28 -164q-10 -55 -64 -55h-844q-61 0 -49 55l23 133
q11 46 55 70q131 82 236 163q123 94 228 193q113 106 184 229q69 120 69 230q0 121 -135 121q-96 0 -143 -65q-46 -64 -46 -156z" />
    <glyph glyph-name="three" unicode="3" horiz-adv-x="1060" 
d="M406 874h120q94 0 153 56q58 55 58 143q0 121 -180 121q-125 0 -276 -49q-55 -15 -60 35l-4 153q-1 45 51 66q173 67 371 67q186 0 307 -76t121 -229q0 -130 -66 -235t-180 -150q73 -27 117 -95q45 -69 45 -171q0 -262 -159 -396q-160 -134 -418 -134q-124 0 -230 20
q-114 21 -166 47q-44 18 -26 64l59 161q21 56 72 35q146 -49 272 -49q124 0 198 59t74 175q0 122 -167 122h-132q-55 0 -47 56l29 151q8 53 64 53z" />
    <glyph glyph-name="four" unicode="4" horiz-adv-x="1185" 
d="M842 0h-209q-61 0 -49 57l41 236h-543q-54 0 -47 55l28 158q5 39 33 72l705 831q30 37 71 37h218q58 0 51 -57l-148 -832h119q59 0 49 -55l-26 -154q-7 -55 -64 -55h-123l-43 -236q-12 -57 -63 -57zM762 1067l-432 -510h342z" />
    <glyph glyph-name="five" unicode="5" horiz-adv-x="1083" 
d="M399 -20q-238 0 -381 67q-44 21 -26 68l59 159q21 51 72 35q140 -51 278 -51q136 0 215 73q78 72 78 204q0 141 -182 141q-76 0 -156 -20q-76 -19 -92 -19q-11 0 -33 8l-71 27q-29 12 -17 55q103 383 152 659q12 60 63 60h686q57 0 50 -55l-29 -164q-8 -56 -66 -56h-475
q-41 -191 -67 -278q84 27 186 27q189 0 285 -90q94 -88 94 -244q0 -295 -170 -451q-168 -155 -453 -155z" />
    <glyph glyph-name="six" unicode="6" horiz-adv-x="1163" 
d="M995 1169q-107 29 -182 29q-152 0 -231 -82q-80 -83 -119 -260q111 111 285 111q178 0 269 -102q91 -101 91 -263q0 -258 -157 -441q-156 -181 -404 -181q-228 0 -340 124q-113 125 -113 340q0 96 21 230q60 388 227 591t477 203q155 0 264 -41q48 -18 33 -61l-49 -158
q-17 -50 -72 -39zM573 252q111 0 172 98q62 100 62 215q0 71 -41 115q-40 43 -119 43q-113 0 -176 -91q-63 -92 -63 -204q0 -76 41 -126t124 -50z" />
    <glyph glyph-name="seven" unicode="7" horiz-adv-x="1038" 
d="M150 55q62 277 242 598q177 317 366 518h-520q-60 0 -48 58l29 160q7 57 64 57h809q56 0 49 -57l-25 -142q-6 -27 -53 -88q-187 -231 -353 -532t-223 -572q-12 -55 -65 -55h-223q-61 0 -49 55z" />
    <glyph glyph-name="eight" unicode="8" horiz-adv-x="1163" 
d="M510 -20q-220 0 -341 92q-120 92 -120 243q0 159 90 268q90 110 242 167q-85 38 -130 111q-46 74 -46 169q0 222 154 330t382 108q204 0 320 -85q117 -85 117 -232q0 -143 -80 -246q-80 -102 -215 -155q88 -34 146 -113q56 -77 56 -188q0 -161 -85 -270t-209 -154
q-125 -45 -281 -45zM713 1227q-93 0 -144 -56q-51 -55 -51 -141q0 -120 131 -176q209 86 209 254q0 119 -145 119zM612 639q-233 -90 -233 -268q0 -62 43 -99q42 -36 123 -36q97 0 157 60t60 153q0 130 -150 190z" />
    <glyph glyph-name="nine" unicode="9" horiz-adv-x="1163" 
d="M258 276q103 -28 184 -28q152 0 231 79q77 77 115 257q-108 -105 -280 -105q-180 0 -272 101q-93 102 -93 260q0 260 154 444q152 182 410 182q228 0 339 -123t111 -342q0 -119 -27 -272q-68 -372 -229 -560q-162 -189 -461 -189q-178 0 -270 38q-48 19 -33 64l49 156
q16 46 72 38zM676 1194q-107 0 -169 -98q-63 -99 -63 -209q0 -72 42 -118t120 -46q114 0 176 89t62 204q0 78 -42 128t-126 50z" />
    <glyph glyph-name="colon" unicode=":" horiz-adv-x="546" 
d="M45 55l37 207q7 55 63 55h197q58 0 51 -55l-39 -207q-10 -55 -61 -55h-199q-56 0 -49 55zM184 846l37 207q7 55 66 55h194q58 0 51 -55l-36 -207q-12 -55 -64 -55h-201q-54 0 -47 55z" />
    <glyph glyph-name="semicolon" unicode=";" horiz-adv-x="546" 
d="M184 846l37 207q7 55 66 55h194q58 0 51 -55l-36 -207q-12 -55 -64 -55h-201q-54 0 -47 55zM334 10l-148 -221q-23 -33 -53 -33h-72q-20 0 -26 15q-6 14 6 34l109 195h-56q-56 0 -49 55l37 207q7 55 63 55h197q58 0 51 -55l-35 -184q-5 -41 -24 -68z" />
    <glyph glyph-name="less" unicode="&#x3c;" horiz-adv-x="1122" 
d="M158 715q5 30 30 47l738 561q46 39 75 -2l89 -123q27 -39 -17 -74l-547 -413l400 -410q33 -33 -8 -74l-130 -121q-44 -37 -77 -4l-539 566q-20 20 -14 47z" />
    <glyph glyph-name="equal" unicode="=" horiz-adv-x="1122" 
d="M1008 821h-766q-53 0 -45 53l24 142q11 53 62 53h764q58 0 47 -53l-27 -142q-8 -53 -59 -53zM928 367h-766q-52 0 -45 51l24 143q7 51 60 51h766q57 0 45 -51l-25 -143q-7 -51 -59 -51z" />
    <glyph glyph-name="greater" unicode="&#x3e;" horiz-adv-x="1122" 
d="M1055 715q-7 -24 -33 -47l-743 -566q-46 -39 -74 4l-84 123q-27 41 16 74l547 412l-399 411q-33 33 8 74l125 121q45 39 76 4l544 -563q17 -19 17 -47z" />
    <glyph glyph-name="question" unicode="?" horiz-adv-x="948" 
d="M225 55l37 215q11 54 66 54h209q62 0 51 -54l-39 -215q-10 -55 -62 -55h-213q-61 0 -49 55zM625 545l-7 -37q-8 -53 -63 -53h-178q-60 0 -49 53l8 37q12 56 50 114q39 59 81 104q42 44 86 95q45 51 71 108q27 58 27 119q0 103 -143 103q-101 0 -229 -43q-60 -17 -60 35
l-4 161q-1 43 49 64q140 61 326 61q198 0 299 -76q102 -77 102 -221q0 -91 -35 -175q-34 -80 -86 -142q-51 -60 -103 -112q-53 -52 -93 -102q-42 -51 -49 -93z" />
    <glyph glyph-name="at" unicode="@" horiz-adv-x="1767" 
d="M1006 481l79 254q-44 13 -86 13q-126 0 -203 -112t-77 -249q0 -113 92 -113q129 0 195 207zM1202 -45q17 6 26 -1t7 -26l-2 -69q-2 -24 -31 -35q-190 -57 -389 -57q-347 0 -535 133q-190 134 -190 395q0 402 271 679t694 277q318 0 485 -134q166 -133 166 -367
q0 -111 -35 -230q-35 -118 -97 -220q-63 -104 -167 -169q-103 -65 -229 -65h-125q-52 0 -58 38l-8 95q-103 -136 -254 -136q-117 0 -196 74q-78 73 -78 197q0 254 160 436t430 182q172 0 290 -61q37 -18 25 -53l-197 -619h41q85 0 151 54t104 139q40 89 58 172q19 86 19 168
q0 176 -120 264q-119 88 -376 88q-337 0 -561 -223q-225 -223 -225 -580q0 -203 138 -297q137 -94 425 -94q199 0 383 45z" />
    <glyph glyph-name="A" unicode="A" horiz-adv-x="1220" 
d="M498 563h266l-31 557h-6zM631 1446h297q62 0 67 -57l119 -1323q6 -66 -55 -66h-219q-58 0 -58 53l-18 228h-365l-96 -228q-24 -53 -72 -53h-229q-28 0 -40 18t1 48l586 1323q24 57 82 57z" />
    <glyph glyph-name="B" unicode="B" horiz-adv-x="1212" 
d="M502 868h170q96 0 156 51q59 50 59 150q0 58 -38 82q-39 25 -122 25h-170zM573 0h-487q-63 0 -51 57l235 1332q8 57 64 57h432q455 0 455 -303q0 -123 -60 -223q-60 -101 -178 -150q75 -24 118 -96q44 -73 44 -176q0 -240 -156 -369t-416 -129zM397 270h183q111 0 174 57
t63 167q0 120 -174 120h-186z" />
    <glyph glyph-name="C" unicode="C" horiz-adv-x="1077" 
d="M690 272q100 0 182 33q62 21 66 -39l12 -153q2 -45 -55 -72q-134 -61 -293 -61q-251 0 -379 113q-129 114 -129 366q0 99 27 266q72 404 238 573q167 170 464 170q181 0 299 -61q52 -21 31 -72l-63 -153q-24 -55 -80 -37q-79 29 -170 29q-167 0 -253 -98
q-85 -97 -130 -351q-23 -138 -23 -209q0 -132 61 -188t195 -56z" />
    <glyph glyph-name="D" unicode="D" horiz-adv-x="1218" 
d="M467 0h-383q-61 0 -49 57l235 1332q8 57 66 57h348q265 0 398 -112q132 -111 132 -365q0 -100 -22 -238q-67 -400 -239 -566q-171 -165 -486 -165zM645 1151h-88l-149 -858h90q149 0 232 92t128 346q21 133 21 195q0 126 -57 176q-56 49 -177 49z" />
    <glyph glyph-name="E" unicode="E" horiz-adv-x="1015" 
d="M881 598h-424l-56 -309h451q59 0 51 -58l-31 -174q-12 -57 -65 -57h-721q-63 0 -51 57l235 1332q8 57 64 57h713q59 0 51 -57l-31 -175q-7 -57 -66 -57h-446l-49 -283h418q56 0 49 -57l-29 -164q-10 -55 -63 -55z" />
    <glyph glyph-name="F" unicode="F" horiz-adv-x="983" 
d="M868 557h-415l-88 -498q-12 -59 -68 -59h-211q-58 0 -51 59l233 1327q12 60 68 60h702q56 0 49 -57l-30 -175q-7 -57 -64 -57h-434l-57 -315h411q62 0 50 -58l-29 -172q-12 -55 -66 -55z" />
    <glyph glyph-name="G" unicode="G" horiz-adv-x="1222" 
d="M764 883h377q60 0 49 -58l-121 -686q-8 -52 -63 -80q-149 -79 -392 -79q-255 0 -387 113q-133 114 -133 370q0 99 27 266q72 406 251 573q178 166 505 166q216 0 329 -67q50 -24 31 -72l-59 -155q-23 -53 -86 -35q-102 35 -211 35q-199 0 -289 -95t-135 -354
q-23 -143 -23 -215q0 -132 61 -188t189 -56q66 0 115 19l61 340h-135q-61 0 -51 55l26 145q11 58 64 58z" />
    <glyph glyph-name="H" unicode="H" horiz-adv-x="1230" 
d="M721 57l94 531h-356l-94 -531q-7 -57 -64 -57h-215q-63 0 -51 57l235 1332q8 57 64 57h215q59 0 51 -57l-88 -504h354l90 504q6 57 64 57h215q59 0 51 -57l-235 -1332q-12 -57 -64 -57h-215q-63 0 -51 57z" />
    <glyph glyph-name="I" unicode="I" horiz-adv-x="565" 
d="M45 57l236 1332q7 57 63 57h215q59 0 51 -57l-235 -1332q-12 -57 -64 -57h-217q-61 0 -49 57z" />
    <glyph glyph-name="J" unicode="J" horiz-adv-x="845" 
d="M414 469l161 920q7 57 64 57h215q58 0 51 -57l-170 -963q-41 -238 -153 -340q-113 -102 -322 -102q-155 0 -256 49q-54 25 -33 76l62 159q21 53 69 41q64 -26 136 -26q143 0 176 186z" />
    <glyph glyph-name="K" unicode="K" horiz-adv-x="1159" 
d="M520 938l385 457q40 51 86 51h254q30 0 38 -23t-13 -49l-510 -594l293 -708q10 -28 -2 -50q-13 -22 -43 -22h-228q-50 0 -71 53l-240 592l-104 -588q-7 -57 -64 -57h-215q-63 0 -51 57l235 1332q8 57 64 57h215q59 0 51 -57z" />
    <glyph glyph-name="L" unicode="L" horiz-adv-x="958" 
d="M600 1389l-192 -1090h395q59 0 51 -57l-33 -185q-12 -57 -65 -57h-670q-63 0 -51 57l235 1332q8 57 64 57h215q59 0 51 -57z" />
    <glyph glyph-name="M" unicode="M" horiz-adv-x="1456" 
d="M705 340q-36 0 -46 37l-161 483l-142 -803q-12 -57 -63 -57h-207q-63 0 -51 57l235 1332q8 57 64 57h192q54 0 66 -39l192 -584l400 584q27 39 73 39h203q56 0 49 -57l-233 -1332q-12 -57 -66 -57h-206q-62 0 -50 57l142 803l-332 -483q-22 -37 -59 -37z" />
    <glyph glyph-name="N" unicode="N" horiz-adv-x="1253" 
d="M1307 1389l-236 -1332q-7 -57 -63 -57h-197q-55 0 -70 43l-252 782l-135 -768q-12 -57 -63 -57h-205q-63 0 -51 57l235 1332q8 57 64 57h196q55 0 70 -41l252 -784l135 768q7 57 64 57h204q59 0 52 -57z" />
    <glyph glyph-name="O" unicode="O" horiz-adv-x="1259" 
d="M786 1468q469 0 469 -475q0 -109 -26 -272q-72 -403 -233 -573q-159 -168 -433 -168q-229 0 -350 112t-121 363q0 105 29 270q72 404 232 573q161 170 433 170zM594 268q116 0 185 101t114 354q27 153 27 246q0 109 -41 159t-125 50q-117 0 -186 -101q-67 -98 -111 -354
q-29 -169 -29 -246q0 -110 41 -160q40 -49 125 -49z" />
    <glyph glyph-name="P" unicode="P" horiz-adv-x="1175" 
d="M475 690h119q120 0 176 50q55 49 78 184q12 57 12 100q0 73 -43 103q-44 30 -139 30h-121zM299 0h-213q-58 0 -51 57l235 1332q8 57 64 57h377q248 0 366 -85q119 -86 119 -282q0 -81 -14 -155q-46 -289 -190 -405q-143 -116 -427 -116h-141l-59 -346q-12 -57 -66 -57z
" />
    <glyph glyph-name="Q" unicode="Q" horiz-adv-x="1257" 
d="M821 70q46 -17 105 -17q22 0 43 4t32 4q47 0 39 -45l-26 -145q-10 -61 -78 -61q-273 0 -455 188q-181 10 -283 126t-102 345q0 117 27 262q69 396 229 567q159 170 432 170q471 0 471 -473q0 -124 -26 -266q-96 -523 -408 -659zM596 283q116 0 184 99t111 349
q29 162 29 236q0 211 -168 211q-115 0 -183 -101q-66 -99 -110 -346q-29 -169 -29 -242q0 -107 41 -157q40 -49 125 -49z" />
    <glyph glyph-name="R" unicode="R" horiz-adv-x="1183" 
d="M483 731h133q120 0 175 48q53 46 75 163q8 70 8 86q0 72 -41 100q-43 29 -143 29h-133zM334 1446h391q245 0 367 -83q120 -81 120 -271q0 -83 -14 -152q-60 -346 -340 -434l172 -434q14 -26 2 -49t-45 -23h-207q-58 0 -73 47l-154 410h-119l-69 -400q-12 -57 -66 -57
h-213q-63 0 -51 57l235 1332q8 57 64 57z" />
    <glyph glyph-name="S" unicode="S" horiz-adv-x="1030" 
d="M967 467q0 -228 -154 -358q-153 -129 -401 -129q-252 0 -373 59q-28 12 -36 26q-7 12 1 46l62 157q22 60 79 39q107 -43 240 -43q99 0 170 37q72 37 72 123q0 46 -42 87q-40 39 -136 95q-124 69 -199 159q-74 89 -74 224q0 236 139 357q138 120 398 120q210 0 321 -51
q29 -12 36 -25q8 -14 -3 -44l-59 -158q-21 -53 -80 -37q-91 31 -209 31q-203 0 -203 -146q0 -53 42 -95t126 -93q138 -83 211 -168q72 -84 72 -213z" />
    <glyph glyph-name="T" unicode="T" horiz-adv-x="997" 
d="M172 1206l33 183q7 57 65 57h795q57 0 49 -57l-31 -183q-12 -59 -67 -59h-234l-192 -1090q-8 -57 -64 -57h-215q-63 0 -51 57l193 1090h-230q-61 0 -51 59z" />
    <glyph glyph-name="U" unicode="U" horiz-adv-x="1214" 
d="M543 -20q-455 0 -455 364q0 57 12 129l164 916q7 57 64 57h215q59 0 51 -57l-156 -879q-10 -54 -10 -92q0 -142 143 -142q97 0 147 56q51 57 73 176l153 881q8 57 64 57h217q57 0 49 -57l-162 -916q-45 -257 -180 -376q-133 -117 -389 -117z" />
    <glyph glyph-name="V" unicode="V" horiz-adv-x="1206" 
d="M674 0h-301q-60 0 -66 61l-108 1319q-5 66 55 66h227q56 0 60 -55l28 -744l2 -305h7l110 305l293 744q18 55 72 55h237q27 0 40 -19q12 -17 -1 -47l-573 -1319q-27 -61 -82 -61z" />
    <glyph glyph-name="W" unicode="W" horiz-adv-x="1851" 
d="M989 1446h201q58 0 63 -53l9 -654l2 -331h6l114 329l240 654q18 55 70 55h233q30 0 41 -18q10 -17 -2 -48l-526 -1319q-27 -61 -82 -61h-262q-65 0 -66 61l-24 523l-2 317h-7l-114 -317l-205 -523q-22 -61 -82 -61h-262q-65 0 -66 61l-63 1319q0 66 55 66h225
q56 0 60 -55l10 -654l-2 -329h6l115 331l241 654q21 53 74 53z" />
    <glyph glyph-name="X" unicode="X" horiz-adv-x="1181" 
d="M588 451l-273 -400q-35 -51 -84 -51h-229q-31 0 -39 23t10 47l478 663l-238 643q-8 28 4 48q13 22 41 22h234q54 0 71 -51l123 -383l258 383q33 51 84 51h234q29 0 37 -23q7 -22 -11 -47l-463 -643l242 -663q8 -28 -5 -48q-14 -22 -42 -22h-229q-53 0 -70 51z" />
    <glyph glyph-name="Y" unicode="Y" horiz-adv-x="1185" 
d="M770 539l-84 -482q-12 -57 -65 -57h-215q-60 0 -52 57l86 482l-241 837q-8 25 5 47q14 23 46 23h223q57 0 68 -53l82 -377l24 -197h6l97 197l215 377q29 53 79 53h230q34 0 41 -24q8 -25 -8 -46z" />
    <glyph glyph-name="Z" unicode="Z" horiz-adv-x="1081" 
d="M6 57l31 174q8 42 45 91l645 825h-448q-60 0 -50 59l33 183q8 57 64 57h770q58 0 51 -57l-31 -175q-7 -43 -45 -88l-643 -829h481q61 0 49 -55l-32 -185q-8 -57 -64 -57h-807q-61 0 -49 57z" />
    <glyph glyph-name="bracketleft" unicode="[" horiz-adv-x="679" 
d="M528 -41l-22 -131q-8 -53 -62 -53h-362q-55 0 -47 53l276 1565q8 53 60 53h362q59 0 47 -53l-22 -131q-8 -54 -60 -54h-129l-211 -1196h123q55 0 47 -53z" />
    <glyph glyph-name="backslash" unicode="\" horiz-adv-x="825" 
d="M473 1397l250 -1334q11 -63 -53 -63h-172q-50 0 -56 49l-252 1331q-10 66 54 66h166q53 0 63 -49z" />
    <glyph glyph-name="bracketright" unicode="]" horiz-adv-x="679" 
d="M-51 -172l22 131q12 53 62 53h129l211 1196h-123q-55 0 -49 54l24 131q8 53 60 53h362q55 0 47 -53l-276 -1565q-8 -53 -60 -53h-362q-55 0 -47 53z" />
    <glyph glyph-name="asciicircum" unicode="^" horiz-adv-x="1122" 
d="M641 1446h178q54 0 66 -43l196 -627q8 -30 -5 -48q-13 -19 -42 -19h-172q-51 0 -63 47l-115 383l-250 -383q-30 -47 -76 -47h-180q-32 0 -39 19q-8 20 13 48l415 627q30 43 74 43z" />
    <glyph glyph-name="underscore" unicode="_" horiz-adv-x="968" 
d="M762 -242h-803q-51 0 -43 54l10 65q8 53 60 53h800q56 0 48 -53l-13 -65q-8 -54 -59 -54z" />
    <glyph glyph-name="grave" unicode="`" horiz-adv-x="651" 
d="M586 1421l45 -166q10 -43 -37 -43h-113q-44 0 -67 29l-135 160q-15 16 -7 37q7 20 33 20h227q44 0 54 -37z" />
    <glyph glyph-name="a" unicode="a" horiz-adv-x="1024" 
d="M981 758l-125 -705q-8 -53 -57 -53h-166q-49 0 -53 45l4 72q-111 -131 -287 -131q-130 0 -205 68q-76 69 -76 192q0 106 36 184q36 79 93 125q58 47 147 76q88 28 176 39q74 9 202 14l10 59q15 70 -20 102t-123 32q-105 0 -261 -48q-59 -16 -59 37l2 140q0 47 49 63
q153 59 338 59q383 0 383 -276q0 -48 -8 -94zM618 397l21 109q-155 -6 -238 -54q-82 -48 -82 -157q0 -92 99 -92q86 0 136 53q49 52 64 141z" />
    <glyph glyph-name="b" unicode="b" horiz-adv-x="1132" 
d="M424 555q-16 -77 -16 -149q0 -170 133 -170q88 0 139 72t84 247q18 121 18 162q0 157 -129 157q-88 0 -143 -74q-56 -76 -86 -245zM340 117l-23 -72q-17 -45 -61 -45h-182q-55 0 -47 53l235 1340q12 53 60 53h204q55 0 47 -53l-69 -387q100 124 274 124q322 0 322 -366
q0 -97 -21 -211q-52 -299 -167 -437q-114 -136 -302 -136q-93 0 -170 38q-79 39 -100 99z" />
    <glyph glyph-name="c" unicode="c" horiz-adv-x="888" 
d="M82 559q96 571 563 571q171 0 256 -49q43 -21 25 -65l-60 -146q-16 -46 -73 -30q-70 22 -131 22q-110 0 -173 -69q-64 -70 -92 -236q-14 -73 -14 -137q0 -92 42 -132q41 -40 128 -40q83 0 152 26q58 18 59 -30l6 -146q4 -40 -47 -67q-102 -51 -240 -51q-198 0 -309 99
t-111 298q0 76 19 182z" />
    <glyph glyph-name="d" unicode="d" horiz-adv-x="1132" 
d="M739 555q17 97 17 150q0 170 -135 170q-88 0 -140 -73q-52 -74 -82 -247q-18 -101 -18 -164q0 -155 127 -155q88 0 144 74q57 75 87 245zM664 45l6 72q-46 -63 -122 -100q-75 -37 -163 -37q-324 0 -324 362q0 99 21 213q51 296 167 436t304 140q88 0 164 -36
q75 -35 98 -89l70 387q8 53 59 53h203q59 0 47 -53l-236 -1340q-8 -53 -59 -53h-182q-53 0 -53 45z" />
    <glyph glyph-name="e" unicode="e" horiz-adv-x="1038" 
d="M580 217q115 0 225 43q29 10 45 0t16 -37v-121q0 -44 -53 -67q-129 -55 -285 -55q-465 0 -465 405q0 52 19 180q100 565 551 565q187 0 282 -94q97 -95 97 -270q0 -63 -17 -160l-18 -112q-11 -58 -70 -58h-540q-5 -45 -5 -51q2 -168 218 -168zM610 899q-83 0 -132 -61
q-50 -63 -83 -205h322l4 20q12 83 12 109q0 137 -123 137z" />
    <glyph glyph-name="f" unicode="f" horiz-adv-x="684" 
d="M561 1067h141q58 0 46 -55l-25 -150q-12 -53 -61 -53h-146l-135 -758q-8 -51 -59 -51h-197q-59 0 -47 51l133 758h-70q-53 0 -45 51l27 154q8 53 57 53h76l14 78q30 174 113 245q82 70 246 70q102 0 153 -16q43 -12 35 -53l-22 -125q-6 -59 -58 -54q-37 5 -59 5
q-52 0 -77 -23q-24 -22 -34 -82z" />
    <glyph glyph-name="g" unicode="g" horiz-adv-x="1081" 
d="M711 629q12 67 12 114q0 148 -121 148q-76 0 -123 -64t-71 -200q-13 -80 -13 -125q0 -140 117 -140q154 0 199 267zM1087 1055l-153 -881q-39 -215 -168 -317q-130 -103 -367 -103q-232 0 -336 49q-43 22 -28 66l45 129q16 55 72 37q112 -39 235 -39q114 0 173 46
q61 47 79 142l12 70q-89 -123 -258 -123q-313 0 -313 322q0 89 16 176q88 499 439 499q91 0 158 -38q68 -39 93 -97l21 72q17 45 63 45h174q53 0 43 -55z" />
    <glyph glyph-name="h" unicode="h" horiz-adv-x="1091" 
d="M1044 737l-120 -684q-8 -53 -60 -53h-202q-56 0 -48 53l113 633q6 38 6 66q0 102 -98 102q-155 0 -193 -207l-104 -594q-12 -53 -62 -53h-202q-55 0 -47 53l235 1340q12 53 60 53h204q55 0 47 -53l-67 -389q107 126 278 126q135 0 204 -70t69 -204q0 -48 -13 -119z" />
    <glyph glyph-name="i" unicode="i" horiz-adv-x="516" 
d="M516 1055l-176 -1002q-12 -53 -59 -53h-205q-55 0 -47 53l178 1002q10 55 59 55h205q52 0 45 -55zM578 1389l-23 -125q-8 -54 -59 -54h-211q-53 0 -45 54l22 125q7 55 60 55h210q58 0 46 -55z" />
    <glyph glyph-name="j" unicode="j" horiz-adv-x="555" 
d="M82 125l164 930q7 55 61 55h203q54 0 47 -55l-172 -977q-33 -178 -106 -246q-75 -70 -232 -70q-99 0 -143 15q-43 12 -37 53l27 152q6 51 55 47q11 0 22 -1t27 -1q36 0 56 21q21 22 28 77zM618 1389l-22 -125q-8 -54 -59 -54h-211q-55 0 -47 54l22 125q12 55 59 55h211
q54 0 47 -55z" />
    <glyph glyph-name="k" unicode="k" horiz-adv-x="1015" 
d="M879 0h-215q-53 0 -74 45l-180 422l-72 -414q-12 -53 -59 -53h-205q-55 0 -47 53l235 1340q12 53 60 53h204q55 0 47 -53l-110 -627l276 303q30 41 80 41h238q31 0 37 -23q6 -22 -19 -47l-405 -432l248 -540q12 -28 1 -48t-40 -20z" />
    <glyph glyph-name="l" unicode="l" horiz-adv-x="516" 
d="M575 1393l-235 -1340q-12 -53 -59 -53h-205q-55 0 -47 53l237 1340q8 53 58 53h204q55 0 47 -53z" />
    <glyph glyph-name="m" unicode="m" horiz-adv-x="1619" 
d="M997 662l-106 -609q-12 -53 -60 -53h-198q-59 0 -47 53l112 639q7 47 7 70q0 94 -87 94q-144 0 -182 -203l-106 -600q-8 -53 -60 -53h-200q-59 0 -47 53l176 1002q10 55 61 55h182q54 0 54 -45l-2 -74q112 139 276 139q199 0 238 -153q130 153 319 153q260 0 260 -266
q0 -48 -10 -112l-125 -699q-8 -53 -57 -53h-201q-57 0 -49 53l115 639q6 38 6 68q0 96 -88 96q-71 0 -118 -53q-46 -53 -63 -141z" />
    <glyph glyph-name="n" unicode="n" horiz-adv-x="1083" 
d="M1038 741l-123 -688q-8 -53 -59 -53h-203q-55 0 -47 53l111 635q8 53 8 68q0 98 -98 98q-153 0 -191 -207l-104 -594q-12 -53 -62 -53h-202q-56 0 -48 53l179 1002q10 55 59 55h182q54 0 54 -45l-2 -74q111 139 286 139q271 0 271 -274q0 -44 -11 -115z" />
    <glyph glyph-name="o" unicode="o" horiz-adv-x="1085" 
d="M475 -20q-200 0 -305 98q-107 99 -107 297q0 71 17 182q51 294 189 434q138 139 370 139q200 0 305 -98q107 -99 107 -299q0 -87 -17 -180q-52 -293 -190 -434q-136 -139 -369 -139zM500 233q86 0 136 74t83 248q18 108 18 168q0 154 -123 154q-86 0 -136 -74
q-51 -76 -81 -248q-20 -97 -20 -168q0 -154 123 -154z" />
    <glyph glyph-name="p" unicode="p" horiz-adv-x="1128" 
d="M418 555q-15 -84 -15 -149q0 -170 134 -170q87 0 139 72q54 74 84 247q16 102 16 162q0 82 -31 121q-29 36 -96 36q-88 0 -144 -75q-57 -77 -87 -244zM494 1065l-7 -74q47 62 122 101q73 38 161 38q324 0 324 -368q0 -84 -19 -209q-51 -297 -165 -435t-302 -138
q-92 0 -167 34q-77 34 -99 90l-49 -276q-8 -53 -62 -53h-202q-55 0 -47 53l217 1227q10 55 61 55h180q54 0 54 -45z" />
    <glyph glyph-name="q" unicode="q" horiz-adv-x="1128" 
d="M739 555q15 84 15 150q0 169 -133 169q-89 0 -140 -72q-52 -74 -82 -247q-18 -101 -18 -164q0 -155 127 -155q88 0 144 75q57 77 87 244zM823 991l21 74q16 45 63 45h183q52 0 45 -55l-217 -1227q-6 -53 -60 -53h-205q-53 0 -45 53l47 276q-85 -124 -270 -124
q-324 0 -324 366q0 97 21 211q52 298 169 436q116 137 304 137q90 0 163 -38q75 -39 105 -101z" />
    <glyph glyph-name="r" unicode="r" horiz-adv-x="745" 
d="M260 1110h186q52 0 50 -51l-11 -115q46 72 118 123q76 53 165 53q31 0 40 -12t3 -41l-39 -231q-11 -48 -53 -48q-4 0 -32 4q-21 3 -38 3q-88 0 -148 -66q-61 -67 -79 -174l-90 -502q-8 -53 -60 -53h-202q-59 0 -47 53l176 1002q10 55 61 55z" />
    <glyph glyph-name="s" unicode="s" horiz-adv-x="860" 
d="M788 362q0 -197 -123 -289q-125 -93 -341 -93q-190 0 -308 45q-46 15 -30 61l45 137q17 56 69 35q95 -31 201 -31q67 0 125 25q55 24 55 78q0 38 -35 65q-36 28 -116 66q-110 50 -168 110q-60 61 -60 172q0 195 117 291t328 96q189 0 284 -40q46 -15 29 -62l-43 -135
q-18 -52 -67 -37q-84 27 -177 27q-161 0 -161 -99q0 -26 23 -49q25 -25 48 -38q7 -4 19 -10.5t32.5 -17t36.5 -18.5q105 -52 162 -121q55 -67 55 -168z" />
    <glyph glyph-name="t" unicode="t" horiz-adv-x="698" 
d="M659 809h-151l-78 -438q-15 -72 2 -97q16 -24 74 -24q5 0 29 2t28 2q23 2 33 -10t6 -39l-20 -146q-4 -43 -54 -55q-66 -18 -135 -18q-146 0 -216 52q-71 53 -71 177q0 45 13 117l84 477h-70q-55 0 -47 51l27 154q12 53 59 53h80l41 236q7 51 61 51h191q55 0 47 -51
l-41 -236h149q58 0 48 -55l-27 -150q-8 -53 -62 -53z" />
    <glyph glyph-name="u" unicode="u" horiz-adv-x="1075" 
d="M68 348l127 707q6 55 59 55h203q54 0 47 -55l-113 -635q-6 -38 -6 -68q0 -100 96 -100q147 0 185 201l106 602q10 55 62 55h202q57 0 47 -55l-178 -1002q-8 -53 -59 -53h-182q-54 0 -54 45l2 74q-94 -139 -270 -139q-285 0 -285 264q0 40 11 104z" />
    <glyph glyph-name="v" unicode="v" horiz-adv-x="997" 
d="M539 0h-240q-55 0 -61 49l-107 1000q-6 61 49 61h209q53 0 53 -53l21 -486l4 -233h8l86 233l189 486q23 53 71 53h219q30 0 37 -16q8 -18 -6 -45l-459 -1000q-24 -49 -73 -49z" />
    <glyph glyph-name="w" unicode="w" horiz-adv-x="1542" 
d="M795 1110h161q48 0 52 -49l22 -490v-223h4l74 223l178 486q18 53 70 53h219q58 0 31 -61l-412 -994q-22 -55 -74 -55h-213q-57 0 -63 55l-25 389l-4 256h-6l-96 -256l-162 -389q-22 -55 -76 -55h-213q-55 0 -61 55l-62 994q-4 61 49 61h207q56 0 56 -53l8 -486l-6 -223h6
l80 223l192 490q21 49 64 49z" />
    <glyph glyph-name="x" unicode="x" horiz-adv-x="1003" 
d="M461 1067l94 -274l193 274q27 43 77 43h211q28 0 32 -19q5 -20 -13 -44l-369 -484l205 -502q11 -23 0 -42q-10 -19 -35 -19h-213q-53 0 -70 41l-94 287l-198 -287q-24 -41 -76 -41h-219q-27 0 -33 19q-6 20 14 42l383 502l-200 484q-11 25 -2 44t36 19h207q58 0 70 -43z
" />
    <glyph glyph-name="y" unicode="y" horiz-adv-x="995" 
d="M1069 1049l-420 -965q-78 -185 -164 -254q-87 -70 -272 -70q-137 0 -203 21q-44 16 -37 53l33 143q11 48 60 48q7 0 25 -3q25 -4 35 -5q12 -1 38 -1q118 0 100 117l-129 916q-10 61 47 61h209q55 0 55 -53l33 -490l6 -239h9l79 239l177 490q18 53 67 53h217q29 0 38 -16
t-3 -45z" />
    <glyph glyph-name="z" unicode="z" horiz-adv-x="927" 
d="M952 1055l-20 -119q-7 -39 -39 -74l-494 -596h367q55 0 47 -53l-29 -160q-8 -53 -59 -53h-682q-59 0 -47 53l20 119q8 40 35 70l500 602h-346q-55 0 -47 51l28 160q10 55 62 55h657q57 0 47 -55z" />
    <glyph glyph-name="braceleft" unicode="{" horiz-adv-x="679" 
d="M47 532l29 156q8 53 61 53h23q46 0 80 67q32 64 61 230q44 247 119 327q77 81 254 81h86q53 0 45 -53l-25 -129q-6 -54 -63 -54h-25q-47 0 -69 -46q-23 -47 -45 -175q-30 -175 -88 -265t-148 -114q119 -38 119 -211q0 -77 -17 -168q-18 -96 -18 -147q0 -74 55 -74h25
q53 0 45 -53l-23 -129q-8 -53 -63 -53h-88q-136 0 -193 45t-57 164q0 71 23 198q22 128 22 193q0 104 -57 104h-25q-51 0 -43 53z" />
    <glyph glyph-name="bar" unicode="|" horiz-adv-x="614" 
d="M449 1434v-1606q0 -53 -54 -53h-176q-53 0 -53 53v1606q0 53 53 53h176q54 0 54 -53z" />
    <glyph glyph-name="braceright" unicode="}" horiz-adv-x="679" 
d="M680 688l-27 -156q-8 -53 -63 -53h-23q-46 0 -77 -65q-32 -68 -62 -232q-44 -244 -119 -325q-76 -82 -254 -82h-86q-53 0 -45 53l23 129q8 53 63 53h27q46 0 69 47q23 48 44 174q34 181 89 266q57 89 148 113q-119 38 -119 211q0 77 17 168q18 96 18 148q0 73 -55 73h-27
q-51 0 -45 54l25 129q8 53 61 53h88q136 0 194 -44q56 -43 56 -165q0 -90 -20 -199q-23 -138 -23 -196q0 -101 57 -101h23q51 0 43 -53z" />
    <glyph glyph-name="asciitilde" unicode="~" horiz-adv-x="1122" 
d="M397 938q98 0 193 -51l94 -49q59 -31 102 -31q61 0 95 61q12 12 20 37q25 41 68 19l102 -56q35 -19 25 -71q-34 -120 -105 -194q-70 -73 -174 -73q-91 0 -192 52l-95 51q-58 29 -100 29q-57 0 -98 -62l-19 -35q-23 -44 -67 -20l-103 55q-35 23 -24 68q34 122 104 196
q69 74 174 74z" />
    <glyph glyph-name="uni00A0" unicode="&#xa0;" horiz-adv-x="0" 
 />
    <glyph glyph-name="exclamdown" unicode="&#xa1;" horiz-adv-x="569" 
d="M549 1053l-37 -213q-12 -56 -66 -56h-208q-63 0 -52 56l39 213q11 57 62 57h215q58 0 47 -57zM242 655h145q55 0 49 -53l-94 -809q-6 -57 -61 -57h-248q-61 0 -45 57l190 809q12 53 64 53z" />
    <glyph glyph-name="cent" unicode="&#xa2;" horiz-adv-x="925" 
d="M84 557q91 522 504 567l22 129q8 52 58 52h86q51 0 43 -52l-23 -129q103 -15 160 -45q40 -21 22 -63l-59 -146q-21 -47 -72 -32q-66 24 -145 24q-117 0 -183 -70q-68 -73 -98 -237q-12 -73 -12 -129q0 -94 46 -136t140 -42q82 0 160 24q56 18 62 -30l8 -144
q2 -41 -47 -67q-67 -33 -183 -45l-22 -129q-8 -52 -59 -52h-84q-51 0 -43 52l22 131q-148 18 -233 118q-86 101 -86 279q0 91 16 172z" />
    <glyph glyph-name="sterling" unicode="&#xa3;" horiz-adv-x="1187" 
d="M295 647h-156q-44 0 -37 43l13 74q8 41 49 41h92q-27 99 -27 162q0 234 157 368q155 133 390 133q201 0 307 -81q109 -83 109 -238q0 -170 -70 -170h-190q-41 0 -41 31q0 13 8 45t8 49q0 96 -147 96q-106 0 -162 -70q-55 -68 -55 -174q0 -54 20 -151h275q45 0 39 -41
l-15 -74q-6 -43 -49 -43h-229q21 -252 -185 -383q67 19 119 19q39 0 109 -16q66 -15 102 -15q99 0 127 127q12 47 66 47h147q62 0 51 -68q-33 -187 -104 -280q-72 -94 -215 -94q-88 0 -205 31q-120 32 -190 32q-136 0 -240 -49q-51 -21 -64 4l-84 162q-18 35 21 59
q262 163 262 365q0 29 -6 59z" />
    <glyph glyph-name="currency" unicode="&#xa4;" horiz-adv-x="1150" 
d="M143 256l88 88q-53 97 -53 238q0 138 53 235l-88 88q-31 31 0 62l47 47q31 29 60 0l78 -80q100 80 247 80q151 0 246 -80l80 80q29 29 60 0l49 -47q28 -31 0 -62l-92 -90q55 -100 55 -233q0 -141 -55 -236l92 -90q29 -29 0 -59l-49 -47q-31 -31 -60 0l-80 79
q-89 -82 -246 -82q-153 0 -247 82l-78 -79q-29 -31 -60 0l-47 47q-30 30 0 59zM741 582q0 109 -44 167q-43 56 -122 56q-80 0 -123 -56q-44 -58 -44 -167q0 -110 45 -167t122 -57q79 0 122 57q44 58 44 167z" />
    <glyph glyph-name="yen" unicode="&#xa5;" horiz-adv-x="1175" 
d="M729 336l-49 -279q-12 -57 -64 -57h-217q-61 0 -49 57l49 279h-262q-47 0 -37 43l11 72q7 43 49 43h268l4 30l-31 115h-211q-44 0 -36 45l12 70q6 43 49 43h143l-163 579q-8 28 5 48q14 22 46 22h225q59 0 70 -53l108 -559h6l308 559q30 53 79 53h226q33 0 41 -23t-9 -47
l-368 -579h141q44 0 37 -43l-12 -70q-6 -45 -49 -45h-215l-72 -115l-4 -30h262q44 0 37 -43l-13 -72q-6 -43 -49 -43h-266z" />
    <glyph glyph-name="brokenbar" unicode="&#xa6;" horiz-adv-x="614" 
d="M449 1434v-582q0 -53 -54 -53h-176q-53 0 -53 53v582q0 53 53 53h176q54 0 54 -53zM449 410v-582q0 -53 -54 -53h-176q-53 0 -53 53v582q0 53 53 53h176q54 0 54 -53z" />
    <glyph glyph-name="section" unicode="&#xa7;" horiz-adv-x="1200" 
d="M131 606q0 98 57 178q58 80 154 121q-78 82 -78 178q0 201 144 293q145 92 366 92q198 0 330 -43q51 -18 35 -69l-39 -144q-16 -52 -78 -36q-106 28 -231 28q-205 0 -211 -114q0 -23 10 -40t36 -34q26 -16 45 -27q17 -9 61 -28q35 -15 65 -29q160 -69 239 -141
q80 -72 80 -181q0 -177 -209 -288q86 -72 86 -181q0 -103 -49 -179q-50 -78 -133 -119q-80 -40 -179 -62q-94 -21 -200 -21q-228 0 -348 41q-30 11 -37 25q-7 15 0 45l39 143q16 56 78 39q111 -30 260 -30q35 0 78 5q42 5 81 16q41 12 67 36t26 59q0 23 -12 41
q-12 19 -37 34q-24 15 -48 27q-9 5 -32 14.5t-30 12.5q-37 16 -60 27q-175 78 -249 140q-77 65 -77 171zM539 772q-41 -11 -77 -47q-34 -34 -34 -80q0 -52 56 -86q57 -34 200 -94q21 -8 25 -10q42 16 75 47q35 33 35 73q0 57 -65 97q-66 40 -215 100z" />
    <glyph glyph-name="dieresis" unicode="&#xa8;" horiz-adv-x="651" 
d="M430 1384l-22 -120q-8 -52 -58 -52h-170q-53 0 -45 52l23 120q8 52 57 52h168q55 0 47 -52zM817 1384l-20 -120q-12 -52 -60 -52h-170q-53 0 -45 52l23 120q8 52 57 52h170q53 0 45 -52z" />
    <glyph glyph-name="copyright" unicode="&#xa9;" horiz-adv-x="1624" 
d="M883 498q64 0 114 20q44 12 50 -24l26 -105q7 -34 -26 -49q-83 -39 -197 -39q-189 0 -286 101q-98 102 -99 331q1 226 98 329q95 101 285 101q110 0 192 -39q34 -12 27 -49l-27 -104q-7 -37 -49 -25q-47 19 -110 19q-89 0 -133 -53q-43 -52 -43 -179q0 -129 44 -182
t134 -53zM266 723q0 -263 136 -424q136 -162 411 -162t410 162t135 424t-135 424t-410 162t-411 -162q-136 -161 -136 -424zM94 723q0 321 188 533t531 212q344 0 532 -212q187 -211 187 -533t-187 -533q-186 -210 -532 -210q-345 0 -531 210q-188 212 -188 533z" />
    <glyph glyph-name="ordfeminine" unicode="&#xaa;" horiz-adv-x="823" 
d="M653 1317l17 84q-250 -4 -250 -160q0 -72 78 -72q64 0 105 41q39 39 50 107zM621 1044l2 43q-90 -94 -226 -94q-94 0 -160 58q-65 57 -65 151q0 86 30 149q30 62 76 98q47 36 118 57q74 22 141 29q68 8 157 9l11 53q8 53 -18 76t-93 23q-84 0 -211 -39q-51 -15 -51 33
l-2 108q0 34 41 51q143 49 270 49q311 0 311 -225q0 -35 -6 -76l-96 -544q-8 -47 -55 -47h-129q-45 0 -45 38z" />
    <glyph glyph-name="guillemotleft" unicode="&#xab;" horiz-adv-x="968" 
d="M76 594q6 16 10 24l193 287q24 39 65 39h174q58 0 25 -53l-201 -297l96 -297q15 -53 -41 -53h-172q-45 0 -57 39l-90 286q-4 17 -2 25zM492 594q6 16 12 24l190 287q24 39 68 39h172q57 0 24 -53l-198 -297l94 -297q15 -53 -39 -53h-174q-45 0 -57 39l-88 286q-4 9 -4 25
z" />
    <glyph glyph-name="logicalnot" unicode="&#xac;" horiz-adv-x="1150" 
d="M1079 799l-92 -514q-8 -56 -61 -56h-195q-56 0 -45 54l55 309h-567q-53 0 -45 53l27 154q8 53 59 53h817q55 0 47 -53z" />
    <glyph glyph-name="uni00AD" unicode="&#xad;" horiz-adv-x="692" 
d="M573 455h-454q-53 0 -45 53l26 149q8 52 60 52h452q55 0 47 -52l-26 -149q-8 -53 -60 -53z" />
    <glyph glyph-name="registered" unicode="&#xae;" horiz-adv-x="876" 
d="M410 1120h34q36 0 48 12t12 39q0 28 -12 40t-48 12h-34v-103zM438 1468q168 0 259 -103t91 -257t-91 -257t-259 -103q-167 0 -258 103q-92 104 -92 257t92 257q91 103 258 103zM438 825q134 0 200 78q67 79 67 205t-67 205q-66 78 -200 78q-133 0 -199 -78
q-67 -79 -67 -205t67 -205q66 -78 199 -78zM299 934v358q0 23 23 23h129q163 0 163 -144q0 -96 -75 -122l69 -113q4 -10 0 -17q-5 -8 -14 -8h-72q-15 0 -26 17l-60 104h-26v-98q0 -23 -23 -23h-65q-23 0 -23 23z" />
    <glyph glyph-name="macron" unicode="&#xaf;" horiz-adv-x="651" 
d="M739 1223h-559q-53 0 -43 49l15 84q7 49 55 49h561q50 0 43 -49l-14 -84q-10 -49 -58 -49z" />
    <glyph glyph-name="degree" unicode="&#xb0;" horiz-adv-x="735" 
d="M467 1008q72 0 121 52t49 132q0 54 -34 88q-35 35 -91 35q-72 0 -121 -54t-51 -131q0 -54 35 -89q33 -33 92 -33zM446 858q-115 0 -191 71q-75 71 -75 181q0 145 101 249q100 103 251 103q120 0 194 -70q75 -70 75 -182q0 -144 -102 -248t-253 -104z" />
    <glyph glyph-name="plusminus" unicode="&#xb1;" horiz-adv-x="1122" 
d="M1018 684h-277l-51 -291q-8 -51 -59 -51h-180q-53 0 -45 51l51 291h-273q-53 0 -45 53l27 150q8 51 59 51h277l49 283q8 53 59 53h181q57 0 45 -53l-50 -283h273q57 0 45 -51l-27 -150q-8 -53 -59 -53zM897 0h-831q-60 0 -48 53l19 103q8 53 59 53h832q59 0 47 -53
l-19 -103q-8 -53 -59 -53z" />
    <glyph glyph-name="two.superior" unicode="&#xb2;" 
d="M477 1585q0 -49 -45 -49h-127q-39 0 -39 43q0 149 92 235q90 84 252 84q138 0 209 -61q72 -61 72 -162q0 -243 -375 -479h258q47 0 41 -45l-18 -100q-7 -45 -52 -45h-528q-47 0 -39 45l17 90q6 24 41 47q74 50 126 87q55 40 128 102q74 64 117 131q41 65 46 130
q5 72 -71 72q-105 0 -105 -125z" />
    <glyph glyph-name="three.superior" unicode="&#xb3;" 
d="M477 1368h-84q-45 0 -39 45l17 84q6 45 49 45h84q49 0 85 28q34 27 34 77q0 65 -119 65q-67 0 -162 -31q-42 -15 -47 25l-4 104q0 30 37 45q98 43 235 43q130 0 213 -50q82 -49 82 -146q0 -78 -42 -142q-42 -65 -111 -92q98 -37 98 -161q0 -157 -103 -236
q-102 -78 -260 -78q-177 0 -262 43q-34 16 -22 47l39 105q14 42 59 24q84 -28 168 -28q149 0 149 119q0 65 -94 65z" />
    <glyph glyph-name="acute" unicode="&#xb4;" horiz-adv-x="651" 
d="M297 1255l98 166q22 37 60 37h233q18 0 25 -9q8 -9 5 -24q-2 -12 -16 -24l-182 -160q-31 -29 -74 -29h-122q-22 0 -30 13q-8 12 3 30z" />
    <glyph glyph-name="mu" unicode="&#xb5;" horiz-adv-x="1077" 
d="M1090 1055l-129 -721q-30 -181 -114 -269q-82 -85 -243 -85q-102 0 -170 40t-96 97l-47 -291q-7 -51 -62 -51h-200q-55 0 -47 53l217 1227q10 55 61 55h203q57 0 47 -55l-107 -598q-6 -37 -6 -66q0 -139 123 -139q69 0 100 40t46 124l112 639q7 55 62 55h202q55 0 48 -55
z" />
    <glyph glyph-name="paragraph" unicode="&#xb6;" horiz-adv-x="1064" 
d="M1118 1282h-67q-59 0 -87 -26q-27 -26 -38 -89l-203 -1151q-24 -132 -78 -193q-53 -59 -172 -59q-103 0 -149 21q-30 12 -23 45l12 70q1 32 43 32q12 0 38 -3t40 -3q43 0 66 25q21 22 32 88l89 500h-41q-188 0 -304 98t-116 270q0 235 147 387t395 152h439q55 0 45 -49
l-12 -68q-8 -47 -56 -47z" />
    <glyph glyph-name="periodcentered" unicode="&#xb7;" horiz-adv-x="479" 
d="M80 461l39 207q7 55 63 55h195q61 0 51 -55l-37 -207q-10 -55 -61 -55h-201q-59 0 -49 55z" />
    <glyph glyph-name="cedilla" unicode="&#xb8;" horiz-adv-x="651" 
d="M139 25h101q81 -21 138 -73q56 -52 56 -120q0 -83 -61 -123q-62 -41 -156 -41q-83 0 -119 13q-23 7 -22 34l12 74q6 27 35 27h65q37 0 61 18q23 17 23 51q0 77 -133 140z" />
    <glyph glyph-name="one.superior" unicode="&#xb9;" 
d="M537 1636l-123 -77q-42 -23 -60 6l-47 75q-19 31 17 56l241 174q26 16 62 16h133q54 0 43 -47l-139 -786q-11 -47 -54 -47h-135q-49 0 -43 47z" />
    <glyph glyph-name="ordmasculine" unicode="&#xba;" horiz-adv-x="862" 
d="M647 1694q-66 0 -107 -58t-65 -190q-14 -69 -14 -127q0 -121 98 -121q67 0 108 57q39 55 62 191q14 69 14 129q0 119 -96 119zM541 993q-332 0 -332 314q0 72 14 141q40 232 150 343q108 110 293 110q158 0 243 -78q86 -78 86 -236q0 -74 -14 -143q-41 -235 -148 -342
q-109 -109 -292 -109z" />
    <glyph glyph-name="guillemotright" unicode="&#xbb;" horiz-adv-x="968" 
d="M936 594q0 -14 -10 -25l-191 -286q-24 -39 -67 -39h-174q-25 0 -32 14q-8 15 9 39l199 297l-95 297q-17 53 39 53h172q48 0 60 -39l88 -287q6 -15 2 -24zM520 594q0 -14 -10 -25l-191 -286q-27 -39 -67 -39h-174q-25 0 -32 14q-8 15 9 39l197 297l-92 297q-17 53 39 53
h174q47 0 55 -39l90 -287q6 -15 2 -24z" />
    <glyph glyph-name="onequarter" unicode="&#xbc;" horiz-adv-x="1804" 
d="M461 1196l-123 -78q-41 -23 -59 6l-48 76q-18 30 17 55l241 175q26 16 62 16h133q54 0 43 -47l-139 -787q-11 -47 -53 -47h-136q-49 0 -43 47zM1559 1395l-936 -1350q-33 -45 -76 -45h-129q-58 0 -21 51l936 1350q30 45 74 45h129q27 0 33 -14q6 -15 -10 -37zM1466 627
l-233 -269h186zM1673 174h-59l-23 -127q-11 -47 -53 -47h-133q-52 0 -41 47l22 127h-325q-43 0 -37 43l16 102q6 26 25 50l430 483q24 29 53 29h140q54 0 43 -47l-84 -476h53q48 0 41 -45l-17 -92q-6 -47 -51 -47z" />
    <glyph glyph-name="onehalf" unicode="&#xbd;" horiz-adv-x="1804" 
d="M461 1196l-123 -78q-41 -23 -59 6l-48 76q-18 30 17 55l241 175q26 16 62 16h133q54 0 43 -47l-139 -787q-11 -47 -53 -47h-136q-49 0 -43 47zM1339 580q0 125 105 125q76 0 72 -72q-5 -63 -47 -130q-44 -69 -116 -131q-79 -68 -128 -103q-36 -26 -127 -87
q-35 -23 -41 -47l-17 -90q-8 -45 39 -45h529q44 0 51 45l18 100q6 45 -41 45h-258q375 236 375 480q0 100 -72 161q-73 62 -208 62q-161 0 -252 -85q-93 -87 -93 -235q0 -43 39 -43h127q45 0 45 50zM1495 1395l-936 -1350q-33 -45 -76 -45h-129q-58 0 -20 51l936 1350
q30 45 73 45h130q26 0 32 -14q6 -15 -10 -37z" />
    <glyph glyph-name="threequarters" unicode="&#xbe;" horiz-adv-x="1804" 
d="M399 928h-84q-45 0 -39 45l17 84q6 45 49 45h84q50 0 85 27q34 27 34 77q0 66 -119 66q-67 0 -162 -31q-42 -15 -47 25l-4 104q0 30 37 45q98 43 235 43q130 0 213 -50q82 -49 82 -146q0 -78 -42 -143q-42 -64 -111 -91q98 -37 98 -162q0 -157 -102 -235t-261 -78
q-177 0 -262 43q-34 16 -22 47l39 105q14 42 59 24q87 -29 168 -29q150 0 150 119q0 66 -95 66zM1583 1395l-936 -1350q-33 -45 -76 -45h-129q-58 0 -20 51l936 1350q30 45 74 45h129q26 0 32 -14q6 -15 -10 -37zM1466 627l-233 -269h186zM1673 174h-59l-23 -127
q-11 -47 -53 -47h-133q-52 0 -41 47l22 127h-325q-43 0 -37 43l16 102q6 26 25 50l430 483q24 29 53 29h140q54 0 43 -47l-84 -476h53q48 0 41 -45l-17 -92q-6 -47 -51 -47z" />
    <glyph glyph-name="questiondown" unicode="&#xbf;" horiz-adv-x="888" 
d="M735 1053l-39 -215q-11 -54 -63 -54h-209q-59 0 -51 56l37 213q12 57 63 57h215q58 0 47 -57zM340 600l-2 -18q-8 -48 -48 -99t-90 -99q-58 -57 -100 -102q-47 -51 -83 -131q-33 -73 -33 -165q0 -129 101 -197q103 -70 284 -70q179 0 329 60q48 22 47 65l-2 162
q-4 51 -59 33q-129 -41 -219 -41q-139 0 -139 88q0 65 44 133q44 69 98 118q53 49 104 118t61 127l2 18q7 55 -49 55h-183q-53 0 -63 -55z" />
    <glyph glyph-name="Agrave" unicode="&#xc0;" horiz-adv-x="1220" 
d="M498 563h266l-31 557h-6zM631 1446h297q62 0 67 -57l119 -1323q6 -66 -55 -66h-219q-58 0 -58 53l-18 228h-365l-96 -228q-24 -53 -72 -53h-229q-28 0 -40 18t1 48l586 1323q24 57 82 57zM864 1745l43 -166q6 -43 -37 -43h-122q-41 0 -68 29l-129 161q-14 14 -5 36t34 22
h231q43 0 53 -39z" />
    <glyph glyph-name="Aacute" unicode="&#xc1;" horiz-adv-x="1220" 
d="M498 563h266l-31 557h-6zM631 1446h297q62 0 67 -57l119 -1323q6 -66 -55 -66h-219q-58 0 -58 53l-18 228h-365l-96 -228q-24 -53 -72 -53h-229q-28 0 -40 18t1 48l586 1323q24 57 82 57zM707 1579l98 166q24 39 63 39h234q16 0 23 -10t4 -24t-15 -24l-184 -161
q-31 -29 -76 -29h-123q-48 0 -24 43z" />
    <glyph glyph-name="Acircumflex" unicode="&#xc2;" horiz-adv-x="1220" 
d="M498 563h266l-31 557h-6zM631 1446h297q62 0 67 -57l119 -1323q6 -66 -55 -66h-219q-58 0 -58 53l-18 228h-365l-96 -228q-24 -53 -72 -53h-229q-28 0 -40 18t1 48l586 1323q24 57 82 57zM911 1567l-88 92l-121 -92q-36 -31 -69 -31h-115q-25 0 -29 17t17 34l201 180
q35 29 73 29h123q44 0 68 -29l137 -180q14 -16 5 -34q-9 -17 -34 -17h-106q-34 0 -62 31z" />
    <glyph glyph-name="Atilde" unicode="&#xc3;" horiz-adv-x="1220" 
d="M498 563h266l-31 557h-6zM631 1446h297q62 0 67 -57l119 -1323q6 -66 -55 -66h-219q-58 0 -58 53l-18 228h-365l-96 -228q-24 -53 -72 -53h-229q-28 0 -40 18t1 48l586 1323q24 57 82 57zM1165 1696q-28 -166 -182 -166q-73 0 -154 31l-63 28q-47 19 -80 19
q-40 0 -51 -29l-4 -12q-15 -33 -53 -33h-70q-26 0 -34 14q-9 15 -3 54q30 170 184 170q69 0 154 -31l63 -29q111 -51 127 10l7 13q15 32 53 32h67q49 0 39 -71z" />
    <glyph glyph-name="Adieresis" unicode="&#xc4;" horiz-adv-x="1220" 
d="M498 563h266l-31 557h-6zM631 1446h297q62 0 67 -57l119 -1323q6 -66 -55 -66h-219q-58 0 -58 53l-18 228h-365l-96 -228q-24 -53 -72 -53h-229q-28 0 -40 18t1 48l586 1323q24 57 82 57zM768 1706l-23 -119q-7 -51 -59 -51h-172q-50 0 -43 51l21 119q8 51 57 51h172
q55 0 47 -51zM1165 1706l-22 -119q-7 -51 -60 -51h-172q-53 0 -45 51l23 119q7 51 57 51h172q54 0 47 -51z" />
    <glyph glyph-name="Aring" unicode="&#xc5;" horiz-adv-x="1220" 
d="M569 1503q0 105 72 172q73 68 180 68q91 0 149 -49t58 -127q0 -80 -45 -142q7 -7 12 -36l119 -1323q6 -66 -55 -66h-219q-58 0 -58 53l-18 228h-365l-96 -228q-24 -53 -72 -53h-229q-28 0 -40 18t1 48l586 1323q15 33 35 47q-15 28 -15 67zM498 563h266l-31 557h-6z
M811 1624q-45 0 -76 -29q-30 -29 -30 -75q0 -33 22 -54q21 -20 59 -20h9q42 4 70 32t28 72q0 33 -23 54q-21 20 -59 20z" />
    <glyph glyph-name="AE" unicode="&#xc6;" horiz-adv-x="1593" 
d="M1458 598h-385l-55 -307h412q59 0 51 -58l-33 -176q-8 -57 -64 -57h-679q-64 0 -52 57l39 224h-297l-108 -228q-29 -53 -74 -53h-229q-28 0 -40 18q-12 19 3 48l657 1323q24 57 84 57h936q56 0 49 -57l-31 -177q-10 -57 -63 -57h-408l-51 -281h381q57 0 49 -57l-28 -164
q-10 -55 -64 -55zM512 561h229l107 596h-53z" />
    <glyph glyph-name="Ccedilla" unicode="&#xc7;" horiz-adv-x="1077" 
d="M690 272q100 0 182 33q62 21 66 -39l12 -153q2 -45 -55 -72q-128 -59 -287 -61q90 -60 90 -146q0 -92 -66 -138q-65 -46 -167 -46q-85 0 -119 12q-28 10 -22 39l14 76q1 26 33 26h69q90 0 90 74q0 60 -79 115q-357 62 -357 467q0 99 27 266q72 404 238 573
q167 170 464 170q181 0 299 -61q52 -21 31 -72l-63 -153q-24 -55 -80 -37q-79 29 -170 29q-167 0 -253 -98q-85 -97 -130 -351q-23 -138 -23 -209q0 -132 61 -188t195 -56z" />
    <glyph glyph-name="Egrave" unicode="&#xc8;" horiz-adv-x="1015" 
d="M881 598h-424l-56 -309h451q59 0 51 -58l-31 -174q-12 -57 -65 -57h-721q-63 0 -51 57l235 1332q8 57 64 57h713q59 0 51 -57l-31 -175q-7 -57 -66 -57h-446l-49 -283h418q56 0 49 -57l-29 -164q-10 -55 -63 -55zM819 1745l43 -166q6 -43 -37 -43h-123q-40 0 -67 29
l-129 161q-14 14 -5 36t34 22h231q42 0 53 -39z" />
    <glyph glyph-name="Eacute" unicode="&#xc9;" horiz-adv-x="1015" 
d="M881 598h-424l-56 -309h451q59 0 51 -58l-31 -174q-12 -57 -65 -57h-721q-63 0 -51 57l235 1332q8 57 64 57h713q59 0 51 -57l-31 -175q-7 -57 -66 -57h-446l-49 -283h418q56 0 49 -57l-29 -164q-10 -55 -63 -55zM596 1579l98 166q24 39 64 39h233q17 0 24 -10t4 -24
t-15 -24l-185 -161q-31 -29 -76 -29h-122q-49 0 -25 43z" />
    <glyph glyph-name="Ecircumflex" unicode="&#xca;" horiz-adv-x="1015" 
d="M881 598h-424l-56 -309h451q59 0 51 -58l-31 -174q-12 -57 -65 -57h-721q-63 0 -51 57l235 1332q8 57 64 57h713q59 0 51 -57l-31 -175q-7 -57 -66 -57h-446l-49 -283h418q56 0 49 -57l-29 -164q-10 -55 -63 -55zM831 1567l-88 92l-120 -92q-36 -31 -70 -31h-115
q-24 0 -28 17q-4 18 16 34l201 180q35 29 73 29h123q44 0 68 -29l137 -180q14 -16 5 -34q-9 -17 -34 -17h-106q-34 0 -62 31z" />
    <glyph glyph-name="Edieresis" unicode="&#xcb;" horiz-adv-x="1015" 
d="M881 598h-424l-56 -309h451q59 0 51 -58l-31 -174q-12 -57 -65 -57h-721q-63 0 -51 57l235 1332q8 57 64 57h713q59 0 51 -57l-31 -175q-7 -57 -66 -57h-446l-49 -283h418q56 0 49 -57l-29 -164q-10 -55 -63 -55zM686 1706l-22 -119q-8 -51 -60 -51h-172q-50 0 -43 51
l21 119q8 51 57 51h172q55 0 47 -51zM1083 1706l-22 -119q-7 -51 -60 -51h-172q-53 0 -45 51l23 119q7 51 57 51h172q54 0 47 -51z" />
    <glyph glyph-name="Igrave" unicode="&#xcc;" horiz-adv-x="565" 
d="M45 57l236 1332q7 57 63 57h215q59 0 51 -57l-235 -1332q-12 -57 -64 -57h-217q-61 0 -49 57zM545 1745l43 -166q6 -43 -37 -43h-123q-41 0 -68 29l-129 161q-14 14 -5 36t34 22h232q42 0 53 -39z" />
    <glyph glyph-name="Iacute" unicode="&#xcd;" horiz-adv-x="565" 
d="M45 57l236 1332q7 57 63 57h215q59 0 51 -57l-235 -1332q-12 -57 -64 -57h-217q-61 0 -49 57zM375 1579l98 166q24 39 64 39h233q17 0 24 -10t4 -24q-3 -12 -16 -24l-184 -161q-31 -29 -76 -29h-123q-48 0 -24 43z" />
    <glyph glyph-name="Icircumflex" unicode="&#xce;" horiz-adv-x="565" 
d="M45 57l236 1332q7 57 63 57h215q59 0 51 -57l-235 -1332q-12 -57 -64 -57h-217q-61 0 -49 57zM584 1567l-88 92l-121 -92q-36 -31 -70 -31h-115q-24 0 -28 17q-4 18 16 34l201 180q35 29 74 29h122q44 0 68 -29l137 -180q14 -16 5 -34q-9 -17 -33 -17h-107q-33 0 -61 31z
" />
    <glyph glyph-name="Idieresis" unicode="&#xcf;" horiz-adv-x="565" 
d="M45 57l236 1332q7 57 63 57h215q59 0 51 -57l-235 -1332q-12 -57 -64 -57h-217q-61 0 -49 57zM440 1706l-22 -119q-8 -51 -60 -51h-172q-50 0 -43 51l21 119q8 51 57 51h172q55 0 47 -51zM838 1706l-23 -119q-7 -51 -59 -51h-172q-52 0 -45 51l22 119q7 51 57 51h173
q55 0 47 -51z" />
    <glyph glyph-name="Eth" unicode="&#xd0;" horiz-adv-x="1222" 
d="M471 0h-383q-61 0 -49 57l102 578h-53q-45 0 -39 45l17 88q8 45 51 45h55l102 576q8 57 66 57h348q265 0 397 -112t132 -369q0 -93 -23 -242q-66 -395 -236 -559t-487 -164zM649 1151h-88l-59 -338h155q45 0 39 -45l-16 -88q-8 -45 -51 -45h-158l-59 -342h90
q151 0 233 91q81 90 125 339q21 117 21 201q0 128 -57 177q-58 50 -175 50z" />
    <glyph glyph-name="Ntilde" unicode="&#xd1;" horiz-adv-x="1253" 
d="M1307 1389l-236 -1332q-7 -57 -63 -57h-197q-55 0 -70 43l-252 782l-135 -768q-12 -57 -63 -57h-205q-63 0 -51 57l235 1332q8 57 64 57h196q55 0 70 -41l252 -784l135 768q7 57 64 57h204q59 0 52 -57zM1182 1696q-28 -166 -183 -166q-72 0 -153 31l-64 28
q-48 19 -80 19q-40 0 -51 -29l-4 -12q-15 -33 -53 -33h-70q-26 0 -34 14q-9 15 -3 54q30 170 185 170q68 0 153 -31l64 -29q111 -51 127 10l6 13q15 32 53 32h68q49 0 39 -71z" />
    <glyph glyph-name="Ograve" unicode="&#xd2;" horiz-adv-x="1259" 
d="M786 1468q469 0 469 -475q0 -109 -26 -272q-72 -403 -233 -573q-159 -168 -433 -168q-229 0 -350 112t-121 363q0 105 29 270q72 404 232 573q161 170 433 170zM594 268q116 0 185 101t114 354q27 153 27 246q0 109 -41 159t-125 50q-117 0 -186 -101q-67 -98 -111 -354
q-29 -169 -29 -246q0 -110 41 -160q40 -49 125 -49zM891 1745l43 -166q7 -43 -37 -43h-123q-40 0 -67 29l-129 161q-15 15 -6 36q9 22 34 22h232q42 0 53 -39z" />
    <glyph glyph-name="Oacute" unicode="&#xd3;" horiz-adv-x="1259" 
d="M786 1468q469 0 469 -475q0 -109 -26 -272q-72 -403 -233 -573q-159 -168 -433 -168q-229 0 -350 112t-121 363q0 105 29 270q72 404 232 573q161 170 433 170zM594 268q116 0 185 101t114 354q27 153 27 246q0 109 -41 159t-125 50q-117 0 -186 -101q-67 -98 -111 -354
q-29 -169 -29 -246q0 -110 41 -160q40 -49 125 -49zM719 1579l98 166q24 39 64 39h233q17 0 24 -10t4 -24q-3 -12 -16 -24l-184 -161q-31 -29 -76 -29h-123q-48 0 -24 43z" />
    <glyph glyph-name="Ocircumflex" unicode="&#xd4;" horiz-adv-x="1259" 
d="M786 1468q469 0 469 -475q0 -109 -26 -272q-72 -403 -233 -573q-159 -168 -433 -168q-229 0 -350 112t-121 363q0 105 29 270q72 404 232 573q161 170 433 170zM594 268q116 0 185 101t114 354q27 153 27 246q0 109 -41 159t-125 50q-117 0 -186 -101q-67 -98 -111 -354
q-29 -169 -29 -246q0 -110 41 -160q40 -49 125 -49zM930 1567l-88 92l-121 -92q-36 -31 -70 -31h-114q-25 0 -29 17q-4 18 16 34l201 180q35 29 74 29h123q43 0 67 -29l137 -180q15 -16 6 -34q-8 -17 -34 -17h-107q-33 0 -61 31z" />
    <glyph glyph-name="Otilde" unicode="&#xd5;" horiz-adv-x="1259" 
d="M786 1468q469 0 469 -475q0 -109 -26 -272q-72 -403 -233 -573q-159 -168 -433 -168q-229 0 -350 112t-121 363q0 105 29 270q72 404 232 573q161 170 433 170zM594 268q116 0 185 101t114 354q27 153 27 246q0 109 -41 159t-125 50q-117 0 -186 -101q-67 -98 -111 -354
q-29 -169 -29 -246q0 -110 41 -160q40 -49 125 -49zM1184 1696q-28 -166 -183 -166q-72 0 -153 31l-64 28q-49 19 -79 19q-41 0 -52 -29l-4 -12q-15 -33 -53 -33h-70q-25 0 -33 14q-10 16 -4 54q30 170 185 170q68 0 153 -31l64 -29q111 -51 127 10l6 13q15 32 53 32h68
q49 0 39 -71z" />
    <glyph glyph-name="Odieresis" unicode="&#xd6;" horiz-adv-x="1259" 
d="M786 1468q469 0 469 -475q0 -109 -26 -272q-72 -403 -233 -573q-159 -168 -433 -168q-229 0 -350 112t-121 363q0 105 29 270q72 404 232 573q161 170 433 170zM594 268q116 0 185 101t114 354q27 153 27 246q0 109 -41 159t-125 50q-117 0 -186 -101q-67 -98 -111 -354
q-29 -169 -29 -246q0 -110 41 -160q40 -49 125 -49zM786 1706l-22 -119q-8 -51 -59 -51h-173q-50 0 -43 51l21 119q8 51 57 51h172q55 0 47 -51zM1184 1706l-23 -119q-7 -51 -59 -51h-172q-52 0 -45 51l22 119q7 51 58 51h172q55 0 47 -51z" />
    <glyph glyph-name="multiply" unicode="&#xd7;" horiz-adv-x="1122" 
d="M778 270l-207 252l-297 -252q-43 -37 -75 0l-95 117q-30 37 13 74l297 252l-209 252q-29 35 14 73l135 117q46 38 76 0l207 -252l297 252q45 35 74 0l96 -117q29 -37 -14 -73l-295 -252l206 -252q28 -37 -12 -74l-137 -117q-45 -39 -74 0z" />
    <glyph glyph-name="Oslash" unicode="&#xd8;" horiz-adv-x="1269" 
d="M788 1468q228 0 342 -108l64 72q37 40 74 12l53 -43q40 -31 0 -72l-98 -112q34 -93 34 -224q0 -113 -28 -272q-69 -401 -230 -573q-158 -168 -434 -168q-231 0 -342 104l-63 -72q-38 -39 -72 -12l-55 45q-37 27 2 70l96 108q-37 95 -37 232q0 105 29 270q69 403 230 573
t435 170zM457 723q-19 -120 -23 -166l469 533q-34 88 -147 88q-117 0 -186 -101q-68 -99 -113 -354zM596 268q116 0 185 101t114 354q19 150 20 160l-464 -533q34 -82 145 -82z" />
    <glyph glyph-name="Ugrave" unicode="&#xd9;" horiz-adv-x="1214" 
d="M543 -20q-455 0 -455 364q0 57 12 129l164 916q7 57 64 57h215q59 0 51 -57l-156 -879q-10 -54 -10 -92q0 -142 143 -142q97 0 147 56q51 57 73 176l153 881q8 57 64 57h217q57 0 49 -57l-162 -916q-45 -257 -180 -376q-133 -117 -389 -117zM879 1745l43 -166
q7 -43 -37 -43h-123q-41 0 -68 29l-129 161q-14 14 -5 36t34 22h231q43 0 54 -39z" />
    <glyph glyph-name="Uacute" unicode="&#xda;" horiz-adv-x="1214" 
d="M543 -20q-455 0 -455 364q0 57 12 129l164 916q7 57 64 57h215q59 0 51 -57l-156 -879q-10 -54 -10 -92q0 -142 143 -142q97 0 147 56q51 57 73 176l153 881q8 57 64 57h217q57 0 49 -57l-162 -916q-45 -257 -180 -376q-133 -117 -389 -117zM684 1579l98 166q24 39 64 39
h233q17 0 24 -10t4 -24t-15 -24l-185 -161q-31 -29 -76 -29h-122q-49 0 -25 43z" />
    <glyph glyph-name="Ucircumflex" unicode="&#xdb;" horiz-adv-x="1214" 
d="M543 -20q-455 0 -455 364q0 57 12 129l164 916q7 57 64 57h215q59 0 51 -57l-156 -879q-10 -54 -10 -92q0 -142 143 -142q97 0 147 56q51 57 73 176l153 881q8 57 64 57h217q57 0 49 -57l-162 -916q-45 -257 -180 -376q-133 -117 -389 -117zM909 1567l-88 92l-121 -92
q-36 -31 -69 -31h-115q-25 0 -29 17t17 34l201 180q35 29 73 29h123q44 0 68 -29l137 -180q14 -16 5 -34q-9 -17 -34 -17h-106q-34 0 -62 31z" />
    <glyph glyph-name="Udieresis" unicode="&#xdc;" horiz-adv-x="1214" 
d="M543 -20q-455 0 -455 364q0 57 12 129l164 916q7 57 64 57h215q59 0 51 -57l-156 -879q-10 -54 -10 -92q0 -142 143 -142q97 0 147 56q51 57 73 176l153 881q8 57 64 57h217q57 0 49 -57l-162 -916q-45 -257 -180 -376q-133 -117 -389 -117zM766 1706l-23 -119
q-7 -51 -59 -51h-172q-50 0 -43 51l20 119q7 51 58 51h172q55 0 47 -51zM1163 1706l-22 -119q-7 -51 -60 -51h-172q-53 0 -45 51l23 119q7 51 57 51h172q54 0 47 -51z" />
    <glyph glyph-name="Yacute" unicode="&#xdd;" horiz-adv-x="1185" 
d="M770 539l-84 -482q-12 -57 -65 -57h-215q-60 0 -52 57l86 482l-241 837q-8 25 5 47q14 23 46 23h223q57 0 68 -53l82 -377l24 -197h6l97 197l215 377q29 53 79 53h230q34 0 41 -24q8 -25 -8 -46zM678 1579l98 166q24 39 64 39h233q17 0 24 -10t4 -24q-3 -12 -16 -24
l-184 -161q-31 -29 -76 -29h-123q-48 0 -24 43z" />
    <glyph glyph-name="Thorn" unicode="&#xde;" horiz-adv-x="1163" 
d="M299 0h-215q-61 0 -49 57l235 1332q8 57 64 57h215q57 0 49 -57l-18 -111h104q237 0 354 -81t117 -273q0 -82 -14 -156q-50 -283 -189 -394q-141 -112 -417 -112h-136l-34 -205q-12 -57 -66 -57zM451 545h112q117 0 170 48q54 50 78 177q8 53 8 90q0 73 -41 103
q-40 30 -135 30h-115z" />
    <glyph glyph-name="germandbls" unicode="&#xdf;" horiz-adv-x="1163" 
d="M690 1217q-160 0 -190 -175l-174 -991q-12 -51 -62 -51h-190q-54 0 -47 51l180 1016q69 397 514 397q194 0 304 -79q112 -80 112 -205q0 -72 -38 -140q-36 -64 -82 -109q-57 -55 -82 -82q-38 -41 -38 -63q0 -28 47 -75q48 -48 95 -123q48 -76 48 -176q0 -199 -99 -313
q-99 -113 -306 -115q-86 0 -162 18q-38 9 -55 21.5t-14 29.5l28 154q12 51 62 49q70 -2 156 46q87 48 87 124q2 71 -96 173t-98 171q0 54 37 100q40 50 80 76q39 26 79 75q37 46 37 97q0 99 -133 99z" />
    <glyph glyph-name="agrave" unicode="&#xe0;" horiz-adv-x="1024" 
d="M981 758l-125 -705q-8 -53 -57 -53h-166q-49 0 -53 45l4 72q-111 -131 -287 -131q-130 0 -205 68q-76 69 -76 192q0 106 36 184q36 79 93 125q58 47 147 76q88 28 176 39q74 9 202 14l10 59q15 70 -20 102t-123 32q-105 0 -261 -48q-59 -16 -59 37l2 140q0 47 49 63
q153 59 338 59q383 0 383 -276q0 -48 -8 -94zM618 397l21 109q-155 -6 -238 -54q-82 -48 -82 -157q0 -92 99 -92q86 0 136 53q49 52 64 141zM737 1421l45 -166q10 -43 -37 -43h-112q-45 0 -68 29l-135 160q-14 15 -6 37q7 20 33 20h227q43 0 53 -37z" />
    <glyph glyph-name="aacute" unicode="&#xe1;" horiz-adv-x="1024" 
d="M981 758l-125 -705q-8 -53 -57 -53h-166q-49 0 -53 45l4 72q-111 -131 -287 -131q-130 0 -205 68q-76 69 -76 192q0 106 36 184q36 79 93 125q58 47 147 76q88 28 176 39q74 9 202 14l10 59q15 70 -20 102t-123 32q-105 0 -261 -48q-59 -16 -59 37l2 140q0 47 49 63
q153 59 338 59q383 0 383 -276q0 -48 -8 -94zM618 397l21 109q-155 -6 -238 -54q-82 -48 -82 -157q0 -92 99 -92q86 0 136 53q49 52 64 141zM520 1255l98 166q22 37 60 37h233q18 0 25 -9q8 -9 5 -24q-3 -13 -15 -24l-183 -160q-31 -29 -73 -29h-123q-22 0 -30 13
q-7 12 3 30z" />
    <glyph glyph-name="acircumflex" unicode="&#xe2;" horiz-adv-x="1024" 
d="M981 758l-125 -705q-8 -53 -57 -53h-166q-49 0 -53 45l4 72q-111 -131 -287 -131q-130 0 -205 68q-76 69 -76 192q0 106 36 184q36 79 93 125q58 47 147 76q88 28 176 39q74 9 202 14l10 59q15 70 -20 102t-123 32q-105 0 -261 -48q-59 -16 -59 37l2 140q0 47 49 63
q153 59 338 59q383 0 383 -276q0 -48 -8 -94zM618 397l21 109q-155 -6 -238 -54q-82 -48 -82 -157q0 -92 99 -92q86 0 136 53q49 52 64 141zM756 1241l-86 96l-121 -96q-35 -29 -68 -29h-114q-25 0 -29 18q-4 17 14 34l199 182q31 29 74 29h123q46 0 67 -29l137 -182
q12 -16 4 -34q-7 -18 -32 -18h-105q-39 0 -63 29z" />
    <glyph glyph-name="atilde" unicode="&#xe3;" horiz-adv-x="1024" 
d="M981 758l-125 -705q-8 -53 -57 -53h-166q-49 0 -53 45l4 72q-111 -131 -287 -131q-130 0 -205 68q-76 69 -76 192q0 106 36 184q36 79 93 125q58 47 147 76q88 28 176 39q74 9 202 14l10 59q15 70 -20 102t-123 32q-105 0 -261 -48q-59 -16 -59 37l2 140q0 47 49 63
q153 59 338 59q383 0 383 -276q0 -48 -8 -94zM618 397l21 109q-155 -6 -238 -54q-82 -48 -82 -157q0 -92 99 -92q86 0 136 53q49 52 64 141zM1001 1372q-29 -164 -174 -164q-88 0 -153 31l-64 27q-45 18 -73 18q-40 0 -52 -29l-4 -12q-15 -31 -51 -31h-68q-26 0 -36 15
q-9 14 -2 51q28 168 178 168q70 0 149 -31l66 -28q46 -19 74 -19q41 0 49 31l4 12q16 31 51 31h70q47 0 36 -70z" />
    <glyph glyph-name="adieresis" unicode="&#xe4;" horiz-adv-x="1024" 
d="M981 758l-125 -705q-8 -53 -57 -53h-166q-49 0 -53 45l4 72q-111 -131 -287 -131q-130 0 -205 68q-76 69 -76 192q0 106 36 184q36 79 93 125q58 47 147 76q88 28 176 39q74 9 202 14l10 59q15 70 -20 102t-123 32q-105 0 -261 -48q-59 -16 -59 37l2 140q0 47 49 63
q153 59 338 59q383 0 383 -276q0 -48 -8 -94zM618 397l21 109q-155 -6 -238 -54q-82 -48 -82 -157q0 -92 99 -92q86 0 136 53q49 52 64 141zM614 1384l-22 -120q-8 -52 -57 -52h-170q-54 0 -46 52l23 120q8 52 57 52h168q55 0 47 -52zM1001 1384l-20 -120q-12 -52 -59 -52
h-170q-53 0 -45 52l22 120q8 52 57 52h170q53 0 45 -52z" />
    <glyph glyph-name="aring" unicode="&#xe5;" horiz-adv-x="1024" 
d="M981 758l-125 -705q-8 -53 -57 -53h-166q-49 0 -53 45l4 72q-111 -131 -287 -131q-130 0 -205 68q-76 69 -76 192q0 106 36 184q36 79 93 125q58 47 147 76q88 28 176 39q74 9 202 14l10 59q15 70 -20 102t-123 32q-105 0 -261 -48q-59 -16 -59 37l2 140q0 47 49 63
q153 59 338 59q383 0 383 -276q0 -48 -8 -94zM618 397l21 109q-155 -6 -238 -54q-82 -48 -82 -157q0 -92 99 -92q86 0 136 53q49 52 64 141zM674 1315q44 0 76 28t32 74q0 36 -23 56t-63 20q-43 0 -76 -28q-32 -27 -32 -74q0 -34 24 -55t62 -21zM709 1614q89 0 148 -51
q58 -51 58 -129q0 -106 -71 -171q-73 -67 -185 -67q-89 0 -147 50q-57 50 -57 128q0 105 70 172q71 68 184 68z" />
    <glyph glyph-name="ae" unicode="&#xe6;" horiz-adv-x="1587" 
d="M1135 217q101 0 221 43q28 10 45 0q16 -10 14 -37l2 -123q0 -42 -53 -65q-129 -55 -281 -55q-289 0 -356 178q-147 -172 -381 -172q-158 0 -244 69t-86 193q0 78 21 139q21 63 52 102q34 43 84 72q55 31 102 47q46 15 124 28q65 11 130 14q72 4 137 5l16 95q10 61 -24 94
q-35 33 -119 33q-109 0 -265 -48q-59 -16 -59 37v140q0 47 49 63q165 59 336 59q234 0 289 -124q116 126 309 126q176 0 271 -90q96 -91 96 -256q0 -77 -17 -159l-20 -117q-10 -57 -70 -57h-524q-6 -33 -6 -62q0 -172 207 -172zM1165 899q-78 0 -126 -57q-47 -56 -81 -195
h310l4 21q10 63 10 104q0 127 -117 127zM621 403l14 72q-64 -2 -104 -6q-48 -5 -85 -14q-45 -11 -69 -30q-25 -21 -41 -52q-17 -34 -17 -80q0 -88 105 -88q84 0 133 54q49 53 64 144z" />
    <glyph glyph-name="ccedilla" unicode="&#xe7;" horiz-adv-x="888" 
d="M86 559q96 571 563 571q171 0 256 -49q43 -21 25 -65l-60 -146q-16 -46 -73 -30q-70 22 -131 22q-109 0 -172 -69q-65 -71 -93 -236q-14 -73 -14 -137q0 -92 42 -132q41 -40 128 -40q83 0 152 26q58 18 59 -30l6 -146q4 -40 -47 -67q-102 -51 -240 -51h-6q92 -60 92 -148
q0 -83 -61 -123q-62 -41 -156 -41q-82 0 -118 13q-24 8 -23 34l12 74q6 27 35 27h66q36 0 60 18t24 51q0 62 -86 115q-258 72 -258 377q0 81 18 182z" />
    <glyph glyph-name="egrave" unicode="&#xe8;" horiz-adv-x="1038" 
d="M580 217q115 0 225 43q29 10 45 0t16 -37v-121q0 -44 -53 -67q-129 -55 -285 -55q-465 0 -465 405q0 52 19 180q100 565 551 565q187 0 282 -94q97 -95 97 -270q0 -63 -17 -160l-18 -112q-11 -58 -70 -58h-540q-5 -45 -5 -51q2 -168 218 -168zM610 899q-83 0 -132 -61
q-50 -63 -83 -205h322l4 20q12 83 12 109q0 137 -123 137zM739 1421l45 -166q10 -43 -36 -43h-113q-45 0 -68 29l-135 160q-14 15 -6 37q7 20 33 20h227q43 0 53 -37z" />
    <glyph glyph-name="eacute" unicode="&#xe9;" horiz-adv-x="1038" 
d="M580 217q115 0 225 43q29 10 45 0t16 -37v-121q0 -44 -53 -67q-129 -55 -285 -55q-465 0 -465 405q0 52 19 180q100 565 551 565q187 0 282 -94q97 -95 97 -270q0 -63 -17 -160l-18 -112q-11 -58 -70 -58h-540q-5 -45 -5 -51q2 -168 218 -168zM610 899q-83 0 -132 -61
q-50 -63 -83 -205h322l4 20q12 83 12 109q0 137 -123 137zM537 1255l98 166q22 37 59 37h234q16 0 24 -9t5 -24q-3 -13 -15 -24l-182 -160q-31 -29 -74 -29h-123q-21 0 -29 13q-8 12 3 30z" />
    <glyph glyph-name="ecircumflex" unicode="&#xea;" horiz-adv-x="1038" 
d="M580 217q115 0 225 43q29 10 45 0t16 -37v-121q0 -44 -53 -67q-129 -55 -285 -55q-465 0 -465 405q0 52 19 180q100 565 551 565q187 0 282 -94q97 -95 97 -270q0 -63 -17 -160l-18 -112q-11 -58 -70 -58h-540q-5 -45 -5 -51q2 -168 218 -168zM610 899q-83 0 -132 -61
q-50 -63 -83 -205h322l4 20q12 83 12 109q0 137 -123 137zM770 1241l-86 96l-121 -96q-35 -29 -67 -29h-115q-25 0 -29 18q-4 16 15 34l198 182q31 29 74 29h123q46 0 67 -29l138 -182q12 -16 4 -34q-7 -18 -33 -18h-104q-40 0 -64 29z" />
    <glyph glyph-name="edieresis" unicode="&#xeb;" horiz-adv-x="1038" 
d="M580 217q115 0 225 43q29 10 45 0t16 -37v-121q0 -44 -53 -67q-129 -55 -285 -55q-465 0 -465 405q0 52 19 180q100 565 551 565q187 0 282 -94q97 -95 97 -270q0 -63 -17 -160l-18 -112q-11 -58 -70 -58h-540q-5 -45 -5 -51q2 -168 218 -168zM610 899q-83 0 -132 -61
q-50 -63 -83 -205h322l4 20q12 83 12 109q0 137 -123 137zM631 1384l-23 -120q-8 -52 -57 -52h-170q-53 0 -45 52l22 120q8 52 58 52h168q55 0 47 -52zM1018 1384l-21 -120q-12 -52 -59 -52h-170q-53 0 -45 52l22 120q8 52 58 52h170q53 0 45 -52z" />
    <glyph glyph-name="igrave" unicode="&#xec;" horiz-adv-x="518" 
d="M518 1055l-178 -1002q-8 -53 -59 -53h-203q-55 0 -47 53l176 1002q10 55 61 55h203q57 0 47 -55zM457 1421l45 -166q10 -43 -37 -43h-113q-44 0 -67 29l-135 160q-15 16 -7 37q7 20 33 20h227q44 0 54 -37z" />
    <glyph glyph-name="iacute" unicode="&#xed;" horiz-adv-x="518" 
d="M518 1055l-178 -1002q-8 -53 -59 -53h-203q-55 0 -47 53l176 1002q10 55 61 55h203q57 0 47 -55zM295 1255l98 166q22 37 60 37h233q18 0 25 -9q8 -9 5 -24q-2 -12 -16 -24l-182 -160q-31 -29 -74 -29h-122q-22 0 -30 13q-8 12 3 30z" />
    <glyph glyph-name="icircumflex" unicode="&#xee;" horiz-adv-x="518" 
d="M518 1055l-178 -1002q-8 -53 -59 -53h-203q-55 0 -47 53l176 1002q10 55 61 55h203q57 0 47 -55zM504 1241l-86 96l-121 -96q-35 -29 -68 -29h-114q-25 0 -29 18q-4 17 14 34l199 182q31 29 74 29h123q46 0 67 -29l137 -182q12 -17 5 -34q-7 -18 -33 -18h-105
q-39 0 -63 29z" />
    <glyph glyph-name="idieresis" unicode="&#xef;" horiz-adv-x="518" 
d="M518 1055l-178 -1002q-8 -53 -59 -53h-203q-55 0 -47 53l176 1002q10 55 61 55h203q57 0 47 -55zM365 1384l-23 -120q-8 -52 -57 -52h-170q-53 0 -45 52l22 120q8 52 58 52h167q56 0 48 -52zM752 1384l-21 -120q-12 -52 -59 -52h-170q-53 0 -45 52l22 120q8 52 58 52h170
q53 0 45 -52z" />
    <glyph glyph-name="eth" unicode="&#xf0;" horiz-adv-x="1083" 
d="M1063 1190h-84q76 -168 76 -387q0 -129 -23 -246q-52 -297 -190 -438q-136 -139 -369 -139q-197 0 -304 98q-108 99 -108 293q0 70 19 178q50 285 185 425q136 140 339 140q117 0 172 -43q-18 67 -47 119h-233q-49 0 -39 43l10 61q7 43 49 43h127l-21 22q-5 5 -15.5 15
t-15.5 15q-4 4 -8.5 8t-6.5 6l-3 2q-15 12 -7 29q7 16 28 16h197q40 0 59 -25q8 -11 63 -88h170q45 0 39 -43l-12 -61q-7 -43 -47 -43zM500 233q94 0 133 54q36 50 74 221q28 115 28 207q0 155 -123 155q-91 0 -144 -92t-77 -266q-8 -72 -8 -160q0 -68 27 -93q28 -26 90 -26
z" />
    <glyph glyph-name="ntilde" unicode="&#xf1;" horiz-adv-x="1083" 
d="M1038 741l-123 -688q-8 -53 -59 -53h-203q-55 0 -47 53l111 635q8 53 8 68q0 98 -98 98q-153 0 -191 -207l-104 -594q-12 -53 -62 -53h-202q-56 0 -48 53l179 1002q10 55 59 55h182q54 0 54 -45l-2 -74q111 139 286 139q271 0 271 -274q0 -44 -11 -115zM1032 1372
q-29 -164 -174 -164q-85 0 -153 31l-64 27q-45 18 -74 18q-39 0 -51 -29l-4 -12q-16 -31 -51 -31h-68q-27 0 -37 15q-9 14 -2 51q28 168 178 168q71 0 150 -31l66 -29q43 -18 73 -18q38 0 49 31l4 12q16 31 52 31h69q48 0 37 -70z" />
    <glyph glyph-name="ograve" unicode="&#xf2;" horiz-adv-x="1085" 
d="M475 -20q233 0 369 139q138 141 190 434q17 93 17 180q0 200 -107 299q-105 98 -305 98q-232 0 -370 -139q-138 -140 -189 -434q-17 -111 -17 -182q0 -198 107 -297q105 -98 305 -98zM500 233q-123 0 -123 154q0 71 20 168q30 172 81 248q50 74 136 74q123 0 123 -154
q0 -60 -18 -168q-33 -174 -83 -248t-136 -74zM752 1421l45 -166q10 -43 -37 -43h-113q-44 0 -67 29l-136 160q-14 15 -6 37q7 20 33 20h227q44 0 54 -37z" />
    <glyph glyph-name="oacute" unicode="&#xf3;" horiz-adv-x="1085" 
d="M475 -20q233 0 369 139q138 141 190 434q17 93 17 180q0 200 -107 299q-105 98 -305 98q-232 0 -370 -139q-138 -140 -189 -434q-17 -111 -17 -182q0 -198 107 -297q105 -98 305 -98zM500 233q-123 0 -123 154q0 71 20 168q30 172 81 248q50 74 136 74q123 0 123 -154
q0 -60 -18 -168q-33 -174 -83 -248t-136 -74zM563 1255l99 166q22 37 59 37h233q18 0 25 -9q8 -9 5 -24q-3 -13 -15 -24l-183 -160q-31 -29 -73 -29h-123q-22 0 -30 13q-8 12 3 30z" />
    <glyph glyph-name="ocircumflex" unicode="&#xf4;" horiz-adv-x="1085" 
d="M475 -20q233 0 369 139q138 141 190 434q17 93 17 180q0 200 -107 299q-105 98 -305 98q-232 0 -370 -139q-138 -140 -189 -434q-17 -111 -17 -182q0 -198 107 -297q105 -98 305 -98zM500 233q-123 0 -123 154q0 71 20 168q30 172 81 248q50 74 136 74q123 0 123 -154
q0 -60 -18 -168q-33 -174 -83 -248t-136 -74zM786 1241l-86 96l-120 -96q-35 -29 -68 -29h-115q-23 0 -28 18q-4 17 14 34l199 182q31 29 73 29h123q47 0 68 -29l137 -182q12 -16 4 -34t-33 -18h-104q-40 0 -64 29z" />
    <glyph glyph-name="otilde" unicode="&#xf5;" horiz-adv-x="1085" 
d="M475 -20q-200 0 -305 98q-107 99 -107 297q0 71 17 182q51 294 189 434q138 139 370 139q200 0 305 -98q107 -99 107 -299q0 -87 -17 -180q-52 -293 -190 -434q-136 -139 -369 -139zM500 233q86 0 136 74t83 248q18 108 18 168q0 154 -123 154q-86 0 -136 -74
q-51 -76 -81 -248q-20 -97 -20 -168q0 -154 123 -154zM1032 1372q-29 -164 -174 -164q-85 0 -153 31l-64 27q-45 18 -74 18q-39 0 -51 -29l-4 -12q-16 -31 -51 -31h-68q-27 0 -37 15q-9 14 -2 51q28 168 178 168q71 0 150 -31l66 -29q43 -18 73 -18q38 0 49 31l4 12
q16 31 52 31h69q48 0 37 -70z" />
    <glyph glyph-name="odieresis" unicode="&#xf6;" horiz-adv-x="1085" 
d="M475 -20q233 0 369 139q138 141 190 434q17 93 17 180q0 200 -107 299q-105 98 -305 98q-232 0 -370 -139q-138 -140 -189 -434q-17 -111 -17 -182q0 -198 107 -297q105 -98 305 -98zM500 233q-123 0 -123 154q0 71 20 168q30 172 81 248q50 74 136 74q123 0 123 -154
q0 -60 -18 -168q-33 -174 -83 -248t-136 -74zM647 1384l-22 -120q-8 -52 -58 -52h-170q-53 0 -45 52l23 120q8 52 57 52h168q55 0 47 -52zM1034 1384l-20 -120q-12 -52 -60 -52h-170q-53 0 -45 52l23 120q8 52 57 52h170q53 0 45 -52z" />
    <glyph glyph-name="divide" unicode="&#xf7;" horiz-adv-x="1122" 
d="M985 600h-797q-57 0 -45 53l23 129q6 52 59 52h797q53 0 47 -52l-22 -129q-12 -53 -62 -53zM367 227l32 191q10 55 66 55h188q59 0 52 -55l-35 -191q-10 -55 -64 -55h-192q-57 0 -47 55zM506 1016l33 190q12 56 65 56h189q59 0 51 -56l-35 -190q-10 -55 -64 -55h-192
q-57 0 -47 55z" />
    <glyph glyph-name="oslash" unicode="&#xf8;" horiz-adv-x="1093" 
d="M479 -20q-188 0 -289 83l-53 -55q-39 -38 -67 -10l-39 37q-33 33 4 65l69 74q-36 79 -36 201q0 80 18 182q51 294 189 434q138 139 370 139q181 0 287 -86l53 58q37 37 68 8l39 -35q28 -28 -5 -65l-71 -76q39 -88 39 -201q0 -87 -17 -180q-51 -294 -189 -434
q-138 -139 -370 -139zM506 233q84 0 135 74q52 75 82 248l14 98l-338 -362q27 -58 107 -58zM401 555l-16 -98l338 360q-27 60 -105 60q-86 0 -136 -74q-51 -76 -81 -248z" />
    <glyph glyph-name="ugrave" unicode="&#xf9;" horiz-adv-x="1075" 
d="M68 348l127 707q6 55 59 55h203q54 0 47 -55l-113 -635q-6 -38 -6 -68q0 -100 96 -100q147 0 185 201l106 602q10 55 62 55h202q57 0 47 -55l-178 -1002q-8 -53 -59 -53h-182q-54 0 -54 45l2 74q-94 -139 -270 -139q-285 0 -285 264q0 40 11 104zM750 1421l45 -166
q10 -43 -37 -43h-113q-44 0 -67 29l-136 160q-14 15 -6 37q7 20 33 20h227q44 0 54 -37z" />
    <glyph glyph-name="uacute" unicode="&#xfa;" horiz-adv-x="1075" 
d="M68 348l127 707q6 55 59 55h203q54 0 47 -55l-113 -635q-6 -38 -6 -68q0 -100 96 -100q147 0 185 201l106 602q10 55 62 55h202q57 0 47 -55l-178 -1002q-8 -53 -59 -53h-182q-54 0 -54 45l2 74q-94 -139 -270 -139q-285 0 -285 264q0 40 11 104zM555 1255l98 166
q22 37 60 37h233q18 0 25 -9q8 -9 5 -24q-3 -13 -15 -24l-183 -160q-31 -29 -73 -29h-123q-22 0 -30 13q-8 12 3 30z" />
    <glyph glyph-name="ucircumflex" unicode="&#xfb;" horiz-adv-x="1075" 
d="M68 348l127 707q6 55 59 55h203q54 0 47 -55l-113 -635q-6 -38 -6 -68q0 -100 96 -100q147 0 185 201l106 602q10 55 62 55h202q57 0 47 -55l-178 -1002q-8 -53 -59 -53h-182q-54 0 -54 45l2 74q-94 -139 -270 -139q-285 0 -285 264q0 40 11 104zM782 1241l-86 96
l-121 -96q-35 -29 -67 -29h-115q-23 0 -28 18q-4 17 14 34l199 182q31 29 73 29h123q47 0 68 -29l137 -182q12 -16 4 -34q-7 -18 -33 -18h-104q-40 0 -64 29z" />
    <glyph glyph-name="udieresis" unicode="&#xfc;" horiz-adv-x="1075" 
d="M68 348l127 707q6 55 59 55h203q54 0 47 -55l-113 -635q-6 -38 -6 -68q0 -100 96 -100q147 0 185 201l106 602q10 55 62 55h202q57 0 47 -55l-178 -1002q-8 -53 -59 -53h-182q-54 0 -54 45l2 74q-94 -139 -270 -139q-285 0 -285 264q0 40 11 104zM643 1384l-22 -120
q-8 -52 -58 -52h-170q-53 0 -45 52l23 120q8 52 57 52h168q55 0 47 -52zM1030 1384l-20 -120q-12 -52 -60 -52h-170q-53 0 -45 52l23 120q8 52 57 52h170q53 0 45 -52z" />
    <glyph glyph-name="yacute" unicode="&#xfd;" horiz-adv-x="995" 
d="M1069 1049l-420 -965q-78 -185 -164 -254q-87 -70 -272 -70q-137 0 -203 21q-44 16 -37 53l33 143q11 48 60 48q7 0 25 -3q25 -4 35 -5q12 -1 38 -1q118 0 100 117l-129 916q-10 61 47 61h209q55 0 55 -53l33 -490l6 -239h9l79 239l177 490q18 53 67 53h217q29 0 38 -16
t-3 -45zM522 1255l99 166q22 37 59 37h233q17 0 25 -9t5 -24q-3 -13 -15 -24l-183 -160q-31 -29 -73 -29h-123q-22 0 -30 13q-7 12 3 30z" />
    <glyph glyph-name="thorn" unicode="&#xfe;" horiz-adv-x="1130" 
d="M319 1446h203q57 0 49 -53l-69 -394q44 60 115 96q70 35 157 35q324 0 324 -364q0 -96 -21 -213q-52 -296 -167 -435q-114 -138 -302 -138q-89 0 -166 34t-98 90l-49 -276q-8 -53 -62 -53h-202q-55 0 -47 53l276 1565q8 53 59 53zM420 555q-14 -78 -14 -149
q0 -170 133 -170q87 0 139 72q54 74 84 247q16 102 16 162q0 84 -30 121q-29 36 -97 36q-88 0 -144 -74q-57 -75 -87 -245z" />
    <glyph glyph-name="ydieresis" unicode="&#xff;" horiz-adv-x="995" 
d="M1069 1049l-420 -965q-78 -185 -164 -254q-87 -70 -272 -70q-137 0 -203 21q-44 16 -37 53l33 143q11 48 60 48q7 0 25 -3q25 -4 35 -5q12 -1 38 -1q118 0 100 117l-129 916q-10 61 47 61h209q55 0 55 -53l33 -490l6 -239h9l79 239l177 490q18 53 67 53h217q29 0 38 -16
t-3 -45zM602 1384l-22 -120q-8 -52 -58 -52h-170q-53 0 -45 52l23 120q8 52 57 52h168q55 0 47 -52zM989 1384l-20 -120q-12 -52 -60 -52h-170q-53 0 -45 52l23 120q8 52 57 52h170q53 0 45 -52z" />
    <glyph glyph-name="Amacron" unicode="&#x100;" horiz-adv-x="1220" 
d="M498 563h266l-31 557h-6zM631 1446h297q62 0 67 -57l119 -1323q6 -66 -55 -66h-219q-58 0 -58 53l-18 228h-365l-96 -228q-24 -53 -72 -53h-229q-28 0 -40 18t1 48l586 1323q24 57 82 57zM1083 1542h-565q-50 0 -43 49l14 86q7 49 58 49h565q50 0 43 -49l-14 -86
q-10 -49 -58 -49z" />
    <glyph glyph-name="amacron" unicode="&#x101;" horiz-adv-x="1024" 
d="M981 758l-125 -705q-8 -53 -57 -53h-166q-49 0 -53 45l4 72q-111 -131 -287 -131q-130 0 -205 68q-76 69 -76 192q0 106 36 184q36 79 93 125q58 47 147 76q88 28 176 39q74 9 202 14l10 59q15 70 -20 102t-123 32q-105 0 -261 -48q-59 -16 -59 37l2 140q0 47 49 63
q153 59 338 59q383 0 383 -276q0 -48 -8 -94zM618 397l21 109q-155 -6 -238 -54q-82 -48 -82 -157q0 -92 99 -92q86 0 136 53q49 52 64 141zM924 1223h-559q-53 0 -43 49l14 84q7 49 55 49h561q50 0 43 -49l-14 -84q-10 -49 -57 -49z" />
    <glyph glyph-name="Abreve" unicode="&#x102;" horiz-adv-x="1220" 
d="M498 563h266l-31 557h-6zM631 1446h297q62 0 67 -57l119 -1323q6 -66 -55 -66h-219q-58 0 -58 53l-18 228h-365l-96 -228q-24 -53 -72 -53h-229q-28 0 -40 18t1 48l586 1323q24 57 82 57zM809 1528q-151 0 -222 67q-73 68 -55 166q6 41 43 41h97q43 0 43 -37
q0 -90 108 -90q109 0 142 90q12 37 49 37h94q43 0 37 -41q-18 -101 -104 -167q-85 -66 -232 -66z" />
    <glyph glyph-name="abreve" unicode="&#x103;" horiz-adv-x="1024" 
d="M981 758l-125 -705q-8 -53 -57 -53h-166q-49 0 -53 45l4 72q-111 -131 -287 -131q-130 0 -205 68q-76 69 -76 192q0 106 36 184q36 79 93 125q58 47 147 76q88 28 176 39q74 9 202 14l10 59q15 70 -20 102t-123 32q-105 0 -261 -48q-59 -16 -59 37l2 140q0 47 49 63
q153 59 338 59q383 0 383 -276q0 -48 -8 -94zM618 397l21 109q-155 -6 -238 -54q-82 -48 -82 -157q0 -92 99 -92q86 0 136 53q49 52 64 141zM655 1204q-149 0 -223 68q-73 67 -55 166q6 41 43 41h94q22 0 32 -10q9 -9 7 -27q0 -92 113 -92q111 0 141 92q15 37 51 37h94
q39 0 33 -41q-18 -102 -100 -168q-83 -66 -230 -66z" />
    <glyph glyph-name="Aogonek" unicode="&#x104;" horiz-adv-x="1220" 
d="M631 1446h297q62 0 67 -57l119 -1323q6 -66 -55 -66h-27q-119 -74 -119 -145q0 -43 64 -43q20 0 39 4t26 4q23 0 23 -21l4 -75q0 -26 -31 -41q-64 -31 -133 -31q-90 0 -142 34t-52 99q0 131 184 215h-55q-58 0 -58 53l-18 228h-365l-96 -228q-24 -53 -72 -53h-229
q-28 0 -40 18t1 48l586 1323q24 57 82 57zM498 563h266l-31 557h-6z" />
    <glyph glyph-name="aogonek" unicode="&#x105;" horiz-adv-x="1024" 
d="M981 758l-125 -705q-8 -53 -57 -53h-19q-114 -69 -114 -137q0 -41 61 -41q19 0 35 4t24 4q23 0 23 -22l2 -72q0 -29 -27 -41q-58 -29 -129 -29q-79 0 -132 32q-52 31 -52 91q0 127 178 211h-16q-49 0 -53 45l4 72q-111 -131 -287 -131q-130 0 -205 68q-76 69 -76 192
q0 106 36 184q36 79 93 125q58 47 147 76q88 28 176 39q74 9 202 14l10 59q15 70 -20 102t-123 32q-105 0 -261 -48q-59 -16 -59 37l2 140q0 47 49 63q153 59 338 59q383 0 383 -276q0 -48 -8 -94zM618 397l21 109q-155 -6 -238 -54q-82 -48 -82 -157q0 -92 99 -92
q86 0 136 53q49 52 64 141z" />
    <glyph glyph-name="Cacute" unicode="&#x106;" horiz-adv-x="1077" 
d="M690 272q100 0 182 33q62 21 66 -39l12 -153q2 -45 -55 -72q-134 -61 -293 -61q-251 0 -379 113q-129 114 -129 366q0 99 27 266q72 404 238 573q167 170 464 170q181 0 299 -61q52 -21 31 -72l-63 -153q-24 -55 -80 -37q-79 29 -170 29q-167 0 -253 -98
q-85 -97 -130 -351q-23 -138 -23 -209q0 -132 61 -188t195 -56zM682 1579l98 166q24 39 64 39h233q17 0 24 -10t4 -24t-15 -24l-185 -161q-31 -29 -76 -29h-122q-49 0 -25 43z" />
    <glyph glyph-name="cacute" unicode="&#x107;" horiz-adv-x="888" 
d="M86 559q96 571 563 571q171 0 256 -49q43 -21 25 -65l-60 -146q-16 -46 -73 -30q-70 22 -131 22q-109 0 -172 -69q-65 -71 -93 -236q-14 -73 -14 -137q0 -92 42 -132q41 -40 128 -40q83 0 152 26q58 18 59 -30l6 -146q4 -40 -47 -67q-102 -51 -240 -51q-198 0 -309 99
q-110 98 -110 298q0 81 18 182zM514 1255l98 166q22 37 60 37h233q17 0 25 -9t5 -24q-3 -13 -15 -24l-183 -160q-31 -29 -73 -29h-123q-22 0 -30 13q-7 12 3 30z" />
    <glyph glyph-name="Ccircumflex" unicode="&#x108;" horiz-adv-x="1077" 
d="M690 272q100 0 182 33q62 21 66 -39l12 -153q2 -45 -55 -72q-134 -61 -293 -61q-251 0 -379 113q-129 114 -129 366q0 99 27 266q72 404 238 573q167 170 464 170q181 0 299 -61q52 -21 31 -72l-63 -153q-24 -55 -80 -37q-79 29 -170 29q-167 0 -253 -98
q-85 -97 -130 -351q-23 -138 -23 -209q0 -132 61 -188t195 -56zM922 1567l-88 92l-121 -92q-36 -31 -70 -31h-115q-24 0 -28 17q-4 18 16 34l201 180q35 29 74 29h122q44 0 68 -29l137 -180q14 -16 5 -34q-9 -17 -33 -17h-107q-33 0 -61 31z" />
    <glyph glyph-name="ccircumflex" unicode="&#x109;" horiz-adv-x="888" 
d="M86 559q96 571 563 571q171 0 256 -49q43 -21 25 -65l-60 -146q-16 -46 -73 -30q-70 22 -131 22q-109 0 -172 -69q-65 -71 -93 -236q-14 -73 -14 -137q0 -92 42 -132q41 -40 128 -40q83 0 152 26q58 18 59 -30l6 -146q4 -40 -47 -67q-102 -51 -240 -51q-198 0 -309 99
q-110 98 -110 298q0 81 18 182zM735 1241l-86 96l-121 -96q-35 -29 -67 -29h-115q-24 0 -29 18q-4 16 15 34l198 182q31 29 74 29h123q47 0 68 -29l137 -182q12 -16 4 -34q-7 -18 -33 -18h-104q-40 0 -64 29z" />
    <glyph glyph-name="Cdotaccent" unicode="&#x10a;" horiz-adv-x="1077" 
d="M690 272q100 0 182 33q62 21 66 -39l12 -153q2 -45 -55 -72q-134 -61 -293 -61q-251 0 -379 113q-129 114 -129 366q0 99 27 266q72 404 238 573q167 170 464 170q181 0 299 -61q52 -21 31 -72l-63 -153q-24 -55 -80 -37q-79 29 -170 29q-167 0 -253 -98
q-85 -97 -130 -351q-23 -138 -23 -209q0 -132 61 -188t195 -56zM993 1716l-22 -129q-8 -53 -62 -53h-202q-56 0 -48 53l25 129q8 53 59 53h203q55 0 47 -53z" />
    <glyph glyph-name="cdotaccent" unicode="&#x10b;" horiz-adv-x="888" 
d="M86 559q96 571 563 571q171 0 256 -49q43 -21 25 -65l-60 -146q-16 -46 -73 -30q-70 22 -131 22q-109 0 -172 -69q-65 -71 -93 -236q-14 -73 -14 -137q0 -92 42 -132q41 -40 128 -40q83 0 152 26q58 18 59 -30l6 -146q4 -40 -47 -67q-102 -51 -240 -51q-198 0 -309 99
q-110 98 -110 298q0 81 18 182zM831 1389l-22 -127q-8 -52 -61 -52h-203q-55 0 -47 52l22 127q12 55 62 55h202q54 0 47 -55z" />
    <glyph glyph-name="Ccaron" unicode="&#x10c;" horiz-adv-x="1077" 
d="M690 272q100 0 182 33q62 21 66 -39l12 -153q2 -45 -55 -72q-134 -61 -293 -61q-251 0 -379 113q-129 114 -129 366q0 99 27 266q72 404 238 573q167 170 464 170q181 0 299 -61q52 -21 31 -72l-63 -153q-24 -55 -80 -37q-79 29 -170 29q-167 0 -253 -98
q-85 -97 -130 -351q-23 -138 -23 -209q0 -132 61 -188t195 -56zM829 1673l117 92q42 31 70 31h114q26 0 30 -17q4 -18 -13 -34l-201 -180q-35 -29 -76 -29h-122q-45 0 -66 29l-137 180q-14 16 -5 34q8 17 33 17h105q38 0 61 -29z" />
    <glyph glyph-name="ccaron" unicode="&#x10d;" horiz-adv-x="888" 
d="M86 559q96 571 563 571q171 0 256 -49q43 -21 25 -65l-60 -146q-16 -46 -73 -30q-70 22 -131 22q-109 0 -172 -69q-65 -71 -93 -236q-14 -73 -14 -137q0 -92 42 -132q41 -40 128 -40q83 0 152 26q58 18 59 -30l6 -146q4 -40 -47 -67q-102 -51 -240 -51q-198 0 -309 99
q-110 98 -110 298q0 81 18 182zM645 1350l121 96q35 29 68 29h114q26 0 30 -18q5 -19 -15 -34l-199 -182q-31 -29 -74 -29h-123q-44 0 -67 29l-138 182q-12 16 -4 34t33 18h105q39 0 63 -29z" />
    <glyph glyph-name="Dcaron" unicode="&#x10e;" horiz-adv-x="1218" 
d="M467 0h-383q-61 0 -49 57l235 1332q8 57 66 57h348q265 0 398 -112q132 -111 132 -365q0 -100 -22 -238q-67 -400 -239 -566q-171 -165 -486 -165zM645 1151h-88l-149 -858h90q149 0 232 92t128 346q21 133 21 195q0 126 -57 176q-56 49 -177 49zM795 1673l116 92
q42 31 70 31h115q25 0 29 -17q4 -18 -13 -34l-201 -180q-35 -29 -75 -29h-123q-45 0 -66 29l-137 180q-14 16 -5 34q9 17 34 17h104q39 0 62 -29z" />
    <glyph glyph-name="dcaron" unicode="&#x10f;" horiz-adv-x="1433" 
d="M739 555q17 97 17 150q0 170 -135 170q-88 0 -140 -73q-52 -74 -82 -247q-18 -101 -18 -164q0 -155 127 -155q88 0 144 74q57 75 87 245zM664 45l6 72q-46 -63 -122 -100q-75 -37 -163 -37q-324 0 -324 362q0 99 21 213q51 296 167 436t304 140q88 0 164 -36
q75 -35 98 -89l70 387q8 53 59 53h203q59 0 47 -53l-236 -1340q-8 -53 -59 -53h-182q-53 0 -53 45zM1542 1169l-141 -213q-20 -32 -51 -32h-72q-19 0 -25 14q-6 15 4 31l109 196h-59q-58 0 -50 56l37 196q6 56 64 56h192q60 0 52 -56l-33 -180q-5 -38 -27 -68z" />
    <glyph glyph-name="Dcroat" unicode="&#x110;" horiz-adv-x="1222" 
d="M471 0h-383q-61 0 -49 57l102 578h-53q-45 0 -39 45l17 88q8 45 51 45h55l102 576q8 57 66 57h348q265 0 397 -112t132 -369q0 -93 -23 -242q-66 -395 -236 -559t-487 -164zM649 1151h-88l-59 -338h155q45 0 39 -45l-16 -88q-8 -45 -51 -45h-158l-59 -342h90
q151 0 233 91q81 90 125 339q21 117 21 201q0 128 -57 177q-58 50 -175 50z" />
    <glyph glyph-name="dcroat" unicode="&#x111;" horiz-adv-x="1132" 
d="M664 45l6 72q-46 -63 -121 -100t-162 -37q-155 0 -241 90q-85 89 -85 276q0 97 21 211q52 295 168 435q114 138 303 138q94 0 164 -35t98 -89l35 194h-209q-42 0 -35 43l10 62q7 43 50 43h211l8 45q8 53 59 53h203q55 0 47 -53l-8 -45h49q47 0 37 -43l-10 -62
q-7 -43 -52 -43h-49l-203 -1147q-8 -53 -59 -53h-182q-53 0 -53 45zM739 555q17 97 17 150q0 170 -135 170q-88 0 -140 -73q-52 -74 -82 -247q-18 -101 -18 -164q0 -155 127 -155q88 0 144 74q57 75 87 245z" />
    <glyph glyph-name="Emacron" unicode="&#x112;" horiz-adv-x="1015" 
d="M881 598h-424l-56 -309h451q59 0 51 -58l-31 -174q-12 -57 -65 -57h-721q-63 0 -51 57l235 1332q8 57 64 57h713q59 0 51 -57l-31 -175q-7 -57 -66 -57h-446l-49 -283h418q56 0 49 -57l-29 -164q-10 -55 -63 -55zM1006 1542h-566q-50 0 -43 49l15 86q7 49 57 49h565
q50 0 43 -49l-14 -86q-10 -49 -57 -49z" />
    <glyph glyph-name="emacron" unicode="&#x113;" horiz-adv-x="1038" 
d="M580 217q115 0 225 43q29 10 45 0t16 -37v-121q0 -44 -53 -67q-129 -55 -285 -55q-465 0 -465 405q0 52 19 180q100 565 551 565q187 0 282 -94q97 -95 97 -270q0 -63 -17 -160l-18 -112q-11 -58 -70 -58h-540q-5 -45 -5 -51q2 -168 218 -168zM610 899q-83 0 -132 -61
q-50 -63 -83 -205h322l4 20q12 83 12 109q0 137 -123 137zM946 1223h-559q-50 0 -43 49l14 84q10 49 56 49h561q53 0 43 -49l-14 -84q-10 -49 -58 -49z" />
    <glyph glyph-name="Ebreve" unicode="&#x114;" horiz-adv-x="1015" 
d="M881 598h-424l-56 -309h451q59 0 51 -58l-31 -174q-12 -57 -65 -57h-721q-63 0 -51 57l235 1332q8 57 64 57h713q59 0 51 -57l-31 -175q-7 -57 -66 -57h-446l-49 -283h418q56 0 49 -57l-29 -164q-10 -55 -63 -55zM737 1528q-151 0 -222 67q-72 67 -54 166q6 41 43 41h96
q43 0 43 -37q0 -90 109 -90q108 0 141 90q12 37 49 37h94q43 0 37 -41q-18 -102 -103 -167q-86 -66 -233 -66z" />
    <glyph glyph-name="ebreve" unicode="&#x115;" horiz-adv-x="1038" 
d="M580 217q115 0 225 43q29 10 45 0t16 -37v-121q0 -44 -53 -67q-129 -55 -285 -55q-465 0 -465 405q0 52 19 180q100 565 551 565q187 0 282 -94q97 -95 97 -270q0 -63 -17 -160l-18 -112q-11 -58 -70 -58h-540q-5 -45 -5 -51q2 -168 218 -168zM610 899q-83 0 -132 -61
q-50 -63 -83 -205h322l4 20q12 83 12 109q0 137 -123 137zM678 1204q-149 0 -223 68t-56 166q6 41 43 41h95q21 0 31 -10q9 -9 7 -27q0 -92 113 -92q111 0 141 92q15 37 52 37h94q39 0 33 -41q-18 -102 -101 -168t-229 -66z" />
    <glyph glyph-name="Edotaccent" unicode="&#x116;" horiz-adv-x="1015" 
d="M881 598h-424l-56 -309h451q59 0 51 -58l-31 -174q-12 -57 -65 -57h-721q-63 0 -51 57l235 1332q8 57 64 57h713q59 0 51 -57l-31 -175q-7 -57 -66 -57h-446l-49 -283h418q56 0 49 -57l-29 -164q-10 -55 -63 -55zM920 1716l-23 -129q-8 -53 -61 -53h-203q-55 0 -47 53
l24 129q8 53 60 53h202q56 0 48 -53z" />
    <glyph glyph-name="edotaccent" unicode="&#x117;" horiz-adv-x="1038" 
d="M580 217q115 0 225 43q29 10 45 0t16 -37v-121q0 -44 -53 -67q-129 -55 -285 -55q-465 0 -465 405q0 52 19 180q100 565 551 565q187 0 282 -94q97 -95 97 -270q0 -63 -17 -160l-18 -112q-11 -58 -70 -58h-540q-5 -45 -5 -51q2 -168 218 -168zM610 899q-83 0 -132 -61
q-50 -63 -83 -205h322l4 20q12 83 12 109q0 137 -123 137zM850 1389l-23 -127q-8 -52 -61 -52h-203q-55 0 -47 52l23 127q12 55 61 55h203q57 0 47 -55z" />
    <glyph glyph-name="Eogonek" unicode="&#x118;" horiz-adv-x="1015" 
d="M881 598h-424l-56 -309h451q59 0 51 -58l-31 -174q-12 -57 -65 -57h-31q-119 -74 -119 -145q0 -43 64 -43q21 0 38 4t27 4q23 0 23 -21l4 -75q0 -26 -31 -41q-64 -31 -133 -31q-90 0 -142 34t-52 99q0 131 184 215h-553q-63 0 -51 57l235 1332q8 57 64 57h713
q59 0 51 -57l-31 -175q-7 -57 -66 -57h-446l-49 -283h418q56 0 49 -57l-29 -164q-10 -55 -63 -55z" />
    <glyph glyph-name="eogonek" unicode="&#x119;" horiz-adv-x="1038" 
d="M580 217q115 0 225 43q29 10 45 0t16 -37v-121q0 -44 -53 -67q-68 -28 -123 -39q-106 -67 -106 -133q0 -41 61 -41q19 0 35 4t25 4q22 0 22 -23l2 -71q0 -29 -27 -41q-58 -29 -129 -29q-79 0 -132 32q-52 31 -52 91q0 112 139 191q-465 0 -465 405q0 52 19 180
q100 565 551 565q187 0 282 -94q97 -95 97 -270q0 -63 -17 -160l-18 -112q-11 -58 -70 -58h-540q-5 -45 -5 -51q2 -168 218 -168zM610 899q-83 0 -132 -61q-50 -63 -83 -205h322l4 20q12 83 12 109q0 137 -123 137z" />
    <glyph glyph-name="Ecaron" unicode="&#x11a;" horiz-adv-x="1015" 
d="M881 598h-424l-56 -309h451q59 0 51 -58l-31 -174q-12 -57 -65 -57h-721q-63 0 -51 57l235 1332q8 57 64 57h713q59 0 51 -57l-31 -175q-7 -57 -66 -57h-446l-49 -283h418q56 0 49 -57l-29 -164q-10 -55 -63 -55zM743 1673l117 92q42 31 70 31h114q26 0 30 -17
q4 -18 -13 -34l-201 -180q-35 -29 -76 -29h-122q-45 0 -66 29l-137 180q-14 16 -5 34q8 17 33 17h105q38 0 61 -29z" />
    <glyph glyph-name="ecaron" unicode="&#x11b;" horiz-adv-x="1038" 
d="M580 217q115 0 225 43q29 10 45 0t16 -37v-121q0 -44 -53 -67q-129 -55 -285 -55q-465 0 -465 405q0 52 19 180q100 565 551 565q187 0 282 -94q97 -95 97 -270q0 -63 -17 -160l-18 -112q-11 -58 -70 -58h-540q-5 -45 -5 -51q2 -168 218 -168zM610 899q-83 0 -132 -61
q-50 -63 -83 -205h322l4 20q12 83 12 109q0 137 -123 137zM682 1350l121 96q35 29 67 29h115q25 0 30 -18q4 -18 -16 -34l-198 -182q-31 -29 -74 -29h-123q-44 0 -67 29l-138 182q-12 16 -4 34q7 18 33 18h104q40 0 64 -29z" />
    <glyph glyph-name="Gcircumflex" unicode="&#x11c;" horiz-adv-x="1222" 
d="M764 883h377q60 0 49 -58l-121 -686q-8 -52 -63 -80q-149 -79 -392 -79q-255 0 -387 113q-133 114 -133 370q0 99 27 266q72 406 251 573q178 166 505 166q216 0 329 -67q50 -24 31 -72l-59 -155q-23 -53 -86 -35q-102 35 -211 35q-199 0 -289 -95t-135 -354
q-23 -143 -23 -215q0 -132 61 -188t189 -56q66 0 115 19l61 340h-135q-61 0 -51 55l26 145q11 58 64 58zM956 1567l-88 92l-120 -92q-36 -31 -70 -31h-115q-24 0 -28 17q-4 18 16 34l201 180q35 29 73 29h123q44 0 68 -29l137 -180q14 -16 5 -34q-8 -17 -34 -17h-106
q-34 0 -62 31z" />
    <glyph glyph-name="gcircumflex" unicode="&#x11d;" horiz-adv-x="1081" 
d="M711 629q12 67 12 114q0 148 -121 148q-76 0 -123 -64t-71 -200q-13 -80 -13 -125q0 -140 117 -140q154 0 199 267zM1087 1055l-153 -881q-39 -215 -168 -317q-130 -103 -367 -103q-232 0 -336 49q-43 22 -28 66l45 129q16 55 72 37q112 -39 235 -39q114 0 173 46
q61 47 79 142l12 70q-89 -123 -258 -123q-313 0 -313 322q0 89 16 176q88 499 439 499q91 0 158 -38q68 -39 93 -97l21 72q17 45 63 45h174q53 0 43 -55zM788 1241l-86 96l-120 -96q-35 -29 -68 -29h-115q-23 0 -28 18q-4 17 14 34l199 182q31 29 73 29h123q47 0 68 -29
l137 -182q12 -16 4 -34q-7 -18 -33 -18h-104q-40 0 -64 29z" />
    <glyph glyph-name="Gbreve" unicode="&#x11e;" horiz-adv-x="1222" 
d="M764 883h377q60 0 49 -58l-121 -686q-8 -52 -63 -80q-149 -79 -392 -79q-255 0 -387 113q-133 114 -133 370q0 99 27 266q72 406 251 573q178 166 505 166q216 0 329 -67q50 -24 31 -72l-59 -155q-23 -53 -86 -35q-102 35 -211 35q-199 0 -289 -95t-135 -354
q-23 -143 -23 -215q0 -132 61 -188t189 -56q66 0 115 19l61 340h-135q-61 0 -51 55l26 145q11 58 64 58zM864 1528q-151 0 -222 67q-72 67 -54 166q6 41 43 41h96q43 0 43 -37q0 -90 109 -90q108 0 141 90q12 37 49 37h94q43 0 37 -41q-18 -102 -103 -167q-85 -66 -233 -66z
" />
    <glyph glyph-name="gbreve" unicode="&#x11f;" horiz-adv-x="1081" 
d="M711 629q12 67 12 114q0 148 -121 148q-76 0 -123 -64t-71 -200q-13 -80 -13 -125q0 -140 117 -140q154 0 199 267zM1087 1055l-153 -881q-39 -215 -168 -317q-130 -103 -367 -103q-232 0 -336 49q-43 22 -28 66l45 129q16 55 72 37q112 -39 235 -39q114 0 173 46
q61 47 79 142l12 70q-89 -123 -258 -123q-313 0 -313 322q0 89 16 176q88 499 439 499q91 0 158 -38q68 -39 93 -97l21 72q17 45 63 45h174q53 0 43 -55zM690 1204q-149 0 -223 68q-73 67 -55 166q6 41 43 41h94q22 0 32 -10q9 -9 7 -27q0 -92 112 -92t142 92q15 37 51 37
h94q39 0 33 -41q-18 -102 -100 -168t-230 -66z" />
    <glyph glyph-name="Gdotaccent" unicode="&#x120;" horiz-adv-x="1222" 
d="M764 883h377q60 0 49 -58l-121 -686q-8 -52 -63 -80q-149 -79 -392 -79q-255 0 -387 113q-133 114 -133 370q0 99 27 266q72 406 251 573q178 166 505 166q216 0 329 -67q50 -24 31 -72l-59 -155q-23 -53 -86 -35q-102 35 -211 35q-199 0 -289 -95t-135 -354
q-23 -143 -23 -215q0 -132 61 -188t189 -56q66 0 115 19l61 340h-135q-61 0 -51 55l26 145q11 58 64 58zM1047 1716l-23 -129q-8 -53 -61 -53h-203q-55 0 -47 53l24 129q8 53 60 53h202q56 0 48 -53z" />
    <glyph glyph-name="gdotaccent" unicode="&#x121;" horiz-adv-x="1081" 
d="M711 629q12 67 12 114q0 148 -121 148q-76 0 -123 -64t-71 -200q-13 -80 -13 -125q0 -140 117 -140q154 0 199 267zM1087 1055l-153 -881q-39 -215 -168 -317q-130 -103 -367 -103q-232 0 -336 49q-43 22 -28 66l45 129q16 55 72 37q112 -39 235 -39q114 0 173 46
q61 47 79 142l12 70q-89 -123 -258 -123q-313 0 -313 322q0 89 16 176q88 499 439 499q91 0 158 -38q68 -39 93 -97l21 72q17 45 63 45h174q53 0 43 -55zM864 1389l-22 -127q-8 -52 -62 -52h-202q-56 0 -48 52l23 127q12 55 61 55h203q54 0 47 -55z" />
    <glyph glyph-name="Gcommaaccent" unicode="&#x122;" horiz-adv-x="1222" 
d="M764 883h377q60 0 49 -58l-121 -686q-8 -52 -63 -80q-149 -79 -392 -79q-255 0 -387 113q-133 114 -133 370q0 99 27 266q72 406 251 573q178 166 505 166q216 0 329 -67q50 -24 31 -72l-59 -155q-23 -53 -86 -35q-102 35 -211 35q-199 0 -289 -95t-135 -354
q-23 -143 -23 -215q0 -132 61 -188t189 -56q66 0 115 19l61 340h-135q-61 0 -51 55l26 145q11 58 64 58zM686 -340l-123 -190q-24 -35 -51 -35h-39q-42 0 -20 43l71 176h-51q-53 0 -45 51l29 158q6 51 57 51h174q58 0 47 -51l-24 -137q-5 -33 -25 -66z" />
    <glyph glyph-name="gcommaaccent" unicode="&#x123;" horiz-adv-x="1081" 
d="M711 629q12 67 12 114q0 148 -121 148q-76 0 -123 -64t-71 -200q-13 -80 -13 -125q0 -140 117 -140q154 0 199 267zM1087 1055l-153 -881q-39 -215 -168 -317q-130 -103 -367 -103q-232 0 -336 49q-43 22 -28 66l45 129q16 55 72 37q112 -39 235 -39q114 0 173 46
q61 47 79 142l12 70q-89 -123 -258 -123q-313 0 -313 322q0 89 16 176q88 499 439 499q91 0 158 -38q68 -39 93 -97l21 72q17 45 63 45h174q53 0 43 -55zM762 1460l115 182q24 33 51 33h39q36 0 18 -41l-70 -168h52q48 0 41 -49l-27 -149q-6 -49 -59 -49h-162q-51 0 -45 49
l22 129q7 33 25 63z" />
    <glyph glyph-name="Hcircumflex" unicode="&#x124;" horiz-adv-x="1230" 
d="M721 57l94 531h-356l-94 -531q-7 -57 -64 -57h-215q-63 0 -51 57l235 1332q8 57 64 57h215q59 0 51 -57l-88 -504h354l90 504q6 57 64 57h215q59 0 51 -57l-235 -1332q-12 -57 -64 -57h-215q-63 0 -51 57zM891 1567l-88 92l-121 -92q-36 -31 -70 -31h-114q-25 0 -29 17
q-4 18 16 34l201 180q35 29 74 29h123q43 0 67 -29l137 -180q15 -16 6 -34q-9 -17 -34 -17h-107q-33 0 -61 31z" />
    <glyph glyph-name="hcircumflex" unicode="&#x125;" horiz-adv-x="1091" 
d="M1044 737l-120 -684q-8 -53 -60 -53h-202q-56 0 -48 53l113 633q6 38 6 66q0 102 -98 102q-155 0 -193 -207l-104 -594q-12 -53 -62 -53h-202q-55 0 -47 53l235 1340q12 53 60 53h204q55 0 47 -53l-67 -389q107 126 278 126q135 0 204 -70t69 -204q0 -48 -13 -119z
M838 1567l-88 92l-121 -92q-36 -31 -70 -31h-115q-24 0 -28 17q-4 18 16 34l201 180q35 29 74 29h122q44 0 68 -29l137 -180q14 -16 5 -34q-9 -17 -33 -17h-107q-33 0 -61 31z" />
    <glyph glyph-name="Hbar" unicode="&#x126;" horiz-adv-x="1226" 
d="M721 57l94 531h-356l-94 -531q-7 -57 -64 -57h-215q-63 0 -51 57l182 1037h-53q-43 0 -37 43l10 61q10 43 51 43h56l26 148q8 57 64 57h215q59 0 51 -57l-27 -148h357l26 148q6 57 64 57h215q61 0 51 -57l-26 -148h53q47 0 37 -43l-11 -61q-7 -43 -49 -43h-57l-182 -1037
q-7 -57 -64 -57h-215q-63 0 -51 57zM512 885h354l37 209h-354z" />
    <glyph glyph-name="hbar" unicode="&#x127;" horiz-adv-x="1091" 
d="M1044 737l-120 -684q-8 -53 -60 -53h-202q-56 0 -48 53l113 633q6 38 6 66q0 102 -98 102q-155 0 -193 -207l-104 -594q-12 -53 -62 -53h-202q-55 0 -47 53l200 1147h-47q-43 0 -37 43l13 62q6 43 49 43h49l8 45q11 53 60 53h204q59 0 47 -53l-8 -45h207q45 0 39 -43
l-12 -62q-6 -43 -49 -43h-211l-33 -196q105 126 278 126q135 0 204 -70t69 -204q0 -48 -13 -119z" />
    <glyph glyph-name="Itilde" unicode="&#x128;" horiz-adv-x="565" 
d="M45 57l236 1332q7 57 63 57h215q59 0 51 -57l-235 -1332q-12 -57 -64 -57h-217q-61 0 -49 57zM838 1696q-28 -166 -183 -166q-72 0 -153 31l-64 28q-47 19 -80 19q-40 0 -51 -29l-4 -12q-15 -33 -53 -33h-70q-26 0 -34 14q-9 15 -3 54q30 170 185 170q68 0 153 -31
l64 -29q111 -51 127 10l6 13q15 32 53 32h68q49 0 39 -71z" />
    <glyph glyph-name="itilde" unicode="&#x129;" horiz-adv-x="518" 
d="M518 1055l-178 -1002q-8 -53 -59 -53h-203q-55 0 -47 53l176 1002q10 55 61 55h203q57 0 47 -55zM750 1372q-29 -164 -175 -164q-85 0 -153 31l-64 27q-47 18 -73 18q-40 0 -52 -29l-4 -12q-15 -31 -51 -31h-67q-27 0 -37 15q-9 14 -2 51q29 168 178 168q70 0 149 -31
l66 -29q44 -18 74 -18q38 0 49 31l4 12q16 31 51 31h70q48 0 37 -70z" />
    <glyph glyph-name="Imacron" unicode="&#x12a;" horiz-adv-x="565" 
d="M45 57l236 1332q7 57 63 57h215q59 0 51 -57l-235 -1332q-12 -57 -64 -57h-217q-61 0 -49 57zM756 1542h-566q-50 0 -43 49l15 86q7 49 57 49h565q50 0 43 -49l-14 -86q-10 -49 -57 -49z" />
    <glyph glyph-name="imacron" unicode="&#x12b;" horiz-adv-x="518" 
d="M518 1055l-178 -1002q-8 -53 -59 -53h-203q-55 0 -47 53l176 1002q10 55 61 55h203q57 0 47 -55zM674 1223h-559q-53 0 -43 49l14 84q7 49 55 49h561q50 0 43 -49l-14 -84q-10 -49 -57 -49z" />
    <glyph glyph-name="Ibreve" unicode="&#x12c;" horiz-adv-x="565" 
d="M45 57l236 1332q7 57 63 57h215q59 0 51 -57l-235 -1332q-12 -57 -64 -57h-217q-61 0 -49 57zM481 1528q-151 0 -222 67q-72 67 -54 166q6 41 43 41h96q43 0 43 -37q0 -90 109 -90q108 0 141 90q12 37 49 37h94q43 0 37 -41q-18 -102 -103 -167q-86 -66 -233 -66z" />
    <glyph glyph-name="ibreve" unicode="&#x12d;" horiz-adv-x="518" 
d="M518 1055l-178 -1002q-8 -53 -59 -53h-203q-55 0 -47 53l176 1002q10 55 61 55h203q57 0 47 -55zM406 1204q-150 0 -224 68q-73 67 -55 166q6 41 43 41h94q22 0 32 -10q9 -9 7 -27q0 -92 113 -92q111 0 141 92q15 37 51 37h94q39 0 33 -41q-18 -102 -100 -168
q-83 -66 -229 -66z" />
    <glyph glyph-name="Iogonek" unicode="&#x12e;" horiz-adv-x="565" 
d="M45 57l236 1332q7 57 63 57h215q59 0 51 -57l-235 -1332q-12 -57 -64 -57h-18q-119 -74 -119 -145q0 -43 64 -43q22 0 38 4t27 4q23 0 23 -21l4 -75q0 -26 -31 -41q-64 -31 -133 -31q-90 0 -142 34q-53 35 -53 99q0 131 185 215h-62q-61 0 -49 57z" />
    <glyph glyph-name="iogonek" unicode="&#x12f;" horiz-adv-x="516" 
d="M516 1055l-176 -1002q-12 -53 -59 -53h-23q-115 -70 -115 -137q0 -41 62 -41q19 0 35 4t24 4q23 0 23 -23l2 -71q0 -29 -27 -41q-58 -29 -129 -29q-79 0 -132 32q-52 31 -52 91q0 127 178 211h-51q-55 0 -47 53l178 1002q10 55 59 55h205q52 0 45 -55zM578 1389l-23 -125
q-8 -54 -59 -54h-211q-53 0 -45 54l22 125q7 55 60 55h210q58 0 46 -55z" />
    <glyph glyph-name="Idotaccent" unicode="&#x130;" horiz-adv-x="565" 
d="M45 57l236 1332q7 57 63 57h215q59 0 51 -57l-235 -1332q-12 -57 -64 -57h-217q-61 0 -49 57zM657 1716l-22 -129q-8 -53 -62 -53h-202q-55 0 -47 53l24 129q8 53 60 53h202q55 0 47 -53z" />
    <glyph glyph-name="dotlessi" unicode="&#x131;" horiz-adv-x="518" 
d="M518 1055l-178 -1002q-8 -53 -59 -53h-203q-55 0 -47 53l176 1002q10 55 61 55h203q57 0 47 -55z" />
    <glyph glyph-name="IJ" unicode="&#x132;" horiz-adv-x="1392" 
d="M45 57l236 1332q7 57 63 57h215q59 0 51 -57l-235 -1332q-12 -57 -64 -57h-217q-61 0 -49 57zM961 469l161 920q8 57 64 57h215q59 0 51 -57l-170 -963q-41 -237 -154 -340q-112 -102 -321 -102q-155 0 -256 49q-54 25 -33 76l62 159q21 53 69 41q64 -26 135 -26
q144 0 177 186z" />
    <glyph glyph-name="ij" unicode="&#x133;" horiz-adv-x="1064" 
d="M516 1055l-176 -1002q-12 -53 -61 -53h-203q-55 0 -47 53l178 1002q10 55 59 55h205q52 0 45 -55zM578 1389l-23 -125q-8 -54 -59 -54h-211q-53 0 -45 54l22 125q7 55 60 55h210q58 0 46 -55zM629 348l127 707q10 55 59 55h205q52 0 45 -55l-133 -754q-30 -178 -103 -248
q-72 -69 -229 -69q-96 0 -147 16q-43 12 -35 53l24 150q7 49 58 49q25 -4 47 -4q35 0 54 22q21 24 28 78zM1126 1389l-20 -125q-12 -54 -62 -54h-208q-56 0 -48 54l23 125q7 55 59 55h211q57 0 45 -55z" />
    <glyph glyph-name="Jcircumflex" unicode="&#x134;" horiz-adv-x="845" 
d="M414 469l161 920q7 57 64 57h215q58 0 51 -57l-170 -963q-41 -238 -153 -340q-113 -102 -322 -102q-155 0 -256 49q-54 25 -33 76l62 159q21 53 69 41q64 -26 136 -26q143 0 176 186zM723 1567l-88 92l-121 -92q-36 -31 -70 -31h-114q-25 0 -29 17q-4 18 16 34l201 180
q35 29 74 29h123q43 0 67 -29l138 -180q14 -16 5 -34q-9 -17 -34 -17h-107q-33 0 -61 31z" />
    <glyph glyph-name="jcircumflex" unicode="&#x135;" horiz-adv-x="557" 
d="M82 125l164 930q7 55 61 55h203q54 0 47 -55l-174 -977q-30 -178 -102 -247t-232 -69q-101 0 -145 15q-45 12 -37 53l27 152q8 47 55 47q12 0 24 -1t25 -1q36 0 56 21q21 22 28 77zM532 1241l-86 96l-120 -96q-35 -29 -68 -29h-115q-23 0 -28 18q-4 17 14 34l199 182
q31 29 73 29h123q47 0 68 -29l137 -182q12 -16 4 -34q-7 -18 -33 -18h-104q-40 0 -64 29z" />
    <glyph glyph-name="Kcommaaccent" unicode="&#x136;" horiz-adv-x="1159" 
d="M520 938l385 457q40 51 86 51h254q30 0 38 -23t-13 -49l-510 -594l293 -708q10 -28 -2 -50q-13 -22 -43 -22h-228q-50 0 -71 53l-240 592l-104 -588q-7 -57 -64 -57h-215q-63 0 -51 57l235 1332q8 57 64 57h215q59 0 51 -57zM590 -340l-123 -190q-24 -35 -51 -35h-39
q-42 0 -21 43l72 176h-51q-53 0 -45 51l28 158q6 51 58 51h174q58 0 47 -51l-25 -137q-5 -35 -24 -66z" />
    <glyph glyph-name="kcommaaccent" unicode="&#x137;" horiz-adv-x="1015" 
d="M879 0h-215q-53 0 -74 45l-180 422l-72 -414q-12 -53 -59 -53h-205q-55 0 -47 53l235 1340q12 53 60 53h204q55 0 47 -53l-110 -627l276 303q30 41 80 41h238q31 0 37 -23q6 -22 -19 -47l-405 -432l248 -540q12 -28 1 -48t-40 -20zM514 -328l-115 -182q-24 -33 -51 -33
h-39q-36 0 -18 41l69 168h-51q-48 0 -41 49l27 150q6 49 59 49h162q51 0 45 -49l-22 -129q-7 -34 -25 -64z" />
    <glyph glyph-name="kgreenlandic" unicode="&#x138;" horiz-adv-x="1011" 
d="M877 0h-215q-53 0 -74 45l-180 422l-72 -414q-12 -53 -60 -53h-204q-55 0 -47 53l176 1004q12 53 59 53h205q55 0 47 -53l-51 -291l276 303q30 41 80 41h238q31 0 36 -23t-18 -47l-405 -432l247 -540q13 -25 1 -46q-13 -22 -39 -22z" />
    <glyph glyph-name="Lacute" unicode="&#x139;" horiz-adv-x="958" 
d="M604 1389l-192 -1090h395q59 0 51 -57l-33 -185q-12 -57 -65 -57h-670q-63 0 -51 57l235 1332q8 57 64 57h215q59 0 51 -57zM383 1579l98 166q24 39 64 39h233q17 0 24 -10t4 -24t-15 -24l-185 -161q-31 -29 -76 -29h-122q-49 0 -25 43z" />
    <glyph glyph-name="lacute" unicode="&#x13a;" horiz-adv-x="516" 
d="M575 1393l-235 -1340q-12 -53 -59 -53h-205q-55 0 -47 53l237 1340q8 53 58 53h204q55 0 47 -53zM352 1579l99 166q24 39 63 39h234q16 0 23 -10t4 -24t-15 -24l-185 -161q-31 -29 -75 -29h-123q-49 0 -25 43z" />
    <glyph glyph-name="Lcommaaccent" unicode="&#x13b;" horiz-adv-x="958" 
d="M600 1389l-192 -1090h395q59 0 51 -57l-33 -185q-12 -57 -65 -57h-670q-63 0 -51 57l235 1332q8 57 64 57h215q59 0 51 -57zM489 -340l-122 -190q-24 -35 -52 -35h-39q-42 0 -20 43l72 176h-52q-52 0 -45 51l29 158q6 51 57 51h175q58 0 47 -51l-25 -137q-5 -33 -25 -66z
" />
    <glyph glyph-name="lcommaaccent" unicode="&#x13c;" horiz-adv-x="516" 
d="M575 1393l-235 -1340q-12 -53 -59 -53h-205q-55 0 -47 53l237 1340q8 53 58 53h204q55 0 47 -53zM238 -328l-115 -182q-24 -33 -51 -33h-39q-37 0 -19 41l70 168h-51q-48 0 -41 49l26 150q6 49 60 49h162q51 0 45 -49l-23 -129q-7 -37 -24 -64z" />
    <glyph glyph-name="Lcaron" unicode="&#x13d;" horiz-adv-x="970" 
d="M600 1389l-192 -1090h395q59 0 51 -57l-33 -185q-12 -57 -65 -57h-670q-63 0 -51 57l235 1332q8 57 64 57h215q59 0 51 -57zM993 1171l-141 -213q-20 -32 -51 -32h-72q-18 0 -24 14q-6 15 4 31l108 196h-59q-57 0 -49 56l36 196q6 56 64 56h192q60 0 52 -56l-33 -180
q-5 -38 -27 -68z" />
    <glyph glyph-name="lcaron" unicode="&#x13e;" horiz-adv-x="817" 
d="M575 1393l-235 -1340q-12 -53 -59 -53h-205q-55 0 -47 53l237 1340q8 53 58 53h204q55 0 47 -53zM926 1169l-142 -213q-20 -32 -51 -32h-71q-19 0 -25 14q-6 15 4 31l109 196h-60q-60 0 -49 56l37 196q6 56 63 56h193q62 0 51 -56l-33 -180q-5 -40 -26 -68z" />
    <glyph glyph-name="Ldot" unicode="&#x13f;" horiz-adv-x="1003" 
d="M600 1389l-192 -1090h395q59 0 51 -57l-33 -185q-12 -57 -65 -57h-670q-63 0 -51 57l235 1332q8 57 64 57h215q59 0 51 -57zM651 610l39 207q10 55 64 55h194q58 0 51 -55l-36 -207q-7 -55 -62 -55h-201q-56 0 -49 55z" />
    <glyph glyph-name="ldot" unicode="&#x140;" horiz-adv-x="819" 
d="M575 1393l-235 -1340q-12 -53 -59 -53h-205q-55 0 -47 53l237 1340q8 53 58 53h204q55 0 47 -53zM508 485l39 207q11 56 63 56h195q59 0 51 -56l-37 -207q-7 -55 -61 -55h-201q-56 0 -49 55z" />
    <glyph glyph-name="Lslash" unicode="&#x141;" horiz-adv-x="966" 
d="M606 1389l-82 -467l183 96q44 23 59 -17l20 -55q12 -37 -26 -59l-266 -142l-80 -446h395q59 0 51 -57l-33 -185q-12 -57 -63 -57h-672q-58 0 -51 57l88 496l-20 -10q-44 -23 -62 14l-18 55q-15 39 26 62l105 55l116 660q8 57 66 57h213q59 0 51 -57z" />
    <glyph glyph-name="lslash" unicode="&#x142;" horiz-adv-x="530" 
d="M582 1393l-82 -467l14 6q47 24 59 -14l21 -56q15 -38 -27 -61l-98 -51l-123 -697q-8 -53 -59 -53h-205q-57 0 -45 53l90 514l-14 -8q-46 -21 -62 16l-18 56q-15 38 26 61l99 51l114 650q8 53 60 53h203q59 0 47 -53z" />
    <glyph glyph-name="Nacute" unicode="&#x143;" horiz-adv-x="1253" 
d="M1307 1389l-236 -1332q-7 -57 -63 -57h-197q-55 0 -70 43l-252 782l-135 -768q-12 -57 -63 -57h-205q-63 0 -51 57l235 1332q8 57 64 57h196q55 0 70 -41l252 -784l135 768q7 57 64 57h204q59 0 52 -57zM694 1579l99 166q24 39 63 39h234q16 0 23 -10t4 -24t-15 -24
l-184 -161q-31 -29 -76 -29h-123q-49 0 -25 43z" />
    <glyph glyph-name="nacute" unicode="&#x144;" horiz-adv-x="1083" 
d="M1038 741l-123 -688q-8 -53 -59 -53h-203q-55 0 -47 53l111 635q8 53 8 68q0 98 -98 98q-153 0 -191 -207l-104 -594q-12 -53 -62 -53h-202q-56 0 -48 53l179 1002q10 55 59 55h182q54 0 54 -45l-2 -74q111 139 286 139q271 0 271 -274q0 -44 -11 -115zM547 1255l98 166
q22 37 60 37h233q18 0 25 -9q8 -9 5 -24q-2 -12 -16 -24l-182 -160q-31 -29 -74 -29h-123q-21 0 -29 13q-8 12 3 30z" />
    <glyph glyph-name="Ncommaaccent" unicode="&#x145;" horiz-adv-x="1253" 
d="M1307 1389l-236 -1332q-7 -57 -63 -57h-197q-55 0 -70 43l-252 782l-135 -768q-12 -57 -63 -57h-205q-63 0 -51 57l235 1332q8 57 64 57h196q55 0 70 -41l252 -784l135 768q7 57 64 57h204q59 0 52 -57zM588 -340l-123 -190q-24 -35 -51 -35h-39q-43 0 -21 43l72 176h-51
q-53 0 -45 51l28 158q6 51 58 51h174q58 0 47 -51l-25 -137q-5 -35 -24 -66z" />
    <glyph glyph-name="ncommaaccent" unicode="&#x146;" horiz-adv-x="1083" 
d="M1038 741l-123 -688q-8 -53 -59 -53h-203q-55 0 -47 53l111 635q8 53 8 68q0 98 -98 98q-153 0 -191 -207l-104 -594q-12 -53 -62 -53h-202q-56 0 -48 53l179 1002q10 55 59 55h182q54 0 54 -45l-2 -74q111 139 286 139q271 0 271 -274q0 -44 -11 -115zM522 -328
l-114 -182q-24 -33 -52 -33h-39q-36 0 -18 41l70 168h-52q-48 0 -41 49l27 150q6 49 59 49h162q51 0 45 -49l-22 -129q-7 -34 -25 -64z" />
    <glyph glyph-name="Ncaron" unicode="&#x147;" horiz-adv-x="1253" 
d="M1307 1389l-236 -1332q-7 -57 -63 -57h-197q-55 0 -70 43l-252 782l-135 -768q-12 -57 -63 -57h-205q-63 0 -51 57l235 1332q8 57 64 57h196q55 0 70 -41l252 -784l135 768q7 57 64 57h204q59 0 52 -57zM813 1673l117 92q42 31 69 31h115q26 0 30 -17t-14 -34l-200 -180
q-35 -29 -76 -29h-123q-44 0 -65 29l-138 180q-14 16 -5 34q9 17 34 17h105q38 0 61 -29z" />
    <glyph glyph-name="ncaron" unicode="&#x148;" horiz-adv-x="1083" 
d="M1038 741l-123 -688q-8 -53 -59 -53h-203q-55 0 -47 53l111 635q8 53 8 68q0 98 -98 98q-153 0 -191 -207l-104 -594q-12 -53 -62 -53h-202q-56 0 -48 53l179 1002q10 55 59 55h182q54 0 54 -45l-2 -74q111 139 286 139q271 0 271 -274q0 -44 -11 -115zM688 1350l121 96
q35 29 68 29h114q25 0 30 -18q5 -19 -15 -34l-199 -182q-31 -29 -74 -29h-123q-44 0 -67 29l-137 182q-12 17 -5 34q7 18 33 18h105q39 0 63 -29z" />
    <glyph glyph-name="napostrophe" unicode="&#x149;" horiz-adv-x="1380" 
d="M1335 741l-123 -688q-8 -53 -59 -53h-203q-55 0 -47 53l111 635q8 53 8 68q0 98 -98 98q-154 0 -191 -207l-104 -594q-12 -53 -62 -53h-202q-56 0 -48 53l179 1002q7 55 59 55h182q54 0 54 -45l-3 -74q111 139 287 139q271 0 271 -274q0 -44 -11 -115zM424 1196
l-141 -213q-21 -33 -52 -33h-71q-19 0 -25 15t4 30l109 197h-60q-56 0 -49 55l37 197q6 55 64 55h192q58 0 51 -55l-32 -180q-5 -38 -27 -68z" />
    <glyph glyph-name="Eng" unicode="&#x14a;" horiz-adv-x="1253" 
d="M1307 1389l-228 -1291q-33 -189 -111 -264q-79 -76 -239 -76q-84 0 -166 19q-53 12 -43 61l31 131q8 51 61 45q11 0 28 -4t36 -4q62 0 78 72l-265 747l-135 -768q-12 -57 -63 -57h-205q-63 0 -51 57l235 1332q8 57 64 57h198q58 0 70 -41l252 -776l133 760q7 57 64 57
h204q59 0 52 -57z" />
    <glyph glyph-name="eng" unicode="&#x14b;" horiz-adv-x="1083" 
d="M618 121l101 565q6 38 6 66q0 102 -98 102q-153 0 -191 -207l-104 -594q-12 -53 -62 -53h-202q-56 0 -48 53l179 1002q10 55 59 55h184q52 0 52 -45l-2 -74q111 139 296 139q263 0 263 -262q0 -43 -11 -114l-123 -695q-29 -160 -97 -228q-69 -69 -220 -69q-92 0 -143 17
q-45 7 -37 53l24 150q8 52 56 47q28 -2 47 -2q56 0 71 94z" />
    <glyph glyph-name="Omacron" unicode="&#x14c;" horiz-adv-x="1259" 
d="M786 1468q469 0 469 -475q0 -109 -26 -272q-72 -403 -233 -573q-159 -168 -433 -168q-229 0 -350 112t-121 363q0 105 29 270q72 404 232 573q161 170 433 170zM594 268q116 0 185 101t114 354q27 153 27 246q0 109 -41 159t-125 50q-117 0 -186 -101q-67 -98 -111 -354
q-29 -169 -29 -246q0 -110 41 -160q40 -49 125 -49zM1102 1542h-565q-53 0 -43 49l14 86q7 49 57 49h565q51 0 44 -49l-15 -86q-7 -49 -57 -49z" />
    <glyph glyph-name="omacron" unicode="&#x14d;" horiz-adv-x="1085" 
d="M475 -20q233 0 369 139q138 141 190 434q17 93 17 180q0 200 -107 299q-105 98 -305 98q-232 0 -370 -139q-138 -140 -189 -434q-17 -111 -17 -182q0 -198 107 -297q105 -98 305 -98zM500 233q-123 0 -123 154q0 71 20 168q30 172 81 248q50 74 136 74q123 0 123 -154
q0 -60 -18 -168q-33 -174 -83 -248t-136 -74zM956 1223h-559q-53 0 -43 49l15 84q7 49 55 49h561q50 0 43 -49l-14 -84q-10 -49 -58 -49z" />
    <glyph glyph-name="Obreve" unicode="&#x14e;" horiz-adv-x="1259" 
d="M786 1468q469 0 469 -475q0 -109 -26 -272q-72 -403 -233 -573q-159 -168 -433 -168q-229 0 -350 112t-121 363q0 105 29 270q72 404 232 573q161 170 433 170zM594 268q116 0 185 101t114 354q27 153 27 246q0 109 -41 159t-125 50q-117 0 -186 -101q-67 -98 -111 -354
q-29 -169 -29 -246q0 -110 41 -160q40 -49 125 -49zM827 1528q-151 0 -222 67q-72 67 -54 166q6 41 43 41h96q43 0 43 -37q0 -90 109 -90q108 0 141 90q12 37 49 37h94q43 0 37 -41q-18 -102 -103 -167q-86 -66 -233 -66z" />
    <glyph glyph-name="obreve" unicode="&#x14f;" horiz-adv-x="1085" 
d="M475 -20q-200 0 -305 98q-107 99 -107 297q0 71 17 182q51 294 189 434q138 139 370 139q200 0 305 -98q107 -99 107 -299q0 -87 -17 -180q-52 -293 -190 -434q-136 -139 -369 -139zM500 233q86 0 136 74t83 248q18 108 18 168q0 154 -123 154q-86 0 -136 -74
q-51 -76 -81 -248q-20 -97 -20 -168q0 -154 123 -154zM688 1204q-149 0 -223 68q-73 67 -55 166q6 41 43 41h94q22 0 32 -10q9 -9 7 -27q0 -92 112 -92t142 92q15 37 51 37h94q39 0 33 -41q-18 -102 -100 -168t-230 -66z" />
    <glyph glyph-name="Ohungarumlaut" unicode="&#x150;" horiz-adv-x="1259" 
d="M786 1468q469 0 469 -475q0 -109 -26 -272q-72 -403 -233 -573q-159 -168 -433 -168q-229 0 -350 112t-121 363q0 105 29 270q72 404 232 573q161 170 433 170zM594 268q116 0 185 101t114 354q27 153 27 246q0 109 -41 159t-125 50q-117 0 -186 -101q-67 -98 -111 -354
q-29 -169 -29 -246q0 -110 41 -160q40 -49 125 -49zM539 1583l94 170q18 39 61 39h205q24 0 29 -22q4 -19 -15 -37l-161 -162q-31 -31 -78 -31h-111q-48 0 -24 43zM911 1583l97 170q21 39 61 39h203q26 0 30 -20q4 -21 -14 -39l-162 -162q-29 -31 -77 -31h-111q-49 0 -27 43
z" />
    <glyph glyph-name="ohungarumlaut" unicode="&#x151;" horiz-adv-x="1085" 
d="M475 -20q233 0 369 139q138 141 190 434q17 93 17 180q0 200 -107 299q-105 98 -305 98q-232 0 -370 -139q-138 -140 -189 -434q-17 -111 -17 -182q0 -198 107 -297q105 -98 305 -98zM500 233q-123 0 -123 154q0 71 20 168q30 172 81 248q50 74 136 74q123 0 123 -154
q0 -60 -18 -168q-33 -174 -83 -248t-136 -74zM393 1255l94 166q21 37 60 37h196q25 0 29 -19t-14 -38l-158 -160q-29 -29 -72 -29h-106q-50 0 -29 43zM756 1255l94 166q21 37 59 37h195q26 0 30 -20t-14 -37l-157 -160q-29 -29 -74 -29h-107q-20 0 -28 13t2 30z" />
    <glyph glyph-name="OE" unicode="&#x152;" horiz-adv-x="1646" 
d="M1511 598h-391l-55 -307h420q61 0 49 -58l-31 -176q-12 -57 -63 -57h-801q-259 0 -391 112q-131 111 -131 363q0 109 24 250q69 396 238 559q168 162 479 162h821q58 0 52 -57l-33 -177q-10 -57 -64 -57h-415l-50 -281h387q57 0 50 -57l-31 -164q-10 -55 -64 -55z
M893 1151h-59q-152 0 -233 -90q-80 -89 -124 -338q-22 -116 -22 -207q0 -124 54 -174q53 -49 169 -49h63z" />
    <glyph glyph-name="oe" unicode="&#x153;" horiz-adv-x="1644" 
d="M1192 217q109 0 219 43q62 18 62 -37l2 -123q0 -45 -52 -63q-137 -57 -282 -57q-248 0 -338 141q-135 -141 -340 -141q-191 0 -295 98q-105 99 -105 295q0 91 17 184q51 295 187 434t360 139q220 0 299 -135q129 135 327 135q179 0 272 -94t93 -264q0 -84 -14 -158
l-21 -114q-11 -56 -67 -56h-525q-6 -34 -6 -55q1 -172 207 -172zM494 233q82 0 132 74q51 76 81 248q20 97 20 168q0 154 -121 154q-79 0 -129 -74t-80 -248q-20 -100 -20 -172q0 -150 117 -150zM1225 899q-78 0 -127 -61q-48 -60 -82 -199h307l4 18q12 85 12 109
q0 133 -114 133z" />
    <glyph glyph-name="Racute" unicode="&#x154;" horiz-adv-x="1183" 
d="M483 731h133q120 0 175 48q53 46 75 163q8 70 8 86q0 72 -41 100q-43 29 -143 29h-133zM334 1446h391q245 0 367 -83q120 -81 120 -271q0 -83 -14 -152q-60 -346 -340 -434l172 -434q14 -26 2 -49t-45 -23h-207q-58 0 -73 47l-154 410h-119l-69 -400q-12 -57 -66 -57
h-213q-63 0 -51 57l235 1332q8 57 64 57zM664 1579l98 166q24 39 63 39h234q16 0 23 -10t4 -24t-15 -24l-184 -161q-31 -29 -76 -29h-123q-48 0 -24 43z" />
    <glyph glyph-name="racute" unicode="&#x155;" horiz-adv-x="745" 
d="M260 1110h186q52 0 50 -51l-11 -115q46 72 118 123q76 53 165 53q31 0 40 -12t3 -41l-39 -231q-11 -48 -53 -48q-4 0 -32 4q-21 3 -38 3q-88 0 -148 -66q-61 -67 -79 -174l-90 -502q-8 -53 -60 -53h-202q-59 0 -47 53l176 1002q10 55 61 55zM377 1255l98 166q22 37 60 37
h233q18 0 25 -9q8 -9 5 -24q-2 -12 -16 -24l-182 -160q-31 -29 -74 -29h-123q-21 0 -29 13q-8 12 3 30z" />
    <glyph glyph-name="Rcommaaccent" unicode="&#x156;" horiz-adv-x="1183" 
d="M483 731h133q120 0 175 48q53 46 75 163q8 70 8 86q0 72 -41 100q-43 29 -143 29h-133zM334 1446h391q245 0 367 -83q120 -81 120 -271q0 -83 -14 -152q-60 -346 -340 -434l172 -434q14 -26 2 -49t-45 -23h-207q-58 0 -73 47l-154 410h-119l-69 -400q-12 -57 -66 -57
h-213q-63 0 -51 57l235 1332q8 57 64 57zM580 -340l-123 -190q-24 -35 -51 -35h-39q-43 0 -21 43l72 176h-51q-53 0 -45 51l28 158q6 51 58 51h174q58 0 47 -51l-25 -137q-5 -35 -24 -66z" />
    <glyph glyph-name="rcommaaccent" unicode="&#x157;" horiz-adv-x="745" 
d="M260 1110h186q52 0 50 -51l-11 -115q46 72 118 123q76 53 165 53q31 0 40 -12t3 -41l-39 -231q-11 -48 -53 -48q-4 0 -32 4q-21 3 -38 3q-88 0 -148 -66q-61 -67 -79 -174l-90 -502q-8 -53 -60 -53h-202q-59 0 -47 53l176 1002q10 55 61 55zM229 -328l-114 -182
q-24 -33 -52 -33h-38q-37 0 -19 41l70 168h-51q-48 0 -41 49l26 150q6 49 60 49h161q51 0 45 -49l-22 -129q-7 -34 -25 -64z" />
    <glyph glyph-name="Rcaron" unicode="&#x158;" horiz-adv-x="1183" 
d="M483 731h133q120 0 175 48q53 46 75 163q8 70 8 86q0 72 -41 100q-43 29 -143 29h-133zM334 1446h391q245 0 367 -83q120 -81 120 -271q0 -83 -14 -152q-60 -346 -340 -434l172 -434q14 -26 2 -49t-45 -23h-207q-58 0 -73 47l-154 410h-119l-69 -400q-12 -57 -66 -57
h-213q-63 0 -51 57l235 1332q8 57 64 57zM797 1673l116 92q42 31 70 31h115q25 0 29 -17q4 -18 -13 -34l-201 -180q-35 -29 -75 -29h-123q-45 0 -66 29l-137 180q-14 16 -5 34q9 17 34 17h104q39 0 62 -29z" />
    <glyph glyph-name="rcaron" unicode="&#x159;" horiz-adv-x="745" 
d="M260 1110h186q52 0 50 -51l-11 -115q46 72 118 123q76 53 165 53q31 0 40 -12t3 -41l-39 -231q-11 -48 -53 -48q-4 0 -32 4q-21 3 -38 3q-88 0 -148 -66q-61 -67 -79 -174l-90 -502q-8 -53 -60 -53h-202q-59 0 -47 53l176 1002q10 55 61 55zM539 1350l120 96q35 29 68 29
h115q24 0 29 -18q5 -19 -15 -34l-199 -182q-31 -29 -73 -29h-123q-45 0 -68 29l-137 182q-12 16 -4 34t33 18h104q40 0 64 -29z" />
    <glyph glyph-name="Sacute" unicode="&#x15a;" horiz-adv-x="1030" 
d="M967 467q0 -228 -154 -358q-153 -129 -401 -129q-252 0 -373 59q-28 12 -36 26q-7 12 1 46l62 157q22 60 79 39q107 -43 240 -43q99 0 170 37q72 37 72 123q0 46 -42 87q-40 39 -136 95q-124 69 -199 159q-74 89 -74 224q0 236 139 357q138 120 398 120q210 0 321 -51
q29 -12 36 -25q8 -14 -3 -44l-59 -158q-21 -53 -80 -37q-91 31 -209 31q-203 0 -203 -146q0 -53 42 -95t126 -93q138 -83 211 -168q72 -84 72 -213zM592 1579l98 166q24 39 64 39h233q17 0 24 -10t4 -24q-3 -12 -16 -24l-184 -161q-31 -29 -76 -29h-123q-48 0 -24 43z" />
    <glyph glyph-name="sacute" unicode="&#x15b;" horiz-adv-x="860" 
d="M788 362q0 -197 -123 -289q-125 -93 -341 -93q-190 0 -308 45q-46 15 -30 61l45 137q17 56 69 35q95 -31 201 -31q67 0 125 25q55 24 55 78q0 38 -35 65q-36 28 -116 66q-110 50 -168 110q-60 61 -60 172q0 195 117 291t328 96q189 0 284 -40q46 -15 29 -62l-43 -135
q-18 -52 -67 -37q-84 27 -177 27q-161 0 -161 -99q0 -26 23 -49q25 -25 48 -38q7 -4 19 -10.5t32.5 -17t36.5 -18.5q105 -52 162 -121q55 -67 55 -168zM442 1255l99 166q22 37 59 37h234q16 0 24 -9t5 -24q-3 -13 -15 -24l-182 -160q-31 -29 -74 -29h-123q-22 0 -30 13
q-7 12 3 30z" />
    <glyph glyph-name="Scircumflex" unicode="&#x15c;" horiz-adv-x="1030" 
d="M967 467q0 -228 -154 -358q-153 -129 -401 -129q-252 0 -373 59q-28 12 -36 26q-7 12 1 46l62 157q22 60 79 39q107 -43 240 -43q99 0 170 37q72 37 72 123q0 46 -42 87q-40 39 -136 95q-124 69 -199 159q-74 89 -74 224q0 236 139 357q138 120 398 120q210 0 321 -51
q29 -12 36 -25q8 -14 -3 -44l-59 -158q-21 -53 -80 -37q-91 31 -209 31q-203 0 -203 -146q0 -53 42 -95t126 -93q138 -83 211 -168q72 -84 72 -213zM815 1567l-88 92l-121 -92q-36 -31 -69 -31h-115q-25 0 -29 17t17 34l200 180q35 29 74 29h123q43 0 67 -29l138 -180
q14 -16 5 -34q-9 -17 -34 -17h-106q-34 0 -62 31z" />
    <glyph glyph-name="scircumflex" unicode="&#x15d;" horiz-adv-x="860" 
d="M788 362q0 -197 -123 -289q-125 -93 -341 -93q-190 0 -308 45q-46 15 -30 61l45 137q17 56 69 35q95 -31 201 -31q67 0 125 25q55 24 55 78q0 38 -35 65q-36 28 -116 66q-110 50 -168 110q-60 61 -60 172q0 195 117 291t328 96q189 0 284 -40q46 -15 29 -62l-43 -135
q-18 -52 -67 -37q-84 27 -177 27q-161 0 -161 -99q0 -26 23 -49q25 -25 48 -38q7 -4 19 -10.5t32.5 -17t36.5 -18.5q105 -52 162 -121q55 -67 55 -168zM674 1241l-86 96l-121 -96q-35 -29 -68 -29h-114q-25 0 -29 18q-4 17 14 34l199 182q31 29 74 29h123q46 0 67 -29
l137 -182q12 -16 4 -34t-32 -18h-105q-39 0 -63 29z" />
    <glyph glyph-name="Scedilla" unicode="&#x15e;" horiz-adv-x="1030" 
d="M967 467q0 -205 -127 -331q-128 -126 -336 -150q98 -59 98 -152q0 -92 -66 -138q-65 -46 -167 -46q-85 0 -119 12q-29 11 -23 39l15 76q1 26 32 26h70q90 0 90 74q0 53 -65 103q-224 6 -330 59q-28 12 -36 26q-7 12 1 46l62 157q22 60 79 39q107 -43 240 -43q99 0 170 37
q72 37 72 123q0 46 -42 87q-40 39 -136 95q-124 69 -199 159q-74 89 -74 224q0 236 139 357q138 120 398 120q210 0 321 -51q29 -12 36 -25q8 -14 -3 -44l-59 -158q-21 -53 -80 -37q-91 31 -209 31q-203 0 -203 -146q0 -53 42 -95t126 -93q138 -83 211 -168q72 -84 72 -213z
" />
    <glyph glyph-name="scedilla" unicode="&#x15f;" horiz-adv-x="860" 
d="M788 362q0 -178 -102 -271q-101 -92 -285 -107q97 -62 97 -152q0 -82 -62 -123t-155 -41q-83 0 -119 13q-24 8 -23 34l13 74q6 27 34 27h66q36 0 60 18t24 51q0 54 -57 97q-173 6 -263 43q-46 15 -30 61l45 137q17 56 69 35q95 -31 201 -31q67 0 125 25q55 24 55 78
q0 38 -35 65q-36 28 -116 66q-110 50 -168 110q-60 61 -60 172q0 195 117 291t328 96q189 0 284 -40q46 -15 29 -62l-43 -135q-18 -52 -67 -37q-84 27 -177 27q-161 0 -161 -99q0 -26 23 -49q25 -25 48 -38q7 -4 19 -10.5t32.5 -17t36.5 -18.5q105 -52 162 -121
q55 -67 55 -168z" />
    <glyph glyph-name="Scaron" unicode="&#x160;" horiz-adv-x="1030" 
d="M967 467q0 -228 -154 -358q-153 -129 -401 -129q-252 0 -373 59q-28 12 -36 26q-7 12 1 46l62 157q22 60 79 39q107 -43 240 -43q99 0 170 37q72 37 72 123q0 46 -42 87q-40 39 -136 95q-124 69 -199 159q-74 89 -74 224q0 236 139 357q138 120 398 120q210 0 321 -51
q29 -12 36 -25q8 -14 -3 -44l-59 -158q-21 -53 -80 -37q-91 31 -209 31q-203 0 -203 -146q0 -53 42 -95t126 -93q138 -83 211 -168q72 -84 72 -213zM723 1673l117 92q42 31 69 31h115q26 0 30 -17t-14 -34l-200 -180q-35 -29 -76 -29h-123q-45 0 -66 29l-137 180
q-14 16 -5 34q9 17 34 17h104q39 0 62 -29z" />
    <glyph glyph-name="scaron" unicode="&#x161;" horiz-adv-x="860" 
d="M788 362q0 -197 -123 -289q-125 -93 -341 -93q-190 0 -308 45q-46 15 -30 61l45 137q17 56 69 35q95 -31 201 -31q67 0 125 25q55 24 55 78q0 38 -35 65q-36 28 -116 66q-110 50 -168 110q-60 61 -60 172q0 195 117 291t328 96q189 0 284 -40q46 -15 29 -62l-43 -135
q-18 -52 -67 -37q-84 27 -177 27q-161 0 -161 -99q0 -26 23 -49q25 -25 48 -38q7 -4 19 -10.5t32.5 -17t36.5 -18.5q105 -52 162 -121q55 -67 55 -168zM578 1350l120 96q35 29 68 29h115q25 0 29 -18q5 -19 -15 -34l-199 -182q-31 -29 -73 -29h-123q-45 0 -68 29l-137 182
q-12 16 -4 34q7 18 33 18h104q40 0 64 -29z" />
    <glyph glyph-name="Tcommaaccent" unicode="&#x162;" horiz-adv-x="997" 
d="M172 1206l33 183q7 57 65 57h795q57 0 49 -57l-31 -183q-12 -59 -67 -59h-234l-192 -1090q-8 -57 -64 -57h-215q-63 0 -51 57l193 1090h-230q-61 0 -51 59zM479 -340l-123 -190q-24 -35 -51 -35h-39q-41 0 -20 43l71 176h-51q-52 0 -45 51l29 158q6 51 57 51h174
q57 0 47 -51l-24 -137q-5 -33 -25 -66z" />
    <glyph glyph-name="tcommaaccent" unicode="&#x163;" horiz-adv-x="698" 
d="M659 809h-151l-78 -438q-15 -72 2 -97q16 -24 74 -24q5 0 29 2t28 2q23 2 33 -10t6 -39l-20 -146q-4 -43 -54 -55q-66 -18 -135 -18q-146 0 -216 52q-71 53 -71 177q0 45 13 117l84 477h-70q-55 0 -47 51l27 154q12 53 59 53h80l41 236q7 51 61 51h191q55 0 47 -51
l-41 -236h149q58 0 48 -55l-27 -150q-8 -53 -62 -53zM367 -328l-115 -182q-24 -33 -51 -33h-39q-37 0 -19 41l70 168h-51q-48 0 -41 49l26 150q6 49 60 49h162q51 0 45 -49l-23 -129q-7 -37 -24 -64z" />
    <glyph glyph-name="Tcaron" unicode="&#x164;" horiz-adv-x="997" 
d="M172 1206l33 183q7 57 65 57h795q57 0 49 -57l-31 -183q-12 -59 -67 -59h-234l-192 -1090q-8 -57 -64 -57h-215q-63 0 -51 57l193 1090h-230q-61 0 -51 59zM705 1673l116 92q42 31 70 31h115q25 0 29 -17q4 -18 -13 -34l-201 -180q-35 -29 -76 -29h-122q-45 0 -66 29
l-137 180q-14 16 -5 34q9 17 34 17h104q38 0 61 -29z" />
    <glyph glyph-name="tcaron" unicode="&#x165;" horiz-adv-x="1009" 
d="M659 809h-151l-78 -438q-15 -72 2 -97q16 -24 74 -24q5 0 29 2t28 2q23 2 33 -10t6 -39l-20 -146q-4 -43 -54 -55q-66 -18 -135 -18q-146 0 -216 52q-71 53 -71 177q0 45 13 117l84 477h-70q-55 0 -47 51l27 154q12 53 59 53h80l41 236q7 51 61 51h191q55 0 47 -51
l-41 -236h149q58 0 48 -55l-27 -150q-8 -53 -62 -53zM1120 1186l-141 -213q-21 -33 -51 -33h-72q-19 0 -25 14t5 31l108 197h-59q-56 0 -49 55l36 197q6 55 64 55h192q59 0 52 -55l-33 -181q-4 -37 -27 -67z" />
    <glyph glyph-name="Tbar" unicode="&#x166;" horiz-adv-x="997" 
d="M172 1206l33 183q7 57 65 57h795q57 0 49 -57l-31 -183q-12 -59 -67 -59h-234l-71 -406h135q48 0 41 -45l-15 -82q-7 -43 -51 -43h-141l-90 -514q-8 -57 -64 -57h-215q-63 0 -51 57l90 514h-135q-45 0 -39 43l14 82q8 45 50 45h141l72 406h-230q-61 0 -51 59z" />
    <glyph glyph-name="tbar" unicode="&#x167;" horiz-adv-x="698" 
d="M659 809h-151l-35 -193h135q46 0 39 -43l-12 -73q-7 -45 -51 -45h-140l-14 -84q-15 -72 2 -97q16 -24 74 -24q5 0 29 2t28 2q23 2 33 -10t6 -39l-20 -146q-4 -43 -54 -55q-66 -18 -135 -18q-145 0 -216 51t-71 174q0 47 13 115l20 129h-76q-43 0 -36 45l12 73q6 43 49 43
h80l35 193h-70q-55 0 -47 51l27 154q12 53 59 53h80l41 236q7 51 61 51h191q55 0 47 -51l-41 -236h149q52 0 45 -55l-24 -150q-8 -53 -62 -53z" />
    <glyph glyph-name="Utilde" unicode="&#x168;" horiz-adv-x="1214" 
d="M543 -20q-455 0 -455 364q0 57 12 129l164 916q7 57 64 57h215q59 0 51 -57l-156 -879q-10 -54 -10 -92q0 -142 143 -142q97 0 147 56q51 57 73 176l153 881q8 57 64 57h217q57 0 49 -57l-162 -916q-45 -257 -180 -376q-133 -117 -389 -117zM1163 1696
q-28 -166 -182 -166q-73 0 -154 31l-63 28q-49 19 -80 19q-40 0 -51 -29l-4 -12q-15 -33 -54 -33h-69q-26 0 -34 14q-9 15 -3 54q30 170 184 170q69 0 154 -31l63 -29q111 -51 127 10l7 13q15 32 53 32h67q49 0 39 -71z" />
    <glyph glyph-name="utilde" unicode="&#x169;" horiz-adv-x="1075" 
d="M68 348l127 707q6 55 59 55h203q54 0 47 -55l-113 -635q-6 -38 -6 -68q0 -100 96 -100q147 0 185 201l106 602q10 55 62 55h202q57 0 47 -55l-178 -1002q-8 -53 -59 -53h-182q-54 0 -54 45l2 74q-94 -139 -270 -139q-285 0 -285 264q0 40 11 104zM1028 1372
q-29 -164 -174 -164q-86 0 -154 31l-63 27q-47 18 -74 18q-39 0 -51 -29l-4 -12q-16 -31 -51 -31h-68q-27 0 -37 15q-9 14 -2 51q28 168 178 168q71 0 150 -31l65 -29q43 -18 74 -18q38 0 49 31l4 12q16 31 52 31h69q48 0 37 -70z" />
    <glyph glyph-name="Umacron" unicode="&#x16a;" horiz-adv-x="1214" 
d="M543 -20q-455 0 -455 364q0 57 12 129l164 916q7 57 64 57h215q59 0 51 -57l-156 -879q-10 -54 -10 -92q0 -142 143 -142q97 0 147 56q51 57 73 176l153 881q8 57 64 57h217q57 0 49 -57l-162 -916q-45 -257 -180 -376q-133 -117 -389 -117zM1081 1542h-565q-53 0 -43 49
l14 86q7 49 58 49h565q50 0 43 -49l-14 -86q-7 -49 -58 -49z" />
    <glyph glyph-name="umacron" unicode="&#x16b;" horiz-adv-x="1075" 
d="M68 348l127 707q6 55 59 55h203q54 0 47 -55l-113 -635q-6 -38 -6 -68q0 -100 96 -100q147 0 185 201l106 602q10 55 62 55h202q57 0 47 -55l-178 -1002q-8 -53 -59 -53h-182q-54 0 -54 45l2 74q-94 -139 -270 -139q-285 0 -285 264q0 40 11 104zM952 1223h-559
q-53 0 -43 49l15 84q7 49 55 49h561q50 0 43 -49l-14 -84q-10 -49 -58 -49z" />
    <glyph glyph-name="Ubreve" unicode="&#x16c;" horiz-adv-x="1214" 
d="M543 -20q-455 0 -455 364q0 57 12 129l164 916q7 57 64 57h215q59 0 51 -57l-156 -879q-10 -54 -10 -92q0 -142 143 -142q97 0 147 56q51 57 73 176l153 881q8 57 64 57h217q57 0 49 -57l-162 -916q-45 -257 -180 -376q-133 -117 -389 -117zM807 1528q-151 0 -222 67
q-73 68 -55 166q6 41 43 41h97q43 0 43 -37q0 -90 108 -90q109 0 142 90q12 37 49 37h94q43 0 37 -41q-18 -101 -104 -167q-85 -66 -232 -66z" />
    <glyph glyph-name="ubreve" unicode="&#x16d;" horiz-adv-x="1075" 
d="M68 348l127 707q6 55 59 55h203q54 0 47 -55l-113 -635q-6 -38 -6 -68q0 -100 96 -100q147 0 185 201l106 602q10 55 62 55h202q57 0 47 -55l-178 -1002q-8 -53 -59 -53h-182q-54 0 -54 45l2 74q-94 -139 -270 -139q-285 0 -285 264q0 40 11 104zM684 1204
q-149 0 -223 68q-73 67 -55 166q6 41 43 41h94q21 0 31 -10q9 -9 8 -27q0 -92 112 -92t142 92q15 37 51 37h94q39 0 33 -41q-18 -102 -101 -168q-82 -66 -229 -66z" />
    <glyph glyph-name="Uring" unicode="&#x16e;" horiz-adv-x="1214" 
d="M543 -20q-455 0 -455 364q0 57 12 129l164 916q7 57 64 57h215q59 0 51 -57l-156 -879q-10 -54 -10 -92q0 -142 143 -142q97 0 147 56q51 57 73 176l153 881q8 57 64 57h217q57 0 49 -57l-162 -916q-45 -257 -180 -376q-133 -117 -389 -117zM840 1802q-47 0 -76 -28
q-31 -29 -31 -76q0 -32 23 -53q22 -21 59 -21q45 0 76 29t31 76q0 32 -23 53q-21 20 -59 20zM598 1681q0 105 72 172q73 68 180 68q90 0 148 -49q59 -50 59 -127q0 -102 -72 -171t-182 -69q-90 0 -148 50q-57 49 -57 126z" />
    <glyph glyph-name="uring" unicode="&#x16f;" horiz-adv-x="1075" 
d="M68 348l127 707q6 55 59 55h203q54 0 47 -55l-113 -635q-6 -38 -6 -68q0 -100 96 -100q147 0 185 201l106 602q10 55 62 55h202q57 0 47 -55l-178 -1002q-8 -53 -59 -53h-182q-54 0 -54 45l2 74q-94 -139 -270 -139q-285 0 -285 264q0 40 11 104zM692 1315q44 0 76 28
q33 29 33 74q0 35 -24 56q-23 20 -62 20q-44 0 -77 -28q-32 -27 -32 -74q0 -33 25 -55q24 -21 61 -21zM727 1614q91 0 149 -51t58 -129q0 -105 -72 -171q-73 -67 -184 -67q-90 0 -148 50q-57 50 -57 128q0 104 71 172t183 68z" />
    <glyph glyph-name="Uhungarumlaut" unicode="&#x170;" horiz-adv-x="1214" 
d="M543 -20q-455 0 -455 364q0 57 12 129l164 916q7 57 64 57h215q59 0 51 -57l-156 -879q-10 -54 -10 -92q0 -142 143 -142q97 0 147 56q51 57 73 176l153 881q8 57 64 57h217q57 0 49 -57l-162 -916q-45 -257 -180 -376q-133 -117 -389 -117zM504 1583l94 170q21 39 61 39
h205q24 0 29 -22q4 -20 -14 -37l-162 -162q-31 -31 -78 -31h-111q-48 0 -24 43zM877 1583l96 170q18 39 61 39h203q26 0 30 -20q4 -21 -14 -39l-161 -162q-29 -31 -78 -31h-111q-47 0 -26 43z" />
    <glyph glyph-name="uhungarumlaut" unicode="&#x171;" horiz-adv-x="1075" 
d="M68 348l127 707q6 55 59 55h203q54 0 47 -55l-113 -635q-6 -38 -6 -68q0 -100 96 -100q147 0 185 201l106 602q10 55 62 55h202q57 0 47 -55l-178 -1002q-8 -53 -59 -53h-182q-54 0 -54 45l2 74q-94 -139 -270 -139q-285 0 -285 264q0 40 11 104zM381 1255l94 166
q21 37 60 37h196q25 0 29 -19t-15 -38l-157 -160q-29 -29 -72 -29h-106q-50 0 -29 43zM743 1255l95 166q21 37 59 37h195q25 0 29 -20q4 -21 -13 -37l-158 -160q-29 -29 -73 -29h-107q-21 0 -29 13t2 30z" />
    <glyph glyph-name="Uogonek" unicode="&#x172;" horiz-adv-x="1214" 
d="M1112 473q-40 -225 -149 -345q-107 -118 -306 -142q-96 -68 -96 -131q0 -43 64 -43q20 0 39 4t26 4q23 0 23 -21l4 -75q0 -26 -31 -41q-64 -31 -133 -31q-90 0 -142 34q-53 35 -53 99q0 119 146 197q-416 12 -416 362q0 57 12 129l164 916q7 57 64 57h215q59 0 51 -57
l-156 -879q-10 -54 -10 -92q0 -142 143 -142q97 0 147 56q51 57 73 176l153 881q8 57 64 57h217q57 0 49 -57z" />
    <glyph glyph-name="uogonek" unicode="&#x173;" horiz-adv-x="1075" 
d="M68 348l127 707q6 55 59 55h203q54 0 47 -55l-113 -635q-6 -38 -6 -68q0 -100 96 -100q147 0 185 201l106 602q10 55 62 55h202q57 0 47 -55l-178 -1002q-8 -53 -59 -53h-19q-114 -69 -114 -137q0 -41 61 -41q19 0 35 4t25 4q22 0 22 -23l2 -71q0 -29 -27 -41
q-58 -29 -129 -29q-79 0 -132 32q-52 31 -52 91q0 127 178 211h-32q-54 0 -54 45l2 74q-94 -139 -270 -139q-285 0 -285 264q0 40 11 104z" />
    <glyph glyph-name="Wcircumflex" unicode="&#x174;" horiz-adv-x="1851" 
d="M989 1446h201q58 0 63 -53l9 -654l2 -331h6l114 329l240 654q18 55 70 55h233q30 0 41 -18q10 -17 -2 -48l-526 -1319q-27 -61 -82 -61h-262q-65 0 -66 61l-24 523l-2 317h-7l-114 -317l-205 -523q-22 -61 -82 -61h-262q-65 0 -66 61l-63 1319q0 66 55 66h225
q56 0 60 -55l10 -654l-2 -329h6l115 331l241 654q21 53 74 53zM1223 1567l-88 92l-121 -92q-36 -31 -70 -31h-115q-24 0 -28 17q-4 18 16 34l201 180q35 29 74 29h122q44 0 68 -29l137 -180q14 -16 5 -34q-8 -17 -33 -17h-107q-33 0 -61 31z" />
    <glyph glyph-name="wcircumflex" unicode="&#x175;" horiz-adv-x="1542" 
d="M795 1110h161q48 0 52 -49l22 -490v-223h4l74 223l178 486q18 53 70 53h219q58 0 31 -61l-412 -994q-22 -55 -74 -55h-213q-57 0 -63 55l-25 389l-4 256h-6l-96 -256l-162 -389q-22 -55 -76 -55h-213q-55 0 -61 55l-62 994q-4 61 49 61h207q56 0 56 -53l8 -486l-6 -223h6
l80 223l192 490q21 49 64 49zM1010 1241l-86 96l-121 -96q-35 -29 -68 -29h-114q-25 0 -29 18q-4 17 14 34l199 182q31 29 74 29h122q47 0 68 -29l137 -182q12 -16 4 -34t-32 -18h-105q-39 0 -63 29z" />
    <glyph glyph-name="Ycircumflex" unicode="&#x176;" horiz-adv-x="1185" 
d="M770 539l-84 -482q-12 -57 -65 -57h-215q-60 0 -52 57l86 482l-241 837q-8 25 5 47q14 23 46 23h223q57 0 68 -53l82 -377l24 -197h6l97 197l215 377q29 53 79 53h230q34 0 41 -24q8 -25 -8 -46zM895 1567l-88 92l-121 -92q-36 -31 -70 -31h-114q-25 0 -29 17
q-4 18 16 34l201 180q35 29 74 29h123q43 0 67 -29l138 -180q14 -16 5 -34q-9 -17 -34 -17h-107q-33 0 -61 31z" />
    <glyph glyph-name="ycircumflex" unicode="&#x177;" horiz-adv-x="995" 
d="M1069 1049l-420 -965q-78 -185 -164 -254q-87 -70 -272 -70q-137 0 -203 21q-44 16 -37 53l33 143q11 48 60 48q7 0 25 -3q25 -4 35 -5q12 -1 38 -1q118 0 100 117l-129 916q-10 61 47 61h209q55 0 55 -53l33 -490l6 -239h9l79 239l177 490q18 53 67 53h217q29 0 38 -16
t-3 -45zM741 1241l-86 96l-120 -96q-35 -29 -68 -29h-115q-24 0 -28 18q-4 17 14 34l199 182q31 29 73 29h123q47 0 68 -29l137 -182q12 -16 4 -34t-33 -18h-104q-40 0 -64 29z" />
    <glyph glyph-name="Ydieresis" unicode="&#x178;" horiz-adv-x="1185" 
d="M770 539l-84 -482q-12 -57 -65 -57h-215q-60 0 -52 57l86 482l-241 837q-8 25 5 47q14 23 46 23h223q57 0 68 -53l82 -377l24 -197h6l97 197l215 377q29 53 79 53h230q34 0 41 -24q8 -25 -8 -46zM752 1706l-23 -119q-7 -51 -59 -51h-172q-50 0 -43 51l20 119q7 51 57 51
h173q54 0 47 -51zM1149 1706l-23 -119q-8 -51 -59 -51h-172q-53 0 -45 51l22 119q7 51 58 51h172q54 0 47 -51z" />
    <glyph glyph-name="Zacute" unicode="&#x179;" horiz-adv-x="1081" 
d="M6 57l31 174q8 42 45 91l645 825h-448q-60 0 -50 59l33 183q8 57 64 57h770q58 0 51 -57l-31 -175q-7 -43 -45 -88l-643 -829h481q61 0 49 -55l-32 -185q-8 -57 -64 -57h-807q-61 0 -49 57zM623 1579l98 166q24 39 63 39h234q16 0 23 -10q8 -11 5 -24q-3 -12 -16 -24
l-184 -161q-31 -29 -76 -29h-123q-48 0 -24 43z" />
    <glyph glyph-name="zacute" unicode="&#x17a;" horiz-adv-x="927" 
d="M952 1055l-20 -119q-7 -39 -39 -74l-494 -596h367q55 0 47 -53l-29 -160q-8 -53 -59 -53h-682q-59 0 -47 53l20 119q8 40 35 70l500 602h-346q-55 0 -47 51l28 160q10 55 62 55h657q57 0 47 -55zM479 1255l99 166q22 37 59 37h233q18 0 25 -9q8 -9 5 -24q-3 -13 -15 -24
l-183 -160q-31 -29 -73 -29h-123q-22 0 -30 13q-8 12 3 30z" />
    <glyph glyph-name="Zdotaccent" unicode="&#x17b;" horiz-adv-x="1081" 
d="M6 57l31 174q8 42 45 91l645 825h-448q-60 0 -50 59l33 183q8 57 64 57h770q58 0 51 -57l-31 -175q-7 -43 -45 -88l-643 -829h481q61 0 49 -55l-32 -185q-8 -57 -64 -57h-807q-61 0 -49 57zM922 1716l-23 -129q-8 -53 -61 -53h-203q-55 0 -47 53l24 129q8 53 60 53h202
q56 0 48 -53z" />
    <glyph glyph-name="zdotaccent" unicode="&#x17c;" horiz-adv-x="927" 
d="M952 1055l-20 -119q-7 -39 -39 -74l-494 -596h367q55 0 47 -53l-29 -160q-8 -53 -59 -53h-682q-59 0 -47 53l20 119q8 40 35 70l500 602h-346q-55 0 -47 51l28 160q10 55 62 55h657q57 0 47 -55zM782 1389l-22 -127q-8 -52 -62 -52h-202q-55 0 -47 52l22 127q12 55 61 55
h203q54 0 47 -55z" />
    <glyph glyph-name="Zcaron" unicode="&#x17d;" horiz-adv-x="1081" 
d="M6 57l31 174q8 42 45 91l645 825h-448q-60 0 -50 59l33 183q8 57 64 57h770q58 0 51 -57l-31 -175q-7 -43 -45 -88l-643 -829h481q61 0 49 -55l-32 -185q-8 -57 -64 -57h-807q-61 0 -49 57zM752 1673l116 92q42 31 70 31h115q25 0 29 -17q4 -18 -13 -34l-201 -180
q-35 -29 -75 -29h-123q-45 0 -66 29l-137 180q-14 16 -5 34q8 17 34 17h104q39 0 62 -29z" />
    <glyph glyph-name="zcaron" unicode="&#x17e;" horiz-adv-x="927" 
d="M952 1055l-20 -119q-7 -39 -39 -74l-494 -596h367q55 0 47 -53l-29 -160q-8 -53 -59 -53h-682q-59 0 -47 53l20 119q8 40 35 70l500 602h-346q-55 0 -47 51l28 160q10 55 62 55h657q57 0 47 -55zM614 1350l121 96q35 29 68 29h115q24 0 29 -18q5 -19 -15 -34l-199 -182
q-31 -29 -74 -29h-122q-45 0 -68 29l-137 182q-12 16 -4 34t32 18h105q39 0 63 -29z" />
    <glyph glyph-name="longs" unicode="&#x17f;" horiz-adv-x="636" 
d="M563 1112l-186 -1061q-12 -51 -60 -51h-192q-59 0 -47 51l133 758h-70q-53 0 -45 51l27 154q8 53 57 53h76l14 78q30 174 110 245q79 70 243 70q96 0 147 -16q43 -12 35 -53l-23 -125q-6 -58 -57 -54q-37 5 -55 5q-51 0 -74 -23t-33 -82z" />
    <glyph glyph-name="florin" unicode="&#x192;" horiz-adv-x="1177" 
d="M905 1106l-88 -293h193q44 0 32 -43l-20 -74q-15 -41 -53 -41h-199l-176 -573q-52 -177 -137 -250q-84 -72 -248 -72q-97 0 -148 17q-40 12 -28 53l45 152q15 51 63 47q1 0 23 -2t24 -2q81 0 111 106l160 524h-144q-46 0 -34 43l22 72q12 43 53 43h150l100 330
q52 174 146 248q90 71 256 71q120 0 168 -16q42 -16 30 -55l-39 -123q-19 -54 -65 -54q-16 2 -30.5 3.5t-21.5 2.5l-6 1q-58 0 -89 -27q-32 -28 -50 -88z" />
    <glyph glyph-name="Aringacute" unicode="&#x1fa;" horiz-adv-x="1220" 
d="M569 1505q0 80 44 141t118 85l74 124q24 39 63 39h234q16 0 23 -10t4 -23t-15 -24l-153 -135q67 -51 67 -133q0 -81 -45 -142q8 -11 12 -38l119 -1323q6 -66 -55 -66h-219q-58 0 -58 53l-18 228h-365l-96 -228q-24 -53 -72 -53h-229q-28 0 -40 18t1 48l586 1323
q15 33 35 47q-15 28 -15 69zM498 563h266l-31 557h-6zM811 1626q-45 0 -76 -29q-30 -29 -30 -75q0 -33 22 -54q21 -20 59 -20q45 0 76 29t31 75q0 33 -23 54q-21 20 -59 20z" />
    <glyph glyph-name="aringacute" unicode="&#x1fb;" horiz-adv-x="1024" 
d="M981 758l-125 -705q-8 -53 -57 -53h-166q-49 0 -53 45l4 72q-111 -131 -287 -131q-130 0 -205 68q-76 69 -76 192q0 106 36 184q36 79 93 125q58 47 147 76q88 28 176 39q74 9 202 14l10 59q15 70 -20 102t-123 32q-105 0 -261 -48q-59 -16 -59 37l2 140q0 47 49 63
q153 59 338 59q383 0 383 -276q0 -48 -8 -94zM449 1374q0 78 40 137q39 58 113 86l78 129q22 37 59 37h234q17 0 24 -9q8 -9 5 -23t-15 -25l-151 -133q73 -52 73 -139q0 -106 -71 -171q-73 -67 -185 -67q-89 0 -147 50q-57 50 -57 128zM618 397l21 109q-155 -6 -238 -54
q-82 -48 -82 -157q0 -92 99 -92q86 0 136 53q49 52 64 141zM668 1315q41 0 75 29q33 28 33 73q0 36 -23 56t-63 20q-44 0 -77 -28q-31 -27 -31 -74q0 -34 24 -55t62 -21z" />
    <glyph glyph-name="AEacute" unicode="&#x1fc;" horiz-adv-x="1593" 
d="M1458 598h-385l-55 -307h412q59 0 51 -58l-33 -176q-8 -57 -64 -57h-679q-64 0 -52 57l39 224h-297l-108 -228q-29 -53 -74 -53h-229q-28 0 -40 18q-12 19 3 48l657 1323q24 57 84 57h936q56 0 49 -57l-31 -177q-10 -57 -63 -57h-408l-51 -281h381q57 0 49 -57l-28 -164
q-10 -55 -64 -55zM512 561h229l107 596h-53zM881 1579l98 166q24 39 63 39h234q16 0 23 -10q8 -11 5 -24q-3 -12 -16 -24l-184 -161q-31 -29 -76 -29h-123q-48 0 -24 43z" />
    <glyph glyph-name="aeacute" unicode="&#x1fd;" horiz-adv-x="1587" 
d="M1135 217q101 0 221 43q28 10 45 0q16 -10 14 -37l2 -123q0 -42 -53 -65q-129 -55 -281 -55q-289 0 -356 178q-147 -172 -381 -172q-158 0 -244 69t-86 193q0 78 21 139q21 63 52 102q34 43 84 72q55 31 102 47q46 15 124 28q65 11 130 14q72 4 137 5l16 95q10 61 -24 94
q-35 33 -119 33q-109 0 -265 -48q-59 -16 -59 37v140q0 47 49 63q165 59 336 59q234 0 289 -124q116 126 309 126q176 0 271 -90q96 -91 96 -256q0 -77 -17 -159l-20 -117q-10 -57 -70 -57h-524q-6 -33 -6 -62q0 -172 207 -172zM1165 899q-78 0 -126 -57q-47 -56 -81 -195
h310l4 21q10 63 10 104q0 127 -117 127zM621 403l14 72q-64 -2 -104 -6q-48 -5 -85 -14q-45 -11 -69 -30q-25 -21 -41 -52q-17 -34 -17 -80q0 -88 105 -88q84 0 133 54q49 53 64 144zM786 1255l99 166q22 37 59 37h234q16 0 24 -9t5 -24q-3 -13 -15 -24l-182 -160
q-31 -29 -74 -29h-123q-22 0 -30 13q-7 12 3 30z" />
    <glyph glyph-name="Oslashacute" unicode="&#x1fe;" horiz-adv-x="1269" 
d="M788 1468q228 0 342 -108l64 72q37 40 74 12l53 -43q40 -31 0 -72l-98 -112q34 -93 34 -224q0 -113 -28 -272q-69 -401 -230 -573q-158 -168 -434 -168q-231 0 -342 104l-63 -72q-38 -39 -72 -12l-55 45q-37 27 2 70l96 108q-37 95 -37 232q0 105 29 270q69 403 230 573
t435 170zM457 723q-19 -120 -23 -166l469 533q-34 88 -147 88q-117 0 -186 -101q-68 -99 -113 -354zM596 268q116 0 185 101t114 354q19 150 20 160l-464 -533q34 -82 145 -82zM719 1579l98 166q24 39 64 39h233q17 0 24 -10t4 -24q-3 -12 -16 -24l-184 -161
q-31 -29 -76 -29h-123q-48 0 -24 43z" />
    <glyph glyph-name="oslashacute" unicode="&#x1ff;" horiz-adv-x="1093" 
d="M479 -20q-188 0 -289 83l-53 -55q-39 -38 -67 -10l-39 37q-33 33 4 65l69 74q-36 79 -36 201q0 80 18 182q51 294 189 434q138 139 370 139q181 0 287 -86l53 58q37 37 68 8l39 -35q28 -28 -5 -65l-71 -76q39 -88 39 -201q0 -87 -17 -180q-51 -294 -189 -434
q-138 -139 -370 -139zM559 1255l98 166q22 37 60 37h233q18 0 25 -9q8 -9 5 -24q-3 -13 -15 -24l-183 -160q-31 -29 -73 -29h-123q-22 0 -30 13q-8 12 3 30zM506 233q84 0 135 74q52 75 82 248l14 98l-338 -362q27 -58 107 -58zM401 555l-16 -98l338 360q-27 60 -105 60
q-86 0 -136 -74q-51 -76 -81 -248z" />
    <glyph glyph-name="Scommaaccent" unicode="&#x218;" horiz-adv-x="1030" 
d="M967 467q0 -228 -154 -358q-153 -129 -401 -129q-252 0 -373 59q-28 12 -36 26q-7 12 1 46l62 157q22 60 79 39q107 -43 240 -43q99 0 170 37q72 37 72 123q0 46 -42 87q-40 39 -136 95q-124 69 -199 159q-74 89 -74 224q0 236 139 357q138 120 398 120q210 0 321 -51
q29 -12 36 -25q8 -14 -3 -44l-59 -158q-21 -53 -80 -37q-91 31 -209 31q-203 0 -203 -146q0 -53 42 -95t126 -93q138 -83 211 -168q72 -84 72 -213zM498 -340l-123 -190q-24 -35 -51 -35h-39q-43 0 -21 43l72 176h-51q-53 0 -45 51l28 158q6 51 58 51h174q58 0 47 -51
l-25 -137q-5 -35 -24 -66z" />
    <glyph glyph-name="scommaaccent" unicode="&#x219;" horiz-adv-x="860" 
d="M788 362q0 -197 -123 -289q-125 -93 -341 -93q-190 0 -308 45q-46 15 -30 61l45 137q17 56 69 35q95 -31 201 -31q67 0 125 25q55 24 55 78q0 38 -35 65q-36 28 -116 66q-110 50 -168 110q-60 61 -60 172q0 195 117 291t328 96q189 0 284 -40q46 -15 29 -62l-43 -135
q-18 -52 -67 -37q-84 27 -177 27q-161 0 -161 -99q0 -26 23 -49q25 -25 48 -38q7 -4 19 -10.5t32.5 -17t36.5 -18.5q105 -52 162 -121q55 -67 55 -168zM408 -328l-115 -182q-24 -33 -51 -33h-39q-37 0 -19 41l70 168h-51q-48 0 -41 49l26 150q6 49 60 49h162q51 0 45 -49
l-23 -129q-7 -37 -24 -64z" />
    <glyph glyph-name="uni021A" unicode="&#x21a;" horiz-adv-x="997" 
d="M172 1206l33 183q7 57 65 57h795q57 0 49 -57l-31 -183q-12 -59 -67 -59h-234l-192 -1090q-8 -57 -64 -57h-215q-63 0 -51 57l193 1090h-230q-61 0 -51 59zM479 -340l-123 -190q-24 -35 -51 -35h-39q-41 0 -20 43l71 176h-51q-52 0 -45 51l29 158q6 51 57 51h174
q57 0 47 -51l-24 -137q-5 -33 -25 -66z" />
    <glyph glyph-name="uni021B" unicode="&#x21b;" horiz-adv-x="698" 
d="M659 809h-151l-78 -438q-15 -72 2 -97q16 -24 74 -24q5 0 29 2t28 2q23 2 33 -10t6 -39l-20 -146q-4 -43 -54 -55q-66 -18 -135 -18q-146 0 -216 52q-71 53 -71 177q0 45 13 117l84 477h-70q-55 0 -47 51l27 154q12 53 59 53h80l41 236q7 51 61 51h191q55 0 47 -51
l-41 -236h149q58 0 48 -55l-27 -150q-8 -53 -62 -53zM367 -328l-115 -182q-24 -33 -51 -33h-39q-37 0 -19 41l70 168h-51q-48 0 -41 49l26 150q6 49 60 49h162q51 0 45 -49l-23 -129q-7 -37 -24 -64z" />
    <glyph glyph-name="dotlessj" unicode="&#x237;" horiz-adv-x="555" 
d="M82 125l164 930q7 55 61 55h203q54 0 47 -55l-174 -977q-30 -178 -102 -247t-232 -69q-101 0 -145 15q-45 12 -37 53l27 152q8 47 55 47q12 0 24 -1t25 -1q36 0 56 21q21 22 28 77z" />
    <glyph glyph-name="circumflex" unicode="&#x2c6;" horiz-adv-x="651" 
d="M569 1241l-86 96l-121 -96q-35 -29 -67 -29h-115q-24 0 -28 18q-4 17 14 34l199 182q31 29 73 29h123q47 0 68 -29l137 -182q12 -16 4 -34t-33 -18h-104q-40 0 -64 29z" />
    <glyph glyph-name="caron" unicode="&#x2c7;" horiz-adv-x="651" 
d="M475 1350l121 96q35 29 68 29h114q26 0 30 -18q5 -19 -15 -34l-199 -182q-31 -29 -74 -29h-123q-44 0 -67 29l-137 182q-12 17 -5 34q8 18 33 18h105q39 0 63 -29z" />
    <glyph glyph-name="uni02C9" unicode="&#x2c9;" horiz-adv-x="651" 
d="M739 1223h-559q-53 0 -43 49l15 84q7 49 55 49h561q50 0 43 -49l-14 -84q-10 -49 -58 -49z" />
    <glyph glyph-name="breve" unicode="&#x2d8;" horiz-adv-x="651" 
d="M471 1204q-149 0 -223 68q-73 67 -55 166q6 41 43 41h94q21 0 31 -10q9 -9 8 -27q0 -92 112 -92t142 92q15 37 51 37h94q39 0 33 -41q-18 -102 -101 -168q-82 -66 -229 -66z" />
    <glyph glyph-name="dotaccent" unicode="&#x2d9;" horiz-adv-x="651" 
d="M643 1389l-22 -127q-8 -52 -62 -52h-203q-55 0 -47 52l23 127q12 55 61 55h203q54 0 47 -55z" />
    <glyph glyph-name="ring" unicode="&#x2da;" horiz-adv-x="651" 
d="M479 1315q44 0 76 28q33 29 33 74q0 35 -24 56q-23 20 -62 20q-44 0 -77 -28q-32 -27 -32 -74q0 -33 25 -55q24 -21 61 -21zM514 1614q90 0 149 -51q58 -51 58 -129q0 -105 -72 -171q-73 -67 -184 -67q-90 0 -148 50q-57 50 -57 128q0 104 71 172t183 68z" />
    <glyph glyph-name="ogonek" unicode="&#x2db;" horiz-adv-x="651" 
d="M248 27l110 -2q-159 -79 -159 -162q0 -41 61 -41q19 0 35 4t24 4q23 0 23 -23l2 -71q0 -29 -27 -41q-58 -29 -129 -29q-79 0 -132 32q-52 31 -52 91q0 148 244 238z" />
    <glyph glyph-name="tilde" unicode="&#x2dc;" horiz-adv-x="651" 
d="M815 1372q-29 -164 -174 -164q-86 0 -154 31l-63 27q-47 18 -74 18q-39 0 -51 -29l-4 -12q-15 -31 -51 -31h-68q-26 0 -37 15q-9 14 -2 51q29 168 178 168q71 0 150 -31l65 -29q44 -18 74 -18q41 0 49 31l4 12q15 31 52 31h69q48 0 37 -70z" />
    <glyph glyph-name="hungarumlaut" unicode="&#x2dd;" horiz-adv-x="651" 
d="M186 1255l95 166q21 37 59 37h197q24 0 28 -19q5 -19 -14 -38l-158 -160q-29 -29 -71 -29h-107q-23 0 -31 13t2 30zM549 1255l94 166q21 37 59 37h195q26 0 30 -20t-14 -37l-157 -160q-29 -29 -74 -29h-107q-47 0 -26 43z" />
    <glyph glyph-name="uni037E" unicode="&#x37e;" horiz-adv-x="479" 
d="M78 442l39 207q11 56 63 56h195q59 0 51 -56l-37 -207q-7 -55 -61 -55h-201q-56 0 -49 55z" />
    <glyph glyph-name="uni0394" unicode="&#x394;" horiz-adv-x="1249" 
d="M633 1448h319q57 0 58 -55l92 -1327q6 -66 -58 -66h-999q-68 0 -41 66l555 1327q22 55 74 55zM743 1167l-342 -895h375l-24 895h-9z" />
    <glyph glyph-name="uni03A9" unicode="&#x3a9;" horiz-adv-x="1427" 
d="M862 1468q264 0 407 -130q144 -130 144 -351q0 -214 -104 -397q-106 -186 -293 -287l-12 -63l186 24q30 5 44 -9q13 -13 9 -40l-29 -162q-11 -53 -61 -53h-448l47 281q6 31 39 53q130 85 210 254t80 342q0 120 -63 186t-180 66q-122 0 -210 -87t-129 -210
q-40 -121 -40 -254q0 -192 129 -297q26 -20 20 -53l-45 -281h-448q-29 0 -42 14q-14 16 -10 39l29 162q15 57 72 49l178 -24l10 61q-89 55 -148 162t-59 250q0 321 198 538t519 217z" />
    <glyph glyph-name="uni03BC" unicode="&#x3bc;" horiz-adv-x="1077" 
d="M1090 1055l-129 -721q-30 -181 -114 -269q-82 -85 -243 -85q-102 0 -170 40t-96 97l-47 -291q-7 -51 -62 -51h-200q-55 0 -47 53l217 1227q10 55 61 55h203q57 0 47 -55l-107 -598q-6 -37 -6 -66q0 -139 123 -139q69 0 100 40t46 124l112 639q7 55 62 55h202q55 0 48 -55
z" />
    <glyph glyph-name="pi" unicode="&#x3c0;" horiz-adv-x="1331" 
d="M1120 840l-88 -496q-12 -68 4 -89q17 -22 74 -22q18 0 32 1q28 2 29 2q26 1 37 -11q10 -12 6 -39l-24 -131q-5 -41 -55 -53q-54 -16 -144 -16q-140 0 -206 54t-66 171q0 44 8 94l94 535h-188l-271 -789q-18 -51 -65 -51h-197q-63 0 -45 51l277 789h-146q-54 0 -47 55
l31 160q10 55 61 55h1088q57 0 47 -55l-29 -160q-10 -55 -63 -55h-154z" />
    <glyph glyph-name="Wgrave" unicode="&#x1e80;" horiz-adv-x="1851" 
d="M989 1446h201q58 0 63 -53l9 -654l2 -331h6l114 329l240 654q18 55 70 55h233q30 0 41 -18q10 -17 -2 -48l-526 -1319q-27 -61 -82 -61h-262q-65 0 -66 61l-24 523l-2 317h-7l-114 -317l-205 -523q-22 -61 -82 -61h-262q-65 0 -66 61l-63 1319q0 66 55 66h225
q56 0 60 -55l10 -654l-2 -329h6l115 331l241 654q21 53 74 53zM1157 1745l43 -166q7 -43 -37 -43h-123q-40 0 -67 29l-129 161q-14 14 -5 36t33 22h232q42 0 53 -39z" />
    <glyph glyph-name="wgrave" unicode="&#x1e81;" horiz-adv-x="1542" 
d="M795 1110h161q48 0 52 -49l22 -490v-223h4l74 223l178 486q18 53 70 53h219q58 0 31 -61l-412 -994q-22 -55 -74 -55h-213q-57 0 -63 55l-25 389l-4 256h-6l-96 -256l-162 -389q-22 -55 -76 -55h-213q-55 0 -61 55l-62 994q-4 61 49 61h207q56 0 56 -53l8 -486l-6 -223h6
l80 223l192 490q21 49 64 49zM958 1421l46 -166q10 -43 -37 -43h-113q-45 0 -68 29l-135 160q-14 15 -6 37q7 20 33 20h227q43 0 53 -37z" />
    <glyph glyph-name="Wacute" unicode="&#x1e82;" horiz-adv-x="1851" 
d="M989 1446h201q58 0 63 -53l9 -654l2 -331h6l114 329l240 654q18 55 70 55h233q30 0 41 -18q10 -17 -2 -48l-526 -1319q-27 -61 -82 -61h-262q-65 0 -66 61l-24 523l-2 317h-7l-114 -317l-205 -523q-22 -61 -82 -61h-262q-65 0 -66 61l-63 1319q0 66 55 66h225
q56 0 60 -55l10 -654l-2 -329h6l115 331l241 654q21 53 74 53zM1006 1579l98 166q24 39 63 39h234q16 0 23 -10t4 -24t-15 -24l-184 -161q-31 -29 -76 -29h-123q-48 0 -24 43z" />
    <glyph glyph-name="wacute" unicode="&#x1e83;" horiz-adv-x="1542" 
d="M795 1110h161q48 0 52 -49l22 -490v-223h4l74 223l178 486q18 53 70 53h219q58 0 31 -61l-412 -994q-22 -55 -74 -55h-213q-57 0 -63 55l-25 389l-4 256h-6l-96 -256l-162 -389q-22 -55 -76 -55h-213q-55 0 -61 55l-62 994q-4 61 49 61h207q56 0 56 -53l8 -486l-6 -223h6
l80 223l192 490q21 49 64 49zM797 1255l98 166q22 37 59 37h234q16 0 24 -9q9 -10 6 -24q-2 -12 -16 -24l-182 -160q-31 -29 -74 -29h-123q-21 0 -29 13q-8 12 3 30z" />
    <glyph glyph-name="Wdieresis" unicode="&#x1e84;" horiz-adv-x="1851" 
d="M989 1446h201q58 0 63 -53l9 -654l2 -331h6l114 329l240 654q18 55 70 55h233q30 0 41 -18q10 -17 -2 -48l-526 -1319q-27 -61 -82 -61h-262q-65 0 -66 61l-24 523l-2 317h-7l-114 -317l-205 -523q-22 -61 -82 -61h-262q-65 0 -66 61l-63 1319q0 66 55 66h225
q56 0 60 -55l10 -654l-2 -329h6l115 331l241 654q21 53 74 53zM1079 1706l-22 -119q-7 -51 -60 -51h-172q-51 0 -43 51l21 119q7 51 57 51h172q54 0 47 -51zM1477 1706l-23 -119q-8 -51 -59 -51h-172q-53 0 -45 51l22 119q8 51 57 51h173q54 0 47 -51z" />
    <glyph glyph-name="wdieresis" unicode="&#x1e85;" horiz-adv-x="1542" 
d="M795 1110h161q48 0 52 -49l22 -490v-223h4l74 223l178 486q18 53 70 53h219q58 0 31 -61l-412 -994q-22 -55 -74 -55h-213q-57 0 -63 55l-25 389l-4 256h-6l-96 -256l-162 -389q-22 -55 -76 -55h-213q-55 0 -61 55l-62 994q-4 61 49 61h207q56 0 56 -53l8 -486l-6 -223h6
l80 223l192 490q21 49 64 49zM870 1384l-22 -120q-8 -52 -57 -52h-170q-54 0 -46 52l23 120q8 52 57 52h168q55 0 47 -52zM1257 1384l-20 -120q-12 -52 -59 -52h-170q-53 0 -45 52l22 120q8 52 57 52h170q53 0 45 -52z" />
    <glyph glyph-name="Ygrave" unicode="&#x1ef2;" horiz-adv-x="1185" 
d="M770 539l-84 -482q-12 -57 -65 -57h-215q-60 0 -52 57l86 482l-241 837q-8 25 5 47q14 23 46 23h223q57 0 68 -53l82 -377l24 -197h6l97 197l215 377q29 53 79 53h230q34 0 41 -24q8 -25 -8 -46zM846 1745l43 -166q7 -43 -37 -43h-123q-40 0 -67 29l-130 161
q-14 14 -5 36t34 22h232q43 0 53 -39z" />
    <glyph glyph-name="ygrave" unicode="&#x1ef3;" horiz-adv-x="995" 
d="M1069 1049l-420 -965q-78 -185 -164 -254q-87 -70 -272 -70q-137 0 -203 21q-44 16 -37 53l33 143q11 48 60 48q7 0 25 -3q25 -4 35 -5q12 -1 38 -1q118 0 100 117l-129 916q-10 61 47 61h209q55 0 55 -53l33 -490l6 -239h9l79 239l177 490q18 53 67 53h217q29 0 38 -16
t-3 -45zM692 1421l45 -166q10 -43 -37 -43h-112q-45 0 -68 29l-135 160q-14 15 -6 37q7 20 33 20h227q43 0 53 -37z" />
    <glyph glyph-name="figuredash" unicode="&#x2012;" horiz-adv-x="1081" 
d="M932 479h-776q-49 0 -43 49l22 117q7 49 55 49h775q50 0 43 -49l-21 -117q-7 -49 -55 -49z" />
    <glyph glyph-name="endash" unicode="&#x2013;" horiz-adv-x="948" 
d="M827 455h-708q-53 0 -45 53l26 149q8 52 60 52h706q55 0 47 -52l-26 -149q-8 -53 -60 -53z" />
    <glyph glyph-name="emdash" unicode="&#x2014;" horiz-adv-x="1374" 
d="M1253 455h-1134q-53 0 -45 53l26 149q8 52 60 52h1132q55 0 49 -52l-26 -149q-12 -53 -62 -53z" />
    <glyph glyph-name="quoteleft" unicode="&#x2018;" horiz-adv-x="475" 
d="M231 1210l140 213q25 31 53 31h70q44 0 22 -45l-108 -195h59q59 0 47 -55l-33 -198q-8 -54 -65 -54h-193q-57 0 -49 54l31 182q7 37 26 67z" />
    <glyph glyph-name="quoteright" unicode="&#x2019;" horiz-adv-x="475" 
d="M492 1143l-142 -213q-21 -33 -51 -33h-72q-18 0 -24 14q-6 15 4 31l108 197h-59q-59 0 -49 55l37 197q6 55 63 55h193q61 0 51 -55l-33 -181q-5 -38 -26 -67z" />
    <glyph glyph-name="quotesinglbase" unicode="&#x201a;" horiz-adv-x="475" 
d="M293 4l-141 -213q-21 -33 -52 -33h-71q-19 0 -25 15t4 30l109 197h-60q-56 0 -49 55l37 197q6 55 64 55h192q58 0 51 -55l-33 -180q-5 -40 -26 -68z" />
    <glyph glyph-name="quotedblleft" unicode="&#x201c;" horiz-adv-x="884" 
d="M641 1206l141 213q23 31 52 31h71q41 0 23 -45l-109 -195h60q54 0 47 -55l-35 -199q-8 -53 -66 -53h-192q-57 0 -49 53l30 183q6 37 27 67zM229 1206l142 213q25 31 53 31h70q44 0 22 -45l-108 -195h59q57 0 47 -55l-33 -199q-12 -53 -65 -53h-193q-61 0 -49 53l31 183
q6 37 24 67z" />
    <glyph glyph-name="quotedblright" unicode="&#x201d;" horiz-adv-x="884" 
d="M492 1141l-142 -213q-23 -33 -53 -33h-70q-18 0 -24 14q-6 15 4 31l106 197h-59q-57 0 -47 55l37 197q6 55 63 55h193q61 0 51 -55l-33 -181q-5 -38 -26 -67zM903 1141l-141 -213q-22 -33 -53 -33h-70q-21 0 -27 14q-6 15 6 31l107 197h-59q-55 0 -48 55l35 197
q10 55 64 55h194q60 0 50 -55l-31 -181q-7 -37 -27 -67z" />
    <glyph glyph-name="quotedblbase" unicode="&#x201e;" horiz-adv-x="884" 
d="M293 4l-141 -213q-23 -33 -54 -33h-69q-19 0 -25 15t4 30l107 197h-60q-54 0 -47 55l37 197q6 55 64 55h192q58 0 51 -55l-33 -180q-5 -40 -26 -68zM705 4l-142 -213q-23 -33 -53 -33h-70q-20 0 -26 15q-6 14 6 30l106 197h-59q-57 0 -47 55l35 197q7 55 63 55h195
q56 0 49 -55l-31 -180q-7 -40 -26 -68z" />
    <glyph glyph-name="dagger" unicode="&#x2020;" horiz-adv-x="974" 
d="M1020 1063l-29 -154q-8 -53 -57 -53h-225l-183 -1028q-8 -53 -59 -53h-201q-53 0 -45 53l182 1028h-223q-53 0 -45 53l29 154q8 53 59 53h226l49 277q8 53 57 53h199q57 0 49 -53l-49 -277h221q53 0 45 -53z" />
    <glyph glyph-name="daggerdbl" unicode="&#x2021;" horiz-adv-x="976" 
d="M889 313l-27 -155q-8 -54 -59 -54h-225l-50 -276q-8 -53 -63 -53h-197q-53 0 -45 53l49 276h-221q-55 0 -47 54l29 155q8 52 59 52h225l86 491h-221q-53 0 -45 53l27 154q12 53 59 53h228l47 277q12 53 59 53h199q57 0 49 -53l-49 -277h221q53 0 45 -53l-29 -154
q-8 -53 -59 -53h-225l-86 -491h221q53 0 45 -52z" />
    <glyph glyph-name="bullet" unicode="&#x2022;" horiz-adv-x="794" 
d="M365 262q-112 0 -185 70q-71 68 -71 176q0 143 102 251q101 107 252 107q112 0 184 -69t72 -179q0 -139 -103 -248q-102 -108 -251 -108z" />
    <glyph glyph-name="onedotenleader" unicode="&#x2024;" horiz-adv-x="479" 
d="M10 55l39 207q7 55 64 55h194q61 0 51 -55l-36 -207q-10 -55 -62 -55h-201q-59 0 -49 55z" />
    <glyph glyph-name="twodotenleader" unicode="&#x2025;" horiz-adv-x="958" 
d="M489 55l39 207q7 55 64 55h194q62 0 52 -55l-37 -207q-10 -55 -62 -55h-200q-60 0 -50 55zM10 55l39 207q7 55 64 55h194q61 0 51 -55l-36 -207q-10 -55 -62 -55h-201q-59 0 -49 55z" />
    <glyph glyph-name="ellipsis" unicode="&#x2026;" horiz-adv-x="1439" 
d="M10 55l39 207q7 55 64 55h194q61 0 51 -55l-36 -207q-10 -55 -62 -55h-201q-59 0 -49 55zM492 55l36 207q7 55 64 55h196q62 0 50 -55l-37 -207q-10 -55 -62 -55h-198q-61 0 -49 55zM971 55l37 207q12 55 65 55h195q58 0 51 -55l-39 -207q-10 -55 -59 -55h-201
q-56 0 -49 55z" />
    <glyph glyph-name="perthousand" unicode="&#x2030;" horiz-adv-x="2512" 
d="M1501 1395l-940 -1350q-33 -45 -76 -45h-129q-58 0 -20 51l938 1350q30 45 76 45h129q26 0 32 -14q6 -15 -10 -37zM154 1034q73 426 389 426q138 0 211 -79t73 -222q0 -61 -12 -129q-72 -424 -387 -424q-138 0 -211 79q-74 80 -74 224q0 67 11 125zM586 1032
q12 69 12 123q0 109 -74 109q-52 0 -86 -54q-31 -50 -53 -178q-14 -64 -14 -121q0 -110 75 -110q51 0 84 53t56 178zM1022 416q74 426 389 426q138 0 211 -79q74 -80 74 -224q0 -54 -13 -129q-73 -424 -389 -424q-135 0 -210 80q-74 78 -74 223q0 59 12 127zM1452 414
q14 67 14 125q0 106 -73 106q-50 0 -85 -53q-34 -52 -57 -178q-14 -85 -14 -125q0 -107 74 -107q52 0 87 54q32 49 54 178zM1778 416q73 426 389 426q138 0 211 -79t73 -224q0 -59 -12 -127q-72 -426 -387 -426q-137 0 -211 80t-74 223q0 69 11 127zM2210 414q12 77 12 125
q0 106 -72 106q-52 0 -87 -54q-32 -51 -54 -177q-14 -69 -14 -125q0 -107 73 -107q50 0 85 54q34 52 57 178z" />
    <glyph glyph-name="guilsinglleft" unicode="&#x2039;" horiz-adv-x="552" 
d="M76 594q7 19 10 24l193 287q24 39 65 39h174q58 0 25 -53l-201 -297l96 -297q15 -53 -41 -53h-172q-45 0 -57 39l-90 286q-4 17 -2 25z" />
    <glyph glyph-name="guilsinglright" unicode="&#x203a;" horiz-adv-x="552" 
d="M520 594q-5 -18 -10 -23l-191 -288q-27 -39 -67 -39h-174q-25 0 -32 14q-8 15 9 39l197 297l-92 297q-17 53 39 53h174q47 0 55 -39l90 -287q6 -15 2 -24z" />
    <glyph glyph-name="exclamdbl" unicode="&#x203c;" horiz-adv-x="1116" 
d="M51 55l39 215q11 54 66 54h209q60 0 49 -54l-37 -215q-12 -55 -64 -55h-213q-59 0 -49 55zM356 455h-143q-58 0 -47 53l102 881q6 57 62 57h254q59 0 47 -57l-207 -881q-17 -53 -68 -53zM592 55l39 215q11 54 65 54h209q60 0 49 -54l-36 -215q-12 -55 -64 -55h-213
q-59 0 -49 55zM897 455h-143q-58 0 -47 53l102 881q6 57 61 57h254q59 0 47 -57l-206 -881q-17 -53 -68 -53z" />
    <glyph glyph-name="fraction" unicode="&#x2044;" horiz-adv-x="153" 
d="M702 1395l-935 -1350q-33 -45 -76 -45h-129q-58 0 -21 51l936 1350q30 45 74 45h129q27 0 33 -14t-11 -37z" />
    <glyph glyph-name="zero.superior" unicode="&#x2070;" 
d="M494 993q-141 0 -218 80q-75 78 -75 227q0 58 14 146q79 452 408 452q141 0 216 -79q74 -78 74 -228q0 -76 -14 -145q-79 -453 -405 -453zM512 1196q57 0 93 58q37 60 59 192q16 89 16 137q0 113 -78 113q-57 0 -92 -58t-59 -192q-17 -97 -17 -141q0 -109 78 -109z" />
    <glyph glyph-name="four.superior" unicode="&#x2074;" 
d="M612 1632l-233 -268h186zM819 1180h-59l-23 -127q-11 -47 -53 -47h-133q-52 0 -41 47l22 127h-325q-43 0 -37 43l16 102q5 25 25 49l430 484q24 28 53 28h140q54 0 43 -47l-84 -475h53q48 0 41 -45l-17 -92q-6 -47 -51 -47z" />
    <glyph glyph-name="five.superior" unicode="&#x2075;" 
d="M461 991q-182 0 -256 41q-35 17 -23 49l39 103q18 41 58 26q77 -28 170 -28q161 0 161 145q0 80 -102 80q-38 0 -85 -9q-46 -9 -56 -9q-28 -4 -45 4l-39 18q-24 11 -17 43q63 224 90 385q6 47 54 47h434q47 0 41 -45l-19 -102q-7 -43 -51 -43h-293q-17 -85 -35 -144
q49 15 105 15q129 0 189 -60q61 -61 61 -157q0 -176 -105 -267q-106 -92 -276 -92z" />
    <glyph glyph-name="six.superior" unicode="&#x2076;" 
d="M793 1696q-80 16 -115 16q-164 0 -203 -172q72 59 168 59q114 0 173 -62q61 -64 61 -165q0 -163 -102 -271t-259 -108q-150 0 -227 83q-76 82 -76 222q0 66 12 138q82 462 445 462q128 0 188 -28q33 -12 21 -45l-31 -99q-12 -36 -55 -30zM532 1178q62 0 95 53
q32 51 32 117q0 88 -88 88q-62 0 -98 -51q-35 -50 -35 -113q0 -94 94 -94z" />
    <glyph glyph-name="seven.superior" unicode="&#x2077;" 
d="M926 1843l-15 -86q-5 -25 -37 -63q-117 -140 -219 -318q-104 -182 -133 -323q-11 -47 -53 -47h-145q-47 0 -41 43q27 146 133 322q108 180 243 325h-319q-45 0 -39 45l18 100q7 45 50 45h516q48 0 41 -43z" />
    <glyph glyph-name="eight.superior" unicode="&#x2078;" 
d="M494 993q-140 0 -224 61q-82 60 -82 154q0 172 189 252q-98 49 -98 172q0 135 102 201q100 65 242 65q127 0 207 -55q81 -55 81 -147q0 -80 -47 -141q-46 -60 -123 -93q113 -51 113 -180q0 -145 -106 -217q-107 -72 -254 -72zM547 1391q-127 -51 -127 -150q0 -74 90 -74
q53 0 86 34q33 35 33 83q0 74 -82 107zM571 1528q113 53 113 139q0 64 -78 64q-49 0 -78 -31q-28 -29 -28 -76q0 -62 71 -96z" />
    <glyph glyph-name="nine.superior" unicode="&#x2079;" 
d="M322 1196q69 -20 114 -20q162 0 201 176q-69 -60 -162 -60q-114 0 -176 64q-61 62 -61 166q0 164 100 270t258 106q150 0 227 -83q78 -84 78 -222q0 -71 -14 -155q-80 -445 -438 -445q-132 0 -195 29q-33 15 -21 45l33 98q12 39 56 31zM580 1714q-62 0 -95 -53
q-32 -51 -32 -115q0 -42 24 -66t66 -24q62 0 96 49q35 50 35 109q0 100 -94 100z" />
    <glyph glyph-name="parenleft.superior" unicode="&#x207d;" horiz-adv-x="452" 
d="M233 1321q0 149 66 305q65 154 174 260q23 23 51 23h113q20 0 23 -15q3 -14 -9 -26q-194 -257 -194 -584q0 -151 47 -260q6 -14 -2 -28q-7 -13 -29 -13h-113q-28 0 -43 23q-84 118 -84 315z" />
    <glyph glyph-name="parenright.superior" unicode="&#x207e;" horiz-adv-x="452" 
d="M561 1565q0 -149 -64 -302q-65 -155 -173 -257q-23 -23 -52 -23h-110q-21 0 -24 14q-3 15 7 27q195 274 195 578q0 150 -49 266q-6 14 3 27q9 14 30 14h110q28 0 43 -23q84 -123 84 -321z" />
    <glyph glyph-name="n.superior" unicode="&#x207f;" horiz-adv-x="864" 
d="M373 1888h133q49 0 49 -41l-2 -51q84 105 223 105q106 0 163 -57q56 -56 56 -158q0 -40 -8 -82l-96 -551q-8 -47 -55 -47h-152q-47 0 -41 47l88 497q24 129 -74 129q-60 0 -97 -43q-38 -45 -50 -118l-84 -465q-6 -47 -53 -47h-152q-47 0 -41 47l139 786q7 49 54 49z" />
    <glyph glyph-name="zero.inferior" unicode="&#x2080;" 
d="M240 -453q-140 0 -217 80q-76 79 -76 228q0 57 14 145q79 453 408 453q141 0 216 -80q74 -78 74 -228q0 -76 -14 -145q-79 -453 -405 -453zM258 -250q57 0 93 59q37 60 59 191q16 89 16 137q0 113 -78 113q-58 0 -92 -57q-35 -58 -59 -193q-17 -97 -17 -141
q0 -109 78 -109z" />
    <glyph glyph-name="one.inferior" unicode="&#x2081;" 
d="M285 190l-123 -77q-42 -23 -60 6l-47 76q-18 30 17 55l241 174q26 16 62 16h133q54 0 43 -47l-139 -786q-11 -47 -54 -47h-135q-49 0 -43 47z" />
    <glyph glyph-name="two.inferior" unicode="&#x2082;" 
d="M225 139q0 -49 -45 -49h-127q-39 0 -39 43q0 149 92 235q91 85 252 85q136 0 209 -62q72 -61 72 -162q0 -243 -375 -479h258q47 0 41 -45l-18 -100q-7 -45 -51 -45h-529q-47 0 -39 45l17 90q6 24 41 47q91 61 127 87q55 40 128 102q72 62 116 131q41 65 46 131
q4 71 -71 71q-105 0 -105 -125z" />
    <glyph glyph-name="three.inferior" unicode="&#x2083;" 
d="M244 -78h-84q-45 0 -39 45l16 84q6 45 49 45h84q49 0 85 28q34 27 34 77q0 65 -119 65q-69 0 -161 -30q-43 -15 -48 24l-4 105q0 30 37 45q98 43 236 43q128 0 213 -51q82 -49 82 -146q0 -78 -42 -142q-41 -63 -112 -91q98 -37 98 -162q0 -158 -102 -236t-260 -78
q-177 0 -262 43q-35 17 -23 48l39 104q15 43 59 25q87 -29 168 -29q150 0 150 119q0 65 -94 65z" />
    <glyph glyph-name="four.inferior" unicode="&#x2084;" 
d="M358 186l-233 -268h186zM565 -266h-59l-23 -127q-11 -47 -53 -47h-133q-52 0 -41 47l23 127h-326q-43 0 -37 43l16 102q5 25 25 49l430 484q24 28 53 28h140q54 0 43 -47l-84 -475h53q48 0 41 -45l-17 -92q-6 -47 -51 -47z" />
    <glyph glyph-name="five.inferior" unicode="&#x2085;" 
d="M207 -455q-182 0 -256 41q-35 17 -23 49l39 103q18 41 58 26q77 -28 170 -28q161 0 161 145q0 80 -102 80q-38 0 -85 -9q-46 -9 -56 -9q-28 -4 -45 4l-39 18q-24 11 -17 43q63 224 90 385q6 47 54 47h434q47 0 41 -45l-19 -102q-7 -43 -51 -43h-293q-17 -85 -35 -144
q49 15 105 15q129 0 189 -60q61 -61 61 -157q0 -174 -105 -266q-107 -93 -276 -93z" />
    <glyph glyph-name="six.inferior" unicode="&#x2086;" 
d="M539 250q-80 16 -115 16q-164 0 -203 -172q73 60 168 60q113 0 173 -63q61 -64 61 -165q0 -163 -102 -271t-259 -108q-150 0 -227 83q-76 82 -76 223q0 65 12 137q82 463 445 463q125 0 188 -29q33 -12 21 -45l-31 -98q-12 -37 -55 -31zM279 -268q61 0 94 53t33 117
q0 88 -89 88q-63 0 -98 -50t-35 -114q0 -94 95 -94z" />
    <glyph glyph-name="seven.inferior" unicode="&#x2087;" 
d="M672 397l-15 -86q-5 -26 -36 -63q-120 -143 -220 -318q-104 -182 -133 -323q-11 -47 -53 -47h-145q-47 0 -41 43q27 146 133 322q106 177 244 325h-320q-45 0 -39 45l19 100q8 45 49 45h516q48 0 41 -43z" />
    <glyph glyph-name="eight.inferior" unicode="&#x2088;" 
d="M240 -453q-140 0 -224 61q-82 60 -82 154q0 172 189 252q-98 49 -98 172q0 135 102 201t242 66q126 0 208 -56q80 -55 80 -147q0 -79 -47 -140q-48 -62 -123 -94q113 -51 113 -180q0 -145 -106 -217q-107 -72 -254 -72zM293 -55q-127 -51 -127 -150q0 -74 90 -74
q53 0 86 34q33 35 33 83q0 74 -82 107zM317 82q113 53 113 139q0 64 -78 64q-49 0 -78 -31q-28 -29 -28 -76q0 -62 71 -96z" />
    <glyph glyph-name="nine.inferior" unicode="&#x2089;" 
d="M68 -250q69 -20 114 -20q162 0 201 176q-69 -60 -162 -60q-114 0 -176 64q-61 62 -61 166q0 164 100 270q101 107 258 107q149 0 227 -84t78 -222q0 -71 -14 -155q-80 -445 -438 -445q-132 0 -195 29q-32 15 -20 45l32 98q12 39 56 31zM326 268q-62 0 -95 -53
q-32 -51 -32 -115q0 -42 24 -66t66 -24q62 0 96 49q35 50 35 109q0 100 -94 100z" />
    <glyph glyph-name="parenleft.inferior" unicode="&#x208d;" horiz-adv-x="452" 
d="M-20 -125q0 151 65 305t174 260q23 23 51 23h113q21 0 24 -14t-10 -27q-194 -257 -194 -584q0 -151 47 -260q6 -14 -2 -28q-7 -13 -29 -13h-113q-28 0 -43 23q-83 117 -83 315z" />
    <glyph glyph-name="parenright.inferior" unicode="&#x208e;" horiz-adv-x="452" 
d="M307 119q0 -149 -64 -302q-65 -155 -173 -257q-23 -23 -52 -23h-110q-21 0 -24 14q-3 15 7 27q195 274 195 578q0 150 -49 266q-6 15 3 28t30 13h110q28 0 43 -23q84 -123 84 -321z" />
    <glyph glyph-name="Euro" unicode="&#x20ac;" horiz-adv-x="1171" 
d="M109 657h98l8 68l14 68h-92q-45 0 -39 43l15 71q6 43 47 43h110q85 261 247 390q161 128 415 128q190 0 317 -63q48 -25 23 -72l-78 -153q-27 -53 -80 -35q-79 29 -168 29q-242 0 -334 -224h402q44 0 26 -47l-34 -72q-18 -38 -60 -38h-383q-7 -27 -14 -68q-9 -52 -10 -68
h331q45 0 27 -47l-35 -71q-18 -39 -57 -39h-270q11 -224 253 -224q99 0 181 31q59 16 65 -37l25 -153q5 -29 -7 -43q-12 -15 -40 -27q-130 -63 -299 -63q-261 0 -395 131t-128 385h-104q-45 0 -39 43l12 71q10 43 50 43z" />
    <glyph glyph-name="afii61289" unicode="&#x2113;" horiz-adv-x="1011" 
d="M637 240q10 0 34 2q18 2 36 6q19 5 28 6q23 2 33 -7q10 -8 8 -32l-12 -147q-2 -42 -53 -60q-73 -24 -179 -24q-323 0 -323 268q0 43 10 102l8 49q-63 -18 -123 -30q-30 -5 -32 18l-11 133q-2 27 23 35q94 24 180 55l60 326q46 265 143 396q96 130 297 130q150 0 217 -82
t57 -215q-21 -394 -491 -639l-23 -133q-6 -33 -6 -61q0 -53 28 -75q27 -21 91 -21zM629 991l-39 -219q237 159 252 381q10 102 -64 102q-59 0 -92 -60t-57 -204z" />
    <glyph glyph-name="trademark" unicode="&#x2122;" horiz-adv-x="1359" 
d="M639 1280h-107l-83 -471q-6 -37 -41 -37h-119q-39 0 -33 37l82 471h-105q-36 0 -30 37l16 92q6 37 39 37h406q40 0 34 -37l-18 -92q-6 -37 -41 -37zM1026 928q-18 0 -29 24l-75 205l-62 -348q-6 -37 -41 -37h-114q-41 0 -35 37l108 600q4 37 39 37h115q32 0 45 -25
l90 -252l180 252q13 25 43 25h123q39 0 33 -37l-107 -600q-6 -37 -41 -37h-114q-39 0 -33 37l61 348l-149 -205q-18 -24 -37 -24z" />
    <glyph glyph-name="Omega" unicode="&#x2126;" horiz-adv-x="1427" 
d="M862 1468q264 0 407 -130q144 -130 144 -351q0 -214 -104 -397q-106 -186 -293 -287l-12 -63l186 24q30 5 44 -9q13 -13 9 -40l-29 -162q-11 -53 -61 -53h-448l47 281q6 31 39 53q130 85 210 254t80 342q0 120 -63 186t-180 66q-122 0 -210 -87t-129 -210
q-40 -121 -40 -254q0 -192 129 -297q26 -20 20 -53l-45 -281h-448q-29 0 -42 14q-14 16 -10 39l29 162q15 57 72 49l178 -24l10 61q-89 55 -148 162t-59 250q0 321 198 538t519 217z" />
    <glyph glyph-name="estimated" unicode="&#x212e;" horiz-adv-x="1753" 
d="M1679 686h-1286q-10 0 -10 -8v-379q0 -39 16 -59q170 -197 492 -197q324 0 516 223h119q-111 -132 -279 -209q-163 -75 -358 -75q-338 0 -573 215q-234 215 -234 518q0 307 230 521t569 214q338 0 568 -214t230 -521v-29zM1378 748v380q0 51 -22 74q-192 187 -473 187
q-289 0 -482 -199q-18 -18 -18 -60v-382q0 -13 10 -13h975q10 0 10 13z" />
    <glyph glyph-name="onethird" unicode="&#x2153;" horiz-adv-x="1787" 
d="M461 1196l-123 -78q-41 -23 -59 6l-48 76q-18 30 17 55l241 175q26 16 62 16h133q54 0 43 -47l-139 -787q-11 -47 -53 -47h-136q-49 0 -43 47zM1468 1395l-936 -1350q-33 -45 -75 -45h-129q-58 0 -21 51l936 1350q30 45 74 45h129q27 0 33 -14t-11 -37zM1233 362h84
q94 0 94 -65q0 -119 -149 -119q-81 0 -168 29q-45 18 -60 -25l-39 -104q-12 -30 23 -47q85 -43 262 -43q158 0 260 78t102 235q0 125 -98 162q71 28 112 91q42 64 42 142q0 98 -82 147q-83 50 -213 50q-138 0 -236 -43q-37 -15 -37 -45l5 -105q4 -39 47 -24q95 31 161 31
q119 0 119 -66q0 -50 -34 -77t-85 -27h-83q-44 0 -50 -45l-16 -84q-6 -46 39 -46z" />
    <glyph glyph-name="twothirds" unicode="&#x2154;" horiz-adv-x="1787" 
d="M401 1145q0 -49 -45 -49h-127q-39 0 -39 43q0 147 93 234q91 85 252 85q137 0 208 -61q72 -61 72 -162q0 -243 -375 -479h258q47 0 41 -45l-18 -101q-7 -45 -51 -45h-529q-47 0 -39 45l17 90q6 25 41 48q91 61 127 87q55 40 128 102q72 62 116 131q42 67 47 130
q4 72 -72 72q-105 0 -105 -125zM1532 1395l-936 -1350q-33 -45 -76 -45h-129q-57 0 -20 51l936 1350q30 45 73 45h129q27 0 33 -14q6 -15 -10 -37zM1323 362h-84q-45 0 -39 46l17 84q6 45 49 45h84q50 0 85 27q33 26 33 77q0 66 -118 66q-67 0 -162 -31q-43 -15 -47 24
l-4 105q0 30 37 45q98 43 235 43q130 0 213 -50q82 -49 82 -147q0 -78 -42 -142q-41 -63 -112 -91q99 -37 99 -162q0 -156 -103 -235q-102 -78 -260 -78q-177 0 -262 43q-35 17 -23 47l39 104q15 43 60 25q87 -29 168 -29q149 0 149 119q0 65 -94 65z" />
    <glyph glyph-name="oneeighth" unicode="&#x215b;" horiz-adv-x="1787" 
d="M461 1196l-123 -78q-41 -23 -59 6l-48 76q-18 30 17 55l241 175q26 16 62 16h133q54 0 43 -47l-139 -787q-11 -47 -53 -47h-136q-49 0 -43 47zM1489 1395l-936 -1350q-33 -45 -76 -45h-129q-58 0 -20 51l936 1350q30 45 73 45h129q27 0 33 -14q6 -15 -10 -37zM1333 -12
q149 0 254 71q107 72 107 217q0 130 -113 181q77 33 123 93q47 61 47 140q0 93 -81 148q-80 55 -208 55q-139 0 -241 -66q-103 -67 -103 -200q0 -123 99 -172q-189 -79 -189 -252q0 -95 82 -155t223 -60zM1386 385q82 -33 82 -106q0 -50 -32 -83q-33 -34 -86 -34
q-90 0 -90 74q0 99 126 149zM1411 522q-72 34 -72 96q0 45 29 76t78 31q78 0 78 -63q0 -87 -113 -140z" />
    <glyph glyph-name="threeeighths" unicode="&#x215c;" horiz-adv-x="1787" 
d="M399 928h-84q-45 0 -39 45l17 84q6 45 49 45h84q50 0 85 27q34 27 34 77q0 66 -119 66q-67 0 -162 -31q-42 -15 -47 25l-4 104q0 30 37 45q98 43 235 43q130 0 213 -50q82 -49 82 -146q0 -78 -42 -143q-42 -64 -111 -91q98 -37 98 -162q0 -157 -102 -235t-261 -78
q-177 0 -262 43q-34 16 -22 47l39 105q14 42 59 24q87 -29 168 -29q150 0 150 119q0 66 -95 66zM1505 1395l-936 -1350q-33 -45 -75 -45h-129q-59 0 -21 51l936 1350q30 45 74 45h129q27 0 33 -14t-11 -37zM1333 -12q-141 0 -223 60t-82 155q0 173 189 252q-99 49 -99 172
q0 133 103 200q102 66 241 66q128 0 208 -55q81 -55 81 -148q0 -79 -47 -140q-46 -60 -123 -93q113 -51 113 -181q0 -145 -107 -217q-105 -71 -254 -71zM1386 385q-126 -50 -126 -149q0 -74 90 -74q53 0 86 34q32 33 32 83q0 73 -82 106zM1411 522q113 53 113 139
q0 64 -78 64q-49 0 -78 -31t-29 -76q0 -62 72 -96z" />
    <glyph glyph-name="fiveeighths" unicode="&#x215d;" horiz-adv-x="1787" 
d="M383 551q-182 0 -256 41q-35 17 -23 49l39 102q19 42 58 27q79 -29 170 -29q161 0 161 146q0 80 -102 80q-33 0 -85 -10q-47 -9 -56 -9q-28 -4 -45 4l-39 19q-24 11 -17 43q66 233 91 385q6 47 53 47h434q47 0 41 -45l-19 -103q-7 -43 -51 -43h-293q-18 -91 -34 -143
q46 14 104 14q130 0 189 -59q61 -61 61 -158q0 -175 -105 -266q-106 -92 -276 -92zM1507 1395l-936 -1350q-33 -45 -75 -45h-129q-59 0 -21 51l936 1350q30 45 74 45h129q27 0 33 -14t-11 -37zM1333 -12q-141 0 -223 60t-82 155q0 173 189 252q-99 49 -99 172q0 133 103 200
q102 66 241 66q128 0 208 -55q81 -55 81 -148q0 -79 -47 -140q-46 -60 -123 -93q113 -51 113 -181q0 -145 -107 -217q-105 -71 -254 -71zM1386 385q-126 -50 -126 -149q0 -74 90 -74q53 0 86 34q32 33 32 83q0 73 -82 106zM1411 522q113 53 113 140q0 63 -78 63
q-49 0 -78 -31t-29 -76q0 -62 72 -96z" />
    <glyph glyph-name="seveneighths" unicode="&#x215e;" horiz-adv-x="1787" 
d="M848 1403l-14 -86q-5 -26 -37 -64q-119 -142 -219 -317q-105 -184 -134 -324q-11 -47 -53 -47h-145q-47 0 -41 43q27 147 133 323q105 174 244 324h-320q-45 0 -39 45l19 101q8 45 49 45h516q48 0 41 -43zM1425 1395l-936 -1350q-33 -45 -75 -45h-129q-59 0 -21 51
l936 1350q30 45 74 45h129q27 0 33 -14t-11 -37zM1333 -12q-141 0 -223 60t-82 155q0 173 189 252q-99 49 -99 172q0 133 103 200q102 66 241 66q128 0 208 -55q81 -55 81 -148q0 -79 -47 -140q-46 -60 -123 -93q113 -51 113 -181q0 -145 -107 -217q-105 -71 -254 -71z
M1386 385q-126 -50 -126 -149q0 -74 90 -74q53 0 86 34q32 33 32 83q0 73 -82 106zM1411 522q113 53 113 140q0 63 -78 63q-49 0 -78 -31t-29 -76q0 -62 72 -96z" />
    <glyph glyph-name="arrowleft" unicode="&#x2190;" horiz-adv-x="1204" 
d="M854 997l-328 -317l551 6q57 0 45 -49l-28 -162q-6 -51 -62 -51l-549 6l215 -317q12 -15 2 -35q-10 -21 -34 -21h-226q-35 0 -53 29l-278 436q-11 16 -9 33q1 13 21 33l430 436q38 29 63 29h228q24 0 27 -21q3 -20 -15 -35z" />
    <glyph glyph-name="arrowup" unicode="&#x2191;" horiz-adv-x="1204" 
d="M1036 430l-268 272l-90 -552q-8 -54 -60 -54h-161q-49 0 -41 54l104 552l-366 -272q-17 -14 -36 -9q-18 4 -16 30l41 227q6 38 39 59l496 355q21 12 37 12q13 0 30 -12l373 -355q25 -25 19 -59l-39 -227q-5 -25 -26 -30q-22 -5 -36 9z" />
    <glyph glyph-name="arrowright" unicode="&#x2192;" horiz-adv-x="1204" 
d="M752 680l-215 317q-12 17 -5 36q8 20 33 20h228q35 0 53 -29l278 -436q10 -21 9 -33q-1 -13 -21 -33l-430 -436q-34 -29 -66 -29h-225q-24 0 -27 21q-3 20 15 35l330 317l-553 -6q-52 0 -45 51l28 162q7 49 62 49z" />
    <glyph glyph-name="arrowdown" unicode="&#x2193;" horiz-adv-x="1204" 
d="M199 680l268 -270l92 551q11 53 59 53h162q52 0 41 -53l-104 -551l364 270q19 14 39 9t15 -30l-41 -227q-6 -36 -39 -59l-498 -355q-17 -12 -37 -12q-16 0 -31 12l-372 355q-23 23 -17 59l39 227q5 26 25 30q21 5 35 -9z" />
    <glyph glyph-name="arrowboth" unicode="&#x2194;" horiz-adv-x="1867" 
d="M1415 680l-215 317q-12 17 -3 36q9 20 34 20h227q36 0 53 -29l279 -436q8 -18 8 -33q-1 -14 -20 -33l-430 -436q-34 -29 -66 -29h-225q-25 0 -28 21q-3 20 15 35l328 317l-448 -6l-441 6l215 -317q12 -15 2 -35q-10 -21 -34 -21h-226q-35 0 -53 29l-278 436q-11 16 -9 33
q1 13 21 33l430 436q34 29 63 29h228q24 0 27 -21q3 -20 -15 -35l-328 -317l445 6z" />
    <glyph glyph-name="arrowupdn" unicode="&#x2195;" horiz-adv-x="1204" 
d="M668 139l364 273q20 14 39 8t14 -31l-41 -227q-6 -32 -38 -58l-498 -354q-20 -14 -35 -14q-20 0 -31 14l-372 354q-25 24 -21 58l41 227q5 25 25 31q21 6 35 -8l270 -273l65 418l80 414l-364 -271q-20 -16 -38 -10t-13 31l38 225q6 38 39 60l498 354q20 14 37 14
q16 0 31 -14l372 -354q25 -25 19 -60l-41 -225q-5 -25 -25 -31q-21 -6 -35 10l-270 271l-63 -414z" />
    <glyph glyph-name="arrowupleft" unicode="&#x2196;" horiz-adv-x="1204" 
d="M1067 764l-422 -33l328 -385q28 -37 -12 -76l-134 -112q-43 -37 -73 2l-316 395l-106 -416q-5 -24 -23 -32q-19 -8 -35 8l-133 159q-21 24 -10 62l156 559q7 22 20 33q16 12 35 12l567 59q42 5 60 -22l131 -160q15 -18 2 -35q-12 -16 -35 -18z" />
    <glyph glyph-name="arrowupright" unicode="&#x2197;" horiz-adv-x="1204" 
d="M651 731l-411 33q-23 2 -29 18q-6 18 14 35l189 160q28 26 65 22l547 -59q24 0 31 -12q12 -11 8 -33l-39 -559q-6 -38 -33 -62l-190 -159q-21 -17 -36 -9q-15 7 -13 33l41 416l-455 -395q-45 -37 -74 -2l-94 112q-28 37 16 76z" />
    <glyph glyph-name="arrowdownright" unicode="&#x2198;" horiz-adv-x="1204" 
d="M156 289l422 33l-326 385q-32 37 10 73l133 115q44 38 74 -2l315 -395l107 417q6 24 24 31q19 8 33 -8l133 -160q21 -24 11 -61l-156 -559q-4 -16 -21 -33q-16 -13 -34 -14l-568 -58q-38 -4 -59 23l-131 160q-14 17 -2 34q13 18 35 19z" />
    <glyph glyph-name="arrowdownleft" unicode="&#x2199;" horiz-adv-x="1204" 
d="M573 322l410 -33q23 -2 29 -19q6 -16 -15 -34l-188 -160q-29 -27 -66 -23l-546 58q-19 2 -31 14q-8 11 -8 33l41 559q5 38 32 61l189 160q21 18 37 9q17 -9 12 -32l-39 -417l453 395q44 37 75 2l91 -115q32 -36 -13 -73z" />
    <glyph glyph-name="partialdiff" unicode="&#x2202;" horiz-adv-x="1183" 
d="M479 1174q-32 -4 -45 5q-12 9 -8 33l20 156q5 44 60 62q127 38 244 38q225 0 337 -113q113 -115 113 -319q0 -132 -29 -279q-29 -145 -90 -284q-62 -141 -146 -250q-86 -111 -209 -178q-125 -68 -267 -68q-192 0 -303 108t-111 275q0 250 162 438q162 187 401 187
q102 0 172 -41q69 -40 90 -102q25 88 25 159q2 98 -50 147q-53 50 -169 50q-78 0 -197 -24zM498 246q123 0 203 116q81 117 81 244q0 131 -149 131q-123 0 -202 -110t-79 -234q0 -66 38 -107q37 -40 108 -40z" />
    <glyph glyph-name="Delta" unicode="&#x2206;" horiz-adv-x="1249" 
d="M633 1448h319q57 0 58 -55l92 -1327q6 -66 -58 -66h-999q-68 0 -41 66l555 1327q22 55 74 55zM743 1167l-342 -895h375l-24 895h-9z" />
    <glyph glyph-name="product" unicode="&#x220f;" horiz-adv-x="1425" 
d="M188 1221l29 170q7 55 64 55h1202q56 0 49 -55l-31 -170q-11 -56 -63 -56h-140l-196 -1110q-7 -55 -62 -55h-206q-60 0 -50 55l197 1110h-293l-194 -1110q-12 -55 -64 -55h-205q-61 0 -49 55l195 1110h-135q-60 0 -48 56z" />
    <glyph glyph-name="summation" unicode="&#x2211;" horiz-adv-x="1079" 
d="M778 532l-413 -481h505q56 0 50 -55l-31 -166q-7 -55 -64 -55h-809q-56 0 -49 55l29 168q7 46 47 90l453 526l-263 521q-20 37 -12 88l29 168q7 55 61 55h793q59 0 49 -55l-29 -166q-11 -56 -63 -56h-494l242 -471q8 -17 6 -47l-14 -71q-1 -26 -23 -48z" />
    <glyph glyph-name="minus" unicode="&#x2212;" horiz-adv-x="1122" 
d="M977 590h-787q-53 0 -45 53l27 150q8 51 59 51h787q53 0 47 -51l-29 -150q-6 -53 -59 -53z" />
    <glyph glyph-name="uni2215" unicode="&#x2215;" horiz-adv-x="153" 
d="M702 1395l-935 -1350q-33 -45 -76 -45h-129q-58 0 -21 51l936 1350q30 45 74 45h129q27 0 33 -14t-11 -37z" />
    <glyph glyph-name="uni2219" unicode="&#x2219;" horiz-adv-x="479" 
d="M80 459l39 207q7 55 63 55h195q61 0 51 -55l-37 -207q-11 -56 -61 -56h-201q-60 0 -49 56z" />
    <glyph glyph-name="radical" unicode="&#x221a;" horiz-adv-x="1382" 
d="M727 -143h-268q-54 0 -64 55l-104 825h-127q-59 0 -47 54l24 145q7 51 60 51h331q32 0 43 -11q13 -13 17 -40l51 -711h8l496 1295q21 51 67 51h228q57 0 33 -58l-670 -1601q-24 -55 -78 -55z" />
    <glyph glyph-name="infinity" unicode="&#x221e;" horiz-adv-x="1320" 
d="M750 979q101 98 258 98q150 0 220 -73t70 -189q0 -187 -102 -321t-297 -134q-171 0 -240 99q-102 -99 -260 -99q-150 0 -222 75q-73 76 -73 190q0 188 105 320t301 132q172 0 240 -98zM592 700l59 144q-24 76 -123 76q-89 0 -141 -90q-51 -88 -51 -193t96 -105
q57 0 89 35q33 36 71 133zM815 737l-57 -143q24 -76 125 -76q91 0 141 89q49 88 49 194q0 104 -94 104q-59 0 -92 -36t-72 -132z" />
    <glyph glyph-name="integral" unicode="&#x222b;" horiz-adv-x="860" 
d="M215 133l178 1006q30 177 106 252q74 73 236 73q103 0 154 -16q42 -12 35 -55l-29 -150q-12 -49 -57 -47q-13 0 -25 1t-27 1q-40 0 -60 -23q-22 -25 -32 -83l-176 -1006q-30 -180 -106 -251q-78 -73 -238 -73q-94 0 -151 15q-45 12 -37 53l30 152q8 52 58 47q2 0 5 -0.5
t8 -1t10 -0.5q24 -2 26 -2q75 0 92 108z" />
    <glyph glyph-name="approxequal" unicode="&#x2248;" horiz-adv-x="1122" 
d="M1024 539q-45 -222 -246 -222q-100 0 -186 39l-98 41q-70 31 -113 31q-50 0 -68 -43l-8 -18q-18 -39 -65 -37h-90q-64 0 -48 94q45 223 248 223q101 0 185 -39l98 -41q66 -28 112 -28q50 0 68 41l8 18q18 37 66 37h90q68 0 47 -96zM1108 1014q-45 -221 -246 -221
q-98 0 -186 38l-98 41q-70 31 -111 31q-49 0 -70 -43l-8 -18q-18 -37 -65 -37h-91q-68 0 -47 94q45 223 248 223q94 0 184 -39l99 -41q68 -28 112 -28q50 0 68 41l8 18q18 37 66 37h90q68 0 47 -96z" />
    <glyph glyph-name="notequal" unicode="&#x2260;" horiz-adv-x="1122" 
d="M932 367h-395l-170 -314q-29 -53 -70 -53h-131q-66 0 -37 57l168 310h-139q-53 0 -45 53l24 141q8 53 60 53h233l111 213h-301q-58 0 -47 54l26 141q8 53 60 53h395l174 322q24 49 70 49h131q64 0 34 -60l-170 -311h140q55 0 47 -53l-27 -141q-11 -54 -59 -54h-234
l-110 -213h301q55 0 47 -53l-25 -141q-8 -53 -61 -53z" />
    <glyph glyph-name="lessequal" unicode="&#x2264;" horiz-adv-x="1122" 
d="M190 836q7 29 33 47l701 506q44 33 73 -5l93 -118q30 -38 -17 -76l-504 -356l375 -359q39 -33 -8 -74l-133 -118q-41 -35 -76 -4l-520 505q-22 22 -17 52zM829 0h-727q-57 0 -45 53l19 103q8 53 59 53h725q55 0 47 -53l-18 -103q-8 -53 -60 -53z" />
    <glyph glyph-name="greaterequal" unicode="&#x2265;" horiz-adv-x="1122" 
d="M1061 834q-5 -29 -33 -50l-700 -505q-44 -33 -74 4l-92 120q-29 39 18 74l504 359l-377 356q-33 33 8 76l134 116q45 39 75 5l523 -506q20 -20 14 -49zM860 0h-727q-57 0 -45 53l18 103q8 53 58 53h727q59 0 47 -53l-18 -103q-8 -53 -60 -53z" />
    <glyph glyph-name="lozenge" unicode="&#x25ca;" horiz-adv-x="1249" 
d="M608 377l285 346l-164 346l-283 -346zM539 -23q-25 0 -37 25l-357 694q-7 15 -6 27q5 12 15 27l602 694q18 24 45 24q22 0 37 -24l356 -694q8 -15 6 -27q-2 -13 -16 -27l-600 -694q-23 -25 -45 -25z" />
    <glyph glyph-name="uniE000" unicode="&#xe000;" horiz-adv-x="1024" 
 />
    <glyph glyph-name="Q.alt" unicode="&#xe001;" horiz-adv-x="1261" 
d="M786 1468q469 0 469 -475q0 -110 -26 -270q-61 -345 -193 -519q-131 -174 -338 -208l-12 -164q-2 -57 -63 -57h-222q-61 0 -45 57l47 168q-309 66 -309 463q0 115 27 260q72 404 232 574q161 171 433 171zM594 268q116 0 185 101t114 354q27 153 27 246q0 109 -41 159
t-125 50q-117 0 -186 -101q-67 -98 -111 -354q-29 -169 -29 -248q0 -108 41 -158q40 -49 125 -49z" />
    <glyph glyph-name="a.alt" unicode="&#xe002;" horiz-adv-x="1120" 
d="M733 555q15 79 15 147q0 172 -132 172q-84 0 -135 -72q-52 -74 -82 -247q-18 -101 -18 -164q0 -155 125 -155q170 0 227 319zM1128 1055l-178 -1002q-8 -53 -57 -53h-182q-54 0 -54 45l5 72q-46 -63 -120 -100t-161 -37q-320 0 -320 364q0 96 21 213q52 295 168 435
q114 138 303 138q87 0 163 -40t99 -99l23 74q16 45 63 45h182q55 0 45 -55z" />
    <glyph glyph-name="u.alt" unicode="&#xe003;" horiz-adv-x="1064" 
d="M469 -20q-399 0 -399 319q0 46 10 109l115 647q10 55 59 55h205q52 0 45 -55l-111 -629q-6 -38 -6 -66q0 -106 109 -106q70 0 108 41q36 39 53 131l111 629q10 55 61 55h203q53 0 47 -55l-114 -647q-40 -223 -160 -326q-119 -102 -336 -102z" />
    <glyph glyph-name="y.alt" unicode="&#xe004;" horiz-adv-x="1060" 
d="M625 195l10 61q-105 -125 -275 -125q-134 0 -205 68t-71 196q0 42 10 101l101 559q10 55 59 55h205q52 0 45 -55l-88 -492q-8 -56 -8 -69q0 -95 90 -95q71 0 118 55q48 55 64 150l80 451q10 55 61 55h203q57 0 47 -55l-156 -881q-73 -420 -534 -420q-223 0 -330 51
q-43 22 -31 66l39 131q16 55 72 37q128 -43 231 -43q119 0 182 48t81 151z" />
    <glyph glyph-name="j.alt" unicode="&#xe005;" horiz-adv-x="516" 
d="M516 1055l-217 -1227q-8 -53 -59 -53h-205q-53 0 -45 53l217 1227q10 55 59 55h205q52 0 45 -55zM578 1389l-23 -125q-8 -54 -59 -54h-211q-53 0 -45 54l22 125q7 55 60 55h210q58 0 46 -55z" />
    <glyph glyph-name="agrave.alt" unicode="&#xe006;" horiz-adv-x="1120" 
d="M733 555q15 79 15 147q0 172 -132 172q-84 0 -135 -72q-52 -74 -82 -247q-18 -101 -18 -164q0 -155 125 -155q170 0 227 319zM1128 1055l-178 -1002q-8 -53 -57 -53h-182q-54 0 -54 45l5 72q-46 -63 -120 -100t-161 -37q-320 0 -320 364q0 96 21 213q52 295 168 435
q114 138 303 138q87 0 163 -40t99 -99l23 74q16 45 63 45h182q55 0 45 -55zM817 1421l45 -166q10 -43 -37 -43h-112q-45 0 -68 29l-135 160q-14 15 -6 37q7 20 33 20h227q43 0 53 -37z" />
    <glyph glyph-name="aacute.alt" unicode="&#xe007;" horiz-adv-x="1120" 
d="M733 555q15 79 15 147q0 172 -132 172q-84 0 -135 -72q-52 -74 -82 -247q-18 -101 -18 -164q0 -155 125 -155q170 0 227 319zM1128 1055l-178 -1002q-8 -53 -57 -53h-182q-54 0 -54 45l5 72q-46 -63 -120 -100t-161 -37q-320 0 -320 364q0 96 21 213q52 295 168 435
q114 138 303 138q87 0 163 -40t99 -99l23 74q16 45 63 45h182q55 0 45 -55zM555 1255l98 166q22 37 60 37h233q18 0 25 -9q8 -9 5 -24q-3 -13 -15 -24l-183 -160q-31 -29 -73 -29h-123q-22 0 -30 13q-8 12 3 30z" />
    <glyph glyph-name="acircumflex.alt" unicode="&#xe008;" horiz-adv-x="1120" 
d="M733 555q15 79 15 147q0 172 -132 172q-84 0 -135 -72q-52 -74 -82 -247q-18 -101 -18 -164q0 -155 125 -155q170 0 227 319zM1128 1055l-178 -1002q-8 -53 -57 -53h-182q-54 0 -54 45l5 72q-46 -63 -120 -100t-161 -37q-320 0 -320 364q0 96 21 213q52 295 168 435
q114 138 303 138q87 0 163 -40t99 -99l23 74q16 45 63 45h182q55 0 45 -55zM813 1241l-86 96l-121 -96q-35 -29 -67 -29h-115q-24 0 -29 18q-4 16 15 34l198 182q31 29 74 29h123q46 0 67 -29l138 -182q12 -16 4 -34t-33 -18h-104q-40 0 -64 29z" />
    <glyph glyph-name="atilde.alt" unicode="&#xe009;" horiz-adv-x="1120" 
d="M733 555q15 79 15 147q0 172 -132 172q-84 0 -135 -72q-52 -74 -82 -247q-18 -101 -18 -164q0 -155 125 -155q170 0 227 319zM1128 1055l-178 -1002q-8 -53 -57 -53h-182q-54 0 -54 45l5 72q-46 -63 -120 -100t-161 -37q-320 0 -320 364q0 96 21 213q52 295 168 435
q114 138 303 138q87 0 163 -40t99 -99l23 74q16 45 63 45h182q55 0 45 -55zM1059 1372q-29 -164 -174 -164q-89 0 -154 31l-63 27q-47 18 -74 18q-39 0 -51 -29l-4 -12q-15 -31 -52 -31h-67q-27 0 -37 15q-9 14 -2 51q29 168 178 168q71 0 150 -31l65 -29q44 -18 74 -18
q41 0 49 31l4 12q15 31 51 31h70q48 0 37 -70z" />
    <glyph glyph-name="adieresis.alt" unicode="&#xe00a;" horiz-adv-x="1120" 
d="M733 555q15 79 15 147q0 172 -132 172q-84 0 -135 -72q-52 -74 -82 -247q-18 -101 -18 -164q0 -155 125 -155q170 0 227 319zM1128 1055l-178 -1002q-8 -53 -57 -53h-182q-54 0 -54 45l5 72q-46 -63 -120 -100t-161 -37q-320 0 -320 364q0 96 21 213q52 295 168 435
q114 138 303 138q87 0 163 -40t99 -99l23 74q16 45 63 45h182q55 0 45 -55zM674 1384l-23 -120q-8 -52 -57 -52h-170q-53 0 -45 52l22 120q8 52 58 52h168q55 0 47 -52zM1061 1384l-21 -120q-12 -52 -59 -52h-170q-53 0 -45 52l22 120q8 52 58 52h170q53 0 45 -52z" />
    <glyph glyph-name="amacron.alt" unicode="&#xe00b;" horiz-adv-x="1120" 
d="M733 555q15 79 15 147q0 172 -132 172q-84 0 -135 -72q-52 -74 -82 -247q-18 -101 -18 -164q0 -155 125 -155q170 0 227 319zM1128 1055l-178 -1002q-8 -53 -57 -53h-182q-54 0 -54 45l5 72q-46 -63 -120 -100t-161 -37q-320 0 -320 364q0 96 21 213q52 295 168 435
q114 138 303 138q87 0 163 -40t99 -99l23 74q16 45 63 45h182q55 0 45 -55zM983 1223h-559q-50 0 -43 49l14 84q10 49 56 49h561q53 0 43 -49l-15 -84q-10 -49 -57 -49z" />
    <glyph glyph-name="abreve.alt" unicode="&#xe00c;" horiz-adv-x="1120" 
d="M733 555q15 79 15 147q0 172 -132 172q-84 0 -135 -72q-52 -74 -82 -247q-18 -101 -18 -164q0 -155 125 -155q170 0 227 319zM1128 1055l-178 -1002q-8 -53 -57 -53h-182q-54 0 -54 45l5 72q-46 -63 -120 -100t-161 -37q-320 0 -320 364q0 96 21 213q52 295 168 435
q114 138 303 138q87 0 163 -40t99 -99l23 74q16 45 63 45h182q55 0 45 -55zM715 1204q-149 0 -223 68t-56 166q6 41 43 41h94q22 0 32 -10q9 -9 7 -27q0 -92 113 -92q111 0 141 92q15 37 52 37h94q38 0 32 -41q-18 -102 -100 -168t-229 -66z" />
    <glyph glyph-name="aring.alt" unicode="&#xe00d;" horiz-adv-x="1120" 
d="M733 555q15 79 15 147q0 172 -132 172q-84 0 -135 -72q-52 -74 -82 -247q-18 -101 -18 -164q0 -155 125 -155q170 0 227 319zM1128 1055l-178 -1002q-8 -53 -57 -53h-182q-54 0 -54 45l5 72q-46 -63 -120 -100t-161 -37q-320 0 -320 364q0 96 21 213q52 295 168 435
q114 138 303 138q87 0 163 -40t99 -99l23 74q16 45 63 45h182q55 0 45 -55zM723 1315q44 0 76 28t32 74q0 36 -23 56t-63 20q-43 0 -76 -28q-32 -27 -32 -74q0 -33 25 -55q24 -21 61 -21zM758 1614q90 0 148 -51q59 -51 59 -129q0 -105 -72 -171q-73 -67 -184 -67
q-90 0 -148 50q-57 50 -57 128q0 105 70 172q71 68 184 68z" />
    <glyph glyph-name="aringacute.alt" unicode="&#xe00e;" horiz-adv-x="1120" 
d="M1128 1055l-178 -1002q-8 -53 -57 -53h-182q-54 0 -54 45l5 72q-46 -63 -120 -100t-161 -37q-320 0 -320 364q0 96 21 213q52 295 168 435q114 138 303 138q87 0 163 -40t99 -99l23 74q16 45 63 45h182q55 0 45 -55zM502 1374q0 76 40 134q41 59 107 87l78 129
q22 37 59 37h234q16 0 24 -9q9 -10 6 -23t-16 -25l-147 -129q76 -52 76 -141q0 -105 -72 -171q-73 -67 -184 -67q-90 0 -148 50q-57 50 -57 128zM733 555q15 79 15 147q0 173 -132 173q-83 0 -135 -73q-52 -74 -82 -247q-18 -101 -18 -164q0 -155 125 -155q170 0 227 319z
M721 1315q44 0 76 28t32 74q0 36 -23 56t-63 20q-43 0 -76 -28q-32 -27 -32 -74q0 -34 24 -55t62 -21z" />
    <glyph glyph-name="aogonek.alt" unicode="&#xe00f;" horiz-adv-x="1120" 
d="M1128 1055l-178 -1002q-8 -53 -57 -53h-25q-114 -69 -114 -137q0 -41 61 -41q19 0 35 4t25 4q22 0 22 -23l2 -71q0 -29 -27 -41q-58 -29 -129 -29q-79 0 -132 32q-52 31 -52 91q0 127 178 211h-26q-54 0 -54 45l5 72q-46 -63 -120 -100t-161 -37q-320 0 -320 364
q0 96 21 213q52 295 168 435q114 138 303 138q87 0 163 -40t99 -99l23 74q16 45 63 45h182q55 0 45 -55zM733 555q15 79 15 147q0 173 -132 173q-83 0 -135 -73q-52 -74 -82 -247q-18 -101 -18 -164q0 -155 125 -155q170 0 227 319z" />
    <glyph glyph-name="ij.alt" unicode="&#xe010;" horiz-adv-x="1017" 
d="M516 1055l-176 -1002q-12 -53 -59 -53h-205q-55 0 -47 53l178 1002q10 55 59 55h205q52 0 45 -55zM578 1389l-23 -125q-8 -54 -59 -54h-211q-53 0 -45 54l22 125q7 55 60 55h210q58 0 46 -55zM1018 1055l-217 -1227q-8 -53 -60 -53h-204q-53 0 -45 53l217 1227
q7 55 59 55h205q55 0 45 -55zM1079 1389l-22 -125q-8 -54 -60 -54h-211q-53 0 -45 54l23 125q10 55 59 55h211q57 0 45 -55z" />
    <glyph glyph-name="jcircumflex.alt" unicode="&#xe011;" horiz-adv-x="518" 
d="M516 1055l-217 -1227q-8 -53 -59 -53h-205q-53 0 -45 53l217 1227q10 55 59 55h205q52 0 45 -55zM502 1241l-86 96l-121 -96q-35 -29 -68 -29h-114q-25 0 -29 18q-4 17 14 34l199 182q31 29 74 29h123q46 0 67 -29l137 -182q12 -16 4 -34t-32 -18h-105q-39 0 -63 29z" />
    <glyph glyph-name="dotlessj.alt" unicode="&#xe012;" horiz-adv-x="516" 
d="M516 1055l-217 -1227q-8 -53 -59 -53h-205q-53 0 -45 53l217 1227q10 55 59 55h205q52 0 45 -55z" />
    <glyph glyph-name="ugrave.alt" unicode="&#xe013;" horiz-adv-x="1064" 
d="M469 -20q-399 0 -399 319q0 46 10 109l115 647q10 55 59 55h205q52 0 45 -55l-111 -629q-6 -38 -6 -66q0 -106 109 -106q70 0 108 41q36 39 53 131l111 629q10 55 61 55h203q53 0 47 -55l-114 -647q-40 -223 -160 -326q-119 -102 -336 -102zM735 1421l45 -166
q10 -43 -37 -43h-112q-45 0 -68 29l-135 160q-14 15 -6 37q7 20 33 20h227q43 0 53 -37z" />
    <glyph glyph-name="uacute.alt" unicode="&#xe014;" horiz-adv-x="1064" 
d="M469 -20q-399 0 -399 319q0 46 10 109l115 647q10 55 59 55h205q52 0 45 -55l-111 -629q-6 -38 -6 -66q0 -106 109 -106q70 0 108 41q36 39 53 131l111 629q10 55 61 55h203q53 0 47 -55l-114 -647q-40 -223 -160 -326q-119 -102 -336 -102zM561 1255l98 166q22 37 60 37
h233q17 0 25 -9t5 -24q-3 -13 -15 -24l-183 -160q-31 -29 -73 -29h-123q-22 0 -30 13q-8 12 3 30z" />
    <glyph glyph-name="ucircumflex.alt" unicode="&#xe015;" horiz-adv-x="1064" 
d="M469 -20q-399 0 -399 319q0 46 10 109l115 647q10 55 59 55h205q52 0 45 -55l-111 -629q-6 -38 -6 -66q0 -106 109 -106q70 0 108 41q36 39 53 131l111 629q10 55 61 55h203q53 0 47 -55l-114 -647q-40 -223 -160 -326q-119 -102 -336 -102zM776 1241l-86 96l-121 -96
q-35 -29 -67 -29h-115q-25 0 -29 18q-4 16 15 34l198 182q31 29 74 29h123q47 0 68 -29l137 -182q12 -16 4 -34t-33 -18h-104q-40 0 -64 29z" />
    <glyph glyph-name="utilde.alt" unicode="&#xe016;" horiz-adv-x="1064" 
d="M469 -20q-399 0 -399 319q0 46 10 109l115 647q10 55 59 55h205q52 0 45 -55l-111 -629q-6 -38 -6 -66q0 -106 109 -106q70 0 108 41q36 39 53 131l111 629q10 55 61 55h203q53 0 47 -55l-114 -647q-40 -223 -160 -326q-119 -102 -336 -102zM1022 1372
q-29 -164 -174 -164q-89 0 -154 31l-63 27q-45 18 -74 18q-39 0 -51 -29l-4 -12q-16 -31 -51 -31h-68q-27 0 -37 15q-9 14 -2 51q28 168 178 168q71 0 150 -31l65 -29q43 -18 74 -18q41 0 49 31l4 12q16 31 51 31h70q48 0 37 -70z" />
    <glyph glyph-name="udieresis.alt" unicode="&#xe017;" horiz-adv-x="1064" 
d="M469 -20q-399 0 -399 319q0 46 10 109l115 647q10 55 59 55h205q52 0 45 -55l-111 -629q-6 -38 -6 -66q0 -106 109 -106q70 0 108 41q36 39 53 131l111 629q10 55 61 55h203q53 0 47 -55l-114 -647q-40 -223 -160 -326q-119 -102 -336 -102zM637 1384l-23 -120
q-8 -52 -57 -52h-170q-53 0 -45 52l23 120q8 52 57 52h168q55 0 47 -52zM1024 1384l-20 -120q-12 -52 -60 -52h-170q-53 0 -45 52l23 120q8 52 57 52h170q53 0 45 -52z" />
    <glyph glyph-name="umacron.alt" unicode="&#xe018;" horiz-adv-x="1064" 
d="M469 -20q-399 0 -399 319q0 46 10 109l115 647q10 55 59 55h205q52 0 45 -55l-111 -629q-6 -38 -6 -66q0 -106 109 -106q70 0 108 41q36 39 53 131l111 629q10 55 61 55h203q53 0 47 -55l-114 -647q-40 -223 -160 -326q-119 -102 -336 -102zM946 1223h-559q-50 0 -43 49
l14 84q10 49 56 49h561q53 0 43 -49l-14 -84q-10 -49 -58 -49z" />
    <glyph glyph-name="ubreve.alt" unicode="&#xe019;" horiz-adv-x="1064" 
d="M469 -20q-399 0 -399 319q0 46 10 109l115 647q10 55 59 55h205q52 0 45 -55l-111 -629q-6 -38 -6 -66q0 -106 109 -106q70 0 108 41q36 39 53 131l111 629q10 55 61 55h203q53 0 47 -55l-114 -647q-40 -223 -160 -326q-119 -102 -336 -102zM678 1204q-149 0 -223 68
t-56 166q6 41 43 41h95q21 0 31 -10q9 -9 7 -27q0 -92 113 -92q111 0 141 92q15 37 52 37h94q39 0 33 -41q-18 -102 -101 -168t-229 -66z" />
    <glyph glyph-name="uring.alt" unicode="&#xe01a;" horiz-adv-x="1064" 
d="M469 -20q-399 0 -399 319q0 46 10 109l115 647q10 55 59 55h205q52 0 45 -55l-111 -629q-6 -38 -6 -66q0 -106 109 -106q70 0 108 41q36 39 53 131l111 629q10 55 61 55h203q53 0 47 -55l-114 -647q-40 -223 -160 -326q-119 -102 -336 -102zM686 1315q44 0 76 28
q33 29 33 74q0 35 -24 56q-23 20 -62 20q-44 0 -77 -28q-32 -27 -32 -74q0 -33 25 -55q24 -21 61 -21zM721 1614q89 0 148 -51t59 -129q0 -105 -72 -171q-73 -67 -184 -67q-90 0 -148 50q-57 50 -57 128q0 104 71 172t183 68z" />
    <glyph glyph-name="uhungarumlaut.alt" unicode="&#xe01b;" horiz-adv-x="1064" 
d="M469 -20q-399 0 -399 319q0 46 10 109l115 647q10 55 59 55h205q52 0 45 -55l-111 -629q-6 -38 -6 -66q0 -106 109 -106q70 0 108 41q36 39 53 131l111 629q10 55 61 55h203q53 0 47 -55l-114 -647q-40 -223 -160 -326q-119 -102 -336 -102zM373 1255l94 166q21 37 59 37
h197q25 0 29 -19t-15 -38l-157 -160q-29 -29 -72 -29h-107q-49 0 -28 43zM735 1255l94 166q21 37 60 37h194q26 0 30 -20q4 -21 -13 -37l-158 -160q-29 -29 -74 -29h-106q-21 0 -29 13t2 30z" />
    <glyph glyph-name="ydieresis.alt" unicode="&#xe01c;" horiz-adv-x="1060" 
d="M625 195l10 61q-105 -125 -275 -125q-134 0 -205 68t-71 196q0 42 10 101l101 559q10 55 59 55h205q52 0 45 -55l-88 -492q-8 -56 -8 -69q0 -95 90 -95q71 0 118 55q48 55 64 150l80 451q10 55 61 55h203q57 0 47 -55l-156 -881q-73 -420 -534 -420q-223 0 -330 51
q-43 22 -31 66l39 131q16 55 72 37q128 -43 231 -43q119 0 182 48t81 151zM635 1384l-23 -120q-8 -52 -57 -52h-170q-53 0 -45 52l23 120q8 52 57 52h168q55 0 47 -52zM1022 1384l-21 -120q-12 -52 -59 -52h-170q-53 0 -45 52l23 120q8 52 57 52h170q53 0 45 -52z" />
    <glyph glyph-name="yacute.alt" unicode="&#xe01d;" horiz-adv-x="1060" 
d="M625 195l10 61q-105 -125 -275 -125q-134 0 -205 68t-71 196q0 42 10 101l101 559q10 55 59 55h205q52 0 45 -55l-88 -492q-8 -56 -8 -69q0 -95 90 -95q71 0 118 55q48 55 64 150l80 451q10 55 61 55h203q57 0 47 -55l-156 -881q-73 -420 -534 -420q-223 0 -330 51
q-43 22 -31 66l39 131q16 55 72 37q128 -43 231 -43q119 0 182 48t81 151zM549 1255l98 166q22 37 60 37h233q18 0 25 -9q8 -9 5 -24q-2 -12 -16 -24l-182 -160q-31 -29 -74 -29h-123q-21 0 -29 13q-8 12 3 30z" />
    <glyph glyph-name="ycircumflex.alt" unicode="&#xe01e;" horiz-adv-x="1060" 
d="M625 195l10 61q-105 -125 -275 -125q-134 0 -205 68t-71 196q0 42 10 101l101 559q10 55 59 55h205q52 0 45 -55l-88 -492q-8 -56 -8 -69q0 -95 90 -95q71 0 118 55q48 55 64 150l80 451q10 55 61 55h203q57 0 47 -55l-156 -881q-73 -420 -534 -420q-223 0 -330 51
q-43 22 -31 66l39 131q16 55 72 37q128 -43 231 -43q119 0 182 48t81 151zM772 1241l-86 96l-121 -96q-35 -29 -67 -29h-115q-25 0 -29 18q-4 16 15 34l198 182q31 29 74 29h123q46 0 67 -29l138 -182q12 -16 4 -34q-7 -18 -33 -18h-104q-40 0 -64 29z" />
    <glyph glyph-name="ygrave.alt" unicode="&#xe01f;" horiz-adv-x="1060" 
d="M625 195l10 61q-105 -125 -275 -125q-134 0 -205 68t-71 196q0 42 10 101l101 559q10 55 59 55h205q52 0 45 -55l-88 -492q-8 -56 -8 -69q0 -95 90 -95q71 0 118 55q48 55 64 150l80 451q10 55 61 55h203q57 0 47 -55l-156 -881q-73 -420 -534 -420q-223 0 -330 51
q-43 22 -31 66l39 131q16 55 72 37q128 -43 231 -43q119 0 182 48t81 151zM731 1421l45 -166q10 -43 -37 -43h-112q-45 0 -68 29l-135 160q-14 15 -6 37q7 20 33 20h227q43 0 53 -37z" />
    <glyph glyph-name="i.dot" unicode="&#xe020;" horiz-adv-x="516" 
d="M516 1055l-176 -1002q-12 -53 -59 -53h-205q-55 0 -47 53l178 1002q10 55 59 55h205q52 0 45 -55zM578 1389l-23 -125q-8 -54 -59 -54h-211q-53 0 -45 54l22 125q7 55 60 55h210q58 0 46 -55z" />
    <glyph glyph-name="dollar.old" unicode="&#xe021;" horiz-adv-x="1003" 
d="M750 1337l-21 -118q150 -7 232 -46q47 -18 30 -63l-55 -147q-18 -52 -76 -37q-102 30 -211 30q-180 0 -180 -106q0 -50 96 -102q6 -3 68 -33q2 -1 22 -13q62 -29 98 -54q41 -28 80 -64q41 -38 62 -91q20 -50 20 -116q0 -163 -108 -262q-107 -98 -295 -125l-23 -123
q-7 -45 -51 -45h-84q-50 0 -39 45l21 115q-196 7 -299 53q-30 13 -35 23q-6 11 2 40l57 154q21 56 74 33q95 -39 242 -39q209 0 209 112q0 11 -3 20q-3 8 -10 17q-2 2 -6 7.5t-6 8.5q-6 7 -18 15l-22 14q-17 11 -26 15q-7 3 -16 7.5t-12 5.5q-14 6 -32 15l-34 17
q-123 55 -193 128q-69 72 -69 193q0 176 110 277t304 119l20 120q7 45 52 45h84q47 0 41 -45z" />
    <glyph glyph-name="cent.old" unicode="&#xe022;" horiz-adv-x="966" 
d="M92 602q51 289 188 440q136 149 357 172l20 125q7 45 52 45h86q47 0 39 -45l-21 -122q109 -10 182 -50q41 -18 25 -61l-66 -158q-16 -46 -65 -30q-69 26 -158 26q-129 0 -206 -80q-76 -79 -109 -262q-13 -80 -13 -131q0 -113 53 -163t154 -50q84 0 174 27q53 17 58 -29
l6 -160q0 -38 -47 -61q-61 -34 -205 -49l-23 -119q-6 -45 -49 -45h-86q-46 0 -39 45l23 121q-162 18 -254 124t-92 304q0 81 16 186z" />
    <glyph glyph-name="sterling.old" unicode="&#xe023;" horiz-adv-x="1110" 
d="M242 524h-121q-43 0 -35 39l12 70q6 39 45 39h62q-21 74 -21 121q0 205 146 316q147 112 354 112q196 0 299 -77q102 -77 102 -218q0 -146 -59 -146h-180q-43 0 -43 17l4 12q5 12 9 30q5 20 5 31q0 95 -141 95q-89 0 -139 -58q-49 -56 -49 -145q0 -46 12 -90h235
q43 0 37 -39l-12 -70q-8 -39 -47 -39h-197q2 -86 -37 -159q-40 -75 -104 -123q55 18 115 18q39 0 90 -11t88 -11q90 0 112 100q12 45 56 45h145q57 0 47 -61q-27 -166 -90 -253t-192 -87q-76 0 -190 24q-119 25 -175 25q-125 0 -225 -41q-41 -17 -56 6l-75 149q-18 34 20 56
q226 148 193 323z" />
    <glyph glyph-name="yen.old" unicode="&#xe024;" horiz-adv-x="1079" 
d="M885 254h-226l-34 -201q-11 -53 -60 -53h-213q-58 0 -47 53l37 201h-221q-43 0 -35 39l12 65q6 39 45 39h226l6 37l-29 88h-176q-43 0 -37 39l12 68q6 39 45 39h113l-149 473q-8 26 3 44q12 19 44 19h213q52 0 63 -45l98 -463h7l262 463q27 45 74 45h215q31 0 39 -21
t-9 -42l-319 -473h110q43 0 37 -39l-12 -68q-7 -39 -45 -39h-184l-58 -88l-6 -37h221q43 0 37 -39l-12 -65q-7 -39 -47 -39z" />
    </font>
</defs>
</svg>
