<?xml version="1.0" standalone="no"?>
<!DOCTYPE svg PUBLIC "-//W3C//DTD SVG 1.1//EN" "http://www.w3.org/Graphics/SVG/1.1/DTD/svg11.dtd" >
<svg xmlns="http://www.w3.org/2000/svg" xmlns:xlink="http://www.w3.org/1999/xlink" version="1.1">
<metadata>
Created by FontForge 20170731 at Mon Nov 21 16:50:46 2022
 By Aleksey,,,
(c) 2012, 2013, 2014, 2015 by Stawix Ruecha &#38; Foundry. All rights reserved.
</metadata>
<defs>
<font id="AmsiProNarw-LightItalic" horiz-adv-x="712" >
  <font-face 
    font-family="AmsiProNarw-LightItalic"
    font-weight="400"
    font-style="italic"
    font-stretch="semi-condensed"
    units-per-em="2048"
    panose-1="2 11 10 6 2 2 1 1 1 4"
    ascent="1751"
    descent="-297"
    x-height="1067"
    cap-height="1436"
    bbox="-457.8 -573 2458 2130"
    underline-thickness="71"
    underline-position="-206"
    slope="-10"
    unicode-range="U+0020-FB4E"
  />
<missing-glyph horiz-adv-x="1007" 
d="M0 1413h1008v-1413h-1008v1413zM504 797l344 516h-686zM848 100h-2l-342 516l-342 -516h686zM100 1223v-1030l344 514zM907 193v1030l-344 -516z" />
    <glyph glyph-name="f_f" unicode="ff" horiz-adv-x="1087" 
d="M913 1067h215q25 0 19 -25l-8 -53q-6 -22 -29 -22h-215l-166 -944q-6 -23 -24 -23h-68q-25 0 -19 23l166 944h-387l-166 -944q-6 -23 -24 -23h-66q-22 0 -20 23l166 944h-129q-20 0 -19 22l8 53q6 25 29 25h129l19 104q24 142 90 209q66 68 180 68q70 0 113 -14
q14 -1 12 -27l-10 -45q0 -27 -27 -21q-40 7 -80 7q-74 0 -114 -42q-39 -40 -54 -141l-18 -98h387l16 94q27 149 91 218t188 69q71 0 112 -14q15 -1 13 -27l-9 -45q-4 -27 -28 -21q-35 7 -80 7q-78 0 -119 -44t-59 -149z" />
    <glyph glyph-name="fi" unicode="fi" horiz-adv-x="948" 
d="M905 1042l-178 -1019q-6 -23 -27 -23h-65q-27 0 -21 23l166 944h-383l-166 -944q-6 -23 -24 -23h-66q-22 0 -20 23l166 944h-129q-20 0 -19 22l8 53q6 25 29 25h129l19 100q24 142 89 212q65 69 177 69q76 0 117 -14q14 -5 12 -27l-10 -45q0 -26 -29 -21q-72 7 -82 7
q-71 0 -111 -43t-55 -144l-18 -94h473q23 0 18 -25zM971 1413l-29 -156q0 -22 -27 -22h-63q-22 0 -21 22l29 156q6 23 27 23h65q25 0 19 -23z" />
    <glyph glyph-name="fl" unicode="fl" horiz-adv-x="952" 
d="M971 1393l-242 -1370q-6 -23 -24 -23h-68q-25 0 -19 23l232 1316q-89 13 -154 13q-128 0 -189 -53q-61 -54 -79 -162l-14 -70h180q22 0 16 -25l-8 -53q-6 -22 -27 -22h-178l-166 -944q-6 -23 -24 -23h-66q-22 0 -20 23l166 944h-129q-20 0 -19 22l8 53q6 25 29 25h129
l12 74q28 157 115 235q85 76 268 76q153 0 252 -31q23 -8 19 -28z" />
    <glyph glyph-name="f_f_i" unicode="ffi" horiz-adv-x="1443" 
d="M1401 1042l-178 -1019q-5 -23 -27 -23h-66q-23 0 -18 23l166 944h-383l-166 -944q-6 -23 -24 -23h-68q-25 0 -19 23l166 944h-387l-166 -944q-6 -23 -24 -23h-66q-22 0 -20 23l166 944h-129q-20 0 -19 22l8 53q6 25 29 25h129l19 104q24 142 90 209q66 68 180 68
q78 0 113 -14q14 -1 12 -27l-10 -45q0 -27 -27 -21q-40 7 -80 7q-74 0 -114 -42q-39 -40 -54 -141l-18 -98h387l16 104q27 142 91 209q65 68 182 68q69 0 110 -14q14 -1 12 -27l-8 -45q-4 -27 -26 -21q-39 7 -80 7q-74 0 -114 -42q-39 -41 -56 -141l-17 -98h469q25 0 19 -25
zM1468 1413l-28 -156q-6 -22 -27 -22h-65q-25 0 -19 22l29 156q2 23 26 23h64q26 0 20 -23z" />
    <glyph glyph-name="f_f_l" unicode="ffl" horiz-adv-x="1447" 
d="M895 967l-166 -944q-6 -23 -24 -23h-68q-25 0 -19 23l166 944h-387l-166 -944q-6 -23 -24 -23h-66q-22 0 -20 23l166 944h-129q-20 0 -19 22l8 53q6 25 29 25h129l19 104q24 142 90 209q66 68 180 68q70 0 113 -14q14 -1 12 -27l-10 -45q0 -27 -27 -21q-40 7 -80 7
q-74 0 -114 -42q-39 -40 -54 -141l-18 -98h387l12 74q28 158 114 235q85 76 269 76q151 0 250 -31q22 -7 18 -30l-239 -1368q-6 -23 -27 -23h-65q-25 0 -19 23l230 1316q-84 13 -154 13q-126 0 -187 -52t-79 -163l-13 -70h179q18 0 16 -25l-8 -53q-6 -22 -27 -22h-178z" />
    <glyph glyph-name="f_b" unicode="fb" horiz-adv-x="1591" 
d="M819 535q-18 -99 -18 -173q0 -280 233 -280q284 0 367 453q16 111 16 188q0 264 -221 264q-293 0 -377 -452zM971 1393l-92 -518q50 99 139 156q87 56 201 56q151 0 232 -91q81 -92 81 -265q0 -82 -19 -196q-96 -553 -462 -553q-118 0 -198 56q-81 57 -97 155l-29 -170
q-5 -23 -25 -23h-65q-25 0 -19 23l232 1316q-89 13 -154 13q-128 0 -189 -52t-79 -163l-12 -70h178q21 0 16 -25l-8 -53q-1 -22 -27 -22h-178l-166 -944q-6 -23 -24 -23h-66q-22 0 -20 23l166 944h-129q-20 0 -19 22l8 53q5 25 29 25h129l12 74q27 157 114 234q88 77 269 77
q153 0 252 -31q23 -8 19 -28z" />
    <glyph glyph-name="f_f_b" unicode="ffb" horiz-adv-x="2088" 
d="M1315 535q-17 -91 -17 -173q0 -280 234 -280q145 0 234 112q90 112 130 341q21 118 21 188q0 264 -225 264q-143 0 -241 -115q-97 -113 -136 -337zM1466 1393l-90 -519q51 99 140 156t200 57q152 0 233 -91q81 -92 81 -265q0 -94 -21 -199q-100 -550 -463 -550
q-117 0 -195 56q-80 58 -98 155l-28 -170q-5 -23 -27 -23h-63q-25 0 -19 23l230 1316q-84 13 -154 13q-126 0 -187 -52t-79 -163l-13 -70h179q22 0 16 -25l-6 -53q-4 -22 -29 -22h-178l-166 -944q-5 -23 -24 -23h-68q-25 0 -19 23l166 944h-387l-166 -944q-6 -23 -24 -23
h-66q-22 0 -20 23l166 944h-129q-20 0 -19 22l8 53q5 25 29 25h129l19 104q44 277 270 277q70 0 113 -14q17 -4 12 -27l-10 -45q-5 -25 -27 -21q-40 7 -80 7q-73 0 -113 -43t-55 -140l-18 -98h387l12 74q27 158 113 235q85 76 270 76q151 0 250 -31q22 -10 18 -28z" />
    <glyph glyph-name="f_h" unicode="fh" horiz-adv-x="1564" 
d="M971 1393l-86 -496q112 190 336 190q156 0 223 -94t37 -256l-125 -714q-6 -23 -27 -23h-63q-28 0 -23 23l125 702q46 258 -180 258q-130 0 -225 -88q-97 -89 -119 -227l-115 -645q-6 -23 -24 -23h-68q-25 0 -19 23l232 1316q-89 13 -154 13q-128 0 -189 -52t-79 -163
l-12 -70h178q22 0 16 -25l-8 -53q-6 -22 -27 -22h-178l-166 -944q-6 -23 -24 -23h-66q-22 0 -20 23l166 944h-129q-20 0 -19 22l8 53q6 25 29 25h129l12 74q28 157 115 235q85 76 268 76q153 0 252 -31q23 -8 19 -28z" />
    <glyph glyph-name="f_f_h" unicode="ffh" horiz-adv-x="2060" 
d="M1466 1393l-86 -496q112 190 336 190q156 0 223 -94t39 -256l-125 -714q-6 -23 -26 -23h-66q-26 0 -20 23l125 702q44 258 -180 258q-133 0 -228 -88q-97 -89 -119 -227l-112 -645q-6 -23 -27 -23h-65q-25 0 -19 23l230 1316q-84 13 -154 13q-126 0 -187 -52t-79 -163
l-13 -70h179q22 0 16 -25l-6 -53q-6 -22 -29 -22h-178l-166 -944q-6 -23 -24 -23h-68q-25 0 -19 23l166 944h-387l-166 -944q-6 -23 -24 -23h-66q-22 0 -20 23l166 944h-129q-20 0 -19 22l8 53q6 25 29 25h129l19 104q24 141 89 209t177 68q74 0 117 -14q14 -1 12 -27
l-10 -45q0 -27 -27 -21q-40 7 -80 7q-74 0 -114 -42q-39 -40 -54 -141l-18 -98h387l12 74q28 158 114 235q85 76 269 76q151 0 250 -31q24 -7 18 -28z" />
    <glyph glyph-name="f_j" unicode="fj" horiz-adv-x="950" 
d="M909 1042l-184 -1038q-21 -127 -70 -182t-149 -55q-56 0 -92 10q-21 2 -17 24l9 54q4 25 28 18q28 -6 62 -6q51 0 78 34q27 35 42 111l168 955h-387l-166 -944q-6 -23 -24 -23h-66q-22 0 -20 23l166 944h-129q-20 0 -19 22l8 53q6 25 29 25h129l19 104q24 142 90 209
q66 68 180 68q70 0 113 -14q14 -1 12 -27l-10 -45q0 -27 -27 -21q-40 7 -80 7q-74 0 -114 -42q-39 -40 -54 -141l-18 -98h475q23 0 18 -25zM975 1413l-29 -156q-1 -22 -26 -22h-64q-26 0 -20 22l28 156q6 23 27 23h63q27 0 21 -23z" />
    <glyph glyph-name="f_f_j" unicode="ffj" horiz-adv-x="1445" 
d="M1405 1042l-182 -1038q-22 -126 -72 -182q-49 -55 -152 -55q-47 0 -90 10q-20 1 -14 24l8 54q2 23 27 18q28 -6 61 -6q51 0 80 35q28 34 43 112l166 953h-385l-166 -944q-6 -23 -24 -23h-68q-25 0 -19 23l166 944h-387l-166 -944q-6 -23 -24 -23h-66q-22 0 -20 23
l166 944h-129q-20 0 -19 22l8 53q6 25 29 25h129l19 104q24 142 90 209q66 68 180 68q70 0 113 -14q14 -1 12 -27l-10 -45q0 -27 -27 -21q-40 7 -80 7q-74 0 -114 -42q-39 -40 -54 -141l-18 -98h387l16 104q27 142 91 209q65 68 182 68q69 0 110 -14q18 -4 12 -27l-8 -45
q-4 -27 -26 -21q-39 7 -80 7q-74 0 -114 -42q-39 -41 -56 -141l-17 -98h473q25 0 19 -25zM1473 1413l-29 -156q-6 -22 -27 -22h-65q-22 0 -21 22l29 156q2 23 26 23h66q23 0 21 -23z" />
    <glyph glyph-name="f_k" unicode="fk" horiz-adv-x="1396" 
d="M973 1393l-129 -723l452 383q17 14 39 14h103q16 0 17 -11q2 -13 -13 -20l-533 -440l373 -565q8 -11 3 -21q-4 -10 -19 -10h-82q-24 0 -35 18l-330 517l-88 -512q-6 -23 -26 -23h-66q-27 0 -21 23l232 1316q-89 13 -154 13q-128 0 -189 -52t-79 -163l-12 -70h178
q22 0 16 -25l-8 -53q-4 -22 -27 -22h-178l-166 -944q-6 -23 -24 -23h-66q-22 0 -20 23l166 944h-129q-20 0 -19 22l8 53q6 25 29 25h129l12 74q27 157 114 234q88 77 269 77q153 0 252 -31q22 -7 21 -28z" />
    <glyph glyph-name="f_f_k" unicode="ffk" horiz-adv-x="1890" 
d="M1468 1393l-129 -723l453 383q17 14 41 14h102q8 0 13 -5q4 -4 1 -12q-3 -6 -12 -14l-530 -440l371 -565q8 -11 3 -21q-4 -10 -20 -10h-82q-22 0 -34 18l-330 517l-88 -512q-5 -23 -27 -23h-65q-25 0 -19 23l230 1316q-84 13 -154 13q-126 0 -187 -52t-79 -163l-13 -70
h179q18 0 16 -25l-8 -53q-4 -22 -27 -22h-178l-166 -944q-6 -23 -24 -23h-68q-25 0 -19 23l166 944h-387l-166 -944q-6 -23 -24 -23h-66q-22 0 -20 23l166 944h-129q-20 0 -19 22l8 53q6 25 29 25h129l19 104q44 277 270 277q70 0 113 -14q14 -1 12 -27l-10 -45
q-5 -25 -27 -21q-40 7 -80 7q-73 0 -113 -43t-55 -140l-18 -98h387l12 74q27 157 113 234t270 77q150 0 252 -31q20 -10 18 -28z" />
    <glyph glyph-name="f_t" unicode="ft" horiz-adv-x="1120" 
d="M416 1067h391l43 248q2 24 27 24h61q20 0 20 -24l-45 -248h226q25 0 20 -25l-8 -53q-6 -22 -29 -22h-227l-119 -676q-23 -118 1 -159q24 -42 112 -42q45 0 84 10q12 2 17 -3t3 -17l-6 -51q-1 -21 -24 -27q-53 -12 -97 -12q-133 0 -182 65t-20 230l120 682h-387l-166 -944
q-6 -23 -24 -23h-66q-22 0 -20 23l166 944h-129q-20 0 -19 22l8 53q6 25 29 25h129l19 104q24 142 90 209q66 68 180 68q70 0 113 -14q14 -1 12 -27l-10 -45q0 -27 -27 -21q-40 7 -80 7q-74 0 -114 -42q-39 -40 -54 -141z" />
    <glyph glyph-name="f_f_t" unicode="fft" horiz-adv-x="1617" 
d="M803 1067l16 104q27 142 91 209q65 68 182 68q69 0 110 -14q14 -1 12 -27l-8 -45q-4 -27 -26 -21q-39 7 -80 7q-74 0 -114 -43q-39 -42 -56 -142l-17 -96h387l46 248q2 24 26 24h62q24 0 18 -24l-43 -248h229q23 0 17 -23l-10 -55q-1 -22 -25 -22h-229l-119 -676
q-21 -117 3 -159t109 -42q16 0 80 10q11 2 16 -3t3 -17l2 -49q0 -21 -21 -27q-35 -14 -100 -14q-133 0 -182 65q-49 66 -21 232l121 680h-387l-166 -944q-6 -23 -24 -23h-68q-25 0 -19 23l166 944h-387l-166 -944q-6 -23 -24 -23h-66q-22 0 -20 23l166 944h-129
q-20 0 -19 22l8 53q6 25 29 25h129l19 104q24 142 90 209q66 68 180 68q70 0 113 -14q14 -1 12 -27l-10 -45q0 -27 -27 -21q-40 7 -80 7q-74 0 -114 -42q-39 -40 -54 -141l-18 -98h387z" />
    <glyph glyph-name="t_t" unicode="tt" horiz-adv-x="1114" 
d="M1114 967h-227l-119 -676q-21 -117 3 -159t110 -42q16 0 80 10q11 2 15 -3q5 -5 5 -17v-49q0 -21 -23 -27q-32 -14 -100 -14q-131 0 -180 65q-50 67 -23 230l123 682h-393l-119 -676q-21 -116 1 -159q21 -42 104 -42q39 0 78 10q11 2 15 -3q5 -5 5 -17l2 -49
q0 -21 -22 -27q-35 -14 -99 -14q-128 0 -174 65q-47 66 -18 230l118 682h-129q-26 0 -20 22l10 53q2 25 27 25h133l43 258q6 25 29 25h61q25 0 19 -25l-46 -258h394l47 258q2 25 26 25h62q20 0 18 -25l-45 -258h230q22 0 16 -25l-8 -53q-1 -22 -29 -22z" />
    <glyph glyph-name="t_t_f" unicode="ttf" horiz-adv-x="1587" 
d="M887 967l-119 -676q-21 -117 3 -159t110 -42q45 0 84 10q12 1 16 -3t2 -17l-4 -51q-1 -21 -25 -27q-52 -12 -96 -12q-130 0 -180 66t-21 233l121 678h-393l-119 -676q-21 -116 1 -159q21 -42 104 -42q19 0 78 10q11 2 15 -3q5 -5 5 -17l2 -49q0 -21 -22 -27
q-35 -14 -99 -14q-127 0 -175 66q-47 65 -17 233l118 678h-129q-26 0 -20 22l10 53q2 25 27 25h133l43 258q6 25 29 25h61q25 0 19 -25l-46 -258h394l47 258q2 25 26 25h62q20 0 18 -25l-45 -258h400l14 94q27 150 92 218q66 69 186 69q72 0 113 -14q14 -1 14 -27l-10 -45
q-4 -27 -28 -21q-35 7 -80 7q-77 0 -118 -44q-40 -43 -58 -149l-15 -88h215q22 0 17 -25l-9 -53q-6 -22 -28 -22h-213l-168 -944q-2 -23 -27 -23h-65q-21 0 -19 23l166 944h-397z" />
    <glyph glyph-name=".notdef" horiz-adv-x="1007" 
d="M0 1413h1008v-1413h-1008v1413zM504 797l344 516h-686zM848 100h-2l-342 516l-342 -516h686zM100 1223v-1030l344 514zM907 193v1030l-344 -516z" />
    <glyph glyph-name=".null" horiz-adv-x="0" 
 />
    <glyph glyph-name="nonmarkingreturn" horiz-adv-x="681" 
 />
    <glyph glyph-name="space" unicode=" " horiz-adv-x="509" 
 />
    <glyph glyph-name="exclam" unicode="!" horiz-adv-x="479" 
d="M86 23l27 141q4 22 24 22h105q22 0 18 -22l-24 -141q-6 -23 -25 -23h-105q-25 0 -20 23zM250 387h-49q-25 0 -19 25l156 1001q5 23 29 23h88q24 0 18 -23l-194 -1001q-6 -25 -29 -25z" />
    <glyph glyph-name="quotedbl" unicode="&#x22;" horiz-adv-x="593" 
d="M362 1276l-71 -283h-58l27 283q5 51 19 129q11 63 65 63q62 0 47 -63q-6 -37 -29 -129zM618 1276l-71 -283h-58l27 283q5 51 19 129q6 37 20 50t47 13q59 0 43 -65q-10 -51 -27 -127z" />
    <glyph glyph-name="numbersign" unicode="#" horiz-adv-x="1126" 
d="M1180 1411l-176 -397h161q23 0 21 -25l-8 -45q-1 -22 -27 -22h-188l-183 -406h162q25 0 19 -24l-9 -46q-4 -22 -26 -22h-187l-186 -422q-10 -26 -31 -20l-47 16q-20 4 -12 29l176 397h-328l-186 -422q-10 -26 -31 -20l-47 16q-24 5 -12 29l176 397h-164q-21 0 -20 22
l10 46q0 24 26 24h189l180 406h-162q-17 0 -16 22l6 45q2 25 29 25h184l186 422q7 22 33 16l47 -12q24 -6 13 -29l-179 -397h328l189 422q10 23 30 16l47 -12q21 -6 13 -29zM532 922l-180 -406h330l176 406h-326z" />
    <glyph glyph-name="dollar" unicode="$" horiz-adv-x="952" 
d="M733 1608l-26 -154q140 -1 247 -45q23 -11 13 -31l-27 -53q-11 -26 -35 -18q-106 41 -233 41q-142 0 -243 -76t-101 -215q0 -39 15 -74q13 -31 29 -55q13 -20 57 -55q43 -35 57 -42q17 -9 71 -45q86 -54 110 -71q41 -30 88 -75q49 -48 72 -105q23 -58 23 -127
q0 -170 -110 -282q-111 -112 -287 -136l-29 -162q-5 -23 -27 -23h-47q-23 0 -18 23l26 154q-204 0 -321 55q-25 11 -19 29l29 55q12 24 35 16q122 -49 287 -49q143 0 253 84q109 84 109 227q0 24 -4 43q-5 21 -9 36q-4 14 -19 34q-4 5 -20 31q-7 11 -28 29q-6 6 -16 14
t-13 11q-6 5 -36 25q-24 16 -34 22q-1 1 -14 9t-25 16q-9 5 -18 10.5t-13.5 8.5t-6.5 4q-126 76 -197 157q-71 82 -71 204q0 170 110 274q111 105 295 123l27 158q6 22 29 22h47q24 0 18 -22z" />
    <glyph glyph-name="percent" unicode="%" horiz-adv-x="1597" 
d="M1405 1411l-1014 -1391q-16 -20 -35 -20h-65q-29 0 -10 25l1011 1392q19 19 35 19h68q26 0 10 -25zM178 1040q34 201 123 306q88 104 221 104q113 0 176 -71q64 -72 64 -205q0 -35 -12 -134q-73 -407 -347 -407q-115 0 -176 69q-61 68 -61 207q0 62 12 131zM645 1040
q14 80 14 129q0 187 -141 187q-186 0 -237 -316q-15 -69 -15 -127q0 -188 140 -188q184 0 239 315zM936 395q72 410 346 410q112 0 175 -71q63 -70 63 -206q0 -53 -13 -133q-34 -199 -124 -304q-88 -103 -222 -103q-112 0 -175 70q-62 69 -62 202q0 62 12 135zM1405 395
q12 73 12 129q0 187 -141 187q-182 0 -238 -316q-14 -77 -14 -127q0 -186 141 -186q183 0 240 313z" />
    <glyph glyph-name="ampersand" unicode="&#x26;" horiz-adv-x="1253" 
d="M1147 618q0 -213 -139 -397l120 -196q7 -9 2 -17t-14 -8h-84q-23 0 -33 14l-71 125q-161 -155 -414 -155q-201 0 -320 94q-120 94 -120 258q0 186 112 326q112 141 301 202l-30 54q-64 110 -64 219q0 151 102 235t267 84q131 0 209 -35q23 -10 16 -30l-24 -45
q-12 -22 -39 -15q-69 27 -160 27q-108 0 -184 -54t-76 -163q0 -82 65 -193l379 -641q94 128 94 326q0 26 23 26h59q23 0 23 -41zM520 86q221 0 350 135l-331 563q-149 -46 -245 -161q-97 -116 -97 -271q0 -125 85 -195q86 -71 238 -71z" />
    <glyph glyph-name="quotesingle" unicode="'" horiz-adv-x="339" 
d="M362 1276l-71 -283h-58l27 283q5 51 19 129q11 63 65 63q62 0 47 -63q-6 -37 -29 -129z" />
    <glyph glyph-name="parenleft" unicode="(" horiz-adv-x="600" 
d="M158 354q0 287 118 569q118 283 326 515q14 14 33 14h53q11 0 13 -8q1 -8 -5 -14q-193 -220 -307 -505q-115 -287 -115 -577q0 -308 134 -561q5 -25 -17 -25h-53q-18 0 -29 15q-151 268 -151 577z" />
    <glyph glyph-name="parenright" unicode=")" horiz-adv-x="600" 
d="M492 862q0 -285 -119 -571q-118 -283 -326 -514q-15 -15 -33 -15h-53q-11 0 -13 9q-2 8 5 16q194 220 309 505q115 286 115 574q0 324 -135 564q-4 7 1 15q4 7 17 7h53q20 0 27 -14q152 -269 152 -576z" />
    <glyph glyph-name="asterisk" unicode="*" horiz-adv-x="747" 
d="M436 817q-25 0 -32 11q-7 12 -3 40q0 1 10 36t18 67q27 101 32 123q-45 -27 -110 -69q-75 -48 -99 -60q-50 -27 -66 10q-12 36 37 63q13 7 103 46q7 3 116 51q-23 13 -69 35q-21 10 -72 37q-24 12 -43 26q-43 23 -14 61q24 38 69 11q8 -5 75 -60q57 -47 87 -69
q5 38 9 119q4 77 10 106q11 53 53 53q25 0 31 -11q6 -13 2 -42q-4 -21 -60 -225q15 9 79 49q11 7 28.5 18t30 18.5t21.5 13.5q34 21 52 30q51 24 66 -9q10 -40 -37 -65q-13 -8 -53 -25q-13 -6 -43 -18t-43 -17q-79 -33 -82 -34q31 -17 103 -55q78 -41 83 -44q38 -28 14 -61
q-26 -36 -69 -12q-20 13 -76 59q-61 50 -88 70q-15 -198 -21 -226q-6 -51 -49 -51z" />
    <glyph glyph-name="plus" unicode="+" horiz-adv-x="1067" 
d="M973 670h-352l-70 -391q-1 -21 -25 -21h-59q-23 0 -21 21l70 391h-352q-25 0 -19 20l11 55q0 23 26 23h350l68 385q6 25 29 25h59q21 0 19 -25l-70 -385h352q23 0 23 -23l-13 -55q-1 -20 -26 -20z" />
    <glyph glyph-name="comma" unicode="," horiz-adv-x="385" 
d="M176 0l-88 -186q-8 -17 -29 -17h-26q-19 0 -8 23l71 180h-33q-26 0 -20 23l25 137q2 24 26 24h96q23 0 19 -24l-23 -129q-1 -12 -10 -31z" />
    <glyph glyph-name="hyphen" unicode="-" horiz-adv-x="671" 
d="M569 494h-460q-23 0 -17 20l8 55q2 21 27 21h459q26 0 20 -21l-10 -55q-1 -20 -27 -20z" />
    <glyph glyph-name="period" unicode="." horiz-adv-x="385" 
d="M43 23l25 137q2 24 26 24h96q23 0 19 -24l-23 -137q-6 -23 -26 -23h-97q-26 0 -20 23z" />
    <glyph glyph-name="slash" unicode="/" horiz-adv-x="708" 
d="M-57 27l798 1388q12 21 35 21h64q30 0 14 -27l-801 -1386q-8 -23 -33 -23h-63q-26 0 -14 27z" />
    <glyph glyph-name="zero" unicode="0" horiz-adv-x="1142" 
d="M731 1456q182 0 279 -115q96 -114 96 -340q0 -129 -27 -282q-130 -737 -583 -737q-373 0 -373 450q0 132 27 285q129 739 581 739zM502 88q345 0 456 629q29 154 29 278q0 353 -262 353q-172 0 -285 -154t-170 -475q-28 -153 -28 -283q0 -348 260 -348z" />
    <glyph glyph-name="one" unicode="1" horiz-adv-x="749" 
d="M324 25l223 1267l-297 -207q-23 -12 -29 2l-35 48q-11 18 11 26l364 264q16 11 33 11h74q23 0 18 -23l-246 -1388q-2 -25 -24 -25h-70q-27 0 -22 25z" />
    <glyph glyph-name="two" unicode="2" horiz-adv-x="1052" 
d="M334 1018q0 -45 -27 -45h-61q-25 0 -25 43q0 194 132 317t321 123q180 0 268 -88t88 -231q0 -449 -797 -1031h619q26 0 20 -24l-10 -57q-2 -25 -26 -25h-787q-24 0 -22 25l8 47q4 22 22 34q106 78 188 142q80 63 185 150q114 94 186 174q75 83 146 177q74 98 109 195
q36 99 36 193q0 213 -237 213q-155 0 -246 -93q-90 -91 -90 -239z" />
    <glyph glyph-name="three" unicode="3" horiz-adv-x="962" 
d="M383 801h117q145 0 233 107t88 251q0 191 -248 191q-138 0 -294 -52q-27 -8 -27 17l-8 55q-2 20 24 27q145 59 314 59q170 0 265 -75t95 -210q0 -143 -72 -260q-72 -116 -198 -155q80 -18 131 -84t51 -174q0 -244 -143 -380t-381 -136q-192 0 -326 57q-20 6 -14 24l28 58
q10 23 31 16q135 -51 283 -51q184 0 294 113q109 112 109 290q0 209 -250 209h-118q-28 0 -23 23l10 57q6 23 29 23z" />
    <glyph glyph-name="four" unicode="4" horiz-adv-x="1101" 
d="M750 0h-70q-26 0 -21 25l56 319h-641q-25 0 -19 25l11 55q1 19 14 35l811 958q19 19 37 19h73q24 0 19 -23l-170 -967h184q27 0 21 -22l-11 -55q-5 -25 -26 -25h-187l-57 -319q-5 -25 -24 -25zM879 1262l-682 -816h538z" />
    <glyph glyph-name="five" unicode="5" horiz-adv-x="985" 
d="M344 -18q-198 0 -326 55q-22 12 -12 33l29 53q6 22 31 16q126 -53 278 -53q205 0 318 134q112 133 112 339q0 219 -256 219q-106 0 -194 -26l-93 -27q-5 0 -22 6l-29 14q-14 6 -8 29q91 340 150 637q2 25 28 25h608q27 0 21 -23l-10 -57q-2 -25 -29 -25h-532
q-45 -226 -115 -493q110 43 242 43q180 0 269 -86t89 -234q0 -259 -150 -419t-399 -160z" />
    <glyph glyph-name="six" unicode="6" horiz-adv-x="1075" 
d="M958 1315q-90 37 -188 37q-205 0 -330 -164t-182 -514q47 114 146 185q100 71 249 71q171 0 257 -96q85 -95 85 -250q0 -240 -136 -421t-361 -181q-187 0 -284 115t-97 327q0 111 28 270q66 379 216 571q149 191 409 191q131 0 231 -41q22 -8 17 -26l-29 -58
q-7 -24 -31 -16zM504 86q173 0 274 155t101 337q0 114 -60 183q-59 68 -188 68q-173 0 -280 -140t-107 -310q0 -123 65 -207q66 -86 195 -86z" />
    <glyph glyph-name="seven" unicode="7" horiz-adv-x="952" 
d="M201 23q67 315 270 686q206 375 418 622h-637q-21 0 -19 25l9 57q6 23 30 23h744q23 0 18 -23l-8 -55q0 -5 -22 -37q-227 -277 -425 -638q-202 -368 -257 -660q-5 -23 -27 -23h-74q-26 0 -20 23z" />
    <glyph glyph-name="eight" unicode="8" horiz-adv-x="1054" 
d="M451 -18q-181 0 -281 84t-100 219q0 173 112 292q112 120 285 171q-107 41 -171 118q-65 79 -65 185q0 189 136 298q134 107 323 107q172 0 266 -78q95 -78 95 -204q0 -155 -103 -264q-99 -105 -262 -162q115 -38 187 -120q73 -84 73 -208q0 -203 -146 -321
q-145 -117 -349 -117zM682 1356q-144 0 -239 -84t-95 -215q0 -182 238 -260q154 50 251 140q99 91 99 224q0 90 -65 143q-64 52 -189 52zM567 694q-166 -49 -273 -149q-108 -101 -108 -248q0 -101 71 -158t204 -57q157 0 261 95q103 94 103 239q0 206 -258 278z" />
    <glyph glyph-name="nine" unicode="9" horiz-adv-x="1075" 
d="M209 121q95 -39 190 -39q200 0 325 161q122 158 183 509q-43 -105 -145 -175q-103 -71 -256 -71q-173 0 -255 94q-83 95 -83 248q0 156 56 290q57 136 172 226q116 90 270 90q185 0 282 -115q96 -114 96 -327q0 -117 -28 -273q-66 -380 -214 -568q-148 -189 -405 -189
q-151 0 -231 38q-24 10 -16 29l26 53q7 27 33 19zM655 1350q-90 0 -162 -48q-74 -50 -117 -123q-44 -76 -68 -158q-23 -79 -23 -163q0 -250 247 -250q177 0 282 140q106 141 106 313q0 122 -67 206q-66 83 -198 83z" />
    <glyph glyph-name="colon" unicode=":" horiz-adv-x="444" 
d="M72 23l24 137q6 24 27 24h96q23 0 21 -24l-25 -137q-6 -23 -27 -23h-96q-26 0 -20 23zM227 901l25 137q2 25 27 25h96q24 0 18 -25l-24 -137q-6 -22 -27 -22h-94q-27 0 -21 22z" />
    <glyph glyph-name="semicolon" unicode=";" horiz-adv-x="444" 
d="M227 901l25 137q2 25 27 25h96q24 0 18 -25l-24 -137q-6 -22 -27 -22h-94q-27 0 -21 22zM205 0l-88 -186q-8 -17 -27 -17h-27q-21 0 -10 23l72 180h-33q-26 0 -20 23l24 137q6 24 27 24h96q23 0 21 -24l-23 -129q-2 -9 -12 -31z" />
    <glyph glyph-name="less" unicode="&#x3c;" horiz-adv-x="1067" 
d="M176 719q0 10 17 22l765 564q18 17 33 2l31 -45q11 -18 -8 -31l-701 -512l521 -514q10 -11 -3 -31l-49 -47q-14 -14 -30 -2l-568 567q-10 10 -8 27z" />
    <glyph glyph-name="equal" unicode="=" horiz-adv-x="1067" 
d="M989 866h-772q-22 0 -20 23l10 53q6 21 26 21h773q24 0 20 -21l-10 -53q-2 -23 -27 -23zM920 473h-775q-21 0 -16 23l10 53q0 22 25 22h772q24 0 20 -22l-10 -53q-5 -23 -26 -23z" />
    <glyph glyph-name="greater" unicode="&#x3e;" horiz-adv-x="1067" 
d="M979 719q-5 -21 -18 -27l-771 -567q-20 -16 -30 2l-25 47q-12 19 6 31l701 514l-520 512q-12 11 4 31l41 45q22 12 32 2l570 -568q14 -7 10 -22z" />
    <glyph glyph-name="question" unicode="?" horiz-adv-x="876" 
d="M264 23l23 141q4 22 28 22h101q26 0 20 -22l-24 -141q-6 -23 -27 -23h-102q-25 0 -19 23zM477 494l-14 -82q-6 -25 -29 -25h-61q-27 0 -21 25l17 82q12 70 59 143q46 71 104 129q57 58 113 119q54 60 92 137q37 75 37 160q0 168 -235 168q-120 0 -277 -54q-26 -6 -26 17
l-7 57q-1 16 23 27q128 59 299 59t258 -73q86 -72 86 -197q0 -96 -39 -181q-39 -84 -96 -148q-51 -56 -117 -119q-56 -54 -107 -120q-49 -64 -59 -124z" />
    <glyph glyph-name="at" unicode="@" horiz-adv-x="1695" 
d="M1051 467l116 364q-66 21 -147 21q-203 0 -325 -154t-122 -358q0 -182 152 -182q108 0 194 83t132 226zM1100 -88q10 4 15 0q4 -4 3 -14l4 -41q0 -13 -16 -19q-149 -55 -358 -55q-312 0 -478 123t-166 368q0 182 67 357q65 171 183 305q116 133 291 214q174 81 375 81
q304 0 447 -126t143 -339q0 -114 -33 -232q-34 -121 -94 -224q-61 -105 -167 -171q-103 -65 -237 -65h-88q-35 0 -28 28l34 134q-117 -173 -288 -173q-114 0 -180 74q-66 73 -66 191q0 243 155 429q156 187 412 187q133 0 242 -47q18 -6 12 -25l-229 -716h37q142 0 244 99
t145 232q43 132 43 277q0 387 -508 387q-353 0 -587 -254q-234 -253 -234 -616q0 -216 138 -318t419 -102q207 0 348 51z" />
    <glyph glyph-name="A" unicode="A" horiz-adv-x="1122" 
d="M342 520h461l-90 780h-4zM686 1436h90q22 0 27 -25l184 -1384q6 -27 -22 -27h-72q-20 0 -25 23l-51 389h-528l-189 -389q-12 -23 -28 -23h-80q-30 0 -15 27l672 1384q16 25 37 25z" />
    <glyph glyph-name="B" unicode="B" horiz-adv-x="1142" 
d="M326 797h292q174 0 280 86t106 260q0 99 -70 142q-69 42 -223 42h-289zM489 0h-393q-28 0 -22 25l243 1388q6 23 31 23h373q401 0 401 -283q0 -143 -71 -254t-205 -149q87 -18 142 -85q54 -66 54 -182q0 -234 -148 -358q-149 -125 -405 -125zM205 109h284q199 0 317 91
t118 285q0 109 -74 157t-238 48h-303z" />
    <glyph glyph-name="C" unicode="C" horiz-adv-x="997" 
d="M584 90q110 0 223 45q14 5 21 1q8 -5 8 -19l12 -54q0 -16 -29 -28q-112 -53 -256 -53q-444 0 -444 462q0 106 26 275q69 381 225 560q154 177 418 177q162 0 261 -51q25 -12 14 -31l-27 -53q-15 -26 -35 -16q-91 41 -206 41q-217 0 -343 -149q-127 -150 -184 -478
q-28 -159 -28 -264q0 -188 85 -276q86 -89 259 -89z" />
    <glyph glyph-name="D" unicode="D" horiz-adv-x="1142" 
d="M397 0h-301q-28 0 -22 25l243 1388q6 23 29 23h277q241 0 366 -104t125 -347q0 -115 -27 -254q-72 -408 -236 -569q-165 -162 -454 -162zM612 1325h-190l-215 -1214h196q232 0 366 134q135 135 198 486q24 139 24 236q0 198 -95 278t-284 80z" />
    <glyph glyph-name="E" unicode="E" horiz-adv-x="923" 
d="M821 682h-514l-102 -573h536q25 0 23 -23l-10 -61q-6 -25 -29 -25h-629q-28 0 -22 25l243 1388q6 23 29 23h625q26 0 20 -23l-10 -61q-2 -25 -29 -25h-532l-92 -539h514q22 0 18 -24l-10 -57q-2 -25 -29 -25z" />
    <glyph glyph-name="F" unicode="F" horiz-adv-x="897" 
d="M821 672h-514l-114 -647q-6 -25 -29 -25h-68q-28 0 -22 25l243 1388q6 23 31 23h621q25 0 20 -23l-12 -61q-2 -25 -29 -25h-524l-98 -549h514q24 0 20 -24l-12 -58q-2 -24 -27 -24z" />
    <glyph glyph-name="G" unicode="G" horiz-adv-x="1130" 
d="M664 805h370q27 0 21 -25l-121 -686q-5 -29 -37 -47q-121 -65 -309 -65q-233 0 -350 111t-117 347q0 132 26 279q69 387 231 563q160 174 447 174q179 0 277 -55q24 -10 16 -29l-28 -55q-12 -29 -35 -17q-107 46 -230 46q-241 0 -369 -145q-129 -146 -186 -482
q-28 -143 -28 -266q0 -189 87 -276t269 -87q124 0 227 41l101 567h-279q-24 0 -22 23l10 59q6 25 29 25z" />
    <glyph glyph-name="H" unicode="H" horiz-adv-x="1171" 
d="M821 25l117 655h-631l-114 -655q-6 -25 -29 -25h-68q-28 0 -22 25l243 1388q6 23 31 23h68q26 0 20 -23l-108 -622h628l109 622q6 23 31 23h69q24 0 19 -23l-246 -1388q-5 -25 -25 -25h-69q-29 0 -23 25z" />
    <glyph glyph-name="I" unicode="I" horiz-adv-x="448" 
d="M86 25l246 1388q5 23 26 23h70q28 0 23 -23l-246 -1388q-5 -25 -29 -25h-70q-25 0 -20 25z" />
    <glyph glyph-name="J" unicode="J" horiz-adv-x="759" 
d="M477 371l185 1042q6 23 28 23h70q25 0 20 -23l-186 -1051q-34 -194 -124 -287q-88 -91 -255 -91q-133 0 -219 45q-26 12 -16 34l26 56q12 27 31 14q84 -41 178 -41q112 0 175 65t87 214z" />
    <glyph glyph-name="K" unicode="K" horiz-adv-x="1011" 
d="M332 825l626 592q19 19 39 19h107q14 0 17 -10q3 -9 -7 -19l-700 -649l469 -727q7 -11 3 -21t-20 -10h-84q-18 0 -34 20l-435 682l-120 -677q-6 -25 -29 -25h-68q-28 0 -22 25l243 1388q6 23 31 23h68q26 0 20 -23z" />
    <glyph glyph-name="L" unicode="L" horiz-adv-x="880" 
d="M436 1413l-229 -1302h512q27 0 22 -25l-12 -61q-6 -25 -29 -25h-604q-28 0 -22 25l243 1388q6 23 31 23h68q26 0 20 -23z" />
    <glyph glyph-name="M" unicode="M" horiz-adv-x="1345" 
d="M666 430q-21 0 -27 16l-240 762l-209 -1183q-2 -25 -26 -25h-68q-28 0 -22 25l243 1388q6 23 31 23h66q22 0 28 -17l254 -803l535 803q11 17 33 17h73q26 0 21 -23l-246 -1388q-6 -25 -27 -25h-69q-26 0 -21 25l209 1183l-508 -762q-12 -16 -30 -16z" />
    <glyph glyph-name="N" unicode="N" horiz-adv-x="1181" 
d="M1196 1413l-246 -1388q-6 -25 -28 -25h-66q-25 0 -31 20l-426 1203l-209 -1198q-6 -25 -26 -25h-68q-28 0 -22 25l243 1388q6 23 31 23h66q19 0 30 -19l424 -1204l211 1200q6 23 29 23h66q27 0 22 -23z" />
    <glyph glyph-name="O" unicode="O" horiz-adv-x="1200" 
d="M762 1456q407 0 407 -457q0 -117 -26 -280q-69 -382 -218 -560q-149 -177 -397 -177q-411 0 -411 456q0 112 26 281q68 377 221 559q150 178 398 178zM532 88q193 0 312 152t176 479q29 165 29 272q0 183 -72 270t-221 87q-195 0 -314 -152t-176 -477q-28 -165 -28 -275
q0 -182 72 -269t222 -87z" />
    <glyph glyph-name="P" unicode="P" horiz-adv-x="1069" 
d="M289 567h198q210 0 307 82t136 297q16 89 16 146q0 129 -77 182t-246 53h-201zM164 0h-68q-28 0 -22 25l243 1386q6 25 29 25h283q226 0 332 -77q104 -76 104 -253q0 -82 -14 -160q-45 -268 -174 -379q-128 -110 -396 -110h-213l-75 -432q-6 -25 -29 -25z" />
    <glyph glyph-name="Q" unicode="Q" horiz-adv-x="1200" 
d="M610 0q100 -61 246 -61q19 0 32 1t25 1q20 0 24 -4t3 -19l-8 -51q-2 -29 -55 -29q-263 0 -410 150q-348 27 -348 452q0 132 26 279q67 378 219 559q150 178 400 178q407 0 407 -455q0 -133 -28 -282q-60 -335 -191 -513t-342 -206zM532 88q193 0 312 152q118 151 178 479
q27 152 27 272q0 357 -295 357q-194 0 -313 -152q-117 -150 -173 -477q-30 -162 -30 -275q0 -356 294 -356z" />
    <glyph glyph-name="R" unicode="R" horiz-adv-x="1085" 
d="M301 633h217q206 0 300 78q95 79 128 268q15 66 15 123q0 123 -77 174q-76 51 -249 51h-213zM348 1436h295q226 0 332 -76t106 -242q0 -76 -14 -143q-37 -211 -139 -313q-103 -103 -291 -125l252 -506q6 -10 1 -21q-4 -10 -20 -10h-71q-23 0 -35 18l-250 506h-233
l-88 -499q-6 -25 -29 -25h-68q-28 0 -22 25l243 1388q6 23 31 23z" />
    <glyph glyph-name="S" unicode="S" horiz-adv-x="915" 
d="M815 412q0 -202 -133 -316q-134 -114 -350 -114q-200 0 -301 43q-27 12 -19 30l27 58q10 28 35 16q103 -41 260 -41q151 0 255 82q105 82 105 231q0 66 -37 122q-38 58 -77 88q-38 30 -119 81q-120 72 -189 154q-67 79 -67 196q0 193 123 304q122 110 329 110
q162 0 265 -41q22 -12 16 -31l-27 -55q-10 -28 -34 -16q-90 35 -222 35q-151 0 -241 -75t-90 -218q0 -49 14 -84q16 -39 54 -73q37 -33 63 -52q36 -26 84 -58q131 -83 204 -166q72 -82 72 -210z" />
    <glyph glyph-name="T" unicode="T" horiz-adv-x="892" 
d="M211 1350l10 63q6 23 29 23h735q25 0 19 -23l-11 -63q-5 -25 -28 -25h-308l-229 -1300q-6 -25 -29 -25h-67q-29 0 -23 25l230 1300h-308q-25 0 -20 25z" />
    <glyph glyph-name="U" unicode="U" horiz-adv-x="1150" 
d="M504 -20q-447 0 -363 477l168 956q6 23 29 23h68q28 0 22 -23l-166 -946q-35 -196 22 -287q57 -92 224 -92q168 0 257 92q90 93 124 287l166 946q5 23 28 23h70q24 0 18 -23l-167 -956q-44 -244 -162 -361q-117 -116 -338 -116z" />
    <glyph glyph-name="V" unicode="V" horiz-adv-x="1097" 
d="M514 0h-92q-29 0 -29 25l-164 1384q0 27 25 27h72q24 0 24 -23l107 -928l28 -348h4l154 350l430 926q17 23 35 23h78q24 0 14 -27l-649 -1384q-16 -25 -37 -25z" />
    <glyph glyph-name="W" unicode="W" horiz-adv-x="1726" 
d="M995 1436h74q29 0 29 -23l55 -885l21 -389h6l151 385l363 889q11 23 32 23h74q27 0 15 -29l-576 -1380q-12 -27 -37 -27h-96q-24 0 -29 25l-59 874l-19 344h-4l-137 -344l-364 -874q-8 -25 -37 -25h-97q-24 0 -30 27l-88 1380q0 29 24 29h74q20 0 25 -23l51 -889l14 -385
h6l158 389l367 885q8 23 34 23z" />
    <glyph glyph-name="X" unicode="X" horiz-adv-x="1042" 
d="M551 627l-438 -607q-14 -20 -37 -20h-82q-13 0 -16 8q-3 7 6 19l520 700l-264 682q-8 27 18 27h78q20 0 31 -19l217 -588l420 588q13 19 36 19h84q13 0 16 -10q3 -9 -5 -17l-504 -682l272 -700q7 -27 -18 -27h-78q-21 0 -31 20z" />
    <glyph glyph-name="Y" unicode="Y" horiz-adv-x="1069" 
d="M608 549l-94 -524q-2 -25 -27 -25h-69q-26 0 -21 25l92 524l-260 860q-4 10 1 18q5 9 20 9h72q22 0 28 -21l156 -532l57 -226h2l140 226l344 532q17 21 34 21h78q28 0 13 -27z" />
    <glyph glyph-name="Z" unicode="Z" horiz-adv-x="974" 
d="M18 25l9 59q6 23 22 39l834 1202h-594q-25 0 -19 25l11 63q6 23 28 23h707q24 0 18 -23l-12 -61q0 -17 -16 -39l-832 -1202h617q24 0 18 -23l-10 -63q-5 -25 -29 -25h-733q-25 0 -19 25z" />
    <glyph glyph-name="bracketleft" unicode="[" horiz-adv-x="600" 
d="M397 -154l-8 -49q-6 -22 -27 -22h-262q-24 0 -20 22l287 1616q2 23 26 23h262q23 0 21 -23l-10 -49q-5 -23 -27 -23h-176l-260 -1472h178q22 0 16 -23z" />
    <glyph glyph-name="backslash" unicode="\" horiz-adv-x="708" 
d="M295 1415l311 -1388q0 -27 -22 -27h-56q-22 0 -28 23l-310 1386q-2 27 23 27h55q26 0 27 -21z" />
    <glyph glyph-name="bracketright" unicode="]" horiz-adv-x="604" 
d="M-25 -203l11 49q2 23 26 23h178l261 1472h-179q-20 0 -20 23l8 49q6 23 29 23h262q24 0 18 -23l-284 -1616q-6 -22 -27 -22h-262q-25 0 -21 22z" />
    <glyph glyph-name="asciicircum" unicode="^" horiz-adv-x="1067" 
d="M676 1436h55q23 0 29 -21l229 -680q6 -26 -22 -26h-66q-21 0 -27 20l-192 578l-391 -578q-17 -20 -37 -20h-72q-12 0 -15 7t5 19l469 680q15 21 35 21z" />
    <glyph glyph-name="underscore" unicode="_" horiz-adv-x="847" 
d="M670 -178h-719q-23 0 -17 24l5 37q6 21 26 21h717q24 0 18 -21l-6 -37q-2 -24 -24 -24z" />
    <glyph glyph-name="grave" unicode="`" horiz-adv-x="591" 
d="M469 1395l84 -176q7 -21 -18 -21h-35q-18 0 -29 14l-141 174q-6 11 -2 20t18 9h92q21 0 31 -20z" />
    <glyph glyph-name="a" unicode="a" horiz-adv-x="929" 
d="M850 745l-125 -722q-6 -23 -29 -23h-59q-26 0 -21 23l29 155q-117 -192 -344 -192q-131 0 -197 65q-67 66 -67 176q0 105 42 182q42 76 102 118q61 43 161 68q107 27 181 34q81 7 200 12l20 109q23 125 -22 181q-44 56 -170 56q-129 0 -285 -55q-26 -12 -26 14l-4 53
q0 19 22 29q134 59 307 59q345 0 285 -342zM680 391l29 160q-124 -5 -178 -11q-71 -8 -150 -27q-82 -20 -127 -52q-49 -35 -78 -90q-31 -59 -31 -138q0 -71 44 -112t133 -41q140 0 237 89q97 90 121 222z" />
    <glyph glyph-name="b" unicode="b" horiz-adv-x="1036" 
d="M264 535q-18 -99 -18 -173q0 -280 235 -280q281 0 363 453q18 106 18 188q0 264 -223 264q-143 0 -240 -115q-96 -114 -135 -337zM203 190l-31 -167q-6 -23 -25 -23h-65q-27 0 -21 23l246 1390q2 23 27 23h65q25 0 19 -23l-94 -536q110 210 340 210q151 0 232 -91
q81 -92 81 -265q0 -82 -19 -196q-100 -553 -464 -553q-119 0 -198 55q-78 55 -93 153z" />
    <glyph glyph-name="c" unicode="c" horiz-adv-x="808" 
d="M102 535q94 552 492 552q139 0 223 -40q20 -14 12 -33l-28 -49q-8 -28 -33 -15q-74 33 -168 33q-156 0 -249 -110q-94 -111 -134 -338q-20 -113 -20 -187q0 -264 239 -264q109 0 199 39q12 6 18 2q6 -5 6 -14l9 -54q1 -16 -25 -28q-100 -47 -209 -47q-169 0 -261 92
q-91 91 -91 268q0 80 20 193z" />
    <glyph glyph-name="d" unicode="d" horiz-adv-x="1036" 
d="M797 535q16 70 16 170q0 282 -235 282q-284 0 -363 -452q-20 -113 -20 -193q0 -260 223 -260q144 0 242 115t137 338zM707 23l28 165q-106 -206 -338 -206q-152 0 -234 91q-83 92 -83 265q0 76 20 197q96 552 467 552q119 0 194 -56q77 -58 95 -154l94 536q6 23 27 23h63
q25 0 23 -23l-248 -1390q-5 -23 -27 -23h-63q-23 0 -18 23z" />
    <glyph glyph-name="e" unicode="e" horiz-adv-x="933" 
d="M467 78q120 0 227 45q12 6 21 1q8 -5 8 -15l8 -48q0 -20 -22 -30q-127 -51 -250 -51q-182 0 -279 95q-96 95 -96 277q0 83 18 191q46 265 167 405q120 139 311 139q150 0 226 -87q77 -88 77 -240q0 -67 -17 -172l-14 -82q-2 -25 -29 -25h-620q-10 -57 -10 -125
q0 -134 69 -206t205 -72zM571 989q-269 0 -352 -414h537l4 19q16 92 16 164q0 231 -205 231z" />
    <glyph glyph-name="f" unicode="f" horiz-adv-x="589" 
d="M416 1067h217q22 0 16 -25l-8 -53q-1 -22 -29 -22h-215l-166 -944q-6 -23 -24 -23h-66q-22 0 -20 23l166 944h-129q-20 0 -19 22l8 53q6 25 29 25h129l17 94q27 149 93 218t189 69q68 0 109 -14q14 -1 12 -27l-8 -45q-5 -27 -27 -21q-35 7 -82 7q-80 0 -120 -43t-58 -150
z" />
    <glyph glyph-name="g" unicode="g" horiz-adv-x="991" 
d="M766 590q16 83 16 143q0 128 -58 192t-165 64q-264 0 -336 -405q-16 -80 -16 -162q0 -244 211 -244q132 0 223 108q92 109 125 304zM956 1042l-161 -915q-63 -373 -439 -373q-178 0 -286 53q-21 11 -15 27l25 51q12 27 33 17q109 -47 243 -47q281 0 332 278l27 152
q-105 -201 -318 -201q-143 0 -224 85q-81 86 -81 247q0 83 17 168q45 246 155 374q111 129 283 129q107 0 181 -55q75 -55 91 -143l29 155q5 23 26 23h66q22 0 16 -25z" />
    <glyph glyph-name="h" unicode="h" horiz-adv-x="1007" 
d="M924 737l-125 -714q-6 -23 -25 -23h-65q-27 0 -21 23l125 702q47 258 -180 258q-132 0 -226 -88q-96 -90 -120 -227l-113 -643q-6 -25 -27 -25h-65q-27 0 -21 23l246 1390q2 23 27 23h65q25 0 19 -23l-90 -516q112 190 334 190q158 0 225 -94t37 -256z" />
    <glyph glyph-name="i" unicode="i" horiz-adv-x="397" 
d="M354 1042l-178 -1019q-6 -23 -26 -23h-66q-24 0 -18 23l178 1019q6 25 28 25h66q22 0 16 -25zM420 1395l-29 -156q-4 -22 -24 -22h-72q-23 0 -19 22l29 156q1 22 27 22h69q20 0 19 -22z" />
    <glyph glyph-name="j" unicode="j" horiz-adv-x="415" 
d="M82 14l180 1028q6 25 27 25h67q23 0 17 -25l-185 -1038q-21 -127 -67 -182t-150 -55q-61 0 -90 8q-21 1 -16 24l8 56q2 23 27 18q30 -6 59 -6q54 0 81 34q27 35 42 113zM438 1395l-26 -156q-6 -22 -29 -22h-70q-22 0 -18 22l27 156q6 22 26 22h72q24 0 18 -22z" />
    <glyph glyph-name="k" unicode="k" horiz-adv-x="839" 
d="M709 0h-82q-25 0 -35 18l-328 517l-90 -512q-6 -23 -27 -23h-65q-27 0 -21 23l246 1390q2 23 27 23h65q25 0 19 -23l-131 -743l452 383q17 14 41 14h101q15 0 16 -11q2 -13 -12 -20l-533 -440l373 -565q7 -11 3 -21t-19 -10z" />
    <glyph glyph-name="l" unicode="l" horiz-adv-x="397" 
d="M422 1413l-246 -1390q-6 -23 -26 -23h-66q-24 0 -18 23l245 1390q2 23 25 23h65q23 0 21 -23z" />
    <glyph glyph-name="m" unicode="m" horiz-adv-x="1533" 
d="M864 696l-116 -673q-6 -23 -27 -23h-66q-25 0 -20 23l125 710q45 250 -156 250q-120 0 -208 -85q-89 -86 -113 -220l-115 -655q-6 -23 -27 -23h-65q-27 0 -21 23l181 1019q6 25 26 25h68q23 0 18 -23l-26 -145q40 75 119 132q78 56 190 56q111 0 175 -53q61 -51 66 -147
q112 200 340 200q145 0 208 -92q63 -91 34 -250l-127 -722q-6 -23 -27 -23h-65q-24 0 -18 23l124 710q43 250 -159 250q-118 0 -206 -81q-90 -82 -112 -206z" />
    <glyph glyph-name="n" unicode="n" horiz-adv-x="995" 
d="M913 737l-127 -714q-5 -23 -26 -23h-64q-25 0 -20 23l125 702q44 258 -178 258q-131 0 -225 -88q-94 -89 -117 -225l-117 -647q-5 -23 -25 -23h-65q-26 0 -21 23l180 1019q6 25 29 25h64q23 0 18 -23l-25 -147q117 190 334 190q157 0 224 -94q66 -93 36 -256z" />
    <glyph glyph-name="o" unicode="o" horiz-adv-x="989" 
d="M420 -18q-164 0 -251 91t-87 267q0 87 18 195q96 552 492 552q162 0 250 -93q88 -92 88 -269q0 -76 -19 -190q-96 -553 -491 -553zM426 82q292 0 371 453q18 105 18 182q0 270 -229 270q-289 0 -371 -452q-18 -105 -18 -187q0 -266 229 -266z" />
    <glyph glyph-name="p" unicode="p" horiz-adv-x="1030" 
d="M258 535q-18 -99 -18 -173q0 -280 235 -280q281 0 363 453q18 106 18 188q0 264 -223 264q-143 0 -240 -115q-96 -114 -135 -337zM346 1044l-31 -167q110 210 342 210q153 0 232 -91q80 -92 80 -267q0 -77 -17 -194q-96 -553 -465 -553q-119 0 -196 55q-78 55 -94 153
l-70 -393q-4 -22 -27 -22h-65q-25 0 -19 22l220 1245q6 25 26 25h66q24 0 18 -23z" />
    <glyph glyph-name="q" unicode="q" horiz-adv-x="1030" 
d="M797 535q16 81 16 170q0 282 -235 282q-284 0 -363 -452q-20 -113 -20 -193q0 -260 223 -260q144 0 242 115t137 338zM856 877l29 167q6 23 28 23h64q24 0 18 -25l-219 -1245q-6 -22 -28 -22h-64q-22 0 -18 22l67 391q-102 -206 -336 -206q-152 0 -234 91q-83 92 -83 265
q0 76 20 197q96 552 467 552q119 0 194 -56q77 -58 95 -154z" />
    <glyph glyph-name="r" unicode="r" horiz-adv-x="618" 
d="M262 1067h68q23 0 18 -23l-35 -190q41 86 131 155q89 68 203 68q14 0 19.5 -5.5t3.5 -16.5l-13 -78q-6 -23 -24 -23q-2 0 -20 2t-21 2q-110 0 -204 -107q-97 -110 -120 -257l-100 -571q-6 -23 -27 -23h-65q-27 0 -21 23l181 1019q6 25 26 25z" />
    <glyph glyph-name="s" unicode="s" horiz-adv-x="776" 
d="M670 317q0 -157 -107 -246t-276 -89q-170 0 -275 43q-22 7 -16 26l24 53q11 23 29 15q105 -39 234 -39q112 0 193 59q83 60 83 172q0 64 -43 104q-45 42 -141 93q-16 7 -21 10q-106 56 -163 112q-56 56 -56 148q0 148 101 229q99 80 260 80q153 0 243 -40q23 -8 15 -27
l-23 -47q-12 -25 -31 -17q-95 33 -198 33q-104 0 -179 -48t-75 -153q0 -14 3 -26q4 -16 6 -22q2 -5 11 -20q3 -4 8 -10.5t6 -8.5q3 -6 18 -17q5 -4 11.5 -9t9.5 -7q10 -8 25 -18q5 -4 10.5 -7t10.5 -5.5t6 -3.5l30 -18q23 -12 33 -18q74 -44 94 -58q27 -19 70 -57
q40 -35 54 -74q16 -43 16 -92z" />
    <glyph glyph-name="t" unicode="t" horiz-adv-x="612" 
d="M614 967h-229l-119 -676q-23 -118 1 -159q24 -42 112 -42q21 0 80 10q12 1 16 -3t4 -17l2 -49q0 -21 -22 -27q-35 -14 -101 -14q-134 0 -183 65q-49 66 -19 226l120 686h-129q-26 0 -20 22l10 53q2 25 27 25h133l43 258q6 25 29 25h61q25 0 19 -25l-46 -258h230
q23 0 18 -25l-10 -53q-6 -22 -27 -22z" />
    <glyph glyph-name="u" unicode="u" horiz-adv-x="983" 
d="M102 338l123 704q6 25 31 25h63q23 0 17 -25l-123 -688q-43 -270 180 -270q124 0 215 88q93 90 117 225l113 645q2 25 28 25h66q18 0 16 -25l-178 -1019q-6 -23 -27 -23h-65q-25 0 -19 23l25 149q-102 -190 -317 -190q-160 0 -228 95q-67 94 -37 261z" />
    <glyph glyph-name="v" unicode="v" horiz-adv-x="849" 
d="M383 0h-78q-21 0 -26 23l-125 1017q-4 27 22 27h66q20 0 22 -25l72 -634l29 -271h4l120 271l295 634q12 25 31 25h74q24 0 12 -27l-485 -1017q-12 -23 -33 -23z" />
    <glyph glyph-name="w" unicode="w" horiz-adv-x="1368" 
d="M754 1067h67q19 0 25 -23l53 -688l10 -225h4l88 225l287 686q11 25 33 25h68q24 0 12 -27l-434 -1017q-11 -23 -33 -23h-76q-24 0 -29 23l-51 651l-14 239h-6l-96 -239l-283 -651q-11 -23 -33 -23h-76q-24 0 -24 23l-78 1017q0 27 25 27h63q20 0 20 -25l48 -686l6 -225h4
l90 225l299 688q11 23 31 23z" />
    <glyph glyph-name="x" unicode="x" horiz-adv-x="858" 
d="M281 1051l176 -424l323 424q7 16 31 16h76q27 0 6 -29l-393 -497l225 -514q7 -27 -16 -27h-74q-17 0 -27 16l-180 439l-336 -439q-10 -16 -31 -16h-77q-7 0 -11 4t-3 10q2 8 7 13l404 514l-219 497q-11 29 18 29h74q11 0 27 -16z" />
    <glyph glyph-name="y" unicode="y" horiz-adv-x="854" 
d="M905 1040l-465 -995q-68 -150 -139 -216q-70 -65 -192 -65q-68 0 -117 19q-21 6 -15 24l23 52q7 20 31 18q45 -12 92 -12q89 0 135 67q47 68 35 138l-137 970q-4 27 22 27h70q18 0 20 -25l82 -641l29 -264h4l119 264l286 641q8 25 31 25h72q25 0 14 -27z" />
    <glyph glyph-name="z" unicode="z" horiz-adv-x="835" 
d="M838 1042l-9 -43q0 -16 -14 -30l-645 -869h483q11 0 16.5 -5t4.5 -15l-10 -57q-5 -23 -27 -23h-606q-25 0 -19 23l8 43q0 12 13 30l647 869h-467q-24 0 -20 22l10 55q2 25 28 25h588q21 0 19 -25z" />
    <glyph glyph-name="braceleft" unicode="{" horiz-adv-x="600" 
d="M96 575l11 60q4 22 26 22h29q61 0 103 94q41 92 79 310q38 211 94 292q57 83 189 83h59q25 0 23 -23l-13 -49q0 -25 -28 -25h-41q-80 0 -116 -64q-37 -66 -65 -231q-38 -219 -86 -321q-46 -99 -116 -117q61 -18 74 -112q14 -98 -23 -328q-33 -154 -20 -225q13 -72 92 -72
h43q22 0 20 -23l-8 -49q-6 -22 -29 -22h-59q-131 0 -161 89q-30 88 11 288q39 213 30 308t-71 95h-28q-20 0 -19 20z" />
    <glyph glyph-name="bar" unicode="|" horiz-adv-x="509" 
d="M309 1452v-1655q0 -22 -22 -22h-62q-22 0 -22 22v1655q0 25 22 25h62q22 0 22 -25z" />
    <glyph glyph-name="braceright" unicode="}" horiz-adv-x="600" 
d="M553 635l-12 -60q-1 -20 -27 -20h-27q-61 0 -103 -94q-41 -93 -79 -309q-38 -211 -95 -293q-58 -84 -187 -84h-62q-24 0 -18 22l8 49q2 23 29 23h43q78 0 112 64q35 66 68 233q38 222 86 323q46 99 117 117q-64 18 -76 112q-13 98 24 326q33 158 20 226q-14 69 -93 69
h-41q-28 0 -23 25l10 49q2 23 27 23h61q131 0 161 -89q30 -88 -11 -286q-39 -213 -30 -308q9 -96 71 -96h26q25 0 21 -22z" />
    <glyph glyph-name="asciitilde" unicode="~" horiz-adv-x="1062" 
d="M379 856q63 0 172 -47l90 -41q59 -26 90 -35q35 -11 78 0q44 11 76 53q6 9 26 48q14 20 37 8l37 -19q14 -10 8 -37q-72 -174 -215 -174q-66 0 -172 47l-96 43q-56 26 -88 34q-37 10 -77 -2q-43 -12 -75 -52q-13 -18 -26 -47q-14 -20 -37 -8l-37 18q-14 10 -8 35
q72 176 217 176z" />
    <glyph glyph-name="uni00A0" unicode="&#xa0;" horiz-adv-x="0" 
 />
    <glyph glyph-name="exclamdown" unicode="&#xa1;" horiz-adv-x="475" 
d="M412 1042l-25 -139q-4 -22 -25 -22h-102q-24 0 -18 22l22 139q6 25 29 25h102q23 0 17 -25zM250 680h51q23 0 18 -27l-131 -856q-6 -22 -28 -22h-88q-27 0 -21 22l172 856q5 27 27 27z" />
    <glyph glyph-name="cent" unicode="&#xa2;" horiz-adv-x="843" 
d="M102 532q90 519 471 553l27 152q6 25 27 25h47q22 0 20 -25l-26 -152q97 -5 182 -45q17 -12 10 -28l-26 -49q-16 -25 -33 -15q-70 35 -183 35q-163 0 -262 -111q-98 -110 -139 -340q-16 -87 -16 -178q0 -270 260 -270q117 0 203 39q23 10 28 -14l8 -50q1 -16 -24 -30
q-84 -39 -203 -45l-27 -156q-5 -23 -28 -23h-47q-24 0 -19 23l27 158q-139 10 -217 103t-78 257q0 84 18 186z" />
    <glyph glyph-name="sterling" unicode="&#xa3;" horiz-adv-x="1132" 
d="M334 680h-182q-25 0 -19 25l8 47q6 20 27 20h145q-37 133 -37 215q0 213 139 341t347 128q174 0 263 -74t89 -208q0 -136 -35 -136h-73q-17 0 -17 19q0 3 9 41q10 42 10 73q0 179 -248 179q-168 0 -267 -104q-100 -105 -100 -259q0 -59 39 -215h342q12 0 17.5 -5t3.5 -15
l-11 -47q-2 -25 -26 -25h-307q43 -175 -19 -328q-62 -152 -219 -237q84 28 164 28q74 0 172 -26q102 -27 168 -27q96 0 140 64q45 66 63 172q6 24 30 24h54q27 0 20 -28q-27 -159 -90 -247q-63 -89 -203 -89q-87 0 -194 29q-111 30 -193 30q-161 0 -272 -55q-26 -8 -27 4
l-27 59q-10 14 9 25q194 102 277 258q82 156 30 344z" />
    <glyph glyph-name="currency" unicode="&#xa4;" horiz-adv-x="1122" 
d="M129 209l113 113q-64 102 -64 258q0 158 64 256l-113 114q-18 15 0 33l31 31q15 15 33 0l110 -113q95 109 258 109t258 -109l113 113q15 15 31 0l32 -31q15 -18 0 -33l-116 -116q63 -96 63 -254q0 -160 -63 -256l116 -115q15 -15 0 -33l-32 -31q-16 -15 -31 0l-113 113
q-95 -108 -258 -108t-258 108l-110 -113q-18 -15 -33 0l-31 31q-18 18 0 33zM848 580q0 166 -76 251q-78 87 -211 87q-135 0 -213 -87q-76 -85 -76 -251q0 -167 76 -252q77 -86 213 -86q134 0 211 86q76 85 76 252z" />
    <glyph glyph-name="yen" unicode="&#xa5;" horiz-adv-x="1097" 
d="M594 389l-66 -364q-5 -25 -26 -25h-70q-27 0 -22 25l67 364h-348q-20 0 -18 23l6 45q6 20 26 20h349l8 53l-47 152h-273q-23 0 -18 23l8 45q1 20 25 20h231l-201 639q-12 27 21 27h76q20 0 26 -21l232 -762h4l499 762q17 21 35 21h74q27 0 12 -27l-426 -639h232
q19 0 18 -20l-8 -45q-6 -23 -27 -23h-274l-101 -152l-8 -53h346q25 0 19 -20l-6 -45q-6 -23 -27 -23h-348z" />
    <glyph glyph-name="brokenbar" unicode="&#xa6;" horiz-adv-x="509" 
d="M309 1452v-631q0 -22 -22 -22h-62q-22 0 -22 22v631q0 25 22 25h62q22 0 22 -25zM309 428v-631q0 -22 -22 -22h-62q-22 0 -22 22v631q0 25 22 25h62q22 0 22 -25z" />
    <glyph glyph-name="section" unicode="&#xa7;" horiz-adv-x="1196" 
d="M211 608q0 119 90 203q91 85 221 107q-157 102 -157 227q0 156 124 232q125 77 308 77q155 0 288 -39q21 -6 19 -29l-10 -51q-6 -24 -33 -16q-142 35 -266 35q-118 0 -217 -51t-99 -160q0 -35 17 -64q16 -29 63 -60q28 -19 78 -49q20 -12 113 -61q133 -68 208 -140
q74 -71 74 -165q0 -114 -89 -191t-220 -104q166 -100 166 -237q0 -81 -40 -142q-41 -62 -108 -96q-66 -34 -145 -52q-78 -18 -162 -18q-202 0 -293 31q-20 7 -18 33l8 51q5 24 35 19q124 -33 266 -33q76 0 146 16t134 68q62 50 62 127q0 33 -15 61q-16 31 -51 57
q-39 29 -61 43q-29 18 -80 43q-55 27 -71 37q-146 73 -216 137q-69 63 -69 154zM618 852q-102 -1 -200 -67q-96 -65 -96 -167q0 -70 64 -116q68 -49 210 -115q20 -7 33 -14q95 6 194 66t99 153q0 75 -74 131q-73 55 -230 129z" />
    <glyph glyph-name="dieresis" unicode="&#xa8;" horiz-adv-x="591" 
d="M354 1339l-20 -118q-2 -23 -27 -23h-71q-25 0 -19 23l21 118q5 23 28 23h72q22 0 16 -23zM659 1339l-20 -118q-6 -23 -27 -23h-71q-25 0 -19 23l21 118q5 23 26 23h72q23 0 18 -23z" />
    <glyph glyph-name="copyright" unicode="&#xa9;" horiz-adv-x="1548" 
d="M819 385q92 0 156 31q20 7 20 -13l19 -49q0 -14 -15 -22q-81 -37 -190 -37q-169 0 -260 105q-92 106 -92 321q0 216 91 320q92 106 259 106q120 0 186 -39q17 -5 17 -21l-19 -49q-4 -22 -22 -12q-53 29 -150 29q-258 0 -258 -334q0 -336 258 -336zM195 719
q0 -186 58 -329q59 -145 192 -236q136 -93 329 -93t329 93q133 91 192 236t59 329q0 133 -35 252q-35 118 -102 209t-182 144q-113 52 -261 52t-261 -52t-181 -144q-69 -93 -103 -209q-34 -115 -34 -252zM113 719q0 153 40 282q43 137 118 234q80 102 208 162q127 59 295 59
q221 0 373 -103q153 -103 222 -267t69 -367q0 -154 -40 -283q-40 -130 -120 -234q-79 -103 -209 -162q-128 -58 -295 -58t-295 58t-208 162q-76 99 -118 234q-40 129 -40 283z" />
    <glyph glyph-name="ordfeminine" unicode="&#xaa;" horiz-adv-x="776" 
d="M723 1315l22 125q-70 0 -113 -4q-53 -5 -119 -19q-71 -15 -116 -39t-78 -72q-32 -47 -32 -114q0 -121 143 -121q119 0 197 69t96 175zM674 1024l16 109q-80 -146 -276 -146q-104 0 -164 56q-62 57 -62 143q0 88 37 150q39 65 89 98q52 34 137 54q81 19 149 25q86 8 160 9
l16 94q17 97 -20 137q-38 41 -140 41q-109 0 -235 -47q-7 -4 -16 -1q-9 4 -9 13l-6 51q-1 15 21 25q133 51 252 51q301 0 251 -276l-104 -586q-4 -27 -31 -27h-45q-26 0 -20 27z" />
    <glyph glyph-name="guillemotleft" unicode="&#xab;" horiz-adv-x="702" 
d="M86 543l2 6l4 8l187 272q17 19 32 19h62q27 0 10 -25l-195 -280l97 -277q4 -9 -2 -17q-6 -7 -19 -7h-59q-19 0 -25 18l-92 272q0 9 -2 11zM367 543q0 7 6 14l186 272q13 19 33 19h59q24 0 8 -25l-192 -278l94 -279q11 -24 -18 -24h-60q-18 0 -24 18l-92 272v11z" />
    <glyph glyph-name="logicalnot" unicode="&#xac;" horiz-adv-x="1069" 
d="M958 750l-71 -400q-1 -24 -29 -24h-59q-25 0 -21 24l58 320h-662q-24 0 -18 24l8 56q6 22 29 22h745q21 0 20 -22z" />
    <glyph glyph-name="uni00AD" unicode="&#xad;" horiz-adv-x="669" 
d="M569 494h-460q-23 0 -17 20l8 55q2 21 27 21h459q26 0 20 -21l-10 -55q-1 -20 -27 -20z" />
    <glyph glyph-name="registered" unicode="&#xae;" horiz-adv-x="858" 
d="M369 1094h59q59 0 79 16q21 16 21 61q0 43 -21 60q-20 16 -77 16h-61v-153zM430 1456q158 0 243 -103t85 -257q0 -150 -86 -256q-86 -105 -242 -105q-158 0 -244 105q-86 106 -86 256q0 153 86 257q85 103 244 103zM430 788q135 0 205 88t70 220t-70 220q-69 87 -205 87
q-138 0 -207 -87t-69 -220t69 -220q70 -88 207 -88zM307 913v377q0 13 15 13h114q154 0 154 -132q0 -111 -96 -127l88 -129q10 -16 -11 -16h-36q-13 0 -19 10l-86 131h-61v-127q0 -14 -13 -14h-34q-15 0 -15 14z" />
    <glyph glyph-name="macron" unicode="&#xaf;" horiz-adv-x="591" 
d="M653 1212h-454q-23 0 -17 21l4 37q4 22 27 22h455q24 0 18 -22l-6 -37q-6 -21 -27 -21z" />
    <glyph glyph-name="degree" unicode="&#xb0;" horiz-adv-x="659" 
d="M428 1008q85 0 145 67t60 162q0 63 -39 103t-105 40q-85 0 -145 -67q-59 -66 -59 -158q-1 -67 37 -107q39 -40 106 -40zM420 930q-100 0 -160 60q-59 59 -59 155q0 123 84 218t213 95q100 0 159 -59q60 -60 60 -154q0 -127 -84 -221t-213 -94z" />
    <glyph glyph-name="plusminus" unicode="&#xb1;" horiz-adv-x="1067" 
d="M977 692h-352l-70 -389q0 -22 -25 -22h-61q-18 0 -18 22l69 389h-352q-24 0 -18 23l8 53q6 20 28 20h353l65 386q2 24 29 24h59q23 0 17 -24l-66 -386h350q11 0 16.5 -5t4.5 -15l-10 -53q-2 -23 -27 -23zM856 0h-809q-25 0 -20 23l8 45q4 22 26 22h807q14 0 19.5 -5.5
t3.5 -16.5l-8 -45q-6 -23 -27 -23z" />
    <glyph glyph-name="two.superior" unicode="&#xb2;" 
d="M385 1608q0 -33 -29 -33h-47q-22 0 -22 24q0 126 79 205q80 80 216 80q119 0 175 -56t56 -145q0 -71 -36 -148q-37 -78 -78 -131q-48 -61 -120 -124q-93 -81 -119 -100q-83 -61 -120 -88h365q24 0 18 -27l-6 -41q-6 -27 -31 -27h-485q-29 0 -21 27l6 39q7 17 21 29
q6 4 69 51q74 55 85 64q10 8 80 66q50 41 85 76q32 32 71 75q44 49 63 85q20 39 36 82q17 46 17 88q0 115 -138 115q-88 0 -139 -52t-51 -134z" />
    <glyph glyph-name="three.superior" unicode="&#xb3;" 
d="M457 1405h-78q-25 0 -21 27l7 38q6 25 30 25h76q85 0 137 55q54 57 54 138q0 106 -164 106q-67 0 -172 -31q-23 -6 -29 13l-6 45q0 14 22 26q90 37 197 37q121 0 187 -48q67 -49 67 -136q0 -83 -43 -151t-115 -95q107 -35 107 -164q0 -144 -98 -224q-97 -79 -242 -79
q-141 0 -215 39q-22 12 -15 27l19 43q12 22 35 16q79 -35 172 -35q104 0 172 56q67 55 67 155q0 117 -151 117z" />
    <glyph glyph-name="acute" unicode="&#xb4;" horiz-adv-x="591" 
d="M303 1219l141 176q14 20 39 20h95q14 0 16 -9q2 -10 -8 -20l-199 -174q-14 -14 -35 -14h-41q-25 0 -8 21z" />
    <glyph glyph-name="mu" unicode="&#xb5;" horiz-adv-x="989" 
d="M958 1042l-124 -704q-61 -358 -365 -358q-125 0 -193 57q-66 56 -83 133l-66 -373q-1 -22 -27 -22h-65q-25 0 -19 22l220 1245q6 25 26 25h68q23 0 18 -25l-115 -647q-24 -137 36 -225t184 -88q225 0 272 270l123 690q5 25 29 25h63q24 0 18 -25z" />
    <glyph glyph-name="paragraph" unicode="&#xb6;" horiz-adv-x="925" 
d="M1024 1350h-74q-61 0 -90 -26t-41 -95l-217 -1239q-21 -118 -71 -171q-49 -52 -152 -52q-68 0 -109 14q-16 1 -12 24l8 39q5 23 27 19q6 0 30 -4t42 -4q60 0 92 33q33 35 45 112l108 606h-43q-172 0 -278 91q-107 92 -107 247q0 209 139 351q138 141 361 141h356
q27 0 21 -23l-8 -41q-1 -22 -27 -22z" />
    <glyph glyph-name="periodcentered" unicode="&#xb7;" horiz-adv-x="385" 
d="M121 465l24 137q2 25 27 25h96q24 0 19 -25l-23 -137q-6 -23 -26 -23h-97q-26 0 -20 23z" />
    <glyph glyph-name="cedilla" unicode="&#xb8;" horiz-adv-x="591" 
d="M154 16h63q67 -25 107 -67q41 -44 41 -96q0 -70 -50 -108t-125 -38q-61 0 -73 6q-16 5 -11 23l5 35q4 14 20 14h49q101 0 101 82t-127 149z" />
    <glyph glyph-name="one.superior" unicode="&#xb9;" 
d="M580 1739l-189 -135q-22 -15 -39 4l-18 37q-12 17 12 32l250 187q23 10 35 10h45q24 0 22 -27l-145 -823q-6 -27 -31 -27h-49q-24 0 -18 27z" />
    <glyph glyph-name="ordmasculine" unicode="&#xba;" horiz-adv-x="808" 
d="M639 1794q-231 0 -297 -358q-14 -73 -14 -142q0 -215 184 -215q236 0 293 357q16 71 16 145q0 213 -182 213zM510 987q-140 0 -213 76q-74 77 -74 223q0 72 15 150q82 450 405 450q138 0 210 -76q73 -78 73 -223q0 -71 -15 -151q-78 -449 -401 -449z" />
    <glyph glyph-name="guillemotright" unicode="&#xbb;" horiz-adv-x="702" 
d="M641 543q0 -5 -6 -11l-186 -272q-12 -18 -31 -18h-62q-26 0 -8 24l191 277l-93 280q-11 25 19 25h59q19 0 25 -19l92 -272q2 -8 0 -14zM362 543q-2 -2 -2 -4q-2 -5 -4 -7l-188 -272q-12 -18 -29 -18h-61q-26 0 -8 24l190 277l-92 280q-11 25 16 25h64q18 0 20 -19
l92 -272q2 -8 2 -14z" />
    <glyph glyph-name="onequarter" unicode="&#xbc;" horiz-adv-x="1687" 
d="M504 1300l-189 -135q-22 -15 -39 4l-18 37q-12 18 12 33l250 186q28 11 35 11h45q24 0 23 -27l-146 -823q-6 -27 -31 -27h-49q-24 0 -18 27zM1483 1411l-1012 -1391q-20 -20 -37 -20h-65q-33 0 -11 25l1012 1392q16 19 35 19h65q29 0 13 -25zM1479 733l-375 -438h297z
M1581 203h-96l-31 -176q-6 -27 -31 -27h-47q-24 0 -22 27l30 176h-387q-21 0 -20 26l6 39q2 14 16 31l494 559q24 19 35 19h49q26 0 20 -27l-96 -555h96q27 0 21 -25l-6 -41q-6 -26 -31 -26z" />
    <glyph glyph-name="onehalf" unicode="&#xbd;" horiz-adv-x="1687" 
d="M504 1300l-189 -135q-22 -15 -39 4l-18 37q-12 18 12 33l250 186q28 11 35 11h45q24 0 23 -27l-146 -823q-6 -27 -31 -27h-49q-24 0 -18 27zM1188 610q0 82 51 134q51 53 139 53q138 0 138 -115q0 -42 -17 -88q-16 -43 -36 -82q-19 -36 -63 -85q-48 -53 -71 -76
q-35 -35 -85 -76q-19 -15 -46 -37t-34 -28q-19 -16 -85 -65q-63 -47 -69 -51q-15 -13 -21 -28l-6 -39q-7 -27 21 -27h485q25 0 31 27l6 41q6 26 -19 26h-364q37 27 120 88q11 8 118 101q76 66 121 124q41 53 78 131q36 77 36 148q0 88 -56 144q-57 57 -176 57
q-136 0 -216 -80q-78 -78 -78 -205q0 -24 22 -24h47q29 0 29 32zM1401 1411l-1012 -1391q-20 -20 -37 -20h-65q-33 0 -11 25l1012 1392q16 19 35 19h66q28 0 12 -25z" />
    <glyph glyph-name="threequarters" unicode="&#xbe;" horiz-adv-x="1687" 
d="M381 967h-78q-24 0 -20 26l6 39q6 25 30 25h76q85 0 137 55q54 57 54 137q0 107 -164 107q-67 0 -172 -31q-23 -6 -29 12l-6 45q0 15 23 27q90 37 196 37q122 0 188 -48t66 -136q0 -83 -43 -151t-115 -95q107 -35 107 -164q0 -145 -97 -224t-243 -79q-142 0 -215 39
q-21 11 -14 26l18 43q12 23 35 17q79 -35 172 -35q105 0 172 55t67 156q0 117 -151 117zM1511 1411l-1011 -1391q-20 -20 -37 -20h-66q-32 0 -10 25l1012 1392q16 19 35 19h65q28 0 12 -25zM1479 733l-375 -438h297zM1581 203h-96l-31 -176q-6 -27 -31 -27h-47q-24 0 -22 27
l30 176h-387q-21 0 -20 26l6 39q2 14 16 31l494 559q24 19 35 19h49q26 0 20 -27l-96 -555h96q27 0 21 -25l-6 -41q-6 -26 -31 -26z" />
    <glyph glyph-name="questiondown" unicode="&#xbf;" horiz-adv-x="804" 
d="M606 1042l-24 -139q-4 -22 -27 -22h-102q-23 0 -19 22l25 139q5 25 28 25h103q21 0 16 -25zM408 655l-9 -39q-10 -59 -53 -118q-45 -61 -97 -111q-73 -69 -108 -107q-54 -59 -89 -130q-36 -74 -36 -158q0 -112 81 -172t235 -60q156 0 276 56q23 8 23 26l-6 58
q0 25 -29 14q-132 -47 -244 -47q-114 0 -163 33q-50 33 -50 108q0 69 35 136q36 68 86 120q34 35 105 106q58 58 97 116q44 65 54 130l6 39q2 25 -20 25h-68q-20 0 -26 -25z" />
    <glyph glyph-name="Agrave" unicode="&#xc0;" horiz-adv-x="1122" 
d="M342 520h461l-90 780h-4zM686 1436h90q22 0 27 -25l184 -1384q6 -27 -22 -27h-72q-20 0 -25 23l-51 389h-528l-189 -389q-12 -23 -28 -23h-80q-30 0 -15 27l672 1384q16 25 37 25zM694 1729l84 -168q8 -23 -18 -23h-37q-16 0 -27 14l-139 172q-8 8 -3 19q4 10 19 10h91
q20 0 30 -24z" />
    <glyph glyph-name="Aacute" unicode="&#xc1;" horiz-adv-x="1122" 
d="M342 520h461l-90 780h-4zM686 1436h90q22 0 27 -25l184 -1384q6 -27 -22 -27h-72q-20 0 -25 23l-51 389h-528l-189 -389q-12 -23 -28 -23h-80q-30 0 -15 27l672 1384q16 25 37 25zM727 1561l137 168q18 24 41 24h96q13 0 14 -10q2 -11 -9 -19l-195 -172q-14 -14 -35 -14
h-41q-11 0 -12 7q-2 9 4 16z" />
    <glyph glyph-name="Acircumflex" unicode="&#xc2;" horiz-adv-x="1122" 
d="M342 520h461l-90 780h-4zM686 1436h90q22 0 27 -25l184 -1384q6 -27 -22 -27h-72q-20 0 -25 23l-51 389h-528l-189 -389q-12 -23 -28 -23h-80q-30 0 -15 27l672 1384q16 25 37 25zM891 1552l-113 123l-155 -123q-17 -14 -35 -14h-56q-28 0 -6 25l195 174q16 16 37 16h57
q19 0 35 -16l129 -174q7 -11 3 -18t-15 -7h-49q-13 0 -27 14z" />
    <glyph glyph-name="Atilde" unicode="&#xc3;" horiz-adv-x="1122" 
d="M342 520h461l-90 780h-4zM686 1436h90q22 0 27 -25l184 -1384q6 -27 -22 -27h-72q-20 0 -25 23l-51 389h-528l-189 -389q-12 -23 -28 -23h-80q-30 0 -15 27l672 1384q16 25 37 25zM1042 1663q-10 -58 -48 -96q-37 -37 -99 -37q-53 0 -131 39l-49 26q-54 29 -95 22
q-43 -8 -53 -42l-4 -19q-6 -20 -31 -20h-30q-19 0 -17 29q10 59 50 97t98 38q40 0 131 -41l49 -29q56 -33 96 -25q39 7 49 50l7 16q6 23 30 23h29q24 0 18 -31z" />
    <glyph glyph-name="Adieresis" unicode="&#xc4;" horiz-adv-x="1122" 
d="M342 520h461l-90 780h-4zM686 1436h90q22 0 27 -25l184 -1384q6 -27 -22 -27h-72q-20 0 -25 23l-51 389h-528l-189 -389q-12 -23 -28 -23h-80q-30 0 -15 27l672 1384q16 25 37 25zM680 1675l-21 -114q-6 -23 -28 -23h-74q-22 0 -20 23l22 114q2 23 25 23h78q24 0 18 -23z
M991 1675l-20 -114q-2 -23 -29 -23h-76q-20 0 -18 23l22 114q2 23 27 23h74q22 0 20 -23z" />
    <glyph glyph-name="Aring" unicode="&#xc5;" horiz-adv-x="1122" 
d="M342 520h461l-90 780h-4zM686 1436h90q22 0 27 -25l184 -1384q6 -27 -22 -27h-72q-20 0 -25 23l-51 389h-528l-189 -389q-12 -23 -28 -23h-80q-30 0 -15 27l672 1384q16 25 37 25zM768 1651q-58 0 -96 -35q-37 -34 -37 -96q0 -82 100 -82q53 0 91 35t38 94q0 39 -25 61
q-26 23 -71 23zM563 1518q0 85 59 142q57 56 150 56q73 0 120 -41q46 -40 46 -104q0 -88 -59 -144q-60 -57 -152 -57q-77 0 -120 42q-44 42 -44 106z" />
    <glyph glyph-name="AE" unicode="&#xc6;" horiz-adv-x="1452" 
d="M1348 682h-465l-103 -571h490q26 0 20 -23l-12 -63q-5 -25 -27 -25h-581q-28 0 -23 25l66 374h-424l-211 -376q-17 -23 -31 -23h-82q-28 0 -16 27l811 1384q19 25 41 25h696q27 0 21 -23l-13 -63q-5 -25 -26 -25h-484l-94 -537h465q20 0 20 -24l-10 -57q-6 -25 -28 -25z
M360 506h371l146 821h-54z" />
    <glyph glyph-name="Ccedilla" unicode="&#xc7;" horiz-adv-x="997" 
d="M584 90q110 0 223 45q14 5 21 1q8 -5 8 -19l12 -54q0 -16 -29 -28q-112 -53 -256 -53q-444 0 -444 462q0 106 26 275q69 381 225 560q154 177 418 177q162 0 261 -51q25 -12 14 -31l-27 -53q-15 -26 -35 -16q-91 41 -206 41q-217 0 -343 -149q-127 -150 -184 -478
q-28 -159 -28 -264q0 -188 85 -276q86 -89 259 -89zM385 18h70q65 -24 107 -73t42 -105q0 -74 -54 -111q-55 -38 -138 -38q-53 0 -68 6q-14 7 -12 22l6 37q5 17 20 17h52q108 0 108 82q0 96 -133 163z" />
    <glyph glyph-name="Egrave" unicode="&#xc8;" horiz-adv-x="923" 
d="M821 682h-514l-102 -573h536q25 0 23 -23l-10 -61q-6 -25 -29 -25h-629q-28 0 -22 25l243 1388q6 23 29 23h625q26 0 20 -23l-10 -61q-2 -25 -29 -25h-532l-92 -539h514q22 0 18 -24l-10 -57q-2 -25 -29 -25zM692 1729l84 -168q8 -23 -18 -23h-37q-16 0 -27 14l-139 172
q-8 8 -3 19q4 10 19 10h91q20 0 30 -24z" />
    <glyph glyph-name="Eacute" unicode="&#xc9;" horiz-adv-x="923" 
d="M821 682h-514l-102 -573h536q25 0 23 -23l-10 -61q-6 -25 -29 -25h-629q-28 0 -22 25l243 1388q6 23 29 23h625q26 0 20 -23l-10 -61q-2 -25 -29 -25h-532l-92 -539h514q22 0 18 -24l-10 -57q-2 -25 -29 -25zM629 1561l137 168q18 24 41 24h96q12 0 13 -10q2 -11 -9 -19
l-194 -172q-14 -14 -35 -14h-41q-11 0 -12 7q-2 9 4 16z" />
    <glyph glyph-name="Ecircumflex" unicode="&#xca;" horiz-adv-x="923" 
d="M821 682h-514l-102 -573h536q25 0 23 -23l-10 -61q-6 -25 -29 -25h-629q-28 0 -22 25l243 1388q6 23 29 23h625q26 0 20 -23l-10 -61q-2 -25 -29 -25h-532l-92 -539h514q22 0 18 -24l-10 -57q-2 -25 -29 -25zM831 1552l-112 123l-156 -123q-17 -14 -35 -14h-55
q-28 0 -6 25l195 174q16 16 36 16h58q19 0 35 -16l129 -174q8 -11 3 -18q-4 -7 -16 -7h-49q-13 0 -27 14z" />
    <glyph glyph-name="Edieresis" unicode="&#xcb;" horiz-adv-x="923" 
d="M821 682h-514l-102 -573h536q25 0 23 -23l-10 -61q-6 -25 -29 -25h-629q-28 0 -22 25l243 1388q6 23 29 23h625q26 0 20 -23l-10 -61q-2 -25 -29 -25h-532l-92 -539h514q22 0 18 -24l-10 -57q-2 -25 -29 -25zM621 1675l-21 -114q-6 -23 -29 -23h-73q-23 0 -21 23l23 114
q2 23 24 23h78q25 0 19 -23zM932 1675l-21 -114q-2 -23 -28 -23h-76q-21 0 -19 23l23 114q2 23 27 23h73q23 0 21 -23z" />
    <glyph glyph-name="Igrave" unicode="&#xcc;" horiz-adv-x="448" 
d="M86 25l246 1388q5 23 26 23h70q28 0 23 -23l-246 -1388q-5 -25 -29 -25h-70q-25 0 -20 25zM369 1729l84 -168q8 -23 -19 -23h-37q-15 0 -26 14l-140 172q-8 8 -3 19q4 10 20 10h90q20 0 31 -24z" />
    <glyph glyph-name="Iacute" unicode="&#xcd;" horiz-adv-x="448" 
d="M86 25l246 1388q5 23 26 23h70q28 0 23 -23l-246 -1388q-5 -25 -29 -25h-70q-25 0 -20 25zM381 1561l137 168q18 24 41 24h96q13 0 14 -10q2 -11 -10 -19l-194 -172q-14 -14 -35 -14h-41q-11 0 -12 7q-2 9 4 16z" />
    <glyph glyph-name="Icircumflex" unicode="&#xce;" horiz-adv-x="448" 
d="M86 25l246 1388q5 23 26 23h70q28 0 23 -23l-246 -1388q-5 -25 -29 -25h-70q-25 0 -20 25zM551 1552l-113 123l-155 -123q-17 -14 -35 -14h-55q-29 0 -7 25l195 174q16 16 37 16h57q19 0 35 -16l129 -174q7 -11 3 -18t-15 -7h-49q-13 0 -27 14z" />
    <glyph glyph-name="Idieresis" unicode="&#xcf;" horiz-adv-x="448" 
d="M86 25l246 1388q5 23 26 23h70q28 0 23 -23l-246 -1388q-5 -25 -29 -25h-70q-25 0 -20 25zM340 1675l-21 -114q-6 -23 -28 -23h-74q-22 0 -20 23l22 114q2 23 25 23h78q24 0 18 -23zM651 1675l-20 -114q-2 -23 -29 -23h-76q-20 0 -18 23l22 114q2 23 27 23h74
q22 0 20 -23z" />
    <glyph glyph-name="Eth" unicode="&#xd0;" horiz-adv-x="1146" 
d="M401 0h-301q-28 0 -22 25l115 651h-97q-22 0 -16 20l6 45q5 23 25 23h98l113 649q6 23 28 23h277q239 0 363 -105t124 -352q0 -110 -24 -260q-69 -399 -235 -559t-454 -160zM616 1325h-190l-98 -561h247q24 0 19 -23l-8 -45q-1 -20 -25 -20h-250l-100 -565h197
q112 0 197 27t158 95q74 70 123 189q52 128 81 297q26 134 26 246q0 198 -94 279q-95 81 -283 81z" />
    <glyph glyph-name="Ntilde" unicode="&#xd1;" horiz-adv-x="1181" 
d="M1196 1413l-246 -1388q-6 -25 -28 -25h-66q-25 0 -31 20l-426 1203l-209 -1198q-6 -25 -26 -25h-68q-28 0 -22 25l243 1388q6 23 31 23h66q19 0 30 -19l424 -1204l211 1200q6 23 29 23h66q27 0 22 -23zM1071 1663q-10 -58 -48 -96q-37 -37 -99 -37q-53 0 -131 39l-50 26
q-54 29 -95 22t-52 -42l-4 -19q-6 -20 -31 -20h-31q-18 0 -16 29q10 60 49 97q40 38 99 38q40 0 131 -41l49 -29q56 -33 96 -25q39 7 49 50l6 16q6 23 31 23h29q24 0 18 -31z" />
    <glyph glyph-name="Ograve" unicode="&#xd2;" horiz-adv-x="1200" 
d="M762 1456q407 0 407 -457q0 -117 -26 -280q-69 -382 -218 -560q-149 -177 -397 -177q-411 0 -411 456q0 112 26 281q68 377 221 559q150 178 398 178zM532 88q193 0 312 152t176 479q29 165 29 272q0 183 -72 270t-221 87q-195 0 -314 -152t-176 -477q-28 -165 -28 -275
q0 -182 72 -269t222 -87zM762 1729l84 -168q8 -23 -19 -23h-36q-16 0 -27 14l-139 172q-8 8 -3 19q4 10 19 10h90q21 0 31 -24z" />
    <glyph glyph-name="Oacute" unicode="&#xd3;" horiz-adv-x="1200" 
d="M762 1456q407 0 407 -457q0 -117 -26 -280q-69 -382 -218 -560q-149 -177 -397 -177q-411 0 -411 456q0 112 26 281q68 377 221 559q150 178 398 178zM532 88q193 0 312 152t176 479q29 165 29 272q0 183 -72 270t-221 87q-195 0 -314 -152t-176 -477q-28 -165 -28 -275
q0 -182 72 -269t222 -87zM750 1561l137 168q18 24 41 24h96q12 0 13 -10q2 -11 -9 -19l-194 -172q-14 -14 -35 -14h-41q-12 0 -13 7q-2 8 5 16z" />
    <glyph glyph-name="Ocircumflex" unicode="&#xd4;" horiz-adv-x="1200" 
d="M762 1456q407 0 407 -457q0 -117 -26 -280q-69 -382 -218 -560q-149 -177 -397 -177q-411 0 -411 456q0 112 26 281q68 377 221 559q150 178 398 178zM532 88q193 0 312 152t176 479q29 165 29 272q0 183 -72 270t-221 87q-195 0 -314 -152t-176 -477q-28 -165 -28 -275
q0 -182 72 -269t222 -87zM928 1552l-113 123l-156 -123q-17 -14 -34 -14h-56q-28 0 -6 25l195 174q16 16 37 16h57q19 0 35 -16l129 -174q8 -11 3 -18q-4 -7 -15 -7h-50q-12 0 -26 14z" />
    <glyph glyph-name="Otilde" unicode="&#xd5;" horiz-adv-x="1200" 
d="M762 1456q407 0 407 -457q0 -117 -26 -280q-69 -382 -218 -560q-149 -177 -397 -177q-411 0 -411 456q0 112 26 281q68 377 221 559q150 178 398 178zM532 88q193 0 312 152t176 479q29 165 29 272q0 183 -72 270t-221 87q-195 0 -314 -152t-176 -477q-28 -165 -28 -275
q0 -182 72 -269t222 -87zM1079 1663q-10 -58 -48 -96q-37 -37 -99 -37q-53 0 -131 39l-49 26q-54 29 -96 22q-41 -7 -52 -42l-4 -19q-6 -20 -31 -20h-30q-19 0 -17 29q10 60 49 97q40 38 99 38q40 0 131 -41l49 -29q56 -33 96 -25q39 7 49 50l6 16q6 23 31 23h29
q24 0 18 -31z" />
    <glyph glyph-name="Odieresis" unicode="&#xd6;" horiz-adv-x="1200" 
d="M762 1456q407 0 407 -457q0 -117 -26 -280q-69 -382 -218 -560q-149 -177 -397 -177q-411 0 -411 456q0 112 26 281q68 377 221 559q150 178 398 178zM532 88q193 0 312 152t176 479q29 165 29 272q0 183 -72 270t-221 87q-195 0 -314 -152t-176 -477q-28 -165 -28 -275
q0 -182 72 -269t222 -87zM717 1675l-21 -114q-6 -23 -28 -23h-74q-23 0 -21 23l23 114q2 23 25 23h77q25 0 19 -23zM1028 1675l-20 -114q-2 -23 -29 -23h-76q-20 0 -18 23l22 114q2 23 27 23h74q22 0 20 -23z" />
    <glyph glyph-name="multiply" unicode="&#xd7;" horiz-adv-x="1067" 
d="M825 330l-260 315l-375 -317q-16 -16 -32 0l-29 41q-16 12 2 30l375 318l-262 317q-12 15 6 33l45 37q20 18 35 0l260 -316l373 316q18 16 30 0l33 -37q15 -18 -8 -33l-371 -317l258 -318q12 -16 -2 -30l-47 -41q-16 -16 -31 2z" />
    <glyph glyph-name="Oslash" unicode="&#xd8;" horiz-adv-x="1208" 
d="M764 1456q410 0 410 -457q0 -117 -31 -280q-66 -382 -215 -559q-150 -178 -398 -178q-411 0 -411 456q0 132 28 281q66 379 217 559q150 178 400 178zM535 88q192 0 311 152t176 479q29 165 29 272q0 182 -73 270q-72 87 -222 87q-193 0 -312 -151t-176 -478
q-26 -152 -26 -275q0 -356 293 -356zM1071 1124l-817 -905l-39 -41l-147 -160q-15 -18 -29 -4l-37 33q-12 16 4 31l174 190l41 39l819 912l41 43l138 151q22 20 34 8l35 -32q15 -15 0 -33l-168 -185z" />
    <glyph glyph-name="Ugrave" unicode="&#xd9;" horiz-adv-x="1150" 
d="M504 -20q-447 0 -363 477l168 956q6 23 29 23h68q28 0 22 -23l-166 -946q-35 -196 22 -287q57 -92 224 -92q168 0 257 92q90 93 124 287l166 946q5 23 28 23h70q24 0 18 -23l-167 -956q-44 -244 -162 -361q-117 -116 -338 -116zM748 1729l83 -168q8 -23 -18 -23h-37
q-15 0 -26 14l-140 172q-8 8 -3 19q4 10 20 10h90q21 0 31 -24z" />
    <glyph glyph-name="Uacute" unicode="&#xda;" horiz-adv-x="1150" 
d="M504 -20q-447 0 -363 477l168 956q6 23 29 23h68q28 0 22 -23l-166 -946q-35 -196 22 -287q57 -92 224 -92q168 0 257 92q90 93 124 287l166 946q5 23 28 23h70q24 0 18 -23l-167 -956q-44 -244 -162 -361q-117 -116 -338 -116zM705 1561l137 168q18 24 41 24h96
q12 0 13 -10q2 -11 -9 -19l-195 -172q-14 -14 -34 -14h-41q-12 0 -13 7q-2 8 5 16z" />
    <glyph glyph-name="Ucircumflex" unicode="&#xdb;" horiz-adv-x="1150" 
d="M504 -20q-447 0 -363 477l168 956q6 23 29 23h68q28 0 22 -23l-166 -946q-35 -196 22 -287q57 -92 224 -92q168 0 257 92q90 93 124 287l166 946q5 23 28 23h70q24 0 18 -23l-167 -956q-44 -244 -162 -361q-117 -116 -338 -116zM903 1552l-112 123l-156 -123
q-17 -14 -35 -14h-55q-28 0 -6 25l194 174q16 16 37 16h57q19 0 35 -16l129 -174q7 -11 3 -18t-15 -7h-49q-13 0 -27 14z" />
    <glyph glyph-name="Udieresis" unicode="&#xdc;" horiz-adv-x="1150" 
d="M504 -20q-447 0 -363 477l168 956q6 23 29 23h68q28 0 22 -23l-166 -946q-35 -196 22 -287q57 -92 224 -92q168 0 257 92q90 93 124 287l166 946q5 23 28 23h70q24 0 18 -23l-167 -956q-44 -244 -162 -361q-117 -116 -338 -116zM692 1675l-20 -114q-6 -23 -29 -23h-74
q-22 0 -20 23l22 114q2 23 25 23h78q24 0 18 -23zM1004 1675l-21 -114q-2 -23 -29 -23h-75q-21 0 -19 23l23 114q2 23 26 23h74q23 0 21 -23z" />
    <glyph glyph-name="Yacute" unicode="&#xdd;" horiz-adv-x="1069" 
d="M608 549l-94 -524q-2 -25 -27 -25h-69q-26 0 -21 25l92 524l-260 860q-4 10 1 18q5 9 20 9h72q22 0 28 -21l156 -532l57 -226h2l140 226l344 532q17 21 34 21h78q28 0 13 -27zM682 1561l137 168q18 24 41 24h96q13 0 14 -10q2 -11 -9 -19l-195 -172q-14 -14 -35 -14h-41
q-11 0 -12 7q-2 9 4 16z" />
    <glyph glyph-name="Thorn" unicode="&#xde;" horiz-adv-x="1026" 
d="M164 0h-70q-26 0 -20 25l243 1388q6 23 31 23h68q26 0 20 -23l-24 -147h163q216 0 319 -76t103 -246q0 -53 -14 -141q-45 -251 -171 -357q-125 -106 -374 -106h-190l-55 -315q-6 -25 -29 -25zM266 449h178q194 0 288 79q95 80 130 277q12 69 12 121q0 126 -72 178
q-73 53 -235 53h-174z" />
    <glyph glyph-name="germandbls" unicode="&#xdf;" horiz-adv-x="1054" 
d="M668 1352q-114 0 -200 -60t-108 -190l-190 -1079q-2 -23 -25 -23h-63q-27 0 -21 23l193 1087q28 172 142 257q113 85 282 85q153 0 230 -68t77 -167q0 -76 -50 -143q-50 -66 -110 -104q-53 -33 -109 -79q-50 -41 -50 -72q0 -28 45 -70t99 -84q53 -42 99 -119
q45 -76 45 -169q0 -184 -115 -292q-115 -107 -307 -95q-35 0 -94 13q-61 13 -59 26l10 49q6 24 29 22q65 -12 163 14q97 25 180 95q83 69 83 164q0 61 -30 115q-32 58 -73 93q-53 46 -86 73q-41 34 -72 76q-30 40 -30 81q0 54 34 95q35 42 81 72l94 59q47 31 81 73
q34 43 34 98q0 62 -51 104q-49 40 -158 40z" />
    <glyph glyph-name="agrave" unicode="&#xe0;" horiz-adv-x="929" 
d="M850 745l-125 -722q-6 -23 -29 -23h-59q-26 0 -21 23l29 155q-117 -192 -344 -192q-131 0 -197 65q-67 66 -67 176q0 105 42 182q42 76 102 118q61 43 161 68q107 27 181 34q81 7 200 12l20 109q23 125 -22 181q-44 56 -170 56q-129 0 -285 -55q-26 -12 -26 14l-4 53
q0 19 22 29q134 59 307 59q345 0 285 -342zM680 391l29 160q-124 -5 -178 -11q-71 -8 -150 -27q-82 -20 -127 -52q-49 -35 -78 -90q-31 -59 -31 -138q0 -71 44 -112t133 -41q140 0 237 89q97 90 121 222zM580 1395l84 -176q8 -21 -19 -21h-35q-17 0 -28 14l-142 174
q-6 11 -2 20t19 9h92q21 0 31 -20z" />
    <glyph glyph-name="aacute" unicode="&#xe1;" horiz-adv-x="929" 
d="M850 745l-125 -722q-6 -23 -29 -23h-59q-26 0 -21 23l29 155q-117 -192 -344 -192q-131 0 -197 65q-67 66 -67 176q0 105 42 182q42 76 102 118q61 43 161 68q107 27 181 34q81 7 200 12l20 109q23 125 -22 181q-44 56 -170 56q-129 0 -285 -55q-26 -12 -26 14l-4 53
q0 19 22 29q134 59 307 59q345 0 285 -342zM680 391l29 160q-124 -5 -178 -11q-71 -8 -150 -27q-82 -20 -127 -52q-49 -35 -78 -90q-31 -59 -31 -138q0 -71 44 -112t133 -41q140 0 237 89q97 90 121 222zM528 1219l142 176q14 20 39 20h94q15 0 16 -9q2 -10 -8 -20
l-199 -174q-14 -14 -34 -14h-41q-25 0 -9 21z" />
    <glyph glyph-name="acircumflex" unicode="&#xe2;" horiz-adv-x="929" 
d="M850 745l-125 -722q-6 -23 -29 -23h-59q-26 0 -21 23l29 155q-117 -192 -344 -192q-131 0 -197 65q-67 66 -67 176q0 105 42 182q42 76 102 118q61 43 161 68q107 27 181 34q81 7 200 12l20 109q23 125 -22 181q-44 56 -170 56q-129 0 -285 -55q-26 -12 -26 14l-4 53
q0 19 22 29q134 59 307 59q345 0 285 -342zM680 391l29 160q-124 -5 -178 -11q-71 -8 -150 -27q-82 -20 -127 -52q-49 -35 -78 -90q-31 -59 -31 -138q0 -71 44 -112t133 -41q140 0 237 89q97 90 121 222zM735 1212l-114 134l-160 -134q-14 -14 -33 -14h-53q-29 0 -6 23
l194 184q20 16 39 16h57q21 0 33 -16l133 -184q7 -8 2 -16q-4 -7 -16 -7h-49q-16 0 -27 14z" />
    <glyph glyph-name="atilde" unicode="&#xe3;" horiz-adv-x="929" 
d="M850 745l-125 -722q-6 -23 -29 -23h-59q-26 0 -21 23l29 155q-117 -192 -344 -192q-131 0 -197 65q-67 66 -67 176q0 105 42 182q42 76 102 118q61 43 161 68q107 27 181 34q81 7 200 12l20 109q23 125 -22 181q-44 56 -170 56q-129 0 -285 -55q-26 -12 -26 14l-4 53
q0 19 22 29q134 59 307 59q345 0 285 -342zM680 391l29 160q-124 -5 -178 -11q-71 -8 -150 -27q-82 -20 -127 -52q-49 -35 -78 -90q-31 -59 -31 -138q0 -71 44 -112t133 -41q140 0 237 89q97 90 121 222zM868 1321q-7 -54 -43 -90q-35 -35 -90 -35q-69 0 -131 37l-45 27
q-59 28 -91 19t-44 -42l-6 -18q-8 -19 -29 -19h-31q-24 0 -18 29q11 58 46 93q36 36 93 36q48 0 127 -41l45 -25q110 -62 137 23l5 16q6 21 30 21h31q20 0 14 -31z" />
    <glyph glyph-name="adieresis" unicode="&#xe4;" horiz-adv-x="929" 
d="M850 745l-125 -722q-6 -23 -29 -23h-59q-26 0 -21 23l29 155q-117 -192 -344 -192q-131 0 -197 65q-67 66 -67 176q0 105 42 182q42 76 102 118q61 43 161 68q107 27 181 34q81 7 200 12l20 109q23 125 -22 181q-44 56 -170 56q-129 0 -285 -55q-26 -12 -26 14l-4 53
q0 19 22 29q134 59 307 59q345 0 285 -342zM680 391l29 160q-124 -5 -178 -11q-71 -8 -150 -27q-82 -20 -127 -52q-49 -35 -78 -90q-31 -59 -31 -138q0 -71 44 -112t133 -41q140 0 237 89q97 90 121 222zM522 1339l-20 -118q-2 -23 -27 -23h-72q-24 0 -18 23l21 118
q5 23 28 23h72q22 0 16 -23zM827 1339l-20 -118q-6 -23 -27 -23h-71q-25 0 -19 23l21 118q5 23 26 23h72q23 0 18 -23z" />
    <glyph glyph-name="aring" unicode="&#xe5;" horiz-adv-x="929" 
d="M850 745l-125 -722q-6 -23 -29 -23h-59q-26 0 -21 23l29 155q-117 -192 -344 -192q-131 0 -197 65q-67 66 -67 176q0 105 42 182q42 76 102 118q61 43 161 68q107 27 181 34q81 7 200 12l20 109q23 125 -22 181q-44 56 -170 56q-129 0 -285 -55q-26 -12 -26 14l-4 53
q0 19 22 29q134 59 307 59q345 0 285 -342zM680 391l29 160q-124 -5 -178 -11q-71 -8 -150 -27q-82 -20 -127 -52q-49 -35 -78 -90q-31 -59 -31 -138q0 -71 44 -112t133 -41q140 0 237 89q97 90 121 222zM604 1247q53 0 91 35t38 90q0 86 -98 86q-56 0 -93 -34
q-38 -35 -38 -93q0 -39 26 -61q28 -23 74 -23zM643 1524q75 0 119 -40q45 -41 45 -104q0 -84 -61 -142q-59 -56 -152 -56q-75 0 -119 40q-45 40 -45 101q0 86 60 143q61 58 153 58z" />
    <glyph glyph-name="ae" unicode="&#xe6;" horiz-adv-x="1503" 
d="M1047 78q117 0 219 45q23 10 28 -14l6 -50q2 -19 -20 -30q-113 -49 -244 -49q-145 0 -229 68q-86 69 -98 188q-118 -250 -394 -250q-136 0 -207 64q-73 65 -73 173q0 74 22 133q22 58 58 99q35 39 93 66q65 30 108 43q55 17 129 25q86 10 130 11q11 0 35.5 1t49.5 2t49 1
l24 146q43 237 -186 237q-127 0 -283 -55q-24 -10 -24 14l-9 53q0 18 23 29q159 59 299 59q270 0 276 -200q110 200 336 200q142 0 215 -83q74 -85 74 -232q0 -86 -14 -160l-17 -88q-1 -22 -28 -22h-598q-15 -79 -15 -152q0 -133 68 -203q68 -69 197 -69zM1151 989
q-128 0 -213 -100q-86 -101 -125 -293h514l2 18q17 110 17 152q0 223 -195 223zM672 393l20 117q-24 0 -124 -4q-41 -1 -110 -9q-68 -7 -106 -18q-44 -12 -83 -30q-44 -20 -68 -50q-23 -29 -39 -70q-17 -43 -17 -98q0 -149 183 -149q138 0 227 88q90 89 117 223z" />
    <glyph glyph-name="ccedilla" unicode="&#xe7;" horiz-adv-x="808" 
d="M102 535q94 552 492 552q139 0 223 -40q20 -14 12 -33l-28 -49q-8 -28 -33 -15q-74 33 -168 33q-156 0 -249 -110q-94 -111 -134 -338q-20 -113 -20 -187q0 -264 239 -264q109 0 199 39q12 6 18 2q6 -5 6 -14l9 -54q1 -16 -25 -28q-100 -47 -209 -47q-169 0 -261 92
q-91 91 -91 268q0 80 20 193zM264 16h64q66 -24 106 -67q41 -44 41 -96q0 -71 -49 -108q-50 -38 -125 -38q-62 0 -74 6q-15 4 -10 23l4 35q4 14 21 14h49q100 0 100 82t-127 149z" />
    <glyph glyph-name="egrave" unicode="&#xe8;" horiz-adv-x="933" 
d="M467 78q120 0 227 45q12 6 21 1q8 -5 8 -15l8 -48q0 -20 -22 -30q-127 -51 -250 -51q-182 0 -279 95q-96 95 -96 277q0 83 18 191q46 265 167 405q120 139 311 139q150 0 226 -87q77 -88 77 -240q0 -67 -17 -172l-14 -82q-2 -25 -29 -25h-620q-10 -57 -10 -125
q0 -134 69 -206t205 -72zM571 989q-269 0 -352 -414h537l4 19q16 92 16 164q0 231 -205 231zM582 1395l84 -176q8 -21 -19 -21h-35q-17 0 -28 14l-142 174q-6 10 -1 20q5 9 18 9h92q21 0 31 -20z" />
    <glyph glyph-name="eacute" unicode="&#xe9;" horiz-adv-x="933" 
d="M467 78q120 0 227 45q12 6 21 1q8 -5 8 -15l8 -48q0 -20 -22 -30q-127 -51 -250 -51q-182 0 -279 95q-96 95 -96 277q0 83 18 191q46 265 167 405q120 139 311 139q150 0 226 -87q77 -88 77 -240q0 -67 -17 -172l-14 -82q-2 -25 -29 -25h-620q-10 -57 -10 -125
q0 -134 69 -206t205 -72zM571 989q-269 0 -352 -414h537l4 19q16 92 16 164q0 231 -205 231zM545 1219l141 176q14 20 39 20h94q15 0 17 -9t-9 -20l-198 -174q-14 -14 -35 -14h-41q-25 0 -8 21z" />
    <glyph glyph-name="ecircumflex" unicode="&#xea;" horiz-adv-x="933" 
d="M467 78q120 0 227 45q12 6 21 1q8 -5 8 -15l8 -48q0 -20 -22 -30q-127 -51 -250 -51q-182 0 -279 95q-96 95 -96 277q0 83 18 191q46 265 167 405q120 139 311 139q150 0 226 -87q77 -88 77 -240q0 -67 -17 -172l-14 -82q-2 -25 -29 -25h-620q-10 -57 -10 -125
q0 -134 69 -206t205 -72zM571 989q-269 0 -352 -414h537l4 19q16 92 16 164q0 231 -205 231zM750 1212l-115 134l-160 -134q-14 -14 -33 -14h-53q-29 0 -6 23l195 184q20 16 38 16h58q21 0 33 -16l133 -184q7 -8 2 -16q-4 -7 -17 -7h-49q-15 0 -26 14z" />
    <glyph glyph-name="edieresis" unicode="&#xeb;" horiz-adv-x="933" 
d="M467 78q120 0 227 45q12 6 21 1q8 -5 8 -15l8 -48q0 -20 -22 -30q-127 -51 -250 -51q-182 0 -279 95q-96 95 -96 277q0 83 18 191q46 265 167 405q120 139 311 139q150 0 226 -87q77 -88 77 -240q0 -67 -17 -172l-14 -82q-2 -25 -29 -25h-620q-10 -57 -10 -125
q0 -134 69 -206t205 -72zM571 989q-269 0 -352 -414h537l4 19q16 92 16 164q0 231 -205 231zM537 1339l-21 -118q-2 -23 -27 -23h-71q-25 0 -19 23l21 118q5 23 29 23h71q23 0 17 -23zM842 1339l-21 -118q-6 -23 -26 -23h-72q-24 0 -18 23l20 118q5 23 27 23h71q24 0 19 -23
z" />
    <glyph glyph-name="igrave" unicode="&#xec;" horiz-adv-x="397" 
d="M354 1042l-178 -1019q-6 -23 -26 -23h-64q-26 0 -20 23l178 1019q6 25 30 25h64q22 0 16 -25zM287 1395l84 -176q8 -21 -19 -21h-35q-17 0 -28 14l-142 174q-6 10 -1 20q4 9 18 9h92q21 0 31 -20z" />
    <glyph glyph-name="iacute" unicode="&#xed;" horiz-adv-x="397" 
d="M354 1042l-178 -1019q-6 -23 -26 -23h-64q-26 0 -20 23l178 1019q6 25 30 25h64q22 0 16 -25zM293 1219l141 176q14 20 39 20h94q15 0 17 -9t-9 -20l-198 -174q-14 -14 -35 -14h-41q-25 0 -8 21z" />
    <glyph glyph-name="icircumflex" unicode="&#xee;" horiz-adv-x="397" 
d="M354 1042l-178 -1019q-6 -23 -26 -23h-64q-26 0 -20 23l178 1019q6 25 30 25h64q22 0 16 -25zM471 1212l-115 134l-159 -134q-14 -14 -33 -14h-53q-30 0 -7 23l195 184q20 16 39 16h57q21 0 33 -16l133 -184q7 -8 2 -16q-4 -7 -16 -7h-49q-16 0 -27 14z" />
    <glyph glyph-name="idieresis" unicode="&#xef;" horiz-adv-x="397" 
d="M354 1042l-178 -1019q-6 -23 -26 -23h-64q-26 0 -20 23l178 1019q6 25 30 25h64q22 0 16 -25zM258 1339l-20 -118q-2 -23 -27 -23h-72q-24 0 -18 23l20 118q5 23 29 23h72q22 0 16 -23zM563 1339l-20 -118q-6 -23 -27 -23h-72q-24 0 -18 23l20 118q5 23 27 23h72
q23 0 18 -23z" />
    <glyph glyph-name="eth" unicode="&#xf0;" horiz-adv-x="989" 
d="M954 1214h-114q94 -194 94 -430q0 -106 -23 -249q-96 -553 -489 -553q-164 0 -252 91t-88 267q0 87 18 195q96 550 488 550q163 0 229 -100q-18 113 -82 229h-235q-27 0 -21 21l6 31q6 20 27 20h182q-29 43 -110 125q-8 8 -3 16q5 9 15 9h72q21 0 34 -13q73 -83 103 -137
h162q24 0 18 -20l-6 -31q-5 -21 -25 -21zM426 82q292 0 371 453q18 100 18 182q0 270 -229 270q-289 0 -371 -452q-18 -108 -18 -187q0 -266 229 -266z" />
    <glyph glyph-name="ntilde" unicode="&#xf1;" horiz-adv-x="995" 
d="M913 737l-127 -714q-5 -23 -26 -23h-64q-25 0 -20 23l125 702q44 258 -178 258q-131 0 -225 -88q-94 -89 -117 -225l-117 -647q-5 -23 -25 -23h-65q-26 0 -21 23l180 1019q6 25 29 25h64q23 0 18 -23l-25 -147q117 190 334 190q157 0 224 -94q66 -93 36 -256zM903 1321
q-7 -54 -43 -90q-35 -35 -90 -35q-66 0 -131 37l-45 27q-59 28 -91 19t-44 -42l-6 -18q-11 -19 -29 -19h-31q-24 0 -18 29q11 58 46 93q36 36 93 36q48 0 127 -41l45 -25q110 -62 137 23l4 16q5 21 31 21h31q20 0 14 -31z" />
    <glyph glyph-name="ograve" unicode="&#xf2;" horiz-adv-x="989" 
d="M420 -18q395 0 491 553q19 114 19 190q0 177 -88 269q-88 93 -250 93q-396 0 -492 -552q-18 -108 -18 -195q0 -176 87 -267t251 -91zM426 82q-229 0 -229 266q0 82 18 187q82 452 371 452q229 0 229 -270q0 -77 -18 -182q-79 -453 -371 -453zM602 1395l84 -176
q8 -21 -18 -21h-35q-18 0 -29 14l-141 174q-6 10 -1 20q4 9 17 9h92q21 0 31 -20z" />
    <glyph glyph-name="oacute" unicode="&#xf3;" horiz-adv-x="989" 
d="M420 -18q395 0 491 553q19 114 19 190q0 177 -88 269q-88 93 -250 93q-396 0 -492 -552q-18 -108 -18 -195q0 -176 87 -267t251 -91zM426 82q-229 0 -229 266q0 82 18 187q82 452 371 452q229 0 229 -270q0 -77 -18 -182q-79 -453 -371 -453zM565 1219l142 176
q14 20 38 20h95q14 0 16 -9q2 -10 -8 -20l-199 -174q-14 -14 -35 -14h-41q-25 0 -8 21z" />
    <glyph glyph-name="ocircumflex" unicode="&#xf4;" horiz-adv-x="989" 
d="M420 -18q395 0 491 553q19 114 19 190q0 177 -88 269q-88 93 -250 93q-396 0 -492 -552q-18 -108 -18 -195q0 -176 87 -267t251 -91zM426 82q-229 0 -229 266q0 82 18 187q82 452 371 452q229 0 229 -270q0 -77 -18 -182q-79 -453 -371 -453zM766 1212l-115 134
l-159 -134q-14 -14 -33 -14h-53q-30 0 -7 23l195 184q20 16 39 16h57q21 0 33 -16l133 -184q7 -8 2 -16q-4 -7 -16 -7h-49q-16 0 -27 14z" />
    <glyph glyph-name="otilde" unicode="&#xf5;" horiz-adv-x="989" 
d="M420 -18q-164 0 -251 91t-87 267q0 87 18 195q96 552 492 552q162 0 250 -93q88 -92 88 -269q0 -76 -19 -190q-96 -553 -491 -553zM426 82q292 0 371 453q18 105 18 182q0 270 -229 270q-289 0 -371 -452q-18 -105 -18 -187q0 -266 229 -266zM899 1321q-7 -54 -43 -90
q-35 -35 -90 -35q-66 0 -131 37l-45 27q-59 28 -91 19t-44 -42l-6 -18q-11 -19 -29 -19h-31q-24 0 -18 29q11 58 46 93q36 36 93 36q48 0 127 -41l45 -25q110 -62 137 23l4 16q5 21 31 21h31q20 0 14 -31z" />
    <glyph glyph-name="odieresis" unicode="&#xf6;" horiz-adv-x="989" 
d="M420 -18q395 0 491 553q19 114 19 190q0 177 -88 269q-88 93 -250 93q-396 0 -492 -552q-18 -108 -18 -195q0 -176 87 -267t251 -91zM426 82q-229 0 -229 266q0 82 18 187q82 452 371 452q229 0 229 -270q0 -77 -18 -182q-79 -453 -371 -453zM553 1339l-21 -118
q-2 -23 -26 -23h-72q-24 0 -18 23l20 118q5 23 29 23h72q22 0 16 -23zM858 1339l-20 -118q-6 -23 -27 -23h-72q-24 0 -18 23l20 118q5 23 27 23h72q23 0 18 -23z" />
    <glyph glyph-name="divide" unicode="&#xf7;" horiz-adv-x="1067" 
d="M963 670h-789q-22 0 -16 22l8 51q2 25 27 25h786q20 0 18 -25l-8 -51q-6 -22 -26 -22zM434 313l23 133q6 25 28 25h95q26 0 20 -25l-25 -133q-1 -24 -26 -24h-96q-23 0 -19 24zM553 987l25 135q2 25 26 25h94q25 0 23 -25l-25 -135q-6 -22 -26 -22h-97q-21 0 -20 22z" />
    <glyph glyph-name="oslash" unicode="&#xf8;" horiz-adv-x="997" 
d="M426 -18q-166 0 -254 91t-88 267q0 82 20 195q96 552 492 552q164 0 251 -92q87 -91 87 -270q0 -76 -19 -190q-100 -553 -489 -553zM430 82q292 0 371 453q20 111 20 182q0 270 -231 270q-289 0 -371 -452q-18 -125 -18 -187q0 -266 229 -266zM831 848l-612 -696l-37 -37
l-94 -109q-16 -16 -33 -4l-24 23q-14 14 0 30l112 125l43 39l613 694l43 43l92 105q15 18 31 2l24 -21q16 -10 -2 -26l-113 -127z" />
    <glyph glyph-name="ugrave" unicode="&#xf9;" horiz-adv-x="983" 
d="M102 338l123 704q6 25 31 25h63q23 0 17 -25l-123 -688q-43 -270 180 -270q124 0 215 88q93 90 117 225l113 645q2 25 28 25h66q18 0 16 -25l-178 -1019q-6 -23 -27 -23h-65q-25 0 -19 23l25 149q-102 -190 -317 -190q-160 0 -228 95q-67 94 -37 261zM604 1395l84 -176
q7 -21 -18 -21h-35q-18 0 -29 14l-141 174q-6 11 -2 20q5 9 18 9h92q21 0 31 -20z" />
    <glyph glyph-name="uacute" unicode="&#xfa;" horiz-adv-x="983" 
d="M102 338l123 704q6 25 31 25h63q23 0 17 -25l-123 -688q-43 -270 180 -270q124 0 215 88q93 90 117 225l113 645q2 25 28 25h66q18 0 16 -25l-178 -1019q-6 -23 -27 -23h-65q-25 0 -19 23l25 149q-102 -190 -317 -190q-160 0 -228 95q-67 94 -37 261zM557 1219l141 176
q14 20 39 20h94q15 0 17 -9q2 -10 -8 -20l-199 -174q-14 -14 -35 -14h-41q-25 0 -8 21z" />
    <glyph glyph-name="ucircumflex" unicode="&#xfb;" horiz-adv-x="983" 
d="M102 338l123 704q6 25 31 25h63q23 0 17 -25l-123 -688q-43 -270 180 -270q124 0 215 88q93 90 117 225l113 645q2 25 28 25h66q18 0 16 -25l-178 -1019q-6 -23 -27 -23h-65q-25 0 -19 23l25 149q-102 -190 -317 -190q-160 0 -228 95q-67 94 -37 261zM764 1212l-115 134
l-160 -134q-14 -14 -32 -14h-54q-29 0 -6 23l195 184q20 16 39 16h57q21 0 33 -16l133 -184q7 -8 2 -16q-4 -7 -16 -7h-49q-16 0 -27 14z" />
    <glyph glyph-name="udieresis" unicode="&#xfc;" horiz-adv-x="983" 
d="M102 338l123 704q6 25 31 25h63q23 0 17 -25l-123 -688q-43 -270 180 -270q124 0 215 88q93 90 117 225l113 645q2 25 28 25h66q18 0 16 -25l-178 -1019q-6 -23 -27 -23h-65q-25 0 -19 23l25 149q-102 -190 -317 -190q-160 0 -228 95q-67 94 -37 261zM551 1339l-21 -118
q-2 -23 -26 -23h-72q-24 0 -18 23l20 118q5 23 29 23h72q22 0 16 -23zM856 1339l-20 -118q-6 -23 -27 -23h-72q-24 0 -18 23l20 118q5 23 27 23h72q23 0 18 -23z" />
    <glyph glyph-name="yacute" unicode="&#xfd;" horiz-adv-x="854" 
d="M905 1040l-465 -995q-68 -150 -139 -216q-70 -65 -192 -65q-68 0 -117 19q-21 6 -15 24l23 52q7 20 31 18q45 -12 92 -12q89 0 135 67q47 68 35 138l-137 970q-4 27 22 27h70q18 0 20 -25l82 -641l29 -264h4l119 264l286 641q8 25 31 25h72q25 0 14 -27zM504 1219
l141 176q14 20 39 20h94q16 0 17 -9q2 -9 -9 -20l-198 -174q-14 -14 -35 -14h-41q-24 0 -8 21z" />
    <glyph glyph-name="thorn" unicode="&#xfe;" horiz-adv-x="1034" 
d="M332 1436h65q25 0 19 -23l-94 -536q110 210 340 210q151 0 232 -91q81 -92 81 -265q0 -92 -21 -203q-96 -546 -462 -546q-117 0 -196 55t-95 153l-70 -393q-6 -22 -27 -22h-65q-25 0 -21 22l287 1616q2 23 27 23zM260 535q-16 -86 -16 -173q0 -280 235 -280
q281 0 363 453q18 106 18 188q0 264 -223 264q-143 0 -241 -115q-97 -113 -136 -337z" />
    <glyph glyph-name="ydieresis" unicode="&#xff;" horiz-adv-x="854" 
d="M905 1040l-465 -995q-68 -150 -139 -216q-70 -65 -192 -65q-68 0 -117 19q-21 6 -15 24l23 52q7 20 31 18q45 -12 92 -12q89 0 135 67q47 68 35 138l-137 970q-4 27 22 27h70q18 0 20 -25l82 -641l29 -264h4l119 264l286 641q8 25 31 25h72q25 0 14 -27zM485 1339
l-20 -118q-2 -23 -27 -23h-71q-25 0 -19 23l21 118q5 23 28 23h72q22 0 16 -23zM791 1339l-21 -118q-6 -23 -27 -23h-71q-25 0 -19 23l21 118q5 23 26 23h72q24 0 19 -23z" />
    <glyph glyph-name="Amacron" unicode="&#x100;" horiz-adv-x="1122" 
d="M342 520h461l-90 780h-4zM686 1436h90q22 0 27 -25l184 -1384q6 -27 -22 -27h-72q-20 0 -25 23l-51 389h-528l-189 -389q-12 -23 -28 -23h-80q-30 0 -15 27l672 1384q16 25 37 25zM981 1554h-457q-20 0 -20 21l8 41q1 22 27 22h458q25 0 19 -22l-8 -41q0 -21 -27 -21z
" />
    <glyph glyph-name="amacron" unicode="&#x101;" horiz-adv-x="929" 
d="M850 745l-125 -722q-6 -23 -29 -23h-59q-26 0 -21 23l29 155q-117 -192 -344 -192q-131 0 -197 65q-67 66 -67 176q0 105 42 182q42 76 102 118q61 43 161 68q107 27 181 34q81 7 200 12l20 109q23 125 -22 181q-44 56 -170 56q-129 0 -285 -55q-26 -12 -26 14l-4 53
q0 19 22 29q134 59 307 59q345 0 285 -342zM680 391l29 160q-124 -5 -178 -11q-71 -8 -150 -27q-82 -20 -127 -52q-49 -35 -78 -90q-31 -59 -31 -138q0 -71 44 -112t133 -41q140 0 237 89q97 90 121 222zM821 1212h-454q-23 0 -17 21l4 37q4 22 27 22h455q24 0 18 -22
l-6 -37q-6 -21 -27 -21z" />
    <glyph glyph-name="Abreve" unicode="&#x102;" horiz-adv-x="1122" 
d="M342 520h461l-90 780h-4zM686 1436h90q22 0 27 -25l184 -1384q6 -27 -22 -27h-72q-20 0 -25 23l-51 389h-528l-189 -389q-12 -23 -28 -23h-80q-30 0 -15 27l672 1384q16 25 37 25zM758 1532q-114 0 -166 55q-53 56 -41 135q1 21 22 21h41q19 0 19 -19q4 -112 131 -112
t170 112q8 19 24 19h41q21 0 15 -21q-16 -82 -81 -136q-64 -54 -175 -54z" />
    <glyph glyph-name="abreve" unicode="&#x103;" horiz-adv-x="929" 
d="M850 745l-125 -722q-6 -23 -29 -23h-59q-26 0 -21 23l29 155q-117 -192 -344 -192q-131 0 -197 65q-67 66 -67 176q0 105 42 182q42 76 102 118q61 43 161 68q107 27 181 34q81 7 200 12l20 109q23 125 -22 181q-44 56 -170 56q-129 0 -285 -55q-26 -12 -26 14l-4 53
q0 19 22 29q134 59 307 59q345 0 285 -342zM680 391l29 160q-124 -5 -178 -11q-71 -8 -150 -27q-82 -20 -127 -52q-49 -35 -78 -90q-31 -59 -31 -138q0 -71 44 -112t133 -41q140 0 237 89q97 90 121 222zM602 1192q-113 0 -167 57t-42 140q1 20 23 20h41q18 0 18 -18
q0 -54 28 -87q27 -32 103 -32q73 0 112 31q36 29 58 88q10 18 25 18h39q19 0 18 -20q-18 -86 -82 -142q-62 -55 -174 -55z" />
    <glyph glyph-name="Aogonek" unicode="&#x104;" horiz-adv-x="1122" 
d="M342 520h461l-90 780h-4zM686 1436h90q22 0 27 -25l184 -1384q6 -27 -22 -27h-72q-20 0 -25 23l-51 389h-528l-189 -389q-12 -23 -28 -23h-80q-30 0 -15 27l672 1384q16 25 37 25zM913 20l68 -6q-188 -85 -188 -190q0 -49 84 -49q9 0 59 6q16 0 16 -10v-39
q-2 -15 -14 -23q-40 -18 -88 -18q-68 0 -109 27t-41 83q0 133 213 219z" />
    <glyph glyph-name="aogonek" unicode="&#x105;" horiz-adv-x="929" 
d="M850 745l-125 -722q-6 -23 -29 -23h-59q-26 0 -21 23l29 155q-117 -192 -344 -192q-131 0 -197 65q-67 66 -67 176q0 105 42 182q42 76 102 118q61 43 161 68q107 27 181 34q81 7 200 12l20 109q23 125 -22 181q-44 56 -170 56q-129 0 -285 -55q-26 -12 -26 14l-4 53
q0 19 22 29q134 59 307 59q345 0 285 -342zM680 391l29 160q-124 -5 -178 -11q-71 -8 -150 -27q-82 -20 -127 -52q-49 -35 -78 -90q-31 -59 -31 -138q0 -71 44 -112t133 -41q140 0 237 89q97 90 121 222zM653 20l64 -4q-185 -84 -185 -182q0 -47 78 -47q11 0 35 2q4 0 8 0.5
t7 1t5 0.5h3h8q2 0 4 -3q2 -4 2 -7v-37q0 -19 -14 -20q-29 -17 -82 -17q-60 0 -102 25q-40 24 -40 73q0 137 209 215z" />
    <glyph glyph-name="Cacute" unicode="&#x106;" horiz-adv-x="997" 
d="M584 90q110 0 223 45q14 5 21 1q8 -5 8 -19l12 -54q0 -16 -29 -28q-112 -53 -256 -53q-444 0 -444 462q0 106 26 275q69 381 225 560q154 177 418 177q162 0 261 -51q25 -12 14 -31l-27 -53q-15 -26 -35 -16q-91 41 -206 41q-217 0 -343 -149q-127 -150 -184 -478
q-28 -159 -28 -264q0 -188 85 -276q86 -89 259 -89zM709 1561l137 168q18 24 41 24h96q12 0 13 -10q2 -11 -9 -19l-194 -172q-14 -14 -35 -14h-41q-11 0 -12 7q-2 9 4 16z" />
    <glyph glyph-name="cacute" unicode="&#x107;" horiz-adv-x="808" 
d="M102 535q94 552 492 552q139 0 223 -40q20 -14 12 -33l-28 -49q-8 -28 -33 -15q-74 33 -168 33q-156 0 -249 -110q-94 -111 -134 -338q-20 -113 -20 -187q0 -264 239 -264q109 0 199 39q12 6 18 2q6 -5 6 -14l9 -54q1 -16 -25 -28q-100 -47 -209 -47q-169 0 -261 92
q-91 91 -91 268q0 80 20 193zM551 1219l141 176q14 20 39 20h94q15 0 17 -9q2 -10 -8 -20l-199 -174q-14 -14 -35 -14h-41q-25 0 -8 21z" />
    <glyph glyph-name="Ccircumflex" unicode="&#x108;" horiz-adv-x="997" 
d="M584 90q110 0 223 45q14 5 21 1q8 -5 8 -19l12 -54q0 -16 -29 -28q-112 -53 -256 -53q-444 0 -444 462q0 106 26 275q69 381 225 560q154 177 418 177q162 0 261 -51q25 -12 14 -31l-27 -53q-15 -26 -35 -16q-91 41 -206 41q-217 0 -343 -149q-127 -150 -184 -478
q-28 -159 -28 -264q0 -188 85 -276q86 -89 259 -89zM934 1552l-113 123l-155 -123q-17 -14 -35 -14h-56q-28 0 -6 25l195 174q16 16 37 16h57q19 0 35 -16l129 -174q8 -11 3 -18q-4 -7 -15 -7h-49q-13 0 -27 14z" />
    <glyph glyph-name="ccircumflex" unicode="&#x109;" horiz-adv-x="808" 
d="M102 535q94 552 492 552q139 0 223 -40q20 -14 12 -33l-28 -49q-8 -28 -33 -15q-74 33 -168 33q-156 0 -249 -110q-94 -111 -134 -338q-20 -113 -20 -187q0 -264 239 -264q109 0 199 39q12 6 18 2q6 -5 6 -14l9 -54q1 -16 -25 -28q-100 -47 -209 -47q-169 0 -261 92
q-91 91 -91 268q0 80 20 193zM737 1212l-114 134l-160 -134q-14 -14 -33 -14h-53q-29 0 -6 23l194 184q20 16 39 16h58q20 0 32 -16l133 -184q7 -8 2 -16q-4 -7 -16 -7h-49q-16 0 -27 14z" />
    <glyph glyph-name="Cdotaccent" unicode="&#x10a;" horiz-adv-x="997" 
d="M584 90q110 0 223 45q14 5 21 1q8 -5 8 -19l12 -54q0 -16 -29 -28q-112 -53 -256 -53q-444 0 -444 462q0 106 26 275q69 381 225 560q154 177 418 177q162 0 261 -51q25 -12 14 -31l-27 -53q-15 -26 -35 -16q-91 41 -206 41q-217 0 -343 -149q-127 -150 -184 -478
q-28 -159 -28 -264q0 -188 85 -276q86 -89 259 -89zM881 1681l-23 -120q-2 -23 -27 -23h-77q-21 0 -19 23l21 120q6 23 28 23h78q25 0 19 -23z" />
    <glyph glyph-name="cdotaccent" unicode="&#x10b;" horiz-adv-x="808" 
d="M102 535q94 552 492 552q139 0 223 -40q20 -14 12 -33l-28 -49q-8 -28 -33 -15q-74 33 -168 33q-156 0 -249 -110q-94 -111 -134 -338q-20 -113 -20 -187q0 -264 239 -264q109 0 199 39q12 6 18 2q6 -5 6 -14l9 -54q1 -16 -25 -28q-100 -47 -209 -47q-169 0 -261 92
q-91 91 -91 268q0 80 20 193zM698 1341l-22 -120q-6 -23 -27 -23h-78q-22 0 -20 23l22 120q5 25 27 25h78q22 0 20 -25z" />
    <glyph glyph-name="Ccaron" unicode="&#x10c;" horiz-adv-x="997" 
d="M584 90q110 0 223 45q14 5 21 1q8 -5 8 -19l12 -54q0 -16 -29 -28q-112 -53 -256 -53q-444 0 -444 462q0 106 26 275q69 381 225 560q154 177 418 177q162 0 261 -51q25 -12 14 -31l-27 -53q-15 -26 -35 -16q-91 41 -206 41q-217 0 -343 -149q-127 -150 -184 -478
q-28 -159 -28 -264q0 -188 85 -276q86 -89 259 -89zM805 1616l151 121q22 16 33 16h55q13 0 16 -8q3 -9 -7 -16l-193 -175q-16 -16 -39 -16h-57q-21 0 -31 16l-131 175q-4 5 -4 11q0 4 5 9q4 4 13 4h48q19 0 26 -16z" />
    <glyph glyph-name="ccaron" unicode="&#x10d;" horiz-adv-x="808" 
d="M102 535q94 552 492 552q139 0 223 -40q20 -14 12 -33l-28 -49q-8 -28 -33 -15q-74 33 -168 33q-156 0 -249 -110q-94 -111 -134 -338q-20 -113 -20 -187q0 -264 239 -264q109 0 199 39q12 6 18 2q6 -5 6 -14l9 -54q1 -16 -25 -28q-100 -47 -209 -47q-169 0 -261 92
q-91 91 -91 268q0 80 20 193zM614 1274l160 133q15 14 31 14h55q13 0 14 -7q2 -8 -8 -15l-194 -185q-20 -16 -39 -16h-58q-22 0 -32 16l-131 185q-4 7 -1 15q3 7 13 7h47q18 0 29 -14z" />
    <glyph glyph-name="Dcaron" unicode="&#x10e;" horiz-adv-x="1142" 
d="M397 0h-301q-28 0 -22 25l243 1388q6 23 29 23h277q241 0 366 -104t125 -347q0 -115 -27 -254q-72 -408 -236 -569q-165 -162 -454 -162zM612 1325h-190l-215 -1214h196q232 0 366 134q135 135 198 486q24 139 24 236q0 198 -95 278t-284 80zM768 1616l152 121
q22 16 32 16h56q12 0 15 -8q3 -9 -7 -16l-193 -175q-16 -16 -39 -16h-57q-21 0 -31 16l-131 175q-4 5 -4 11q0 4 5 9q4 4 14 4h47q19 0 26 -16z" />
    <glyph glyph-name="dcaron" unicode="&#x10f;" horiz-adv-x="1173" 
d="M797 535q16 70 16 170q0 282 -235 282q-284 0 -363 -452q-20 -113 -20 -193q0 -260 223 -260q144 0 242 115t137 338zM707 23l28 165q-106 -206 -338 -206q-152 0 -234 91q-83 92 -83 265q0 76 20 197q96 552 467 552q119 0 194 -56q77 -58 95 -154l94 536q6 23 27 23h63
q25 0 23 -23l-248 -1390q-5 -23 -27 -23h-63q-23 0 -18 23zM1309 1274l-95 -189q-6 -18 -26 -18h-29q-15 0 -10 25l78 182h-37q-23 0 -19 22l25 138q6 22 29 22h98q24 0 18 -22l-22 -129q-1 -19 -10 -31z" />
    <glyph glyph-name="Dcroat" unicode="&#x110;" horiz-adv-x="1146" 
d="M401 0h-301q-28 0 -22 25l115 651h-97q-22 0 -16 20l6 45q5 23 25 23h98l113 649q6 23 28 23h277q239 0 363 -105t124 -352q0 -110 -24 -260q-69 -399 -235 -559t-454 -160zM616 1325h-190l-98 -561h247q24 0 19 -23l-8 -45q-1 -20 -25 -20h-250l-100 -565h197
q112 0 197 27t158 95q74 70 123 189q52 128 81 297q26 134 26 246q0 198 -94 279q-95 81 -283 81z" />
    <glyph glyph-name="dcroat" unicode="&#x111;" horiz-adv-x="1036" 
d="M707 23l28 165q-106 -206 -338 -206q-152 0 -234 91q-83 92 -83 265q0 80 20 197q96 552 467 552q116 0 191 -56q76 -56 98 -152l59 335h-256q-24 0 -18 21l4 31q6 22 27 22h256l22 125q6 23 27 23h63q25 0 23 -23l-25 -125h90q23 0 17 -22l-4 -31q-6 -21 -27 -21h-88
l-211 -1191q-5 -23 -27 -23h-63q-23 0 -18 23zM797 535q16 70 16 170q0 282 -235 282q-284 0 -363 -452q-20 -113 -20 -193q0 -260 223 -260q144 0 242 115t137 338z" />
    <glyph glyph-name="Emacron" unicode="&#x112;" horiz-adv-x="923" 
d="M821 682h-514l-102 -573h536q25 0 23 -23l-10 -61q-6 -25 -29 -25h-629q-28 0 -22 25l243 1388q6 23 29 23h625q26 0 20 -23l-10 -61q-2 -25 -29 -25h-532l-92 -539h514q22 0 18 -24l-10 -57q-2 -25 -29 -25zM918 1554h-457q-21 0 -21 21l9 41q1 22 26 22h459
q24 0 18 -22l-8 -41q0 -21 -26 -21z" />
    <glyph glyph-name="emacron" unicode="&#x113;" horiz-adv-x="933" 
d="M467 78q120 0 227 45q12 6 21 1q8 -5 8 -15l8 -48q0 -20 -22 -30q-127 -51 -250 -51q-182 0 -279 95q-96 95 -96 277q0 83 18 191q46 265 167 405q120 139 311 139q150 0 226 -87q77 -88 77 -240q0 -67 -17 -172l-14 -82q-2 -25 -29 -25h-620q-10 -57 -10 -125
q0 -134 69 -206t205 -72zM571 989q-269 0 -352 -414h537l4 19q16 92 16 164q0 231 -205 231zM838 1212h-455q-22 0 -16 21l4 37q4 22 26 22h455q24 0 18 -22l-6 -37q-6 -21 -26 -21z" />
    <glyph glyph-name="Ebreve" unicode="&#x114;" horiz-adv-x="923" 
d="M821 682h-514l-102 -573h536q25 0 23 -23l-10 -61q-6 -25 -29 -25h-629q-28 0 -22 25l243 1388q6 23 29 23h625q26 0 20 -23l-10 -61q-2 -25 -29 -25h-532l-92 -539h514q22 0 18 -24l-10 -57q-2 -25 -29 -25zM713 1532q-114 0 -166 55q-53 56 -41 135q2 21 22 21h41
q19 0 19 -19q4 -112 131 -112t170 112q8 19 24 19h41q21 0 15 -21q-16 -82 -81 -136q-64 -54 -175 -54z" />
    <glyph glyph-name="ebreve" unicode="&#x115;" horiz-adv-x="933" 
d="M467 78q120 0 227 45q12 6 21 1q8 -5 8 -15l8 -48q0 -20 -22 -30q-127 -51 -250 -51q-182 0 -279 95q-96 95 -96 277q0 83 18 191q46 265 167 405q120 139 311 139q150 0 226 -87q77 -88 77 -240q0 -67 -17 -172l-14 -82q-2 -25 -29 -25h-620q-10 -57 -10 -125
q0 -134 69 -206t205 -72zM571 989q-269 0 -352 -414h537l4 19q16 92 16 164q0 231 -205 231zM618 1192q-112 0 -166 57t-42 140q1 20 22 20h41q19 0 19 -18q0 -55 27 -87t104 -32q72 0 111 31q38 30 59 88q11 18 24 18h39q19 0 18 -20q-18 -87 -81 -142q-62 -55 -175 -55z
" />
    <glyph glyph-name="Edotaccent" unicode="&#x116;" horiz-adv-x="923" 
d="M821 682h-514l-102 -573h536q25 0 23 -23l-10 -61q-6 -25 -29 -25h-629q-28 0 -22 25l243 1388q6 23 29 23h625q26 0 20 -23l-10 -61q-2 -25 -29 -25h-532l-92 -539h514q22 0 18 -24l-10 -57q-2 -25 -29 -25zM803 1681l-23 -120q-2 -23 -26 -23h-78q-21 0 -19 23l21 120
q6 23 29 23h77q25 0 19 -23z" />
    <glyph glyph-name="edotaccent" unicode="&#x117;" horiz-adv-x="933" 
d="M467 78q120 0 227 45q12 6 21 1q8 -5 8 -15l8 -48q0 -20 -22 -30q-127 -51 -250 -51q-182 0 -279 95q-96 95 -96 277q0 83 18 191q46 265 167 405q120 139 311 139q150 0 226 -87q77 -88 77 -240q0 -67 -17 -172l-14 -82q-2 -25 -29 -25h-620q-10 -57 -10 -125
q0 -134 69 -206t205 -72zM571 989q-269 0 -352 -414h537l4 19q16 92 16 164q0 231 -205 231zM696 1341l-22 -120q-6 -23 -27 -23h-78q-22 0 -20 23l22 120q2 25 27 25h78q25 0 20 -25z" />
    <glyph glyph-name="Eogonek" unicode="&#x118;" horiz-adv-x="923" 
d="M821 682h-514l-102 -573h536q25 0 23 -23l-10 -61q-6 -25 -29 -25h-629q-28 0 -22 25l243 1388q6 23 29 23h625q26 0 20 -23l-10 -61q-2 -25 -29 -25h-532l-92 -539h514q22 0 18 -24l-10 -57q-2 -25 -29 -25zM649 20l68 -6q-189 -86 -189 -190q0 -49 84 -49q10 0 60 6
q16 0 16 -10v-39q-2 -15 -14 -23q-40 -18 -88 -18q-68 0 -109 27t-41 83q0 133 213 219z" />
    <glyph glyph-name="eogonek" unicode="&#x119;" horiz-adv-x="933" 
d="M467 78q120 0 227 45q12 6 21 1q8 -5 8 -15l8 -48q0 -20 -22 -30q-127 -51 -250 -51q-182 0 -279 95q-96 95 -96 277q0 83 18 191q46 265 167 405q120 139 311 139q150 0 226 -87q77 -88 77 -240q0 -67 -17 -172l-14 -82q-2 -25 -29 -25h-620q-10 -57 -10 -125
q0 -134 69 -206t205 -72zM571 989q-269 0 -352 -414h537l4 19q16 92 16 164q0 231 -205 231zM547 20l63 -4q-184 -84 -184 -182q0 -47 78 -47q11 0 35 2q5 0 10 0.5t8 1t4 0.5h8q3 0 4 -3q2 -4 2 -7v-37q0 -19 -14 -20q-29 -17 -82 -17q-59 0 -101 25q-40 24 -40 73
q0 137 209 215z" />
    <glyph glyph-name="Ecaron" unicode="&#x11a;" horiz-adv-x="923" 
d="M821 682h-514l-102 -573h536q25 0 23 -23l-10 -61q-6 -25 -29 -25h-629q-28 0 -22 25l243 1388q6 23 29 23h625q26 0 20 -23l-10 -61q-2 -25 -29 -25h-532l-92 -539h514q22 0 18 -24l-10 -57q-2 -25 -29 -25zM709 1616l151 121q22 16 33 16h55q13 0 16 -8t-8 -16
l-192 -175q-16 -16 -39 -16h-57q-21 0 -31 16l-131 175q-4 5 -4 11q0 4 5 9q4 4 13 4h47q20 0 27 -16z" />
    <glyph glyph-name="ecaron" unicode="&#x11b;" horiz-adv-x="933" 
d="M467 78q120 0 227 45q12 6 21 1q8 -5 8 -15l8 -48q0 -20 -22 -30q-127 -51 -250 -51q-182 0 -279 95q-96 95 -96 277q0 83 18 191q46 265 167 405q120 139 311 139q150 0 226 -87q77 -88 77 -240q0 -67 -17 -172l-14 -82q-2 -25 -29 -25h-620q-10 -57 -10 -125
q0 -134 69 -206t205 -72zM571 989q-269 0 -352 -414h537l4 19q16 92 16 164q0 231 -205 231zM618 1274l160 133q15 14 31 14h55q14 0 15 -7q1 -8 -9 -15l-194 -185q-20 -16 -39 -16h-57q-23 0 -33 16l-131 185q-4 7 -1 15q3 7 13 7h47q18 0 29 -14z" />
    <glyph glyph-name="Gcircumflex" unicode="&#x11c;" horiz-adv-x="1130" 
d="M664 805h370q27 0 21 -25l-121 -686q-5 -29 -37 -47q-121 -65 -309 -65q-233 0 -350 111t-117 347q0 132 26 279q69 387 231 563q160 174 447 174q179 0 277 -55q24 -10 16 -29l-28 -55q-12 -29 -35 -17q-107 46 -230 46q-241 0 -369 -145q-129 -146 -186 -482
q-28 -143 -28 -266q0 -189 87 -276t269 -87q124 0 227 41l101 567h-279q-24 0 -22 23l10 59q6 25 29 25zM954 1552l-112 123l-156 -123q-17 -14 -35 -14h-55q-28 0 -6 25l194 174q16 16 37 16h58q18 0 34 -16l129 -174q8 -11 4 -18t-16 -7h-49q-13 0 -27 14z" />
    <glyph glyph-name="gcircumflex" unicode="&#x11d;" horiz-adv-x="991" 
d="M766 590q16 83 16 143q0 128 -58 192t-165 64q-264 0 -336 -405q-16 -80 -16 -162q0 -244 211 -244q132 0 223 108q92 109 125 304zM956 1042l-161 -915q-63 -373 -439 -373q-178 0 -286 53q-21 11 -15 27l25 51q12 27 33 17q109 -47 243 -47q281 0 332 278l27 152
q-105 -201 -318 -201q-143 0 -224 85q-81 86 -81 247q0 83 17 168q45 246 155 374q111 129 283 129q107 0 181 -55q75 -55 91 -143l29 155q5 23 26 23h66q22 0 16 -25zM758 1212l-115 134l-160 -134q-14 -14 -32 -14h-54q-29 0 -6 23l195 184q20 16 39 16h57q21 0 33 -16
l133 -184q7 -8 2 -16q-4 -7 -16 -7h-50q-15 0 -26 14z" />
    <glyph glyph-name="Gbreve" unicode="&#x11e;" horiz-adv-x="1130" 
d="M664 805h370q27 0 21 -25l-121 -686q-5 -29 -37 -47q-121 -65 -309 -65q-233 0 -350 111t-117 347q0 132 26 279q69 387 231 563q160 174 447 174q179 0 277 -55q24 -10 16 -29l-28 -55q-12 -29 -35 -17q-107 46 -230 46q-241 0 -369 -145q-129 -146 -186 -482
q-28 -143 -28 -266q0 -189 87 -276t269 -87q124 0 227 41l101 567h-279q-24 0 -22 23l10 59q6 25 29 25zM825 1532q-114 0 -166 55t-40 135q1 21 22 21h41q18 0 18 -19q4 -112 131 -112t170 112q8 19 25 19h41q20 0 14 -21q-16 -82 -81 -136q-64 -54 -175 -54z" />
    <glyph glyph-name="gbreve" unicode="&#x11f;" horiz-adv-x="991" 
d="M766 590q16 83 16 143q0 128 -58 192t-165 64q-264 0 -336 -405q-16 -80 -16 -162q0 -244 211 -244q132 0 223 108q92 109 125 304zM956 1042l-161 -915q-63 -373 -439 -373q-178 0 -286 53q-21 11 -15 27l25 51q12 27 33 17q109 -47 243 -47q281 0 332 278l27 152
q-105 -201 -318 -201q-143 0 -224 85q-81 86 -81 247q0 83 17 168q45 246 155 374q111 129 283 129q107 0 181 -55q75 -55 91 -143l29 155q5 23 26 23h66q22 0 16 -25zM625 1192q-113 0 -167 57t-42 140q1 20 22 20h41q19 0 19 -18q0 -55 27 -87t104 -32q72 0 111 31
q38 30 59 88q7 18 24 18h39q20 0 19 -20q-18 -86 -82 -142q-62 -55 -174 -55z" />
    <glyph glyph-name="Gdotaccent" unicode="&#x120;" horiz-adv-x="1130" 
d="M664 805h370q27 0 21 -25l-121 -686q-5 -29 -37 -47q-121 -65 -309 -65q-233 0 -350 111t-117 347q0 132 26 279q69 387 231 563q160 174 447 174q179 0 277 -55q24 -10 16 -29l-28 -55q-12 -29 -35 -17q-107 46 -230 46q-241 0 -369 -145q-129 -146 -186 -482
q-28 -143 -28 -266q0 -189 87 -276t269 -87q124 0 227 41l101 567h-279q-24 0 -22 23l10 59q6 25 29 25zM922 1681l-23 -120q-2 -23 -27 -23h-77q-21 0 -19 23l21 120q6 23 28 23h78q25 0 19 -23z" />
    <glyph glyph-name="gdotaccent" unicode="&#x121;" horiz-adv-x="991" 
d="M766 590q16 83 16 143q0 128 -58 192t-165 64q-264 0 -336 -405q-16 -80 -16 -162q0 -244 211 -244q132 0 223 108q92 109 125 304zM956 1042l-161 -915q-63 -373 -439 -373q-178 0 -286 53q-21 11 -15 27l25 51q12 27 33 17q109 -47 243 -47q281 0 332 278l27 152
q-105 -201 -318 -201q-143 0 -224 85q-81 86 -81 247q0 83 17 168q45 246 155 374q111 129 283 129q107 0 181 -55q75 -55 91 -143l29 155q5 23 26 23h66q22 0 16 -25zM713 1341l-23 -120q-6 -23 -26 -23h-78q-23 0 -21 23l23 120q2 25 26 25h78q26 0 21 -25z" />
    <glyph glyph-name="Gcommaaccent" unicode="&#x122;" horiz-adv-x="1130" 
d="M664 805h370q27 0 21 -25l-121 -686q-5 -29 -37 -47q-121 -65 -309 -65q-233 0 -350 111t-117 347q0 132 26 279q69 387 231 563q160 174 447 174q179 0 277 -55q24 -10 16 -29l-28 -55q-12 -29 -35 -17q-107 46 -230 46q-241 0 -369 -145q-129 -146 -186 -482
q-28 -143 -28 -266q0 -189 87 -276t269 -87q124 0 227 41l101 567h-279q-24 0 -22 23l10 59q6 25 29 25zM612 -268l-86 -166q-12 -21 -28 -21h-17q-18 0 -10 23l68 164h-41q-24 0 -19 24l21 115q2 23 26 23h99q20 0 18 -23l-20 -111q0 -12 -11 -28z" />
    <glyph glyph-name="gcommaaccent" unicode="&#x123;" horiz-adv-x="991" 
d="M766 590q16 83 16 143q0 128 -58 192t-165 64q-264 0 -336 -405q-16 -80 -16 -162q0 -244 211 -244q132 0 223 108q92 109 125 304zM956 1042l-161 -915q-63 -373 -439 -373q-178 0 -286 53q-21 11 -15 27l25 51q12 27 33 17q109 -47 243 -47q281 0 332 278l27 152
q-105 -201 -318 -201q-143 0 -224 85q-81 86 -81 247q0 83 17 168q45 246 155 374q111 129 283 129q107 0 181 -55q75 -55 91 -143l29 155q5 23 26 23h66q22 0 16 -25zM741 1348l80 157q16 19 27 19h18q16 0 8 -23l-61 -155h39q24 0 18 -21l-18 -111q-1 -22 -27 -22h-94
q-19 0 -18 22l18 103q1 12 10 31z" />
    <glyph glyph-name="Hcircumflex" unicode="&#x124;" horiz-adv-x="1171" 
d="M821 25l117 655h-631l-114 -655q-6 -25 -29 -25h-68q-28 0 -22 25l243 1388q6 23 31 23h68q26 0 20 -23l-108 -622h628l109 622q6 23 31 23h69q24 0 19 -23l-246 -1388q-5 -25 -25 -25h-69q-29 0 -23 25zM911 1552l-112 123l-156 -123q-17 -14 -35 -14h-55q-28 0 -6 25
l194 174q16 16 37 16h58q18 0 34 -16l129 -174q7 -11 3 -18t-15 -7h-49q-13 0 -27 14z" />
    <glyph glyph-name="hcircumflex" unicode="&#x125;" horiz-adv-x="1007" 
d="M924 737l-125 -714q-6 -23 -25 -23h-65q-27 0 -21 23l125 702q47 258 -180 258q-132 0 -226 -88q-96 -90 -120 -227l-113 -643q-6 -25 -27 -25h-65q-27 0 -21 23l246 1390q2 23 27 23h65q25 0 19 -23l-90 -516q112 190 334 190q158 0 225 -94t37 -256zM831 1552l-112 123
l-156 -123q-17 -14 -35 -14h-55q-28 0 -6 25l195 174q16 16 36 16h58q19 0 35 -16l129 -174q8 -11 3 -18q-4 -7 -16 -7h-49q-13 0 -27 14z" />
    <glyph glyph-name="Hbar" unicode="&#x126;" horiz-adv-x="1150" 
d="M821 25l117 655h-631l-114 -655q-6 -25 -29 -25h-68q-28 0 -22 25l190 1087h-90q-22 0 -16 21l4 30q5 23 26 23h91l38 227q6 23 31 23h68q26 0 20 -23l-39 -227h629l39 227q6 23 31 23h69q24 0 19 -25l-39 -225h90q24 0 18 -23l-6 -28q-6 -23 -26 -23h-91l-192 -1087
q-5 -25 -25 -25h-69q-29 0 -23 25zM328 791h628l56 321h-629z" />
    <glyph glyph-name="hbar" unicode="&#x127;" horiz-adv-x="1007" 
d="M924 739l-125 -716q-6 -23 -25 -23h-65q-27 0 -21 23l125 702q47 258 -180 258q-132 0 -226 -88q-96 -90 -120 -227l-113 -645q-6 -23 -27 -23h-65q-27 0 -21 23l209 1191h-86q-24 0 -18 21l6 31q1 22 23 22h90l22 125q2 23 27 23h65q25 0 19 -23l-21 -125h254
q25 0 19 -22l-4 -31q-2 -21 -27 -21h-256l-55 -317q108 190 334 190q155 0 224 -94q68 -94 38 -254z" />
    <glyph glyph-name="Itilde" unicode="&#x128;" horiz-adv-x="448" 
d="M86 25l246 1388q5 23 26 23h70q28 0 23 -23l-246 -1388q-5 -25 -29 -25h-70q-25 0 -20 25zM702 1663q-10 -58 -48 -96q-37 -37 -99 -37q-53 0 -131 39l-49 26q-54 29 -95 22q-43 -8 -53 -42l-4 -19q-6 -20 -30 -20h-31q-19 0 -17 29q10 59 50 97t98 38q40 0 131 -41
l49 -29q56 -33 96 -25q39 7 49 50l7 16q6 23 30 23h29q24 0 18 -31z" />
    <glyph glyph-name="itilde" unicode="&#x129;" horiz-adv-x="397" 
d="M354 1042l-178 -1019q-6 -23 -26 -23h-64q-26 0 -20 23l178 1019q6 25 30 25h64q22 0 16 -25zM604 1321q-7 -54 -43 -90q-35 -35 -90 -35q-66 0 -131 37l-45 27q-59 28 -91 19t-44 -42l-6 -18q-11 -19 -29 -19h-31q-24 0 -18 29q11 58 46 93q36 36 93 36q48 0 127 -41
l45 -25q110 -62 137 23l4 16q4 21 31 21h31q20 0 14 -31z" />
    <glyph glyph-name="Imacron" unicode="&#x12a;" horiz-adv-x="448" 
d="M86 25l246 1388q5 23 26 23h70q28 0 23 -23l-246 -1388q-5 -25 -29 -25h-70q-25 0 -20 25zM641 1554h-457q-20 0 -20 21l8 41q1 22 27 22h458q25 0 19 -22l-8 -41q0 -21 -27 -21z" />
    <glyph glyph-name="imacron" unicode="&#x12b;" horiz-adv-x="397" 
d="M354 1042l-178 -1019q-6 -23 -26 -23h-64q-26 0 -20 23l178 1019q6 25 30 25h64q22 0 16 -25zM557 1212h-455q-22 0 -16 21l4 37q4 22 27 22h454q25 0 19 -22l-6 -37q-6 -21 -27 -21z" />
    <glyph glyph-name="Ibreve" unicode="&#x12c;" horiz-adv-x="448" 
d="M86 25l246 1388q5 23 26 23h70q28 0 23 -23l-246 -1388q-5 -25 -29 -25h-70q-25 0 -20 25zM418 1532q-114 0 -166 55q-53 56 -41 135q1 21 22 21h41q19 0 19 -19q4 -112 131 -112t170 112q8 19 24 19h41q21 0 15 -21q-16 -82 -81 -136t-175 -54z" />
    <glyph glyph-name="ibreve" unicode="&#x12d;" horiz-adv-x="397" 
d="M354 1042l-178 -1019q-6 -23 -26 -23h-64q-26 0 -20 23l178 1019q6 25 30 25h64q22 0 16 -25zM338 1192q-113 0 -167 57t-42 140q1 20 23 20h41q18 0 18 -18q0 -54 28 -87q27 -32 103 -32q73 0 112 31q36 29 58 88q8 18 25 18h38q20 0 19 -20q-18 -86 -82 -142
q-62 -55 -174 -55z" />
    <glyph glyph-name="Iogonek" unicode="&#x12e;" horiz-adv-x="448" 
d="M86 25l246 1388q5 23 26 23h70q28 0 23 -23l-246 -1388q-5 -25 -29 -25h-70q-25 0 -20 25zM129 20l68 -6q-189 -86 -189 -190q0 -49 84 -49q10 0 60 6q16 0 16 -10v-39q-2 -15 -14 -23q-40 -18 -88 -18q-68 0 -109 27t-41 83q0 133 213 219z" />
    <glyph glyph-name="iogonek" unicode="&#x12f;" horiz-adv-x="397" 
d="M354 1042l-178 -1019q-6 -23 -26 -23h-66q-24 0 -18 23l178 1019q6 25 28 25h66q22 0 16 -25zM420 1395l-29 -156q-4 -22 -24 -22h-72q-23 0 -19 22l29 156q1 22 27 22h69q20 0 19 -22zM104 20l64 -4q-184 -84 -184 -182q0 -47 77 -47q11 0 35 2q4 0 8 0.5t7 1t5 0.5h3h8
q3 0 4 -3q2 -4 2 -7v-37q0 -19 -14 -20q-29 -17 -82 -17q-60 0 -102 25q-39 23 -39 73q0 137 208 215z" />
    <glyph glyph-name="Idotaccent" unicode="&#x130;" horiz-adv-x="448" 
d="M86 25l246 1388q5 23 26 23h70q28 0 23 -23l-246 -1388q-5 -25 -29 -25h-70q-25 0 -20 25zM498 1681l-23 -120q-2 -23 -26 -23h-78q-21 0 -19 23l21 120q6 23 28 23h78q25 0 19 -23z" />
    <glyph glyph-name="dotlessi" unicode="&#x131;" horiz-adv-x="397" 
d="M354 1042l-178 -1019q-6 -23 -26 -23h-64q-26 0 -20 23l178 1019q6 25 30 25h64q22 0 16 -25z" />
    <glyph glyph-name="IJ" unicode="&#x132;" horiz-adv-x="1185" 
d="M86 25l246 1388q5 23 26 23h70q28 0 23 -23l-246 -1388q-5 -25 -29 -25h-70q-25 0 -20 25zM899 371l184 1042q6 23 29 23h70q25 0 20 -23l-186 -1051q-34 -194 -124 -287q-88 -91 -255 -91q-133 0 -219 45q-27 12 -17 34l27 56q12 27 31 14q84 -41 178 -41q112 0 175 65
t87 214z" />
    <glyph glyph-name="ij" unicode="&#x133;" horiz-adv-x="813" 
d="M354 1042l-178 -1019q-6 -23 -26 -23h-66q-24 0 -18 23l178 1019q6 25 28 25h66q22 0 16 -25zM420 1395l-29 -156q-4 -22 -24 -22h-72q-23 0 -19 22l29 156q1 22 27 22h69q20 0 19 -22zM516 236l143 806q5 25 27 25h66q24 0 18 -25l-145 -817q-22 -125 -70 -182
q-46 -55 -147 -55q-63 0 -95 8q-18 6 -16 27l10 53q6 20 27 18q30 -6 61 -6q52 0 79 34t42 114zM834 1395l-27 -156q-4 -22 -27 -22h-69q-25 0 -19 22l27 156q1 22 26 22h70q25 0 19 -22z" />
    <glyph glyph-name="Jcircumflex" unicode="&#x134;" horiz-adv-x="759" 
d="M477 371l185 1042q6 23 28 23h70q25 0 20 -23l-186 -1051q-34 -194 -124 -287q-88 -91 -255 -91q-133 0 -219 45q-26 12 -16 34l26 56q12 27 31 14q84 -41 178 -41q112 0 175 65t87 214zM698 1552l-112 123l-156 -123q-17 -14 -35 -14h-55q-28 0 -6 25l194 174
q16 16 37 16h58q18 0 34 -16l129 -174q8 -11 4 -18t-16 -7h-49q-13 0 -27 14z" />
    <glyph glyph-name="jcircumflex" unicode="&#x135;" horiz-adv-x="417" 
d="M82 14l180 1028q6 25 27 25h67q23 0 17 -25l-185 -1038q-21 -128 -68 -182q-48 -55 -149 -55q-61 0 -90 8q-22 1 -16 26l8 54q2 23 27 18q1 0 19 -2q15 -2 23 -3q6 -1 17 -1q54 0 81 34q27 35 42 113zM487 1212l-114 134l-160 -134q-14 -14 -33 -14h-53q-29 0 -6 23
l194 184q20 16 39 16h58q20 0 32 -16l134 -184q7 -8 2 -16q-4 -7 -17 -7h-49q-16 0 -27 14z" />
    <glyph glyph-name="Kcommaaccent" unicode="&#x136;" horiz-adv-x="1011" 
d="M332 825l626 592q19 19 39 19h107q14 0 17 -10q3 -9 -7 -19l-700 -649l469 -727q7 -11 3 -21t-20 -10h-84q-18 0 -34 20l-435 682l-120 -677q-6 -25 -29 -25h-68q-28 0 -22 25l243 1388q6 23 31 23h68q26 0 20 -23zM487 -268l-86 -166q-12 -21 -28 -21h-17q-18 0 -10 23
l68 164h-41q-21 0 -19 24l21 115q2 23 26 23h99q20 0 18 -23l-20 -111q0 -12 -11 -28z" />
    <glyph glyph-name="kcommaaccent" unicode="&#x137;" horiz-adv-x="839" 
d="M709 0h-82q-25 0 -35 18l-328 517l-90 -512q-6 -23 -27 -23h-65q-27 0 -21 23l246 1390q2 23 27 23h65q25 0 19 -23l-131 -743l452 383q17 14 41 14h101q15 0 16 -11q2 -13 -12 -20l-533 -440l373 -565q7 -11 3 -21t-19 -10zM401 -262l-79 -158q-15 -18 -27 -18h-19
q-15 0 -8 22l62 156h-39q-25 0 -19 20l19 111q2 23 26 23h95q20 0 18 -23l-18 -102q-1 -9 -11 -31z" />
    <glyph glyph-name="kgreenlandic" unicode="&#x138;" horiz-adv-x="831" 
d="M702 0h-81q-27 0 -35 18l-328 517l-90 -512q-6 -23 -27 -23h-65q-27 0 -21 23l181 1021q6 23 26 23h64q24 0 22 -23l-67 -374l452 383q20 14 41 14h100q16 0 17 -11q2 -13 -12 -20l-533 -440l373 -565q7 -11 3 -21t-20 -10z" />
    <glyph glyph-name="Lacute" unicode="&#x139;" horiz-adv-x="880" 
d="M446 1413l-229 -1302h512q25 0 23 -25l-13 -61q-6 -25 -28 -25h-605q-28 0 -22 25l244 1388q6 23 30 23h68q26 0 20 -23zM389 1561l137 168q18 24 41 24h97q12 0 13 -10q2 -11 -9 -19l-195 -172q-14 -14 -35 -14h-41q-11 0 -12 7q-2 9 4 16z" />
    <glyph glyph-name="lacute" unicode="&#x13a;" horiz-adv-x="397" 
d="M422 1413l-246 -1390q-6 -23 -26 -23h-66q-24 0 -18 23l245 1390q2 23 25 23h65q23 0 21 -23zM352 1561l137 168q18 24 41 24h97q12 0 13 -10q2 -11 -9 -19l-195 -172q-14 -14 -35 -14h-41q-11 0 -12 7q-2 9 4 16z" />
    <glyph glyph-name="Lcommaaccent" unicode="&#x13b;" horiz-adv-x="880" 
d="M436 1413l-229 -1302h512q27 0 22 -25l-12 -61q-6 -25 -29 -25h-604q-28 0 -22 25l243 1388q6 23 31 23h68q26 0 20 -23zM397 -268l-86 -166q-12 -21 -28 -21h-17q-18 0 -10 23l68 164h-41q-21 0 -19 24l21 115q2 23 26 23h99q20 0 18 -23l-20 -111q0 -12 -11 -28z" />
    <glyph glyph-name="lcommaaccent" unicode="&#x13c;" horiz-adv-x="397" 
d="M424 1413l-246 -1390q-6 -23 -26 -23h-66q-24 0 -18 23l245 1390q2 23 25 23h65q23 0 21 -23zM133 -262l-80 -158q-15 -18 -26 -18h-19q-15 0 -8 22l61 156h-38q-25 0 -19 20l19 111q2 23 26 23h94q21 0 19 -23l-19 -102q-1 -12 -10 -31z" />
    <glyph glyph-name="Lcaron" unicode="&#x13d;" horiz-adv-x="880" 
d="M436 1413l-229 -1302h512q27 0 22 -25l-12 -61q-6 -25 -29 -25h-604q-28 0 -22 25l243 1388q6 23 31 23h68q26 0 20 -23zM774 1274l-94 -189q-6 -18 -27 -18h-28q-16 0 -11 25l78 182h-37q-22 0 -18 22l25 138q6 22 28 22h98q25 0 19 -22l-23 -129q-1 -19 -10 -31z" />
    <glyph glyph-name="lcaron" unicode="&#x13e;" horiz-adv-x="534" 
d="M424 1413l-246 -1390q-6 -23 -26 -23h-66q-24 0 -18 23l245 1390q2 23 25 23h65q23 0 21 -23zM670 1274l-95 -189q-6 -18 -26 -18h-29q-15 0 -10 25l78 182h-37q-23 0 -19 22l25 138q6 22 29 22h98q24 0 18 -22l-22 -129q-1 -19 -10 -31z" />
    <glyph glyph-name="Ldot" unicode="&#x13f;" horiz-adv-x="890" 
d="M436 1413l-229 -1302h512q27 0 22 -25l-12 -61q-6 -25 -29 -25h-604q-28 0 -22 25l243 1388q6 23 31 23h68q26 0 20 -23zM655 582l25 137q4 24 27 24h96q19 0 18 -24l-22 -137q-6 -23 -27 -23h-96q-27 0 -21 23z" />
    <glyph glyph-name="ldot" unicode="&#x140;" horiz-adv-x="528" 
d="M416 1413l-246 -1390q-6 -23 -27 -23h-65q-25 0 -19 23l246 1390q2 23 25 23h65q23 0 21 -23zM385 469l25 137q5 25 26 25h96q21 0 19 -25l-23 -137q-6 -23 -26 -23h-96q-27 0 -21 23z" />
    <glyph glyph-name="Lslash" unicode="&#x141;" horiz-adv-x="884" 
d="M440 1413l-112 -649l250 133q24 12 30 -8l13 -27q6 -21 -15 -28l-293 -156l-102 -567h512q27 0 22 -23l-12 -63q-6 -25 -28 -25h-605q-28 0 -22 25l102 583l-67 -37q-23 -11 -31 9l-10 26q-8 20 12 31l113 57l125 719q6 23 30 23h68q26 0 20 -23z" />
    <glyph glyph-name="lslash" unicode="&#x142;" horiz-adv-x="405" 
d="M426 1413l-111 -618l56 28q24 10 30 -8l11 -27q7 -15 -15 -30l-96 -51l-121 -684q-6 -23 -26 -23h-66q-24 0 -18 23l106 618l-55 -29q-21 -12 -31 9l-10 28q-8 17 14 29l99 53l122 682q2 23 25 23h66q22 0 20 -23z" />
    <glyph glyph-name="Nacute" unicode="&#x143;" horiz-adv-x="1181" 
d="M1196 1413l-246 -1388q-6 -25 -28 -25h-66q-25 0 -31 20l-426 1203l-209 -1198q-6 -25 -26 -25h-68q-28 0 -22 25l243 1388q6 23 31 23h66q19 0 30 -19l424 -1204l211 1200q6 23 29 23h66q27 0 22 -23zM737 1561l137 168q18 24 41 24h97q12 0 13 -10q2 -11 -9 -19
l-195 -172q-14 -14 -35 -14h-41q-11 0 -12 7q-2 9 4 16z" />
    <glyph glyph-name="nacute" unicode="&#x144;" horiz-adv-x="995" 
d="M913 737l-127 -714q-5 -23 -26 -23h-64q-25 0 -20 23l125 702q44 258 -178 258q-131 0 -225 -88q-94 -89 -117 -225l-117 -647q-5 -23 -25 -23h-65q-26 0 -21 23l180 1019q6 25 29 25h64q23 0 18 -23l-25 -147q117 190 334 190q157 0 224 -94q66 -93 36 -256zM563 1219
l142 176q14 20 38 20h95q14 0 16 -9q2 -10 -8 -20l-199 -174q-14 -14 -35 -14h-41q-25 0 -8 21z" />
    <glyph glyph-name="Ncommaaccent" unicode="&#x145;" horiz-adv-x="1181" 
d="M1196 1413l-246 -1388q-6 -25 -28 -25h-66q-25 0 -31 20l-426 1203l-209 -1198q-6 -25 -26 -25h-68q-28 0 -22 25l243 1388q6 23 31 23h66q19 0 30 -19l424 -1204l211 1200q6 23 29 23h66q27 0 22 -23zM524 -268l-86 -166q-12 -21 -28 -21h-17q-18 0 -10 23l68 164h-41
q-20 0 -19 24l21 115q2 23 26 23h99q20 0 18 -23l-20 -111q0 -12 -11 -28z" />
    <glyph glyph-name="ncommaaccent" unicode="&#x146;" horiz-adv-x="995" 
d="M913 737l-127 -714q-5 -23 -26 -23h-64q-25 0 -20 23l125 702q44 258 -178 258q-131 0 -225 -88q-94 -89 -117 -225l-117 -647q-5 -23 -25 -23h-65q-26 0 -21 23l180 1019q6 25 29 25h64q23 0 18 -23l-25 -147q117 190 334 190q157 0 224 -94q66 -93 36 -256zM440 -262
l-80 -158q-15 -18 -26 -18h-19q-15 0 -8 22l62 156h-39q-25 0 -19 20l19 111q2 23 26 23h95q20 0 18 -23l-18 -102q-1 -9 -11 -31z" />
    <glyph glyph-name="Ncaron" unicode="&#x147;" horiz-adv-x="1181" 
d="M1196 1413l-246 -1388q-6 -25 -28 -25h-66q-25 0 -31 20l-426 1203l-209 -1198q-6 -25 -26 -25h-68q-28 0 -22 25l243 1388q6 23 31 23h66q19 0 30 -19l424 -1204l211 1200q6 23 29 23h66q27 0 22 -23zM788 1616l152 121q22 16 33 16h55q12 0 15 -8q3 -9 -7 -16
l-192 -175q-16 -16 -39 -16h-57q-21 0 -31 16l-131 175q-4 5 -4 11q0 4 5 9q4 4 13 4h47q20 0 27 -16z" />
    <glyph glyph-name="ncaron" unicode="&#x148;" horiz-adv-x="995" 
d="M913 737l-127 -714q-5 -23 -26 -23h-64q-25 0 -20 23l125 702q44 258 -178 258q-131 0 -225 -88q-94 -89 -117 -225l-117 -647q-5 -23 -25 -23h-65q-26 0 -21 23l180 1019q6 25 29 25h64q23 0 18 -23l-25 -147q117 190 334 190q157 0 224 -94q66 -93 36 -256zM637 1274
l160 133q15 14 30 14h56q13 0 14 -7q2 -8 -8 -15l-195 -185q-20 -16 -39 -16h-57q-23 0 -33 16l-131 185q-4 7 -1 15q3 7 13 7h48q17 0 28 -14z" />
    <glyph glyph-name="napostrophe" unicode="&#x149;" horiz-adv-x="1126" 
d="M1044 737l-126 -714q-5 -23 -27 -23h-64q-25 0 -20 23l125 702q43 258 -178 258q-131 0 -225 -88q-95 -89 -117 -225l-117 -647q-5 -23 -25 -23h-65q-26 0 -21 23l181 1019q6 25 28 25h64q23 0 18 -23l-24 -147q117 190 333 190q157 0 224 -94q66 -93 36 -256zM287 1288
l-94 -188q-6 -19 -27 -19h-29q-15 0 -10 25l78 182h-37q-23 0 -18 23l24 137q6 22 29 22h98q24 0 18 -22l-22 -129q-1 -19 -10 -31z" />
    <glyph glyph-name="Eng" unicode="&#x14a;" horiz-adv-x="1181" 
d="M1194 1413l-242 -1382q-50 -267 -258 -267q-86 0 -135 19q-22 6 -16 24l24 54q10 26 33 18q41 -14 88 -14q58 0 92 31q33 30 49 106l-430 1221l-209 -1198q-6 -25 -26 -25h-68q-28 0 -22 25l243 1388q6 23 31 23h68q27 0 33 -19l419 -1204l211 1200q6 23 29 23h66
q26 0 20 -23z" />
    <glyph glyph-name="eng" unicode="&#x14b;" horiz-adv-x="995" 
d="M674 14l125 711q47 258 -176 258q-131 0 -225 -88q-95 -89 -117 -227l-117 -645q-5 -23 -25 -23h-65q-26 0 -21 23l180 1019q6 25 29 25h64q24 0 18 -23l-25 -147q45 75 135 134q85 56 212 56q153 0 216 -93q61 -91 31 -257l-129 -733q-23 -125 -71 -181
q-49 -56 -150 -56q-54 0 -90 10q-24 4 -14 24l8 54q5 23 27 18q30 -6 59 -6q52 0 79 34q27 35 42 113z" />
    <glyph glyph-name="Omacron" unicode="&#x14c;" horiz-adv-x="1200" 
d="M762 1456q407 0 407 -457q0 -117 -26 -280q-69 -382 -218 -560q-149 -177 -397 -177q-411 0 -411 456q0 112 26 281q68 377 221 559q150 178 398 178zM532 88q193 0 312 152t176 479q29 165 29 272q0 183 -72 270t-221 87q-195 0 -314 -152t-176 -477q-28 -165 -28 -275
q0 -182 72 -269t222 -87zM1018 1554h-457q-20 0 -20 21l8 41q1 22 26 22h459q25 0 19 -22l-9 -41q0 -21 -26 -21z" />
    <glyph glyph-name="omacron" unicode="&#x14d;" horiz-adv-x="989" 
d="M420 -18q395 0 491 553q19 114 19 190q0 177 -88 269q-88 93 -250 93q-396 0 -492 -552q-18 -108 -18 -195q0 -176 87 -267t251 -91zM426 82q-229 0 -229 266q0 82 18 187q82 452 371 452q229 0 229 -270q0 -77 -18 -182q-79 -453 -371 -453zM852 1212h-455q-22 0 -16 21
l4 37q4 22 27 22h454q25 0 19 -22l-6 -37q-6 -21 -27 -21z" />
    <glyph glyph-name="Obreve" unicode="&#x14e;" horiz-adv-x="1200" 
d="M762 1456q407 0 407 -457q0 -117 -26 -280q-69 -382 -218 -560q-149 -177 -397 -177q-411 0 -411 456q0 112 26 281q68 377 221 559q150 178 398 178zM532 88q193 0 312 152t176 479q29 165 29 272q0 183 -72 270t-221 87q-195 0 -314 -152t-176 -477q-28 -165 -28 -275
q0 -182 72 -269t222 -87zM795 1532q-114 0 -166 55q-53 56 -41 135q2 21 22 21h41q19 0 19 -19q4 -112 131 -112t170 112q8 19 24 19h41q21 0 15 -21q-16 -82 -81 -136q-64 -54 -175 -54z" />
    <glyph glyph-name="obreve" unicode="&#x14f;" horiz-adv-x="989" 
d="M420 -18q-164 0 -251 91t-87 267q0 87 18 195q96 552 492 552q162 0 250 -93q88 -92 88 -269q0 -76 -19 -190q-96 -553 -491 -553zM426 82q292 0 371 453q18 105 18 182q0 270 -229 270q-289 0 -371 -452q-18 -105 -18 -187q0 -266 229 -266zM633 1192q-113 0 -167 57
t-42 140q1 20 22 20h41q19 0 19 -18q0 -54 28 -87q27 -32 103 -32q73 0 112 31q36 29 58 88q7 18 24 18h39q20 0 19 -20q-18 -86 -82 -142q-62 -55 -174 -55z" />
    <glyph glyph-name="Ohungarumlaut" unicode="&#x150;" horiz-adv-x="1200" 
d="M762 1456q407 0 407 -457q0 -117 -26 -280q-69 -382 -218 -560q-149 -177 -397 -177q-411 0 -411 456q0 112 26 281q68 377 221 559q150 178 398 178zM532 88q193 0 312 152t176 479q29 165 29 272q0 183 -72 270t-221 87q-195 0 -314 -152t-176 -477q-28 -165 -28 -275
q0 -182 72 -269t222 -87zM621 1561l124 170q18 22 39 22h82q13 0 14 -10t-10 -21l-165 -170q-11 -14 -35 -14h-43q-21 0 -6 23zM887 1561l127 170q16 22 39 22h80q7 0 12 -5q5 -4 3 -12q-2 -9 -7 -14l-166 -170q-15 -14 -39 -14h-39q-21 0 -10 23z" />
    <glyph glyph-name="ohungarumlaut" unicode="&#x151;" horiz-adv-x="989" 
d="M420 -18q395 0 491 553q19 114 19 190q0 177 -88 269q-88 93 -250 93q-396 0 -492 -552q-18 -108 -18 -195q0 -176 87 -267t251 -91zM426 82q-229 0 -229 266q0 82 18 187q82 452 371 452q229 0 229 -270q0 -77 -18 -182q-79 -453 -371 -453zM453 1219l129 176
q11 20 36 20h76q16 0 17 -9q2 -9 -9 -20l-167 -174q-14 -14 -35 -14h-39q-25 0 -8 21zM717 1219l129 176q14 20 37 20h78q13 0 14 -9q2 -10 -8 -20l-166 -174q-14 -14 -37 -14h-37q-22 0 -10 21z" />
    <glyph glyph-name="OE" unicode="&#x152;" horiz-adv-x="1583" 
d="M1481 682h-486l-100 -571h508q26 0 20 -23l-12 -63q-2 -25 -27 -25h-737q-242 0 -366 106q-125 107 -125 357q0 122 26 256q69 396 237 557q168 160 458 160h753q26 0 21 -23l-11 -63q-6 -25 -28 -25h-504l-92 -537h485q23 0 19 -24l-11 -57q-6 -25 -28 -25zM993 1325
h-125q-232 0 -369 -131q-136 -130 -196 -475q-24 -146 -24 -244q0 -203 93 -285q91 -81 281 -81h127z" />
    <glyph glyph-name="oe" unicode="&#x153;" horiz-adv-x="1579" 
d="M1122 78q112 0 219 45q29 11 29 -14l8 -50q4 -21 -18 -28q-128 -51 -248 -51q-140 0 -225 64q-86 65 -107 185q-127 -247 -370 -247q-156 0 -242 92t-86 268q0 85 18 193q99 552 478 552q124 0 203 -63q80 -63 98 -180q125 243 356 243q143 0 219 -87q76 -86 76 -236
q0 -81 -17 -166l-14 -82q-4 -22 -29 -22h-598q-14 -84 -14 -134q0 -134 69 -208t195 -74zM414 82q276 0 358 453q19 112 19 186q0 266 -220 266q-272 0 -356 -452q-18 -108 -18 -189q0 -264 217 -264zM1231 989q-260 0 -342 -401h512l4 16q16 89 16 162q0 223 -190 223z" />
    <glyph glyph-name="Racute" unicode="&#x154;" horiz-adv-x="1085" 
d="M301 633h217q206 0 300 78q95 79 128 268q15 66 15 123q0 123 -77 174q-76 51 -249 51h-213zM348 1436h295q226 0 332 -76t106 -242q0 -76 -14 -143q-37 -211 -139 -313q-103 -103 -291 -125l252 -506q6 -10 1 -21q-4 -10 -20 -10h-71q-23 0 -35 18l-250 506h-233
l-88 -499q-6 -25 -29 -25h-68q-28 0 -22 25l243 1388q6 23 31 23zM672 1561l137 168q18 24 41 24h96q12 0 13 -10q2 -11 -9 -19l-194 -172q-14 -14 -35 -14h-41q-11 0 -12 7q-2 9 4 16z" />
    <glyph glyph-name="racute" unicode="&#x155;" horiz-adv-x="618" 
d="M262 1067h68q23 0 18 -23l-35 -190q41 86 131 155q89 68 203 68q14 0 19.5 -5.5t3.5 -16.5l-13 -78q-6 -23 -24 -23q-2 0 -20 2t-21 2q-110 0 -204 -107q-97 -110 -120 -257l-100 -571q-6 -23 -27 -23h-65q-27 0 -21 23l181 1019q6 25 26 25zM375 1219l141 176
q14 20 39 20h94q15 0 17 -9t-9 -20l-198 -174q-14 -14 -35 -14h-41q-25 0 -8 21z" />
    <glyph glyph-name="Rcommaaccent" unicode="&#x156;" horiz-adv-x="1085" 
d="M301 633h217q206 0 300 78q95 79 128 268q15 66 15 123q0 123 -77 174q-76 51 -249 51h-213zM348 1436h295q226 0 332 -76t106 -242q0 -76 -14 -143q-37 -211 -139 -313q-103 -103 -291 -125l252 -506q6 -10 1 -21q-4 -10 -20 -10h-71q-23 0 -35 18l-250 506h-233
l-88 -499q-6 -25 -29 -25h-68q-28 0 -22 25l243 1388q6 23 31 23zM481 -268l-86 -166q-12 -21 -28 -21h-17q-18 0 -10 23l68 164h-41q-23 0 -19 24l21 115q2 23 26 23h99q20 0 18 -23l-20 -111q0 -12 -11 -28z" />
    <glyph glyph-name="rcommaaccent" unicode="&#x157;" horiz-adv-x="618" 
d="M262 1067h68q23 0 18 -23l-35 -190q41 86 131 155q89 68 203 68q14 0 19.5 -5.5t3.5 -16.5l-13 -78q-6 -23 -24 -23q-2 0 -20 2t-21 2q-110 0 -204 -107q-97 -110 -120 -257l-100 -571q-6 -23 -27 -23h-65q-27 0 -21 23l181 1019q6 25 26 25zM127 -262l-80 -158
q-15 -18 -27 -18h-18q-15 0 -8 22l61 156h-39q-24 0 -18 20l18 111q2 23 27 23h94q21 0 19 -23l-19 -102q-1 -12 -10 -31z" />
    <glyph glyph-name="Rcaron" unicode="&#x158;" horiz-adv-x="1085" 
d="M301 633h217q206 0 300 78q95 79 128 268q15 66 15 123q0 123 -77 174q-76 51 -249 51h-213zM348 1436h295q226 0 332 -76t106 -242q0 -76 -14 -143q-37 -211 -139 -313q-103 -103 -291 -125l252 -506q6 -10 1 -21q-4 -10 -20 -10h-71q-23 0 -35 18l-250 506h-233
l-88 -499q-6 -25 -29 -25h-68q-28 0 -22 25l243 1388q6 23 31 23zM741 1616l152 121q22 16 33 16h55q12 0 15 -8q3 -9 -7 -16l-192 -175q-16 -16 -39 -16h-58q-20 0 -30 16l-131 175q-4 5 -4 11q0 4 5 9q4 4 13 4h47q20 0 27 -16z" />
    <glyph glyph-name="rcaron" unicode="&#x159;" horiz-adv-x="618" 
d="M262 1067h68q23 0 18 -23l-35 -190q41 86 131 155q89 68 203 68q14 0 19.5 -5.5t3.5 -16.5l-13 -78q-6 -23 -24 -23q-2 0 -20 2t-21 2q-110 0 -204 -107q-97 -110 -120 -257l-100 -571q-6 -23 -27 -23h-65q-27 0 -21 23l181 1019q6 25 26 25zM467 1274l160 133
q15 14 30 14h56q13 0 14 -7q2 -8 -8 -15l-195 -185q-20 -16 -39 -16h-57q-23 0 -33 16l-131 185q-4 7 -1 15q3 7 13 7h48q17 0 28 -14z" />
    <glyph glyph-name="Sacute" unicode="&#x15a;" horiz-adv-x="915" 
d="M815 412q0 -202 -133 -316q-134 -114 -350 -114q-200 0 -301 43q-27 12 -19 30l27 58q10 28 35 16q103 -41 260 -41q151 0 255 82q105 82 105 231q0 66 -37 122q-38 58 -77 88q-38 30 -119 81q-120 72 -189 154q-67 79 -67 196q0 193 123 304q122 110 329 110
q162 0 265 -41q22 -12 16 -31l-27 -55q-10 -28 -34 -16q-90 35 -222 35q-151 0 -241 -75t-90 -218q0 -49 14 -84q16 -39 54 -73q37 -33 63 -52q36 -26 84 -58q131 -83 204 -166q72 -82 72 -210zM598 1561l137 168q18 24 41 24h96q13 0 14 -10q2 -11 -9 -19l-195 -172
q-14 -14 -35 -14h-41q-11 0 -12 7q-2 9 4 16z" />
    <glyph glyph-name="sacute" unicode="&#x15b;" horiz-adv-x="776" 
d="M670 317q0 -157 -107 -246t-276 -89q-170 0 -275 43q-22 7 -16 26l24 53q11 23 29 15q105 -39 234 -39q112 0 193 59q83 60 83 172q0 64 -43 104q-45 42 -141 93q-16 7 -21 10q-106 56 -163 112q-56 56 -56 148q0 148 101 229q99 80 260 80q153 0 243 -40q23 -8 15 -27
l-23 -47q-12 -25 -31 -17q-95 33 -198 33q-104 0 -179 -48t-75 -153q0 -14 3 -26q4 -16 6 -22q2 -5 11 -20q3 -4 8 -10.5t6 -8.5q3 -6 18 -17q5 -4 11.5 -9t9.5 -7q10 -8 25 -18q5 -4 10.5 -7t10.5 -5.5t6 -3.5l30 -18q23 -12 33 -18q74 -44 94 -58q27 -19 70 -57
q40 -35 54 -74q16 -43 16 -92zM444 1219l142 176q14 20 39 20h94q15 0 16 -9q2 -10 -8 -20l-199 -174q-14 -14 -34 -14h-41q-25 0 -9 21z" />
    <glyph glyph-name="Scircumflex" unicode="&#x15c;" horiz-adv-x="915" 
d="M815 412q0 -202 -133 -316q-134 -114 -350 -114q-200 0 -301 43q-27 12 -19 30l27 58q10 28 35 16q103 -41 260 -41q151 0 255 82q105 82 105 231q0 66 -37 122q-38 58 -77 88q-38 30 -119 81q-120 72 -189 154q-67 79 -67 196q0 193 123 304q122 110 329 110
q162 0 265 -41q22 -12 16 -31l-27 -55q-10 -28 -34 -16q-90 35 -222 35q-151 0 -241 -75t-90 -218q0 -49 14 -84q16 -39 54 -73q37 -33 63 -52q36 -26 84 -58q131 -83 204 -166q72 -82 72 -210zM786 1552l-112 123l-156 -123q-17 -14 -35 -14h-55q-28 0 -6 25l194 174
q16 16 37 16h58q18 0 34 -16l129 -174q8 -11 4 -18t-16 -7h-49q-13 0 -27 14z" />
    <glyph glyph-name="scircumflex" unicode="&#x15d;" horiz-adv-x="776" 
d="M670 317q0 -157 -107 -246t-276 -89q-170 0 -275 43q-22 7 -16 26l24 53q11 23 29 15q105 -39 234 -39q112 0 193 59q83 60 83 172q0 64 -43 104q-45 42 -141 93q-16 7 -21 10q-106 56 -163 112q-56 56 -56 148q0 148 101 229q99 80 260 80q153 0 243 -40q23 -8 15 -27
l-23 -47q-12 -25 -31 -17q-95 33 -198 33q-104 0 -179 -48t-75 -153q0 -14 3 -26q4 -16 6 -22q2 -5 11 -20q3 -4 8 -10.5t6 -8.5q3 -6 18 -17q5 -4 11.5 -9t9.5 -7q10 -8 25 -18q5 -4 10.5 -7t10.5 -5.5t6 -3.5l30 -18q23 -12 33 -18q74 -44 94 -58q27 -19 70 -57
q40 -35 54 -74q16 -43 16 -92zM659 1212l-114 134l-160 -134q-14 -14 -33 -14h-53q-29 0 -6 23l194 184q20 16 39 16h58q20 0 32 -16l134 -184q7 -8 2 -16q-4 -7 -17 -7h-49q-16 0 -27 14z" />
    <glyph glyph-name="Scedilla" unicode="&#x15e;" horiz-adv-x="915" 
d="M815 412q0 -202 -133 -316q-134 -114 -350 -114q-200 0 -301 43q-27 12 -19 30l27 58q10 28 35 16q103 -41 260 -41q151 0 255 82q105 82 105 231q0 66 -37 122q-38 58 -77 88q-38 30 -119 81q-120 72 -189 154q-67 79 -67 196q0 193 123 304q122 110 329 110
q162 0 265 -41q22 -12 16 -31l-27 -55q-10 -28 -34 -16q-90 35 -222 35q-151 0 -241 -75t-90 -218q0 -49 14 -84q16 -39 54 -73q37 -33 63 -52q36 -26 84 -58q131 -83 204 -166q72 -82 72 -210zM293 18h69q67 -24 108 -73q42 -49 42 -105q0 -74 -54 -111q-55 -38 -139 -38
q-52 0 -67 6q-14 7 -12 22l6 37q5 17 20 17h51q109 0 109 82q0 96 -133 163z" />
    <glyph glyph-name="scedilla" unicode="&#x15f;" horiz-adv-x="776" 
d="M670 317q0 -157 -107 -246t-276 -89q-170 0 -275 43q-22 7 -16 26l24 53q11 23 29 15q105 -39 234 -39q112 0 193 59q83 60 83 172q0 64 -43 104q-45 42 -141 93q-16 7 -21 10q-106 56 -163 112q-56 56 -56 148q0 148 101 229q99 80 260 80q153 0 243 -40q23 -8 15 -27
l-23 -47q-12 -25 -31 -17q-95 33 -198 33q-104 0 -179 -48t-75 -153q0 -14 3 -26q4 -16 6 -22q2 -5 11 -20q3 -4 8 -10.5t6 -8.5q3 -6 18 -17q5 -4 11.5 -9t9.5 -7q10 -8 25 -18q5 -4 10.5 -7t10.5 -5.5t6 -3.5l30 -18q23 -12 33 -18q74 -44 94 -58q27 -19 70 -57
q40 -35 54 -74q16 -43 16 -92zM190 16h64q66 -24 106 -67q41 -44 41 -96q0 -71 -49 -108q-50 -38 -125 -38q-61 0 -73 6q-16 5 -11 23l4 35q4 14 21 14h49q100 0 100 82t-127 149z" />
    <glyph glyph-name="Scaron" unicode="&#x160;" horiz-adv-x="915" 
d="M815 412q0 -202 -133 -316q-134 -114 -350 -114q-200 0 -301 43q-27 12 -19 30l27 58q10 28 35 16q103 -41 260 -41q151 0 255 82q105 82 105 231q0 66 -37 122q-38 58 -77 88q-38 30 -119 81q-120 72 -189 154q-67 79 -67 196q0 193 123 304q122 110 329 110
q162 0 265 -41q22 -12 16 -31l-27 -55q-10 -28 -34 -16q-90 35 -222 35q-151 0 -241 -75t-90 -218q0 -49 14 -84q16 -39 54 -73q37 -33 63 -52q36 -26 84 -58q131 -83 204 -166q72 -82 72 -210zM664 1616l151 121q22 16 33 16h55q13 0 16 -8t-8 -16l-192 -175
q-16 -16 -39 -16h-57q-21 0 -31 16l-131 175q-4 5 -4 11q0 4 5 9q4 4 13 4h47q20 0 27 -16z" />
    <glyph glyph-name="scaron" unicode="&#x161;" horiz-adv-x="776" 
d="M670 317q0 -157 -107 -246t-276 -89q-170 0 -275 43q-22 7 -16 26l24 53q11 23 29 15q105 -39 234 -39q112 0 193 59q83 60 83 172q0 64 -43 104q-45 42 -141 93q-16 7 -21 10q-106 56 -163 112q-56 56 -56 148q0 148 101 229q99 80 260 80q153 0 243 -40q23 -8 15 -27
l-23 -47q-12 -25 -31 -17q-95 33 -198 33q-104 0 -179 -48t-75 -153q0 -14 3 -26q4 -16 6 -22q2 -5 11 -20q3 -4 8 -10.5t6 -8.5q3 -6 18 -17q5 -4 11.5 -9t9.5 -7q10 -8 25 -18q5 -4 10.5 -7t10.5 -5.5t6 -3.5l30 -18q23 -12 33 -18q74 -44 94 -58q27 -19 70 -57
q40 -35 54 -74q16 -43 16 -92zM526 1274l160 133q15 14 31 14h55q13 0 14 -7q2 -8 -8 -15l-194 -185q-20 -16 -39 -16h-58q-22 0 -32 16l-131 185q-4 7 -1 15q3 7 13 7h47q18 0 29 -14z" />
    <glyph glyph-name="Tcommaaccent" unicode="&#x162;" horiz-adv-x="892" 
d="M211 1350l10 63q6 23 29 23h735q25 0 19 -23l-11 -63q-5 -25 -28 -25h-308l-229 -1300q-6 -25 -29 -25h-67q-29 0 -23 25l230 1300h-308q-25 0 -20 25zM379 -268l-86 -166q-12 -21 -29 -21h-16q-18 0 -10 23l67 164h-41q-22 0 -18 24l20 115q2 23 27 23h98q21 0 19 -23
l-21 -111q0 -14 -10 -28z" />
    <glyph glyph-name="tcommaaccent" unicode="&#x163;" horiz-adv-x="612" 
d="M614 967h-229l-119 -676q-23 -118 1 -159q24 -42 112 -42q21 0 80 10q12 1 16 -3t4 -17l2 -49q0 -21 -22 -27q-35 -14 -101 -14q-134 0 -183 65q-49 66 -19 226l120 686h-129q-26 0 -20 22l10 53q2 25 27 25h133l43 258q6 25 29 25h61q25 0 19 -25l-46 -258h230
q23 0 18 -25l-10 -53q-6 -22 -27 -22zM285 -262l-80 -158q-15 -18 -27 -18h-18q-15 0 -8 22l61 156h-39q-24 0 -18 20l18 111q2 23 27 23h94q20 0 18 -23l-18 -102q-1 -12 -10 -31z" />
    <glyph glyph-name="Tcaron" unicode="&#x164;" horiz-adv-x="892" 
d="M211 1350l10 63q6 23 29 23h735q25 0 19 -23l-11 -63q-5 -25 -28 -25h-308l-229 -1300q-6 -25 -29 -25h-67q-29 0 -23 25l230 1300h-308q-25 0 -20 25zM643 1616l152 121q22 16 32 16h56q12 0 15 -8q3 -9 -7 -16l-193 -175q-16 -16 -39 -16h-57q-21 0 -31 16l-131 175
q-4 5 -4 11q0 4 5 9q4 4 14 4h47q19 0 26 -16z" />
    <glyph glyph-name="tcaron" unicode="&#x165;" horiz-adv-x="765" 
d="M614 967h-229l-119 -676q-23 -118 1 -159q24 -42 112 -42q21 0 80 10q12 1 16 -3t4 -17l2 -49q0 -21 -22 -27q-35 -14 -101 -14q-134 0 -183 65q-49 66 -19 226l120 686h-129q-26 0 -20 22l10 53q2 25 27 25h133l43 258q6 25 29 25h61q25 0 19 -25l-46 -258h230
q23 0 18 -25l-10 -53q-6 -22 -27 -22zM905 1288l-94 -188q-6 -19 -27 -19h-28q-16 0 -11 25l78 182h-37q-23 0 -18 23l25 137q6 22 28 22h99q24 0 18 -22l-23 -129q-1 -19 -10 -31z" />
    <glyph glyph-name="Tbar" unicode="&#x166;" horiz-adv-x="892" 
d="M211 1350l10 63q6 23 29 23h735q25 0 19 -23l-11 -63q-5 -25 -28 -25h-308l-100 -563h186q21 0 19 -23l-6 -30q-2 -25 -27 -25h-186l-115 -659q-6 -25 -29 -25h-67q-29 0 -23 25l117 659h-186q-24 0 -19 25l8 30q2 23 25 23h184l101 563h-308q-25 0 -20 25z" />
    <glyph glyph-name="tbar" unicode="&#x167;" horiz-adv-x="612" 
d="M614 967h-229l-63 -371h206q22 0 21 -21l-6 -30q-2 -23 -27 -23h-209l-41 -231q-23 -118 1 -159q24 -42 112 -42q21 0 80 10q12 1 16 -3t4 -17l2 -49q0 -21 -22 -27q-35 -14 -103 -14q-133 0 -182 64q-48 63 -18 227l43 241h-131q-21 0 -21 23l8 30q0 21 27 21h129
l65 371h-129q-26 0 -20 22l10 53q2 25 27 25h133l43 258q6 25 29 25h61q25 0 19 -25l-46 -258h230q23 0 18 -25l-10 -53q-6 -22 -27 -22z" />
    <glyph glyph-name="Utilde" unicode="&#x168;" horiz-adv-x="1150" 
d="M504 -20q-447 0 -363 477l168 956q6 23 29 23h68q28 0 22 -23l-166 -946q-35 -196 22 -287q57 -92 224 -92q168 0 257 92q90 93 124 287l166 946q5 23 28 23h70q24 0 18 -23l-167 -956q-44 -244 -162 -361q-117 -116 -338 -116zM1055 1663q-10 -58 -48 -96
q-37 -37 -100 -37q-53 0 -131 39l-49 26q-54 29 -95 22t-52 -42l-5 -19q-6 -20 -30 -20h-31q-18 0 -16 29q10 60 49 97q40 38 98 38q40 0 131 -41l49 -29q57 -33 97 -25q39 7 49 50l6 16q6 23 31 23h28q25 0 19 -31z" />
    <glyph glyph-name="utilde" unicode="&#x169;" horiz-adv-x="983" 
d="M102 338l123 704q6 25 31 25h63q23 0 17 -25l-123 -688q-43 -270 180 -270q124 0 215 88q93 90 117 225l113 645q2 25 28 25h66q18 0 16 -25l-178 -1019q-6 -23 -27 -23h-65q-25 0 -19 23l25 149q-102 -190 -317 -190q-160 0 -228 95q-67 94 -37 261zM897 1321
q-7 -54 -43 -90q-35 -35 -90 -35q-69 0 -131 37l-45 27q-59 28 -91 19t-44 -42l-7 -18q-8 -19 -28 -19h-31q-24 0 -18 29q11 58 46 93q36 36 93 36q48 0 127 -41l45 -25q110 -62 137 23l4 16q6 21 31 21h31q20 0 14 -31z" />
    <glyph glyph-name="Umacron" unicode="&#x16a;" horiz-adv-x="1150" 
d="M504 -20q-447 0 -363 477l168 956q6 23 29 23h68q28 0 22 -23l-166 -946q-35 -196 22 -287q57 -92 224 -92q168 0 257 92q90 93 124 287l166 946q5 23 28 23h70q24 0 18 -23l-167 -956q-44 -244 -162 -361q-117 -116 -338 -116zM993 1554h-456q-21 0 -21 21l8 41
q1 22 27 22h459q24 0 18 -22l-8 -41q0 -21 -27 -21z" />
    <glyph glyph-name="umacron" unicode="&#x16b;" horiz-adv-x="983" 
d="M102 338l123 704q6 25 31 25h63q23 0 17 -25l-123 -688q-43 -270 180 -270q124 0 215 88q93 90 117 225l113 645q2 25 28 25h66q18 0 16 -25l-178 -1019q-6 -23 -27 -23h-65q-25 0 -19 23l25 149q-102 -190 -317 -190q-160 0 -228 95q-67 94 -37 261zM850 1212h-455
q-22 0 -16 21l4 37q4 22 27 22h454q25 0 19 -22l-6 -37q-6 -21 -27 -21z" />
    <glyph glyph-name="Ubreve" unicode="&#x16c;" horiz-adv-x="1150" 
d="M504 -20q-447 0 -363 477l168 956q6 23 29 23h68q28 0 22 -23l-166 -946q-35 -196 22 -287q57 -92 224 -92q168 0 257 92q90 93 124 287l166 946q5 23 28 23h70q24 0 18 -23l-167 -956q-44 -244 -162 -361q-117 -116 -338 -116zM770 1532q-114 0 -166 55q-53 56 -41 135
q1 21 23 21h41q18 0 18 -19q4 -112 131 -112t170 112q8 19 25 19h41q20 0 14 -21q-16 -82 -81 -136t-175 -54z" />
    <glyph glyph-name="ubreve" unicode="&#x16d;" horiz-adv-x="983" 
d="M102 338l123 704q6 25 31 25h63q23 0 17 -25l-123 -688q-43 -270 180 -270q124 0 215 88q93 90 117 225l113 645q2 25 28 25h66q18 0 16 -25l-178 -1019q-6 -23 -27 -23h-65q-25 0 -19 23l25 149q-102 -190 -317 -190q-160 0 -228 95q-67 94 -37 261zM631 1192
q-113 0 -167 57t-42 140q1 20 22 20h41q19 0 19 -18q0 -55 27 -87t104 -32q72 0 111 31q38 30 59 88q11 18 24 18h39q20 0 19 -20q-18 -86 -82 -142q-62 -55 -174 -55z" />
    <glyph glyph-name="Uring" unicode="&#x16e;" horiz-adv-x="1150" 
d="M504 -20q-447 0 -363 477l168 956q6 23 29 23h68q28 0 22 -23l-166 -946q-35 -196 22 -287q57 -92 224 -92q168 0 257 92q90 93 124 287l166 946q5 23 28 23h70q24 0 18 -23l-167 -956q-44 -244 -162 -361q-117 -116 -338 -116zM809 1802q-58 0 -96 -35q-37 -34 -37 -96
q0 -82 100 -82q53 0 91 35t38 94q0 40 -25 62t-71 22zM604 1669q0 85 59 142t150 57q73 0 120 -41q46 -40 46 -105q0 -87 -59 -143q-60 -57 -152 -57q-76 0 -120 42t-44 105z" />
    <glyph glyph-name="uring" unicode="&#x16f;" horiz-adv-x="983" 
d="M102 338l123 704q6 25 31 25h63q23 0 17 -25l-123 -688q-43 -270 180 -270q124 0 215 88q93 90 117 225l113 645q2 25 28 25h66q18 0 16 -25l-178 -1019q-6 -23 -27 -23h-65q-25 0 -19 23l25 149q-102 -190 -317 -190q-160 0 -228 95q-67 94 -37 261zM633 1247
q53 0 91 35t38 90q0 86 -98 86q-57 0 -94 -34q-38 -35 -38 -93q0 -39 27 -61q28 -23 74 -23zM672 1524q75 0 119 -40q45 -41 45 -104q0 -84 -61 -142q-59 -56 -152 -56q-75 0 -119 40q-45 40 -45 101q0 86 60 143q61 58 153 58z" />
    <glyph glyph-name="Uhungarumlaut" unicode="&#x170;" horiz-adv-x="1150" 
d="M504 -20q-447 0 -363 477l168 956q6 23 29 23h68q28 0 22 -23l-166 -946q-35 -196 22 -287q57 -92 224 -92q168 0 257 92q90 93 124 287l166 946q5 23 28 23h70q24 0 18 -23l-167 -956q-44 -244 -162 -361q-117 -116 -338 -116zM578 1561l124 170q18 22 39 22h82
q13 0 14 -10t-10 -21l-165 -170q-11 -14 -35 -14h-43q-21 0 -6 23zM844 1561l127 170q16 22 39 22h80q7 0 12 -5q4 -4 3 -12q-2 -9 -7 -14l-166 -170q-15 -14 -39 -14h-39q-22 0 -10 23z" />
    <glyph glyph-name="uhungarumlaut" unicode="&#x171;" horiz-adv-x="983" 
d="M102 338l123 704q6 25 31 25h63q23 0 17 -25l-123 -688q-43 -270 180 -270q124 0 215 88q93 90 117 225l113 645q2 25 28 25h66q18 0 16 -25l-178 -1019q-6 -23 -27 -23h-65q-25 0 -19 23l25 149q-102 -190 -317 -190q-160 0 -228 95q-67 94 -37 261zM432 1219l129 176
q11 20 37 20h76q14 0 16 -9q2 -10 -8 -20l-168 -174q-14 -14 -35 -14h-39q-25 0 -8 21zM696 1219l129 176q14 20 37 20h78q12 0 14 -9q2 -10 -8 -20l-166 -174q-14 -14 -37 -14h-36q-23 0 -11 21z" />
    <glyph glyph-name="Uogonek" unicode="&#x172;" horiz-adv-x="1150" 
d="M504 -20q-447 0 -363 477l168 956q6 23 29 23h68q28 0 22 -23l-166 -946q-35 -196 22 -287q57 -92 224 -92q168 0 257 92q90 93 124 287l166 946q5 23 28 23h70q24 0 18 -23l-167 -956q-44 -244 -162 -361q-117 -116 -338 -116zM598 20l68 -6q-189 -86 -189 -190
q0 -49 84 -49q11 0 60 6q16 0 16 -10v-39q-2 -15 -14 -23q-40 -18 -88 -18q-69 0 -109 27q-41 27 -41 83q0 133 213 219z" />
    <glyph glyph-name="uogonek" unicode="&#x173;" horiz-adv-x="983" 
d="M102 338l123 704q6 25 31 25h63q23 0 17 -25l-123 -688q-43 -270 180 -270q124 0 215 88q93 90 117 225l113 645q2 25 28 25h66q18 0 16 -25l-178 -1019q-6 -23 -27 -23h-65q-25 0 -19 23l25 149q-102 -190 -317 -190q-160 0 -228 95q-67 94 -37 261zM696 20l64 -4
q-185 -84 -185 -182q0 -47 78 -47q13 0 35 2t23 2h8q3 0 4 -3q2 -4 2 -7v-37q0 -19 -14 -20q-29 -17 -82 -17q-60 0 -102 25q-40 24 -40 73q0 137 209 215z" />
    <glyph glyph-name="Wcircumflex" unicode="&#x174;" horiz-adv-x="1726" 
d="M995 1436h74q29 0 29 -23l55 -885l21 -389h6l151 385l363 889q11 23 32 23h74q27 0 15 -29l-576 -1380q-12 -27 -37 -27h-96q-24 0 -29 25l-59 874l-19 344h-4l-137 -344l-364 -874q-8 -25 -37 -25h-97q-24 0 -30 27l-88 1380q0 29 24 29h74q20 0 25 -23l51 -889l14 -385
h6l158 389l367 885q8 23 34 23zM1192 1552l-113 123l-155 -123q-17 -14 -35 -14h-55q-29 0 -7 25l195 174q16 16 37 16h57q19 0 35 -16l129 -174q8 -11 3 -18q-4 -7 -15 -7h-49q-13 0 -27 14z" />
    <glyph glyph-name="wcircumflex" unicode="&#x175;" horiz-adv-x="1368" 
d="M754 1067h67q19 0 25 -23l53 -688l10 -225h4l88 225l287 686q11 25 33 25h68q24 0 12 -27l-434 -1017q-11 -23 -33 -23h-76q-24 0 -29 23l-51 651l-14 239h-6l-96 -239l-283 -651q-11 -23 -33 -23h-76q-24 0 -24 23l-78 1017q0 27 25 27h63q20 0 20 -25l48 -686l6 -225h4
l90 225l299 688q11 23 31 23zM956 1212l-114 134l-160 -134q-14 -14 -33 -14h-53q-29 0 -6 23l194 184q20 16 39 16h58q20 0 32 -16l134 -184q7 -8 2 -16q-4 -7 -17 -7h-49q-16 0 -27 14z" />
    <glyph glyph-name="Ycircumflex" unicode="&#x176;" horiz-adv-x="1069" 
d="M608 549l-94 -524q-2 -25 -27 -25h-69q-26 0 -21 25l92 524l-260 860q-4 10 1 18q5 9 20 9h72q22 0 28 -21l156 -532l57 -226h2l140 226l344 532q17 21 34 21h78q28 0 13 -27zM864 1552l-112 123l-156 -123q-17 -14 -35 -14h-55q-28 0 -6 25l194 174q16 16 37 16h57
q19 0 35 -16l129 -174q8 -11 3 -18q-4 -7 -15 -7h-49q-13 0 -27 14z" />
    <glyph glyph-name="ycircumflex" unicode="&#x177;" horiz-adv-x="854" 
d="M905 1040l-465 -995q-68 -150 -139 -216q-70 -65 -192 -65q-68 0 -117 19q-21 6 -15 24l23 52q7 20 31 18q45 -12 92 -12q89 0 135 67q47 68 35 138l-137 970q-4 27 22 27h70q18 0 20 -25l82 -641l29 -264h4l119 264l286 641q8 25 31 25h72q25 0 14 -27zM698 1212
l-114 134l-160 -134q-14 -14 -33 -14h-53q-29 0 -6 23l194 184q20 16 39 16h58q20 0 32 -16l133 -184q7 -9 3 -16t-17 -7h-49q-16 0 -27 14z" />
    <glyph glyph-name="Ydieresis" unicode="&#x178;" horiz-adv-x="1069" 
d="M608 549l-94 -524q-2 -25 -27 -25h-69q-26 0 -21 25l92 524l-260 860q-4 10 1 18q5 9 20 9h72q22 0 28 -21l156 -532l57 -226h2l140 226l344 532q17 21 34 21h78q28 0 13 -27zM653 1675l-20 -114q-6 -23 -29 -23h-74q-22 0 -20 23l22 114q2 23 25 23h78q24 0 18 -23z
M965 1675l-21 -114q-2 -23 -29 -23h-75q-21 0 -19 23l23 114q2 23 26 23h74q23 0 21 -23z" />
    <glyph glyph-name="Zacute" unicode="&#x179;" horiz-adv-x="974" 
d="M18 25l9 59q6 23 22 39l834 1202h-594q-25 0 -19 25l11 63q6 23 28 23h707q24 0 18 -23l-12 -61q0 -17 -16 -39l-832 -1202h617q24 0 18 -23l-10 -63q-5 -25 -29 -25h-733q-25 0 -19 25zM627 1561l137 168q18 24 41 24h96q12 0 13 -10q2 -11 -9 -19l-194 -172
q-14 -14 -35 -14h-41q-11 0 -12 7q-2 9 4 16z" />
    <glyph glyph-name="zacute" unicode="&#x17a;" horiz-adv-x="835" 
d="M838 1042l-9 -43q0 -16 -14 -30l-645 -869h483q11 0 16.5 -5t4.5 -15l-10 -57q-5 -23 -27 -23h-606q-25 0 -19 23l8 43q0 12 13 30l647 869h-467q-24 0 -20 22l10 55q2 25 28 25h588q21 0 19 -25zM485 1219l142 176q14 20 39 20h94q14 0 16 -9q2 -10 -8 -20l-199 -174
q-14 -14 -34 -14h-41q-26 0 -9 21z" />
    <glyph glyph-name="Zdotaccent" unicode="&#x17b;" horiz-adv-x="974" 
d="M18 25l9 59q6 23 22 39l834 1202h-594q-25 0 -19 25l11 63q6 23 28 23h707q24 0 18 -23l-12 -61q0 -17 -16 -39l-832 -1202h617q24 0 18 -23l-10 -63q-5 -25 -29 -25h-733q-25 0 -19 25zM770 1681l-22 -120q-2 -23 -27 -23h-78q-20 0 -18 23l20 120q6 23 29 23h78
q24 0 18 -23z" />
    <glyph glyph-name="zdotaccent" unicode="&#x17c;" horiz-adv-x="835" 
d="M838 1042l-9 -43q0 -16 -14 -30l-645 -869h483q11 0 16.5 -5t4.5 -15l-10 -57q-5 -23 -27 -23h-606q-25 0 -19 23l8 43q0 12 13 30l647 869h-467q-24 0 -20 22l10 55q2 25 28 25h588q21 0 19 -25zM635 1341l-23 -120q-6 -23 -26 -23h-78q-23 0 -21 23l23 120q2 25 27 25
h77q26 0 21 -25z" />
    <glyph glyph-name="Zcaron" unicode="&#x17d;" horiz-adv-x="974" 
d="M18 25l9 59q6 23 22 39l834 1202h-594q-25 0 -19 25l11 63q6 23 28 23h707q24 0 18 -23l-12 -61q0 -17 -16 -39l-832 -1202h617q24 0 18 -23l-10 -63q-5 -25 -29 -25h-733q-25 0 -19 25zM700 1616l152 121q22 16 33 16h55q12 0 15 -8q3 -9 -7 -16l-192 -175
q-16 -16 -39 -16h-58q-20 0 -30 16l-131 175q-4 5 -4 11q0 4 5 9q4 4 13 4h47q20 0 27 -16z" />
    <glyph glyph-name="zcaron" unicode="&#x17e;" horiz-adv-x="835" 
d="M838 1042l-9 -43q0 -16 -14 -30l-645 -869h483q11 0 16.5 -5t4.5 -15l-10 -57q-5 -23 -27 -23h-606q-25 0 -19 23l8 43q0 12 13 30l647 869h-467q-24 0 -20 22l10 55q2 25 28 25h588q21 0 19 -25zM557 1274l160 133q15 14 31 14h55q13 0 14 -7q2 -8 -8 -15l-195 -185
q-20 -16 -39 -16h-57q-23 0 -33 16l-131 185q-4 7 -1 15q3 7 14 7h47q17 0 28 -14z" />
    <glyph glyph-name="longs" unicode="&#x17f;" horiz-adv-x="528" 
d="M430 1155l-199 -1132q-6 -23 -24 -23h-66q-22 0 -20 23l166 944h-129q-20 0 -19 22l8 53q6 25 29 25h129l17 94q27 153 89 219q63 68 185 68q68 0 109 -14q14 -1 12 -27l-8 -45q-5 -27 -27 -21q-40 7 -78 7q-78 0 -117 -44q-39 -43 -57 -149z" />
    <glyph glyph-name="florin" unicode="&#x192;" horiz-adv-x="1126" 
d="M774 1143l-102 -338h237q23 0 17 -23l-15 -45q-7 -20 -26 -20h-242l-217 -703q-40 -131 -101 -191q-61 -59 -171 -59q-64 0 -105 13q-19 6 -12 26l16 52q12 22 35 20q35 -8 62 -8q65 0 104 39q38 38 65 121l211 690h-149q-23 0 -16 22l14 43q2 23 29 23h151l109 352
q50 156 123 225q75 70 196 70q72 0 115 -14q20 -11 12 -27l-18 -45q-7 -26 -33 -20q-43 10 -72 10q-84 0 -132 -50q-47 -48 -85 -163z" />
    <glyph glyph-name="Aringacute" unicode="&#x1fa;" horiz-adv-x="1122" 
d="M342 520h461l-90 780h-4zM686 1436h90q22 0 27 -25l184 -1384q6 -27 -22 -27h-72q-20 0 -25 23l-51 389h-528l-189 -389q-12 -23 -28 -23h-80q-30 0 -15 27l672 1384q16 25 37 25zM768 1651q-58 0 -96 -35q-37 -34 -37 -96q0 -82 100 -82q53 0 91 35t38 94q0 39 -25 61
q-26 23 -71 23zM563 1518q0 85 59 142q57 56 150 56q73 0 120 -41q46 -40 46 -104q0 -88 -59 -144q-60 -57 -152 -57q-77 0 -120 42q-44 42 -44 106zM684 1675l137 168q19 25 41 25h96q13 0 14 -10q2 -11 -9 -19l-195 -172q-14 -14 -35 -14h-41q-11 0 -12 7q-2 8 4 15z" />
    <glyph glyph-name="aringacute" unicode="&#x1fb;" horiz-adv-x="929" 
d="M850 745l-125 -722q-6 -23 -29 -23h-59q-26 0 -21 23l29 155q-117 -192 -344 -192q-131 0 -197 65q-67 66 -67 176q0 105 42 182q42 76 102 118q61 43 161 68q107 27 181 34q81 7 200 12l20 109q23 125 -22 181q-44 56 -170 56q-129 0 -285 -55q-26 -12 -26 14l-4 53
q0 19 22 29q134 59 307 59q345 0 285 -342zM680 391l29 160q-124 -5 -178 -11q-71 -8 -150 -27q-82 -20 -127 -52q-49 -35 -78 -90q-31 -59 -31 -138q0 -71 44 -112t133 -41q140 0 237 89q97 90 121 222zM604 1247q53 0 91 35t38 90q0 86 -98 86q-56 0 -93 -34
q-38 -35 -38 -93q0 -39 26 -61q28 -23 74 -23zM643 1524q75 0 119 -40q45 -41 45 -104q0 -84 -61 -142q-59 -56 -152 -56q-75 0 -119 40q-45 40 -45 101q0 86 60 143q61 58 153 58zM559 1485l141 176q14 20 39 20h95q14 0 16 -9t-8 -19l-199 -174q-15 -15 -35 -15h-41
q-25 0 -8 21z" />
    <glyph glyph-name="AEacute" unicode="&#x1fc;" horiz-adv-x="1452" 
d="M1348 682h-465l-103 -571h490q26 0 20 -23l-12 -63q-5 -25 -27 -25h-581q-28 0 -23 25l66 374h-424l-211 -376q-17 -23 -31 -23h-82q-28 0 -16 27l811 1384q19 25 41 25h696q27 0 21 -23l-13 -63q-5 -25 -26 -25h-484l-94 -537h465q20 0 20 -24l-10 -57q-6 -25 -28 -25z
M360 506h371l146 821h-54zM883 1561l137 168q18 24 41 24h96q12 0 13 -10q2 -11 -9 -19l-194 -172q-14 -14 -35 -14h-41q-11 0 -12 7q-2 9 4 16z" />
    <glyph glyph-name="aeacute" unicode="&#x1fd;" horiz-adv-x="1503" 
d="M1047 78q117 0 219 45q23 10 28 -14l6 -50q2 -19 -20 -30q-113 -49 -244 -49q-145 0 -229 68q-86 69 -98 188q-118 -250 -394 -250q-136 0 -207 64q-73 65 -73 173q0 74 22 133q22 58 58 99q35 39 93 66q65 30 108 43q55 17 129 25q86 10 130 11q11 0 35.5 1t49.5 2t49 1
l24 146q43 237 -186 237q-127 0 -283 -55q-24 -10 -24 14l-9 53q0 18 23 29q159 59 299 59q270 0 276 -200q110 200 336 200q142 0 215 -83q74 -85 74 -232q0 -86 -14 -160l-17 -88q-1 -22 -28 -22h-598q-15 -79 -15 -152q0 -133 68 -203q68 -69 197 -69zM1151 989
q-128 0 -213 -100q-86 -101 -125 -293h514l2 18q17 110 17 152q0 223 -195 223zM672 393l20 117q-24 0 -124 -4q-41 -1 -110 -9q-68 -7 -106 -18q-44 -12 -83 -30q-44 -20 -68 -50q-23 -29 -39 -70q-17 -43 -17 -98q0 -149 183 -149q138 0 227 88q90 89 117 223zM807 1219
l141 176q14 20 39 20h94q15 0 17 -9q2 -10 -8 -20l-199 -174q-14 -14 -35 -14h-41q-25 0 -8 21z" />
    <glyph glyph-name="Oslashacute" unicode="&#x1fe;" horiz-adv-x="1208" 
d="M764 1456q410 0 410 -457q0 -117 -31 -280q-66 -382 -215 -559q-150 -178 -398 -178q-411 0 -411 456q0 132 28 281q66 379 217 559q150 178 400 178zM535 88q192 0 311 152t176 479q29 165 29 272q0 182 -73 270q-72 87 -222 87q-193 0 -312 -151t-176 -478
q-26 -152 -26 -275q0 -356 293 -356zM1071 1124l-817 -905l-39 -41l-147 -160q-15 -18 -29 -4l-37 33q-12 16 4 31l174 190l41 39l819 912l41 43l138 151q22 20 34 8l35 -32q15 -15 0 -33l-168 -185zM741 1561l138 168q18 24 41 24h96q12 0 13 -10q2 -11 -9 -19l-195 -172
q-14 -14 -34 -14h-41q-12 0 -13 7q-2 9 4 16z" />
    <glyph glyph-name="oslashacute" unicode="&#x1ff;" horiz-adv-x="997" 
d="M426 -18q-166 0 -254 91t-88 267q0 82 20 195q96 552 492 552q164 0 251 -92q87 -91 87 -270q0 -76 -19 -190q-100 -553 -489 -553zM430 82q292 0 371 453q20 111 20 182q0 270 -231 270q-289 0 -371 -452q-18 -125 -18 -187q0 -266 229 -266zM831 848l-612 -696l-37 -37
l-94 -109q-16 -16 -33 -4l-24 23q-14 14 0 30l112 125l43 39l613 694l43 43l92 105q15 18 31 2l24 -21q16 -10 -2 -26l-113 -127zM565 1219l142 176q14 20 38 20h95q14 0 16 -9q2 -10 -8 -20l-199 -174q-14 -14 -35 -14h-41q-25 0 -8 21z" />
    <glyph glyph-name="Scommaaccent" unicode="&#x218;" horiz-adv-x="915" 
d="M815 412q0 -202 -133 -316q-134 -114 -350 -114q-200 0 -301 43q-27 12 -19 30l27 58q10 28 35 16q103 -41 260 -41q151 0 255 82q105 82 105 231q0 66 -37 122q-38 58 -77 88q-38 30 -119 81q-120 72 -189 154q-67 79 -67 196q0 193 123 304q122 110 329 110
q162 0 265 -41q22 -12 16 -31l-27 -55q-10 -28 -34 -16q-90 35 -222 35q-151 0 -241 -75t-90 -218q0 -49 14 -84q16 -39 54 -73q37 -33 63 -52q36 -26 84 -58q131 -83 204 -166q72 -82 72 -210zM393 -268l-86 -166q-12 -21 -28 -21h-17q-18 0 -10 23l67 164h-40
q-21 0 -19 24l21 115q2 23 26 23h99q20 0 18 -23l-21 -111q0 -14 -10 -28z" />
    <glyph glyph-name="scommaaccent" unicode="&#x219;" horiz-adv-x="776" 
d="M670 317q0 -157 -107 -246t-276 -89q-170 0 -275 43q-22 7 -16 26l24 53q11 23 29 15q105 -39 234 -39q112 0 193 59q83 60 83 172q0 64 -43 104q-45 42 -141 93q-16 7 -21 10q-106 56 -163 112q-56 56 -56 148q0 148 101 229q99 80 260 80q153 0 243 -40q23 -8 15 -27
l-23 -47q-12 -25 -31 -17q-95 33 -198 33q-104 0 -179 -48t-75 -153q0 -14 3 -26q4 -16 6 -22q2 -5 11 -20q3 -4 8 -10.5t6 -8.5q3 -6 18 -17q5 -4 11.5 -9t9.5 -7q10 -8 25 -18q5 -4 10.5 -7t10.5 -5.5t6 -3.5l30 -18q23 -12 33 -18q74 -44 94 -58q27 -19 70 -57
q40 -35 54 -74q16 -43 16 -92zM332 -262l-80 -158q-15 -18 -27 -18h-18q-15 0 -8 22l61 156h-39q-24 0 -18 20l18 111q2 23 27 23h94q20 0 18 -23l-18 -102q-1 -12 -10 -31z" />
    <glyph glyph-name="uni021A" unicode="&#x21a;" horiz-adv-x="892" 
d="M211 1350l10 63q6 23 29 23h735q25 0 19 -23l-11 -63q-5 -25 -28 -25h-308l-229 -1300q-6 -25 -29 -25h-67q-29 0 -23 25l230 1300h-308q-25 0 -20 25zM379 -268l-86 -166q-12 -21 -29 -21h-16q-18 0 -10 23l67 164h-41q-22 0 -18 24l20 115q2 23 27 23h98q21 0 19 -23
l-21 -111q0 -14 -10 -28z" />
    <glyph glyph-name="uni021B" unicode="&#x21b;" horiz-adv-x="612" 
d="M614 967h-229l-119 -676q-23 -118 1 -159q24 -42 112 -42q21 0 80 10q12 1 16 -3t4 -17l2 -49q0 -21 -22 -27q-35 -14 -101 -14q-134 0 -183 65q-49 66 -19 226l120 686h-129q-26 0 -20 22l10 53q2 25 27 25h133l43 258q6 25 29 25h61q25 0 19 -25l-46 -258h230
q23 0 18 -25l-10 -53q-6 -22 -27 -22zM285 -262l-80 -158q-15 -18 -27 -18h-18q-15 0 -8 22l61 156h-39q-24 0 -18 20l18 111q2 23 27 23h94q20 0 18 -23l-18 -102q-1 -12 -10 -31z" />
    <glyph glyph-name="dotlessj" unicode="&#x237;" horiz-adv-x="415" 
d="M82 14l180 1028q6 25 27 25h67q23 0 17 -25l-185 -1038q-21 -128 -68 -182q-48 -55 -149 -55q-61 0 -90 8q-22 1 -16 26l8 54q2 23 27 18q1 0 19 -2q15 -2 23 -3q6 -1 17 -1q54 0 81 34q27 35 42 113z" />
    <glyph glyph-name="circumflex" unicode="&#x2c6;" horiz-adv-x="591" 
d="M567 1212l-114 134l-160 -134q-14 -14 -33 -14h-53q-29 0 -6 23l194 184q20 16 39 16h58q20 0 32 -16l133 -184q7 -8 2 -16q-4 -7 -16 -7h-49q-16 0 -27 14z" />
    <glyph glyph-name="caron" unicode="&#x2c7;" horiz-adv-x="591" 
d="M434 1274l160 133q15 14 31 14h55q13 0 14 -7q2 -8 -8 -15l-194 -185q-20 -16 -39 -16h-58q-23 0 -33 16l-131 185q-4 7 -1 15q3 7 14 7h47q17 0 28 -14z" />
    <glyph glyph-name="uni02C9" unicode="&#x2c9;" horiz-adv-x="591" 
d="M653 1212h-454q-23 0 -17 21l4 37q4 22 27 22h455q24 0 18 -22l-6 -37q-6 -21 -27 -21z" />
    <glyph glyph-name="breve" unicode="&#x2d8;" horiz-adv-x="591" 
d="M434 1192q-113 0 -167 57t-42 140q1 20 23 20h41q18 0 18 -18q0 -54 28 -87q27 -32 103 -32q73 0 112 31q36 29 58 88q10 18 25 18h39q19 0 18 -20q-18 -86 -82 -142q-62 -55 -174 -55z" />
    <glyph glyph-name="dotaccent" unicode="&#x2d9;" horiz-adv-x="591" 
d="M512 1341l-23 -120q-6 -23 -26 -23h-78q-22 0 -20 23l22 120q2 25 27 25h78q25 0 20 -25z" />
    <glyph glyph-name="ring" unicode="&#x2da;" horiz-adv-x="591" 
d="M436 1247q53 0 91 35t38 90q0 86 -98 86q-56 0 -93 -34q-38 -35 -38 -93q0 -39 26 -61q28 -23 74 -23zM475 1524q75 0 119 -40q45 -41 45 -104q0 -85 -60 -142q-59 -56 -153 -56q-75 0 -119 40q-45 40 -45 101q0 85 61 143t152 58z" />
    <glyph glyph-name="ogonek" unicode="&#x2db;" horiz-adv-x="591" 
d="M229 20l64 -4q-184 -84 -184 -182q0 -47 77 -47q13 0 35 2t23 2h8q2 0 4 -3q2 -4 2 -7v-37q0 -19 -14 -20q-29 -17 -82 -17q-60 0 -102 25q-40 24 -40 73q0 137 209 215z" />
    <glyph glyph-name="tilde" unicode="&#x2dc;" horiz-adv-x="591" 
d="M700 1321q-7 -54 -43 -90q-35 -35 -90 -35q-66 0 -131 37l-45 27q-59 28 -91 19t-44 -42l-6 -18q-8 -19 -29 -19h-31q-24 0 -18 29q11 58 46 93q36 36 93 36q48 0 127 -41l45 -25q111 -63 138 23l4 16q6 21 30 21h31q20 0 14 -31z" />
    <glyph glyph-name="hungarumlaut" unicode="&#x2dd;" horiz-adv-x="591" 
d="M262 1219l129 176q11 20 37 20h76q14 0 16 -9q2 -10 -8 -20l-168 -174q-14 -14 -35 -14h-39q-24 0 -8 21zM526 1219l129 176q14 20 37 20h78q12 0 14 -9q2 -10 -8 -20l-166 -174q-14 -14 -37 -14h-36q-23 0 -11 21z" />
    <glyph glyph-name="uni037E" unicode="&#x37e;" horiz-adv-x="385" 
d="M119 459l24 137q5 25 27 25h96q21 0 19 -25l-23 -137q-6 -23 -26 -23h-97q-26 0 -20 23z" />
    <glyph glyph-name="uni0394" unicode="&#x394;" horiz-adv-x="1179" 
d="M709 1442h100q23 0 27 -27l147 -1370q6 -45 -43 -45h-866q-46 0 -29 45l627 1370q10 27 37 27zM735 1323l-549 -1219h678l-121 1219h-8z" />
    <glyph glyph-name="uni03A9" unicode="&#x3a9;" horiz-adv-x="1349" 
d="M834 1456q238 0 363 -125q124 -124 124 -332q0 -235 -122 -441q-121 -205 -333 -322l-24 -134l241 7q13 2 18 -5q4 -6 3 -16l-10 -65q-5 -23 -27 -23h-356l45 254q2 29 30 41q185 96 300 286q114 189 114 408q0 165 -92 263t-277 98q-243 0 -396 -195
q-152 -194 -152 -455q0 -274 219 -405q20 -14 20 -41l-45 -254h-356q-28 0 -23 23l13 65q4 21 28 21l240 -7l27 134q-246 158 -246 460q0 137 47 272q46 132 131 243q86 112 214 178q130 67 282 67z" />
    <glyph glyph-name="uni03BC" unicode="&#x3bc;" horiz-adv-x="989" 
d="M958 1042l-124 -704q-61 -358 -365 -358q-125 0 -193 57q-66 56 -83 133l-66 -373q-1 -22 -27 -22h-65q-25 0 -19 22l220 1245q6 25 26 25h68q23 0 18 -25l-115 -647q-24 -137 36 -225t184 -88q225 0 272 270l123 690q5 25 29 25h63q24 0 18 -25z" />
    <glyph glyph-name="pi" unicode="&#x3c0;" horiz-adv-x="1155" 
d="M961 963l-125 -705q-16 -98 3 -135t93 -37q44 0 74 6q15 1 19 -3q5 -5 3 -17l-4 -47q0 -18 -25 -23q-41 -14 -106 -14q-116 0 -153 61q-38 61 -15 201l127 713h-338l-338 -940q-11 -23 -31 -23h-65q-27 0 -19 23l340 940h-198q-25 0 -21 22l11 57q6 25 28 25h957
q23 0 18 -25l-10 -57q-4 -22 -27 -22h-198z" />
    <glyph glyph-name="Wgrave" unicode="&#x1e80;" horiz-adv-x="1726" 
d="M995 1436h74q29 0 29 -23l55 -885l21 -389h6l151 385l363 889q11 23 32 23h74q27 0 15 -29l-576 -1380q-12 -27 -37 -27h-96q-24 0 -29 25l-59 874l-19 344h-4l-137 -344l-364 -874q-8 -25 -37 -25h-97q-24 0 -30 27l-88 1380q0 29 24 29h74q20 0 25 -23l51 -889l14 -385
h6l158 389l367 885q8 23 34 23zM997 1729l84 -168q8 -23 -18 -23h-37q-16 0 -27 14l-139 172q-8 8 -3 19q4 10 20 10h90q19 0 30 -24z" />
    <glyph glyph-name="wgrave" unicode="&#x1e81;" horiz-adv-x="1368" 
d="M754 1067h67q19 0 25 -23l53 -688l10 -225h4l88 225l287 686q11 25 33 25h68q24 0 12 -27l-434 -1017q-11 -23 -33 -23h-76q-24 0 -29 23l-51 651l-14 239h-6l-96 -239l-283 -651q-11 -23 -33 -23h-76q-24 0 -24 23l-78 1017q0 27 25 27h63q20 0 20 -25l48 -686l6 -225h4
l90 225l299 688q11 23 31 23zM760 1395l84 -176q8 -21 -19 -21h-34q-18 0 -29 14l-141 174q-7 12 -3 20q4 9 19 9h92q21 0 31 -20z" />
    <glyph glyph-name="Wacute" unicode="&#x1e82;" horiz-adv-x="1726" 
d="M995 1436h74q29 0 29 -23l55 -885l21 -389h6l151 385l363 889q11 23 32 23h74q27 0 15 -29l-576 -1380q-12 -27 -37 -27h-96q-24 0 -29 25l-59 874l-19 344h-4l-137 -344l-364 -874q-8 -25 -37 -25h-97q-24 0 -30 27l-88 1380q0 29 24 29h74q20 0 25 -23l51 -889l14 -385
h6l158 389l367 885q8 23 34 23zM1030 1561l137 168q18 24 41 24h97q12 0 13 -10q2 -11 -9 -19l-195 -172q-14 -14 -35 -14h-41q-11 0 -12 7q-2 9 4 16z" />
    <glyph glyph-name="wacute" unicode="&#x1e83;" horiz-adv-x="1368" 
d="M754 1067h67q19 0 25 -23l53 -688l10 -225h4l88 225l287 686q11 25 33 25h68q24 0 12 -27l-434 -1017q-11 -23 -33 -23h-76q-24 0 -29 23l-51 651l-14 239h-6l-96 -239l-283 -651q-11 -23 -33 -23h-76q-24 0 -24 23l-78 1017q0 27 25 27h63q20 0 20 -25l48 -686l6 -225h4
l90 225l299 688q11 23 31 23zM788 1219l142 176q14 20 39 20h94q15 0 16 -9q2 -10 -8 -20l-199 -174q-14 -14 -34 -14h-41q-25 0 -9 21z" />
    <glyph glyph-name="Wdieresis" unicode="&#x1e84;" horiz-adv-x="1726" 
d="M995 1436h74q29 0 29 -23l55 -885l21 -389h6l151 385l363 889q11 23 32 23h74q27 0 15 -29l-576 -1380q-12 -27 -37 -27h-96q-24 0 -29 25l-59 874l-19 344h-4l-137 -344l-364 -874q-8 -25 -37 -25h-97q-24 0 -30 27l-88 1380q0 29 24 29h74q20 0 25 -23l51 -889l14 -385
h6l158 389l367 885q8 23 34 23zM981 1675l-20 -114q-6 -23 -29 -23h-74q-22 0 -20 23l22 114q2 23 25 23h78q24 0 18 -23zM1292 1675l-20 -114q-2 -23 -29 -23h-76q-20 0 -18 23l22 114q2 23 27 23h74q22 0 20 -23z" />
    <glyph glyph-name="wdieresis" unicode="&#x1e85;" horiz-adv-x="1368" 
d="M754 1067h67q19 0 25 -23l53 -688l10 -225h4l88 225l287 686q11 25 33 25h68q24 0 12 -27l-434 -1017q-11 -23 -33 -23h-76q-24 0 -29 23l-51 651l-14 239h-6l-96 -239l-283 -651q-11 -23 -33 -23h-76q-24 0 -24 23l-78 1017q0 27 25 27h63q20 0 20 -25l48 -686l6 -225h4
l90 225l299 688q11 23 31 23zM743 1339l-20 -118q-2 -23 -27 -23h-71q-25 0 -19 23l21 118q5 23 28 23h72q22 0 16 -23zM1049 1339l-21 -118q-6 -23 -27 -23h-71q-25 0 -19 23l21 118q5 23 26 23h72q24 0 19 -23z" />
    <glyph glyph-name="Ygrave" unicode="&#x1ef2;" horiz-adv-x="1069" 
d="M608 549l-94 -524q-2 -25 -27 -25h-69q-26 0 -21 25l92 524l-260 860q-4 10 1 18q5 9 20 9h72q22 0 28 -21l156 -532l57 -226h2l140 226l344 532q17 21 34 21h78q28 0 13 -27zM676 1729l84 -168q8 -23 -19 -23h-36q-16 0 -27 14l-139 172q-8 8 -3 19q4 10 19 10h90
q21 0 31 -24z" />
    <glyph glyph-name="ygrave" unicode="&#x1ef3;" horiz-adv-x="854" 
d="M905 1040l-465 -995q-68 -150 -139 -216q-70 -65 -192 -65q-68 0 -117 19q-21 6 -15 24l23 52q7 20 31 18q45 -12 92 -12q89 0 135 67q47 68 35 138l-137 970q-4 27 22 27h70q18 0 20 -25l82 -641l29 -264h4l119 264l286 641q8 25 31 25h72q25 0 14 -27zM518 1395
l84 -176q8 -21 -18 -21h-35q-18 0 -29 14l-141 174q-6 11 -2 20q5 9 18 9h92q21 0 31 -20z" />
    <glyph glyph-name="figuredash" unicode="&#x2012;" horiz-adv-x="964" 
d="M829 514h-682q-21 0 -16 23l8 53q1 20 29 20h680q19 0 18 -20l-10 -53q-5 -23 -27 -23z" />
    <glyph glyph-name="endash" unicode="&#x2013;" horiz-adv-x="894" 
d="M793 494h-684q-20 0 -19 20l10 55q6 21 27 21h684q19 0 18 -21l-10 -55q-6 -20 -26 -20z" />
    <glyph glyph-name="emdash" unicode="&#x2014;" horiz-adv-x="1312" 
d="M1210 494h-1101q-20 0 -19 20l10 55q6 21 27 21h1100q21 0 20 -21l-10 -55q-1 -20 -27 -20z" />
    <glyph glyph-name="quoteleft" unicode="&#x2018;" horiz-adv-x="366" 
d="M254 1237l96 186q13 19 27 19h26q21 0 13 -23l-80 -182h39q23 0 18 -25l-24 -135q-5 -24 -27 -24h-98q-22 0 -21 24l23 129q1 6 8 31z" />
    <glyph glyph-name="quoteright" unicode="&#x2019;" horiz-adv-x="366" 
d="M385 1253l-94 -188q-6 -18 -27 -18h-28q-16 0 -11 24l78 182h-37q-23 0 -18 23l24 137q6 23 29 23h98q25 0 19 -23l-23 -129q-1 -19 -10 -31z" />
    <glyph glyph-name="quotesinglbase" unicode="&#x201a;" horiz-adv-x="366" 
d="M166 0l-94 -188q-6 -19 -27 -19h-29q-15 0 -10 25l78 182h-37q-23 0 -18 23l24 137q6 22 29 22h98q25 0 19 -22l-23 -129q-1 -19 -10 -31z" />
    <glyph glyph-name="quotedblleft" unicode="&#x201c;" horiz-adv-x="647" 
d="M535 1237l94 186q13 19 26 19h27q20 0 12 -23l-78 -182h35q27 0 21 -25l-25 -135q-5 -24 -26 -24h-101q-20 0 -18 24l22 129zM254 1237l96 186q13 19 27 19h26q21 0 13 -23l-80 -182h39q23 0 18 -25l-24 -135q-5 -24 -27 -24h-98q-22 0 -21 24l23 129q1 6 8 31z" />
    <glyph glyph-name="quotedblright" unicode="&#x201d;" horiz-adv-x="647" 
d="M385 1253l-94 -188q-7 -16 -27 -16h-26q-19 0 -13 20l78 184h-35q-26 0 -20 23l24 137q6 23 27 23h100q26 0 21 -23l-25 -131q-1 -15 -10 -29zM664 1253l-95 -188q-6 -16 -26 -16h-27q-18 0 -12 20l80 184h-39q-21 0 -19 23l25 137q6 23 27 23h100q23 0 18 -23l-22 -131
q-1 -15 -10 -29z" />
    <glyph glyph-name="quotedblbase" unicode="&#x201e;" horiz-adv-x="647" 
d="M166 0l-94 -188q-8 -17 -27 -17h-27q-18 0 -12 21l78 184h-35q-26 0 -20 23l24 137q6 22 27 22h100q25 0 21 -22l-25 -131q-1 -15 -10 -29zM444 0l-94 -188q-6 -17 -26 -17h-27q-18 0 -12 21l80 184h-39q-21 0 -19 23l25 137q6 22 26 22h101q22 0 18 -22l-22 -131
q-1 -13 -11 -29z" />
    <glyph glyph-name="dagger" unicode="&#x2020;" horiz-adv-x="882" 
d="M901 1042l-8 -51q-6 -24 -27 -24h-282l-207 -1170q-4 -22 -27 -22h-65q-23 0 -19 22l207 1170h-283q-22 0 -20 24l10 51q5 25 29 25h280l64 346q2 23 25 23h65q25 0 19 -23l-60 -346h283q21 0 16 -25z" />
    <glyph glyph-name="daggerdbl" unicode="&#x2021;" horiz-adv-x="884" 
d="M758 219l-8 -51q-2 -23 -27 -23h-283l-61 -348q-4 -22 -27 -22h-65q-25 0 -21 22l64 348h-283q-14 0 -17 5q-2 4 -1 18l10 51q2 25 24 25h283l129 723h-282q-25 0 -21 24l10 51q6 25 29 25h281l61 346q6 23 27 23h65q23 0 21 -23l-62 -346h281q20 0 18 -25l-8 -51
q-6 -24 -27 -24h-282l-127 -723h282q23 0 17 -25z" />
    <glyph glyph-name="bullet" unicode="&#x2022;" horiz-adv-x="684" 
d="M313 303q-92 0 -147 55t-55 142q0 113 83 202t201 89q91 0 149 -55q56 -53 56 -140q0 -115 -83 -204t-204 -89z" />
    <glyph glyph-name="onedotenleader" unicode="&#x2024;" horiz-adv-x="385" 
d="M43 23l25 137q2 24 26 24h96q23 0 19 -24l-23 -137q-6 -23 -26 -23h-97q-26 0 -20 23z" />
    <glyph glyph-name="twodotenleader" unicode="&#x2025;" horiz-adv-x="765" 
d="M424 23l25 137q1 24 26 24h96q23 0 19 -24l-23 -137q-6 -23 -26 -23h-97q-26 0 -20 23zM43 23l25 137q2 24 26 24h96q23 0 19 -24l-23 -137q-6 -23 -26 -23h-97q-26 0 -20 23z" />
    <glyph glyph-name="ellipsis" unicode="&#x2026;" horiz-adv-x="1157" 
d="M43 23l25 137q2 24 26 24h96q23 0 19 -24l-23 -137q-6 -23 -26 -23h-97q-26 0 -20 23zM428 23l25 137q6 24 26 24h99q20 0 18 -24l-25 -137q-6 -23 -24 -23h-98q-26 0 -21 23zM815 23l23 137q6 24 28 24h97q19 0 18 -24l-25 -137q-6 -23 -24 -23h-98q-25 0 -19 23z" />
    <glyph glyph-name="perthousand" unicode="&#x2030;" horiz-adv-x="2299" 
d="M1405 1411l-1014 -1391q-16 -20 -35 -20h-65q-32 0 -10 25l1011 1392q19 19 35 19h68q26 0 10 -25zM178 1040q34 201 123 306q88 104 221 104q113 0 176 -71q64 -72 64 -205q0 -35 -12 -134q-73 -407 -347 -407q-115 0 -176 69q-61 68 -61 207q0 62 12 131zM645 1040
q14 64 14 129q0 187 -141 187q-186 0 -237 -316q-15 -69 -15 -127q0 -188 140 -188q184 0 239 315zM936 395q72 410 346 410q112 0 175 -71q63 -70 63 -206q0 -53 -13 -133q-34 -199 -124 -304q-88 -103 -222 -103q-112 0 -175 70q-62 69 -62 204q0 59 12 133zM1405 395
q12 73 12 129q0 187 -141 187q-182 0 -238 -316q-14 -77 -14 -127q0 -186 141 -186q183 0 240 313zM1640 395q72 410 345 410q112 0 175 -71q62 -69 62 -206q0 -34 -12 -133q-73 -407 -346 -407q-112 0 -175 70t-63 204q0 69 14 133zM2107 395q13 80 13 129q0 187 -140 187
q-183 0 -239 -316q-15 -83 -15 -127q0 -186 142 -186q182 0 239 313z" />
    <glyph glyph-name="guilsinglleft" unicode="&#x2039;" horiz-adv-x="421" 
d="M86 543q4 7 6 14l187 272q17 19 32 19h62q27 0 10 -25l-195 -280l97 -277q4 -9 -2 -17q-6 -7 -19 -7h-59q-19 0 -25 18l-92 272q0 9 -2 11z" />
    <glyph glyph-name="guilsinglright" unicode="&#x203a;" horiz-adv-x="421" 
d="M362 543q-2 -2 -2 -4q-2 -5 -4 -7l-188 -272q-12 -18 -29 -18h-61q-26 0 -8 24l190 277l-92 280q-11 25 16 25h64q18 0 20 -19l92 -272q2 -8 2 -14z" />
    <glyph glyph-name="exclamdbl" unicode="&#x203c;" horiz-adv-x="944" 
d="M86 23l27 141q4 22 24 22h105q22 0 18 -22l-24 -141q-6 -23 -25 -23h-105q-25 0 -20 23zM250 387h-49q-25 0 -19 25l156 1001q5 23 29 23h88q24 0 18 -23l-194 -1001q-6 -25 -29 -25zM549 23l26 141q4 22 25 22h105q22 0 18 -22l-25 -141q-6 -23 -24 -23h-105
q-25 0 -20 23zM713 387h-49q-25 0 -19 25l156 1001q5 23 28 23h89q24 0 18 -23l-195 -1001q-6 -25 -28 -25z" />
    <glyph glyph-name="fraction" unicode="&#x2044;" horiz-adv-x="135" 
d="M676 1411l-1012 -1391q-20 -20 -37 -20h-65q-33 0 -11 25l1012 1392q16 19 35 19h66q28 0 12 -25z" />
    <glyph glyph-name="zero.superior" unicode="&#x2070;" 
d="M459 987q-250 0 -250 289q0 80 16 160q76 448 369 448q250 0 250 -289q0 -75 -15 -159q-84 -449 -370 -449zM463 1079q202 0 262 357q16 96 16 157q0 199 -153 199q-101 0 -164 -87q-64 -88 -98 -269q-17 -87 -17 -162q0 -195 154 -195z" />
    <glyph glyph-name="four.superior" unicode="&#x2074;" 
d="M678 1731l-375 -439h297zM780 1200h-96l-31 -176q-6 -27 -30 -27h-48q-23 0 -22 27l31 176h-387q-23 0 -21 27l6 39q1 11 17 30l493 559q24 19 35 19h49q27 0 21 -27l-97 -555h97q26 0 20 -24l-6 -41q-6 -27 -31 -27z" />
    <glyph glyph-name="five.superior" unicode="&#x2075;" 
d="M412 985q-151 0 -213 35q-24 11 -13 29l21 41q7 24 31 16q82 -31 172 -31q116 0 182 68q65 66 65 182q0 127 -149 127q-64 0 -117 -13q-58 -14 -65 -14q-20 0 -25 5l-14 10q-14 10 -8 24q72 303 86 379q5 29 34 29h385q24 0 23 -27l-8 -41q-1 -26 -29 -26h-326
q-24 -119 -61 -269q84 29 147 29q118 0 175 -58t57 -151q0 -158 -97 -251t-253 -93z" />
    <glyph glyph-name="six.superior" unicode="&#x2076;" 
d="M768 1774q-62 22 -121 22q-242 0 -297 -346q33 58 93 92q61 35 139 35q110 0 167 -63q56 -62 56 -160q0 -150 -90 -258q-91 -109 -230 -109q-125 0 -192 73q-66 72 -66 210q0 58 17 155q80 459 399 459q111 0 162 -26q18 -10 12 -27l-20 -43q-8 -19 -29 -14zM489 1077
q101 0 159 85q59 86 59 188q0 139 -150 139q-98 0 -161 -77q-62 -75 -62 -173q0 -69 39 -116q39 -46 116 -46z" />
    <glyph glyph-name="seven.superior" unicode="&#x2077;" 
d="M860 1847l-6 -35q-1 -11 -18 -32q-145 -168 -270 -382q-126 -216 -156 -374q-6 -27 -31 -27h-51q-26 0 -21 27q33 163 154 370q122 209 272 386h-391q-24 0 -23 26l11 41q2 27 26 27h482q28 0 22 -27z" />
    <glyph glyph-name="eight.superior" unicode="&#x2078;" 
d="M459 987q-123 0 -193 53q-69 52 -69 142q0 100 63 169q61 67 164 101q-129 52 -129 178q0 123 90 189q89 65 209 65q114 0 179 -50t65 -130q0 -174 -205 -252q145 -51 145 -192q0 -129 -95 -201q-94 -72 -224 -72zM522 1411q-92 -27 -157 -82q-66 -55 -66 -133
q0 -57 42 -90t120 -33q85 0 151 51t66 131q0 111 -156 156zM535 1489q202 69 202 207q0 47 -38 76q-37 28 -109 28q-78 0 -136 -46q-59 -47 -59 -116q0 -102 140 -149z" />
    <glyph glyph-name="nine.superior" unicode="&#x2079;" 
d="M283 1098q53 -27 120 -27q240 0 297 350q-72 -127 -227 -127q-110 0 -169 65q-58 64 -58 163q0 147 90 255q89 107 229 107q127 0 193 -74q65 -72 65 -213q0 -57 -14 -151q-44 -232 -139 -345q-96 -114 -260 -114q-114 0 -164 27q-22 10 -10 26l18 43q12 21 29 15z
M559 1794q-101 0 -158 -84t-57 -186q0 -142 150 -142q97 0 160 77t63 171q0 71 -40 117q-41 47 -118 47z" />
    <glyph glyph-name="parenleft.superior" unicode="&#x207d;" horiz-adv-x="395" 
d="M260 1303q0 155 66 311q66 157 182 268q16 10 24 10h52q10 0 12 -6t-4 -12q-112 -112 -171 -266q-61 -159 -61 -322q0 -172 78 -289q7 -18 -14 -18h-51q-13 0 -19 10q-94 128 -94 314z" />
    <glyph glyph-name="parenright.superior" unicode="&#x207e;" horiz-adv-x="395" 
d="M471 1565q0 -156 -66 -312t-180 -264q-14 -10 -24 -10h-51q-7 0 -10 3t-3 7t4 8q232 253 232 582q0 171 -80 295q-4 5 1 12q4 6 13 6h53q14 0 21 -10q90 -141 90 -317z" />
    <glyph glyph-name="n.superior" unicode="&#x207f;" horiz-adv-x="821" 
d="M377 1876h49q29 0 23 -27l-19 -116q86 153 272 153q130 0 184 -78q54 -79 32 -209l-103 -575q-5 -27 -31 -27h-51q-24 0 -18 27l98 563q33 203 -141 203q-105 0 -182 -72q-77 -73 -95 -178l-90 -516q-6 -27 -31 -27h-51q-24 0 -18 27l143 825q6 27 29 27z" />
    <glyph glyph-name="zero.inferior" unicode="&#x2080;" 
d="M207 -449q-250 0 -250 289q0 80 16 160q77 449 369 449q250 0 250 -289q0 -82 -14 -160q-84 -449 -371 -449zM211 -356q202 0 262 356q16 96 16 158q0 198 -153 198q-101 0 -164 -87q-64 -88 -98 -269q-17 -87 -17 -162q0 -194 154 -194z" />
    <glyph glyph-name="one.inferior" unicode="&#x2081;" 
d="M330 303l-189 -135q-22 -15 -39 4l-18 37q-12 18 12 33l250 186q26 10 35 10h45q24 0 23 -26l-146 -824q-6 -26 -31 -26h-49q-24 0 -18 26z" />
    <glyph glyph-name="two.inferior" unicode="&#x2082;" 
d="M135 172q0 -33 -28 -33h-48q-22 0 -22 25q0 126 79 205q80 80 216 80q118 0 175 -57q56 -56 56 -144q0 -72 -36 -149q-38 -81 -77 -131q-45 -58 -121 -124q-93 -81 -119 -100q-83 -61 -120 -88h365q24 0 18 -27l-6 -41q-6 -26 -31 -26h-485q-28 0 -21 26l7 39q8 18 20 29
q1 1 9.5 7l25.5 18t35 26q66 49 85 65q5 4 79 65q50 41 85 76q23 23 71 76q46 51 64 85q17 32 35 82q17 46 17 88q0 114 -137 114q-89 0 -140 -52t-51 -134z" />
    <glyph glyph-name="three.inferior" unicode="&#x2083;" 
d="M238 -31h-78q-26 0 -21 27l6 39q6 24 31 24h76q84 0 137 56t53 137q0 106 -163 106q-71 0 -173 -30q-22 -6 -28 12l-6 45q0 17 22 27q90 37 197 37q120 0 187 -49t67 -136q0 -82 -43 -150q-44 -69 -115 -96q107 -35 107 -163q0 -145 -98 -225q-97 -79 -242 -79
q-142 0 -215 39q-23 12 -15 27l19 43q12 22 34 16q77 -34 173 -34q105 0 172 55t67 156q0 116 -151 116z" />
    <glyph glyph-name="four.inferior" unicode="&#x2084;" 
d="M426 295l-375 -438h297zM528 -236h-96l-31 -176q-6 -26 -30 -26h-47q-24 0 -23 26l31 176h-387q-23 0 -21 27l6 39q2 12 17 31l493 559q22 18 35 18h49q27 0 21 -26l-96 -555h96q26 0 20 -25l-6 -41q-6 -27 -31 -27z" />
    <glyph glyph-name="five.inferior" unicode="&#x2085;" 
d="M160 -451q-151 0 -213 35q-24 11 -13 29l21 41q7 24 31 16q80 -30 172 -30q116 0 182 67q66 68 66 182q0 127 -150 127q-62 0 -115 -13t-67 -13q-21 0 -25 4l-14 10q-14 10 -8 25q72 303 86 379q4 28 34 28h385q24 0 23 -26l-8 -41q-1 -27 -29 -27h-325q-18 -85 -62 -268
q81 28 148 28q115 0 173 -57t58 -151q0 -158 -97 -251q-99 -94 -253 -94z" />
    <glyph glyph-name="six.inferior" unicode="&#x2086;" 
d="M516 338q-62 22 -121 22q-242 0 -297 -346q33 58 93 92q61 35 139 35q111 0 167 -62t56 -161q0 -150 -90 -258q-91 -109 -230 -109q-125 0 -192 73q-66 72 -66 210q0 59 17 156q80 459 399 459q109 0 162 -27q18 -10 12 -27l-20 -43q-8 -19 -29 -14zM238 -358
q100 0 158 85q59 86 59 187q0 139 -150 139q-98 0 -161 -77q-62 -75 -62 -173q0 -69 39 -115t117 -46z" />
    <glyph glyph-name="seven.inferior" unicode="&#x2087;" 
d="M608 412l-6 -35q-2 -12 -18 -33q-145 -168 -270 -382q-126 -216 -156 -374q-6 -26 -31 -26h-51q-25 0 -21 26q33 163 154 370q122 209 272 386h-391q-24 0 -22 27l10 41q1 26 26 26h482q28 0 22 -26z" />
    <glyph glyph-name="eight.inferior" unicode="&#x2088;" 
d="M207 -449q-122 0 -193 54q-69 53 -69 141q0 100 63 169q61 67 164 101q-129 52 -129 179q0 122 90 188t209 66q113 0 179 -51q65 -50 65 -130q0 -174 -205 -252q145 -51 145 -192q0 -129 -95 -201t-224 -72zM270 -25q-93 -28 -157 -81q-66 -56 -66 -134q0 -57 42 -90
q41 -32 120 -32q85 0 151 51t66 131q0 110 -156 155zM283 53q202 69 202 207q0 47 -38 76t-109 29q-77 0 -136 -47t-59 -115q0 -103 140 -150z" />
    <glyph glyph-name="nine.inferior" unicode="&#x2089;" 
d="M31 -338q52 -27 121 -27q240 0 297 351q-72 -127 -228 -127q-111 0 -169 64t-58 163q0 147 90 255t229 108q127 0 193 -74q65 -72 65 -213q0 -58 -14 -152q-44 -232 -139 -345q-96 -114 -260 -114q-114 0 -164 27q-22 10 -10 27l18 43q12 20 29 14zM307 358
q-100 0 -157 -84q-58 -85 -58 -186q0 -141 150 -141q97 0 160 77q63 76 63 171q0 70 -40 116q-41 47 -118 47z" />
    <glyph glyph-name="parenleft.inferior" unicode="&#x208d;" horiz-adv-x="395" 
d="M8 -133q0 155 66 311q66 157 182 268q17 11 25 11h51q10 0 12 -6q2 -7 -4 -13q-112 -112 -171 -266q-60 -156 -60 -322q0 -172 77 -288q5 -6 0 -13q-4 -6 -14 -6h-51q-13 0 -19 11q-94 128 -94 313z" />
    <glyph glyph-name="parenright.inferior" unicode="&#x208e;" horiz-adv-x="395" 
d="M219 129q0 -157 -65 -311t-181 -264q-16 -11 -24 -11h-51q-7 0 -10 3t-3 8q0 4 4 8q232 253 232 581q0 171 -80 295q-8 19 14 19h54q12 0 20 -11q90 -141 90 -317z" />
    <glyph glyph-name="Euro" unicode="&#x20ac;" horiz-adv-x="1110" 
d="M104 621h136q1 5 3.5 20.5t3.5 26.5q1 8 3 19.5t3 19t1 12.5q18 84 20 96h-137q-22 0 -16 23l8 47q4 20 27 20h143q164 551 627 551q139 0 262 -53q20 -10 12 -29l-35 -57q-15 -24 -35 -14q-93 43 -204 43q-193 0 -319 -117q-125 -116 -187 -324h508q20 0 14 -24l-20 -43
q-11 -23 -35 -23h-492q-4 -11 -20 -96q0 -5 -1 -12.5t-3 -19t-3 -19.5q-2 -12 -5 -27t-3 -20h431q20 0 14 -23l-21 -43q-11 -25 -32 -25h-398q-27 -440 357 -440q108 0 223 47q22 8 29 -18l14 -56q1 -17 -23 -28q-130 -53 -258 -53q-246 0 -361 148q-116 149 -104 400h-143
q-20 0 -18 25l10 45q2 21 24 21z" />
    <glyph glyph-name="afii61289" unicode="&#x2113;" horiz-adv-x="962" 
d="M494 86q66 0 112 14q23 6 23 -16v-51q-2 -19 -25 -27q-46 -18 -137 -18q-135 0 -192 72q-56 71 -27 235l119 684q44 242 125 359q82 118 239 118q117 0 171 -72t42 -196q-17 -153 -107 -292t-222 -239q-127 -96 -269 -165t-268 -95q-19 -5 -21 11l-6 53q-1 16 15 20
q135 33 262 94t243 149q115 88 191 210t88 258q18 176 -121 176q-104 0 -161 -88q-56 -87 -91 -285l-121 -688q-20 -120 11 -172q30 -49 127 -49z" />
    <glyph glyph-name="trademark" unicode="&#x2122;" horiz-adv-x="1189" 
d="M596 1360h-135l-99 -569q0 -17 -20 -17h-51q-15 0 -15 17l101 569h-135q-15 0 -11 16l7 43q2 17 20 17h352q17 0 15 -17l-11 -43q0 -16 -18 -16zM909 965q-13 0 -18 12l-113 326l-90 -512q-5 -17 -20 -17h-49q-18 0 -13 17l111 628q2 17 18 17h56q15 0 20 -11l115 -352
l241 352q8 11 21 11h61q17 0 15 -17l-113 -628q0 -17 -18 -17h-50q-17 0 -12 17l90 509l-227 -323q-16 -12 -25 -12z" />
    <glyph glyph-name="Omega" unicode="&#x2126;" horiz-adv-x="1349" 
d="M834 1456q238 0 363 -125q124 -124 124 -332q0 -235 -122 -441q-121 -205 -333 -322l-24 -134l241 7q13 2 18 -5q4 -6 3 -16l-10 -65q-5 -23 -27 -23h-356l45 254q2 29 30 41q185 96 300 286q114 189 114 408q0 165 -92 263t-277 98q-243 0 -396 -195
q-152 -194 -152 -455q0 -274 219 -405q20 -14 20 -41l-45 -254h-356q-28 0 -23 23l13 65q4 21 28 21l240 -7l27 134q-246 158 -246 460q0 137 47 272q46 132 131 243q86 112 214 178q130 67 282 67z" />
    <glyph glyph-name="estimated" unicode="&#x212e;" horiz-adv-x="1753" 
d="M1679 686h-1286q-10 0 -10 -8v-379q0 -39 16 -59q170 -197 492 -197q324 0 516 223h119q-111 -132 -279 -209q-163 -75 -358 -75q-338 0 -573 215q-234 215 -234 518q0 307 230 521t569 214q338 0 568 -214t230 -521v-29zM1378 748v380q0 51 -22 74q-192 187 -473 187
q-289 0 -482 -199q-18 -18 -18 -60v-382q0 -13 10 -13h975q10 0 10 13z" />
    <glyph glyph-name="onethird" unicode="&#x2153;" horiz-adv-x="1687" 
d="M504 1300l-189 -135q-22 -15 -39 4l-18 37q-12 18 12 33l250 186q28 11 35 11h45q24 0 23 -27l-146 -823q-6 -27 -31 -27h-49q-24 0 -18 27zM1386 1411l-1011 -1391q-20 -20 -37 -20h-66q-32 0 -10 25l1012 1392q17 19 35 19h65q28 0 12 -25zM1178 408h77q152 0 152 -117
q0 -100 -68 -156q-67 -55 -172 -55q-93 0 -172 35q-22 6 -34 -17l-19 -43q-7 -15 14 -26q74 -39 215 -39q146 0 243 79t97 224q0 130 -106 164q72 27 115 95t43 150q0 88 -67 137q-66 48 -187 48q-107 0 -197 -37q-22 -10 -22 -27l6 -45q6 -18 28 -12q105 31 172 31
q164 0 164 -107q0 -81 -53 -137q-52 -55 -137 -55h-76q-25 0 -31 -25l-6 -39q-4 -26 21 -26z" />
    <glyph glyph-name="twothirds" unicode="&#x2154;" horiz-adv-x="1687" 
d="M309 1169q0 -32 -28 -32h-48q-22 0 -22 24q0 126 79 205q80 80 216 80q119 0 175 -56t56 -145q0 -71 -36 -148q-38 -81 -77 -131q-45 -58 -121 -124q-101 -88 -119 -101q-83 -61 -120 -88h365q24 0 18 -26l-6 -41q-6 -27 -31 -27h-485q-29 0 -21 27l7 39q7 17 20 28
q28 21 70 52q74 55 85 64q10 8 80 66q56 46 85 75q12 12 70 76q46 51 64 85q20 39 36 82q16 44 16 88q0 115 -137 115q-89 0 -140 -52t-51 -135zM1460 1411l-1011 -1391q-20 -20 -37 -20h-66q-32 0 -10 25l1012 1392q17 19 34 19h66q28 0 12 -25zM1255 408h-77q-25 0 -21 26
l6 39q6 25 31 25h76q85 0 137 55q53 56 53 137q0 107 -164 107q-67 0 -172 -31q-22 -6 -28 12l-6 45q0 17 22 27q90 37 197 37q121 0 187 -48q67 -49 67 -137q0 -82 -43 -150t-115 -95q106 -34 106 -164q0 -145 -97 -224t-243 -79q-141 0 -215 39q-21 11 -14 26l19 43
q12 23 34 17q79 -35 172 -35q105 0 172 55q68 56 68 156q0 117 -152 117z" />
    <glyph glyph-name="oneeighth" unicode="&#x215b;" horiz-adv-x="1687" 
d="M504 1300l-189 -135q-22 -15 -39 4l-18 37q-12 18 12 33l250 186q28 11 35 11h45q24 0 23 -27l-146 -823q-6 -27 -31 -27h-49q-24 0 -18 27zM1405 1411l-1012 -1391q-20 -20 -37 -20h-65q-32 0 -10 25l1011 1392q16 19 35 19h66q28 0 12 -25zM1257 -10q132 0 225 71
q95 72 95 201q0 142 -145 193q204 77 204 252q0 81 -64 130q-65 50 -179 50q-119 0 -209 -66t-90 -188q0 -126 129 -178q-101 -33 -164 -102q-64 -70 -64 -169q0 -88 70 -141t192 -53zM1321 414q156 -45 156 -156q0 -80 -66 -131t-151 -51q-78 0 -120 33t-42 90q0 78 65 133
t158 82zM1333 492q-139 46 -139 149q0 70 58 116t137 46q71 0 109 -29t38 -76q0 -137 -203 -206z" />
    <glyph glyph-name="threeeighths" unicode="&#x215c;" horiz-adv-x="1687" 
d="M381 967h-78q-24 0 -20 26l6 39q6 25 30 25h76q85 0 137 55q54 57 54 137q0 107 -164 107q-67 0 -172 -31q-23 -6 -29 12l-6 45q0 15 23 27q90 37 196 37q122 0 188 -48t66 -136q0 -83 -43 -151t-115 -95q107 -35 107 -164q0 -145 -97 -224t-243 -79q-142 0 -215 39
q-21 11 -14 26l18 43q12 23 35 17q79 -35 172 -35q105 0 172 55t67 156q0 117 -151 117zM1440 1411l-1012 -1391q-20 -20 -37 -20h-65q-33 0 -11 25l1012 1392q17 19 35 19h65q29 0 13 -25zM1257 -10q-122 0 -192 53t-70 141q0 99 64 169q63 69 164 102q-129 52 -129 178
q0 122 90 188t209 66q114 0 179 -50q64 -49 64 -130q0 -175 -204 -252q145 -51 145 -193q0 -129 -95 -201q-93 -71 -225 -71zM1321 414q-93 -27 -158 -82t-65 -133q0 -57 42 -90t120 -33q85 0 151 51t66 131q0 111 -156 156zM1333 492q203 69 203 206q0 47 -38 76t-109 29
q-79 0 -137 -46t-58 -116q0 -103 139 -149z" />
    <glyph glyph-name="fiveeighths" unicode="&#x215d;" horiz-adv-x="1687" 
d="M334 547q155 0 253 93q97 93 97 251q0 91 -57 150t-174 59q-64 0 -148 -29q44 183 62 268h325q28 0 29 27l8 41q1 27 -22 27h-385q-30 0 -35 -29q-14 -76 -86 -379q-6 -15 8 -25l14 -10q4 -4 25 -4q12 0 65 13q58 14 117 14q150 0 150 -127q0 -115 -66 -182
q-66 -68 -182 -68q-90 0 -172 31q-23 8 -31 -17l-20 -41q-10 -18 12 -28q62 -35 213 -35zM1442 1411l-1012 -1391q-20 -20 -37 -20h-65q-33 0 -11 25l1012 1392q16 19 35 19h66q28 0 12 -25zM1257 -10q132 0 225 71q95 72 95 201q0 142 -145 193q204 77 204 252
q0 81 -64 130q-65 50 -179 50q-119 0 -209 -66t-90 -188q0 -126 129 -178q-101 -33 -164 -102q-64 -70 -64 -169q0 -88 70 -141t192 -53zM1321 414q156 -45 156 -156q0 -80 -66 -131t-151 -51q-78 0 -120 33t-42 90q0 78 65 133t158 82zM1333 492q-139 46 -139 149
q0 70 58 116t137 46q71 0 109 -29t38 -76q0 -137 -203 -206z" />
    <glyph glyph-name="seveneighths" unicode="&#x215e;" horiz-adv-x="1687" 
d="M782 1409l-6 -35q-2 -12 -18 -33q-145 -168 -270 -382q-126 -216 -156 -373q-6 -27 -31 -27h-51q-26 0 -21 27q33 161 154 369q122 209 272 386h-391q-24 0 -22 27l10 41q2 27 27 27h481q28 0 22 -27zM1346 1411l-1012 -1391q-20 -20 -37 -20h-66q-32 0 -10 25l1012 1392
q17 19 35 19h65q29 0 13 -25zM1257 -10q-122 0 -192 53t-70 141q0 99 64 169q63 69 164 102q-129 52 -129 178q0 122 90 188t209 66q114 0 179 -50q64 -49 64 -130q0 -175 -204 -252q145 -51 145 -193q0 -129 -95 -201q-93 -71 -225 -71zM1321 414q-93 -27 -158 -82
t-65 -133q0 -57 42 -90t120 -33q85 0 151 51t66 131q0 111 -156 156zM1333 492q203 69 203 206q0 47 -38 76t-109 29q-79 0 -137 -46t-58 -116q0 -103 139 -149z" />
    <glyph glyph-name="arrowleft" unicode="&#x2190;" horiz-adv-x="1144" 
d="M698 961l-409 -377l733 4q26 0 20 -25l-8 -55q-6 -25 -28 -25l-734 4l277 -378q6 -8 1 -17q-5 -8 -18 -8h-77q-17 0 -25 12l-295 412q-7 16 -6 27q0 9 14 26l441 412q21 14 30 14h78q13 0 15 -8q1 -7 -9 -18z" />
    <glyph glyph-name="arrowup" unicode="&#x2191;" horiz-adv-x="1144" 
d="M1016 545l-318 342l-127 -733q-5 -23 -24 -23h-58q-23 0 -18 23l131 733l-440 -342q-8 -8 -17 -5q-7 3 -6 15l15 80q2 17 18 29l477 364q12 12 29 12q10 0 22 -12l349 -364q13 -12 8 -29l-13 -80q-1 -12 -11 -15q-9 -3 -17 5z" />
    <glyph glyph-name="arrowright" unicode="&#x2192;" horiz-adv-x="1144" 
d="M895 584l-277 377q-12 26 15 26h78q14 0 28 -14l293 -412q7 -15 6 -26q-2 -9 -14 -27l-438 -412q-18 -12 -35 -12h-78q-12 0 -14 8q-2 10 8 17l410 378l-734 -4q-25 0 -20 25l10 55q6 25 27 25z" />
    <glyph glyph-name="arrowdown" unicode="&#x2193;" horiz-adv-x="1144" 
d="M160 524l317 -342l127 733q5 25 29 25h55q24 0 19 -25l-134 -733l439 342q11 8 18 5q8 -3 6 -15l-12 -78q-6 -18 -20 -28l-478 -367q-12 -12 -28 -12q-10 0 -25 12l-346 367q-10 14 -6 28l12 78q1 12 12 15q10 3 15 -5z" />
    <glyph glyph-name="arrowboth" unicode="&#x2194;" horiz-adv-x="1730" 
d="M1481 584l-275 377q-6 11 -2 18q5 8 17 8h77q20 0 27 -14l295 -412q8 -11 8 -26q-2 -11 -16 -27l-438 -412q-18 -12 -33 -12h-80q-11 0 -13 8q-2 9 9 17l407 378l-596 -6l-596 6l277 -378q6 -8 1 -17q-5 -8 -18 -8h-77q-17 0 -25 12l-295 412q-7 16 -6 27q0 12 14 26
l441 412q21 14 30 14h78q13 0 15 -8q1 -7 -9 -18l-409 -377l598 4z" />
    <glyph glyph-name="arrowupdn" unicode="&#x2195;" horiz-adv-x="1144" 
d="M543 31l438 342q11 8 18 5q9 -3 7 -16l-15 -77q-1 -14 -18 -31l-477 -365q-15 -12 -29 -12q-13 0 -23 12l-348 365q-12 16 -10 31l14 77q2 13 12 16q9 3 15 -5l319 -342l84 504l95 505l-439 -342q-10 -8 -18 -6t-6 15l12 79q6 19 21 29l477 367q11 10 28 10q14 0 25 -10
l346 -367q13 -13 8 -29l-12 -79q-2 -13 -12 -16q-11 -3 -17 7l-319 342l-82 -505z" />
    <glyph glyph-name="arrowupleft" unicode="&#x2196;" horiz-adv-x="1144" 
d="M958 827l-512 -24l428 -516q15 -17 -6 -35l-47 -39q-18 -17 -30 0l-424 520l-115 -510q-4 -7 -12 -12t-17 2l-45 57q-12 12 -6 29l129 551q7 20 14 27q11 10 29 10l555 33q20 1 31 -11l45 -55q6 -10 0 -18q-7 -9 -17 -9z" />
    <glyph glyph-name="arrowupright" unicode="&#x2197;" horiz-adv-x="1144" 
d="M815 803l-506 24q-10 1 -12 10q-1 7 6 17l66 55q19 12 34 11l543 -33q15 0 25 -10q6 -6 4 -27l-62 -551q-5 -20 -18 -29l-66 -57q-9 -8 -16 -4t-6 14l65 510l-608 -520q-18 -17 -35 0l-30 39q-17 18 6 35z" />
    <glyph glyph-name="arrowdownright" unicode="&#x2198;" horiz-adv-x="1144" 
d="M205 225l514 25l-430 518q-15 12 6 33l47 39q19 19 31 0l426 -523l114 510q5 11 13 16t16 -3l43 -56q12 -12 8 -32l-131 -551q-5 -16 -14 -25q-16 -10 -29 -10l-557 -33q-15 -2 -29 12l-45 56q-6 8 0 16t17 8z" />
    <glyph glyph-name="arrowdownleft" unicode="&#x2199;" horiz-adv-x="1144" 
d="M348 250l504 -25q10 -1 13 -9q3 -7 -5 -15l-65 -58q-17 -12 -33 -10l-545 33q-15 1 -24 10q-7 9 -7 25l66 551q1 16 14 32l68 56q8 8 17 3q9 -4 7 -16l-65 -510l608 523q17 16 33 0l31 -39q21 -21 -4 -33z" />
    <glyph glyph-name="partialdiff" unicode="&#x2202;" horiz-adv-x="1099" 
d="M492 1323q-25 -6 -25 14l-2 56q0 18 29 26q93 37 221 37q187 0 281 -100q96 -102 96 -291q0 -108 -26 -247q-25 -135 -81 -286t-133 -271q-80 -124 -196 -202q-118 -79 -253 -79q-161 0 -251 92q-91 93 -91 241q0 245 154 432t387 187q156 0 234 -82t73 -197
q68 219 68 400q0 301 -283 301q-92 0 -202 -31zM406 82q124 0 228 87t156 207q52 119 52 236q0 100 -60 159q-59 58 -178 58q-188 0 -308 -160q-120 -161 -120 -345q0 -112 58 -177t172 -65z" />
    <glyph glyph-name="Delta" unicode="&#x2206;" horiz-adv-x="1179" 
d="M709 1442h100q23 0 27 -27l147 -1370q6 -45 -43 -45h-866q-46 0 -29 45l627 1370q10 27 37 27zM735 1323l-549 -1219h678l-121 1219h-8z" />
    <glyph glyph-name="product" unicode="&#x220f;" horiz-adv-x="1271" 
d="M227 1352l11 61q5 23 28 23h1082q25 0 20 -23l-10 -61q-6 -23 -29 -23h-192l-232 -1306q-6 -23 -28 -23h-68q-27 0 -21 23l232 1306h-463l-229 -1306q-6 -23 -29 -23h-68q-24 0 -18 23l229 1306h-194q-27 0 -21 23z" />
    <glyph glyph-name="summation" unicode="&#x2211;" horiz-adv-x="1009" 
d="M670 573l-545 -694h674q22 0 18 -22l-10 -60q-4 -22 -27 -22h-786q-28 0 -23 24l11 56q5 20 20 39l561 720l-301 701q-8 20 -4 37l8 61q6 23 31 23h766q24 0 18 -23l-8 -57q-6 -25 -29 -25h-659l299 -684q4 -10 2 -24l-4 -23q-5 -20 -12 -27z" />
    <glyph glyph-name="minus" unicode="&#x2212;" horiz-adv-x="1067" 
d="M963 670h-787q-21 0 -20 20l12 55q0 23 25 23h786q20 0 18 -23l-10 -55q-6 -20 -24 -20z" />
    <glyph glyph-name="uni2215" unicode="&#x2215;" horiz-adv-x="135" 
d="M676 1411l-1012 -1391q-20 -20 -37 -20h-65q-33 0 -11 25l1012 1392q16 19 35 19h66q28 0 12 -25z" />
    <glyph glyph-name="uni2219" unicode="&#x2219;" horiz-adv-x="385" 
d="M121 463l24 137q2 25 27 25h96q24 0 19 -25l-23 -137q-6 -23 -26 -23h-97q-26 0 -20 23z" />
    <glyph glyph-name="radical" unicode="&#x221a;" horiz-adv-x="1198" 
d="M549 -143h-82q-25 0 -27 24l-112 946h-146q-24 0 -22 23l10 55q2 23 29 23h215q22 0 24 -23l92 -872h7l618 1501q13 25 33 25h76q22 0 14 -27l-696 -1651q-8 -24 -33 -24z" />
    <glyph glyph-name="infinity" unicode="&#x221e;" horiz-adv-x="1273" 
d="M737 924q84 127 254 127q115 0 173 -63q59 -64 59 -171q0 -171 -91 -302q-92 -132 -264 -132q-181 0 -241 127q-88 -127 -258 -127q-120 0 -180 64q-60 65 -60 178q0 167 95 297q95 129 268 129q178 0 245 -127zM610 664l76 178q-43 127 -197 127q-122 0 -190 -104
t-68 -240q0 -160 152 -160q91 0 135 41q42 39 92 158zM750 770l-74 -178q46 -127 198 -127q122 0 189 105q67 104 67 243q0 156 -151 156q-90 0 -135 -42q-43 -41 -94 -157z" />
    <glyph glyph-name="integral" unicode="&#x222b;" horiz-adv-x="647" 
d="M190 25l207 1173q23 130 75 191t155 61q63 0 92 -10q19 -2 14 -25l-16 -55q-11 -24 -29 -19q-14 2 -27 3.5t-19 2.5t-7 1q-58 0 -85 -37q-27 -38 -42 -119l-207 -1176q-22 -125 -76 -188q-52 -61 -157 -61q-40 0 -88 8q-19 6 -19 26l19 54q5 24 28 20q24 -6 55 -6
q56 0 83 37q28 39 44 119z" />
    <glyph glyph-name="approxequal" unicode="&#x2248;" horiz-adv-x="1067" 
d="M967 565q-57 -170 -213 -170q-63 0 -168 43l-125 54q-40 19 -70 28q-34 11 -62 14q-38 5 -67 -15q-28 -19 -49 -62q0 -7 -10 -21q-11 -18 -31 -18h-43q-29 0 -14 37q60 172 215 172q64 0 166 -45l127 -52q87 -42 151 -36q61 6 94 69l11 23q10 18 30 18h41q29 0 17 -39z
M1042 993q-57 -170 -215 -170q-70 0 -168 43l-122 54q-28 12 -56 22q-20 7 -52 14q-36 7 -55 3q-21 -5 -44 -22q-25 -19 -41 -52l-6 -11l-7 -10q-11 -20 -30 -20h-43q-27 0 -15 37q61 172 217 172q59 0 166 -45l125 -50q91 -42 155 -37q61 5 91 70l12 21q8 18 29 18h43
q31 0 16 -37z" />
    <glyph glyph-name="notequal" unicode="&#x2260;" horiz-adv-x="1067" 
d="M922 479h-430l-263 -456q-15 -23 -34 -23h-54q-27 0 -16 25l262 454h-240q-20 0 -18 23l8 53q5 23 29 23h280l164 294h-393q-20 0 -20 23l10 53q6 21 29 21h436l260 450q11 17 29 17h59q31 0 10 -27l-254 -440h232q22 0 20 -21l-10 -53q-2 -23 -27 -23h-276l-164 -294
h387q25 0 20 -23l-10 -53q-2 -23 -26 -23z" />
    <glyph glyph-name="lessequal" unicode="&#x2264;" horiz-adv-x="1067" 
d="M182 752q4 12 17 24l762 549q21 10 32 -2l31 -47q16 -16 -6 -31l-699 -493l525 -496q15 -15 -6 -31l-47 -45q-14 -14 -31 -2l-570 547q-10 14 -8 27zM780 0h-698q-27 0 -21 23l9 45q4 22 26 22h699q24 0 18 -22l-6 -45q-5 -23 -27 -23z" />
    <glyph glyph-name="greaterequal" unicode="&#x2265;" horiz-adv-x="1067" 
d="M983 752q-2 -13 -16 -27l-762 -547q-21 -15 -33 2l-31 45q-15 18 9 31l696 496l-522 493q-18 15 4 31l45 47q20 14 35 2l567 -549q14 -10 8 -24zM823 0h-702q-24 0 -19 23l9 45q4 22 26 22h699q26 0 20 -22l-8 -45q-6 -23 -25 -23z" />
    <glyph glyph-name="lozenge" unicode="&#x25ca;" horiz-adv-x="1179" 
d="M535 154l438 565l-240 565l-440 -565zM504 -14q-13 0 -19 14l-315 698q-4 15 -4 21q5 13 10 18l561 699q11 14 27 14q12 0 18 -14l316 -699q6 -12 2 -18q0 -10 -8 -21l-562 -698q-11 -14 -26 -14z" />
    <glyph glyph-name="uniE000" unicode="&#xe000;" horiz-adv-x="1024" 
 />
    <glyph glyph-name="Q.alt" unicode="&#xe001;" horiz-adv-x="1200" 
d="M762 1456q407 0 407 -457q0 -117 -26 -280q-66 -364 -205 -540t-373 -191l-24 -189q-5 -24 -27 -24h-74q-28 0 -18 24l41 189q-166 12 -256 128t-90 330q0 105 26 273q68 377 221 559q150 178 398 178zM532 88q193 0 312 152t176 477q29 169 29 276q0 355 -293 355
q-195 0 -314 -152q-118 -152 -174 -477q-30 -159 -30 -275q0 -356 294 -356z" />
    <glyph glyph-name="a.alt" unicode="&#xe002;" horiz-adv-x="1015" 
d="M784 535q19 101 19 172q0 136 -60 208t-170 72q-279 0 -358 -452q-18 -129 -18 -191q0 -262 217 -262q140 0 237 115q95 113 133 338zM983 1042l-178 -1019q-5 -23 -27 -23h-63q-26 0 -21 23l29 167q-108 -208 -332 -208q-147 0 -229 91t-82 263q0 78 20 199
q96 552 461 552q113 0 189 -57t94 -153l28 167q6 23 31 23h64q22 0 16 -25z" />
    <glyph glyph-name="u.alt" unicode="&#xe003;" horiz-adv-x="966" 
d="M414 -18q-180 0 -260 95q-81 96 -48 279l121 686q2 25 27 25h65q21 0 19 -25l-121 -680q-24 -140 22 -208q47 -70 177 -70q129 0 199 70t94 208l120 680q6 25 29 25h64q24 0 18 -25l-121 -686q-33 -189 -131 -281q-99 -93 -274 -93z" />
    <glyph glyph-name="y.alt" unicode="&#xe004;" horiz-adv-x="970" 
d="M670 133l22 139q-104 -188 -313 -188q-154 0 -220 96t-38 262l106 600q2 25 27 25h65q21 0 19 -25l-105 -585q-47 -271 173 -271q119 0 210 88q93 90 117 226l94 542q6 25 27 25h68q22 0 16 -25l-162 -915q-63 -373 -432 -373q-176 0 -274 49q-19 13 -13 29l15 53
q6 23 28 17q112 -47 244 -47q275 0 326 278z" />
    <glyph glyph-name="j.alt" unicode="&#xe005;" horiz-adv-x="397" 
d="M354 1042l-219 -1245q-4 -22 -26 -22h-66q-22 0 -18 22l219 1245q6 25 28 25h66q22 0 16 -25zM420 1395l-29 -156q-4 -22 -24 -22h-72q-23 0 -19 22l29 156q1 22 27 22h69q20 0 19 -22z" />
    <glyph glyph-name="agrave.alt" unicode="&#xe006;" horiz-adv-x="1015" 
d="M784 535q19 101 19 172q0 136 -60 208t-170 72q-279 0 -358 -452q-18 -129 -18 -191q0 -262 217 -262q140 0 237 115q95 113 133 338zM983 1042l-178 -1019q-5 -23 -27 -23h-63q-26 0 -21 23l29 167q-108 -208 -332 -208q-147 0 -229 91t-82 263q0 78 20 199
q96 552 461 552q113 0 189 -57t94 -153l28 167q6 23 31 23h64q22 0 16 -25zM635 1395l84 -176q7 -21 -19 -21h-34q-18 0 -29 14l-141 174q-6 10 -1 20q5 9 17 9h92q21 0 31 -20z" />
    <glyph glyph-name="aacute.alt" unicode="&#xe007;" horiz-adv-x="1015" 
d="M784 535q19 101 19 172q0 136 -60 208t-170 72q-279 0 -358 -452q-18 -129 -18 -191q0 -262 217 -262q140 0 237 115q95 113 133 338zM983 1042l-178 -1019q-5 -23 -27 -23h-63q-26 0 -21 23l29 167q-108 -208 -332 -208q-147 0 -229 91t-82 263q0 78 20 199
q96 552 461 552q113 0 189 -57t94 -153l28 167q6 23 31 23h64q22 0 16 -25zM565 1219l142 176q14 20 38 20h95q14 0 16 -9q2 -10 -8 -20l-199 -174q-14 -14 -35 -14h-41q-25 0 -8 21z" />
    <glyph glyph-name="acircumflex.alt" unicode="&#xe008;" horiz-adv-x="1015" 
d="M784 535q19 101 19 172q0 136 -60 208t-170 72q-279 0 -358 -452q-18 -129 -18 -191q0 -262 217 -262q140 0 237 115q95 113 133 338zM983 1042l-178 -1019q-5 -23 -27 -23h-63q-26 0 -21 23l29 167q-108 -208 -332 -208q-147 0 -229 91t-82 263q0 78 20 199
q96 552 461 552q113 0 189 -57t94 -153l28 167q6 23 31 23h64q22 0 16 -25zM778 1212l-114 134l-160 -134q-14 -14 -33 -14h-53q-29 0 -6 23l194 184q20 16 39 16h57q21 0 33 -16l133 -184q7 -8 2 -16q-4 -7 -16 -7h-49q-16 0 -27 14z" />
    <glyph glyph-name="atilde.alt" unicode="&#xe009;" horiz-adv-x="1015" 
d="M784 535q19 101 19 172q0 136 -60 208t-170 72q-279 0 -358 -452q-18 -129 -18 -191q0 -262 217 -262q140 0 237 115q95 113 133 338zM983 1042l-178 -1019q-5 -23 -27 -23h-63q-26 0 -21 23l29 167q-108 -208 -332 -208q-147 0 -229 91t-82 263q0 78 20 199
q96 552 461 552q113 0 189 -57t94 -153l28 167q6 23 31 23h64q22 0 16 -25zM913 1321q-7 -54 -43 -90q-35 -35 -90 -35q-69 0 -131 37l-45 27q-59 28 -91 19t-44 -42l-6 -18q-8 -19 -29 -19h-31q-24 0 -18 29q11 58 46 93q36 36 93 36q48 0 127 -41l45 -25q111 -63 138 23
l4 16q6 21 30 21h31q20 0 14 -31z" />
    <glyph glyph-name="adieresis.alt" unicode="&#xe00a;" horiz-adv-x="1015" 
d="M784 535q19 101 19 172q0 136 -60 208t-170 72q-279 0 -358 -452q-18 -129 -18 -191q0 -262 217 -262q140 0 237 115q95 113 133 338zM983 1042l-178 -1019q-5 -23 -27 -23h-63q-26 0 -21 23l29 167q-108 -208 -332 -208q-147 0 -229 91t-82 263q0 78 20 199
q96 552 461 552q113 0 189 -57t94 -153l28 167q6 23 31 23h64q22 0 16 -25zM565 1339l-20 -118q-2 -23 -27 -23h-72q-24 0 -18 23l21 118q5 23 28 23h72q22 0 16 -23zM870 1339l-20 -118q-6 -23 -27 -23h-71q-25 0 -19 23l21 118q5 23 26 23h72q23 0 18 -23z" />
    <glyph glyph-name="amacron.alt" unicode="&#xe00b;" horiz-adv-x="1015" 
d="M784 535q19 101 19 172q0 136 -60 208t-170 72q-279 0 -358 -452q-18 -129 -18 -191q0 -262 217 -262q140 0 237 115q95 113 133 338zM983 1042l-178 -1019q-5 -23 -27 -23h-63q-26 0 -21 23l29 167q-108 -208 -332 -208q-147 0 -229 91t-82 263q0 78 20 199
q96 552 461 552q113 0 189 -57t94 -153l28 167q6 23 31 23h64q22 0 16 -25zM866 1212h-454q-23 0 -17 21l4 37q4 22 27 22h455q24 0 18 -22l-6 -37q-6 -21 -27 -21z" />
    <glyph glyph-name="abreve.alt" unicode="&#xe00c;" horiz-adv-x="1015" 
d="M784 535q19 101 19 172q0 136 -60 208t-170 72q-279 0 -358 -452q-18 -129 -18 -191q0 -262 217 -262q140 0 237 115q95 113 133 338zM983 1042l-178 -1019q-5 -23 -27 -23h-63q-26 0 -21 23l29 167q-108 -208 -332 -208q-147 0 -229 91t-82 263q0 78 20 199
q96 552 461 552q113 0 189 -57t94 -153l28 167q6 23 31 23h64q22 0 16 -25zM647 1192q-113 0 -167 57t-42 140q1 20 23 20h41q18 0 18 -18q0 -54 28 -87q27 -32 103 -32q73 0 112 31q36 29 58 88q11 18 25 18h39q19 0 18 -20q-18 -86 -82 -142q-62 -55 -174 -55z" />
    <glyph glyph-name="aring.alt" unicode="&#xe00d;" horiz-adv-x="1015" 
d="M784 535q19 101 19 172q0 136 -60 208t-170 72q-279 0 -358 -452q-18 -129 -18 -191q0 -262 217 -262q140 0 237 115q95 113 133 338zM983 1042l-178 -1019q-5 -23 -27 -23h-63q-26 0 -21 23l29 167q-108 -208 -332 -208q-147 0 -229 91t-82 263q0 78 20 199
q96 552 461 552q113 0 189 -57t94 -153l28 167q6 23 31 23h64q22 0 16 -25zM649 1247q53 0 91 35t38 90q0 86 -98 86q-56 0 -93 -34q-38 -35 -38 -93q0 -39 26 -61q28 -23 74 -23zM688 1524q75 0 119 -40q45 -41 45 -104q0 -85 -60 -142q-59 -56 -153 -56q-75 0 -119 40
q-45 40 -45 101q0 85 61 143t152 58z" />
    <glyph glyph-name="aringacute.alt" unicode="&#xe00e;" horiz-adv-x="1015" 
d="M784 535q19 101 19 172q0 136 -60 208t-170 72q-279 0 -358 -452q-18 -129 -18 -191q0 -262 217 -262q140 0 237 115q95 113 133 338zM983 1042l-178 -1019q-5 -23 -27 -23h-63q-26 0 -21 23l29 167q-108 -208 -332 -208q-147 0 -229 91t-82 263q0 78 20 199
q96 552 461 552q113 0 189 -57t94 -153l28 167q6 23 31 23h64q22 0 16 -25zM649 1247q53 0 91 35t38 90q0 86 -98 86q-56 0 -93 -34q-38 -35 -38 -93q0 -39 26 -61q28 -23 74 -23zM688 1524q75 0 119 -40q45 -41 45 -104q0 -85 -60 -142q-59 -56 -153 -56q-75 0 -119 40
q-45 40 -45 101q0 85 61 143t152 58zM598 1483l141 176q14 20 39 20h94q16 0 17 -10q2 -11 -8 -18l-199 -174q-15 -15 -35 -15h-41q-24 0 -8 21z" />
    <glyph glyph-name="aogonek.alt" unicode="&#xe00f;" horiz-adv-x="1015" 
d="M784 535q19 101 19 172q0 136 -60 208t-170 72q-279 0 -358 -452q-18 -129 -18 -191q0 -262 217 -262q140 0 237 115q95 113 133 338zM983 1042l-178 -1019q-5 -23 -27 -23h-63q-26 0 -21 23l29 167q-108 -208 -332 -208q-147 0 -229 91t-82 263q0 78 20 199
q96 552 461 552q113 0 189 -57t94 -153l28 167q6 23 31 23h64q22 0 16 -25zM733 20l64 -4q-185 -84 -185 -182q0 -47 78 -47q13 0 35 2t23 2h8q2 0 4 -3q2 -4 2 -7v-37q0 -19 -14 -20q-29 -17 -82 -17q-60 0 -102 25q-40 24 -40 73q0 137 209 215z" />
    <glyph glyph-name="ij.alt" unicode="&#xe010;" horiz-adv-x="782" 
d="M354 1042l-178 -1019q-6 -23 -26 -23h-66q-24 0 -18 23l178 1019q6 25 28 25h66q22 0 16 -25zM420 1395l-29 -156q-4 -22 -24 -22h-72q-23 0 -19 22l29 156q1 22 27 22h69q20 0 19 -22zM739 1042l-219 -1245q-4 -22 -26 -22h-66q-22 0 -18 22l219 1245q6 25 28 25h66
q22 0 16 -25zM805 1395l-29 -156q-4 -22 -24 -22h-72q-22 0 -18 22l28 156q1 22 27 22h69q20 0 19 -22z" />
    <glyph glyph-name="jcircumflex.alt" unicode="&#xe011;" horiz-adv-x="399" 
d="M354 1042l-219 -1245q-4 -22 -26 -22h-66q-22 0 -18 22l219 1245q6 25 28 25h66q22 0 16 -25zM471 1212l-115 134l-159 -134q-14 -14 -33 -14h-53q-30 0 -7 23l195 184q20 16 39 16h57q21 0 33 -16l133 -184q7 -8 2 -16q-4 -7 -16 -7h-49q-16 0 -27 14z" />
    <glyph glyph-name="dotlessj.alt" unicode="&#xe012;" horiz-adv-x="397" 
d="M354 1042l-219 -1245q-4 -22 -26 -22h-66q-22 0 -18 22l219 1245q6 25 28 25h66q22 0 16 -25z" />
    <glyph glyph-name="ugrave.alt" unicode="&#xe013;" horiz-adv-x="966" 
d="M414 -18q-180 0 -260 95q-81 96 -48 279l121 686q2 25 27 25h65q21 0 19 -25l-121 -680q-24 -140 22 -208q47 -70 177 -70q129 0 199 70t94 208l120 680q6 25 29 25h64q24 0 18 -25l-121 -686q-33 -189 -131 -281q-99 -93 -274 -93zM590 1395l84 -176q8 -21 -19 -21h-34
q-18 0 -29 14l-141 174q-6 10 -1 20q4 9 17 9h92q21 0 31 -20z" />
    <glyph glyph-name="uacute.alt" unicode="&#xe014;" horiz-adv-x="966" 
d="M414 -18q-180 0 -260 95q-81 96 -48 279l121 686q2 25 27 25h65q21 0 19 -25l-121 -680q-24 -140 22 -208q47 -70 177 -70q129 0 199 70t94 208l120 680q6 25 29 25h64q24 0 18 -25l-121 -686q-33 -189 -131 -281q-99 -93 -274 -93zM555 1219l141 176q14 20 39 20h94
q15 0 17 -9q2 -10 -8 -20l-199 -174q-14 -14 -35 -14h-41q-25 0 -8 21z" />
    <glyph glyph-name="ucircumflex.alt" unicode="&#xe015;" horiz-adv-x="966" 
d="M414 -18q-180 0 -260 95q-81 96 -48 279l121 686q2 25 27 25h65q21 0 19 -25l-121 -680q-24 -140 22 -208q47 -70 177 -70q129 0 199 70t94 208l120 680q6 25 29 25h64q24 0 18 -25l-121 -686q-33 -189 -131 -281q-99 -93 -274 -93zM754 1212l-115 134l-160 -134
q-14 -14 -33 -14h-53q-29 0 -6 23l195 184q20 16 39 16h57q21 0 33 -16l133 -184q7 -8 2 -16q-4 -7 -17 -7h-49q-15 0 -26 14z" />
    <glyph glyph-name="utilde.alt" unicode="&#xe016;" horiz-adv-x="966" 
d="M414 -18q-180 0 -260 95q-81 96 -48 279l121 686q2 25 27 25h65q21 0 19 -25l-121 -680q-24 -140 22 -208q47 -70 177 -70q129 0 199 70t94 208l120 680q6 25 29 25h64q24 0 18 -25l-121 -686q-33 -189 -131 -281q-99 -93 -274 -93zM887 1321q-7 -54 -43 -90
q-35 -35 -90 -35q-66 0 -131 37l-45 27q-60 28 -92 19t-44 -42l-6 -18q-11 -19 -28 -19h-31q-25 0 -19 29q11 58 46 93q36 36 94 36q48 0 127 -41l45 -25q110 -62 137 23l4 16q5 21 31 21h30q21 0 15 -31z" />
    <glyph glyph-name="udieresis.alt" unicode="&#xe017;" horiz-adv-x="966" 
d="M414 -18q-180 0 -260 95q-81 96 -48 279l121 686q2 25 27 25h65q21 0 19 -25l-121 -680q-24 -140 22 -208q47 -70 177 -70q129 0 199 70t94 208l120 680q6 25 29 25h64q24 0 18 -25l-121 -686q-33 -189 -131 -281q-99 -93 -274 -93zM541 1339l-21 -118q-2 -23 -26 -23
h-72q-25 0 -19 23l21 118q5 23 29 23h71q23 0 17 -23zM846 1339l-21 -118q-6 -23 -26 -23h-72q-24 0 -18 23l20 118q5 23 27 23h71q24 0 19 -23z" />
    <glyph glyph-name="umacron.alt" unicode="&#xe018;" horiz-adv-x="966" 
d="M414 -18q-180 0 -260 95q-81 96 -48 279l121 686q2 25 27 25h65q21 0 19 -25l-121 -680q-24 -140 22 -208q47 -70 177 -70q129 0 199 70t94 208l120 680q6 25 29 25h64q24 0 18 -25l-121 -686q-33 -189 -131 -281q-99 -93 -274 -93zM840 1212h-455q-22 0 -16 21l4 37
q4 22 26 22h455q24 0 18 -22l-6 -37q-6 -21 -26 -21z" />
    <glyph glyph-name="ubreve.alt" unicode="&#xe019;" horiz-adv-x="966" 
d="M414 -18q-180 0 -260 95q-81 96 -48 279l121 686q2 25 27 25h65q21 0 19 -25l-121 -680q-24 -140 22 -208q47 -70 177 -70q129 0 199 70t94 208l120 680q6 25 29 25h64q24 0 18 -25l-121 -686q-33 -189 -131 -281q-99 -93 -274 -93zM621 1192q-113 0 -167 57t-42 140
q1 20 22 20h41q19 0 19 -18q0 -55 27 -87t104 -32q72 0 111 31q38 30 59 88q7 18 24 18h39q20 0 19 -20q-18 -86 -82 -142q-62 -55 -174 -55z" />
    <glyph glyph-name="uring.alt" unicode="&#xe01a;" horiz-adv-x="966" 
d="M414 -18q-180 0 -260 95q-81 96 -48 279l121 686q2 25 27 25h65q21 0 19 -25l-121 -680q-24 -140 22 -208q47 -70 177 -70q129 0 199 70t94 208l120 680q6 25 29 25h64q24 0 18 -25l-121 -686q-33 -189 -131 -281q-99 -93 -274 -93zM623 1247q53 0 91 35t38 90
q0 86 -99 86q-56 0 -93 -34q-38 -35 -38 -93q0 -39 27 -61q28 -23 74 -23zM662 1524q74 0 118 -40q45 -41 45 -104q0 -85 -60 -142q-59 -56 -153 -56q-74 0 -118 40q-45 40 -45 101q0 86 60 143q61 58 153 58z" />
    <glyph glyph-name="uhungarumlaut.alt" unicode="&#xe01b;" horiz-adv-x="966" 
d="M414 -18q-180 0 -260 95q-81 96 -48 279l121 686q2 25 27 25h65q21 0 19 -25l-121 -680q-24 -140 22 -208q47 -70 177 -70q129 0 199 70t94 208l120 680q6 25 29 25h64q24 0 18 -25l-121 -686q-33 -189 -131 -281q-99 -93 -274 -93zM422 1219l129 176q11 20 37 20h76
q14 0 16 -9q2 -10 -8 -20l-168 -174q-14 -14 -35 -14h-39q-24 0 -8 21zM686 1219l129 176q14 20 37 20h78q12 0 14 -9q2 -10 -8 -20l-166 -174q-14 -14 -37 -14h-37q-22 0 -10 21z" />
    <glyph glyph-name="ydieresis.alt" unicode="&#xe01c;" horiz-adv-x="970" 
d="M670 133l22 139q-104 -188 -313 -188q-154 0 -220 96t-38 262l106 600q2 25 27 25h65q21 0 19 -25l-105 -585q-47 -271 173 -271q119 0 210 88q93 90 117 226l94 542q6 25 27 25h68q22 0 16 -25l-162 -915q-63 -373 -432 -373q-176 0 -274 49q-19 13 -13 29l15 53
q6 23 28 17q112 -47 244 -47q275 0 326 278zM543 1339l-21 -118q-2 -23 -26 -23h-72q-24 0 -18 23l20 118q5 23 29 23h71q23 0 17 -23zM848 1339l-21 -118q-6 -23 -26 -23h-72q-24 0 -18 23l20 118q5 23 27 23h71q24 0 19 -23z" />
    <glyph glyph-name="yacute.alt" unicode="&#xe01d;" horiz-adv-x="970" 
d="M670 133l22 139q-104 -188 -313 -188q-154 0 -220 96t-38 262l106 600q2 25 27 25h65q21 0 19 -25l-105 -585q-47 -271 173 -271q119 0 210 88q93 90 117 226l94 542q6 25 27 25h68q22 0 16 -25l-162 -915q-63 -373 -432 -373q-176 0 -274 49q-19 13 -13 29l15 53
q6 23 28 17q112 -47 244 -47q275 0 326 278zM551 1219l141 176q14 20 39 20h94q15 0 17 -9q2 -10 -8 -20l-199 -174q-14 -14 -35 -14h-41q-25 0 -8 21z" />
    <glyph glyph-name="ycircumflex.alt" unicode="&#xe01e;" horiz-adv-x="970" 
d="M670 133l22 139q-104 -188 -313 -188q-154 0 -220 96t-38 262l106 600q2 25 27 25h65q21 0 19 -25l-105 -585q-47 -271 173 -271q119 0 210 88q93 90 117 226l94 542q6 25 27 25h68q22 0 16 -25l-162 -915q-63 -373 -432 -373q-176 0 -274 49q-19 13 -13 29l15 53
q6 23 28 17q112 -47 244 -47q275 0 326 278zM748 1212l-115 134l-160 -134q-14 -14 -33 -14h-53q-29 0 -6 23l194 184q20 16 39 16h58q21 0 33 -16l133 -184q7 -8 2 -16q-4 -7 -17 -7h-49q-15 0 -26 14z" />
    <glyph glyph-name="ygrave.alt" unicode="&#xe01f;" horiz-adv-x="970" 
d="M670 133l22 139q-104 -188 -313 -188q-154 0 -220 96t-38 262l106 600q2 25 27 25h65q21 0 19 -25l-105 -585q-47 -271 173 -271q119 0 210 88q93 90 117 226l94 542q6 25 27 25h68q22 0 16 -25l-162 -915q-63 -373 -432 -373q-176 0 -274 49q-19 13 -13 29l15 53
q6 23 28 17q112 -47 244 -47q275 0 326 278zM584 1395l84 -176q7 -21 -19 -21h-35q-17 0 -28 14l-142 174q-6 11 -2 20t19 9h92q21 0 31 -20z" />
    <glyph glyph-name="i.dot" unicode="&#xe020;" horiz-adv-x="397" 
d="M354 1042l-178 -1019q-6 -23 -26 -23h-66q-24 0 -18 23l178 1019q6 25 28 25h66q22 0 16 -25zM420 1395l-29 -156q-4 -22 -24 -22h-72q-23 0 -19 22l29 156q1 22 27 22h69q20 0 19 -22z" />
    <glyph glyph-name="dollar.old" unicode="&#xe021;" horiz-adv-x="892" 
d="M655 1327l-22 -129q123 -6 219 -39q23 -10 16 -31l-24 -49q-15 -26 -37 -16q-94 33 -215 33q-116 0 -208 -56q-91 -55 -91 -170q0 -16 3 -32t12 -31q3 -6 9 -14.5t8 -11.5q6 -10 22 -24q18 -17 26 -22q15 -11 31 -21l32 -20q2 -1 8 -4.5t13 -7.5l14 -8q19 -12 35 -21
q72 -41 101 -60q25 -17 80 -63q48 -41 68 -89q19 -47 19 -109q0 -142 -100 -232t-254 -108l-25 -135q-2 -25 -28 -25h-45q-24 0 -19 25l23 129q-184 0 -295 43q-29 8 -19 30l29 54q10 27 35 16q104 -43 266 -43q122 0 216 61q95 62 95 181q0 22 -6 42q-5 17 -12 34
q-6 15 -24 33l-26 27q-7 7 -35 25q-32 21 -36 23q-2 1 -16 9.5t-26 15.5t-25 14t-15 8q-127 66 -194 132q-66 65 -66 169q0 148 102 236q100 87 267 102l22 129q2 25 27 25h43q24 0 22 -25z" />
    <glyph glyph-name="cent.old" unicode="&#xe022;" horiz-adv-x="874" 
d="M117 590q100 569 508 602l22 135q6 25 29 25h45q24 0 18 -25l-22 -131q97 -6 182 -47q29 -12 14 -31l-28 -47q-10 -26 -35 -14q-70 35 -176 35q-355 0 -443 -502q-18 -124 -18 -191q0 -313 283 -313q94 0 200 39q25 8 29 -16l8 -48q2 -18 -26 -30q-70 -36 -203 -47
l-23 -127q-6 -25 -28 -25h-45q-25 0 -19 25l25 129q-318 27 -318 401q0 75 21 203z" />
    <glyph glyph-name="sterling.old" unicode="&#xe023;" horiz-adv-x="1026" 
d="M270 557h-141q-22 0 -20 25l8 36q2 23 26 23h105q-33 121 -33 172q0 179 127 281q128 102 305 102q165 0 251 -64q87 -64 87 -188q0 -104 -39 -104h-59q-21 0 -21 14l6 31q7 33 7 55q0 74 -60 115q-61 41 -174 41q-135 0 -224 -78t-89 -203q0 -55 35 -174h299
q26 0 20 -23l-6 -36q-6 -25 -31 -25h-264q29 -134 -16 -255t-154 -189q60 18 129 18q60 0 154 -22q98 -23 151 -23q82 0 119 49q36 48 53 137q6 25 29 25h51q27 0 21 -29q-27 -139 -78 -211q-50 -71 -172 -71q-72 0 -178 23q-111 24 -177 24q-136 0 -254 -45q-22 -6 -28 6
l-27 51q-5 19 12 27q157 77 230 207t20 278z" />
    <glyph glyph-name="yen.old" unicode="&#xe024;" horiz-adv-x="989" 
d="M815 305h-293l-49 -280q-2 -25 -27 -25h-65q-26 0 -21 25l50 280h-295q-21 0 -19 23l6 34q2 25 29 25h293l8 41l-43 125h-229q-25 0 -19 22l6 37q2 23 27 23h186l-186 516q-11 29 23 29h67q26 0 27 -21l213 -618h4l430 618q15 21 35 21h71q31 0 13 -29l-373 -516h188
q23 0 21 -23l-8 -37q0 -22 -25 -22h-231l-86 -125l-8 -41h296q23 0 17 -25l-6 -34q0 -23 -27 -23z" />
    <glyph glyph-name="Euro.old" unicode="&#xe025;" horiz-adv-x="970" 
d="M72 520h114q0 2 11 74q2 14 6 34q6 30 8 34h-115q-24 0 -18 20l4 39q1 20 29 20h120q144 453 545 453q152 0 234 -49q20 -16 10 -31l-31 -45q-15 -23 -37 -16q-68 37 -174 37q-313 0 -426 -349h430q27 0 15 -24l-15 -35q-11 -20 -34 -20h-420q-11 -34 -17 -68
q-8 -53 -8 -74h367q24 0 12 -24l-14 -35q-8 -21 -33 -21h-338q-11 -350 309 -350q96 0 189 35q26 7 32 -12l15 -47q2 -19 -21 -31q-91 -49 -227 -49q-210 0 -315 120q-107 122 -101 334h-121q-22 0 -20 23l6 37q6 20 29 20z" />
    <glyph glyph-name="zero.old" unicode="&#xe026;" horiz-adv-x="1028" 
d="M631 1194q169 0 255 -101q87 -102 87 -294q0 -87 -19 -211q-106 -604 -512 -604q-168 0 -256 102q-88 101 -88 297q0 88 19 207q108 604 514 604zM446 88q306 0 390 500q22 141 22 207q0 297 -235 297q-299 0 -387 -502q-23 -126 -23 -205q0 -297 233 -297z" />
    <glyph glyph-name="one.old" unicode="&#xe027;" horiz-adv-x="860" 
d="M686 0h-616q-26 0 -21 23l10 59q6 20 27 20h260l166 945l-254 -177q-15 -12 -29 2l-30 43q-11 19 6 27l323 232q16 10 31 10h68q25 0 20 -23l-188 -1059h246q24 0 18 -20l-8 -59q-5 -23 -29 -23z" />
    </font>
</defs>
</svg>
