<?xml version="1.0" standalone="no"?>
<!DOCTYPE svg PUBLIC "-//W3C//DTD SVG 1.1//EN" "http://www.w3.org/Graphics/SVG/1.1/DTD/svg11.dtd" >
<svg xmlns="http://www.w3.org/2000/svg" xmlns:xlink="http://www.w3.org/1999/xlink" version="1.1">
<metadata>
Created by FontForge 20170731 at Mon Nov 21 16:50:45 2022
 By Aleksey,,,
(c) 2012, 2013, 2014, 2015 by Stawix Ruecha &#38; Foundry. All rights reserved.
</metadata>
<defs>
<font id="AmsiProCond-UltraItalic" horiz-adv-x="1064" >
  <font-face 
    font-family="AmsiProCond-UltraItalic"
    font-weight="400"
    font-style="italic"
    font-stretch="condensed"
    units-per-em="2048"
    panose-1="2 11 10 6 2 2 1 1 1 4"
    ascent="1757"
    descent="-291"
    x-height="1143"
    cap-height="1450"
    bbox="-424.588 -580 2458 2128"
    underline-thickness="122"
    underline-position="-204"
    slope="-10"
    unicode-range="U+0020-FB4E"
  />
<missing-glyph horiz-adv-x="1007" 
d="M0 1413h1008v-1413h-1008v1413zM907 193v1030l-344 -516zM100 1223v-1030l344 514zM504 797l344 516h-686zM504 616l-342 -516h684z" />
    <glyph glyph-name="f_f" unicode="ff" horiz-adv-x="1210" 
d="M1120 1061h80q60 0 53 -60l-36 -208q-12 -60 -66 -60h-88l-119 -674q-12 -59 -65 -59h-222q-65 0 -53 59l119 674h-234l-118 -674q-12 -59 -66 -59h-221q-65 0 -53 59l119 674h-35q-59 0 -52 55l39 218q7 55 62 55h43l14 82q33 188 104 253q70 64 234 64q93 0 141 -16
q43 -16 35 -60l-28 -159q-12 -60 -70 -60h-16q-33 0 -48 -16t-22 -59l-4 -29h233l15 82q33 188 105 253q71 64 237 64q101 0 149 -16q43 -16 35 -60l-29 -159q-12 -60 -69 -60h-25q-36 0 -51 -15q-16 -16 -23 -60z" />
    <glyph glyph-name="fi" unicode="fi" horiz-adv-x="1089" 
d="M1118 1001l-166 -942q-12 -59 -65 -59h-230q-65 0 -53 59l119 674h-234l-118 -674q-12 -59 -66 -59h-221q-65 0 -53 59l119 674h-35q-59 0 -52 55l39 218q7 55 62 55h43l14 82q33 192 98 254q66 63 228 63q118 0 166 -16q43 -16 35 -60l-29 -159q-12 -60 -70 -60h-24
q-37 0 -52 -15q-14 -14 -22 -60l-4 -29h518q61 0 53 -60zM1190 1391l-29 -166q-12 -60 -65 -60h-238q-65 0 -53 60l29 166q12 59 65 59h238q65 0 53 -59z" />
    <glyph glyph-name="fl" unicode="fl" horiz-adv-x="1093" 
d="M1180 1356l-228 -1297q-12 -59 -65 -59h-230q-65 0 -53 59l195 1108q-58 7 -123 7q-108 0 -123 -76l-6 -37h67q62 0 54 -60l-37 -208q-12 -60 -66 -60h-76l-118 -674q-12 -59 -66 -59h-221q-65 0 -53 59l119 674h-35q-59 0 -52 55l39 218q7 55 62 55h43l6 37
q27 147 75 222q48 74 150 112q98 36 291 36q238 0 401 -36q61 -12 50 -76z" />
    <glyph glyph-name="f_f_i" unicode="ffi" horiz-adv-x="1662" 
d="M1692 1001l-166 -942q-12 -59 -66 -59h-229q-65 0 -53 59l118 674h-233l-119 -674q-12 -59 -65 -59h-222q-65 0 -53 59l119 674h-234l-118 -674q-12 -59 -66 -59h-221q-65 0 -53 59l119 674h-35q-59 0 -52 55l39 218q7 55 62 55h43l14 82q33 188 104 253q70 64 234 64
q93 0 141 -16q43 -16 35 -60l-28 -159q-12 -60 -70 -60h-16q-33 0 -48 -16t-22 -59l-4 -29h233l15 82q33 188 105 253q71 64 237 64q101 0 149 -16q43 -16 35 -60l-29 -159q-12 -60 -69 -60h-25q-36 0 -51 -15q-16 -16 -23 -60l-4 -29h518q62 0 54 -60zM1763 1391l-28 -166
q-12 -60 -66 -60h-237q-66 0 -54 60l29 166q12 59 66 59h237q65 0 53 -59z" />
    <glyph glyph-name="f_f_l" unicode="ffl" horiz-adv-x="1667" 
d="M1063 733l-119 -674q-12 -59 -65 -59h-222q-65 0 -53 59l119 674h-234l-118 -674q-12 -59 -66 -59h-221q-65 0 -53 59l119 674h-35q-59 0 -52 55l39 218q7 55 62 55h43l14 82q33 188 104 253q70 64 234 64q93 0 141 -16q43 -16 35 -60l-28 -159q-12 -60 -70 -60h-16
q-33 0 -48 -16t-22 -59l-4 -29h233l6 37q27 146 74 222q46 74 149 112q98 36 289 36q222 0 406 -36q60 -12 49 -76l-227 -1297q-12 -59 -66 -59h-229q-65 0 -53 59l194 1108q-58 7 -123 7q-108 0 -123 -76l-6 -37h68q60 0 53 -60l-37 -208q-12 -60 -65 -60h-76z" />
    <glyph glyph-name="f_b" unicode="fb" horiz-adv-x="1619" 
d="M1040 571q-20 -106 -20 -178q0 -106 70 -106q52 0 82 58q32 62 61 226q22 128 22 189q0 96 -65 96q-52 0 -87 -60q-34 -59 -63 -225zM1180 1356l-47 -271q85 74 206 74q135 0 204 -81t69 -259q0 -96 -25 -248q-57 -331 -153 -459t-267 -128q-73 0 -138 30q-64 30 -81 68
l-14 -33q-18 -49 -76 -49h-201q-65 0 -53 59l195 1108q-58 7 -123 7q-108 0 -123 -76l-6 -37h67q62 0 54 -60l-37 -208q-12 -60 -66 -60h-76l-118 -674q-12 -59 -66 -59h-221q-65 0 -53 59l119 674h-35q-59 0 -52 55l39 218q7 55 64 55h41l6 37q27 146 74 222q46 75 148 112
q98 36 290 36q221 0 405 -36q61 -12 50 -76z" />
    <glyph glyph-name="f_f_b" unicode="ffb" horiz-adv-x="2193" 
d="M1614 571q-21 -111 -21 -178q0 -106 70 -106q53 0 83 58q30 59 60 226q23 133 23 189q0 96 -66 96q-53 0 -87 -60q-33 -57 -62 -225zM1753 1356l-47 -271q85 74 207 74q135 0 204 -81q68 -80 68 -259q0 -103 -24 -248q-57 -330 -154 -459q-96 -128 -266 -128
q-73 0 -138 30q-64 30 -81 68l-15 -33q-18 -49 -75 -49h-201q-65 0 -53 59l194 1108q-58 7 -123 7q-108 0 -123 -76l-6 -37h68q60 0 53 -60l-37 -208q-12 -60 -65 -60h-76l-119 -674q-12 -59 -65 -59h-222q-65 0 -53 59l119 674h-234l-118 -674q-12 -59 -66 -59h-221
q-65 0 -53 59l119 674h-35q-59 0 -52 55l39 218q7 55 62 55h43l14 82q33 188 104 253q70 64 234 64q93 0 141 -16q43 -16 35 -60l-28 -159q-12 -60 -70 -60h-16q-33 0 -48 -16t-22 -59l-4 -29h233l6 37q27 146 74 222q46 74 149 112q98 36 289 36q222 0 406 -36
q60 -12 49 -76z" />
    <glyph glyph-name="f_h" unicode="fh" horiz-adv-x="1564" 
d="M1180 1356l-47 -275q101 78 208 78q112 0 171 -65q61 -67 61 -185q0 -48 -8 -94l-133 -756q-12 -59 -66 -59h-229q-66 0 -54 59l115 660q8 53 8 61q0 47 -39 47q-45 0 -68 -35t-40 -122l-107 -611q-12 -59 -65 -59h-230q-65 0 -53 59l195 1108q-58 7 -123 7
q-108 0 -123 -76l-6 -37h67q62 0 54 -60l-37 -208q-12 -60 -66 -60h-76l-118 -674q-12 -59 -66 -59h-221q-65 0 -53 59l119 674h-35q-59 0 -52 55l39 218q7 55 62 55h43l6 37q27 146 74 222q46 75 148 112q98 36 290 36q221 0 405 -36q61 -12 50 -76z" />
    <glyph glyph-name="f_f_h" unicode="ffh" horiz-adv-x="2138" 
d="M1753 1356l-47 -275q101 78 209 78q112 0 171 -65q60 -66 60 -185q0 -48 -8 -94l-133 -756q-12 -59 -66 -59h-229q-65 0 -53 59l115 660q8 53 8 61q0 47 -39 47q-46 0 -69 -35t-40 -122l-106 -611q-12 -59 -66 -59h-229q-65 0 -53 59l194 1108q-58 7 -123 7
q-108 0 -123 -76l-6 -37h68q60 0 53 -60l-37 -208q-12 -60 -65 -60h-76l-119 -674q-12 -59 -65 -59h-222q-65 0 -53 59l119 674h-234l-118 -674q-12 -59 -66 -59h-221q-65 0 -53 59l119 674h-35q-59 0 -52 55l39 218q7 55 62 55h43l14 82q33 188 104 253q70 64 234 64
q93 0 141 -16q43 -16 35 -60l-28 -159q-12 -60 -70 -60h-16q-33 0 -48 -16t-22 -59l-4 -29h233l6 37q27 146 74 222q46 74 149 112q98 36 289 36q222 0 406 -36q60 -12 49 -76z" />
    <glyph glyph-name="f_j" unicode="fj" horiz-adv-x="1089" 
d="M1118 1001l-157 -895q-35 -203 -107 -272q-73 -70 -246 -70q-92 0 -143 17q-42 16 -35 59l35 201q12 59 70 59h20q33 0 49 19q15 19 23 76l96 538h-234l-118 -674q-12 -59 -66 -59h-221q-65 0 -53 59l119 674h-35q-59 0 -52 55l39 218q7 55 62 55h43l14 82
q33 187 106 253q71 64 236 64q102 0 150 -16q43 -16 35 -60l-29 -159q-12 -60 -70 -60h-24q-37 0 -52 -15q-14 -14 -22 -60l-4 -29h518q61 0 53 -60zM1190 1391l-29 -166q-12 -60 -65 -60h-238q-65 0 -53 60l29 166q12 59 65 59h238q65 0 53 -59z" />
    <glyph glyph-name="f_f_j" unicode="ffj" horiz-adv-x="1662" 
d="M1692 1001l-158 -895q-35 -203 -107 -272q-73 -70 -245 -70q-93 0 -144 17q-41 16 -34 59l34 201q12 59 70 59h20q34 0 50 19q14 17 22 76l96 538h-233l-119 -674q-12 -59 -65 -59h-222q-65 0 -53 59l119 674h-234l-118 -674q-12 -59 -66 -59h-221q-65 0 -53 59l119 674
h-35q-59 0 -52 55l39 218q7 55 62 55h43l14 82q33 188 104 253q70 64 234 64q93 0 141 -16q43 -16 35 -60l-28 -159q-12 -60 -70 -60h-16q-33 0 -48 -16t-22 -59l-4 -29h233l15 82q33 188 105 253q71 64 237 64q101 0 149 -16q43 -16 35 -60l-29 -159q-12 -60 -69 -60h-25
q-36 0 -51 -15q-16 -16 -23 -60l-4 -29h518q62 0 54 -60zM1763 1391l-28 -166q-12 -60 -66 -60h-237q-66 0 -54 60l29 166q12 59 66 59h237q65 0 53 -59z" />
    <glyph glyph-name="f_k" unicode="fk" horiz-adv-x="1540" 
d="M1180 1356l-99 -557l185 295q15 27 30 38t50 11h251q37 0 43 -25t-14 -53l-280 -438l110 -553q12 -74 -53 -74l-234 2q-61 0 -71 51l-74 412l-72 -406q-12 -59 -65 -59h-230q-65 0 -53 59l195 1108q-58 7 -123 7q-108 0 -123 -76l-6 -37h67q62 0 54 -60l-37 -208
q-12 -60 -66 -60h-76l-118 -674q-12 -59 -66 -59h-221q-65 0 -53 59l119 674h-35q-59 0 -52 55l39 218q7 55 62 55h43l6 37q27 146 74 222q46 75 148 112q98 36 290 36q221 0 405 -36q61 -12 50 -76z" />
    <glyph glyph-name="f_f_k" unicode="ffk" horiz-adv-x="2113" 
d="M1753 1356l-98 -557l184 295q14 26 31 38q15 11 49 11h252q37 0 43 -25t-14 -53l-281 -438l111 -553q12 -74 -54 -74l-233 2q-61 0 -72 51l-74 412l-71 -406q-12 -59 -66 -59h-229q-60 0 -53 59l194 1108q-58 7 -123 7q-108 0 -123 -76l-6 -37h68q60 0 53 -60l-37 -208
q-12 -60 -65 -60h-76l-119 -674q-12 -59 -65 -59h-222q-65 0 -53 59l119 674h-234l-118 -674q-12 -59 -66 -59h-221q-65 0 -53 59l119 674h-35q-59 0 -52 55l39 218q7 55 62 55h43l14 82q33 188 104 253q70 64 234 64q93 0 141 -16q43 -16 35 -60l-28 -159q-12 -60 -70 -60
h-16q-33 0 -48 -16t-22 -59l-4 -29h233l6 37q27 146 74 222q46 74 149 112q98 36 289 36q222 0 406 -36q60 -12 49 -76z" />
    <glyph glyph-name="f_t" unicode="ft" horiz-adv-x="1187" 
d="M547 1061h233l39 227q12 60 68 60h221q63 0 51 -60l-39 -227h80q60 0 53 -60l-36 -208q-12 -60 -66 -60h-88l-55 -313q-11 -58 -3 -76q7 -18 46 -18h24q59 0 47 -60l-35 -200q-7 -45 -55 -60q-54 -16 -121 -16q-147 0 -209 49q-63 49 -63 168q0 51 14 135l70 391h-234
l-118 -674q-12 -59 -66 -59h-221q-65 0 -53 59l119 674h-35q-59 0 -52 55l39 218q7 55 62 55h43l14 82q33 188 104 253q70 64 234 64q93 0 141 -16q43 -16 35 -60l-28 -159q-12 -60 -70 -60h-16q-33 0 -48 -16t-22 -59z" />
    <glyph glyph-name="f_f_t" unicode="fft" horiz-adv-x="1761" 
d="M780 1061l15 82q33 189 103 253t235 64q93 0 141 -16q43 -16 35 -60l-29 -159q-12 -60 -70 -60h-16q-32 0 -47 -16q-16 -17 -23 -59l-4 -29h234l39 227q12 60 67 60h221q64 0 52 -60l-39 -227h80q60 0 53 -60l-37 -208q-12 -60 -66 -60h-88l-55 -313q-11 -58 -3 -76
t46 -18h25q59 0 47 -60l-35 -200q-7 -45 -55 -60q-54 -16 -121 -16q-147 0 -209 49q-64 50 -64 168q0 45 15 135l69 391h-233l-119 -674q-12 -59 -65 -59h-222q-65 0 -53 59l119 674h-234l-118 -674q-12 -59 -66 -59h-221q-65 0 -53 59l119 674h-35q-59 0 -52 55l39 218
q7 55 62 55h43l14 82q33 188 104 253q70 64 234 64q93 0 141 -16q43 -16 35 -60l-28 -159q-12 -60 -70 -60h-16q-33 0 -48 -16t-22 -59l-4 -29h233z" />
    <glyph glyph-name="t_t" unicode="tt" horiz-adv-x="1187" 
d="M1151 733h-88l-55 -313q-11 -58 -3 -76q7 -18 46 -18h24q59 0 47 -60l-35 -200q-7 -45 -55 -60q-54 -16 -121 -16q-147 0 -209 49q-63 49 -63 168q0 51 14 135l70 391h-234l-55 -313q-11 -58 -3 -76q7 -18 38 -18h16q59 0 47 -60l-34 -200q-7 -44 -56 -60
q-54 -16 -112 -16q-141 0 -203 47q-61 46 -61 164q0 68 14 141l70 391h-35q-59 0 -52 55l39 218q7 55 62 55h43l39 227q12 60 67 60h222q63 0 51 -60l-39 -227h233l39 227q12 60 68 60h221q63 0 51 -60l-39 -227h80q60 0 53 -60l-36 -208q-12 -60 -66 -60z" />
    <glyph glyph-name="t_t_f" unicode="ttf" horiz-adv-x="1761" 
d="M1063 733l-55 -313q-11 -58 -3 -76q7 -18 46 -18h24q59 0 47 -60l-35 -200q-7 -45 -55 -60q-54 -16 -121 -16q-147 0 -209 49q-63 49 -63 168q0 51 14 135l70 391h-234l-55 -313q-11 -58 -3 -76q7 -18 38 -18h16q59 0 47 -60l-34 -200q-7 -44 -56 -60q-54 -16 -112 -16
q-141 0 -203 47q-61 46 -61 164q0 68 14 141l70 391h-35q-59 0 -52 55l39 218q7 55 62 55h43l39 227q12 60 67 60h222q63 0 51 -60l-39 -227h233l39 227q12 60 68 60h221q63 0 51 -60l-39 -227h234l14 82q33 187 106 253q71 64 236 64q102 0 150 -16q42 -16 34 -60l-28 -159
q-12 -60 -70 -60h-24q-37 0 -52 -15q-14 -14 -22 -60l-4 -29h80q60 0 53 -60l-37 -208q-12 -60 -66 -60h-88l-118 -674q-12 -59 -66 -59h-221q-65 0 -53 59l118 674h-233z" />
    <glyph glyph-name=".notdef" horiz-adv-x="1007" 
d="M0 1413h1008v-1413h-1008v1413zM907 193v1030l-344 -516zM100 1223v-1030l344 514zM504 797l344 516h-686zM504 616l-342 -516h684z" />
    <glyph glyph-name=".null" horiz-adv-x="0" 
 />
    <glyph glyph-name="nonmarkingreturn" horiz-adv-x="681" 
 />
    <glyph glyph-name="space" unicode=" " horiz-adv-x="348" 
 />
    <glyph glyph-name="exclam" unicode="!" horiz-adv-x="528" 
d="M12 66l41 233q12 66 76 66h229q68 0 56 -66l-41 -233q-12 -66 -74 -66h-229q-70 0 -58 66zM348 471h-164q-65 0 -55 66l100 847q6 66 68 66h274q64 0 52 -66l-199 -847q-16 -66 -76 -66z" />
    <glyph glyph-name="quotedbl" unicode="&#x22;" horiz-adv-x="765" 
d="M469 1272l-139 -391h-119v391q-5 47 10 123q18 112 156 112q76 0 106 -27q31 -28 21 -85q-7 -47 -35 -123zM838 1272l-140 -391h-118v391q-5 47 10 123q18 112 155 112q77 0 107 -27q31 -28 20 -85q-8 -52 -34 -123z" />
    <glyph glyph-name="numbersign" unicode="#" 
d="M1151 1366l-147 -326h65q58 0 51 -59l-8 -45q-7 -59 -68 -59h-114l-137 -304h79q59 0 52 -59l-9 -45q-12 -59 -67 -59h-129l-170 -375q-24 -56 -78 -41l-61 16q-56 18 -29 74l147 326h-186l-170 -375q-24 -56 -78 -41l-61 16q-56 18 -29 74l148 326h-66q-63 0 -51 59
l8 45q7 59 68 59h114l135 304h-77q-59 0 -52 59l9 45q7 59 67 59h127l170 375q27 56 80 41l59 -16q55 -16 31 -74l-147 -326h184l170 375q27 56 80 41l59 -16q55 -16 31 -74zM553 877l-137 -304h186l135 304h-184z" />
    <glyph glyph-name="dollar" unicode="$" horiz-adv-x="950" 
d="M770 1583l-20 -115q138 -5 188 -18q35 -8 47 -26t6 -54l-35 -205q-12 -67 -92 -49q-78 19 -172 19q-145 0 -145 -97q0 -32 28 -72q24 -34 48 -58q8 -8 69 -60q113 -97 158 -175q47 -80 47 -212q0 -185 -107 -308t-301 -161l-22 -125q-7 -51 -57 -51h-74q-52 0 -45 51
l20 115q-178 5 -254 28q-35 11 -50 28q-13 14 -7 52l35 199q15 76 94 49q69 -23 176 -23q195 0 195 111q0 32 -29 64q-33 37 -117 102q-58 46 -101 91q-37 38 -71 120q-35 84 -35 188q0 414 424 471l23 121q8 51 57 51h74q53 0 45 -51z" />
    <glyph glyph-name="percent" unicode="%" horiz-adv-x="1556" 
d="M1356 1397l-832 -1356q-24 -41 -73 -41h-138q-52 0 -22 53l831 1356q24 41 74 41h137q53 0 23 -53zM131 1030q38 218 116 324q79 108 242 108q254 0 254 -278q0 -81 -14 -154q-38 -217 -116 -323q-80 -109 -242 -109q-254 0 -254 279q0 80 14 153zM487 1030
q17 102 17 139q0 72 -41 72q-30 0 -50 -44q-19 -41 -40 -167q-17 -102 -17 -139q0 -72 41 -72q30 0 50 44q19 41 40 167zM918 420q38 219 115 323q80 109 243 109q254 0 254 -279q0 -80 -14 -153q-38 -214 -117 -323t-244 -109q-252 0 -252 276q0 78 15 156zM1274 420
q16 86 16 145q0 66 -37 66q-31 0 -52 -45t-42 -166q-18 -102 -18 -148q0 -63 37 -63q31 0 52 45q22 47 44 166z" />
    <glyph glyph-name="ampersand" unicode="&#x26;" horiz-adv-x="1183" 
d="M1188 762q0 -254 -201 -490l90 -213q11 -24 -1 -42q-11 -17 -38 -17h-254q-46 0 -63 41l-8 14q-145 -71 -264 -71q-203 0 -314 98q-112 99 -112 272q0 172 91 308q92 138 257 206l-17 45q-37 105 -37 187q0 180 125 275t324 95q144 0 231 -20q34 -7 47 -25q13 -17 7 -53
l-29 -158q-12 -67 -84 -55q-52 12 -119 12q-153 0 -153 -104q0 -32 12 -59l176 -420q29 84 29 145q0 50 13 76q14 27 58 27h185q49 0 49 -74zM520 299q42 0 86 16l-123 291q-90 -80 -90 -198q0 -109 127 -109z" />
    <glyph glyph-name="quotesingle" unicode="'" horiz-adv-x="397" 
d="M469 1272l-139 -391h-119v391q-5 47 10 123q18 112 156 112q76 0 106 -27q31 -28 21 -85q-7 -47 -35 -123z" />
    <glyph glyph-name="parenleft" unicode="(" horiz-adv-x="614" 
d="M57 367q0 287 111 570q112 285 313 497q36 36 78 36h168q31 0 35 -21q5 -22 -10 -42q-344 -538 -344 -1100q0 -264 63 -485q8 -24 -3 -43q-12 -21 -42 -21h-168q-44 0 -65 37q-136 227 -136 572z" />
    <glyph glyph-name="parenright" unicode=")" horiz-adv-x="614" 
d="M608 868q0 -290 -110 -572q-112 -287 -314 -501q-37 -37 -78 -37h-167q-21 0 -29 11t-5 24q2 12 11 29q340 544 340 1100q0 262 -61 485q-8 24 3 43q11 20 42 20h168q45 0 65 -36q135 -231 135 -566z" />
    <glyph glyph-name="asterisk" unicode="*" horiz-adv-x="753" 
d="M426 750q-58 0 -76 19t-10 65q4 24 35 92q36 79 37 82q-19 -13 -70 -62q-51 -48 -80 -61q-43 -23 -69 -14q-28 9 -46 59q-21 50 -10 78q10 27 56 51q24 12 89 27q48 11 89 24q-21 8 -78 22q-65 16 -84 29q-35 23 -35 51q0 29 37 78q35 50 65 59t64 -14q22 -15 58 -62
q36 -46 51 -61q0 17 -8 84q-7 63 -3 90q7 44 33 65q23 19 82 19q58 0 76 -19t10 -65q-4 -24 -35 -92q-36 -79 -37 -82q13 10 71 61q48 43 79 62q43 23 69 14q27 -9 48 -59q18 -52 8 -79q-11 -27 -56 -50q-26 -14 -94 -31q-19 -5 -38.5 -9.5t-30 -7t-15.5 -3.5q35 -13 81 -24
q60 -15 81 -27q35 -24 35 -51q0 -31 -35 -78q-38 -50 -68 -59q-29 -9 -63 14q-21 12 -58 61q-34 45 -51 62q0 -17 8 -84q8 -63 3 -90q-7 -44 -33 -65q-23 -19 -82 -19z" />
    <glyph glyph-name="plus" unicode="+" horiz-adv-x="1036" 
d="M930 578h-230l-49 -283q-12 -59 -65 -59h-209q-65 0 -53 59l49 283h-221q-61 0 -54 59l33 176q7 59 66 59h229l45 263q12 59 66 59h208q66 0 54 -59l-45 -263h221q60 0 53 -59l-33 -176q-7 -59 -65 -59z" />
    <glyph glyph-name="comma" unicode="," horiz-adv-x="458" 
d="M307 14l-135 -198q-29 -41 -63 -41h-91q-22 0 -29 14q-8 15 7 37l102 174h-53q-71 0 -59 66l39 217q12 65 71 65h213q72 0 60 -65l-35 -193q-6 -43 -27 -76z" />
    <glyph glyph-name="hyphen" unicode="-" horiz-adv-x="573" 
d="M473 465h-364q-66 0 -54 59l31 176q8 60 66 60h364q60 0 53 -60l-30 -176q-12 -59 -66 -59z" />
    <glyph glyph-name="period" unicode="." horiz-adv-x="458" 
d="M-14 66l39 217q12 65 71 65h213q72 0 60 -65l-39 -217q-12 -66 -72 -66h-213q-71 0 -59 66z" />
    <glyph glyph-name="slash" unicode="/" horiz-adv-x="757" 
d="M-55 72l610 1319q27 59 82 59h223q76 0 43 -72l-610 -1319q-17 -30 -33 -45q-15 -14 -49 -14h-223q-76 0 -43 72z" />
    <glyph glyph-name="zero" unicode="0" horiz-adv-x="1069" 
d="M690 1470q193 0 293 -97t100 -339q0 -129 -30 -309q-51 -292 -133 -457t-188 -227q-104 -61 -263 -61q-193 0 -293 97t-100 339q0 129 30 309q51 289 134 457q82 166 187 227q104 61 263 61zM508 315q32 0 55 26q22 25 51 118q32 102 60 266q37 212 37 299q0 111 -60 111
q-32 0 -55 -26q-22 -25 -51 -118q-32 -102 -60 -266q-36 -206 -36 -299q0 -111 59 -111z" />
    <glyph glyph-name="one" unicode="1" horiz-adv-x="884" 
d="M326 66l172 974l-168 -143q-37 -30 -64 0l-112 137q-28 34 10 64l387 329q28 23 76 23h250q69 0 59 -66l-234 -1318q-12 -66 -71 -66h-246q-71 0 -59 66z" />
    <glyph glyph-name="two" unicode="2" horiz-adv-x="995" 
d="M483 969q0 -52 -13 -77q-14 -26 -54 -26h-217q-56 0 -56 66q0 249 135 395q133 143 369 143q195 0 295 -91t100 -236q0 -410 -526 -815h324q60 0 53 -60l-37 -209q-12 -59 -65 -59h-756q-65 0 -53 59l28 166q10 49 62 82q202 127 393 357q188 227 188 415q0 68 -67 68
q-103 0 -103 -178z" />
    <glyph glyph-name="three" unicode="3" horiz-adv-x="954" 
d="M369 903h88q69 0 110 39t41 105q0 96 -164 96q-56 0 -98 -7q-38 -6 -79 -17q-35 -9 -36 -9q-32 -4 -45 5q-12 9 -8 36l37 213q4 28 16 40q9 9 43 21q123 45 301 45q184 0 298 -69t114 -219q0 -129 -59 -234q-60 -107 -166 -153q139 -61 139 -267q0 -266 -142 -407
q-143 -141 -401 -141q-119 0 -214 14q-105 15 -134 26q-24 7 -34 21q-9 12 -3 41l39 225q11 53 70 41q2 0 8.5 -1.5t18.5 -4t25 -5.5q41 -9 88 -15q51 -7 91 -7q97 0 158 47q59 46 59 138q0 88 -116 88h-101q-56 0 -49 59l35 197q12 59 70 59z" />
    <glyph glyph-name="four" unicode="4" horiz-adv-x="1032" 
d="M733 0h-237q-72 0 -60 66l39 219h-399q-60 0 -53 59l34 201q6 31 39 80l549 774q37 51 84 51h250q69 0 59 -66l-141 -796h72q65 0 53 -60l-33 -184q-7 -59 -65 -59h-80l-39 -219q-12 -66 -72 -66zM598 977l-279 -389h209z" />
    <glyph glyph-name="five" unicode="5" horiz-adv-x="966" 
d="M334 -20q-109 0 -199 14q-101 16 -129 26q-24 7 -34 21q-9 12 -3 41l39 225q11 53 70 41q16 -4 51 -11q46 -9 91 -15q54 -7 102 -7q233 0 233 220q0 59 -36 83q-37 25 -113 25q-65 0 -133 -13q-73 -14 -93 -14q-13 0 -30 11l-25 20q-14 12 -16 24q-2 14 8 42
q91 354 147 678q12 59 66 59h614q65 0 53 -59l-36 -209q-7 -60 -66 -60h-371q-22 -115 -49 -204q70 20 154 20q307 0 307 -315q0 -316 -158 -480q-157 -163 -444 -163z" />
    <glyph glyph-name="six" unicode="6" horiz-adv-x="1032" 
d="M918 1126l-66 11q-60 10 -107 10q-109 0 -162 -52q-55 -54 -79 -177q88 55 198 55q158 0 232 -96q74 -97 74 -248q0 -130 -33 -244q-33 -115 -96 -206q-62 -90 -167 -145q-104 -54 -233 -54q-210 0 -308 117q-99 118 -99 323q0 150 14 256q44 360 211 577
q168 217 469 217q137 0 221 -28q24 -7 34 -21q9 -12 3 -41l-37 -213q-5 -25 -20 -33q-17 -9 -49 -8zM514 299q54 0 89 51q34 51 42 105q8 56 8 110q0 51 -24 80t-66 29q-54 0 -89 -50q-34 -49 -42 -103q-8 -56 -8 -107q0 -52 22 -83q23 -32 68 -32z" />
    <glyph glyph-name="seven" unicode="7" horiz-adv-x="917" 
d="M84 66q50 276 199 573q151 300 325 483h-387q-69 0 -57 66l35 196q11 66 71 66h717q71 0 60 -66l-33 -180q-6 -35 -51 -98q-151 -192 -296 -489q-141 -290 -186 -551q-12 -66 -71 -66h-267q-71 0 -59 66z" />
    <glyph glyph-name="eight" unicode="8" horiz-adv-x="1040" 
d="M453 -20q-211 0 -318 91q-108 91 -108 240q0 294 278 439q-131 78 -131 260q0 232 138 346t370 114q190 0 297 -82q108 -82 108 -233q0 -277 -249 -405q153 -90 153 -283q0 -243 -146 -365t-392 -122zM647 1184q-117 0 -117 -162q0 -91 64 -141q129 89 129 215
q0 88 -76 88zM547 614q-135 -80 -135 -225q0 -42 20 -68q22 -28 60 -28q67 0 97 51q29 49 29 121q0 100 -71 149z" />
    <glyph glyph-name="nine" unicode="9" horiz-adv-x="1032" 
d="M203 324q1 0 67 -11q60 -10 107 -10q110 0 163 52t76 177q-88 -55 -186 -55q-166 0 -241 97q-74 96 -74 251q0 268 138 457q137 188 390 188q408 0 408 -436q0 -194 -35 -383q-60 -306 -219 -489q-158 -182 -420 -182q-158 0 -242 28q-24 7 -34 21q-9 13 -5 41l39 213
q7 43 68 41zM612 1151q-74 0 -109 -83q-34 -81 -34 -171q0 -52 23 -87q22 -34 63 -34q78 0 111 78q32 76 32 168q0 55 -20 91q-21 38 -66 38z" />
    <glyph glyph-name="colon" unicode=":" horiz-adv-x="507" 
d="M10 66l39 217q12 65 72 65h213q71 0 59 -65l-39 -217q-12 -66 -71 -66h-213q-72 0 -60 66zM152 860l36 217q12 66 74 66h213q69 0 57 -66l-36 -217q-12 -65 -74 -65h-213q-69 0 -57 65z" />
    <glyph glyph-name="semicolon" unicode=";" horiz-adv-x="507" 
d="M152 860l36 217q12 66 74 66h213q69 0 57 -66l-36 -217q-12 -65 -74 -65h-213q-69 0 -57 65zM332 14l-135 -198q-29 -41 -64 -41h-90q-23 0 -30 14q-8 15 7 37l103 174h-53q-72 0 -60 66l39 217q12 65 72 65h213q71 0 59 -65l-35 -193q-6 -45 -26 -76z" />
    <glyph glyph-name="less" unicode="&#x3c;" horiz-adv-x="1036" 
d="M152 725q2 23 30 47l643 551q49 43 86 0l113 -137q33 -43 -14 -84l-453 -385l311 -381q35 -41 -14 -84l-154 -125q-51 -44 -86 0l-448 551q-18 21 -14 47z" />
    <glyph glyph-name="equal" unicode="=" horiz-adv-x="1036" 
d="M924 823h-680q-62 0 -54 60l33 176q7 59 66 59h680q60 0 53 -59l-33 -176q-7 -60 -65 -60zM838 332h-680q-61 0 -54 59l31 176q12 60 66 60h680q65 0 53 -60l-31 -176q-7 -59 -65 -59z" />
    <glyph glyph-name="greater" unicode="&#x3e;" horiz-adv-x="1036" 
d="M975 725q-1 -22 -31 -47l-645 -551q-47 -44 -86 0l-109 133q-32 43 15 84l450 383l-311 381q-35 41 14 84l152 131q56 44 86 0l451 -551q18 -21 14 -47z" />
    <glyph glyph-name="question" unicode="?" horiz-adv-x="790" 
d="M141 66l41 233q12 66 74 66h229q70 0 58 -66l-41 -233q-12 -66 -72 -66h-229q-72 0 -60 66zM582 559l-4 -22q-12 -66 -74 -66h-201q-63 0 -57 66l4 22q15 78 65 163q60 102 94 168q42 81 42 159q0 86 -82 86q-33 0 -73 -6q-30 -5 -48 -12q-17 -7 -25 -7q-32 -4 -45 5
q-12 9 -8 36l39 221q4 29 16 40q11 11 43 22q96 36 228 36q360 0 360 -276q0 -98 -39 -199t-87 -168q-49 -69 -94 -143q-47 -77 -54 -125z" />
    <glyph glyph-name="at" unicode="@" horiz-adv-x="1654" 
d="M905 514l56 197q-26 8 -52 8q-57 0 -102 -66q-47 -69 -64 -140q-18 -75 -18 -134q0 -70 47 -70q44 0 72 43q28 42 61 162zM1169 -31q20 5 27.5 -2t3.5 -26l-12 -80q-6 -24 -35 -35q-156 -57 -362 -57q-719 0 -719 510q0 197 62 370q64 179 176 313q113 135 290 217
q175 81 389 81q309 0 467 -122t158 -356q0 -74 -19 -174q-17 -91 -59 -190q-40 -95 -96 -175q-55 -78 -139 -129q-85 -51 -179 -51h-147q-42 0 -53 35l-31 101q-91 -136 -217 -136q-105 0 -172 61q-66 60 -66 175q0 116 36 230t102 210q66 97 175 157q108 60 238 60
q80 0 152 -19q73 -19 104 -38q37 -22 29 -51l-174 -604h53q71 0 124 62q54 63 84 154q30 92 45 177t15 151q0 172 -102 240q-103 68 -338 68q-316 0 -515 -223q-198 -222 -198 -592q0 -191 125 -274t404 -83q194 0 374 45z" />
    <glyph glyph-name="A" unicode="A" horiz-adv-x="1073" 
d="M481 569h160l14 516h-8zM510 1450h389q86 0 86 -72l-8 -1306q0 -72 -66 -72h-245q-34 0 -50 16t-14 47l4 179h-209l-57 -179q-11 -32 -28 -49q-14 -14 -48 -14h-258q-35 0 -48 19t-1 53l451 1306q27 72 102 72z" />
    <glyph glyph-name="B" unicode="B" horiz-adv-x="1081" 
d="M518 899h90q119 0 119 145q0 78 -80 78h-90zM530 0h-469q-71 0 -59 66l234 1318q12 66 71 66h391q201 0 311 -68q109 -67 109 -229q0 -261 -229 -369q69 -27 108 -102q41 -77 41 -176q0 -233 -133 -369q-134 -137 -375 -137zM418 328h117q69 0 101 50t32 128q0 86 -88 86
h-117z" />
    <glyph glyph-name="C" unicode="C" horiz-adv-x="921" 
d="M643 319q65 0 127 13q39 6 54 -7q16 -14 10 -49l-35 -196q-6 -36 -24 -53q-20 -18 -52 -25q-98 -22 -195 -22q-241 0 -349 87q-107 86 -107 326q0 126 35 338q41 229 93 372q53 143 133 225q82 83 180 113q96 29 251 29q95 0 201 -20q64 -8 53 -78l-35 -198
q-12 -68 -84 -56q-57 12 -119 12q-137 0 -191 -73q-55 -75 -100 -326q-28 -164 -28 -246q0 -98 40 -132t142 -34z" />
    <glyph glyph-name="D" unicode="D" horiz-adv-x="1077" 
d="M410 0h-353q-67 0 -55 66l234 1318q10 66 75 66h320q239 0 352 -99t113 -347q0 -106 -27 -279q-68 -412 -218 -568q-151 -157 -441 -157zM596 1110h-33l-135 -770h41q87 0 131 74q42 71 86 311q27 153 27 240q0 83 -28 114t-89 31z" />
    <glyph glyph-name="E" unicode="E" horiz-adv-x="913" 
d="M788 571h-323l-41 -227h344q69 0 57 -65l-37 -213q-12 -66 -71 -66h-656q-71 0 -59 66l234 1318q10 66 71 66h647q70 0 60 -66l-39 -213q-10 -65 -72 -65h-344l-37 -203h316q69 0 59 -65l-37 -201q-10 -66 -72 -66z" />
    <glyph glyph-name="F" unicode="F" horiz-adv-x="868" 
d="M766 518h-307l-80 -448q-11 -70 -76 -70h-237q-75 0 -64 70l231 1310q12 70 78 70h623q70 0 59 -66l-39 -213q-10 -65 -71 -65h-320l-43 -244h299q70 0 58 -65l-37 -213q-12 -66 -74 -66z" />
    <glyph glyph-name="G" unicode="G" horiz-adv-x="1073" 
d="M684 922h334q69 0 57 -66l-125 -709q-12 -68 -84 -106q-118 -61 -340 -61q-231 0 -342 93q-110 92 -110 343q0 142 32 315q40 224 98 371q57 144 145 226q89 83 198 113q104 29 274 29q149 0 250 -30q62 -18 51 -80l-35 -197q-15 -69 -98 -51q-99 18 -178 18
q-160 0 -217 -72q-59 -74 -105 -327q-28 -155 -28 -258q0 -99 34 -134q35 -36 109 -36q26 0 43 6l55 309h-63q-71 0 -59 66l30 172q12 66 74 66z" />
    <glyph glyph-name="H" unicode="H" horiz-adv-x="1073" 
d="M551 66l88 499h-172l-88 -499q-12 -66 -72 -66h-246q-71 0 -59 66l234 1318q10 66 71 66h246q69 0 59 -66l-84 -475h172l84 475q10 66 72 66h246q70 0 59 -66l-233 -1318q-12 -66 -72 -66h-246q-71 0 -59 66z" />
    <glyph glyph-name="I" unicode="I" horiz-adv-x="540" 
d="M10 66l234 1318q11 66 71 66h246q71 0 60 -66l-234 -1318q-12 -66 -72 -66h-245q-72 0 -60 66z" />
    <glyph glyph-name="J" unicode="J" horiz-adv-x="696" 
d="M244 461l164 923q10 66 71 66h246q69 0 59 -66l-176 -995q-41 -231 -134 -314q-94 -83 -284 -83q-105 0 -172 16q-36 10 -50 29q-13 17 -7 55l37 205q11 53 68 53q11 0 38 -3t43 -3q39 0 62 24q23 25 35 93z" />
    <glyph glyph-name="K" unicode="K" horiz-adv-x="1060" 
d="M541 979l247 410q37 61 91 61h262q39 0 48 -25t-11 -57l-347 -565l142 -721q16 -82 -58 -82h-245q-68 0 -78 61l-109 594l-104 -589q-12 -66 -72 -66h-246q-71 0 -59 66l234 1318q10 66 71 66h246q69 0 59 -66z" />
    <glyph glyph-name="L" unicode="L" horiz-adv-x="831" 
d="M612 1384l-184 -1036h258q71 0 59 -65l-38 -217q-12 -66 -72 -66h-574q-71 0 -59 66l234 1318q10 66 71 66h246q69 0 59 -66z" />
    <glyph glyph-name="M" unicode="M" horiz-adv-x="1298" 
d="M627 346q-48 0 -60 55l-80 326l-116 -661q-12 -66 -72 -66h-238q-71 0 -59 66l234 1318q10 66 71 66h213q69 0 84 -53l119 -471l287 471q30 53 92 53h225q69 0 59 -66l-233 -1318q-12 -66 -72 -66h-237q-72 0 -60 66l117 661l-194 -326q-30 -55 -80 -55z" />
    <glyph glyph-name="N" unicode="N" horiz-adv-x="1110" 
d="M1198 1384l-233 -1318q-12 -66 -72 -66h-211q-69 0 -84 55l-131 580l-100 -569q-12 -66 -72 -66h-234q-71 0 -59 66l234 1318q10 66 71 66h211q69 0 84 -55l131 -580l101 569q10 66 71 66h234q69 0 59 -66z" />
    <glyph glyph-name="O" unicode="O" horiz-adv-x="1089" 
d="M700 1470q208 0 308 -90t100 -327q0 -127 -35 -328q-52 -301 -133 -467q-80 -164 -185 -221t-276 -57q-207 0 -307 90t-100 327q0 133 34 328q52 297 134 467q80 164 185 221t275 57zM518 315q64 0 94 73q32 78 78 337q41 243 41 315q0 58 -15 76q-16 19 -54 19
q-65 0 -95 -73q-32 -78 -78 -337q-40 -237 -40 -315q0 -58 15 -76q16 -19 54 -19z" />
    <glyph glyph-name="P" unicode="P" horiz-adv-x="1048" 
d="M494 717h41q82 0 109 37q28 39 50 159q15 85 15 115q0 47 -24 65q-23 17 -81 17h-41zM307 0h-246q-71 0 -59 66l234 1318q12 66 71 66h336q240 0 345 -78q106 -79 106 -274q0 -91 -17 -185q-49 -307 -176 -419q-128 -113 -409 -113h-58l-55 -315q-12 -66 -72 -66z" />
    <glyph glyph-name="Q" unicode="Q" horiz-adv-x="1081" 
d="M774 106q14 -2 29 -2q10 0 36 4q20 3 25 3q26 1 37 -11t6 -41l-33 -180q-12 -69 -73 -69q-224 0 -404 196q-157 7 -240 104q-81 94 -81 310q0 134 33 317q51 297 130 456q80 162 183 219q104 58 274 58q205 0 304 -90q100 -91 100 -325q0 -135 -33 -318
q-86 -478 -293 -631zM518 340q61 0 91 72t75 325q41 237 41 305q0 54 -16 73q-17 20 -52 20q-61 0 -91 -72q-28 -67 -74 -326q-41 -237 -41 -305q0 -54 16 -73t51 -19z" />
    <glyph glyph-name="R" unicode="R" horiz-adv-x="1060" 
d="M500 745h57q81 0 111 38q31 39 49 145q10 59 10 94q0 47 -24 68q-23 20 -82 20h-58zM307 1450h352q244 0 351 -76q108 -76 108 -264q0 -82 -18 -182q-57 -336 -277 -436l113 -410q22 -82 -53 -82h-230q-41 0 -59 12q-20 13 -27 45l-84 369h-41l-63 -360q-12 -66 -72 -66
h-246q-71 0 -59 66l234 1318q10 66 71 66z" />
    <glyph glyph-name="S" unicode="S" horiz-adv-x="907" 
d="M864 481q0 -225 -141 -363t-377 -138q-202 0 -303 30q-35 11 -50 28q-13 14 -7 52l34 199q15 76 95 49q69 -23 184 -23q166 0 166 115q0 33 -27 66q-28 34 -106 96q-182 151 -182 373q0 256 120 380q121 125 389 125q174 0 248 -20q34 -7 48 -26q13 -18 6 -54l-35 -205
q-12 -67 -92 -49q-78 19 -156 19q-129 0 -129 -101q0 -78 121 -186q194 -169 194 -367z" />
    <glyph glyph-name="T" unicode="T" horiz-adv-x="860" 
d="M156 1171l39 213q11 66 71 66h664q70 0 59 -66l-39 -213q-10 -65 -71 -65h-148l-184 -1040q-12 -66 -72 -66h-246q-71 0 -59 66l184 1040h-139q-69 0 -59 65z" />
    <glyph glyph-name="U" unicode="U" 
d="M467 -20q-210 0 -314 74q-106 76 -106 239q0 56 12 119l172 972q11 66 72 66h246q69 0 59 -66l-162 -919q-8 -42 -8 -72q0 -36 17 -53q16 -16 51 -16q49 0 73 30q22 27 39 111l162 919q10 66 72 66h246q70 0 59 -66l-172 -972q-40 -237 -160 -335q-118 -97 -358 -97z" />
    <glyph glyph-name="V" unicode="V" horiz-adv-x="1069" 
d="M657 0h-401q-78 0 -78 82l4 1296q0 72 66 72h266q69 0 64 -64l-46 -751l-24 -254h8l66 254l221 751q17 64 76 64h278q35 0 48 -19t1 -53l-450 -1296q-28 -82 -99 -82z" />
    <glyph glyph-name="W" unicode="W" horiz-adv-x="1646" 
d="M862 1450h246q31 0 48 -17t15 -47l-41 -630l-26 -277h4l78 277l194 630q18 64 76 64h279q35 0 48 -19t1 -53l-443 -1296q-28 -82 -98 -82h-332q-77 0 -77 82l14 324l24 333h-4l-94 -333l-96 -324q-28 -82 -98 -82h-332q-78 0 -78 82l12 1296q0 72 66 72h266q64 0 64 -64
l-27 -630l-21 -277h5l71 277l180 630q18 64 76 64z" />
    <glyph glyph-name="X" unicode="X" horiz-adv-x="1040" 
d="M502 367l-158 -308q-28 -59 -88 -59h-254q-38 0 -50 27q-12 26 5 53l379 657l-148 635q-8 27 7 52q15 26 51 26h262q72 0 78 -57l45 -297l147 297q16 33 35 45q18 12 55 12h262q37 0 48 -28q10 -26 -7 -50l-372 -635l145 -657q6 -31 -9 -55q-16 -25 -52 -25h-254
q-69 0 -76 59z" />
    <glyph glyph-name="Y" unicode="Y" horiz-adv-x="1040" 
d="M721 545l-84 -479q-12 -66 -72 -66h-246q-71 0 -59 66l84 479l-164 825q-6 32 8 55q16 25 56 25h252q73 0 77 -61l19 -308l-8 -190h8l61 190l125 308q24 61 90 61h265q43 0 52 -28t-9 -52z" />
    <glyph glyph-name="Z" unicode="Z" horiz-adv-x="950" 
d="M-14 66l34 198q11 57 43 105l510 737h-307q-69 0 -59 65l39 213q10 66 71 66h660q69 0 59 -66l-35 -198q-11 -57 -43 -105l-509 -737h352q69 0 57 -65l-37 -213q-12 -66 -71 -66h-705q-71 0 -59 66z" />
    <glyph glyph-name="bracketleft" unicode="[" horiz-adv-x="614" 
d="M496 10l-31 -176q-7 -59 -66 -59h-368q-61 0 -54 59l275 1557q12 59 65 59h369q65 0 53 -59l-30 -177q-7 -59 -66 -59h-88l-193 -1085h80q66 0 54 -60z" />
    <glyph glyph-name="backslash" unicode="\" horiz-adv-x="757" 
d="M516 1391l148 -1319q6 -72 -64 -72h-223q-11 0 -16 1q-2 0 -5.5 0.5t-5.5 1.5q-4 1 -7 6q-2 3 -5 6q-1 1 -3 10q0 2 -1 5q0 4 -1 5t-1 12v12l-148 1319q-6 72 64 72h203q59 0 65 -59z" />
    <glyph glyph-name="bracketright" unicode="]" horiz-adv-x="614" 
d="M-76 -166l31 176q12 60 65 60h89l192 1085h-80q-60 0 -53 59l31 177q12 59 65 59h369q65 0 53 -59l-274 -1557q-7 -59 -66 -59h-369q-60 0 -53 59z" />
    <glyph glyph-name="asciicircum" unicode="^" horiz-adv-x="1036" 
d="M582 1450h209q61 0 73 -51l152 -606q16 -72 -47 -72h-203q-60 0 -72 55l-63 293l-170 -293q-30 -55 -80 -55h-215q-31 0 -40 19q-9 20 9 53l365 606q33 51 82 51z" />
    <glyph glyph-name="underscore" unicode="_" horiz-adv-x="901" 
d="M696 -258h-741q-58 0 -51 59l14 78q8 60 64 60h741q65 0 53 -60l-14 -78q-7 -59 -66 -59z" />
    <glyph glyph-name="grave" unicode="`" horiz-adv-x="573" 
d="M606 1409l25 -147q11 -50 -41 -50h-141q-52 0 -80 37l-117 140q-14 17 -5 39t36 22h264q53 0 59 -41z" />
    <glyph glyph-name="a" unicode="a" horiz-adv-x="888" 
d="M889 821l-133 -762q-12 -59 -66 -59h-168q-66 0 -67 49l-2 33q-92 -92 -215 -92q-105 0 -171 63q-67 64 -67 193q0 238 134 346q135 110 405 117l10 65q8 48 -12 65t-80 17q-46 0 -85 -7q-49 -9 -86 -19q-40 -11 -48 -11q-38 -6 -54 4t-10 43l33 187q7 50 61 65
q115 37 273 37q187 0 272 -55q86 -56 86 -182q0 -43 -10 -97zM481 391l21 115q-90 -2 -126 -54q-36 -53 -36 -145q0 -59 51 -59q42 0 60 35t30 108z" />
    <glyph glyph-name="b" unicode="b" horiz-adv-x="1009" 
d="M430 571q-20 -106 -20 -178q0 -106 69 -106q53 0 83 58q32 62 61 226q22 128 22 189q0 96 -65 96q-52 0 -87 -60q-34 -59 -63 -225zM338 82l-14 -33q-18 -49 -76 -49h-201q-65 0 -53 59l233 1332q12 59 66 59h229q65 0 53 -59l-53 -306q85 74 211 74q134 0 201 -79
t67 -255q0 -107 -24 -254q-57 -331 -156 -459t-268 -128q-73 0 -136 30q-62 30 -79 68z" />
    <glyph glyph-name="c" unicode="c" horiz-adv-x="753" 
d="M68 575q56 318 178 451q123 133 338 133q118 0 184 -24q24 -7 34 -21q9 -13 5 -41l-37 -205q-7 -49 -68 -41q-80 13 -92 13q-84 0 -122 -52q-38 -51 -66 -213q-19 -106 -19 -157q0 -67 27 -91t88 -24q18 0 98 12q33 5 46 -5q12 -9 8 -36l-37 -204q-5 -29 -18 -41
q-16 -14 -42 -21q-73 -24 -174 -24q-176 0 -265 86t-89 282q0 85 23 223z" />
    <glyph glyph-name="d" unicode="d" horiz-adv-x="1009" 
d="M616 571q21 127 21 177q0 62 -17 85t-55 23q-53 0 -83 -58q-29 -57 -58 -227q-23 -121 -23 -190q0 -52 16 -74q14 -20 48 -20q53 0 87 60q34 58 64 224zM539 49l-2 33q-29 -37 -92 -69q-58 -29 -132 -29q-133 0 -201 74q-69 75 -69 255q0 113 27 258q56 323 152 455
q97 133 267 133q77 0 135 -23q60 -24 81 -51l53 306q12 59 65 59h230q65 0 53 -59l-234 -1332q-12 -59 -65 -59h-201q-66 0 -67 49z" />
    <glyph glyph-name="e" unicode="e" horiz-adv-x="925" 
d="M545 274q85 0 188 25q35 8 52 -5q18 -14 12 -44l-29 -164q-6 -32 -23 -48t-47 -26q-94 -28 -223 -28q-223 0 -327 84q-103 84 -103 288q0 86 23 224q57 320 172 450q114 129 340 129q179 0 262 -80q82 -79 82 -250q0 -79 -19 -196l-24 -139q-7 -38 -27 -54
q-17 -14 -57 -14h-414q-4 -33 -4 -47q0 -62 36 -83q38 -22 130 -22zM545 889q-48 0 -73 -46q-24 -45 -52 -184h160l6 31q14 84 14 123q0 76 -55 76z" />
    <glyph glyph-name="f" unicode="f" horiz-adv-x="610" 
d="M547 1061h80q61 0 53 -60l-37 -208q-12 -60 -65 -60h-89l-118 -674q-12 -59 -66 -59h-221q-65 0 -53 59l119 674h-35q-59 0 -52 55l39 218q7 55 62 55h43l14 82q33 187 106 253q71 64 236 64q102 0 150 -16q43 -16 35 -60l-29 -159q-12 -60 -70 -60h-24q-37 0 -52 -15
q-14 -14 -22 -60z" />
    <glyph glyph-name="g" unicode="g" horiz-adv-x="962" 
d="M596 649q14 73 14 133q0 90 -55 90q-46 0 -71 -52q-25 -51 -46 -171q-16 -96 -16 -143q0 -80 53 -80q46 0 73 53q27 52 48 170zM1010 1083l-162 -917q-39 -221 -152 -314q-114 -94 -344 -94q-216 0 -295 35q-28 12 -40 27q-11 14 -5 47l29 158q10 65 82 47
q135 -31 205 -31q81 0 127 29q45 29 57 104l8 39q-74 -74 -213 -74q-128 0 -188 66t-60 213q0 90 25 231q50 281 141 395q92 115 256 115q147 0 203 -98l14 33q18 49 80 49h183q57 0 49 -60z" />
    <glyph glyph-name="h" unicode="h" horiz-adv-x="954" 
d="M954 815l-133 -756q-12 -59 -65 -59h-230q-65 0 -53 59l115 660q8 53 8 61q0 47 -39 47q-46 0 -69 -35q-22 -33 -39 -122l-107 -611q-12 -59 -66 -59h-229q-65 0 -53 59l233 1332q12 59 66 59h229q65 0 53 -59l-53 -310q100 78 209 78q112 0 171 -65q61 -67 61 -185
q0 -42 -9 -94z" />
    <glyph glyph-name="i" unicode="i" horiz-adv-x="479" 
d="M522 1083l-180 -1024q-12 -59 -66 -59h-229q-65 0 -53 59l180 1024q8 60 66 60h229q61 0 53 -60zM580 1391l-21 -119q-12 -60 -65 -60h-238q-65 0 -53 60l20 119q12 59 66 59h237q66 0 54 -59z" />
    <glyph glyph-name="j" unicode="j" horiz-adv-x="528" 
d="M66 195l157 888q7 60 66 60h229q60 0 53 -60l-172 -977q-35 -204 -106 -272q-73 -70 -246 -70q-95 0 -141 17q-42 16 -35 59l35 201q12 59 67 59h21q33 0 49 19q15 19 23 76zM629 1391l-21 -119q-12 -60 -65 -60h-238q-65 0 -53 60l20 119q12 59 66 59h237q66 0 54 -59z
" />
    <glyph glyph-name="k" unicode="k" horiz-adv-x="929" 
d="M793 0l-234 2q-61 0 -72 51l-73 412l-72 -406q-12 -59 -66 -59h-229q-65 0 -53 59l233 1332q12 59 66 59h229q65 0 53 -59l-104 -592l184 295q14 26 31 38q15 11 49 11h252q37 0 43 -25t-14 -53l-281 -438l111 -553q12 -74 -53 -74z" />
    <glyph glyph-name="l" unicode="l" horiz-adv-x="487" 
d="M580 1391l-234 -1332q-12 -59 -65 -59h-230q-65 0 -53 59l233 1332q12 59 66 59h229q66 0 54 -59z" />
    <glyph glyph-name="m" unicode="m" horiz-adv-x="1421" 
d="M915 670l-106 -611q-12 -59 -66 -59h-221q-65 0 -53 59l115 658q6 33 6 59q0 51 -41 51q-46 0 -69 -35t-40 -122l-106 -611q-12 -59 -66 -59h-225q-65 0 -53 59l180 1024q8 60 66 60h200q67 0 68 -49l2 -33q98 98 223 98q156 0 197 -117q135 117 270 117q236 0 236 -235
q0 -43 -9 -95l-135 -770q-12 -59 -65 -59h-226q-65 0 -53 59l115 658q6 33 6 59q0 51 -41 51q-46 0 -70 -37q-24 -38 -39 -120z" />
    <glyph glyph-name="n" unicode="n" horiz-adv-x="950" 
d="M950 815l-133 -756q-12 -59 -65 -59h-230q-65 0 -53 59l115 660q8 53 8 61q0 47 -39 47q-46 0 -69 -35t-40 -122l-106 -611q-12 -59 -66 -59h-229q-65 0 -53 59l180 1024q8 60 66 60h200q67 0 68 -49l2 -33q94 98 223 98q113 0 171 -64t58 -182q0 -48 -8 -98z" />
    <glyph glyph-name="o" unicode="o" horiz-adv-x="966" 
d="M418 -16q-190 0 -281 85q-92 86 -92 281q0 88 23 221q57 326 173 457t343 131q188 0 280 -86t92 -282q0 -109 -20 -220q-57 -325 -174 -456t-344 -131zM451 283q49 0 74 56q28 63 57 232q26 140 26 211q0 43 -12 61q-11 17 -43 17q-50 0 -75 -56q-26 -58 -56 -233
q-27 -146 -27 -211q0 -40 13 -60q11 -17 43 -17z" />
    <glyph glyph-name="p" unicode="p" horiz-adv-x="1005" 
d="M426 571q-20 -103 -20 -176q0 -108 69 -108q53 0 82 59q32 64 61 225q21 117 21 187q0 56 -15 77t-49 21q-53 0 -87 -61q-33 -59 -62 -224zM504 1094l2 -33q79 98 213 98q135 0 207 -78q71 -77 71 -260q0 -103 -24 -250q-56 -318 -153 -454q-94 -133 -261 -133
q-77 0 -137 23q-65 25 -86 50l-39 -223q-7 -59 -66 -59h-229q-60 0 -53 59l221 1249q8 60 66 60h200q67 0 68 -49z" />
    <glyph glyph-name="q" unicode="q" horiz-adv-x="1005" 
d="M616 571q19 117 19 174q0 111 -70 111q-53 0 -82 -59q-31 -62 -59 -226q-23 -133 -23 -188q0 -53 16 -75q15 -21 48 -21q53 0 88 60q34 60 63 224zM709 1061l14 33q18 49 76 49h200q61 0 54 -60l-222 -1249q-7 -59 -65 -59h-229q-61 0 -54 59l39 223q-77 -73 -211 -73
t-200 78q-68 80 -68 253q0 111 27 256q57 332 155 459q99 129 267 129q72 0 137 -31q64 -30 80 -67z" />
    <glyph glyph-name="r" unicode="r" horiz-adv-x="671" 
d="M236 1143h208q37 0 51 -14q13 -13 11 -48l-6 -73q89 143 202 143q36 0 46 -14q10 -15 4 -50l-54 -299q-7 -55 -59 -55q-10 0 -31 3t-35 3q-60 1 -95 -41t-50 -127l-90 -512q-12 -59 -66 -59h-229q-65 0 -53 59l180 1024q8 60 66 60z" />
    <glyph glyph-name="s" unicode="s" horiz-adv-x="770" 
d="M733 406q0 -219 -111 -321q-110 -101 -343 -101q-169 0 -269 30q-29 6 -38 20t-3 42l35 198q11 62 74 41q69 -24 182 -24q125 0 125 49q0 35 -78 80q-2 1 -8 4.5t-13 7.5l-14 8l-24 15q-88 49 -133 109t-45 165q0 221 102 326q101 104 336 104q172 0 254 -24
q47 -8 39 -62l-35 -196q-11 -62 -70 -46q-77 21 -151 21q-125 0 -125 -55q0 -11 3 -19t12 -17q3 -3 9.5 -9t8.5 -8q6 -6 25 -17q18 -11 29 -16q4 -2 16.5 -9t20.5 -11l15 -7.5l14 -7l9 -4.5q151 -82 151 -266z" />
    <glyph glyph-name="t" unicode="t" horiz-adv-x="614" 
d="M578 733h-89l-55 -313q-11 -58 -3 -76q7 -18 46 -18h25q59 0 47 -60l-35 -200q-7 -45 -55 -60q-54 -16 -117 -16q-146 0 -211 49t-65 170q0 49 14 133l70 391h-35q-59 0 -52 55l39 218q7 55 62 55h43l39 227q12 60 67 60h222q63 0 51 -60l-39 -227h80q61 0 53 -60
l-37 -208q-12 -60 -65 -60z" />
    <glyph glyph-name="u" unicode="u" horiz-adv-x="950" 
d="M31 301l139 782q8 60 66 60h229q61 0 53 -60l-115 -651q-6 -38 -6 -61q0 -56 43 -56t64 32q20 29 35 114l110 622q7 60 66 60h229q60 0 53 -60l-180 -1024q-12 -59 -65 -59h-201q-67 0 -68 49l-2 33q-24 -24 -52 -48q-19 -17 -62 -34q-39 -16 -93 -16q-251 0 -251 233
q0 18 8 84z" />
    <glyph glyph-name="v" unicode="v" horiz-adv-x="892" 
d="M512 0h-287q-69 0 -71 66l-31 1011q0 66 53 66h244q65 0 59 -64l-33 -469l-18 -184h8l47 184l131 469q18 64 76 64h256q61 0 37 -66l-387 -1011q-27 -66 -84 -66z" />
    <glyph glyph-name="w" unicode="w" horiz-adv-x="1380" 
d="M702 1143h193q58 0 53 -58l-14 -434l-14 -209h4l55 209l127 428q23 64 76 64h252q60 0 36 -66l-358 -1011q-24 -66 -84 -66h-250q-71 0 -71 66v256l10 284h-4l-92 -284l-91 -256q-24 -66 -84 -66h-249q-72 0 -72 66l-2 1011q0 66 53 66h240q64 0 59 -64l-20 -428
l-19 -209h4l60 209l137 434q18 58 65 58z" />
    <glyph glyph-name="x" unicode="x" horiz-adv-x="907" 
d="M481 1098l35 -228l119 228q23 45 78 45h243q29 0 35 -20t-10 -44l-309 -497l139 -519q17 -63 -39 -63h-244q-64 0 -71 45l-33 227l-113 -227q-21 -45 -75 -45h-256q-29 0 -36 19q-8 20 9 44l321 519l-135 497q-6 28 4 45q11 19 37 19h232q63 0 69 -45z" />
    <glyph glyph-name="y" unicode="y" horiz-adv-x="897" 
d="M983 1077l-365 -1011q-62 -173 -148 -237q-88 -65 -277 -65q-167 0 -218 17q-41 16 -34 59l32 185q7 59 70 59q4 0 36 -2t34 -2q77 0 71 90l-57 907q-5 66 51 66h242q66 0 61 -64l-20 -452l-12 -201h8l47 201l112 452q18 64 74 64h254q63 0 39 -66z" />
    <glyph glyph-name="z" unicode="z" horiz-adv-x="811" 
d="M858 1083l-27 -151q-11 -45 -36 -80l-371 -524h250q60 0 53 -60l-37 -209q-12 -59 -65 -59h-594q-66 0 -54 59l27 152q5 34 37 80l371 524h-226q-65 0 -53 59l37 209q8 60 66 60h569q61 0 53 -60z" />
    <glyph glyph-name="braceleft" unicode="{" horiz-adv-x="614" 
d="M20 512l35 201q7 59 70 59h12q65 0 109 260q23 131 52 218q27 80 74 126t102 60q53 14 149 14h84q61 0 49 -59l-31 -172q-7 -60 -70 -60h-14q-25 0 -37 -37q-14 -42 -35 -161q-27 -159 -84 -238q-59 -82 -157 -111q133 -45 133 -213q0 -63 -15 -135l-15 -98
q-5 -33 -6 -58q-2 -26 5 -34q6 -8 19 -8h14q61 0 49 -60l-31 -172q-7 -59 -69 -59h-84q-138 0 -196 41q-56 40 -56 164q0 94 22 213q21 114 21 178q0 82 -39 82h-12q-60 0 -48 59z" />
    <glyph glyph-name="bar" unicode="|" horiz-adv-x="589" 
d="M467 1432v-1598q0 -59 -59 -59h-226q-59 0 -59 59v1598q0 59 59 59h226q59 0 59 -59z" />
    <glyph glyph-name="braceright" unicode="}" horiz-adv-x="614" 
d="M645 713l-35 -201q-12 -59 -71 -59h-13q-31 0 -56 -57q-25 -56 -52 -203q-23 -133 -52 -219q-27 -80 -74 -126q-45 -44 -103 -59q-53 -14 -148 -14h-84q-54 0 -47 59l29 172q12 60 69 60h15q24 0 37 38q13 37 34 160q29 158 86 238t156 110q-131 47 -131 217q0 55 12 132
q23 124 23 159q0 39 -25 39h-14q-57 0 -49 60l30 172q12 59 70 59h84q137 0 195 -41q57 -40 57 -164q0 -89 -23 -213q-20 -111 -20 -178q0 -82 39 -82h12q56 0 49 -59z" />
    <glyph glyph-name="asciitilde" unicode="~" horiz-adv-x="1036" 
d="M369 952q108 0 190 -49l96 -57q47 -27 76 -27q44 0 78 64l20 37q21 41 62 18l129 -70q35 -18 24 -59q-82 -311 -288 -311q-110 0 -189 49l-96 57q-47 27 -76 27q-42 0 -80 -64l-18 -37q-20 -42 -61 -18l-130 70q-35 18 -24 59q82 311 287 311z" />
    <glyph glyph-name="uni00A0" unicode="&#xa0;" horiz-adv-x="0" 
 />
    <glyph glyph-name="exclamdown" unicode="&#xa1;" horiz-adv-x="512" 
d="M543 1077l-41 -233q-12 -66 -72 -66h-229q-72 0 -60 66l41 233q12 66 74 66h229q70 0 58 -66zM205 672h164q65 0 59 -66l-94 -766q-10 -65 -68 -65h-258q-67 0 -51 65l176 766q12 66 72 66z" />
    <glyph glyph-name="cent" unicode="&#xa2;" horiz-adv-x="774" 
d="M72 575q51 287 159 422t291 156l21 123q7 51 61 51h74q48 0 41 -51l-21 -123q70 -12 86 -18q24 -7 34 -21q9 -13 5 -41l-37 -205q-7 -48 -67 -41q-80 13 -98 13q-85 0 -126 -52q-41 -51 -69 -213q-16 -81 -16 -149q0 -72 27 -97q28 -26 91 -26q26 0 105 12q32 4 45 -5
q12 -9 8 -36l-37 -204q-5 -30 -17 -41q-16 -14 -42 -21q-16 -6 -96 -18l-23 -123q-7 -51 -59 -51h-74q-50 0 -43 51l22 123q-266 30 -266 370q0 101 21 215z" />
    <glyph glyph-name="sterling" unicode="&#xa3;" horiz-adv-x="1056" 
d="M250 641h-119q-55 0 -47 51l12 74q8 51 58 51h65q-20 87 -20 148q0 238 140 371q142 134 370 134q169 0 273 -69q103 -69 103 -217q0 -70 -18 -146q-18 -75 -61 -75h-207q-49 0 -49 32q0 19 9 52t9 49q0 59 -82 59q-133 0 -133 -182q0 -60 16 -156h195q52 0 45 -51
l-12 -74q-8 -51 -56 -51h-161q-6 -210 -154 -332q54 13 80 13q28 0 68 -12q37 -11 65 -11q45 0 66 76q12 55 67 55h176q72 0 60 -78q-33 -184 -101 -277q-67 -91 -180 -91q-85 0 -193 35q-111 36 -172 36q-121 0 -215 -55q-40 -21 -55 6l-104 199q-14 32 16 53
q128 89 190 176t56 207z" />
    <glyph glyph-name="currency" unicode="&#xa4;" 
d="M113 279l86 86q-27 82 -27 217q0 136 27 219l-86 86q-33 33 0 67l49 50q34 33 67 0l58 -60q86 72 245 72q160 0 246 -72l60 60q33 33 67 0l49 -50q33 -34 0 -67l-88 -88q27 -91 27 -217q0 -135 -27 -217l88 -86q33 -33 0 -68l-49 -49q-33 -34 -67 0l-60 57
q-82 -72 -246 -72q-166 0 -245 72l-58 -57q-33 -34 -67 0l-49 49q-35 35 0 68zM606 582q0 184 -74 184q-73 0 -73 -184q0 -185 73 -185q74 0 74 185z" />
    <glyph glyph-name="yen" unicode="&#xa5;" horiz-adv-x="1056" 
d="M692 328l-47 -262q-12 -66 -72 -66h-245q-72 0 -60 66l47 262h-186q-55 0 -47 51l12 74q7 51 58 51h194l4 24l-20 113h-146q-54 0 -47 51l13 74q8 51 57 51h88l-115 553q-6 32 8 55q16 25 56 25h254q73 0 77 -61l27 -471h8l195 471q24 61 90 61h254q43 0 52 -28t-9 -52
l-309 -553h82q53 0 45 -51l-13 -74q-7 -51 -55 -51h-154l-61 -113l-4 -24h186q53 0 45 -51l-12 -74q-8 -51 -55 -51h-195z" />
    <glyph glyph-name="brokenbar" unicode="&#xa6;" horiz-adv-x="589" 
d="M467 1432v-574q0 -59 -59 -59h-226q-59 0 -59 59v574q0 59 59 59h226q59 0 59 -59zM467 408v-574q0 -59 -59 -59h-226q-59 0 -59 59v574q0 59 59 59h226q59 0 59 -59z" />
    <glyph glyph-name="section" unicode="&#xa7;" 
d="M106 606q0 184 130 299q-35 64 -35 129q0 217 137 327q136 109 367 109q171 0 266 -24q34 -7 48 -26q12 -17 5 -54l-37 -205q-10 -67 -92 -49q-84 23 -168 23q-137 0 -154 -78q0 -31 21 -53q23 -24 44 -35q32 -16 65 -29q42 -16 63 -27q132 -68 190 -128t58 -160
q0 -176 -129 -299q35 -61 35 -125q0 -218 -157 -327q-155 -107 -396 -107q-203 0 -297 24q-66 15 -56 80l37 205q12 67 92 49q92 -23 209 -23q197 0 197 91q0 28 -27 49q-26 20 -85 43q-65 25 -83 34q-132 68 -190 128t-58 159zM457 739q-33 -27 -33 -80q0 -50 98 -100
q23 -13 140 -63q36 27 36 75q0 43 -54 78q-55 35 -187 90z" />
    <glyph glyph-name="dieresis" unicode="&#xa8;" horiz-adv-x="573" 
d="M412 1395l-23 -127q-12 -56 -61 -56h-201q-61 0 -49 56l22 127q10 55 60 55h200q62 0 52 -55zM801 1395l-23 -127q-12 -56 -61 -56h-201q-61 0 -49 56l22 127q10 55 60 55h201q61 0 51 -55z" />
    <glyph glyph-name="copyright" unicode="&#xa9;" horiz-adv-x="1490" 
d="M836 506q24 0 73 6q45 8 45 -31v-119q0 -38 -39 -45q-49 -14 -122 -14q-180 0 -255 91q-76 92 -77 347q1 249 76 339q74 89 251 89q53 0 119 -12q41 -6 41 -47v-119q0 -37 -45 -30q-49 6 -72 6q-77 0 -106 -44t-29 -182q0 -145 30 -190t110 -45zM272 725q0 -555 473 -555
q474 0 474 555t-474 555q-473 0 -473 -555zM61 725q0 324 177 536q175 209 507 209q333 0 508 -209q177 -212 177 -536t-177 -536q-175 -209 -508 -209q-332 0 -507 209q-177 212 -177 536z" />
    <glyph glyph-name="ordfeminine" unicode="&#xaa;" horiz-adv-x="688" 
d="M535 1311l16 88q-135 -1 -135 -148q0 -53 43 -53q58 0 76 113zM500 1049l-2 24q-72 -72 -162 -72q-77 0 -129 52q-51 51 -51 141q0 188 105 271q105 82 317 87l10 54q6 36 -13 52q-18 15 -65 15q-40 0 -170 -24q-26 -4 -39 4t-8 33l22 135q7 38 47 49q94 28 211 28
q144 0 208 -43q65 -44 65 -147q0 -42 -8 -88l-101 -563q-6 -47 -51 -47h-135q-51 0 -51 39z" />
    <glyph glyph-name="guillemotleft" unicode="&#xab;" horiz-adv-x="946" 
d="M66 610q5 18 10 27l168 293q23 47 71 47h195q63 0 29 -59l-174 -308l67 -307q10 -59 -45 -59h-194q-56 0 -62 47l-63 293q-4 16 -2 26zM483 610q4 15 11 27l167 293q23 47 72 47h195q62 0 28 -59l-174 -308l68 -307q10 -59 -45 -59h-195q-55 0 -61 47l-64 293
q-4 16 -2 26z" />
    <glyph glyph-name="logicalnot" unicode="&#xac;" horiz-adv-x="1036" 
d="M999 813l-100 -559q-7 -59 -65 -59h-209q-61 0 -54 59l58 324h-465q-60 0 -53 59l32 176q7 59 66 59h737q60 0 53 -59z" />
    <glyph glyph-name="uni00AD" unicode="&#xad;" horiz-adv-x="573" 
d="M473 465h-364q-66 0 -54 59l31 176q8 60 66 60h364q60 0 53 -60l-30 -176q-12 -59 -66 -59z" />
    <glyph glyph-name="registered" unicode="&#xae;" horiz-adv-x="790" 
d="M383 1128h16q19 0 28 9q7 7 7 34q0 26 -7 33q-8 8 -28 8h-16v-84zM395 1470q161 0 249 -102q89 -103 89 -256t-89 -256q-88 -102 -249 -102t-249 102q-89 103 -89 256t89 256q88 102 249 102zM395 838q127 0 186 74q60 75 60 200t-60 200q-59 74 -186 74q-126 0 -185 -74
q-60 -75 -60 -200t60 -200q59 -74 185 -74zM262 938v358q0 23 23 23h118q79 0 117 -33q37 -33 37 -115q0 -95 -57 -124l51 -105q15 -27 -12 -27h-84q-19 0 -25 17l-41 96h-6v-90q0 -23 -23 -23h-75q-23 0 -23 23z" />
    <glyph glyph-name="macron" unicode="&#xaf;" horiz-adv-x="573" 
d="M696 1229h-544q-56 0 -48 53l19 102q8 54 57 54h545q57 0 49 -54l-18 -102q-8 -53 -60 -53z" />
    <glyph glyph-name="degree" unicode="&#xb0;" horiz-adv-x="712" 
d="M455 1004q67 0 110 52t43 130q0 53 -29 82q-30 30 -81 30q-73 0 -113 -54q-41 -55 -41 -130q0 -50 30 -80t81 -30zM436 840q-118 0 -193 72t-75 184q0 150 95 259q94 107 253 107q122 0 196 -73t74 -187q0 -150 -97 -256t-253 -106z" />
    <glyph glyph-name="plusminus" unicode="&#xb1;" horiz-adv-x="1036" 
d="M948 680h-229l-47 -272q-12 -60 -68 -60h-209q-63 0 -51 60l47 272h-221q-60 0 -53 59l30 176q12 60 66 60h229l45 252q12 59 66 59h209q65 0 53 -59l-45 -252h221q65 0 53 -60l-30 -176q-7 -59 -66 -59zM829 0h-778q-65 0 -53 59l22 136q12 59 66 59h778q66 0 54 -59
l-23 -136q-12 -59 -66 -59z" />
    <glyph glyph-name="two.superior" unicode="&#xb2;" horiz-adv-x="679" 
d="M475 1587q0 -33 -9 -46t-32 -13h-153q-35 0 -35 49q0 158 88 242t250 84q116 0 184 -59t68 -150q0 -253 -322 -473h199q41 0 35 -37l-25 -137q-6 -37 -39 -37h-475q-39 0 -33 37l21 118q5 28 36 49q121 77 222 187q96 105 118 219q6 39 -1 53q-8 15 -33 15
q-64 0 -64 -101z" />
    <glyph glyph-name="three.superior" unicode="&#xb3;" horiz-adv-x="679" 
d="M430 1362h-63q-41 0 -35 37l22 125q6 35 39 35h66q43 0 69 20q27 21 27 57q0 56 -111 56q-14 0 -131 -19q-23 -1 -30 3q-8 5 -4 20l24 143q5 27 35 35q87 29 194 29q121 0 199 -45t78 -138q0 -80 -44 -144q-43 -62 -116 -85q44 -12 72 -58q29 -47 29 -118
q0 -162 -95 -240t-254 -78t-219 27q-27 12 -22 35l24 149q5 30 43 23q136 -19 144 -19q133 0 133 99q0 51 -74 51z" />
    <glyph glyph-name="acute" unicode="&#xb4;" horiz-adv-x="573" 
d="M221 1262l78 147q18 41 63 41h265q26 0 32 -22t-14 -39l-153 -140q-38 -37 -89 -37h-153q-53 0 -29 50z" />
    <glyph glyph-name="mu" unicode="&#xb5;" horiz-adv-x="950" 
d="M997 1083l-141 -798q-29 -165 -94 -233t-197 -68q-83 0 -144 29q-63 30 -87 69l-39 -246q-6 -37 -21 -49t-49 -12h-223q-60 0 -53 59l221 1249q8 60 66 60h229q61 0 53 -60l-108 -610q-9 -52 -9 -80q0 -78 62 -78q32 0 45 22q12 21 24 87l117 659q7 60 66 60h229
q60 0 53 -60z" />
    <glyph glyph-name="paragraph" unicode="&#xb6;" horiz-adv-x="1028" 
d="M1077 1274h-55q-60 0 -91 -28q-30 -27 -42 -97l-201 -1147q-22 -125 -71 -183q-48 -57 -146 -57q-109 0 -154 15q-36 10 -28 49l12 74q6 37 47 37q2 0 6.5 -0.5t13 -1.5t15.5 -2q27 -3 43 -3q41 0 56 18q16 19 26 83l86 485h-45q-193 0 -303 97q-111 97 -111 270
q0 251 143 409t404 158h418q54 0 43 -47l-15 -82q-6 -47 -51 -47z" />
    <glyph glyph-name="periodcentered" unicode="&#xb7;" horiz-adv-x="458" 
d="M53 455l39 217q12 65 72 65h213q71 0 59 -65l-39 -217q-12 -66 -71 -66h-213q-72 0 -60 66z" />
    <glyph glyph-name="cedilla" unicode="&#xb8;" horiz-adv-x="573" 
d="M68 37h108q79 -24 134 -79t55 -122q0 -71 -54 -110q-52 -37 -141 -37q-95 0 -131 14q-23 8 -21 41l15 80q6 22 28 22h78q24 0 39 18t15 42q0 68 -125 131z" />
    <glyph glyph-name="one.superior" unicode="&#xb9;" horiz-adv-x="679" 
d="M487 1618l-94 -78q-30 -24 -57 -2l-62 78q-28 32 9 59l237 197q21 18 53 18h162q21 0 33 -12t10 -33l-141 -790q-6 -45 -47 -45h-160q-21 0 -33 12t-10 33z" />
    <glyph glyph-name="ordmasculine" unicode="&#xba;" horiz-adv-x="741" 
d="M584 1679q-43 0 -64 -45t-45 -184q-20 -117 -20 -162q0 -67 49 -67q42 0 62 45q20 47 44 184q21 108 21 164q0 65 -47 65zM479 997q-144 0 -213 66t-69 217q0 89 16 170q45 249 133 351t260 102q144 0 213 -66q70 -67 70 -217q0 -83 -17 -170q-45 -249 -133 -351
q-89 -102 -260 -102z" />
    <glyph glyph-name="guillemotright" unicode="&#xbb;" horiz-adv-x="946" 
d="M930 610q-4 -16 -10 -26l-166 -293q-29 -47 -74 -47h-195q-62 0 -28 59l174 307l-68 308q-10 59 45 59h195q51 0 63 -47l62 -293q4 -16 2 -27zM512 610q-4 -16 -10 -26l-166 -293q-29 -47 -74 -47h-194q-63 0 -29 59l174 307l-68 308q-10 59 45 59h195q52 0 64 -47
l61 -293q4 -16 2 -27z" />
    <glyph glyph-name="onequarter" unicode="&#xbc;" horiz-adv-x="1597" 
d="M410 1178l-95 -78q-30 -24 -57 -2l-61 78q-28 33 8 59l237 197q21 18 54 18h161q21 0 33 -12t10 -33l-141 -791q-6 -45 -47 -45h-160q-20 0 -33 13q-11 11 -10 32zM1409 1397l-829 -1356q-24 -41 -72 -41h-137q-55 0 -25 53l830 1356q24 41 69 41h137q27 0 34 -16
q8 -17 -7 -37zM1264 592l-179 -232h138zM1477 168h-43l-23 -123q-6 -45 -47 -45h-156q-20 0 -32 12t-11 33l23 123h-254q-37 0 -31 37l23 131q1 26 20 49l348 463q22 33 47 33h168q20 0 33 -13q11 -11 10 -32l-84 -476h35q45 0 37 -41l-18 -110q-8 -41 -45 -41z" />
    <glyph glyph-name="onehalf" unicode="&#xbd;" horiz-adv-x="1597" 
d="M410 1178l-95 -78q-30 -24 -57 -2l-61 78q-28 33 8 59l237 197q21 18 54 18h161q21 0 33 -12t10 -33l-141 -791q-6 -45 -47 -45h-160q-20 0 -33 13q-11 11 -10 32zM1214 578q0 100 64 100q26 0 34 -15q7 -14 1 -53q-21 -112 -119 -219q-100 -110 -221 -186
q-33 -21 -37 -49l-21 -119q-6 -37 33 -37h475q33 0 39 37l25 137q6 37 -35 37h-199q322 220 322 473q0 92 -68 151q-67 58 -184 58q-161 0 -250 -84q-88 -84 -88 -242q0 -49 35 -49h154q22 0 31 13t9 47zM1364 1397l-829 -1356q-24 -41 -72 -41h-137q-55 0 -25 53l829 1356
q24 41 70 41h137q27 0 34 -16q8 -17 -7 -37z" />
    <glyph glyph-name="threequarters" unicode="&#xbe;" horiz-adv-x="1597" 
d="M352 922h-63q-41 0 -35 36l22 125q6 35 39 35h66q43 0 70 21q26 20 26 57q0 55 -110 55q-20 0 -131 -18q-23 -2 -31 3t-4 19l24 144q5 27 35 35q84 28 195 28q120 0 198 -45t78 -137q0 -80 -44 -144q-43 -62 -116 -85q43 -12 72 -59t29 -118q0 -161 -94 -239t-254 -78
t-220 27q-26 12 -22 34l24 150q5 31 44 23q136 -19 143 -19q133 0 133 98q0 52 -74 52zM1430 1397l-830 -1356q-24 -41 -72 -41h-137q-54 0 -24 53l829 1356q24 41 70 41h137q27 0 34 -16q8 -17 -7 -37zM1264 592l-179 -232h138zM1477 168h-43l-23 -123q-6 -45 -47 -45h-156
q-20 0 -32 12t-11 33l23 123h-254q-37 0 -31 37l23 131q1 26 20 49l348 463q22 33 47 33h168q20 0 33 -13q11 -11 10 -32l-84 -476h35q45 0 37 -41l-18 -110q-8 -41 -45 -41z" />
    <glyph glyph-name="questiondown" unicode="&#xbf;" horiz-adv-x="774" 
d="M676 1077l-41 -233q-12 -66 -72 -66h-229q-72 0 -60 66l41 233q12 66 74 66h229q70 0 58 -66zM242 606l-4 -20q-11 -63 -57 -135q-43 -69 -89 -122q-45 -53 -81 -138t-36 -179q0 -118 86 -186t248 -68q157 0 256 37q32 11 43 22q13 13 17 40l39 221q4 26 -9 36
q-13 9 -45 5q-2 0 -5 -1.5t-9 -3t-11 -3.5q-30 -9 -48 -12q-32 -5 -72 -5q-84 0 -84 76q0 66 87 202q86 134 101 214l4 20q11 66 -59 66h-201q-61 0 -71 -66z" />
    <glyph glyph-name="Agrave" unicode="&#xc0;" horiz-adv-x="1073" 
d="M481 569h160l14 516h-8zM510 1450h389q86 0 86 -72l-8 -1306q0 -72 -66 -72h-245q-34 0 -50 16t-14 47l4 179h-209l-57 -179q-11 -32 -28 -49q-14 -14 -48 -14h-258q-35 0 -48 19t-1 53l451 1306q27 72 102 72zM827 1716l27 -147q6 -49 -39 -49h-153q-56 0 -82 36
l-107 140q-15 18 -4 40q11 21 37 21h264q52 0 57 -41z" />
    <glyph glyph-name="Aacute" unicode="&#xc1;" horiz-adv-x="1073" 
d="M481 569h160l14 516h-8zM510 1450h389q86 0 86 -72l-8 -1306q0 -72 -66 -72h-245q-34 0 -50 16t-14 47l4 179h-209l-57 -179q-11 -32 -28 -49q-14 -14 -48 -14h-258q-35 0 -48 19t-1 53l451 1306q27 72 102 72zM608 1569l76 147q23 41 66 41h264q27 0 33 -21t-17 -40
l-151 -140q-42 -36 -91 -36h-153q-25 0 -32 14t5 35z" />
    <glyph glyph-name="Acircumflex" unicode="&#xc2;" horiz-adv-x="1073" 
d="M481 569h160l14 516h-8zM510 1450h389q86 0 86 -72l-8 -1306q0 -72 -66 -72h-245q-34 0 -50 16t-14 47l4 179h-209l-57 -179q-11 -32 -28 -49q-14 -14 -48 -14h-258q-35 0 -48 19t-1 53l451 1306q27 72 102 72zM791 1561l-46 67l-69 -67q-41 -41 -86 -41h-144
q-29 0 -33 20q-4 21 19 41l182 148q38 28 76 28h139q48 0 72 -28l133 -148q16 -21 6 -41t-36 -20h-136q-53 0 -77 41z" />
    <glyph glyph-name="Atilde" unicode="&#xc3;" horiz-adv-x="1073" 
d="M481 569h160l14 516h-8zM510 1450h389q86 0 86 -72l-8 -1306q0 -72 -66 -72h-245q-34 0 -50 16t-14 47l4 179h-209l-57 -179q-11 -32 -28 -49q-14 -14 -48 -14h-258q-35 0 -48 19t-1 53l451 1306q27 72 102 72zM1065 1677q-17 -89 -53 -125t-115 -36q-85 0 -149 26
l-43 19q-89 30 -107 0l-6 -11q-16 -30 -53 -30h-78q-56 0 -41 79q16 89 53 125q37 37 115 37q85 0 149 -26l43 -19q89 -30 107 0l6 10q17 31 53 31h78q29 0 39 -17t2 -63z" />
    <glyph glyph-name="Adieresis" unicode="&#xc4;" horiz-adv-x="1073" 
d="M481 569h160l14 516h-8zM510 1450h389q86 0 86 -72l-8 -1306q0 -72 -66 -72h-245q-34 0 -50 16t-14 47l4 179h-209l-57 -179q-11 -32 -28 -49q-14 -14 -48 -14h-258q-35 0 -48 19t-1 53l451 1306q27 72 102 72zM707 1702l-23 -127q-7 -55 -61 -55h-201q-56 0 -49 55
l22 127q10 55 62 55h200q60 0 50 -55zM1112 1702l-22 -127q-7 -55 -62 -55h-201q-56 0 -49 55l23 127q10 55 61 55h201q59 0 49 -55z" />
    <glyph glyph-name="Aring" unicode="&#xc5;" horiz-adv-x="1073" 
d="M504 1489q0 102 66 165q65 62 173 62q90 0 142 -46q53 -47 53 -120q0 -53 -21 -100q68 -8 68 -72l-8 -1306q0 -72 -66 -72h-245q-34 0 -50 16t-14 47l4 179h-209l-57 -179q-11 -32 -28 -49q-14 -14 -48 -14h-258q-35 0 -48 19t-1 53l451 1306q16 40 34 54q21 16 66 18
q-4 11 -4 39zM481 569h160l14 516h-8zM729 1587q-35 0 -56 -22q-22 -24 -22 -58q0 -25 18 -40t44 -15q35 0 56 23q22 24 22 59q0 23 -18 38t-44 15z" />
    <glyph glyph-name="AE" unicode="&#xc6;" horiz-adv-x="1417" 
d="M1292 571h-295l-41 -227h316q69 0 57 -65l-37 -213q-12 -66 -71 -66h-619q-71 0 -59 66l30 178h-178l-63 -181q-15 -34 -30 -49q-14 -14 -48 -14h-252q-33 0 -46 19t-1 53l469 1306q27 72 104 72h930q70 0 60 -66l-39 -213q-10 -65 -72 -65h-315l-37 -203h286
q70 0 60 -65l-37 -201q-10 -66 -72 -66zM496 571h137l94 535h-51z" />
    <glyph glyph-name="Ccedilla" unicode="&#xc7;" horiz-adv-x="921" 
d="M643 319q65 0 127 13q39 6 54 -7q16 -14 10 -49l-35 -196q-6 -36 -24 -53q-20 -18 -52 -25q-71 -15 -137 -20q67 -52 67 -132q0 -86 -57 -130q-58 -44 -150 -44q-96 0 -135 15q-26 10 -20 41l14 80q6 22 29 22h82q63 0 63 64q0 43 -49 86q-187 12 -272 103
q-86 92 -86 306q0 126 35 338q41 229 93 372q53 143 133 225q82 83 180 113q96 29 251 29q95 0 201 -20q64 -8 53 -78l-35 -198q-12 -68 -84 -56q-57 12 -119 12q-137 0 -191 -73q-55 -75 -100 -326q-28 -164 -28 -246q0 -98 40 -132t142 -34z" />
    <glyph glyph-name="Egrave" unicode="&#xc8;" horiz-adv-x="913" 
d="M788 571h-323l-41 -227h344q69 0 57 -65l-37 -213q-12 -66 -71 -66h-656q-71 0 -59 66l234 1318q10 66 71 66h647q70 0 60 -66l-39 -213q-10 -65 -72 -65h-344l-37 -203h316q69 0 59 -65l-37 -201q-10 -66 -72 -66zM788 1716l27 -147q6 -49 -39 -49h-153q-56 0 -82 36
l-107 140q-15 18 -4 40q10 21 37 21h264q52 0 57 -41z" />
    <glyph glyph-name="Eacute" unicode="&#xc9;" horiz-adv-x="913" 
d="M788 571h-323l-41 -227h344q69 0 57 -65l-37 -213q-12 -66 -71 -66h-656q-71 0 -59 66l234 1318q10 66 71 66h647q70 0 60 -66l-39 -213q-10 -65 -72 -65h-344l-37 -203h316q69 0 59 -65l-37 -201q-10 -66 -72 -66zM508 1569l76 147q23 41 65 41h264q27 0 33 -21
q6 -22 -16 -40l-152 -140q-42 -36 -90 -36h-153q-25 0 -32 14t5 35z" />
    <glyph glyph-name="Ecircumflex" unicode="&#xca;" horiz-adv-x="913" 
d="M788 571h-323l-41 -227h344q69 0 57 -65l-37 -213q-12 -66 -71 -66h-656q-71 0 -59 66l234 1318q10 66 71 66h647q70 0 60 -66l-39 -213q-10 -65 -72 -65h-344l-37 -203h316q69 0 59 -65l-37 -201q-10 -66 -72 -66zM723 1561l-45 67l-70 -67q-41 -41 -86 -41h-143
q-30 0 -34 20t20 41l182 148q38 28 76 28h139q48 0 72 -28l133 -148q16 -21 6 -41t-37 -20h-135q-54 0 -78 41z" />
    <glyph glyph-name="Edieresis" unicode="&#xcb;" horiz-adv-x="913" 
d="M788 571h-323l-41 -227h344q69 0 57 -65l-37 -213q-12 -66 -71 -66h-656q-71 0 -59 66l234 1318q10 66 71 66h647q70 0 60 -66l-39 -213q-10 -65 -72 -65h-344l-37 -203h316q69 0 59 -65l-37 -201q-10 -66 -72 -66zM635 1702l-23 -127q-10 -55 -61 -55h-201q-59 0 -49 55
l23 127q7 55 61 55h201q56 0 49 -55zM1040 1702l-22 -127q-10 -55 -62 -55h-200q-59 0 -49 55l22 127q7 55 62 55h200q56 0 49 -55z" />
    <glyph glyph-name="Igrave" unicode="&#xcc;" horiz-adv-x="540" 
d="M10 66l234 1318q11 66 71 66h246q71 0 60 -66l-234 -1318q-12 -66 -72 -66h-245q-72 0 -60 66zM561 1716l27 -147q6 -49 -39 -49h-154q-56 0 -82 36l-106 140q-15 18 -4 40q11 21 37 21h264q52 0 57 -41z" />
    <glyph glyph-name="Iacute" unicode="&#xcd;" horiz-adv-x="540" 
d="M10 66l234 1318q11 66 71 66h246q71 0 60 -66l-234 -1318q-12 -66 -72 -66h-245q-72 0 -60 66zM342 1569l76 147q23 41 65 41h265q26 0 32 -21q6 -22 -16 -40l-152 -140q-42 -36 -90 -36h-153q-25 0 -32 14t5 35z" />
    <glyph glyph-name="Icircumflex" unicode="&#xce;" horiz-adv-x="540" 
d="M10 66l234 1318q11 66 71 66h246q71 0 60 -66l-234 -1318q-12 -66 -72 -66h-245q-72 0 -60 66zM524 1561l-45 67l-69 -67q-41 -41 -86 -41h-144q-30 0 -34 20t20 41l182 148q38 28 76 28h139q48 0 72 -28l133 -148q16 -21 6 -41t-37 -20h-135q-54 0 -78 41z" />
    <glyph glyph-name="Idieresis" unicode="&#xcf;" horiz-adv-x="540" 
d="M10 66l234 1318q11 66 71 66h246q71 0 60 -66l-234 -1318q-12 -66 -72 -66h-245q-72 0 -60 66zM440 1702l-22 -127q-7 -55 -62 -55h-200q-57 0 -50 55l23 127q10 55 61 55h201q59 0 49 -55zM846 1702l-23 -127q-7 -55 -61 -55h-201q-56 0 -49 55l23 127q10 55 61 55h201
q59 0 49 -55z" />
    <glyph glyph-name="Eth" unicode="&#xd0;" horiz-adv-x="1081" 
d="M414 0h-353q-67 0 -55 66l98 559h-16q-55 0 -47 53l16 94q8 53 60 53h24l99 559q10 66 75 66h320q240 0 352 -99q113 -99 113 -347q0 -106 -27 -279q-68 -412 -218 -568q-151 -157 -441 -157zM600 1110h-33l-51 -285h72q55 0 47 -53l-17 -94q-8 -53 -59 -53h-78l-49 -285
h41q87 0 131 74q42 71 86 311q27 153 27 240q0 83 -28 114t-89 31z" />
    <glyph glyph-name="Ntilde" unicode="&#xd1;" horiz-adv-x="1110" 
d="M1198 1384l-233 -1318q-12 -66 -72 -66h-211q-69 0 -84 55l-131 580l-100 -569q-12 -66 -72 -66h-234q-71 0 -59 66l234 1318q10 66 71 66h211q69 0 84 -55l131 -580l101 569q10 66 71 66h234q69 0 59 -66zM1083 1677q-17 -89 -53 -125t-115 -36q-85 0 -149 26l-43 19
q-89 30 -107 0l-6 -11q-16 -30 -53 -30h-78q-29 0 -39 17q-10 16 -2 62q16 87 54 125q37 37 114 37q86 0 150 -26l43 -19q88 -30 106 0l6 10q17 31 54 31h77q56 0 41 -80z" />
    <glyph glyph-name="Ograve" unicode="&#xd2;" horiz-adv-x="1089" 
d="M700 1470q208 0 308 -90t100 -327q0 -127 -35 -328q-52 -301 -133 -467q-80 -164 -185 -221t-276 -57q-207 0 -307 90t-100 327q0 133 34 328q52 297 134 467q80 164 185 221t275 57zM518 315q64 0 94 73q32 78 78 337q41 243 41 315q0 58 -15 76q-16 19 -54 19
q-65 0 -95 -73q-32 -78 -78 -337q-40 -237 -40 -315q0 -58 15 -76q16 -19 54 -19zM844 1716l26 -147q6 -49 -39 -49h-153q-56 0 -82 36l-107 140q-15 18 -4 40q11 21 37 21h264q53 0 58 -41z" />
    <glyph glyph-name="Oacute" unicode="&#xd3;" horiz-adv-x="1089" 
d="M700 1470q208 0 308 -90t100 -327q0 -127 -35 -328q-52 -301 -133 -467q-80 -164 -185 -221t-276 -57q-207 0 -307 90t-100 327q0 133 34 328q52 297 134 467q80 164 185 221t275 57zM518 315q64 0 94 73q32 78 78 337q41 243 41 315q0 58 -15 76q-16 19 -54 19
q-65 0 -95 -73q-32 -78 -78 -337q-40 -237 -40 -315q0 -58 15 -76q16 -19 54 -19zM608 1569l76 147q23 41 66 41h264q27 0 33 -21t-17 -40l-151 -140q-42 -36 -91 -36h-153q-25 0 -32 14t5 35z" />
    <glyph glyph-name="Ocircumflex" unicode="&#xd4;" horiz-adv-x="1089" 
d="M700 1470q208 0 308 -90t100 -327q0 -127 -35 -328q-52 -301 -133 -467q-80 -164 -185 -221t-276 -57q-207 0 -307 90t-100 327q0 133 34 328q52 297 134 467q80 164 185 221t275 57zM518 315q64 0 94 73q32 78 78 337q41 243 41 315q0 58 -15 76q-16 19 -54 19
q-65 0 -95 -73q-32 -78 -78 -337q-40 -237 -40 -315q0 -58 15 -76q16 -19 54 -19zM799 1561l-45 67l-70 -67q-41 -41 -86 -41h-143q-30 0 -34 20q-4 21 19 41l183 148q38 28 75 28h140q47 0 71 -28l133 -148q17 -21 7 -41t-37 -20h-135q-54 0 -78 41z" />
    <glyph glyph-name="Otilde" unicode="&#xd5;" horiz-adv-x="1089" 
d="M700 1470q208 0 308 -90t100 -327q0 -127 -35 -328q-52 -301 -133 -467q-80 -164 -185 -221t-276 -57q-207 0 -307 90t-100 327q0 133 34 328q52 297 134 467q80 164 185 221t275 57zM518 315q64 0 94 73q32 78 78 337q41 243 41 315q0 58 -15 76q-16 19 -54 19
q-65 0 -95 -73q-32 -78 -78 -337q-40 -237 -40 -315q0 -58 15 -76q16 -19 54 -19zM1073 1677q-17 -89 -53 -125t-115 -36q-85 0 -149 26l-43 19q-89 30 -107 0l-6 -11q-17 -30 -53 -30h-78q-56 0 -41 79q16 89 53 125q37 37 115 37q85 0 149 -26l43 -19q89 -30 107 0l6 10
q17 31 53 31h78q29 0 39 -17t2 -63z" />
    <glyph glyph-name="Odieresis" unicode="&#xd6;" horiz-adv-x="1089" 
d="M700 1470q208 0 308 -90t100 -327q0 -127 -35 -328q-52 -301 -133 -467q-80 -164 -185 -221t-276 -57q-207 0 -307 90t-100 327q0 133 34 328q52 297 134 467q80 164 185 221t275 57zM518 315q64 0 94 73q32 78 78 337q41 243 41 315q0 58 -15 76q-16 19 -54 19
q-65 0 -95 -73q-32 -78 -78 -337q-40 -237 -40 -315q0 -58 15 -76q16 -19 54 -19zM715 1702l-23 -127q-7 -55 -61 -55h-201q-56 0 -49 55l22 127q10 55 62 55h201q59 0 49 -55zM1120 1702l-22 -127q-7 -55 -62 -55h-200q-57 0 -50 55l23 127q10 55 61 55h201q59 0 49 -55z
" />
    <glyph glyph-name="multiply" unicode="&#xd7;" horiz-adv-x="1036" 
d="M709 270l-187 226l-264 -226q-50 -40 -84 0l-113 136q-32 43 17 83l264 226l-186 225q-33 41 16 84l158 135q51 41 84 0l186 -225l264 225q50 41 84 0l113 -135q33 -43 -17 -84l-264 -225l187 -226q32 -40 -17 -83l-157 -136q-51 -40 -84 0z" />
    <glyph glyph-name="Oslash" unicode="&#xd8;" horiz-adv-x="1105" 
d="M705 1470q225 0 319 -104l51 64q37 44 76 16l49 -35q39 -28 4 -74l-106 -131q14 -71 14 -153q0 -127 -35 -328q-52 -301 -133 -467q-80 -164 -185 -221t-276 -57q-226 0 -315 98l-47 -58q-37 -43 -76 -16l-49 35q-41 29 -4 74l100 120q-16 74 -16 164q0 127 35 328
q52 301 133 467q80 164 185 221t276 57zM494 725q-5 -18 -5 -25l244 297q0 13 1 23t1 20q0 58 -15 76q-16 19 -54 19q-65 0 -95 -73q-31 -73 -77 -337zM522 315q64 0 94 73q32 78 78 337q0 4 2 10l-243 -293v-32q0 -58 15 -76q16 -19 54 -19z" />
    <glyph glyph-name="Ugrave" unicode="&#xd9;" 
d="M467 -20q-210 0 -314 74q-106 76 -106 239q0 56 12 119l172 972q11 66 72 66h246q69 0 59 -66l-162 -919q-8 -42 -8 -72q0 -36 17 -53q16 -16 51 -16q49 0 73 30q22 27 39 111l162 919q10 66 72 66h246q70 0 59 -66l-172 -972q-40 -237 -160 -335q-118 -97 -358 -97z
M831 1716l27 -147q6 -49 -39 -49h-153q-56 0 -82 36l-107 140q-15 18 -4 40q11 21 37 21h264q52 0 57 -41z" />
    <glyph glyph-name="Uacute" unicode="&#xda;" 
d="M467 -20q-210 0 -314 74q-106 76 -106 239q0 56 12 119l172 972q11 66 72 66h246q69 0 59 -66l-162 -919q-8 -42 -8 -72q0 -36 17 -53q16 -16 51 -16q49 0 73 30q22 27 39 111l162 919q10 66 72 66h246q70 0 59 -66l-172 -972q-40 -237 -160 -335q-118 -97 -358 -97z
M596 1569l76 147q23 41 65 41h264q27 0 33 -21q6 -22 -16 -40l-152 -140q-42 -36 -90 -36h-153q-25 0 -32 14t5 35z" />
    <glyph glyph-name="Ucircumflex" unicode="&#xdb;" 
d="M467 -20q-210 0 -314 74q-106 76 -106 239q0 56 12 119l172 972q11 66 72 66h246q69 0 59 -66l-162 -919q-8 -42 -8 -72q0 -36 17 -53q16 -16 51 -16q49 0 73 30q22 27 39 111l162 919q10 66 72 66h246q70 0 59 -66l-172 -972q-40 -237 -160 -335q-118 -97 -358 -97z
M786 1561l-45 67l-69 -67q-41 -41 -86 -41h-144q-29 0 -33 20q-4 21 19 41l182 148q38 28 76 28h139q48 0 72 -28l133 -148q16 -21 6 -41t-37 -20h-135q-54 0 -78 41z" />
    <glyph glyph-name="Udieresis" unicode="&#xdc;" 
d="M467 -20q-210 0 -314 74q-106 76 -106 239q0 56 12 119l172 972q11 66 72 66h246q69 0 59 -66l-162 -919q-8 -42 -8 -72q0 -36 17 -53q16 -16 51 -16q49 0 73 30q22 27 39 111l162 919q10 66 72 66h246q70 0 59 -66l-172 -972q-40 -237 -160 -335q-118 -97 -358 -97z
M702 1702l-22 -127q-7 -55 -62 -55h-200q-56 0 -49 55l22 127q10 55 62 55h200q59 0 49 -55zM1108 1702l-23 -127q-7 -55 -61 -55h-201q-56 0 -49 55l23 127q10 55 61 55h201q59 0 49 -55z" />
    <glyph glyph-name="Yacute" unicode="&#xdd;" horiz-adv-x="1040" 
d="M721 545l-84 -479q-12 -66 -72 -66h-246q-71 0 -59 66l84 479l-164 825q-6 32 8 55q16 25 56 25h252q73 0 77 -61l19 -308l-8 -190h8l61 190l125 308q24 61 90 61h265q43 0 52 -28t-9 -52zM571 1569l76 147q23 41 66 41h264q27 0 33 -21t-17 -40l-151 -140
q-42 -36 -90 -36h-154q-25 0 -32 14t5 35z" />
    <glyph glyph-name="Thorn" unicode="&#xde;" horiz-adv-x="1044" 
d="M307 0h-246q-71 0 -59 66l234 1318q12 66 71 66h246q69 0 59 -66l-18 -102h37q221 0 324 -75q104 -75 104 -265q0 -76 -19 -188q-52 -302 -179 -414q-126 -111 -400 -111h-53l-29 -163q-12 -66 -72 -66zM467 565h37q76 0 104 37q28 36 49 152q13 73 13 106q0 46 -22 65
q-20 17 -77 17h-36z" />
    <glyph glyph-name="germandbls" unicode="&#xdf;" horiz-adv-x="1007" 
d="M612 1159q-84 0 -100 -90l-178 -1010q-12 -59 -70 -59h-221q-61 0 -49 59l182 1039q63 366 477 366q175 0 279 -79t104 -207q0 -84 -39 -166q-42 -88 -78 -142q-40 -59 -40 -90q0 -34 40 -133q39 -97 39 -205q0 -229 -88 -339q-88 -111 -317 -111q-73 0 -111 17
q-40 18 -34 61l41 227q6 32 21 46q14 13 48 13q100 0 100 111q0 49 -48 135t-48 146q0 68 81 171t81 173q0 67 -72 67z" />
    <glyph glyph-name="agrave" unicode="&#xe0;" horiz-adv-x="888" 
d="M889 821l-133 -762q-12 -59 -66 -59h-168q-66 0 -67 49l-2 33q-92 -92 -215 -92q-105 0 -171 63q-67 64 -67 193q0 238 134 346q135 110 405 117l10 65q8 48 -12 65t-80 17q-46 0 -85 -7q-49 -9 -86 -19q-40 -11 -48 -11q-38 -6 -54 4t-10 43l33 187q7 50 61 65
q115 37 273 37q187 0 272 -55q86 -56 86 -182q0 -43 -10 -97zM481 391l21 115q-90 -2 -126 -54q-36 -53 -36 -145q0 -59 51 -59q42 0 60 35t30 108zM725 1409l25 -147q11 -50 -41 -50h-142q-52 0 -80 37l-116 140q-14 17 -5 39t35 22h265q53 0 59 -41z" />
    <glyph glyph-name="aacute" unicode="&#xe1;" horiz-adv-x="888" 
d="M889 821l-133 -762q-12 -59 -66 -59h-168q-66 0 -67 49l-2 33q-92 -92 -215 -92q-105 0 -171 63q-67 64 -67 193q0 238 134 346q135 110 405 117l10 65q8 48 -12 65t-80 17q-46 0 -85 -7q-49 -9 -86 -19q-40 -11 -48 -11q-38 -6 -54 4t-10 43l33 187q7 50 61 65
q115 37 273 37q187 0 272 -55q86 -56 86 -182q0 -43 -10 -97zM481 391l21 115q-90 -2 -126 -54q-36 -53 -36 -145q0 -59 51 -59q42 0 60 35t30 108zM430 1262l78 147q18 41 63 41h265q26 0 32 -22t-14 -39l-154 -140q-38 -37 -88 -37h-153q-53 0 -29 50z" />
    <glyph glyph-name="acircumflex" unicode="&#xe2;" horiz-adv-x="888" 
d="M889 821l-133 -762q-12 -59 -66 -59h-168q-66 0 -67 49l-2 33q-92 -92 -215 -92q-105 0 -171 63q-67 64 -67 193q0 238 134 346q135 110 405 117l10 65q8 48 -12 65t-80 17q-46 0 -85 -7q-49 -9 -86 -19q-40 -11 -48 -11q-38 -6 -54 4t-10 43l33 187q7 50 61 65
q115 37 273 37q187 0 272 -55q86 -56 86 -182q0 -43 -10 -97zM481 391l21 115q-90 -2 -126 -54q-36 -53 -36 -145q0 -59 51 -59q42 0 60 35t30 108zM643 1253l-45 68l-70 -68q-39 -41 -84 -41h-143q-29 0 -35 21q-6 20 19 41l184 147q35 29 74 29h139q45 0 74 -29l131 -147
q18 -21 9 -41q-9 -21 -38 -21h-135q-53 0 -80 41z" />
    <glyph glyph-name="atilde" unicode="&#xe3;" horiz-adv-x="888" 
d="M889 821l-133 -762q-12 -59 -66 -59h-168q-66 0 -67 49l-2 33q-92 -92 -215 -92q-105 0 -171 63q-67 64 -67 193q0 238 134 346q135 110 405 117l10 65q8 48 -12 65t-80 17q-46 0 -85 -7q-49 -9 -86 -19q-40 -11 -48 -11q-38 -6 -54 4t-10 43l33 187q7 50 61 65
q115 37 273 37q187 0 272 -55q86 -56 86 -182q0 -43 -10 -97zM481 391l21 115q-90 -2 -126 -54q-36 -53 -36 -145q0 -59 51 -59q42 0 60 35t30 108zM922 1370q-15 -88 -52 -125t-114 -37q-88 0 -150 27l-45 18q-84 30 -106 0l-4 -10q-17 -31 -54 -31h-78q-57 0 -40 80
q17 88 53 125q37 37 114 37q87 0 148 -27l45 -18q85 -33 106 0l7 10q17 31 51 31h78q58 0 41 -80z" />
    <glyph glyph-name="adieresis" unicode="&#xe4;" horiz-adv-x="888" 
d="M889 821l-133 -762q-12 -59 -66 -59h-168q-66 0 -67 49l-2 33q-92 -92 -215 -92q-105 0 -171 63q-67 64 -67 193q0 238 134 346q135 110 405 117l10 65q8 48 -12 65t-80 17q-46 0 -85 -7q-49 -9 -86 -19q-40 -11 -48 -11q-38 -6 -54 4t-10 43l33 187q7 50 61 65
q115 37 273 37q187 0 272 -55q86 -56 86 -182q0 -43 -10 -97zM481 391l21 115q-90 -2 -126 -54q-36 -53 -36 -145q0 -59 51 -59q42 0 60 35t30 108zM569 1395l-22 -127q-12 -56 -62 -56h-200q-61 0 -49 56l22 127q7 55 59 55h201q58 0 51 -55zM958 1395l-22 -127
q-12 -56 -62 -56h-200q-61 0 -49 56l22 127q7 55 60 55h200q58 0 51 -55z" />
    <glyph glyph-name="aring" unicode="&#xe5;" horiz-adv-x="888" 
d="M889 821l-133 -762q-12 -59 -66 -59h-168q-66 0 -67 49l-2 33q-92 -92 -215 -92q-105 0 -171 63q-67 64 -67 193q0 238 134 346q135 110 405 117l10 65q8 48 -12 65t-80 17q-46 0 -85 -7q-49 -9 -86 -19q-40 -11 -48 -11q-38 -6 -54 4t-10 43l33 187q7 50 61 65
q115 37 273 37q187 0 272 -55q86 -56 86 -182q0 -43 -10 -97zM481 391l21 115q-90 -2 -126 -54q-36 -53 -36 -145q0 -59 51 -59q42 0 60 35t30 108zM608 1325q34 0 62 23q26 22 26 61q0 27 -19 43t-52 16q-40 0 -64 -21t-24 -61q0 -26 21 -44q20 -17 50 -17zM639 1602
q95 0 153 -49q56 -47 56 -123q0 -109 -70 -174q-68 -64 -186 -64q-96 0 -152 48q-55 48 -55 124q0 108 70 173t184 65z" />
    <glyph glyph-name="ae" unicode="&#xe6;" horiz-adv-x="1380" 
d="M999 274q86 0 189 25q35 8 52 -5t11 -44l-28 -164q-6 -32 -23 -48t-47 -26q-94 -28 -223 -28q-249 0 -340 127q-121 -121 -303 -121q-135 0 -210 68q-77 69 -77 194q0 128 36 210q36 84 112 128q76 45 167 63q93 19 226 23l16 98q8 47 -13 65q-20 17 -83 17q-43 0 -86 -6
q-35 -5 -88 -19q-45 -12 -49 -12q-38 -6 -54 4t-10 43l33 187q7 50 61 65q115 37 281 37q175 0 252 -68q105 72 233 72q177 0 263 -74q85 -73 85 -233q0 -101 -20 -207l-25 -139q-7 -37 -26 -53q-18 -15 -58 -15h-413q-4 -33 -4 -51q0 -63 36 -87q38 -26 127 -26zM999 889
q-48 0 -72 -41q-22 -38 -50 -176h159l6 30q15 85 15 117q0 70 -58 70zM489 391l15 82q-88 -5 -126 -39q-38 -35 -38 -125q0 -61 55 -61q41 0 62 36q20 34 32 107z" />
    <glyph glyph-name="ccedilla" unicode="&#xe7;" horiz-adv-x="753" 
d="M80 575q56 318 178 451q123 133 338 133q118 0 184 -24q24 -7 34 -21q9 -13 5 -41l-37 -205q-7 -48 -67 -41q-80 13 -92 13q-84 0 -122 -52q-39 -53 -67 -213q-18 -101 -18 -157q0 -68 26 -91q27 -24 88 -24q20 0 99 12q32 4 45 -5q12 -9 8 -36l-37 -204q-5 -30 -17 -41
q-16 -14 -42 -21q-58 -19 -170 -24q84 -63 84 -148q0 -71 -54 -110q-52 -37 -141 -37q-95 0 -131 14q-22 7 -20 41l14 80q6 22 29 22h77q24 0 39 18t15 42q0 52 -68 96q-203 63 -203 350q0 85 23 223z" />
    <glyph glyph-name="egrave" unicode="&#xe8;" horiz-adv-x="925" 
d="M545 274q85 0 188 25q35 8 52 -5q18 -14 12 -44l-29 -164q-6 -32 -23 -48t-47 -26q-94 -28 -223 -28q-223 0 -327 84q-103 84 -103 288q0 86 23 224q57 320 172 450q114 129 340 129q179 0 262 -80q82 -79 82 -250q0 -79 -19 -196l-24 -139q-7 -38 -27 -54
q-17 -14 -57 -14h-414q-4 -33 -4 -47q0 -62 36 -83q38 -22 130 -22zM545 889q-48 0 -73 -46q-24 -45 -52 -184h160l6 31q14 84 14 123q0 76 -55 76zM723 1409l25 -147q11 -50 -41 -50h-142q-52 0 -80 37l-116 140q-14 17 -5 39t35 22h265q53 0 59 -41z" />
    <glyph glyph-name="eacute" unicode="&#xe9;" horiz-adv-x="925" 
d="M545 274q85 0 188 25q35 8 52 -5q18 -14 12 -44l-29 -164q-6 -32 -23 -48t-47 -26q-94 -28 -223 -28q-223 0 -327 84q-103 84 -103 288q0 86 23 224q57 320 172 450q114 129 340 129q179 0 262 -80q82 -79 82 -250q0 -79 -19 -196l-24 -139q-7 -38 -27 -54
q-17 -14 -57 -14h-414q-4 -33 -4 -47q0 -62 36 -83q38 -22 130 -22zM545 889q-48 0 -73 -46q-24 -45 -52 -184h160l6 31q14 84 14 123q0 76 -55 76zM457 1262l78 147q18 41 63 41h264q27 0 33 -22t-14 -39l-154 -140q-38 -37 -88 -37h-154q-52 0 -28 50z" />
    <glyph glyph-name="ecircumflex" unicode="&#xea;" horiz-adv-x="925" 
d="M545 274q85 0 188 25q35 8 52 -5q18 -14 12 -44l-29 -164q-6 -32 -23 -48t-47 -26q-94 -28 -223 -28q-223 0 -327 84q-103 84 -103 288q0 86 23 224q57 320 172 450q114 129 340 129q179 0 262 -80q82 -79 82 -250q0 -79 -19 -196l-24 -139q-7 -38 -27 -54
q-17 -14 -57 -14h-414q-4 -33 -4 -47q0 -62 36 -83q38 -22 130 -22zM545 889q-48 0 -73 -46q-24 -45 -52 -184h160l6 31q14 84 14 123q0 76 -55 76zM662 1253l-46 68l-69 -68q-39 -41 -84 -41h-144q-28 0 -34 21q-6 20 18 41l184 147q35 29 74 29h139q45 0 74 -29l131 -147
q18 -21 9 -41q-9 -21 -37 -21h-136q-52 0 -79 41z" />
    <glyph glyph-name="edieresis" unicode="&#xeb;" horiz-adv-x="925" 
d="M545 274q85 0 188 25q35 8 52 -5q18 -14 12 -44l-29 -164q-6 -32 -23 -48t-47 -26q-94 -28 -223 -28q-223 0 -327 84q-103 84 -103 288q0 86 23 224q57 320 172 450q114 129 340 129q179 0 262 -80q82 -79 82 -250q0 -79 -19 -196l-24 -139q-7 -38 -27 -54
q-17 -14 -57 -14h-414q-4 -33 -4 -47q0 -62 36 -83q38 -22 130 -22zM545 889q-48 0 -73 -46q-24 -45 -52 -184h160l6 31q14 84 14 123q0 76 -55 76zM588 1395l-23 -127q-12 -56 -61 -56h-201q-61 0 -49 56l22 127q10 55 60 55h201q61 0 51 -55zM977 1395l-23 -127
q-12 -56 -61 -56h-201q-61 0 -49 56l23 127q10 55 59 55h201q61 0 51 -55z" />
    <glyph glyph-name="igrave" unicode="&#xec;" horiz-adv-x="479" 
d="M522 1083l-180 -1024q-12 -59 -66 -59h-229q-65 0 -53 59l180 1024q8 60 66 60h229q61 0 53 -60zM479 1409l25 -147q11 -50 -41 -50h-141q-52 0 -80 37l-117 140q-14 17 -5 39t36 22h264q53 0 59 -41z" />
    <glyph glyph-name="iacute" unicode="&#xed;" horiz-adv-x="479" 
d="M522 1083l-180 -1024q-12 -59 -66 -59h-229q-65 0 -53 59l180 1024q8 60 66 60h229q61 0 53 -60zM254 1262l78 147q18 41 63 41h264q27 0 33 -22t-14 -39l-154 -140q-38 -37 -88 -37h-153q-53 0 -29 50z" />
    <glyph glyph-name="icircumflex" unicode="&#xee;" horiz-adv-x="479" 
d="M522 1083l-180 -1024q-12 -59 -66 -59h-229q-65 0 -53 59l180 1024q8 60 66 60h229q61 0 53 -60zM438 1253l-45 68l-69 -68q-39 -41 -84 -41h-144q-29 0 -35 21q-6 20 19 41l184 147q35 29 74 29h139q45 0 74 -29l131 -147q18 -21 9 -41q-9 -21 -38 -21h-135
q-53 0 -80 41z" />
    <glyph glyph-name="idieresis" unicode="&#xef;" horiz-adv-x="479" 
d="M522 1083l-180 -1024q-12 -59 -66 -59h-229q-65 0 -53 59l180 1024q8 60 66 60h229q61 0 53 -60zM365 1395l-23 -127q-12 -56 -61 -56h-201q-61 0 -49 56l22 127q7 55 60 55h200q59 0 52 -55zM754 1395l-23 -127q-12 -56 -61 -56h-201q-61 0 -49 56l22 127q7 55 60 55
h200q59 0 52 -55z" />
    <glyph glyph-name="eth" unicode="&#xf0;" horiz-adv-x="966" 
d="M961 1196h-43q40 -145 40 -324q0 -145 -28 -309q-57 -317 -174 -448t-344 -131q-186 0 -278 84q-91 84 -91 276q0 86 23 219q56 317 163 448q108 132 295 132q94 0 133 -27q-1 36 -18 80h-205q-52 0 -45 51l12 74q7 51 58 51h90l-29 37q-11 11 -6 26q4 15 27 15h213
q43 0 61 -27q17 -23 33 -51h137q53 0 45 -51l-12 -74q-8 -51 -57 -51zM449 283q48 0 72 54t54 226q27 156 27 207q0 40 -12 57t-43 17q-49 0 -73 -54t-54 -227q-27 -156 -27 -207q0 -39 13 -57q12 -16 43 -16z" />
    <glyph glyph-name="ntilde" unicode="&#xf1;" horiz-adv-x="950" 
d="M950 815l-133 -756q-12 -59 -65 -59h-230q-65 0 -53 59l115 660q8 53 8 61q0 47 -39 47q-46 0 -69 -35t-40 -122l-106 -611q-12 -59 -66 -59h-229q-65 0 -53 59l180 1024q8 60 66 60h200q67 0 68 -49l2 -33q94 98 223 98q113 0 171 -64t58 -182q0 -48 -8 -98zM952 1370
q-15 -89 -51 -125q-37 -37 -115 -37q-87 0 -149 27l-45 18q-84 30 -107 0l-4 -10q-17 -31 -53 -31h-78q-58 0 -41 80q17 88 53 125q37 37 115 37q87 0 148 -27l45 -18q85 -33 106 0l6 10q17 31 52 31h77q58 0 41 -80z" />
    <glyph glyph-name="ograve" unicode="&#xf2;" horiz-adv-x="966" 
d="M418 -16q227 0 344 131t174 456q20 111 20 220q0 196 -92 282t-280 86q-227 0 -343 -131t-173 -457q-23 -133 -23 -221q0 -195 92 -281q91 -85 281 -85zM451 283q-32 0 -43 17q-13 20 -13 60q0 66 27 211q30 175 56 233q25 56 75 56q32 0 43 -17q12 -18 12 -61
q0 -71 -26 -211q-29 -169 -57 -232q-25 -56 -74 -56zM743 1409l25 -147q11 -50 -41 -50h-141q-52 0 -80 37l-117 140q-14 17 -5 39t36 22h264q53 0 59 -41z" />
    <glyph glyph-name="oacute" unicode="&#xf3;" horiz-adv-x="966" 
d="M418 -16q227 0 344 131t174 456q20 111 20 220q0 196 -92 282t-280 86q-227 0 -343 -131t-173 -457q-23 -133 -23 -221q0 -195 92 -281q91 -85 281 -85zM451 283q-32 0 -43 17q-13 20 -13 60q0 66 27 211q30 175 56 233q25 56 75 56q32 0 43 -17q12 -18 12 -61
q0 -71 -26 -211q-29 -169 -57 -232q-25 -56 -74 -56zM477 1262l78 147q18 41 63 41h265q26 0 32 -22t-14 -39l-153 -140q-38 -37 -89 -37h-153q-53 0 -29 50z" />
    <glyph glyph-name="ocircumflex" unicode="&#xf4;" horiz-adv-x="966" 
d="M418 -16q227 0 344 131t174 456q20 111 20 220q0 196 -92 282t-280 86q-227 0 -343 -131t-173 -457q-23 -133 -23 -221q0 -195 92 -281q91 -85 281 -85zM451 283q-32 0 -43 17q-13 20 -13 60q0 66 27 211q30 175 56 233q25 56 75 56q32 0 43 -17q12 -18 12 -61
q0 -71 -26 -211q-29 -169 -57 -232q-25 -56 -74 -56zM682 1253l-45 68l-70 -68q-39 -41 -84 -41h-143q-29 0 -35 21q-6 20 19 41l184 147q35 29 74 29h139q45 0 74 -29l131 -147q18 -21 9 -41q-9 -21 -38 -21h-135q-53 0 -80 41z" />
    <glyph glyph-name="otilde" unicode="&#xf5;" horiz-adv-x="966" 
d="M418 -16q-190 0 -281 85q-92 86 -92 281q0 88 23 221q57 326 173 457t343 131q188 0 280 -86t92 -282q0 -109 -20 -220q-57 -325 -174 -456t-344 -131zM451 283q49 0 74 56q28 63 57 232q26 140 26 211q0 43 -12 61q-11 17 -43 17q-50 0 -75 -56q-26 -58 -56 -233
q-27 -146 -27 -211q0 -40 13 -60q11 -17 43 -17zM961 1370q-15 -88 -52 -125t-114 -37q-89 0 -150 27l-45 18q-84 30 -106 0l-5 -10q-17 -31 -53 -31h-78q-58 0 -41 80q16 87 54 125q37 37 114 37q86 0 148 -27l45 -18q85 -33 106 0l7 10q17 31 51 31h78q58 0 41 -80z" />
    <glyph glyph-name="odieresis" unicode="&#xf6;" horiz-adv-x="966" 
d="M418 -16q227 0 344 131t174 456q20 111 20 220q0 196 -92 282t-280 86q-227 0 -343 -131t-173 -457q-23 -133 -23 -221q0 -195 92 -281q91 -85 281 -85zM451 283q-32 0 -43 17q-13 20 -13 60q0 66 27 211q30 175 56 233q25 56 75 56q32 0 43 -17q12 -18 12 -61
q0 -71 -26 -211q-29 -169 -57 -232q-25 -56 -74 -56zM608 1395l-22 -127q-12 -56 -62 -56h-200q-62 0 -50 56l23 127q10 55 59 55h201q61 0 51 -55zM997 1395l-22 -127q-12 -56 -62 -56h-200q-61 0 -49 56l22 127q10 55 59 55h201q61 0 51 -55z" />
    <glyph glyph-name="divide" unicode="&#xf7;" horiz-adv-x="1036" 
d="M891 586h-696q-61 0 -54 59l29 160q7 59 66 59h696q60 0 53 -59l-29 -160q-7 -59 -65 -59zM305 236l35 196q10 66 72 66h213q69 0 59 -66l-35 -196q-12 -66 -74 -66h-213q-69 0 -57 66zM442 1018l35 196q12 66 74 66h213q69 0 57 -66l-35 -196q-12 -66 -73 -66h-213
q-70 0 -58 66z" />
    <glyph glyph-name="oslash" unicode="&#xf8;" horiz-adv-x="974" 
d="M422 -16q-188 0 -272 77l-46 -51q-37 -40 -65 -14l-39 33q-32 30 -2 63l76 86q-25 75 -25 172q0 88 23 221q57 326 173 457t343 131q183 0 272 -80l45 51q22 27 32 30t34 -15l39 -33q22 -21 22 -30q0 -10 -20 -33l-76 -86q25 -72 25 -172q0 -103 -21 -220
q-57 -325 -174 -456t-344 -131zM426 571q-2 -6 -2 -8l188 215v4q0 43 -12 61q-11 17 -43 17q-50 0 -75 -56q-26 -58 -56 -233zM455 283q49 0 74 56q28 63 57 232v2l2 5l-189 -216v-2q0 -40 13 -60q11 -17 43 -17z" />
    <glyph glyph-name="ugrave" unicode="&#xf9;" horiz-adv-x="950" 
d="M31 301l139 782q8 60 66 60h229q61 0 53 -60l-115 -651q-6 -38 -6 -61q0 -56 43 -56t64 32q20 29 35 114l110 622q7 60 66 60h229q60 0 53 -60l-180 -1024q-12 -59 -65 -59h-201q-67 0 -68 49l-2 33q-24 -24 -52 -48q-19 -17 -62 -34q-39 -16 -93 -16q-251 0 -251 233
q0 18 8 84zM735 1409l25 -147q11 -50 -41 -50h-141q-52 0 -80 37l-117 140q-14 17 -5 39t36 22h264q53 0 59 -41z" />
    <glyph glyph-name="uacute" unicode="&#xfa;" horiz-adv-x="950" 
d="M31 301l139 782q8 60 66 60h229q61 0 53 -60l-115 -651q-6 -38 -6 -61q0 -56 43 -56t64 32q20 29 35 114l110 622q7 60 66 60h229q60 0 53 -60l-180 -1024q-12 -59 -65 -59h-201q-67 0 -68 49l-2 33q-24 -24 -52 -48q-19 -17 -62 -34q-39 -16 -93 -16q-251 0 -251 233
q0 18 8 84zM469 1262l78 147q18 41 63 41h264q27 0 33 -22t-14 -39l-154 -140q-38 -37 -88 -37h-153q-53 0 -29 50z" />
    <glyph glyph-name="ucircumflex" unicode="&#xfb;" horiz-adv-x="950" 
d="M31 301l139 782q8 60 66 60h229q61 0 53 -60l-115 -651q-6 -38 -6 -61q0 -56 43 -56t64 32q20 29 35 114l110 622q7 60 66 60h229q60 0 53 -60l-180 -1024q-12 -59 -65 -59h-201q-67 0 -68 49l-2 33q-24 -24 -52 -48q-19 -17 -62 -34q-39 -16 -93 -16q-251 0 -251 233
q0 18 8 84zM674 1253l-45 68l-70 -68q-39 -41 -84 -41h-143q-29 0 -35 21q-6 20 18 41l185 147q35 29 73 29h140q44 0 73 -29l131 -147q18 -21 10 -41q-9 -21 -38 -21h-135q-53 0 -80 41z" />
    <glyph glyph-name="udieresis" unicode="&#xfc;" horiz-adv-x="950" 
d="M31 301l139 782q8 60 66 60h229q61 0 53 -60l-115 -651q-6 -38 -6 -61q0 -56 43 -56t64 32q20 29 35 114l110 622q7 60 66 60h229q60 0 53 -60l-180 -1024q-12 -59 -65 -59h-201q-67 0 -68 49l-2 33q-24 -24 -52 -48q-19 -17 -62 -34q-39 -16 -93 -16q-251 0 -251 233
q0 18 8 84zM600 1395l-22 -127q-12 -56 -62 -56h-201q-61 0 -49 56l23 127q10 55 59 55h201q61 0 51 -55zM989 1395l-22 -127q-12 -56 -62 -56h-200q-62 0 -50 56l23 127q10 55 59 55h201q61 0 51 -55z" />
    <glyph glyph-name="yacute" unicode="&#xfd;" horiz-adv-x="897" 
d="M983 1077l-365 -1011q-62 -173 -148 -237q-88 -65 -277 -65q-167 0 -218 17q-41 16 -34 59l32 185q7 59 70 59q4 0 36 -2t34 -2q77 0 71 90l-57 907q-5 66 51 66h242q66 0 61 -64l-20 -452l-12 -201h8l47 201l112 452q18 64 74 64h254q63 0 39 -66zM463 1262l78 147
q18 41 63 41h264q27 0 33 -22t-14 -39l-154 -140q-38 -37 -88 -37h-153q-53 0 -29 50z" />
    <glyph glyph-name="thorn" unicode="&#xfe;" horiz-adv-x="1009" 
d="M293 1450h229q65 0 53 -59l-55 -320q84 88 207 88q135 0 206 -77t71 -257q0 -113 -27 -254q-57 -318 -154 -454q-96 -133 -264 -133q-76 0 -135 23q-63 24 -84 50l-39 -223q-7 -59 -65 -59h-230q-60 0 -53 59l274 1557q12 59 66 59zM430 571q-20 -103 -20 -176
q0 -108 69 -108q53 0 82 59q34 67 62 225q20 111 20 187q0 56 -15 77t-48 21q-53 0 -87 -61t-63 -224z" />
    <glyph glyph-name="ydieresis" unicode="&#xff;" horiz-adv-x="897" 
d="M983 1077l-365 -1011q-62 -173 -148 -237q-88 -65 -277 -65q-167 0 -218 17q-41 16 -34 59l32 185q7 59 70 59q4 0 36 -2t34 -2q77 0 71 90l-57 907q-5 66 51 66h242q66 0 61 -64l-20 -452l-12 -201h8l47 201l112 452q18 64 74 64h254q63 0 39 -66zM573 1395l-22 -127
q-12 -56 -62 -56h-200q-61 0 -49 56l22 127q7 55 60 55h200q58 0 51 -55zM963 1395l-23 -127q-12 -56 -61 -56h-201q-61 0 -49 56l22 127q7 55 60 55h200q59 0 52 -55z" />
    <glyph glyph-name="Amacron" unicode="&#x100;" horiz-adv-x="1073" 
d="M481 569h160l14 516h-8zM510 1450h389q86 0 86 -72l-8 -1306q0 -72 -66 -72h-245q-34 0 -50 16t-14 47l4 179h-209l-57 -179q-11 -32 -28 -49q-14 -14 -48 -14h-258q-35 0 -48 19t-1 53l451 1306q27 72 102 72zM997 1520h-544q-55 0 -47 53l18 102q8 54 57 54h545
q57 0 49 -54l-18 -102q-8 -53 -60 -53z" />
    <glyph glyph-name="amacron" unicode="&#x101;" horiz-adv-x="888" 
d="M889 821l-133 -762q-12 -59 -66 -59h-168q-66 0 -67 49l-2 33q-92 -92 -215 -92q-105 0 -171 63q-67 64 -67 193q0 238 134 346q135 110 405 117l10 65q8 48 -12 65t-80 17q-46 0 -85 -7q-49 -9 -86 -19q-40 -11 -48 -11q-38 -6 -54 4t-10 43l33 187q7 50 61 65
q115 37 273 37q187 0 272 -55q86 -56 86 -182q0 -43 -10 -97zM481 391l21 115q-90 -2 -126 -54q-36 -53 -36 -145q0 -59 51 -59q42 0 60 35t30 108zM854 1229h-545q-55 0 -47 53l19 102q8 54 57 54h545q57 0 49 -54l-19 -102q-8 -53 -59 -53z" />
    <glyph glyph-name="Abreve" unicode="&#x102;" horiz-adv-x="1073" 
d="M481 569h160l14 516h-8zM510 1450h389q86 0 86 -72l-8 -1306q0 -72 -66 -72h-245q-34 0 -50 16t-14 47l4 179h-209l-57 -179q-11 -32 -28 -49q-14 -14 -48 -14h-258q-35 0 -48 19t-1 53l451 1306q27 72 102 72zM733 1516q-146 0 -220 56q-75 57 -60 142q7 43 45 43h125
q25 0 36 -9t9 -28q-4 -30 14 -45q17 -14 66 -14q48 0 68 13q22 14 32 46q7 37 49 37h125q44 0 37 -43q-15 -88 -98 -143t-228 -55z" />
    <glyph glyph-name="abreve" unicode="&#x103;" horiz-adv-x="888" 
d="M889 821l-133 -762q-12 -59 -66 -59h-168q-66 0 -67 49l-2 33q-92 -92 -215 -92q-105 0 -171 63q-67 64 -67 193q0 238 134 346q135 110 405 117l10 65q8 48 -12 65t-80 17q-46 0 -85 -7q-49 -9 -86 -19q-40 -11 -48 -11q-38 -6 -54 4t-10 43l33 187q7 50 61 65
q115 37 273 37q187 0 272 -55q86 -56 86 -182q0 -43 -10 -97zM481 391l21 115q-90 -2 -126 -54q-36 -53 -36 -145q0 -59 51 -59q42 0 60 35t30 108zM592 1208q-148 0 -224 57q-77 58 -61 142q6 43 47 43h125q23 0 33 -9t8 -28q-1 -33 16 -46t64 -13q85 0 100 59q7 37 54 37
h125q40 0 34 -43q-16 -88 -97 -143q-82 -56 -224 -56z" />
    <glyph glyph-name="Aogonek" unicode="&#x104;" horiz-adv-x="1073" 
d="M510 1450h389q86 0 86 -72l-8 -1306q0 -72 -66 -72q-100 -73 -100 -125q0 -29 39 -29q5 0 35 6q25 5 33 5q20 0 18 -23l-2 -80q0 -37 -35 -49q-63 -24 -123 -24q-180 0 -180 122q0 115 156 197h-86q-34 0 -50 16t-14 47l4 179h-209l-57 -179q-11 -32 -28 -49
q-14 -14 -48 -14h-258q-35 0 -48 19t-1 53l451 1306q27 72 102 72zM481 569h160l14 516h-8z" />
    <glyph glyph-name="aogonek" unicode="&#x105;" horiz-adv-x="888" 
d="M889 821l-133 -762q-12 -57 -60 -59q-98 -76 -98 -121q0 -24 33 -24q15 0 31 4t28 4q19 0 19 -23l-2 -80q-1 -32 -35 -49q-44 -22 -111 -22q-178 0 -178 110q0 109 160 201h-21q-66 0 -67 49l-2 33q-92 -92 -215 -92q-105 0 -171 63q-67 64 -67 193q0 238 134 346
q135 110 405 117l10 65q8 48 -12 65t-80 17q-46 0 -85 -7q-49 -9 -86 -19q-40 -11 -48 -11q-38 -6 -54 4t-10 43l33 187q7 50 61 65q115 37 273 37q187 0 272 -55q86 -56 86 -182q0 -43 -10 -97zM481 391l21 115q-90 -2 -126 -54q-36 -53 -36 -145q0 -59 51 -59q42 0 60 35
t30 108z" />
    <glyph glyph-name="Cacute" unicode="&#x106;" horiz-adv-x="921" 
d="M643 319q65 0 127 13q39 6 54 -7q16 -14 10 -49l-35 -196q-6 -36 -24 -53q-20 -18 -52 -25q-98 -22 -195 -22q-241 0 -349 87q-107 86 -107 326q0 126 35 338q41 229 93 372q53 143 133 225q82 83 180 113q96 29 251 29q95 0 201 -20q64 -8 53 -78l-35 -198
q-12 -68 -84 -56q-57 12 -119 12q-137 0 -191 -73q-55 -75 -100 -326q-28 -164 -28 -246q0 -98 40 -132t142 -34zM573 1569l76 147q23 41 66 41h264q27 0 33 -21t-17 -40l-151 -140q-42 -36 -90 -36h-154q-25 0 -32 14t5 35z" />
    <glyph glyph-name="cacute" unicode="&#x107;" horiz-adv-x="753" 
d="M80 575q56 318 178 451q123 133 338 133q118 0 184 -24q24 -7 34 -21q9 -13 5 -41l-37 -205q-7 -48 -67 -41q-80 13 -92 13q-84 0 -122 -52q-39 -53 -67 -213q-18 -101 -18 -157q0 -68 26 -91q27 -24 88 -24q20 0 99 12q32 4 45 -5q12 -9 8 -36l-37 -204q-5 -30 -17 -41
q-16 -14 -42 -21q-74 -24 -174 -24q-177 0 -266 86t-89 282q0 85 23 223zM391 1262l78 147q18 41 63 41h265q26 0 32 -22t-14 -39l-154 -140q-38 -37 -88 -37h-153q-53 0 -29 50z" />
    <glyph glyph-name="Ccircumflex" unicode="&#x108;" horiz-adv-x="921" 
d="M643 319q65 0 127 13q39 6 54 -7q16 -14 10 -49l-35 -196q-6 -36 -24 -53q-20 -18 -52 -25q-98 -22 -195 -22q-241 0 -349 87q-107 86 -107 326q0 126 35 338q41 229 93 372q53 143 133 225q82 83 180 113q96 29 251 29q95 0 201 -20q64 -8 53 -78l-35 -198
q-12 -68 -84 -56q-57 12 -119 12q-137 0 -191 -73q-55 -75 -100 -326q-28 -164 -28 -246q0 -98 40 -132t142 -34zM768 1561l-45 67l-70 -67q-41 -41 -86 -41h-143q-30 0 -34 20t20 41l182 148q38 28 76 28h139q48 0 72 -28l133 -148q16 -21 6 -41t-37 -20h-135q-54 0 -78 41
z" />
    <glyph glyph-name="ccircumflex" unicode="&#x109;" horiz-adv-x="753" 
d="M80 575q56 318 178 451q123 133 338 133q118 0 184 -24q24 -7 34 -21q9 -13 5 -41l-37 -205q-7 -48 -67 -41q-80 13 -92 13q-84 0 -122 -52q-39 -53 -67 -213q-18 -101 -18 -157q0 -68 26 -91q27 -24 88 -24q20 0 99 12q32 4 45 -5q12 -9 8 -36l-37 -204q-5 -30 -17 -41
q-16 -14 -42 -21q-74 -24 -174 -24q-177 0 -266 86t-89 282q0 85 23 223zM604 1253l-45 68l-70 -68q-39 -41 -84 -41h-143q-29 0 -35 21q-6 20 19 41l184 147q35 29 74 29h139q45 0 74 -29l131 -147q18 -21 9 -41q-9 -21 -38 -21h-135q-53 0 -80 41z" />
    <glyph glyph-name="Cdotaccent" unicode="&#x10a;" horiz-adv-x="921" 
d="M643 319q65 0 127 13q39 6 54 -7q16 -14 10 -49l-35 -196q-6 -36 -24 -53q-20 -18 -52 -25q-98 -22 -195 -22q-241 0 -349 87q-107 86 -107 326q0 126 35 338q41 229 93 372q53 143 133 225q82 83 180 113q96 29 251 29q95 0 201 -20q64 -8 53 -78l-35 -198
q-12 -68 -84 -56q-57 12 -119 12q-137 0 -191 -73q-55 -75 -100 -326q-28 -164 -28 -246q0 -98 40 -132t142 -34zM918 1698l-23 -119q-7 -59 -66 -59h-237q-60 0 -53 59l22 119q7 59 66 59h237q61 0 54 -59z" />
    <glyph glyph-name="cdotaccent" unicode="&#x10b;" horiz-adv-x="753" 
d="M80 575q56 318 178 451q123 133 338 133q118 0 184 -24q24 -7 34 -21q9 -13 5 -41l-37 -205q-7 -48 -67 -41q-80 13 -92 13q-84 0 -122 -52q-39 -53 -67 -213q-18 -101 -18 -157q0 -68 26 -91q27 -24 88 -24q20 0 99 12q32 4 45 -5q12 -9 8 -36l-37 -204q-5 -30 -17 -41
q-16 -14 -42 -21q-74 -24 -174 -24q-177 0 -266 86t-89 282q0 85 23 223zM786 1391l-20 -119q-12 -60 -66 -60h-237q-65 0 -53 60l20 119q12 59 66 59h237q65 0 53 -59z" />
    <glyph glyph-name="Ccaron" unicode="&#x10c;" horiz-adv-x="921" 
d="M643 319q65 0 127 13q39 6 54 -7q16 -14 10 -49l-35 -196q-6 -36 -24 -53q-20 -18 -52 -25q-98 -22 -195 -22q-241 0 -349 87q-107 86 -107 326q0 126 35 338q41 229 93 372q53 143 133 225q82 83 180 113q96 29 251 29q95 0 201 -20q64 -8 53 -78l-35 -198
q-12 -68 -84 -56q-57 12 -119 12q-137 0 -191 -73q-55 -75 -100 -326q-28 -164 -28 -246q0 -98 40 -132t142 -34zM717 1649l69 67q41 41 86 41h144q30 0 34 -20t-20 -41l-182 -148q-38 -28 -76 -28h-139q-48 0 -72 28l-133 148q-16 21 -6 41t37 20h135q54 0 78 -41z" />
    <glyph glyph-name="ccaron" unicode="&#x10d;" horiz-adv-x="753" 
d="M80 575q56 318 178 451q123 133 338 133q118 0 184 -24q24 -7 34 -21q9 -13 5 -41l-37 -205q-7 -48 -67 -41q-80 13 -92 13q-84 0 -122 -52q-39 -53 -67 -213q-18 -101 -18 -157q0 -68 26 -91q27 -24 88 -24q20 0 99 12q32 4 45 -5q12 -9 8 -36l-37 -204q-5 -30 -17 -41
q-16 -14 -42 -21q-74 -24 -174 -24q-177 0 -266 86t-89 282q0 85 23 223zM555 1341l70 68q39 41 84 41h143q29 0 35 -20t-19 -41l-184 -148q-35 -29 -74 -29h-139q-45 0 -74 29l-131 148q-18 21 -9 41t38 20h135q53 0 80 -41z" />
    <glyph glyph-name="Dcaron" unicode="&#x10e;" horiz-adv-x="1077" 
d="M410 0h-353q-67 0 -55 66l234 1318q10 66 75 66h320q239 0 352 -99t113 -347q0 -106 -27 -279q-68 -412 -218 -568q-151 -157 -441 -157zM596 1110h-33l-135 -770h41q87 0 131 74q42 71 86 311q27 153 27 240q0 83 -28 114t-89 31zM741 1649l70 67q41 41 86 41h143
q30 0 34 -20q4 -21 -19 -41l-183 -148q-38 -28 -75 -28h-140q-47 0 -71 28l-133 148q-17 21 -7 41t37 20h135q54 0 78 -41z" />
    <glyph glyph-name="dcaron" unicode="&#x10f;" horiz-adv-x="1349" 
d="M616 571q21 127 21 177q0 62 -17 85t-55 23q-53 0 -83 -58q-29 -57 -58 -227q-23 -121 -23 -190q0 -52 16 -74q14 -20 48 -20q53 0 87 60q34 58 64 224zM539 49l-2 33q-29 -37 -92 -69q-58 -29 -132 -29q-133 0 -201 74q-69 75 -69 255q0 113 27 258q56 323 152 455
q97 133 267 133q77 0 135 -23q60 -24 81 -51l53 306q12 59 65 59h230q65 0 53 -59l-234 -1332q-12 -59 -65 -59h-201q-66 0 -67 49zM1456 1157l-147 -211q-27 -41 -62 -41h-90q-23 0 -30 15q-6 13 6 36l112 187h-53q-69 0 -57 65l38 217q11 66 72 66h213q70 0 60 -66
l-35 -192q-6 -43 -27 -76z" />
    <glyph glyph-name="Dcroat" unicode="&#x110;" horiz-adv-x="1081" 
d="M414 0h-353q-67 0 -55 66l98 559h-16q-55 0 -47 53l16 94q8 53 60 53h24l99 559q10 66 75 66h320q240 0 352 -99q113 -99 113 -347q0 -106 -27 -279q-68 -412 -218 -568q-151 -157 -441 -157zM600 1110h-33l-51 -285h72q55 0 47 -53l-17 -94q-8 -53 -59 -53h-78l-49 -285
h41q87 0 131 74q42 71 86 311q27 153 27 240q0 83 -28 114t-89 31z" />
    <glyph glyph-name="dcroat" unicode="&#x111;" horiz-adv-x="1009" 
d="M539 49l-2 33q-29 -37 -92 -69q-58 -29 -132 -29q-133 0 -201 74q-69 75 -69 255q0 113 27 258q56 323 152 455q97 133 267 133q77 0 135 -23q60 -24 81 -51l18 111h-160q-49 0 -41 51l13 74q7 51 61 51h158l4 19q12 59 65 59h230q65 0 53 -59l-4 -19h20q48 0 41 -51
l-12 -74q-7 -51 -61 -51h-19l-199 -1137q-12 -59 -65 -59h-201q-66 0 -67 49zM616 571q21 127 21 177q0 62 -17 85t-55 23q-53 0 -83 -58q-29 -57 -58 -227q-23 -121 -23 -190q0 -52 16 -74q14 -20 48 -20q53 0 87 60q34 58 64 224z" />
    <glyph glyph-name="Emacron" unicode="&#x112;" horiz-adv-x="913" 
d="M788 571h-323l-41 -227h344q69 0 57 -65l-37 -213q-12 -66 -71 -66h-656q-71 0 -59 66l234 1318q10 66 71 66h647q70 0 60 -66l-39 -213q-10 -65 -72 -65h-344l-37 -203h316q69 0 59 -65l-37 -201q-10 -66 -72 -66zM938 1520h-545q-55 0 -47 53l19 102q8 54 57 54h545
q57 0 49 -54l-19 -102q-8 -53 -59 -53z" />
    <glyph glyph-name="emacron" unicode="&#x113;" horiz-adv-x="925" 
d="M545 274q85 0 188 25q35 8 52 -5q18 -14 12 -44l-29 -164q-6 -32 -23 -48t-47 -26q-94 -28 -223 -28q-223 0 -327 84q-103 84 -103 288q0 86 23 224q57 320 172 450q114 129 340 129q179 0 262 -80q82 -79 82 -250q0 -79 -19 -196l-24 -139q-7 -38 -27 -54
q-17 -14 -57 -14h-414q-4 -33 -4 -47q0 -62 36 -83q38 -22 130 -22zM545 889q-48 0 -73 -46q-24 -45 -52 -184h160l6 31q14 84 14 123q0 76 -55 76zM881 1229h-545q-55 0 -47 53l18 102q8 54 58 54h544q57 0 49 -54l-18 -102q-8 -53 -59 -53z" />
    <glyph glyph-name="Ebreve" unicode="&#x114;" horiz-adv-x="913" 
d="M788 571h-323l-41 -227h344q69 0 57 -65l-37 -213q-12 -66 -71 -66h-656q-71 0 -59 66l234 1318q10 66 71 66h647q70 0 60 -66l-39 -213q-10 -65 -72 -65h-344l-37 -203h316q69 0 59 -65l-37 -201q-10 -66 -72 -66zM674 1516q-146 0 -220 56q-76 58 -61 142q7 43 45 43
h125q27 0 37 -9q10 -8 8 -28q-4 -29 15 -45q17 -14 65 -14q49 0 69 13q21 13 31 46q5 22 15 29q11 8 35 8h125q43 0 36 -43q-15 -88 -98 -143t-227 -55z" />
    <glyph glyph-name="ebreve" unicode="&#x115;" horiz-adv-x="925" 
d="M545 274q85 0 188 25q35 8 52 -5q18 -14 12 -44l-29 -164q-6 -32 -23 -48t-47 -26q-94 -28 -223 -28q-223 0 -327 84q-103 84 -103 288q0 86 23 224q57 320 172 450q114 129 340 129q179 0 262 -80q82 -79 82 -250q0 -79 -19 -196l-24 -139q-7 -38 -27 -54
q-17 -14 -57 -14h-414q-4 -33 -4 -47q0 -62 36 -83q38 -22 130 -22zM545 889q-48 0 -73 -46q-24 -45 -52 -184h160l6 31q14 84 14 123q0 76 -55 76zM618 1208q-148 0 -224 57t-60 142q6 43 47 43h125q25 0 34 -9t7 -28q-2 -34 15 -46q17 -13 65 -13q85 0 100 59q10 37 53 37
h125q41 0 35 -43q-16 -88 -97 -143q-82 -56 -225 -56z" />
    <glyph glyph-name="Edotaccent" unicode="&#x116;" horiz-adv-x="913" 
d="M788 571h-323l-41 -227h344q69 0 57 -65l-37 -213q-12 -66 -71 -66h-656q-71 0 -59 66l234 1318q10 66 71 66h647q70 0 60 -66l-39 -213q-10 -65 -72 -65h-344l-37 -203h316q69 0 59 -65l-37 -201q-10 -66 -72 -66zM881 1698l-23 -119q-7 -59 -65 -59h-238q-60 0 -53 59
l22 119q7 59 66 59h237q61 0 54 -59z" />
    <glyph glyph-name="edotaccent" unicode="&#x117;" horiz-adv-x="925" 
d="M545 274q85 0 188 25q35 8 52 -5q18 -14 12 -44l-29 -164q-6 -32 -23 -48t-47 -26q-94 -28 -223 -28q-223 0 -327 84q-103 84 -103 288q0 86 23 224q57 320 172 450q114 129 340 129q179 0 262 -80q82 -79 82 -250q0 -79 -19 -196l-24 -139q-7 -38 -27 -54
q-17 -14 -57 -14h-414q-4 -33 -4 -47q0 -62 36 -83q38 -22 130 -22zM545 889q-48 0 -73 -46q-24 -45 -52 -184h160l6 31q14 84 14 123q0 76 -55 76zM811 1391l-20 -119q-12 -60 -66 -60h-238q-65 0 -53 60l21 119q12 59 65 59h238q65 0 53 -59z" />
    <glyph glyph-name="Eogonek" unicode="&#x118;" horiz-adv-x="913" 
d="M788 571h-323l-41 -227h344q69 0 57 -65l-37 -213q-12 -65 -67 -66q-100 -73 -100 -125q0 -29 38 -29q5 0 35 6q25 5 33 5q20 0 18 -23l-2 -80q0 -37 -34 -49q-66 -24 -123 -24q-180 0 -180 122q0 115 155 197h-500q-71 0 -59 66l234 1318q10 66 71 66h647q70 0 60 -66
l-39 -213q-10 -65 -72 -65h-344l-37 -203h316q69 0 59 -65l-37 -201q-10 -66 -72 -66z" />
    <glyph glyph-name="eogonek" unicode="&#x119;" horiz-adv-x="925" 
d="M545 274q85 0 188 25q35 8 52 -5q18 -14 12 -44l-29 -164q-11 -56 -68 -74q-114 -80 -114 -133q0 -24 32 -24q15 0 31 4t29 4q18 0 18 -23l-2 -80q-1 -32 -35 -49q-44 -22 -110 -22q-178 0 -178 110q0 107 131 185h-27q-223 0 -327 84q-103 84 -103 288q0 86 23 224
q57 320 172 450q114 129 340 129q179 0 262 -80q82 -79 82 -250q0 -79 -19 -196l-24 -139q-7 -38 -27 -54q-17 -14 -57 -14h-414q-4 -33 -4 -47q0 -62 36 -83q38 -22 130 -22zM545 889q-48 0 -73 -46q-24 -45 -52 -184h160l6 31q14 84 14 123q0 76 -55 76z" />
    <glyph glyph-name="Ecaron" unicode="&#x11a;" horiz-adv-x="913" 
d="M788 571h-323l-41 -227h344q69 0 57 -65l-37 -213q-12 -66 -71 -66h-656q-71 0 -59 66l234 1318q10 66 71 66h647q70 0 60 -66l-39 -213q-10 -65 -72 -65h-344l-37 -203h316q69 0 59 -65l-37 -201q-10 -66 -72 -66zM680 1649l70 67q41 41 86 41h143q30 0 34 -20t-20 -41
l-182 -148q-38 -28 -76 -28h-139q-48 0 -72 28l-133 148q-16 21 -6 41t37 20h135q54 0 78 -41z" />
    <glyph glyph-name="ecaron" unicode="&#x11b;" horiz-adv-x="925" 
d="M545 274q85 0 188 25q35 8 52 -5q18 -14 12 -44l-29 -164q-6 -32 -23 -48t-47 -26q-94 -28 -223 -28q-223 0 -327 84q-103 84 -103 288q0 86 23 224q57 320 172 450q114 129 340 129q179 0 262 -80q82 -79 82 -250q0 -79 -19 -196l-24 -139q-7 -38 -27 -54
q-17 -14 -57 -14h-414q-4 -33 -4 -47q0 -62 36 -83q38 -22 130 -22zM545 889q-48 0 -73 -46q-24 -45 -52 -184h160l6 31q14 84 14 123q0 76 -55 76zM621 1341l69 68q39 41 84 41h144q28 0 34 -20t-18 -41l-184 -148q-35 -29 -74 -29h-139q-45 0 -74 29l-131 148
q-18 21 -9 41t37 20h136q52 0 79 -41z" />
    <glyph glyph-name="Gcircumflex" unicode="&#x11c;" horiz-adv-x="1073" 
d="M684 922h334q69 0 57 -66l-125 -709q-12 -68 -84 -106q-118 -61 -340 -61q-231 0 -342 93q-110 92 -110 343q0 142 32 315q40 224 98 371q57 144 145 226q89 83 198 113q104 29 274 29q149 0 250 -30q62 -18 51 -80l-35 -197q-15 -69 -98 -51q-99 18 -178 18
q-160 0 -217 -72q-59 -74 -105 -327q-28 -155 -28 -258q0 -99 34 -134q35 -36 109 -36q26 0 43 6l55 309h-63q-71 0 -59 66l30 172q12 66 74 66zM831 1561l-45 67l-69 -67q-41 -41 -86 -41h-144q-29 0 -33 20q-4 21 19 41l182 148q38 28 76 28h139q48 0 72 -28l133 -148
q16 -21 6 -41t-37 -20h-135q-54 0 -78 41z" />
    <glyph glyph-name="gcircumflex" unicode="&#x11d;" horiz-adv-x="962" 
d="M596 649q14 73 14 133q0 90 -55 90q-46 0 -71 -52q-25 -51 -46 -171q-16 -96 -16 -143q0 -80 53 -80q46 0 73 53q27 52 48 170zM1010 1083l-162 -917q-39 -221 -152 -314q-114 -94 -344 -94q-216 0 -295 35q-28 12 -40 27q-11 14 -5 47l29 158q10 65 82 47
q135 -31 205 -31q81 0 127 29q45 29 57 104l8 39q-74 -74 -213 -74q-128 0 -188 66t-60 213q0 90 25 231q50 281 141 395q92 115 256 115q147 0 203 -98l14 33q18 49 80 49h183q57 0 49 -60zM700 1253l-45 68l-69 -68q-39 -41 -84 -41h-144q-28 0 -34 21q-6 20 18 41
l184 147q35 29 74 29h139q45 0 74 -29l131 -147q18 -21 9 -41q-9 -21 -38 -21h-135q-53 0 -80 41z" />
    <glyph glyph-name="Gbreve" unicode="&#x11e;" horiz-adv-x="1073" 
d="M684 922h334q69 0 57 -66l-125 -709q-12 -68 -84 -106q-118 -61 -340 -61q-231 0 -342 93q-110 92 -110 343q0 142 32 315q40 224 98 371q57 144 145 226q89 83 198 113q104 29 274 29q149 0 250 -30q62 -18 51 -80l-35 -197q-15 -69 -98 -51q-99 18 -178 18
q-160 0 -217 -72q-59 -74 -105 -327q-28 -155 -28 -258q0 -99 34 -134q35 -36 109 -36q26 0 43 6l55 309h-63q-71 0 -59 66l30 172q12 66 74 66zM795 1516q-147 0 -221 56q-75 57 -60 142q7 43 45 43h125q25 0 36 -9t9 -28q-4 -30 14 -45q17 -14 66 -14t69 13q21 13 31 46
q7 37 49 37h125q44 0 37 -43q-15 -88 -98 -143t-227 -55z" />
    <glyph glyph-name="gbreve" unicode="&#x11f;" horiz-adv-x="962" 
d="M596 649q14 73 14 133q0 90 -55 90q-46 0 -71 -52q-25 -51 -46 -171q-16 -96 -16 -143q0 -80 53 -80q46 0 73 53q27 52 48 170zM1010 1083l-162 -917q-39 -221 -152 -314q-114 -94 -344 -94q-216 0 -295 35q-28 12 -40 27q-11 14 -5 47l29 158q10 65 82 47
q135 -31 205 -31q81 0 127 29q45 29 57 104l8 39q-74 -74 -213 -74q-128 0 -188 66t-60 213q0 90 25 231q50 281 141 395q92 115 256 115q147 0 203 -98l14 33q18 49 80 49h183q57 0 49 -60zM649 1208q-147 0 -224 57q-76 57 -60 142q6 43 47 43h125q23 0 33 -9t8 -28
q-2 -34 15 -46q17 -13 64 -13q86 0 101 59q7 37 53 37h125q41 0 35 -43q-16 -87 -98 -143t-224 -56z" />
    <glyph glyph-name="Gdotaccent" unicode="&#x120;" horiz-adv-x="1073" 
d="M684 922h334q69 0 57 -66l-125 -709q-12 -68 -84 -106q-118 -61 -340 -61q-231 0 -342 93q-110 92 -110 343q0 142 32 315q40 224 98 371q57 144 145 226q89 83 198 113q104 29 274 29q149 0 250 -30q62 -18 51 -80l-35 -197q-15 -69 -98 -51q-99 18 -178 18
q-160 0 -217 -72q-59 -74 -105 -327q-28 -155 -28 -258q0 -99 34 -134q35 -36 109 -36q26 0 43 6l55 309h-63q-71 0 -59 66l30 172q12 66 74 66zM985 1698l-22 -119q-7 -59 -66 -59h-238q-60 0 -53 59l23 119q7 59 65 59h238q60 0 53 -59z" />
    <glyph glyph-name="gdotaccent" unicode="&#x121;" horiz-adv-x="962" 
d="M596 649q14 73 14 133q0 90 -55 90q-46 0 -71 -52q-25 -51 -46 -171q-16 -96 -16 -143q0 -80 53 -80q46 0 73 53q27 52 48 170zM1010 1083l-162 -917q-39 -221 -152 -314q-114 -94 -344 -94q-216 0 -295 35q-28 12 -40 27q-11 14 -5 47l29 158q10 65 82 47
q135 -31 205 -31q81 0 127 29q45 29 57 104l8 39q-74 -74 -213 -74q-128 0 -188 66t-60 213q0 90 25 231q50 281 141 395q92 115 256 115q147 0 203 -98l14 33q18 49 80 49h183q57 0 49 -60zM842 1391l-21 -119q-12 -60 -65 -60h-238q-65 0 -53 60l20 119q12 59 66 59h237
q66 0 54 -59z" />
    <glyph glyph-name="Gcommaaccent" unicode="&#x122;" horiz-adv-x="1073" 
d="M684 922h334q69 0 57 -66l-125 -709q-12 -68 -84 -106q-118 -61 -340 -61q-231 0 -342 93q-110 92 -110 343q0 142 32 315q40 224 98 371q57 144 145 226q89 83 198 113q104 29 274 29q149 0 250 -30q62 -18 51 -80l-35 -197q-15 -69 -98 -51q-99 18 -178 18
q-160 0 -217 -72q-59 -74 -105 -327q-28 -155 -28 -258q0 -99 34 -134q35 -36 109 -36q26 0 43 6l55 309h-63q-71 0 -59 66l30 172q12 66 74 66zM612 -322l-123 -182q-1 -2 -6 -9l-2 -4t-2 -3l-1 -2l-2 -2q-1 -3 -3 -5t-4 -5l-2 -2q-1 -1 -3 -2t-3 -2q-5 -3 -7 -3
q-6 0 -9 -1t-11 -1h-35q-45 0 -24 51l55 158h-41q-69 0 -57 64l26 147q8 64 70 64h176q66 0 58 -64l-23 -123q-6 -41 -27 -74z" />
    <glyph glyph-name="gcommaaccent" unicode="&#x123;" horiz-adv-x="962" 
d="M596 649q14 73 14 133q0 90 -55 90q-46 0 -71 -52q-25 -51 -46 -171q-16 -96 -16 -143q0 -80 53 -80q46 0 73 53q27 52 48 170zM1010 1083l-162 -917q-39 -221 -152 -314q-114 -94 -344 -94q-216 0 -295 35q-28 12 -40 27q-11 14 -5 47l29 158q10 65 82 47
q135 -31 205 -31q81 0 127 29q45 29 57 104l8 39q-74 -74 -213 -74q-128 0 -188 66t-60 213q0 90 25 231q50 281 141 395q92 115 256 115q147 0 203 -98l14 33q18 49 80 49h183q57 0 49 -60zM711 1464l114 170q29 41 62 41h35q39 0 18 -51l-55 -145h43q63 0 51 -64l-25 -139
q-8 -64 -73 -64h-164q-61 0 -53 64l20 115q6 40 27 73z" />
    <glyph glyph-name="Hcircumflex" unicode="&#x124;" horiz-adv-x="1073" 
d="M551 66l88 499h-172l-88 -499q-12 -66 -72 -66h-246q-71 0 -59 66l234 1318q10 66 71 66h246q69 0 59 -66l-84 -475h172l84 475q10 66 72 66h246q70 0 59 -66l-233 -1318q-12 -66 -72 -66h-246q-71 0 -59 66zM791 1561l-46 67l-69 -67q-41 -41 -86 -41h-144q-29 0 -33 20
q-4 21 19 41l182 148q38 28 76 28h139q48 0 72 -28l133 -148q16 -21 6 -41t-36 -20h-136q-53 0 -77 41z" />
    <glyph glyph-name="hcircumflex" unicode="&#x125;" horiz-adv-x="954" 
d="M954 815l-133 -756q-12 -59 -65 -59h-230q-65 0 -53 59l115 660q8 53 8 61q0 47 -39 47q-46 0 -69 -35q-22 -33 -39 -122l-107 -611q-12 -59 -66 -59h-229q-65 0 -53 59l233 1332q12 59 66 59h229q65 0 53 -59l-53 -310q100 78 209 78q112 0 171 -65q61 -67 61 -185
q0 -42 -9 -94zM752 1561l-45 67l-70 -67q-41 -41 -86 -41h-143q-30 0 -34 20q-4 21 19 41l182 148q38 28 76 28h140q47 0 71 -28l133 -148q16 -21 6 -41t-36 -20h-136q-53 0 -77 41z" />
    <glyph glyph-name="Hbar" unicode="&#x126;" horiz-adv-x="1073" 
d="M551 66l88 499h-172l-88 -499q-12 -66 -72 -66h-246q-71 0 -59 66l180 1015h-22q-55 0 -47 52l12 73q7 51 57 51h31l23 127q10 66 71 66h246q69 0 59 -66l-22 -127h172l22 127q10 66 72 66h246q70 0 59 -66l-22 -127h22q53 0 45 -51l-12 -73q-8 -52 -55 -52h-31
l-180 -1015q-12 -66 -72 -66h-246q-71 0 -59 66zM528 909h172l31 172h-172z" />
    <glyph glyph-name="hbar" unicode="&#x127;" horiz-adv-x="954" 
d="M954 815l-133 -756q-12 -59 -65 -59h-230q-65 0 -53 59l115 660q8 53 8 61q0 47 -39 47q-46 0 -69 -35q-22 -33 -39 -122l-107 -611q-12 -59 -66 -59h-229q-65 0 -53 59l199 1137h-15q-52 0 -45 51l12 74q7 51 58 51h20l4 19q12 59 66 59h229q65 0 53 -59l-4 -19h158
q53 0 45 -51l-12 -74q-8 -51 -57 -51h-164l-19 -115q100 78 209 78q112 0 171 -65q61 -67 61 -185q0 -42 -9 -94z" />
    <glyph glyph-name="Itilde" unicode="&#x128;" horiz-adv-x="540" 
d="M10 66l234 1318q11 66 71 66h246q71 0 60 -66l-234 -1318q-12 -66 -72 -66h-245q-72 0 -60 66zM799 1677q-16 -87 -54 -125q-36 -36 -114 -36q-86 0 -150 26l-43 19q-88 30 -106 0l-6 -11q-16 -30 -54 -30h-77q-56 0 -41 79q16 89 53 125q37 37 115 37q85 0 149 -26
l43 -19q89 -30 107 0l6 10q17 31 53 31h78q29 0 39 -17t2 -63z" />
    <glyph glyph-name="itilde" unicode="&#x129;" horiz-adv-x="479" 
d="M522 1083l-180 -1024q-12 -59 -66 -59h-229q-65 0 -53 59l180 1024q8 60 66 60h229q61 0 53 -60zM713 1370q-15 -89 -51 -125q-37 -37 -115 -37q-89 0 -150 27l-45 18q-84 30 -106 0l-4 -10q-17 -31 -54 -31h-77q-58 0 -41 80q17 88 53 125q37 37 115 37q86 0 147 -27
l45 -18q86 -33 107 0l6 10q17 31 51 31h78q58 0 41 -80z" />
    <glyph glyph-name="Imacron" unicode="&#x12a;" horiz-adv-x="540" 
d="M10 66l234 1318q11 66 71 66h246q71 0 60 -66l-234 -1318q-12 -66 -72 -66h-245q-72 0 -60 66zM731 1520h-545q-55 0 -47 53l19 102q8 54 57 54h545q57 0 49 -54l-18 -102q-8 -53 -60 -53z" />
    <glyph glyph-name="imacron" unicode="&#x12b;" horiz-adv-x="479" 
d="M522 1083l-180 -1024q-12 -59 -66 -59h-229q-65 0 -53 59l180 1024q8 60 66 60h229q61 0 53 -60zM649 1229h-545q-55 0 -47 53l19 102q8 54 57 54h545q57 0 49 -54l-18 -102q-8 -53 -60 -53z" />
    <glyph glyph-name="Ibreve" unicode="&#x12c;" horiz-adv-x="540" 
d="M10 66l234 1318q11 66 71 66h246q71 0 60 -66l-234 -1318q-12 -66 -72 -66h-245q-72 0 -60 66zM467 1516q-146 0 -220 56q-76 58 -61 142q7 43 45 43h125q25 0 36 -9t9 -28q-4 -29 15 -45q17 -14 65 -14q49 0 69 13q22 14 32 46q7 37 49 37h125q44 0 37 -43
q-15 -87 -99 -143q-83 -55 -227 -55z" />
    <glyph glyph-name="ibreve" unicode="&#x12d;" horiz-adv-x="479" 
d="M522 1083l-180 -1024q-12 -59 -66 -59h-229q-65 0 -53 59l180 1024q8 60 66 60h229q61 0 53 -60zM387 1208q-148 0 -224 57q-77 58 -61 142q6 43 47 43h125q23 0 33 -9t8 -28q-1 -33 16 -46t64 -13q86 0 101 59q7 37 53 37h125q41 0 35 -43q-16 -87 -98 -143t-224 -56z
" />
    <glyph glyph-name="Iogonek" unicode="&#x12e;" horiz-adv-x="540" 
d="M10 66l234 1318q11 66 71 66h246q71 0 60 -66l-234 -1318q-12 -64 -68 -66q-100 -73 -100 -125q0 -29 39 -29q5 0 35 6q25 5 33 5q20 0 18 -23l-2 -80q0 -37 -35 -49q-66 -24 -123 -24q-180 0 -180 122q0 115 156 197h-90q-72 0 -60 66z" />
    <glyph glyph-name="iogonek" unicode="&#x12f;" horiz-adv-x="479" 
d="M522 1083l-180 -1024q-12 -59 -61 -59q-99 -76 -99 -121q0 -24 33 -24q15 0 31 4t28 4q19 0 19 -23l-2 -80q-1 -32 -35 -49q-44 -22 -111 -22q-178 0 -178 110q0 109 160 201h-80q-65 0 -53 59l180 1024q8 60 66 60h229q61 0 53 -60zM580 1391l-21 -119q-12 -60 -65 -60
h-238q-65 0 -53 60l20 119q12 59 66 59h237q66 0 54 -59z" />
    <glyph glyph-name="Idotaccent" unicode="&#x130;" horiz-adv-x="540" 
d="M10 66l234 1318q11 66 71 66h246q71 0 60 -66l-234 -1318q-12 -66 -72 -66h-245q-72 0 -60 66zM666 1698l-23 -119q-7 -59 -65 -59h-238q-60 0 -53 59l22 119q7 59 66 59h237q61 0 54 -59z" />
    <glyph glyph-name="dotlessi" unicode="&#x131;" horiz-adv-x="479" 
d="M522 1083l-180 -1024q-12 -59 -66 -59h-229q-65 0 -53 59l180 1024q8 60 66 60h229q61 0 53 -60z" />
    <glyph glyph-name="IJ" unicode="&#x132;" horiz-adv-x="1220" 
d="M10 66l234 1318q11 66 71 66h246q71 0 60 -66l-234 -1318q-12 -66 -72 -66h-245q-72 0 -60 66zM768 461l164 923q10 66 72 66h245q71 0 60 -66l-176 -995q-40 -230 -135 -314q-94 -83 -283 -83q-105 0 -172 16q-36 10 -50 29q-14 18 -8 55l37 205q11 53 68 53q12 0 39 -3
t43 -3q38 0 61 24q23 25 35 93z" />
    <glyph glyph-name="ij" unicode="&#x133;" horiz-adv-x="1007" 
d="M522 1083l-180 -1024q-12 -59 -66 -59h-229q-65 0 -53 59l180 1024q8 60 66 60h229q61 0 53 -60zM580 1391l-21 -119q-12 -60 -65 -60h-238q-65 0 -53 60l20 119q12 59 66 59h237q66 0 54 -59zM584 418l118 665q8 60 66 60h229q61 0 54 -60l-133 -753q-35 -203 -106 -273
q-70 -69 -243 -69q-87 0 -135 16q-42 16 -35 59l35 201q12 60 66 60h16q33 0 45 18q12 19 23 76zM1108 1391l-21 -119q-12 -60 -65 -60h-238q-65 0 -53 60l21 119q12 59 65 59h238q65 0 53 -59z" />
    <glyph glyph-name="Jcircumflex" unicode="&#x134;" horiz-adv-x="696" 
d="M244 461l164 923q10 66 71 66h246q69 0 59 -66l-176 -995q-41 -231 -134 -314q-94 -83 -284 -83q-105 0 -172 16q-36 10 -50 29q-13 17 -7 55l37 205q11 53 68 53q11 0 38 -3t43 -3q39 0 62 24q23 25 35 93zM625 1561l-45 67l-70 -67q-41 -41 -86 -41h-143q-30 0 -34 20
q-4 21 19 41l183 148q38 28 75 28h140q47 0 71 -28l133 -148q16 -21 6 -41t-36 -20h-136q-53 0 -77 41z" />
    <glyph glyph-name="jcircumflex" unicode="&#x135;" horiz-adv-x="528" 
d="M66 195l157 888q7 60 66 60h229q60 0 53 -60l-172 -977q-35 -204 -106 -272q-73 -70 -246 -70q-95 0 -141 17q-42 16 -35 59l35 201q12 59 67 59h21q33 0 49 19q15 19 23 76zM483 1253l-45 68l-69 -68q-39 -41 -84 -41h-144q-29 0 -35 21q-6 20 19 41l184 147
q35 29 74 29h139q45 0 74 -29l131 -147q18 -21 9 -41q-9 -21 -38 -21h-135q-53 0 -80 41z" />
    <glyph glyph-name="Kcommaaccent" unicode="&#x136;" horiz-adv-x="1060" 
d="M541 979l247 410q37 61 91 61h262q39 0 48 -25t-11 -57l-347 -565l142 -721q16 -82 -58 -82h-245q-68 0 -78 61l-109 594l-104 -589q-12 -66 -72 -66h-246q-71 0 -59 66l234 1318q10 66 71 66h246q69 0 59 -66zM528 -322l-122 -182q-4 -4 -7 -9l-2 -4t-2 -3l-1 -2l-2 -2
q-1 -3 -3 -5t-4 -5l-2 -2q-1 -1 -3 -2t-3 -2q-5 -3 -7 -3q-6 0 -9 -1t-11 -1h-35q-45 0 -24 51l55 158h-41q-69 0 -57 64l26 147q8 64 70 64h176q66 0 58 -64l-23 -123q-6 -41 -27 -74z" />
    <glyph glyph-name="kcommaaccent" unicode="&#x137;" horiz-adv-x="929" 
d="M793 0l-234 2q-61 0 -72 51l-73 412l-72 -406q-12 -59 -66 -59h-229q-65 0 -53 59l233 1332q12 59 66 59h229q65 0 53 -59l-104 -592l184 295q14 26 31 38q15 11 49 11h252q37 0 43 -25t-14 -53l-281 -438l111 -553q12 -74 -53 -74zM459 -313l-115 -170q-29 -41 -61 -41
h-35q-40 0 -19 51l56 145h-43q-64 0 -52 64l25 139q8 64 74 64h164q61 0 53 -64l-21 -115q-6 -42 -26 -73z" />
    <glyph glyph-name="kgreenlandic" unicode="&#x138;" horiz-adv-x="929" 
d="M793 0l-234 2q-61 0 -72 51l-73 412l-72 -406q-12 -59 -66 -59h-229q-65 0 -53 59l180 1024q12 60 66 60h229q65 0 53 -60l-51 -284l184 295q14 26 31 38q15 11 49 11h252q37 0 43 -25t-14 -53l-281 -438l111 -553q12 -74 -53 -74z" />
    <glyph glyph-name="Lacute" unicode="&#x139;" horiz-adv-x="831" 
d="M612 1384l-184 -1036h258q71 0 59 -65l-38 -217q-12 -66 -72 -66h-574q-71 0 -59 66l234 1318q10 66 71 66h246q69 0 59 -66zM344 1569l76 147q23 41 65 41h265q26 0 32 -21q6 -22 -16 -40l-152 -140q-42 -36 -90 -36h-153q-25 0 -32 14t5 35z" />
    <glyph glyph-name="lacute" unicode="&#x13a;" horiz-adv-x="487" 
d="M580 1391l-234 -1332q-12 -59 -65 -59h-230q-65 0 -53 59l233 1332q12 59 66 59h229q66 0 54 -59zM319 1569l76 147q23 41 66 41h264q27 0 33 -21t-17 -40l-151 -140q-42 -36 -90 -36h-154q-25 0 -32 14t5 35z" />
    <glyph glyph-name="Lcommaaccent" unicode="&#x13b;" horiz-adv-x="831" 
d="M612 1384l-184 -1036h258q71 0 59 -65l-38 -217q-12 -66 -72 -66h-574q-71 0 -59 66l234 1318q10 66 71 66h246q69 0 59 -66zM426 -322l-123 -182q-1 -2 -6 -9l-2 -4t-2 -3l-1 -2l-2 -2q-1 -3 -3 -5t-4 -5l-2 -2q-1 0 -3 -2l-4 -2q-5 -3 -7 -3q-5 0 -8 -1t-11 -1h-35
q-46 0 -25 51l56 158h-41q-70 0 -58 64l27 147q8 64 70 64h176q65 0 57 -64l-22 -123q-6 -41 -27 -74z" />
    <glyph glyph-name="lcommaaccent" unicode="&#x13c;" horiz-adv-x="487" 
d="M580 1391l-234 -1332q-12 -59 -65 -59h-230q-65 0 -53 59l233 1332q12 59 66 59h229q66 0 54 -59zM238 -313l-115 -170q-29 -41 -62 -41h-34q-40 0 -19 51l55 145h-43q-63 0 -51 64l25 139q8 64 74 64h163q62 0 54 -64l-21 -115q-6 -42 -26 -73z" />
    <glyph glyph-name="Lcaron" unicode="&#x13d;" horiz-adv-x="868" 
d="M612 1384l-184 -1036h258q71 0 59 -65l-38 -217q-12 -66 -72 -66h-574q-71 0 -59 66l234 1318q10 66 71 66h246q69 0 59 -66zM975 1157l-148 -211q-27 -41 -61 -41h-90q-22 0 -30 15q-7 14 5 36l113 187h-53q-70 0 -58 65l39 217q10 66 72 66h213q69 0 59 -66l-35 -192
q-6 -45 -26 -76z" />
    <glyph glyph-name="lcaron" unicode="&#x13e;" horiz-adv-x="823" 
d="M580 1391l-234 -1332q-12 -59 -65 -59h-230q-65 0 -53 59l233 1332q12 59 66 59h229q66 0 54 -59zM930 1157l-148 -211q-27 -41 -61 -41h-90q-23 0 -30 15q-7 14 5 36l113 187h-53q-70 0 -58 65l39 217q11 66 72 66h213q70 0 59 -66l-35 -192q-6 -45 -26 -76z" />
    <glyph glyph-name="Ldot" unicode="&#x13f;" horiz-adv-x="925" 
d="M612 1384l-184 -1036h258q71 0 59 -65l-38 -217q-12 -66 -72 -66h-574q-71 0 -59 66l234 1318q10 66 71 66h246q69 0 59 -66zM565 616l39 218q12 65 72 65h213q71 0 59 -65l-39 -218q-12 -65 -71 -65h-213q-72 0 -60 65z" />
    <glyph glyph-name="ldot" unicode="&#x140;" horiz-adv-x="860" 
d="M580 1391l-234 -1332q-12 -59 -65 -59h-230q-65 0 -53 59l233 1332q12 59 66 59h229q66 0 54 -59zM502 492l39 217q12 65 71 65h213q72 0 60 -65l-39 -217q-12 -66 -72 -66h-213q-71 0 -59 66z" />
    <glyph glyph-name="Lslash" unicode="&#x141;" horiz-adv-x="843" 
d="M625 1384l-76 -428l117 64q53 24 69 -19l23 -65q15 -45 -31 -70l-215 -114l-72 -404h258q72 0 60 -65l-39 -217q-12 -66 -72 -66h-573q-72 0 -60 66l82 464l-8 -4q-51 -27 -70 19l-22 65q-15 45 31 70l106 55l115 649q10 66 71 66h246q71 0 60 -66z" />
    <glyph glyph-name="lslash" unicode="&#x142;" horiz-adv-x="512" 
d="M592 1391l-78 -441l4 2q55 27 70 -18l22 -66q18 -46 -30 -69l-101 -56l-121 -684q-12 -59 -65 -59h-230q-65 0 -53 59l84 482l-4 -2q-54 -25 -70 18l-22 66q-15 45 31 69l102 53l113 646q12 59 65 59h230q65 0 53 -59z" />
    <glyph glyph-name="Nacute" unicode="&#x143;" horiz-adv-x="1110" 
d="M1198 1384l-233 -1318q-12 -66 -72 -66h-211q-69 0 -84 55l-131 580l-100 -569q-12 -66 -72 -66h-234q-71 0 -59 66l234 1318q10 66 71 66h211q69 0 84 -55l131 -580l101 569q10 66 71 66h234q69 0 59 -66zM598 1569l76 147q23 41 65 41h265q26 0 32 -21q6 -22 -16 -40
l-152 -140q-42 -36 -90 -36h-153q-25 0 -32 14t5 35z" />
    <glyph glyph-name="nacute" unicode="&#x144;" horiz-adv-x="950" 
d="M950 815l-133 -756q-12 -59 -65 -59h-230q-65 0 -53 59l115 660q8 53 8 61q0 47 -39 47q-46 0 -69 -35t-40 -122l-106 -611q-12 -59 -66 -59h-229q-65 0 -53 59l180 1024q8 60 66 60h200q67 0 68 -49l2 -33q94 98 223 98q113 0 171 -64t58 -182q0 -48 -8 -98zM469 1262
l78 147q18 41 63 41h264q27 0 33 -22t-14 -39l-154 -140q-38 -37 -88 -37h-153q-53 0 -29 50z" />
    <glyph glyph-name="Ncommaaccent" unicode="&#x145;" horiz-adv-x="1110" 
d="M1198 1384l-233 -1318q-12 -66 -72 -66h-211q-69 0 -84 55l-131 580l-100 -569q-12 -66 -72 -66h-234q-71 0 -59 66l234 1318q10 66 71 66h211q69 0 84 -55l131 -580l101 569q10 66 71 66h234q69 0 59 -66zM553 -322l-123 -182q-2 -2 -6 -9l-2 -4t-2 -3l-1 -2l-1 -2
q-2 -3 -4 -5t-4 -5l-2 -2l-3 -2q-3 -1 -4 -2q-5 -3 -7 -3q-5 0 -8 -1t-11 -1h-35q-46 0 -25 51l56 158h-41q-70 0 -58 64l27 147q8 64 70 64h176q65 0 57 -64l-22 -123q-6 -41 -27 -74z" />
    <glyph glyph-name="ncommaaccent" unicode="&#x146;" horiz-adv-x="950" 
d="M950 815l-133 -756q-12 -59 -65 -59h-230q-65 0 -53 59l115 660q8 53 8 61q0 47 -39 47q-46 0 -69 -35t-40 -122l-106 -611q-12 -59 -66 -59h-229q-65 0 -53 59l180 1024q8 60 66 60h200q67 0 68 -49l2 -33q94 98 223 98q113 0 171 -64t58 -182q0 -48 -8 -98zM469 -313
l-115 -170q-29 -41 -61 -41h-35q-39 0 -18 51l55 145h-43q-63 0 -51 64l24 139q8 64 74 64h164q61 0 53 -64l-20 -115q-6 -40 -27 -73z" />
    <glyph glyph-name="Ncaron" unicode="&#x147;" horiz-adv-x="1110" 
d="M1198 1384l-233 -1318q-12 -66 -72 -66h-211q-69 0 -84 55l-131 580l-100 -569q-12 -66 -72 -66h-234q-71 0 -59 66l234 1318q10 66 71 66h211q69 0 84 -55l131 -580l101 569q10 66 71 66h234q69 0 59 -66zM758 1649l69 67q41 41 86 41h144q30 0 34 -20t-20 -41
l-182 -148q-38 -28 -76 -28h-139q-48 0 -72 28l-133 148q-16 21 -6 41t37 20h135q54 0 78 -41z" />
    <glyph glyph-name="ncaron" unicode="&#x148;" horiz-adv-x="950" 
d="M950 815l-133 -756q-12 -59 -65 -59h-230q-65 0 -53 59l115 660q8 53 8 61q0 47 -39 47q-46 0 -69 -35t-40 -122l-106 -611q-12 -59 -66 -59h-229q-65 0 -53 59l180 1024q8 60 66 60h200q67 0 68 -49l2 -33q94 98 223 98q113 0 171 -64t58 -182q0 -48 -8 -98zM625 1341
l69 68q39 41 84 41h144q28 0 34 -20t-18 -41l-184 -148q-35 -29 -74 -29h-139q-45 0 -74 29l-131 148q-18 21 -9 41t38 20h135q53 0 80 -41z" />
    <glyph glyph-name="napostrophe" unicode="&#x149;" horiz-adv-x="1290" 
d="M1290 815l-133 -756q-12 -59 -65 -59h-230q-65 0 -53 59l115 660q8 53 8 61q0 47 -39 47q-46 0 -69 -35t-40 -122l-106 -611q-12 -59 -66 -59h-229q-65 0 -53 59l180 1024q8 60 65 60h201q67 0 68 -49l2 -33q94 98 223 98q113 0 171 -64t58 -182q0 -48 -8 -98zM457 1178
l-148 -211q-27 -41 -61 -41h-90q-23 0 -30 14t5 37l113 186h-53q-70 0 -58 66l39 217q10 65 72 65h213q69 0 59 -65l-35 -193q-6 -44 -26 -75z" />
    <glyph glyph-name="Eng" unicode="&#x14a;" horiz-adv-x="1110" 
d="M1198 1384l-217 -1228q-41 -238 -119 -318t-264 -80q-77 0 -145 13q-37 7 -51 26q-13 18 -7 58l27 145q7 59 78 53q8 0 18 -2t19 -2q43 0 61 43l-131 543l-100 -569q-12 -66 -72 -66h-234q-71 0 -59 66l234 1318q10 66 71 66h211q69 0 84 -55l131 -580l101 569
q10 66 71 66h234q69 0 59 -66z" />
    <glyph glyph-name="eng" unicode="&#x14b;" horiz-adv-x="950" 
d="M489 180l95 539q8 53 8 61q0 47 -39 47q-46 0 -69 -35t-40 -122l-106 -611q-12 -59 -66 -59h-229q-65 0 -53 59l180 1024q8 60 66 60h200q67 0 68 -49l2 -33q94 98 223 98q113 0 171 -64t58 -182q0 -48 -8 -98l-135 -762q-27 -158 -86 -223q-60 -66 -215 -66
q-92 0 -143 17q-42 16 -35 59l35 201q12 59 61 59q10 0 14 -1t11 -1q20 0 32 82z" />
    <glyph glyph-name="Omacron" unicode="&#x14c;" horiz-adv-x="1089" 
d="M700 1470q208 0 308 -90t100 -327q0 -127 -35 -328q-52 -301 -133 -467q-80 -164 -185 -221t-276 -57q-207 0 -307 90t-100 327q0 133 34 328q52 297 134 467q80 164 185 221t275 57zM518 315q64 0 94 73q32 78 78 337q41 243 41 315q0 58 -15 76q-16 19 -54 19
q-65 0 -95 -73q-32 -78 -78 -337q-40 -237 -40 -315q0 -58 15 -76q16 -19 54 -19zM1006 1520h-545q-55 0 -47 53l18 102q8 54 57 54h545q57 0 49 -54l-18 -102q-8 -53 -59 -53z" />
    <glyph glyph-name="omacron" unicode="&#x14d;" horiz-adv-x="966" 
d="M418 -16q227 0 344 131t174 456q20 111 20 220q0 196 -92 282t-280 86q-227 0 -343 -131t-173 -457q-23 -133 -23 -221q0 -195 92 -281q91 -85 281 -85zM451 283q-32 0 -43 17q-13 20 -13 60q0 66 27 211q30 175 56 233q25 56 75 56q32 0 43 -17q12 -18 12 -61
q0 -71 -26 -211q-29 -169 -57 -232q-25 -56 -74 -56zM893 1229h-545q-55 0 -47 53l18 102q8 54 58 54h545q57 0 49 -54l-19 -102q-8 -53 -59 -53z" />
    <glyph glyph-name="Obreve" unicode="&#x14e;" horiz-adv-x="1089" 
d="M700 1470q208 0 308 -90t100 -327q0 -127 -35 -328q-52 -301 -133 -467q-80 -164 -185 -221t-276 -57q-207 0 -307 90t-100 327q0 133 34 328q52 297 134 467q80 164 185 221t275 57zM518 315q64 0 94 73q32 78 78 337q41 243 41 315q0 58 -15 76q-16 19 -54 19
q-65 0 -95 -73q-32 -78 -78 -337q-40 -237 -40 -315q0 -58 15 -76q16 -19 54 -19zM741 1516q-146 0 -220 56q-75 57 -60 142q7 43 45 43h125q25 0 36 -9t9 -28q-4 -30 14 -45q17 -14 66 -14q48 0 68 13q22 14 32 46q7 37 49 37h125q44 0 37 -43q-15 -88 -98 -143t-228 -55z
" />
    <glyph glyph-name="obreve" unicode="&#x14f;" horiz-adv-x="966" 
d="M418 -16q-190 0 -281 85q-92 86 -92 281q0 88 23 221q57 326 173 457t343 131q188 0 280 -86t92 -282q0 -109 -20 -220q-57 -325 -174 -456t-344 -131zM451 283q49 0 74 56q28 63 57 232q26 140 26 211q0 43 -12 61q-11 17 -43 17q-50 0 -75 -56q-26 -58 -56 -233
q-27 -146 -27 -211q0 -40 13 -60q11 -17 43 -17zM631 1208q-147 0 -224 57q-77 58 -61 142q6 43 47 43h125q25 0 34 -9t7 -28q-2 -34 15 -46q17 -13 65 -13q85 0 100 59q10 37 54 37h125q40 0 34 -43q-16 -88 -97 -143q-82 -56 -224 -56z" />
    <glyph glyph-name="Ohungarumlaut" unicode="&#x150;" horiz-adv-x="1089" 
d="M700 1470q208 0 308 -90t100 -327q0 -127 -35 -328q-52 -301 -133 -467q-80 -164 -185 -221t-276 -57q-207 0 -307 90t-100 327q0 133 34 328q52 297 134 467q80 164 185 221t275 57zM518 315q64 0 94 73q32 78 78 337q41 243 41 315q0 58 -15 76q-16 19 -54 19
q-65 0 -95 -73q-32 -78 -78 -337q-40 -237 -40 -315q0 -58 15 -76q16 -19 54 -19zM424 1569l76 147q23 41 65 41h215q28 0 32 -20q5 -21 -15 -41l-131 -140q-36 -36 -91 -36h-124q-25 0 -32 14t5 35zM801 1569l76 147q23 41 65 41h215q28 0 32 -20q5 -21 -15 -41l-132 -140
q-36 -36 -90 -36h-125q-24 0 -31 14t5 35z" />
    <glyph glyph-name="ohungarumlaut" unicode="&#x151;" horiz-adv-x="966" 
d="M418 -16q227 0 344 131t174 456q20 111 20 220q0 196 -92 282t-280 86q-227 0 -343 -131t-173 -457q-23 -133 -23 -221q0 -195 92 -281q91 -85 281 -85zM451 283q-32 0 -43 17q-13 20 -13 60q0 66 27 211q30 175 56 233q25 56 75 56q32 0 43 -17q12 -18 12 -61
q0 -71 -26 -211q-29 -169 -57 -232q-25 -56 -74 -56zM317 1262l78 147q18 41 64 41h215q28 0 32 -20t-14 -41l-133 -140q-37 -37 -88 -37h-125q-53 0 -29 50zM686 1262l78 147q18 41 63 41h215q28 0 32 -20q4 -21 -13 -41l-133 -140q-37 -37 -88 -37h-125q-53 0 -29 50z" />
    <glyph glyph-name="OE" unicode="&#x152;" horiz-adv-x="1429" 
d="M1305 571h-304l-40 -227h323q69 0 57 -65l-36 -213q-12 -66 -72 -66h-717q-230 0 -339 96t-109 334q0 122 30 295q73 417 215 571t424 154h733q70 0 60 -66l-39 -213q-10 -65 -72 -65h-323l-37 -203h295q71 0 59 -65l-37 -201q-12 -66 -71 -66zM723 1110h-25
q-86 0 -131 -75q-46 -76 -86 -310q-30 -173 -30 -254q0 -76 24 -103q25 -28 80 -28h33z" />
    <glyph glyph-name="oe" unicode="&#x153;" horiz-adv-x="1441" 
d="M1061 274q85 0 188 25q36 8 53 -5t11 -44l-29 -164q-6 -34 -22 -48q-16 -15 -48 -26q-94 -28 -219 -28q-211 0 -305 79q-110 -79 -280 -79q-188 0 -276 84q-89 84 -89 276q0 106 23 227q57 326 173 457t343 131q161 0 241 -74q112 74 275 74q178 0 260 -79t82 -249
q0 -71 -21 -198l-24 -139q-7 -38 -25 -54q-15 -14 -55 -14h-418q-4 -33 -4 -49q0 -60 37 -81q39 -22 129 -22zM451 283q49 0 74 56q28 63 57 232q26 140 26 211q0 43 -12 61q-11 17 -43 17q-50 0 -75 -56q-26 -58 -56 -233q-27 -146 -27 -211q0 -40 13 -60q11 -17 43 -17z
M1061 889q-48 0 -73 -46q-24 -45 -52 -184h160l6 31q14 84 14 123q0 76 -55 76z" />
    <glyph glyph-name="Racute" unicode="&#x154;" horiz-adv-x="1060" 
d="M500 745h57q81 0 111 38q31 39 49 145q10 59 10 94q0 47 -24 68q-23 20 -82 20h-58zM307 1450h352q244 0 351 -76q108 -76 108 -264q0 -82 -18 -182q-57 -336 -277 -436l113 -410q22 -82 -53 -82h-230q-41 0 -59 12q-20 13 -27 45l-84 369h-41l-63 -360q-12 -66 -72 -66
h-246q-71 0 -59 66l234 1318q10 66 71 66zM582 1569l75 147q23 41 66 41h264q27 0 33 -21q6 -22 -16 -40l-152 -140q-42 -36 -90 -36h-154q-24 0 -31 14t5 35z" />
    <glyph glyph-name="racute" unicode="&#x155;" horiz-adv-x="671" 
d="M236 1143h208q37 0 51 -14q13 -13 11 -48l-6 -73q89 143 202 143q36 0 46 -14q10 -15 4 -50l-54 -299q-7 -55 -59 -55q-10 0 -31 3t-35 3q-60 1 -95 -41t-50 -127l-90 -512q-12 -59 -66 -59h-229q-65 0 -53 59l180 1024q8 60 66 60zM309 1262l78 147q18 41 64 41h264
q27 0 33 -22q6 -21 -15 -39l-153 -140q-38 -37 -88 -37h-154q-53 0 -29 50z" />
    <glyph glyph-name="Rcommaaccent" unicode="&#x156;" horiz-adv-x="1060" 
d="M500 745h57q81 0 111 38q31 39 49 145q10 59 10 94q0 47 -24 68q-23 20 -82 20h-58zM307 1450h352q244 0 351 -76q108 -76 108 -264q0 -82 -18 -182q-57 -336 -277 -436l113 -410q22 -82 -53 -82h-230q-41 0 -59 12q-20 13 -27 45l-84 369h-41l-63 -360q-12 -66 -72 -66
h-246q-71 0 -59 66l234 1318q10 66 71 66zM528 -322l-122 -182q-4 -4 -7 -9l-2 -4t-2 -3l-1 -2l-2 -2q-1 -3 -3 -5t-4 -5l-2 -2q-1 -1 -3 -2t-3 -2q-5 -3 -7 -3q-6 0 -9 -1t-11 -1h-35q-45 0 -24 51l55 158h-41q-69 0 -57 64l26 147q8 64 70 64h176q66 0 58 -64l-23 -123
q-6 -41 -27 -74z" />
    <glyph glyph-name="rcommaaccent" unicode="&#x157;" horiz-adv-x="671" 
d="M236 1143h208q37 0 51 -14q13 -13 11 -48l-6 -73q89 143 202 143q36 0 46 -14q10 -15 4 -50l-54 -299q-7 -55 -59 -55q-10 0 -31 3t-35 3q-60 1 -95 -41t-50 -127l-90 -512q-12 -59 -66 -59h-229q-65 0 -53 59l180 1024q8 60 66 60zM225 -313l-114 -170q-29 -41 -62 -41
h-35q-39 0 -18 51l55 145h-43q-63 0 -51 64l25 139q8 64 73 64h164q61 0 53 -64l-20 -115q-6 -40 -27 -73z" />
    <glyph glyph-name="Rcaron" unicode="&#x158;" horiz-adv-x="1060" 
d="M500 745h57q81 0 111 38q31 39 49 145q10 59 10 94q0 47 -24 68q-23 20 -82 20h-58zM307 1450h352q244 0 351 -76q108 -76 108 -264q0 -82 -18 -182q-57 -336 -277 -436l113 -410q22 -82 -53 -82h-230q-41 0 -59 12q-20 13 -27 45l-84 369h-41l-63 -360q-12 -66 -72 -66
h-246q-71 0 -59 66l234 1318q10 66 71 66zM733 1649l70 67q41 41 86 41h143q30 0 34 -20q4 -21 -19 -41l-183 -148q-38 -28 -76 -28h-139q-47 0 -71 28l-134 148q-16 21 -6 41t37 20h135q54 0 78 -41z" />
    <glyph glyph-name="rcaron" unicode="&#x159;" horiz-adv-x="671" 
d="M236 1143h208q37 0 51 -14q13 -13 11 -48l-6 -73q89 143 202 143q36 0 46 -14q10 -15 4 -50l-54 -299q-7 -55 -59 -55q-10 0 -31 3t-35 3q-60 1 -95 -41t-50 -127l-90 -512q-12 -59 -66 -59h-229q-65 0 -53 59l180 1024q8 60 66 60zM506 1341l69 68q39 41 84 41h144
q29 0 35 -20t-19 -41l-184 -148q-35 -29 -74 -29h-139q-45 0 -74 29l-131 148q-18 21 -9 41t38 20h135q53 0 80 -41z" />
    <glyph glyph-name="Sacute" unicode="&#x15a;" horiz-adv-x="907" 
d="M864 481q0 -225 -141 -363t-377 -138q-202 0 -303 30q-35 11 -50 28q-13 14 -7 52l34 199q15 76 95 49q69 -23 184 -23q166 0 166 115q0 33 -27 66q-28 34 -106 96q-182 151 -182 373q0 256 120 380q121 125 389 125q174 0 248 -20q34 -7 48 -26q13 -18 6 -54l-35 -205
q-12 -67 -92 -49q-78 19 -156 19q-129 0 -129 -101q0 -78 121 -186q194 -169 194 -367zM504 1569l76 147q23 41 65 41h264q27 0 33 -21q6 -22 -16 -40l-152 -140q-42 -36 -90 -36h-154q-24 0 -31 14t5 35z" />
    <glyph glyph-name="sacute" unicode="&#x15b;" horiz-adv-x="770" 
d="M733 406q0 -219 -111 -321q-110 -101 -343 -101q-169 0 -269 30q-29 6 -38 20t-3 42l35 198q11 62 74 41q69 -24 182 -24q125 0 125 49q0 35 -78 80q-2 1 -8 4.5t-13 7.5l-14 8l-24 15q-88 49 -133 109t-45 165q0 221 102 326q101 104 336 104q172 0 254 -24
q47 -8 39 -62l-35 -196q-11 -62 -70 -46q-77 21 -151 21q-125 0 -125 -55q0 -11 3 -19t12 -17q3 -3 9.5 -9t8.5 -8q6 -6 25 -17q18 -11 29 -16q4 -2 16.5 -9t20.5 -11l15 -7.5l14 -7l9 -4.5q151 -82 151 -266zM379 1262l78 147q18 41 63 41h264q27 0 33 -22t-14 -39
l-154 -140q-38 -37 -88 -37h-153q-53 0 -29 50z" />
    <glyph glyph-name="Scircumflex" unicode="&#x15c;" horiz-adv-x="907" 
d="M864 481q0 -225 -141 -363t-377 -138q-202 0 -303 30q-35 11 -50 28q-13 14 -7 52l34 199q15 76 95 49q69 -23 184 -23q166 0 166 115q0 33 -27 66q-28 34 -106 96q-182 151 -182 373q0 256 120 380q121 125 389 125q174 0 248 -20q34 -7 48 -26q13 -18 6 -54l-35 -205
q-12 -67 -92 -49q-78 19 -156 19q-129 0 -129 -101q0 -78 121 -186q194 -169 194 -367zM707 1561l-45 67l-70 -67q-41 -41 -86 -41h-143q-30 0 -34 20q-4 21 19 41l182 148q38 28 76 28h139q48 0 72 -28l133 -148q16 -21 6 -41t-36 -20h-136q-53 0 -77 41z" />
    <glyph glyph-name="scircumflex" unicode="&#x15d;" horiz-adv-x="770" 
d="M733 406q0 -219 -111 -321q-110 -101 -343 -101q-169 0 -269 30q-29 6 -38 20t-3 42l35 198q11 62 74 41q69 -24 182 -24q125 0 125 49q0 35 -78 80q-2 1 -8 4.5t-13 7.5l-14 8l-24 15q-88 49 -133 109t-45 165q0 221 102 326q101 104 336 104q172 0 254 -24
q47 -8 39 -62l-35 -196q-11 -62 -70 -46q-77 21 -151 21q-125 0 -125 -55q0 -11 3 -19t12 -17q3 -3 9.5 -9t8.5 -8q6 -6 25 -17q18 -11 29 -16q4 -2 16.5 -9t20.5 -11l15 -7.5l14 -7l9 -4.5q151 -82 151 -266zM584 1253l-45 68l-70 -68q-39 -41 -84 -41h-143q-29 0 -35 21
q-6 20 18 41l185 147q35 29 73 29h140q44 0 73 -29l131 -147q18 -21 10 -41q-9 -21 -38 -21h-135q-53 0 -80 41z" />
    <glyph glyph-name="Scedilla" unicode="&#x15e;" horiz-adv-x="907" 
d="M864 481q0 -195 -107 -326q-108 -132 -294 -165q78 -57 78 -140q0 -86 -58 -130t-149 -44q-96 0 -135 15q-27 11 -21 41l15 80q6 22 28 22h82q64 0 64 64q0 42 -45 82q-193 5 -279 30q-35 11 -50 28q-13 14 -7 52l34 199q15 76 95 49q69 -23 184 -23q166 0 166 115
q0 33 -27 66q-28 34 -106 96q-182 151 -182 373q0 256 120 380q121 125 389 125q174 0 248 -20q34 -7 48 -26q13 -18 6 -54l-35 -205q-12 -67 -92 -49q-78 19 -156 19q-129 0 -129 -101q0 -78 121 -186q194 -169 194 -367z" />
    <glyph glyph-name="scedilla" unicode="&#x15f;" horiz-adv-x="770" 
d="M733 406q0 -200 -91 -301q-90 -100 -277 -117q90 -62 90 -152q0 -71 -54 -110q-52 -37 -141 -37q-95 0 -131 14q-22 7 -20 41l14 80q6 22 29 22h77q24 0 39 18t15 42q0 39 -43 78q-151 6 -230 30q-29 6 -38 20t-3 42l35 198q11 62 74 41q69 -24 182 -24q125 0 125 49
q0 35 -78 80q-2 1 -8 4.5t-13 7.5l-14 8l-24 15q-88 49 -133 109t-45 165q0 221 102 326q101 104 336 104q172 0 254 -24q47 -8 39 -62l-35 -196q-11 -62 -70 -46q-77 21 -151 21q-125 0 -125 -55q0 -11 3 -19t12 -17q3 -3 9.5 -9t8.5 -8q6 -6 25 -17q18 -11 29 -16
q4 -2 16.5 -9t20.5 -11l15 -7.5l14 -7l9 -4.5q151 -82 151 -266z" />
    <glyph glyph-name="Scaron" unicode="&#x160;" horiz-adv-x="907" 
d="M864 481q0 -225 -141 -363t-377 -138q-202 0 -303 30q-35 11 -50 28q-13 14 -7 52l34 199q15 76 95 49q69 -23 184 -23q166 0 166 115q0 33 -27 66q-28 34 -106 96q-182 151 -182 373q0 256 120 380q121 125 389 125q174 0 248 -20q34 -7 48 -26q13 -18 6 -54l-35 -205
q-12 -67 -92 -49q-78 19 -156 19q-129 0 -129 -101q0 -78 121 -186q194 -169 194 -367zM655 1649l70 67q41 41 86 41h143q30 0 34 -20q4 -21 -19 -41l-183 -148q-38 -28 -75 -28h-140q-47 0 -71 28l-133 148q-17 21 -7 41t37 20h135q54 0 78 -41z" />
    <glyph glyph-name="scaron" unicode="&#x161;" horiz-adv-x="770" 
d="M733 406q0 -219 -111 -321q-110 -101 -343 -101q-169 0 -269 30q-29 6 -38 20t-3 42l35 198q11 62 74 41q69 -24 182 -24q125 0 125 49q0 35 -78 80q-2 1 -8 4.5t-13 7.5l-14 8l-24 15q-88 49 -133 109t-45 165q0 221 102 326q101 104 336 104q172 0 254 -24
q47 -8 39 -62l-35 -196q-11 -62 -70 -46q-77 21 -151 21q-125 0 -125 -55q0 -11 3 -19t12 -17q3 -3 9.5 -9t8.5 -8q6 -6 25 -17q18 -11 29 -16q4 -2 16.5 -9t20.5 -11l15 -7.5l14 -7l9 -4.5q151 -82 151 -266zM526 1341l70 68q39 41 84 41h143q29 0 35 -20t-18 -41
l-185 -148q-35 -29 -73 -29h-140q-44 0 -73 29l-131 148q-18 21 -10 41q9 20 38 20h135q53 0 80 -41z" />
    <glyph glyph-name="Tcommaaccent" unicode="&#x162;" horiz-adv-x="860" 
d="M156 1171l39 213q11 66 71 66h664q70 0 59 -66l-39 -213q-10 -65 -71 -65h-148l-184 -1040q-12 -66 -72 -66h-246q-71 0 -59 66l184 1040h-139q-69 0 -59 65zM428 -322l-123 -182q-1 -2 -6 -9l-2 -4t-2 -3l-1 -2l-2 -2q-1 -3 -3 -5t-4 -5l-2 -2q-1 0 -3 -1.5t-4 -2.5
q-4 -3 -7 -3q-5 0 -8 -1t-11 -1h-35q-46 0 -25 51l56 158h-41q-70 0 -58 64l27 147q8 64 70 64h176q65 0 57 -64l-22 -123q-6 -41 -27 -74z" />
    <glyph glyph-name="tcommaaccent" unicode="&#x163;" horiz-adv-x="614" 
d="M578 733h-89l-55 -313q-11 -58 -3 -76q7 -18 46 -18h25q59 0 47 -60l-35 -200q-7 -45 -55 -60q-54 -16 -117 -16q-146 0 -211 49t-65 170q0 49 14 133l70 391h-35q-59 0 -52 55l39 218q7 55 62 55h43l39 227q12 60 67 60h222q63 0 51 -60l-39 -227h80q61 0 53 -60
l-37 -208q-12 -60 -65 -60zM330 -313l-115 -170q-29 -41 -61 -41h-35q-40 0 -19 51l56 145h-43q-64 0 -52 64l25 139q8 64 74 64h164q61 0 53 -64l-21 -115q-6 -42 -26 -73z" />
    <glyph glyph-name="Tcaron" unicode="&#x164;" horiz-adv-x="860" 
d="M156 1171l39 213q11 66 71 66h664q70 0 59 -66l-39 -213q-10 -65 -71 -65h-148l-184 -1040q-12 -66 -72 -66h-246q-71 0 -59 66l184 1040h-139q-69 0 -59 65zM633 1649l69 67q41 41 86 41h144q30 0 34 -20t-20 -41l-182 -148q-38 -28 -76 -28h-139q-48 0 -72 28l-133 148
q-16 21 -6 41t37 20h135q54 0 78 -41z" />
    <glyph glyph-name="tcaron" unicode="&#x165;" horiz-adv-x="970" 
d="M578 733h-89l-55 -313q-11 -58 -3 -76q7 -18 46 -18h25q59 0 47 -60l-35 -200q-7 -45 -55 -60q-54 -16 -117 -16q-146 0 -211 49t-65 170q0 49 14 133l70 391h-35q-59 0 -52 55l39 218q7 55 62 55h43l39 227q12 60 67 60h222q63 0 51 -60l-39 -227h80q61 0 53 -60
l-37 -208q-12 -60 -65 -60zM1081 1178l-147 -211q-27 -41 -62 -41h-90q-22 0 -29 14t5 37l112 186h-53q-69 0 -57 66l39 217q10 65 71 65h213q70 0 60 -65l-35 -193q-6 -42 -27 -75z" />
    <glyph glyph-name="Tbar" unicode="&#x166;" horiz-adv-x="860" 
d="M156 1171l39 213q11 66 71 66h664q70 0 59 -66l-39 -213q-10 -65 -71 -65h-148l-67 -381h81q60 0 48 -53l-17 -94q-8 -54 -57 -54h-90l-82 -458q-12 -66 -72 -66h-246q-71 0 -59 66l82 458h-82q-57 0 -49 54l16 94q12 53 60 53h90l67 381h-139q-69 0 -59 65z" />
    <glyph glyph-name="tbar" unicode="&#x167;" horiz-adv-x="614" 
d="M578 733h-89l-20 -106h78q57 0 49 -54l-16 -94q-8 -53 -60 -53h-86v-6q-11 -58 -3 -76q7 -18 46 -18h25q59 0 47 -60l-35 -200q-7 -45 -55 -60q-54 -16 -117 -16q-146 0 -211 49t-65 170q0 49 14 133l14 84h-28q-56 0 -48 53l17 94q8 54 57 54h37l21 106h-35
q-59 0 -52 55l39 218q7 55 62 55h43l39 227q12 60 67 60h222q63 0 51 -60l-39 -227h80q57 0 49 -60l-33 -208q-12 -60 -65 -60z" />
    <glyph glyph-name="Utilde" unicode="&#x168;" 
d="M467 -20q-210 0 -314 74q-106 76 -106 239q0 56 12 119l172 972q11 66 72 66h246q69 0 59 -66l-162 -919q-8 -42 -8 -72q0 -36 17 -53q16 -16 51 -16q49 0 73 30q22 27 39 111l162 919q10 66 72 66h246q70 0 59 -66l-172 -972q-40 -237 -160 -335q-118 -97 -358 -97z
M1061 1677q-17 -89 -53 -125t-115 -36q-86 0 -150 26l-43 19q-88 30 -106 0l-6 -11q-16 -30 -53 -30h-78q-56 0 -41 79q16 89 53 125q37 37 115 37q85 0 149 -26l43 -19q89 -30 107 0l6 10q17 31 53 31h78q29 0 39 -17t2 -63z" />
    <glyph glyph-name="utilde" unicode="&#x169;" horiz-adv-x="950" 
d="M31 301l139 782q8 60 66 60h229q61 0 53 -60l-115 -651q-6 -38 -6 -61q0 -56 43 -56t64 32q20 29 35 114l110 622q7 60 66 60h229q60 0 53 -60l-180 -1024q-12 -59 -65 -59h-201q-67 0 -68 49l-2 33q-24 -24 -52 -48q-19 -17 -62 -34q-39 -16 -93 -16q-251 0 -251 233
q0 18 8 84zM948 1370q-15 -89 -51 -125q-37 -37 -115 -37q-88 0 -149 27l-45 18q-84 30 -107 0l-4 -10q-17 -31 -53 -31h-78q-58 0 -41 80q17 88 53 125q37 37 115 37q87 0 148 -27l45 -18q85 -33 106 0l6 10q17 31 51 31h78q58 0 41 -80z" />
    <glyph glyph-name="Umacron" unicode="&#x16a;" 
d="M467 -20q-210 0 -314 74q-106 76 -106 239q0 56 12 119l172 972q11 66 72 66h246q69 0 59 -66l-162 -919q-8 -42 -8 -72q0 -36 17 -53q16 -16 51 -16q49 0 73 30q22 27 39 111l162 919q10 66 72 66h246q70 0 59 -66l-172 -972q-40 -237 -160 -335q-118 -97 -358 -97z
M993 1520h-544q-56 0 -48 53l19 102q8 54 57 54h545q57 0 49 -54l-18 -102q-8 -53 -60 -53z" />
    <glyph glyph-name="umacron" unicode="&#x16b;" horiz-adv-x="950" 
d="M31 301l139 782q8 60 66 60h229q61 0 53 -60l-115 -651q-6 -38 -6 -61q0 -56 43 -56t64 32q20 29 35 114l110 622q7 60 66 60h229q60 0 53 -60l-180 -1024q-12 -59 -65 -59h-201q-67 0 -68 49l-2 33q-24 -24 -52 -48q-19 -17 -62 -34q-39 -16 -93 -16q-251 0 -251 233
q0 18 8 84zM885 1229h-545q-55 0 -47 53l18 102q8 54 58 54h544q58 0 50 -54l-19 -102q-8 -53 -59 -53z" />
    <glyph glyph-name="Ubreve" unicode="&#x16c;" 
d="M467 -20q-210 0 -314 74q-106 76 -106 239q0 56 12 119l172 972q11 66 72 66h246q69 0 59 -66l-162 -919q-8 -42 -8 -72q0 -36 17 -53q16 -16 51 -16q49 0 73 30q22 27 39 111l162 919q10 66 72 66h246q70 0 59 -66l-172 -972q-40 -237 -160 -335q-118 -97 -358 -97z
M729 1516q-146 0 -220 56q-75 57 -60 142q7 43 45 43h124q25 0 36.5 -9t9.5 -28q-4 -30 14 -45q17 -14 65 -14q49 0 69 13q22 14 32 46q7 37 49 37h125q44 0 37 -43q-15 -87 -99 -143q-83 -55 -227 -55z" />
    <glyph glyph-name="ubreve" unicode="&#x16d;" horiz-adv-x="950" 
d="M31 301l139 782q8 60 66 60h229q61 0 53 -60l-115 -651q-6 -38 -6 -61q0 -56 43 -56t64 32q20 29 35 114l110 622q7 60 66 60h229q60 0 53 -60l-180 -1024q-12 -59 -65 -59h-201q-67 0 -68 49l-2 33q-24 -24 -52 -48q-19 -17 -62 -34q-39 -16 -93 -16q-251 0 -251 233
q0 18 8 84zM623 1208q-149 0 -225 57t-60 142q6 43 47 43h125q25 0 34 -9t7 -28q-2 -34 15 -46q17 -13 65 -13q85 0 100 59q10 37 53 37h125q41 0 35 -43q-16 -88 -97 -143q-82 -56 -224 -56z" />
    <glyph glyph-name="Uring" unicode="&#x16e;" 
d="M467 -20q-210 0 -314 74q-106 76 -106 239q0 56 12 119l172 972q11 66 72 66h246q69 0 59 -66l-162 -919q-8 -42 -8 -72q0 -36 17 -53q16 -16 51 -16q49 0 73 30q22 27 39 111l162 919q10 66 72 66h246q70 0 59 -66l-172 -972q-40 -237 -160 -335q-118 -97 -358 -97z
M758 1772q-36 0 -57 -23t-21 -57q0 -26 17 -40q19 -16 44 -16q36 0 57 23t21 59q0 24 -17 38q-19 16 -44 16zM532 1673q0 101 67 165q66 63 173 63q88 0 141 -47q54 -48 54 -119q0 -102 -66 -165t-174 -63q-89 0 -141 46q-54 48 -54 120z" />
    <glyph glyph-name="uring" unicode="&#x16f;" horiz-adv-x="950" 
d="M31 301l139 782q8 60 66 60h229q61 0 53 -60l-115 -651q-6 -38 -6 -61q0 -56 43 -56t64 32q20 29 35 114l110 622q7 60 66 60h229q60 0 53 -60l-180 -1024q-12 -59 -65 -59h-201q-67 0 -68 49l-2 33q-24 -24 -52 -48q-19 -17 -62 -34q-39 -16 -93 -16q-251 0 -251 233
q0 18 8 84zM631 1325q33 0 61 23q27 22 27 61q0 26 -20 43q-19 16 -52 16q-39 0 -63 -21q-25 -22 -25 -61q0 -25 22 -44q20 -17 50 -17zM661 1602q95 0 153 -49q56 -47 56 -123q0 -110 -69 -174q-68 -64 -187 -64q-96 0 -151 48t-55 124q0 108 69 173q70 65 184 65z" />
    <glyph glyph-name="Uhungarumlaut" unicode="&#x170;" 
d="M467 -20q-210 0 -314 74q-106 76 -106 239q0 56 12 119l172 972q11 66 72 66h246q69 0 59 -66l-162 -919q-8 -42 -8 -72q0 -36 17 -53q16 -16 51 -16q49 0 73 30q22 27 39 111l162 919q10 66 72 66h246q70 0 59 -66l-172 -972q-40 -237 -160 -335q-118 -97 -358 -97z
M416 1569l76 147q23 41 65 41h215q28 0 32 -20q4 -21 -16 -41l-131 -140q-36 -36 -90 -36h-125q-24 0 -31 14t5 35zM793 1569l75 147q23 41 66 41h215q28 0 32 -20q4 -21 -16 -41l-131 -140q-36 -36 -90 -36h-125q-25 0 -32 14q-7 13 6 35z" />
    <glyph glyph-name="uhungarumlaut" unicode="&#x171;" horiz-adv-x="950" 
d="M31 301l139 782q8 60 66 60h229q61 0 53 -60l-115 -651q-6 -38 -6 -61q0 -56 43 -56t64 32q20 29 35 114l110 622q7 60 66 60h229q60 0 53 -60l-180 -1024q-12 -59 -65 -59h-201q-67 0 -68 49l-2 33q-24 -24 -52 -48q-19 -17 -62 -34q-39 -16 -93 -16q-251 0 -251 233
q0 18 8 84zM315 1262l78 147q18 41 64 41h215q27 0 31 -20q4 -21 -13 -41l-133 -140q-37 -37 -88 -37h-125q-53 0 -29 50zM684 1262l78 147q18 41 63 41h215q28 0 32 -20q4 -21 -13 -41l-133 -140q-37 -37 -88 -37h-125q-53 0 -29 50z" />
    <glyph glyph-name="Uogonek" unicode="&#x172;" 
d="M985 412q-34 -197 -122 -297q-86 -98 -249 -125q-88 -63 -88 -115q0 -29 39 -29q5 0 35 6q25 5 33 5q20 0 18 -23l-2 -80q0 -37 -35 -49q-66 -24 -122 -24q-181 0 -181 122q0 103 123 177q-387 10 -387 313q0 56 12 119l172 972q11 66 72 66h246q69 0 59 -66l-162 -919
q-8 -42 -8 -72q0 -36 17 -53q16 -16 51 -16q49 0 73 30q22 27 39 111l162 919q10 66 72 66h246q70 0 59 -66z" />
    <glyph glyph-name="uogonek" unicode="&#x173;" horiz-adv-x="950" 
d="M31 301l139 782q8 60 66 60h229q61 0 53 -60l-115 -651q-6 -38 -6 -61q0 -56 43 -56t64 32q20 29 35 114l110 622q7 60 66 60h229q60 0 53 -60l-180 -1024q-12 -57 -59 -59q-99 -76 -99 -121q0 -24 33 -24q15 0 31 4t29 4q18 0 18 -23l-2 -80q-1 -32 -35 -49
q-44 -22 -110 -22q-179 0 -179 110q0 109 160 201h-53q-67 0 -68 49l-2 33q-24 -24 -52 -48q-19 -17 -62 -34q-39 -16 -93 -16q-251 0 -251 233q0 18 8 84z" />
    <glyph glyph-name="Wcircumflex" unicode="&#x174;" horiz-adv-x="1646" 
d="M862 1450h246q31 0 48 -17t15 -47l-41 -630l-26 -277h4l78 277l194 630q18 64 76 64h279q35 0 48 -19t1 -53l-443 -1296q-28 -82 -98 -82h-332q-77 0 -77 82l14 324l24 333h-4l-94 -333l-96 -324q-28 -82 -98 -82h-332q-78 0 -78 82l12 1296q0 72 66 72h266q64 0 64 -64
l-27 -630l-21 -277h5l71 277l180 630q18 64 76 64zM1063 1561l-45 67l-70 -67q-41 -41 -86 -41h-143q-30 0 -34 20t20 41l182 148q38 28 76 28h139q48 0 72 -28l133 -148q16 -21 6 -41t-37 -20h-135q-54 0 -78 41z" />
    <glyph glyph-name="wcircumflex" unicode="&#x175;" horiz-adv-x="1380" 
d="M702 1143h193q58 0 53 -58l-14 -434l-14 -209h4l55 209l127 428q23 64 76 64h252q60 0 36 -66l-358 -1011q-24 -66 -84 -66h-250q-71 0 -71 66v256l10 284h-4l-92 -284l-91 -256q-24 -66 -84 -66h-249q-72 0 -72 66l-2 1011q0 66 53 66h240q64 0 59 -64l-20 -428
l-19 -209h4l60 209l137 434q18 58 65 58zM874 1253l-45 68l-69 -68q-39 -41 -84 -41h-144q-28 0 -34 21q-6 20 18 41l184 147q35 29 74 29h139q45 0 74 -29l131 -147q18 -21 9 -41q-9 -21 -37 -21h-136q-53 0 -80 41z" />
    <glyph glyph-name="Ycircumflex" unicode="&#x176;" horiz-adv-x="1040" 
d="M721 545l-84 -479q-12 -66 -72 -66h-246q-71 0 -59 66l84 479l-164 825q-6 32 8 55q16 25 56 25h252q73 0 77 -61l19 -308l-8 -190h8l61 190l125 308q24 61 90 61h265q43 0 52 -28t-9 -52zM774 1561l-45 67l-70 -67q-41 -41 -86 -41h-143q-30 0 -34 20t20 41l182 148
q38 28 76 28h139q48 0 72 -28l133 -148q16 -21 6 -41t-37 -20h-135q-54 0 -78 41z" />
    <glyph glyph-name="ycircumflex" unicode="&#x177;" horiz-adv-x="897" 
d="M983 1077l-365 -1011q-62 -173 -148 -237q-88 -65 -277 -65q-167 0 -218 17q-41 16 -34 59l32 185q7 59 70 59q4 0 36 -2t34 -2q77 0 71 90l-57 907q-5 66 51 66h242q66 0 61 -64l-20 -452l-12 -201h8l47 201l112 452q18 64 74 64h254q63 0 39 -66zM647 1253l-45 68
l-70 -68q-39 -41 -83 -41h-144q-29 0 -35 21q-6 20 19 41l184 147q35 29 74 29h139q45 0 74 -29l131 -147q18 -21 9 -41q-9 -21 -38 -21h-135q-53 0 -80 41z" />
    <glyph glyph-name="Ydieresis" unicode="&#x178;" horiz-adv-x="1040" 
d="M721 545l-84 -479q-12 -66 -72 -66h-246q-71 0 -59 66l84 479l-164 825q-6 32 8 55q16 25 56 25h252q73 0 77 -61l19 -308l-8 -190h8l61 190l125 308q24 61 90 61h265q43 0 52 -28t-9 -52zM690 1702l-22 -127q-7 -55 -62 -55h-200q-57 0 -50 55l23 127q10 55 61 55h201
q59 0 49 -55zM1096 1702l-23 -127q-7 -55 -61 -55h-201q-56 0 -49 55l22 127q10 55 62 55h201q59 0 49 -55z" />
    <glyph glyph-name="Zacute" unicode="&#x179;" horiz-adv-x="950" 
d="M-14 66l34 198q11 57 43 105l510 737h-307q-69 0 -59 65l39 213q10 66 71 66h660q69 0 59 -66l-35 -198q-11 -57 -43 -105l-509 -737h352q69 0 57 -65l-37 -213q-12 -66 -71 -66h-705q-71 0 -59 66zM539 1569l75 147q23 41 66 41h264q27 0 33 -21q6 -22 -16 -40
l-152 -140q-42 -36 -90 -36h-154q-24 0 -31 14t5 35z" />
    <glyph glyph-name="zacute" unicode="&#x17a;" horiz-adv-x="811" 
d="M858 1083l-27 -151q-11 -45 -36 -80l-371 -524h250q60 0 53 -60l-37 -209q-12 -59 -65 -59h-594q-66 0 -54 59l27 152q5 34 37 80l371 524h-226q-65 0 -53 59l37 209q8 60 66 60h569q61 0 53 -60zM399 1262l78 147q18 41 64 41h264q27 0 33 -22q6 -21 -15 -39l-153 -140
q-38 -37 -88 -37h-154q-53 0 -29 50z" />
    <glyph glyph-name="Zdotaccent" unicode="&#x17b;" horiz-adv-x="950" 
d="M-14 66l34 198q11 57 43 105l510 737h-307q-69 0 -59 65l39 213q10 66 71 66h660q69 0 59 -66l-35 -198q-11 -57 -43 -105l-509 -737h352q69 0 57 -65l-37 -213q-12 -66 -71 -66h-705q-71 0 -59 66zM879 1698l-23 -119q-7 -59 -65 -59h-238q-60 0 -53 59l22 119
q7 59 66 59h237q61 0 54 -59z" />
    <glyph glyph-name="zdotaccent" unicode="&#x17c;" horiz-adv-x="811" 
d="M858 1083l-27 -151q-11 -45 -36 -80l-371 -524h250q60 0 53 -60l-37 -209q-12 -59 -65 -59h-594q-66 0 -54 59l27 152q5 34 37 80l371 524h-226q-65 0 -53 59l37 209q8 60 66 60h569q61 0 53 -60zM745 1391l-20 -119q-12 -60 -66 -60h-237q-65 0 -53 60l20 119
q12 59 66 59h237q65 0 53 -59z" />
    <glyph glyph-name="Zcaron" unicode="&#x17d;" horiz-adv-x="950" 
d="M-14 66l34 198q11 57 43 105l510 737h-307q-69 0 -59 65l39 213q10 66 71 66h660q69 0 59 -66l-35 -198q-11 -57 -43 -105l-509 -737h352q69 0 57 -65l-37 -213q-12 -66 -71 -66h-705q-71 0 -59 66zM678 1649l70 67q41 41 86 41h143q30 0 34 -20t-20 -41l-182 -148
q-38 -28 -76 -28h-139q-48 0 -72 28l-133 148q-16 21 -6 41t37 20h135q54 0 78 -41z" />
    <glyph glyph-name="zcaron" unicode="&#x17e;" horiz-adv-x="811" 
d="M858 1083l-27 -151q-11 -45 -36 -80l-371 -524h250q60 0 53 -60l-37 -209q-12 -59 -65 -59h-594q-66 0 -54 59l27 152q5 34 37 80l371 524h-226q-65 0 -53 59l37 209q8 60 66 60h569q61 0 53 -60zM555 1341l70 68q39 41 84 41h143q29 0 35 -20t-19 -41l-184 -148
q-35 -29 -74 -29h-139q-45 0 -74 29l-131 148q-18 21 -9 41t38 20h135q53 0 80 -41z" />
    <glyph glyph-name="longs" unicode="&#x17f;" horiz-adv-x="602" 
d="M551 1090l-180 -1031q-12 -59 -66 -59h-221q-65 0 -53 59l119 674h-35q-59 0 -52 55l39 218q7 55 62 55h43l14 82q33 187 106 253q71 64 236 64q89 0 137 -16q43 -16 35 -60l-28 -159q-12 -60 -70 -60h-16q-38 0 -50 -15q-13 -16 -20 -60z" />
    <glyph glyph-name="florin" unicode="&#x192;" 
d="M881 1090l-82 -273h137q54 0 39 -51l-21 -74q-15 -51 -61 -51h-145l-160 -535q-60 -197 -146 -270q-86 -72 -262 -72q-93 0 -139 17q-42 17 -27 59l60 201q18 59 76 59h20q37 0 58 21t36 74l135 446h-116q-56 0 -41 51l20 74q15 51 64 51h125l98 326q55 186 138 252
q81 65 247 65q120 0 164 -16q43 -16 28 -60l-49 -159q-21 -60 -78 -60h-24q-41 0 -61 -16q-21 -17 -33 -59z" />
    <glyph glyph-name="Aringacute" unicode="&#x1fa;" horiz-adv-x="1073" 
d="M504 1489q0 148 127 205l57 110q23 41 66 41h264q27 0 33 -21t-17 -40l-137 -127q41 -46 41 -107q0 -53 -21 -100q68 -8 68 -72l-8 -1306q0 -72 -66 -72h-245q-34 0 -50 16t-14 47l4 179h-209l-57 -179q-11 -32 -28 -49q-14 -14 -48 -14h-258q-35 0 -48 19t-1 53
l451 1306q16 40 34 54q21 16 66 18q-4 11 -4 39zM481 569h160l14 516h-8zM729 1587q-35 0 -56 -22q-22 -24 -22 -58q0 -25 18 -40t44 -15q35 0 56 23q22 24 22 59q0 23 -18 38t-44 15z" />
    <glyph glyph-name="aringacute" unicode="&#x1fb;" horiz-adv-x="888" 
d="M889 821l-133 -762q-12 -59 -66 -59h-168q-66 0 -67 49l-2 33q-92 -92 -215 -92q-105 0 -171 63q-67 64 -67 193q0 238 134 346q135 110 405 117l10 65q8 48 -12 65t-80 17q-46 0 -85 -7q-49 -9 -86 -19q-40 -11 -48 -11q-38 -6 -54 4t-10 43l33 187q7 50 61 65
q115 37 273 37q187 0 272 -55q86 -56 86 -182q0 -43 -10 -97zM385 1364q0 149 125 209l59 113q18 40 64 40h264q27 0 33 -21q6 -22 -15 -40l-124 -113q57 -46 57 -122q0 -109 -70 -174q-68 -64 -186 -64q-96 0 -152 48q-55 48 -55 124zM481 391l21 115q-90 -2 -126 -54
q-36 -53 -36 -145q0 -59 51 -59q42 0 60 35t30 108zM608 1325q34 0 62 23q26 22 26 61q0 27 -19 43t-52 16q-40 0 -64 -21t-24 -61q0 -26 21 -44q20 -17 50 -17z" />
    <glyph glyph-name="AEacute" unicode="&#x1fc;" horiz-adv-x="1417" 
d="M1292 571h-295l-41 -227h316q69 0 57 -65l-37 -213q-12 -66 -71 -66h-619q-71 0 -59 66l30 178h-178l-63 -181q-15 -34 -30 -49q-14 -14 -48 -14h-252q-33 0 -46 19t-1 53l469 1306q27 72 104 72h930q70 0 60 -66l-39 -213q-10 -65 -72 -65h-315l-37 -203h286
q70 0 60 -65l-37 -201q-10 -66 -72 -66zM496 571h137l94 535h-51zM768 1569l76 147q23 41 65 41h265q26 0 32 -21q6 -22 -16 -40l-152 -140q-42 -36 -90 -36h-153q-25 0 -32 14t5 35z" />
    <glyph glyph-name="aeacute" unicode="&#x1fd;" horiz-adv-x="1380" 
d="M999 274q86 0 189 25q35 8 52 -5t11 -44l-28 -164q-6 -32 -23 -48t-47 -26q-94 -28 -223 -28q-249 0 -340 127q-121 -121 -303 -121q-135 0 -210 68q-77 69 -77 194q0 128 36 210q36 84 112 128q76 45 167 63q93 19 226 23l16 98q8 47 -13 65q-20 17 -83 17q-43 0 -86 -6
q-35 -5 -88 -19q-45 -12 -49 -12q-38 -6 -54 4t-10 43l33 187q7 50 61 65q115 37 281 37q175 0 252 -68q105 72 233 72q177 0 263 -74q85 -73 85 -233q0 -101 -20 -207l-25 -139q-7 -37 -26 -53q-18 -15 -58 -15h-413q-4 -33 -4 -51q0 -63 36 -87q38 -26 127 -26zM999 889
q-48 0 -72 -41q-22 -38 -50 -176h159l6 30q15 85 15 117q0 70 -58 70zM489 391l15 82q-88 -5 -126 -39q-38 -35 -38 -125q0 -61 55 -61q41 0 62 36q20 34 32 107zM666 1262l77 147q18 41 64 41h264q27 0 33 -22t-14 -39l-154 -140q-38 -37 -88 -37h-154q-52 0 -28 50z" />
    <glyph glyph-name="Oslashacute" unicode="&#x1fe;" horiz-adv-x="1105" 
d="M705 1470q225 0 319 -104l51 64q37 44 76 16l49 -35q39 -28 4 -74l-106 -131q14 -71 14 -153q0 -127 -35 -328q-52 -301 -133 -467q-80 -164 -185 -221t-276 -57q-226 0 -315 98l-47 -58q-37 -43 -76 -16l-49 35q-41 29 -4 74l100 120q-16 74 -16 164q0 127 35 328
q52 301 133 467q80 164 185 221t276 57zM616 1569l76 147q23 41 66 41h264q27 0 33 -21t-17 -40l-151 -140q-42 -36 -90 -36h-154q-25 0 -32 14t5 35zM494 725q-5 -18 -5 -25l244 297q0 13 1 23t1 20q0 58 -15 76q-16 19 -54 19q-65 0 -95 -73q-31 -73 -77 -337zM522 315
q64 0 94 73q32 78 78 337q0 4 2 10l-243 -293v-32q0 -58 15 -76q16 -19 54 -19z" />
    <glyph glyph-name="oslashacute" unicode="&#x1ff;" horiz-adv-x="974" 
d="M422 -16q-188 0 -272 77l-46 -51q-37 -40 -65 -14l-39 33q-32 30 -2 63l76 86q-25 75 -25 172q0 88 23 221q57 326 173 457t343 131q183 0 272 -80l45 51q22 27 32 30t34 -15l39 -33q22 -21 22 -30q0 -10 -20 -33l-76 -86q25 -72 25 -172q0 -103 -21 -220
q-57 -325 -174 -456t-344 -131zM481 1262l78 147q18 41 64 41h264q27 0 33 -22q6 -21 -15 -39l-153 -140q-38 -37 -88 -37h-154q-53 0 -29 50zM426 571q-2 -6 -2 -8l188 215v4q0 43 -12 61q-11 17 -43 17q-50 0 -75 -56q-26 -58 -56 -233zM455 283q49 0 74 56q28 63 57 232
v2l2 5l-189 -216v-2q0 -40 13 -60q11 -17 43 -17z" />
    <glyph glyph-name="Scommaaccent" unicode="&#x218;" horiz-adv-x="907" 
d="M864 481q0 -225 -141 -363t-377 -138q-202 0 -303 30q-35 11 -50 28q-13 14 -7 52l34 199q15 76 95 49q69 -23 184 -23q166 0 166 115q0 33 -27 66q-28 34 -106 96q-182 151 -182 373q0 256 120 380q121 125 389 125q174 0 248 -20q34 -7 48 -26q13 -18 6 -54l-35 -205
q-12 -67 -92 -49q-78 19 -156 19q-129 0 -129 -101q0 -78 121 -186q194 -169 194 -367zM451 -322l-123 -182q-2 -2 -6 -9t-6 -9l-2 -2q-1 -3 -3 -5t-4 -5l-2 -2q-1 -1 -3 -2t-3 -2q-5 -3 -7 -3q-5 0 -8 -1t-12 -1h-34q-46 0 -25 51l55 158h-41q-69 0 -57 64l27 147
q8 64 69 64h176q66 0 58 -64l-23 -123q-6 -43 -26 -74z" />
    <glyph glyph-name="scommaaccent" unicode="&#x219;" horiz-adv-x="770" 
d="M733 406q0 -219 -111 -321q-110 -101 -343 -101q-169 0 -269 30q-29 6 -38 20t-3 42l35 198q11 62 74 41q69 -24 182 -24q125 0 125 49q0 35 -78 80q-2 1 -8 4.5t-13 7.5l-14 8l-24 15q-88 49 -133 109t-45 165q0 221 102 326q101 104 336 104q172 0 254 -24
q47 -8 39 -62l-35 -196q-11 -62 -70 -46q-77 21 -151 21q-125 0 -125 -55q0 -11 3 -19t12 -17q3 -3 9.5 -9t8.5 -8q6 -6 25 -17q18 -11 29 -16q4 -2 16.5 -9t20.5 -11l15 -7.5l14 -7l9 -4.5q151 -82 151 -266zM367 -313l-115 -170q-29 -41 -62 -41h-34q-40 0 -19 51l56 145
h-43q-64 0 -52 64l25 139q8 64 74 64h163q62 0 54 -64l-21 -115q-6 -42 -26 -73z" />
    <glyph glyph-name="uni021A" unicode="&#x21a;" horiz-adv-x="860" 
d="M156 1171l39 213q11 66 71 66h664q70 0 59 -66l-39 -213q-10 -65 -71 -65h-148l-184 -1040q-12 -66 -72 -66h-246q-71 0 -59 66l184 1040h-139q-69 0 -59 65zM428 -322l-123 -182q-1 -2 -6 -9l-2 -4t-2 -3l-1 -2l-2 -2q-1 -3 -3 -5t-4 -5l-2 -2q-1 0 -3 -1.5t-4 -2.5
q-4 -3 -7 -3q-5 0 -8 -1t-11 -1h-35q-46 0 -25 51l56 158h-41q-70 0 -58 64l27 147q8 64 70 64h176q65 0 57 -64l-22 -123q-6 -41 -27 -74z" />
    <glyph glyph-name="uni021B" unicode="&#x21b;" horiz-adv-x="614" 
d="M578 733h-89l-55 -313q-11 -58 -3 -76q7 -18 46 -18h25q59 0 47 -60l-35 -200q-7 -45 -55 -60q-54 -16 -117 -16q-146 0 -211 49t-65 170q0 49 14 133l70 391h-35q-59 0 -52 55l39 218q7 55 62 55h43l39 227q12 60 67 60h222q63 0 51 -60l-39 -227h80q61 0 53 -60
l-37 -208q-12 -60 -65 -60zM330 -313l-115 -170q-29 -41 -61 -41h-35q-40 0 -19 51l56 145h-43q-64 0 -52 64l25 139q8 64 74 64h164q61 0 53 -64l-21 -115q-6 -42 -26 -73z" />
    <glyph glyph-name="dotlessj" unicode="&#x237;" horiz-adv-x="528" 
d="M66 195l157 888q7 60 66 60h229q60 0 53 -60l-172 -977q-35 -204 -106 -272q-73 -70 -246 -70q-95 0 -141 17q-42 16 -35 59l35 201q12 59 67 59h21q33 0 49 19q15 19 23 76z" />
    <glyph glyph-name="circumflex" unicode="&#x2c6;" horiz-adv-x="573" 
d="M485 1253l-45 68l-69 -68q-39 -41 -84 -41h-144q-28 0 -34 21q-6 20 18 41l184 147q35 29 74 29h139q45 0 74 -29l131 -147q18 -21 9 -41q-9 -21 -38 -21h-135q-53 0 -80 41z" />
    <glyph glyph-name="caron" unicode="&#x2c7;" horiz-adv-x="573" 
d="M436 1341l70 68q39 41 84 41h143q29 0 35 -20t-18 -41l-185 -148q-35 -29 -73 -29h-140q-44 0 -73 29l-132 148q-18 21 -9 41t38 20h135q53 0 80 -41z" />
    <glyph glyph-name="uni02C9" unicode="&#x2c9;" horiz-adv-x="573" 
d="M696 1229h-544q-56 0 -48 53l19 102q8 54 57 54h545q57 0 49 -54l-18 -102q-8 -53 -60 -53z" />
    <glyph glyph-name="breve" unicode="&#x2d8;" horiz-adv-x="573" 
d="M434 1208q-148 0 -224 57t-60 142q6 43 47 43h125q24 0 33 -9t7 -28q-1 -33 16 -46t64 -13q86 0 101 59q10 37 53 37h125q41 0 35 -43q-16 -87 -98 -143t-224 -56z" />
    <glyph glyph-name="dotaccent" unicode="&#x2d9;" horiz-adv-x="573" 
d="M627 1391l-21 -119q-12 -60 -65 -60h-238q-65 0 -53 60l20 119q12 59 66 59h237q66 0 54 -59z" />
    <glyph glyph-name="ring" unicode="&#x2da;" horiz-adv-x="573" 
d="M442 1325q34 0 62 23q26 22 26 61q0 27 -19 43t-52 16q-40 0 -64 -21t-24 -61q0 -26 21 -44q20 -17 50 -17zM473 1602q95 0 153 -49q56 -47 56 -123q0 -109 -70 -174q-68 -64 -186 -64q-96 0 -152 48q-55 48 -55 124q0 108 70 173t184 65z" />
    <glyph glyph-name="ogonek" unicode="&#x2db;" horiz-adv-x="573" 
d="M182 37h137q-149 -106 -149 -158q0 -24 33 -24q14 0 30 4t29 4q19 0 19 -23l-2 -80q-1 -32 -35 -49q-44 -22 -111 -22q-178 0 -178 110q0 43 18 79t61 68q41 31 67 46q25 15 81 45z" />
    <glyph glyph-name="tilde" unicode="&#x2dc;" horiz-adv-x="573" 
d="M760 1370q-15 -89 -51 -125q-37 -37 -115 -37q-88 0 -150 27l-45 18q-84 30 -106 0l-4 -10q-17 -31 -53 -31h-78q-58 0 -41 80q17 88 53 125q37 37 115 37q85 0 147 -27l45 -18q86 -33 107 0l6 10q17 31 51 31h78q58 0 41 -80z" />
    <glyph glyph-name="hungarumlaut" unicode="&#x2dd;" horiz-adv-x="573" 
d="M131 1262l78 147q18 41 63 41h215q28 0 32 -20q4 -21 -13 -41l-133 -140q-37 -37 -88 -37h-125q-53 0 -29 50zM500 1262l78 147q18 41 63 41h215q28 0 32 -20t-14 -41l-133 -140q-37 -37 -88 -37h-125q-52 0 -28 50z" />
    <glyph glyph-name="uni037E" unicode="&#x37e;" horiz-adv-x="458" 
d="M49 434l39 217q12 66 72 66h213q71 0 59 -66l-39 -217q-12 -65 -71 -65h-213q-72 0 -60 65z" />
    <glyph glyph-name="uni0394" unicode="&#x394;" horiz-adv-x="1118" 
d="M526 1450h402q78 0 78 -82l-5 -1296q0 -72 -65 -72h-909q-36 0 -49 19t-1 53l451 1296q28 82 98 82zM672 1130l-223 -796h169l62 796h-8z" />
    <glyph glyph-name="uni03A9" unicode="&#x3a9;" horiz-adv-x="1257" 
d="M788 1470q472 0 472 -440q0 -223 -79 -414q-79 -192 -255 -294l-6 -41l131 28q38 8 52 -8q15 -17 9 -47l-33 -191q-12 -63 -69 -63h-420l39 252q5 25 37 57q100 94 157 286q58 195 58 359q0 172 -142 172q-72 0 -126 -58q-55 -60 -82 -153q-27 -95 -39 -187
q-13 -101 -13 -183q0 -157 56 -236q22 -28 16 -57l-39 -252h-420q-69 0 -57 63l33 191q15 71 82 55l122 -28l7 41q-69 45 -109 136q-41 94 -41 224q0 359 167 574q166 214 492 214z" />
    <glyph glyph-name="uni03BC" unicode="&#x3bc;" horiz-adv-x="950" 
d="M997 1083l-141 -798q-29 -165 -94 -233t-197 -68q-83 0 -144 29q-63 30 -87 69l-39 -246q-6 -37 -21 -49t-49 -12h-223q-60 0 -53 59l221 1249q8 60 66 60h229q61 0 53 -60l-108 -610q-9 -52 -9 -80q0 -78 62 -78q32 0 45 22q12 21 24 87l117 659q7 60 66 60h229
q60 0 53 -60z" />
    <glyph glyph-name="pi" unicode="&#x3c0;" horiz-adv-x="1212" 
d="M1047 821l-80 -456q-8 -52 2 -66t59 -14h39q57 0 49 -60l-29 -162q-7 -44 -55 -59q-54 -16 -141 -16q-285 0 -285 223q0 43 8 86l93 524h-89l-231 -760q-11 -31 -27 -47q-14 -14 -43 -14h-233q-32 0 -46 15t-3 46l239 760h-104q-67 0 -55 64l35 196q11 62 69 62h991
q69 0 58 -62l-35 -196q-12 -64 -72 -64h-114z" />
    <glyph glyph-name="Wgrave" unicode="&#x1e80;" horiz-adv-x="1646" 
d="M862 1450h246q31 0 48 -17t15 -47l-41 -630l-26 -277h4l78 277l194 630q18 64 76 64h279q35 0 48 -19t1 -53l-443 -1296q-28 -82 -98 -82h-332q-77 0 -77 82l14 324l24 333h-4l-94 -333l-96 -324q-28 -82 -98 -82h-332q-78 0 -78 82l12 1296q0 72 66 72h266q64 0 64 -64
l-27 -630l-21 -277h5l71 277l180 630q18 64 76 64zM1059 1716l26 -147q6 -49 -38 -49h-154q-56 0 -82 36l-106 140q-16 19 -5 40q10 21 37 21h264q53 0 58 -41z" />
    <glyph glyph-name="wgrave" unicode="&#x1e81;" horiz-adv-x="1380" 
d="M702 1143h193q58 0 53 -58l-14 -434l-14 -209h4l55 209l127 428q23 64 76 64h252q60 0 36 -66l-358 -1011q-24 -66 -84 -66h-250q-71 0 -71 66v256l10 284h-4l-92 -284l-91 -256q-24 -66 -84 -66h-249q-72 0 -72 66l-2 1011q0 66 53 66h240q64 0 59 -64l-20 -428
l-19 -209h4l60 209l137 434q18 58 65 58zM915 1409l25 -147q11 -50 -41 -50h-141q-52 0 -80 37l-117 140q-14 17 -5 39t36 22h264q53 0 59 -41z" />
    <glyph glyph-name="Wacute" unicode="&#x1e82;" horiz-adv-x="1646" 
d="M862 1450h246q31 0 48 -17t15 -47l-41 -630l-26 -277h4l78 277l194 630q18 64 76 64h279q35 0 48 -19t1 -53l-443 -1296q-28 -82 -98 -82h-332q-77 0 -77 82l14 324l24 333h-4l-94 -333l-96 -324q-28 -82 -98 -82h-332q-78 0 -78 82l12 1296q0 72 66 72h266q64 0 64 -64
l-27 -630l-21 -277h5l71 277l180 630q18 64 76 64zM840 1569l75 147q23 41 66 41h264q27 0 33 -21q6 -22 -16 -40l-152 -140q-42 -36 -90 -36h-154q-24 0 -31 14t5 35z" />
    <glyph glyph-name="wacute" unicode="&#x1e83;" horiz-adv-x="1380" 
d="M702 1143h193q58 0 53 -58l-14 -434l-14 -209h4l55 209l127 428q23 64 76 64h252q60 0 36 -66l-358 -1011q-24 -66 -84 -66h-250q-71 0 -71 66v256l10 284h-4l-92 -284l-91 -256q-24 -66 -84 -66h-249q-72 0 -72 66l-2 1011q0 66 53 66h240q64 0 59 -64l-20 -428
l-19 -209h4l60 209l137 434q18 58 65 58zM670 1262l78 147q18 41 63 41h264q27 0 33 -22t-14 -39l-154 -140q-38 -37 -88 -37h-154q-52 0 -28 50z" />
    <glyph glyph-name="Wdieresis" unicode="&#x1e84;" horiz-adv-x="1646" 
d="M862 1450h246q31 0 48 -17t15 -47l-41 -630l-26 -277h4l78 277l194 630q18 64 76 64h279q35 0 48 -19t1 -53l-443 -1296q-28 -82 -98 -82h-332q-77 0 -77 82l14 324l24 333h-4l-94 -333l-96 -324q-28 -82 -98 -82h-332q-78 0 -78 82l12 1296q0 72 66 72h266q64 0 64 -64
l-27 -630l-21 -277h5l71 277l180 630q18 64 76 64zM979 1702l-23 -127q-10 -55 -61 -55h-201q-59 0 -49 55l23 127q7 55 61 55h201q56 0 49 -55zM1384 1702l-22 -127q-10 -55 -62 -55h-200q-59 0 -49 55l22 127q7 55 62 55h200q56 0 49 -55z" />
    <glyph glyph-name="wdieresis" unicode="&#x1e85;" horiz-adv-x="1380" 
d="M702 1143h193q58 0 53 -58l-14 -434l-14 -209h4l55 209l127 428q23 64 76 64h252q60 0 36 -66l-358 -1011q-24 -66 -84 -66h-250q-71 0 -71 66v256l10 284h-4l-92 -284l-91 -256q-24 -66 -84 -66h-249q-72 0 -72 66l-2 1011q0 66 53 66h240q64 0 59 -64l-20 -428
l-19 -209h4l60 209l137 434q18 58 65 58zM801 1395l-23 -127q-12 -56 -61 -56h-201q-61 0 -49 56l22 127q10 55 60 55h201q61 0 51 -55zM1190 1395l-23 -127q-12 -56 -61 -56h-201q-61 0 -49 56l23 127q10 55 59 55h201q61 0 51 -55z" />
    <glyph glyph-name="Ygrave" unicode="&#x1ef2;" horiz-adv-x="1040" 
d="M721 545l-84 -479q-12 -66 -72 -66h-246q-71 0 -59 66l84 479l-164 825q-6 32 8 55q16 25 56 25h252q73 0 77 -61l19 -308l-8 -190h8l61 190l125 308q24 61 90 61h265q43 0 52 -28t-9 -52zM811 1716l27 -147q6 -49 -39 -49h-154q-56 0 -82 36l-106 140q-15 18 -4 40
q11 21 36 21h265q52 0 57 -41z" />
    <glyph glyph-name="ygrave" unicode="&#x1ef3;" horiz-adv-x="897" 
d="M983 1077l-365 -1011q-62 -173 -148 -237q-88 -65 -277 -65q-167 0 -218 17q-41 16 -34 59l32 185q7 59 70 59q4 0 36 -2t34 -2q77 0 71 90l-57 907q-5 66 51 66h242q66 0 61 -64l-20 -452l-12 -201h8l47 201l112 452q18 64 74 64h254q63 0 39 -66zM688 1409l25 -147
q11 -50 -41 -50h-142q-51 0 -79 37l-117 140q-14 17 -5 39t36 22h264q53 0 59 -41z" />
    <glyph glyph-name="figuredash" unicode="&#x2012;" horiz-adv-x="966" 
d="M827 483h-675q-62 0 -54 60l21 114q12 60 65 60h676q65 0 53 -60l-20 -114q-7 -60 -66 -60z" />
    <glyph glyph-name="endash" unicode="&#x2013;" horiz-adv-x="798" 
d="M698 465h-589q-66 0 -54 59l31 176q8 60 66 60h589q61 0 54 -60l-31 -176q-12 -59 -66 -59z" />
    <glyph glyph-name="emdash" unicode="&#x2014;" horiz-adv-x="1187" 
d="M1087 465h-978q-66 0 -54 59l31 176q8 60 66 60h978q62 0 54 -60l-31 -176q-12 -59 -66 -59z" />
    <glyph glyph-name="quoteleft" unicode="&#x2018;" horiz-adv-x="458" 
d="M203 1210l145 211q27 41 62 41h90q22 0 29 -14t-5 -37l-112 -186h53q69 0 57 -66l-37 -217q-12 -65 -73 -65h-213q-70 0 -58 65l33 193q10 46 29 75z" />
    <glyph glyph-name="quoteright" unicode="&#x2019;" horiz-adv-x="458" 
d="M502 1116l-148 -211q-27 -41 -61 -41h-90q-23 0 -30 15q-7 14 5 36l113 187h-53q-70 0 -58 65l39 217q11 66 72 66h213q70 0 59 -66l-35 -192q-6 -45 -26 -76z" />
    <glyph glyph-name="quotesinglbase" unicode="&#x201a;" horiz-adv-x="458" 
d="M309 14l-147 -211q-27 -41 -62 -41h-90q-22 0 -29 15q-7 14 5 37l112 186h-53q-69 0 -57 66l39 217q10 65 71 65h213q70 0 60 -65l-35 -193q-6 -43 -27 -76z" />
    <glyph glyph-name="quotedblleft" unicode="&#x201c;" horiz-adv-x="880" 
d="M623 1198l145 211q27 41 61 41h91q22 0 29 -14t-5 -37l-113 -187h54q69 0 57 -65l-37 -217q-12 -66 -74 -66h-213q-69 0 -57 66l33 192q7 48 29 76zM201 1198l145 211q27 41 62 41h90q22 0 29 -14t-5 -37l-112 -187h53q69 0 57 -65l-37 -217q-12 -66 -73 -66h-213
q-70 0 -58 66l33 192q7 48 29 76z" />
    <glyph glyph-name="quotedblright" unicode="&#x201d;" horiz-adv-x="880" 
d="M502 1116l-148 -211q-27 -41 -61 -41h-90q-23 0 -30 15q-7 14 5 36l113 187h-53q-70 0 -58 65l39 217q11 66 72 66h213q70 0 59 -66l-35 -192q-7 -48 -26 -76zM924 1116l-148 -211q-27 -41 -61 -41h-90q-23 0 -30 15q-7 14 5 36l113 187h-54q-69 0 -57 65l39 217
q11 66 72 66h213q70 0 59 -66l-35 -192q-7 -48 -26 -76z" />
    <glyph glyph-name="quotedblbase" unicode="&#x201e;" horiz-adv-x="880" 
d="M309 14l-147 -211q-27 -41 -62 -41h-90q-22 0 -29 15q-7 14 5 37l112 186h-53q-69 0 -57 66l39 217q10 65 71 65h213q70 0 60 -65l-35 -193q-7 -46 -27 -76zM731 14l-147 -211q-27 -41 -62 -41h-90q-22 0 -30 15q-7 13 6 37l112 186h-53q-69 0 -57 66l39 217q10 65 71 65
h213q70 0 60 -65l-35 -193q-7 -46 -27 -76z" />
    <glyph glyph-name="dagger" unicode="&#x2020;" horiz-adv-x="860" 
d="M920 1085l-33 -180q-7 -57 -64 -57h-159l-179 -1016q-7 -57 -63 -57h-221q-59 0 -51 57l178 1016h-152q-58 0 -51 57l33 180q8 58 63 58h160l43 250q12 57 63 57h213q32 0 49 -14t11 -43l-43 -250h151q60 0 52 -58z" />
    <glyph glyph-name="daggerdbl" unicode="&#x2021;" horiz-adv-x="860" 
d="M784 319l-32 -180q-8 -57 -62 -57h-160l-45 -250q-7 -57 -71 -57h-213q-59 0 -51 57l45 250h-152q-61 0 -53 57l33 180q8 58 63 58h160l82 471h-152q-58 0 -51 57l33 180q8 58 63 58h160l43 250q12 57 63 57h213q32 0 49 -14t11 -43l-43 -250h151q60 0 52 -58l-33 -180
q-7 -57 -64 -57h-159l-82 -471h151q59 0 51 -58z" />
    <glyph glyph-name="bullet" unicode="&#x2022;" horiz-adv-x="753" 
d="M348 256q-120 0 -197 72t-77 184q0 153 104 263q106 112 264 112q121 0 198 -74t77 -186q0 -148 -107 -260q-106 -111 -262 -111z" />
    <glyph glyph-name="onedotenleader" unicode="&#x2024;" horiz-adv-x="458" 
d="M-14 66l39 217q12 65 71 65h213q72 0 60 -65l-39 -217q-12 -66 -72 -66h-213q-71 0 -59 66z" />
    <glyph glyph-name="twodotenleader" unicode="&#x2025;" horiz-adv-x="917" 
d="M444 66l39 217q12 65 72 65h213q71 0 59 -65l-39 -217q-12 -66 -71 -66h-213q-72 0 -60 66zM-14 66l39 217q12 65 71 65h213q72 0 60 -65l-39 -217q-12 -66 -72 -66h-213q-71 0 -59 66z" />
    <glyph glyph-name="ellipsis" unicode="&#x2026;" horiz-adv-x="1376" 
d="M-14 66l39 217q12 65 71 65h213q72 0 60 -65l-39 -217q-12 -66 -72 -66h-213q-71 0 -59 66zM444 66l39 217q12 65 72 65h213q71 0 59 -65l-39 -217q-12 -66 -71 -66h-213q-72 0 -60 66zM903 66l39 217q12 65 72 65h213q71 0 59 -65l-39 -217q-12 -66 -71 -66h-213
q-72 0 -60 66z" />
    <glyph glyph-name="perthousand" unicode="&#x2030;" horiz-adv-x="2220" 
d="M1356 1397l-832 -1356q-24 -41 -73 -41h-138q-52 0 -22 53l831 1356q24 41 74 41h137q53 0 23 -53zM131 1030q38 218 116 324q79 108 242 108q254 0 254 -278q0 -81 -14 -154q-38 -217 -116 -323q-80 -109 -242 -109q-254 0 -254 279q0 80 14 153zM487 1030
q17 102 17 139q0 72 -41 72q-30 0 -50 -44q-19 -41 -40 -167q-17 -102 -17 -139q0 -72 41 -72q30 0 50 44q19 41 40 167zM918 420q38 219 115 323q80 109 243 109q254 0 254 -279q0 -80 -14 -153q-38 -214 -117 -323t-244 -109q-252 0 -252 276q0 78 15 156zM1274 420
q16 86 16 145q0 66 -37 66q-31 0 -52 -45t-42 -166q-18 -102 -18 -148q0 -63 37 -63q31 0 52 45q22 47 44 166zM1579 420q38 217 116 323q80 109 242 109q254 0 254 -279q0 -80 -14 -153q-38 -214 -117 -323t-243 -109q-252 0 -252 276q0 83 14 156zM1935 420q17 91 17 145
q0 66 -37 66q-31 0 -52 -45t-42 -166q-19 -108 -19 -148q0 -63 37 -63q31 0 52 45q22 47 44 166z" />
    <glyph glyph-name="guilsinglleft" unicode="&#x2039;" horiz-adv-x="528" 
d="M66 610q5 18 10 27l168 293q23 47 71 47h195q63 0 29 -59l-174 -308l67 -307q10 -59 -45 -59h-194q-56 0 -62 47l-63 293q-4 16 -2 26z" />
    <glyph glyph-name="guilsinglright" unicode="&#x203a;" horiz-adv-x="528" 
d="M512 610q-4 -16 -10 -26l-166 -293q-29 -47 -74 -47h-194q-63 0 -29 59l174 307l-68 308q-10 59 45 59h195q52 0 64 -47l61 -293q4 -16 2 -27z" />
    <glyph glyph-name="exclamdbl" unicode="&#x203c;" horiz-adv-x="987" 
d="M12 66l41 233q12 66 76 66h229q68 0 56 -66l-41 -233q-12 -66 -74 -66h-229q-70 0 -58 66zM348 471h-164q-65 0 -55 66l100 847q6 66 68 66h274q64 0 52 -66l-199 -847q-16 -66 -76 -66zM471 66l41 233q12 66 76 66h229q67 0 55 -66l-41 -233q-12 -66 -73 -66h-230
q-69 0 -57 66zM807 471h-164q-65 0 -55 66l100 847q6 66 68 66h274q63 0 51 -66l-198 -847q-17 -66 -76 -66z" />
    <glyph glyph-name="fraction" unicode="&#x2044;" horiz-adv-x="143" 
d="M649 1397l-829 -1356q-24 -41 -72 -41h-137q-55 0 -25 53l830 1356q24 41 69 41h138q26 0 33 -16q8 -17 -7 -37z" />
    <glyph glyph-name="zero.superior" unicode="&#x2070;" horiz-adv-x="679" 
d="M449 997q-263 0 -263 287q0 69 17 166q39 224 119 339q79 114 251 114q265 0 265 -289q0 -67 -17 -164q-40 -223 -121 -339q-80 -114 -251 -114zM471 1229q33 0 54 47q22 48 44 174q19 112 19 156q0 65 -37 65q-33 0 -54 -47q-21 -46 -42 -174q-19 -117 -19 -158
q0 -63 35 -63z" />
    <glyph glyph-name="four.superior" unicode="&#x2074;" horiz-adv-x="679" 
d="M524 1602l-178 -232h137zM737 1178h-43l-22 -123q-6 -45 -47 -45h-156q-21 0 -33 12t-10 33l23 123h-254q-37 0 -31 36l22 132q1 24 21 49l348 463q22 32 47 32h168q21 0 33 -12t10 -33l-84 -475h35q45 0 37 -41l-19 -110q-8 -41 -45 -41z" />
    <glyph glyph-name="five.superior" unicode="&#x2075;" horiz-adv-x="679" 
d="M403 997q-155 0 -208 27q-24 11 -23 37l27 147q5 30 41 23q105 -19 149 -19q135 0 135 115q0 70 -88 70q-37 0 -85 -9q-53 -10 -62 -10q-11 0 -19 8l-18 13q-12 10 -4 39q46 168 90 411q6 41 41 41h403q41 0 35 -37l-24 -137q-6 -37 -39 -37h-242q-2 -9 -29 -108
q32 8 82 8q209 0 209 -207q0 -184 -96 -279q-98 -96 -275 -96z" />
    <glyph glyph-name="six.superior" unicode="&#x2076;" horiz-adv-x="679" 
d="M731 1677q-7 0 -45 7q-43 8 -68 8q-121 0 -145 -127q52 37 127 37q100 0 153 -60q52 -59 52 -153q0 -170 -93 -281t-253 -111q-137 0 -206 77q-69 76 -69 210q0 106 13 178q85 441 426 441q108 0 159 -21q27 -11 21 -41l-23 -129q-6 -35 -49 -35zM487 1196q80 0 80 143
q0 72 -55 72q-48 0 -66 -44q-18 -43 -18 -95q0 -76 59 -76z" />
    <glyph glyph-name="seven.superior" unicode="&#x2077;" horiz-adv-x="679" 
d="M856 1853l-22 -129q-5 -23 -31 -57q-100 -126 -185 -294q-85 -169 -112 -320q-6 -43 -43 -43h-187q-42 0 -36 41q28 157 126 334q99 179 209 294h-264q-38 0 -32 37l24 137q6 37 37 37h483q39 0 33 -37z" />
    <glyph glyph-name="eight.superior" unicode="&#x2078;" horiz-adv-x="679" 
d="M449 997q-129 0 -207 61q-76 60 -76 152q0 176 172 254q-86 50 -86 172q0 134 92 200q93 67 229 67q118 0 196 -52q77 -51 77 -145q0 -80 -42 -143q-43 -65 -114 -99q98 -50 98 -172q0 -143 -98 -219t-241 -76zM500 1380q-82 -49 -82 -127q0 -57 53 -57q36 0 54 30t18 68
q0 56 -43 86zM528 1544q76 52 76 127q0 49 -49 49q-66 0 -66 -94q0 -49 39 -82z" />
    <glyph glyph-name="nine.superior" unicode="&#x2079;" horiz-adv-x="679" 
d="M291 1223q2 0 45 -8q38 -7 67 -7q122 0 146 127q-52 -37 -125 -37q-207 0 -207 207q0 169 95 284q94 114 255 114q137 0 205 -75q68 -76 68 -208q0 -110 -21 -227q-33 -186 -139 -290q-108 -106 -281 -106q-108 0 -159 21q-27 11 -21 41l23 129q6 35 49 35zM535 1704
q-80 0 -80 -145q0 -70 55 -70q44 0 64 44q20 45 20 95q0 76 -59 76z" />
    <glyph glyph-name="parenleft.superior" unicode="&#x207d;" horiz-adv-x="409" 
d="M213 1307q0 158 56 313q58 160 161 272q18 23 49 23h127q19 0 23 -13q5 -14 -6 -24q-181 -300 -181 -600q0 -141 31 -256q2 -13 -6 -25q-7 -12 -27 -12h-127q-30 0 -41 23q-59 111 -59 299z" />
    <glyph glyph-name="parenright.superior" unicode="&#x207e;" horiz-adv-x="409" 
d="M539 1589q0 -154 -57 -310q-59 -161 -160 -271q-18 -23 -50 -23h-125q-18 0 -22 13q-5 14 6 24q178 308 178 596q0 148 -30 260q-2 13 6 25q7 12 26 12h127q29 0 41 -23q60 -108 60 -303z" />
    <glyph glyph-name="n.superior" unicode="&#x207f;" horiz-adv-x="724" 
d="M346 1890h139q53 0 54 -39l2 -24q72 76 164 76q88 0 135 -49t47 -134q0 -32 -6 -65l-107 -598q-6 -47 -51 -47h-160q-49 0 -43 47l92 520q15 82 -34 82q-61 0 -82 -121l-86 -481q-6 -47 -52 -47h-159q-49 0 -43 47l139 786q11 47 51 47z" />
    <glyph glyph-name="zero.inferior" unicode="&#x2080;" horiz-adv-x="679" 
d="M195 -453q-263 0 -263 287q0 69 17 166q39 224 119 339q80 114 251 114q265 0 265 -289q0 -67 -17 -164q-40 -223 -121 -339q-80 -114 -251 -114zM217 -221q33 0 54 47q22 48 44 174q19 112 19 156q0 65 -37 65q-33 0 -54 -47q-21 -46 -42 -174q-19 -117 -19 -158
q0 -63 35 -63z" />
    <glyph glyph-name="one.inferior" unicode="&#x2081;" horiz-adv-x="679" 
d="M233 168l-94 -78q-30 -24 -57 -2l-62 78q-28 32 9 59l237 197q21 18 53 18h162q21 0 33 -12t10 -33l-141 -790q-6 -45 -47 -45h-160q-21 0 -33 12t-10 33z" />
    <glyph glyph-name="two.inferior" unicode="&#x2082;" horiz-adv-x="679" 
d="M221 137q0 -33 -9 -46t-32 -13h-153q-35 0 -35 49q0 158 88 242q89 84 250 84q116 0 184 -59t68 -150q0 -253 -322 -473h199q41 0 35 -37l-25 -137q-6 -37 -39 -37h-475q-39 0 -33 37l21 118q4 27 37 49q118 75 221 187q96 105 118 219q6 39 -1 53q-8 15 -33 15
q-64 0 -64 -101z" />
    <glyph glyph-name="three.inferior" unicode="&#x2083;" horiz-adv-x="679" 
d="M176 -88h-63q-41 0 -35 37l22 125q6 35 39 35h66q43 0 69 20q27 21 27 57q0 56 -111 56q-14 0 -131 -19q-23 -1 -30 3q-8 5 -4 20l24 143q5 27 35 35q87 29 195 29q120 0 198 -45t78 -138q0 -80 -44 -144q-43 -62 -116 -85q44 -12 72 -58q29 -47 29 -118q0 -162 -95 -240
t-254 -78t-219 27q-27 12 -22 35l24 149q5 30 43 23q136 -19 144 -19q133 0 133 99q0 51 -74 51z" />
    <glyph glyph-name="four.inferior" unicode="&#x2084;" horiz-adv-x="679" 
d="M270 152l-178 -232h137zM483 -272h-43l-22 -123q-6 -45 -47 -45h-156q-21 0 -33 12t-10 33l23 123h-254q-37 0 -31 36l22 132q1 24 21 49l348 463q22 32 47 32h168q21 0 33 -12t10 -33l-84 -475h35q45 0 37 -41l-19 -110q-8 -41 -45 -41z" />
    <glyph glyph-name="five.inferior" unicode="&#x2085;" horiz-adv-x="679" 
d="M150 -453q-156 0 -209 27q-24 11 -23 37l27 147q5 30 41 23q105 -19 149 -19q135 0 135 115q0 70 -88 70q-37 0 -85 -9q-53 -10 -62 -10q-10 0 -19 9l-18 12q-12 10 -4 39q46 168 90 411q6 41 41 41h403q41 0 35 -37l-24 -137q-6 -37 -39 -37h-242q-2 -9 -29 -108
q32 8 82 8q209 0 209 -207q0 -184 -96 -279q-98 -96 -274 -96z" />
    <glyph glyph-name="six.inferior" unicode="&#x2086;" horiz-adv-x="679" 
d="M477 227q-7 0 -45 7q-43 8 -67 8q-122 0 -146 -127q52 37 127 37q100 0 153 -60q52 -59 52 -153q0 -170 -93 -281t-253 -111q-137 0 -206 77q-69 76 -69 210q0 106 13 178q85 441 426 441q108 0 159 -21q27 -11 21 -41l-23 -129q-6 -35 -49 -35zM233 -254q80 0 80 143
q0 72 -55 72q-47 0 -65 -44q-19 -46 -19 -95q0 -76 59 -76z" />
    <glyph glyph-name="seven.inferior" unicode="&#x2087;" horiz-adv-x="679" 
d="M602 403l-22 -129q-5 -23 -31 -57q-98 -123 -184 -294q-87 -172 -113 -320q-6 -43 -43 -43h-186q-43 0 -37 41q28 157 126 334t210 294h-265q-38 0 -32 37l24 137q6 37 37 37h483q39 0 33 -37z" />
    <glyph glyph-name="eight.inferior" unicode="&#x2088;" horiz-adv-x="679" 
d="M195 -453q-129 0 -207 61q-76 60 -76 152q0 176 172 254q-86 50 -86 172q0 134 92 200q93 67 229 67q118 0 196 -52q77 -51 77 -145q0 -80 -42 -143q-43 -65 -114 -99q99 -51 99 -172q0 -142 -99 -219q-98 -76 -241 -76zM246 -70q-82 -49 -82 -127q0 -57 53 -57
q36 0 54 30t18 68q0 56 -43 86zM274 94q76 52 76 127q0 49 -49 49q-65 0 -65 -94q0 -50 38 -82z" />
    <glyph glyph-name="nine.inferior" unicode="&#x2089;" horiz-adv-x="679" 
d="M37 -227q7 0 45 -7q43 -8 68 -8q121 0 145 127q-52 -37 -125 -37q-207 0 -207 207q0 169 95 284q95 114 255 114q137 0 205 -75q68 -76 68 -208q0 -110 -21 -227q-33 -186 -139 -290q-108 -106 -281 -106q-108 0 -159 21q-27 11 -21 41l23 129q6 35 49 35zM281 254
q-80 0 -80 -145q0 -70 55 -70q45 0 65 44q19 42 19 95q0 76 -59 76z" />
    <glyph glyph-name="parenleft.inferior" unicode="&#x208d;" horiz-adv-x="409" 
d="M-41 -143q0 158 56 313q58 160 161 272q18 23 49 23h127q19 0 23 -13q5 -14 -6 -24q-181 -300 -181 -600q0 -141 31 -256q2 -13 -6 -25t-27 -12h-127q-30 0 -41 23q-59 111 -59 299z" />
    <glyph glyph-name="parenright.inferior" unicode="&#x208e;" horiz-adv-x="409" 
d="M285 139q0 -154 -57 -310q-59 -161 -160 -271q-18 -23 -50 -23h-124q-19 0 -23 13q-5 14 6 24q178 308 178 596q0 148 -30 260q-2 13 6 25t26 12h127q29 0 41 -23q60 -108 60 -303z" />
    <glyph glyph-name="Euro" unicode="&#x20ac;" horiz-adv-x="1036" 
d="M106 666h84l9 63q3 13 6 27t5 23t3 14h-76q-55 0 -47 51l12 73q8 52 58 52h90q82 286 220 394q137 107 398 107q165 0 260 -26q57 -15 35 -76l-65 -195q-12 -33 -31 -48q-18 -13 -53 -7q-57 12 -123 12q-114 0 -168 -32q-55 -33 -88 -129h311q53 0 35 -51l-25 -74
q-18 -51 -59 -51h-309q-3 -12 -15 -64l-8 -63h275q52 0 34 -52l-24 -73q-18 -52 -59 -52h-240q1 -93 45 -125t154 -32q70 0 127 12q37 6 50 -7t13 -48v-195q-1 -61 -63 -76q-103 -26 -228 -26q-247 0 -365 93t-118 329q0 39 2 75h-84q-55 0 -47 52l12 73q8 52 57 52z" />
    <glyph glyph-name="afii61289" unicode="&#x2113;" horiz-adv-x="1036" 
d="M692 303q20 0 99 12q32 4 45 -5q12 -9 8 -36l-37 -204q-5 -30 -17 -41q-16 -14 -42 -21q-74 -24 -175 -24q-181 0 -267 61q-87 61 -87 205q0 63 10 112l2 19q-41 -13 -100 -25q-31 -8 -31 19l-12 168q0 24 23 32q60 14 163 50l52 284q24 147 53 240q28 91 77 170
q48 78 125 113q75 34 187 34q287 0 287 -288q0 -406 -457 -654l-14 -80q-6 -38 -6 -61q0 -43 25 -61q27 -19 89 -19zM678 987l-31 -172q187 148 187 336q0 61 -43 61q-39 0 -65 -51t-48 -174z" />
    <glyph glyph-name="trademark" unicode="&#x2122;" horiz-adv-x="1167" 
d="M557 1262h-65l-80 -451q-6 -37 -37 -37h-144q-38 0 -32 37l80 451h-58q-20 0 -29 8.5t-6 25.5l21 119q6 35 39 35h336q40 0 34 -35l-20 -119q-6 -34 -39 -34zM889 926q-22 0 -29 26l-37 154l-53 -295q-6 -37 -37 -37h-137q-39 0 -33 37l107 602q6 37 37 37h131
q39 0 45 -27l55 -217l133 217q15 27 45 27h131q39 0 33 -37l-106 -602q-6 -37 -37 -37h-138q-38 0 -32 37l53 295l-94 -154q-14 -26 -37 -26z" />
    <glyph glyph-name="Omega" unicode="&#x2126;" horiz-adv-x="1257" 
d="M788 1470q472 0 472 -440q0 -223 -79 -414q-79 -192 -255 -294l-6 -41l131 28q38 8 52 -8q15 -17 9 -47l-33 -191q-12 -63 -69 -63h-420l39 252q5 25 37 57q100 94 157 286q58 195 58 359q0 172 -142 172q-72 0 -126 -58q-55 -60 -82 -153q-27 -95 -39 -187
q-13 -101 -13 -183q0 -157 56 -236q22 -28 16 -57l-39 -252h-420q-69 0 -57 63l33 191q15 71 82 55l122 -28l7 41q-69 45 -109 136q-41 94 -41 224q0 359 167 574q166 214 492 214z" />
    <glyph glyph-name="estimated" unicode="&#x212e;" horiz-adv-x="1753" 
d="M1679 686h-1286q-10 0 -10 -8v-379q0 -39 16 -59q170 -197 492 -197q324 0 516 223h119q-111 -132 -279 -209q-163 -75 -358 -75q-338 0 -573 215q-234 215 -234 518q0 307 230 521t569 214q338 0 568 -214t230 -521v-29zM1378 748v380q0 51 -22 74q-192 187 -473 187
q-289 0 -482 -199q-18 -18 -18 -60v-382q0 -13 10 -13h975q10 0 10 13z" />
    <glyph glyph-name="onethird" unicode="&#x2153;" horiz-adv-x="1597" 
d="M410 1178l-95 -78q-30 -24 -57 -2l-61 78q-28 33 8 59l237 197q21 18 54 18h161q21 0 33 -12t10 -33l-141 -791q-6 -45 -47 -45h-160q-20 0 -33 13q-11 11 -10 32zM1341 1397l-829 -1356q-24 -41 -72 -41h-137q-54 0 -24 53l829 1356q24 41 70 41h137q27 0 34 -16t-8 -37
zM1106 352h63q74 0 74 -51q0 -98 -133 -98q-14 0 -143 18q-39 7 -43 -22l-25 -150q-5 -23 23 -35q58 -26 219 -26q159 0 254 78q94 78 94 239q0 71 -29 118q-28 46 -71 58q72 22 115 85q44 64 44 145q0 92 -78 137t-198 45q-108 0 -195 -29q-30 -8 -35 -35l-24 -143
q-4 -14 4 -19t31 -3q111 18 131 18q110 0 110 -55q0 -38 -26 -58t-70 -20h-65q-33 0 -39 -35l-23 -125q-6 -37 35 -37z" />
    <glyph glyph-name="twothirds" unicode="&#x2154;" horiz-adv-x="1597" 
d="M397 1147q0 -33 -9 -46q-9 -14 -32 -14h-153q-35 0 -35 50q0 157 88 241t250 84q117 0 184 -58q68 -59 68 -151q0 -253 -322 -473h199q41 0 35 -37l-25 -137q-6 -37 -39 -37h-475q-39 0 -33 37l21 119q4 28 37 49q118 75 221 187q98 107 119 219q6 38 -1 52q-7 15 -34 15
q-64 0 -64 -100zM1391 1397l-830 -1356q-24 -41 -72 -41h-137q-54 0 -24 53l829 1356q24 41 70 41h137q27 0 34 -16q8 -17 -7 -37zM1186 352h-64q-41 0 -35 37l23 125q6 35 39 35h65q44 0 70 20q27 21 27 58q0 55 -111 55q-20 0 -131 -18q-23 -2 -31 3t-4 19l25 143
q5 27 35 35q87 29 194 29q121 0 199 -45t78 -137q0 -81 -44 -145q-43 -62 -116 -85q44 -12 72 -58t28 -118q0 -161 -94 -239q-95 -78 -254 -78q-161 0 -219 26q-28 12 -23 35l25 150q4 29 43 22q129 -18 143 -18q134 0 134 98q0 51 -74 51z" />
    <glyph glyph-name="oneeighth" unicode="&#x215b;" horiz-adv-x="1597" 
d="M410 1178l-95 -78q-30 -24 -57 -2l-61 78q-28 33 8 59l237 197q21 18 54 18h161q21 0 33 -12t10 -33l-141 -791q-6 -45 -47 -45h-160q-20 0 -33 13q-11 11 -10 32zM1358 1397l-830 -1356q-24 -41 -71 -41h-138q-54 0 -24 53l829 1356q24 41 70 41h137q27 0 34 -16
q8 -17 -7 -37zM1188 -12q145 0 242 75q98 76 98 220q0 122 -98 172q70 34 113 98q42 63 42 143q0 95 -77 146q-76 51 -195 51q-137 0 -230 -67q-92 -66 -92 -199q0 -122 86 -172q-172 -78 -172 -254q0 -93 76 -153q77 -60 207 -60zM1239 371q43 -30 43 -86q0 -41 -17 -69
q-18 -30 -55 -30q-53 0 -53 58q0 78 82 127zM1268 535q-39 33 -39 81q0 95 65 95q49 0 49 -50q0 -75 -75 -126z" />
    <glyph glyph-name="threeeighths" unicode="&#x215c;" horiz-adv-x="1597" 
d="M352 922h-63q-41 0 -35 36l22 125q6 35 39 35h66q43 0 70 21q26 20 26 57q0 55 -110 55q-20 0 -131 -18q-23 -2 -31 3t-4 19l24 144q5 27 35 35q84 28 195 28q120 0 198 -45t78 -137q0 -80 -44 -144q-43 -62 -116 -85q43 -12 72 -59t29 -118q0 -161 -94 -239t-254 -78
t-220 27q-26 12 -22 34l24 150q5 31 44 23q136 -19 143 -19q133 0 133 98q0 52 -74 52zM1358 1397l-830 -1356q-24 -41 -71 -41h-138q-54 0 -24 53l829 1356q24 41 70 41h137q27 0 34 -16q8 -17 -7 -37zM1188 -12q-130 0 -207 60q-76 60 -76 153q0 176 172 254
q-86 50 -86 172q0 133 92 199q93 67 230 67q119 0 195 -51q77 -51 77 -146q0 -80 -42 -143q-43 -64 -113 -98q98 -50 98 -172q0 -144 -98 -220q-97 -75 -242 -75zM1239 371q-82 -49 -82 -127q0 -58 53 -58q37 0 55 30q17 28 17 69q0 56 -43 86zM1268 535q75 51 75 127
q0 49 -49 49q-65 0 -65 -95q0 -48 39 -81z" />
    <glyph glyph-name="fiveeighths" unicode="&#x215d;" horiz-adv-x="1597" 
d="M326 557q-156 0 -209 27q-24 11 -23 37l27 147q5 30 41 23q105 -19 149 -19q135 0 135 115q0 69 -88 69q-37 0 -85 -9t-62 -9q-10 0 -18 8l-19 12q-12 10 -4 39q46 166 90 412q6 41 41 41h404q40 0 34 -37l-24 -137q-6 -37 -39 -37h-242q-8 -34 -28 -109q36 9 81 9
q209 0 209 -207q0 -186 -96 -280q-97 -95 -274 -95zM1362 1397l-830 -1356q-24 -41 -71 -41h-137q-55 0 -25 53l829 1356q24 41 70 41h137q27 0 34 -16q8 -17 -7 -37zM1188 -12q-130 0 -207 60q-76 60 -76 153q0 176 172 254q-86 50 -86 172q0 133 92 199q93 67 230 67
q119 0 195 -51q77 -51 77 -146q0 -80 -42 -143q-43 -64 -113 -98q98 -50 98 -172q0 -144 -98 -220q-97 -75 -242 -75zM1239 371q-82 -49 -82 -127q0 -58 53 -58q37 0 55 30q17 28 17 69q0 56 -43 86zM1268 535q75 51 75 127q0 49 -49 49q-65 0 -65 -95q0 -48 39 -81z" />
    <glyph glyph-name="seveneighths" unicode="&#x215e;" horiz-adv-x="1597" 
d="M778 1413l-22 -129q-5 -23 -31 -57q-98 -123 -184 -294t-113 -321q-6 -43 -43 -43h-186q-43 0 -37 41q29 158 126 335q98 177 210 294h-265q-38 0 -32 37l24 137q6 37 37 37h483q39 0 33 -37zM1305 1397l-830 -1356q-24 -41 -72 -41h-137q-54 0 -24 53l829 1356
q24 41 70 41h137q27 0 34 -16q8 -17 -7 -37zM1188 -12q-130 0 -207 60q-76 60 -76 153q0 176 172 254q-86 50 -86 172q0 133 92 199q93 67 230 67q119 0 195 -51q77 -51 77 -146q0 -80 -42 -143q-43 -64 -113 -98q98 -50 98 -172q0 -144 -98 -220q-97 -75 -242 -75z
M1239 371q-82 -49 -82 -127q0 -58 53 -58q37 0 55 30q17 28 17 69q0 56 -43 86zM1268 535q75 51 75 127q0 49 -49 49q-65 0 -65 -95q0 -48 39 -81z" />
    <glyph glyph-name="arrowleft" unicode="&#x2190;" 
d="M817 1014l-276 -301l426 6q61 0 49 -60l-31 -176q-7 -59 -70 -59l-423 6l170 -301q10 -21 -2 -42t-37 -21h-261q-18 0 -30 6q-14 7 -15 9q0 1 -12 19l-231 441q-7 15 -6 30q2 17 16 31l387 440l6 7l6 6l5 5q3 3 7 5q1 0 3 1.5t4 2.5q3 1 7 3q2 1 8 3t11 2h13h260
q25 0 30 -21q4 -21 -14 -42z" />
    <glyph glyph-name="arrowup" unicode="&#x2191;" 
d="M967 428l-260 223l-70 -426q-12 -59 -70 -59h-176q-61 0 -49 59l82 426l-342 -223q-21 -16 -43 -8q-20 7 -14 35l45 260q7 40 47 63l493 309q18 13 33 13q16 0 29 -13l387 -309q29 -26 22 -63l-45 -260q-6 -28 -28 -35q-24 -8 -41 8z" />
    <glyph glyph-name="arrowright" unicode="&#x2192;" 
d="M610 713l-170 301q-12 22 -1 42q12 21 38 21h260q41 0 58 -35l231 -440q10 -15 8 -31q-1 -13 -18 -30l-387 -441q-30 -34 -70 -34h-260q-27 0 -31 21t17 42l276 301l-428 -6q-56 0 -49 59l31 176q12 60 69 60z" />
    <glyph glyph-name="arrowdown" unicode="&#x2193;" 
d="M133 715l262 -223l68 426q12 59 72 59h176q59 0 47 -59l-80 -426l340 223q21 16 43 8q21 -7 16 -35l-47 -260q-6 -39 -45 -63l-496 -310q-17 -12 -32 -12q-17 0 -29 12l-385 310q-31 25 -25 63l48 260q5 28 27 35q24 8 40 -8z" />
    <glyph glyph-name="arrowboth" unicode="&#x2194;" horiz-adv-x="1638" 
d="M1184 713l-170 301q-12 22 -1 42q12 21 38 21h260q40 0 57 -35l231 -440q10 -16 9 -31q-1 -12 -19 -30l-387 -441q-30 -34 -69 -34h-261q-26 0 -30 21q-5 21 16 42l277 301l-324 -4l-319 4l170 -301q10 -21 -2 -42t-37 -21h-261q-17 0 -30 5q-11 4 -17 10q-4 4 -10 19
l-231 441q-7 15 -6 30q2 17 16 31l387 440q30 35 70 35h260q25 0 30 -21q4 -21 -14 -42l-276 -301l321 4z" />
    <glyph glyph-name="arrowupdn" unicode="&#x2195;" 
d="M635 250l340 223q21 16 43 8q21 -7 16 -35l-45 -260q-7 -39 -47 -63l-496 -309q-16 -13 -32 -13q-13 0 -29 13l-385 309q-30 24 -23 63l46 260q5 28 27 35q24 8 40 -8l262 -223l54 321l59 322l-340 -223q-21 -16 -43 -8q-20 7 -16 34l47 260q6 40 45 64l495 309
q17 12 33 12q17 0 29 -12l385 -309q30 -24 24 -64l-47 -260q-4 -27 -27 -34q-24 -8 -40 8l-262 223l-52 -322z" />
    <glyph glyph-name="arrowupleft" unicode="&#x2196;" 
d="M1014 760l-381 -55l256 -297q33 -43 -17 -84l-145 -125q-51 -43 -84 0l-244 307l-120 -371q-7 -26 -30 -36q-21 -9 -38 10l-152 184q-23 24 -8 69l185 529q7 20 20 31q16 13 33 14l545 92q47 5 65 -20l152 -185q16 -21 3 -40q-13 -18 -40 -23z" />
    <glyph glyph-name="arrowupright" unicode="&#x2197;" 
d="M514 705l-360 55q-27 5 -33 23q-6 19 16 40l217 185q29 24 74 20l512 -92q21 -2 29 -14q10 -14 8 -31v-529q0 -7 -1 -12q0 -2 -0.5 -4.5t-1 -4t-0.5 -2.5q-2 -3 -3 -10q-1 -6 -5 -12q-1 -1 -4 -4.5t-5 -6.5q-3 -5 -13 -13l-217 -184q-23 -19 -42 -10t-17 36l10 371
l-350 -307q-51 -43 -84 0l-105 125q-33 43 17 84z" />
    <glyph glyph-name="arrowdownright" unicode="&#x2198;" 
d="M76 317l381 56l-256 297q-33 43 14 84l147 125q51 41 84 0l244 -308l121 371q7 26 30 36q21 9 38 -9l151 -185q4 -5 10 -15q5 -8 6 -14q2 -7 0 -12l-2 -5q-2 -5 -3 -9q-3 -11 -3 -14l-184 -529q-6 -18 -20 -30q-17 -14 -33 -15l-545 -92q-46 -4 -68 21l-151 184
q-14 20 -2 40q11 18 41 23z" />
    <glyph glyph-name="arrowdownleft" unicode="&#x2199;" 
d="M575 373l361 -56q28 -5 32 -23q4 -19 -18 -40l-217 -184q-28 -25 -71 -21l-512 92q-21 1 -29 15q-9 14 -8 30v529v8q0 7 1 8t1 7t1 7l3 8q1 4 4 7q1 1 5 7t7 9q2 2 10 8l217 185q22 18 42 9t18 -36l-10 -371l350 308q51 41 84 0l102 -125q37 -43 -14 -84z" />
    <glyph glyph-name="partialdiff" unicode="&#x2202;" 
d="M430 1126q-32 -1 -45 8q-12 9 -4 33l63 213q17 47 70 62q100 28 201 28q206 0 307 -94q102 -94 102 -270q0 -194 -45 -388t-132 -362q-86 -166 -231 -272q-143 -104 -325 -104q-167 0 -269 103t-102 265q0 155 59 309q60 157 179 266q122 111 277 111q77 0 136 -35
q57 -34 74 -81q21 78 21 108q0 66 -38 93q-39 28 -116 28q-46 0 -110 -10q-71 -11 -72 -11zM453 295q47 0 87 40q41 41 64 96q25 60 38 112q13 53 13 94q0 82 -77 82q-64 0 -112 -66q-50 -68 -67 -139q-18 -73 -18 -133q0 -86 72 -86z" />
    <glyph glyph-name="Delta" unicode="&#x2206;" horiz-adv-x="1118" 
d="M526 1450h402q78 0 78 -82l-5 -1296q0 -72 -65 -72h-909q-36 0 -49 19t-1 53l451 1296q28 82 98 82zM672 1130l-223 -796h169l62 796h-8z" />
    <glyph glyph-name="product" unicode="&#x220f;" horiz-adv-x="1257" 
d="M162 1180l37 204q11 66 71 66h1053q69 0 59 -66l-36 -204q-12 -66 -74 -66h-90l-185 -1048q-12 -66 -71 -66h-234q-71 0 -59 66l184 1048h-151l-185 -1048q-12 -66 -71 -66h-234q-71 0 -59 66l184 1048h-82q-69 0 -57 66z" />
    <glyph glyph-name="summation" unicode="&#x2211;" horiz-adv-x="933" 
d="M698 520l-288 -414h321q69 0 57 -65l-34 -201q-12 -65 -74 -65h-668q-69 0 -57 65l39 230q6 36 41 88l321 458l-159 459q-17 47 -9 88l39 221q11 66 72 66h659q70 0 60 -66l-37 -200q-11 -66 -72 -66h-321l145 -403q10 -23 4 -58l-14 -79q-6 -29 -25 -58z" />
    <glyph glyph-name="minus" unicode="&#x2212;" horiz-adv-x="1036" 
d="M889 578h-696q-61 0 -54 59l33 176q7 59 66 59h696q60 0 53 -59l-33 -176q-7 -59 -65 -59z" />
    <glyph glyph-name="uni2215" unicode="&#x2215;" horiz-adv-x="143" 
d="M649 1397l-829 -1356q-24 -41 -72 -41h-137q-55 0 -25 53l830 1356q24 41 69 41h138q26 0 33 -16q8 -17 -7 -37z" />
    <glyph glyph-name="uni2219" unicode="&#x2219;" horiz-adv-x="458" 
d="M53 455l39 217q12 65 72 65h213q71 0 59 -65l-39 -217q-12 -66 -71 -66h-213q-72 0 -60 66z" />
    <glyph glyph-name="radical" unicode="&#x221a;" horiz-adv-x="1273" 
d="M700 -143h-315q-69 0 -70 65l-51 801h-114q-66 0 -54 59l31 176q12 60 66 60h358q61 0 61 -64l-8 -671h8l404 1226q23 64 76 64h258q60 0 36 -66l-600 -1585q-27 -65 -86 -65z" />
    <glyph glyph-name="infinity" unicode="&#x221e;" horiz-adv-x="1159" 
d="M674 1010q89 73 205 73q148 0 213 -68t65 -173q0 -97 -16 -174q-16 -78 -55 -154q-38 -74 -112 -117t-181 -43q-152 0 -220 74q-91 -74 -204 -74q-147 0 -213 69t-66 173q0 97 16 174q16 78 55 154q37 72 112 116q74 43 182 43q153 0 219 -73zM512 719l43 112
q-12 66 -70 66q-51 0 -83 -54q-30 -52 -38 -110q-8 -59 -8 -115q0 -73 45 -73q32 0 50 30q15 25 61 144zM733 719l-41 -113q12 -65 70 -65q71 0 100 90q29 92 29 188q0 74 -47 74q-30 0 -49 -31t-62 -143z" />
    <glyph glyph-name="integral" unicode="&#x222b;" horiz-adv-x="839" 
d="M197 195l163 929q35 203 109 273q73 69 252 69q112 0 160 -16q41 -16 34 -59l-34 -201q-12 -60 -70 -60h-37q-35 0 -53 -19q-20 -21 -27 -75l-164 -930q-35 -203 -108 -272q-75 -70 -252 -70q-109 0 -160 17q-42 16 -35 59l35 201q12 59 70 59h37q35 0 53 20q20 21 27 75
z" />
    <glyph glyph-name="approxequal" unicode="&#x2248;" horiz-adv-x="1036" 
d="M977 537q-23 -130 -79 -185t-171 -55q-123 0 -203 39l-59 29q-106 51 -139 0l-11 -17q-23 -45 -75 -45h-115q-43 0 -58 26q-16 27 -4 93q22 128 78 184t170 56q125 0 203 -39l61 -29q105 -50 140 0l8 16q24 45 78 45h114q44 0 59 -25q15 -26 3 -93zM1063 1024
q-22 -129 -79 -184q-58 -56 -171 -56q-123 0 -203 39l-59 29q-106 51 -139 0l-11 -16q-23 -45 -75 -45h-115q-43 0 -58 25q-15 26 -3 93q23 131 77 185q55 55 170 55q125 0 203 -39l62 -29q105 -49 139 0l8 17q24 45 78 45h114q44 0 59 -26q15 -25 3 -93z" />
    <glyph glyph-name="notequal" unicode="&#x2260;" horiz-adv-x="1036" 
d="M836 322h-322l-117 -263q-16 -33 -31 -46q-14 -13 -49 -13h-141q-78 0 -45 72l111 250h-86q-61 0 -54 59l31 176q12 59 68 59h176l98 218h-229q-60 0 -53 59l32 176q7 59 66 59h317l119 263q27 59 80 59h141q78 0 45 -72l-112 -250h90q60 0 53 -59l-33 -176
q-7 -59 -65 -59h-181l-96 -218h232q63 0 51 -59l-31 -176q-7 -59 -65 -59z" />
    <glyph glyph-name="lessequal" unicode="&#x2264;" horiz-adv-x="1036" 
d="M186 827q5 25 31 47l588 469q49 39 86 0l102 -124q35 -44 -14 -84l-387 -312l274 -307q35 -41 -14 -84l-143 -121q-49 -39 -86 0l-422 469q-21 23 -15 47zM752 0h-656q-65 0 -53 59l23 136q12 59 65 59h655q66 0 54 -59l-23 -136q-12 -59 -65 -59z" />
    <glyph glyph-name="greaterequal" unicode="&#x2265;" horiz-adv-x="1036" 
d="M977 827q-6 -23 -31 -47l-590 -469q-49 -40 -86 0l-102 125q-33 43 14 84l389 311l-276 308q-33 40 14 84l144 120q51 41 86 0l424 -469q16 -21 14 -47zM784 0h-655q-65 0 -53 59l22 136q12 59 66 59h655q65 0 53 -59l-22 -136q-12 -59 -66 -59z" />
    <glyph glyph-name="lozenge" unicode="&#x25ca;" horiz-adv-x="1118" 
d="M559 467l184 258l-94 258l-184 -258zM473 -20q-27 0 -37 24l-305 694q-6 16 -4 27q1 15 12 27l551 694q18 24 45 24q25 0 37 -24l305 -694q6 -16 4 -27q-1 -15 -12 -27l-551 -694q-22 -24 -45 -24z" />
    <glyph glyph-name="uniE000" unicode="&#xe000;" horiz-adv-x="1024" 
 />
    <glyph glyph-name="Q.alt" unicode="&#xe001;" horiz-adv-x="1097" 
d="M700 1470q208 0 308 -90t100 -327q0 -127 -35 -328q-68 -377 -171 -539q-103 -161 -279 -194l-9 -152q-6 -65 -71 -65h-242q-65 0 -47 65l43 160q-225 63 -225 397q0 133 34 328q52 297 134 467q80 164 185 221t275 57zM518 315q64 0 94 73q32 78 78 337q41 243 41 315
q0 58 -15 76q-16 19 -54 19q-65 0 -95 -73q-32 -78 -78 -337q-40 -237 -40 -315q0 -58 15 -76q16 -19 54 -19z" />
    <glyph glyph-name="a.alt" unicode="&#xe002;" horiz-adv-x="1005" 
d="M616 571q19 112 19 170q0 115 -70 115q-53 0 -83 -58q-29 -57 -58 -227q-23 -121 -23 -190q0 -52 16 -74q14 -20 48 -20q53 0 87 60q34 58 64 224zM1053 1083l-181 -1024q-12 -59 -65 -59h-201q-66 0 -67 49l-2 33q-29 -37 -92 -69q-58 -29 -132 -29q-133 0 -201 74
q-69 75 -69 255q0 113 27 258q57 323 155 455q99 133 273 133q65 0 130 -31q63 -30 81 -67l14 33q18 49 76 49h200q61 0 54 -60z" />
    <glyph glyph-name="u.alt" unicode="&#xe003;" horiz-adv-x="950" 
d="M410 -16q-191 0 -281 69t-90 226q0 57 12 131l119 673q8 60 66 60h229q61 0 53 -60l-115 -647q-6 -38 -6 -61q0 -60 52 -60q37 0 55 26q19 27 31 95l114 647q7 60 66 60h229q60 0 53 -60l-118 -673q-40 -236 -144 -332q-101 -94 -325 -94z" />
    <glyph glyph-name="y.alt" unicode="&#xe004;" horiz-adv-x="942" 
d="M496 188l4 29q-78 -78 -230 -78q-219 0 -219 223q0 47 10 111l109 610q8 60 66 60h229q61 0 53 -60l-90 -503q-12 -59 -7 -84t38 -25q44 0 65 35q20 33 37 123l80 454q7 60 66 60h229q60 0 53 -60l-162 -917q-39 -220 -156 -313q-119 -95 -352 -95q-207 0 -296 39
q-28 12 -40 27t-6 47l29 158q12 64 82 47q149 -35 211 -35q173 0 197 147z" />
    <glyph glyph-name="j.alt" unicode="&#xe005;" horiz-adv-x="479" 
d="M522 1083l-221 -1249q-7 -59 -65 -59h-230q-60 0 -53 59l221 1249q8 60 66 60h229q61 0 53 -60zM580 1391l-21 -119q-12 -60 -65 -60h-238q-65 0 -53 60l20 119q12 59 66 59h237q66 0 54 -59z" />
    <glyph glyph-name="agrave.alt" unicode="&#xe006;" horiz-adv-x="1005" 
d="M616 571q19 112 19 170q0 115 -70 115q-53 0 -83 -58q-29 -57 -58 -227q-23 -121 -23 -190q0 -52 16 -74q14 -20 48 -20q53 0 87 60q34 58 64 224zM1053 1083l-181 -1024q-12 -59 -65 -59h-201q-66 0 -67 49l-2 33q-29 -37 -92 -69q-58 -29 -132 -29q-133 0 -201 74
q-69 75 -69 255q0 113 27 258q57 323 155 455q99 133 273 133q65 0 130 -31q63 -30 81 -67l14 33q18 49 76 49h200q61 0 54 -60zM801 1409l24 -147q11 -50 -41 -50h-141q-52 0 -80 37l-117 140q-14 17 -5 39t36 22h264q54 0 60 -41z" />
    <glyph glyph-name="aacute.alt" unicode="&#xe007;" horiz-adv-x="1005" 
d="M616 571q19 112 19 170q0 115 -70 115q-53 0 -83 -58q-29 -57 -58 -227q-23 -121 -23 -190q0 -52 16 -74q14 -20 48 -20q53 0 87 60q34 58 64 224zM1053 1083l-181 -1024q-12 -59 -65 -59h-201q-66 0 -67 49l-2 33q-29 -37 -92 -69q-58 -29 -132 -29q-133 0 -201 74
q-69 75 -69 255q0 113 27 258q57 323 155 455q99 133 273 133q65 0 130 -31q63 -30 81 -67l14 33q18 49 76 49h200q61 0 54 -60zM477 1262l78 147q18 41 63 41h265q26 0 32 -22t-14 -39l-153 -140q-38 -37 -89 -37h-153q-53 0 -29 50z" />
    <glyph glyph-name="acircumflex.alt" unicode="&#xe008;" horiz-adv-x="1005" 
d="M616 571q19 112 19 170q0 115 -70 115q-53 0 -83 -58q-29 -57 -58 -227q-23 -121 -23 -190q0 -52 16 -74q14 -20 48 -20q53 0 87 60q34 58 64 224zM1053 1083l-181 -1024q-12 -59 -65 -59h-201q-66 0 -67 49l-2 33q-29 -37 -92 -69q-58 -29 -132 -29q-133 0 -201 74
q-69 75 -69 255q0 113 27 258q57 323 155 455q99 133 273 133q65 0 130 -31q63 -30 81 -67l14 33q18 49 76 49h200q61 0 54 -60zM721 1253l-45 68l-70 -68q-39 -41 -84 -41h-143q-29 0 -35 21q-6 20 18 41l185 147q35 29 74 29h139q45 0 74 -29l131 -147q18 -21 9 -41
q-9 -21 -38 -21h-135q-53 0 -80 41z" />
    <glyph glyph-name="atilde.alt" unicode="&#xe009;" horiz-adv-x="1005" 
d="M616 571q19 112 19 170q0 115 -70 115q-53 0 -83 -58q-29 -57 -58 -227q-23 -121 -23 -190q0 -52 16 -74q14 -20 48 -20q53 0 87 60q34 58 64 224zM1053 1083l-181 -1024q-12 -59 -65 -59h-201q-66 0 -67 49l-2 33q-29 -37 -92 -69q-58 -29 -132 -29q-133 0 -201 74
q-69 75 -69 255q0 113 27 258q57 323 155 455q99 133 273 133q65 0 130 -31q63 -30 81 -67l14 33q18 49 76 49h200q61 0 54 -60zM995 1370q-15 -89 -51 -125q-37 -37 -115 -37q-87 0 -149 27l-45 18q-84 30 -107 0l-4 -10q-17 -31 -53 -31h-78q-58 0 -41 80q16 87 54 125
q37 37 114 37q86 0 148 -27l45 -18q85 -33 106 0l6 10q17 31 52 31h77q58 0 41 -80z" />
    <glyph glyph-name="adieresis.alt" unicode="&#xe00a;" horiz-adv-x="1005" 
d="M616 571q19 112 19 170q0 115 -70 115q-53 0 -83 -58q-29 -57 -58 -227q-23 -121 -23 -190q0 -52 16 -74q14 -20 48 -20q53 0 87 60q34 58 64 224zM1053 1083l-181 -1024q-12 -59 -65 -59h-201q-66 0 -67 49l-2 33q-29 -37 -92 -69q-58 -29 -132 -29q-133 0 -201 74
q-69 75 -69 255q0 113 27 258q57 323 155 455q99 133 273 133q65 0 130 -31q63 -30 81 -67l14 33q18 49 76 49h200q61 0 54 -60zM647 1395l-22 -127q-12 -56 -62 -56h-201q-61 0 -49 56l23 127q7 55 59 55h201q58 0 51 -55zM1036 1395l-22 -127q-12 -56 -62 -56h-200
q-62 0 -50 56l23 127q7 55 59 55h201q58 0 51 -55z" />
    <glyph glyph-name="amacron.alt" unicode="&#xe00b;" horiz-adv-x="1005" 
d="M616 571q19 112 19 170q0 115 -70 115q-53 0 -83 -58q-29 -57 -58 -227q-23 -121 -23 -190q0 -52 16 -74q14 -20 48 -20q53 0 87 60q34 58 64 224zM1053 1083l-181 -1024q-12 -59 -65 -59h-201q-66 0 -67 49l-2 33q-29 -37 -92 -69q-58 -29 -132 -29q-133 0 -201 74
q-69 75 -69 255q0 113 27 258q57 323 155 455q99 133 273 133q65 0 130 -31q63 -30 81 -67l14 33q18 49 76 49h200q61 0 54 -60zM932 1229h-545q-55 0 -47 53l18 102q8 54 58 54h545q57 0 49 -54l-19 -102q-8 -53 -59 -53z" />
    <glyph glyph-name="abreve.alt" unicode="&#xe00c;" horiz-adv-x="1005" 
d="M616 571q19 112 19 170q0 115 -70 115q-53 0 -83 -58q-29 -57 -58 -227q-23 -121 -23 -190q0 -52 16 -74q14 -20 48 -20q53 0 87 60q34 58 64 224zM1053 1083l-181 -1024q-12 -59 -65 -59h-201q-66 0 -67 49l-2 33q-29 -37 -92 -69q-58 -29 -132 -29q-133 0 -201 74
q-69 75 -69 255q0 113 27 258q57 323 155 455q99 133 273 133q65 0 130 -31q63 -30 81 -67l14 33q18 49 76 49h200q61 0 54 -60zM670 1208q-148 0 -225 57q-76 57 -60 142q6 43 47 43h125q23 0 33 -9t8 -28q-2 -34 15 -46q17 -13 65 -13q85 0 100 59q7 37 53 37h125
q41 0 35 -43q-16 -88 -97 -143q-82 -56 -224 -56z" />
    <glyph glyph-name="aring.alt" unicode="&#xe00d;" horiz-adv-x="1005" 
d="M616 571q19 112 19 170q0 115 -70 115q-53 0 -83 -58q-29 -57 -58 -227q-23 -121 -23 -190q0 -52 16 -74q14 -20 48 -20q53 0 87 60q34 58 64 224zM1053 1083l-181 -1024q-12 -59 -65 -59h-201q-66 0 -67 49l-2 33q-29 -37 -92 -69q-58 -29 -132 -29q-133 0 -201 74
q-69 75 -69 255q0 113 27 258q57 323 155 455q99 133 273 133q65 0 130 -31q63 -30 81 -67l14 33q18 49 76 49h200q61 0 54 -60zM678 1325q33 0 61 23q27 22 27 61q0 26 -20 43q-19 16 -52 16q-39 0 -63 -21q-25 -22 -25 -61q0 -25 22 -44q20 -17 50 -17zM709 1602
q94 0 152 -49q57 -48 57 -123q0 -109 -70 -174q-68 -64 -186 -64q-96 0 -152 48q-55 48 -55 124q0 108 69 173q70 65 185 65z" />
    <glyph glyph-name="aringacute.alt" unicode="&#xe00e;" horiz-adv-x="1005" 
d="M1053 1083l-181 -1024q-12 -59 -65 -59h-201q-66 0 -67 49l-2 33q-29 -37 -92 -69q-58 -29 -132 -29q-133 0 -201 74q-69 75 -69 255q0 113 27 258q57 323 155 455q99 133 273 133q65 0 130 -31q63 -30 81 -67l14 33q18 49 76 49h200q61 0 54 -60zM455 1364
q0 149 125 209l59 113q18 40 63 40h265q26 0 32 -21q6 -22 -14 -40l-125 -113q58 -47 58 -122q0 -109 -70 -174q-68 -64 -186 -64q-96 0 -152 48q-55 48 -55 124zM616 571q19 112 19 170q0 115 -70 115q-53 0 -83 -58q-29 -57 -58 -227q-23 -121 -23 -190q0 -52 16 -74
q14 -20 48 -20q53 0 87 60q34 58 64 224zM678 1325q33 0 61 23q27 22 27 61q0 26 -20 43q-19 16 -52 16q-39 0 -63 -21q-25 -22 -25 -61q0 -25 22 -44q20 -17 50 -17z" />
    <glyph glyph-name="aogonek.alt" unicode="&#xe00f;" horiz-adv-x="1005" 
d="M1053 1083l-181 -1024q-12 -57 -59 -59q-98 -76 -98 -121q0 -24 33 -24q14 0 30 4t29 4q18 0 18 -23l-2 -80q-1 -32 -35 -49q-44 -22 -110 -22q-178 0 -178 110q0 109 159 201h-53q-66 0 -67 49l-2 33q-29 -37 -92 -69q-58 -29 -132 -29q-133 0 -201 74q-69 75 -69 255
q0 113 27 258q57 323 155 455q99 133 273 133q65 0 130 -31q63 -30 81 -67l14 33q18 49 76 49h200q61 0 54 -60zM616 571q19 112 19 170q0 115 -70 115q-53 0 -83 -58q-29 -57 -58 -227q-23 -121 -23 -190q0 -52 16 -74q14 -20 48 -20q53 0 87 60q34 58 64 224z" />
    <glyph glyph-name="ij.alt" unicode="&#xe010;" horiz-adv-x="958" 
d="M522 1083l-180 -1024q-12 -59 -66 -59h-229q-65 0 -53 59l180 1024q8 60 66 60h229q61 0 53 -60zM580 1391l-21 -119q-12 -60 -65 -60h-238q-65 0 -53 60l20 119q12 59 66 59h237q66 0 54 -59zM1001 1083l-221 -1249q-7 -59 -65 -59h-230q-60 0 -53 59l221 1249
q7 60 66 60h229q60 0 53 -60zM1059 1391l-21 -119q-12 -60 -65 -60h-238q-65 0 -53 60l20 119q12 59 66 59h238q65 0 53 -59z" />
    <glyph glyph-name="jcircumflex.alt" unicode="&#xe011;" horiz-adv-x="479" 
d="M522 1083l-221 -1249q-7 -59 -65 -59h-230q-60 0 -53 59l221 1249q8 60 66 60h229q61 0 53 -60zM438 1253l-45 68l-69 -68q-39 -41 -84 -41h-144q-29 0 -35 21q-6 20 19 41l184 147q35 29 74 29h139q45 0 74 -29l131 -147q18 -21 9 -41q-9 -21 -38 -21h-135q-53 0 -80 41
z" />
    <glyph glyph-name="dotlessj.alt" unicode="&#xe012;" horiz-adv-x="479" 
d="M522 1083l-221 -1249q-7 -59 -65 -59h-230q-60 0 -53 59l221 1249q8 60 66 60h229q61 0 53 -60z" />
    <glyph glyph-name="ugrave.alt" unicode="&#xe013;" horiz-adv-x="950" 
d="M410 -16q-191 0 -281 69t-90 226q0 57 12 131l119 673q8 60 66 60h229q61 0 53 -60l-115 -647q-6 -38 -6 -61q0 -60 52 -60q37 0 55 26q19 27 31 95l114 647q7 60 66 60h229q60 0 53 -60l-118 -673q-40 -236 -144 -332q-101 -94 -325 -94zM713 1409l24 -147
q11 -50 -41 -50h-141q-52 0 -80 37l-117 140q-14 17 -5 39t36 22h264q54 0 60 -41z" />
    <glyph glyph-name="uacute.alt" unicode="&#xe014;" horiz-adv-x="950" 
d="M410 -16q-191 0 -281 69t-90 226q0 57 12 131l119 673q8 60 66 60h229q61 0 53 -60l-115 -647q-6 -38 -6 -61q0 -60 52 -60q37 0 55 26q19 27 31 95l114 647q7 60 66 60h229q60 0 53 -60l-118 -673q-40 -236 -144 -332q-101 -94 -325 -94zM492 1262l77 147q18 41 64 41
h264q27 0 33 -22q6 -21 -15 -39l-153 -140q-38 -37 -88 -37h-154q-52 0 -28 50z" />
    <glyph glyph-name="ucircumflex.alt" unicode="&#xe015;" horiz-adv-x="950" 
d="M410 -16q-191 0 -281 69t-90 226q0 57 12 131l119 673q8 60 66 60h229q61 0 53 -60l-115 -647q-6 -38 -6 -61q0 -60 52 -60q37 0 55 26q19 27 31 95l114 647q7 60 66 60h229q60 0 53 -60l-118 -673q-40 -236 -144 -332q-101 -94 -325 -94zM674 1253l-45 68l-70 -68
q-39 -41 -84 -41h-143q-29 0 -35 21q-6 20 18 41l185 147q35 29 73 29h140q44 0 73 -29l131 -147q18 -21 10 -41q-9 -21 -38 -21h-135q-53 0 -80 41z" />
    <glyph glyph-name="utilde.alt" unicode="&#xe016;" horiz-adv-x="950" 
d="M410 -16q-191 0 -281 69t-90 226q0 57 12 131l119 673q8 60 66 60h229q61 0 53 -60l-115 -647q-6 -38 -6 -61q0 -60 52 -60q37 0 55 26q19 27 31 95l114 647q7 60 66 60h229q60 0 53 -60l-118 -673q-40 -236 -144 -332q-101 -94 -325 -94zM948 1370q-15 -89 -51 -125
q-37 -37 -115 -37q-88 0 -149 27l-45 18q-84 30 -107 0l-4 -10q-17 -31 -53 -31h-78q-58 0 -41 80q17 88 53 125q37 37 115 37q87 0 148 -27l45 -18q85 -33 106 0l6 10q17 31 51 31h78q58 0 41 -80z" />
    <glyph glyph-name="udieresis.alt" unicode="&#xe017;" horiz-adv-x="950" 
d="M410 -16q-191 0 -281 69t-90 226q0 57 12 131l119 673q8 60 66 60h229q61 0 53 -60l-115 -647q-6 -38 -6 -61q0 -60 52 -60q37 0 55 26q19 27 31 95l114 647q7 60 66 60h229q60 0 53 -60l-118 -673q-40 -236 -144 -332q-101 -94 -325 -94zM600 1395l-22 -127
q-12 -56 -62 -56h-201q-61 0 -49 56l23 127q10 55 59 55h201q61 0 51 -55zM989 1395l-22 -127q-12 -56 -62 -56h-200q-62 0 -50 56l23 127q10 55 59 55h201q61 0 51 -55z" />
    <glyph glyph-name="umacron.alt" unicode="&#xe018;" horiz-adv-x="950" 
d="M410 -16q-191 0 -281 69t-90 226q0 57 12 131l119 673q8 60 66 60h229q61 0 53 -60l-115 -647q-6 -38 -6 -61q0 -60 52 -60q37 0 55 26q19 27 31 95l114 647q7 60 66 60h229q60 0 53 -60l-118 -673q-40 -236 -144 -332q-101 -94 -325 -94zM885 1229h-545q-55 0 -47 53
l18 102q8 54 58 54h544q58 0 50 -54l-19 -102q-8 -53 -59 -53z" />
    <glyph glyph-name="ubreve.alt" unicode="&#xe019;" horiz-adv-x="950" 
d="M410 -16q-191 0 -281 69t-90 226q0 57 12 131l119 673q8 60 66 60h229q61 0 53 -60l-115 -647q-6 -38 -6 -61q0 -60 52 -60q37 0 55 26q19 27 31 95l114 647q7 60 66 60h229q60 0 53 -60l-118 -673q-40 -236 -144 -332q-101 -94 -325 -94zM623 1208q-149 0 -225 57
t-60 142q6 43 47 43h125q25 0 34 -9t7 -28q-2 -34 15 -46q17 -13 65 -13q85 0 100 59q10 37 53 37h125q41 0 35 -43q-16 -88 -97 -143q-82 -56 -224 -56z" />
    <glyph glyph-name="uring.alt" unicode="&#xe01a;" horiz-adv-x="950" 
d="M410 -16q-191 0 -281 69t-90 226q0 57 12 131l119 673q8 60 66 60h229q61 0 53 -60l-115 -647q-6 -38 -6 -61q0 -60 52 -60q37 0 55 26q19 27 31 95l114 647q7 60 66 60h229q60 0 53 -60l-118 -673q-40 -236 -144 -332q-101 -94 -325 -94zM631 1325q33 0 61 23
q27 22 27 61q0 26 -20 43q-19 16 -52 16q-39 0 -63 -21q-25 -22 -25 -61q0 -25 22 -44q20 -17 50 -17zM661 1602q95 0 153 -49q56 -47 56 -123q0 -110 -69 -174q-68 -64 -187 -64q-96 0 -151 48t-55 124q0 108 69 173q70 65 184 65z" />
    <glyph glyph-name="uhungarumlaut.alt" unicode="&#xe01b;" horiz-adv-x="950" 
d="M410 -16q-191 0 -281 69t-90 226q0 57 12 131l119 673q8 60 66 60h229q61 0 53 -60l-115 -647q-6 -38 -6 -61q0 -60 52 -60q37 0 55 26q19 27 31 95l114 647q7 60 66 60h229q60 0 53 -60l-118 -673q-40 -236 -144 -332q-101 -94 -325 -94zM303 1262l78 147q18 41 63 41
h215q28 0 32 -20q4 -21 -13 -41l-133 -140q-37 -37 -88 -37h-125q-53 0 -29 50zM672 1262l78 147q18 41 63 41h215q28 0 32 -20q4 -21 -13 -41l-134 -140q-37 -37 -88 -37h-125q-52 0 -28 50z" />
    <glyph glyph-name="ydieresis.alt" unicode="&#xe01c;" horiz-adv-x="942" 
d="M496 188l4 29q-78 -78 -230 -78q-219 0 -219 223q0 47 10 111l109 610q8 60 66 60h229q61 0 53 -60l-90 -503q-12 -59 -7 -84t38 -25q44 0 65 35q20 33 37 123l80 454q7 60 66 60h229q60 0 53 -60l-162 -917q-39 -220 -156 -313q-119 -95 -352 -95q-207 0 -296 39
q-28 12 -40 27t-6 47l29 158q12 64 82 47q149 -35 211 -35q173 0 197 147zM596 1395l-23 -127q-12 -56 -61 -56h-201q-61 0 -49 56l23 127q10 55 59 55h201q61 0 51 -55zM985 1395l-22 -127q-12 -56 -62 -56h-201q-61 0 -49 56l23 127q10 55 59 55h201q61 0 51 -55z" />
    <glyph glyph-name="yacute.alt" unicode="&#xe01d;" horiz-adv-x="942" 
d="M496 188l4 29q-78 -78 -230 -78q-219 0 -219 223q0 47 10 111l109 610q8 60 66 60h229q61 0 53 -60l-90 -503q-12 -59 -7 -84t38 -25q44 0 65 35q20 33 37 123l80 454q7 60 66 60h229q60 0 53 -60l-162 -917q-39 -220 -156 -313q-119 -95 -352 -95q-207 0 -296 39
q-28 12 -40 27t-6 47l29 158q12 64 82 47q149 -35 211 -35q173 0 197 147zM487 1262l78 147q18 41 64 41h264q27 0 33 -22q6 -21 -15 -39l-153 -140q-38 -37 -88 -37h-154q-53 0 -29 50z" />
    <glyph glyph-name="ycircumflex.alt" unicode="&#xe01e;" horiz-adv-x="942" 
d="M496 188l4 29q-78 -78 -230 -78q-219 0 -219 223q0 47 10 111l109 610q8 60 66 60h229q61 0 53 -60l-90 -503q-12 -59 -7 -84t38 -25q44 0 65 35q20 33 37 123l80 454q7 60 66 60h229q60 0 53 -60l-162 -917q-39 -220 -156 -313q-119 -95 -352 -95q-207 0 -296 39
q-28 12 -40 27t-6 47l29 158q12 64 82 47q149 -35 211 -35q173 0 197 147zM670 1253l-45 68l-70 -68q-39 -41 -84 -41h-143q-29 0 -35 21q-6 20 18 41l185 147q35 29 73 29h140q44 0 73 -29l131 -147q18 -21 10 -41q-9 -21 -38 -21h-135q-53 0 -80 41z" />
    </font>
</defs>
</svg>
