<?xml version="1.0" standalone="no"?>
<!DOCTYPE svg PUBLIC "-//W3C//DTD SVG 1.1//EN" "http://www.w3.org/Graphics/SVG/1.1/DTD/svg11.dtd" >
<svg xmlns="http://www.w3.org/2000/svg" xmlns:xlink="http://www.w3.org/1999/xlink" version="1.1">
<metadata>
Created by FontForge 20170731 at Mon Nov 21 16:50:40 2022
 By Aleksey,,,
(c) 2012, 2013, 2014, 2015 by Stawix Ruecha &#38; Foundry. All rights reserved.
</metadata>
<defs>
<font id="AmsiProCond-Italic" horiz-adv-x="614" >
  <font-face 
    font-family="AmsiProCond-Italic"
    font-weight="400"
    font-style="italic"
    font-stretch="condensed"
    units-per-em="2048"
    panose-1="2 11 10 6 2 2 1 1 1 4"
    ascent="1755"
    descent="-293"
    x-height="1094"
    cap-height="1438"
    bbox="-418.422 -571 2458 2126"
    underline-thickness="81"
    underline-position="-203"
    slope="-10"
    unicode-range="U+0020-FB4E"
  />
<missing-glyph horiz-adv-x="1007" 
d="M0 1413h1008v-1413h-1008v1413zM907 193v1030l-344 -516zM100 1223v-1030l344 514zM504 797l344 516h-686zM504 616l-342 -516h684z" />
    <glyph glyph-name="f_f" unicode="ff" horiz-adv-x="946" 
d="M846 1094h158q30 0 24 -29l-14 -78q-2 -29 -33 -29h-160l-164 -929q-6 -29 -30 -29h-86q-31 0 -25 29l164 929h-289l-164 -929q-6 -29 -30 -29h-86q-31 0 -25 29l164 929h-90q-27 0 -25 29l14 78q6 29 33 29h92l15 86q27 143 86 205q60 63 164 63q63 0 96 -12
q18 -6 12 -31l-10 -66q-6 -26 -31 -26q-2 0 -5.5 0.5t-10 1t-11.5 0.5q-28 2 -32 2q-99 0 -121 -143l-14 -80h293l12 75q28 151 89 215t179 64q59 0 92 -12q19 -6 13 -31l-11 -66q-6 -26 -32 -26l-26 2q-26 2 -30 2q-61 0 -90 -32q-28 -31 -43 -122z" />
    <glyph glyph-name="fi" unicode="fi" horiz-adv-x="843" 
d="M842 1065l-183 -1036q-6 -29 -32 -29h-86q-31 0 -25 29l164 929h-289l-164 -929q-6 -29 -30 -29h-86q-31 0 -25 29l164 929h-90q-27 0 -25 29l15 78q6 29 32 29h92l15 86q27 143 86 205q60 63 164 63q63 0 96 -12q18 -6 12 -31l-10 -66q-6 -26 -31 -26q-2 0 -5.5 0.5
t-10 1t-11.5 0.5q-28 2 -32 2q-99 0 -121 -143l-14 -80h405q31 0 25 -29zM903 1409l-24 -141q-6 -29 -35 -29h-86q-29 0 -23 29l25 141q6 29 31 29h86q32 0 26 -29z" />
    <glyph glyph-name="fl" unicode="fl" horiz-adv-x="843" 
d="M899 1389l-240 -1360q-6 -29 -32 -29h-86q-31 0 -25 29l227 1284q-53 8 -106 8q-98 0 -148 -41q-48 -39 -65 -133l-8 -53h121q30 0 24 -29l-14 -78q-2 -29 -33 -29h-123l-164 -929q-6 -29 -30 -29h-86q-31 0 -25 29l164 929h-90q-27 0 -25 29l15 78q6 29 32 29h92l11 59
q27 156 110 227q84 72 256 72q157 0 228 -31q24 -11 20 -32z" />
    <glyph glyph-name="f_f_i" unicode="ffi" horiz-adv-x="1273" 
d="M1272 1065l-182 -1036q-6 -29 -33 -29h-86q-31 0 -25 29l164 929h-289l-164 -929q-6 -29 -30 -29h-86q-31 0 -25 29l164 929h-289l-164 -929q-6 -29 -30 -29h-86q-31 0 -25 29l164 929h-90q-27 0 -25 29l15 78q6 29 32 29h92l15 86q27 143 86 205q60 63 164 63
q63 0 96 -12q18 -6 12 -31l-10 -66q-6 -26 -31 -26q-2 0 -5.5 0.5t-10 1t-11.5 0.5q-28 2 -32 2q-99 0 -121 -143l-14 -80h293l14 86q27 143 86 205q60 63 164 63q63 0 96 -12q18 -6 12 -31l-10 -66q-6 -26 -31 -26q-2 0 -5.5 0.5t-10 1t-11.5 0.5q-28 2 -32 2
q-99 0 -121 -143l-14 -80h405q31 0 25 -29zM1333 1409l-24 -141q-6 -29 -35 -29h-86q-29 0 -23 29l25 141q6 29 31 29h86q32 0 26 -29z" />
    <glyph glyph-name="f_f_l" unicode="ffl" horiz-adv-x="1273" 
d="M821 958l-164 -929q-6 -29 -30 -29h-86q-31 0 -25 31l164 927h-289l-164 -929q-6 -29 -30 -29h-86q-31 0 -25 29l164 929h-90q-27 0 -25 29l15 78q6 29 32 29h92l15 86q27 143 86 205q60 63 164 63q63 0 96 -12q18 -6 12 -31l-10 -66q-6 -26 -31 -26q-2 0 -5.5 0.5t-10 1
t-11.5 0.5q-28 2 -32 2q-99 0 -121 -143l-14 -80h293l10 59q27 156 110 227q84 72 256 72q157 0 228 -31q24 -11 20 -32l-239 -1360q-6 -29 -33 -29h-86q-31 0 -25 29l228 1284q-53 8 -107 8q-97 0 -147 -41q-49 -40 -66 -133l-8 -53h121q30 0 24 -29l-14 -78
q-2 -29 -33 -29h-123z" />
    <glyph glyph-name="f_b" unicode="fb" horiz-adv-x="1359" 
d="M750 547q-21 -108 -21 -197q0 -235 156 -235q106 0 168 101q64 103 104 331q25 141 25 227q0 106 -35 156q-34 49 -109 49q-208 0 -288 -432zM899 1389l-78 -441q34 68 99 116q62 46 147 46q258 0 258 -344q0 -108 -20 -219q-51 -289 -149 -426t-255 -137q-89 0 -151 45
q-63 46 -70 116l-21 -116q-6 -29 -32 -29h-86q-31 0 -25 29l227 1284q-53 8 -106 8q-99 0 -149 -42q-49 -42 -64 -132l-8 -53h121q30 0 24 -29l-14 -78q-6 -29 -33 -29h-123l-164 -929q-6 -29 -30 -29h-86q-31 0 -25 29l164 929h-90q-31 0 -25 29l15 78q6 29 32 29h92l11 61
q24 153 109 225t257 72q157 0 228 -31q24 -11 20 -32z" />
    <glyph glyph-name="f_f_b" unicode="ffb" horiz-adv-x="1789" 
d="M1180 547q-21 -108 -21 -197q0 -235 154 -235q105 0 169 101q65 102 105 331q25 141 25 227q0 106 -35 156q-34 49 -109 49q-206 0 -288 -432zM1329 1389l-78 -441q34 68 99 116q62 46 147 46q258 0 258 -344q0 -108 -20 -219q-51 -287 -150 -425t-258 -138
q-87 0 -147 45t-70 116l-20 -116q-6 -29 -33 -29h-86q-31 0 -25 29l228 1284q-53 8 -107 8q-186 0 -213 -174l-8 -53h121q30 0 24 -29l-14 -78q-6 -29 -33 -29h-123l-164 -929q-6 -29 -30 -29h-86q-31 0 -25 29l164 929h-289l-164 -929q-6 -29 -30 -29h-86q-31 0 -25 29
l164 929h-90q-31 0 -25 29l15 78q6 29 32 29h92l15 86q24 140 85 204t167 64q61 0 94 -12q17 -6 12 -31l-10 -66q-6 -26 -31 -26q-2 0 -5.5 0.5t-10 1t-11.5 0.5q-28 2 -32 2q-47 0 -77 -32q-29 -30 -44 -111l-14 -80h293l10 59q27 156 110 227q84 72 256 72q157 0 228 -31
q24 -11 20 -32z" />
    <glyph glyph-name="f_h" unicode="fh" horiz-adv-x="1335" 
d="M899 1389l-76 -428q91 149 254 149q109 0 166 -66t57 -184q0 -43 -10 -106l-127 -725q-6 -29 -33 -29h-86q-30 0 -24 29l129 727q8 61 8 80q0 137 -125 137q-101 0 -167 -78q-67 -79 -89 -209l-117 -657q-6 -29 -32 -29h-86q-31 0 -25 29l227 1284q-53 8 -106 8
q-98 0 -148 -41q-48 -39 -65 -133l-8 -53h121q30 0 24 -29l-14 -78q-2 -29 -33 -29h-123l-164 -929q-6 -29 -30 -29h-86q-31 0 -25 29l164 929h-90q-27 0 -25 29l15 78q6 29 32 29h92l11 59q27 156 110 227q84 72 256 72q157 0 228 -31q24 -11 20 -32z" />
    <glyph glyph-name="f_f_h" unicode="ffh" horiz-adv-x="1765" 
d="M1329 1389l-76 -428q91 149 254 149q110 0 168 -67t58 -183q0 -38 -11 -102l-129 -729q-6 -29 -32 -29h-86q-31 0 -25 29l129 727q8 61 8 80q0 137 -125 137q-101 0 -167 -78q-67 -79 -89 -209l-116 -657q-6 -29 -33 -29h-86q-31 0 -25 29l228 1284q-53 8 -107 8
q-97 0 -147 -41q-49 -40 -66 -133l-8 -53h119q32 0 26 -29l-14 -78q-2 -29 -33 -29h-123l-164 -929q-6 -29 -30 -29h-86q-31 0 -25 29l164 929h-289l-164 -929q-6 -29 -30 -29h-86q-31 0 -25 29l164 929h-90q-27 0 -25 29l15 78q6 29 30 29h94l15 86q27 143 86 205
q60 63 164 63q63 0 96 -12q18 -6 12 -31l-10 -66q-6 -26 -31 -26q-2 0 -5.5 0.5t-10 1t-11.5 0.5q-28 2 -32 2q-99 0 -121 -143l-14 -80h293l10 59q27 156 110 227q84 72 256 72q157 0 228 -31q24 -11 20 -32z" />
    <glyph glyph-name="f_j" unicode="fj" horiz-adv-x="839" 
d="M842 1065l-187 -1063q-23 -132 -74 -183q-52 -52 -159 -52q-26 0 -66 8q-24 6 -18 30l12 72q6 29 33 27q22 -2 41 -2q36 0 57 22t33 90l166 944h-289l-164 -929q-6 -29 -30 -29h-86q-31 0 -25 29l164 929h-90q-27 0 -25 29l15 78q6 29 32 29h92l15 86q27 143 86 205
q60 63 164 63q63 0 96 -12q18 -6 12 -31l-10 -66q-6 -26 -31 -26q-2 0 -5.5 0.5t-10 1t-11.5 0.5q-28 2 -32 2q-99 0 -121 -143l-14 -80h405q31 0 25 -29zM903 1409l-24 -141q-6 -29 -35 -29h-86q-29 0 -23 29l25 141q6 29 31 29h86q32 0 26 -29z" />
    <glyph glyph-name="f_f_j" unicode="ffj" horiz-adv-x="1269" 
d="M1272 1065l-187 -1063q-23 -132 -71 -183q-49 -52 -154 -52q-34 0 -74 8q-24 6 -18 30l12 72q6 29 33 27q22 -2 41 -2q36 0 57 22t33 90l166 944h-289l-164 -929q-6 -29 -30 -29h-86q-31 0 -25 29l164 929h-289l-164 -929q-6 -29 -30 -29h-86q-31 0 -25 29l164 929h-90
q-27 0 -25 29l15 78q6 29 32 29h92l15 86q27 143 86 205q60 63 164 63q63 0 96 -12q18 -6 12 -31l-10 -66q-6 -26 -31 -26q-2 0 -5.5 0.5t-10 1t-11.5 0.5q-28 2 -32 2q-99 0 -121 -143l-14 -80h293l14 86q27 143 86 205q60 63 164 63q63 0 96 -12q18 -6 12 -31l-10 -66
q-6 -26 -31 -26q-2 0 -5.5 0.5t-10 1t-11.5 0.5q-28 2 -32 2q-99 0 -121 -143l-14 -80h405q31 0 25 -29zM1333 1409l-24 -141q-6 -29 -35 -29h-86q-29 0 -23 29l25 141q6 29 31 29h86q32 0 26 -29z" />
    <glyph glyph-name="f_k" unicode="fk" horiz-adv-x="1228" 
d="M899 1389l-121 -691l357 371q22 25 45 25h102q21 0 24 -13q3 -11 -12 -26l-430 -447l260 -571q16 -37 -24 -37h-86q-24 0 -37 25l-229 507l-89 -503q-6 -29 -32 -29h-86q-31 0 -25 29l227 1284q-53 8 -106 8q-99 0 -149 -42q-49 -42 -64 -132l-8 -53h121q30 0 24 -31
l-14 -76q-6 -29 -33 -29h-123l-164 -929q-6 -29 -30 -29h-86q-31 0 -25 29l164 929h-90q-31 0 -25 29l15 78q6 29 32 29h92l11 59q27 156 110 227q84 72 256 72q157 0 228 -31q24 -11 20 -32z" />
    <glyph glyph-name="f_f_k" unicode="ffk" horiz-adv-x="1658" 
d="M1329 1389l-121 -691l357 371q22 25 45 25h102q21 0 24 -13q3 -11 -12 -26l-430 -447l260 -571q16 -37 -24 -37h-86q-24 0 -37 25l-229 507l-88 -503q-6 -29 -33 -29h-86q-31 0 -25 29l228 1284q-53 8 -107 8q-99 0 -148 -42q-50 -42 -65 -132l-8 -53h121q30 0 24 -29
l-14 -78q-6 -29 -33 -29h-123l-164 -929q-6 -29 -30 -29h-86q-31 0 -25 29l164 929h-289l-164 -929q-6 -29 -30 -29h-86q-31 0 -25 29l164 929h-90q-31 0 -25 29l15 78q6 29 32 29h92l15 86q22 138 84 203t166 65q63 0 96 -12q18 -6 12 -31l-10 -66q-6 -26 -31 -26
q-2 0 -5.5 0.5t-10 1t-11.5 0.5q-28 2 -32 2q-46 0 -77 -31q-29 -29 -44 -112l-14 -80h293l10 59q27 156 110 227q84 72 256 72q157 0 228 -31q24 -11 20 -32z" />
    <glyph glyph-name="f_t" unicode="ft" horiz-adv-x="970" 
d="M412 1094h297l36 211q6 28 31 28h80q33 0 27 -28l-37 -211h153q31 0 25 -29l-14 -78q-2 -29 -33 -29h-156l-116 -667q-11 -64 -11 -90q0 -43 20 -60q19 -16 66 -16q10 0 54 6q13 2 19 -4t5 -21l-14 -73q-1 -27 -29 -33q-39 -10 -70 -10q-99 0 -148 41q-48 41 -48 141
q0 50 12 117l119 669h-289l-164 -929q-6 -29 -30 -29h-86q-31 0 -25 29l164 929h-90q-27 0 -25 29l15 78q6 29 32 29h92l15 86q27 143 86 205q60 63 164 63q63 0 96 -12q18 -6 12 -31l-10 -66q-6 -26 -31 -26q-2 0 -5.5 0.5t-10 1t-11.5 0.5q-28 2 -32 2q-99 0 -121 -143z
" />
    <glyph glyph-name="f_f_t" unicode="fft" horiz-adv-x="1400" 
d="M705 1094l14 86q27 143 86 205q60 63 164 63q63 0 96 -12q18 -6 12 -31l-10 -66q-6 -26 -31 -26q-2 0 -5.5 0.5t-10 1t-11.5 0.5q-28 2 -32 2q-99 0 -121 -143l-14 -80h297l37 211q6 28 30 28h80q33 0 27 -28l-37 -211h154q30 0 24 -27l-14 -80q-2 -29 -33 -29h-156
l-116 -667q-11 -64 -11 -90q0 -43 20 -60q19 -16 66 -16q10 0 54 6q13 2 19 -4t5 -21l-14 -73q-1 -27 -29 -33q-39 -10 -69 -10q-97 0 -146 43t-49 147q0 63 10 113l119 665h-289l-164 -929q-6 -29 -30 -29h-86q-31 0 -25 29l164 929h-289l-164 -929q-6 -29 -30 -29h-86
q-31 0 -25 29l164 929h-90q-27 0 -25 29l15 78q6 29 32 29h92l15 86q27 143 86 205q60 63 164 63q63 0 96 -12q18 -6 12 -31l-10 -66q-6 -26 -31 -26q-2 0 -5.5 0.5t-10 1t-11.5 0.5q-28 2 -32 2q-99 0 -121 -143l-14 -80h293z" />
    <glyph glyph-name="t_t" unicode="tt" horiz-adv-x="970" 
d="M977 958h-156l-116 -667q-11 -64 -11 -90q0 -43 20 -60q19 -16 66 -16q10 0 54 6q13 2 19 -4t5 -21l-14 -73q-1 -27 -29 -33q-39 -10 -74 -10q-99 0 -145 40q-47 41 -47 138q0 50 12 117l119 673h-297l-117 -667q-10 -59 -10 -90q0 -44 19 -60t67 -16q10 0 53 6
q13 2 19.5 -4.5t5.5 -20.5l-14 -73q-1 -27 -29 -33q-39 -10 -74 -10q-99 0 -145 40q-47 41 -47 138q0 52 12 119l119 671h-90q-27 0 -25 29l14 78q6 29 33 29h96l41 231q2 29 31 29h80q29 0 27 -29l-41 -231h301l41 231q2 29 30 29h80q29 0 27 -29l-41 -231h153q31 0 25 -29
l-14 -78q-2 -29 -33 -29z" />
    <glyph glyph-name="t_t_f" unicode="ttf" horiz-adv-x="1396" 
d="M821 958l-116 -667q-11 -64 -11 -90q0 -43 20 -60q19 -16 66 -16q10 0 54 6q13 2 19 -4t5 -21l-14 -73q-1 -27 -29 -33q-39 -10 -70 -10q-99 0 -148 41q-48 41 -48 141q0 50 12 117l119 669h-297l-117 -667q-10 -59 -10 -90q0 -44 19 -60t67 -16q10 0 53 6
q13 2 19.5 -4.5t5.5 -20.5l-14 -73q-1 -27 -29 -33q-39 -10 -70 -10q-99 0 -148 41q-48 41 -48 141q0 50 12 117l119 669h-90q-27 0 -25 29l14 78q6 29 33 29h96l41 231q2 29 31 29h80q29 0 27 -29l-41 -231h301l41 231q2 29 30 29h80q29 0 27 -29l-41 -231h309l12 75
q24 151 86 215t183 64q58 0 92 -12q18 -6 12 -31l-10 -66q-6 -26 -33 -26q-2 0 -5.5 0.5t-9.5 1t-11 0.5q-26 2 -29 2q-61 0 -90 -32q-28 -31 -43 -122l-13 -69h158q31 0 25 -29l-15 -78q-2 -29 -32 -29h-160l-164 -929q-6 -29 -31 -29h-86q-30 0 -24 29l163 929h-309z" />
    <glyph glyph-name=".notdef" horiz-adv-x="1007" 
d="M0 1413h1008v-1413h-1008v1413zM907 193v1030l-344 -516zM100 1223v-1030l344 514zM504 797l344 516h-686zM504 616l-342 -516h684z" />
    <glyph glyph-name=".null" horiz-adv-x="0" 
 />
    <glyph glyph-name="nonmarkingreturn" horiz-adv-x="681" 
 />
    <glyph glyph-name="space" unicode=" " horiz-adv-x="389" 
 />
    <glyph glyph-name="exclam" unicode="!" horiz-adv-x="425" 
d="M49 29l27 153q6 29 33 29h114q31 0 25 -29l-27 -153q-6 -29 -33 -29h-114q-31 0 -25 29zM233 399h-65q-30 0 -25 29l150 979q2 31 31 31h114q29 0 27 -31l-199 -979q-5 -29 -33 -29z" />
    <glyph glyph-name="quotedbl" unicode="&#x22;" horiz-adv-x="598" 
d="M377 1278l-82 -297h-70l23 297q1 33 14 127q7 37 28 55q20 17 58 17t52 -17q13 -16 6 -55zM637 1278l-82 -297h-72l25 297q1 33 14 127q7 37 27 55q19 17 59 17q36 0 50 -17q14 -16 6 -57q-6 -28 -27 -125z" />
    <glyph glyph-name="numbersign" unicode="#" horiz-adv-x="983" 
d="M1081 1399l-170 -387h115q29 0 23 -29l-13 -65q-2 -29 -32 -29h-148l-149 -340h114q29 0 23 -29l-10 -65q-6 -29 -35 -29h-148l-184 -422q-12 -28 -39 -20l-68 20q-26 7 -14 35l170 387h-221l-184 -422q-12 -28 -39 -20l-68 20q-29 6 -14 35l170 387h-115q-28 0 -22 29
l10 65q6 29 35 29h147l150 340h-115q-27 0 -25 29l13 65q6 29 34 29h148l184 422q12 26 39 20l68 -20q25 -8 14 -35l-170 -387h221l185 422q12 27 38 20l68 -20q26 -10 14 -35zM500 889l-150 -340h221l150 340h-221z" />
    <glyph glyph-name="dollar" unicode="$" horiz-adv-x="802" 
d="M664 1593l-25 -139q66 -2 168 -24q28 -6 22 -39l-12 -78q-6 -37 -45 -25q-77 25 -170 25q-116 0 -189 -67t-73 -187q0 -57 27 -110q28 -55 53 -81q27 -28 78 -75q97 -89 160 -183q57 -86 57 -200q0 -153 -86 -268q-84 -112 -240 -146l-27 -152q-6 -28 -32 -28h-66
q-30 0 -24 28l24 140q-142 0 -223 28q-33 10 -27 39l15 78q6 36 41 25q104 -29 202 -29q119 0 203 73q82 72 82 199q0 55 -27 108q-28 55 -56 84q-33 35 -95 91q-92 86 -143 169q-54 88 -54 195q0 157 87 268t245 134l27 147q6 29 32 29h66q31 0 25 -29z" />
    <glyph glyph-name="percent" unicode="%" horiz-adv-x="1404" 
d="M1268 1409l-899 -1386q-12 -23 -35 -23h-96q-30 0 -13 29l895 1386q17 23 39 23h96q30 0 13 -29zM156 1047q72 403 319 403q215 0 215 -262q0 -72 -14 -141q-72 -404 -322 -404q-99 0 -156 66t-57 196q0 69 15 142zM543 1047q14 73 14 141q0 137 -92 137
q-127 0 -176 -278q-15 -78 -15 -142q0 -137 93 -137q126 0 176 279zM817 391q72 404 320 404q215 0 215 -263q0 -68 -15 -141q-72 -403 -321 -403q-101 0 -157 65t-56 197q0 72 14 141zM1204 391q15 78 15 141q0 138 -93 138q-126 0 -176 -279q-14 -73 -14 -141
q0 -137 92 -137q127 0 176 278z" />
    <glyph glyph-name="ampersand" unicode="&#x26;" horiz-adv-x="1073" 
d="M997 633q0 -201 -149 -414l84 -190q15 -29 -17 -29h-98q-21 0 -31 20l-43 95q-131 -131 -325 -131q-167 0 -266 87t-99 246q0 177 97 329q97 151 266 220l-23 56q-47 120 -47 211q0 151 90 237q91 86 260 86q111 0 174 -20q31 -8 25 -37l-12 -64q-6 -38 -39 -26
q-55 18 -133 18q-228 0 -228 -197q0 -70 41 -163l269 -613q73 143 73 281q0 35 29 35h76q26 0 26 -37zM432 117q163 0 262 112l-231 523q-115 -51 -184 -167q-70 -117 -70 -249q0 -219 223 -219z" />
    <glyph glyph-name="quotesingle" unicode="'" horiz-adv-x="339" 
d="M377 1278l-82 -297h-70l23 297q1 33 14 127q7 37 28 55q20 17 58 17t52 -17q13 -16 6 -55z" />
    <glyph glyph-name="parenleft" unicode="(" horiz-adv-x="507" 
d="M109 319q0 300 104 590q106 295 299 527q15 18 39 18h67q11 0 14 -5q3 -4 1 -11q-2 -8 -6 -13q-175 -244 -272 -534t-97 -588q0 -291 82 -510q11 -29 -21 -29h-67q-25 0 -31 17q-112 234 -112 538z" />
    <glyph glyph-name="parenright" unicode=")" horiz-adv-x="507" 
d="M446 897q0 -298 -103 -589q-103 -292 -298 -527q-12 -17 -37 -17h-69q-27 0 -9 29q174 240 273 531q98 288 98 587q0 295 -84 514q-5 8 2 19q6 10 19 10h69q21 0 29 -18q110 -219 110 -539z" />
    <glyph glyph-name="asterisk" unicode="*" horiz-adv-x="710" 
d="M422 842q-32 0 -39 12q-8 13 -2 43q5 23 27 96q22 71 30 109q-29 -17 -71 -47q-27 -19 -69 -47q-31 -21 -46 -27q-54 -31 -72 14q-15 41 37 72q22 10 47 20l77 31q47 18 81 33q-8 3 -30.5 13.5l-37.5 17.5q-40 18 -66 30q-10 5 -23.5 12.5t-16.5 8.5q-45 29 -12 72
q32 44 75 16q25 -14 69 -56q44 -41 77 -67q0 5 2 42.5t3 66.5q3 77 7 96q6 33 18 45t43 12q30 0 37 -13q8 -14 2 -44q-6 -32 -26 -96q-25 -82 -31 -109q30 19 98 67q63 44 88 56q56 29 72 -16t-37 -72q-4 -2 -20.5 -9t-27.5 -12q-15 -6 -77 -30q-16 -6 -78 -31
q33 -17 96 -45q57 -26 76 -39q25 -17 28 -31t-15 -41q-32 -44 -76 -14q-14 7 -36 26q-40 35 -54 47q-37 33 -55 48q0 -7 -2.5 -44t-3.5 -65q-3 -77 -7 -96q-6 -31 -18 -43t-41 -12z" />
    <glyph glyph-name="plus" unicode="+" horiz-adv-x="962" 
d="M881 657h-299l-66 -370q-2 -27 -31 -27h-79q-26 0 -25 27l65 370h-301q-23 0 -22 27l14 72q1 26 31 26h301l63 363q6 29 33 29h80q29 0 23 -29l-64 -363h297q14 0 21 -6.5t6 -19.5l-15 -72q-1 -27 -32 -27z" />
    <glyph glyph-name="comma" unicode="," horiz-adv-x="360" 
d="M174 4l-88 -170q-11 -20 -33 -20h-35q-22 0 -10 26l68 160h-31q-31 0 -25 29l27 147q2 29 31 29h106q29 0 27 -29l-25 -137q-3 -9 -12 -35z" />
    <glyph glyph-name="hyphen" unicode="-" horiz-adv-x="555" 
d="M459 489h-359q-28 0 -22 27l12 72q6 26 31 26h356q33 0 27 -26l-12 -72q-6 -27 -33 -27z" />
    <glyph glyph-name="period" unicode="." horiz-adv-x="360" 
d="M20 29l27 147q2 29 31 29h106q29 0 27 -29l-27 -147q-6 -29 -32 -29h-107q-31 0 -25 29z" />
    <glyph glyph-name="slash" unicode="/" horiz-adv-x="598" 
d="M-63 31l667 1382q15 27 37 27h86q35 0 23 -33l-668 -1380q-15 -27 -37 -27h-88q-35 0 -20 31z" />
    <glyph glyph-name="zero" unicode="0" horiz-adv-x="962" 
d="M643 1454q309 0 309 -416q0 -146 -32 -319q-69 -389 -194 -563q-124 -172 -318 -172q-312 0 -312 417q0 139 33 318q68 387 195 563q124 172 319 172zM420 123q121 0 205 139q83 139 139 457q35 205 35 323q0 273 -168 273q-119 0 -204 -139t-142 -457q-33 -191 -33 -320
q0 -276 168 -276z" />
    <glyph glyph-name="one" unicode="1" horiz-adv-x="675" 
d="M260 31l215 1212l-225 -176q-21 -15 -33 0l-49 66q-14 17 6 32l326 260q19 13 39 13h92q28 0 26 -31l-243 -1376q-6 -31 -35 -31h-92q-33 0 -27 31z" />
    <glyph glyph-name="two" unicode="2" horiz-adv-x="864" 
d="M334 1018q0 -39 -31 -39h-88q-27 0 -27 37q0 184 114 311t292 127q149 0 223 -86t74 -219q0 -136 -62 -283q-61 -145 -172 -281q-114 -140 -206 -235q-87 -90 -226 -211h475q33 0 27 -30l-14 -78q-6 -31 -35 -31h-660q-32 0 -26 31l12 63q4 20 27 41q704 601 704 1012
q0 168 -160 168q-119 0 -180 -84q-61 -83 -61 -213z" />
    <glyph glyph-name="three" unicode="3" horiz-adv-x="802" 
d="M322 817h88q121 0 185 109q62 106 62 235q0 81 -42 118q-43 38 -136 38q-100 0 -225 -35q-14 -4 -22 2q-7 5 -5 21l15 77q5 23 30 33q111 39 226 39q317 0 317 -283q0 -136 -58 -246q-59 -112 -171 -161q63 -22 102 -87t39 -165q0 -255 -128 -392q-127 -136 -355 -136
q-151 0 -244 34q-24 11 -20 31l14 86q6 31 37 23q139 -37 207 -37q165 0 249 103q84 104 84 284q0 174 -182 174h-92q-31 0 -25 27l15 82q1 26 35 26z" />
    <glyph glyph-name="four" unicode="4" horiz-adv-x="925" 
d="M621 0h-91q-32 0 -26 31l53 297h-498q-31 0 -26 30l14 74q1 18 19 41l665 940q19 25 41 25h100q29 0 27 -31l-168 -944h133q29 0 27 -31l-14 -74q-5 -30 -35 -30h-133l-54 -297q-6 -31 -34 -31zM707 1171l-500 -708h375z" />
    <glyph glyph-name="five" unicode="5" horiz-adv-x="819" 
d="M231 -16q-141 0 -227 32q-25 8 -20 33l14 80q6 31 37 23q104 -31 201 -31q180 0 269 129q89 130 89 321q0 189 -191 189q-67 0 -133 -22q-63 -21 -67 -21q-13 0 -25 6l-35 16q-12 5 -6 35q100 400 142 633q6 31 30 31h502q37 0 31 -31l-15 -78q-6 -31 -36 -31h-400
q-43 -209 -98 -432q85 31 156 31q149 0 224 -87t75 -232q0 -266 -133 -431q-132 -163 -384 -163z" />
    <glyph glyph-name="six" unicode="6" horiz-adv-x="909" 
d="M821 1288q-79 27 -155 27q-154 0 -238 -128q-84 -127 -141 -429q40 75 116 122q78 48 162 48q143 0 214 -89t71 -239q0 -102 -25 -210q-24 -104 -73 -196q-50 -94 -138 -152t-200 -58q-158 0 -240 101t-82 290q0 132 35 327q72 400 194 576t347 176q109 0 182 -29
q24 -11 20 -32l-14 -82q-6 -34 -35 -23zM418 121q73 0 131 50q59 51 88 126q30 77 45 148q14 67 14 135q0 213 -161 213q-77 0 -134 -42t-89 -109t-47 -136t-15 -135q0 -104 41 -177t127 -73z" />
    <glyph glyph-name="seven" unicode="7" horiz-adv-x="798" 
d="M143 29q50 294 229 670q176 369 351 599h-494q-30 0 -24 31l14 78q2 31 35 31h627q28 0 26 -31l-14 -76q-1 -17 -25 -45q-187 -251 -348 -595q-162 -346 -219 -662q-6 -29 -33 -29h-98q-33 0 -27 29z" />
    <glyph glyph-name="eight" unicode="8" horiz-adv-x="905" 
d="M377 -18q-155 0 -239 78q-85 79 -85 210q0 162 87 288q88 127 233 190q-168 96 -168 292q0 185 117 299q118 115 294 115q146 0 228 -76t82 -198q0 -145 -81 -256q-80 -110 -214 -176q180 -96 180 -316q0 -202 -119 -327q-117 -123 -315 -123zM602 1323q-118 0 -183 -81
q-65 -82 -65 -195q0 -158 158 -236q123 53 194 143q70 89 70 211q0 77 -45 117q-46 41 -129 41zM489 680q-127 -51 -206 -156q-76 -101 -76 -233q0 -174 184 -174q130 0 199 92q69 91 69 217q0 182 -170 254z" />
    <glyph glyph-name="nine" unicode="9" horiz-adv-x="909" 
d="M174 147q77 -26 158 -26q153 0 235 127q83 129 140 430q-40 -76 -113 -123t-164 -47q-142 0 -212 87q-71 88 -71 230q0 108 26 217q25 103 76 201q50 95 138 152q89 57 201 57q317 0 317 -391q0 -133 -35 -328q-72 -404 -190 -577q-118 -174 -350 -174q-114 0 -185 28
q-24 11 -20 33l14 82q6 33 35 22zM575 1315q-73 0 -131 -50q-57 -50 -86 -128q-27 -74 -43 -152q-14 -69 -14 -139q0 -203 166 -203q76 0 133 42t87 108q29 63 44 134q14 64 14 136q0 108 -40 179q-41 73 -130 73z" />
    <glyph glyph-name="colon" unicode=":" horiz-adv-x="409" 
d="M45 29l27 147q2 29 30 29h107q29 0 27 -29l-27 -147q-6 -29 -33 -29h-106q-31 0 -25 29zM201 918l26 147q6 29 33 29h107q30 0 24 -29l-26 -147q-2 -29 -33 -29h-107q-26 0 -24 29z" />
    <glyph glyph-name="semicolon" unicode=";" horiz-adv-x="409" 
d="M201 918l26 147q6 29 33 29h107q30 0 24 -29l-26 -147q-2 -29 -33 -29h-107q-26 0 -24 29zM199 4l-88 -170q-11 -20 -33 -20h-35q-22 0 -10 26l67 160h-30q-31 0 -25 29l27 147q2 29 30 29h107q29 0 27 -29l-25 -137q-3 -9 -12 -35z" />
    <glyph glyph-name="less" unicode="&#x3c;" horiz-adv-x="962" 
d="M166 719q2 7 16 22l647 551q24 21 41 0l45 -53q15 -18 -6 -39l-567 -481l397 -483q15 -16 -6 -37l-65 -56q-24 -21 -41 0l-453 551q-8 13 -8 25z" />
    <glyph glyph-name="equal" unicode="=" horiz-adv-x="962" 
d="M897 842h-702q-24 0 -23 26l12 72q6 27 35 27h701q28 0 22 -27l-12 -72q-1 -26 -33 -26zM831 473h-702q-26 0 -20 27l12 71q1 27 33 27h700q26 0 25 -27l-13 -71q-6 -27 -35 -27z" />
    <glyph glyph-name="greater" unicode="&#x3e;" horiz-adv-x="962" 
d="M883 719q0 -13 -17 -25l-645 -551q-24 -24 -41 0l-43 56q-17 19 6 37l566 483l-396 481q-17 18 6 39l64 53q26 20 41 0l450 -551q10 -10 9 -22z" />
    <glyph glyph-name="question" unicode="?" horiz-adv-x="724" 
d="M182 29l27 153q6 29 33 29h114q31 0 25 -29l-27 -153q-6 -29 -32 -29h-115q-31 0 -25 29zM426 506l-14 -78q-6 -29 -33 -29h-86q-31 0 -25 29l15 78q15 81 67 167q44 72 107 152q53 66 96 159q43 92 43 187q0 144 -162 144q-41 0 -80 -6q-32 -5 -75 -17q-36 -10 -41 -10
q-16 -4 -24 2q-7 5 -5 21l14 81q5 21 33 33q79 35 219 35q138 0 211 -68q72 -68 72 -184q0 -118 -46 -220q-47 -105 -103 -165q-52 -56 -112 -146q-56 -83 -71 -165z" />
    <glyph glyph-name="at" unicode="@" horiz-adv-x="1556" 
d="M907 434l111 381q-61 8 -84 8q-112 0 -197 -85q-87 -87 -125 -198q-39 -114 -39 -227q0 -129 107 -129q78 0 136 69q58 68 91 181zM1006 -78q22 4 18 -18l-10 -62q-1 -16 -23 -22q-123 -37 -284 -37q-286 0 -449 119q-162 119 -162 370q0 178 58 350q57 170 161 305
q105 137 270 219q166 83 361 83q271 0 405 -120t134 -335q0 -109 -32 -229q-32 -121 -91 -227q-61 -109 -161 -177q-102 -69 -228 -69h-80q-19 0 -29 7t-8 25l10 93q-77 -134 -213 -134q-100 0 -160 66q-61 67 -61 176q0 151 55 292q55 143 180 246q124 103 287 103
q136 0 207 -31q23 -11 17 -30l-205 -703h24q93 0 169 59t117 149q44 96 64 190q21 99 21 188q0 174 -102 262q-101 88 -328 88q-210 0 -380 -120q-168 -119 -257 -309q-88 -188 -88 -402q0 -209 127 -303q128 -95 373 -95q153 0 293 33z" />
    <glyph glyph-name="A" unicode="A" horiz-adv-x="942" 
d="M330 528h311l-25 729h-4zM575 1438h127q37 0 37 -33l78 -1372q5 -33 -31 -33h-88q-28 0 -28 29l-21 360h-377l-147 -360q-12 -29 -37 -29h-96q-34 0 -23 33l561 1372q12 33 45 33z" />
    <glyph glyph-name="B" unicode="B" horiz-adv-x="942" 
d="M322 807h176q144 0 223 88q80 89 80 240q0 87 -51 125q-49 36 -160 36h-182zM387 0h-328q-32 0 -26 31l243 1376q6 31 37 31h295q164 0 256 -71t92 -212q0 -134 -61 -246t-182 -157q157 -51 157 -250q0 -233 -122 -367q-123 -135 -361 -135zM205 141h184q158 0 242 90
t84 256q0 95 -56 140q-55 45 -170 45h-192z" />
    <glyph glyph-name="C" unicode="C" horiz-adv-x="802" 
d="M487 127q70 0 154 20q19 5 26.5 -1t4.5 -25l-13 -74q-5 -25 -38 -37q-71 -26 -166 -26q-185 0 -274 95t-89 318q0 139 33 322q72 408 202 571q131 164 361 164q105 0 174 -24q27 -11 23 -37l-13 -74q-6 -33 -38 -27q-84 19 -144 19q-168 0 -257 -126t-150 -466
q-33 -189 -33 -313q0 -155 56 -217t181 -62z" />
    <glyph glyph-name="D" unicode="D" horiz-adv-x="946" 
d="M326 0h-267q-32 0 -26 31l243 1376q6 31 35 31h238q194 0 293 -99q98 -98 98 -329q0 -131 -29 -291q-69 -399 -208 -559t-377 -160zM537 1294h-127l-203 -1151h131q162 0 259 126q97 125 157 450q28 153 28 274q0 167 -61 234t-184 67z" />
    <glyph glyph-name="E" unicode="E" horiz-adv-x="770" 
d="M676 666h-377l-92 -523h395q33 0 27 -30l-15 -82q-6 -31 -34 -31h-521q-32 0 -26 31l243 1376q2 31 35 31h514q32 0 27 -31l-14 -82q-6 -31 -37 -31h-391l-86 -489h374q33 0 27 -31l-14 -78q-1 -30 -35 -30z" />
    <glyph glyph-name="F" unicode="F" horiz-adv-x="747" 
d="M672 649h-377l-109 -618q-6 -31 -34 -31h-93q-32 0 -26 31l243 1376q2 31 35 31h514q31 0 29 -31l-16 -82q-6 -31 -37 -31h-391l-91 -506h375q35 0 29 -30l-14 -78q-6 -31 -37 -31z" />
    <glyph glyph-name="G" unicode="G" horiz-adv-x="905" 
d="M541 827h299q30 0 24 -30l-127 -719q-6 -33 -39 -51q-77 -43 -227 -43q-193 0 -285 95t-92 318q0 139 33 324q72 412 202 572q131 161 392 161q114 0 184 -22q29 -8 23 -39l-13 -78q-6 -35 -43 -25q-76 21 -155 21q-191 0 -282 -124q-90 -122 -150 -466
q-37 -215 -37 -324q0 -150 57 -210t184 -60q63 0 107 16l96 545h-176q-33 0 -27 31l15 78q6 30 37 30z" />
    <glyph glyph-name="H" unicode="H" horiz-adv-x="954" 
d="M612 31l113 633h-426l-113 -633q-6 -31 -34 -31h-93q-32 0 -26 31l243 1376q2 31 35 31h92q32 0 27 -31l-106 -600h426l106 600q5 31 35 31h92q29 0 27 -31l-244 -1376q-6 -31 -35 -31h-92q-33 0 -27 31z" />
    <glyph glyph-name="I" unicode="I" horiz-adv-x="399" 
d="M45 31l244 1376q2 31 35 31h92q31 0 26 -31l-243 -1376q-6 -31 -35 -31h-92q-33 0 -27 31z" />
    <glyph glyph-name="J" unicode="J" horiz-adv-x="593" 
d="M311 346l189 1061q5 31 35 31h92q28 0 26 -31l-190 -1075q-33 -188 -111 -266t-227 -78q-81 0 -125 16q-31 13 -27 41l15 76q6 30 35 24q53 -14 104 -14q83 0 123 45q40 44 61 170z" />
    <glyph glyph-name="K" unicode="K" horiz-adv-x="860" 
d="M332 840l489 575q23 23 45 23h107q15 0 20 -12q4 -10 -8 -25l-545 -645l310 -719q15 -37 -27 -37h-102q-23 0 -35 27l-283 659l-117 -655q-6 -31 -34 -31h-93q-32 0 -26 31l243 1376q2 31 33 31h92q34 0 29 -31z" />
    <glyph glyph-name="L" unicode="L" horiz-adv-x="716" 
d="M430 1407l-223 -1264h358q33 0 27 -30l-14 -82q-6 -31 -33 -31h-484q-34 0 -28 31l243 1376q2 31 35 31h92q32 0 27 -31z" />
    <glyph glyph-name="M" unicode="M" horiz-adv-x="1110" 
d="M545 414q-21 0 -25 18l-153 637l-185 -1038q-6 -31 -35 -31h-88q-32 0 -26 31l243 1376q2 31 35 31h86q25 0 31 -21l162 -723l420 723q12 21 34 21h95q28 0 26 -31l-243 -1376q-6 -31 -35 -31h-88q-33 0 -27 31l184 1038l-378 -637q-10 -18 -33 -18z" />
    <glyph glyph-name="N" unicode="N" horiz-adv-x="970" 
d="M1026 1407l-244 -1376q-6 -31 -34 -31h-93q-31 0 -37 27l-247 1067l-189 -1063q-6 -31 -35 -31h-88q-32 0 -26 31l243 1376q2 31 35 31h92q31 0 37 -27l248 -1067l189 1063q5 31 34 31h88q29 0 27 -31z" />
    <glyph glyph-name="O" unicode="O" horiz-adv-x="991" 
d="M657 1454q163 0 245 -96q83 -97 83 -314q0 -140 -33 -325q-69 -402 -195 -569q-126 -166 -335 -166q-161 0 -244 98q-84 99 -84 324q0 138 31 313q72 402 198 569q126 166 334 166zM434 123q133 0 218 133q86 135 143 463q34 188 34 328q0 145 -45 206q-45 62 -139 62
q-133 0 -217 -132q-83 -131 -145 -464q-35 -192 -35 -324q0 -147 46 -209q46 -63 140 -63z" />
    <glyph glyph-name="P" unicode="P" horiz-adv-x="884" 
d="M285 588h116q150 0 221 74q69 72 107 280q16 96 16 158q0 108 -50 150q-49 42 -169 42h-116zM150 -2h-93q-30 0 -24 31l241 1376q6 31 33 31h230q189 0 278 -71q88 -70 88 -241q0 -79 -18 -184q-49 -279 -159 -387q-111 -109 -337 -109h-129l-74 -415q-6 -31 -36 -31z
" />
    <glyph glyph-name="Q" unicode="Q" horiz-adv-x="991" 
d="M551 6q74 -33 149 -33q20 0 32 1t24 1q18 0 23 -5q5 -4 3 -21l-12 -72q-6 -35 -47 -35q-219 0 -363 152q-266 29 -266 412q0 139 31 313q72 402 198 569q126 166 334 166q163 0 245 -96q83 -97 83 -316q0 -138 -33 -323q-61 -341 -155 -505q-97 -168 -246 -208zM434 123
q133 0 218 133q86 135 143 463q34 188 34 328q0 145 -45 206q-45 62 -139 62q-134 0 -219 -133q-86 -135 -143 -463q-35 -208 -35 -324q0 -147 46 -209q46 -63 140 -63z" />
    <glyph glyph-name="R" unicode="R" horiz-adv-x="892" 
d="M297 657h137q145 0 211 68q66 67 96 248q17 94 17 143q0 100 -50 139t-171 39h-127zM309 1438h244q187 0 275 -71q87 -70 87 -232q0 -70 -16 -162q-68 -390 -332 -443l150 -493q10 -37 -27 -37h-90q-31 0 -37 25l-145 489h-146l-86 -483q-6 -31 -34 -31h-93q-32 0 -26 31
l243 1376q6 31 33 31z" />
    <glyph glyph-name="S" unicode="S" horiz-adv-x="757" 
d="M674 416q0 -190 -111 -312q-110 -120 -309 -120q-154 0 -227 24q-29 11 -25 39l12 78q6 36 41 25q92 -25 191 -25q120 0 196 78q76 77 76 205q0 78 -40 136q-40 57 -126 136q-174 162 -174 358q0 193 101 305q101 111 305 111q116 0 190 -20q31 -8 25 -39l-15 -78
q-6 -35 -43 -25q-68 21 -157 21q-116 0 -183 -72q-67 -71 -67 -192q0 -76 38 -134q35 -53 107 -122q195 -180 195 -377z" />
    <glyph glyph-name="T" unicode="T" horiz-adv-x="739" 
d="M197 1325l14 82q2 31 31 31h587q36 0 31 -31l-14 -82q-6 -31 -37 -31h-217l-223 -1263q-6 -31 -35 -31h-92q-33 0 -27 31l223 1263h-217q-30 0 -24 31z" />
    <glyph glyph-name="U" unicode="U" horiz-adv-x="933" 
d="M395 -16q-313 0 -313 292q0 75 14 144l174 987q5 31 33 31h92q31 0 29 -31l-172 -975q-14 -69 -14 -137q0 -91 38 -129q39 -39 130 -39q115 0 176 70q59 68 88 235l172 975q2 31 32 31h93q33 0 28 -31l-174 -987q-41 -232 -140 -334t-286 -102z" />
    <glyph glyph-name="V" unicode="V" horiz-adv-x="921" 
d="M444 0h-131q-35 0 -37 35l-61 1370q0 33 29 33h100q29 0 31 -31l33 -903l-2 -326h4l112 326l352 903q11 31 35 31h105q32 0 20 -33l-545 -1370q-15 -35 -45 -35z" />
    <glyph glyph-name="W" unicode="W" horiz-adv-x="1482" 
d="M856 1438h102q32 0 37 -31l11 -852l-2 -373h4l120 373l302 852q11 31 34 31h103q32 0 20 -33l-500 -1370q-15 -35 -45 -35h-131q-37 0 -37 35l-18 762l6 350h-4l-119 -350l-286 -762q-12 -35 -45 -35h-132q-31 0 -36 35l-17 1370q0 33 29 33h98q26 0 31 -31l-2 -852
l-10 -373h4l129 373l313 852q8 31 41 31z" />
    <glyph glyph-name="X" unicode="X" horiz-adv-x="868" 
d="M449 555l-320 -528q-17 -27 -43 -27h-98q-35 0 -17 35l426 692l-176 676q-8 35 23 35h100q33 0 39 -27l127 -510l307 510q15 27 43 27h101q14 0 19 -11q4 -10 -5 -24l-414 -676l180 -692q12 -35 -20 -35h-98q-35 0 -39 27z" />
    <glyph glyph-name="Y" unicode="Y" horiz-adv-x="899" 
d="M541 549l-92 -518q-6 -31 -35 -31h-92q-33 0 -27 31l92 518l-178 854q-5 35 27 35h98q27 0 35 -29l88 -483l32 -215h3l106 215l260 483q15 29 39 29h102q18 0 23 -12q4 -10 -4 -23z" />
    <glyph glyph-name="Z" unicode="Z" horiz-adv-x="798" 
d="M-8 31l14 82q1 6 21 43l675 1138h-436q-30 0 -24 31l14 82q2 31 33 31h569q31 0 29 -31l-15 -80q-5 -23 -20 -45l-676 -1139h465q31 0 25 -30l-15 -82q-6 -31 -35 -31h-598q-32 0 -26 31z" />
    <glyph glyph-name="bracketleft" unicode="[" horiz-adv-x="507" 
d="M336 -131l-10 -66q-6 -28 -35 -28h-242q-28 0 -22 28l282 1606q6 29 31 29h242q32 0 26 -29l-12 -66q-6 -28 -33 -28h-127l-250 -1417h125q31 0 25 -29z" />
    <glyph glyph-name="backslash" unicode="\" horiz-adv-x="598" 
d="M319 1413l181 -1382q6 -31 -29 -31h-74q-29 0 -30 27l-181 1380q-6 33 29 33h76q28 0 28 -27z" />
    <glyph glyph-name="bracketright" unicode="]" horiz-adv-x="512" 
d="M-47 -197l10 66q6 29 33 29h129l250 1417h-127q-31 0 -25 28l13 66q6 29 30 29h242q33 0 27 -29l-283 -1606q-6 -28 -35 -28h-242q-28 0 -22 28z" />
    <glyph glyph-name="asciicircum" unicode="^" horiz-adv-x="962" 
d="M612 1438h78q22 0 33 -27l182 -659q6 -33 -24 -33h-90q-25 0 -31 26l-137 512l-318 -512q-17 -26 -39 -26h-96q-14 0 -19 9q-5 10 5 24l415 659q15 27 41 27z" />
    <glyph glyph-name="underscore" unicode="_" horiz-adv-x="761" 
d="M578 -193h-627q-25 0 -23 27l11 51q1 27 28 27h627q26 0 24 -27l-10 -51q-2 -27 -30 -27z" />
    <glyph glyph-name="grave" unicode="`" horiz-adv-x="520" 
d="M467 1389l55 -164q4 -10 -2 -18q-6 -7 -18 -7h-47q-22 0 -35 19l-125 161q-8 8 -3 21q4 12 21 12h121q22 0 33 -24z" />
    <glyph glyph-name="a" unicode="a" horiz-adv-x="778" 
d="M739 784l-133 -755q-6 -29 -33 -29h-77q-31 0 -25 29l21 114q-94 -155 -252 -155q-105 0 -163 64q-59 65 -59 169q0 237 149 341q148 103 415 114l18 108q6 38 6 68q0 125 -139 125q-118 0 -231 -43q-10 -4 -21 2q-9 5 -8 20l14 78q5 28 31 35q112 41 237 41
q261 0 261 -225q0 -37 -11 -101zM530 393l29 164q-180 -7 -290 -77q-109 -69 -109 -238q0 -125 119 -125q89 0 160 80q70 79 91 196z" />
    <glyph glyph-name="b" unicode="b" horiz-adv-x="868" 
d="M258 547q-20 -121 -20 -197q0 -235 155 -235q106 0 168 101q65 106 105 331q24 135 24 227q0 106 -35 156q-34 49 -108 49q-213 0 -289 -432zM188 145l-20 -116q-6 -29 -33 -29h-86q-30 0 -24 29l243 1380q6 29 31 29h86q33 0 27 -29l-82 -461q35 70 102 116t152 46
q252 0 252 -336q0 -89 -23 -227q-51 -288 -151 -425q-100 -138 -261 -138q-87 0 -145 44t-68 117z" />
    <glyph glyph-name="c" unicode="c" horiz-adv-x="647" 
d="M84 547q50 290 154 426q105 137 280 137q98 0 150 -23q28 -12 24 -36l-12 -72q-6 -32 -37 -21q-51 17 -121 17q-118 0 -184 -99q-67 -100 -107 -329q-24 -147 -24 -215q0 -110 41 -162q40 -51 129 -51q69 0 129 18q16 4 25 -2q10 -7 6 -18l-15 -72q-1 -16 -9 -22
q-11 -9 -28 -15q-61 -24 -137 -24q-285 0 -285 348q0 101 21 215z" />
    <glyph glyph-name="d" unicode="d" horiz-adv-x="868" 
d="M639 547q18 111 18 192q0 240 -155 240q-105 0 -167 -101q-64 -103 -104 -331q-24 -137 -24 -230q0 -202 141 -202q213 0 291 432zM545 29l20 114q-77 -159 -246 -159q-258 0 -258 340q0 90 23 223q50 290 147 425q99 138 258 138q87 0 148 -48q63 -49 70 -114l81 461
q6 29 31 29h86q33 0 27 -29l-244 -1380q-6 -29 -33 -29h-86q-30 0 -24 29z" />
    <glyph glyph-name="e" unicode="e" horiz-adv-x="774" 
d="M408 113q76 0 172 30q12 4 21 -2q8 -6 7 -22l-12 -70q-6 -26 -35 -37q-88 -28 -172 -28q-326 0 -326 358q0 78 21 205q49 286 152 425q102 138 266 138q246 0 246 -307q0 -80 -19 -191l-18 -106q-6 -29 -37 -29h-459q-8 -61 -8 -117q0 -247 201 -247zM489 981
q-89 0 -151 -90q-61 -89 -100 -285h348l2 15q20 129 20 188q0 172 -119 172z" />
    <glyph glyph-name="f" unicode="f" horiz-adv-x="516" 
d="M416 1094h157q31 0 25 -29l-14 -78q-2 -29 -33 -29h-160l-164 -929q-6 -29 -30 -29h-86q-31 0 -25 29l164 929h-90q-27 0 -25 29l15 78q6 29 32 29h92l13 75q24 151 86 215t182 64q59 0 92 -12q18 -6 12 -31l-10 -66q-6 -26 -33 -26q-2 0 -5 0.5t-9 1t-11 0.5
q-26 2 -30 2q-61 0 -90 -32q-28 -31 -43 -122z" />
    <glyph glyph-name="g" unicode="g" horiz-adv-x="839" 
d="M621 592q16 99 16 166q0 223 -148 223q-95 0 -157 -95q-61 -94 -96 -294q-19 -117 -19 -189q0 -198 137 -198q96 0 164 98q70 101 103 289zM846 1065l-170 -959q-62 -348 -402 -348q-145 0 -223 33q-24 8 -18 35l12 76q6 30 37 22q108 -33 199 -33q213 0 254 224l22 123
q-77 -160 -238 -160q-247 0 -247 323q0 83 18 191q46 258 139 389q91 129 244 129q80 0 140 -48q62 -49 69 -114l20 117q6 29 33 29h86q31 0 25 -29z" />
    <glyph glyph-name="h" unicode="h" horiz-adv-x="843" 
d="M803 768l-131 -739q-6 -29 -33 -29h-86q-31 0 -25 29l129 727q9 68 9 80q0 137 -125 137q-101 0 -167 -78q-67 -79 -89 -209l-117 -657q-6 -29 -33 -29h-86q-30 0 -24 29l243 1380q6 29 33 29h86q31 0 25 -29l-80 -448q91 149 252 149q110 0 169 -67q58 -65 58 -183
q0 -46 -8 -92z" />
    <glyph glyph-name="i" unicode="i" horiz-adv-x="356" 
d="M354 1065l-182 -1036q-6 -29 -33 -29h-86q-30 0 -24 29l182 1036q6 29 33 29h86q30 0 24 -29zM418 1399l-25 -142q-6 -28 -35 -28h-94q-28 0 -22 28l24 142q6 28 31 28h94q33 0 27 -28z" />
    <glyph glyph-name="j" unicode="j" horiz-adv-x="376" 
d="M47 14l184 1051q6 29 31 29h86q33 0 27 -29l-187 -1063q-24 -132 -68 -184q-44 -51 -149 -51q-40 0 -80 8q-24 6 -18 30l12 72q6 29 33 27q20 -2 39 -2q36 0 57 22t33 90zM438 1399l-24 -142q-6 -28 -35 -28h-94q-29 0 -23 28l25 142q6 28 28 28h95q34 0 28 -28z" />
    <glyph glyph-name="k" unicode="k" horiz-adv-x="737" 
d="M608 0h-86q-26 0 -37 25l-229 507l-88 -503q-6 -29 -33 -29h-86q-30 0 -24 29l243 1380q6 29 31 29h86q33 0 27 -29l-125 -711l356 371q22 25 45 25h103q20 0 23 -13q3 -12 -11 -26l-430 -447l260 -571q16 -37 -25 -37z" />
    <glyph glyph-name="l" unicode="l" horiz-adv-x="356" 
d="M416 1409l-244 -1380q-6 -29 -33 -29h-86q-30 0 -24 29l243 1380q6 29 31 29h86q33 0 27 -29z" />
    <glyph glyph-name="m" unicode="m" horiz-adv-x="1269" 
d="M752 719l-121 -690q-6 -29 -33 -29h-86q-31 0 -25 29l129 735q11 58 11 88q0 121 -109 121q-89 0 -152 -76q-62 -76 -85 -201l-117 -667q-6 -29 -33 -29h-86q-31 0 -25 29l183 1036q6 29 33 29h86q30 0 24 -29l-18 -104q85 149 235 149q173 0 189 -166q96 166 278 166
q104 0 156 -63q53 -64 53 -175q0 -44 -8 -90l-133 -753q-6 -29 -33 -29h-86q-31 0 -25 29l129 735q11 58 11 88q0 121 -109 121q-85 0 -150 -73q-65 -72 -83 -181z" />
    <glyph glyph-name="n" unicode="n" horiz-adv-x="831" 
d="M791 774l-132 -745q-6 -29 -32 -29h-86q-31 0 -25 29l129 727q8 66 8 82q0 135 -123 135q-99 0 -165 -78q-67 -79 -89 -209l-116 -657q-6 -29 -33 -29h-86q-31 0 -25 29l183 1036q6 29 30 29h86q33 0 27 -29l-18 -104q91 149 251 149q109 0 166 -66q58 -67 58 -178
q0 -46 -8 -92z" />
    <glyph glyph-name="o" unicode="o" horiz-adv-x="831" 
d="M342 -16q-279 0 -279 348q0 101 21 215q50 290 154 426q105 137 278 137q281 0 281 -348q0 -101 -21 -215q-51 -291 -155 -426q-105 -137 -279 -137zM352 115q103 0 169 102q68 105 108 330q22 116 22 219q0 213 -145 213q-103 0 -169 -102q-67 -104 -106 -330
q-24 -134 -24 -221q0 -211 145 -211z" />
    <glyph glyph-name="p" unicode="p" horiz-adv-x="864" 
d="M254 547q-21 -127 -21 -197q0 -235 156 -235q106 0 168 101q65 106 105 331q24 135 24 227q0 106 -35 156q-34 49 -108 49q-213 0 -289 -432zM346 1065l-20 -117q35 70 100 116t149 46q256 0 256 -338q0 -93 -22 -225q-51 -287 -150 -425t-258 -138q-87 0 -147 45
t-70 116l-59 -342q-6 -28 -35 -28h-86q-28 0 -22 28l221 1262q6 29 33 29h86q30 0 24 -29z" />
    <glyph glyph-name="q" unicode="q" horiz-adv-x="864" 
d="M639 547q18 111 18 192q0 240 -155 240q-105 0 -167 -101q-64 -103 -104 -331q-24 -137 -24 -230q0 -202 141 -202q213 0 291 432zM707 946l20 119q6 29 33 29h86q30 0 24 -29l-221 -1262q-6 -28 -35 -28h-86q-28 0 -22 28l59 342q-76 -161 -250 -161q-254 0 -254 335
q0 90 23 228q50 290 147 425q99 138 258 138q87 0 148 -48q63 -49 70 -116z" />
    <glyph glyph-name="r" unicode="r" horiz-adv-x="540" 
d="M236 1094h86q30 0 24 -29l-27 -147q32 74 105 132q71 56 156 56q18 0 25 -6q7 -5 5 -25l-18 -104q-6 -27 -31 -27q-9 0 -21 1t-32 1q-77 0 -146 -95q-70 -95 -92 -218l-106 -604q-6 -29 -33 -29h-86q-31 0 -25 29l183 1036q6 29 33 29z" />
    <glyph glyph-name="s" unicode="s" horiz-adv-x="647" 
d="M563 342q0 -160 -92 -260q-91 -98 -260 -98q-136 0 -213 26q-27 6 -21 33l15 76q6 31 35 20q69 -26 180 -26q96 0 154 59q59 61 59 158q0 58 -33 95q-31 35 -113 97q-155 116 -155 264q0 156 87 240t249 84q100 0 178 -23q24 -6 18 -32l-12 -70q-6 -33 -35 -22
q-56 18 -139 18q-89 0 -146 -42t-57 -134q0 -51 32 -92t101 -92q168 -123 168 -279z" />
    <glyph glyph-name="t" unicode="t" horiz-adv-x="532" 
d="M539 958h-156l-117 -667q-10 -59 -10 -90q0 -44 19 -60t67 -16q10 0 53 6q13 2 19.5 -4.5t5.5 -20.5l-14 -73q-1 -27 -29 -33q-39 -10 -66 -10q-101 0 -150 42q-50 42 -50 140q0 41 10 104l121 682h-90q-27 0 -25 29l14 78q6 29 35 29h94l41 231q2 29 31 29h80
q29 0 27 -29l-41 -231h155q29 0 23 -29l-15 -78q-2 -29 -32 -29z" />
    <glyph glyph-name="u" unicode="u" horiz-adv-x="823" 
d="M66 336l129 729q6 29 32 29h86q31 0 25 -29l-127 -723q-10 -53 -10 -90q0 -131 123 -131q92 0 158 78q67 79 89 209l115 657q6 29 33 29h86q30 0 24 -29l-182 -1036q-6 -29 -33 -29h-86q-30 0 -24 29l18 104q-88 -149 -243 -149q-111 0 -167 65q-57 66 -57 182
q0 41 11 105z" />
    <glyph glyph-name="v" unicode="v" horiz-adv-x="741" 
d="M342 0h-106q-33 0 -33 29l-60 1034q0 31 27 31h90q29 0 29 -29l26 -659l2 -220h5l75 220l260 659q12 29 37 29h94q31 0 19 -31l-424 -1034q-12 -29 -41 -29z" />
    <glyph glyph-name="w" unicode="w" horiz-adv-x="1187" 
d="M653 1094h95q28 0 28 -29l12 -659v-230h5l69 230l234 659q12 29 37 29h90q30 0 18 -31l-385 -1034q-12 -29 -41 -29h-104q-33 0 -33 29l-16 573l4 266h-4l-91 -266l-217 -573q-12 -29 -41 -29h-104q-33 0 -33 29l-20 1034q0 31 26 31h86q29 0 29 -29v-659l-8 -230h4
l78 230l245 659q12 29 37 29z" />
    <glyph glyph-name="x" unicode="x" horiz-adv-x="753" 
d="M301 1073l115 -391l250 391q15 21 34 21h93q33 0 12 -33l-338 -506l164 -524q8 -31 -21 -31h-100q-25 0 -31 20l-110 408l-258 -408q-11 -20 -35 -20h-96q-32 0 -13 31l348 524l-161 506q-12 33 20 33h96q25 0 31 -21z" />
    <glyph glyph-name="y" unicode="y" horiz-adv-x="745" 
d="M811 1063l-395 -979q-71 -177 -140 -250q-68 -72 -206 -72q-65 0 -97 13q-23 8 -18 32l12 72q6 32 35 27q59 -10 84 -10q81 0 111 54t24 134l-74 979q0 31 27 31h90q29 0 29 -29l35 -659l4 -218h4l74 218l252 659q12 29 36 29h95q30 0 18 -31z" />
    <glyph glyph-name="z" unicode="z" horiz-adv-x="708" 
d="M729 1065l-10 -57q-1 -18 -17 -41l-526 -832h365q28 0 26 -29l-14 -77q-6 -29 -33 -29h-500q-30 0 -24 29l10 55q1 14 17 39l526 835h-350q-27 0 -25 29l14 78q6 29 33 29h484q30 0 24 -29z" />
    <glyph glyph-name="braceleft" unicode="{" horiz-adv-x="507" 
d="M66 565l14 82q6 27 35 27h24q46 0 73 82q31 94 69 309q38 211 93 291q57 82 181 82h53q31 0 25 -29l-12 -66q-6 -28 -33 -28h-31q-54 0 -84 -63q-30 -64 -57 -212q-40 -226 -82 -322q-40 -90 -111 -112q74 -24 74 -149q0 -86 -35 -285q-18 -107 -18 -172q0 -102 63 -102
h31q28 0 22 -29l-10 -66q-6 -28 -35 -28h-53q-88 0 -127 41q-39 40 -39 135q0 69 23 196q41 226 41 306q0 86 -45 86h-25q-25 0 -24 26z" />
    <glyph glyph-name="bar" unicode="|" horiz-adv-x="507" 
d="M324 1450v-1647q0 -28 -29 -28h-82q-29 0 -29 28v1647q0 29 29 29h82q29 0 29 -29z" />
    <glyph glyph-name="braceright" unicode="}" horiz-adv-x="507" 
d="M489 647l-14 -82q-1 -26 -33 -26h-24q-45 0 -75 -84q-30 -83 -69 -310q-38 -209 -94 -289q-57 -81 -180 -81h-53q-29 0 -23 28l10 66q6 29 35 29h31q54 0 84 62q32 67 55 212q40 230 82 324q40 89 113 110q-76 24 -76 152q0 83 35 282q20 117 20 174q0 101 -63 101h-31
q-30 0 -24 28l12 66q6 29 33 29h53q88 0 127 -41t39 -135q0 -70 -23 -197q-39 -228 -39 -303q0 -88 45 -88h25q28 0 22 -27z" />
    <glyph glyph-name="asciitilde" unicode="~" horiz-adv-x="962" 
d="M340 868q62 0 164 -47l96 -45q75 -35 117 -35q57 0 96 60q13 18 27 43q10 20 32 10l62 -27q12 -6 6 -30q-72 -199 -225 -199q-61 0 -164 47l-96 45q-75 35 -117 35q-56 0 -96 -59l-27 -43q-11 -21 -33 -11l-59 27q-14 6 -8 31q73 198 225 198z" />
    <glyph glyph-name="uni00A0" unicode="&#xa0;" horiz-adv-x="0" 
 />
    <glyph glyph-name="exclamdown" unicode="&#xa1;" horiz-adv-x="425" 
d="M403 1063l-26 -154q-6 -28 -35 -28h-115q-28 0 -22 28l26 154q6 29 31 29h115q32 0 26 -29zM217 692h66q30 0 26 -28l-127 -859q-6 -30 -35 -30h-114q-29 0 -23 30l176 859q4 28 31 28z" />
    <glyph glyph-name="cent" unicode="&#xa2;" horiz-adv-x="679" 
d="M88 547q45 264 140 401t255 158l25 143q6 29 35 29h65q29 0 23 -29l-25 -143q65 -6 90 -19q29 -15 25 -36l-12 -72q-6 -32 -37 -21q-51 17 -127 17q-132 0 -200 -98t-109 -330q-23 -132 -23 -209q0 -114 45 -167q45 -52 141 -52q76 0 136 18q15 4 25 -1q9 -5 5 -19
l-14 -72q-4 -27 -37 -37q-36 -14 -106 -20l-25 -144q-6 -28 -33 -28h-65q-31 0 -25 28l27 146q-219 39 -219 346q0 102 20 211z" />
    <glyph glyph-name="sterling" unicode="&#xa3;" horiz-adv-x="946" 
d="M279 659h-154q-29 0 -23 29l11 66q6 28 32 28h115q-24 144 -24 222q0 202 115 326t313 124q146 0 225 -73q78 -72 78 -205q0 -138 -49 -138h-80q-25 0 -25 21q0 5 8 42t8 70q0 144 -172 144q-134 0 -202 -83t-68 -224q0 -83 23 -226h260q30 0 24 -28l-10 -66
q-6 -29 -35 -29h-223q6 -44 6 -88q0 -284 -205 -419q56 22 109 22q56 0 125 -24q72 -25 114 -25q115 0 156 209q4 26 31 26h74q34 0 28 -34q-29 -158 -88 -248q-60 -92 -172 -92q-76 0 -167 29q-94 30 -163 30q-111 0 -208 -53q-23 -12 -29 4l-39 80q-7 16 8 26
q279 174 279 473q0 41 -6 84z" />
    <glyph glyph-name="currency" unicode="&#xa4;" horiz-adv-x="983" 
d="M78 252l110 110q-32 83 -32 218q0 132 32 215l-110 112q-20 21 0 41l45 45q21 21 41 0l88 -88q88 105 240 105q150 0 239 -105l88 88q21 21 41 0l45 -45q21 -20 0 -41l-112 -112q34 -90 34 -215q0 -128 -34 -218l112 -110q21 -20 0 -41l-45 -45q-20 -20 -41 0l-88 88
q-88 -104 -239 -104q-152 0 -240 104l-88 -88q-20 -20 -41 0l-45 45q-20 21 0 41zM700 580q0 313 -208 313q-209 0 -209 -313q0 -314 209 -314q208 0 208 314z" />
    <glyph glyph-name="yen" unicode="&#xa5;" horiz-adv-x="931" 
d="M526 373l-61 -342q-6 -31 -35 -31h-92q-33 0 -27 31l62 342h-267q-30 0 -24 28l10 62q6 29 33 29h268l8 45l-28 127h-215q-31 0 -25 28l10 62q6 28 33 28h170l-137 621q-5 35 27 35h96q29 0 35 -29l135 -702h2l385 702q15 29 39 29h104q18 0 23 -12q4 -10 -4 -23
l-357 -621h168q31 0 25 -28l-10 -62q-6 -28 -33 -28h-217l-72 -127l-8 -45h264q31 0 25 -29l-11 -62q-6 -28 -32 -28h-267z" />
    <glyph glyph-name="brokenbar" unicode="&#xa6;" horiz-adv-x="507" 
d="M324 1450v-623q0 -28 -29 -28h-82q-29 0 -29 28v623q0 29 29 29h82q29 0 29 -29zM324 426v-623q0 -28 -29 -28h-82q-29 0 -29 28v623q0 29 29 29h82q29 0 29 -29z" />
    <glyph glyph-name="section" unicode="&#xa7;" horiz-adv-x="983" 
d="M164 616q0 109 65 184q67 77 177 107q-109 100 -109 221q0 162 105 245q106 83 284 83q145 0 232 -29q28 -10 24 -38l-12 -76q-6 -33 -43 -23q-116 29 -195 29q-106 0 -174 -46q-69 -47 -69 -147q0 -26 10 -47q13 -28 20 -39q10 -16 37 -37q9 -7 22 -17.5t17 -13.5
q18 -14 50 -34q10 -6 21.5 -13.5t17.5 -11.5l9 -6q103 -68 162 -139q57 -69 57 -164q0 -104 -62 -179q-64 -77 -169 -110q107 -96 107 -219q0 -158 -119 -244q-118 -85 -299 -85q-169 0 -250 28q-33 11 -27 39l15 76q6 34 43 22q84 -28 215 -28q112 0 191 48t79 150
q0 19 -5 39q-5 19 -20 37q-5 6 -12.5 16t-11.5 14q-11 12 -36 30q-9 7 -21 15l-15 10q-12 8 -44 28q-40 24 -42 26q-106 66 -167 138q-58 68 -58 161zM510 827q-79 -5 -143 -60q-66 -57 -66 -138q0 -39 16 -68q17 -30 59 -62q42 -31 69 -48q23 -14 94 -56q72 7 135 63
q61 54 61 130q0 68 -56 120q-55 50 -169 119z" />
    <glyph glyph-name="dieresis" unicode="&#xa8;" horiz-adv-x="520" 
d="M356 1329l-18 -100q-2 -29 -33 -29h-94q-27 0 -25 29l19 100q6 29 31 29h94q32 0 26 -29zM618 1329l-18 -100q-2 -29 -33 -29h-94q-26 0 -24 29l18 100q6 29 31 29h94q32 0 26 -29z" />
    <glyph glyph-name="copyright" unicode="&#xa9;" horiz-adv-x="1404" 
d="M762 416q63 0 112 10q25 5 25 -16v-74q0 -21 -20 -27q-51 -16 -136 -16q-155 0 -234 99q-79 98 -79 327q0 228 78 327t233 99q70 0 133 -19q21 -4 21 -26v-74q0 -21 -25 -16q-62 12 -110 12q-108 0 -151 -69q-44 -70 -44 -234q0 -166 45 -235q44 -68 152 -68zM195 719
q0 -279 126 -455t381 -176q256 0 382 176t126 455q0 280 -126 455q-126 176 -382 176q-255 0 -381 -176q-126 -175 -126 -455zM86 719q0 156 37 285q38 133 109 233q73 103 194 160t276 57q156 0 277 -57q120 -56 193 -160q73 -103 110 -233q37 -129 37 -285t-37 -285
q-37 -130 -110 -233q-73 -104 -193 -160q-121 -57 -277 -57q-154 0 -276 57q-121 57 -194 160q-71 100 -109 233q-37 129 -37 285z" />
    <glyph glyph-name="ordfeminine" unicode="&#xaa;" horiz-adv-x="638" 
d="M586 1303l22 129q-307 0 -307 -232q0 -96 94 -96q72 0 123 55q52 56 68 144zM537 1028l14 76q-64 -115 -191 -115q-82 0 -135 54q-53 55 -53 141q0 182 118 263q117 80 337 95l16 84q27 139 -113 139q-92 0 -180 -30q-12 -6 -22 -2t-9 22l13 70q4 22 24 28q91 35 205 35
q213 0 213 -194q0 -32 -6 -70l-104 -596q-6 -31 -37 -31h-66q-30 0 -24 31z" />
    <glyph glyph-name="guillemotleft" unicode="&#xab;" horiz-adv-x="663" 
d="M76 557l8 14l158 275q16 22 34 22h82q27 0 13 -26l-166 -285l65 -285q6 -26 -20 -26h-82q-23 0 -27 22l-63 275q0 5 -1 8t-1 6zM348 557l8 14l158 275q16 22 35 22h82q24 0 12 -26l-166 -285l66 -285q6 -26 -21 -26h-82q-22 0 -26 22l-64 275q0 5 -1 8t-1 6z" />
    <glyph glyph-name="logicalnot" unicode="&#xac;" horiz-adv-x="962" 
d="M870 766l-73 -422q-6 -29 -33 -29h-80q-31 0 -25 29l56 315h-551q-29 0 -23 29l13 78q6 29 32 29h660q30 0 24 -29z" />
    <glyph glyph-name="uni00AD" unicode="&#xad;" horiz-adv-x="552" 
d="M459 489h-359q-28 0 -22 27l12 72q6 26 31 26h356q33 0 27 -26l-12 -72q-6 -27 -33 -27z" />
    <glyph glyph-name="registered" unicode="&#xae;" horiz-adv-x="778" 
d="M348 1098h43q43 0 58 15q14 14 14 56t-14 55t-60 13h-41v-139zM389 1454q147 0 229 -102q82 -101 82 -254q0 -150 -82 -253q-83 -104 -229 -104q-145 0 -228 104t-83 253q0 151 83 254q83 102 228 102zM389 805q123 0 184 81q62 82 62 212t-62 212q-61 81 -184 81
t-183 -81q-61 -82 -61 -212t61 -212q60 -81 183 -81zM272 915v375q0 15 15 15h112q73 0 108 -33q34 -33 34 -103q0 -111 -82 -129l69 -120q4 -5 2 -13q-2 -6 -10 -6h-49q-13 0 -18 12l-68 119h-37v-117q0 -14 -14 -14h-47q-15 0 -15 14z" />
    <glyph glyph-name="macron" unicode="&#xaf;" horiz-adv-x="520" 
d="M594 1208h-406q-30 0 -24 29l8 47q6 29 33 29h405q31 0 25 -29l-8 -47q-6 -29 -33 -29z" />
    <glyph glyph-name="degree" unicode="&#xb0;" horiz-adv-x="622" 
d="M408 1022q79 0 128 62q50 64 50 147q0 57 -32 92t-87 35q-77 0 -127 -64q-49 -62 -49 -145q0 -56 31 -92q30 -35 86 -35zM403 920q-97 0 -159 63q-62 64 -62 160q0 127 81 222t212 95q99 0 159 -63t60 -158q0 -126 -80 -223q-80 -96 -211 -96z" />
    <glyph glyph-name="plusminus" unicode="&#xb1;" horiz-adv-x="962" 
d="M887 690h-299l-66 -371q-6 -26 -30 -26h-80q-31 0 -25 26l66 371h-301q-24 0 -23 27l12 71q6 27 33 27h301l64 363q6 28 30 28h80q31 0 25 -28l-64 -363h297q31 0 25 -27l-12 -71q-2 -27 -33 -27zM766 0h-735q-29 0 -23 27l10 63q6 27 33 27h733q31 0 25 -27l-10 -63
q-6 -27 -33 -27z" />
    <glyph glyph-name="two.superior" unicode="&#xb2;" 
d="M397 1626q0 -45 -35 -45h-71q-27 0 -27 39q0 114 77 191t191 77q106 0 158 -51q53 -51 53 -145q0 -72 -28 -143q-29 -73 -59 -121q-31 -49 -98 -118q-80 -82 -97 -97q-10 -9 -107 -91h267q34 0 28 -30l-12 -64q-6 -31 -35 -31h-414q-30 0 -24 31l8 57q2 18 25 37
q195 170 280 271q129 157 129 288q0 86 -84 86q-61 0 -93 -41t-32 -100z" />
    <glyph glyph-name="three.superior" unicode="&#xb3;" 
d="M422 1389h-62q-30 0 -24 30l10 60q6 30 37 30h63q67 0 107 51q39 50 39 117q0 88 -131 88q-44 0 -135 -20q-18 -4 -25 1q-5 4 -4 19l12 70q2 18 25 29q60 24 147 24q246 0 246 -184q0 -165 -137 -242q82 -43 82 -164q0 -155 -88 -233t-242 -78q-123 0 -170 25
q-19 14 -18 30l12 66q1 16 14 21q14 5 25 1q54 -20 135 -20q98 0 147 43q50 44 50 137q0 99 -115 99z" />
    <glyph glyph-name="acute" unicode="&#xb4;" horiz-adv-x="520" 
d="M264 1225l105 164q17 24 37 24h129q16 0 19 -12q3 -13 -9 -21l-174 -161q-19 -19 -39 -19h-56q-12 0 -15 8q-4 9 3 17z" />
    <glyph glyph-name="mu" unicode="&#xb5;" horiz-adv-x="827" 
d="M838 1065l-131 -741q-60 -340 -306 -340q-93 0 -149 44q-55 43 -70 105l-57 -330q-6 -28 -35 -28h-86q-28 0 -22 28l221 1262q6 29 33 29h86q30 0 24 -29l-115 -657q-8 -46 -8 -91q0 -92 40 -144t114 -52q84 0 127 55q42 53 63 166l127 723q6 29 33 29h86q31 0 25 -29z
" />
    <glyph glyph-name="paragraph" unicode="&#xb6;" horiz-adv-x="884" 
d="M981 1319h-70q-61 0 -88 -24t-39 -93l-211 -1200q-23 -131 -73 -183q-51 -52 -158 -52q-62 0 -100 12q-21 7 -19 31l10 55q6 28 33 26q50 -6 62 -6q46 0 73 30t39 99l105 600h-37q-157 0 -248 77q-90 77 -90 222q0 222 118 373q119 152 339 152h374q31 0 25 -29l-10 -61
q-6 -29 -35 -29z" />
    <glyph glyph-name="periodcentered" unicode="&#xb7;" horiz-adv-x="360" 
d="M98 473l27 148q1 28 31 28h106q28 0 27 -28l-27 -148q-6 -29 -33 -29h-106q-31 0 -25 29z" />
    <glyph glyph-name="cedilla" unicode="&#xb8;" horiz-adv-x="520" 
d="M96 16h72q58 -23 97 -62q41 -40 42 -93q1 -72 -43 -112t-121 -40q-58 0 -82 8q-19 6 -14 25l10 49q5 19 21 19h47q78 0 78 65q0 69 -107 141z" />
    <glyph glyph-name="one.superior" unicode="&#xb9;" 
d="M510 1696l-139 -117q-27 -21 -45 4l-33 49q-12 21 14 43l232 191q15 12 36 12h64q35 0 29 -31l-146 -819q-6 -31 -35 -31h-69q-33 0 -27 31z" />
    <glyph glyph-name="ordmasculine" unicode="&#xba;" horiz-adv-x="667" 
d="M561 1765q-78 0 -127 -77q-50 -79 -80 -250q-16 -86 -16 -164q0 -164 108 -164q76 0 125 78q49 77 82 250q19 104 19 166q0 161 -111 161zM436 987q-233 0 -233 285q0 70 16 166q44 232 126 341t226 109q234 0 234 -280q0 -65 -17 -170q-40 -234 -123 -342
q-83 -109 -229 -109z" />
    <glyph glyph-name="guillemotright" unicode="&#xbb;" horiz-adv-x="663" 
d="M616 557q0 -3 -6 -14l-157 -275q-16 -22 -35 -22h-82q-24 0 -12 26l163 285l-63 285q-6 26 20 26h82q23 0 27 -22l63 -275v-14zM344 557q0 -3 -6 -14l-158 -275q-16 -22 -35 -22h-82q-26 0 -12 26l164 285l-63 285q-6 26 20 26h82q23 0 27 -22l63 -275v-14z" />
    <glyph glyph-name="onequarter" unicode="&#xbc;" horiz-adv-x="1433" 
d="M432 1255l-139 -116q-27 -21 -45 4l-33 49q-12 21 14 43l232 190q16 13 37 13h63q35 0 29 -31l-146 -819q-6 -31 -34 -31h-70q-33 0 -27 31zM1323 1409l-897 -1386q-12 -23 -37 -23h-96q-27 0 -10 29l893 1386q17 23 36 23h97q31 0 14 -29zM1227 682l-277 -363h213z
M1327 195h-55l-29 -164q-6 -31 -35 -31h-69q-33 0 -27 31l29 164h-310q-28 0 -22 30l8 58q1 13 19 36l413 537q22 25 39 25h72q35 0 29 -31l-95 -531h54q32 0 26 -30l-10 -64q-6 -30 -37 -30z" />
    <glyph glyph-name="onehalf" unicode="&#xbd;" horiz-adv-x="1433" 
d="M432 1255l-139 -116q-27 -21 -45 4l-33 49q-12 21 14 43l232 190q16 13 37 13h63q35 0 29 -31l-146 -819q-6 -31 -34 -31h-70q-33 0 -27 31zM1040 629q0 59 32 100t93 41q84 0 84 -86q0 -191 -291 -455q-74 -65 -118 -104q-23 -19 -25 -37l-8 -57q-6 -31 24 -31h414
q29 0 35 31l12 63q6 31 -28 31h-267q97 83 107 91q24 22 97 96q65 67 98 119q30 48 59 121q28 71 28 142q0 95 -53 146t-157 51q-115 0 -192 -77t-77 -191q0 -39 27 -39h72q34 0 34 45zM1241 1409l-897 -1386q-12 -23 -37 -23h-96q-27 0 -10 29l893 1386q17 23 36 23h97
q31 0 14 -29z" />
    <glyph glyph-name="threequarters" unicode="&#xbe;" horiz-adv-x="1433" 
d="M344 948h-61q-31 0 -25 31l10 59q6 31 37 31h64q67 0 106 50q39 49 39 118q0 88 -131 88q-44 0 -135 -20q-18 -4 -25 1q-5 4 -4 19l12 70q1 17 25 28q63 25 147 25q246 0 246 -184q0 -165 -137 -242q82 -43 82 -164q0 -155 -88 -233t-242 -78q-125 0 -170 24
q-20 14 -18 31l12 66q1 16 14 21q14 5 25 1q54 -20 135 -20q99 0 148 43t49 137q0 98 -115 98zM1339 1409l-897 -1386q-12 -23 -36 -23h-97q-27 0 -10 29l893 1386q17 23 37 23h96q31 0 14 -29zM1227 682l-277 -363h213zM1327 195h-55l-29 -164q-6 -31 -35 -31h-69
q-33 0 -27 31l29 164h-310q-28 0 -22 30l8 58q1 13 19 36l413 537q22 25 39 25h72q35 0 29 -31l-95 -531h54q32 0 26 -30l-10 -64q-6 -30 -37 -30z" />
    <glyph glyph-name="questiondown" unicode="&#xbf;" horiz-adv-x="671" 
d="M545 1065l-27 -154q-6 -28 -35 -28h-114q-29 0 -23 28l27 154q6 29 33 29h114q31 0 25 -29zM315 666l-10 -58q-11 -62 -47 -116q-39 -57 -82 -102q-40 -41 -88 -96q-43 -49 -72 -121q-28 -69 -28 -155q0 -118 81 -187t214 -69q130 0 196 33q26 12 31 35l14 82q1 15 -5 20
q-8 6 -23 2q-2 0 -41 -11q-34 -9 -70 -15q-37 -6 -78 -6q-157 0 -157 125q0 87 41 168q40 79 94 136t101 130q52 80 63 147l10 58q6 28 -27 28h-86q-25 0 -31 -28z" />
    <glyph glyph-name="Agrave" unicode="&#xc0;" horiz-adv-x="942" 
d="M330 528h311l-25 729h-4zM575 1438h127q37 0 37 -33l78 -1372q5 -33 -31 -33h-88q-28 0 -28 29l-21 360h-377l-147 -360q-12 -29 -37 -29h-96q-34 0 -23 33l561 1372q12 33 45 33zM662 1712l47 -164q4 -9 -2 -17q-6 -7 -19 -7h-55q-23 0 -35 18l-117 162q-8 8 -3 20
q5 13 22 13h129q25 0 33 -25z" />
    <glyph glyph-name="Aacute" unicode="&#xc1;" horiz-adv-x="942" 
d="M330 528h311l-25 729h-4zM575 1438h127q37 0 37 -33l78 -1372q5 -33 -31 -33h-88q-28 0 -28 29l-21 360h-377l-147 -360q-12 -29 -37 -29h-96q-34 0 -23 33l561 1372q12 33 45 33zM614 1548l105 164q17 25 37 25h129q16 0 19 -13q3 -12 -9 -20l-174 -162q-18 -18 -39 -18
h-55q-13 0 -16 8t3 16z" />
    <glyph glyph-name="Acircumflex" unicode="&#xc2;" horiz-adv-x="942" 
d="M330 528h311l-25 729h-4zM575 1438h127q37 0 37 -33l78 -1372q5 -33 -31 -33h-88q-28 0 -28 29l-21 360h-377l-147 -360q-12 -29 -37 -29h-96q-34 0 -23 33l561 1372q12 33 45 33zM760 1542l-78 98l-115 -98q-18 -18 -37 -18h-75q-15 0 -17 9t8 19l168 168q19 19 39 19
h78q26 0 39 -19l107 -168q7 -10 3 -19t-20 -9h-67q-21 0 -33 18z" />
    <glyph glyph-name="Atilde" unicode="&#xc3;" horiz-adv-x="942" 
d="M330 528h311l-25 729h-4zM575 1438h127q37 0 37 -33l78 -1372q5 -33 -31 -33h-88q-28 0 -28 29l-21 360h-377l-147 -360q-12 -29 -37 -29h-96q-34 0 -23 33l561 1372q12 33 45 33zM924 1649q-22 -129 -140 -129q-66 0 -127 32l-47 25q-78 39 -94 -18l-6 -15
q-6 -20 -31 -20h-41q-26 0 -20 37q21 129 139 129q64 0 127 -33l47 -25q78 -39 96 19l4 14q6 21 33 21h41q26 0 19 -37z" />
    <glyph glyph-name="Adieresis" unicode="&#xc4;" horiz-adv-x="942" 
d="M330 528h311l-25 729h-4zM575 1438h127q37 0 37 -33l78 -1372q5 -33 -31 -33h-88q-28 0 -28 29l-21 360h-377l-147 -360q-12 -29 -37 -29h-96q-34 0 -23 33l561 1372q12 33 45 33zM625 1653l-19 -101q-6 -28 -33 -28h-98q-30 0 -24 28l18 101q6 28 31 28h98q33 0 27 -28z
M891 1653l-19 -101q-6 -28 -32 -28h-99q-30 0 -24 28l18 101q6 28 31 28h98q33 0 27 -28z" />
    <glyph glyph-name="Aring" unicode="&#xc5;" horiz-adv-x="942" 
d="M477 1503q0 83 54 139t145 56q72 0 116 -42t44 -104q0 -113 -97 -166l78 -1353q5 -33 -31 -33h-88q-28 0 -28 29l-21 360h-377l-147 -360q-12 -29 -37 -29h-96q-34 0 -23 33l557 1364q-49 39 -49 106zM330 528h311l-25 729h-4zM670 1618q-45 0 -75 -30t-30 -79
q0 -67 78 -67q47 0 76 28q31 29 31 76q0 72 -80 72z" />
    <glyph glyph-name="AE" unicode="&#xc6;" horiz-adv-x="1208" 
d="M1114 666h-344l-92 -523h362q33 0 27 -30l-14 -82q-6 -31 -35 -31h-488q-32 0 -26 31l63 358h-297l-170 -360q-15 -29 -39 -29h-96q-35 0 -20 33l649 1372q15 33 47 33h621q33 0 28 -31l-14 -82q-6 -31 -37 -31h-358l-86 -489h342q32 0 26 -31l-14 -78q-1 -30 -35 -30z
M338 528h254l139 766h-47z" />
    <glyph glyph-name="Ccedilla" unicode="&#xc7;" horiz-adv-x="802" 
d="M487 127q70 0 154 20q19 5 26.5 -1t4.5 -25l-13 -74q-5 -25 -38 -37q-71 -26 -166 -26h-17q80 -56 80 -144q0 -67 -46 -107t-124 -40q-65 0 -84 8q-18 7 -16 27l8 51q4 18 25 18h49q80 0 80 74q0 63 -80 125q-238 53 -238 401q0 139 33 322q72 408 202 571
q131 164 361 164q105 0 174 -24q27 -11 23 -37l-13 -74q-6 -33 -38 -27q-84 19 -144 19q-168 0 -257 -126t-150 -466q-33 -189 -33 -313q0 -155 56 -217t181 -62z" />
    <glyph glyph-name="Egrave" unicode="&#xc8;" horiz-adv-x="770" 
d="M676 666h-377l-92 -523h395q33 0 27 -30l-15 -82q-6 -31 -34 -31h-521q-32 0 -26 31l243 1376q2 31 35 31h514q32 0 27 -31l-14 -82q-6 -31 -37 -31h-391l-86 -489h374q33 0 27 -31l-14 -78q-1 -30 -35 -30zM633 1712l47 -164q4 -9 -2 -17q-6 -7 -19 -7h-55q-23 0 -35 18
l-116 162q-8 8 -3 20q5 13 21 13h129q25 0 33 -25z" />
    <glyph glyph-name="Eacute" unicode="&#xc9;" horiz-adv-x="770" 
d="M676 666h-377l-92 -523h395q33 0 27 -30l-15 -82q-6 -31 -34 -31h-521q-32 0 -26 31l243 1376q2 31 35 31h514q32 0 27 -31l-14 -82q-6 -31 -37 -31h-391l-86 -489h374q33 0 27 -31l-14 -78q-1 -30 -35 -30zM528 1548l105 164q17 25 37 25h129q16 0 19 -13q3 -12 -9 -20
l-174 -162q-18 -18 -39 -18h-55q-13 0 -16 8t3 16z" />
    <glyph glyph-name="Ecircumflex" unicode="&#xca;" horiz-adv-x="770" 
d="M676 666h-377l-92 -523h395q33 0 27 -30l-15 -82q-6 -31 -34 -31h-521q-32 0 -26 31l243 1376q2 31 35 31h514q32 0 27 -31l-14 -82q-6 -31 -37 -31h-391l-86 -489h374q33 0 27 -31l-14 -78q-1 -30 -35 -30zM705 1542l-78 98l-115 -98q-18 -18 -37 -18h-76q-15 0 -16 9
q-2 9 8 19l168 168q19 19 39 19h78q26 0 39 -19l106 -168q7 -10 3 -19t-19 -9h-68q-20 0 -32 18z" />
    <glyph glyph-name="Edieresis" unicode="&#xcb;" horiz-adv-x="770" 
d="M676 666h-377l-92 -523h395q33 0 27 -30l-15 -82q-6 -31 -34 -31h-521q-32 0 -26 31l243 1376q2 31 35 31h514q32 0 27 -31l-14 -82q-6 -31 -37 -31h-391l-86 -489h374q33 0 27 -31l-14 -78q-1 -30 -35 -30zM567 1653l-18 -101q-6 -28 -33 -28h-98q-31 0 -25 28l19 101
q6 28 30 28h99q32 0 26 -28zM834 1653l-19 -101q-6 -28 -33 -28h-98q-31 0 -25 28l19 101q6 28 31 28h98q33 0 27 -28z" />
    <glyph glyph-name="Igrave" unicode="&#xcc;" horiz-adv-x="399" 
d="M45 31l244 1376q2 31 35 31h92q31 0 26 -31l-243 -1376q-6 -31 -35 -31h-92q-33 0 -27 31zM389 1712l47 -164q4 -9 -2 -17q-6 -7 -18 -7h-56q-22 0 -34 18l-117 162q-8 8 -3 20q5 13 21 13h129q25 0 33 -25z" />
    <glyph glyph-name="Iacute" unicode="&#xcd;" horiz-adv-x="399" 
d="M45 31l244 1376q2 31 35 31h92q31 0 26 -31l-243 -1376q-6 -31 -35 -31h-92q-33 0 -27 31zM342 1548l104 164q17 25 37 25h129q17 0 20 -13q3 -12 -9 -20l-174 -162q-18 -18 -39 -18h-56q-12 0 -15 8t3 16z" />
    <glyph glyph-name="Icircumflex" unicode="&#xce;" horiz-adv-x="399" 
d="M45 31l244 1376q2 31 35 31h92q31 0 26 -31l-243 -1376q-6 -31 -35 -31h-92q-33 0 -27 31zM487 1542l-77 98l-115 -98q-18 -18 -37 -18h-76q-14 0 -16 9t8 19l168 168q19 19 39 19h78q26 0 39 -19l106 -168q7 -10 3 -19q-5 -9 -19 -9h-68q-21 0 -33 18z" />
    <glyph glyph-name="Idieresis" unicode="&#xcf;" horiz-adv-x="399" 
d="M45 31l244 1376q2 31 35 31h92q31 0 26 -31l-243 -1376q-6 -31 -35 -31h-92q-33 0 -27 31zM352 1653l-18 -101q-6 -28 -33 -28h-98q-31 0 -25 28l19 101q6 28 30 28h99q32 0 26 -28zM618 1653l-18 -101q-6 -28 -33 -28h-98q-31 0 -25 28l19 101q6 28 31 28h98
q32 0 26 -28z" />
    <glyph glyph-name="Eth" unicode="&#xd0;" horiz-adv-x="950" 
d="M330 0h-267q-32 0 -26 31l110 631h-61q-29 0 -23 28l11 60q6 28 35 28h59l113 629q6 31 34 31h238q194 0 293 -99q98 -98 98 -329q0 -131 -29 -291q-69 -400 -207 -559q-139 -160 -378 -160zM541 1294h-127l-92 -516h172q28 0 22 -28l-10 -60q-6 -28 -35 -28h-170
l-90 -519h131q162 0 259 126q97 125 157 450q28 153 28 274q0 167 -61 234t-184 67z" />
    <glyph glyph-name="Ntilde" unicode="&#xd1;" horiz-adv-x="970" 
d="M1026 1407l-244 -1376q-6 -31 -34 -31h-93q-31 0 -37 27l-247 1067l-189 -1063q-6 -31 -35 -31h-88q-32 0 -26 31l243 1376q2 31 35 31h92q31 0 37 -27l248 -1067l189 1063q5 31 34 31h88q29 0 27 -31zM938 1649q-21 -129 -139 -129q-66 0 -127 32l-47 25q-78 39 -95 -18
l-6 -15q-6 -20 -30 -20h-41q-27 0 -21 37q22 129 139 129q64 0 127 -33l47 -25q79 -39 97 19l4 14q6 21 33 21h41q25 0 18 -37z" />
    <glyph glyph-name="Ograve" unicode="&#xd2;" horiz-adv-x="991" 
d="M657 1454q163 0 245 -96q83 -97 83 -314q0 -140 -33 -325q-69 -402 -195 -569q-126 -166 -335 -166q-161 0 -244 98q-84 99 -84 324q0 138 31 313q72 402 198 569q126 166 334 166zM434 123q133 0 218 133q86 135 143 463q34 188 34 328q0 145 -45 206q-45 62 -139 62
q-133 0 -217 -132q-83 -131 -145 -464q-35 -192 -35 -324q0 -147 46 -209q46 -63 140 -63zM686 1712l47 -164q4 -9 -2 -17q-6 -7 -18 -7h-56q-22 0 -34 18l-117 162q-8 8 -3 20q5 13 21 13h129q25 0 33 -25z" />
    <glyph glyph-name="Oacute" unicode="&#xd3;" horiz-adv-x="991" 
d="M657 1454q163 0 245 -96q83 -97 83 -314q0 -140 -33 -325q-69 -402 -195 -569q-126 -166 -335 -166q-161 0 -244 98q-84 99 -84 324q0 138 31 313q72 402 198 569q126 166 334 166zM434 123q133 0 218 133q86 135 143 463q34 188 34 328q0 145 -45 206q-45 62 -139 62
q-133 0 -217 -132q-83 -131 -145 -464q-35 -192 -35 -324q0 -147 46 -209q46 -63 140 -63zM639 1548l104 164q17 25 37 25h129q17 0 20 -13q3 -12 -9 -20l-175 -162q-18 -18 -38 -18h-56q-12 0 -15 8t3 16z" />
    <glyph glyph-name="Ocircumflex" unicode="&#xd4;" horiz-adv-x="991" 
d="M657 1454q163 0 245 -96q83 -97 83 -314q0 -140 -33 -325q-69 -402 -195 -569q-126 -166 -335 -166q-161 0 -244 98q-84 99 -84 324q0 138 31 313q72 402 198 569q126 166 334 166zM434 123q133 0 218 133q86 135 143 463q34 188 34 328q0 145 -45 206q-45 62 -139 62
q-133 0 -217 -132q-83 -131 -145 -464q-35 -192 -35 -324q0 -147 46 -209q46 -63 140 -63zM784 1542l-77 98l-115 -98q-18 -18 -37 -18h-76q-15 0 -16 9q-2 9 8 19l168 168q19 19 39 19h78q26 0 39 -19l106 -168q7 -10 3 -19t-19 -9h-68q-21 0 -33 18z" />
    <glyph glyph-name="Otilde" unicode="&#xd5;" horiz-adv-x="991" 
d="M657 1454q163 0 245 -96q83 -97 83 -314q0 -140 -33 -325q-69 -402 -195 -569q-126 -166 -335 -166q-161 0 -244 98q-84 99 -84 324q0 138 31 313q72 402 198 569q126 166 334 166zM434 123q133 0 218 133q86 135 143 463q34 188 34 328q0 145 -45 206q-45 62 -139 62
q-133 0 -217 -132q-83 -131 -145 -464q-35 -192 -35 -324q0 -147 46 -209q46 -63 140 -63zM948 1649q-22 -129 -139 -129q-66 0 -127 32l-47 25q-78 39 -94 -18l-6 -15q-6 -20 -31 -20h-41q-27 0 -21 37q21 129 140 129q64 0 127 -33l47 -25q78 -39 96 19l4 14q6 21 33 21
h41q25 0 18 -37z" />
    <glyph glyph-name="Odieresis" unicode="&#xd6;" horiz-adv-x="991" 
d="M657 1454q163 0 245 -96q83 -97 83 -314q0 -140 -33 -325q-69 -402 -195 -569q-126 -166 -335 -166q-161 0 -244 98q-84 99 -84 324q0 138 31 313q72 402 198 569q126 166 334 166zM434 123q133 0 218 133q86 135 143 463q34 188 34 328q0 145 -45 206q-45 62 -139 62
q-133 0 -217 -132q-83 -131 -145 -464q-35 -192 -35 -324q0 -147 46 -209q46 -63 140 -63zM649 1653l-18 -101q-6 -28 -33 -28h-98q-31 0 -25 28l19 101q6 28 30 28h99q32 0 26 -28zM915 1653l-18 -101q-6 -28 -33 -28h-98q-31 0 -25 28l19 101q6 28 31 28h98q32 0 26 -28z
" />
    <glyph glyph-name="multiply" unicode="&#xd7;" horiz-adv-x="962" 
d="M752 334l-244 293l-346 -295q-24 -21 -39 0l-41 51q-12 23 6 39l346 295l-241 295q-18 21 6 39l59 49q24 21 39 2l244 -297l346 295q21 18 39 0l43 -49q16 -16 -8 -39l-349 -295l244 -295q16 -18 -8 -39l-57 -51q-21 -21 -39 2z" />
    <glyph glyph-name="Oslash" unicode="&#xd8;" horiz-adv-x="999" 
d="M662 1454q192 0 270 -131l76 100q22 25 41 11l43 -27q23 -15 2 -39l-121 -162q16 -74 16 -162q0 -140 -33 -325q-69 -402 -195 -569q-126 -166 -335 -166q-190 0 -268 135l-78 -105q-21 -24 -41 -10l-43 27q-21 12 -4 39l123 163q-17 80 -17 173q0 138 31 313
q72 402 198 569q126 166 335 166zM438 123q133 0 218 133q86 135 143 463q31 178 35 307l-570 -760q33 -143 174 -143zM287 719q-35 -195 -35 -307l569 759q-30 144 -172 144q-133 0 -217 -132q-83 -131 -145 -464z" />
    <glyph glyph-name="Ugrave" unicode="&#xd9;" horiz-adv-x="933" 
d="M395 -16q-313 0 -313 292q0 75 14 144l174 987q5 31 33 31h92q31 0 29 -31l-172 -975q-14 -69 -14 -137q0 -91 38 -129q39 -39 130 -39q115 0 176 70q59 68 88 235l172 975q2 31 32 31h93q33 0 28 -31l-174 -987q-41 -232 -140 -334t-286 -102zM657 1712l48 -164
q4 -9 -3 -17q-6 -7 -18 -7h-55q-23 0 -35 18l-117 162q-8 8 -3 20q5 13 22 13h129q24 0 32 -25z" />
    <glyph glyph-name="Uacute" unicode="&#xda;" horiz-adv-x="933" 
d="M395 -16q-313 0 -313 292q0 75 14 144l174 987q5 31 33 31h92q31 0 29 -31l-172 -975q-14 -69 -14 -137q0 -91 38 -129q39 -39 130 -39q115 0 176 70q59 68 88 235l172 975q2 31 32 31h93q33 0 28 -31l-174 -987q-41 -232 -140 -334t-286 -102zM610 1548l105 164
q17 25 37 25h129q16 0 19 -13q3 -12 -9 -20l-174 -162q-18 -18 -39 -18h-55q-13 0 -16 8t3 16z" />
    <glyph glyph-name="Ucircumflex" unicode="&#xdb;" horiz-adv-x="933" 
d="M395 -16q-313 0 -313 292q0 75 14 144l174 987q5 31 33 31h92q31 0 29 -31l-172 -975q-14 -69 -14 -137q0 -91 38 -129q39 -39 130 -39q115 0 176 70q59 68 88 235l172 975q2 31 32 31h93q33 0 28 -31l-174 -987q-41 -232 -140 -334t-286 -102zM756 1542l-78 98l-115 -98
q-18 -18 -37 -18h-75q-15 0 -17 9t8 19l168 168q19 19 39 19h78q26 0 39 -19l106 -168q8 -11 4 -19q-4 -9 -20 -9h-68q-20 0 -32 18z" />
    <glyph glyph-name="Udieresis" unicode="&#xdc;" horiz-adv-x="933" 
d="M395 -16q-313 0 -313 292q0 75 14 144l174 987q5 31 33 31h92q31 0 29 -31l-172 -975q-14 -69 -14 -137q0 -91 38 -129q39 -39 130 -39q115 0 176 70q59 68 88 235l172 975q2 31 32 31h93q33 0 28 -31l-174 -987q-41 -232 -140 -334t-286 -102zM621 1653l-19 -101
q-6 -28 -33 -28h-98q-31 0 -25 28l19 101q6 28 31 28h98q33 0 27 -28zM887 1653l-19 -101q-6 -28 -32 -28h-99q-30 0 -24 28l18 101q6 28 31 28h98q33 0 27 -28z" />
    <glyph glyph-name="Yacute" unicode="&#xdd;" horiz-adv-x="899" 
d="M541 549l-92 -518q-6 -31 -35 -31h-92q-33 0 -27 31l92 518l-178 854q-5 35 27 35h98q27 0 35 -29l88 -483l32 -215h3l106 215l260 483q15 29 39 29h102q18 0 23 -12q4 -10 -4 -23zM592 1548l104 164q17 25 37 25h129q17 0 20 -13q3 -12 -10 -20l-174 -162
q-18 -18 -39 -18h-55q-12 0 -15 8t3 16z" />
    <glyph glyph-name="Thorn" unicode="&#xde;" horiz-adv-x="872" 
d="M152 0h-95q-30 0 -24 31l243 1376q6 31 35 31h92q33 0 27 -31l-24 -137h86q190 0 281 -72t91 -242q0 -69 -16 -161q-47 -264 -157 -370q-111 -106 -333 -106h-120l-52 -288q-6 -31 -34 -31zM262 463h105q146 0 219 71q71 69 104 263q15 73 15 137q0 105 -53 149
q-52 43 -169 43h-104z" />
    <glyph glyph-name="germandbls" unicode="&#xdf;" horiz-adv-x="892" 
d="M578 1317q-95 0 -149 -48t-75 -169l-188 -1071q-6 -29 -31 -29h-86q-30 0 -24 29l190 1085q57 334 369 334q133 0 208 -66q74 -65 74 -161q0 -79 -40 -150q-42 -74 -89 -113q-44 -36 -89 -86q-40 -44 -40 -75t32 -72q29 -38 71 -81q38 -40 70 -114q32 -75 32 -163
q0 -179 -96 -276t-283 -97q-30 0 -74 4q-29 5 -38 11q-10 7 -9 28l11 67q2 31 36 27q135 -15 223 39q85 52 85 195q0 67 -32 129q-30 58 -70 100q-37 38 -69 92q-32 53 -32 105q0 49 27 92q26 41 64 75q73 64 76 67q37 34 64 79t27 96q0 54 -36 85q-37 32 -109 32z" />
    <glyph glyph-name="agrave" unicode="&#xe0;" horiz-adv-x="778" 
d="M739 784l-133 -755q-6 -29 -33 -29h-77q-31 0 -25 29l21 114q-94 -155 -252 -155q-105 0 -163 64q-59 65 -59 169q0 237 149 341q148 103 415 114l18 108q6 38 6 68q0 125 -139 125q-118 0 -231 -43q-10 -4 -21 2q-9 5 -8 20l14 78q5 28 31 35q112 41 237 41
q261 0 261 -225q0 -37 -11 -101zM530 393l29 164q-180 -7 -290 -77q-109 -69 -109 -238q0 -125 119 -125q89 0 160 80q70 79 91 196zM535 1389l55 -164q4 -10 -2 -18q-6 -7 -19 -7h-47q-22 0 -35 19l-125 161q-8 8 -3 21q5 12 22 12h121q22 0 33 -24z" />
    <glyph glyph-name="aacute" unicode="&#xe1;" horiz-adv-x="778" 
d="M739 784l-133 -755q-6 -29 -33 -29h-77q-31 0 -25 29l21 114q-94 -155 -252 -155q-105 0 -163 64q-59 65 -59 169q0 237 149 341q148 103 415 114l18 108q6 38 6 68q0 125 -139 125q-118 0 -231 -43q-10 -4 -21 2q-9 5 -8 20l14 78q5 28 31 35q112 41 237 41
q261 0 261 -225q0 -37 -11 -101zM530 393l29 164q-180 -7 -290 -77q-109 -69 -109 -238q0 -125 119 -125q89 0 160 80q70 79 91 196zM453 1225l104 164q17 24 37 24h129q16 0 19 -12q3 -13 -9 -21l-174 -161q-19 -19 -39 -19h-55q-12 0 -15 8q-4 9 3 17z" />
    <glyph glyph-name="acircumflex" unicode="&#xe2;" horiz-adv-x="778" 
d="M739 784l-133 -755q-6 -29 -33 -29h-77q-31 0 -25 29l21 114q-94 -155 -252 -155q-105 0 -163 64q-59 65 -59 169q0 237 149 341q148 103 415 114l18 108q6 38 6 68q0 125 -139 125q-118 0 -231 -43q-10 -4 -21 2q-9 5 -8 20l14 78q5 28 31 35q112 41 237 41
q261 0 261 -225q0 -37 -11 -101zM530 393l29 164q-180 -7 -290 -77q-109 -69 -109 -238q0 -125 119 -125q89 0 160 80q70 79 91 196zM625 1219l-80 106l-121 -106q-19 -19 -37 -19h-76q-15 0 -16 9q-2 10 8 20l172 176q21 18 41 18h78q30 0 37 -18l110 -176q6 -11 2 -20
q-5 -9 -18 -9h-68q-19 0 -32 19z" />
    <glyph glyph-name="atilde" unicode="&#xe3;" horiz-adv-x="778" 
d="M739 784l-133 -755q-6 -29 -33 -29h-77q-31 0 -25 29l21 114q-94 -155 -252 -155q-105 0 -163 64q-59 65 -59 169q0 237 149 341q148 103 415 114l18 108q6 38 6 68q0 125 -139 125q-118 0 -231 -43q-10 -4 -21 2q-9 5 -8 20l14 78q5 28 31 35q112 41 237 41
q261 0 261 -225q0 -37 -11 -101zM530 393l29 164q-180 -7 -290 -77q-109 -69 -109 -238q0 -125 119 -125q89 0 160 80q70 79 91 196zM778 1325q-12 -67 -43 -98t-92 -31q-67 0 -127 33l-43 24q-70 39 -88 -18l-4 -14q-7 -21 -33 -21h-41q-26 0 -20 37q11 67 41 98
q31 31 92 31q67 0 127 -33l43 -24q72 -39 90 18l4 14q6 21 33 21h41q26 0 20 -37z" />
    <glyph glyph-name="adieresis" unicode="&#xe4;" horiz-adv-x="778" 
d="M739 784l-133 -755q-6 -29 -33 -29h-77q-31 0 -25 29l21 114q-94 -155 -252 -155q-105 0 -163 64q-59 65 -59 169q0 237 149 341q148 103 415 114l18 108q6 38 6 68q0 125 -139 125q-118 0 -231 -43q-10 -4 -21 2q-9 5 -8 20l14 78q5 28 31 35q112 41 237 41
q261 0 261 -225q0 -37 -11 -101zM530 393l29 164q-180 -7 -290 -77q-109 -69 -109 -238q0 -125 119 -125q89 0 160 80q70 79 91 196zM485 1329l-18 -100q-2 -29 -33 -29h-94q-27 0 -25 29l19 100q6 29 31 29h94q32 0 26 -29zM748 1329l-19 -100q-2 -29 -33 -29h-94
q-26 0 -24 29l18 100q6 29 31 29h94q33 0 27 -29z" />
    <glyph glyph-name="aring" unicode="&#xe5;" horiz-adv-x="778" 
d="M739 784l-133 -755q-6 -29 -33 -29h-77q-31 0 -25 29l21 114q-94 -155 -252 -155q-105 0 -163 64q-59 65 -59 169q0 237 149 341q148 103 415 114l18 108q6 38 6 68q0 125 -139 125q-118 0 -231 -43q-10 -4 -21 2q-9 5 -8 20l14 78q5 28 31 35q112 41 237 41
q261 0 261 -225q0 -37 -11 -101zM530 393l29 164q-180 -7 -290 -77q-109 -69 -109 -238q0 -125 119 -125q89 0 160 80q70 79 91 196zM535 1268q45 0 73 28q29 29 29 78q0 30 -22 50t-58 20q-44 0 -75 -28q-29 -26 -29 -75q0 -32 22 -53q21 -20 60 -20zM565 1524
q70 0 115 -42t45 -102q0 -84 -54 -138t-145 -54q-72 0 -115 43q-44 44 -44 104q0 83 55 135q57 54 143 54z" />
    <glyph glyph-name="ae" unicode="&#xe6;" horiz-adv-x="1220" 
d="M860 113q70 0 166 30q12 5 22 -2q8 -6 7 -22l-13 -70q-6 -27 -34 -37q-88 -28 -162 -28q-246 0 -275 219q-114 -215 -315 -215q-111 0 -175 64q-65 65 -65 167q0 115 42 197q41 81 122 127q79 45 172 66q94 22 213 26l27 149q6 33 6 66q0 127 -133 127q-116 0 -229 -43
q-14 -4 -24 2q-9 6 -5 20l14 78q6 27 31 35q112 41 235 41q188 0 215 -139q91 139 256 139q118 0 179 -79t61 -218q0 -81 -18 -180l-19 -107q-6 -28 -39 -28h-446q-10 -74 -10 -127q0 -258 194 -258zM942 981q-168 0 -244 -354h336l4 14q17 57 17 168q0 172 -113 172z
M522 393l23 123q-64 -2 -113 -9q-47 -7 -102 -26q-53 -18 -88 -47t-59 -80q-23 -49 -23 -118q0 -119 129 -119q87 0 150 79q62 78 83 197z" />
    <glyph glyph-name="ccedilla" unicode="&#xe7;" horiz-adv-x="647" 
d="M197 16h4q-138 77 -138 316q0 101 21 215q50 290 154 426q105 137 280 137q98 0 150 -23q28 -12 24 -36l-12 -72q-6 -32 -37 -21q-51 17 -121 17q-118 0 -184 -99q-67 -100 -107 -329q-24 -147 -24 -215q0 -110 41 -162q40 -51 129 -51q69 0 129 18q16 4 25 -2
q10 -7 6 -18l-15 -72q-1 -16 -9 -22q-11 -9 -28 -15q-61 -24 -137 -24h-18q76 -50 78 -123q1 -72 -43 -112t-121 -40q-58 0 -82 8q-20 7 -15 25l11 49q2 19 20 19h47q78 0 78 65q0 69 -106 141z" />
    <glyph glyph-name="egrave" unicode="&#xe8;" horiz-adv-x="774" 
d="M408 113q76 0 172 30q12 4 21 -2q8 -6 7 -22l-12 -70q-6 -26 -35 -37q-88 -28 -172 -28q-326 0 -326 358q0 78 21 205q49 286 152 425q102 138 266 138q246 0 246 -307q0 -80 -19 -191l-18 -106q-6 -29 -37 -29h-459q-8 -61 -8 -117q0 -247 201 -247zM489 981
q-89 0 -151 -90q-61 -89 -100 -285h348l2 15q20 129 20 188q0 172 -119 172zM532 1389l56 -164q4 -10 -2 -18q-6 -7 -19 -7h-47q-22 0 -35 19l-125 161q-8 8 -3 21q5 12 22 12h121q22 0 32 -24z" />
    <glyph glyph-name="eacute" unicode="&#xe9;" horiz-adv-x="774" 
d="M408 113q76 0 172 30q12 4 21 -2q8 -6 7 -22l-12 -70q-6 -26 -35 -37q-88 -28 -172 -28q-326 0 -326 358q0 78 21 205q49 286 152 425q102 138 266 138q246 0 246 -307q0 -80 -19 -191l-18 -106q-6 -29 -37 -29h-459q-8 -61 -8 -117q0 -247 201 -247zM489 981
q-89 0 -151 -90q-61 -89 -100 -285h348l2 15q20 129 20 188q0 172 -119 172zM471 1225l104 164q15 24 37 24h129q17 0 20 -12q3 -13 -9 -21l-174 -161q-19 -19 -39 -19h-56q-12 0 -15 8q-4 9 3 17z" />
    <glyph glyph-name="ecircumflex" unicode="&#xea;" horiz-adv-x="774" 
d="M408 113q76 0 172 30q12 4 21 -2q8 -6 7 -22l-12 -70q-6 -26 -35 -37q-88 -28 -172 -28q-326 0 -326 358q0 78 21 205q49 286 152 425q102 138 266 138q246 0 246 -307q0 -80 -19 -191l-18 -106q-6 -29 -37 -29h-459q-8 -61 -8 -117q0 -247 201 -247zM489 981
q-89 0 -151 -90q-61 -89 -100 -285h348l2 15q20 129 20 188q0 172 -119 172zM635 1219l-80 106l-121 -106q-19 -19 -37 -19h-75q-16 0 -17 9q-2 10 8 20l172 176q21 18 41 18h78q26 0 37 -18l111 -176q6 -11 2 -20t-19 -9h-67q-20 0 -33 19z" />
    <glyph glyph-name="edieresis" unicode="&#xeb;" horiz-adv-x="774" 
d="M408 113q76 0 172 30q12 4 21 -2q8 -6 7 -22l-12 -70q-6 -26 -35 -37q-88 -28 -172 -28q-326 0 -326 358q0 78 21 205q49 286 152 425q102 138 266 138q246 0 246 -307q0 -80 -19 -191l-18 -106q-6 -29 -37 -29h-459q-8 -61 -8 -117q0 -247 201 -247zM489 981
q-89 0 -151 -90q-61 -89 -100 -285h348l2 15q20 129 20 188q0 172 -119 172zM496 1329l-19 -100q-2 -29 -33 -29h-94q-26 0 -24 29l18 100q6 29 31 29h94q33 0 27 -29zM758 1329l-19 -100q-2 -29 -32 -29h-95q-26 0 -24 29l18 100q6 29 31 29h94q33 0 27 -29z" />
    <glyph glyph-name="igrave" unicode="&#xec;" horiz-adv-x="356" 
d="M354 1065l-182 -1036q-6 -29 -33 -29h-86q-30 0 -24 29l182 1036q6 29 33 29h86q30 0 24 -29zM309 1389l56 -164q4 -9 -3 -18q-6 -7 -18 -7h-47q-22 0 -35 19l-125 161q-8 8 -3 21q4 12 22 12h120q22 0 33 -24z" />
    <glyph glyph-name="iacute" unicode="&#xed;" horiz-adv-x="356" 
d="M354 1065l-182 -1036q-6 -29 -33 -29h-86q-30 0 -24 29l182 1036q6 29 33 29h86q30 0 24 -29zM260 1225l105 164q16 24 36 24h129q17 0 20 -12q3 -13 -9 -21l-174 -161q-19 -19 -39 -19h-56q-12 0 -15 8q-4 9 3 17z" />
    <glyph glyph-name="icircumflex" unicode="&#xee;" horiz-adv-x="356" 
d="M354 1065l-182 -1036q-6 -29 -33 -29h-86q-30 0 -24 29l182 1036q6 29 33 29h86q30 0 24 -29zM414 1219l-80 106l-121 -106q-19 -19 -37 -19h-76q-14 0 -16 9q-2 10 8 20l172 176q23 18 41 18h78q27 0 37 -18l110 -176q6 -11 2 -20t-18 -9h-68q-19 0 -32 19z" />
    <glyph glyph-name="idieresis" unicode="&#xef;" horiz-adv-x="356" 
d="M354 1065l-182 -1036q-6 -29 -33 -29h-86q-30 0 -24 29l182 1036q6 29 33 29h86q30 0 24 -29zM274 1329l-18 -100q-2 -29 -33 -29h-94q-27 0 -25 29l19 100q6 29 31 29h94q32 0 26 -29zM537 1329l-19 -100q-2 -29 -33 -29h-94q-26 0 -24 29l18 100q6 29 31 29h94
q33 0 27 -29z" />
    <glyph glyph-name="eth" unicode="&#xf0;" horiz-adv-x="825" 
d="M821 1206h-78q60 -164 60 -370q0 -144 -27 -289q-51 -291 -151 -427t-275 -136q-287 0 -287 348q0 101 21 215q50 289 153 426q104 137 273 137q98 0 143 -49q-21 94 -45 145h-172q-28 0 -22 27l6 41q6 29 35 29h104q-28 43 -88 108q-8 12 -4 19q5 8 14 8h113
q22 0 37 -17q36 -49 74 -118h135q28 0 22 -29l-6 -39q-6 -29 -35 -29zM352 115q103 0 169 102q68 105 108 330q22 116 22 219q0 213 -145 213q-103 0 -169 -102q-67 -104 -106 -330q-24 -134 -24 -221q0 -211 145 -211z" />
    <glyph glyph-name="ntilde" unicode="&#xf1;" horiz-adv-x="831" 
d="M791 774l-132 -745q-6 -29 -32 -29h-86q-31 0 -25 29l129 727q8 66 8 82q0 135 -123 135q-99 0 -165 -78q-67 -79 -89 -209l-116 -657q-6 -29 -33 -29h-86q-31 0 -25 29l183 1036q6 29 30 29h86q33 0 27 -29l-18 -104q91 149 251 149q109 0 166 -66q58 -67 58 -178
q0 -46 -8 -92zM805 1325q-12 -67 -43 -98t-92 -31q-67 0 -127 33l-43 24q-70 39 -88 -18l-4 -14q-8 -21 -33 -21h-41q-27 0 -21 37q10 67 41 98t92 31q67 0 127 -33l43 -24q73 -39 91 18l4 14q6 21 32 21h41q27 0 21 -37z" />
    <glyph glyph-name="ograve" unicode="&#xf2;" horiz-adv-x="831" 
d="M342 -16q174 0 279 137q104 135 155 426q21 114 21 215q0 348 -281 348q-173 0 -278 -137q-104 -136 -154 -426q-21 -114 -21 -215q0 -348 279 -348zM352 115q-145 0 -145 211q0 88 24 221q39 226 106 330q66 102 169 102q145 0 145 -213q0 -103 -22 -219
q-40 -225 -108 -330q-66 -102 -169 -102zM551 1389l55 -164q4 -10 -2 -18q-6 -7 -18 -7h-47q-22 0 -35 19l-125 161q-8 8 -3 21q4 12 21 12h121q22 0 33 -24z" />
    <glyph glyph-name="oacute" unicode="&#xf3;" horiz-adv-x="831" 
d="M342 -16q174 0 279 137q104 135 155 426q21 114 21 215q0 348 -281 348q-173 0 -278 -137q-104 -136 -154 -426q-21 -114 -21 -215q0 -348 279 -348zM352 115q-145 0 -145 211q0 88 24 221q39 226 106 330q66 102 169 102q145 0 145 -213q0 -103 -22 -219
q-40 -225 -108 -330q-66 -102 -169 -102zM489 1225l105 164q16 24 37 24h129q16 0 19 -12q3 -13 -9 -21l-174 -161q-19 -19 -39 -19h-55q-13 0 -16 8q-4 9 3 17z" />
    <glyph glyph-name="ocircumflex" unicode="&#xf4;" horiz-adv-x="831" 
d="M342 -16q174 0 279 137q104 135 155 426q21 114 21 215q0 348 -281 348q-173 0 -278 -137q-104 -136 -154 -426q-21 -114 -21 -215q0 -348 279 -348zM352 115q-145 0 -145 211q0 88 24 221q39 226 106 330q66 102 169 102q145 0 145 -213q0 -103 -22 -219
q-40 -225 -108 -330q-66 -102 -169 -102zM651 1219l-80 106l-120 -106q-19 -19 -37 -19h-76q-14 0 -16 9q-2 10 8 20l172 176q22 18 41 18h78q25 0 36 -18l111 -176q6 -11 2 -20t-18 -9h-68q-20 0 -33 19z" />
    <glyph glyph-name="otilde" unicode="&#xf5;" horiz-adv-x="831" 
d="M342 -16q-279 0 -279 348q0 101 21 215q50 290 154 426q105 137 278 137q281 0 281 -348q0 -101 -21 -215q-51 -291 -155 -426q-105 -137 -279 -137zM352 115q103 0 169 102q68 105 108 330q22 116 22 219q0 213 -145 213q-103 0 -169 -102q-67 -104 -106 -330
q-24 -134 -24 -221q0 -211 145 -211zM805 1325q-12 -67 -43 -98t-92 -31q-67 0 -127 33l-43 24q-70 39 -88 -18l-4 -14q-8 -21 -33 -21h-41q-27 0 -21 37q10 67 41 98t92 31q67 0 127 -33l43 -24q73 -39 91 18l4 14q6 21 32 21h41q27 0 21 -37z" />
    <glyph glyph-name="odieresis" unicode="&#xf6;" horiz-adv-x="831" 
d="M342 -16q174 0 279 137q104 135 155 426q21 114 21 215q0 348 -281 348q-173 0 -278 -137q-104 -136 -154 -426q-21 -114 -21 -215q0 -348 279 -348zM352 115q-145 0 -145 211q0 88 24 221q39 226 106 330q66 102 169 102q145 0 145 -213q0 -103 -22 -219
q-40 -225 -108 -330q-66 -102 -169 -102zM512 1329l-18 -100q-2 -29 -33 -29h-94q-27 0 -25 29l18 100q6 29 31 29h94q33 0 27 -29zM774 1329l-18 -100q-2 -29 -33 -29h-94q-27 0 -25 29l19 100q6 29 30 29h95q32 0 26 -29z" />
    <glyph glyph-name="divide" unicode="&#xf7;" horiz-adv-x="962" 
d="M864 657h-702q-24 0 -23 27l15 72q1 26 30 26h701q27 0 26 -26l-14 -72q-1 -27 -33 -27zM371 303l24 148q6 28 33 28h107q30 0 24 -28l-24 -148q-6 -29 -35 -29h-107q-28 0 -22 29zM489 987l27 148q6 28 33 28h106q31 0 25 -28l-27 -148q-2 -29 -32 -29h-107
q-27 0 -25 29z" />
    <glyph glyph-name="oslash" unicode="&#xf8;" horiz-adv-x="839" 
d="M346 -16q-139 0 -211 90l-47 -64q-17 -25 -39 -10l-37 23q-22 12 -2 38l78 105q-20 64 -20 166q0 106 20 215q50 290 154 426q105 137 278 137q142 0 211 -88l47 61q19 26 41 11l35 -23q20 -15 2 -39l-78 -104q23 -74 23 -166q0 -101 -21 -215q-51 -291 -155 -426
q-105 -137 -279 -137zM356 115q103 0 169 102q68 105 108 330q22 116 22 219v2l-428 -567q33 -86 129 -86zM236 547q-25 -139 -25 -221l426 565q-33 88 -127 88q-103 0 -169 -102t-105 -330z" />
    <glyph glyph-name="ugrave" unicode="&#xf9;" horiz-adv-x="823" 
d="M66 336l129 729q6 29 32 29h86q31 0 25 -29l-127 -723q-10 -53 -10 -90q0 -131 123 -131q92 0 158 78q67 79 89 209l115 657q6 29 33 29h86q30 0 24 -29l-182 -1036q-6 -29 -33 -29h-86q-30 0 -24 29l18 104q-88 -149 -243 -149q-111 0 -167 65q-57 66 -57 182
q0 41 11 105zM557 1389l55 -164q4 -10 -2 -18q-6 -7 -18 -7h-47q-22 0 -35 19l-125 161q-8 8 -3 21q4 12 21 12h121q22 0 33 -24z" />
    <glyph glyph-name="uacute" unicode="&#xfa;" horiz-adv-x="823" 
d="M66 336l129 729q6 29 32 29h86q31 0 25 -29l-127 -723q-10 -53 -10 -90q0 -131 123 -131q92 0 158 78q67 79 89 209l115 657q6 29 33 29h86q30 0 24 -29l-182 -1036q-6 -29 -33 -29h-86q-30 0 -24 29l18 104q-88 -149 -243 -149q-111 0 -167 65q-57 66 -57 182
q0 41 11 105zM475 1225l105 164q15 24 36 24h129q17 0 20 -12q3 -13 -9 -21l-174 -161q-19 -19 -39 -19h-56q-12 0 -15 8q-4 9 3 17z" />
    <glyph glyph-name="ucircumflex" unicode="&#xfb;" horiz-adv-x="823" 
d="M66 336l129 729q6 29 32 29h86q31 0 25 -29l-127 -723q-10 -53 -10 -90q0 -131 123 -131q92 0 158 78q67 79 89 209l115 657q6 29 33 29h86q30 0 24 -29l-182 -1036q-6 -29 -33 -29h-86q-30 0 -24 29l18 104q-88 -149 -243 -149q-111 0 -167 65q-57 66 -57 182
q0 41 11 105zM647 1219l-80 106l-121 -106q-19 -19 -36 -19h-76q-16 0 -17 9q-2 9 9 20l172 176q23 18 41 18h77q26 0 37 -18l111 -176q6 -11 2 -20t-18 -9h-68q-20 0 -33 19z" />
    <glyph glyph-name="udieresis" unicode="&#xfc;" horiz-adv-x="823" 
d="M66 336l129 729q6 29 32 29h86q31 0 25 -29l-127 -723q-10 -53 -10 -90q0 -131 123 -131q92 0 158 78q67 79 89 209l115 657q6 29 33 29h86q30 0 24 -29l-182 -1036q-6 -29 -33 -29h-86q-30 0 -24 29l18 104q-88 -149 -243 -149q-111 0 -167 65q-57 66 -57 182
q0 41 11 105zM508 1329l-19 -100q-2 -29 -32 -29h-95q-26 0 -24 29l18 100q6 29 31 29h94q33 0 27 -29zM770 1329l-18 -100q-2 -29 -33 -29h-94q-27 0 -25 29l18 100q6 29 31 29h94q33 0 27 -29z" />
    <glyph glyph-name="yacute" unicode="&#xfd;" horiz-adv-x="745" 
d="M811 1063l-395 -979q-71 -177 -140 -250q-68 -72 -206 -72q-65 0 -97 13q-23 8 -18 32l12 72q6 32 35 27q59 -10 84 -10q81 0 111 54t24 134l-74 979q0 31 27 31h90q29 0 29 -29l35 -659l4 -218h4l74 218l252 659q12 29 36 29h95q30 0 18 -31zM457 1225l104 164
q17 24 37 24h129q16 0 19 -12q3 -13 -9 -21l-174 -161q-19 -19 -39 -19h-55q-12 0 -15 8q-4 9 3 17z" />
    <glyph glyph-name="thorn" unicode="&#xfe;" horiz-adv-x="864" 
d="M293 1438h86q35 0 29 -29l-82 -461q35 69 98 116q62 46 147 46q258 0 258 -344q0 -108 -20 -219q-51 -289 -149 -426t-254 -137q-90 0 -152 45q-63 46 -70 116l-59 -342q-6 -28 -35 -28h-86q-28 0 -22 28l282 1606q6 29 29 29zM254 547q-21 -127 -21 -197
q0 -235 156 -235q106 0 168 101q65 106 105 331q24 135 24 227q0 106 -35 156q-34 49 -108 49q-213 0 -289 -432z" />
    <glyph glyph-name="ydieresis" unicode="&#xff;" horiz-adv-x="745" 
d="M811 1063l-395 -979q-71 -177 -140 -250q-68 -72 -206 -72q-65 0 -97 13q-23 8 -18 32l12 72q6 32 35 27q59 -10 84 -10q81 0 111 54t24 134l-74 979q0 31 27 31h90q29 0 29 -29l35 -659l4 -218h4l74 218l252 659q12 29 36 29h95q30 0 18 -31zM469 1329l-18 -100
q-2 -29 -33 -29h-94q-27 0 -25 29l18 100q6 29 31 29h94q33 0 27 -29zM731 1329l-18 -100q-2 -29 -33 -29h-94q-27 0 -25 29l19 100q6 29 30 29h95q32 0 26 -29z" />
    <glyph glyph-name="Amacron" unicode="&#x100;" horiz-adv-x="942" 
d="M330 528h311l-25 729h-4zM575 1438h127q37 0 37 -33l78 -1372q5 -33 -31 -33h-88q-28 0 -28 29l-21 360h-377l-147 -360q-12 -29 -37 -29h-96q-34 0 -23 33l561 1372q12 33 45 33zM862 1536h-405q-31 0 -25 29l10 51q2 29 31 29h406q28 0 26 -29l-10 -51q-6 -29 -33 -29z
" />
    <glyph glyph-name="amacron" unicode="&#x101;" horiz-adv-x="778" 
d="M739 784l-133 -755q-6 -29 -33 -29h-77q-31 0 -25 29l21 114q-94 -155 -252 -155q-105 0 -163 64q-59 65 -59 169q0 237 149 341q148 103 415 114l18 108q6 38 6 68q0 125 -139 125q-118 0 -231 -43q-10 -4 -21 2q-9 5 -8 20l14 78q5 28 31 35q112 41 237 41
q261 0 261 -225q0 -37 -11 -101zM530 393l29 164q-180 -7 -290 -77q-109 -69 -109 -238q0 -125 119 -125q89 0 160 80q70 79 91 196zM723 1208h-406q-30 0 -24 29l8 47q6 29 33 29h405q31 0 25 -29l-8 -47q-6 -29 -33 -29z" />
    <glyph glyph-name="Abreve" unicode="&#x102;" horiz-adv-x="942" 
d="M330 528h311l-25 729h-4zM575 1438h127q37 0 37 -33l78 -1372q5 -33 -31 -33h-88q-28 0 -28 29l-21 360h-377l-147 -360q-12 -29 -37 -29h-96q-34 0 -23 33l561 1372q12 33 45 33zM668 1518q-105 0 -156 52q-52 53 -37 140q2 23 25 23h55q23 0 23 -23q-2 -46 20 -69
t76 -23q100 0 129 92q6 23 26 23h56q22 0 20 -23q-37 -192 -237 -192z" />
    <glyph glyph-name="abreve" unicode="&#x103;" horiz-adv-x="778" 
d="M739 784l-133 -755q-6 -29 -33 -29h-77q-31 0 -25 29l21 114q-94 -155 -252 -155q-105 0 -163 64q-59 65 -59 169q0 237 149 341q148 103 415 114l18 108q6 38 6 68q0 125 -139 125q-118 0 -231 -43q-10 -4 -21 2q-9 5 -8 20l14 78q5 28 31 35q112 41 237 41
q261 0 261 -225q0 -37 -11 -101zM530 393l29 164q-180 -7 -290 -77q-109 -69 -109 -238q0 -125 119 -125q89 0 160 80q70 79 91 196zM524 1196q-104 0 -153 52q-50 53 -35 141q1 22 24 22h56q22 0 22 -22q-2 -45 21 -69q22 -24 76 -24q100 0 129 93q6 22 26 22h55
q22 0 21 -22q-38 -193 -242 -193z" />
    <glyph glyph-name="Aogonek" unicode="&#x104;" horiz-adv-x="942" 
d="M575 1438h127q37 0 37 -33l78 -1372q5 -33 -31 -33h-4q-125 -74 -125 -158q0 -45 66 -45q6 0 26 2t21 2q16 0 16 -14l-2 -53q-1 -21 -20 -27q-38 -16 -82 -16q-63 0 -102 30t-39 84q0 117 157 195q-28 0 -28 29l-21 360h-377l-147 -360q-12 -29 -37 -29h-96q-34 0 -23 33
l561 1372q12 33 45 33zM330 528h311l-25 729h-4z" />
    <glyph glyph-name="aogonek" unicode="&#x105;" horiz-adv-x="778" 
d="M739 784l-133 -755q-6 -29 -33 -29h-4q-125 -72 -125 -154q0 -36 62 -36q4 0 24 2t21 2q16 0 16 -15l-2 -51q-1 -21 -18 -27q-31 -14 -72 -14q-143 0 -143 92q0 118 155 201q-22 4 -16 29l21 114q-94 -155 -252 -155q-105 0 -163 64q-59 65 -59 169q0 237 149 341
q148 103 415 114l18 108q6 38 6 68q0 125 -139 125q-118 0 -231 -43q-10 -4 -21 2q-9 5 -8 20l14 78q5 28 31 35q112 41 237 41q261 0 261 -225q0 -37 -11 -101zM530 393l29 164q-180 -7 -290 -77q-109 -69 -109 -238q0 -125 119 -125q89 0 160 80q70 79 91 196z" />
    <glyph glyph-name="Cacute" unicode="&#x106;" horiz-adv-x="802" 
d="M487 127q70 0 154 20q19 5 26.5 -1t4.5 -25l-13 -74q-5 -25 -38 -37q-71 -26 -166 -26q-185 0 -274 95t-89 318q0 139 33 322q72 408 202 571q131 164 361 164q105 0 174 -24q27 -11 23 -37l-13 -74q-6 -33 -38 -27q-84 19 -144 19q-168 0 -257 -126t-150 -466
q-33 -189 -33 -313q0 -155 56 -217t181 -62zM590 1548l104 164q17 25 37 25h129q17 0 20 -13q3 -12 -10 -20l-174 -162q-18 -18 -39 -18h-55q-12 0 -15 8t3 16z" />
    <glyph glyph-name="cacute" unicode="&#x107;" horiz-adv-x="647" 
d="M84 547q50 290 154 426q105 137 280 137q98 0 150 -23q28 -12 24 -36l-12 -72q-6 -32 -37 -21q-51 17 -121 17q-118 0 -184 -99q-67 -100 -107 -329q-24 -147 -24 -215q0 -110 41 -162q40 -51 129 -51q69 0 129 18q16 4 25 -2q10 -7 6 -18l-15 -72q-1 -16 -9 -22
q-11 -9 -28 -15q-61 -24 -137 -24q-285 0 -285 348q0 101 21 215zM451 1225l104 164q15 24 37 24h129q16 0 19 -12q3 -13 -9 -21l-174 -161q-19 -19 -39 -19h-55q-13 0 -16 8t4 17z" />
    <glyph glyph-name="Ccircumflex" unicode="&#x108;" horiz-adv-x="802" 
d="M487 127q70 0 154 20q19 5 26.5 -1t4.5 -25l-13 -74q-5 -25 -38 -37q-71 -26 -166 -26q-185 0 -274 95t-89 318q0 139 33 322q72 408 202 571q131 164 361 164q105 0 174 -24q27 -11 23 -37l-13 -74q-6 -33 -38 -27q-84 19 -144 19q-168 0 -257 -126t-150 -466
q-33 -189 -33 -313q0 -155 56 -217t181 -62zM782 1542l-77 98l-115 -98q-18 -18 -37 -18h-76q-15 0 -16 9q-2 9 8 19l168 168q19 19 39 19h78q26 0 39 -19l106 -168q7 -10 3 -19t-19 -9h-68q-21 0 -33 18z" />
    <glyph glyph-name="ccircumflex" unicode="&#x109;" horiz-adv-x="647" 
d="M84 547q50 290 154 426q105 137 280 137q98 0 150 -23q28 -12 24 -36l-12 -72q-6 -32 -37 -21q-51 17 -121 17q-118 0 -184 -99q-67 -100 -107 -329q-24 -147 -24 -215q0 -110 41 -162q40 -51 129 -51q69 0 129 18q16 4 25 -2q10 -7 6 -18l-15 -72q-1 -16 -9 -22
q-11 -9 -28 -15q-61 -24 -137 -24q-285 0 -285 348q0 101 21 215zM600 1219l-80 106l-121 -106q-19 -19 -37 -19h-75q-15 0 -17 9t9 20l172 176q21 18 41 18h77q29 0 37 -18l111 -176q6 -11 2 -20q-5 -9 -19 -9h-67q-20 0 -33 19z" />
    <glyph glyph-name="Cdotaccent" unicode="&#x10a;" horiz-adv-x="802" 
d="M487 127q70 0 154 20q19 5 26.5 -1t4.5 -25l-13 -74q-5 -25 -38 -37q-71 -26 -166 -26q-185 0 -274 95t-89 318q0 139 33 322q72 408 202 571q131 164 361 164q105 0 174 -24q27 -11 23 -37l-13 -74q-6 -33 -38 -27q-84 19 -144 19q-168 0 -257 -126t-150 -466
q-33 -189 -33 -313q0 -155 56 -217t181 -62zM784 1657l-18 -105q-6 -28 -33 -28h-102q-31 0 -25 28l19 105q6 29 32 29h103q30 0 24 -29z" />
    <glyph glyph-name="cdotaccent" unicode="&#x10b;" horiz-adv-x="647" 
d="M84 547q50 290 154 426q105 137 280 137q98 0 150 -23q28 -12 24 -36l-12 -72q-6 -32 -37 -21q-51 17 -121 17q-118 0 -184 -99q-67 -100 -107 -329q-24 -147 -24 -215q0 -110 41 -162q40 -51 129 -51q69 0 129 18q16 4 25 -2q10 -7 6 -18l-15 -72q-1 -16 -9 -22
q-11 -9 -28 -15q-61 -24 -137 -24q-285 0 -285 348q0 101 21 215zM627 1333l-19 -104q-2 -29 -33 -29h-102q-26 0 -24 29l18 104q6 29 33 29h102q31 0 25 -29z" />
    <glyph glyph-name="Ccaron" unicode="&#x10c;" horiz-adv-x="802" 
d="M487 127q70 0 154 20q19 5 26.5 -1t4.5 -25l-13 -74q-5 -25 -38 -37q-71 -26 -166 -26q-185 0 -274 95t-89 318q0 139 33 322q72 408 202 571q131 164 361 164q105 0 174 -24q27 -11 23 -37l-13 -74q-6 -33 -38 -27q-84 19 -144 19q-168 0 -257 -126t-150 -466
q-33 -189 -33 -313q0 -155 56 -217t181 -62zM692 1622l111 96q23 21 39 21h76q14 0 17 -9q3 -10 -7 -20l-168 -168q-18 -18 -41 -18h-78q-25 0 -37 18l-106 168q-17 29 14 29h68q21 0 34 -19z" />
    <glyph glyph-name="ccaron" unicode="&#x10d;" horiz-adv-x="647" 
d="M84 547q50 290 154 426q105 137 280 137q98 0 150 -23q28 -12 24 -36l-12 -72q-6 -32 -37 -21q-51 17 -121 17q-118 0 -184 -99q-67 -100 -107 -329q-24 -147 -24 -215q0 -110 41 -162q40 -51 129 -51q69 0 129 18q16 4 25 -2q10 -7 6 -18l-15 -72q-1 -16 -9 -22
q-11 -9 -28 -15q-61 -24 -137 -24q-285 0 -285 348q0 101 21 215zM526 1298l119 107q23 18 37 18h76q14 0 17 -9t-7 -19l-174 -176q-19 -19 -41 -19h-78q-24 0 -37 19l-108 176q-16 28 14 28h68q22 0 32 -18z" />
    <glyph glyph-name="Dcaron" unicode="&#x10e;" horiz-adv-x="946" 
d="M326 0h-267q-32 0 -26 31l243 1376q6 31 35 31h238q194 0 293 -99q98 -98 98 -329q0 -131 -29 -291q-69 -399 -208 -559t-377 -160zM537 1294h-127l-203 -1151h131q162 0 259 126q97 125 157 450q28 153 28 274q0 167 -61 234t-184 67zM672 1622l110 96q22 21 39 21h76
q14 0 17 -9q3 -10 -7 -20l-168 -168q-18 -18 -41 -18h-77q-25 0 -37 18l-107 168q-17 29 15 29h67q22 0 35 -19z" />
    <glyph glyph-name="dcaron" unicode="&#x10f;" horiz-adv-x="1024" 
d="M639 547q18 111 18 192q0 240 -155 240q-105 0 -167 -101q-64 -103 -104 -331q-24 -137 -24 -230q0 -202 141 -202q213 0 291 432zM545 29l20 114q-77 -159 -246 -159q-258 0 -258 340q0 90 23 223q50 290 147 425q99 138 258 138q87 0 148 -48q63 -49 70 -114l81 461
q6 29 31 29h86q33 0 27 -29l-244 -1380q-6 -29 -33 -29h-86q-30 0 -24 29zM1155 1257l-94 -184q-7 -20 -33 -20h-35q-24 0 -12 26l80 176h-35q-31 0 -25 29l27 148q6 28 31 28h106q33 0 27 -28l-25 -138q-2 -13 -12 -37z" />
    <glyph glyph-name="Dcroat" unicode="&#x110;" horiz-adv-x="950" 
d="M330 0h-267q-32 0 -26 31l110 631h-61q-29 0 -23 28l11 60q6 28 35 28h59l113 629q6 31 34 31h238q194 0 293 -99q98 -98 98 -329q0 -131 -29 -291q-69 -400 -207 -559q-139 -160 -378 -160zM541 1294h-127l-92 -516h172q28 0 22 -28l-10 -60q-6 -28 -35 -28h-170
l-90 -519h131q162 0 259 126q97 125 157 450q28 153 28 274q0 167 -61 234t-184 67z" />
    <glyph glyph-name="dcroat" unicode="&#x111;" horiz-adv-x="868" 
d="M545 29l20 114q-77 -159 -246 -159q-258 0 -258 340q0 90 23 223q50 290 147 425q99 138 258 138q87 0 148 -48q63 -49 70 -114l45 258h-189q-28 0 -22 29l6 39q6 29 35 29h188l18 106q6 29 31 29h86q33 0 27 -29l-19 -106h54q28 0 22 -29l-6 -39q-6 -29 -35 -29h-53
l-207 -1177q-6 -29 -33 -29h-86q-30 0 -24 29zM639 547q18 111 18 192q0 240 -155 240q-105 0 -167 -101q-64 -103 -104 -331q-24 -137 -24 -230q0 -202 141 -202q213 0 291 432z" />
    <glyph glyph-name="Emacron" unicode="&#x112;" horiz-adv-x="770" 
d="M676 666h-377l-92 -523h395q33 0 27 -30l-15 -82q-6 -31 -34 -31h-521q-32 0 -26 31l243 1376q2 31 35 31h514q32 0 27 -31l-14 -82q-6 -31 -37 -31h-391l-86 -489h374q33 0 27 -31l-14 -78q-1 -30 -35 -30zM801 1536h-406q-30 0 -24 29l10 51q2 29 31 29h405
q29 0 27 -29l-10 -51q-6 -29 -33 -29z" />
    <glyph glyph-name="emacron" unicode="&#x113;" horiz-adv-x="774" 
d="M408 113q76 0 172 30q12 4 21 -2q8 -6 7 -22l-12 -70q-6 -26 -35 -37q-88 -28 -172 -28q-326 0 -326 358q0 78 21 205q49 286 152 425q102 138 266 138q246 0 246 -307q0 -80 -19 -191l-18 -106q-6 -29 -37 -29h-459q-8 -61 -8 -117q0 -247 201 -247zM489 981
q-89 0 -151 -90q-61 -89 -100 -285h348l2 15q20 129 20 188q0 172 -119 172zM731 1208h-405q-31 0 -25 29l8 47q6 29 33 29h406q30 0 24 -29l-8 -47q-6 -29 -33 -29z" />
    <glyph glyph-name="Ebreve" unicode="&#x114;" horiz-adv-x="770" 
d="M676 666h-377l-92 -523h395q33 0 27 -30l-15 -82q-6 -31 -34 -31h-521q-32 0 -26 31l243 1376q2 31 35 31h514q32 0 27 -31l-14 -82q-6 -31 -37 -31h-391l-86 -489h374q33 0 27 -31l-14 -78q-1 -30 -35 -30zM621 1518q-105 0 -156 52q-52 53 -37 140q2 23 25 23h55
q22 0 22 -23q-2 -45 21 -69q22 -23 76 -23q100 0 129 92q6 23 26 23h56q22 0 20 -23q-38 -192 -237 -192z" />
    <glyph glyph-name="ebreve" unicode="&#x115;" horiz-adv-x="774" 
d="M408 113q76 0 172 30q12 4 21 -2q8 -6 7 -22l-12 -70q-6 -26 -35 -37q-88 -28 -172 -28q-326 0 -326 358q0 78 21 205q49 286 152 425q102 138 266 138q246 0 246 -307q0 -80 -19 -191l-18 -106q-6 -29 -37 -29h-459q-8 -61 -8 -117q0 -247 201 -247zM489 981
q-89 0 -151 -90q-61 -89 -100 -285h348l2 15q20 129 20 188q0 172 -119 172zM532 1196q-104 0 -153 52q-50 53 -35 141q1 22 25 22h55q22 0 22 -22q-2 -45 21 -69q22 -24 76 -24q100 0 129 93q6 22 26 22h56q21 0 20 -22q-38 -193 -242 -193z" />
    <glyph glyph-name="Edotaccent" unicode="&#x116;" horiz-adv-x="770" 
d="M676 666h-377l-92 -523h395q33 0 27 -30l-15 -82q-6 -31 -34 -31h-521q-32 0 -26 31l243 1376q2 31 35 31h514q32 0 27 -31l-14 -82q-6 -31 -37 -31h-391l-86 -489h374q33 0 27 -31l-14 -78q-1 -30 -35 -30zM721 1657l-19 -105q-6 -28 -32 -28h-103q-30 0 -24 28l18 105
q6 29 33 29h102q31 0 25 -29z" />
    <glyph glyph-name="edotaccent" unicode="&#x117;" horiz-adv-x="774" 
d="M408 113q76 0 172 30q12 4 21 -2q8 -6 7 -22l-12 -70q-6 -26 -35 -37q-88 -28 -172 -28q-326 0 -326 358q0 78 21 205q49 286 152 425q102 138 266 138q246 0 246 -307q0 -80 -19 -191l-18 -106q-6 -29 -37 -29h-459q-8 -61 -8 -117q0 -247 201 -247zM489 981
q-89 0 -151 -90q-61 -89 -100 -285h348l2 15q20 129 20 188q0 172 -119 172zM629 1333l-19 -104q-2 -29 -32 -29h-103q-26 0 -24 29l18 104q6 29 33 29h102q31 0 25 -29z" />
    <glyph glyph-name="Eogonek" unicode="&#x118;" horiz-adv-x="770" 
d="M676 666h-377l-92 -523h395q33 0 27 -30l-15 -82q-6 -31 -34 -31h-19q-125 -74 -125 -158q0 -45 66 -45q5 0 25 2t22 2q16 0 16 -14l-2 -53q-1 -21 -20 -27q-38 -16 -82 -16q-64 0 -103 30t-39 84q0 117 158 195h-418q-32 0 -26 31l243 1376q2 31 35 31h514q32 0 27 -31
l-14 -82q-6 -31 -37 -31h-391l-86 -489h374q33 0 27 -31l-14 -78q-1 -30 -35 -30z" />
    <glyph glyph-name="eogonek" unicode="&#x119;" horiz-adv-x="774" 
d="M408 113q76 0 172 30q12 4 21 -2q8 -6 7 -22l-12 -70q-6 -26 -35 -37q-51 -16 -102 -24q-107 -68 -107 -142q0 -36 62 -36q4 0 24 2t21 2q16 0 16 -15l-2 -51q-1 -21 -18 -27q-31 -14 -72 -14q-143 0 -143 92q0 106 129 185q-306 12 -306 358q0 78 21 205q49 286 152 425
q102 138 266 138q246 0 246 -307q0 -80 -19 -191l-18 -106q-6 -29 -37 -29h-459q-8 -61 -8 -117q0 -247 201 -247zM489 981q-89 0 -151 -90q-61 -89 -100 -285h348l2 15q20 129 20 188q0 172 -119 172z" />
    <glyph glyph-name="Ecaron" unicode="&#x11a;" horiz-adv-x="770" 
d="M676 666h-377l-92 -523h395q33 0 27 -30l-15 -82q-6 -31 -34 -31h-521q-32 0 -26 31l243 1376q2 31 35 31h514q32 0 27 -31l-14 -82q-6 -31 -37 -31h-391l-86 -489h374q33 0 27 -31l-14 -78q-1 -30 -35 -30zM618 1622l111 96q23 21 39 21h76q14 0 17 -9q3 -10 -7 -20
l-168 -168q-18 -18 -41 -18h-78q-25 0 -37 18l-106 168q-17 29 14 29h68q22 0 35 -19z" />
    <glyph glyph-name="ecaron" unicode="&#x11b;" horiz-adv-x="774" 
d="M408 113q76 0 172 30q12 4 21 -2q8 -6 7 -22l-12 -70q-6 -26 -35 -37q-88 -28 -172 -28q-326 0 -326 358q0 78 21 205q49 286 152 425q102 138 266 138q246 0 246 -307q0 -80 -19 -191l-18 -106q-6 -29 -37 -29h-459q-8 -61 -8 -117q0 -247 201 -247zM489 981
q-89 0 -151 -90q-61 -89 -100 -285h348l2 15q20 129 20 188q0 172 -119 172zM539 1298l118 107q23 18 37 18h76q14 0 17 -9t-7 -19l-174 -176q-19 -19 -41 -19h-78q-23 0 -36 19l-109 176q-16 28 14 28h68q22 0 33 -18z" />
    <glyph glyph-name="Gcircumflex" unicode="&#x11c;" horiz-adv-x="905" 
d="M541 827h299q30 0 24 -30l-127 -719q-6 -33 -39 -51q-77 -43 -227 -43q-193 0 -285 95t-92 318q0 139 33 324q72 412 202 572q131 161 392 161q114 0 184 -22q29 -8 23 -39l-13 -78q-6 -35 -43 -25q-76 21 -155 21q-191 0 -282 -124q-90 -122 -150 -466
q-37 -215 -37 -324q0 -150 57 -210t184 -60q63 0 107 16l96 545h-176q-33 0 -27 31l15 78q6 30 37 30zM793 1542l-78 98l-115 -98q-18 -18 -37 -18h-76q-15 0 -16 9q-2 9 8 19l168 168q19 19 39 19h78q26 0 39 -19l106 -168q7 -10 3 -19t-19 -9h-68q-20 0 -32 18z" />
    <glyph glyph-name="gcircumflex" unicode="&#x11d;" horiz-adv-x="839" 
d="M621 592q16 99 16 166q0 223 -148 223q-95 0 -157 -95q-61 -94 -96 -294q-19 -117 -19 -189q0 -198 137 -198q96 0 164 98q70 101 103 289zM846 1065l-170 -959q-62 -348 -402 -348q-145 0 -223 33q-24 8 -18 35l12 76q6 30 37 22q108 -33 199 -33q213 0 254 224l22 123
q-77 -160 -238 -160q-247 0 -247 323q0 83 18 191q46 258 139 389q91 129 244 129q80 0 140 -48q62 -49 69 -114l20 117q6 29 33 29h86q31 0 25 -29zM655 1219l-80 106l-120 -106q-19 -19 -37 -19h-76q-14 0 -16 9q-2 10 8 20l172 176q21 18 41 18h78q27 0 37 -18l110 -176
q6 -11 2 -20t-18 -9h-68q-20 0 -33 19z" />
    <glyph glyph-name="Gbreve" unicode="&#x11e;" horiz-adv-x="905" 
d="M541 827h299q30 0 24 -30l-127 -719q-6 -33 -39 -51q-77 -43 -227 -43q-193 0 -285 95t-92 318q0 139 33 324q72 412 202 572q131 161 392 161q114 0 184 -22q29 -8 23 -39l-13 -78q-6 -35 -43 -25q-76 21 -155 21q-191 0 -282 -124q-90 -122 -150 -466
q-37 -215 -37 -324q0 -150 57 -210t184 -60q63 0 107 16l96 545h-176q-33 0 -27 31l15 78q6 30 37 30zM711 1518q-105 0 -156 52q-52 53 -37 140q2 23 25 23h55q23 0 23 -23q-2 -46 20 -69t76 -23q100 0 129 92q6 23 26 23h56q22 0 20 -23q-38 -192 -237 -192z" />
    <glyph glyph-name="gbreve" unicode="&#x11f;" horiz-adv-x="839" 
d="M621 592q16 99 16 166q0 223 -148 223q-95 0 -157 -95q-61 -94 -96 -294q-19 -117 -19 -189q0 -198 137 -198q96 0 164 98q70 101 103 289zM846 1065l-170 -959q-62 -348 -402 -348q-145 0 -223 33q-24 8 -18 35l12 76q6 30 37 22q108 -33 199 -33q213 0 254 224l22 123
q-77 -160 -238 -160q-247 0 -247 323q0 83 18 191q46 258 139 389q91 129 244 129q80 0 140 -48q62 -49 69 -114l20 117q6 29 33 29h86q31 0 25 -29zM555 1196q-105 0 -154 52t-34 141q1 22 24 22h55q23 0 23 -22q-2 -46 20 -69q22 -24 76 -24q100 0 129 93q6 22 27 22h55
q22 0 21 -22q-38 -193 -242 -193z" />
    <glyph glyph-name="Gdotaccent" unicode="&#x120;" horiz-adv-x="905" 
d="M541 827h299q30 0 24 -30l-127 -719q-6 -33 -39 -51q-77 -43 -227 -43q-193 0 -285 95t-92 318q0 139 33 324q72 412 202 572q131 161 392 161q114 0 184 -22q29 -8 23 -39l-13 -78q-6 -35 -43 -25q-76 21 -155 21q-191 0 -282 -124q-90 -122 -150 -466
q-37 -215 -37 -324q0 -150 57 -210t184 -60q63 0 107 16l96 545h-176q-33 0 -27 31l15 78q6 30 37 30zM823 1657l-18 -105q-6 -28 -33 -28h-102q-31 0 -25 28l19 105q6 29 32 29h103q30 0 24 -29z" />
    <glyph glyph-name="gdotaccent" unicode="&#x121;" horiz-adv-x="839" 
d="M621 592q16 99 16 166q0 223 -148 223q-95 0 -157 -95q-61 -94 -96 -294q-19 -117 -19 -189q0 -198 137 -198q96 0 164 98q70 101 103 289zM846 1065l-170 -959q-62 -348 -402 -348q-145 0 -223 33q-24 8 -18 35l12 76q6 30 37 22q108 -33 199 -33q213 0 254 224l22 123
q-77 -160 -238 -160q-247 0 -247 323q0 83 18 191q46 258 139 389q91 129 244 129q80 0 140 -48q62 -49 69 -114l20 117q6 29 33 29h86q31 0 25 -29zM651 1333l-18 -104q-2 -29 -33 -29h-102q-27 0 -25 29l19 104q6 29 32 29h103q30 0 24 -29z" />
    <glyph glyph-name="Gcommaaccent" unicode="&#x122;" horiz-adv-x="905" 
d="M541 827h299q30 0 24 -30l-127 -719q-6 -33 -39 -51q-77 -43 -227 -43q-193 0 -285 95t-92 318q0 139 33 324q72 412 202 572q131 161 392 161q114 0 184 -22q29 -8 23 -39l-13 -78q-6 -35 -43 -25q-76 21 -155 21q-191 0 -282 -124q-90 -122 -150 -466
q-37 -215 -37 -324q0 -150 57 -210t184 -60q63 0 107 16l96 545h-176q-33 0 -27 31l15 78q6 30 37 30zM502 -268l-86 -158q-12 -23 -33 -23h-16q-21 0 -13 27l60 152h-45q-29 0 -23 28l21 115q2 29 30 29h111q29 0 27 -29l-21 -106q-1 -20 -12 -35z" />
    <glyph glyph-name="gcommaaccent" unicode="&#x123;" horiz-adv-x="839" 
d="M621 592q16 99 16 166q0 223 -148 223q-95 0 -157 -95q-61 -94 -96 -294q-19 -117 -19 -189q0 -198 137 -198q96 0 164 98q70 101 103 289zM846 1065l-170 -959q-62 -348 -402 -348q-145 0 -223 33q-24 8 -18 35l12 76q6 30 37 22q108 -33 199 -33q213 0 254 224l22 123
q-77 -160 -238 -160q-247 0 -247 323q0 83 18 191q46 258 139 389q91 129 244 129q80 0 140 -48q62 -49 69 -114l20 117q6 29 33 29h86q31 0 25 -29zM668 1356l82 153q12 23 32 23h17q19 0 12 -27l-59 -147h41q26 0 24 -29l-20 -106q-2 -29 -31 -29h-102q-29 0 -27 29l18 98
q1 15 13 35z" />
    <glyph glyph-name="Hcircumflex" unicode="&#x124;" horiz-adv-x="954" 
d="M612 31l113 633h-426l-113 -633q-6 -31 -34 -31h-93q-32 0 -26 31l243 1376q2 31 35 31h92q32 0 27 -31l-106 -600h426l106 600q5 31 35 31h92q29 0 27 -31l-244 -1376q-6 -31 -35 -31h-92q-33 0 -27 31zM766 1542l-78 98l-115 -98q-18 -18 -36 -18h-76q-15 0 -17 9
q-1 9 9 19l168 168q19 19 38 19h78q26 0 39 -19l107 -168q7 -10 3 -19t-20 -9h-67q-21 0 -33 18z" />
    <glyph glyph-name="hcircumflex" unicode="&#x125;" horiz-adv-x="843" 
d="M803 768l-131 -739q-6 -29 -33 -29h-86q-31 0 -25 29l129 727q9 68 9 80q0 137 -125 137q-101 0 -167 -78q-67 -79 -89 -209l-117 -657q-6 -29 -33 -29h-86q-30 0 -24 29l243 1380q6 29 33 29h86q31 0 25 -29l-80 -448q91 149 252 149q110 0 169 -67q58 -65 58 -183
q0 -46 -8 -92zM711 1542l-78 98l-115 -98q-18 -18 -37 -18h-75q-16 0 -17 9q-2 9 8 19l168 168q19 19 39 19h78q26 0 39 -19l106 -168q7 -10 3 -19t-19 -9h-68q-20 0 -32 18z" />
    <glyph glyph-name="Hbar" unicode="&#x126;" horiz-adv-x="954" 
d="M612 31l113 633h-426l-113 -633q-6 -31 -34 -31h-93q-32 0 -26 31l190 1073h-57q-31 0 -25 29l6 38q6 29 33 29h60l36 207q6 31 33 31h92q35 0 29 -31l-37 -207h426l37 207q6 31 33 31h92q35 0 29 -31l-37 -207h55q31 0 25 -29l-6 -38q-6 -29 -33 -29h-58l-190 -1073
q-6 -31 -35 -31h-92q-33 0 -27 31zM324 807h426l53 297h-426z" />
    <glyph glyph-name="hbar" unicode="&#x127;" horiz-adv-x="843" 
d="M803 768l-131 -739q-6 -29 -33 -29h-86q-31 0 -25 29l129 727q9 68 9 80q0 137 -125 137q-101 0 -167 -77q-67 -77 -89 -210l-117 -657q-6 -29 -33 -29h-86q-30 0 -24 29l206 1177h-53q-28 0 -22 29l6 39q6 29 35 29h53l18 106q6 29 33 29h86q31 0 25 -29l-19 -106h189
q28 0 22 -29l-6 -39q-6 -29 -35 -29h-188l-43 -245q91 149 252 149q110 0 169 -67q58 -65 58 -183q0 -46 -8 -92z" />
    <glyph glyph-name="Itilde" unicode="&#x128;" horiz-adv-x="399" 
d="M45 31l244 1376q2 31 35 31h92q31 0 26 -31l-243 -1376q-6 -31 -35 -31h-92q-33 0 -27 31zM651 1649q-21 -129 -139 -129q-66 0 -127 32l-47 25q-78 39 -94 -18l-6 -15q-6 -20 -31 -20h-41q-27 0 -21 37q23 129 140 129q64 0 127 -33l47 -25q78 -39 96 19l4 14
q6 21 33 21h41q25 0 18 -37z" />
    <glyph glyph-name="itilde" unicode="&#x129;" horiz-adv-x="356" 
d="M354 1065l-182 -1036q-6 -29 -33 -29h-86q-30 0 -24 29l182 1036q6 29 33 29h86q30 0 24 -29zM567 1325q-12 -67 -43 -98t-92 -31q-67 0 -127 33l-43 24q-70 39 -88 -18l-4 -14q-8 -21 -33 -21h-41q-26 0 -20 37q11 67 41 98q31 31 92 31q67 0 127 -33l43 -24
q72 -39 90 18l4 14q6 21 33 21h41q26 0 20 -37z" />
    <glyph glyph-name="Imacron" unicode="&#x12a;" horiz-adv-x="399" 
d="M45 31l244 1376q2 31 35 31h92q31 0 26 -31l-243 -1376q-6 -31 -35 -31h-92q-33 0 -27 31zM590 1536h-406q-30 0 -24 29l10 51q2 29 31 29h405q29 0 27 -29l-10 -51q-6 -29 -33 -29z" />
    <glyph glyph-name="imacron" unicode="&#x12b;" horiz-adv-x="356" 
d="M354 1065l-182 -1036q-6 -29 -33 -29h-86q-30 0 -24 29l182 1036q6 29 33 29h86q30 0 24 -29zM512 1208h-406q-30 0 -24 29l8 47q6 29 33 29h405q31 0 25 -29l-8 -47q-6 -29 -33 -29z" />
    <glyph glyph-name="Ibreve" unicode="&#x12c;" horiz-adv-x="399" 
d="M45 31l244 1376q2 31 35 31h92q31 0 26 -31l-243 -1376q-6 -31 -35 -31h-92q-33 0 -27 31zM395 1518q-104 0 -155 52q-52 53 -37 140q2 23 24 23h56q22 0 22 -23q-1 -45 21 -69q22 -23 75 -23q100 0 129 92q6 23 27 23h55q23 0 21 -23q-37 -192 -238 -192z" />
    <glyph glyph-name="ibreve" unicode="&#x12d;" horiz-adv-x="356" 
d="M354 1065l-182 -1036q-6 -29 -33 -29h-86q-30 0 -24 29l182 1036q6 29 33 29h86q30 0 24 -29zM313 1196q-104 0 -153 52q-50 53 -35 141q1 22 25 22h55q22 0 22 -22q-1 -45 21 -69t76 -24q100 0 129 93q6 22 26 22h56q21 0 20 -22q-38 -193 -242 -193z" />
    <glyph glyph-name="Iogonek" unicode="&#x12e;" horiz-adv-x="399" 
d="M45 31l244 1376q2 31 35 31h92q31 0 26 -31l-243 -1376q-6 -31 -35 -31h-2q-125 -74 -125 -158q0 -45 65 -45q6 0 26 2t22 2q16 0 16 -14l-2 -53q-1 -20 -21 -27q-38 -16 -82 -16q-63 0 -102 30t-39 84q0 117 158 195h-6q-33 0 -27 31z" />
    <glyph glyph-name="iogonek" unicode="&#x12f;" horiz-adv-x="356" 
d="M354 1065l-182 -1036q-6 -29 -33 -29h-4q-125 -72 -125 -154q0 -36 62 -36q4 0 24 2t21 2q16 0 16 -15l-2 -51q-1 -21 -18 -27q-31 -14 -72 -14q-143 0 -143 92q0 116 155 201q-30 0 -24 29l182 1036q6 29 33 29h86q30 0 24 -29zM418 1399l-25 -142q-6 -28 -35 -28h-94
q-28 0 -22 28l24 142q6 28 31 28h94q33 0 27 -28z" />
    <glyph glyph-name="Idotaccent" unicode="&#x130;" horiz-adv-x="399" 
d="M45 31l244 1376q2 31 35 31h92q31 0 26 -31l-243 -1376q-6 -31 -35 -31h-92q-33 0 -27 31zM487 1657l-18 -105q-6 -28 -33 -28h-102q-31 0 -25 28l19 105q6 29 32 29h103q30 0 24 -29z" />
    <glyph glyph-name="dotlessi" unicode="&#x131;" horiz-adv-x="356" 
d="M354 1065l-182 -1036q-6 -29 -33 -29h-86q-30 0 -24 29l182 1036q6 29 33 29h86q30 0 24 -29z" />
    <glyph glyph-name="IJ" unicode="&#x132;" horiz-adv-x="960" 
d="M45 31l244 1376q2 31 35 31h92q31 0 26 -31l-243 -1376q-6 -31 -35 -31h-92q-33 0 -27 31zM678 346l188 1061q2 31 35 31h92q32 0 27 -31l-191 -1075q-33 -189 -110 -266q-78 -78 -227 -78q-81 0 -125 16q-31 13 -27 41l14 76q6 30 35 24q53 -14 105 -14q82 0 122 45
q41 46 62 170z" />
    <glyph glyph-name="ij" unicode="&#x133;" horiz-adv-x="733" 
d="M354 1065l-182 -1036q-6 -29 -33 -29h-86q-30 0 -24 29l182 1036q6 29 35 29h86q28 0 22 -29zM418 1399l-25 -142q-6 -28 -35 -28h-94q-28 0 -22 28l24 142q6 28 33 28h94q31 0 25 -28zM442 236l146 829q6 29 35 29h86q28 0 22 -29l-147 -842q-22 -131 -72 -183
q-49 -52 -154 -52q-33 0 -73 8q-25 6 -19 31l13 71q6 28 32 27q22 -2 41 -2q37 0 58 22q20 21 32 91zM795 1399l-25 -142q-6 -28 -35 -28h-94q-29 0 -23 28l25 142q6 28 33 28h94q31 0 25 -28z" />
    <glyph glyph-name="Jcircumflex" unicode="&#x134;" horiz-adv-x="593" 
d="M311 346l189 1061q5 31 35 31h92q28 0 26 -31l-190 -1075q-33 -188 -111 -266t-227 -78q-81 0 -125 16q-31 13 -27 41l15 76q6 30 35 24q53 -14 104 -14q83 0 123 45q40 44 61 170zM565 1542l-78 98l-114 -98q-18 -18 -37 -18h-76q-14 0 -16 9t8 19l168 168q19 19 39 19
h78q25 0 38 -19l107 -168q7 -10 3 -19q-5 -9 -19 -9h-68q-21 0 -33 18z" />
    <glyph glyph-name="jcircumflex" unicode="&#x135;" horiz-adv-x="380" 
d="M47 14l184 1051q6 29 33 29h86q31 0 25 -29l-187 -1063q-23 -132 -71 -183q-49 -52 -154 -52q-32 0 -72 8q-24 6 -18 30l12 72q6 29 33 27q20 -2 39 -2q36 0 57 22t33 90zM438 1219l-80 106l-120 -106q-19 -19 -37 -19h-76q-15 0 -16 9q-2 10 8 20l172 176q23 18 41 18
h78q26 0 36 -18l111 -176q6 -11 2 -20q-5 -9 -18 -9h-68q-20 0 -33 19z" />
    <glyph glyph-name="Kcommaaccent" unicode="&#x136;" horiz-adv-x="860" 
d="M332 840l489 575q23 23 45 23h107q15 0 20 -12q4 -10 -8 -25l-545 -645l310 -719q15 -37 -27 -37h-102q-23 0 -35 27l-283 659l-117 -655q-6 -31 -34 -31h-93q-32 0 -26 31l243 1376q2 31 33 31h92q34 0 29 -31zM410 -268l-86 -158q-12 -23 -33 -23h-17q-20 0 -12 27
l60 152h-46q-28 0 -22 28l20 115q2 29 31 29h111q28 0 26 -29l-20 -106q-1 -20 -12 -35z" />
    <glyph glyph-name="kcommaaccent" unicode="&#x137;" horiz-adv-x="737" 
d="M608 0h-86q-26 0 -37 25l-229 507l-88 -503q-6 -29 -33 -29h-86q-30 0 -24 29l243 1380q6 29 31 29h86q33 0 27 -29l-125 -711l356 371q22 25 45 25h103q20 0 23 -13q3 -12 -11 -26l-430 -447l260 -571q16 -37 -25 -37zM338 -260l-82 -154q-12 -22 -33 -22h-16
q-19 0 -12 26l59 148h-41q-27 0 -25 29l21 106q2 29 31 29h102q29 0 27 -29l-19 -98q-2 -17 -12 -35z" />
    <glyph glyph-name="kgreenlandic" unicode="&#x138;" horiz-adv-x="737" 
d="M608 0h-86q-26 0 -37 25l-229 507l-88 -503q-6 -29 -33 -29h-86q-30 0 -24 29l182 1036q6 29 31 29h86q32 0 26 -29l-63 -367l356 371q22 25 45 25h103q20 0 23 -13q3 -12 -11 -26l-430 -447l260 -571q16 -37 -25 -37z" />
    <glyph glyph-name="Lacute" unicode="&#x139;" horiz-adv-x="716" 
d="M430 1407l-223 -1264h358q33 0 27 -30l-14 -82q-6 -31 -33 -31h-484q-34 0 -28 31l243 1376q2 31 35 31h92q32 0 27 -31zM338 1548l104 164q17 25 37 25h129q17 0 20 -13q3 -12 -10 -20l-174 -162q-18 -18 -38 -18h-56q-12 0 -15 8t3 16z" />
    <glyph glyph-name="lacute" unicode="&#x13a;" horiz-adv-x="356" 
d="M416 1409l-244 -1380q-6 -29 -33 -29h-86q-30 0 -24 29l243 1380q6 29 31 29h86q33 0 27 -29zM322 1548l104 164q17 25 37 25h129q16 0 19 -13q3 -12 -9 -20l-174 -162q-18 -18 -39 -18h-55q-13 0 -16 8q-3 7 4 16z" />
    <glyph glyph-name="Lcommaaccent" unicode="&#x13b;" horiz-adv-x="716" 
d="M430 1407l-223 -1264h358q33 0 27 -30l-14 -82q-6 -31 -33 -31h-484q-34 0 -28 31l243 1376q2 31 35 31h92q32 0 27 -31zM346 -268l-86 -158q-12 -23 -33 -23h-16q-19 0 -12 27l59 152h-45q-29 0 -23 28l21 115q2 29 31 29h110q29 0 27 -29l-21 -106q-1 -20 -12 -35z" />
    <glyph glyph-name="lcommaaccent" unicode="&#x13c;" horiz-adv-x="356" 
d="M416 1409l-244 -1380q-6 -29 -33 -29h-86q-30 0 -24 29l243 1380q6 29 31 29h86q33 0 27 -29zM123 -260l-82 -154q-12 -22 -33 -22h-16q-19 0 -12 26l59 148h-41q-27 0 -25 29l21 106q2 29 31 29h102q29 0 27 -29l-19 -98q-2 -17 -12 -35z" />
    <glyph glyph-name="Lcaron" unicode="&#x13d;" horiz-adv-x="716" 
d="M430 1407l-223 -1264h358q33 0 27 -30l-14 -82q-6 -31 -33 -31h-484q-34 0 -28 31l243 1376q2 31 35 31h92q32 0 27 -31zM721 1257l-94 -184q-7 -20 -33 -20h-35q-24 0 -12 26l80 176h-35q-31 0 -25 29l27 148q6 28 31 28h106q33 0 27 -28l-25 -138q-2 -13 -12 -37z" />
    <glyph glyph-name="lcaron" unicode="&#x13e;" horiz-adv-x="507" 
d="M416 1409l-244 -1380q-6 -29 -33 -29h-86q-30 0 -24 29l243 1380q6 29 31 29h86q33 0 27 -29zM639 1257l-94 -184q-7 -20 -33 -20h-35q-24 0 -12 26l80 176h-35q-31 0 -25 29l27 148q6 28 31 28h106q33 0 27 -28l-25 -138q-2 -13 -12 -37z" />
    <glyph glyph-name="Ldot" unicode="&#x13f;" horiz-adv-x="733" 
d="M430 1407l-223 -1264h358q33 0 27 -30l-14 -82q-6 -31 -33 -31h-484q-34 0 -28 31l243 1376q2 31 35 31h92q32 0 27 -31zM526 575l27 148q2 29 31 29h106q29 0 27 -29l-27 -148q-6 -28 -33 -28h-106q-31 0 -25 28z" />
    <glyph glyph-name="ldot" unicode="&#x140;" horiz-adv-x="507" 
d="M416 1409l-244 -1380q-6 -29 -33 -29h-86q-30 0 -24 29l243 1380q6 29 31 29h86q33 0 27 -29zM344 473l27 148q1 28 30 28h107q28 0 27 -28l-27 -148q-6 -29 -33 -29h-106q-31 0 -25 29z" />
    <glyph glyph-name="Lslash" unicode="&#x141;" horiz-adv-x="720" 
d="M434 1407l-104 -594l184 98q29 15 37 -10l14 -33q11 -24 -18 -39l-238 -124l-98 -562h360q31 0 25 -30l-14 -82q-6 -31 -35 -31h-484q-32 0 -26 31l102 583l-45 -22q-27 -15 -39 10l-12 33q-8 25 18 39l99 51l121 682q2 31 32 31h93q33 0 28 -31z" />
    <glyph glyph-name="lslash" unicode="&#x142;" horiz-adv-x="364" 
d="M420 1409l-107 -598l37 20q29 15 37 -10l14 -33q10 -23 -18 -38l-88 -48l-119 -673q-6 -29 -33 -29h-86q-30 0 -24 29l104 589l-37 -18q-31 -16 -39 10l-12 33q-10 24 17 39l90 47l120 680q6 29 31 29h86q33 0 27 -29z" />
    <glyph glyph-name="Nacute" unicode="&#x143;" horiz-adv-x="970" 
d="M1026 1407l-244 -1376q-6 -31 -34 -31h-93q-31 0 -37 27l-247 1067l-189 -1063q-6 -31 -35 -31h-88q-32 0 -26 31l243 1376q2 31 35 31h92q31 0 37 -27l248 -1067l189 1063q5 31 34 31h88q29 0 27 -31zM629 1548l104 164q17 25 37 25h129q17 0 20 -13q3 -12 -10 -20
l-174 -162q-18 -18 -39 -18h-55q-12 0 -15 8t3 16z" />
    <glyph glyph-name="nacute" unicode="&#x144;" horiz-adv-x="831" 
d="M791 774l-132 -745q-6 -29 -32 -29h-86q-31 0 -25 29l129 727q8 66 8 82q0 135 -123 135q-99 0 -165 -78q-67 -79 -89 -209l-116 -657q-6 -29 -33 -29h-86q-31 0 -25 29l183 1036q6 29 30 29h86q33 0 27 -29l-18 -104q91 149 251 149q109 0 166 -66q58 -67 58 -178
q0 -46 -8 -92zM502 1225l104 164q16 24 37 24h129q17 0 20 -12q3 -13 -10 -21l-174 -161q-19 -19 -39 -19h-55q-12 0 -15 8q-4 9 3 17z" />
    <glyph glyph-name="Ncommaaccent" unicode="&#x145;" horiz-adv-x="970" 
d="M1026 1407l-244 -1376q-6 -31 -34 -31h-93q-31 0 -37 27l-247 1067l-189 -1063q-6 -31 -35 -31h-88q-32 0 -26 31l243 1376q2 31 35 31h92q31 0 37 -27l248 -1067l189 1063q5 31 34 31h88q29 0 27 -31zM432 -268l-86 -158q-12 -23 -33 -23h-16q-19 0 -12 27l59 152h-45
q-29 0 -23 28l21 115q2 29 31 29h110q29 0 27 -29l-21 -106q-1 -20 -12 -35z" />
    <glyph glyph-name="ncommaaccent" unicode="&#x146;" horiz-adv-x="831" 
d="M791 774l-132 -745q-6 -29 -32 -29h-86q-31 0 -25 29l129 727q8 66 8 82q0 135 -123 135q-99 0 -165 -78q-67 -79 -89 -209l-116 -657q-6 -29 -33 -29h-86q-31 0 -25 29l183 1036q6 29 30 29h86q33 0 27 -29l-18 -104q91 149 251 149q109 0 166 -66q58 -67 58 -178
q0 -46 -8 -92zM360 -260l-81 -154q-12 -22 -33 -22h-17q-19 0 -12 26l59 148h-40q-27 0 -25 29l20 106q2 29 31 29h103q28 0 26 -29l-18 -98q-1 -15 -13 -35z" />
    <glyph glyph-name="Ncaron" unicode="&#x147;" horiz-adv-x="970" 
d="M1026 1407l-244 -1376q-6 -31 -34 -31h-93q-31 0 -37 27l-247 1067l-189 -1063q-6 -31 -35 -31h-88q-32 0 -26 31l243 1376q2 31 35 31h92q31 0 37 -27l248 -1067l189 1063q5 31 34 31h88q29 0 27 -31zM684 1622l111 96q23 21 39 21h75q15 0 18 -9q3 -10 -7 -20
l-168 -168q-18 -18 -41 -18h-78q-25 0 -37 18l-107 168q-17 29 15 29h67q22 0 35 -19z" />
    <glyph glyph-name="ncaron" unicode="&#x148;" horiz-adv-x="831" 
d="M791 774l-132 -745q-6 -29 -32 -29h-86q-31 0 -25 29l129 727q8 66 8 82q0 135 -123 135q-99 0 -165 -78q-67 -79 -89 -209l-116 -657q-6 -29 -33 -29h-86q-31 0 -25 29l183 1036q6 29 30 29h86q33 0 27 -29l-18 -104q91 149 251 149q109 0 166 -66q58 -67 58 -178
q0 -46 -8 -92zM557 1298l119 107q21 18 37 18h75q15 0 18 -9t-7 -19l-174 -176q-19 -19 -41 -19h-78q-24 0 -37 19l-109 176q-16 28 15 28h67q26 0 33 -18z" />
    <glyph glyph-name="napostrophe" unicode="&#x149;" horiz-adv-x="974" 
d="M934 774l-131 -745q-6 -29 -33 -29h-86q-31 0 -25 29l129 727q9 74 9 82q0 135 -123 135q-100 0 -166 -78q-65 -77 -88 -209l-117 -657q-6 -29 -33 -29h-86q-30 0 -24 29l182 1036q6 29 31 29h86q32 0 26 -29l-18 -104q91 149 252 149q109 0 166 -66t57 -178
q0 -46 -8 -92zM303 1284l-94 -184q-7 -21 -33 -21h-35q-24 0 -12 27l80 176h-35q-30 0 -24 29l26 147q6 29 31 29h106q33 0 27 -29l-25 -137q-2 -13 -12 -37z" />
    <glyph glyph-name="Eng" unicode="&#x14a;" horiz-adv-x="970" 
d="M1026 1407l-240 -1352q-28 -161 -87 -227t-167 -66q-54 0 -114 13q-25 6 -19 30l13 74q6 33 34 27q43 -8 80 -8q85 0 103 104l-258 1092l-189 -1063q-6 -31 -35 -31h-88q-32 0 -26 31l243 1376q2 31 33 31h92q33 0 39 -27l248 -1067l189 1063q5 31 32 31h88q31 0 29 -31z
" />
    <glyph glyph-name="eng" unicode="&#x14b;" horiz-adv-x="831" 
d="M514 14l131 742q8 66 8 82q0 135 -123 135q-98 0 -164 -78q-69 -81 -92 -211l-114 -655q-6 -29 -33 -29h-86q-31 0 -25 29l183 1036q6 29 32 29h86q31 0 25 -29l-18 -104q91 149 247 149q110 0 169 -67t59 -179q0 -47 -8 -90l-136 -772q-23 -132 -71 -183
q-49 -52 -154 -52q-34 0 -74 8q-24 6 -18 30l12 72q6 29 33 27q22 -2 41 -2q36 0 57 22t33 90z" />
    <glyph glyph-name="Omacron" unicode="&#x14c;" horiz-adv-x="991" 
d="M657 1454q163 0 245 -96q83 -97 83 -314q0 -140 -33 -325q-69 -402 -195 -569q-126 -166 -335 -166q-161 0 -244 98q-84 99 -84 324q0 138 31 313q72 402 198 569q126 166 334 166zM434 123q133 0 218 133q86 135 143 463q34 188 34 328q0 145 -45 206q-45 62 -139 62
q-133 0 -217 -132q-83 -131 -145 -464q-35 -192 -35 -324q0 -147 46 -209q46 -63 140 -63zM887 1536h-406q-30 0 -24 29l10 51q2 29 31 29h405q29 0 27 -29l-10 -51q-6 -29 -33 -29z" />
    <glyph glyph-name="omacron" unicode="&#x14d;" horiz-adv-x="831" 
d="M342 -16q174 0 279 137q104 135 155 426q21 114 21 215q0 348 -281 348q-173 0 -278 -137q-104 -136 -154 -426q-21 -114 -21 -215q0 -348 279 -348zM352 115q-145 0 -145 211q0 88 24 221q39 226 106 330q66 102 169 102q145 0 145 -213q0 -103 -22 -219
q-40 -225 -108 -330q-66 -102 -169 -102zM750 1208h-406q-31 0 -25 29l9 47q6 29 32 29h406q31 0 25 -29l-9 -47q-6 -29 -32 -29z" />
    <glyph glyph-name="Obreve" unicode="&#x14e;" horiz-adv-x="991" 
d="M657 1454q163 0 245 -96q83 -97 83 -314q0 -140 -33 -325q-69 -402 -195 -569q-126 -166 -335 -166q-161 0 -244 98q-84 99 -84 324q0 138 31 313q72 402 198 569q126 166 334 166zM434 123q133 0 218 133q86 135 143 463q34 188 34 328q0 145 -45 206q-45 62 -139 62
q-133 0 -217 -132q-83 -131 -145 -464q-35 -192 -35 -324q0 -147 46 -209q46 -63 140 -63zM692 1518q-104 0 -155 52q-52 53 -37 140q2 23 24 23h56q22 0 22 -23q-2 -45 21 -69q22 -23 75 -23q100 0 129 92q6 23 27 23h55q23 0 21 -23q-38 -192 -238 -192z" />
    <glyph glyph-name="obreve" unicode="&#x14f;" horiz-adv-x="831" 
d="M342 -16q-279 0 -279 348q0 101 21 215q50 290 154 426q105 137 278 137q281 0 281 -348q0 -101 -21 -215q-51 -291 -155 -426q-105 -137 -279 -137zM352 115q103 0 169 102q68 105 108 330q22 116 22 219q0 213 -145 213q-103 0 -169 -102q-67 -104 -106 -330
q-24 -134 -24 -221q0 -211 145 -211zM551 1196q-105 0 -154 52t-34 141q1 22 24 22h55q23 0 23 -22q-2 -46 20 -69q23 -24 76 -24q100 0 129 93q6 22 27 22h55q22 0 21 -22q-38 -193 -242 -193z" />
    <glyph glyph-name="Ohungarumlaut" unicode="&#x150;" horiz-adv-x="991" 
d="M657 1454q163 0 245 -96q83 -97 83 -314q0 -140 -33 -325q-69 -402 -195 -569q-126 -166 -335 -166q-161 0 -244 98q-84 99 -84 324q0 138 31 313q72 402 198 569q126 166 334 166zM434 123q133 0 218 133q86 135 143 463q34 188 34 328q0 145 -45 206q-45 62 -139 62
q-133 0 -217 -132q-83 -131 -145 -464q-35 -192 -35 -324q0 -147 46 -209q46 -63 140 -63zM520 1548l101 164q13 25 38 25h103q14 0 16 -12q1 -12 -8 -21l-145 -162q-17 -18 -39 -18h-56q-26 0 -10 24zM770 1548l98 164q17 25 39 25h103q16 0 18 -12q1 -12 -8 -21l-146 -162
q-16 -18 -40 -18h-54q-25 0 -10 24z" />
    <glyph glyph-name="ohungarumlaut" unicode="&#x151;" horiz-adv-x="831" 
d="M342 -16q174 0 279 137q104 135 155 426q21 114 21 215q0 348 -281 348q-173 0 -278 -137q-104 -136 -154 -426q-21 -114 -21 -215q0 -348 279 -348zM352 115q-145 0 -145 211q0 88 24 221q39 226 106 330q66 102 169 102q145 0 145 -213q0 -103 -22 -219
q-40 -225 -108 -330q-66 -102 -169 -102zM375 1225l100 164q12 24 39 24h98q10 0 15 -5q4 -4 2 -12t-8 -16l-146 -161q-17 -19 -39 -19h-51q-27 0 -10 25zM621 1225l98 164q15 24 39 24h98q17 0 20 -11t-10 -22l-145 -161q-16 -19 -41 -19h-49q-27 0 -10 25z" />
    <glyph glyph-name="OE" unicode="&#x152;" horiz-adv-x="1323" 
d="M1229 666h-377l-92 -523h395q33 0 27 -30l-15 -82q-6 -31 -34 -31h-644q-190 0 -291 101q-102 102 -102 337q0 112 29 281q69 395 210 557t378 162h663q34 0 29 -31l-14 -82q-6 -31 -37 -31h-391l-86 -489h374q33 0 27 -31l-14 -78q-6 -30 -35 -30zM813 1294h-108
q-165 0 -265 -126q-100 -125 -157 -449q-29 -171 -29 -273q0 -165 60 -234t184 -69h112z" />
    <glyph glyph-name="oe" unicode="&#x153;" horiz-adv-x="1273" 
d="M913 113q70 0 166 30q12 5 22 -2q8 -6 7 -22l-12 -70q-6 -26 -35 -37q-88 -28 -166 -28q-218 0 -274 176q-108 -176 -293 -176q-267 0 -267 346q0 85 23 217q50 290 148 426q99 137 270 137q180 0 229 -166q100 166 273 166q123 0 184 -82t61 -229q0 -74 -16 -166
l-19 -107q-6 -28 -38 -28h-447q-10 -74 -10 -129q0 -256 194 -256zM338 115q98 0 160 104q63 105 102 328q23 127 23 225q0 207 -131 207q-96 0 -159 -105q-63 -106 -102 -327q-24 -137 -24 -228q0 -204 131 -204zM995 981q-167 0 -243 -354h335l5 14q16 58 16 168
q0 172 -113 172z" />
    <glyph glyph-name="Racute" unicode="&#x154;" horiz-adv-x="892" 
d="M297 657h137q145 0 211 68q66 67 96 248q17 94 17 143q0 100 -50 139t-171 39h-127zM309 1438h244q187 0 275 -71q87 -70 87 -232q0 -70 -16 -162q-68 -390 -332 -443l150 -493q10 -37 -27 -37h-90q-31 0 -37 25l-145 489h-146l-86 -483q-6 -31 -34 -31h-93q-32 0 -26 31
l243 1376q6 31 33 31zM569 1548l105 164q17 25 37 25h129q16 0 19 -13q3 -12 -9 -20l-174 -162q-18 -18 -39 -18h-55q-13 0 -16 8t3 16z" />
    <glyph glyph-name="racute" unicode="&#x155;" horiz-adv-x="540" 
d="M236 1094h86q30 0 24 -29l-27 -147q32 74 105 132q71 56 156 56q18 0 25 -6q7 -5 5 -25l-18 -104q-6 -27 -31 -27q-9 0 -21 1t-32 1q-77 0 -146 -95q-70 -95 -92 -218l-106 -604q-6 -29 -33 -29h-86q-31 0 -25 29l183 1036q6 29 33 29zM334 1225l104 164q16 24 37 24h129
q17 0 20 -12q3 -13 -10 -21l-174 -161q-19 -19 -39 -19h-55q-12 0 -15 8q-4 9 3 17z" />
    <glyph glyph-name="Rcommaaccent" unicode="&#x156;" horiz-adv-x="892" 
d="M297 657h137q145 0 211 68q66 67 96 248q17 94 17 143q0 100 -50 139t-171 39h-127zM309 1438h244q187 0 275 -71q87 -70 87 -232q0 -70 -16 -162q-68 -390 -332 -443l150 -493q10 -37 -27 -37h-90q-31 0 -37 25l-145 489h-146l-86 -483q-6 -31 -34 -31h-93q-32 0 -26 31
l243 1376q6 31 33 31zM410 -268l-86 -158q-12 -23 -33 -23h-17q-20 0 -12 27l60 152h-46q-28 0 -22 28l20 115q2 29 31 29h111q28 0 26 -29l-20 -106q-1 -20 -12 -35z" />
    <glyph glyph-name="rcommaaccent" unicode="&#x157;" horiz-adv-x="540" 
d="M236 1094h86q30 0 24 -29l-27 -147q32 74 105 132q71 56 156 56q18 0 25 -6q7 -5 5 -25l-18 -104q-6 -27 -31 -27q-9 0 -21 1t-32 1q-77 0 -146 -95q-70 -95 -92 -218l-106 -604q-6 -29 -33 -29h-86q-31 0 -25 29l183 1036q6 29 33 29zM117 -260l-82 -154
q-12 -22 -33 -22h-16q-20 0 -13 26l60 148h-41q-27 0 -25 29l21 106q2 29 30 29h103q28 0 26 -29l-18 -98q-2 -17 -12 -35z" />
    <glyph glyph-name="Rcaron" unicode="&#x158;" horiz-adv-x="892" 
d="M297 657h137q145 0 211 68q66 67 96 248q17 94 17 143q0 100 -50 139t-171 39h-127zM309 1438h244q187 0 275 -71q87 -70 87 -232q0 -70 -16 -162q-68 -390 -332 -443l150 -493q10 -37 -27 -37h-90q-31 0 -37 25l-145 489h-146l-86 -483q-6 -31 -34 -31h-93q-32 0 -26 31
l243 1376q6 31 33 31zM645 1622l111 96q22 21 39 21h75q15 0 18 -9q3 -10 -7 -20l-168 -168q-18 -18 -41 -18h-78q-25 0 -37 18l-106 168q-17 29 14 29h67q22 0 35 -19z" />
    <glyph glyph-name="rcaron" unicode="&#x159;" horiz-adv-x="540" 
d="M236 1094h86q30 0 24 -29l-27 -147q32 74 105 132q71 56 156 56q18 0 25 -6q7 -5 5 -25l-18 -104q-6 -27 -31 -27q-9 0 -21 1t-32 1q-77 0 -146 -95q-70 -95 -92 -218l-106 -604q-6 -29 -33 -29h-86q-31 0 -25 29l183 1036q6 29 33 29zM432 1298l119 107q22 18 37 18h76
q14 0 17 -9t-7 -19l-174 -176q-19 -19 -41 -19h-78q-24 0 -37 19l-108 176q-16 28 14 28h67q23 0 33 -18z" />
    <glyph glyph-name="Sacute" unicode="&#x15a;" horiz-adv-x="757" 
d="M674 416q0 -190 -111 -312q-110 -120 -309 -120q-154 0 -227 24q-29 11 -25 39l12 78q6 36 41 25q92 -25 191 -25q120 0 196 78q76 77 76 205q0 78 -40 136q-40 57 -126 136q-174 162 -174 358q0 193 101 305q101 111 305 111q116 0 190 -20q31 -8 25 -39l-15 -78
q-6 -35 -43 -25q-68 21 -157 21q-116 0 -183 -72q-67 -71 -67 -192q0 -76 38 -134q35 -53 107 -122q195 -180 195 -377zM522 1548l105 164q17 25 37 25h129q16 0 19 -13q3 -12 -9 -20l-174 -162q-18 -18 -39 -18h-55q-13 0 -16 8t3 16z" />
    <glyph glyph-name="sacute" unicode="&#x15b;" horiz-adv-x="647" 
d="M563 342q0 -160 -92 -260q-91 -98 -260 -98q-136 0 -213 26q-27 6 -21 33l15 76q6 31 35 20q69 -26 180 -26q96 0 154 59q59 61 59 158q0 58 -33 95q-31 35 -113 97q-155 116 -155 264q0 156 87 240t249 84q100 0 178 -23q24 -6 18 -32l-12 -70q-6 -33 -35 -22
q-56 18 -139 18q-89 0 -146 -42t-57 -134q0 -51 32 -92t101 -92q168 -123 168 -279zM387 1225l105 164q16 24 36 24h129q17 0 20 -12q3 -13 -9 -21l-174 -161q-19 -19 -39 -19h-56q-12 0 -15 8q-4 9 3 17z" />
    <glyph glyph-name="Scircumflex" unicode="&#x15c;" horiz-adv-x="757" 
d="M674 416q0 -190 -111 -312q-110 -120 -309 -120q-154 0 -227 24q-29 11 -25 39l12 78q6 36 41 25q92 -25 191 -25q120 0 196 78q76 77 76 205q0 78 -40 136q-40 57 -126 136q-174 162 -174 358q0 193 101 305q101 111 305 111q116 0 190 -20q31 -8 25 -39l-15 -78
q-6 -35 -43 -25q-68 21 -157 21q-116 0 -183 -72q-67 -71 -67 -192q0 -76 38 -134q35 -53 107 -122q195 -180 195 -377zM668 1542l-78 98l-115 -98q-18 -18 -37 -18h-76q-14 0 -16 9t8 19l168 168q19 19 39 19h78q26 0 39 -19l106 -168q7 -10 3 -19q-5 -9 -19 -9h-68
q-20 0 -32 18z" />
    <glyph glyph-name="scircumflex" unicode="&#x15d;" horiz-adv-x="647" 
d="M563 342q0 -160 -92 -260q-91 -98 -260 -98q-136 0 -213 26q-27 6 -21 33l15 76q6 31 35 20q69 -26 180 -26q96 0 154 59q59 61 59 158q0 58 -33 95q-31 35 -113 97q-155 116 -155 264q0 156 87 240t249 84q100 0 178 -23q24 -6 18 -32l-12 -70q-6 -33 -35 -22
q-56 18 -139 18q-89 0 -146 -42t-57 -134q0 -51 32 -92t101 -92q168 -123 168 -279zM559 1219l-80 106l-121 -106q-19 -19 -36 -19h-76q-16 0 -17 9q-2 9 9 20l172 176q22 18 41 18h77q30 0 37 -18l111 -176q6 -11 2 -20t-19 -9h-67q-20 0 -33 19z" />
    <glyph glyph-name="Scedilla" unicode="&#x15e;" horiz-adv-x="757" 
d="M674 416q0 -171 -88 -286q-89 -116 -250 -140q88 -60 88 -150q0 -67 -46 -107t-124 -40q-65 0 -84 8q-18 7 -16 27l8 51q4 18 24 18h50q79 0 79 74q0 61 -65 113q-154 0 -223 24q-29 11 -25 39l12 78q6 36 41 25q92 -25 191 -25q120 0 196 78q76 77 76 205q0 78 -40 136
q-40 57 -126 136q-174 162 -174 358q0 193 101 305q101 111 305 111q116 0 190 -20q31 -8 25 -39l-15 -78q-6 -35 -43 -25q-68 21 -157 21q-116 0 -183 -72q-67 -71 -67 -192q0 -76 38 -134q35 -53 107 -122q195 -180 195 -377z" />
    <glyph glyph-name="scedilla" unicode="&#x15f;" horiz-adv-x="647" 
d="M563 342q0 -149 -80 -246q-79 -95 -225 -110q78 -51 80 -125q1 -72 -43 -112t-121 -40q-58 0 -82 8q-19 6 -14 25l10 49q2 19 21 19h47q77 0 77 65q0 59 -63 111q-106 1 -172 24q-27 6 -21 33l15 76q6 31 35 20q69 -26 180 -26q96 0 154 59q59 61 59 158q0 58 -33 95
q-31 35 -113 97q-155 116 -155 264q0 156 87 240t249 84q100 0 178 -23q24 -6 18 -32l-12 -70q-6 -33 -35 -22q-56 18 -139 18q-89 0 -146 -42t-57 -134q0 -51 32 -92t101 -92q168 -123 168 -279z" />
    <glyph glyph-name="Scaron" unicode="&#x160;" horiz-adv-x="757" 
d="M674 416q0 -190 -111 -312q-110 -120 -309 -120q-154 0 -227 24q-29 11 -25 39l12 78q6 36 41 25q92 -25 191 -25q120 0 196 78q76 77 76 205q0 78 -40 136q-40 57 -126 136q-174 162 -174 358q0 193 101 305q101 111 305 111q116 0 190 -20q31 -8 25 -39l-15 -78
q-6 -35 -43 -25q-68 21 -157 21q-116 0 -183 -72q-67 -71 -67 -192q0 -76 38 -134q35 -53 107 -122q195 -180 195 -377zM590 1622l110 96q22 21 39 21h76q15 0 18 -9t-8 -20l-168 -168q-18 -18 -41 -18h-77q-25 0 -37 18l-107 168q-17 29 15 29h67q22 0 35 -19z" />
    <glyph glyph-name="scaron" unicode="&#x161;" horiz-adv-x="647" 
d="M563 342q0 -160 -92 -260q-91 -98 -260 -98q-136 0 -213 26q-27 6 -21 33l15 76q6 31 35 20q69 -26 180 -26q96 0 154 59q59 61 59 158q0 58 -33 95q-31 35 -113 97q-155 116 -155 264q0 156 87 240t249 84q100 0 178 -23q24 -6 18 -32l-12 -70q-6 -33 -35 -22
q-56 18 -139 18q-89 0 -146 -42t-57 -134q0 -51 32 -92t101 -92q168 -123 168 -279zM465 1298l119 107q22 18 37 18h75q15 0 18 -9t-7 -19l-175 -176q-19 -19 -40 -19h-78q-24 0 -37 19l-109 176q-16 28 15 28h67q22 0 33 -18z" />
    <glyph glyph-name="Tcommaaccent" unicode="&#x162;" horiz-adv-x="739" 
d="M197 1325l14 82q2 31 31 31h587q36 0 31 -31l-14 -82q-6 -31 -37 -31h-217l-223 -1263q-6 -31 -35 -31h-92q-33 0 -27 31l223 1263h-217q-30 0 -24 31zM309 -268l-86 -158q-12 -23 -33 -23h-16q-20 0 -12 27l59 152h-45q-28 0 -22 28l20 115q2 29 31 29h110q29 0 27 -29
l-20 -106q-1 -18 -13 -35z" />
    <glyph glyph-name="tcommaaccent" unicode="&#x163;" horiz-adv-x="532" 
d="M539 958h-156l-117 -667q-10 -59 -10 -90q0 -44 19 -60t67 -16q10 0 53 6q13 2 19.5 -4.5t5.5 -20.5l-14 -73q-1 -27 -29 -33q-39 -10 -66 -10q-101 0 -150 42q-50 42 -50 140q0 41 10 104l121 682h-90q-27 0 -25 29l14 78q6 29 35 29h94l41 231q2 29 31 29h80
q29 0 27 -29l-41 -231h155q29 0 23 -29l-15 -78q-2 -29 -32 -29zM272 -260l-82 -154q-12 -22 -32 -22h-17q-19 0 -12 26l59 148h-41q-26 0 -24 29l20 106q2 29 31 29h102q29 0 27 -29l-18 -98q-1 -15 -13 -35z" />
    <glyph glyph-name="Tcaron" unicode="&#x164;" horiz-adv-x="739" 
d="M197 1325l14 82q2 31 31 31h587q36 0 31 -31l-14 -82q-6 -31 -37 -31h-217l-223 -1263q-6 -31 -35 -31h-92q-33 0 -27 31l223 1263h-217q-30 0 -24 31zM561 1622l111 96q22 21 39 21h75q15 0 18 -9q3 -10 -7 -20l-168 -168q-18 -18 -41 -18h-78q-25 0 -37 18l-106 168
q-17 29 14 29h68q21 0 34 -19z" />
    <glyph glyph-name="tcaron" unicode="&#x165;" horiz-adv-x="720" 
d="M539 958h-156l-117 -667q-10 -59 -10 -90q0 -44 19 -60t67 -16q10 0 53 6q13 2 19.5 -4.5t5.5 -20.5l-14 -73q-1 -27 -29 -33q-39 -10 -66 -10q-101 0 -150 42q-50 42 -50 140q0 41 10 104l121 682h-90q-27 0 -25 29l14 78q6 29 35 29h94l41 231q2 29 31 29h80
q29 0 27 -29l-41 -231h155q29 0 23 -29l-15 -78q-2 -29 -32 -29zM858 1284l-94 -184q-8 -21 -33 -21h-35q-24 0 -12 27l80 176h-35q-30 0 -24 29l26 147q6 29 31 29h106q33 0 27 -29l-25 -137q-2 -13 -12 -37z" />
    <glyph glyph-name="Tbar" unicode="&#x166;" horiz-adv-x="739" 
d="M197 1325l14 82q2 31 33 31h587q34 0 29 -31l-14 -82q-6 -31 -37 -31h-217l-92 -524h125q30 0 24 -29l-6 -39q-6 -28 -33 -28h-127l-114 -643q-6 -31 -35 -31h-92q-33 0 -27 31l115 643h-127q-31 0 -25 28l6 39q6 29 33 29h129l92 524h-217q-30 0 -24 31z" />
    <glyph glyph-name="tbar" unicode="&#x167;" horiz-adv-x="532" 
d="M539 958h-156l-64 -362h146q30 0 24 -29l-6 -39q-6 -28 -32 -28h-148l-37 -209q-10 -59 -10 -90q0 -44 19 -60t67 -16q10 0 53 6q13 2 19.5 -4.5t5.5 -20.5l-14 -73q-1 -27 -29 -33q-39 -10 -70 -10q-98 0 -146 42t-48 144q0 61 10 111l39 213h-90q-31 0 -25 28l6 39
q6 29 33 29h92l64 362h-90q-27 0 -25 29l14 78q6 29 33 29h96l41 231q2 29 31 29h80q29 0 27 -29l-41 -231h153q31 0 25 -29l-15 -78q-2 -29 -32 -29z" />
    <glyph glyph-name="Utilde" unicode="&#x168;" horiz-adv-x="933" 
d="M395 -16q-313 0 -313 292q0 75 14 144l174 987q5 31 33 31h92q31 0 29 -31l-172 -975q-14 -69 -14 -137q0 -91 38 -129q39 -39 130 -39q115 0 176 70q59 68 88 235l172 975q2 31 32 31h93q33 0 28 -31l-174 -987q-41 -232 -140 -334t-286 -102zM920 1649
q-22 -129 -140 -129q-66 0 -127 32l-47 25q-78 39 -94 -18l-6 -15q-6 -20 -31 -20h-41q-26 0 -20 37q21 129 139 129q64 0 127 -33l47 -25q78 -39 96 19l4 14q6 21 33 21h41q26 0 19 -37z" />
    <glyph glyph-name="utilde" unicode="&#x169;" horiz-adv-x="823" 
d="M66 336l129 729q6 29 32 29h86q31 0 25 -29l-127 -723q-10 -53 -10 -90q0 -131 123 -131q92 0 158 78q67 79 89 209l115 657q6 29 33 29h86q30 0 24 -29l-182 -1036q-6 -29 -33 -29h-86q-30 0 -24 29l18 104q-88 -149 -243 -149q-111 0 -167 65q-57 66 -57 182
q0 41 11 105zM801 1325q-12 -67 -43 -98t-92 -31q-67 0 -127 33l-43 24q-70 39 -88 -18l-5 -14q-7 -21 -32 -21h-41q-27 0 -21 37q11 67 41 98q31 31 92 31q67 0 127 -33l43 -24q72 -39 90 18l5 14q6 21 32 21h41q27 0 21 -37z" />
    <glyph glyph-name="Umacron" unicode="&#x16a;" horiz-adv-x="933" 
d="M395 -16q-313 0 -313 292q0 75 14 144l174 987q5 31 33 31h92q31 0 29 -31l-172 -975q-14 -69 -14 -137q0 -91 38 -129q39 -39 130 -39q115 0 176 70q59 68 88 235l172 975q2 31 32 31h93q33 0 28 -31l-174 -987q-41 -232 -140 -334t-286 -102zM858 1536h-405
q-31 0 -25 29l10 51q2 29 31 29h405q29 0 27 -29l-10 -51q-6 -29 -33 -29z" />
    <glyph glyph-name="umacron" unicode="&#x16b;" horiz-adv-x="823" 
d="M66 336l129 729q6 29 32 29h86q31 0 25 -29l-127 -723q-10 -53 -10 -90q0 -131 123 -131q92 0 158 78q67 79 89 209l115 657q6 29 33 29h86q30 0 24 -29l-182 -1036q-6 -29 -33 -29h-86q-30 0 -24 29l18 104q-88 -149 -243 -149q-111 0 -167 65q-57 66 -57 182
q0 41 11 105zM745 1208h-405q-31 0 -25 29l9 47q6 29 32 29h406q30 0 24 -29l-8 -47q-6 -29 -33 -29z" />
    <glyph glyph-name="Ubreve" unicode="&#x16c;" horiz-adv-x="933" 
d="M395 -16q-313 0 -313 292q0 75 14 144l174 987q5 31 33 31h92q31 0 29 -31l-172 -975q-14 -69 -14 -137q0 -91 38 -129q39 -39 130 -39q115 0 176 70q59 68 88 235l172 975q2 31 32 31h93q33 0 28 -31l-174 -987q-41 -232 -140 -334t-286 -102zM664 1518q-105 0 -156 52
q-52 53 -37 140q2 23 25 23h55q22 0 22 -23q-1 -45 21 -69q22 -23 76 -23q100 0 129 92q6 23 26 23h56q22 0 20 -23q-37 -192 -237 -192z" />
    <glyph glyph-name="ubreve" unicode="&#x16d;" horiz-adv-x="823" 
d="M66 336l129 729q6 29 32 29h86q31 0 25 -29l-127 -723q-10 -53 -10 -90q0 -131 123 -131q92 0 158 78q67 79 89 209l115 657q6 29 33 29h86q30 0 24 -29l-182 -1036q-6 -29 -33 -29h-86q-30 0 -24 29l18 104q-88 -149 -243 -149q-111 0 -167 65q-57 66 -57 182
q0 41 11 105zM547 1196q-105 0 -154 52q-50 53 -35 141q1 22 25 22h55q23 0 23 -22q-2 -46 20 -69q22 -24 76 -24q100 0 129 93q6 22 27 22h55q21 0 20 -22q-38 -193 -241 -193z" />
    <glyph glyph-name="Uring" unicode="&#x16e;" horiz-adv-x="933" 
d="M395 -16q-313 0 -313 292q0 75 14 144l174 987q5 31 33 31h92q31 0 29 -31l-172 -975q-14 -69 -14 -137q0 -91 38 -129q39 -39 130 -39q115 0 176 70q59 68 88 235l172 975q2 31 32 31h93q33 0 28 -31l-174 -987q-41 -232 -140 -334t-286 -102zM692 1761q-46 0 -75 -29
t-29 -79q0 -68 78 -68q44 0 75 29t31 76q0 71 -80 71zM500 1647q0 83 54 139q54 55 144 55q72 0 116 -42t44 -103q0 -83 -56 -136q-58 -55 -145 -55q-69 0 -113 41t-44 101z" />
    <glyph glyph-name="uring" unicode="&#x16f;" horiz-adv-x="823" 
d="M66 336l129 729q6 29 32 29h86q31 0 25 -29l-127 -723q-10 -53 -10 -90q0 -131 123 -131q92 0 158 78q67 79 89 209l115 657q6 29 33 29h86q30 0 24 -29l-182 -1036q-6 -29 -33 -29h-86q-30 0 -24 29l18 104q-88 -149 -243 -149q-111 0 -167 65q-57 66 -57 182
q0 41 11 105zM557 1268q46 0 74 28t28 78q0 30 -21 50q-22 20 -58 20q-44 0 -75 -28q-30 -27 -30 -75q0 -32 23 -53q21 -20 59 -20zM588 1524q69 0 114 -42q46 -43 46 -102q0 -83 -55 -138q-54 -54 -144 -54q-73 0 -116 43q-44 44 -44 104q0 83 55 135q57 54 144 54z" />
    <glyph glyph-name="Uhungarumlaut" unicode="&#x170;" horiz-adv-x="933" 
d="M395 -16q-313 0 -313 292q0 75 14 144l174 987q5 31 33 31h92q31 0 29 -31l-172 -975q-14 -69 -14 -137q0 -91 38 -129q39 -39 130 -39q115 0 176 70q59 68 88 235l172 975q2 31 32 31h93q33 0 28 -31l-174 -987q-41 -232 -140 -334t-286 -102zM489 1548l101 164
q12 25 39 25h102q15 0 17 -12q1 -11 -9 -21l-145 -162q-16 -18 -39 -18h-55q-28 0 -11 24zM739 1548l99 164q17 25 39 25h102q17 0 18 -12t-8 -21l-145 -162q-16 -18 -41 -18h-53q-26 0 -11 24z" />
    <glyph glyph-name="uhungarumlaut" unicode="&#x171;" horiz-adv-x="823" 
d="M66 336l129 729q6 29 32 29h86q31 0 25 -29l-127 -723q-10 -53 -10 -90q0 -131 123 -131q92 0 158 78q67 79 89 209l115 657q6 29 33 29h86q30 0 24 -29l-182 -1036q-6 -29 -33 -29h-86q-30 0 -24 29l18 104q-88 -149 -243 -149q-111 0 -167 65q-57 66 -57 182
q0 41 11 105zM358 1225l101 164q12 24 39 24h98q9 0 14 -5q4 -4 2 -12t-8 -16l-145 -161q-17 -19 -39 -19h-51q-28 0 -11 25zM604 1225l98 164q15 24 39 24h99q16 0 19 -11q3 -12 -9 -22l-145 -161q-16 -19 -41 -19h-50q-27 0 -10 25z" />
    <glyph glyph-name="Uogonek" unicode="&#x172;" horiz-adv-x="933" 
d="M459 16h80q-156 -86 -156 -174q0 -45 66 -45q5 0 25 2t22 2q16 0 16 -14l-2 -53q-1 -20 -21 -27q-38 -16 -81 -16q-64 0 -103 30t-39 84q0 106 127 179q-155 1 -233 72q-78 70 -78 218q0 77 14 146l174 987q5 31 33 31h92q31 0 29 -31l-172 -975q-14 -69 -14 -137
q0 -91 38 -129q39 -39 130 -39q115 0 176 70q59 68 88 235l172 975q2 31 32 31h93q33 0 28 -31l-174 -987q-41 -232 -140 -334t-286 -102h-2q11 7 66 32z" />
    <glyph glyph-name="uogonek" unicode="&#x173;" horiz-adv-x="823" 
d="M66 336l129 729q6 29 32 29h86q31 0 25 -29l-127 -723q-10 -53 -10 -90q0 -131 123 -131q92 0 158 78q67 79 89 209l115 657q6 29 33 29h86q30 0 24 -29l-182 -1036q-6 -29 -33 -29h-2q-125 -72 -125 -154q0 -36 62 -36q4 0 24 2t21 2q16 0 16 -15l-2 -51q-2 -21 -18 -27
q-31 -14 -72 -14q-143 0 -143 92q0 118 155 201h-2q-30 0 -24 29l18 104q-88 -149 -243 -149q-111 0 -167 65q-57 66 -57 182q0 41 11 105z" />
    <glyph glyph-name="Wcircumflex" unicode="&#x174;" horiz-adv-x="1482" 
d="M856 1438h102q32 0 37 -31l11 -852l-2 -373h4l120 373l302 852q11 31 34 31h103q32 0 20 -33l-500 -1370q-15 -35 -45 -35h-131q-37 0 -37 35l-18 762l6 350h-4l-119 -350l-286 -762q-12 -35 -45 -35h-132q-31 0 -36 35l-17 1370q0 33 29 33h98q26 0 31 -31l-2 -852
l-10 -373h4l129 373l313 852q8 31 41 31zM1030 1542l-78 98l-114 -98q-18 -18 -37 -18h-76q-15 0 -16 9q-2 9 8 19l168 168q19 19 39 19h77q26 0 39 -19l107 -168q7 -10 3 -19t-20 -9h-67q-21 0 -33 18z" />
    <glyph glyph-name="wcircumflex" unicode="&#x175;" horiz-adv-x="1187" 
d="M653 1094h95q28 0 28 -29l12 -659v-230h5l69 230l234 659q12 29 37 29h90q30 0 18 -31l-385 -1034q-12 -29 -41 -29h-104q-33 0 -33 29l-16 573l4 266h-4l-91 -266l-217 -573q-12 -29 -41 -29h-104q-33 0 -33 29l-20 1034q0 31 26 31h86q29 0 29 -29v-659l-8 -230h4
l78 230l245 659q12 29 37 29zM829 1219l-79 106l-121 -106q-19 -19 -37 -19h-76q-14 0 -16 9q-2 10 8 20l172 176q21 18 41 18h78q29 0 37 -18l110 -176q6 -11 2 -20t-18 -9h-68q-20 0 -33 19z" />
    <glyph glyph-name="Ycircumflex" unicode="&#x176;" horiz-adv-x="899" 
d="M541 549l-92 -518q-6 -31 -35 -31h-92q-33 0 -27 31l92 518l-178 854q-5 35 27 35h98q27 0 35 -29l88 -483l32 -215h3l106 215l260 483q15 29 39 29h102q18 0 23 -12q4 -10 -4 -23zM737 1542l-78 98l-114 -98q-18 -18 -37 -18h-76q-14 0 -16 9t8 19l168 168q19 19 39 19
h78q26 0 39 -19l106 -168q7 -10 3 -19q-5 -9 -19 -9h-68q-21 0 -33 18z" />
    <glyph glyph-name="ycircumflex" unicode="&#x177;" horiz-adv-x="745" 
d="M811 1063l-395 -979q-71 -177 -140 -250q-68 -72 -206 -72q-65 0 -97 13q-23 8 -18 32l12 72q6 32 35 27q59 -10 84 -10q81 0 111 54t24 134l-74 979q0 31 27 31h90q29 0 29 -29l35 -659l4 -218h4l74 218l252 659q12 29 36 29h95q30 0 18 -31zM608 1219l-80 106
l-120 -106q-19 -19 -37 -19h-76q-15 0 -16 9q-2 10 8 20l172 176q21 18 41 18h78q28 0 36 -18l111 -176q6 -11 2 -20q-5 -9 -18 -9h-68q-20 0 -33 19z" />
    <glyph glyph-name="Ydieresis" unicode="&#x178;" horiz-adv-x="899" 
d="M541 549l-92 -518q-6 -31 -35 -31h-92q-33 0 -27 31l92 518l-178 854q-5 35 27 35h98q27 0 35 -29l88 -483l32 -215h3l106 215l260 483q15 29 39 29h102q18 0 23 -12q4 -10 -4 -23zM602 1653l-18 -101q-6 -28 -33 -28h-98q-31 0 -25 28l18 101q6 28 31 28h98q33 0 27 -28
zM868 1653l-18 -101q-6 -28 -33 -28h-98q-31 0 -25 28l19 101q6 28 30 28h99q32 0 26 -28z" />
    <glyph glyph-name="Zacute" unicode="&#x179;" horiz-adv-x="798" 
d="M-8 31l14 82q1 6 21 43l675 1138h-436q-30 0 -24 31l14 82q2 31 33 31h569q31 0 29 -31l-15 -80q-5 -23 -20 -45l-676 -1139h465q31 0 25 -30l-15 -82q-6 -31 -35 -31h-598q-32 0 -26 31zM543 1548l104 164q17 25 37 25h129q17 0 20 -13q3 -12 -10 -20l-174 -162
q-18 -18 -39 -18h-55q-12 0 -15 8t3 16z" />
    <glyph glyph-name="zacute" unicode="&#x17a;" horiz-adv-x="708" 
d="M729 1065l-10 -57q-1 -18 -17 -41l-526 -832h365q28 0 26 -29l-14 -77q-6 -29 -33 -29h-500q-30 0 -24 29l10 55q1 14 17 39l526 835h-350q-27 0 -25 29l14 78q6 29 33 29h484q30 0 24 -29zM438 1225l105 164q15 24 37 24h129q16 0 19 -12q3 -13 -9 -21l-174 -161
q-19 -19 -39 -19h-55q-13 0 -16 8q-4 9 3 17z" />
    <glyph glyph-name="Zdotaccent" unicode="&#x17b;" horiz-adv-x="798" 
d="M-8 31l14 82q1 6 21 43l675 1138h-436q-30 0 -24 31l14 82q2 31 33 31h569q31 0 29 -31l-15 -80q-5 -23 -20 -45l-676 -1139h465q31 0 25 -30l-15 -82q-6 -31 -35 -31h-598q-32 0 -26 31zM700 1657l-18 -105q-6 -28 -33 -28h-102q-31 0 -25 28l19 105q6 29 32 29h103
q30 0 24 -29z" />
    <glyph glyph-name="zdotaccent" unicode="&#x17c;" horiz-adv-x="708" 
d="M729 1065l-10 -57q-1 -18 -17 -41l-526 -832h365q28 0 26 -29l-14 -77q-6 -29 -33 -29h-500q-30 0 -24 29l10 55q1 14 17 39l526 835h-350q-27 0 -25 29l14 78q6 29 33 29h484q30 0 24 -29zM586 1333l-19 -104q-2 -29 -32 -29h-103q-26 0 -24 29l18 104q6 29 33 29h102
q31 0 25 -29z" />
    <glyph glyph-name="Zcaron" unicode="&#x17d;" horiz-adv-x="798" 
d="M-8 31l14 82q1 6 21 43l675 1138h-436q-30 0 -24 31l14 82q2 31 33 31h569q31 0 29 -31l-15 -80q-5 -23 -20 -45l-676 -1139h465q31 0 25 -30l-15 -82q-6 -31 -35 -31h-598q-32 0 -26 31zM621 1622l110 96q23 21 39 21h76q14 0 17 -9q3 -10 -7 -20l-168 -168
q-18 -18 -41 -18h-78q-25 0 -37 18l-106 168q-17 29 14 29h68q22 0 35 -19z" />
    <glyph glyph-name="zcaron" unicode="&#x17e;" horiz-adv-x="708" 
d="M729 1065l-10 -57q-1 -18 -17 -41l-526 -832h365q28 0 26 -29l-14 -77q-6 -29 -33 -29h-500q-30 0 -24 29l10 55q1 14 17 39l526 835h-350q-27 0 -25 29l14 78q6 29 33 29h484q30 0 24 -29zM496 1298l118 107q21 18 37 18h76q14 0 17 -9t-7 -19l-174 -176
q-19 -19 -41 -19h-78q-23 0 -36 19l-109 176q-16 28 14 28h68q25 0 33 -18z" />
    <glyph glyph-name="longs" unicode="&#x17f;" horiz-adv-x="458" 
d="M428 1163l-201 -1134q-6 -29 -30 -29h-86q-31 0 -25 29l164 929h-90q-27 0 -25 29l15 78q6 29 32 29h92l13 75q28 151 89 215t179 64q59 0 92 -12q18 -6 12 -31l-10 -66q-6 -26 -33 -26q-2 0 -5 0.5t-9 1t-11 0.5q-26 2 -30 2q-61 0 -90 -32q-28 -31 -43 -122z" />
    <glyph glyph-name="florin" unicode="&#x192;" horiz-adv-x="983" 
d="M737 1141l-102 -334h182q31 0 25 -29l-21 -65q-8 -29 -37 -29h-188l-203 -661q-44 -148 -105 -203q-64 -58 -186 -58q-59 0 -88 9q-21 6 -14 32l23 74q8 29 38 27q29 -4 41 -4q63 0 96 32t56 109l197 643h-121q-29 0 -21 29l21 65q6 29 32 29h127l111 356q50 166 115 228
q66 63 190 63q76 0 105 -10q22 -7 14 -31l-18 -61q-11 -33 -41 -27q-19 4 -50 4q-72 0 -109 -43q-40 -46 -69 -145z" />
    <glyph glyph-name="Aringacute" unicode="&#x1fa;" horiz-adv-x="942" 
d="M477 1503q0 73 42 126t114 65l84 131q17 24 37 24h129q16 0 19 -11t-9 -21l-143 -134q86 -39 86 -131q0 -113 -97 -166l78 -1353q5 -33 -31 -33h-88q-28 0 -28 29l-21 360h-377l-147 -360q-12 -29 -37 -29h-96q-34 0 -23 33l557 1364q-49 39 -49 106zM330 528h311
l-25 729h-4zM670 1618q-45 0 -75 -30t-30 -79q0 -67 78 -67q47 0 76 28q31 29 31 76q0 72 -80 72z" />
    <glyph glyph-name="aringacute" unicode="&#x1fb;" horiz-adv-x="778" 
d="M739 784l-133 -755q-6 -29 -33 -29h-77q-31 0 -25 29l21 114q-94 -155 -252 -155q-105 0 -163 64q-59 65 -59 169q0 237 149 341q148 103 415 114l18 108q6 38 6 68q0 125 -139 125q-118 0 -231 -43q-10 -4 -21 2q-9 5 -8 20l14 78q5 28 31 35q112 41 237 41
q261 0 261 -225q0 -37 -11 -101zM530 393l29 164q-180 -7 -290 -77q-109 -69 -109 -238q0 -125 119 -125q89 0 160 80q70 79 91 196zM367 1335q0 68 40 117q41 50 105 66l82 127q16 24 37 24h129q16 0 19 -11q3 -12 -9 -22l-135 -125q90 -37 90 -131q0 -84 -54 -138
t-145 -54q-72 0 -115 43q-44 44 -44 104zM535 1268q45 0 73 28q29 29 29 78q0 30 -22 50t-58 20q-44 0 -75 -28q-29 -26 -29 -75q0 -32 22 -53q21 -20 60 -20z" />
    <glyph glyph-name="AEacute" unicode="&#x1fc;" horiz-adv-x="1208" 
d="M1114 666h-344l-92 -523h362q33 0 27 -30l-14 -82q-6 -31 -35 -31h-488q-32 0 -26 31l63 358h-297l-170 -360q-15 -29 -39 -29h-96q-35 0 -20 33l649 1372q15 33 47 33h621q33 0 28 -31l-14 -82q-6 -31 -37 -31h-358l-86 -489h342q32 0 26 -31l-14 -78q-1 -30 -35 -30z
M338 528h254l139 766h-47zM748 1548l104 164q17 25 37 25h129q16 0 19 -13q3 -12 -9 -20l-174 -162q-18 -18 -39 -18h-55q-13 0 -16 8q-3 7 4 16z" />
    <glyph glyph-name="aeacute" unicode="&#x1fd;" horiz-adv-x="1220" 
d="M860 113q70 0 166 30q12 5 22 -2q8 -6 7 -22l-13 -70q-6 -27 -34 -37q-88 -28 -162 -28q-246 0 -275 219q-114 -215 -315 -215q-111 0 -175 64q-65 65 -65 167q0 115 42 197q41 81 122 127q79 45 172 66q94 22 213 26l27 149q6 33 6 66q0 127 -133 127q-116 0 -229 -43
q-14 -4 -24 2q-9 6 -5 20l14 78q6 27 31 35q112 41 235 41q188 0 215 -139q91 139 256 139q118 0 179 -79t61 -218q0 -81 -18 -180l-19 -107q-6 -28 -39 -28h-446q-10 -74 -10 -127q0 -258 194 -258zM942 981q-168 0 -244 -354h336l4 14q17 57 17 168q0 172 -113 172z
M522 393l23 123q-64 -2 -113 -9q-47 -7 -102 -26q-53 -18 -88 -47t-59 -80q-23 -49 -23 -118q0 -119 129 -119q87 0 150 79q62 78 83 197zM676 1225l104 164q15 24 37 24h129q17 0 20 -12q3 -13 -10 -21l-174 -161q-19 -19 -39 -19h-55q-12 0 -15 8q-4 9 3 17z" />
    <glyph glyph-name="Oslashacute" unicode="&#x1fe;" horiz-adv-x="999" 
d="M662 1454q192 0 270 -131l76 100q22 25 41 11l43 -27q23 -15 2 -39l-121 -162q16 -74 16 -162q0 -140 -33 -325q-69 -402 -195 -569q-126 -166 -335 -166q-190 0 -268 135l-78 -105q-21 -24 -41 -10l-43 27q-21 12 -4 39l123 163q-17 80 -17 173q0 138 31 313
q72 402 198 569q126 166 335 166zM438 123q133 0 218 133q86 135 143 463q31 178 35 307l-570 -760q33 -143 174 -143zM287 719q-35 -195 -35 -307l569 759q-30 144 -172 144q-133 0 -217 -132q-83 -131 -145 -464zM623 1548l104 164q17 25 37 25h129q16 0 19 -13
q3 -12 -9 -20l-174 -162q-18 -18 -39 -18h-55q-12 0 -15 8t3 16z" />
    <glyph glyph-name="oslashacute" unicode="&#x1ff;" horiz-adv-x="839" 
d="M346 -16q-139 0 -211 90l-47 -64q-17 -25 -39 -10l-37 23q-22 12 -2 38l78 105q-20 64 -20 166q0 106 20 215q50 290 154 426q105 137 278 137q142 0 211 -88l47 61q19 26 41 11l35 -23q20 -15 2 -39l-78 -104q23 -74 23 -166q0 -101 -21 -215q-51 -291 -155 -426
q-105 -137 -279 -137zM356 115q103 0 169 102q68 105 108 330q22 116 22 219v2l-428 -567q33 -86 129 -86zM236 547q-25 -139 -25 -221l426 565q-33 88 -127 88q-103 0 -169 -102t-105 -330zM485 1225l105 164q16 24 37 24h129q16 0 19 -12q3 -13 -9 -21l-174 -161
q-19 -19 -39 -19h-55q-13 0 -16 8q-4 9 3 17z" />
    <glyph glyph-name="Scommaaccent" unicode="&#x218;" horiz-adv-x="757" 
d="M674 416q0 -190 -111 -312q-110 -120 -309 -120q-154 0 -227 24q-29 11 -25 39l12 78q6 36 41 25q92 -25 191 -25q120 0 196 78q76 77 76 205q0 78 -40 136q-40 57 -126 136q-174 162 -174 358q0 193 101 305q101 111 305 111q116 0 190 -20q31 -8 25 -39l-15 -78
q-6 -35 -43 -25q-68 21 -157 21q-116 0 -183 -72q-67 -71 -67 -192q0 -76 38 -134q35 -53 107 -122q195 -180 195 -377zM305 -268l-86 -158q-12 -23 -33 -23h-16q-19 0 -12 27l59 152h-45q-28 0 -22 28l20 115q2 29 31 29h110q29 0 27 -29l-21 -106q-1 -20 -12 -35z" />
    <glyph glyph-name="scommaaccent" unicode="&#x219;" horiz-adv-x="647" 
d="M563 342q0 -160 -92 -260q-91 -98 -260 -98q-136 0 -213 26q-27 6 -21 33l15 76q6 31 35 20q69 -26 180 -26q96 0 154 59q59 61 59 158q0 58 -33 95q-31 35 -113 97q-155 116 -155 264q0 156 87 240t249 84q100 0 178 -23q24 -6 18 -32l-12 -70q-6 -33 -35 -22
q-56 18 -139 18q-89 0 -146 -42t-57 -134q0 -51 32 -92t101 -92q168 -123 168 -279zM268 -260l-82 -154q-12 -22 -32 -22h-17q-19 0 -12 26l59 148h-41q-26 0 -24 29l20 106q2 29 31 29h102q29 0 27 -29l-18 -98q-1 -15 -13 -35z" />
    <glyph glyph-name="uni021A" unicode="&#x21a;" horiz-adv-x="739" 
d="M197 1325l14 82q2 31 31 31h587q36 0 31 -31l-14 -82q-6 -31 -37 -31h-217l-223 -1263q-6 -31 -35 -31h-92q-33 0 -27 31l223 1263h-217q-30 0 -24 31zM309 -268l-86 -158q-12 -23 -33 -23h-16q-20 0 -12 27l59 152h-45q-28 0 -22 28l20 115q2 29 31 29h110q29 0 27 -29
l-20 -106q-1 -18 -13 -35z" />
    <glyph glyph-name="uni021B" unicode="&#x21b;" horiz-adv-x="532" 
d="M539 958h-156l-117 -667q-10 -59 -10 -90q0 -44 19 -60t67 -16q10 0 53 6q13 2 19.5 -4.5t5.5 -20.5l-14 -73q-1 -27 -29 -33q-39 -10 -66 -10q-101 0 -150 42q-50 42 -50 140q0 41 10 104l121 682h-90q-27 0 -25 29l14 78q6 29 35 29h94l41 231q2 29 31 29h80
q29 0 27 -29l-41 -231h155q29 0 23 -29l-15 -78q-2 -29 -32 -29zM272 -260l-82 -154q-12 -22 -32 -22h-17q-19 0 -12 26l59 148h-41q-26 0 -24 29l20 106q2 29 31 29h102q29 0 27 -29l-18 -98q-1 -15 -13 -35z" />
    <glyph glyph-name="dotlessj" unicode="&#x237;" horiz-adv-x="376" 
d="M47 14l184 1051q6 29 33 29h86q31 0 25 -29l-187 -1063q-23 -132 -71 -183q-49 -52 -154 -52q-32 0 -72 8q-24 6 -18 30l12 72q6 29 33 27q20 -2 39 -2q36 0 57 22t33 90z" />
    <glyph glyph-name="circumflex" unicode="&#x2c6;" horiz-adv-x="520" 
d="M496 1219l-80 106l-121 -106q-19 -19 -37 -19h-76q-14 0 -16 9q-2 10 8 20l172 176q22 18 41 18h78q27 0 37 -18l110 -176q6 -11 2 -20t-18 -9h-68q-19 0 -32 19z" />
    <glyph glyph-name="caron" unicode="&#x2c7;" horiz-adv-x="520" 
d="M401 1298l119 107q21 18 37 18h76q14 0 17 -9t-7 -19l-174 -176q-19 -19 -41 -19h-78q-24 0 -37 19l-108 176q-16 28 14 28h68q25 0 32 -18z" />
    <glyph glyph-name="uni02C9" unicode="&#x2c9;" horiz-adv-x="520" 
d="M594 1208h-406q-30 0 -24 29l8 47q6 29 33 29h405q31 0 25 -29l-8 -47q-6 -29 -33 -29z" />
    <glyph glyph-name="breve" unicode="&#x2d8;" horiz-adv-x="520" 
d="M395 1196q-104 0 -153 52q-50 53 -35 141q1 22 24 22h56q22 0 22 -22q-1 -45 21 -69t76 -24q100 0 129 93q6 22 26 22h55q22 0 21 -22q-38 -193 -242 -193z" />
    <glyph glyph-name="dotaccent" unicode="&#x2d9;" horiz-adv-x="520" 
d="M492 1333l-19 -104q-2 -29 -33 -29h-102q-27 0 -25 29l19 104q6 29 33 29h102q31 0 25 -29z" />
    <glyph glyph-name="ring" unicode="&#x2da;" horiz-adv-x="520" 
d="M406 1268q45 0 73 28q29 29 29 78q0 30 -22 50t-58 20q-44 0 -75 -28q-29 -26 -29 -75q0 -32 22 -53q21 -20 60 -20zM436 1524q70 0 115 -42t45 -102q0 -84 -54 -138t-145 -54q-72 0 -115 43q-44 44 -44 104q0 83 55 135q57 54 143 54z" />
    <glyph glyph-name="ogonek" unicode="&#x2db;" horiz-adv-x="520" 
d="M197 16h75q-39 -21 -68 -42t-56 -54q-29 -36 -29 -74q0 -36 61 -36q5 0 25 2q4 0 8.5 0.5t7 1t4.5 0.5q17 0 17 -15l-2 -51q-1 -21 -19 -27q-31 -14 -71 -14q-144 0 -144 92q0 70 55 125q53 53 136 92z" />
    <glyph glyph-name="tilde" unicode="&#x2dc;" horiz-adv-x="520" 
d="M649 1325q-12 -67 -43 -98t-92 -31q-67 0 -127 33l-43 24q-70 39 -88 -18l-4 -14q-8 -21 -33 -21h-41q-26 0 -20 37q10 67 41 98t92 31q67 0 127 -33l43 -24q72 -39 90 18l4 14q6 21 33 21h41q26 0 20 -37z" />
    <glyph glyph-name="hungarumlaut" unicode="&#x2dd;" horiz-adv-x="520" 
d="M223 1225l101 164q12 24 38 24h99q9 0 14 -5q4 -4 2 -12t-8 -16l-145 -161q-17 -19 -39 -19h-52q-27 0 -10 25zM469 1225l98 164q15 24 39 24h99q16 0 19 -11q3 -12 -9 -22l-146 -161q-16 -19 -41 -19h-49q-27 0 -10 25z" />
    <glyph glyph-name="uni037E" unicode="&#x37e;" horiz-adv-x="360" 
d="M96 463l27 147q2 29 31 29h106q29 0 27 -29l-27 -147q-6 -29 -33 -29h-106q-31 0 -25 29z" />
    <glyph glyph-name="uni0394" unicode="&#x394;" horiz-adv-x="1015" 
d="M602 1438h148q34 0 34 -35l58 -1358q4 -45 -43 -45h-746q-47 0 -30 45l536 1358q12 35 43 35zM649 1276l-434 -1137h475l-33 1137h-8z" />
    <glyph glyph-name="uni03A9" unicode="&#x3a9;" horiz-adv-x="1126" 
d="M721 1456q203 0 306 -114q103 -113 103 -314q0 -224 -97 -433q-98 -210 -275 -343l-21 -115l170 10q15 2 23 -6t4 -20l-16 -92q-6 -29 -33 -29h-320l47 279q4 22 31 40q158 107 244 304q86 198 86 405q0 289 -260 289q-113 0 -198 -60q-84 -59 -131 -154
q-46 -94 -69 -200q-22 -103 -22 -213q0 -246 137 -371q18 -18 14 -40l-47 -279h-319q-31 0 -25 29l17 92q6 27 34 26l166 -10l25 137q-160 148 -160 416q0 134 34 263q35 132 100 246q65 115 184 186q118 71 268 71z" />
    <glyph glyph-name="uni03BC" unicode="&#x3bc;" horiz-adv-x="827" 
d="M838 1065l-131 -741q-60 -340 -306 -340q-93 0 -149 44q-55 43 -70 105l-57 -330q-6 -28 -35 -28h-86q-28 0 -22 28l221 1262q6 29 33 29h86q30 0 24 -29l-115 -657q-8 -46 -8 -91q0 -92 40 -144t114 -52q84 0 127 55q42 53 63 166l127 723q6 29 33 29h86q31 0 25 -29z
" />
    <glyph glyph-name="pi" unicode="&#x3c0;" horiz-adv-x="995" 
d="M862 961l-127 -717q-12 -73 3 -100t69 -27q30 0 49 4q17 2 24 -4q7 -5 5 -23l-13 -63q-2 -24 -28 -31q-33 -10 -92 -10q-168 0 -168 157q0 41 8 84l129 730h-232l-305 -932q-11 -29 -34 -29h-93q-31 0 -20 29l309 932h-149q-29 0 -23 28l12 76q6 29 33 29h803
q31 0 25 -29l-13 -76q-6 -28 -35 -28h-137z" />
    <glyph glyph-name="Wgrave" unicode="&#x1e80;" horiz-adv-x="1482" 
d="M856 1438h102q32 0 37 -31l11 -852l-2 -373h4l120 373l302 852q11 31 34 31h103q32 0 20 -33l-500 -1370q-15 -35 -45 -35h-131q-37 0 -37 35l-18 762l6 350h-4l-119 -350l-286 -762q-12 -35 -45 -35h-132q-31 0 -36 35l-17 1370q0 33 29 33h98q26 0 31 -31l-2 -852
l-10 -373h4l129 373l313 852q8 31 41 31zM932 1712l47 -164q4 -9 -2 -17q-6 -7 -19 -7h-55q-23 0 -35 18l-116 162q-8 8 -3 20q5 13 21 13h129q25 0 33 -25z" />
    <glyph glyph-name="wgrave" unicode="&#x1e81;" horiz-adv-x="1187" 
d="M653 1094h95q28 0 28 -29l12 -659v-230h5l69 230l234 659q12 29 37 29h90q30 0 18 -31l-385 -1034q-12 -29 -41 -29h-104q-33 0 -33 29l-16 573l4 266h-4l-91 -266l-217 -573q-12 -29 -41 -29h-104q-33 0 -33 29l-20 1034q0 31 26 31h86q29 0 29 -29v-659l-8 -230h4
l78 230l245 659q12 29 37 29zM719 1389l55 -164q4 -10 -2 -18q-6 -7 -18 -7h-47q-22 0 -35 19l-125 161q-8 8 -3 21q4 12 21 12h121q22 0 33 -24z" />
    <glyph glyph-name="Wacute" unicode="&#x1e82;" horiz-adv-x="1482" 
d="M856 1438h102q32 0 37 -31l11 -852l-2 -373h4l120 373l302 852q11 31 34 31h103q32 0 20 -33l-500 -1370q-15 -35 -45 -35h-131q-37 0 -37 35l-18 762l6 350h-4l-119 -350l-286 -762q-12 -35 -45 -35h-132q-31 0 -36 35l-17 1370q0 33 29 33h98q26 0 31 -31l-2 -852
l-10 -373h4l129 373l313 852q8 31 41 31zM885 1548l104 164q17 25 37 25h129q17 0 20 -13q3 -12 -10 -20l-174 -162q-18 -18 -39 -18h-55q-12 0 -15 8t3 16z" />
    <glyph glyph-name="wacute" unicode="&#x1e83;" horiz-adv-x="1187" 
d="M653 1094h95q28 0 28 -29l12 -659v-230h5l69 230l234 659q12 29 37 29h90q30 0 18 -31l-385 -1034q-12 -29 -41 -29h-104q-33 0 -33 29l-16 573l4 266h-4l-91 -266l-217 -573q-12 -29 -41 -29h-104q-33 0 -33 29l-20 1034q0 31 26 31h86q29 0 29 -29v-659l-8 -230h4
l78 230l245 659q12 29 37 29zM678 1225l104 164q16 24 37 24h129q17 0 20 -12q3 -13 -10 -21l-174 -161q-19 -19 -39 -19h-55q-12 0 -15 8q-4 9 3 17z" />
    <glyph glyph-name="Wdieresis" unicode="&#x1e84;" horiz-adv-x="1482" 
d="M856 1438h102q32 0 37 -31l11 -852l-2 -373h4l120 373l302 852q11 31 34 31h103q32 0 20 -33l-500 -1370q-15 -35 -45 -35h-131q-37 0 -37 35l-18 762l6 350h-4l-119 -350l-286 -762q-12 -35 -45 -35h-132q-31 0 -36 35l-17 1370q0 33 29 33h98q26 0 31 -31l-2 -852
l-10 -373h4l129 373l313 852q8 31 41 31zM895 1653l-18 -101q-6 -28 -33 -28h-99q-30 0 -24 28l18 101q6 28 31 28h98q33 0 27 -28zM1161 1653l-18 -101q-6 -28 -33 -28h-98q-31 0 -25 28l19 101q6 28 30 28h99q32 0 26 -28z" />
    <glyph glyph-name="wdieresis" unicode="&#x1e85;" horiz-adv-x="1187" 
d="M653 1094h95q28 0 28 -29l12 -659v-230h5l69 230l234 659q12 29 37 29h90q30 0 18 -31l-385 -1034q-12 -29 -41 -29h-104q-33 0 -33 29l-16 573l4 266h-4l-91 -266l-217 -573q-12 -29 -41 -29h-104q-33 0 -33 29l-20 1034q0 31 26 31h86q29 0 29 -29v-659l-8 -230h4
l78 230l245 659q12 29 37 29zM690 1329l-18 -100q-2 -29 -33 -29h-94q-27 0 -25 29l19 100q6 29 30 29h95q32 0 26 -29zM952 1329l-18 -100q-2 -29 -33 -29h-94q-27 0 -25 29l19 100q6 29 30 29h95q32 0 26 -29z" />
    <glyph glyph-name="Ygrave" unicode="&#x1ef2;" horiz-adv-x="899" 
d="M541 549l-92 -518q-6 -31 -35 -31h-92q-33 0 -27 31l92 518l-178 854q-5 35 27 35h98q27 0 35 -29l88 -483l32 -215h3l106 215l260 483q15 29 39 29h102q18 0 23 -12q4 -10 -4 -23zM639 1712l47 -164q4 -9 -2 -17q-6 -7 -18 -7h-56q-23 0 -35 18l-116 162q-8 8 -3 20
q5 13 21 13h129q25 0 33 -25z" />
    <glyph glyph-name="ygrave" unicode="&#x1ef3;" horiz-adv-x="745" 
d="M811 1063l-395 -979q-71 -177 -140 -250q-68 -72 -206 -72q-65 0 -97 13q-23 8 -18 32l12 72q6 32 35 27q59 -10 84 -10q81 0 111 54t24 134l-74 979q0 31 27 31h90q29 0 29 -29l35 -659l4 -218h4l74 218l252 659q12 29 36 29h95q30 0 18 -31zM498 1389l55 -164
q4 -10 -2 -18q-6 -7 -19 -7h-47q-21 0 -34 19l-125 161q-8 8 -3 21q5 12 21 12h121q23 0 33 -24z" />
    <glyph glyph-name="figuredash" unicode="&#x2012;" horiz-adv-x="839" 
d="M715 510h-580q-26 0 -20 27l12 71q1 27 31 27h577q29 0 27 -27l-12 -71q-6 -27 -35 -27z" />
    <glyph glyph-name="endash" unicode="&#x2013;" horiz-adv-x="749" 
d="M655 489h-555q-28 0 -22 27l12 72q6 26 31 26h553q32 0 26 -26l-12 -72q-6 -27 -33 -27z" />
    <glyph glyph-name="emdash" unicode="&#x2014;" horiz-adv-x="1097" 
d="M1004 489h-904q-28 0 -22 27l12 72q6 26 31 26h901q33 0 27 -26l-13 -72q-6 -27 -32 -27z" />
    <glyph glyph-name="quoteleft" unicode="&#x2018;" horiz-adv-x="348" 
d="M236 1239l94 184q8 21 30 21h35q28 0 13 -27l-78 -176h32q29 0 27 -29l-27 -147q-6 -29 -32 -29h-107q-30 0 -24 29l24 137q1 10 13 37z" />
    <glyph glyph-name="quoteright" unicode="&#x2019;" horiz-adv-x="348" 
d="M383 1237l-94 -184q-7 -21 -33 -21h-35q-24 0 -12 27l80 176h-35q-31 0 -25 29l27 147q6 29 31 29h106q33 0 27 -29l-25 -137q-2 -13 -12 -37z" />
    <glyph glyph-name="quotesinglbase" unicode="&#x201a;" horiz-adv-x="348" 
d="M166 2l-94 -184q-7 -21 -33 -21h-35q-24 0 -12 27l80 176h-35q-31 0 -25 29l27 147q6 29 31 29h106q33 0 27 -29l-25 -137q-2 -13 -12 -37z" />
    <glyph glyph-name="quotedblleft" unicode="&#x201c;" horiz-adv-x="626" 
d="M514 1239l94 184q8 21 31 21h35q27 0 12 -27l-78 -176h33q29 0 27 -29l-27 -147q-6 -29 -33 -29h-106q-31 0 -25 29l25 137q2 13 12 37zM236 1239l94 184q8 21 30 21h35q28 0 13 -27l-78 -176h32q29 0 27 -29l-27 -147q-6 -29 -32 -29h-107q-30 0 -24 29l24 137
q1 10 13 37z" />
    <glyph glyph-name="quotedblright" unicode="&#x201d;" horiz-adv-x="626" 
d="M383 1237l-94 -184q-7 -21 -33 -21h-35q-24 0 -12 27l80 176h-35q-31 0 -25 29l27 147q6 29 31 29h106q33 0 27 -29l-25 -137q-2 -13 -12 -37zM662 1237l-95 -184q-7 -21 -32 -21h-35q-25 0 -13 27l80 176h-35q-30 0 -24 29l27 147q6 29 30 29h107q32 0 26 -29l-24 -137
q-2 -13 -12 -37z" />
    <glyph glyph-name="quotedblbase" unicode="&#x201e;" horiz-adv-x="626" 
d="M166 2l-94 -184q-7 -21 -33 -21h-35q-24 0 -12 27l80 176h-35q-31 0 -25 29l27 147q6 29 31 29h106q33 0 27 -29l-25 -137q-2 -13 -12 -37zM444 2l-94 -184q-8 -21 -33 -21h-34q-25 0 -13 27l80 176h-35q-30 0 -24 29l26 147q6 29 31 29h107q32 0 26 -29l-24 -137
q-1 -10 -13 -37z" />
    <glyph glyph-name="dagger" unicode="&#x2020;" horiz-adv-x="745" 
d="M788 1065l-12 -70q-6 -28 -33 -28h-211l-204 -1164q-6 -28 -35 -28h-86q-29 0 -23 28l205 1164h-211q-30 0 -24 28l12 70q6 29 33 29h213l55 315q6 29 31 29h86q32 0 26 -29l-55 -315h209q30 0 24 -29z" />
    <glyph glyph-name="daggerdbl" unicode="&#x2021;" horiz-adv-x="753" 
d="M643 217l-12 -70q-6 -28 -33 -28h-211l-55 -316q-6 -28 -35 -28h-86q-29 0 -23 28l56 316h-211q-31 0 -25 28l12 70q6 29 33 29h213l127 721h-211q-30 0 -24 28l12 70q6 29 33 29h213l55 315q6 29 31 29h86q32 0 26 -29l-55 -315h209q31 0 25 -29l-13 -70q-6 -28 -32 -28
h-211l-127 -721h208q31 0 25 -29z" />
    <glyph glyph-name="bullet" unicode="&#x2022;" horiz-adv-x="647" 
d="M299 307q-88 0 -146 53q-57 53 -57 140q0 115 80 203t203 88q88 0 145 -55q56 -54 56 -142q0 -116 -81 -201q-81 -86 -200 -86z" />
    <glyph glyph-name="onedotenleader" unicode="&#x2024;" horiz-adv-x="360" 
d="M20 29l27 147q2 29 31 29h106q29 0 27 -29l-27 -147q-6 -29 -32 -29h-107q-31 0 -25 29z" />
    <glyph glyph-name="twodotenleader" unicode="&#x2025;" horiz-adv-x="720" 
d="M381 29l27 147q2 29 30 29h107q28 0 26 -29l-26 -147q-6 -29 -33 -29h-106q-31 0 -25 29zM20 29l27 147q2 29 31 29h106q29 0 27 -29l-27 -147q-6 -29 -32 -29h-107q-31 0 -25 29z" />
    <glyph glyph-name="ellipsis" unicode="&#x2026;" horiz-adv-x="1081" 
d="M20 29l27 147q2 29 31 29h106q29 0 27 -29l-27 -147q-6 -29 -32 -29h-107q-31 0 -25 29zM381 29l27 147q2 29 30 29h107q28 0 26 -29l-26 -147q-6 -29 -33 -29h-106q-31 0 -25 29zM741 29l27 147q2 29 31 29h106q29 0 27 -29l-27 -147q-6 -29 -33 -29h-106q-31 0 -25 29z
" />
    <glyph glyph-name="perthousand" unicode="&#x2030;" horiz-adv-x="2019" 
d="M1268 1409l-899 -1386q-12 -23 -35 -23h-96q-30 0 -13 29l895 1386q17 23 39 23h96q30 0 13 -29zM156 1047q72 403 319 403q215 0 215 -262q0 -72 -14 -141q-72 -404 -322 -404q-99 0 -156 66t-57 196q0 69 15 142zM543 1047q14 73 14 141q0 137 -92 137
q-127 0 -176 -278q-15 -78 -15 -142q0 -137 93 -137q126 0 176 279zM817 391q72 404 320 404q215 0 215 -263q0 -68 -15 -141q-72 -403 -321 -403q-101 0 -157 65t-56 197q0 72 14 141zM1204 391q15 78 15 141q0 138 -93 138q-126 0 -176 -279q-14 -73 -14 -141
q0 -137 92 -137q127 0 176 278zM1432 391q72 404 319 404q215 0 215 -263q0 -72 -14 -141q-72 -403 -322 -403q-100 0 -156 65q-57 66 -57 197q0 68 15 141zM1819 391q14 73 14 141q0 138 -92 138q-127 0 -176 -279q-15 -78 -15 -141q0 -137 92 -137q128 0 177 278z" />
    <glyph glyph-name="guilsinglleft" unicode="&#x2039;" horiz-adv-x="391" 
d="M76 557l8 14l158 275q16 22 34 22h82q27 0 13 -26l-166 -285l65 -285q6 -26 -20 -26h-82q-23 0 -27 22l-63 275q0 5 -1 8t-1 6z" />
    <glyph glyph-name="guilsinglright" unicode="&#x203a;" horiz-adv-x="391" 
d="M344 557q0 -3 -6 -14l-158 -275q-16 -22 -35 -22h-82q-26 0 -12 26l164 285l-63 285q-6 26 20 26h82q23 0 27 -22l63 -275v-14z" />
    <glyph glyph-name="exclamdbl" unicode="&#x203c;" horiz-adv-x="831" 
d="M49 29l27 153q6 29 33 29h114q31 0 25 -29l-27 -153q-6 -29 -33 -29h-114q-31 0 -25 29zM233 399h-65q-30 0 -25 29l150 979q2 31 31 31h114q29 0 27 -31l-199 -979q-5 -29 -33 -29zM455 29l26 153q6 29 33 29h115q30 0 24 -29l-26 -153q-6 -29 -33 -29h-115
q-30 0 -24 29zM639 399h-66q-29 0 -24 29l149 979q2 31 31 31h115q28 0 26 -31l-198 -979q-5 -29 -33 -29z" />
    <glyph glyph-name="fraction" unicode="&#x2044;" horiz-adv-x="126" 
d="M629 1409l-897 -1386q-12 -23 -37 -23h-96q-28 0 -11 29l893 1386q17 23 37 23h96q32 0 15 -29z" />
    <glyph glyph-name="zero.superior" unicode="&#x2070;" 
d="M410 987q-213 0 -213 277q0 72 16 174q39 230 118 340t212 110q215 0 215 -278q0 -85 -17 -172q-41 -231 -119 -340q-80 -111 -212 -111zM418 1112q69 0 113 74q46 77 75 252q21 111 21 186q0 139 -92 139q-70 0 -112 -73q-42 -74 -75 -252q-20 -109 -20 -189
q0 -137 90 -137z" />
    <glyph glyph-name="four.superior" unicode="&#x2074;" 
d="M584 1679l-277 -362h213zM684 1192h-55l-29 -164q-6 -31 -35 -31h-69q-33 0 -27 31l29 164h-310q-28 0 -22 31l8 57q1 14 19 37l413 536q22 25 39 25h72q34 0 28 -31l-94 -530h54q32 0 26 -31l-10 -63q-6 -31 -37 -31z" />
    <glyph glyph-name="five.superior" unicode="&#x2075;" 
d="M360 987q-125 0 -172 25q-22 12 -18 30l10 66q1 16 16 21t25 1q54 -20 133 -20q100 0 149 59q50 61 50 160q0 107 -104 107q-36 0 -88 -10q-46 -9 -58 -9q-15 0 -22 6l-17 13q-10 10 -6 28q66 282 84 381q6 33 39 33h334q34 0 28 -31l-12 -63q-6 -31 -35 -31h-247
q-8 -41 -52 -217q43 14 88 14q101 0 153 -55t52 -152q0 -167 -85 -261q-86 -95 -245 -95z" />
    <glyph glyph-name="six.superior" unicode="&#x2076;" 
d="M688 1751q-60 16 -100 16q-91 0 -143 -58t-76 -200q66 76 157 76q97 0 148 -61q51 -62 51 -158q0 -150 -77 -265q-76 -114 -214 -114q-229 0 -229 268q0 80 18 185q40 228 127 339q85 109 234 109q92 0 131 -20q17 -10 16 -31l-10 -61q-6 -33 -33 -25zM440 1108
q80 0 118 77q38 78 38 163q0 116 -102 116q-56 0 -94 -42q-38 -43 -50 -91q-12 -49 -12 -98q0 -57 27 -91t75 -34z" />
    <glyph glyph-name="seven.superior" unicode="&#x2077;" 
d="M786 1847l-10 -53q-1 -16 -20 -41q-130 -165 -230 -364q-103 -204 -131 -359q-5 -33 -37 -33h-71q-31 0 -27 33q29 160 137 369q106 205 226 354h-301q-32 0 -27 31l12 63q6 31 33 31h418q34 0 28 -31z" />
    <glyph glyph-name="eight.superior" unicode="&#x2078;" 
d="M410 987q-108 0 -171 54t-63 141q0 190 186 270q-94 55 -94 172q0 120 79 192q80 72 196 72q100 0 159 -52q60 -52 60 -134q0 -171 -166 -250q106 -51 106 -188q0 -130 -82 -203q-83 -74 -210 -74zM469 1401q-160 -72 -160 -195q0 -47 30 -74q31 -28 83 -28q69 0 108 45
t39 113q0 94 -100 139zM487 1499q142 66 142 187q0 38 -27 62t-72 24q-63 0 -96 -41t-33 -105q0 -88 86 -127z" />
    <glyph glyph-name="nine.superior" unicode="&#x2079;" 
d="M264 1124q60 -16 101 -16q93 0 143 57q49 56 76 201q-66 -76 -158 -76q-94 0 -146 63q-53 64 -53 156q0 151 77 266q76 113 214 113q230 0 230 -266q0 -75 -19 -186q-40 -231 -124 -340q-83 -109 -228 -109q-99 0 -139 21q-18 11 -17 30l10 62q6 32 33 24zM512 1767
q-81 0 -118 -76q-38 -78 -38 -163q0 -117 103 -117q55 0 93 42q38 43 50 91q12 50 12 98q0 59 -26 92t-76 33z" />
    <glyph glyph-name="parenleft.superior" unicode="&#x207d;" horiz-adv-x="348" 
d="M229 1284q0 161 57 320q58 161 167 282q15 15 24 15h70q21 0 10 -21q-102 -125 -154 -290q-53 -168 -53 -339q0 -152 49 -256q4 -6 0 -13t-14 -7h-70q-13 0 -20 14q-66 121 -66 295z" />
    <glyph glyph-name="parenright.superior" unicode="&#x207e;" horiz-adv-x="348" 
d="M457 1587q0 -159 -57 -317q-58 -160 -167 -281q-14 -14 -24 -14h-68q-20 0 -10 20q100 124 152 288q53 167 53 337q0 156 -49 260q-11 21 14 21h70q14 0 20 -15q66 -122 66 -299z" />
    <glyph glyph-name="n.superior" unicode="&#x207f;" horiz-adv-x="675" 
d="M350 1878h70q31 0 29 -31l-15 -80q67 121 199 121q88 0 134 -52t46 -140q0 -18 -8 -74l-105 -594q-6 -31 -36 -31h-70q-31 0 -25 31l103 578q27 155 -84 155q-74 0 -125 -61q-52 -63 -70 -156l-90 -516q-6 -31 -37 -31h-69q-31 0 -25 31l145 819q2 31 33 31z" />
    <glyph glyph-name="zero.inferior" unicode="&#x2080;" 
d="M158 -451q-213 0 -213 277q0 72 16 174q39 230 118 340q79 111 212 111q215 0 215 -279q0 -85 -17 -172q-41 -231 -119 -340q-80 -111 -212 -111zM166 -326q70 0 114 74q44 75 74 252q21 111 21 186q0 140 -92 140q-70 0 -112 -74t-75 -252q-20 -109 -20 -188
q0 -138 90 -138z" />
    <glyph glyph-name="one.inferior" unicode="&#x2081;" 
d="M258 258l-139 -117q-27 -21 -45 4l-33 50q-12 21 14 43l232 190q17 12 37 12h63q35 0 29 -30l-146 -820q-6 -30 -34 -30h-70q-33 0 -27 30z" />
    <glyph glyph-name="two.inferior" unicode="&#x2082;" 
d="M145 188q0 -45 -34 -45h-72q-27 0 -27 39q0 115 77 192t192 77q103 0 157 -52t54 -145q0 -69 -29 -142t-59 -121q-33 -52 -98 -119q-73 -74 -97 -96q-10 -9 -107 -91h267q34 0 28 -31l-12 -64q-6 -30 -35 -30h-413q-31 0 -25 30l8 58q2 18 25 37q198 172 280 270
q129 158 129 289q0 86 -84 86q-61 0 -93 -41t-32 -101z" />
    <glyph glyph-name="three.inferior" unicode="&#x2083;" 
d="M170 -49h-61q-31 0 -25 31l10 59q6 31 37 31h64q67 0 106 50t39 118q0 88 -131 88q-39 0 -135 -21q-18 -4 -25 1q-6 4 -4 20l12 69q2 18 25 29q63 25 147 25q246 0 246 -185q0 -164 -137 -241q82 -43 82 -164q0 -156 -88 -234t-242 -78q-123 0 -170 25q-20 14 -18 31
l12 65q2 17 14 22q14 5 25 1q57 -21 135 -21q99 0 148 43t49 138q0 98 -115 98z" />
    <glyph glyph-name="four.inferior" unicode="&#x2084;" 
d="M332 242l-277 -363h213zM432 -246h-55l-29 -164q-6 -30 -35 -30h-69q-33 0 -27 30l29 164h-309q-29 0 -23 31l8 57q1 14 19 37l413 537q21 24 39 24h72q35 0 29 -30l-95 -531h54q32 0 26 -31l-10 -63q-6 -31 -37 -31z" />
    <glyph glyph-name="five.inferior" unicode="&#x2085;" 
d="M109 -451q-125 0 -172 25q-24 13 -19 31l10 65q2 17 16 22q15 5 25 1q57 -21 133 -21q100 0 149 60q50 61 50 159q0 107 -104 107q-41 0 -87 -9q-47 -9 -59 -9q-15 0 -22 6l-17 12q-11 11 -6 29q66 282 84 381q6 32 39 32h334q35 0 29 -30l-13 -64q-6 -31 -35 -31h-247
q-8 -41 -52 -217q47 15 88 15q100 0 153 -56q52 -55 52 -151q0 -167 -85 -261q-87 -96 -244 -96z" />
    <glyph glyph-name="six.inferior" unicode="&#x2086;" 
d="M436 313q-63 17 -100 17q-89 0 -142 -59t-77 -199q65 75 157 75q97 0 148 -61q51 -62 51 -158q0 -150 -77 -265q-76 -114 -214 -114q-229 0 -229 269q0 79 18 184q40 228 127 339q86 110 234 110q90 0 131 -21q17 -10 16 -31l-10 -61q-6 -33 -33 -25zM188 -330
q80 0 118 77q38 78 38 163q0 117 -102 117q-56 0 -94 -42q-38 -43 -50 -91q-12 -50 -12 -99q0 -57 27 -91t75 -34z" />
    <glyph glyph-name="seven.inferior" unicode="&#x2087;" 
d="M535 410l-11 -54q-1 -16 -20 -41q-130 -165 -230 -364q-103 -204 -131 -359q-4 -32 -37 -32h-71q-31 0 -27 32q29 160 137 369q106 205 226 354h-301q-29 0 -27 31l12 64q6 30 33 30h418q35 0 29 -30z" />
    <glyph glyph-name="eight.inferior" unicode="&#x2088;" 
d="M158 -451q-107 0 -171 55q-63 54 -63 140q0 190 187 270q-95 56 -95 172q0 120 79 192q81 73 196 73q99 0 160 -53q59 -52 59 -134q0 -171 -166 -250q107 -51 107 -188q0 -129 -83 -203t-210 -74zM217 -37q-160 -72 -160 -194q0 -48 30 -75q31 -28 83 -28q70 0 109 45
q38 44 38 113q0 94 -100 139zM236 61q141 66 141 187q0 38 -27 62t-71 24q-64 0 -97 -41q-32 -39 -32 -105q0 -88 86 -127z" />
    <glyph glyph-name="nine.inferior" unicode="&#x2089;" 
d="M12 -313q63 -17 101 -17q93 0 143 58q49 57 76 200q-65 -75 -158 -75q-94 0 -146 62q-53 64 -53 157q0 150 77 265q76 114 214 114q230 0 230 -267q0 -75 -19 -186q-40 -231 -124 -340q-83 -109 -228 -109q-99 0 -139 21q-18 11 -17 31l11 61q6 32 32 25zM260 330
q-80 0 -118 -77q-38 -78 -38 -163q0 -117 103 -117q55 0 93 42q38 43 50 91q12 50 12 99q0 58 -26 91q-27 34 -76 34z" />
    <glyph glyph-name="parenleft.inferior" unicode="&#x208d;" horiz-adv-x="348" 
d="M-23 -154q0 161 57 320q58 162 167 283q14 14 24 14h70q21 0 10 -21q-101 -123 -153 -289q-54 -171 -54 -339q0 -152 49 -256q5 -6 0 -14q-4 -7 -14 -7h-70q-14 0 -20 14q-66 121 -66 295z" />
    <glyph glyph-name="parenright.inferior" unicode="&#x208e;" horiz-adv-x="348" 
d="M205 150q0 -160 -57 -318q-59 -162 -166 -281q-14 -14 -25 -14h-68q-21 0 -10 21q100 125 152 287q53 167 53 337q0 156 -49 260q-11 21 14 21h70q13 0 20 -14q66 -121 66 -299z" />
    <glyph glyph-name="Euro" unicode="&#x20ac;" horiz-adv-x="933" 
d="M109 635h110q0 7 2 25q0 3 5 31l2.5 15t2.5 13q0 2 8 37q2 11 5.5 28t5.5 23h-109q-26 0 -24 29l12 65q6 29 33 29h121q37 122 77 202q43 86 108 163t157 118q93 41 209 41q112 0 190 -24q25 -8 14 -35l-28 -78q-15 -32 -41 -25q-70 19 -133 19q-287 0 -398 -381h381
q31 0 19 -29l-25 -65q-8 -29 -39 -29h-368l-19 -88q-11 -63 -12 -84h336q31 0 20 -29l-24 -65q-12 -29 -39 -29h-303q-3 -45 -3 -68q0 -317 265 -317q70 0 139 18q33 7 33 -24v-78q0 -29 -27 -35q-84 -24 -166 -24q-211 0 -306 128t-95 339q0 33 2 61h-117q-30 0 -24 29
l12 65q2 29 31 29z" />
    <glyph glyph-name="afii61289" unicode="&#x2113;" horiz-adv-x="962" 
d="M502 121q37 0 90 8q13 2 19 -2q7 -4 5 -16l-14 -76q-2 -16 -8 -23q-5 -5 -23 -10q-41 -14 -120 -14q-220 0 -220 223q0 36 11 96l22 129q-94 -34 -168 -51q-18 -5 -20 12l-10 80q-2 17 14 21q113 31 209 73l69 396q44 253 122 370q80 119 225 119q103 0 159 -62
q58 -64 58 -165q0 -221 -142 -411q-141 -189 -364 -312l-33 -184q-8 -43 -8 -82q0 -66 29 -92q30 -27 98 -27zM502 993l-60 -338q355 230 355 570q0 116 -88 116q-145 0 -207 -348z" />
    <glyph glyph-name="trademark" unicode="&#x2122;" horiz-adv-x="1040" 
d="M537 1341h-107l-96 -548q-2 -19 -23 -19h-69q-17 0 -15 19l97 548h-107q-16 0 -14 19l10 59q5 19 18 19h320q23 0 18 -19l-10 -59q-2 -19 -22 -19zM803 948q-13 0 -19 15l-75 284l-80 -454q-2 -19 -23 -19h-67q-20 0 -15 19l111 626q5 19 18 19h74q19 0 21 -13l79 -311
l191 311q8 13 20 13h82q24 0 19 -19l-111 -626q-5 -19 -22 -19h-68q-16 0 -14 19l80 454l-179 -284q-6 -15 -22 -15z" />
    <glyph glyph-name="Omega" unicode="&#x2126;" horiz-adv-x="1126" 
d="M721 1456q203 0 306 -114q103 -113 103 -314q0 -224 -97 -433q-98 -210 -275 -343l-21 -115l170 10q15 2 23 -6t4 -20l-16 -92q-6 -29 -33 -29h-320l47 279q4 22 31 40q158 107 244 304q86 198 86 405q0 289 -260 289q-113 0 -198 -60q-84 -59 -131 -154
q-46 -94 -69 -200q-22 -103 -22 -213q0 -246 137 -371q18 -18 14 -40l-47 -279h-319q-31 0 -25 29l17 92q6 27 34 26l166 -10l25 137q-160 148 -160 416q0 134 34 263q35 132 100 246q65 115 184 186q118 71 268 71z" />
    <glyph glyph-name="estimated" unicode="&#x212e;" horiz-adv-x="1753" 
d="M1679 686h-1286q-10 0 -10 -8v-379q0 -39 16 -59q170 -197 492 -197q324 0 516 223h119q-111 -132 -279 -209q-163 -75 -358 -75q-338 0 -573 215q-234 215 -234 518q0 307 230 521t569 214q338 0 568 -214t230 -521v-29zM1378 748v380q0 51 -22 74q-192 187 -473 187
q-289 0 -482 -199q-18 -18 -18 -60v-382q0 -13 10 -13h975q10 0 10 13z" />
    <glyph glyph-name="onethird" unicode="&#x2153;" horiz-adv-x="1433" 
d="M432 1255l-139 -116q-27 -21 -45 4l-33 49q-12 21 14 43l232 190q16 13 37 13h63q35 0 29 -31l-146 -819q-6 -31 -34 -31h-70q-33 0 -27 31zM1231 1409l-897 -1386q-12 -23 -37 -23h-96q-28 0 -11 29l893 1386q17 23 37 23h97q31 0 14 -29zM1004 391h61q115 0 115 -98
q0 -93 -50 -137q-49 -43 -147 -43q-81 0 -135 20q-11 4 -25 -1q-13 -5 -14 -21l-12 -66q-2 -17 18 -31q45 -24 170 -24q153 0 242 78q88 78 88 233q0 121 -82 164q137 77 137 242q0 184 -246 184q-84 0 -147 -25q-24 -11 -25 -28l-12 -70q-1 -15 4 -19q7 -5 25 -1
q91 20 135 20q131 0 131 -88q0 -68 -39 -118t-106 -50h-64q-31 0 -37 -31l-10 -59q-6 -31 25 -31z" />
    <glyph glyph-name="twothirds" unicode="&#x2154;" horiz-adv-x="1433" 
d="M319 1186q0 -45 -34 -45h-72q-27 0 -27 39q0 114 77 191t192 77q105 0 157 -51q54 -52 54 -146q0 -69 -29 -142q-30 -77 -58 -121q-31 -49 -99 -119q-73 -74 -97 -96q-10 -9 -107 -91h267q34 0 28 -31l-12 -63q-6 -31 -35 -31h-413q-31 0 -25 31l8 57q2 18 25 37
q198 172 280 270q129 158 129 289q0 86 -84 86q-61 0 -93 -41t-32 -100zM1284 1409l-897 -1386q-12 -23 -37 -23h-96q-27 0 -10 29l893 1386q17 23 36 23h97q31 0 14 -29zM1065 391h-61q-31 0 -25 31l10 59q6 31 37 31h64q67 0 106 50t39 118q0 88 -131 88q-44 0 -135 -20
q-18 -4 -25 1q-5 4 -4 19l12 70q1 17 25 28q63 25 147 25q246 0 246 -184q0 -165 -137 -242q82 -43 82 -164q0 -155 -88 -233q-89 -78 -242 -78q-125 0 -170 24q-20 14 -18 31l12 66q1 16 14 21q14 5 25 1q54 -20 135 -20q98 0 147 43q50 44 50 137q0 98 -115 98z" />
    <glyph glyph-name="oneeighth" unicode="&#x215b;" horiz-adv-x="1433" 
d="M432 1255l-139 -116q-27 -21 -45 4l-33 49q-12 21 14 43l232 190q16 13 37 13h63q35 0 29 -31l-146 -819q-6 -31 -34 -31h-70q-33 0 -27 31zM1249 1409l-897 -1386q-12 -23 -37 -23h-96q-27 0 -10 29l893 1386q17 23 37 23h96q31 0 14 -29zM1053 -10q128 0 210 73
q83 74 83 203q0 138 -107 189q166 79 166 250q0 82 -59 134t-160 52q-115 0 -196 -73q-79 -72 -79 -191q0 -116 95 -172q-187 -80 -187 -271q0 -86 63 -140t171 -54zM1112 403q100 -45 100 -139q0 -68 -38 -112q-40 -46 -109 -46q-52 0 -83 28q-30 27 -30 75q0 122 160 194z
M1131 502q-87 40 -87 127q0 63 33 104t97 41q45 0 71 -23q27 -24 27 -63q0 -120 -141 -186z" />
    <glyph glyph-name="threeeighths" unicode="&#x215c;" horiz-adv-x="1433" 
d="M344 948h-61q-31 0 -25 31l10 59q6 31 37 31h64q67 0 106 50q39 49 39 118q0 88 -131 88q-44 0 -135 -20q-18 -4 -25 1q-5 4 -4 19l12 70q1 17 25 28q63 25 147 25q246 0 246 -184q0 -165 -137 -242q82 -43 82 -164q0 -155 -88 -233t-242 -78q-125 0 -170 24
q-20 14 -18 31l12 66q1 16 14 21q14 5 25 1q54 -20 135 -20q99 0 148 43t49 137q0 98 -115 98zM1268 1409l-897 -1386q-12 -23 -37 -23h-96q-28 0 -11 29l893 1386q17 23 37 23h96q32 0 15 -29zM1053 -10q-108 0 -171 54t-63 140q0 191 187 271q-95 56 -95 172q0 119 79 191
q81 73 196 73q101 0 160 -52t59 -134q0 -171 -166 -250q107 -51 107 -189q0 -129 -83 -203q-82 -73 -210 -73zM1112 403q-160 -72 -160 -194q0 -48 30 -75q31 -28 83 -28q69 0 109 46q38 44 38 112q0 94 -100 139zM1130 502q142 66 142 186q0 39 -27 63q-26 23 -71 23
q-64 0 -97 -41t-33 -104q0 -88 86 -127z" />
    <glyph glyph-name="fiveeighths" unicode="&#x215d;" horiz-adv-x="1433" 
d="M283 547q-127 0 -172 24q-24 13 -19 31l10 66q1 16 16 21t25 1q54 -20 133 -20q100 0 149 59q50 61 50 160q0 106 -104 106q-41 0 -87 -9t-59 -9q-15 0 -22 6l-17 12q-11 11 -6 29q66 282 84 381q6 33 39 33h334q35 0 29 -31l-13 -64q-6 -30 -35 -30h-247
q-8 -41 -52 -217q43 14 89 14q100 0 152 -55t52 -152q0 -167 -85 -261q-86 -95 -244 -95zM1270 1409l-897 -1386q-12 -23 -37 -23h-96q-28 0 -11 29l893 1386q17 23 37 23h96q32 0 15 -29zM1053 -10q-108 0 -171 54t-63 140q0 191 187 271q-95 56 -95 172q0 119 79 191
q81 73 196 73q101 0 160 -52t59 -134q0 -171 -166 -250q107 -51 107 -189q0 -129 -83 -203q-82 -73 -210 -73zM1112 403q-160 -72 -160 -194q0 -48 30 -75q31 -28 83 -28q69 0 109 46q38 44 38 112q0 94 -100 139zM1130 502q142 66 142 186q0 39 -27 63q-26 23 -71 23
q-64 0 -97 -41t-33 -104q0 -88 86 -127z" />
    <glyph glyph-name="seveneighths" unicode="&#x215e;" horiz-adv-x="1433" 
d="M709 1407l-11 -53q-1 -16 -20 -41q-125 -159 -229 -365q-104 -207 -132 -358q-5 -33 -36 -33h-72q-31 0 -27 33q28 158 137 368q108 208 226 355h-301q-32 0 -27 30l12 64q6 31 33 31h418q35 0 29 -31zM1192 1409l-897 -1386q-12 -23 -37 -23h-96q-27 0 -10 29l892 1386
q17 23 37 23h97q31 0 14 -29zM1053 -10q-108 0 -171 54t-63 140q0 191 187 271q-95 56 -95 172q0 119 79 191q81 73 196 73q101 0 160 -52t59 -134q0 -171 -166 -250q107 -51 107 -189q0 -129 -83 -203q-82 -73 -210 -73zM1112 403q-160 -72 -160 -194q0 -48 30 -75
q31 -28 83 -28q69 0 109 46q38 44 38 112q0 94 -100 139zM1130 502q142 66 142 186q0 39 -27 63q-26 23 -71 23q-64 0 -97 -41t-33 -104q0 -88 86 -127z" />
    <glyph glyph-name="arrowleft" unicode="&#x2190;" horiz-adv-x="995" 
d="M649 979l-336 -367l568 2q30 0 24 -28l-12 -74q-6 -29 -35 -29l-567 2l207 -366q2 -8 2 -14q0 -7 -6 -12q-7 -5 -15 -5h-106q-17 0 -29 18l-231 416q-6 11 -4 27q1 15 14 26l377 416q19 19 35 19h106q7 0 12 -5t3 -13t-7 -13z" />
    <glyph glyph-name="arrowup" unicode="&#x2191;" horiz-adv-x="995" 
d="M940 541l-319 270l-99 -567q-5 -29 -33 -29h-73q-30 0 -25 29l103 567l-414 -270q-4 -3 -14 -5q-6 -1 -11 4q-4 4 -4 13l19 106q5 19 24 33l469 303q16 11 29 11t24 -11l363 -303q17 -16 12 -33l-18 -106q-1 -12 -14 -15q-12 -3 -19 3z" />
    <glyph glyph-name="arrowright" unicode="&#x2192;" horiz-adv-x="995" 
d="M731 612l-205 367q-6 7 -1 19t18 12h106q18 0 31 -19l229 -416q7 -15 6 -26q-2 -13 -16 -27l-375 -416q-18 -18 -37 -18h-106q-8 0 -11 5t-2 12q2 9 7 14l334 366l-568 -2q-28 0 -22 29l12 74q6 28 33 28z" />
    <glyph glyph-name="arrowdown" unicode="&#x2193;" horiz-adv-x="995" 
d="M82 557l319 -270l99 567q6 29 32 29h74q31 0 25 -29l-103 -567l414 270q5 3 15 5q7 1 12 -4q4 -4 2 -13l-19 -107q-1 -15 -24 -32l-469 -304q-11 -10 -29 -10q-13 0 -24 10l-363 304q-14 14 -12 32l18 107q2 12 13 15q12 3 20 -3z" />
    <glyph glyph-name="arrowboth" unicode="&#x2194;" horiz-adv-x="1486" 
d="M1223 612l-205 367q-6 7 -1 19t17 12h107q17 0 30 -19l230 -416q7 -15 6 -26q-2 -13 -16 -27l-375 -416q-18 -18 -37 -18h-107q-8 0 -11 5t-2 12q2 9 7 14l334 366l-455 -4l-454 4l207 -366q2 -8 2 -14q0 -7 -6 -12q-7 -5 -15 -5h-106q-17 0 -29 18l-231 416q-6 11 -4 27
q1 15 14 26l377 416q19 19 35 19h106q7 0 12 -5t3 -13t-7 -13l-336 -367l457 4z" />
    <glyph glyph-name="arrowupdn" unicode="&#x2195;" horiz-adv-x="995" 
d="M496 94l413 271q4 2 15 5q5 1 10 -4q4 -4 4 -14l-18 -106q-5 -18 -25 -33l-469 -303q-16 -10 -29 -10q-14 0 -24 10l-363 303q-16 17 -12 33l18 106q2 13 14 16t19 -3l320 -271l75 455l84 455l-413 -271q-4 -3 -16 -5q-6 -1 -11 4q-4 4 -2 13l18 107q1 16 25 33l469 303
q11 10 29 10q13 0 24 -10l363 -303q14 -14 12 -33l-18 -107q-1 -12 -14 -15q-12 -3 -19 3l-320 271l-75 -455z" />
    <glyph glyph-name="arrowupleft" unicode="&#x2196;" horiz-adv-x="995" 
d="M895 823l-461 -67l330 -400q18 -18 -6 -41l-62 -51q-24 -23 -41 0l-327 402l-148 -451q-5 -11 -14 -15q-11 -5 -19 3l-63 76q-9 14 -2 36l168 508q6 15 16 25t29 12l520 80q27 1 37 -10l61 -76q8 -8 1 -18q-8 -12 -19 -13z" />
    <glyph glyph-name="arrowupright" unicode="&#x2197;" horiz-adv-x="995" 
d="M664 756l-441 67q-9 1 -13 12q-3 9 7 19l90 76q16 12 37 10l496 -80q9 -1 20 -12q8 -6 8 -25l-8 -508q-5 -25 -18 -36l-88 -76q-11 -8 -20 -3q-9 4 -9 15l12 451l-471 -402q-23 -23 -41 0l-41 51q-18 23 6 41z" />
    <glyph glyph-name="arrowdownright" unicode="&#x2198;" horiz-adv-x="995" 
d="M123 248l463 67l-332 400q-21 18 8 41l60 51q24 22 40 0l328 -401l148 450q5 11 14 15q10 5 18 -3l64 -75q10 -12 4 -37l-170 -508q-5 -14 -16 -25q-12 -11 -27 -12l-522 -80q-25 -2 -35 10l-64 76q-8 11 0 20t19 11z" />
    <glyph glyph-name="arrowdownleft" unicode="&#x2199;" horiz-adv-x="995" 
d="M356 315l439 -67q10 -1 13 -11t-7 -20l-88 -76q-16 -12 -39 -10l-494 80q-14 4 -22 12t-8 25l10 508q0 22 16 37l88 75q11 8 20 3t9 -15l-12 -450l471 401q23 23 41 0l43 -51q16 -22 -9 -41z" />
    <glyph glyph-name="partialdiff" unicode="&#x2202;" horiz-adv-x="946" 
d="M455 1303q-17 -1 -24 3q-8 5 -3 17l23 78q11 26 36 33q70 22 158 22q326 0 326 -334q0 -115 -23 -262q-22 -140 -74 -301q-53 -164 -122 -286q-73 -129 -183 -211t-241 -82q-133 0 -211 82t-78 221q0 155 52 298q53 145 166 246q115 103 267 103q108 0 176 -57t72 -138
q49 157 49 367q0 116 -50 169q-49 52 -157 52q-72 0 -159 -20zM344 115q104 0 188 90t123 203t39 206q0 83 -43 130q-44 49 -129 49q-107 0 -186 -88t-114 -197q-34 -106 -34 -205q0 -87 40 -137q40 -51 116 -51z" />
    <glyph glyph-name="Delta" unicode="&#x2206;" horiz-adv-x="1015" 
d="M602 1438h148q34 0 34 -35l58 -1358q4 -45 -43 -45h-746q-47 0 -30 45l536 1358q12 35 43 35zM649 1276l-434 -1137h475l-33 1137h-8z" />
    <glyph glyph-name="product" unicode="&#x220f;" horiz-adv-x="1081" 
d="M201 1329l14 78q2 31 33 31h921q31 0 29 -31l-14 -78q-6 -31 -37 -31h-148l-223 -1267q-6 -31 -35 -31h-88q-32 0 -26 31l223 1267h-328l-223 -1267q-6 -31 -35 -31h-88q-32 0 -26 31l223 1267h-148q-30 0 -24 31z" />
    <glyph glyph-name="summation" unicode="&#x2211;" horiz-adv-x="831" 
d="M573 565l-428 -653h492q31 0 25 -29l-13 -80q-6 -28 -35 -28h-637q-30 0 -24 28l14 84q5 25 19 41l446 686l-203 670q-6 22 -2 41l15 82q5 31 32 31h623q29 0 27 -31l-15 -78q-6 -31 -35 -31h-481l197 -641q4 -18 2 -30l-4 -31q-1 -12 -15 -31z" />
    <glyph glyph-name="minus" unicode="&#x2212;" horiz-adv-x="962" 
d="M864 657h-702q-24 0 -23 27l15 72q1 26 30 26h701q27 0 26 -26l-14 -72q-1 -27 -33 -27z" />
    <glyph glyph-name="uni2215" unicode="&#x2215;" horiz-adv-x="126" 
d="M629 1409l-897 -1386q-12 -23 -37 -23h-96q-28 0 -11 29l893 1386q17 23 37 23h96q32 0 15 -29z" />
    <glyph glyph-name="uni2219" unicode="&#x2219;" horiz-adv-x="360" 
d="M96 469l27 147q2 29 31 29h106q29 0 27 -29l-27 -147q-6 -29 -33 -29h-106q-31 0 -25 29z" />
    <glyph glyph-name="radical" unicode="&#x221a;" horiz-adv-x="1095" 
d="M512 -143h-117q-30 0 -30 28l-64 967h-131q-27 0 -25 29l15 77q6 29 30 29h224q32 0 32 -29l43 -870h7l540 1444q12 31 37 31h98q31 0 19 -33l-637 -1645q-12 -28 -41 -28z" />
    <glyph glyph-name="infinity" unicode="&#x221e;" horiz-adv-x="1069" 
d="M625 938q73 117 215 117q104 0 154 -62t50 -164q0 -85 -14 -152q-16 -75 -46 -143q-32 -71 -96 -113t-153 -42q-154 0 -205 117q-74 -117 -215 -117q-107 0 -164 67q-57 68 -57 177q0 78 18 150q19 75 53 138q36 67 101 105q66 39 154 39q81 0 134 -35t71 -82zM504 664
l63 174q-24 112 -141 112q-107 0 -152 -100t-45 -227q0 -138 101 -138q66 0 100 36q35 37 74 143zM653 770l-63 -174q21 -113 139 -113q74 0 121 58q46 56 61 126q15 69 15 146q0 135 -101 135q-65 0 -99 -36q-34 -35 -73 -142z" />
    <glyph glyph-name="integral" unicode="&#x222b;" horiz-adv-x="618" 
d="M160 35l209 1182q24 133 71 186t156 53q52 0 78 -8q22 -4 18 -31l-14 -76q-6 -28 -33 -26q-6 0 -14 1t-21 1q-45 0 -66 -29q-22 -30 -34 -100l-209 -1182q-24 -133 -73 -187q-48 -52 -156 -52q-48 0 -76 6q-25 6 -19 30l13 78q6 25 33 25q8 0 18 -1t18 -1q47 0 67 29
q22 32 34 102z" />
    <glyph glyph-name="approxequal" unicode="&#x2248;" horiz-adv-x="962" 
d="M889 573q-55 -182 -221 -182q-66 0 -156 43l-84 39q-77 37 -115 37q-59 0 -100 -70l-8 -16q-12 -23 -35 -23h-57q-40 0 -25 50q55 182 221 182q67 0 156 -43l84 -39q81 -37 115 -37q62 0 100 70l8 16q15 23 35 23h57q40 0 25 -50zM967 1014q-55 -183 -222 -183
q-66 0 -155 43l-84 39q-77 37 -115 37q-61 0 -100 -69l-8 -17q-12 -22 -35 -22h-58q-39 0 -24 49q55 182 221 182q66 0 156 -43l84 -39q81 -37 114 -37q63 0 101 70l8 16q12 23 35 23h57q40 0 25 -49z" />
    <glyph glyph-name="notequal" unicode="&#x2260;" horiz-adv-x="962" 
d="M834 485h-353l-221 -458q-15 -27 -37 -27h-80q-32 0 -20 31l219 454h-211q-26 0 -20 27l12 72q1 26 31 26h247l119 244h-323q-25 0 -23 27l12 71q6 27 33 27h363l209 434q12 27 36 27h78q35 0 23 -33l-207 -428h199q30 0 24 -27l-12 -71q-2 -27 -33 -27h-240l-118 -244
h313q14 0 21 -6.5t6 -19.5l-13 -72q-6 -27 -34 -27z" />
    <glyph glyph-name="lessequal" unicode="&#x2264;" horiz-adv-x="962" 
d="M174 760q4 12 16 22l644 531q22 18 40 0l46 -53q16 -21 -7 -39l-563 -461l400 -463q17 -18 -7 -37l-65 -55q-24 -21 -41 0l-455 530q-10 10 -8 25zM676 0h-596q-29 0 -23 27l11 63q6 27 32 27h594q31 0 25 -27l-10 -63q-6 -27 -33 -27z" />
    <glyph glyph-name="greaterequal" unicode="&#x2265;" horiz-adv-x="962" 
d="M891 760q-1 -9 -17 -25l-643 -530q-24 -21 -41 0l-45 55q-15 18 7 37l563 463l-400 461q-16 21 7 39l65 53q24 21 41 0l455 -531q10 -14 8 -22zM719 0h-596q-31 0 -25 27l11 63q6 27 32 27h594q31 0 25 -27l-10 -63q-6 -27 -31 -27z" />
    <glyph glyph-name="lozenge" unicode="&#x25ca;" horiz-adv-x="1015" 
d="M469 246l332 473l-166 473l-334 -473zM422 -16q-13 0 -19 16l-253 698q-5 8 -5 21q4 12 11 20l499 699q12 16 27 16q12 0 18 -16l254 -699q4 -13 2 -20q0 -3 -8 -21l-499 -698q-12 -16 -27 -16z" />
    <glyph glyph-name="uniE000" unicode="&#xe000;" horiz-adv-x="1024" 
 />
    <glyph glyph-name="Q.alt" unicode="&#xe001;" horiz-adv-x="991" 
d="M657 1454q163 0 245 -96q83 -97 83 -314q0 -140 -33 -325q-66 -379 -179 -545q-114 -168 -296 -184l-22 -185q-5 -30 -35 -30h-94q-30 0 -23 30l43 187q-252 39 -252 414q0 122 31 313q68 404 194 569q127 166 338 166zM432 123q135 0 220 133q86 135 143 463
q34 188 34 328q0 145 -45 206q-45 62 -139 62q-134 0 -219 -133q-86 -135 -143 -463q-35 -208 -35 -324q0 -147 46 -209q46 -63 138 -63z" />
    <glyph glyph-name="a.alt" unicode="&#xe002;" horiz-adv-x="851" 
d="M631 547q20 103 20 196q0 236 -153 236q-100 0 -163 -102q-64 -103 -104 -330q-26 -144 -26 -232q0 -200 139 -200q209 0 287 432zM862 1065l-182 -1036q-6 -29 -33 -29h-86q-30 0 -24 29l20 116q-76 -161 -248 -161q-248 0 -248 335q0 90 23 228q50 290 147 425
q99 138 254 138q85 0 145 -48q61 -48 68 -114l21 117q6 29 33 29h86q30 0 24 -29z" />
    <glyph glyph-name="u.alt" unicode="&#xe003;" horiz-adv-x="811" 
d="M336 -16q-133 0 -205 66t-72 198q0 38 11 102l125 715q6 29 32 29h86q31 0 25 -29l-125 -709q-10 -59 -10 -96q0 -70 33 -105q33 -34 108 -34q99 0 145 56q47 58 68 179l125 709q6 29 33 29h86q30 0 24 -29l-125 -715q-33 -187 -118 -276q-85 -90 -246 -90z" />
    <glyph glyph-name="y.alt" unicode="&#xe004;" horiz-adv-x="811" 
d="M510 113l20 114q-85 -145 -231 -145q-110 0 -169 68q-58 67 -58 182q0 20 8 86l115 647q6 29 32 29h86q31 0 25 -29l-111 -629q-10 -53 -10 -88q0 -133 119 -133q88 0 154 79q68 82 90 208l98 563q6 29 33 29h86q30 0 24 -29l-170 -961q-60 -346 -389 -346
q-140 0 -221 31q-20 7 -18 35l14 76q6 33 37 22q104 -31 190 -31q208 0 246 222z" />
    <glyph glyph-name="j.alt" unicode="&#xe005;" horiz-adv-x="356" 
d="M354 1065l-221 -1262q-6 -28 -35 -28h-86q-28 0 -22 28l221 1262q6 29 33 29h86q30 0 24 -29zM418 1399l-25 -142q-6 -28 -35 -28h-94q-28 0 -22 28l24 142q6 28 31 28h94q33 0 27 -28z" />
    <glyph glyph-name="agrave.alt" unicode="&#xe006;" horiz-adv-x="851" 
d="M631 547q20 103 20 196q0 236 -153 236q-100 0 -163 -102q-64 -103 -104 -330q-26 -144 -26 -232q0 -200 139 -200q209 0 287 432zM862 1065l-182 -1036q-6 -29 -33 -29h-86q-30 0 -24 29l20 116q-76 -161 -248 -161q-248 0 -248 335q0 90 23 228q50 290 147 425
q99 138 254 138q85 0 145 -48q61 -48 68 -114l21 117q6 29 33 29h86q30 0 24 -29zM571 1389l56 -164q4 -10 -2 -18q-6 -7 -19 -7h-47q-22 0 -35 19l-125 161q-8 8 -3 21q4 12 22 12h121q21 0 32 -24z" />
    <glyph glyph-name="aacute.alt" unicode="&#xe007;" horiz-adv-x="851" 
d="M631 547q20 103 20 196q0 236 -153 236q-100 0 -163 -102q-64 -103 -104 -330q-26 -144 -26 -232q0 -200 139 -200q209 0 287 432zM862 1065l-182 -1036q-6 -29 -33 -29h-86q-30 0 -24 29l20 116q-76 -161 -248 -161q-248 0 -248 335q0 90 23 228q50 290 147 425
q99 138 254 138q85 0 145 -48q61 -48 68 -114l21 117q6 29 33 29h86q30 0 24 -29zM492 1225l104 164q15 24 37 24h129q16 0 19 -12q3 -13 -9 -21l-174 -161q-19 -19 -39 -19h-55q-13 0 -16 8t4 17z" />
    <glyph glyph-name="acircumflex.alt" unicode="&#xe008;" horiz-adv-x="851" 
d="M631 547q20 103 20 196q0 236 -153 236q-100 0 -163 -102q-64 -103 -104 -330q-26 -144 -26 -232q0 -200 139 -200q209 0 287 432zM862 1065l-182 -1036q-6 -29 -33 -29h-86q-30 0 -24 29l20 116q-76 -161 -248 -161q-248 0 -248 335q0 90 23 228q50 290 147 425
q99 138 254 138q85 0 145 -48q61 -48 68 -114l21 117q6 29 33 29h86q30 0 24 -29zM662 1219l-80 106l-121 -106q-19 -19 -37 -19h-76q-14 0 -16 9q-2 10 8 20l172 176q21 18 41 18h78q29 0 37 -18l110 -176q6 -11 2 -20t-18 -9h-68q-19 0 -32 19z" />
    <glyph glyph-name="atilde.alt" unicode="&#xe009;" horiz-adv-x="851" 
d="M631 547q20 103 20 196q0 236 -153 236q-100 0 -163 -102q-64 -103 -104 -330q-26 -144 -26 -232q0 -200 139 -200q209 0 287 432zM862 1065l-182 -1036q-6 -29 -33 -29h-86q-30 0 -24 29l20 116q-76 -161 -248 -161q-248 0 -248 335q0 90 23 228q50 290 147 425
q99 138 254 138q85 0 145 -48q61 -48 68 -114l21 117q6 29 33 29h86q30 0 24 -29zM815 1325q-12 -67 -43 -98t-92 -31q-67 0 -127 33l-43 24q-70 39 -88 -18l-4 -14q-8 -21 -33 -21h-41q-26 0 -20 37q11 67 41 98q31 31 92 31q67 0 127 -33l43 -24q72 -39 90 18l4 14
q6 21 33 21h41q26 0 20 -37z" />
    <glyph glyph-name="adieresis.alt" unicode="&#xe00a;" horiz-adv-x="851" 
d="M631 547q20 103 20 196q0 236 -153 236q-100 0 -163 -102q-64 -103 -104 -330q-26 -144 -26 -232q0 -200 139 -200q209 0 287 432zM862 1065l-182 -1036q-6 -29 -33 -29h-86q-30 0 -24 29l20 116q-76 -161 -248 -161q-248 0 -248 335q0 90 23 228q50 290 147 425
q99 138 254 138q85 0 145 -48q61 -48 68 -114l21 117q6 29 33 29h86q30 0 24 -29zM522 1329l-18 -100q-2 -29 -33 -29h-94q-27 0 -25 29l19 100q6 29 30 29h95q32 0 26 -29zM784 1329l-18 -100q-2 -29 -33 -29h-94q-27 0 -25 29l19 100q6 29 31 29h94q32 0 26 -29z" />
    <glyph glyph-name="amacron.alt" unicode="&#xe00b;" horiz-adv-x="851" 
d="M631 547q20 103 20 196q0 236 -153 236q-100 0 -163 -102q-64 -103 -104 -330q-26 -144 -26 -232q0 -200 139 -200q209 0 287 432zM862 1065l-182 -1036q-6 -29 -33 -29h-86q-30 0 -24 29l20 116q-76 -161 -248 -161q-248 0 -248 335q0 90 23 228q50 290 147 425
q99 138 254 138q85 0 145 -48q61 -48 68 -114l21 117q6 29 33 29h86q30 0 24 -29zM760 1208h-406q-30 0 -24 29l8 47q6 29 33 29h405q31 0 25 -29l-8 -47q-6 -29 -33 -29z" />
    <glyph glyph-name="abreve.alt" unicode="&#xe00c;" horiz-adv-x="851" 
d="M631 547q20 103 20 196q0 236 -153 236q-100 0 -163 -102q-64 -103 -104 -330q-26 -144 -26 -232q0 -200 139 -200q209 0 287 432zM862 1065l-182 -1036q-6 -29 -33 -29h-86q-30 0 -24 29l20 116q-76 -161 -248 -161q-248 0 -248 335q0 90 23 228q50 290 147 425
q99 138 254 138q85 0 145 -48q61 -48 68 -114l21 117q6 29 33 29h86q30 0 24 -29zM561 1196q-104 0 -153 52q-50 53 -35 141q1 22 24 22h56q22 0 22 -22q-1 -45 21 -69t75 -24q100 0 129 93q6 22 27 22h55q22 0 21 -22q-38 -193 -242 -193z" />
    <glyph glyph-name="aring.alt" unicode="&#xe00d;" horiz-adv-x="851" 
d="M631 547q20 103 20 196q0 236 -153 236q-100 0 -163 -102q-64 -103 -104 -330q-26 -144 -26 -232q0 -200 139 -200q209 0 287 432zM862 1065l-182 -1036q-6 -29 -33 -29h-86q-30 0 -24 29l20 116q-76 -161 -248 -161q-248 0 -248 335q0 90 23 228q50 290 147 425
q99 138 254 138q85 0 145 -48q61 -48 68 -114l21 117q6 29 33 29h86q30 0 24 -29zM571 1268q46 0 74 28q29 29 29 78q0 30 -22 50t-58 20q-44 0 -75 -28q-30 -27 -30 -75q0 -32 23 -53q21 -20 59 -20zM602 1524q70 0 115 -42t45 -102q0 -84 -54 -138t-145 -54q-73 0 -116 43
q-44 44 -44 104q0 82 56 135q57 54 143 54z" />
    <glyph glyph-name="aringacute.alt" unicode="&#xe00e;" horiz-adv-x="851" 
d="M862 1065l-182 -1036q-6 -29 -33 -29h-86q-30 0 -24 29l20 116q-76 -161 -248 -161q-248 0 -248 335q0 90 23 228q50 290 147 425q99 138 254 138q85 0 145 -48q61 -48 68 -114l21 117q6 29 33 29h86q30 0 24 -29zM631 547q20 103 20 196q0 236 -153 236
q-100 0 -163 -102q-64 -103 -104 -330q-26 -144 -26 -232q0 -200 139 -200q209 0 287 432zM403 1335q0 68 40 117q41 50 106 66l76 118q16 25 36 25h130q16 0 19 -11q3 -12 -9 -22l-127 -119q88 -37 88 -129q0 -84 -54 -138t-145 -54q-73 0 -116 43q-44 44 -44 104z
M571 1268q46 0 74 28q29 29 29 78q0 30 -22 50t-58 20q-44 0 -75 -28q-30 -27 -30 -75q0 -32 23 -53q21 -20 59 -20z" />
    <glyph glyph-name="aogonek.alt" unicode="&#xe00f;" horiz-adv-x="851" 
d="M862 1065l-182 -1036q-6 -29 -33 -29h-2q-125 -72 -125 -154q0 -36 62 -36q4 0 24 2t21 2q16 0 16 -15l-2 -51q-1 -21 -18 -27q-31 -14 -72 -14q-143 0 -143 92q0 118 155 201h-2q-30 0 -24 29l20 116q-76 -161 -248 -161q-248 0 -248 335q0 90 23 228q50 290 147 425
q99 138 254 138q85 0 145 -48q61 -48 68 -114l21 117q6 29 33 29h86q30 0 24 -29zM631 547q20 103 20 196q0 236 -153 236q-100 0 -163 -102q-64 -103 -104 -330q-26 -144 -26 -232q0 -200 139 -200q209 0 287 432z" />
    <glyph glyph-name="ij.alt" unicode="&#xe010;" horiz-adv-x="696" 
d="M354 1065l-182 -1036q-6 -29 -33 -29h-86q-30 0 -24 29l182 1036q6 29 33 29h86q30 0 24 -29zM418 1399l-25 -142q-6 -28 -35 -28h-94q-28 0 -22 28l24 142q6 28 31 28h94q33 0 27 -28zM694 1065l-221 -1262q-6 -28 -35 -28h-86q-28 0 -22 28l221 1262q6 29 33 29h86
q30 0 24 -29zM758 1399l-25 -142q-6 -28 -35 -28h-94q-28 0 -22 28l24 142q6 28 31 28h94q33 0 27 -28z" />
    <glyph glyph-name="jcircumflex.alt" unicode="&#xe011;" horiz-adv-x="360" 
d="M354 1065l-221 -1262q-6 -28 -35 -28h-86q-28 0 -22 28l221 1262q6 29 33 29h86q30 0 24 -29zM416 1219l-80 106l-121 -106q-19 -19 -37 -19h-76q-14 0 -16 9q-2 10 8 20l172 176q22 18 41 18h78q29 0 37 -18l110 -176q7 -12 3 -20q-5 -9 -19 -9h-67q-20 0 -33 19z" />
    <glyph glyph-name="dotlessj.alt" unicode="&#xe012;" horiz-adv-x="356" 
d="M354 1065l-221 -1262q-6 -28 -35 -28h-86q-28 0 -22 28l221 1262q6 29 33 29h86q30 0 24 -29z" />
    <glyph glyph-name="ugrave.alt" unicode="&#xe013;" horiz-adv-x="811" 
d="M336 -16q-133 0 -205 66t-72 198q0 38 11 102l125 715q6 29 32 29h86q31 0 25 -29l-125 -709q-10 -59 -10 -96q0 -70 33 -105q33 -34 108 -34q99 0 145 56q47 58 68 179l125 709q6 29 33 29h86q30 0 24 -29l-125 -715q-33 -187 -118 -276q-85 -90 -246 -90zM539 1389
l55 -164q4 -10 -2 -18q-6 -7 -19 -7h-47q-21 0 -34 19l-125 161q-8 8 -3 21q4 12 21 12h121q22 0 33 -24z" />
    <glyph glyph-name="uacute.alt" unicode="&#xe014;" horiz-adv-x="811" 
d="M336 -16q-133 0 -205 66t-72 198q0 38 11 102l125 715q6 29 32 29h86q31 0 25 -29l-125 -709q-10 -59 -10 -96q0 -70 33 -105q33 -34 108 -34q99 0 145 56q47 58 68 179l125 709q6 29 33 29h86q30 0 24 -29l-125 -715q-33 -187 -118 -276q-85 -90 -246 -90zM483 1225
l105 164q15 24 37 24h129q16 0 19 -12q3 -13 -9 -21l-174 -161q-19 -19 -39 -19h-55q-13 0 -16 8q-4 9 3 17z" />
    <glyph glyph-name="ucircumflex.alt" unicode="&#xe015;" horiz-adv-x="811" 
d="M336 -16q-133 0 -205 66t-72 198q0 38 11 102l125 715q6 29 32 29h86q31 0 25 -29l-125 -709q-10 -59 -10 -96q0 -70 33 -105q33 -34 108 -34q99 0 145 56q47 58 68 179l125 709q6 29 33 29h86q30 0 24 -29l-125 -715q-33 -187 -118 -276q-85 -90 -246 -90zM641 1219
l-80 106l-121 -106q-19 -19 -37 -19h-75q-16 0 -17 9q-2 10 8 20l173 176q21 18 40 18h78q30 0 37 -18l111 -176q6 -11 2 -20t-19 -9h-67q-20 0 -33 19z" />
    <glyph glyph-name="utilde.alt" unicode="&#xe016;" horiz-adv-x="811" 
d="M336 -16q-133 0 -205 66t-72 198q0 38 11 102l125 715q6 29 32 29h86q31 0 25 -29l-125 -709q-10 -59 -10 -96q0 -70 33 -105q33 -34 108 -34q99 0 145 56q47 58 68 179l125 709q6 29 33 29h86q30 0 24 -29l-125 -715q-33 -187 -118 -276q-85 -90 -246 -90zM795 1325
q-12 -67 -43 -98t-93 -31q-67 0 -127 33l-43 24q-70 39 -88 -18l-4 -14q-7 -21 -32 -21h-41q-27 0 -21 37q11 67 41 98q31 31 92 31q67 0 127 -33l43 -24q72 -39 90 18l4 14q6 21 33 21h41q27 0 21 -37z" />
    <glyph glyph-name="udieresis.alt" unicode="&#xe017;" horiz-adv-x="811" 
d="M336 -16q-133 0 -205 66t-72 198q0 38 11 102l125 715q6 29 32 29h86q31 0 25 -29l-125 -709q-10 -59 -10 -96q0 -70 33 -105q33 -34 108 -34q99 0 145 56q47 58 68 179l125 709q6 29 33 29h86q30 0 24 -29l-125 -715q-33 -187 -118 -276q-85 -90 -246 -90zM502 1329
l-19 -100q-2 -29 -32 -29h-95q-26 0 -24 29l18 100q6 29 31 29h94q33 0 27 -29zM764 1329l-19 -100q-2 -29 -32 -29h-95q-26 0 -24 29l18 100q6 29 31 29h94q33 0 27 -29z" />
    <glyph glyph-name="umacron.alt" unicode="&#xe018;" horiz-adv-x="811" 
d="M336 -16q-133 0 -205 66t-72 198q0 38 11 102l125 715q6 29 32 29h86q31 0 25 -29l-125 -709q-10 -59 -10 -96q0 -70 33 -105q33 -34 108 -34q99 0 145 56q47 58 68 179l125 709q6 29 33 29h86q30 0 24 -29l-125 -715q-33 -187 -118 -276q-85 -90 -246 -90zM739 1208
h-405q-31 0 -25 29l8 47q6 29 33 29h406q30 0 24 -29l-8 -47q-6 -29 -33 -29z" />
    <glyph glyph-name="ubreve.alt" unicode="&#xe019;" horiz-adv-x="811" 
d="M336 -16q-133 0 -205 66t-72 198q0 38 11 102l125 715q6 29 32 29h86q31 0 25 -29l-125 -709q-10 -59 -10 -96q0 -70 33 -105q33 -34 108 -34q99 0 145 56q47 58 68 179l125 709q6 29 33 29h86q30 0 24 -29l-125 -715q-33 -187 -118 -276q-85 -90 -246 -90zM541 1196
q-105 0 -154 52q-50 53 -35 141q1 22 25 22h55q23 0 23 -22q-2 -46 20 -69q23 -24 76 -24q100 0 129 93q6 22 27 22h55q21 0 20 -22q-38 -193 -241 -193z" />
    <glyph glyph-name="uring.alt" unicode="&#xe01a;" horiz-adv-x="811" 
d="M336 -16q-133 0 -205 66t-72 198q0 38 11 102l125 715q6 29 32 29h86q31 0 25 -29l-125 -709q-10 -59 -10 -96q0 -70 33 -105q33 -34 108 -34q99 0 145 56q47 58 68 179l125 709q6 29 33 29h86q30 0 24 -29l-125 -715q-33 -187 -118 -276q-85 -90 -246 -90zM551 1268
q46 0 74 28t28 78q0 30 -21 50q-22 20 -59 20q-43 0 -74 -28q-30 -27 -30 -75q0 -32 23 -53q21 -20 59 -20zM582 1524q69 0 114 -42t45 -102q0 -84 -54 -138t-144 -54q-73 0 -116 43q-44 44 -44 104q0 83 55 135q57 54 144 54z" />
    <glyph glyph-name="uhungarumlaut.alt" unicode="&#xe01b;" horiz-adv-x="811" 
d="M336 -16q-133 0 -205 66t-72 198q0 38 11 102l125 715q6 29 32 29h86q31 0 25 -29l-125 -709q-10 -59 -10 -96q0 -70 33 -105q33 -34 108 -34q99 0 145 56q47 58 68 179l125 709q6 29 33 29h86q30 0 24 -29l-125 -715q-33 -187 -118 -276q-85 -90 -246 -90zM371 1225
l100 164q12 24 39 24h98q10 0 15 -5q4 -4 2 -12q-1 -6 -9 -16l-145 -161q-17 -19 -39 -19h-51q-27 0 -10 25zM616 1225l99 164q15 24 39 24h98q16 0 19 -11q3 -12 -9 -22l-145 -161q-16 -19 -41 -19h-49q-28 0 -11 25z" />
    <glyph glyph-name="ydieresis.alt" unicode="&#xe01c;" horiz-adv-x="811" 
d="M510 113l20 114q-85 -145 -231 -145q-110 0 -169 68q-58 67 -58 182q0 20 8 86l115 647q6 29 32 29h86q31 0 25 -29l-111 -629q-10 -53 -10 -88q0 -133 119 -133q88 0 154 79q68 82 90 208l98 563q6 29 33 29h86q30 0 24 -29l-170 -961q-60 -346 -389 -346
q-140 0 -221 31q-20 7 -18 35l14 76q6 33 37 22q104 -31 190 -31q208 0 246 222zM502 1329l-19 -100q-2 -29 -32 -29h-95q-26 0 -24 29l18 100q6 29 31 29h94q33 0 27 -29zM764 1329l-19 -100q-2 -29 -32 -29h-95q-26 0 -24 29l18 100q6 29 31 29h94q33 0 27 -29z" />
    <glyph glyph-name="yacute.alt" unicode="&#xe01d;" horiz-adv-x="811" 
d="M510 113l20 114q-85 -145 -231 -145q-110 0 -169 68q-58 67 -58 182q0 20 8 86l115 647q6 29 32 29h86q31 0 25 -29l-111 -629q-10 -53 -10 -88q0 -133 119 -133q88 0 154 79q68 82 90 208l98 563q6 29 33 29h86q30 0 24 -29l-170 -961q-60 -346 -389 -346
q-140 0 -221 31q-20 7 -18 35l14 76q6 33 37 22q104 -31 190 -31q208 0 246 222zM471 1225l104 164q15 24 37 24h129q17 0 20 -12q3 -13 -9 -21l-174 -161q-19 -19 -39 -19h-56q-12 0 -15 8q-4 9 3 17z" />
    <glyph glyph-name="ycircumflex.alt" unicode="&#xe01e;" horiz-adv-x="811" 
d="M510 113l20 114q-85 -145 -231 -145q-110 0 -169 68q-58 67 -58 182q0 20 8 86l115 647q6 29 32 29h86q31 0 25 -29l-111 -629q-10 -53 -10 -88q0 -133 119 -133q88 0 154 79q68 82 90 208l98 563q6 29 33 29h86q30 0 24 -29l-170 -961q-60 -346 -389 -346
q-140 0 -221 31q-20 7 -18 35l14 76q6 33 37 22q104 -31 190 -31q208 0 246 222zM641 1219l-80 106l-121 -106q-19 -19 -37 -19h-75q-16 0 -17 9q-2 10 8 20l173 176q21 18 40 18h78q30 0 37 -18l111 -176q6 -11 2 -20t-19 -9h-67q-20 0 -33 19z" />
    <glyph glyph-name="ygrave.alt" unicode="&#xe01f;" horiz-adv-x="811" 
d="M510 113l20 114q-85 -145 -231 -145q-110 0 -169 68q-58 67 -58 182q0 20 8 86l115 647q6 29 32 29h86q31 0 25 -29l-111 -629q-10 -53 -10 -88q0 -133 119 -133q88 0 154 79q68 82 90 208l98 563q6 29 33 29h86q30 0 24 -29l-170 -961q-60 -346 -389 -346
q-140 0 -221 31q-20 7 -18 35l14 76q6 33 37 22q104 -31 190 -31q208 0 246 222zM539 1389l55 -164q4 -10 -2 -18q-6 -7 -19 -7h-47q-21 0 -34 19l-125 161q-8 8 -3 21q4 12 21 12h121q22 0 33 -24z" />
    <glyph glyph-name="i.dot" unicode="&#xe020;" horiz-adv-x="356" 
d="M354 1065l-182 -1036q-6 -29 -33 -29h-86q-30 0 -24 29l182 1036q6 29 33 29h86q30 0 24 -29zM418 1399l-25 -142q-6 -28 -35 -28h-94q-28 0 -22 28l24 142q6 28 31 28h94q33 0 27 -28z" />
    <glyph glyph-name="dollar.old" unicode="&#xe021;" horiz-adv-x="778" 
d="M608 1327l-22 -127q107 -6 155 -22q19 -6 24 -14q4 -7 3 -23l-12 -72q-6 -35 -45 -25q-82 21 -176 21q-97 0 -166 -45q-70 -46 -70 -143q0 -43 27 -84q30 -45 53 -63q8 -6 20 -15.5t30.5 -23.5t33.5 -25q60 -45 102 -83q39 -36 75 -102t36 -137q0 -137 -80 -229
t-223 -119l-23 -135q-6 -29 -35 -29h-61q-29 0 -23 29l21 125q-168 5 -227 26q-31 11 -25 39l14 78q6 35 41 23q78 -29 211 -29q101 0 177 49q77 50 77 152q0 48 -32 95q-31 46 -64 73q-34 28 -92 67q-189 127 -189 299q0 139 86 228t238 112l22 129q6 29 31 29h62
q32 0 26 -29z" />
    <glyph glyph-name="cent.old" unicode="&#xe022;" horiz-adv-x="737" 
d="M100 594q50 286 157 432q108 148 282 170l24 131q6 29 31 29h61q33 0 27 -29l-23 -127q61 -6 105 -22q28 -10 22 -39l-12 -70q-6 -33 -41 -22q-66 18 -131 18q-136 0 -221 -114t-129 -357q-21 -111 -21 -205q0 -266 203 -266q77 0 150 20q16 4 24 -2q7 -6 6 -20l-12 -70
q-4 -22 -35 -37q-30 -15 -123 -26l-20 -127q-6 -29 -35 -29h-61q-29 0 -23 29l23 129q-117 15 -182 110q-66 96 -66 277q0 106 20 217z" />
    <glyph glyph-name="sterling.old" unicode="&#xe023;" horiz-adv-x="919" 
d="M231 543h-106q-29 0 -23 28l9 54q6 28 32 28h66q-21 99 -21 156q0 183 111 288t295 105q146 0 225 -61q80 -62 80 -183q0 -120 -45 -120h-84q-22 0 -22 16q0 18 6 48t6 44q0 121 -170 121q-118 0 -185 -73q-65 -71 -65 -185q0 -65 18 -156h244q31 0 25 -28l-9 -54
q-6 -28 -34 -28h-207q4 -20 4 -70q0 -219 -160 -332q54 19 109 19q48 0 120 -20q69 -19 113 -19q108 0 135 164q2 24 29 24h76q30 0 24 -30q-23 -141 -72 -217t-159 -76q-68 0 -160 21q-96 22 -151 22q-117 0 -211 -39q-25 -8 -29 4l-39 76q-7 15 12 26q106 61 164 157
t58 206q0 37 -9 84z" />
    <glyph glyph-name="yen.old" unicode="&#xe024;" horiz-adv-x="897" 
d="M727 285h-240l-45 -256q-6 -29 -32 -29h-86q-31 0 -25 29l45 256h-240q-25 0 -24 28l10 49q2 29 31 29h244l6 35l-31 109h-190q-31 0 -25 28l8 49q6 29 33 29h141l-143 506q-4 11 3 23q8 12 26 12h88q28 0 34 -27l152 -549h4l344 549q17 27 39 27h96q19 0 24 -13
q4 -12 -3 -22l-322 -506h139q31 0 25 -29l-8 -49q-6 -28 -33 -28h-192l-70 -109l-6 -35h239q29 0 27 -29l-10 -49q-1 -28 -33 -28z" />
    <glyph glyph-name="Euro.old" unicode="&#xe025;" horiz-adv-x="851" 
d="M72 537h100q0 14 8 57q3 22 13 57h-99q-30 0 -24 29l8 49q6 29 33 29h110q140 444 506 444q104 0 162 -29q22 -10 12 -38l-24 -66q-12 -31 -43 -20q-58 16 -121 16q-246 0 -340 -307h334q30 0 18 -29l-18 -49q-12 -29 -39 -29h-324q-8 -27 -12 -57q-8 -43 -8 -57h294
q31 0 19 -29l-19 -49q-12 -29 -38 -29h-265q-15 -307 232 -307q67 0 125 16q36 8 37 -20l2 -66q0 -27 -27 -39q-66 -28 -172 -28q-180 0 -269 122q-89 123 -79 322h-109q-30 0 -24 29l8 49q6 29 33 29z" />
    <glyph glyph-name="zero.old" unicode="&#xe026;" horiz-adv-x="909" 
d="M567 1202q149 0 228 -102q79 -101 79 -295q0 -105 -20 -211q-108 -608 -467 -608q-149 0 -228 100t-79 293q0 109 20 215q105 608 467 608zM393 123q225 0 307 469q25 139 25 227q0 246 -166 246q-111 0 -187 -115q-75 -114 -120 -356q-25 -139 -25 -225q0 -246 166 -246
z" />
    <glyph glyph-name="one.old" unicode="&#xe027;" horiz-adv-x="782" 
d="M627 0h-598q-31 0 -25 29l14 77q2 29 31 29h236l153 871l-205 -162q-20 -14 -30 0l-49 61q-12 19 6 31l303 240q17 12 35 12h86q30 0 24 -29l-180 -1024h219q29 0 27 -29l-15 -77q-6 -29 -32 -29z" />
    <glyph glyph-name="two.old" unicode="&#xe028;" horiz-adv-x="843" 
d="M-8 29l12 65q5 25 27 41q30 23 68.5 52.5t48.5 36.5q34 26 117 93q82 67 124 109q53 52 105 110q64 70 93 121t54 121t25 131q0 154 -152 154q-108 0 -168 -76q-59 -75 -59 -182q0 -39 -31 -39h-86q-25 0 -25 47q0 167 105 276t274 109q143 0 218 -77t75 -199
q0 -96 -42 -197t-94 -172q-53 -72 -150 -162q-105 -97 -151 -134q-48 -38 -157 -122h453q32 0 26 -29l-14 -77q-6 -29 -33 -29h-639q-30 0 -24 29z" />
    <glyph glyph-name="three.old" unicode="&#xe029;" horiz-adv-x="772" 
d="M240 604h75q116 0 185 93t69 208q0 160 -192 160q-88 0 -213 -35q-13 -5 -21 2q-7 6 -6 21l15 77q5 23 32 33q100 39 207 39q158 0 248 -73q88 -72 88 -201q0 -130 -61 -231t-172 -146q67 -24 112 -93t45 -175q0 -241 -131 -380t-364 -139q-155 0 -246 35q-25 11 -21 31
l15 86q6 31 35 23q139 -37 206 -37q168 0 259 101q92 103 92 273q0 193 -201 193h-80q-29 0 -27 27l15 82q6 26 37 26z" />
    <glyph glyph-name="four.old" unicode="&#xe02a;" horiz-adv-x="909" 
d="M657 934l-499 -672h381zM719 1188h100q33 0 27 -31l-158 -895h131q33 0 27 -31l-12 -73q-6 -31 -37 -31h-133l-56 -322q-6 -30 -37 -30h-90q-30 0 -24 30l55 322h-498q-30 0 -24 31l12 73q6 23 21 41l657 891q17 25 39 25z" />
    <glyph glyph-name="five.old" unicode="&#xe02b;" horiz-adv-x="823" 
d="M756 1053h-400q-35 -179 -96 -418q64 29 152 29q146 0 226 -84q79 -83 79 -226q0 -266 -130 -429t-382 -163q-143 0 -232 33q-25 8 -20 33l12 78q6 30 37 22q105 -30 205 -30q180 0 267 130q87 131 87 320q0 182 -190 182q-70 0 -133 -21q-66 -22 -68 -22q-8 0 -25 7
l-34 16q-13 5 -7 35q96 384 138 612q6 31 34 31h502q31 0 25 -29l-12 -78q-4 -28 -35 -28z" />
    </font>
</defs>
</svg>
