<?xml version="1.0" standalone="no"?>
<!DOCTYPE svg PUBLIC "-//W3C//DTD SVG 1.1//EN" "http://www.w3.org/Graphics/SVG/1.1/DTD/svg11.dtd" >
<svg xmlns="http://www.w3.org/2000/svg" xmlns:xlink="http://www.w3.org/1999/xlink" version="1.1">
<metadata>
Created by FontForge 20170731 at Mon Nov 21 16:50:43 2022
 By Aleksey,,,
(c) 2012, 2013, 2014, 2015 by Stawix Ruecha &#38; Foundry. All rights reserved.
</metadata>
<defs>
<font id="AmsiPro-Italic" horiz-adv-x="870" >
  <font-face 
    font-family="AmsiPro-Italic"
    font-weight="400"
    font-style="italic"
    font-stretch="normal"
    units-per-em="2048"
    panose-1="2 11 10 6 2 2 1 1 1 4"
    ascent="1747"
    descent="-301"
    x-height="1061"
    cap-height="1438"
    bbox="-523.045 -590 2628 2126"
    underline-thickness="81"
    underline-position="-203"
    slope="-10"
    unicode-range="U+0020-FB4E"
  />
<missing-glyph horiz-adv-x="1007" 
d="M0 1413h1008v-1413h-1008v1413zM907 193v1030l-344 -516zM100 1223v-1030l344 514zM504 797l344 516h-686zM504 616l-342 -516h684z" />
    <glyph glyph-name="f_f" unicode="ff" horiz-adv-x="1308" 
d="M1092 1061h243q33 0 27 -33l-14 -84q-6 -31 -39 -31h-244l-156 -882q-6 -31 -35 -31h-102q-33 0 -27 31l156 882h-436l-156 -882q-6 -31 -35 -31h-100q-35 0 -29 31l156 882h-141q-31 0 -25 31l14 84q6 33 37 33h142l16 98q52 295 324 295q106 0 157 -24q18 -8 13 -29
l-15 -78q-4 -34 -32 -27q-49 13 -111 13q-145 0 -172 -156l-16 -92h436l16 98q51 295 324 295q104 0 157 -24q18 -8 13 -29l-15 -78q-4 -34 -32 -27q-50 13 -111 13q-145 0 -172 -156z" />
    <glyph glyph-name="fi" unicode="fi" horiz-adv-x="1153" 
d="M1087 1028l-176 -995q-6 -33 -37 -33h-100q-35 0 -29 33l156 880h-436l-156 -882q-6 -31 -35 -31h-100q-35 0 -29 31l156 882h-141q-31 0 -25 31l15 84q5 20 10 26q6 7 26 7h142l16 90q51 303 318 303q110 0 163 -24q17 -11 13 -29l-15 -78q-5 -33 -35 -27
q-57 13 -112 13q-143 0 -172 -164l-15 -84h572q32 0 26 -33zM1151 1407l-31 -168q-6 -31 -37 -31h-92q-34 0 -28 31l30 168q6 31 37 31h92q35 0 29 -31z" />
    <glyph glyph-name="fl" unicode="fl" horiz-adv-x="1150" 
d="M1147 1380l-238 -1347q-6 -33 -35 -33h-102q-33 0 -27 33l224 1265q-71 17 -187 17q-136 0 -200 -44t-80 -138l-13 -72h193q31 0 25 -33l-15 -84q-6 -31 -37 -31h-190l-156 -882q-6 -31 -35 -31h-100q-35 0 -29 31l156 882h-141q-31 0 -25 31l15 84q6 33 36 33h142l12 72
q28 165 128 245t323 80q228 0 331 -41q29 -11 25 -37z" />
    <glyph glyph-name="f_f_i" unicode="ffi" horiz-adv-x="1751" 
d="M1686 1028l-177 -995q-6 -33 -36 -33h-101q-32 0 -26 33l155 880h-436l-156 -882q-6 -31 -35 -31h-102q-33 0 -27 31l156 882h-436l-156 -882q-6 -31 -35 -31h-100q-35 0 -29 31l156 882h-141q-31 0 -25 31l14 84q6 33 37 33h142l16 98q52 295 324 295q106 0 157 -24
q18 -8 13 -29l-15 -78q-4 -34 -32 -27q-49 13 -111 13q-145 0 -172 -156l-16 -92h436l16 98q51 295 324 295q104 0 157 -24q18 -8 13 -29l-15 -78q-4 -34 -32 -27q-50 13 -111 13q-145 0 -172 -156l-16 -92h567q33 0 27 -33zM1749 1407l-31 -168q-6 -31 -35 -31h-94
q-34 0 -28 31l30 168q6 31 37 31h94q33 0 27 -31z" />
    <glyph glyph-name="f_f_l" unicode="ffl" horiz-adv-x="1748" 
d="M1065 913l-156 -882q-6 -31 -35 -31h-102q-33 0 -27 33l156 880h-436l-156 -882q-6 -31 -35 -31h-100q-35 0 -29 31l156 882h-141q-31 0 -25 31l15 84q6 33 36 33h142l16 98q52 295 324 295q106 0 157 -24q18 -8 13 -29l-15 -78q-4 -34 -32 -27q-49 13 -111 13
q-145 0 -172 -156l-16 -92h436l12 72q28 166 128 246q98 79 323 79q226 0 329 -41q19 -6 23 -13q4 -6 2 -26l-238 -1345q-6 -33 -34 -33h-103q-33 0 -27 33l224 1265q-71 17 -185 17q-135 0 -199 -44q-62 -43 -79 -138l-12 -72h188q33 0 27 -33l-15 -84q-6 -31 -39 -31h-188
z" />
    <glyph glyph-name="f_b" unicode="fb" horiz-adv-x="1943" 
d="M997 532q-10 -50 -10 -118q0 -141 74 -215t211 -74q167 0 268 97q102 97 139 310q13 84 13 136q0 272 -277 272q-165 0 -273 -104q-110 -106 -145 -304zM1147 1380l-88 -501q128 206 399 206q188 0 296 -102t108 -301q0 -76 -15 -150q-50 -275 -189 -413
q-140 -139 -358 -139q-138 0 -239 51q-100 51 -127 151l-27 -151q-6 -31 -37 -31h-98q-33 0 -27 33l224 1265q-71 17 -187 17q-135 0 -199 -44q-62 -43 -79 -138l-12 -72h190q31 0 25 -33l-15 -84q-6 -31 -37 -31h-190l-156 -882q-6 -31 -35 -31h-100q-35 0 -29 31l156 882
h-141q-31 0 -25 31l15 84q6 33 36 33h142l12 74q28 164 129 244q100 79 324 79q226 0 329 -41q29 -11 25 -37z" />
    <glyph glyph-name="f_f_b" unicode="ffb" horiz-adv-x="2543" 
d="M1595 532q-10 -50 -10 -118q0 -141 74 -215t211 -74q168 0 269 97q100 96 138 308q15 90 15 138q0 272 -279 272q-165 0 -273 -104q-110 -106 -145 -304zM1745 1378l-88 -499q61 98 166 152t231 54q189 0 297 -102q109 -103 109 -301q0 -76 -15 -150q-50 -277 -188 -414
q-139 -138 -359 -138q-136 0 -237 51q-100 51 -127 151l-29 -151q-6 -31 -37 -31h-98q-33 0 -27 33l224 1265q-71 17 -185 17q-135 0 -199 -44q-62 -43 -79 -138l-12 -72h190q33 0 27 -33l-15 -84q-6 -31 -39 -31h-190l-156 -882q-6 -31 -35 -31h-102q-33 0 -27 31l156 882
h-436l-156 -882q-6 -31 -35 -31h-100q-35 0 -29 31l156 882h-141q-31 0 -25 31l15 84q6 33 36 33h142l16 98q49 295 324 295q97 0 157 -24q18 -8 13 -29l-15 -78q-4 -34 -32 -27q-49 13 -111 13q-145 0 -172 -156l-16 -92h436l12 72q28 166 128 246q98 79 323 79
q226 0 329 -41q18 -8 23 -14q4 -5 2 -25z" />
    <glyph glyph-name="f_h" unicode="fh" horiz-adv-x="1888" 
d="M1147 1380l-84 -485q121 190 383 190q166 0 254 -79t88 -220q0 -43 -8 -86l-119 -667q-6 -33 -37 -33h-100q-35 0 -29 33l115 643q6 38 6 72q0 184 -225 184q-147 0 -250 -86t-127 -219l-105 -594q-6 -33 -35 -33h-102q-33 0 -27 33l224 1265q-71 17 -187 17
q-135 0 -199 -44q-62 -43 -79 -138l-12 -72h190q31 0 25 -33l-15 -84q-6 -31 -37 -31h-190l-156 -882q-6 -31 -35 -31h-100q-35 0 -29 31l156 882h-141q-31 0 -25 31l15 84q6 33 36 33h142l12 72q28 165 129 245t324 80q226 0 329 -41q29 -11 25 -37z" />
    <glyph glyph-name="f_f_h" unicode="ffh" horiz-adv-x="2488" 
d="M1745 1380l-84 -485q124 190 383 190q166 0 254 -79t88 -220q0 -45 -8 -88l-119 -665q-6 -33 -37 -33h-100q-35 0 -29 33l115 643q6 38 6 72q0 184 -223 184q-149 0 -252 -86t-127 -219l-105 -594q-6 -33 -34 -33h-103q-33 0 -27 33l224 1265q-71 17 -185 17
q-135 0 -199 -44q-62 -43 -79 -138l-12 -72h190q33 0 27 -33l-15 -84q-6 -31 -39 -31h-190l-156 -882q-6 -31 -35 -31h-102q-33 0 -27 31l156 882h-436l-156 -882q-6 -31 -35 -31h-100q-35 0 -29 31l156 882h-141q-31 0 -25 31l15 84q6 33 36 33h142l16 98q52 295 318 295
q112 0 163 -24q18 -8 13 -29l-15 -78q-4 -34 -32 -27q-49 13 -111 13q-145 0 -172 -156l-16 -92h436l12 72q28 166 128 246q98 79 323 79q226 0 329 -41q20 -7 24 -13q5 -9 1 -24z" />
    <glyph glyph-name="f_j" unicode="fj" horiz-adv-x="1155" 
d="M1094 1028l-174 -983q-24 -144 -89 -213q-62 -65 -186 -65q-81 0 -141 18q-25 6 -19 31l15 84q4 34 37 24q39 -10 88 -10q109 0 133 152l149 847h-442l-156 -882q-6 -31 -35 -31h-100q-35 0 -29 31l156 882h-141q-31 0 -25 31l15 84q6 33 36 33h142l16 98q52 295 324 295
q106 0 157 -24q18 -8 13 -29l-15 -78q-4 -34 -32 -27q-49 13 -111 13q-145 0 -172 -156l-16 -92h575q33 0 27 -33zM1157 1407l-31 -168q-6 -31 -36 -31h-93q-34 0 -28 31l30 168q6 31 37 31h92q35 0 29 -31z" />
    <glyph glyph-name="f_f_j" unicode="ffj" horiz-adv-x="1753" 
d="M1692 1028l-174 -983q-24 -144 -89 -213q-62 -65 -186 -65q-83 0 -143 18q-23 6 -17 31l15 84q4 30 37 24q63 -10 88 -10q111 0 135 147l149 852h-442l-156 -882q-6 -31 -35 -31h-102q-33 0 -27 31l156 882h-436l-156 -882q-6 -31 -35 -31h-100q-35 0 -29 31l156 882
h-141q-31 0 -25 31l14 84q6 33 37 33h142l16 98q52 295 324 295q106 0 157 -24q18 -8 13 -29l-15 -78q-4 -34 -32 -27q-49 13 -111 13q-145 0 -172 -156l-16 -92h436l16 98q51 295 324 295q104 0 157 -24q19 -11 13 -31l-15 -76q-4 -34 -32 -27q-50 13 -111 13
q-145 0 -172 -156l-16 -92h573q33 0 27 -33zM1755 1407l-31 -168q-6 -31 -34 -31h-95q-34 0 -28 31l30 168q6 31 37 31h95q32 0 26 -31z" />
    <glyph glyph-name="f_k" unicode="fk" horiz-adv-x="1681" 
d="M1149 1380l-119 -669l477 336q17 14 45 14h166q19 0 20 -13q1 -12 -18 -28l-604 -424l455 -557q10 -11 2 -26q-7 -13 -25 -13h-137q-25 0 -43 23l-377 471l-80 -461q-6 -33 -37 -33h-100q-35 0 -29 33l224 1265q-71 17 -187 17q-135 0 -199 -44q-62 -43 -79 -138l-12 -72
h190q31 0 25 -33l-15 -84q-6 -31 -37 -31h-190l-156 -882q-6 -31 -35 -31h-100q-35 0 -29 31l156 882h-141q-31 0 -25 31l15 84q6 33 36 33h142l12 72q28 165 128 245t325 80q105 0 199 -13q99 -14 132 -28q29 -11 25 -37z" />
    <glyph glyph-name="f_f_k" unicode="ffk" horiz-adv-x="2279" 
d="M1747 1380l-119 -669l477 336q17 14 45 14h166q18 0 19 -14q1 -15 -17 -27l-604 -424l455 -557q10 -11 2 -26q-7 -13 -25 -13h-137q-25 0 -43 23l-377 471l-80 -461q-6 -33 -36 -33h-101q-35 0 -29 33l224 1265q-71 17 -185 17q-135 0 -199 -44q-62 -43 -79 -138l-12 -72
h188q33 0 27 -33l-15 -84q-6 -31 -39 -31h-188l-156 -882q-6 -31 -35 -31h-102q-33 0 -27 31l156 882h-436l-156 -882q-6 -31 -35 -31h-100q-35 0 -29 31l156 882h-141q-31 0 -25 31l15 84q6 33 36 33h142l16 98q49 295 324 295q106 0 157 -24q18 -8 13 -29l-15 -78
q-8 -33 -32 -27q-49 13 -111 13q-145 0 -172 -156l-16 -92h436l12 72q28 166 128 246q98 79 323 79q105 0 199 -13q99 -14 132 -28q18 -8 23 -14q4 -5 2 -23z" />
    <glyph glyph-name="f_t" unicode="ft" horiz-adv-x="1345" 
d="M492 1061h440l45 258q6 31 37 31h96q33 0 27 -31l-45 -258h268q32 0 26 -33l-14 -84q-6 -31 -39 -31h-268l-102 -579q-11 -60 -11 -90q0 -61 33 -85t113 -24q42 0 104 15q19 2 25 -6q5 -7 4 -21l-8 -84q-5 -23 -31 -29q-70 -22 -131 -22q-141 0 -208 53t-67 174
q0 58 11 111l104 587h-436l-156 -882q-6 -31 -35 -31h-100q-35 0 -29 31l156 882h-141q-31 0 -25 31l15 84q6 33 36 33h142l16 98q52 295 324 295q106 0 157 -24q18 -8 13 -29l-15 -78q-4 -34 -32 -27q-49 13 -111 13q-145 0 -172 -156z" />
    <glyph glyph-name="f_f_t" unicode="fft" horiz-adv-x="1943" 
d="M928 1061l16 98q51 295 324 295q108 0 157 -24q18 -8 13 -29l-15 -78q-4 -34 -32 -27q-50 13 -111 13q-145 0 -172 -156l-16 -92h438l45 258q6 31 37 31h94q33 0 27 -31l-45 -258h272q31 0 25 -31l-15 -86q-6 -31 -37 -31h-272l-102 -579q-11 -60 -11 -86q0 -64 34 -88
q36 -25 114 -25q17 0 39 2q16 1 31 6q21 6 26 7q17 2 22 -5t5 -22l6 -80q2 -19 -25 -31q-60 -24 -141 -24q-139 0 -207 53t-68 174q0 47 13 115l102 583h-434l-156 -882q-6 -31 -35 -31h-102q-33 0 -27 31l156 882h-436l-156 -882q-6 -31 -35 -31h-100q-35 0 -29 31l156 882
h-141q-31 0 -25 31l15 84q6 33 36 33h142l16 98q52 295 324 295q106 0 157 -24q18 -8 13 -29l-15 -78q-4 -34 -32 -27q-49 13 -111 13q-145 0 -172 -156l-16 -92h436z" />
    <glyph glyph-name="t_t" unicode="tt" horiz-adv-x="1337" 
d="M1327 913h-272l-103 -579q-10 -54 -10 -86q0 -64 34 -88q36 -25 114 -25q16 0 38 2q17 2 32 6q21 6 26 7q16 1 21 -5q5 -7 5 -22l7 -80q2 -19 -25 -31q-60 -24 -141 -24q-141 0 -208 53t-67 174q0 62 10 111l105 587h-444l-103 -579q-10 -54 -10 -88q0 -62 33 -86
q34 -25 114 -25q29 0 97 15q16 1 21 -5q5 -7 5 -22l6 -80q2 -20 -24 -31q-60 -24 -142 -24q-139 0 -206 53q-66 53 -66 172q0 64 10 113l103 587h-146q-32 0 -26 31l14 84q6 33 39 33h149l45 258q6 31 37 31h95q32 0 26 -31l-45 -258h449l45 258q6 31 37 31h94q32 0 26 -31
l-45 -258h273q30 0 24 -33l-14 -84q-6 -31 -37 -31z" />
    <glyph glyph-name="t_t_f" unicode="ttf" horiz-adv-x="1921" 
d="M1055 913l-103 -579q-10 -54 -10 -86q0 -64 34 -88q36 -25 114 -25q45 0 102 15q17 1 24 -6t5 -21l-9 -84q-2 -23 -30 -29q-66 -22 -129 -22q-139 0 -207 53t-68 174q0 47 13 115l102 583h-444l-103 -579q-10 -54 -10 -88q0 -62 33 -86q34 -25 114 -25q17 0 39 2
q17 2 32 6q21 6 26 7q16 1 21 -5q5 -7 5 -22l6 -80q2 -20 -24 -31q-60 -24 -142 -24q-140 0 -207 53t-67 174q0 51 12 117l103 581h-146q-32 0 -26 31l14 84q6 33 39 33h149l45 258q6 31 37 31h95q32 0 26 -31l-45 -258h449l45 258q6 31 37 31h94q32 0 26 -31l-45 -258h457
l16 96q51 297 322 297q108 0 160 -24q17 -8 12 -29l-14 -78q-4 -35 -33 -27q-50 13 -111 13q-145 0 -172 -156l-16 -92h244q32 0 26 -33l-14 -84q-6 -31 -39 -31h-244l-155 -882q-6 -31 -35 -31h-103q-32 0 -26 31l155 882h-456z" />
    <glyph glyph-name=".notdef" horiz-adv-x="1007" 
d="M0 1413h1008v-1413h-1008v1413zM907 193v1030l-344 -516zM100 1223v-1030l344 514zM504 797l344 516h-686zM504 616l-342 -516h684z" />
    <glyph glyph-name=".null" horiz-adv-x="0" 
 />
    <glyph glyph-name="nonmarkingreturn" horiz-adv-x="681" 
 />
    <glyph glyph-name="space" unicode=" " horiz-adv-x="614" 
 />
    <glyph glyph-name="exclam" unicode="!" horiz-adv-x="591" 
d="M115 33l28 162q6 30 37 30h146q30 0 24 -30l-28 -162q-6 -33 -35 -33h-146q-32 0 -26 33zM322 406h-76q-33 0 -27 32l139 967q6 33 39 33h138q32 0 26 -33l-201 -967q-6 -32 -38 -32z" />
    <glyph glyph-name="quotedbl" unicode="&#x22;" horiz-adv-x="677" 
d="M406 1270l-87 -305h-77l18 305q5 60 16 131q15 72 93 72q82 0 67 -72q-11 -63 -30 -131zM700 1270l-86 -305h-79l20 305q5 82 14 131q15 72 93 72q82 0 67 -72q-16 -88 -29 -131z" />
    <glyph glyph-name="numbersign" unicode="#" horiz-adv-x="1312" 
d="M1307 1399l-158 -359h192q31 0 25 -30l-10 -68q-6 -33 -37 -33h-227l-177 -395h185q32 0 26 -33l-12 -67q-6 -31 -39 -31h-219l-162 -379q-16 -32 -43 -24l-69 22q-34 8 -17 37l150 344h-326l-162 -379q-15 -34 -43 -24l-69 22q-32 6 -17 37l150 344h-193q-32 0 -26 31
l12 67q6 33 39 33h227l174 395h-184q-31 0 -25 33l11 68q6 30 36 30h220l172 396q12 28 43 22l69 -18q32 -8 17 -41l-158 -359h322l174 396q12 33 43 22l69 -18q32 -11 17 -41zM625 909l-176 -395h325l172 395h-321z" />
    <glyph glyph-name="dollar" unicode="$" horiz-adv-x="1157" 
d="M856 1612l-27 -154q84 -1 178 -23q89 -20 136 -44q29 -12 12 -41l-49 -86q-18 -33 -45 -21q-118 57 -289 57q-64 0 -123 -13q-65 -14 -122 -40q-60 -27 -97 -79t-37 -119q0 -33 14 -61q15 -31 28 -46q17 -20 52 -40q42 -23 59 -32q14 -7 74 -31q40 -16 72 -32
q91 -39 142 -67q50 -27 109 -71q62 -46 89 -106t27 -137q0 -190 -132 -294q-132 -103 -347 -138l-29 -166q-6 -33 -37 -33h-68q-32 0 -26 33l26 156q-236 0 -397 73q-35 15 -20 39l49 88q17 31 47 19q165 -62 332 -62q65 0 140 13q66 12 136 41q69 29 109 85q41 58 41 136
q0 33 -7 55q-8 26 -28 46q-8 7 -19.5 19t-15.5 17q-16 16 -53 33q-14 7 -32 15.5t-23 10.5q-23 11 -68 29q-47 19 -68 27q-88 36 -135 61q-51 27 -108 72q-59 47 -85 104q-28 62 -28 135q0 183 136 286q137 104 349 128l27 158q6 30 39 30h67q31 0 25 -30z" />
    <glyph glyph-name="percent" unicode="%" horiz-adv-x="1896" 
d="M1626 1407l-1106 -1380q-22 -27 -47 -27h-102q-16 0 -21 8t8 25l1104 1380q22 25 49 25h103q13 0 18 -8t-6 -23zM190 1026q37 210 140 319q101 107 256 107q133 0 211 -79q77 -78 77 -230q0 -53 -10 -117q-38 -209 -140 -316q-104 -108 -257 -108q-133 0 -210 80t-77 229
q0 51 10 115zM717 1026q10 63 10 104q0 187 -149 187q-92 0 -155 -74t-87 -217q-10 -63 -10 -104q0 -185 149 -185q190 0 242 289zM1122 412q37 209 140 318q102 108 256 108q133 0 211 -79q77 -78 77 -231q0 -52 -10 -116q-38 -210 -140 -317q-103 -107 -257 -107
q-133 0 -210 80t-77 229q0 51 10 115zM1649 412q10 63 10 104q0 186 -150 186q-91 0 -154 -73q-63 -74 -87 -217q-11 -69 -11 -105q0 -184 150 -184q191 0 242 289z" />
    <glyph glyph-name="ampersand" unicode="&#x26;" horiz-adv-x="1484" 
d="M1384 657q0 -231 -159 -415l159 -207q8 -12 2 -24q-6 -11 -20 -11h-129q-31 0 -49 23l-80 108q-185 -147 -485 -147q-241 0 -392 109t-151 282q0 188 128 313t339 176l-37 49q-82 107 -82 220q0 164 115 247q113 82 303 82q160 0 266 -51q36 -17 21 -39l-46 -72
q-19 -31 -53 -16q-84 35 -188 35q-107 0 -181 -40q-75 -41 -75 -138q0 -80 88 -193l457 -590q57 68 79 144q21 72 21 174q0 45 29 45h90q30 0 30 -64zM633 133q251 0 387 111l-393 508q-154 -33 -261 -121q-108 -89 -108 -234q0 -115 101 -189q102 -75 274 -75z" />
    <glyph glyph-name="quotesingle" unicode="'" horiz-adv-x="385" 
d="M406 1270l-87 -305h-77l18 305q5 60 16 131q15 72 93 72q82 0 67 -72q-11 -63 -30 -131z" />
    <glyph glyph-name="parenleft" unicode="(" horiz-adv-x="745" 
d="M190 430q0 269 139 532q140 264 365 476q20 20 45 20h82q12 0 17 -5q4 -4 2 -12q-1 -6 -9 -14q-207 -201 -338 -466t-131 -537q0 -338 183 -631q6 -10 0 -21q-6 -12 -23 -12h-82q-26 0 -39 19q-211 302 -211 651z" />
    <glyph glyph-name="parenright" unicode=")" horiz-adv-x="745" 
d="M604 788q0 -270 -138 -531q-137 -260 -366 -478q-19 -19 -43 -19h-84q-17 0 -18 12t8 21q211 205 342 468q131 264 131 538q0 355 -186 628q-6 11 0 21t22 10h84q23 0 37 -20q211 -298 211 -650z" />
    <glyph glyph-name="asterisk" unicode="*" horiz-adv-x="808" 
d="M457 752q-33 0 -42 13q-9 14 -5 46q9 38 30 111q30 107 33 122q-51 -32 -73 -47q-40 -28 -84 -55q-37 -23 -58 -33q-60 -33 -78 17q-18 47 41 80q14 7 109 46q111 45 121 50q-7 4 -20 10t-37 17.5t-43 20.5q-76 37 -95 50q-50 28 -12 78q35 47 82 18q27 -18 83 -67
q64 -56 83 -70q4 33 9 120t9 114q10 61 68 61q31 0 38 -13q8 -14 2 -48q-2 -19 -61 -234q18 12 74 48q16 10 44.5 28.5t40.5 26.5q33 21 58 34q57 28 78 -18q15 -51 -41 -80q-15 -9 -114 -48q-94 -36 -115 -46q22 -13 103 -52q78 -37 91 -46q46 -33 12 -78q-37 -49 -81 -19
q-23 15 -84 66t-84 69q0 -8 -2 -34t-3 -45q0 -8 -7 -93q-3 -42 -7 -61q-7 -59 -63 -59z" />
    <glyph glyph-name="plus" unicode="+" horiz-adv-x="1208" 
d="M1081 633h-372l-66 -375q-6 -31 -35 -31h-92q-33 0 -27 31l66 375h-373q-28 0 -26 29l16 81q2 29 35 29h373l65 369q6 30 37 30h92q31 0 25 -30l-66 -369h373q31 0 29 -29l-17 -81q-2 -29 -37 -29z" />
    <glyph glyph-name="comma" unicode="," horiz-adv-x="466" 
d="M244 2l-115 -219q-12 -21 -35 -21h-43q-28 0 -10 29l84 209h-41q-33 0 -27 33l29 155q6 33 39 33h131q33 0 27 -33l-27 -145q-2 -13 -12 -41z" />
    <glyph glyph-name="hyphen" unicode="-" horiz-adv-x="802" 
d="M682 461h-569q-29 0 -23 28l14 84q6 29 35 29h568q34 0 28 -29l-14 -84q-6 -28 -39 -28z" />
    <glyph glyph-name="period" unicode="." horiz-adv-x="466" 
d="M57 33l29 155q6 33 39 33h131q33 0 27 -33l-29 -155q-6 -33 -35 -33h-135q-33 0 -27 33z" />
    <glyph glyph-name="slash" unicode="/" horiz-adv-x="884" 
d="M-53 37l915 1370q17 31 49 31h97q20 0 25 -12q4 -11 -7 -27l-915 -1368q-17 -31 -48 -31h-98q-20 0 -24 10q-5 10 6 27z" />
    <glyph glyph-name="zero" unicode="0" horiz-adv-x="1386" 
d="M850 1460q228 0 353 -134q124 -133 124 -386q0 -94 -20 -215q-63 -359 -238 -551q-174 -190 -446 -190q-228 0 -352 133t-124 385q0 105 21 219q63 361 236 550q172 189 446 189zM635 141q390 0 495 580q21 108 21 207q0 372 -313 372q-392 0 -492 -579
q-20 -106 -20 -211q0 -369 309 -369z" />
    <glyph glyph-name="one" unicode="1" horiz-adv-x="946" 
d="M416 35l211 1196l-340 -213q-27 -15 -39 4l-51 72q-15 18 12 34l438 297q23 13 45 13h113q32 0 26 -33l-241 -1370q-6 -35 -37 -35h-107q-36 0 -30 35z" />
    <glyph glyph-name="two" unicode="2" horiz-adv-x="1275" 
d="M399 987q0 -69 -37 -69h-96q-33 0 -33 67q0 223 158 349q157 126 379 126q228 0 339 -102q112 -103 112 -264q0 -120 -60 -241q-62 -125 -146 -218q-89 -98 -210 -194q-124 -98 -221 -160q-112 -71 -209 -125h665q35 0 29 -35l-16 -86q-6 -35 -39 -35h-932q-37 0 -31 35
l12 69q6 30 33 45q43 25 108 63.5t66 39.5q52 31 179 112q112 72 182 128q78 63 156 134q89 82 137 148q48 67 84 153q34 81 34 163q0 215 -278 215q-176 0 -270 -82q-95 -83 -95 -236z" />
    <glyph glyph-name="three" unicode="3" horiz-adv-x="1181" 
d="M459 823h147q147 0 246 81q98 80 98 216q0 90 -69 137q-71 48 -195 48q-188 0 -383 -72q-30 -11 -35 18l-18 90q-6 20 29 35q203 84 417 84q194 0 313 -88t119 -233q0 -140 -75 -237q-77 -100 -205 -140q86 -23 146 -94q59 -70 59 -181q0 -170 -86 -288
q-85 -116 -216 -166q-129 -49 -296 -49q-261 0 -424 82q-27 10 -17 30l52 97q16 28 43 18q169 -74 356 -74q173 0 292 89q117 87 117 251q0 197 -288 197h-152q-37 0 -31 31l17 88q6 30 39 30z" />
    <glyph glyph-name="four" unicode="4" horiz-adv-x="1333" 
d="M930 0h-107q-34 0 -28 35l51 284h-752q-32 0 -26 35l16 88q2 22 20 41l920 930q25 25 45 25h113q32 0 26 -33l-164 -934h216q32 0 26 -35l-14 -82q-6 -35 -39 -35h-215l-51 -284q-6 -35 -37 -35zM1001 1196l-725 -725h598z" />
    <glyph glyph-name="five" unicode="5" horiz-adv-x="1210" 
d="M483 -16q-281 0 -444 84q-27 15 -12 41l49 88q15 30 43 18q166 -78 364 -78q199 0 318 104t119 287q0 215 -299 215q-115 0 -228 -30q-116 -31 -119 -31q-15 0 -30 6l-45 17q-21 6 -11 36q106 376 158 662q6 35 43 35h754q34 0 28 -33l-14 -88q-6 -33 -41 -33h-643
q-45 -211 -108 -442q135 51 282 51q220 0 334 -96q115 -97 115 -262q0 -264 -173 -408q-171 -143 -440 -143z" />
    <glyph glyph-name="six" unicode="6" horiz-adv-x="1310" 
d="M1124 1255q-115 52 -235 52q-218 0 -359 -158q-140 -157 -196 -434q60 108 172 184t287 76q207 0 316 -112q108 -111 108 -281q0 -258 -170 -428t-422 -170q-236 0 -360 139t-124 375q0 72 17 174q63 362 246 575t483 213q191 0 309 -57q28 -12 18 -33l-49 -94
q-17 -33 -41 -21zM635 137q179 0 293 131q114 130 114 303q0 114 -70 184t-216 70q-171 0 -296 -115q-126 -116 -126 -276q0 -117 78 -207t223 -90z" />
    <glyph glyph-name="seven" unicode="7" horiz-adv-x="1153" 
d="M272 33q78 302 300 664q221 360 436 587h-740q-32 0 -26 33l14 88q6 33 39 33h895q33 0 27 -33l-15 -82q-1 -11 -33 -51q-173 -218 -291 -382q-126 -175 -254 -416q-132 -248 -171 -441q-6 -33 -39 -33h-113q-35 0 -29 33z" />
    <glyph glyph-name="eight" unicode="8" horiz-adv-x="1273" 
d="M567 -18q-223 0 -352 96t-129 244q0 176 127 281q129 106 313 145q-122 34 -198 116t-76 191q0 107 48 190q48 82 130 127q86 47 173 67q91 21 192 21q211 0 330 -86q118 -85 118 -223q0 -160 -114 -259t-283 -144q137 -30 223 -113t86 -209q0 -115 -53 -204
q-53 -90 -141 -139q-92 -51 -189 -76q-99 -25 -205 -25zM782 1315q-148 0 -255 -64q-105 -63 -105 -192q0 -165 276 -242q79 22 133 43q55 22 117 59q59 35 92 91t33 123q0 83 -73 133q-71 49 -218 49zM674 674q-414 -86 -414 -328q0 -97 83 -157t239 -60q158 0 279 77
q120 76 120 218q0 187 -307 250z" />
    <glyph glyph-name="nine" unicode="9" horiz-adv-x="1310" 
d="M283 182q122 -51 235 -51q211 0 353 151q140 149 196 423q-46 -94 -164 -168t-299 -74q-207 0 -314 110q-108 111 -108 281q0 261 169 431q169 171 423 171q234 0 358 -139q123 -138 123 -375q0 -82 -16 -178q-66 -363 -244 -574q-177 -210 -475 -210q-197 0 -311 57
q-28 15 -16 35l49 92q17 29 41 18zM762 1300q-178 0 -292 -130t-114 -302q0 -111 71 -184q71 -72 216 -72q175 0 299 118q125 119 125 282q0 120 -80 205q-79 83 -225 83z" />
    <glyph glyph-name="colon" unicode=":" horiz-adv-x="528" 
d="M88 33l29 155q6 33 37 33h133q32 0 26 -33l-28 -155q-6 -33 -37 -33h-133q-33 0 -27 33zM236 870l28 160q6 31 37 31h133q33 0 27 -33l-29 -158q-6 -30 -37 -30h-133q-32 0 -26 30z" />
    <glyph glyph-name="semicolon" unicode=";" horiz-adv-x="528" 
d="M236 870l28 158q6 33 39 33h131q33 0 27 -33l-29 -158q-6 -30 -37 -30h-133q-32 0 -26 30zM272 2l-112 -219q-12 -21 -35 -21h-43q-27 0 -12 29l86 209h-41q-33 0 -27 33l29 155q6 33 37 33h133q32 0 26 -33l-26 -145q-1 -13 -15 -41z" />
    <glyph glyph-name="less" unicode="&#x3c;" horiz-adv-x="1208" 
d="M170 702q4 20 27 35l886 578q30 24 47 0l44 -68q12 -22 -13 -43l-790 -502l614 -501q19 -19 -4 -41l-68 -72q-24 -21 -43 -4l-686 582q-15 15 -14 36z" />
    <glyph glyph-name="equal" unicode="=" horiz-adv-x="1208" 
d="M1092 819h-854q-27 0 -25 29l14 80q6 30 37 30h852q31 0 25 -30l-15 -80q-2 -29 -34 -29zM1026 446h-854q-28 0 -22 31l12 80q6 29 37 29h852q30 0 24 -29l-12 -80q-6 -31 -37 -31z" />
    <glyph glyph-name="greater" unicode="&#x3e;" horiz-adv-x="1208" 
d="M1120 702q-1 -19 -26 -36l-895 -582q-31 -23 -43 4l-37 72q-12 26 12 41l791 501l-615 502q-18 17 4 43l62 68q24 21 43 4l690 -582q15 -14 14 -35z" />
    <glyph glyph-name="question" unicode="?" horiz-adv-x="1073" 
d="M340 33l29 162q6 30 39 30h143q33 0 27 -30l-29 -162q-6 -33 -37 -33h-143q-35 0 -29 33zM610 504l-12 -68q-6 -30 -37 -30h-94q-33 0 -27 32l13 66q12 68 64 133q54 67 117 119q71 58 128 108q64 56 105 127q42 72 42 152q0 162 -274 162q-161 0 -363 -74
q-32 -10 -36 16l-19 94q-4 18 29 33q177 86 409 86q210 0 320 -85t110 -228q0 -97 -45 -183t-112 -144q-68 -58 -135 -108q-60 -44 -120 -104q-52 -52 -63 -104z" />
    <glyph glyph-name="at" unicode="@" horiz-adv-x="1902" 
d="M1180 481l108 299q-77 33 -178 33q-209 0 -341 -117t-132 -313q0 -81 48 -134q48 -52 142 -52q251 0 353 284zM1290 -39q20 10 25 -14l8 -66q0 -14 -16 -20q-199 -86 -463 -86q-358 0 -546 142q-189 143 -189 396q0 398 291 653q293 257 720 257q353 0 521 -148
q167 -147 167 -368q0 -168 -56 -307t-184 -234q-127 -94 -306 -94h-138q-13 0 -23 5q-9 5 -5 19l39 142q-130 -172 -332 -172q-149 0 -238 84q-88 84 -88 219q0 251 179 413q178 162 466 162q165 0 324 -74q20 -7 14 -26l-231 -654h53q199 0 301 150q103 151 103 365
q0 181 -134 294t-438 113q-235 0 -433 -93t-323 -278t-125 -424q0 -432 615 -432q268 0 442 76z" />
    <glyph glyph-name="A" unicode="A" horiz-adv-x="1370" 
d="M440 532h518l-127 730h-4zM786 1438h138q15 0 22 -4q8 -5 11 -12q5 -13 6 -19l272 -1368q4 -14 -5 -25q-9 -10 -26 -10h-114q-29 0 -35 31l-68 342h-629l-190 -342q-19 -31 -41 -31h-125q-16 0 -22 10t0 25l755 1368q18 35 51 35z" />
    <glyph glyph-name="B" unicode="B" horiz-adv-x="1425" 
d="M418 821h377q81 0 146 12q70 13 124 40q59 29 92 90q33 60 33 147q0 90 -76 129t-248 39h-366zM670 0h-535q-37 0 -31 35l242 1370q6 33 41 33h494q238 0 363 -80q124 -79 124 -230q0 -130 -70 -233q-69 -101 -198 -139q91 -21 148 -90t57 -185q0 -249 -173 -365
t-462 -116zM301 162h367q96 0 170 12q72 12 144 44q71 32 109 98q37 65 37 167q0 97 -80 140t-272 43h-385z" />
    <glyph glyph-name="C" unicode="C" horiz-adv-x="1241" 
d="M733 141q153 0 297 72q28 15 39 -23l23 -88q6 -15 -33 -36q-157 -86 -359 -86q-266 0 -411 141q-146 141 -146 403q0 84 19 195q63 357 257 550q192 191 494 191q110 0 212 -24q99 -23 151 -58q30 -18 18 -39l-51 -86q-21 -33 -47 -18q-112 63 -270 63q-238 0 -385 -147
q-148 -148 -199 -432q-16 -99 -16 -176q0 -402 407 -402z" />
    <glyph glyph-name="D" unicode="D" horiz-adv-x="1398" 
d="M510 0h-375q-37 0 -31 35l242 1370q6 33 39 33h336q309 0 471 -117t162 -385q0 -82 -19 -193q-72 -410 -271 -576q-200 -167 -554 -167zM707 1274h-207l-195 -1110h211q135 0 232 25q94 24 182 90q82 62 139 178q56 116 86 286q16 96 16 164q0 203 -115 285t-349 82z" />
    <glyph glyph-name="E" unicode="E" horiz-adv-x="1134" 
d="M997 657h-608l-88 -495h637q37 0 31 -33l-17 -92q-7 -37 -41 -37h-776q-37 0 -31 35l242 1370q6 33 39 33h772q35 0 29 -33l-17 -94q-6 -35 -41 -35h-630l-80 -463h608q32 0 27 -35l-17 -86q-6 -35 -39 -35z" />
    <glyph glyph-name="F" unicode="F" horiz-adv-x="1107" 
d="M1004 639h-615l-108 -604q-6 -35 -39 -35h-107q-37 0 -31 35l242 1370q6 33 41 33h770q31 0 29 -31l-17 -94q-6 -35 -39 -35h-628l-86 -483h614q35 0 29 -35l-17 -88q-6 -33 -38 -33z" />
    <glyph glyph-name="G" unicode="G" horiz-adv-x="1445" 
d="M885 831h434q35 0 29 -32l-115 -652q-7 -43 -51 -67q-184 -100 -437 -100q-292 0 -446 134t-154 402q0 88 19 205q129 739 815 739q119 0 225 -25q110 -26 166 -63q31 -18 19 -39l-50 -88q-23 -35 -51 -18q-126 71 -309 71q-284 0 -433 -139q-151 -141 -202 -438
q-18 -105 -18 -186q0 -201 108 -297q109 -97 330 -97q175 0 307 62l84 473h-297q-37 0 -31 33l15 90q6 32 43 32z" />
    <glyph glyph-name="H" unicode="H" horiz-adv-x="1452" 
d="M1016 35l110 618h-735l-110 -618q-6 -35 -39 -35h-107q-37 0 -31 35l242 1370q6 33 41 33h107q34 0 28 -33l-102 -588h735l102 588q6 33 41 33h109q33 0 27 -33l-242 -1370q-6 -35 -37 -35h-108q-37 0 -31 35z" />
    <glyph glyph-name="I" unicode="I" horiz-adv-x="569" 
d="M119 35l241 1370q6 33 39 33h109q35 0 29 -33l-242 -1370q-6 -35 -39 -35h-109q-34 0 -28 35z" />
    <glyph glyph-name="J" unicode="J" horiz-adv-x="976" 
d="M629 453l168 952q6 33 39 33h108q33 0 27 -33l-170 -969q-80 -461 -488 -461q-88 0 -177 23q-88 23 -134 51q-33 23 -18 47l49 88q19 31 43 19q96 -66 237 -66q133 0 210 78q78 79 106 238z" />
    <glyph glyph-name="K" unicode="K" horiz-adv-x="1261" 
d="M428 874l680 539q31 25 57 25h164q20 0 25 -16q4 -15 -11 -27l-792 -621l565 -729q12 -15 5 -30t-27 -15h-131q-27 0 -50 31l-514 661l-118 -657q-6 -35 -39 -35h-107q-37 0 -31 35l242 1370q6 33 41 33h107q34 0 28 -33z" />
    <glyph glyph-name="L" unicode="L" horiz-adv-x="1101" 
d="M522 1405l-217 -1241h621q34 0 28 -31l-18 -98q-6 -35 -39 -35h-762q-37 0 -31 35l242 1370q6 33 41 33h107q34 0 28 -33z" />
    <glyph glyph-name="M" unicode="M" horiz-adv-x="1654" 
d="M815 403q-24 0 -35 23l-309 700l-192 -1091q-6 -35 -37 -35h-107q-37 0 -31 35l242 1370q6 33 41 33h105q30 0 38 -21l330 -741l592 741q15 21 43 21h113q34 0 28 -33l-241 -1370q-6 -35 -39 -35h-107q-34 0 -28 35l192 1091l-555 -700q-17 -23 -43 -23z" />
    <glyph glyph-name="N" unicode="N" horiz-adv-x="1454" 
d="M1438 1407l-244 -1372q-6 -35 -39 -35h-104q-31 0 -43 27l-535 1118l-197 -1110q-6 -35 -36 -35h-105q-37 0 -31 35l242 1370q6 33 41 33h102q35 0 46 -25l534 -1120l195 1112q6 33 39 33h104q36 0 31 -31z" />
    <glyph glyph-name="O" unicode="O" horiz-adv-x="1466" 
d="M891 1460q251 0 388 -137q136 -136 136 -395q0 -92 -20 -209q-63 -361 -248 -550t-481 -189q-254 0 -390 138q-137 139 -137 396q0 88 19 205q63 359 250 551q186 190 483 190zM674 139q218 0 355 149q135 147 185 431q19 111 19 192q0 389 -354 389q-220 0 -356 -149
q-135 -149 -185 -432q-19 -111 -19 -193q0 -387 355 -387z" />
    <glyph glyph-name="P" unicode="P" horiz-adv-x="1339" 
d="M381 602h254q223 0 335 77q111 77 144 259q10 54 10 96q0 129 -89 186q-87 56 -281 56h-254zM242 0h-107q-37 0 -31 35l242 1368q6 35 39 35h381q273 0 406 -89t133 -286q0 -65 -11 -125q-45 -267 -201 -382q-157 -116 -466 -116h-275l-71 -405q-6 -35 -39 -35z" />
    <glyph glyph-name="Q" unicode="Q" horiz-adv-x="1466" 
d="M801 14q107 -49 262 -49q21 0 35 1t28 1q22 0 30 -5q7 -4 5 -23l-14 -82q-6 -37 -76 -37q-304 0 -477 170q-216 12 -334 148q-119 137 -119 378q0 88 19 205q61 358 248 549q186 190 483 190q254 0 392 -138t138 -396q0 -105 -20 -205q-55 -287 -209 -477
q-153 -189 -391 -230zM674 139q219 0 355 150q137 151 188 432q18 102 18 188q0 391 -358 391q-219 0 -353 -149t-184 -430q-21 -118 -21 -197q0 -385 355 -385z" />
    <glyph glyph-name="R" unicode="R" horiz-adv-x="1335" 
d="M395 678h269q224 0 330 71q105 71 132 226q9 68 9 80q0 116 -86 169q-85 52 -277 52h-272zM387 1438h397q531 0 531 -357q0 -53 -10 -112q-68 -388 -492 -434l330 -490q11 -15 3 -30t-30 -15h-112q-32 0 -48 27l-327 489h-262l-86 -481q-6 -35 -39 -35h-107q-37 0 -31 35
l242 1370q6 33 41 33z" />
    <glyph glyph-name="S" unicode="S" horiz-adv-x="1150" 
d="M1047 426q0 -152 -84 -254q-83 -101 -213 -145q-128 -43 -291 -43q-123 0 -241 18q-117 18 -171 47q-32 16 -20 39l49 92q16 33 45 21q135 -60 340 -60q66 0 134 14t130 42t103 84q40 55 40 131q0 48 -20 84q-19 34 -75 70q-49 32 -86 49q-33 16 -118 53
q-168 73 -253 149q-87 78 -87 211q0 217 152 325q150 107 397 107q234 0 361 -59q30 -15 18 -39l-49 -90q-17 -31 -47 -19q-109 47 -283 47q-370 0 -370 -251q0 -29 7 -50q8 -25 24 -43t32 -33q13 -12 45 -31q25 -15 49 -27q6 -3 60 -27q14 -6 33.5 -15.5t25.5 -11.5
q65 -30 137 -69q51 -28 110 -75q62 -49 88 -108q28 -62 28 -133z" />
    <glyph glyph-name="T" unicode="T" horiz-adv-x="1126" 
d="M211 1309l16 96q6 33 39 33h932q35 0 29 -33l-17 -96q-6 -35 -41 -35h-376l-220 -1239q-6 -35 -38 -35h-107q-37 0 -31 35l219 1239h-376q-35 0 -29 35z" />
    <glyph glyph-name="U" unicode="U" horiz-adv-x="1425" 
d="M645 -25q-234 0 -358 107q-123 106 -123 301q0 57 12 125l158 897q6 33 41 33h106q35 0 29 -33l-156 -885q-10 -63 -10 -108q0 -275 309 -275q366 0 434 383l156 885q6 33 39 33h109q32 0 26 -33l-157 -897q-92 -533 -615 -533z" />
    <glyph glyph-name="V" unicode="V" horiz-adv-x="1353" 
d="M666 0h-142q-35 0 -41 37l-243 1364q-4 37 32 37h115q29 0 33 -33l158 -881l43 -344h2l165 346l465 879q17 33 45 33h123q39 0 21 -37l-723 -1364q-22 -37 -53 -37z" />
    <glyph glyph-name="W" unicode="W" horiz-adv-x="2144" 
d="M1184 1438h116q36 0 41 -33l95 -825l41 -400h4l170 391l385 834q12 33 45 33h114q37 0 21 -39l-639 -1360q-21 -39 -53 -39h-148q-40 0 -41 37l-102 784l-35 363h-4l-162 -363l-375 -784q-12 -37 -53 -37h-147q-35 0 -41 39l-160 1360q-4 39 33 39h117q28 0 30 -33
l94 -834l31 -389h4l178 398l387 825q12 33 54 33z" />
    <glyph glyph-name="X" unicode="X" horiz-adv-x="1300" 
d="M676 584l-483 -553q-25 -31 -56 -31h-127q-17 0 -21 13q-5 14 7 26l602 682l-354 678q-7 39 26 39h121q26 0 43 -29l283 -549l471 549q18 29 51 29h131q16 0 21 -14q4 -12 -7 -25l-593 -678l362 -682q5 -15 -3 -27t-24 -12h-116q-25 0 -47 31z" />
    <glyph glyph-name="Y" unicode="Y" horiz-adv-x="1310" 
d="M754 528l-88 -493q-6 -35 -39 -35h-109q-35 0 -29 35l89 493l-347 871q-6 15 1 26q8 13 28 13h115q14 0 22 -5q10 -6 11 -10l8 -16l196 -510l74 -215l156 215l377 510q23 31 49 31h123q20 0 23 -14t-7 -25z" />
    <glyph glyph-name="Z" unicode="Z" horiz-adv-x="1222" 
d="M43 35l16 92q7 33 33 59l926 1088h-709q-32 0 -26 35l16 96q6 33 39 33h881q32 0 26 -33l-16 -94q-6 -31 -29 -58l-921 -1089h729q32 0 26 -33l-18 -96q-6 -35 -37 -35h-907q-35 0 -29 35z" />
    <glyph glyph-name="bracketleft" unicode="[" horiz-adv-x="745" 
d="M535 -121l-13 -72q-6 -32 -37 -32h-335q-33 0 -27 32l283 1600q6 31 36 31h336q33 0 27 -31l-14 -72q-1 -32 -35 -32h-207l-246 -1393h207q31 0 25 -31z" />
    <glyph glyph-name="backslash" unicode="\" horiz-adv-x="884" 
d="M348 1407l432 -1370q7 -37 -30 -37h-84q-30 0 -41 31l-432 1368q-6 39 30 39h86q28 0 39 -31z" />
    <glyph glyph-name="bracketright" unicode="]" horiz-adv-x="749" 
d="M-6 -193l12 72q6 31 39 31h207l246 1393h-207q-30 0 -29 32l14 72q6 31 37 31h334q35 0 29 -31l-283 -1600q-6 -32 -39 -32h-334q-32 0 -26 32z" />
    <glyph glyph-name="asciicircum" unicode="^" horiz-adv-x="1208" 
d="M729 1438h90q29 0 39 -27l277 -676q11 -39 -31 -39h-100q-27 0 -39 29l-215 547l-408 -547q-23 -29 -51 -29h-111q-18 0 -21 12q-3 11 9 27l514 676q18 27 47 27z" />
    <glyph glyph-name="underscore" unicode="_" horiz-adv-x="1005" 
d="M809 -201h-850q-31 0 -25 31l9 53q6 31 37 31h849q31 0 25 -31l-8 -53q-6 -31 -37 -31z" />
    <glyph glyph-name="grave" unicode="`" horiz-adv-x="690" 
d="M549 1413l88 -180q5 -13 -3 -22t-22 -9h-55q-24 0 -45 21l-166 178q-10 10 -3 23q8 14 24 14h141q25 0 41 -25z" />
    <glyph glyph-name="a" unicode="a" horiz-adv-x="1140" 
d="M1030 690l-117 -657q-6 -33 -36 -33h-93q-32 0 -26 31l26 145q-145 -194 -409 -194q-158 0 -243 75q-87 77 -87 193q0 289 395 358q116 19 420 29l10 57q9 63 9 72q0 87 -58 130q-57 42 -182 42q-162 0 -340 -70q-30 -11 -35 21l-12 86q-5 23 24 35q172 75 381 75
q383 0 383 -297q0 -44 -10 -98zM821 416l17 92q-328 -18 -430 -45q-197 -56 -199 -203q0 -62 51 -103q50 -40 148 -40q172 0 281 85q110 86 132 214z" />
    <glyph glyph-name="b" unicode="b" horiz-adv-x="1292" 
d="M346 532q-10 -50 -10 -118q0 -140 73 -215q72 -74 212 -74q166 0 267 97q100 96 138 310q14 84 14 138q0 270 -276 270q-168 0 -275 -104q-108 -105 -143 -304zM283 178l-27 -147q-6 -31 -35 -31h-100q-35 0 -29 33l244 1374q6 31 37 31h100q35 0 29 -31l-94 -524
q129 202 397 202q189 0 297 -102t108 -301q0 -81 -14 -150q-50 -278 -189 -414q-141 -138 -360 -138q-135 0 -237 50q-100 49 -127 148z" />
    <glyph glyph-name="c" unicode="c" horiz-adv-x="1026" 
d="M119 535q45 264 202 408q155 142 384 142q199 0 299 -61q26 -16 14 -39l-49 -82q-17 -29 -47 -14q-91 47 -207 47q-170 0 -280 -100q-112 -101 -146 -301q-10 -50 -10 -117q0 -144 74 -217q76 -74 208 -74q135 0 256 59q27 15 35 -16l18 -84q5 -19 -30 -37
q-129 -69 -279 -69q-206 0 -331 111q-124 111 -124 315q0 56 13 129z" />
    <glyph glyph-name="d" unicode="d" horiz-adv-x="1292" 
d="M969 532q10 50 10 119q0 141 -74 215t-213 74q-166 0 -267 -97q-100 -96 -138 -311q-15 -90 -15 -137q0 -270 277 -270q167 0 275 104q111 106 145 303zM881 31l26 147q-123 -198 -393 -198q-191 0 -301 103q-111 103 -111 304q0 71 15 145q50 276 192 414
q143 139 363 139q132 0 232 -53t124 -149l94 524q6 31 37 31h101q34 0 28 -31l-244 -1374q-6 -33 -36 -33h-101q-32 0 -26 31z" />
    <glyph glyph-name="e" unicode="e" horiz-adv-x="1167" 
d="M596 117q145 0 278 65q36 17 44 -18l16 -76q6 -22 -29 -37q-161 -76 -323 -76q-221 0 -348 116q-125 115 -125 323q0 61 12 133q45 257 194 397q150 141 373 141q194 0 298 -104q106 -106 106 -279q0 -41 -11 -110l-16 -103q-6 -32 -41 -32h-756q-2 -20 -2 -41
q0 -135 88 -217t242 -82zM680 944q-307 0 -387 -350h631l2 10q8 43 8 90q0 117 -64 184q-63 66 -190 66z" />
    <glyph glyph-name="f" unicode="f" horiz-adv-x="710" 
d="M492 1061h245q31 0 25 -33l-14 -84q-6 -31 -37 -31h-246l-156 -882q-6 -31 -35 -31h-100q-35 0 -29 31l156 882h-141q-31 0 -25 31l15 84q6 33 36 33h142l16 98q52 295 324 295q106 0 157 -24q18 -8 13 -29l-15 -78q-4 -34 -32 -27q-49 13 -111 13q-77 0 -117 -37
t-55 -119z" />
    <glyph glyph-name="g" unicode="g" horiz-adv-x="1220" 
d="M915 600q11 64 11 100q0 244 -260 244q-310 0 -371 -358q-10 -50 -10 -115q0 -242 254 -242q143 0 245 96q101 95 131 275zM1155 1028l-154 -876q-33 -194 -171 -298q-139 -104 -355 -104q-245 0 -369 62q-24 12 -14 32l45 84q18 33 43 21q129 -53 297 -53q145 0 243 69
q97 69 120 197l20 117q-115 -187 -354 -187q-174 0 -283 92q-108 92 -108 277q0 57 12 125q45 250 180 375q134 124 332 124q117 0 212 -50q96 -50 120 -130l22 125q6 31 39 31h98q31 0 25 -33z" />
    <glyph glyph-name="h" unicode="h" horiz-adv-x="1236" 
d="M1126 700l-118 -667q-6 -33 -35 -33h-103q-32 0 -26 33l114 643q7 44 7 72q0 184 -226 184q-148 0 -251 -86q-102 -86 -126 -219l-104 -596q-6 -31 -37 -31h-100q-35 0 -29 33l244 1374q6 31 37 31h100q35 0 29 -31l-90 -512q121 190 381 190q166 0 254 -79t88 -220
q0 -37 -9 -86z" />
    <glyph glyph-name="i" unicode="i" horiz-adv-x="491" 
d="M426 1028l-176 -995q-6 -33 -35 -33h-102q-33 0 -27 33l176 995q6 33 37 33h102q31 0 25 -33zM492 1397l-31 -166q-1 -33 -35 -33h-102q-28 0 -27 33l31 166q6 33 37 33h102q31 0 25 -33z" />
    <glyph glyph-name="j" unicode="j" horiz-adv-x="514" 
d="M115 61l170 967q6 33 37 33h102q31 0 25 -33l-175 -983q-24 -146 -85 -213q-59 -65 -185 -65q-99 0 -141 14q-26 6 -21 31l17 88q4 30 37 24q61 -8 86 -8q109 0 133 145zM516 1397l-31 -166q-1 -33 -36 -33h-103q-28 0 -27 33l31 166q6 33 37 33h102q33 0 27 -33z" />
    <glyph glyph-name="k" unicode="k" horiz-adv-x="1028" 
d="M895 0h-137q-25 0 -43 23l-377 471l-80 -461q-6 -33 -37 -33h-100q-35 0 -29 33l244 1374q6 31 37 31h100q35 0 29 -31l-125 -696l477 336q17 14 45 14h166q18 0 19 -14q1 -15 -17 -27l-604 -424l455 -557q10 -11 2 -26q-7 -13 -25 -13z" />
    <glyph glyph-name="l" unicode="l" horiz-adv-x="491" 
d="M494 1407l-244 -1374q-6 -33 -35 -33h-102q-33 0 -27 33l244 1374q6 31 35 31h102q33 0 27 -31z" />
    <glyph glyph-name="m" unicode="m" horiz-adv-x="1857" 
d="M1051 659l-111 -626q-6 -33 -37 -33h-100q-35 0 -29 33l117 655q8 56 8 76q0 168 -192 168q-137 0 -232 -80q-94 -79 -117 -211l-108 -608q-6 -33 -37 -33h-100q-35 0 -29 33l176 995q6 33 39 33h100q33 0 27 -31l-23 -133q107 188 353 188q266 0 299 -198
q133 198 391 198q150 0 230 -77q81 -78 81 -213q0 -43 -8 -86l-121 -676q-6 -33 -35 -33h-100q-35 0 -29 33l117 653q8 56 8 76q0 170 -194 170q-133 0 -228 -78q-93 -77 -116 -195z" />
    <glyph glyph-name="n" unicode="n" horiz-adv-x="1218" 
d="M1108 700l-119 -667q-6 -33 -37 -33h-100q-35 0 -29 33l115 645q6 39 6 74q0 180 -221 180q-147 0 -248 -83q-100 -82 -123 -220l-106 -596q-6 -33 -37 -33h-100q-33 0 -27 33l176 995q6 33 37 33h98q33 0 27 -31l-21 -133q130 188 379 188q166 0 251 -78q87 -79 87 -219
q0 -45 -8 -88z" />
    <glyph glyph-name="o" unicode="o" horiz-adv-x="1224" 
d="M543 -20q-205 0 -322 108t-117 309q0 55 13 135q47 266 200 410q152 143 388 143q202 0 319 -108t117 -309q0 -56 -13 -136q-46 -264 -200 -409q-152 -143 -385 -143zM551 125q159 0 266 102q106 102 141 305q13 73 13 123q0 141 -72 213t-205 72q-161 0 -266 -102
q-103 -100 -141 -306q-13 -73 -13 -122q0 -141 72 -213t205 -72z" />
    <glyph glyph-name="p" unicode="p" horiz-adv-x="1284" 
d="M338 532q-10 -50 -10 -118q0 -142 73 -215q74 -74 211 -74q167 0 268 97q100 96 138 310q14 84 14 138q0 270 -276 270q-166 0 -274 -104q-109 -105 -144 -304zM424 1030l-27 -147q129 202 400 202q189 0 296 -103t107 -304q0 -68 -12 -146q-45 -273 -188 -413
q-142 -139 -361 -139q-140 0 -238 49t-125 149l-65 -371q-6 -32 -39 -32h-100q-33 0 -27 32l215 1221q6 33 39 33h98q33 0 27 -31z" />
    <glyph glyph-name="q" unicode="q" horiz-adv-x="1284" 
d="M969 532q10 50 10 119q0 141 -74 215t-213 74q-166 0 -267 -97q-100 -96 -138 -311q-15 -90 -15 -137q0 -270 277 -270q167 0 275 104q111 106 145 303zM1030 883l27 147q6 31 37 31h100q33 0 27 -33l-215 -1221q-6 -32 -39 -32h-101q-32 0 -26 32l63 367
q-113 -194 -389 -194q-191 0 -301 103q-111 103 -111 304q0 71 15 145q50 276 192 414q143 139 363 139q132 0 233 -53t125 -149z" />
    <glyph glyph-name="r" unicode="r" horiz-adv-x="765" 
d="M299 1061h100q33 0 27 -31l-35 -201q49 88 152 162t235 74q26 0 21 -25l-23 -129q-6 -26 -31 -26h-3t-4 0.5t-5.5 1t-6.5 0.5q-20 2 -30 2q-122 0 -230 -119q-108 -118 -132 -266l-84 -471q-6 -33 -37 -33h-100q-35 0 -29 33l176 995q6 33 39 33z" />
    <glyph glyph-name="s" unicode="s" horiz-adv-x="944" 
d="M819 309q0 -171 -123 -251q-121 -78 -317 -78q-215 0 -350 57q-26 10 -19 31l43 86q12 30 39 18q128 -51 279 -51q284 0 284 178q0 64 -55 101q-59 40 -180 85q-68 24 -104 43t-85 53q-45 32 -66 76q-22 47 -22 105q0 164 113 244q112 79 297 79q213 0 330 -59
q24 -11 14 -33l-41 -80q-15 -28 -37 -18q-116 49 -254 49q-256 0 -256 -162q0 -14 3 -27q2 -9 12 -25q3 -5 8 -11.5t6 -8.5q7 -10 22 -20q3 -2 13 -8t14 -9q11 -7 33 -18q7 -3 19 -8.5t16 -7.5q12 -6 42 -18q11 -4 25.5 -10.5t18.5 -8.5q139 -61 209 -125q69 -63 69 -168z
" />
    <glyph glyph-name="t" unicode="t" horiz-adv-x="731" 
d="M719 913h-270l-103 -579q-10 -54 -10 -88q0 -62 33 -86q34 -25 114 -25q17 0 39 2q17 2 32 6q21 6 26 7q16 1 21 -5q5 -7 5 -22l6 -80q2 -20 -24 -31q-60 -24 -142 -24q-142 0 -207 52q-67 53 -67 169q0 61 10 108l105 596h-146q-32 0 -26 31l14 84q6 33 39 33h149
l45 258q6 31 37 31h95q32 0 26 -31l-45 -258h270q33 0 27 -33l-14 -84q-6 -31 -39 -31z" />
    <glyph glyph-name="u" unicode="u" horiz-adv-x="1202" 
d="M125 365l117 663q6 33 39 33h100q31 0 25 -33l-113 -637q-6 -39 -6 -76q0 -184 213 -184q137 0 240 80q102 79 126 217l107 600q6 33 39 33h100q31 0 25 -33l-176 -995q-6 -33 -35 -33h-101q-34 0 -28 31l24 135q-127 -186 -366 -186q-168 0 -252 77q-86 78 -86 217
q0 48 8 91z" />
    <glyph glyph-name="v" unicode="v" horiz-adv-x="1034" 
d="M498 0h-125q-30 0 -35 29l-182 997q-5 35 30 35h103q23 0 28 -31l99 -528l45 -326h4l160 326l280 528q17 31 41 31h115q33 0 16 -35l-536 -997q-17 -29 -43 -29z" />
    <glyph glyph-name="w" unicode="w" horiz-adv-x="1689" 
d="M893 1061h104q26 0 31 -31l98 -651l21 -209h4l88 209l307 651q17 31 41 31h111q35 0 18 -35l-479 -995q-15 -31 -43 -31h-125q-33 0 -35 31l-92 604l-27 223h-6l-102 -223l-303 -604q-12 -31 -43 -31h-125q-29 0 -35 31l-131 995q0 35 33 35h100q24 0 29 -31l82 -651
l12 -209h4l96 209l324 651q19 31 43 31z" />
    <glyph glyph-name="x" unicode="x" horiz-adv-x="1028" 
d="M334 1036l211 -379l342 379q19 25 45 25h117q14 0 17 -11q3 -12 -7 -26l-445 -485l281 -504q6 -12 0 -24q-5 -11 -21 -11h-114q-25 0 -37 23l-213 397l-356 -397q-17 -23 -43 -23h-123q-15 0 -18 11q-3 12 7 24l459 504l-274 485q-8 15 -1 26t21 11h115q21 0 37 -25z" />
    <glyph glyph-name="y" unicode="y" horiz-adv-x="1026" 
d="M1073 1026l-502 -958q-80 -167 -163 -234t-232 -67q-94 0 -145 22q-26 10 -19 31l39 84q15 24 39 22q67 -14 103 -14q91 0 135 50q43 49 26 130l-198 934q-6 35 28 35h105q23 0 28 -31l111 -538l49 -318h4l154 318l266 538q17 31 41 31h113q35 0 18 -35z" />
    <glyph glyph-name="z" unicode="z" horiz-adv-x="1001" 
d="M993 1028l-12 -67q-5 -28 -23 -46l-692 -765h535q34 0 28 -31l-16 -86q-6 -33 -37 -33h-723q-32 0 -26 33l12 67q6 27 20 41l697 770h-531q-32 0 -26 31l14 86q6 33 39 33h715q32 0 26 -33z" />
    <glyph glyph-name="braceleft" unicode="{" horiz-adv-x="745" 
d="M102 561l17 90q5 31 35 31h36q72 0 119 86q47 87 80 272q40 227 113 313q72 85 235 85h70q37 0 31 -31l-15 -74q-6 -33 -41 -33h-41q-95 0 -133 -62q-39 -62 -67 -224q-63 -358 -226 -408q101 -33 101 -215q0 -70 -19 -190q-20 -103 -20 -162q0 -67 27 -97t94 -30h41
q34 0 28 -33l-12 -72q-6 -32 -41 -32h-70q-124 0 -177 48q-52 48 -52 161q0 63 21 190q22 126 22 203q0 155 -94 155h-37q-31 0 -25 29z" />
    <glyph glyph-name="bar" unicode="|" horiz-adv-x="561" 
d="M358 1444v-1637q0 -32 -30 -32h-92q-33 0 -33 32v1637q0 33 33 33h92q30 0 30 -33z" />
    <glyph glyph-name="braceright" unicode="}" horiz-adv-x="745" 
d="M692 651l-16 -90q-6 -29 -37 -29h-37q-72 0 -118 -87q-44 -83 -78 -273q-39 -224 -112 -311q-72 -86 -237 -86h-71q-35 0 -29 32l12 72q6 33 41 33h41q95 0 133 62q40 65 70 227q63 358 227 405q-104 33 -104 215q0 90 20 193q19 104 19 162q0 68 -27 96t-94 28h-41
q-35 0 -29 33l15 74q6 31 39 31h71q124 0 177 -48t53 -161q0 -81 -21 -189q-22 -128 -22 -204q0 -154 92 -154h37q31 0 26 -31z" />
    <glyph glyph-name="asciitilde" unicode="~" horiz-adv-x="1208" 
d="M436 858q84 0 193 -47l92 -39q93 -37 137 -37q62 0 109 66q11 13 24 41q12 22 39 12l64 -31q21 -7 10 -37q-33 -91 -100 -148q-66 -56 -148 -56q-80 0 -188 47l-84 37q-97 41 -142 41q-61 0 -112 -66q-3 -4 -27 -43q-10 -24 -37 -12l-63 30q-21 7 -10 37q33 92 99 149
q65 56 144 56z" />
    <glyph glyph-name="uni00A0" unicode="&#xa0;" horiz-adv-x="0" 
 />
    <glyph glyph-name="exclamdown" unicode="&#xa1;" horiz-adv-x="583" 
d="M494 1028l-29 -162q-6 -32 -37 -32h-143q-33 0 -27 32l29 162q6 33 37 33h145q31 0 25 -33zM285 653h80q30 0 24 -32l-113 -814q-6 -32 -38 -32h-138q-32 0 -26 32l174 814q6 32 37 32z" />
    <glyph glyph-name="cent" unicode="&#xa2;" horiz-adv-x="1058" 
d="M117 530q44 245 188 388q144 142 367 165l26 150q6 33 35 33h68q34 0 28 -33l-26 -152q144 -7 233 -63q23 -15 13 -35l-48 -80q-21 -33 -43 -18q-92 51 -227 51q-174 0 -291 -102q-115 -100 -153 -304q-11 -53 -11 -112q0 -291 310 -291q143 0 260 55q31 16 39 -16
l18 -80q4 -20 -26 -37q-112 -58 -269 -65l-26 -156q-6 -33 -39 -33h-68q-30 0 -24 33l26 156q-165 12 -268 125q-103 114 -103 299q0 67 11 122z" />
    <glyph glyph-name="sterling" unicode="&#xa3;" horiz-adv-x="1382" 
d="M393 655h-223q-31 0 -25 31l13 70q6 28 35 28h167q-55 134 -55 203q0 115 51 208q51 92 137 150q83 55 187 86q99 29 211 29q218 0 331 -88t113 -252q0 -114 -37 -114h-110q-23 0 -23 22q0 14 7 45q8 35 8 49q0 82 -71 132q-73 51 -222 51q-167 0 -288 -82
q-122 -83 -122 -224q0 -49 58 -215h434q32 0 26 -28l-12 -70q-6 -31 -37 -31h-383q27 -67 27 -135q0 -119 -76 -216t-195 -148q84 24 193 24q86 0 197 -20q117 -21 192 -21q111 0 159 49q47 49 64 148q6 35 41 35h78q38 0 31 -43q-29 -169 -105 -257q-73 -85 -239 -85
q-108 0 -240 25q-138 26 -229 26q-199 0 -342 -55q-33 -11 -39 4l-41 88q-7 21 14 32q159 72 266 179q105 105 105 233q0 72 -31 137z" />
    <glyph glyph-name="currency" unicode="&#xa4;" horiz-adv-x="1306" 
d="M174 188l115 113q-92 106 -92 279t92 274l-115 117q-24 21 0 43l45 45q22 22 43 0l121 -121q102 72 268 72q168 0 271 -74l122 123q21 22 43 0l46 -45q22 -22 0 -43l-121 -119q94 -106 94 -272q0 -171 -94 -275l121 -117q22 -21 0 -43l-46 -45q-22 -22 -43 0l-122 123
q-98 -73 -271 -73q-170 0 -268 73l-121 -123q-21 -22 -43 0l-45 45q-24 22 0 43zM967 580q0 141 -84 219t-232 78q-149 0 -232 -78t-83 -219q0 -142 84 -220q83 -77 231 -77q149 0 232 77q84 78 84 220z" />
    <glyph glyph-name="yen" unicode="&#xa5;" horiz-adv-x="1320" 
d="M729 354l-57 -319q-6 -35 -39 -35h-109q-36 0 -30 35l57 319h-399q-29 0 -23 31l10 66q6 28 35 28h399l9 51l-56 127h-321q-29 0 -23 31l11 66q6 28 34 28h258l-262 617q-12 39 29 39h119q14 0 22 -5t10 -10l9 -16l288 -707h5l538 707q23 31 49 31h117q20 0 25 -13
q4 -10 -9 -26l-479 -617h258q31 0 25 -28l-10 -66q-6 -31 -37 -31h-322l-100 -127l-8 -51h399q31 0 25 -28l-11 -66q-6 -31 -37 -31h-399z" />
    <glyph glyph-name="brokenbar" unicode="&#xa6;" horiz-adv-x="561" 
d="M358 1444v-613q0 -32 -30 -32h-92q-33 0 -33 32v613q0 33 33 33h92q30 0 30 -33zM358 420v-613q0 -32 -30 -32h-92q-33 0 -33 32v613q0 33 33 33h92q30 0 30 -33z" />
    <glyph glyph-name="section" unicode="&#xa7;" horiz-adv-x="1458" 
d="M240 614q0 126 96 202q99 79 239 102q-172 100 -172 225q0 90 47 157t125 99t165 46q82 13 184 13q188 0 362 -45q31 -11 27 -39l-17 -82q-6 -33 -45 -22q-173 39 -329 39q-52 0 -103 -6q-46 -5 -110 -23q-62 -17 -98 -53q-38 -38 -38 -90q0 -62 121 -123q47 -25 213 -94
q176 -73 267 -146q92 -74 92 -176q0 -206 -346 -279q89 -44 142 -107q54 -64 54 -136q0 -91 -52 -155t-140 -97q-87 -32 -176 -46q-92 -14 -187 -14q-262 0 -364 31q-17 6 -23 15q-4 6 -2 28l12 80q6 31 47 25q233 -31 324 -31q389 0 389 170q0 32 -21 61q-23 31 -65 54
q-53 29 -80 40q-11 4 -43 16.5t-54 21.5l-35 14t-31.5 12.5t-18.5 7.5q-194 82 -275 145t-81 160zM711 829q-66 -2 -128 -19q-64 -18 -122 -65t-58 -116q0 -14 5 -31q5 -15 16 -28q12 -13 23 -23q12 -11 36 -24q21 -12 43 -21q26 -11 54 -23q15 -6 59 -23q40 -15 71 -26
t76 -29q34 1 86 13q57 13 103 29q52 18 92 55q37 34 37 77q0 75 -96 130q-94 54 -297 124z" />
    <glyph glyph-name="dieresis" unicode="&#xa8;" horiz-adv-x="690" 
d="M408 1386l-27 -153q-6 -31 -37 -31h-106q-33 0 -27 31l27 153q6 31 38 31h107q31 0 25 -31zM776 1386l-26 -153q-6 -31 -37 -31h-107q-32 0 -26 31l26 153q6 31 39 31h107q30 0 24 -31z" />
    <glyph glyph-name="copyright" unicode="&#xa9;" horiz-adv-x="1751" 
d="M918 428q112 0 198 45q24 13 31 -14l29 -74q4 -16 -15 -27q-112 -61 -260 -61q-189 0 -311 111q-121 111 -121 317q0 209 121 317q123 109 313 109q163 0 252 -59q20 -10 14 -27l-30 -76q-7 -26 -29 -14q-76 45 -188 45q-138 0 -221 -78t-83 -217q0 -137 83 -217t217 -80
zM221 719q0 -268 173 -450q172 -181 480 -181t482 181t174 450q0 267 -174 450t-482 183t-480 -183q-173 -184 -173 -450zM109 719q0 314 203 527q204 214 563 214q360 0 564 -214t204 -527q0 -200 -87 -368q-85 -164 -263 -268q-176 -103 -419 -103q-358 0 -562 214
q-203 213 -203 525z" />
    <glyph glyph-name="ordfeminine" unicode="&#xaa;" horiz-adv-x="942" 
d="M831 1331l13 72h-17q-495 1 -495 -197q0 -102 162 -102q145 0 233 64q87 64 104 163zM782 1034l15 86q-102 -135 -332 -135q-125 0 -203 61q-76 60 -76 152q0 89 43 151t108 94q62 30 155 49q80 16 167 21q103 6 166 7h39l10 59q16 99 -26 138q-43 40 -164 40
q-134 0 -281 -57q-32 -14 -38 16l-15 74q-5 19 23 31q173 69 319 69q334 0 334 -243q0 -33 -6 -74l-94 -539q-6 -37 -45 -37h-70q-35 0 -29 37z" />
    <glyph glyph-name="guillemotleft" unicode="&#xab;" horiz-adv-x="866" 
d="M90 555q5 13 8 16l219 277q21 24 48 24h88q16 0 19 -10t-7 -24l-227 -283l127 -281q7 -14 0 -24t-25 -10h-88q-25 0 -37 24l-123 277q-2 8 -2 14zM440 555l9 16l219 277q21 24 47 24h88q34 0 10 -34l-225 -281l125 -283q15 -34 -23 -34h-88q-25 0 -37 24l-123 277
q-2 6 -2 14z" />
    <glyph glyph-name="logicalnot" unicode="&#xac;" horiz-adv-x="1214" 
d="M1098 752l-76 -433q-6 -32 -39 -32h-94q-33 0 -27 32l56 316h-740q-32 0 -26 31l14 86q6 30 39 30h866q33 0 27 -30z" />
    <glyph glyph-name="uni00AD" unicode="&#xad;" horiz-adv-x="800" 
d="M682 461h-569q-29 0 -23 28l14 84q6 29 35 29h568q34 0 28 -29l-14 -84q-6 -28 -39 -28z" />
    <glyph glyph-name="registered" unicode="&#xae;" horiz-adv-x="946" 
d="M406 1102h67q66 0 90 15q25 16 25 54q0 70 -107 70h-75v-139zM473 1460q175 0 260 -102q86 -103 86 -258t-86 -259t-260 -104t-261 104q-87 103 -87 259t87 258t261 102zM473 799q145 0 214 84t69 217t-69 217t-214 84q-147 0 -215 -84q-68 -85 -68 -217q0 -135 68 -218
t215 -83zM330 918v372q0 17 16 17h146q81 0 126 -36q46 -37 46 -100q0 -107 -105 -122l100 -129q5 -6 1 -12q-3 -5 -11 -5h-55q-12 0 -19 10l-96 127h-73v-122q0 -15 -15 -15h-45q-16 0 -16 15z" />
    <glyph glyph-name="macron" unicode="&#xaf;" horiz-adv-x="690" 
d="M768 1214h-584q-30 0 -24 31l8 53q6 31 37 31h583q31 0 25 -31l-8 -53q-6 -31 -37 -31z" />
    <glyph glyph-name="degree" unicode="&#xb0;" horiz-adv-x="749" 
d="M473 1008q83 0 143 57t60 145q0 62 -41 100t-109 38q-82 0 -143 -58q-59 -56 -59 -145q0 -61 41 -99t108 -38zM459 897q-114 0 -183 66t-69 167q0 134 96 230t238 96q115 0 183 -64q69 -64 69 -165q0 -139 -96 -235q-95 -95 -238 -95z" />
    <glyph glyph-name="plusminus" unicode="&#xb1;" horiz-adv-x="1208" 
d="M1090 674h-373l-68 -373q-2 -29 -33 -29h-92q-30 0 -28 29l67 373h-373q-32 0 -26 28l14 82q6 29 39 29h371l63 365q6 32 39 32h92q29 0 23 -32l-64 -365h373q33 0 27 -29l-15 -82q-6 -28 -36 -28zM971 0h-899q-33 0 -27 31l12 65q6 31 37 31h897q35 0 29 -31l-12 -65
q-6 -31 -37 -31z" />
    <glyph glyph-name="two.superior" unicode="&#xb2;" 
d="M446 1575q0 -47 -40 -47h-70q-33 0 -33 31q0 149 92 239q91 90 267 90q149 0 221 -66q71 -65 71 -167q0 -88 -48 -169t-141 -153q-83 -64 -153 -108q-58 -36 -159 -92h395q37 0 31 -37l-11 -62q-6 -37 -43 -37h-587q-38 0 -31 37l10 56q4 20 31 36q25 16 84 50
q63 36 104 61q24 14 102 67q62 42 103 78q36 32 81 80q41 44 61 92t20 93q0 108 -154 108q-93 0 -148 -47t-55 -133z" />
    <glyph glyph-name="three.superior" unicode="&#xb3;" 
d="M506 1382h-98q-37 0 -31 37l10 58q6 36 43 36h100q79 0 137 37t58 107q0 98 -180 98q-96 0 -219 -43q-37 -12 -43 19l-15 63q-4 22 31 39q117 55 268 55q143 0 226 -56q84 -57 84 -153q0 -74 -46 -135q-44 -58 -114 -92q108 -52 108 -162q0 -153 -111 -228t-268 -75
q-86 0 -173 19q-84 18 -119 38q-33 18 -21 39l35 64q21 34 51 22q111 -49 221 -49q93 0 163 41q69 41 69 123q0 98 -166 98z" />
    <glyph glyph-name="acute" unicode="&#xb4;" horiz-adv-x="690" 
d="M326 1233l143 180q23 25 49 25h148q16 0 18 -14t-12 -23l-221 -178q-22 -21 -52 -21h-61q-15 0 -19 10t7 21z" />
    <glyph glyph-name="mu" unicode="&#xb5;" horiz-adv-x="1210" 
d="M1157 1028l-117 -666q-68 -387 -430 -387q-146 0 -229 56q-82 55 -109 131l-61 -357q-6 -30 -39 -30h-100q-33 0 -27 32l215 1221q6 33 39 33h100q33 0 27 -33l-107 -604q-6 -30 -6 -62q0 -109 73 -173q71 -62 194 -62q252 0 299 260l112 641q6 33 39 33h100q33 0 27 -33
z" />
    <glyph glyph-name="paragraph" unicode="&#xb6;" horiz-adv-x="1073" 
d="M1178 1315h-82q-63 0 -92 -23t-41 -88l-211 -1198q-22 -122 -80 -181q-57 -58 -162 -58q-87 0 -141 20q-21 6 -15 31l15 61q6 25 37 23q22 -3 42 -6t28 -4l9 -1q100 0 123 132l94 528h-49q-204 0 -337 106q-134 107 -134 277q0 227 167 365q168 139 413 139h436
q35 0 29 -31l-13 -61q-6 -31 -36 -31z" />
    <glyph glyph-name="periodcentered" unicode="&#xb7;" horiz-adv-x="466" 
d="M131 457l29 155q6 33 39 33h131q32 0 26 -33l-28 -155q-6 -33 -35 -33h-135q-33 0 -27 33z" />
    <glyph glyph-name="cedilla" unicode="&#xb8;" horiz-adv-x="690" 
d="M203 16h84q82 -15 133 -58q53 -44 53 -105q0 -82 -61 -122t-154 -40q-75 0 -92 6q-18 8 -14 24l8 54q4 18 24 18h58q118 0 118 82q0 75 -157 141z" />
    <glyph glyph-name="one.superior" unicode="&#xb9;" 
d="M633 1688l-180 -103q-37 -21 -54 8l-28 54q-10 28 20 49l266 168q27 14 50 14h67q37 0 31 -37l-141 -807q-6 -37 -43 -37h-72q-37 0 -31 37z" />
    <glyph glyph-name="ordmasculine" unicode="&#xba;" horiz-adv-x="989" 
d="M721 1755q-126 0 -211 -80t-113 -237q-8 -46 -8 -92q0 -224 221 -224q128 0 211 79q84 79 111 237q10 54 10 96q0 221 -221 221zM606 987q-176 0 -275 87q-100 88 -100 255q0 40 11 109q39 224 164 338q124 114 323 114q171 0 270 -87t99 -253q0 -41 -11 -112
q-40 -223 -161 -336q-124 -115 -320 -115z" />
    <glyph glyph-name="guillemotright" unicode="&#xbb;" horiz-adv-x="866" 
d="M805 555q0 -8 -6 -14l-221 -277q-18 -24 -46 -24h-88q-16 0 -19 9t9 25l225 281l-124 283q-6 14 0 24t22 10h88q29 0 35 -24l125 -277q4 -10 0 -16zM455 555q0 -8 -6 -14l-222 -277q-18 -24 -43 -24h-88q-16 0 -20 9q-4 8 8 25l225 281l-125 283q-7 14 0 24t25 10h88
q27 0 33 -24l125 -277q4 -10 0 -16z" />
    <glyph glyph-name="onequarter" unicode="&#xbc;" horiz-adv-x="2048" 
d="M555 1247l-180 -102q-37 -20 -53 8l-29 53q-10 28 20 49l267 168q29 15 49 15h67q37 0 31 -37l-141 -807q-6 -37 -43 -37h-72q-37 0 -31 37zM1724 1407l-1106 -1380q-22 -27 -47 -27h-102q-39 0 -12 33l1104 1380q22 25 47 25h102q36 0 14 -31zM1743 686l-371 -360h307z
M1905 190h-105l-26 -153q-6 -37 -43 -37h-72q-37 0 -31 37l27 153h-441q-36 0 -30 37l10 58q1 18 20 34l551 537q30 25 45 25h74q37 0 31 -37l-90 -518h104q36 0 29 -37l-10 -62q-6 -37 -43 -37z" />
    <glyph glyph-name="onehalf" unicode="&#xbd;" horiz-adv-x="2048" 
d="M555 1247l-180 -102q-37 -20 -53 8l-29 53q-10 28 20 49l267 168q29 15 49 15h67q37 0 31 -37l-141 -807q-6 -37 -43 -37h-72q-37 0 -31 37zM1448 578q0 86 54 133q55 47 149 47q153 0 153 -109q0 -47 -19 -92q-19 -46 -62 -92q-45 -48 -81 -80q-45 -40 -103 -79
q-73 -49 -101 -66q-60 -36 -105 -62q-76 -44 -84 -49q-25 -16 -30 -37l-11 -55q-7 -37 31 -37h588q37 0 43 37l10 61q6 37 -31 37h-395q110 61 160 92q58 36 152 109q96 74 142 152q48 81 48 169q0 101 -72 167q-73 67 -221 67q-175 0 -266 -90q-92 -90 -92 -240
q0 -31 32 -31h70q41 0 41 48zM1642 1407l-1105 -1380q-23 -27 -48 -27h-102q-39 0 -12 33l1104 1380q22 25 47 25h102q36 0 14 -31z" />
    <glyph glyph-name="threequarters" unicode="&#xbe;" horiz-adv-x="2048" 
d="M428 942h-98q-37 0 -31 37l10 57q6 37 43 37h101q78 0 136 37t58 107q0 98 -180 98q-96 0 -219 -43q-37 -12 -43 18l-15 64q-4 22 31 39q117 55 268 55q143 0 226 -56q84 -57 84 -153q0 -75 -45 -135q-43 -58 -115 -92q109 -53 109 -162q0 -152 -112 -228
q-111 -75 -267 -75q-91 0 -173 18t-120 39q-33 18 -21 39l35 64q21 34 51 22q111 -49 221 -49q93 0 163 41q69 41 69 123q0 98 -166 98zM1759 1407l-1106 -1380q-23 -27 -47 -27h-102q-39 0 -12 33l1103 1380q23 25 47 25h103q37 0 14 -31zM1743 686l-371 -360h307z
M1905 190h-105l-26 -153q-6 -37 -43 -37h-72q-37 0 -31 37l27 153h-441q-36 0 -30 37l10 58q1 18 20 34l551 537q30 25 45 25h74q37 0 31 -37l-90 -518h104q36 0 29 -37l-10 -62q-6 -37 -43 -37z" />
    <glyph glyph-name="questiondown" unicode="&#xbf;" horiz-adv-x="956" 
d="M713 1028l-29 -162q-6 -32 -37 -32h-143q-33 0 -27 32l29 162q6 33 39 33h143q31 0 25 -33zM455 623l-9 -48q-6 -41 -53 -86q-48 -47 -108 -89q-61 -44 -123 -96q-63 -54 -103 -129q-41 -77 -41 -167q0 -118 101 -183t293 -65q201 0 360 78q31 16 27 33l-17 94
q-5 30 -39 15q-165 -64 -294 -64q-137 0 -193 27q-55 27 -55 92q0 74 39 137q41 66 97 112q68 55 118 92q54 39 105 95q46 51 54 104l9 48q6 32 -27 32h-102q-33 0 -39 -32z" />
    <glyph glyph-name="Agrave" unicode="&#xc0;" horiz-adv-x="1370" 
d="M440 532h518l-127 730h-4zM786 1438h138q15 0 22 -4q8 -5 11 -12q5 -13 6 -19l272 -1368q4 -14 -5 -25q-9 -10 -26 -10h-114q-29 0 -35 31l-68 342h-629l-190 -342q-19 -31 -41 -31h-125q-16 0 -22 10t0 25l755 1368q18 35 51 35zM831 1753l89 -178q4 -10 -4 -21
q-7 -10 -21 -10h-57q-20 0 -43 23l-164 176q-10 10 -3 23q8 14 23 14h142q26 0 38 -27z" />
    <glyph glyph-name="Aacute" unicode="&#xc1;" horiz-adv-x="1370" 
d="M440 532h518l-127 730h-4zM786 1438h138q15 0 22 -4q8 -5 11 -12q5 -13 6 -19l272 -1368q4 -14 -5 -25q-9 -10 -26 -10h-114q-29 0 -35 31l-68 342h-629l-190 -342q-19 -31 -41 -31h-125q-16 0 -22 10t0 25l755 1368q18 35 51 35zM840 1575l143 178q23 27 51 27h148
q15 0 17 -14q1 -12 -11 -23l-221 -176q-23 -23 -54 -23h-61q-14 0 -17 10t5 21z" />
    <glyph glyph-name="Acircumflex" unicode="&#xc2;" horiz-adv-x="1370" 
d="M440 532h518l-127 730h-4zM786 1438h138q15 0 22 -4q8 -5 11 -12q5 -13 6 -19l272 -1368q4 -14 -5 -25q-9 -10 -26 -10h-114q-29 0 -35 31l-68 342h-629l-190 -342q-19 -31 -41 -31h-125q-16 0 -22 10t0 25l755 1368q18 35 51 35zM1016 1567l-115 102l-153 -102
q-35 -23 -52 -23h-86q-18 0 -18 12q0 13 14 23l219 178q22 19 47 19h84q24 0 43 -19l154 -178q12 -10 7 -23q-4 -12 -23 -12h-78q-15 0 -43 23z" />
    <glyph glyph-name="Atilde" unicode="&#xc3;" horiz-adv-x="1370" 
d="M440 532h518l-127 730h-4zM786 1438h138q15 0 22 -4q8 -5 11 -12q5 -13 6 -19l272 -1368q4 -14 -5 -25q-9 -10 -26 -10h-114q-29 0 -35 31l-68 342h-629l-190 -342q-19 -31 -41 -31h-125q-16 0 -22 10t0 25l755 1368q18 35 51 35zM1233 1683q-24 -149 -170 -149
q-49 0 -178 41l-45 14q-96 29 -125 29q-43 0 -51 -31l-7 -20q-6 -27 -41 -27h-47q-28 0 -20 41q11 67 52 107q43 41 118 41q55 0 178 -43l51 -19q81 -31 115 -31q41 0 53 43l6 21q7 26 43 26h45q30 0 23 -43z" />
    <glyph glyph-name="Adieresis" unicode="&#xc4;" horiz-adv-x="1370" 
d="M440 532h518l-127 730h-4zM786 1438h138q15 0 22 -4q8 -5 11 -12q5 -13 6 -19l272 -1368q4 -14 -5 -25q-9 -10 -26 -10h-114q-29 0 -35 31l-68 342h-629l-190 -342q-19 -31 -41 -31h-125q-16 0 -22 10t0 25l755 1368q18 35 51 35zM805 1720l-27 -143q-6 -33 -39 -33h-114
q-31 0 -25 33l27 143q6 33 35 33h114q35 0 29 -33zM1188 1720l-27 -143q-6 -33 -39 -33h-114q-31 0 -25 33l27 143q6 33 34 33h115q35 0 29 -33z" />
    <glyph glyph-name="Aring" unicode="&#xc5;" horiz-adv-x="1370" 
d="M657 1516q0 95 69 158t173 63q84 0 137 -47q54 -48 54 -117q0 -135 -123 -197l268 -1341q4 -14 -5 -25q-9 -10 -26 -10h-114q-29 0 -35 31l-68 342h-629l-190 -342q-19 -31 -41 -31h-125q-16 0 -22 10t0 25l745 1349q-68 45 -68 132zM440 532h518l-127 730h-4zM889 1649
q-57 0 -95 -33t-38 -94q0 -82 104 -82q56 0 93 31q38 32 38 92q0 86 -102 86z" />
    <glyph glyph-name="AE" unicode="&#xc6;" horiz-adv-x="1796" 
d="M1659 657h-547l-86 -493h576q34 0 28 -33l-18 -96q-6 -35 -39 -35h-717q-37 0 -31 35l58 319h-510l-232 -323q-25 -31 -45 -31h-129q-18 0 -23 12t3 23l983 1368q23 35 55 35h834q32 0 26 -33l-16 -96q-6 -35 -39 -35h-569l-80 -461h547q31 0 26 -35l-16 -86
q-6 -35 -39 -35zM483 510h424l137 768h-26z" />
    <glyph glyph-name="Ccedilla" unicode="&#xc7;" horiz-adv-x="1241" 
d="M733 141q153 0 297 72q28 15 39 -23l23 -88q6 -15 -33 -36q-157 -86 -359 -86h-32q90 -60 90 -148q0 -86 -71 -127t-171 -41q-55 0 -74 8q-21 7 -16 27l10 57q2 19 25 19h57q121 0 121 80q0 82 -115 143q-182 40 -282 176q-99 135 -99 350q0 84 19 195q63 357 257 550
q192 191 494 191q110 0 212 -24q99 -23 151 -58q30 -18 18 -39l-51 -86q-21 -33 -47 -18q-112 63 -270 63q-238 0 -385 -147q-148 -148 -199 -432q-16 -99 -16 -176q0 -402 407 -402z" />
    <glyph glyph-name="Egrave" unicode="&#xc8;" horiz-adv-x="1134" 
d="M997 657h-608l-88 -495h637q37 0 31 -33l-17 -92q-7 -37 -41 -37h-776q-37 0 -31 35l242 1370q6 33 39 33h772q35 0 29 -33l-17 -94q-6 -35 -41 -35h-630l-80 -463h608q32 0 27 -35l-17 -86q-6 -35 -39 -35zM846 1753l88 -178q4 -11 -3 -21t-22 -10h-57q-20 0 -43 23
l-164 176q-10 10 -3 23q8 14 24 14h141q27 0 39 -27z" />
    <glyph glyph-name="Eacute" unicode="&#xc9;" horiz-adv-x="1134" 
d="M997 657h-608l-88 -495h637q37 0 31 -33l-17 -92q-7 -37 -41 -37h-776q-37 0 -31 35l242 1370q6 33 39 33h772q35 0 29 -33l-17 -94q-6 -35 -41 -35h-630l-80 -463h608q32 0 27 -35l-17 -86q-6 -35 -39 -35zM723 1575l143 178q23 27 52 27h147q15 0 17 -14q1 -12 -11 -23
l-221 -176q-23 -23 -53 -23h-62q-14 0 -17 10t5 21z" />
    <glyph glyph-name="Ecircumflex" unicode="&#xca;" horiz-adv-x="1134" 
d="M997 657h-608l-88 -495h637q37 0 31 -33l-17 -92q-7 -37 -41 -37h-776q-37 0 -31 35l242 1370q6 33 39 33h772q35 0 29 -33l-17 -94q-6 -35 -41 -35h-630l-80 -463h608q32 0 27 -35l-17 -86q-6 -35 -39 -35zM940 1567l-115 102l-153 -102q-35 -23 -51 -23h-86
q-19 0 -19 12q0 13 14 23l220 178q22 19 47 19h84q24 0 43 -19l153 -178q12 -10 7 -23q-4 -12 -23 -12h-78q-15 0 -43 23z" />
    <glyph glyph-name="Edieresis" unicode="&#xcb;" horiz-adv-x="1134" 
d="M997 657h-608l-88 -495h637q37 0 31 -33l-17 -92q-7 -37 -41 -37h-776q-37 0 -31 35l242 1370q6 33 39 33h772q35 0 29 -33l-17 -94q-6 -35 -41 -35h-630l-80 -463h608q32 0 27 -35l-17 -86q-6 -35 -39 -35zM727 1720l-27 -143q-6 -33 -38 -33h-115q-31 0 -25 33l27 143
q6 33 35 33h114q35 0 29 -33zM1110 1720l-27 -143q-6 -33 -39 -33h-114q-31 0 -25 33l27 143q6 33 35 33h114q35 0 29 -33z" />
    <glyph glyph-name="Igrave" unicode="&#xcc;" horiz-adv-x="569" 
d="M119 35l241 1370q6 33 39 33h109q35 0 29 -33l-242 -1370q-6 -35 -39 -35h-109q-34 0 -28 35zM446 1753l89 -178q4 -10 -4 -21q-7 -10 -21 -10h-57q-20 0 -43 23l-164 176q-10 10 -3 23q8 14 23 14h142q26 0 38 -27z" />
    <glyph glyph-name="Iacute" unicode="&#xcd;" horiz-adv-x="569" 
d="M119 35l241 1370q6 33 39 33h109q35 0 29 -33l-242 -1370q-6 -35 -39 -35h-109q-34 0 -28 35zM424 1575l143 178q23 27 51 27h148q15 0 17 -14q1 -12 -11 -23l-221 -176q-23 -23 -53 -23h-62q-14 0 -17 10t5 21z" />
    <glyph glyph-name="Icircumflex" unicode="&#xce;" horiz-adv-x="569" 
d="M119 35l241 1370q6 33 39 33h109q35 0 29 -33l-242 -1370q-6 -35 -39 -35h-109q-34 0 -28 35zM612 1567l-114 102l-154 -102q-34 -23 -51 -23h-86q-19 0 -19 12t15 23l219 178q22 19 47 19h84q24 0 43 -19l154 -178q12 -10 7 -23q-5 -12 -24 -12h-78q-15 0 -43 23z" />
    <glyph glyph-name="Idieresis" unicode="&#xcf;" horiz-adv-x="569" 
d="M119 35l241 1370q6 33 39 33h109q35 0 29 -33l-242 -1370q-6 -35 -39 -35h-109q-34 0 -28 35zM401 1720l-26 -143q-6 -33 -39 -33h-115q-30 0 -24 33l26 143q6 33 35 33h115q34 0 28 -33zM784 1720l-26 -143q-6 -33 -39 -33h-115q-30 0 -24 33l26 143q6 33 35 33h115
q34 0 28 -33z" />
    <glyph glyph-name="Eth" unicode="&#xd0;" horiz-adv-x="1402" 
d="M514 0h-375q-36 0 -30 35l110 622h-115q-30 0 -24 29l12 70q6 30 35 30h115l108 619q6 33 39 33h336q308 0 468 -119q159 -119 159 -393q0 -88 -19 -207q-67 -392 -266 -556q-197 -163 -553 -163zM711 1274h-207l-86 -488h313q29 0 25 -30l-13 -70q-6 -29 -34 -29h-314
l-86 -493h211q272 0 424 121q154 122 209 434q18 105 18 182q0 208 -115 290q-116 83 -345 83z" />
    <glyph glyph-name="Ntilde" unicode="&#xd1;" horiz-adv-x="1454" 
d="M1438 1407l-244 -1372q-6 -35 -39 -35h-104q-31 0 -43 27l-535 1118l-197 -1110q-6 -35 -36 -35h-105q-37 0 -31 35l242 1370q6 33 41 33h102q35 0 46 -25l534 -1120l195 1112q6 33 39 33h104q36 0 31 -31zM1274 1683q-24 -149 -170 -149q-49 0 -178 41l-45 14
q-96 29 -125 29q-43 0 -51 -31l-7 -20q-6 -27 -41 -27h-47q-28 0 -20 41q11 67 52 107q43 41 118 41q55 0 178 -43l51 -19q81 -31 115 -31q41 0 53 43l6 21q7 26 43 26h45q30 0 23 -43z" />
    <glyph glyph-name="Ograve" unicode="&#xd2;" horiz-adv-x="1466" 
d="M891 1460q251 0 388 -137q136 -136 136 -395q0 -92 -20 -209q-63 -361 -248 -550t-481 -189q-254 0 -390 138q-137 139 -137 396q0 88 19 205q63 359 250 551q186 190 483 190zM674 139q218 0 355 149q135 147 185 431q19 111 19 192q0 389 -354 389q-220 0 -356 -149
q-135 -149 -185 -432q-19 -111 -19 -193q0 -387 355 -387zM918 1753l88 -178q4 -10 -4 -21q-7 -10 -21 -10h-57q-20 0 -43 23l-164 176q-10 10 -3 23q8 14 23 14h142q27 0 39 -27z" />
    <glyph glyph-name="Oacute" unicode="&#xd3;" horiz-adv-x="1466" 
d="M891 1460q251 0 388 -137q136 -136 136 -395q0 -92 -20 -209q-63 -361 -248 -550t-481 -189q-254 0 -390 138q-137 139 -137 396q0 88 19 205q63 359 250 551q186 190 483 190zM674 139q218 0 355 149q135 147 185 431q19 111 19 192q0 389 -354 389q-220 0 -356 -149
q-135 -149 -185 -432q-19 -111 -19 -193q0 -387 355 -387zM870 1575l144 178q22 27 51 27h147q16 0 18 -14q1 -12 -11 -23l-222 -176q-23 -23 -53 -23h-61q-15 0 -18 10t5 21z" />
    <glyph glyph-name="Ocircumflex" unicode="&#xd4;" horiz-adv-x="1466" 
d="M891 1460q251 0 388 -137q136 -136 136 -395q0 -92 -20 -209q-63 -361 -248 -550t-481 -189q-254 0 -390 138q-137 139 -137 396q0 88 19 205q63 359 250 551q186 190 483 190zM674 139q218 0 355 149q135 147 185 431q19 111 19 192q0 389 -354 389q-220 0 -356 -149
q-135 -149 -185 -432q-19 -111 -19 -193q0 -387 355 -387zM1063 1567l-115 102l-153 -102q-35 -23 -52 -23h-86q-18 0 -18 12q0 13 14 23l219 178q22 19 48 19h84q24 0 43 -19l153 -178q12 -10 7 -23q-5 -12 -23 -12h-78q-15 0 -43 23z" />
    <glyph glyph-name="Otilde" unicode="&#xd5;" horiz-adv-x="1466" 
d="M891 1460q251 0 388 -137q136 -136 136 -395q0 -92 -20 -209q-63 -361 -248 -550t-481 -189q-254 0 -390 138q-137 139 -137 396q0 88 19 205q63 359 250 551q186 190 483 190zM674 139q218 0 355 149q135 147 185 431q19 111 19 192q0 389 -354 389q-220 0 -356 -149
q-135 -149 -185 -432q-19 -111 -19 -193q0 -387 355 -387zM1280 1683q-24 -149 -170 -149q-49 0 -178 41l-45 14q-96 29 -125 29q-43 0 -51 -31l-6 -20q-6 -27 -41 -27h-48q-28 0 -20 41q11 67 52 107q43 41 118 41q55 0 178 -43l51 -19q81 -31 115 -31q41 0 53 43l6 21
q7 26 43 26h45q30 0 23 -43z" />
    <glyph glyph-name="Odieresis" unicode="&#xd6;" horiz-adv-x="1466" 
d="M891 1460q251 0 388 -137q136 -136 136 -395q0 -92 -20 -209q-63 -361 -248 -550t-481 -189q-254 0 -390 138q-137 139 -137 396q0 88 19 205q63 359 250 551q186 190 483 190zM674 139q218 0 355 149q135 147 185 431q19 111 19 192q0 389 -354 389q-220 0 -356 -149
q-135 -149 -185 -432q-19 -111 -19 -193q0 -387 355 -387zM852 1720l-27 -143q-6 -33 -39 -33h-114q-31 0 -25 33l27 143q6 33 35 33h114q35 0 29 -33zM1235 1720l-27 -143q-6 -33 -39 -33h-114q-31 0 -25 33l27 143q6 33 35 33h114q35 0 29 -33z" />
    <glyph glyph-name="multiply" unicode="&#xd7;" horiz-adv-x="1208" 
d="M889 281l-262 315l-375 -317q-27 -24 -45 0l-45 59q-20 22 4 43l377 319l-264 318q-16 22 8 43l69 57q26 24 47 0l259 -317l374 317q25 23 43 0l49 -57q19 -19 -10 -43l-373 -318l261 -319q16 -20 -7 -43l-69 -59q-24 -21 -41 2z" />
    <glyph glyph-name="Oslash" unicode="&#xd8;" horiz-adv-x="1470" 
d="M891 1460q281 0 416 -170l131 121q26 27 45 8l47 -49q21 -22 -2 -45l-158 -145q45 -112 45 -252q0 -92 -20 -209q-63 -361 -248 -550t-481 -189q-282 0 -418 167l-139 -127q-24 -21 -41 -4l-50 54q-16 17 7 39l159 147q-45 105 -45 258q0 88 19 205q63 359 250 551
q186 190 483 190zM319 526q0 -82 15 -139l839 776q-89 137 -294 137q-220 0 -356 -149q-135 -149 -185 -432q-19 -111 -19 -193zM674 139q218 0 355 149q135 147 185 431q19 111 19 192q0 66 -14 133l-840 -772q85 -133 295 -133z" />
    <glyph glyph-name="Ugrave" unicode="&#xd9;" horiz-adv-x="1425" 
d="M645 -25q-234 0 -358 107q-123 106 -123 301q0 57 12 125l158 897q6 33 41 33h106q35 0 29 -33l-156 -885q-10 -63 -10 -108q0 -275 309 -275q366 0 434 383l156 885q6 33 39 33h109q32 0 26 -33l-157 -897q-92 -533 -615 -533zM918 1753l88 -178q4 -10 -4 -21
q-7 -10 -21 -10h-57q-20 0 -43 23l-164 176q-10 10 -3 23q8 14 23 14h142q27 0 39 -27z" />
    <glyph glyph-name="Uacute" unicode="&#xda;" horiz-adv-x="1425" 
d="M645 -25q-234 0 -358 107q-123 106 -123 301q0 57 12 125l158 897q6 33 41 33h106q35 0 29 -33l-156 -885q-10 -63 -10 -108q0 -275 309 -275q366 0 434 383l156 885q6 33 39 33h109q32 0 26 -33l-157 -897q-92 -533 -615 -533zM809 1575l143 178q22 27 52 27h147
q15 0 17 -14q1 -12 -11 -23l-221 -176q-23 -23 -53 -23h-62q-14 0 -17 10t5 21z" />
    <glyph glyph-name="Ucircumflex" unicode="&#xdb;" horiz-adv-x="1425" 
d="M645 -25q-234 0 -358 107q-123 106 -123 301q0 57 12 125l158 897q6 33 41 33h106q35 0 29 -33l-156 -885q-10 -63 -10 -108q0 -275 309 -275q366 0 434 383l156 885q6 33 39 33h109q32 0 26 -33l-157 -897q-92 -533 -615 -533zM1042 1567l-114 102l-154 -102
q-34 -23 -51 -23h-86q-19 0 -19 12t15 23l219 178q22 19 47 19h84q24 0 43 -19l154 -178q12 -10 7 -23q-5 -12 -24 -12h-78q-15 0 -43 23z" />
    <glyph glyph-name="Udieresis" unicode="&#xdc;" horiz-adv-x="1425" 
d="M645 -25q-234 0 -358 107q-123 106 -123 301q0 57 12 125l158 897q6 33 41 33h106q35 0 29 -33l-156 -885q-10 -63 -10 -108q0 -275 309 -275q366 0 434 383l156 885q6 33 39 33h109q32 0 26 -33l-157 -897q-92 -533 -615 -533zM831 1720l-26 -143q-6 -33 -39 -33h-115
q-30 0 -24 33l26 143q6 33 35 33h115q34 0 28 -33zM1214 1720l-26 -143q-6 -33 -39 -33h-115q-30 0 -24 33l26 143q6 33 35 33h115q34 0 28 -33z" />
    <glyph glyph-name="Yacute" unicode="&#xdd;" horiz-adv-x="1310" 
d="M754 528l-88 -493q-6 -35 -39 -35h-109q-35 0 -29 35l89 493l-347 871q-6 15 1 26q8 13 28 13h115q14 0 22 -5q10 -6 11 -10l8 -16l196 -510l74 -215l156 215l377 510q23 31 49 31h123q20 0 23 -14t-7 -25zM791 1575l143 178q22 27 51 27h148q15 0 17 -14q1 -12 -11 -23
l-221 -176q-23 -23 -54 -23h-61q-15 0 -18 10q-3 9 6 21z" />
    <glyph glyph-name="Thorn" unicode="&#xde;" horiz-adv-x="1277" 
d="M242 0h-109q-35 0 -29 35l242 1370q6 33 41 33h107q34 0 28 -33l-22 -135h202q264 0 392 -85q129 -86 129 -274q0 -65 -11 -120q-45 -260 -196 -370q-153 -112 -445 -112h-241l-49 -274q-6 -35 -39 -35zM358 471h222q211 0 316 72t138 250q8 46 8 86q0 123 -84 176
q-85 53 -266 53h-221z" />
    <glyph glyph-name="germandbls" unicode="&#xdf;" horiz-adv-x="1308" 
d="M782 1317q-133 0 -226 -56q-95 -57 -116 -171l-186 -1059q-6 -31 -35 -31h-98q-35 0 -29 31l191 1073q30 177 168 268q136 90 346 90q190 0 290 -80q99 -80 99 -196q0 -83 -59 -153q-57 -68 -128 -103q-50 -25 -128 -65q-58 -30 -58 -44q0 -17 60 -55q51 -32 133 -78
q71 -40 132 -124q60 -82 60 -187q0 -186 -127 -291q-126 -104 -330 -104q-35 0 -94 7q-71 9 -120 20q-56 13 -54 24l16 84q6 34 37 28q27 -6 106 6q97 15 171 34q93 24 162 74q69 49 69 114q0 62 -40 114q-43 55 -97 91q-8 5 -115 70q-56 34 -97 75q-40 40 -40 86
q0 53 39 90q37 36 95 60q22 9 60.5 26t51.5 23q54 23 94 65q39 41 39 98q0 62 -57 104t-185 42z" />
    <glyph glyph-name="agrave" unicode="&#xe0;" horiz-adv-x="1140" 
d="M1030 690l-117 -657q-6 -33 -36 -33h-93q-32 0 -26 31l26 145q-145 -194 -409 -194q-158 0 -243 75q-87 77 -87 193q0 289 395 358q116 19 420 29l10 57q9 63 9 72q0 87 -58 130q-57 42 -182 42q-162 0 -340 -70q-30 -11 -35 21l-12 86q-5 23 24 35q172 75 381 75
q383 0 383 -297q0 -44 -10 -98zM821 416l17 92q-328 -18 -430 -45q-197 -56 -199 -203q0 -62 51 -103q50 -40 148 -40q172 0 281 85q110 86 132 214zM715 1413l88 -180q5 -13 -3 -22t-22 -9h-55q-24 0 -45 21l-166 178q-10 10 -3 23q8 14 23 14h142q25 0 41 -25z" />
    <glyph glyph-name="aacute" unicode="&#xe1;" horiz-adv-x="1140" 
d="M1030 690l-117 -657q-6 -33 -36 -33h-93q-32 0 -26 31l26 145q-145 -194 -409 -194q-158 0 -243 75q-87 77 -87 193q0 289 395 358q116 19 420 29l10 57q9 63 9 72q0 87 -58 130q-57 42 -182 42q-162 0 -340 -70q-30 -11 -35 21l-12 86q-5 23 24 35q172 75 381 75
q383 0 383 -297q0 -44 -10 -98zM821 416l17 92q-328 -18 -430 -45q-197 -56 -199 -203q0 -62 51 -103q50 -40 148 -40q172 0 281 85q110 86 132 214zM604 1233l144 180q23 25 49 25h147q17 0 19 -14q1 -13 -13 -23l-221 -178q-23 -21 -51 -21h-62q-14 0 -18 10t6 21z" />
    <glyph glyph-name="acircumflex" unicode="&#xe2;" horiz-adv-x="1140" 
d="M1030 690l-117 -657q-6 -33 -36 -33h-93q-32 0 -26 31l26 145q-145 -194 -409 -194q-158 0 -243 75q-87 77 -87 193q0 289 395 358q116 19 420 29l10 57q9 63 9 72q0 87 -58 130q-57 42 -182 42q-162 0 -340 -70q-30 -11 -35 21l-12 86q-5 23 24 35q172 75 381 75
q383 0 383 -297q0 -44 -10 -98zM821 416l17 92q-328 -18 -430 -45q-197 -56 -199 -203q0 -62 51 -103q50 -40 148 -40q172 0 281 85q110 86 132 214zM850 1223l-125 112l-164 -112q-27 -21 -49 -21h-84q-18 0 -18 11t12 22l227 186q22 19 47 19h84q24 0 43 -19l162 -186
q10 -10 5 -22q-4 -11 -21 -11h-78q-20 0 -41 21z" />
    <glyph glyph-name="atilde" unicode="&#xe3;" horiz-adv-x="1140" 
d="M1030 690l-117 -657q-6 -33 -36 -33h-93q-32 0 -26 31l26 145q-145 -194 -409 -194q-158 0 -243 75q-87 77 -87 193q0 289 395 358q116 19 420 29l10 57q9 63 9 72q0 87 -58 130q-57 42 -182 42q-162 0 -340 -70q-30 -11 -35 21l-12 86q-5 23 24 35q172 75 381 75
q383 0 383 -297q0 -44 -10 -98zM821 416l17 92q-328 -18 -430 -45q-197 -56 -199 -203q0 -62 51 -103q50 -40 148 -40q172 0 281 85q110 86 132 214zM1024 1341q-27 -139 -154 -139q-75 0 -174 39l-41 16q-66 27 -100 27q-39 0 -51 -33l-8 -20q-11 -25 -41 -25h-47
q-28 0 -21 39q23 137 154 137q58 0 172 -41l47 -16q76 -27 100 -27q36 0 51 41l4 17q7 26 41 26h50q26 0 18 -41z" />
    <glyph glyph-name="adieresis" unicode="&#xe4;" horiz-adv-x="1140" 
d="M1030 690l-117 -657q-6 -33 -36 -33h-93q-32 0 -26 31l26 145q-145 -194 -409 -194q-158 0 -243 75q-87 77 -87 193q0 289 395 358q116 19 420 29l10 57q9 63 9 72q0 87 -58 130q-57 42 -182 42q-162 0 -340 -70q-30 -11 -35 21l-12 86q-5 23 24 35q172 75 381 75
q383 0 383 -297q0 -44 -10 -98zM821 416l17 92q-328 -18 -430 -45q-197 -56 -199 -203q0 -62 51 -103q50 -40 148 -40q172 0 281 85q110 86 132 214zM623 1386l-27 -153q-6 -31 -37 -31h-106q-33 0 -27 31l27 153q6 31 39 31h106q31 0 25 -31zM991 1386l-26 -153
q-6 -31 -37 -31h-107q-32 0 -26 31l26 153q6 31 39 31h107q30 0 24 -31z" />
    <glyph glyph-name="aring" unicode="&#xe5;" horiz-adv-x="1140" 
d="M1030 690l-117 -657q-6 -33 -36 -33h-93q-32 0 -26 31l26 145q-145 -194 -409 -194q-158 0 -243 75q-87 77 -87 193q0 289 395 358q116 19 420 29l10 57q9 63 9 72q0 87 -58 130q-57 42 -182 42q-162 0 -340 -70q-30 -11 -35 21l-12 86q-5 23 24 35q172 75 381 75
q383 0 383 -297q0 -44 -10 -98zM821 416l17 92q-328 -18 -430 -45q-197 -56 -199 -203q0 -62 51 -103q50 -40 148 -40q172 0 281 85q110 86 132 214zM711 1278q55 0 94 33t39 90q0 40 -29 64t-78 24q-55 0 -94 -33t-39 -92q0 -38 29 -62t78 -24zM748 1577q85 0 140 -47
q54 -46 54 -119q0 -96 -71 -159q-69 -62 -173 -62q-86 0 -139 47t-53 119q0 95 69 158t173 63z" />
    <glyph glyph-name="ae" unicode="&#xe6;" horiz-adv-x="1867" 
d="M1305 117q145 0 278 65q31 16 39 -18l16 -80q4 -20 -26 -37q-53 -29 -145 -50q-96 -22 -177 -22q-161 0 -275 72q-113 72 -130 180q-152 -245 -484 -245q-177 0 -266 68q-90 69 -90 183q0 91 33 157q34 68 97 106q61 37 130 62q64 23 166 34q101 11 166 12q88 2 166 2h53
l21 121q17 103 -40 157t-194 54q-169 0 -352 -70q-29 -11 -35 21l-16 86q-5 23 26 35q201 75 383 75q165 0 256 -54t96 -161q63 101 170 158t240 57q181 0 281 -102q100 -101 100 -272q0 -55 -8 -105l-21 -117q-6 -32 -41 -32h-735q-2 -20 -2 -43q0 -138 87 -217
q88 -80 233 -80zM1389 944q-136 0 -239 -94q-102 -93 -140 -256h610l4 16q8 42 8 90q0 116 -60 180t-183 64zM823 418l11 55q-10 0 -80 -2q-91 -1 -149 -5q-63 -4 -125 -10q-76 -8 -114 -21q-41 -15 -80 -37q-43 -25 -60 -60t-17 -88q0 -129 211 -129q172 0 275 84
q104 84 128 213z" />
    <glyph glyph-name="ccedilla" unicode="&#xe7;" horiz-adv-x="1026" 
d="M350 16q-244 96 -244 390q0 56 13 129q45 264 202 408q155 142 384 142q199 0 299 -61q26 -16 14 -39l-49 -82q-17 -29 -47 -14q-91 47 -207 47q-170 0 -280 -100q-112 -101 -146 -301q-10 -50 -10 -117q0 -144 74 -217q76 -74 208 -74q135 0 256 59q27 15 35 -16l18 -84
q5 -19 -30 -37q-129 -69 -279 -69h-26q86 -50 86 -127q0 -81 -62 -122q-61 -40 -153 -40q-76 0 -93 6q-18 8 -14 24l8 54q5 18 25 18h57q119 0 119 82q0 75 -158 141z" />
    <glyph glyph-name="egrave" unicode="&#xe8;" horiz-adv-x="1167" 
d="M596 117q145 0 278 65q36 17 44 -18l16 -76q6 -22 -29 -37q-161 -76 -323 -76q-221 0 -348 116q-125 115 -125 323q0 61 12 133q45 257 194 397q150 141 373 141q194 0 298 -104q106 -106 106 -279q0 -41 -11 -110l-16 -103q-6 -32 -41 -32h-756q-2 -20 -2 -41
q0 -135 88 -217t242 -82zM680 944q-307 0 -387 -350h631l2 10q8 43 8 90q0 117 -64 184q-63 66 -190 66zM731 1413l88 -180q5 -13 -3 -22t-21 -9h-56q-24 0 -45 21l-166 178q-10 10 -3 23q8 14 24 14h141q25 0 41 -25z" />
    <glyph glyph-name="eacute" unicode="&#xe9;" horiz-adv-x="1167" 
d="M596 117q145 0 278 65q36 17 44 -18l16 -76q6 -22 -29 -37q-161 -76 -323 -76q-221 0 -348 116q-125 115 -125 323q0 61 12 133q45 257 194 397q150 141 373 141q194 0 298 -104q106 -106 106 -279q0 -41 -11 -110l-16 -103q-6 -32 -41 -32h-756q-2 -20 -2 -41
q0 -135 88 -217t242 -82zM680 944q-307 0 -387 -350h631l2 10q8 43 8 90q0 117 -64 184q-63 66 -190 66zM639 1233l143 180q22 25 49 25h148q16 0 18 -14t-12 -23l-221 -178q-22 -21 -51 -21h-62q-14 0 -18 10q-5 10 6 21z" />
    <glyph glyph-name="ecircumflex" unicode="&#xea;" horiz-adv-x="1167" 
d="M596 117q145 0 278 65q36 17 44 -18l16 -76q6 -22 -29 -37q-161 -76 -323 -76q-221 0 -348 116q-125 115 -125 323q0 61 12 133q45 257 194 397q150 141 373 141q194 0 298 -104q106 -106 106 -279q0 -41 -11 -110l-16 -103q-6 -32 -41 -32h-756q-2 -20 -2 -41
q0 -135 88 -217t242 -82zM680 944q-307 0 -387 -350h631l2 10q8 43 8 90q0 117 -64 184q-63 66 -190 66zM879 1223l-125 112l-164 -112q-27 -21 -49 -21h-84q-19 0 -19 11t13 22l227 186q22 19 47 19h84q24 0 43 -19l162 -186q10 -10 5 -22q-4 -11 -22 -11h-77q-20 0 -41 21
z" />
    <glyph glyph-name="edieresis" unicode="&#xeb;" horiz-adv-x="1167" 
d="M596 117q145 0 278 65q36 17 44 -18l16 -76q6 -22 -29 -37q-161 -76 -323 -76q-221 0 -348 116q-125 115 -125 323q0 61 12 133q45 257 194 397q150 141 373 141q194 0 298 -104q106 -106 106 -279q0 -41 -11 -110l-16 -103q-6 -32 -41 -32h-756q-2 -20 -2 -41
q0 -135 88 -217t242 -82zM680 944q-307 0 -387 -350h631l2 10q8 43 8 90q0 117 -64 184q-63 66 -190 66zM659 1386l-26 -153q-6 -31 -37 -31h-107q-32 0 -26 31l26 153q6 31 39 31h107q30 0 24 -31zM1028 1386l-27 -153q-6 -31 -36 -31h-107q-33 0 -27 31l27 153q6 31 39 31
h107q30 0 24 -31z" />
    <glyph glyph-name="igrave" unicode="&#xec;" horiz-adv-x="491" 
d="M426 1028l-176 -995q-6 -33 -35 -33h-100q-35 0 -29 33l176 995q6 33 39 33h100q31 0 25 -33zM358 1413l88 -180q5 -13 -3 -22q-7 -9 -21 -9h-55q-24 0 -45 21l-166 178q-10 10 -3 23q8 14 23 14h141q25 0 41 -25z" />
    <glyph glyph-name="iacute" unicode="&#xed;" horiz-adv-x="491" 
d="M426 1028l-176 -995q-6 -33 -35 -33h-100q-35 0 -29 33l176 995q6 33 39 33h100q31 0 25 -33zM319 1233l144 180q22 25 49 25h147q17 0 19 -14t-12 -23l-222 -178q-22 -21 -51 -21h-61q-15 0 -19 10q-5 10 6 21z" />
    <glyph glyph-name="icircumflex" unicode="&#xee;" horiz-adv-x="491" 
d="M426 1028l-176 -995q-6 -33 -35 -33h-100q-35 0 -29 33l176 995q6 33 39 33h100q31 0 25 -33zM528 1223l-125 112l-163 -112q-27 -21 -50 -21h-84q-18 0 -18 11t12 22l228 186q22 19 47 19h84q24 0 43 -19l162 -186q10 -10 5 -22q-4 -11 -22 -11h-78q-20 0 -41 21z" />
    <glyph glyph-name="idieresis" unicode="&#xef;" horiz-adv-x="491" 
d="M426 1028l-176 -995q-6 -33 -35 -33h-100q-35 0 -29 33l176 995q6 33 39 33h100q31 0 25 -33zM309 1386l-26 -153q-6 -31 -37 -31h-107q-32 0 -26 31l26 153q6 31 39 31h107q30 0 24 -31zM678 1386l-27 -153q-6 -31 -37 -31h-106q-33 0 -27 31l27 153q6 31 39 31h106
q31 0 25 -31z" />
    <glyph glyph-name="eth" unicode="&#xf0;" horiz-adv-x="1218" 
d="M1143 1200h-125q127 -230 127 -493q0 -81 -17 -175q-46 -267 -198 -410q-151 -142 -383 -142q-205 0 -324 108t-119 309q0 55 13 133q47 267 199 410t380 143q199 0 271 -90q-29 109 -103 207h-309q-33 0 -27 31l9 43q6 29 36 29h228q-45 59 -119 100q-14 10 -9 22
q5 13 21 13h113q29 0 51 -17q61 -53 109 -118h194q29 0 23 -29l-8 -43q-5 -31 -33 -31zM551 125q160 0 265 102q104 101 142 303q13 73 13 125q0 141 -72 213t-205 72q-161 0 -266 -102q-103 -100 -141 -308q-13 -73 -13 -122q0 -283 277 -283z" />
    <glyph glyph-name="ntilde" unicode="&#xf1;" horiz-adv-x="1218" 
d="M1108 700l-119 -667q-6 -33 -37 -33h-100q-35 0 -29 33l115 645q6 39 6 74q0 180 -221 180q-147 0 -248 -83q-100 -82 -123 -220l-106 -596q-6 -33 -37 -33h-100q-33 0 -27 33l176 995q6 33 37 33h98q33 0 27 -31l-21 -133q130 188 379 188q166 0 251 -78q87 -79 87 -219
q0 -45 -8 -88zM1073 1341q-27 -139 -153 -139q-76 0 -175 39l-40 16q-66 27 -101 27q-39 0 -51 -33l-8 -20q-11 -25 -41 -25h-47q-29 0 -21 39q23 137 154 137q58 0 172 -41l47 -16q76 -27 100 -27q37 0 52 41l4 17q7 26 41 26h49q26 0 18 -41z" />
    <glyph glyph-name="ograve" unicode="&#xf2;" horiz-adv-x="1224" 
d="M543 -20q233 0 385 143q154 145 200 409q13 80 13 136q0 201 -117 309t-319 108q-236 0 -388 -143q-153 -144 -200 -410q-13 -80 -13 -135q0 -201 117 -309t322 -108zM551 125q-133 0 -205 72t-72 213q0 49 13 122q38 206 141 306q105 102 266 102q133 0 205 -72t72 -213
q0 -50 -13 -123q-35 -203 -141 -305q-107 -102 -266 -102zM748 1413l88 -180q5 -13 -3 -22q-7 -9 -22 -9h-55q-24 0 -45 21l-166 178q-10 10 -3 23q8 14 23 14h142q25 0 41 -25z" />
    <glyph glyph-name="oacute" unicode="&#xf3;" horiz-adv-x="1224" 
d="M543 -20q233 0 385 143q154 145 200 409q13 80 13 136q0 201 -117 309t-319 108q-236 0 -388 -143q-153 -144 -200 -410q-13 -80 -13 -135q0 -201 117 -309t322 -108zM551 125q-133 0 -205 72t-72 213q0 49 13 122q38 206 141 306q105 102 266 102q133 0 205 -72t72 -213
q0 -50 -13 -123q-35 -203 -141 -305q-107 -102 -266 -102zM657 1233l144 180q23 25 49 25h147q17 0 19 -14t-12 -23l-222 -178q-22 -21 -51 -21h-61q-15 0 -19 10q-5 10 6 21z" />
    <glyph glyph-name="ocircumflex" unicode="&#xf4;" horiz-adv-x="1224" 
d="M543 -20q233 0 385 143q154 145 200 409q13 80 13 136q0 201 -117 309t-319 108q-236 0 -388 -143q-153 -144 -200 -410q-13 -80 -13 -135q0 -201 117 -309t322 -108zM551 125q-133 0 -205 72t-72 213q0 49 13 122q38 206 141 306q105 102 266 102q133 0 205 -72t72 -213
q0 -50 -13 -123q-35 -203 -141 -305q-107 -102 -266 -102zM893 1223l-125 112l-164 -112q-27 -21 -49 -21h-84q-18 0 -18 11t12 22l227 186q22 19 47 19h84q24 0 43 -19l162 -186q10 -10 5 -22q-4 -11 -21 -11h-78q-20 0 -41 21z" />
    <glyph glyph-name="otilde" unicode="&#xf5;" horiz-adv-x="1224" 
d="M543 -20q-205 0 -322 108t-117 309q0 55 13 135q47 266 200 410q152 143 388 143q202 0 319 -108t117 -309q0 -56 -13 -136q-46 -264 -200 -409q-152 -143 -385 -143zM551 125q159 0 266 102q106 102 141 305q13 73 13 123q0 141 -72 213t-205 72q-161 0 -266 -102
q-103 -100 -141 -306q-13 -73 -13 -122q0 -141 72 -213t205 -72zM1075 1341q-27 -139 -153 -139q-75 0 -174 39l-41 16q-68 27 -101 27q-39 0 -51 -33l-8 -20q-11 -25 -41 -25h-47q-29 0 -21 39q23 137 154 137q58 0 172 -41l47 -16q77 -27 100 -27q37 0 52 41l4 17
q7 26 41 26h49q26 0 18 -41z" />
    <glyph glyph-name="odieresis" unicode="&#xf6;" horiz-adv-x="1224" 
d="M543 -20q233 0 385 143q154 145 200 409q13 80 13 136q0 201 -117 309t-319 108q-236 0 -388 -143q-153 -144 -200 -410q-13 -80 -13 -135q0 -201 117 -309t322 -108zM551 125q-133 0 -205 72t-72 213q0 49 13 122q38 206 141 306q105 102 266 102q133 0 205 -72t72 -213
q0 -50 -13 -123q-35 -203 -141 -305q-107 -102 -266 -102zM674 1386l-27 -153q-6 -31 -37 -31h-106q-33 0 -27 31l27 153q6 31 39 31h106q31 0 25 -31zM1042 1386l-26 -153q-6 -31 -37 -31h-107q-32 0 -26 31l26 153q6 31 39 31h107q30 0 24 -31z" />
    <glyph glyph-name="divide" unicode="&#xf7;" horiz-adv-x="1208" 
d="M1073 633h-883q-28 0 -22 31l12 77q6 31 37 31h881q30 0 24 -31l-12 -77q-6 -31 -37 -31zM467 252l27 154q6 32 38 32h132q32 0 26 -32l-26 -154q-6 -33 -39 -33h-131q-33 0 -27 33zM598 997l29 154q6 33 37 33h131q34 0 28 -33l-28 -154q-6 -32 -37 -32h-131
q-35 0 -29 32z" />
    <glyph glyph-name="oslash" unicode="&#xf8;" horiz-adv-x="1232" 
d="M547 -20q-208 0 -320 106l-80 -78q-24 -24 -47 -6l-32 31q-20 21 2 43l94 88q-55 94 -55 233q0 61 12 135q46 264 201 410q152 143 387 143q205 0 319 -108l82 78q22 23 43 2l33 -29q23 -18 -2 -41l-94 -88q55 -100 55 -231q0 -62 -12 -136q-46 -263 -201 -409
q-152 -143 -385 -143zM279 410q0 -74 18 -125l612 577q-72 78 -211 78q-161 0 -266 -102q-103 -100 -141 -306q-12 -68 -12 -122zM555 125q159 0 266 102q108 103 142 305q12 68 12 123q0 68 -19 123l-610 -577q69 -76 209 -76z" />
    <glyph glyph-name="ugrave" unicode="&#xf9;" horiz-adv-x="1202" 
d="M125 365l117 663q6 33 39 33h100q31 0 25 -33l-113 -637q-6 -39 -6 -76q0 -184 213 -184q137 0 240 80q102 79 126 217l107 600q6 33 39 33h100q31 0 25 -33l-176 -995q-6 -33 -35 -33h-101q-34 0 -28 31l24 135q-127 -186 -366 -186q-168 0 -252 77q-86 78 -86 217
q0 48 8 91zM745 1413l89 -180q4 -12 -4 -22q-8 -9 -21 -9h-55q-24 0 -45 21l-166 178q-10 10 -3 23q8 14 23 14h142q24 0 40 -25z" />
    <glyph glyph-name="uacute" unicode="&#xfa;" horiz-adv-x="1202" 
d="M125 365l117 663q6 33 39 33h100q31 0 25 -33l-113 -637q-6 -39 -6 -76q0 -184 213 -184q137 0 240 80q102 79 126 217l107 600q6 33 39 33h100q31 0 25 -33l-176 -995q-6 -33 -35 -33h-101q-34 0 -28 31l24 135q-127 -186 -366 -186q-168 0 -252 77q-86 78 -86 217
q0 48 8 91zM637 1233l143 180q23 25 49 25h148q16 0 18 -14t-12 -23l-221 -178q-22 -21 -51 -21h-62q-14 0 -18 10q-5 10 6 21z" />
    <glyph glyph-name="ucircumflex" unicode="&#xfb;" horiz-adv-x="1202" 
d="M125 365l117 663q6 33 39 33h100q31 0 25 -33l-113 -637q-6 -39 -6 -76q0 -184 213 -184q137 0 240 80q102 79 126 217l107 600q6 33 39 33h100q31 0 25 -33l-176 -995q-6 -33 -35 -33h-101q-34 0 -28 31l24 135q-127 -186 -366 -186q-168 0 -252 77q-86 78 -86 217
q0 48 8 91zM883 1223l-125 112l-164 -112q-27 -21 -49 -21h-84q-19 0 -19 11t13 22l227 186q22 19 47 19h84q24 0 43 -19l162 -186q10 -10 5 -22q-4 -11 -22 -11h-77q-20 0 -41 21z" />
    <glyph glyph-name="udieresis" unicode="&#xfc;" horiz-adv-x="1202" 
d="M125 365l117 663q6 33 39 33h100q31 0 25 -33l-113 -637q-6 -39 -6 -76q0 -184 213 -184q137 0 240 80q102 79 126 217l107 600q6 33 39 33h100q31 0 25 -33l-176 -995q-6 -33 -35 -33h-101q-34 0 -28 31l24 135q-127 -186 -366 -186q-168 0 -252 77q-86 78 -86 217
q0 48 8 91zM664 1386l-27 -153q-6 -31 -37 -31h-106q-33 0 -27 31l27 153q6 31 38 31h107q31 0 25 -31zM1032 1386l-26 -153q-6 -31 -37 -31h-107q-32 0 -26 31l26 153q6 31 39 31h107q30 0 24 -31z" />
    <glyph glyph-name="yacute" unicode="&#xfd;" horiz-adv-x="1026" 
d="M1073 1026l-502 -958q-80 -167 -163 -234t-232 -67q-94 0 -145 22q-26 10 -19 31l39 84q15 24 39 22q67 -14 103 -14q91 0 135 50q43 49 26 130l-198 934q-6 35 28 35h105q23 0 28 -31l111 -538l49 -318h4l154 318l266 538q17 31 41 31h113q35 0 18 -35zM567 1233
l144 180q23 25 49 25h147q17 0 19 -14q1 -13 -13 -23l-221 -178q-22 -21 -51 -21h-61q-15 0 -19 10q-5 10 6 21z" />
    <glyph glyph-name="thorn" unicode="&#xfe;" horiz-adv-x="1288" 
d="M369 1438h100q35 0 29 -31l-95 -524q129 202 398 202q189 0 297 -102t108 -301q0 -81 -14 -150q-50 -277 -190 -414q-141 -138 -359 -138q-141 0 -239 49q-99 50 -123 149l-66 -371q-6 -32 -39 -32h-100q-33 0 -27 32l283 1600q6 31 37 31zM342 532q-10 -50 -10 -118
q0 -142 72 -215q72 -74 212 -74q167 0 268 97q100 96 138 310q14 84 14 138q0 270 -274 270q-170 0 -277 -104q-108 -105 -143 -304z" />
    <glyph glyph-name="ydieresis" unicode="&#xff;" horiz-adv-x="1026" 
d="M1073 1026l-502 -958q-80 -167 -163 -234t-232 -67q-94 0 -145 22q-26 10 -19 31l39 84q15 24 39 22q67 -14 103 -14q91 0 135 50q43 49 26 130l-198 934q-6 35 28 35h105q23 0 28 -31l111 -538l49 -318h4l154 318l266 538q17 31 41 31h113q35 0 18 -35zM575 1386
l-26 -153q-6 -31 -37 -31h-106q-33 0 -27 31l27 153q6 31 38 31h107q30 0 24 -31zM944 1386l-26 -153q-6 -31 -37 -31h-107q-32 0 -26 31l26 153q6 31 39 31h107q30 0 24 -31z" />
    <glyph glyph-name="Amacron" unicode="&#x100;" horiz-adv-x="1370" 
d="M440 532h518l-127 730h-4zM786 1438h138q15 0 22 -4q8 -5 11 -12q5 -13 6 -19l272 -1368q4 -14 -5 -25q-9 -10 -26 -10h-114q-29 0 -35 31l-68 342h-629l-190 -342q-19 -31 -41 -31h-125q-16 0 -22 10t0 25l755 1368q18 35 51 35zM1171 1575h-583q-31 0 -25 31l10 61
q6 31 37 31h584q33 0 27 -31l-11 -61q-6 -31 -39 -31z" />
    <glyph glyph-name="amacron" unicode="&#x101;" horiz-adv-x="1140" 
d="M1030 690l-117 -657q-6 -33 -36 -33h-93q-32 0 -26 31l26 145q-145 -194 -409 -194q-158 0 -243 75q-87 77 -87 193q0 289 395 358q116 19 420 29l10 57q9 63 9 72q0 87 -58 130q-57 42 -182 42q-162 0 -340 -70q-30 -11 -35 21l-12 86q-5 23 24 35q172 75 381 75
q383 0 383 -297q0 -44 -10 -98zM821 416l17 92q-328 -18 -430 -45q-197 -56 -199 -203q0 -62 51 -103q50 -40 148 -40q172 0 281 85q110 86 132 214zM983 1214h-584q-30 0 -24 31l8 53q6 31 37 31h584q30 0 24 -31l-8 -53q-6 -31 -37 -31z" />
    <glyph glyph-name="Abreve" unicode="&#x102;" horiz-adv-x="1370" 
d="M440 532h518l-127 730h-4zM786 1438h138q15 0 22 -4q8 -5 11 -12q5 -13 6 -19l272 -1368q4 -14 -5 -25q-9 -10 -26 -10h-114q-29 0 -35 31l-68 342h-629l-190 -342q-19 -31 -41 -31h-125q-16 0 -22 10t0 25l755 1368q18 35 51 35zM887 1544q-139 0 -204 63t-50 152
q6 25 29 25h57q26 0 26 -23q6 -53 37 -81q30 -27 113 -27t122 26q40 27 64 82q12 23 33 23h57q27 0 21 -25q-18 -94 -93 -154q-76 -61 -212 -61z" />
    <glyph glyph-name="abreve" unicode="&#x103;" horiz-adv-x="1140" 
d="M1030 690l-117 -657q-6 -33 -36 -33h-93q-32 0 -26 31l26 145q-145 -194 -409 -194q-158 0 -243 75q-87 77 -87 193q0 289 395 358q116 19 420 29l10 57q9 63 9 72q0 87 -58 130q-57 42 -182 42q-162 0 -340 -70q-30 -11 -35 21l-12 86q-5 23 24 35q172 75 381 75
q383 0 383 -297q0 -44 -10 -98zM821 416l17 92q-328 -18 -430 -45q-197 -56 -199 -203q0 -62 51 -103q50 -40 148 -40q172 0 281 85q110 86 132 214zM705 1196q-143 0 -207 67t-49 158q2 25 28 25h58q22 0 24 -23q5 -59 34 -88q30 -30 116 -30q88 0 124 29q37 30 64 89
q8 23 33 23h57q23 0 21 -25q-45 -225 -303 -225z" />
    <glyph glyph-name="Aogonek" unicode="&#x104;" horiz-adv-x="1370" 
d="M786 1438h138q15 0 22 -4q8 -5 11 -12q5 -13 6 -19l272 -1368q4 -14 -5 -25q-9 -10 -26 -10h-14q-170 -68 -170 -168q0 -53 94 -53q30 0 74 12q18 5 18 -8l4 -62q0 -12 -16 -24q-54 -31 -121 -31q-83 0 -132 33q-50 33 -50 96q0 131 184 207q-18 6 -20 29l-68 342h-629
l-190 -342q-19 -31 -41 -31h-125q-16 0 -22 10t0 25l755 1368q18 35 51 35zM440 532h518l-127 730h-4z" />
    <glyph glyph-name="aogonek" unicode="&#x105;" horiz-adv-x="1140" 
d="M1030 690l-117 -657q-6 -33 -36 -33h-21q-160 -63 -160 -156q0 -49 92 -49q33 0 72 10q21 5 21 -10l2 -55q0 -20 -15 -25q-48 -26 -123 -26q-71 0 -120 30q-50 30 -50 86q0 132 187 201q-8 5 -4 25l26 145q-145 -194 -409 -194q-158 0 -243 75q-87 77 -87 193
q0 289 395 358q116 19 420 29l10 57q9 63 9 72q0 87 -58 130q-57 42 -182 42q-162 0 -340 -70q-30 -11 -35 21l-12 86q-5 23 24 35q172 75 381 75q383 0 383 -297q0 -44 -10 -98zM821 416l17 92q-328 -18 -430 -45q-197 -56 -199 -203q0 -62 51 -103q50 -40 148 -40
q172 0 281 85q110 86 132 214z" />
    <glyph glyph-name="Cacute" unicode="&#x106;" horiz-adv-x="1241" 
d="M733 141q153 0 297 72q28 15 39 -23l23 -88q6 -15 -33 -36q-157 -86 -359 -86q-266 0 -411 141q-146 141 -146 403q0 84 19 195q63 357 257 550q192 191 494 191q110 0 212 -24q99 -23 151 -58q30 -18 18 -39l-51 -86q-21 -33 -47 -18q-112 63 -270 63q-238 0 -385 -147
q-148 -148 -199 -432q-16 -99 -16 -176q0 -402 407 -402zM821 1575l144 178q23 27 51 27h147q16 0 18 -14q1 -11 -12 -23l-221 -176q-23 -23 -53 -23h-61q-15 0 -18 10t5 21z" />
    <glyph glyph-name="cacute" unicode="&#x107;" horiz-adv-x="1026" 
d="M119 535q45 264 202 408q155 142 384 142q199 0 299 -61q26 -16 14 -39l-49 -82q-17 -29 -47 -14q-91 47 -207 47q-170 0 -280 -100q-112 -101 -146 -301q-10 -50 -10 -117q0 -144 74 -217q76 -74 208 -74q135 0 256 59q27 15 35 -16l18 -84q5 -19 -30 -37
q-129 -69 -279 -69q-206 0 -331 111q-124 111 -124 315q0 56 13 129zM670 1233l143 180q23 25 49 25h148q16 0 18 -14t-12 -23l-221 -178q-23 -21 -52 -21h-61q-14 0 -18 10t6 21z" />
    <glyph glyph-name="Ccircumflex" unicode="&#x108;" horiz-adv-x="1241" 
d="M733 141q153 0 297 72q28 15 39 -23l23 -88q6 -15 -33 -36q-157 -86 -359 -86q-266 0 -411 141q-146 141 -146 403q0 84 19 195q63 357 257 550q192 191 494 191q110 0 212 -24q99 -23 151 -58q30 -18 18 -39l-51 -86q-21 -33 -47 -18q-112 63 -270 63q-238 0 -385 -147
q-148 -148 -199 -432q-16 -99 -16 -176q0 -402 407 -402zM1063 1567l-115 102l-153 -102q-35 -23 -52 -23h-86q-18 0 -18 12q0 13 14 23l219 178q22 19 48 19h84q24 0 43 -19l153 -178q12 -10 7 -23q-5 -12 -23 -12h-78q-15 0 -43 23z" />
    <glyph glyph-name="ccircumflex" unicode="&#x109;" horiz-adv-x="1026" 
d="M119 535q45 264 202 408q155 142 384 142q199 0 299 -61q26 -16 14 -39l-49 -82q-17 -29 -47 -14q-91 47 -207 47q-170 0 -280 -100q-112 -101 -146 -301q-10 -50 -10 -117q0 -144 74 -217q76 -74 208 -74q135 0 256 59q27 15 35 -16l18 -84q5 -19 -30 -37
q-129 -69 -279 -69q-206 0 -331 111q-124 111 -124 315q0 56 13 129zM848 1223l-125 112l-164 -112q-27 -21 -49 -21h-84q-18 0 -18 11t12 22l227 186q22 19 47 19h84q24 0 43 -19l162 -186q10 -10 5 -22q-4 -11 -21 -11h-78q-20 0 -41 21z" />
    <glyph glyph-name="Cdotaccent" unicode="&#x10a;" horiz-adv-x="1241" 
d="M733 141q153 0 297 72q28 15 39 -23l23 -88q6 -15 -33 -36q-157 -86 -359 -86q-266 0 -411 141q-146 141 -146 403q0 84 19 195q63 357 257 550q192 191 494 191q110 0 212 -24q99 -23 151 -58q30 -18 18 -39l-51 -86q-21 -33 -47 -18q-112 63 -270 63q-238 0 -385 -147
q-148 -148 -199 -432q-16 -99 -16 -176q0 -402 407 -402zM1047 1735l-29 -158q-6 -33 -37 -33h-119q-32 0 -26 33l28 158q6 30 37 30h119q33 0 27 -30z" />
    <glyph glyph-name="cdotaccent" unicode="&#x10b;" horiz-adv-x="1026" 
d="M119 535q45 264 202 408q155 142 384 142q199 0 299 -61q26 -16 14 -39l-49 -82q-17 -29 -47 -14q-91 47 -207 47q-170 0 -280 -100q-112 -101 -146 -301q-10 -50 -10 -117q0 -144 74 -217q76 -74 208 -74q135 0 256 59q27 15 35 -16l18 -84q5 -19 -30 -37
q-129 -69 -279 -69q-206 0 -331 111q-124 111 -124 315q0 56 13 129zM848 1391l-27 -158q-6 -31 -37 -31h-118q-33 0 -27 31l27 158q6 32 39 32h118q31 0 25 -32z" />
    <glyph glyph-name="Ccaron" unicode="&#x10c;" horiz-adv-x="1241" 
d="M733 141q153 0 297 72q28 15 39 -23l23 -88q6 -15 -33 -36q-157 -86 -359 -86q-266 0 -411 141q-146 141 -146 403q0 84 19 195q63 357 257 550q192 191 494 191q110 0 212 -24q99 -23 151 -58q30 -18 18 -39l-51 -86q-21 -33 -47 -18q-112 63 -270 63q-238 0 -385 -147
q-148 -148 -199 -432q-16 -99 -16 -176q0 -402 407 -402zM938 1651l147 102q35 23 50 23h86q19 0 20 -12q1 -11 -10 -21l-219 -180q-22 -19 -49 -19h-84q-22 0 -41 19l-154 180q-9 9 -5 21q5 12 23 12h78q26 0 41 -21z" />
    <glyph glyph-name="ccaron" unicode="&#x10d;" horiz-adv-x="1026" 
d="M119 535q45 264 202 408q155 142 384 142q199 0 299 -61q26 -16 14 -39l-49 -82q-17 -29 -47 -14q-91 47 -207 47q-170 0 -280 -100q-112 -101 -146 -301q-10 -50 -10 -117q0 -144 74 -217q76 -74 208 -74q135 0 256 59q27 15 35 -16l18 -84q5 -19 -30 -37
q-129 -69 -279 -69q-206 0 -331 111q-124 111 -124 315q0 56 13 129zM729 1307l164 112q27 21 47 21h86q16 0 17 -12q1 -10 -11 -21l-227 -186q-25 -19 -49 -19h-84q-28 0 -41 19l-162 186q-10 10 -6 21q4 12 22 12h76q22 0 43 -21z" />
    <glyph glyph-name="Dcaron" unicode="&#x10e;" horiz-adv-x="1398" 
d="M510 0h-375q-37 0 -31 35l242 1370q6 33 39 33h336q309 0 471 -117t162 -385q0 -82 -19 -193q-72 -410 -271 -576q-200 -167 -554 -167zM707 1274h-207l-195 -1110h211q135 0 232 25q94 24 182 90q82 62 139 178q56 116 86 286q16 96 16 164q0 203 -115 285t-349 82z
M899 1651l148 102q35 23 49 23h86q18 0 20 -12q1 -11 -10 -21l-219 -180q-24 -19 -49 -19h-84q-22 0 -41 19l-154 180q-9 9 -5 21t24 12h77q25 0 41 -21z" />
    <glyph glyph-name="dcaron" unicode="&#x10f;" horiz-adv-x="1474" 
d="M969 532q10 50 10 119q0 141 -74 215t-213 74q-166 0 -267 -97q-100 -96 -138 -311q-15 -90 -15 -137q0 -270 277 -270q167 0 275 104q111 106 145 303zM881 31l26 147q-123 -198 -393 -198q-191 0 -301 103q-111 103 -111 304q0 71 15 145q50 276 192 414
q143 139 363 139q132 0 232 -53t124 -149l94 524q6 31 37 31h101q34 0 28 -31l-244 -1374q-6 -33 -36 -33h-101q-32 0 -26 31zM1602 1221l-117 -203q-11 -23 -35 -23h-43q-24 0 -12 29l90 197h-47q-33 0 -27 32l27 154q6 33 39 33h139q32 0 26 -33l-24 -143q-2 -21 -16 -43z
" />
    <glyph glyph-name="Dcroat" unicode="&#x110;" horiz-adv-x="1402" 
d="M514 0h-375q-36 0 -30 35l110 622h-115q-30 0 -24 29l12 70q6 30 35 30h115l108 619q6 33 39 33h336q308 0 468 -119q159 -119 159 -393q0 -88 -19 -207q-67 -392 -266 -556q-197 -163 -553 -163zM711 1274h-207l-86 -488h313q29 0 25 -30l-13 -70q-6 -29 -34 -29h-314
l-86 -493h211q272 0 424 121q154 122 209 434q18 105 18 182q0 208 -115 290q-116 83 -345 83z" />
    <glyph glyph-name="dcroat" unicode="&#x111;" horiz-adv-x="1292" 
d="M881 31l26 147q-123 -198 -393 -198q-191 0 -301 103q-111 103 -111 304q0 71 15 145q49 272 193 413q143 140 362 140q132 0 230 -53q97 -52 126 -149l57 323h-315q-31 0 -25 29l9 43q5 31 34 31h316l18 98q6 31 37 31h101q34 0 28 -31l-18 -98h106q31 0 25 -31l-8 -43
q-6 -29 -35 -29h-107l-207 -1173q-6 -33 -36 -33h-101q-32 0 -26 31zM969 532q10 50 10 119q0 141 -74 215t-213 74q-166 0 -267 -97q-100 -96 -138 -311q-15 -90 -15 -137q0 -270 277 -270q167 0 275 104q111 106 145 303z" />
    <glyph glyph-name="Emacron" unicode="&#x112;" horiz-adv-x="1134" 
d="M997 657h-608l-88 -495h637q37 0 31 -33l-17 -92q-7 -37 -41 -37h-776q-37 0 -31 35l242 1370q6 33 39 33h772q35 0 29 -33l-17 -94q-6 -35 -41 -35h-630l-80 -463h608q32 0 27 -35l-17 -86q-6 -35 -39 -35zM1100 1575h-584q-30 0 -24 31l10 61q6 31 37 31h583
q33 0 27 -31l-10 -61q-6 -31 -39 -31z" />
    <glyph glyph-name="emacron" unicode="&#x113;" horiz-adv-x="1167" 
d="M596 117q145 0 278 65q36 17 44 -18l16 -76q6 -22 -29 -37q-161 -76 -323 -76q-221 0 -348 116q-125 115 -125 323q0 61 12 133q45 257 194 397q150 141 373 141q194 0 298 -104q106 -106 106 -279q0 -41 -11 -110l-16 -103q-6 -32 -41 -32h-756q-2 -20 -2 -41
q0 -135 88 -217t242 -82zM680 944q-307 0 -387 -350h631l2 10q8 43 8 90q0 117 -64 184q-63 66 -190 66zM1020 1214h-584q-30 0 -24 31l8 53q6 31 37 31h583q31 0 25 -31l-8 -53q-6 -31 -37 -31z" />
    <glyph glyph-name="Ebreve" unicode="&#x114;" horiz-adv-x="1134" 
d="M997 657h-608l-88 -495h637q37 0 31 -33l-17 -92q-7 -37 -41 -37h-776q-37 0 -31 35l242 1370q6 33 39 33h772q35 0 29 -33l-17 -94q-6 -35 -41 -35h-630l-80 -463h608q32 0 27 -35l-17 -86q-6 -35 -39 -35zM829 1544q-139 0 -203 63q-66 64 -51 152q6 25 29 25h58
q26 0 26 -23q6 -53 37 -81q30 -27 113 -27q82 0 121 26q42 28 65 82q12 23 33 23h57q27 0 21 -25q-18 -93 -94 -154t-212 -61z" />
    <glyph glyph-name="ebreve" unicode="&#x115;" horiz-adv-x="1167" 
d="M596 117q145 0 278 65q36 17 44 -18l16 -76q6 -22 -29 -37q-161 -76 -323 -76q-221 0 -348 116q-125 115 -125 323q0 61 12 133q45 257 194 397q150 141 373 141q194 0 298 -104q106 -106 106 -279q0 -41 -11 -110l-16 -103q-6 -32 -41 -32h-756q-2 -20 -2 -41
q0 -135 88 -217t242 -82zM680 944q-307 0 -387 -350h631l2 10q8 43 8 90q0 117 -64 184q-63 66 -190 66zM741 1196q-142 0 -206 67q-65 68 -50 158q2 25 29 25h57q23 0 25 -23q5 -59 34 -88q30 -30 115 -30q88 0 124 29q39 31 65 89q8 23 33 23h57q22 0 20 -25
q-45 -225 -303 -225z" />
    <glyph glyph-name="Edotaccent" unicode="&#x116;" horiz-adv-x="1134" 
d="M997 657h-608l-88 -495h637q37 0 31 -33l-17 -92q-7 -37 -41 -37h-776q-37 0 -31 35l242 1370q6 33 39 33h772q35 0 29 -33l-17 -94q-6 -35 -41 -35h-630l-80 -463h608q32 0 27 -35l-17 -86q-6 -35 -39 -35zM961 1735l-29 -158q-6 -33 -37 -33h-119q-32 0 -26 33l28 158
q6 30 37 30h119q33 0 27 -30z" />
    <glyph glyph-name="edotaccent" unicode="&#x117;" horiz-adv-x="1167" 
d="M596 117q145 0 278 65q36 17 44 -18l16 -76q6 -22 -29 -37q-161 -76 -323 -76q-221 0 -348 116q-125 115 -125 323q0 61 12 133q45 257 194 397q150 141 373 141q194 0 298 -104q106 -106 106 -279q0 -41 -11 -110l-16 -103q-6 -32 -41 -32h-756q-2 -20 -2 -41
q0 -135 88 -217t242 -82zM680 944q-307 0 -387 -350h631l2 10q8 43 8 90q0 117 -64 184q-63 66 -190 66zM850 1391l-27 -158q-6 -31 -37 -31h-118q-33 0 -27 31l27 158q6 32 39 32h118q31 0 25 -32z" />
    <glyph glyph-name="Eogonek" unicode="&#x118;" horiz-adv-x="1134" 
d="M997 657h-608l-88 -495h637q37 0 31 -33l-17 -92q-7 -37 -41 -37h-28q-170 -68 -170 -168q0 -53 94 -53q31 0 74 12q18 5 18 -8l4 -62q0 -12 -16 -24q-54 -31 -121 -31q-82 0 -132 33t-50 96q0 129 180 205h-629q-37 0 -31 35l242 1370q6 33 39 33h772q35 0 29 -33
l-17 -94q-6 -35 -41 -35h-630l-80 -463h608q32 0 27 -35l-17 -86q-6 -35 -39 -35z" />
    <glyph glyph-name="eogonek" unicode="&#x119;" horiz-adv-x="1167" 
d="M596 117q145 0 278 65q36 17 44 -18l16 -76q6 -22 -29 -37q-141 -67 -276 -74q-109 -56 -109 -133q0 -49 92 -49q33 0 72 10q21 5 21 -10l2 -55q0 -20 -15 -25q-48 -26 -123 -26q-71 0 -120 30q-50 30 -50 86q0 100 123 172q-194 16 -304 131q-109 113 -109 306
q0 61 12 133q45 257 194 397q150 141 373 141q194 0 298 -104q106 -106 106 -279q0 -41 -11 -110l-16 -103q-6 -32 -41 -32h-756q-2 -20 -2 -41q0 -135 88 -217t242 -82zM680 944q-307 0 -387 -350h631l2 10q8 43 8 90q0 117 -64 184q-63 66 -190 66z" />
    <glyph glyph-name="Ecaron" unicode="&#x11a;" horiz-adv-x="1134" 
d="M997 657h-608l-88 -495h637q37 0 31 -33l-17 -92q-7 -37 -41 -37h-776q-37 0 -31 35l242 1370q6 33 39 33h772q35 0 29 -33l-17 -94q-6 -35 -41 -35h-630l-80 -463h608q32 0 27 -35l-17 -86q-6 -35 -39 -35zM821 1651l148 102q35 23 49 23h86q18 0 20 -12q1 -11 -10 -21
l-219 -180q-24 -19 -49 -19h-84q-22 0 -41 19l-154 180q-9 9 -5 21t24 12h78q24 0 41 -21z" />
    <glyph glyph-name="ecaron" unicode="&#x11b;" horiz-adv-x="1167" 
d="M596 117q145 0 278 65q36 17 44 -18l16 -76q6 -22 -29 -37q-161 -76 -323 -76q-221 0 -348 116q-125 115 -125 323q0 61 12 133q45 257 194 397q150 141 373 141q194 0 298 -104q106 -106 106 -279q0 -41 -11 -110l-16 -103q-6 -32 -41 -32h-756q-2 -20 -2 -41
q0 -135 88 -217t242 -82zM680 944q-307 0 -387 -350h631l2 10q8 43 8 90q0 117 -64 184q-63 66 -190 66zM741 1307l164 112q27 21 47 21h86q16 0 18 -12q1 -9 -12 -21l-227 -186q-25 -19 -49 -19h-84q-28 0 -41 19l-162 186q-10 10 -6 21q4 12 23 12h75q22 0 43 -21z" />
    <glyph glyph-name="Gcircumflex" unicode="&#x11c;" horiz-adv-x="1445" 
d="M885 831h434q35 0 29 -32l-115 -652q-7 -43 -51 -67q-184 -100 -437 -100q-292 0 -446 134t-154 402q0 88 19 205q129 739 815 739q119 0 225 -25q110 -26 166 -63q31 -18 19 -39l-50 -88q-23 -35 -51 -18q-126 71 -309 71q-284 0 -433 -139q-151 -141 -202 -438
q-18 -105 -18 -186q0 -201 108 -297q109 -97 330 -97q175 0 307 62l84 473h-297q-37 0 -31 33l15 90q6 32 43 32zM1104 1567l-115 102l-153 -102q-34 -23 -52 -23h-86q-18 0 -18 12q0 13 14 23l219 178q22 19 48 19h83q24 0 43 -19l154 -178q12 -10 7 -23q-4 -12 -23 -12
h-78q-15 0 -43 23z" />
    <glyph glyph-name="gcircumflex" unicode="&#x11d;" horiz-adv-x="1220" 
d="M915 600q11 64 11 100q0 244 -260 244q-310 0 -371 -358q-10 -50 -10 -115q0 -242 254 -242q143 0 245 96q101 95 131 275zM1155 1028l-154 -876q-33 -194 -171 -298q-139 -104 -355 -104q-245 0 -369 62q-24 12 -14 32l45 84q18 33 43 21q129 -53 297 -53q145 0 243 69
q97 69 120 197l20 117q-115 -187 -354 -187q-174 0 -283 92q-108 92 -108 277q0 57 12 125q45 250 180 375q134 124 332 124q117 0 212 -50q96 -50 120 -130l22 125q6 31 39 31h98q31 0 25 -33zM872 1223l-124 112l-164 -112q-27 -21 -49 -21h-84q-19 0 -19 11t12 22
l228 186q22 19 47 19h84q24 0 43 -19l162 -186q10 -10 5 -22q-4 -11 -22 -11h-78q-20 0 -41 21z" />
    <glyph glyph-name="Gbreve" unicode="&#x11e;" horiz-adv-x="1445" 
d="M885 831h434q35 0 29 -32l-115 -652q-7 -43 -51 -67q-184 -100 -437 -100q-292 0 -446 134t-154 402q0 88 19 205q129 739 815 739q119 0 225 -25q110 -26 166 -63q31 -18 19 -39l-50 -88q-23 -35 -51 -18q-126 71 -309 71q-284 0 -433 -139q-151 -141 -202 -438
q-18 -105 -18 -186q0 -201 108 -297q109 -97 330 -97q175 0 307 62l84 473h-297q-37 0 -31 33l15 90q6 32 43 32zM983 1544q-139 0 -204 63t-50 152q6 25 29 25h57q27 0 27 -23q6 -53 37 -81q30 -27 112 -27q83 0 122 26q42 28 65 82q11 23 32 23h58q26 0 20 -25
q-18 -94 -93 -154q-76 -61 -212 -61z" />
    <glyph glyph-name="gbreve" unicode="&#x11f;" horiz-adv-x="1220" 
d="M915 600q11 64 11 100q0 244 -260 244q-310 0 -371 -358q-10 -50 -10 -115q0 -242 254 -242q143 0 245 96q101 95 131 275zM1155 1028l-154 -876q-33 -194 -171 -298q-139 -104 -355 -104q-245 0 -369 62q-24 12 -14 32l45 84q18 33 43 21q129 -53 297 -53q145 0 243 69
q97 69 120 197l20 117q-115 -187 -354 -187q-174 0 -283 92q-108 92 -108 277q0 57 12 125q45 250 180 375q134 124 332 124q117 0 212 -50q96 -50 120 -130l22 125q6 31 39 31h98q31 0 25 -33zM735 1196q-143 0 -207 67t-49 158q2 25 29 25h57q23 0 25 -23q5 -59 34 -88
q30 -30 115 -30q88 0 124 29q39 31 65 89q8 23 33 23h57q22 0 20 -25q-45 -225 -303 -225z" />
    <glyph glyph-name="Gdotaccent" unicode="&#x120;" horiz-adv-x="1445" 
d="M885 831h434q35 0 29 -32l-115 -652q-7 -43 -51 -67q-184 -100 -437 -100q-292 0 -446 134t-154 402q0 88 19 205q129 739 815 739q119 0 225 -25q110 -26 166 -63q31 -18 19 -39l-50 -88q-23 -35 -51 -18q-126 71 -309 71q-284 0 -433 -139q-151 -141 -202 -438
q-18 -105 -18 -186q0 -201 108 -297q109 -97 330 -97q175 0 307 62l84 473h-297q-37 0 -31 33l15 90q6 32 43 32zM1126 1735l-28 -158q-6 -33 -37 -33h-119q-33 0 -27 33l29 158q6 30 37 30h119q32 0 26 -30z" />
    <glyph glyph-name="gdotaccent" unicode="&#x121;" horiz-adv-x="1220" 
d="M915 600q11 64 11 100q0 244 -260 244q-310 0 -371 -358q-10 -50 -10 -115q0 -242 254 -242q143 0 245 96q101 95 131 275zM1155 1028l-154 -876q-33 -194 -171 -298q-139 -104 -355 -104q-245 0 -369 62q-24 12 -14 32l45 84q18 33 43 21q129 -53 297 -53q145 0 243 69
q97 69 120 197l20 117q-115 -187 -354 -187q-174 0 -283 92q-108 92 -108 277q0 57 12 125q45 250 180 375q134 124 332 124q117 0 212 -50q96 -50 120 -130l22 125q6 31 39 31h98q31 0 25 -33zM862 1391l-26 -158q-6 -31 -37 -31h-119q-33 0 -27 31l27 158q6 32 39 32h119
q30 0 24 -32z" />
    <glyph glyph-name="Gcommaaccent" unicode="&#x122;" horiz-adv-x="1445" 
d="M885 831h434q35 0 29 -32l-115 -652q-7 -43 -51 -67q-184 -100 -437 -100q-292 0 -446 134t-154 402q0 88 19 205q129 739 815 739q119 0 225 -25q110 -26 166 -63q31 -18 19 -39l-50 -88q-23 -35 -51 -18q-126 71 -309 71q-284 0 -433 -139q-151 -141 -202 -438
q-18 -105 -18 -186q0 -201 108 -297q109 -97 330 -97q175 0 307 62l84 473h-297q-37 0 -31 33l15 90q6 32 43 32zM809 -299l-109 -176q-17 -25 -36 -25h-23q-23 0 -12 29l76 172h-54q-28 0 -26 31l24 139q6 31 37 31h133q33 0 27 -31l-23 -129q-1 -22 -14 -41z" />
    <glyph glyph-name="gcommaaccent" unicode="&#x123;" horiz-adv-x="1220" 
d="M915 600q11 64 11 100q0 244 -260 244q-310 0 -371 -358q-10 -50 -10 -115q0 -242 254 -242q143 0 245 96q101 95 131 275zM1155 1028l-154 -876q-33 -194 -171 -298q-139 -104 -355 -104q-245 0 -369 62q-24 12 -14 32l45 84q18 33 43 21q129 -53 297 -53q145 0 243 69
q97 69 120 197l20 117q-115 -187 -354 -187q-174 0 -283 92q-108 92 -108 277q0 57 12 125q45 250 180 375q134 124 332 124q117 0 212 -50q96 -50 120 -130l22 125q6 31 39 31h98q31 0 25 -33zM821 1384l97 175q16 22 34 22h25q19 0 12 -27l-67 -168h49q27 0 26 -30
l-22 -127q-6 -31 -37 -31h-125q-33 0 -27 31l21 117q1 14 14 38z" />
    <glyph glyph-name="Hcircumflex" unicode="&#x124;" horiz-adv-x="1452" 
d="M1016 35l110 618h-735l-110 -618q-6 -35 -39 -35h-107q-37 0 -31 35l242 1370q6 33 41 33h107q34 0 28 -33l-102 -588h735l102 588q6 33 41 33h109q33 0 27 -33l-242 -1370q-6 -35 -37 -35h-108q-37 0 -31 35zM1051 1567l-115 102l-154 -102q-35 -23 -51 -23h-86
q-18 0 -18 12q0 13 14 23l219 178q22 19 47 19h84q24 0 43 -19l154 -178q12 -10 7 -23q-5 -12 -24 -12h-77q-15 0 -43 23z" />
    <glyph glyph-name="hcircumflex" unicode="&#x125;" horiz-adv-x="1236" 
d="M1126 700l-118 -667q-6 -33 -35 -33h-103q-32 0 -26 33l114 643q7 44 7 72q0 184 -226 184q-148 0 -251 -86q-102 -86 -126 -219l-104 -596q-6 -31 -37 -31h-100q-35 0 -29 33l244 1374q6 31 37 31h100q35 0 29 -31l-90 -512q121 190 381 190q166 0 254 -79t88 -220
q0 -37 -9 -86zM946 1567l-115 102l-153 -102q-35 -23 -51 -23h-86q-19 0 -19 12t15 23l219 178q22 19 47 19h84q24 0 43 -19l153 -178q13 -11 8 -23t-24 -12h-78q-15 0 -43 23z" />
    <glyph glyph-name="Hbar" unicode="&#x126;" horiz-adv-x="1413" 
d="M1016 35l110 618h-735l-110 -618q-6 -35 -39 -35h-107q-37 0 -31 35l189 1067h-107q-30 0 -24 31l8 43q6 28 35 28h106l35 201q6 33 41 33h107q34 0 28 -33l-35 -201h736l34 201q6 33 41 33h109q33 0 27 -35l-35 -199h106q33 0 27 -28l-8 -43q-6 -31 -37 -31h-107
l-188 -1067q-6 -35 -37 -35h-108q-37 0 -31 35zM420 817h735l49 285h-735z" />
    <glyph glyph-name="hbar" unicode="&#x127;" horiz-adv-x="1236" 
d="M1126 700l-118 -667q-6 -33 -35 -33h-103q-32 0 -26 33l114 643q7 44 7 72q0 184 -226 184q-148 0 -251 -86q-102 -86 -126 -219l-104 -594q-6 -33 -37 -33h-100q-35 0 -29 33l207 1173h-106q-29 0 -23 29l8 43q5 31 33 31h106l19 98q6 31 37 31h100q35 0 29 -31l-19 -98
h316q32 0 26 -31l-8 -43q-6 -29 -37 -29h-315l-53 -311q121 190 381 190q166 0 254 -79t88 -220q0 -37 -9 -86z" />
    <glyph glyph-name="Itilde" unicode="&#x128;" horiz-adv-x="569" 
d="M119 35l241 1370q6 33 39 33h109q35 0 29 -33l-242 -1370q-6 -35 -39 -35h-109q-34 0 -28 35zM829 1683q-24 -149 -170 -149q-49 0 -178 41l-45 14q-96 29 -125 29q-43 0 -51 -31l-6 -20q-6 -27 -41 -27h-47q-29 0 -21 41q11 66 53 107q43 41 117 41q56 0 179 -43l51 -19
q81 -31 114 -31q42 0 54 43l6 21q7 26 43 26h45q29 0 22 -43z" />
    <glyph glyph-name="itilde" unicode="&#x129;" horiz-adv-x="491" 
d="M426 1028l-176 -995q-6 -33 -35 -33h-100q-35 0 -29 33l176 995q6 33 39 33h100q31 0 25 -33zM711 1341q-27 -139 -154 -139q-75 0 -174 39l-41 16q-68 27 -100 27q-40 0 -52 -33l-8 -20q-11 -25 -41 -25h-47q-28 0 -20 39q23 137 153 137q58 0 172 -41l47 -16
q77 -27 101 -27q36 0 51 41l4 17q7 26 41 26h49q27 0 19 -41z" />
    <glyph glyph-name="Imacron" unicode="&#x12a;" horiz-adv-x="569" 
d="M119 35l241 1370q6 33 39 33h109q35 0 29 -33l-242 -1370q-6 -35 -39 -35h-109q-34 0 -28 35zM768 1575h-584q-30 0 -24 31l10 61q6 31 37 31h584q32 0 26 -31l-10 -61q-6 -31 -39 -31z" />
    <glyph glyph-name="imacron" unicode="&#x12b;" horiz-adv-x="491" 
d="M426 1028l-176 -995q-6 -33 -35 -33h-100q-35 0 -29 33l176 995q6 33 39 33h100q31 0 25 -33zM670 1214h-584q-31 0 -25 31l9 53q6 31 36 31h584q31 0 25 -31l-8 -53q-6 -31 -37 -31z" />
    <glyph glyph-name="Ibreve" unicode="&#x12c;" horiz-adv-x="569" 
d="M119 35l241 1370q6 33 39 33h109q35 0 29 -33l-242 -1370q-6 -35 -39 -35h-109q-34 0 -28 35zM483 1544q-139 0 -203 63q-66 64 -51 152q6 25 29 25h57q27 0 27 -23q6 -53 37 -81q30 -27 113 -27q82 0 121 26q42 28 65 82q11 23 33 23h57q26 0 20 -25q-18 -94 -93 -154
q-76 -61 -212 -61z" />
    <glyph glyph-name="ibreve" unicode="&#x12d;" horiz-adv-x="491" 
d="M426 1028l-176 -995q-6 -33 -35 -33h-100q-35 0 -29 33l176 995q6 33 39 33h100q31 0 25 -33zM391 1196q-143 0 -207 67t-49 158q2 25 29 25h57q23 0 25 -23q5 -59 34 -88q30 -30 115 -30q88 0 124 29q39 31 65 89q8 23 32 23h58q22 0 20 -25q-45 -225 -303 -225z" />
    <glyph glyph-name="Iogonek" unicode="&#x12e;" horiz-adv-x="569" 
d="M119 35l241 1370q6 33 39 33h109q35 0 29 -33l-242 -1370q-6 -35 -39 -35h-6q-170 -68 -170 -168q0 -53 94 -53q30 0 74 12q18 5 18 -8l4 -62q0 -12 -16 -24q-54 -31 -121 -31q-83 0 -132 33q-50 33 -50 96q0 70 52 122q53 53 132 83q-22 6 -16 35z" />
    <glyph glyph-name="iogonek" unicode="&#x12f;" horiz-adv-x="491" 
d="M426 1028l-176 -995q-6 -33 -35 -33h-22q-160 -63 -160 -156q0 -49 92 -49q33 0 72 10q20 4 20 -10l2 -55q0 -21 -14 -25q-48 -26 -123 -26q-72 0 -121 30t-49 86q0 68 51 119q52 52 129 80q-12 6 -6 29l176 995q6 33 37 33h102q31 0 25 -33zM492 1397l-31 -166
q-1 -33 -35 -33h-102q-28 0 -27 33l31 166q6 33 37 33h102q31 0 25 -33z" />
    <glyph glyph-name="Idotaccent" unicode="&#x130;" horiz-adv-x="569" 
d="M119 35l241 1370q6 33 39 33h109q35 0 29 -33l-242 -1370q-6 -35 -39 -35h-109q-34 0 -28 35zM596 1735l-29 -158q-6 -33 -37 -33h-118q-33 0 -27 33l29 158q6 30 37 30h118q33 0 27 -30z" />
    <glyph glyph-name="dotlessi" unicode="&#x131;" horiz-adv-x="491" 
d="M426 1028l-176 -995q-6 -33 -35 -33h-100q-35 0 -29 33l176 995q6 33 39 33h100q31 0 25 -33z" />
    <glyph glyph-name="IJ" unicode="&#x132;" horiz-adv-x="1505" 
d="M119 35l241 1370q6 33 39 33h109q35 0 29 -33l-242 -1370q-6 -35 -39 -35h-109q-34 0 -28 35zM1149 453l168 952q6 33 39 33h108q33 0 27 -33l-170 -969q-80 -461 -487 -461q-89 0 -178 23q-88 23 -134 51q-33 23 -18 47l49 88q19 31 43 19q96 -66 238 -66q132 0 209 78
q78 79 106 238z" />
    <glyph glyph-name="ij" unicode="&#x133;" horiz-adv-x="1005" 
d="M426 1028l-176 -995q-6 -33 -35 -33h-102q-33 0 -27 33l176 995q6 33 37 33h102q31 0 25 -33zM492 1397l-31 -166q-1 -33 -35 -33h-102q-28 0 -27 33l31 166q6 33 37 33h102q31 0 25 -33zM643 281l131 747q6 33 39 33h100q33 0 27 -33l-135 -764q-27 -149 -87 -215
q-59 -65 -183 -65q-95 0 -146 16q-26 6 -20 33l16 84q6 26 37 24q49 -10 88 -10q55 0 87 35q31 34 46 115zM1006 1397l-31 -166q-1 -33 -37 -33h-100q-30 0 -29 33l31 166q6 33 39 33h100q33 0 27 -33z" />
    <glyph glyph-name="Jcircumflex" unicode="&#x134;" horiz-adv-x="976" 
d="M629 453l168 952q6 33 39 33h108q33 0 27 -33l-170 -969q-80 -461 -488 -461q-88 0 -177 23q-88 23 -134 51q-33 23 -18 47l49 88q19 31 43 19q96 -66 237 -66q133 0 210 78q78 79 106 238zM782 1567l-114 102l-154 -102q-35 -23 -51 -23h-86q-19 0 -19 12t15 23l219 178
q22 19 47 19h84q24 0 43 -19l154 -178q12 -10 7 -23q-5 -12 -24 -12h-78q-15 0 -43 23z" />
    <glyph glyph-name="jcircumflex" unicode="&#x135;" horiz-adv-x="518" 
d="M115 61l170 967q6 33 37 33h102q31 0 25 -33l-175 -983q-24 -146 -85 -213q-59 -65 -185 -65q-99 0 -141 14q-27 6 -21 33l17 86q6 26 37 24q43 -8 86 -8q109 0 133 145zM551 1223l-125 112l-164 -112q-27 -21 -49 -21h-84q-18 0 -18 11t12 22l227 186q22 19 47 19h84
q24 0 43 -19l162 -186q10 -10 5 -22q-4 -11 -21 -11h-78q-20 0 -41 21z" />
    <glyph glyph-name="Kcommaaccent" unicode="&#x136;" horiz-adv-x="1261" 
d="M428 874l680 539q31 25 57 25h164q20 0 25 -16q4 -15 -11 -27l-792 -621l565 -729q12 -15 5 -30t-27 -15h-131q-27 0 -50 31l-514 661l-118 -657q-6 -35 -39 -35h-107q-37 0 -31 35l242 1370q6 33 41 33h107q34 0 28 -33zM639 -299l-109 -176q-16 -25 -36 -25h-23
q-23 0 -12 29l76 172h-54q-31 0 -26 31l24 139q6 31 37 31h133q33 0 27 -31l-23 -129q-1 -22 -14 -41z" />
    <glyph glyph-name="kcommaaccent" unicode="&#x137;" horiz-adv-x="1028" 
d="M895 0h-137q-25 0 -43 23l-377 471l-80 -461q-6 -33 -37 -33h-100q-35 0 -29 33l244 1374q6 31 37 31h100q35 0 29 -31l-125 -696l477 336q17 14 45 14h166q18 0 19 -14q1 -15 -17 -27l-604 -424l455 -557q10 -11 2 -26q-7 -13 -25 -13zM528 -285l-96 -174
q-16 -22 -35 -22h-24q-20 0 -13 26l68 168h-49q-32 0 -27 31l23 127q6 31 37 31h125q32 0 26 -31l-20 -117q-1 -13 -15 -39z" />
    <glyph glyph-name="kgreenlandic" unicode="&#x138;" horiz-adv-x="1017" 
d="M887 0h-137q-25 0 -43 23l-377 471l-80 -461q-6 -33 -37 -33h-100q-35 0 -29 33l176 997q6 31 37 31h100q35 0 29 -31l-57 -319l477 336q17 14 45 14h166q18 0 19 -13t-17 -28l-604 -424l454 -557q10 -10 2 -25q-7 -14 -24 -14z" />
    <glyph glyph-name="Lacute" unicode="&#x139;" horiz-adv-x="1101" 
d="M545 1405l-217 -1241h620q35 0 29 -31l-19 -98q-6 -35 -38 -35h-762q-37 0 -31 35l242 1370q6 33 41 33h106q35 0 29 -33zM449 1575l143 178q22 27 51 27h148q15 0 17 -14q1 -12 -11 -23l-222 -176q-23 -23 -53 -23h-61q-15 0 -18 10q-3 9 6 21z" />
    <glyph glyph-name="lacute" unicode="&#x13a;" horiz-adv-x="491" 
d="M494 1407l-244 -1374q-6 -33 -35 -33h-102q-33 0 -27 33l244 1374q6 31 35 31h102q33 0 27 -31zM381 1575l143 178q22 27 51 27h148q15 0 17 -14q1 -12 -11 -23l-221 -176q-23 -23 -53 -23h-62q-14 0 -17 10t5 21z" />
    <glyph glyph-name="Lcommaaccent" unicode="&#x13b;" horiz-adv-x="1101" 
d="M522 1405l-217 -1241h621q34 0 28 -31l-18 -98q-6 -35 -39 -35h-762q-37 0 -31 35l242 1370q6 33 41 33h107q34 0 28 -33zM508 -299l-109 -176q-16 -25 -37 -25h-22q-23 0 -12 29l75 172h-53q-31 0 -26 31l24 139q6 31 37 31h133q33 0 27 -31l-23 -129q-1 -22 -14 -41z
" />
    <glyph glyph-name="lcommaaccent" unicode="&#x13c;" horiz-adv-x="491" 
d="M498 1407l-244 -1374q-6 -33 -35 -33h-102q-33 0 -27 33l244 1374q6 31 35 31h102q33 0 27 -31zM199 -285l-97 -174q-16 -22 -34 -22h-25q-19 0 -12 26l67 168h-49q-28 0 -26 31l22 127q6 31 37 31h125q32 0 26 -31l-20 -117q-1 -15 -14 -39z" />
    <glyph glyph-name="Lcaron" unicode="&#x13d;" horiz-adv-x="1101" 
d="M522 1405l-217 -1241h621q34 0 28 -31l-18 -98q-6 -35 -39 -35h-762q-37 0 -31 35l242 1370q6 33 41 33h107q34 0 28 -33zM942 1221l-117 -203q-11 -23 -34 -23h-43q-25 0 -13 29l90 197h-47q-32 0 -26 32l26 154q6 33 39 33h139q33 0 27 -33l-25 -143q-2 -21 -16 -43z
" />
    <glyph glyph-name="lcaron" unicode="&#x13e;" horiz-adv-x="684" 
d="M498 1407l-244 -1374q-6 -33 -35 -33h-102q-33 0 -27 33l244 1374q6 31 35 31h102q33 0 27 -31zM811 1221l-117 -203q-11 -23 -35 -23h-43q-24 0 -12 29l90 197h-47q-32 0 -26 32l26 154q6 33 39 33h139q33 0 27 -33l-25 -143q-2 -21 -16 -43z" />
    <glyph glyph-name="Ldot" unicode="&#x13f;" horiz-adv-x="1118" 
d="M522 1405l-217 -1241h621q34 0 28 -31l-18 -98q-6 -35 -39 -35h-762q-37 0 -31 35l242 1370q6 33 41 33h107q34 0 28 -33zM778 600l29 156q6 32 39 32h131q33 0 27 -32l-29 -156q-6 -33 -35 -33h-135q-33 0 -27 33z" />
    <glyph glyph-name="ldot" unicode="&#x140;" horiz-adv-x="641" 
d="M492 1407l-244 -1374q-6 -33 -35 -33h-102q-33 0 -27 33l244 1374q6 31 34 31h103q33 0 27 -31zM467 461l29 155q6 33 39 33h131q32 0 26 -33l-28 -155q-6 -33 -35 -33h-135q-33 0 -27 33z" />
    <glyph glyph-name="Lslash" unicode="&#x141;" horiz-adv-x="1105" 
d="M526 1405l-110 -633l286 154q32 16 43 -11l17 -38q7 -26 -21 -41l-346 -185l-86 -487h621q34 0 28 -33l-18 -96q-6 -35 -39 -35h-762q-36 0 -30 35l92 512l-47 -23q-30 -15 -41 13l-17 36q-10 24 19 41l106 58l129 733q6 33 41 33h107q34 0 28 -33z" />
    <glyph glyph-name="lslash" unicode="&#x142;" horiz-adv-x="499" 
d="M498 1407l-103 -571l23 12q31 17 43 -10l14 -39q12 -24 -18 -41l-82 -45l-121 -680q-6 -33 -35 -33h-102q-33 0 -27 33l105 583l-23 -10q-28 -15 -41 15l-16 36q-10 26 20 41l80 43l119 666q6 31 35 31h102q33 0 27 -31z" />
    <glyph glyph-name="Nacute" unicode="&#x143;" horiz-adv-x="1454" 
d="M1438 1407l-244 -1372q-6 -35 -39 -35h-104q-31 0 -43 27l-535 1118l-197 -1110q-6 -35 -36 -35h-105q-37 0 -31 35l242 1370q6 33 41 33h102q35 0 46 -25l534 -1120l195 1112q6 33 39 33h104q36 0 31 -31zM860 1575l144 178q22 27 51 27h147q16 0 18 -14q1 -11 -12 -23
l-221 -176q-23 -23 -53 -23h-62q-14 0 -17 10t5 21z" />
    <glyph glyph-name="nacute" unicode="&#x144;" horiz-adv-x="1218" 
d="M1108 700l-119 -667q-6 -33 -37 -33h-100q-35 0 -29 33l115 645q6 39 6 74q0 180 -221 180q-147 0 -248 -83q-100 -82 -123 -220l-106 -596q-6 -33 -37 -33h-100q-33 0 -27 33l176 995q6 33 37 33h98q33 0 27 -31l-21 -133q130 188 379 188q166 0 251 -78q87 -79 87 -219
q0 -45 -8 -88zM625 1233l143 180q23 25 49 25h148q16 0 18 -14t-12 -23l-221 -178q-22 -21 -52 -21h-61q-15 0 -19 10t7 21z" />
    <glyph glyph-name="Ncommaaccent" unicode="&#x145;" horiz-adv-x="1454" 
d="M1438 1407l-244 -1372q-6 -35 -39 -35h-104q-31 0 -43 27l-535 1118l-197 -1110q-6 -35 -36 -35h-105q-37 0 -31 35l242 1370q6 33 41 33h102q35 0 46 -25l534 -1120l195 1112q6 33 39 33h104q36 0 31 -31zM678 -299l-109 -176q-17 -25 -37 -25h-22q-23 0 -12 29l75 172
h-53q-28 0 -26 31l24 139q6 31 37 31h133q33 0 27 -31l-23 -129q-1 -22 -14 -41z" />
    <glyph glyph-name="ncommaaccent" unicode="&#x146;" horiz-adv-x="1218" 
d="M1108 700l-119 -667q-6 -33 -37 -33h-100q-35 0 -29 33l115 645q6 39 6 74q0 180 -221 180q-147 0 -248 -83q-100 -82 -123 -220l-106 -596q-6 -33 -37 -33h-100q-33 0 -27 33l176 995q6 33 37 33h98q33 0 27 -31l-21 -133q130 188 379 188q166 0 251 -78q87 -79 87 -219
q0 -45 -8 -88zM578 -285l-97 -174q-16 -22 -35 -22h-24q-19 0 -12 26l67 168h-49q-32 0 -27 31l23 127q6 31 37 31h125q32 0 26 -31l-20 -117q-1 -15 -14 -39z" />
    <glyph glyph-name="Ncaron" unicode="&#x147;" horiz-adv-x="1454" 
d="M1438 1407l-244 -1372q-6 -35 -39 -35h-104q-31 0 -43 27l-535 1118l-197 -1110q-6 -35 -36 -35h-105q-37 0 -31 35l242 1370q6 33 41 33h102q35 0 46 -25l534 -1120l195 1112q6 33 39 33h104q36 0 31 -31zM928 1651l147 102q35 23 49 23h86q20 0 21 -12q1 -11 -10 -21
l-220 -180q-24 -19 -49 -19h-84q-22 0 -41 19l-153 180q-9 9 -5 21q5 12 23 12h78q25 0 41 -21z" />
    <glyph glyph-name="ncaron" unicode="&#x148;" horiz-adv-x="1218" 
d="M1108 700l-119 -667q-6 -33 -37 -33h-100q-35 0 -29 33l115 645q6 39 6 74q0 180 -221 180q-147 0 -248 -83q-100 -82 -123 -220l-106 -596q-6 -33 -37 -33h-100q-33 0 -27 33l176 995q6 33 37 33h98q33 0 27 -31l-21 -133q130 188 379 188q166 0 251 -78q87 -79 87 -219
q0 -45 -8 -88zM737 1307l164 112q27 21 47 21h86q16 0 18 -12q1 -9 -12 -21l-227 -186q-25 -19 -49 -19h-84q-28 0 -41 19l-162 186q-10 10 -6 21q5 12 23 12h75q22 0 43 -21z" />
    <glyph glyph-name="napostrophe" unicode="&#x149;" horiz-adv-x="1417" 
d="M1307 700l-119 -667q-6 -33 -37 -33h-100q-35 0 -29 33l115 645q6 39 6 74q0 180 -221 180q-147 0 -248 -83q-100 -82 -123 -220l-107 -596q-6 -33 -36 -33h-101q-32 0 -26 33l176 995q6 33 37 33h98q32 0 26 -31l-20 -133q130 188 379 188q166 0 251 -78q87 -79 87 -219
q0 -45 -8 -88zM342 1247l-117 -203q-10 -22 -35 -22h-43q-24 0 -12 29l90 196h-47q-32 0 -26 33l26 154q6 32 39 32h139q33 0 27 -32l-25 -144q-2 -21 -16 -43z" />
    <glyph glyph-name="Eng" unicode="&#x14a;" horiz-adv-x="1454" 
d="M1436 1405l-246 -1401q-21 -116 -92 -176q-71 -61 -178 -61q-90 0 -152 18q-30 8 -18 31l41 86q12 34 40 22q33 -12 78 -12q95 0 105 84l-541 1149l-197 -1110q-6 -35 -36 -35h-105q-37 0 -31 35l242 1370q6 33 41 33h111q34 0 45 -25l526 -1120l195 1112q6 33 39 33h104
q35 0 29 -33z" />
    <glyph glyph-name="eng" unicode="&#x14b;" horiz-adv-x="1218" 
d="M829 61l109 615q6 41 6 74q0 182 -221 182q-147 0 -248 -83q-100 -82 -123 -220l-106 -596q-6 -33 -37 -33h-100q-33 0 -27 33l176 995q6 33 37 33h100q33 0 27 -31l-23 -133q130 188 396 188q161 0 240 -75q81 -76 81 -213q0 -47 -8 -97l-117 -655q-24 -143 -89 -211
q-64 -67 -185 -67q-76 0 -139 18q-25 6 -17 31l14 84q6 30 37 24q39 -10 93 -10q100 0 124 147z" />
    <glyph glyph-name="Omacron" unicode="&#x14c;" horiz-adv-x="1466" 
d="M891 1460q251 0 388 -137q136 -136 136 -395q0 -92 -20 -209q-63 -361 -248 -550t-481 -189q-254 0 -390 138q-137 139 -137 396q0 88 19 205q63 359 250 551q186 190 483 190zM674 139q218 0 355 149q135 147 185 431q19 111 19 192q0 389 -354 389q-220 0 -356 -149
q-135 -149 -185 -432q-19 -111 -19 -193q0 -387 355 -387zM1219 1575h-584q-31 0 -25 31l11 61q6 31 36 31h584q33 0 27 -31l-11 -61q-6 -31 -38 -31z" />
    <glyph glyph-name="omacron" unicode="&#x14d;" horiz-adv-x="1224" 
d="M543 -20q233 0 385 143q154 145 200 409q13 80 13 136q0 201 -117 309t-319 108q-236 0 -388 -143q-153 -144 -200 -410q-13 -80 -13 -135q0 -201 117 -309t322 -108zM551 125q-133 0 -205 72t-72 213q0 49 13 122q38 206 141 306q105 102 266 102q133 0 205 -72t72 -213
q0 -50 -13 -123q-35 -203 -141 -305q-107 -102 -266 -102zM1034 1214h-583q-31 0 -25 31l8 53q6 31 37 31h584q30 0 24 -31l-8 -53q-6 -31 -37 -31z" />
    <glyph glyph-name="Obreve" unicode="&#x14e;" horiz-adv-x="1466" 
d="M891 1460q251 0 388 -137q136 -136 136 -395q0 -92 -20 -209q-63 -361 -248 -550t-481 -189q-254 0 -390 138q-137 139 -137 396q0 88 19 205q63 359 250 551q186 190 483 190zM674 139q218 0 355 149q135 147 185 431q19 111 19 192q0 389 -354 389q-220 0 -356 -149
q-135 -149 -185 -432q-19 -111 -19 -193q0 -387 355 -387zM934 1544q-140 0 -204 63q-65 63 -50 152q6 25 29 25h57q27 0 27 -23q6 -54 36 -81t113 -27t122 26q40 27 64 82q11 23 33 23h58q26 0 20 -25q-18 -94 -93 -154q-76 -61 -212 -61z" />
    <glyph glyph-name="obreve" unicode="&#x14f;" horiz-adv-x="1224" 
d="M543 -20q-205 0 -322 108t-117 309q0 55 13 135q47 266 200 410q152 143 388 143q202 0 319 -108t117 -309q0 -56 -13 -136q-46 -264 -200 -409q-152 -143 -385 -143zM551 125q159 0 266 102q106 102 141 305q13 73 13 123q0 141 -72 213t-205 72q-161 0 -266 -102
q-103 -100 -141 -306q-13 -73 -13 -122q0 -141 72 -213t205 -72zM756 1196q-143 0 -207 67t-49 158q2 25 28 25h58q22 0 24 -23q5 -59 34 -88q30 -30 116 -30q88 0 124 29q37 30 64 89q8 23 33 23h57q23 0 21 -25q-45 -225 -303 -225z" />
    <glyph glyph-name="Ohungarumlaut" unicode="&#x150;" horiz-adv-x="1466" 
d="M891 1460q251 0 388 -137q136 -136 136 -395q0 -92 -20 -209q-63 -361 -248 -550t-481 -189q-254 0 -390 138q-137 139 -137 396q0 88 19 205q63 359 250 551q186 190 483 190zM674 139q218 0 355 149q135 147 185 431q19 111 19 192q0 389 -354 389q-220 0 -356 -149
q-135 -149 -185 -432q-19 -111 -19 -193q0 -387 355 -387zM698 1575l133 182q18 27 50 27h120q15 0 17 -15q1 -14 -10 -24l-183 -178q-21 -23 -53 -23h-63q-33 0 -11 31zM1034 1575l133 182q17 27 50 27h118q17 0 20 -15q3 -14 -9 -24l-183 -178q-23 -23 -55 -23h-61
q-15 0 -18 10t5 21z" />
    <glyph glyph-name="ohungarumlaut" unicode="&#x151;" horiz-adv-x="1224" 
d="M543 -20q233 0 385 143q154 145 200 409q13 80 13 136q0 201 -117 309t-319 108q-236 0 -388 -143q-153 -144 -200 -410q-13 -80 -13 -135q0 -201 117 -309t322 -108zM551 125q-133 0 -205 72t-72 213q0 49 13 122q38 206 141 306q105 102 266 102q133 0 205 -72t72 -213
q0 -50 -13 -123q-35 -203 -141 -305q-107 -102 -266 -102zM514 1233l133 180q17 25 47 25h115q14 0 17 -13q3 -12 -9 -24l-182 -178q-21 -21 -51 -21h-58q-14 0 -17 10t5 21zM846 1233l131 180q19 25 47 25h115q16 0 18 -14q1 -14 -8 -23l-182 -178q-21 -21 -54 -21h-55
q-14 0 -17 10t5 21z" />
    <glyph glyph-name="OE" unicode="&#x152;" horiz-adv-x="1904" 
d="M1767 657h-555l-86 -493h584q35 0 29 -33l-19 -96q-6 -35 -39 -35h-856q-302 0 -457 116t-155 386q0 108 20 217q69 393 264 557q193 162 545 162h885q35 0 29 -33l-17 -96q-6 -35 -41 -35h-577l-80 -461h555q33 0 27 -35l-17 -86q-6 -35 -39 -35zM1151 1274h-119
q-269 0 -417 -119q-145 -117 -201 -436q-19 -117 -19 -195q0 -200 108 -280q109 -80 331 -80h122z" />
    <glyph glyph-name="oe" unicode="&#x153;" horiz-adv-x="1939" 
d="M1378 117q138 0 271 63q35 19 43 -16l18 -80q6 -21 -22 -33q-161 -76 -324 -76q-149 0 -259 65q-109 64 -144 173q-152 -233 -431 -233q-194 0 -310 111t-116 312q0 56 13 129q47 265 198 409q152 144 371 144q142 0 242 -59q102 -60 135 -166q147 225 410 225
q181 0 286 -105t105 -273q0 -45 -9 -97l-18 -102q-6 -31 -39 -31h-725q-4 -33 -4 -53q0 -139 85 -223q86 -84 224 -84zM535 125q147 0 250 104q105 106 139 303q12 68 12 125q0 138 -68 211q-67 72 -190 72q-151 0 -252 -104t-139 -304q-13 -73 -13 -122q0 -141 69 -213
t192 -72zM1466 944q-132 0 -233 -87q-99 -86 -137 -245h600l2 11q8 42 8 84q0 109 -58 173t-182 64z" />
    <glyph glyph-name="Racute" unicode="&#x154;" horiz-adv-x="1335" 
d="M395 678h269q224 0 330 71q105 71 132 226q9 68 9 80q0 116 -86 169q-85 52 -277 52h-272zM387 1438h397q531 0 531 -357q0 -53 -10 -112q-68 -388 -492 -434l330 -490q11 -15 3 -30t-30 -15h-112q-32 0 -48 27l-327 489h-262l-86 -481q-6 -35 -39 -35h-107q-37 0 -31 35
l242 1370q6 33 41 33zM784 1575l144 178q22 27 51 27h147q16 0 18 -14q1 -12 -11 -23l-222 -176q-23 -23 -53 -23h-61q-15 0 -18 10t5 21z" />
    <glyph glyph-name="racute" unicode="&#x155;" horiz-adv-x="765" 
d="M299 1061h100q33 0 27 -31l-35 -201q49 88 152 162t235 74q26 0 21 -25l-23 -129q-6 -26 -31 -26h-3t-4 0.5t-5.5 1t-6.5 0.5q-20 2 -30 2q-122 0 -230 -119q-108 -118 -132 -266l-84 -471q-6 -33 -37 -33h-100q-35 0 -29 33l176 995q6 33 39 33zM418 1233l143 180
q22 25 49 25h148q16 0 18 -14t-12 -23l-221 -178q-23 -21 -51 -21h-62q-14 0 -18 10t6 21z" />
    <glyph glyph-name="Rcommaaccent" unicode="&#x156;" horiz-adv-x="1335" 
d="M395 678h269q224 0 330 71q105 71 132 226q9 68 9 80q0 116 -86 169q-85 52 -277 52h-272zM387 1438h397q531 0 531 -357q0 -53 -10 -112q-68 -388 -492 -434l330 -490q11 -15 3 -30t-30 -15h-112q-32 0 -48 27l-327 489h-262l-86 -481q-6 -35 -39 -35h-107q-37 0 -31 35
l242 1370q6 33 41 33zM627 -299l-109 -176q-17 -25 -37 -25h-22q-24 0 -13 29l76 172h-53q-32 0 -27 31l25 139q6 31 37 31h133q33 0 27 -31l-23 -129q-1 -22 -14 -41z" />
    <glyph glyph-name="rcommaaccent" unicode="&#x157;" horiz-adv-x="765" 
d="M299 1061h100q33 0 27 -31l-35 -201q49 88 152 162t235 74q26 0 21 -25l-23 -129q-6 -26 -31 -26h-3t-4 0.5t-5.5 1t-6.5 0.5q-20 2 -30 2q-122 0 -230 -119q-108 -118 -132 -266l-84 -471q-6 -33 -37 -33h-100q-35 0 -29 33l176 995q6 33 39 33zM201 -285l-97 -174
q-16 -22 -34 -22h-25q-19 0 -12 26l67 168h-49q-31 0 -26 31l22 127q6 31 37 31h125q33 0 27 -31l-21 -117q-1 -15 -14 -39z" />
    <glyph glyph-name="Rcaron" unicode="&#x158;" horiz-adv-x="1335" 
d="M395 678h269q224 0 330 71q105 71 132 226q9 68 9 80q0 116 -86 169q-85 52 -277 52h-272zM387 1438h397q531 0 531 -357q0 -53 -10 -112q-68 -388 -492 -434l330 -490q11 -15 3 -30t-30 -15h-112q-32 0 -48 27l-327 489h-262l-86 -481q-6 -35 -39 -35h-107q-37 0 -31 35
l242 1370q6 33 41 33zM872 1651l148 102q35 23 49 23h86q19 0 21 -12q1 -10 -11 -21l-219 -180q-22 -19 -49 -19h-84q-22 0 -41 19l-154 180q-9 9 -5 21q5 12 24 12h78q26 0 41 -21z" />
    <glyph glyph-name="rcaron" unicode="&#x159;" horiz-adv-x="765" 
d="M299 1061h100q33 0 27 -31l-35 -201q49 88 152 162t235 74q26 0 21 -25l-23 -129q-6 -26 -31 -26h-3t-4 0.5t-5.5 1t-6.5 0.5q-20 2 -30 2q-122 0 -230 -119q-108 -118 -132 -266l-84 -471q-6 -33 -37 -33h-100q-35 0 -29 33l176 995q6 33 39 33zM565 1307l164 112
q27 21 47 21h86q16 0 18 -12q1 -9 -12 -21l-227 -186q-25 -19 -49 -19h-84q-28 0 -41 19l-162 186q-10 10 -6 21q5 12 23 12h75q22 0 43 -21z" />
    <glyph glyph-name="Sacute" unicode="&#x15a;" horiz-adv-x="1150" 
d="M1047 426q0 -152 -84 -254q-83 -101 -213 -145q-128 -43 -291 -43q-123 0 -241 18q-117 18 -171 47q-32 16 -20 39l49 92q16 33 45 21q135 -60 340 -60q66 0 134 14t130 42t103 84q40 55 40 131q0 48 -20 84q-19 34 -75 70q-49 32 -86 49q-33 16 -118 53
q-168 73 -253 149q-87 78 -87 211q0 217 152 325q150 107 397 107q234 0 361 -59q30 -15 18 -39l-49 -90q-17 -31 -47 -19q-109 47 -283 47q-370 0 -370 -251q0 -29 7 -50q8 -25 24 -43t32 -33q13 -12 45 -31q25 -15 49 -27q6 -3 60 -27q14 -6 33.5 -15.5t25.5 -11.5
q65 -30 137 -69q51 -28 110 -75q62 -49 88 -108q28 -62 28 -133zM694 1575l144 178q22 27 51 27h147q16 0 18 -14q1 -11 -12 -23l-221 -176q-23 -23 -53 -23h-61q-15 0 -18 10t5 21z" />
    <glyph glyph-name="sacute" unicode="&#x15b;" horiz-adv-x="944" 
d="M819 309q0 -171 -123 -251q-121 -78 -317 -78q-215 0 -350 57q-26 10 -19 31l43 86q12 30 39 18q128 -51 279 -51q284 0 284 178q0 64 -55 101q-59 40 -180 85q-68 24 -104 43t-85 53q-45 32 -66 76q-22 47 -22 105q0 164 113 244q112 79 297 79q213 0 330 -59
q24 -11 14 -33l-41 -80q-15 -28 -37 -18q-116 49 -254 49q-256 0 -256 -162q0 -14 3 -27q2 -9 12 -25q3 -5 8 -11.5t6 -8.5q7 -10 22 -20q3 -2 13 -8t14 -9q11 -7 33 -18q7 -3 19 -8.5t16 -7.5q12 -6 42 -18q11 -4 25.5 -10.5t18.5 -8.5q139 -61 209 -125q69 -63 69 -168z
M489 1233l144 180q23 25 49 25h147q17 0 19 -14t-12 -23l-222 -178q-22 -21 -51 -21h-61q-15 0 -19 10q-5 10 6 21z" />
    <glyph glyph-name="Scircumflex" unicode="&#x15c;" horiz-adv-x="1150" 
d="M1047 426q0 -152 -84 -254q-83 -101 -213 -145q-128 -43 -291 -43q-123 0 -241 18q-117 18 -171 47q-32 16 -20 39l49 92q16 33 45 21q135 -60 340 -60q66 0 134 14t130 42t103 84q40 55 40 131q0 48 -20 84q-19 34 -75 70q-49 32 -86 49q-33 16 -118 53
q-168 73 -253 149q-87 78 -87 211q0 217 152 325q150 107 397 107q234 0 361 -59q30 -15 18 -39l-49 -90q-17 -31 -47 -19q-109 47 -283 47q-370 0 -370 -251q0 -29 7 -50q8 -25 24 -43t32 -33q13 -12 45 -31q25 -15 49 -27q6 -3 60 -27q14 -6 33.5 -15.5t25.5 -11.5
q65 -30 137 -69q51 -28 110 -75q62 -49 88 -108q28 -62 28 -133zM895 1567l-115 102l-153 -102q-34 -23 -52 -23h-86q-18 0 -18 12q0 13 14 23l220 178q22 19 47 19h84q24 0 43 -19l153 -178q12 -10 7 -23q-5 -12 -23 -12h-78q-15 0 -43 23z" />
    <glyph glyph-name="scircumflex" unicode="&#x15d;" horiz-adv-x="944" 
d="M819 309q0 -171 -123 -251q-121 -78 -317 -78q-215 0 -350 57q-26 10 -19 31l43 86q12 30 39 18q128 -51 279 -51q284 0 284 178q0 64 -55 101q-59 40 -180 85q-68 24 -104 43t-85 53q-45 32 -66 76q-22 47 -22 105q0 164 113 244q112 79 297 79q213 0 330 -59
q24 -11 14 -33l-41 -80q-15 -28 -37 -18q-116 49 -254 49q-256 0 -256 -162q0 -14 3 -27q2 -9 12 -25q3 -5 8 -11.5t6 -8.5q7 -10 22 -20q3 -2 13 -8t14 -9q11 -7 33 -18q7 -3 19 -8.5t16 -7.5q12 -6 42 -18q11 -4 25.5 -10.5t18.5 -8.5q139 -61 209 -125q69 -63 69 -168z
M754 1223l-125 112l-164 -112q-27 -21 -49 -21h-84q-19 0 -19 11t13 22l227 186q22 19 47 19h84q24 0 43 -19l162 -186q10 -10 5 -22q-4 -11 -22 -11h-77q-20 0 -41 21z" />
    <glyph glyph-name="Scedilla" unicode="&#x15e;" horiz-adv-x="1150" 
d="M1047 426q0 -204 -143 -314q-142 -109 -367 -124q100 -61 100 -156q0 -86 -71 -127t-171 -41q-54 0 -73 8q-22 8 -17 27l10 57q5 19 25 19h57q121 0 121 80q0 73 -90 129q-269 6 -381 65q-32 16 -20 39l49 92q16 33 45 21q135 -60 340 -60q66 0 134 14t130 42t103 84
q40 55 40 131q0 48 -20 84q-19 34 -75 70q-49 32 -86 49q-33 16 -118 53q-168 73 -253 149q-87 78 -87 211q0 217 152 325q150 107 397 107q234 0 361 -59q30 -15 18 -39l-49 -90q-17 -31 -47 -19q-109 47 -283 47q-370 0 -370 -251q0 -29 7 -50q8 -25 24 -43t32 -33
q13 -12 45 -31q25 -15 49 -27q6 -3 60 -27q14 -6 33.5 -15.5t25.5 -11.5q65 -30 137 -69q51 -28 110 -75q62 -49 88 -108q28 -62 28 -133z" />
    <glyph glyph-name="scedilla" unicode="&#x15f;" horiz-adv-x="944" 
d="M819 309q0 -161 -109 -240t-290 -87q86 -51 86 -129q0 -81 -62 -122q-61 -40 -153 -40q-76 0 -92 6q-19 8 -15 24l9 54q5 18 24 18h57q119 0 119 82q0 61 -84 107q-175 11 -280 55q-26 10 -19 31l43 86q12 30 39 18q128 -51 279 -51q284 0 284 178q0 64 -55 101
q-59 40 -180 85q-68 24 -104 43t-85 53q-45 32 -66 76q-22 47 -22 105q0 164 113 244q112 79 297 79q213 0 330 -59q24 -11 14 -33l-41 -80q-15 -28 -37 -18q-116 49 -254 49q-256 0 -256 -162q0 -14 3 -27q2 -9 12 -25q3 -5 8 -11.5t6 -8.5q7 -10 22 -20q3 -2 13 -8t14 -9
q11 -7 33 -18q7 -3 19 -8.5t16 -7.5q12 -6 42 -18q11 -4 25.5 -10.5t18.5 -8.5q139 -61 209 -125q69 -63 69 -168z" />
    <glyph glyph-name="Scaron" unicode="&#x160;" horiz-adv-x="1150" 
d="M1047 426q0 -152 -84 -254q-83 -101 -213 -145q-128 -43 -291 -43q-123 0 -241 18q-117 18 -171 47q-32 16 -20 39l49 92q16 33 45 21q135 -60 340 -60q66 0 134 14t130 42t103 84q40 55 40 131q0 48 -20 84q-19 34 -75 70q-49 32 -86 49q-33 16 -118 53
q-168 73 -253 149q-87 78 -87 211q0 217 152 325q150 107 397 107q234 0 361 -59q30 -15 18 -39l-49 -90q-17 -31 -47 -19q-109 47 -283 47q-370 0 -370 -251q0 -29 7 -50q8 -25 24 -43t32 -33q13 -12 45 -31q25 -15 49 -27q6 -3 60 -27q14 -6 33.5 -15.5t25.5 -11.5
q65 -30 137 -69q51 -28 110 -75q62 -49 88 -108q28 -62 28 -133zM772 1651l148 102q35 23 49 23h86q19 0 20 -12q1 -11 -10 -21l-219 -180q-24 -19 -49 -19h-84q-22 0 -41 19l-154 180q-9 9 -5 21q5 12 24 12h77q24 0 41 -21z" />
    <glyph glyph-name="scaron" unicode="&#x161;" horiz-adv-x="944" 
d="M819 309q0 -171 -123 -251q-121 -78 -317 -78q-215 0 -350 57q-26 10 -19 31l43 86q12 30 39 18q128 -51 279 -51q284 0 284 178q0 64 -55 101q-59 40 -180 85q-68 24 -104 43t-85 53q-45 32 -66 76q-22 47 -22 105q0 164 113 244q112 79 297 79q213 0 330 -59
q24 -11 14 -33l-41 -80q-15 -28 -37 -18q-116 49 -254 49q-256 0 -256 -162q0 -14 3 -27q2 -9 12 -25q3 -5 8 -11.5t6 -8.5q7 -10 22 -20q3 -2 13 -8t14 -9q11 -7 33 -18q7 -3 19 -8.5t16 -7.5q12 -6 42 -18q11 -4 25.5 -10.5t18.5 -8.5q139 -61 209 -125q69 -63 69 -168z
M616 1307l164 112q27 21 47 21h86q17 0 18 -12q1 -10 -11 -21l-228 -186q-25 -19 -49 -19h-84q-28 0 -41 19l-162 186q-10 10 -6 21q4 12 23 12h76q22 0 43 -21z" />
    <glyph glyph-name="Tcommaaccent" unicode="&#x162;" horiz-adv-x="1126" 
d="M211 1309l16 96q6 33 39 33h932q35 0 29 -33l-17 -96q-6 -35 -41 -35h-376l-220 -1239q-6 -35 -38 -35h-107q-37 0 -31 35l219 1239h-376q-35 0 -29 35zM512 -299l-109 -176q-16 -25 -36 -25h-23q-23 0 -12 29l76 172h-54q-31 0 -26 31l24 139q6 31 37 31h133
q33 0 27 -31l-23 -129q-1 -22 -14 -41z" />
    <glyph glyph-name="tcommaaccent" unicode="&#x163;" horiz-adv-x="731" 
d="M719 913h-270l-103 -579q-10 -54 -10 -88q0 -62 33 -86q34 -25 114 -25q17 0 39 2q17 2 32 6q21 6 26 7q16 1 21 -5q5 -7 5 -22l6 -80q2 -20 -24 -31q-60 -24 -142 -24q-142 0 -207 52q-67 53 -67 169q0 61 10 108l105 596h-146q-32 0 -26 31l14 84q6 33 39 33h149
l45 258q6 31 37 31h95q32 0 26 -31l-45 -258h270q33 0 27 -33l-14 -84q-6 -31 -39 -31zM362 -285l-96 -174q-16 -22 -35 -22h-24q-19 0 -12 26l67 168h-49q-29 0 -27 31l23 127q6 31 37 31h125q32 0 26 -31l-20 -117q-1 -13 -15 -39z" />
    <glyph glyph-name="Tcaron" unicode="&#x164;" horiz-adv-x="1126" 
d="M211 1309l16 96q6 33 39 33h932q35 0 29 -33l-17 -96q-6 -35 -41 -35h-376l-220 -1239q-6 -35 -38 -35h-107q-37 0 -31 35l219 1239h-376q-35 0 -29 35zM762 1651l147 102q35 23 49 23h86q20 0 21 -12q1 -11 -10 -21l-219 -180q-22 -19 -50 -19h-84q-21 0 -40 19
l-154 180q-9 9 -5 21q5 12 23 12h78q26 0 41 -21z" />
    <glyph glyph-name="tcaron" unicode="&#x165;" horiz-adv-x="956" 
d="M715 913h-271l-102 -579q-10 -54 -10 -88q0 -62 33 -86q34 -25 114 -25q17 0 39 2q17 2 32 6q22 7 25 7q17 2 22 -5t5 -22l6 -80q2 -20 -24 -31q-60 -24 -142 -24q-143 0 -208 52q-66 52 -66 169q0 61 10 108l105 596h-146q-32 0 -26 31l14 84q6 33 39 33h149l45 258
q6 31 37 31h94q33 0 27 -31l-45 -258h270q33 0 27 -33l-14 -84q-6 -31 -39 -31zM1087 1245l-116 -203q-10 -22 -35 -22h-43q-24 0 -12 29l90 196h-47q-33 0 -27 33l27 154q6 32 39 32h139q32 0 26 -32l-24 -144q-1 -20 -17 -43z" />
    <glyph glyph-name="Tbar" unicode="&#x166;" horiz-adv-x="1126" 
d="M211 1309l16 96q6 33 41 33h930q35 0 29 -33l-17 -96q-6 -35 -41 -35h-376l-91 -508h230q32 0 26 -29l-8 -47q-6 -31 -37 -31h-229l-111 -624q-6 -35 -38 -35h-107q-37 0 -31 35l111 624h-227q-20 0 -25 8q-4 7 0 23l8 47q6 29 35 29h227l90 508h-376q-35 0 -29 35z" />
    <glyph glyph-name="tbar" unicode="&#x167;" horiz-adv-x="731" 
d="M719 913h-270l-56 -313h248q29 0 27 -31l-9 -43q-6 -30 -36 -30h-248l-29 -162q-10 -54 -10 -88q0 -62 33 -86q34 -25 114 -25q17 0 39 2q17 2 32 6q21 6 26 7q16 1 21 -5q5 -7 5 -22l6 -80q2 -20 -24 -31q-60 -24 -146 -24q-139 0 -204 52q-66 52 -66 169q0 61 10 110
l31 177h-147q-31 0 -25 30l8 43q2 31 35 31h147l56 313h-146q-32 0 -26 31l14 84q6 33 39 33h149l45 258q6 31 37 31h95q32 0 26 -31l-45 -258h270q33 0 27 -33l-14 -84q-6 -31 -39 -31z" />
    <glyph glyph-name="Utilde" unicode="&#x168;" horiz-adv-x="1425" 
d="M645 -25q-234 0 -358 107q-123 106 -123 301q0 57 12 125l158 897q6 33 41 33h106q35 0 29 -33l-156 -885q-10 -63 -10 -108q0 -275 309 -275q366 0 434 383l156 885q6 33 39 33h109q32 0 26 -33l-157 -897q-92 -533 -615 -533zM1260 1683q-24 -149 -170 -149
q-50 0 -179 41l-45 14q-96 29 -125 29q-43 0 -51 -31l-6 -20q-6 -27 -41 -27h-47q-29 0 -21 41q11 66 53 107q43 41 117 41q56 0 179 -43l51 -19q81 -31 115 -31q41 0 53 43l6 21q7 26 43 26h45q30 0 23 -43z" />
    <glyph glyph-name="utilde" unicode="&#x169;" horiz-adv-x="1202" 
d="M125 365l117 663q6 33 39 33h100q31 0 25 -33l-113 -637q-6 -39 -6 -76q0 -184 213 -184q137 0 240 80q102 79 126 217l107 600q6 33 39 33h100q31 0 25 -33l-176 -995q-6 -33 -35 -33h-101q-34 0 -28 31l24 135q-127 -186 -366 -186q-168 0 -252 77q-86 78 -86 217
q0 48 8 91zM1065 1341q-27 -139 -154 -139q-75 0 -174 39l-41 16q-66 27 -100 27q-39 0 -51 -33l-8 -20q-11 -25 -41 -25h-47q-29 0 -21 39q23 137 154 137q58 0 172 -41l47 -16q77 -27 100 -27q36 0 51 41l4 17q7 26 41 26h50q26 0 18 -41z" />
    <glyph glyph-name="Umacron" unicode="&#x16a;" horiz-adv-x="1425" 
d="M645 -25q-234 0 -358 107q-123 106 -123 301q0 57 12 125l158 897q6 33 41 33h106q35 0 29 -33l-156 -885q-10 -63 -10 -108q0 -275 309 -275q366 0 434 383l156 885q6 33 39 33h109q32 0 26 -33l-157 -897q-92 -533 -615 -533zM1198 1575h-584q-30 0 -24 31l10 61
q6 31 37 31h584q32 0 26 -31l-10 -61q-6 -31 -39 -31z" />
    <glyph glyph-name="umacron" unicode="&#x16b;" horiz-adv-x="1202" 
d="M125 365l117 663q6 33 39 33h100q31 0 25 -33l-113 -637q-6 -39 -6 -76q0 -184 213 -184q137 0 240 80q102 79 126 217l107 600q6 33 39 33h100q31 0 25 -33l-176 -995q-6 -33 -35 -33h-101q-34 0 -28 31l24 135q-127 -186 -366 -186q-168 0 -252 77q-86 78 -86 217
q0 48 8 91zM1024 1214h-584q-30 0 -24 31l8 53q6 31 37 31h583q31 0 25 -31l-8 -53q-6 -31 -37 -31z" />
    <glyph glyph-name="Ubreve" unicode="&#x16c;" horiz-adv-x="1425" 
d="M645 -25q-234 0 -358 107q-123 106 -123 301q0 57 12 125l158 897q6 33 41 33h106q35 0 29 -33l-156 -885q-10 -63 -10 -108q0 -275 309 -275q366 0 434 383l156 885q6 33 39 33h109q32 0 26 -33l-157 -897q-92 -533 -615 -533zM913 1544q-139 0 -203 63q-66 64 -51 152
q6 25 29 25h57q27 0 27 -23q6 -53 37 -81q30 -27 113 -27q82 0 121 26q42 28 65 82q11 23 33 23h57q27 0 21 -25q-18 -93 -94 -154t-212 -61z" />
    <glyph glyph-name="ubreve" unicode="&#x16d;" horiz-adv-x="1202" 
d="M125 365l117 663q6 33 39 33h100q31 0 25 -33l-113 -637q-6 -39 -6 -76q0 -184 213 -184q137 0 240 80q102 79 126 217l107 600q6 33 39 33h100q31 0 25 -33l-176 -995q-6 -33 -35 -33h-101q-34 0 -28 31l24 135q-127 -186 -366 -186q-168 0 -252 77q-86 78 -86 217
q0 48 8 91zM745 1196q-142 0 -206 67q-65 68 -50 158q2 25 29 25h57q23 0 25 -23q5 -59 34 -88q30 -30 116 -30q87 0 123 29q39 31 65 89q8 23 33 23h57q23 0 21 -25q-45 -225 -304 -225z" />
    <glyph glyph-name="Uring" unicode="&#x16e;" horiz-adv-x="1425" 
d="M645 -25q-234 0 -358 107q-123 106 -123 301q0 57 12 125l158 897q6 33 41 33h106q35 0 29 -33l-156 -885q-10 -63 -10 -108q0 -275 309 -275q366 0 434 383l156 885q6 33 39 33h109q32 0 26 -33l-157 -897q-92 -533 -615 -533zM948 1827q-58 0 -95 -33q-38 -33 -38 -94
q0 -82 105 -82q55 0 93 32t38 91q0 86 -103 86zM717 1694q0 96 68 158q69 63 173 63q85 0 138 -47t53 -117q0 -96 -70 -160q-69 -63 -172 -63q-85 0 -138 47q-52 46 -52 119z" />
    <glyph glyph-name="uring" unicode="&#x16f;" horiz-adv-x="1202" 
d="M125 365l117 663q6 33 39 33h100q31 0 25 -33l-113 -637q-6 -39 -6 -76q0 -184 213 -184q137 0 240 80q102 79 126 217l107 600q6 33 39 33h100q31 0 25 -33l-176 -995q-6 -33 -35 -33h-101q-34 0 -28 31l24 135q-127 -186 -366 -186q-168 0 -252 77q-86 78 -86 217
q0 48 8 91zM750 1278q55 0 94 33t39 90q0 40 -29 64q-28 24 -78 24q-55 0 -94 -33t-39 -92q0 -38 29 -62q28 -24 78 -24zM786 1577q86 0 141 -47q54 -46 54 -119q0 -96 -71 -159q-69 -62 -173 -62q-86 0 -139 47t-53 119q0 95 69 158t172 63z" />
    <glyph glyph-name="Uhungarumlaut" unicode="&#x170;" horiz-adv-x="1425" 
d="M645 -25q-234 0 -358 107q-123 106 -123 301q0 57 12 125l158 897q6 33 41 33h106q35 0 29 -33l-156 -885q-10 -63 -10 -108q0 -275 309 -275q366 0 434 383l156 885q6 33 39 33h109q32 0 26 -33l-157 -897q-92 -533 -615 -533zM649 1575l133 182q18 27 49 27h121
q16 0 17 -15q1 -13 -11 -24l-182 -178q-21 -23 -53 -23h-64q-32 0 -10 31zM985 1575l133 182q16 27 49 27h119q17 0 20 -15q3 -13 -10 -24l-182 -178q-23 -23 -55 -23h-62q-14 0 -17 10t5 21z" />
    <glyph glyph-name="uhungarumlaut" unicode="&#x171;" horiz-adv-x="1202" 
d="M125 365l117 663q6 33 39 33h100q31 0 25 -33l-113 -637q-6 -39 -6 -76q0 -184 213 -184q137 0 240 80q102 79 126 217l107 600q6 33 39 33h100q31 0 25 -33l-176 -995q-6 -33 -35 -33h-101q-34 0 -28 31l24 135q-127 -186 -366 -186q-168 0 -252 77q-86 78 -86 217
q0 48 8 91zM475 1233l133 180q16 25 47 25h115q14 0 17 -13q3 -12 -9 -24l-182 -178q-21 -21 -51 -21h-58q-14 0 -17 10t5 21zM807 1233l131 180q19 25 47 25h115q16 0 18 -14t-8 -23l-182 -178q-21 -21 -54 -21h-55q-14 0 -17 10t5 21z" />
    <glyph glyph-name="Uogonek" unicode="&#x172;" horiz-adv-x="1425" 
d="M1260 508q-82 -464 -492 -524q-135 -63 -135 -152q0 -53 94 -53q31 0 74 12q18 5 18 -8l4 -62q0 -12 -16 -24q-54 -31 -121 -31q-82 0 -132 33t-50 96q0 103 131 180q-232 1 -352 108q-119 105 -119 298q0 59 12 127l158 897q6 33 41 33h106q35 0 29 -33l-156 -885
q-10 -63 -10 -108q0 -275 309 -275q366 0 434 383l156 885q6 33 39 33h109q32 0 26 -33z" />
    <glyph glyph-name="uogonek" unicode="&#x173;" horiz-adv-x="1202" 
d="M125 365l117 663q6 33 39 33h100q31 0 25 -33l-113 -637q-6 -39 -6 -76q0 -184 213 -184q137 0 240 80q102 79 126 217l107 600q6 33 39 33h100q31 0 25 -33l-176 -995q-6 -33 -35 -33h-27q-160 -63 -160 -156q0 -49 92 -49q33 0 72 10q21 5 21 -10l2 -55q0 -20 -15 -25
q-48 -26 -123 -26q-70 0 -120 30t-50 86q0 131 185 199q-8 8 -6 27l24 135q-127 -186 -366 -186q-168 0 -252 77q-86 78 -86 217q0 48 8 91z" />
    <glyph glyph-name="Wcircumflex" unicode="&#x174;" horiz-adv-x="2144" 
d="M1184 1438h116q36 0 41 -33l95 -825l41 -400h4l170 391l385 834q12 33 45 33h114q37 0 21 -39l-639 -1360q-21 -39 -53 -39h-148q-40 0 -41 37l-102 784l-35 363h-4l-162 -363l-375 -784q-12 -37 -53 -37h-147q-35 0 -41 39l-160 1360q-4 39 33 39h117q28 0 30 -33
l94 -834l31 -389h4l178 398l387 825q12 33 54 33zM1403 1567l-115 102l-153 -102q-34 -23 -52 -23h-86q-18 0 -18 12q0 13 14 23l219 178q22 19 48 19h83q24 0 43 -19l154 -178q12 -10 7 -23q-5 -12 -23 -12h-78q-15 0 -43 23z" />
    <glyph glyph-name="wcircumflex" unicode="&#x175;" horiz-adv-x="1689" 
d="M893 1061h104q26 0 31 -31l98 -651l21 -209h4l88 209l307 651q17 31 41 31h111q35 0 18 -35l-479 -995q-15 -31 -43 -31h-125q-33 0 -35 31l-92 604l-27 223h-6l-102 -223l-303 -604q-12 -31 -43 -31h-125q-29 0 -35 31l-131 995q0 35 33 35h100q24 0 29 -31l82 -651
l12 -209h4l96 209l324 651q19 31 43 31zM1126 1223l-125 112l-163 -112q-27 -21 -50 -21h-83q-19 0 -19 11t12 22l228 186q22 19 47 19h84q24 0 43 -19l162 -186q10 -10 5 -22q-4 -11 -22 -11h-78q-20 0 -41 21z" />
    <glyph glyph-name="Ycircumflex" unicode="&#x176;" horiz-adv-x="1310" 
d="M754 528l-88 -493q-6 -35 -39 -35h-109q-35 0 -29 35l89 493l-347 871q-6 15 1 26q8 13 28 13h115q14 0 22 -5q10 -6 11 -10l8 -16l196 -510l74 -215l156 215l377 510q23 31 49 31h123q20 0 23 -14t-7 -25zM985 1567l-115 102l-153 -102q-35 -23 -51 -23h-86
q-19 0 -19 12q0 13 14 23l220 178q22 19 47 19h84q24 0 43 -19l153 -178q12 -10 7 -23q-5 -12 -23 -12h-78q-15 0 -43 23z" />
    <glyph glyph-name="ycircumflex" unicode="&#x177;" horiz-adv-x="1026" 
d="M1073 1026l-502 -958q-80 -167 -163 -234t-232 -67q-94 0 -145 22q-26 10 -19 31l39 84q15 24 39 22q67 -14 103 -14q91 0 135 50q43 49 26 130l-198 934q-6 35 28 35h105q23 0 28 -31l111 -538l49 -318h4l154 318l266 538q17 31 41 31h113q35 0 18 -35zM795 1223
l-125 112l-164 -112q-27 -21 -49 -21h-84q-19 0 -19 11t13 22l227 186q22 19 47 19h84q24 0 43 -19l162 -186q10 -10 5 -22q-4 -11 -22 -11h-77q-20 0 -41 21z" />
    <glyph glyph-name="Ydieresis" unicode="&#x178;" horiz-adv-x="1310" 
d="M754 528l-88 -493q-6 -35 -39 -35h-109q-35 0 -29 35l89 493l-347 871q-6 15 1 26q8 13 28 13h115q14 0 22 -5q10 -6 11 -10l8 -16l196 -510l74 -215l156 215l377 510q23 31 49 31h123q20 0 23 -14t-7 -25zM1157 1720l-27 -143q-6 -33 -38 -33h-115q-31 0 -25 33l27 143
q6 33 35 33h114q35 0 29 -33zM774 1720l-26 -143q-6 -33 -39 -33h-115q-31 0 -25 33l27 143q6 33 35 33h114q35 0 29 -33z" />
    <glyph glyph-name="Zacute" unicode="&#x179;" horiz-adv-x="1222" 
d="M43 35l16 92q7 33 33 59l926 1088h-709q-32 0 -26 35l16 96q6 33 39 33h881q32 0 26 -33l-16 -94q-6 -31 -29 -58l-921 -1089h729q32 0 26 -33l-18 -96q-6 -35 -37 -35h-907q-35 0 -29 35zM737 1575l144 178q23 27 51 27h147q16 0 18 -14q1 -11 -12 -23l-221 -176
q-23 -23 -53 -23h-61q-15 0 -18 10t5 21z" />
    <glyph glyph-name="zacute" unicode="&#x17a;" horiz-adv-x="1001" 
d="M993 1028l-12 -67q-5 -28 -23 -46l-692 -765h535q34 0 28 -31l-16 -86q-6 -33 -37 -33h-723q-32 0 -26 33l12 67q6 27 20 41l697 770h-531q-32 0 -26 31l14 86q6 33 39 33h715q32 0 26 -33zM537 1233l143 180q22 25 49 25h148q16 0 18 -14t-12 -23l-221 -178
q-22 -21 -52 -21h-61q-15 0 -19 10t7 21z" />
    <glyph glyph-name="Zdotaccent" unicode="&#x17b;" horiz-adv-x="1222" 
d="M43 35l16 92q7 33 33 59l926 1088h-709q-32 0 -26 35l16 96q6 33 39 33h881q32 0 26 -33l-16 -94q-6 -31 -29 -58l-921 -1089h729q32 0 26 -33l-18 -96q-6 -35 -37 -35h-907q-35 0 -29 35zM926 1735l-29 -158q-6 -33 -37 -33h-119q-32 0 -26 33l28 158q6 30 37 30h119
q33 0 27 -30z" />
    <glyph glyph-name="zdotaccent" unicode="&#x17c;" horiz-adv-x="1001" 
d="M993 1028l-12 -67q-5 -28 -23 -46l-692 -765h535q34 0 28 -31l-16 -86q-6 -33 -37 -33h-723q-32 0 -26 33l12 67q6 27 20 41l697 770h-531q-32 0 -26 31l14 86q6 33 39 33h715q32 0 26 -33zM754 1391l-27 -158q-6 -31 -37 -31h-119q-32 0 -26 31l26 158q6 32 39 32h119
q31 0 25 -32z" />
    <glyph glyph-name="Zcaron" unicode="&#x17d;" horiz-adv-x="1222" 
d="M43 35l16 92q7 33 33 59l926 1088h-709q-32 0 -26 35l16 96q6 33 39 33h881q32 0 26 -33l-16 -94q-6 -31 -29 -58l-921 -1089h729q32 0 26 -33l-18 -96q-6 -35 -37 -35h-907q-35 0 -29 35zM809 1651l147 102q35 23 50 23h86q18 0 20 -12q1 -11 -10 -21l-219 -180
q-24 -19 -49 -19h-84q-22 0 -41 19l-154 180q-9 9 -5 21t23 12h78q25 0 41 -21z" />
    <glyph glyph-name="zcaron" unicode="&#x17e;" horiz-adv-x="1001" 
d="M993 1028l-12 -67q-5 -28 -23 -46l-692 -765h535q34 0 28 -31l-16 -86q-6 -33 -37 -33h-723q-32 0 -26 33l12 67q6 27 20 41l697 770h-531q-32 0 -26 31l14 86q6 33 39 33h715q32 0 26 -33zM645 1307l164 112q27 21 47 21h86q16 0 17 -12q1 -10 -11 -21l-227 -186
q-25 -19 -49 -19h-84q-28 0 -41 19l-162 186q-10 10 -6 21q5 12 22 12h76q22 0 43 -21z" />
    <glyph glyph-name="longs" unicode="&#x17f;" horiz-adv-x="600" 
d="M508 1153l-199 -1122q-6 -31 -35 -31h-100q-35 0 -29 31l156 882h-141q-31 0 -25 31l15 84q6 33 36 33h142l16 98q52 295 324 295q106 0 157 -24q18 -8 13 -29l-15 -78q-4 -34 -32 -27q-49 13 -111 13q-145 0 -172 -156z" />
    <glyph glyph-name="florin" unicode="&#x192;" horiz-adv-x="1312" 
d="M891 1133l-100 -326h288q29 0 23 -29l-21 -67q-8 -31 -39 -31h-290l-199 -639q-45 -146 -113 -212q-69 -67 -194 -67q-92 0 -142 21q-22 6 -14 31l31 86q11 30 39 24q50 -12 78 -12q56 0 97 40q43 41 60 105l191 623h-180q-32 0 -21 29l21 69q6 29 38 29h183l106 346
q92 305 371 305q102 0 149 -20q27 -12 17 -33l-29 -72q-12 -32 -41 -26q-67 14 -90 14q-162 0 -219 -188z" />
    <glyph glyph-name="Aringacute" unicode="&#x1fa;" horiz-adv-x="1370" 
d="M657 1516q0 74 44 132q42 55 118 78l109 134q22 26 51 26h147q17 0 18 -13t-11 -24l-158 -125q115 -39 115 -151q0 -135 -123 -197l268 -1341q4 -14 -5 -25q-9 -10 -26 -10h-114q-29 0 -35 31l-68 342h-629l-190 -342q-19 -31 -41 -31h-125q-16 0 -22 10t0 25l745 1349
q-68 45 -68 132zM440 532h518l-127 730h-4zM889 1649q-57 0 -95 -33t-38 -94q0 -82 104 -82q56 0 93 31q38 32 38 92q0 86 -102 86z" />
    <glyph glyph-name="aringacute" unicode="&#x1fb;" horiz-adv-x="1140" 
d="M1030 690l-117 -657q-6 -33 -36 -33h-93q-32 0 -26 31l26 145q-145 -194 -409 -194q-158 0 -243 75q-87 77 -87 193q0 289 395 358q116 19 420 29l10 57q9 63 9 72q0 87 -58 130q-57 42 -182 42q-162 0 -340 -70q-30 -11 -35 21l-12 86q-5 23 24 35q172 75 381 75
q383 0 383 -297q0 -44 -10 -98zM821 416l17 92q-328 -18 -430 -45q-197 -56 -199 -203q0 -62 51 -103q50 -40 148 -40q172 0 281 85q110 86 132 214zM512 1356q0 79 51 139t133 76l111 139q22 25 49 25h148q16 0 18 -14t-12 -23l-170 -137q51 -18 80 -59q28 -40 28 -91
q0 -96 -70 -159q-69 -62 -173 -62q-87 0 -140 47t-53 119zM717 1278q55 0 94 33t39 90q0 40 -29 64t-78 24q-55 0 -94 -33t-39 -92q0 -38 29 -62t78 -24z" />
    <glyph glyph-name="AEacute" unicode="&#x1fc;" horiz-adv-x="1796" 
d="M1659 657h-547l-86 -493h576q34 0 28 -33l-18 -96q-6 -35 -39 -35h-717q-37 0 -31 35l58 319h-510l-232 -323q-25 -31 -45 -31h-129q-18 0 -23 12t3 23l983 1368q23 35 55 35h834q32 0 26 -33l-16 -96q-6 -35 -39 -35h-569l-80 -461h547q31 0 26 -35l-16 -86
q-6 -35 -39 -35zM483 510h424l137 768h-26zM1053 1575l143 178q22 27 51 27h148q15 0 17 -14q1 -12 -11 -23l-221 -176q-23 -23 -54 -23h-61q-14 0 -17 10t5 21z" />
    <glyph glyph-name="aeacute" unicode="&#x1fd;" horiz-adv-x="1867" 
d="M1305 117q145 0 278 65q31 16 39 -18l16 -80q4 -20 -26 -37q-53 -29 -145 -50q-96 -22 -177 -22q-161 0 -275 72q-113 72 -130 180q-152 -245 -484 -245q-177 0 -266 68q-90 69 -90 183q0 91 33 157q34 68 97 106q61 37 130 62q64 23 166 34q101 11 166 12q88 2 166 2h53
l21 121q17 103 -40 157t-194 54q-169 0 -352 -70q-29 -11 -35 21l-16 86q-5 23 26 35q201 75 383 75q165 0 256 -54t96 -161q63 101 170 158t240 57q181 0 281 -102q100 -101 100 -272q0 -55 -8 -105l-21 -117q-6 -32 -41 -32h-735q-2 -20 -2 -43q0 -138 87 -217
q88 -80 233 -80zM1389 944q-136 0 -239 -94q-102 -93 -140 -256h610l4 16q8 42 8 90q0 116 -60 180t-183 64zM823 418l11 55q-10 0 -80 -2q-91 -1 -149 -5q-63 -4 -125 -10q-76 -8 -114 -21q-41 -15 -80 -37q-43 -25 -60 -60t-17 -88q0 -129 211 -129q172 0 275 84
q104 84 128 213zM932 1233l143 180q23 25 49 25h148q16 0 18 -14t-12 -23l-221 -178q-23 -21 -51 -21h-62q-14 0 -18 10t6 21z" />
    <glyph glyph-name="Oslashacute" unicode="&#x1fe;" horiz-adv-x="1470" 
d="M891 1460q281 0 416 -170l131 121q26 27 45 8l47 -49q21 -22 -2 -45l-158 -145q45 -112 45 -252q0 -92 -20 -209q-63 -361 -248 -550t-481 -189q-282 0 -418 167l-139 -127q-24 -21 -41 -4l-50 54q-16 17 7 39l159 147q-45 105 -45 258q0 88 19 205q63 359 250 551
q186 190 483 190zM319 526q0 -82 15 -139l839 776q-89 137 -294 137q-220 0 -356 -149q-135 -149 -185 -432q-19 -111 -19 -193zM674 139q218 0 355 149q135 147 185 431q19 111 19 192q0 66 -14 133l-840 -772q85 -133 295 -133zM852 1575l143 178q23 27 52 27h147
q15 0 17 -14q1 -12 -11 -23l-221 -176q-23 -23 -53 -23h-62q-14 0 -17 10t5 21z" />
    <glyph glyph-name="oslashacute" unicode="&#x1ff;" horiz-adv-x="1232" 
d="M547 -20q-208 0 -320 106l-80 -78q-24 -24 -47 -6l-32 31q-20 21 2 43l94 88q-55 94 -55 233q0 61 12 135q46 264 201 410q152 143 387 143q205 0 319 -108l82 78q22 23 43 2l33 -29q23 -18 -2 -41l-94 -88q55 -100 55 -231q0 -62 -12 -136q-46 -263 -201 -409
q-152 -143 -385 -143zM279 410q0 -74 18 -125l612 577q-72 78 -211 78q-161 0 -266 -102q-103 -100 -141 -306q-12 -68 -12 -122zM555 125q159 0 266 102q108 103 142 305q12 68 12 123q0 68 -19 123l-610 -577q69 -76 209 -76zM653 1233l144 180q23 25 49 25h147
q17 0 19 -14q1 -13 -13 -23l-221 -178q-22 -21 -51 -21h-61q-15 0 -19 10q-5 10 6 21z" />
    <glyph glyph-name="Scommaaccent" unicode="&#x218;" horiz-adv-x="1150" 
d="M1047 426q0 -152 -84 -254q-83 -101 -213 -145q-128 -43 -291 -43q-123 0 -241 18q-117 18 -171 47q-32 16 -20 39l49 92q16 33 45 21q135 -60 340 -60q66 0 134 14t130 42t103 84q40 55 40 131q0 48 -20 84q-19 34 -75 70q-49 32 -86 49q-33 16 -118 53
q-168 73 -253 149q-87 78 -87 211q0 217 152 325q150 107 397 107q234 0 361 -59q30 -15 18 -39l-49 -90q-17 -31 -47 -19q-109 47 -283 47q-370 0 -370 -251q0 -29 7 -50q8 -25 24 -43t32 -33q13 -12 45 -31q25 -15 49 -27q6 -3 60 -27q14 -6 33.5 -15.5t25.5 -11.5
q65 -30 137 -69q51 -28 110 -75q62 -49 88 -108q28 -62 28 -133zM545 -299l-109 -176q-17 -25 -37 -25h-22q-23 0 -12 29l75 172h-53q-32 0 -27 31l25 139q6 31 37 31h133q33 0 27 -31l-23 -129q-1 -22 -14 -41z" />
    <glyph glyph-name="scommaaccent" unicode="&#x219;" horiz-adv-x="944" 
d="M819 309q0 -171 -123 -251q-121 -78 -317 -78q-215 0 -350 57q-26 10 -19 31l43 86q12 30 39 18q128 -51 279 -51q284 0 284 178q0 64 -55 101q-59 40 -180 85q-68 24 -104 43t-85 53q-45 32 -66 76q-22 47 -22 105q0 164 113 244q112 79 297 79q213 0 330 -59
q24 -11 14 -33l-41 -80q-15 -28 -37 -18q-116 49 -254 49q-256 0 -256 -162q0 -14 3 -27q2 -9 12 -25q3 -5 8 -11.5t6 -8.5q7 -10 22 -20q3 -2 13 -8t14 -9q11 -7 33 -18q7 -3 19 -8.5t16 -7.5q12 -6 42 -18q11 -4 25.5 -10.5t18.5 -8.5q139 -61 209 -125q69 -63 69 -168z
M440 -285l-96 -174q-16 -22 -35 -22h-24q-20 0 -13 26l68 168h-49q-29 0 -27 31l23 127q6 31 37 31h125q32 0 26 -31l-20 -117q-1 -13 -15 -39z" />
    <glyph glyph-name="uni021A" unicode="&#x21a;" horiz-adv-x="1126" 
d="M211 1309l16 96q6 33 39 33h932q35 0 29 -33l-17 -96q-6 -35 -41 -35h-376l-220 -1239q-6 -35 -38 -35h-107q-37 0 -31 35l219 1239h-376q-35 0 -29 35zM512 -299l-109 -176q-16 -25 -36 -25h-23q-23 0 -12 29l76 172h-54q-31 0 -26 31l24 139q6 31 37 31h133
q33 0 27 -31l-23 -129q-1 -22 -14 -41z" />
    <glyph glyph-name="uni021B" unicode="&#x21b;" horiz-adv-x="731" 
d="M719 913h-270l-103 -579q-10 -54 -10 -88q0 -62 33 -86q34 -25 114 -25q17 0 39 2q17 2 32 6q21 6 26 7q16 1 21 -5q5 -7 5 -22l6 -80q2 -20 -24 -31q-60 -24 -142 -24q-142 0 -207 52q-67 53 -67 169q0 61 10 108l105 596h-146q-32 0 -26 31l14 84q6 33 39 33h149
l45 258q6 31 37 31h95q32 0 26 -31l-45 -258h270q33 0 27 -33l-14 -84q-6 -31 -39 -31zM362 -285l-96 -174q-16 -22 -35 -22h-24q-19 0 -12 26l67 168h-49q-29 0 -27 31l23 127q6 31 37 31h125q32 0 26 -31l-20 -117q-1 -13 -15 -39z" />
    <glyph glyph-name="dotlessj" unicode="&#x237;" horiz-adv-x="514" 
d="M115 61l170 967q6 33 37 33h102q31 0 25 -33l-175 -983q-24 -146 -85 -213q-59 -65 -185 -65q-99 0 -141 14q-27 6 -21 33l17 86q6 26 37 24q43 -8 86 -8q109 0 133 145z" />
    <glyph glyph-name="circumflex" unicode="&#x2c6;" horiz-adv-x="690" 
d="M627 1223l-125 112l-164 -112q-27 -21 -49 -21h-84q-19 0 -19 11t13 22l227 186q22 19 47 19h84q24 0 43 -19l162 -186q10 -10 5 -22q-4 -11 -22 -11h-77q-20 0 -41 21z" />
    <glyph glyph-name="caron" unicode="&#x2c7;" horiz-adv-x="690" 
d="M489 1307l164 112q27 21 47 21h86q16 0 18 -12q1 -10 -11 -21l-228 -186q-25 -19 -49 -19h-84q-28 0 -41 19l-162 186q-10 10 -6 21q5 12 23 12h76q22 0 43 -21z" />
    <glyph glyph-name="uni02C9" unicode="&#x2c9;" horiz-adv-x="690" 
d="M768 1214h-584q-30 0 -24 31l8 53q6 31 37 31h583q31 0 25 -31l-8 -53q-6 -31 -37 -31z" />
    <glyph glyph-name="breve" unicode="&#x2d8;" horiz-adv-x="690" 
d="M489 1196q-142 0 -206 67q-65 68 -50 158q2 25 29 25h57q23 0 25 -23q5 -59 34 -88q30 -30 116 -30q87 0 123 29q39 31 65 89q8 23 33 23h57q23 0 21 -25q-45 -225 -304 -225z" />
    <glyph glyph-name="dotaccent" unicode="&#x2d9;" horiz-adv-x="690" 
d="M598 1391l-27 -158q-6 -31 -36 -31h-119q-33 0 -27 31l27 158q6 32 39 32h118q31 0 25 -32z" />
    <glyph glyph-name="ring" unicode="&#x2da;" horiz-adv-x="690" 
d="M494 1278q55 0 94 33t39 90q0 40 -29 64q-28 24 -78 24q-55 0 -94 -33t-39 -92q0 -38 29 -62q28 -24 78 -24zM530 1577q86 0 141 -47q54 -46 54 -119q0 -96 -71 -159q-69 -62 -173 -62q-86 0 -139 47t-53 119q0 95 69 158t172 63z" />
    <glyph glyph-name="ogonek" unicode="&#x2db;" horiz-adv-x="690" 
d="M274 25l80 -9q-48 -18 -65 -25q-21 -9 -62 -32q-38 -22 -58 -51q-19 -28 -19 -64q0 -49 92 -49q32 0 71 10q21 5 21 -10l2 -55q0 -21 -14 -25q-48 -26 -123 -26q-71 0 -121 30q-49 30 -49 86q0 84 74 140q76 58 171 80z" />
    <glyph glyph-name="tilde" unicode="&#x2dc;" horiz-adv-x="690" 
d="M809 1341q-27 -139 -154 -139q-75 0 -174 39l-41 16q-68 27 -100 27q-39 0 -51 -33l-8 -20q-11 -25 -41 -25h-47q-29 0 -21 39q23 137 154 137q58 0 172 -41l47 -16q77 -27 100 -27q36 0 51 41l4 17q7 26 41 26h50q26 0 18 -41z" />
    <glyph glyph-name="hungarumlaut" unicode="&#x2dd;" horiz-adv-x="690" 
d="M270 1233l133 180q17 25 48 25h114q15 0 18 -13q3 -11 -10 -24l-182 -178q-21 -21 -51 -21h-57q-15 0 -18 10t5 21zM602 1233l131 180q19 25 47 25h115q16 0 18 -14q1 -14 -8 -23l-182 -178q-21 -21 -53 -21h-56q-14 0 -17 10t5 21z" />
    <glyph glyph-name="uni037E" unicode="&#x37e;" horiz-adv-x="466" 
d="M129 444l29 156q6 33 39 33h131q32 0 26 -33l-28 -156q-6 -32 -35 -32h-135q-33 0 -27 32z" />
    <glyph glyph-name="uni0394" unicode="&#x394;" horiz-adv-x="1396" 
d="M784 1438h160q33 0 39 -37l217 -1344q4 -24 -11 -41q-15 -16 -42 -16h-1063q-27 0 -36 16q-9 17 1 41l682 1344q18 37 53 37zM836 1290l-576 -1136h764l-180 1136h-8z" />
    <glyph glyph-name="uni03A9" unicode="&#x3a9;" horiz-adv-x="1646" 
d="M977 1462q297 0 461 -137t164 -364q0 -231 -145 -418q-144 -186 -378 -297l-18 -96l280 12q19 2 27 -6t4 -25l-18 -100q-6 -31 -35 -31h-453l49 281q6 31 37 43q204 89 335 244q132 156 132 366q0 170 -114 269q-115 100 -334 100q-253 0 -433 -154t-180 -410
q0 -269 283 -415q29 -17 25 -43l-50 -281h-450q-15 0 -24 9q-10 10 -5 22l19 100q6 31 39 31l278 -12l19 96q-140 71 -227 193q-89 125 -89 294q0 311 234 520q235 209 567 209z" />
    <glyph glyph-name="uni03BC" unicode="&#x3bc;" horiz-adv-x="1210" 
d="M1157 1028l-117 -666q-68 -387 -430 -387q-146 0 -229 56q-82 55 -109 131l-61 -357q-6 -30 -39 -30h-100q-33 0 -27 32l215 1221q6 33 39 33h100q33 0 27 -33l-107 -604q-6 -30 -6 -62q0 -109 73 -173q71 -62 194 -62q252 0 299 260l112 641q6 33 39 33h100q33 0 27 -33
z" />
    <glyph glyph-name="pi" unicode="&#x3c0;" horiz-adv-x="1429" 
d="M1159 907l-102 -579q-10 -47 -10 -97q0 -56 28 -80t99 -24q48 0 88 6q32 4 32 -27l-8 -73q0 -21 -29 -29q-63 -18 -149 -18q-118 0 -174 50q-55 49 -55 159q0 50 12 116l106 596h-387l-342 -876q-12 -31 -43 -31h-100q-37 0 -25 31l344 876h-235q-31 0 -27 33l17 88
q6 33 37 33h1198q32 0 26 -33l-16 -88q-4 -33 -37 -33h-248z" />
    <glyph glyph-name="Wgrave" unicode="&#x1e80;" horiz-adv-x="2144" 
d="M1184 1438h116q36 0 41 -33l95 -825l41 -400h4l170 391l385 834q12 33 45 33h114q37 0 21 -39l-639 -1360q-21 -39 -53 -39h-148q-40 0 -41 37l-102 784l-35 363h-4l-162 -363l-375 -784q-12 -37 -53 -37h-147q-35 0 -41 39l-160 1360q-4 39 33 39h117q28 0 30 -33
l94 -834l31 -389h4l178 398l387 825q12 33 54 33zM1200 1753l88 -178q4 -11 -3 -21t-21 -10h-58q-20 0 -43 23l-164 176q-10 10 -3 23q8 14 24 14h141q27 0 39 -27z" />
    <glyph glyph-name="wgrave" unicode="&#x1e81;" horiz-adv-x="1689" 
d="M893 1061h104q26 0 31 -31l98 -651l21 -209h4l88 209l307 651q17 31 41 31h111q35 0 18 -35l-479 -995q-15 -31 -43 -31h-125q-33 0 -35 31l-92 604l-27 223h-6l-102 -223l-303 -604q-12 -31 -43 -31h-125q-29 0 -35 31l-131 995q0 35 33 35h100q24 0 29 -31l82 -651
l12 -209h4l96 209l324 651q19 31 43 31zM932 1413l88 -180q5 -13 -3 -22t-22 -9h-55q-24 0 -45 21l-166 178q-10 10 -3 23q8 14 24 14h141q25 0 41 -25z" />
    <glyph glyph-name="Wacute" unicode="&#x1e82;" horiz-adv-x="2144" 
d="M1184 1438h116q36 0 41 -33l95 -825l41 -400h4l170 391l385 834q12 33 45 33h114q37 0 21 -39l-639 -1360q-21 -39 -53 -39h-148q-40 0 -41 37l-102 784l-35 363h-4l-162 -363l-375 -784q-12 -37 -53 -37h-147q-35 0 -41 39l-160 1360q-4 39 33 39h117q28 0 30 -33
l94 -834l31 -389h4l178 398l387 825q12 33 54 33zM1245 1575l144 178q23 27 51 27h147q16 0 18 -14q1 -11 -12 -23l-221 -176q-23 -23 -53 -23h-62q-14 0 -17 10t5 21z" />
    <glyph glyph-name="wacute" unicode="&#x1e83;" horiz-adv-x="1689" 
d="M893 1061h104q26 0 31 -31l98 -651l21 -209h4l88 209l307 651q17 31 41 31h111q35 0 18 -35l-479 -995q-15 -31 -43 -31h-125q-33 0 -35 31l-92 604l-27 223h-6l-102 -223l-303 -604q-12 -31 -43 -31h-125q-29 0 -35 31l-131 995q0 35 33 35h100q24 0 29 -31l82 -651
l12 -209h4l96 209l324 651q19 31 43 31zM938 1233l143 180q22 25 49 25h148q16 0 18 -14t-12 -23l-221 -178q-23 -21 -51 -21h-62q-14 0 -18 10t6 21z" />
    <glyph glyph-name="Wdieresis" unicode="&#x1e84;" horiz-adv-x="2144" 
d="M1184 1438h116q36 0 41 -33l95 -825l41 -400h4l170 391l385 834q12 33 45 33h114q37 0 21 -39l-639 -1360q-21 -39 -53 -39h-148q-40 0 -41 37l-102 784l-35 363h-4l-162 -363l-375 -784q-12 -37 -53 -37h-147q-35 0 -41 39l-160 1360q-4 39 33 39h117q28 0 30 -33
l94 -834l31 -389h4l178 398l387 825q12 33 54 33zM1192 1720l-27 -143q-6 -33 -39 -33h-114q-31 0 -25 33l27 143q6 33 35 33h114q35 0 29 -33zM1575 1720l-27 -143q-6 -33 -39 -33h-114q-31 0 -25 33l27 143q6 33 35 33h114q35 0 29 -33z" />
    <glyph glyph-name="wdieresis" unicode="&#x1e85;" horiz-adv-x="1689" 
d="M893 1061h104q26 0 31 -31l98 -651l21 -209h4l88 209l307 651q17 31 41 31h111q35 0 18 -35l-479 -995q-15 -31 -43 -31h-125q-33 0 -35 31l-92 604l-27 223h-6l-102 -223l-303 -604q-12 -31 -43 -31h-125q-29 0 -35 31l-131 995q0 35 33 35h100q24 0 29 -31l82 -651
l12 -209h4l96 209l324 651q19 31 43 31zM907 1386l-26 -153q-6 -31 -37 -31h-107q-32 0 -26 31l26 153q6 31 39 31h107q30 0 24 -31zM1276 1386l-27 -153q-6 -31 -37 -31h-106q-33 0 -27 31l27 153q6 31 39 31h106q31 0 25 -31z" />
    <glyph glyph-name="Ygrave" unicode="&#x1ef2;" horiz-adv-x="1310" 
d="M754 528l-88 -493q-6 -35 -39 -35h-109q-35 0 -29 35l89 493l-347 871q-6 15 1 26q8 13 28 13h115q14 0 22 -5q10 -6 11 -10l8 -16l196 -510l74 -215l156 215l377 510q23 31 49 31h123q20 0 23 -14t-7 -25zM801 1753l88 -178q5 -11 -3 -21q-7 -10 -22 -10h-57
q-20 0 -43 23l-164 176q-10 10 -3 23q8 14 24 14h141q27 0 39 -27z" />
    <glyph glyph-name="ygrave" unicode="&#x1ef3;" horiz-adv-x="1026" 
d="M1073 1026l-502 -958q-80 -167 -163 -234t-232 -67q-94 0 -145 22q-26 10 -19 31l39 84q15 24 39 22q67 -14 103 -14q91 0 135 50q43 49 26 130l-198 934q-6 35 28 35h105q23 0 28 -31l111 -538l49 -318h4l154 318l266 538q17 31 41 31h113q35 0 18 -35zM557 1413
l88 -180q5 -13 -3 -22t-21 -9h-56q-24 0 -45 21l-166 178q-10 10 -3 23q8 14 24 14h141q25 0 41 -25z" />
    <glyph glyph-name="figuredash" unicode="&#x2012;" horiz-adv-x="1150" 
d="M993 492h-831q-26 0 -25 30l15 80q6 29 36 29h830q30 0 24 -29l-14 -80q-4 -30 -35 -30z" />
    <glyph glyph-name="endash" unicode="&#x2013;" horiz-adv-x="1071" 
d="M948 461h-831q-29 0 -23 28l15 84q6 29 34 29h830q32 0 26 -29l-14 -84q-6 -28 -37 -28z" />
    <glyph glyph-name="emdash" unicode="&#x2014;" horiz-adv-x="1579" 
d="M1456 461h-1339q-29 0 -23 28l15 84q6 29 34 29h1338q34 0 28 -29l-14 -84q-6 -28 -39 -28z" />
    <glyph glyph-name="quoteleft" unicode="&#x2018;" horiz-adv-x="436" 
d="M264 1225l117 202q15 21 35 21h43q25 0 14 -29l-92 -194h49q31 0 25 -33l-27 -156q-6 -30 -37 -30h-139q-33 0 -27 30l25 146q5 24 14 43z" />
    <glyph glyph-name="quoteright" unicode="&#x2019;" horiz-adv-x="436" 
d="M436 1219l-117 -203q-11 -23 -34 -23h-43q-25 0 -13 29l90 197h-47q-32 0 -26 32l26 154q6 33 39 33h140q32 0 26 -33l-24 -143q-1 -20 -17 -43z" />
    <glyph glyph-name="quotesinglbase" unicode="&#x201a;" horiz-adv-x="436" 
d="M223 0l-117 -203q-10 -22 -34 -22h-43q-25 0 -13 28l90 197h-47q-32 0 -26 33l26 153q6 33 39 33h140q32 0 26 -33l-24 -143q-1 -20 -17 -43z" />
    <glyph glyph-name="quotedblleft" unicode="&#x201c;" horiz-adv-x="774" 
d="M602 1225l117 202q15 21 35 21h43q23 0 12 -29l-90 -194h47q33 0 27 -33l-27 -156q-6 -30 -39 -30h-139q-33 0 -27 30l25 146q0 3 2 8t2 7q1 6 6 14q4 7 6 14zM264 1225l117 202q15 21 35 21h43q25 0 14 -29l-92 -194h49q31 0 25 -33l-27 -156q-6 -30 -37 -30h-139
q-33 0 -27 30l25 146q5 24 14 43z" />
    <glyph glyph-name="quotedblright" unicode="&#x201d;" horiz-adv-x="774" 
d="M436 1219l-117 -203q-12 -23 -34 -23h-43q-25 0 -13 29l90 197h-47q-32 0 -26 30l26 156q6 33 39 33h140q32 0 26 -33l-24 -143q-2 -24 -17 -43zM774 1219l-117 -203q-11 -23 -34 -23h-43q-27 0 -15 29l92 197h-49q-30 0 -24 30l26 156q6 33 37 33h141q31 0 25 -33
l-25 -143q-1 -26 -14 -43z" />
    <glyph glyph-name="quotedblbase" unicode="&#x201e;" horiz-adv-x="774" 
d="M223 0l-117 -203q-12 -22 -34 -22h-43q-25 0 -13 28l90 197h-47q-32 0 -26 31l26 155q6 33 39 33h140q32 0 26 -33l-24 -143q-2 -24 -17 -43zM561 0l-117 -203q-10 -22 -34 -22h-43q-27 0 -15 28l92 197h-49q-30 0 -24 31l26 155q6 33 37 33h141q31 0 25 -33l-25 -143
q-1 -26 -14 -43z" />
    <glyph glyph-name="dagger" unicode="&#x2020;" horiz-adv-x="1075" 
d="M1092 1028l-15 -78q-6 -32 -37 -32h-344l-194 -1111q-6 -32 -37 -32h-100q-31 0 -25 32l195 1111h-345q-32 0 -26 32l14 78q6 33 39 33h344l62 346q6 31 34 31h101q32 0 26 -31l-61 -346h344q31 0 25 -33z" />
    <glyph glyph-name="daggerdbl" unicode="&#x2021;" horiz-adv-x="1081" 
d="M961 264l-15 -80q-6 -30 -35 -30h-344l-61 -347q-6 -32 -39 -32h-98q-33 0 -27 32l61 347h-344q-32 0 -26 30l14 80q6 31 37 31h344l109 623h-344q-31 0 -25 32l14 78q6 33 37 33h344l62 346q6 31 37 31h98q34 0 28 -31l-61 -346h344q31 0 25 -33l-15 -78q-6 -32 -37 -32
h-344l-108 -623h344q31 0 25 -31z" />
    <glyph glyph-name="bullet" unicode="&#x2022;" horiz-adv-x="759" 
d="M344 279q-103 0 -164 62t-61 161q0 128 95 228q94 99 230 99q104 0 164 -59q62 -60 62 -158q0 -129 -95 -232q-94 -101 -231 -101z" />
    <glyph glyph-name="onedotenleader" unicode="&#x2024;" horiz-adv-x="466" 
d="M57 33l29 155q6 33 39 33h131q33 0 27 -33l-29 -155q-6 -33 -35 -33h-135q-33 0 -27 33z" />
    <glyph glyph-name="twodotenleader" unicode="&#x2025;" horiz-adv-x="925" 
d="M516 33l29 155q6 33 39 33h131q32 0 26 -33l-28 -155q-6 -33 -35 -33h-135q-33 0 -27 33zM57 33l29 155q6 33 39 33h131q33 0 27 -33l-29 -155q-6 -33 -35 -33h-135q-33 0 -27 33z" />
    <glyph glyph-name="ellipsis" unicode="&#x2026;" horiz-adv-x="1400" 
d="M57 33l29 155q6 33 39 33h131q33 0 27 -33l-29 -155q-6 -33 -35 -33h-135q-33 0 -27 33zM524 33l29 155q6 33 39 33h133q31 0 25 -33l-29 -155q-6 -33 -35 -33h-135q-33 0 -27 33zM991 33l29 155q6 33 39 33h133q31 0 25 -33l-29 -155q-6 -33 -35 -33h-133q-35 0 -29 33z
" />
    <glyph glyph-name="perthousand" unicode="&#x2030;" horiz-adv-x="2719" 
d="M1626 1407l-1106 -1380q-22 -27 -47 -27h-102q-40 0 -13 33l1104 1380q22 25 49 25h103q13 0 18 -8t-6 -23zM190 1026q37 210 140 319q101 107 256 107q133 0 211 -79q77 -78 77 -230q0 -53 -10 -117q-38 -209 -140 -316q-104 -108 -257 -108q-133 0 -210 80t-77 229
q0 51 10 115zM717 1026q10 59 10 104q0 187 -149 187q-92 0 -155 -74t-87 -217q-10 -63 -10 -104q0 -185 149 -185q190 0 242 289zM1122 412q37 209 140 318q102 108 256 108q133 0 211 -79q77 -78 77 -231q0 -52 -10 -116q-38 -210 -140 -317q-103 -107 -257 -107
q-133 0 -210 80t-77 229q0 51 10 115zM1649 412q10 63 10 104q0 186 -150 186q-91 0 -154 -73q-63 -74 -87 -217q-11 -69 -11 -105q0 -184 150 -184q191 0 242 289zM1944 412q37 210 139 318t256 108q133 0 211 -79t78 -231q0 -45 -11 -116q-38 -210 -140 -317
q-103 -107 -257 -107q-131 0 -209 80t-78 229q0 44 11 115zM2470 412q10 63 10 104q0 186 -149 186q-92 0 -155 -73q-63 -74 -87 -217q-10 -63 -10 -105q0 -184 149 -184q190 0 242 289z" />
    <glyph glyph-name="guilsinglleft" unicode="&#x2039;" horiz-adv-x="516" 
d="M90 555l8 16l219 277q21 24 48 24h88q16 0 19 -10t-7 -24l-227 -283l127 -281q7 -14 0 -24t-25 -10h-88q-25 0 -37 24l-123 277q-2 8 -2 14z" />
    <glyph glyph-name="guilsinglright" unicode="&#x203a;" horiz-adv-x="516" 
d="M455 555q0 -8 -6 -14l-222 -277q-18 -24 -43 -24h-88q-16 0 -20 9q-4 8 8 25l225 281l-125 283q-7 14 0 24t25 10h88q27 0 33 -24l125 -277q4 -10 0 -16z" />
    <glyph glyph-name="exclamdbl" unicode="&#x203c;" horiz-adv-x="1171" 
d="M115 33l28 162q6 30 37 30h146q30 0 24 -30l-28 -162q-6 -33 -35 -33h-146q-32 0 -26 33zM322 406h-76q-33 0 -27 32l139 967q6 33 39 33h138q32 0 26 -33l-201 -967q-6 -32 -38 -32zM694 33l29 162q6 30 37 30h145q31 0 25 -30l-29 -162q-6 -33 -35 -33h-145
q-33 0 -27 33zM901 406h-76q-32 0 -26 32l139 967q6 33 39 33h137q33 0 27 -33l-201 -967q-6 -32 -39 -32z" />
    <glyph glyph-name="fraction" unicode="&#x2044;" horiz-adv-x="153" 
d="M756 1407l-1106 -1380q-22 -27 -47 -27h-103q-39 0 -12 33l1104 1380q23 25 47 25h102q37 0 15 -31z" />
    <glyph glyph-name="zero.superior" unicode="&#x2070;" 
d="M543 987q-157 0 -243 89q-85 88 -85 245q0 55 12 117q37 207 150 329q112 121 295 121q155 0 238 -89t83 -245q0 -67 -10 -116q-39 -210 -149 -330q-111 -121 -291 -121zM551 1124q230 0 280 314q11 69 11 108q0 205 -183 205q-225 0 -280 -313q-12 -62 -12 -111
q0 -203 184 -203z" />
    <glyph glyph-name="four.superior" unicode="&#x2074;" 
d="M741 1683l-370 -360h307zM903 1188h-104l-27 -154q-6 -37 -43 -37h-72q-36 0 -30 37l26 154h-440q-37 0 -31 37l11 57q1 19 20 35l551 536q30 25 45 25h74q36 0 30 -37l-90 -518h105q38 0 28 -37l-10 -61q-6 -37 -43 -37z" />
    <glyph glyph-name="five.superior" unicode="&#x2075;" 
d="M504 983q-88 0 -171 15q-80 15 -116 34q-33 18 -18 43l34 62q18 35 50 22q104 -43 221 -43q111 0 178 49q68 50 68 154q0 111 -177 111q-61 0 -128 -16q-63 -15 -87 -15q-30 0 -43 8l-22 16q-20 12 -14 35q81 316 92 375q6 41 53 41h481q37 0 31 -37l-10 -61
q-6 -37 -43 -37h-394q-21 -101 -55 -221q99 34 178 34q144 0 217 -63q74 -63 74 -162q0 -173 -113 -258q-115 -86 -286 -86z" />
    <glyph glyph-name="six.superior" unicode="&#x2076;" 
d="M887 1731q-74 26 -156 26q-117 0 -202 -70q-84 -69 -111 -188q100 115 264 115q136 0 206 -72q70 -71 70 -180q0 -164 -111 -269q-112 -106 -274 -106q-161 0 -245 87t-84 237q0 47 10 106q35 204 159 337q125 134 308 134q151 0 225 -39q31 -16 17 -41l-33 -59
q-15 -28 -43 -18zM582 1120q104 0 169 67q64 65 64 167q0 131 -172 131q-98 0 -169 -62t-71 -153q0 -66 44 -108q43 -42 135 -42z" />
    <glyph glyph-name="seven.superior" unicode="&#x2077;" 
d="M993 1841l-8 -47q-1 -10 -27 -47q-164 -185 -294 -381q-133 -200 -162 -332q-6 -37 -43 -37h-78q-35 0 -29 37q60 278 459 709h-446q-37 0 -31 37l10 61q7 37 43 37h574q39 0 32 -37z" />
    <glyph glyph-name="eight.superior" unicode="&#x2078;" 
d="M543 987q-152 0 -242 64q-88 63 -88 157q0 178 240 244q-65 22 -105 70q-39 46 -39 108q0 133 111 196q109 62 252 62q141 0 222 -57t81 -148q0 -168 -213 -231q164 -47 164 -186q0 -98 -63 -164q-64 -67 -144 -90q-86 -25 -176 -25zM598 1397q-236 -47 -236 -168
q0 -50 49 -85q47 -34 136 -34q85 0 158 40t73 114q0 96 -180 133zM616 1505q209 51 209 166q0 92 -161 92q-80 0 -143 -30q-62 -30 -62 -99q0 -89 157 -129z" />
    <glyph glyph-name="nine.superior" unicode="&#x2079;" 
d="M322 1145q79 -35 155 -35q121 0 204 74t110 192q-99 -114 -261 -114q-135 0 -207 73q-73 75 -73 185q0 164 111 266t274 102q162 0 246 -87t84 -236q0 -43 -11 -107q-39 -217 -158 -343q-120 -128 -309 -128q-151 0 -225 39q-31 17 -16 41l35 59q17 31 41 19zM627 1755
q-105 0 -169 -65q-65 -67 -65 -164q0 -135 172 -135q100 0 169 62q71 63 71 155q0 63 -45 105t-133 42z" />
    <glyph glyph-name="parenleft.superior" unicode="&#x207d;" horiz-adv-x="479" 
d="M274 1333q0 151 74 299q74 147 199 244q17 14 31 14h75q13 0 16 -8t-5 -16q-116 -107 -181 -251q-65 -145 -65 -304q0 -172 96 -301q2 -8 2 -12t-6 -9q-5 -4 -14 -4h-76q-17 0 -27 14q-119 128 -119 334z" />
    <glyph glyph-name="parenright.superior" unicode="&#x207e;" horiz-adv-x="479" 
d="M543 1534q0 -146 -74 -296q-74 -149 -197 -239q-21 -14 -32 -14h-72q-14 0 -17 8q-3 9 5 17q245 255 245 546q0 176 -98 310q-6 10 0 17t21 7h73q18 0 29 -14q117 -144 117 -342z" />
    <glyph glyph-name="n.superior" unicode="&#x207f;" horiz-adv-x="999" 
d="M403 1880h72q39 0 33 -37l-16 -100q96 147 315 147q136 0 204 -65t68 -180q0 -35 -6 -76l-94 -535q-6 -37 -45 -37h-76q-35 0 -29 37l91 512q16 99 -26 152t-144 53q-115 0 -199 -67q-82 -66 -100 -171l-84 -479q-6 -37 -43 -37h-76q-35 0 -29 37l141 809q6 37 43 37z
" />
    <glyph glyph-name="zero.inferior" unicode="&#x2080;" 
d="M291 -451q-156 0 -243 90q-85 88 -85 244q0 55 12 117q37 208 150 330q112 121 295 121q154 0 238 -90q83 -89 83 -244q0 -68 -10 -117q-39 -210 -149 -330q-111 -121 -291 -121zM299 -313q232 0 281 313q10 63 10 109q0 204 -182 204q-226 0 -281 -313q-12 -62 -12 -111
q0 -202 184 -202z" />
    <glyph glyph-name="one.inferior" unicode="&#x2081;" 
d="M381 250l-180 -103q-37 -21 -54 9l-28 53q-10 28 20 49l267 168q27 14 49 14h67q37 0 31 -37l-141 -806q-6 -37 -43 -37h-72q-37 0 -31 37z" />
    <glyph glyph-name="two.inferior" unicode="&#x2082;" 
d="M195 137q0 -47 -41 -47h-70q-33 0 -33 31q0 149 92 239q93 91 267 91q148 0 221 -67q71 -65 71 -167q0 -88 -48 -169q-47 -79 -141 -152q-90 -69 -153 -109q-58 -36 -159 -92h395q37 0 31 -37l-11 -61q-6 -37 -43 -37h-587q-38 0 -31 37l10 55q4 21 31 37q8 5 84 49
q63 36 104 61q24 14 102 67q58 39 103 79q36 32 81 80q41 44 61 92t20 92q0 108 -154 108q-93 0 -148 -47q-54 -46 -54 -133z" />
    <glyph glyph-name="three.inferior" unicode="&#x2083;" 
d="M311 -55h-98q-37 0 -31 37l11 57q6 37 43 37h100q78 0 136 37t58 106q0 98 -180 98q-96 0 -219 -43q-37 -12 -43 19l-14 63q-4 22 30 39q120 56 269 56q141 0 225 -57t84 -152q0 -76 -45 -136q-43 -58 -115 -92q109 -53 109 -161q0 -153 -112 -229q-111 -75 -267 -75
q-86 0 -173 19q-83 18 -120 39q-32 18 -20 39l34 63q21 35 52 23q111 -49 221 -49q93 0 163 41q68 40 68 122q0 99 -166 99z" />
    <glyph glyph-name="four.inferior" unicode="&#x2084;" 
d="M489 246l-370 -361h307zM651 -250h-104l-27 -153q-6 -37 -43 -37h-71q-37 0 -31 37l26 153h-440q-37 0 -31 37l11 57q1 19 20 35l551 537q28 24 45 24h74q37 0 31 -37l-91 -518h105q36 0 29 -37l-11 -61q-6 -37 -43 -37z" />
    <glyph glyph-name="five.inferior" unicode="&#x2085;" 
d="M252 -455q-83 0 -171 16q-83 15 -116 33q-34 19 -18 44l35 61q18 34 49 22q104 -43 221 -43q110 0 178 50t68 153q0 111 -176 111q-61 0 -128 -16q-63 -15 -88 -15q-30 0 -43 8l-22 17q-20 11 -14 34q81 316 92 375q6 41 53 41h481q37 0 31 -37l-10 -61q-6 -37 -43 -37
h-393q-18 -89 -56 -221q102 35 178 35q143 0 218 -64q73 -63 73 -162q0 -173 -113 -258q-115 -86 -286 -86z" />
    <glyph glyph-name="six.inferior" unicode="&#x2086;" 
d="M635 293q-74 26 -156 26q-116 0 -201 -70t-112 -188q100 115 264 115q136 0 206 -72q71 -73 71 -180q0 -163 -112 -269t-273 -106q-162 0 -246 87t-84 237q0 48 10 107q34 202 159 336q126 135 308 135q151 0 225 -39q31 -16 17 -41l-33 -60q-15 -28 -43 -18zM330 -317
q104 0 169 66q64 65 64 167q0 131 -172 131q-102 0 -170 -61q-69 -62 -69 -154q0 -65 44 -107t134 -42z" />
    <glyph glyph-name="seven.inferior" unicode="&#x2087;" 
d="M741 403l-8 -47q-1 -12 -26 -47q-167 -189 -295 -381q-133 -200 -162 -331q-6 -37 -43 -37h-78q-35 0 -29 37q60 277 459 708h-446q-37 0 -31 37l10 61q7 37 43 37h574q39 0 32 -37z" />
    <glyph glyph-name="eight.inferior" unicode="&#x2088;" 
d="M291 -451q-152 0 -242 64q-88 63 -88 158q0 177 240 243q-65 22 -105 70q-39 46 -39 109q0 132 111 195t252 63q140 0 222 -58q81 -57 81 -147q0 -169 -213 -232q164 -47 164 -186q0 -98 -63 -164q-64 -67 -144 -90q-86 -25 -176 -25zM346 -41q-235 -46 -235 -168
q0 -51 48 -85q47 -34 136 -34q85 0 158 40t73 114q0 96 -180 133zM365 68q208 51 208 165q0 93 -161 93q-78 0 -143 -31q-62 -30 -62 -98q0 -88 158 -129z" />
    <glyph glyph-name="nine.inferior" unicode="&#x2089;" 
d="M70 -293q79 -35 155 -35q121 0 204 74t110 193q-100 -115 -260 -115q-136 0 -208 74q-73 75 -73 184q0 163 112 266t273 103q162 0 246 -87t84 -237q0 -43 -11 -107q-39 -217 -158 -343q-120 -128 -308 -128q-152 0 -226 39q-31 17 -16 41l35 60q17 30 41 18zM375 317
q-105 0 -169 -65q-65 -67 -65 -164q0 -135 172 -135q100 0 169 62q71 63 71 155q0 63 -45 105t-133 42z" />
    <glyph glyph-name="parenleft.inferior" unicode="&#x208d;" horiz-adv-x="479" 
d="M23 -104q0 153 73 299t199 243q18 15 31 15h75q12 0 16 -9q3 -8 -5 -16q-116 -107 -181 -251q-65 -145 -65 -304q0 -172 96 -301q2 -8 2 -11q0 -5 -6 -10q-5 -4 -14 -4h-76q-16 0 -27 15q-118 127 -118 334z" />
    <glyph glyph-name="parenright.inferior" unicode="&#x208e;" horiz-adv-x="479" 
d="M291 96q0 -146 -74 -296q-73 -147 -197 -238q-23 -15 -32 -15h-72q-13 0 -17 9q-3 8 5 16q246 257 246 547q0 174 -99 309q-6 10 0 17q6 8 21 8h73q17 0 29 -15q117 -144 117 -342z" />
    <glyph glyph-name="Euro" unicode="&#x20ac;" horiz-adv-x="1333" 
d="M109 627h137l12 92l21 92h-138q-30 0 -24 31l12 69q6 29 35 29h151q85 217 275 369q188 151 454 151q207 0 365 -86q25 -13 10 -37l-57 -88q-21 -30 -47 -20q-121 69 -266 69q-202 0 -346 -105q-142 -103 -209 -253h563q28 0 16 -33l-33 -65q-17 -31 -49 -31h-534
q-10 -38 -21 -92l-12 -92h432q32 0 16 -33l-32 -66q-16 -30 -49 -30h-373q7 -146 118 -252q110 -105 316 -105q151 0 293 70q28 10 39 -23l24 -90q4 -20 -22 -32q-160 -86 -359 -86q-275 0 -428 153q-154 154 -166 365h-147q-31 0 -25 30l13 68q6 31 35 31z" />
    <glyph glyph-name="afii61289" unicode="&#x2113;" horiz-adv-x="993" 
d="M580 131q69 0 139 19q29 8 29 -19l4 -86q0 -19 -29 -31q-68 -28 -191 -28q-290 0 -290 247q0 47 8 97l18 104q-127 -38 -194 -49q-23 -5 -25 14l-8 82q-4 21 18 25q119 25 234 65l69 394q45 258 133 378q87 119 285 119q132 0 198 -67t66 -183q0 -36 -6 -77
q-38 -213 -203 -371q-168 -160 -397 -262l-26 -154q-9 -49 -9 -80q0 -76 41 -106q42 -31 136 -31zM526 993l-61 -346q387 196 438 490q6 35 6 61q0 137 -135 137q-123 0 -168 -73q-46 -74 -80 -269z" />
    <glyph glyph-name="trademark" unicode="&#x2122;" horiz-adv-x="1429" 
d="M674 1333h-150l-94 -538q-2 -21 -27 -21h-73q-20 0 -19 21l95 538h-150q-21 0 -16 23l12 61q2 21 22 21h418q20 0 19 -21l-13 -61q-5 -23 -24 -23zM1083 950q-13 0 -18 15l-145 295l-82 -465q-2 -21 -27 -21h-72q-19 0 -18 21l110 622q1 21 25 21h74q20 0 28 -17
l150 -317l262 317q15 17 31 17h84q19 0 18 -21l-110 -622q-1 -21 -27 -21h-72q-18 0 -16 21l82 462l-248 -292q-15 -15 -29 -15z" />
    <glyph glyph-name="Omega" unicode="&#x2126;" horiz-adv-x="1646" 
d="M977 1462q297 0 461 -137t164 -364q0 -231 -145 -418q-144 -186 -378 -297l-18 -96l280 12q19 2 27 -6t4 -25l-18 -100q-6 -31 -35 -31h-453l49 281q6 31 37 43q204 89 335 244q132 156 132 366q0 170 -114 269q-115 100 -334 100q-253 0 -433 -154t-180 -410
q0 -269 283 -415q29 -17 25 -43l-50 -281h-450q-15 0 -24 9q-10 10 -5 22l19 100q6 31 39 31l278 -12l19 96q-140 71 -227 193q-89 125 -89 294q0 311 234 520q235 209 567 209z" />
    <glyph glyph-name="estimated" unicode="&#x212e;" horiz-adv-x="1753" 
d="M1679 686h-1286q-10 0 -10 -8v-379q0 -39 16 -59q170 -197 492 -197q324 0 516 223h119q-111 -132 -279 -209q-163 -75 -358 -75q-338 0 -573 215q-234 215 -234 518q0 307 230 521t569 214q338 0 568 -214t230 -521v-29zM1378 748v380q0 51 -22 74q-192 187 -473 187
q-289 0 -482 -199q-18 -18 -18 -60v-382q0 -13 10 -13h975q10 0 10 13z" />
    <glyph glyph-name="onethird" unicode="&#x2153;" horiz-adv-x="2043" 
d="M555 1247l-180 -102q-37 -20 -53 8l-29 53q-10 28 20 49l267 168q29 15 49 15h67q37 0 31 -37l-141 -807q-6 -37 -43 -37h-72q-37 0 -31 37zM1612 1407l-1106 -1380q-23 -27 -47 -27h-103q-39 0 -12 33l1104 1380q23 25 47 25h102q37 0 15 -31zM1405 385h98
q166 0 166 -98q0 -83 -68 -123q-70 -41 -163 -41q-110 0 -221 49q-31 12 -52 -22l-35 -64q-12 -21 21 -39q37 -21 120 -39t173 -18q156 0 267 75q112 76 112 228q0 109 -109 162q72 34 115 92q45 60 45 135q0 96 -84 153q-83 56 -225 56q-152 0 -269 -55q-34 -16 -30 -39
l14 -64q6 -30 43 -18q123 43 219 43q180 0 180 -99q0 -69 -58 -106t-136 -37h-101q-37 0 -43 -37l-10 -57q-6 -37 31 -37z" />
    <glyph glyph-name="twothirds" unicode="&#x2154;" horiz-adv-x="2043" 
d="M369 1135q0 -48 -41 -48h-70q-33 0 -33 31q0 150 92 240t267 90q148 0 221 -67q72 -66 72 -167q0 -85 -49 -168q-48 -81 -141 -153q-94 -73 -152 -109q-50 -31 -160 -92h395q37 0 31 -37l-10 -61q-6 -37 -43 -37h-588q-38 0 -31 37l10 55q4 21 31 37q8 5 84 49
q18 10 104 62q38 23 102 66q58 39 103 79q36 32 81 80q43 46 62 92q19 45 19 92q0 109 -154 109q-93 0 -148 -47q-54 -46 -54 -133zM1718 1407l-1106 -1380q-22 -27 -47 -27h-102q-39 0 -12 33l1103 1380q23 25 48 25h102q37 0 14 -31zM1503 385h-98q-37 0 -31 37l10 57
q6 37 43 37h101q78 0 136 37t58 106q0 99 -180 99q-96 0 -219 -43q-37 -12 -43 18l-14 64q-4 23 30 39q117 55 269 55q142 0 225 -56q84 -57 84 -153q0 -75 -45 -135q-43 -58 -115 -92q109 -53 109 -162q0 -152 -112 -228q-111 -75 -267 -75q-90 0 -173 18t-120 39
q-33 18 -21 39l35 64q21 34 52 22q111 -49 221 -49q93 0 163 41q68 40 68 123q0 98 -166 98z" />
    <glyph glyph-name="oneeighth" unicode="&#x215b;" horiz-adv-x="2043" 
d="M555 1247l-180 -102q-37 -20 -53 8l-29 53q-10 28 20 49l267 168q29 15 49 15h67q37 0 31 -37l-141 -807q-6 -37 -43 -37h-72q-37 0 -31 37zM1649 1407l-1106 -1380q-23 -27 -47 -27h-103q-39 0 -12 33l1104 1380q23 25 47 25h102q38 0 15 -31zM1540 -10q94 0 176 24
t145 90q62 65 62 164q0 140 -164 187q213 63 213 231q0 91 -81 148t-222 57t-252 -63q-110 -62 -110 -195q0 -63 39 -109q39 -47 104 -69q-240 -66 -240 -244q0 -95 88 -158t242 -63zM1595 399q181 -38 181 -133q0 -72 -74 -113q-73 -40 -158 -40q-90 0 -136 33
q-48 35 -48 85q0 122 235 168zM1614 508q-158 41 -158 129q0 68 63 98q65 31 142 31q162 0 162 -92q0 -113 -209 -166z" />
    <glyph glyph-name="threeeighths" unicode="&#x215c;" horiz-adv-x="2043" 
d="M428 942h-98q-37 0 -31 37l10 57q6 37 43 37h101q78 0 136 37t58 107q0 98 -180 98q-96 0 -219 -43q-37 -12 -43 18l-15 64q-4 22 31 39q117 55 268 55q143 0 226 -56q84 -57 84 -153q0 -75 -45 -135q-43 -58 -115 -92q109 -53 109 -162q0 -152 -112 -228
q-111 -75 -267 -75q-91 0 -173 18t-120 39q-33 18 -21 39l35 64q21 34 51 22q111 -49 221 -49q93 0 163 41q69 41 69 123q0 98 -166 98zM1679 1407l-1106 -1380q-23 -27 -47 -27h-102q-39 0 -12 33l1104 1380q22 25 47 25h102q37 0 14 -31zM1540 -10q-154 0 -242 63t-88 158
q0 178 240 244q-65 22 -104 69q-39 46 -39 109q0 133 110 195q111 63 252 63t222 -57t81 -148q0 -168 -213 -231q164 -47 164 -187q0 -99 -62 -164q-63 -66 -145 -90t-176 -24zM1595 399q-235 -46 -235 -168q0 -51 48 -85q46 -33 136 -33q85 0 158 40q74 41 74 113
q0 95 -181 133zM1614 508q209 53 209 166q0 92 -162 92q-77 0 -142 -31q-63 -30 -63 -98q0 -88 158 -129z" />
    <glyph glyph-name="fiveeighths" unicode="&#x215d;" horiz-adv-x="2043" 
d="M426 543q171 0 286 86q113 85 113 258q0 99 -73 162q-74 63 -217 63q-77 0 -179 -35q38 132 56 221h393q37 0 43 37l10 62q6 37 -31 37h-481q-47 0 -53 -41q-11 -59 -92 -375q-6 -23 14 -35l23 -16q14 -9 43 -9q20 0 87 16q63 15 128 15q176 0 176 -110q0 -104 -68 -154
q-67 -49 -178 -49q-117 0 -221 43q-31 12 -49 -23l-35 -61q-15 -25 18 -43q35 -19 116 -34q83 -15 171 -15zM1681 1407l-1106 -1380q-23 -27 -47 -27h-102q-39 0 -12 33l1104 1380q23 25 47 25h102q37 0 14 -31zM1540 -10q94 0 176 24t145 90q62 65 62 164q0 140 -164 187
q213 63 213 231q0 91 -81 148t-222 57t-252 -63q-110 -62 -110 -195q0 -63 39 -109q39 -47 104 -69q-240 -66 -240 -244q0 -95 88 -158t242 -63zM1595 399q181 -38 181 -133q0 -72 -74 -113q-73 -40 -158 -40q-90 0 -136 33q-48 35 -48 85q0 122 235 168zM1614 508
q-158 41 -158 129q0 68 63 98q65 31 142 31q162 0 162 -92q0 -113 -209 -166z" />
    <glyph glyph-name="seveneighths" unicode="&#x215e;" horiz-adv-x="2043" 
d="M915 1401l-8 -47q-1 -12 -26 -47q-167 -189 -295 -381q-133 -200 -162 -332q-6 -37 -43 -37h-78q-35 0 -29 37q60 278 459 709h-446q-37 0 -31 36l10 62q7 37 43 37h574q39 0 32 -37zM1573 1407l-1106 -1380q-23 -27 -47 -27h-103q-39 0 -12 33l1104 1380q22 25 47 25
h103q36 0 14 -31zM1540 -10q-154 0 -242 63t-88 158q0 178 240 244q-65 22 -104 69q-39 46 -39 109q0 133 110 195q111 63 252 63t222 -57t81 -148q0 -168 -213 -231q164 -47 164 -187q0 -99 -62 -164q-63 -66 -145 -90t-176 -24zM1595 399q-235 -46 -235 -168q0 -51 48 -85
q46 -33 136 -33q85 0 158 40q74 41 74 113q0 95 -181 133zM1614 508q209 53 209 166q0 92 -162 92q-77 0 -142 -31q-63 -30 -63 -98q0 -88 158 -129z" />
    <glyph glyph-name="arrowleft" unicode="&#x2190;" horiz-adv-x="1329" 
d="M829 963l-454 -359l831 4q35 0 29 -30l-16 -91q-1 -30 -39 -30l-832 4l330 -359q8 -11 2 -22q-6 -12 -23 -12h-122q-21 0 -33 16l-363 420q-9 14 -8 28t19 27l509 420q27 18 39 18h123q15 0 18 -13t-10 -21z" />
    <glyph glyph-name="arrowup" unicode="&#x2191;" horiz-adv-x="1329" 
d="M1108 498l-289 393l-143 -834q-4 -32 -35 -32h-90q-31 0 -27 32l152 834l-428 -393q-8 -6 -17 -8q-6 -1 -12 5q-4 4 -4 15l23 125q4 22 22 37l498 434q12 12 30 12q14 0 25 -12l344 -434q15 -18 10 -37l-22 -125q0 -11 -7 -15q-10 -6 -16 -5q-8 2 -14 8z" />
    <glyph glyph-name="arrowright" unicode="&#x2192;" horiz-adv-x="1329" 
d="M1004 604l-332 359q-8 11 -2 22q6 12 20 12h123q19 0 37 -18l360 -420q8 -13 7 -27q-4 -20 -17 -28l-508 -420q-20 -16 -43 -16h-123q-16 0 -18 12q-2 13 12 22l457 359l-834 -4q-33 0 -28 30l16 91q6 30 39 30z" />
    <glyph glyph-name="arrowdown" unicode="&#x2193;" horiz-adv-x="1329" 
d="M260 567l289 -393l143 832q6 34 37 34h90q31 0 25 -34l-152 -832l428 393q11 10 24 5q11 -4 9 -19l-20 -123q-4 -21 -25 -37l-498 -436q-12 -12 -28 -12t-27 12l-344 436q-12 17 -8 37l20 123q1 14 17 19q15 4 20 -5z" />
    <glyph glyph-name="arrowboth" unicode="&#x2194;" horiz-adv-x="2052" 
d="M1726 604l-329 359q-8 11 -2 22q6 12 20 12h123q22 0 37 -18l360 -420q8 -13 7 -27q-4 -17 -17 -28l-508 -420q-22 -16 -43 -16h-123q-17 0 -18 12q-2 13 12 22l455 359l-686 -12l-666 12l330 -359q8 -11 2 -22q-6 -12 -23 -12h-122q-21 0 -33 16l-363 420q-9 14 -8 28
q5 17 19 27l509 420q27 18 39 18h123q15 0 18 -13t-10 -21l-454 -359l667 10z" />
    <glyph glyph-name="arrowupdn" unicode="&#x2195;" horiz-adv-x="1329" 
d="M659 45l428 393q11 10 25 5q11 -4 10 -19l-22 -123q-2 -18 -25 -37l-495 -434q-14 -14 -31 -14q-14 0 -25 14l-344 434q-14 19 -12 37l22 123q1 14 16 19q14 5 21 -5l291 -393l76 496l96 479l-430 -393q-6 -5 -16 -7q-8 -2 -13 4q-4 4 -2 15l21 123q5 24 24 39l498 434
q10 12 29 12q15 0 26 -12l342 -434q17 -17 13 -39l-21 -123q-5 -17 -17 -21t-24 9l-289 393l-71 -479z" />
    <glyph glyph-name="arrowupleft" unicode="&#x2196;" horiz-adv-x="1329" 
d="M1083 803l-526 24l487 -585q23 -23 -8 -47l-71 -60q-26 -26 -47 0l-480 592l-69 -532q-2 -15 -16 -20t-21 5l-72 86q-12 12 -8 39l96 606q6 19 14 27q11 10 31 10l602 -8q24 0 39 -16l72 -86q8 -11 0 -23t-23 -12z" />
    <glyph glyph-name="arrowupright" unicode="&#x2197;" horiz-adv-x="1329" 
d="M899 827l-537 -24q-16 1 -19 13t11 22l101 86q16 16 41 16l608 8q14 0 24 -10q8 -7 7 -27l-115 -606q-5 -23 -25 -39l-100 -86q-11 -10 -24 -5q-11 4 -9 20l119 532l-690 -592q-24 -24 -47 0l-49 60q-20 26 8 47z" />
    <glyph glyph-name="arrowdownright" unicode="&#x2198;" horiz-adv-x="1329" 
d="M260 229l528 -24l-487 586q-23 17 6 45l72 61q29 27 47 0l481 -592l70 533q4 16 15 20q12 4 22 -6l69 -86q17 -17 11 -39l-99 -606q-5 -18 -14 -27q-15 -12 -29 -12l-606 10q-20 0 -37 19l-69 84q-7 11 0 23q7 11 20 11z" />
    <glyph glyph-name="arrowdownleft" unicode="&#x2199;" horiz-adv-x="1329" 
d="M446 205l535 24q13 0 18 -12q4 -11 -8 -22l-100 -86q-19 -17 -45 -17l-604 -10q-16 2 -27 12t-6 27l117 606q5 23 22 39l103 86q10 10 22 5q11 -4 10 -19l-118 -533l688 592q24 24 47 0l49 -61q24 -24 -6 -45z" />
    <glyph glyph-name="partialdiff" unicode="&#x2202;" horiz-adv-x="1314" 
d="M520 1268q-35 -11 -35 16l-6 90q0 23 33 35q141 53 297 53q233 0 352 -128t119 -357q0 -161 -48 -330q-48 -168 -137 -321q-88 -150 -240 -249q-149 -97 -331 -97q-208 0 -327 111t-119 286q0 262 183 439t444 177q183 0 278 -99q94 -99 88 -210q43 128 43 277
q0 174 -88 262t-252 88q-122 0 -254 -43zM520 131q197 0 327 140t130 327q0 112 -69 178t-201 66q-195 0 -326 -132q-131 -133 -131 -317q0 -115 69 -188q69 -74 201 -74z" />
    <glyph glyph-name="Delta" unicode="&#x2206;" horiz-adv-x="1396" 
d="M784 1438h160q33 0 39 -37l217 -1344q4 -24 -11 -41q-15 -16 -42 -16h-1063q-27 0 -36 16q-9 17 1 41l682 1344q18 37 53 37zM836 1290l-576 -1136h764l-180 1136h-8z" />
    <glyph glyph-name="product" unicode="&#x220f;" horiz-adv-x="1533" 
d="M229 1313l15 92q6 33 41 33h1306q33 0 27 -33l-14 -92q-6 -33 -39 -33h-222l-221 -1247q-6 -33 -39 -33h-102q-37 0 -31 33l221 1247h-522l-221 -1247q-6 -33 -37 -33h-104q-35 0 -29 33l221 1247h-221q-35 0 -29 33z" />
    <glyph glyph-name="summation" unicode="&#x2211;" horiz-adv-x="1222" 
d="M819 561l-612 -633h794q31 0 27 -32l-16 -89q-6 -32 -37 -32h-959q-36 0 -30 35l16 88q5 28 29 53l631 663l-392 641q-13 23 -8 52l17 98q6 33 40 33h936q33 0 27 -33l-14 -88q-6 -33 -39 -33h-780l389 -620q6 -11 4 -33l-6 -35q-5 -24 -17 -35z" />
    <glyph glyph-name="minus" unicode="&#x2212;" horiz-adv-x="1208" 
d="M1071 633h-878q-29 0 -27 29l16 81q2 29 37 29h877q28 0 26 -29l-16 -81q-2 -29 -35 -29z" />
    <glyph glyph-name="uni2215" unicode="&#x2215;" horiz-adv-x="153" 
d="M756 1407l-1106 -1380q-22 -27 -47 -27h-103q-39 0 -12 33l1104 1380q23 25 47 25h102q37 0 15 -31z" />
    <glyph glyph-name="uni2219" unicode="&#x2219;" horiz-adv-x="466" 
d="M131 453l29 155q6 33 39 33h131q32 0 26 -33l-28 -155q-6 -33 -35 -33h-135q-33 0 -27 33z" />
    <glyph glyph-name="radical" unicode="&#x221a;" horiz-adv-x="1378" 
d="M662 -143h-130q-32 0 -38 32l-162 820h-148q-36 0 -30 30l16 86q2 31 39 31h248q29 0 37 -31l133 -729h8l649 1432q16 33 41 33h119q36 0 20 -39l-755 -1633q-16 -32 -47 -32z" />
    <glyph glyph-name="infinity" unicode="&#x221e;" horiz-adv-x="1525" 
d="M870 942q100 115 293 115q147 0 221 -74t74 -197q0 -177 -116 -293t-308 -116q-208 0 -291 115q-101 -115 -297 -115q-150 0 -230 78q-79 78 -79 202q0 177 124 288q126 112 317 112q203 0 292 -115zM721 686l76 156q-51 104 -226 104q-125 0 -204 -79q-80 -80 -80 -212
q0 -163 182 -163q108 0 151 37q44 38 101 157zM891 748l-76 -156q58 -103 227 -103q124 0 204 81q79 80 79 210q0 162 -182 162q-105 0 -151 -39q-46 -38 -101 -155z" />
    <glyph glyph-name="integral" unicode="&#x222b;" horiz-adv-x="770" 
d="M236 82l186 1063q27 153 95 228q69 77 196 77q90 0 141 -18q22 -6 16 -33l-28 -84q-7 -27 -37 -25q-8 0 -32 4t-44 4q-65 0 -97 -41q-31 -40 -46 -124l-189 -1063q-24 -150 -95 -227q-70 -76 -198 -76q-83 0 -137 16q-25 6 -20 31l30 86q6 30 37 24q59 -10 76 -10
q63 0 96 42q34 43 50 126z" />
    <glyph glyph-name="approxequal" unicode="&#x2248;" horiz-adv-x="1208" 
d="M1087 545q-56 -185 -235 -185q-78 0 -184 41l-154 64q-111 45 -152 45q-60 0 -98 -66l-16 -28q-12 -23 -43 -23h-53q-41 0 -23 53q60 187 240 187q74 0 182 -45l139 -51q17 -5 43 -16q11 -4 26 -10l20 -8q23 -10 40 -13q25 -5 41 -5q61 0 94 62l15 31q12 22 39 22h53
q42 0 26 -55zM1165 977q-60 -184 -237 -184q-79 0 -185 41l-153 63q-105 43 -150 43q-62 0 -100 -63l-16 -29q-12 -23 -43 -23h-54q-41 0 -22 54q61 184 239 184q73 0 183 -43l139 -51q6 -2 44 -17q35 -14 46 -18q16 -6 39 -12q26 -7 41 -7q60 0 94 64l14 29q12 22 39 22h54
q43 0 28 -53z" />
    <glyph glyph-name="notequal" unicode="&#x2260;" horiz-adv-x="1208" 
d="M1028 463h-473l-291 -430q-21 -33 -47 -33h-82q-38 0 -20 35l288 428h-229q-30 0 -24 29l14 79q5 31 37 31h295l151 223h-407q-33 0 -27 31l14 80q6 29 39 29h475l301 450q17 23 41 23h88q42 0 15 -37l-293 -436h225q33 0 27 -29l-15 -80q-6 -31 -36 -31h-293l-154 -223
h406q33 0 28 -31l-14 -79q-6 -29 -39 -29z" />
    <glyph glyph-name="lessequal" unicode="&#x2264;" horiz-adv-x="1208" 
d="M182 766q6 20 27 35l883 549q29 18 41 -4l45 -70q21 -24 -11 -43l-784 -467l618 -469q25 -19 -4 -43l-69 -70q-20 -20 -43 -4l-688 549q-19 16 -15 37zM928 0h-840q-33 0 -27 31l13 65q6 31 37 31h837q33 0 27 -31l-12 -65q-6 -31 -35 -31z" />
    <glyph glyph-name="greaterequal" unicode="&#x2265;" horiz-adv-x="1208" 
d="M1128 766q-5 -23 -26 -37l-881 -549q-26 -20 -43 4l-45 70q-16 27 12 43l783 469l-617 467q-27 18 2 43l70 70q27 22 45 4l686 -549q20 -14 14 -35zM956 0h-839q-33 0 -27 31l12 65q6 31 35 31h838q35 0 29 -31l-13 -65q-6 -31 -35 -31z" />
    <glyph glyph-name="lozenge" unicode="&#x25ca;" horiz-adv-x="1396" 
d="M655 225l473 494l-299 495l-475 -495zM612 -16q-19 0 -26 16l-416 698q-4 5 -4 21q5 15 10 22l662 697q16 16 34 16q17 0 27 -16l414 -697q8 -11 4 -22q0 -11 -10 -21l-660 -698q-16 -16 -35 -16z" />
    <glyph glyph-name="uniE000" unicode="&#xe000;" horiz-adv-x="1024" 
 />
    <glyph glyph-name="Q.alt" unicode="&#xe001;" horiz-adv-x="1466" 
d="M891 1460q251 0 388 -137q136 -136 136 -395q0 -92 -20 -209q-57 -328 -228 -519q-170 -190 -442 -208l-20 -182q-2 -35 -39 -35h-111q-38 0 -27 35l45 182q-204 17 -318 156q-116 142 -116 378q0 82 19 193q63 359 250 551q186 190 483 190zM674 139q219 0 356 149
q138 150 184 429q19 112 19 196q0 387 -354 387q-220 0 -355 -148q-134 -148 -184 -429q-21 -119 -21 -199q0 -385 355 -385z" />
    <glyph glyph-name="a.alt" unicode="&#xe002;" horiz-adv-x="1265" 
d="M952 532q13 72 13 119q0 140 -73 215q-72 74 -206 74q-328 0 -397 -405q-15 -91 -15 -142q0 -268 269 -268q160 0 267 104t142 303zM1204 1028l-176 -995q-6 -33 -35 -33h-100q-35 0 -29 31l27 149q-122 -200 -387 -200q-185 0 -293 102q-109 103 -109 303q0 73 15 147
q49 273 191 413q141 140 356 140q127 0 227 -53q99 -52 123 -149l26 147q6 31 39 31h101q30 0 24 -33z" />
    <glyph glyph-name="u.alt" unicode="&#xe003;" horiz-adv-x="1167" 
d="M522 -20q-181 0 -291 79t-110 228q0 33 6 73l117 668q6 33 37 33h102q31 0 25 -33l-117 -659q-18 -111 43 -174q62 -64 190 -64t213 64t103 174l116 659q6 33 37 33h101q32 0 26 -33l-116 -668q-33 -183 -159 -282q-125 -98 -323 -98z" />
    <glyph glyph-name="y.alt" unicode="&#xe004;" horiz-adv-x="1187" 
d="M811 162l20 117q-39 -60 -71 -89q-38 -34 -114 -66q-78 -32 -177 -32q-162 0 -246 78t-84 217q0 46 8 92l97 549q6 33 37 33h102q31 0 25 -33l-93 -524q-8 -42 -8 -82q0 -178 207 -178q134 0 237 80q102 79 126 217l86 487q6 33 36 33h103q30 0 24 -33l-153 -876
q-34 -191 -169 -297q-134 -105 -349 -105q-217 0 -342 60q-22 12 -15 34l27 86q8 33 41 21q138 -55 293 -55q147 0 238 69t114 197z" />
    <glyph glyph-name="j.alt" unicode="&#xe005;" horiz-adv-x="491" 
d="M426 1028l-215 -1221q-6 -32 -37 -32h-102q-31 0 -25 32l215 1221q6 33 37 33h102q31 0 25 -33zM492 1397l-31 -166q-1 -33 -35 -33h-102q-28 0 -27 33l31 166q6 33 37 33h102q31 0 25 -33z" />
    <glyph glyph-name="agrave.alt" unicode="&#xe006;" horiz-adv-x="1265" 
d="M952 532q13 72 13 119q0 140 -73 215q-72 74 -206 74q-328 0 -397 -405q-15 -91 -15 -142q0 -268 269 -268q160 0 267 104t142 303zM1204 1028l-176 -995q-6 -33 -35 -33h-100q-35 0 -29 31l27 149q-122 -200 -387 -200q-185 0 -293 102q-109 103 -109 303q0 73 15 147
q49 273 191 413q141 140 356 140q127 0 227 -53q99 -52 123 -149l26 147q6 31 39 31h101q30 0 24 -33zM803 1413l88 -180q5 -13 -3 -22t-22 -9h-55q-24 0 -45 21l-166 178q-10 10 -3 23q8 14 24 14h141q25 0 41 -25z" />
    <glyph glyph-name="aacute.alt" unicode="&#xe007;" horiz-adv-x="1265" 
d="M952 532q13 72 13 119q0 140 -73 215q-72 74 -206 74q-328 0 -397 -405q-15 -91 -15 -142q0 -268 269 -268q160 0 267 104t142 303zM1204 1028l-176 -995q-6 -33 -35 -33h-100q-35 0 -29 31l27 149q-122 -200 -387 -200q-185 0 -293 102q-109 103 -109 303q0 73 15 147
q49 273 191 413q141 140 356 140q127 0 227 -53q99 -52 123 -149l26 147q6 31 39 31h101q30 0 24 -33zM649 1233l144 180q23 25 49 25h147q17 0 19 -14q1 -13 -13 -23l-221 -178q-22 -21 -51 -21h-61q-15 0 -19 10q-5 10 6 21z" />
    <glyph glyph-name="acircumflex.alt" unicode="&#xe008;" horiz-adv-x="1265" 
d="M952 532q13 72 13 119q0 140 -73 215q-72 74 -206 74q-328 0 -397 -405q-15 -91 -15 -142q0 -268 269 -268q160 0 267 104t142 303zM1204 1028l-176 -995q-6 -33 -35 -33h-100q-35 0 -29 31l27 149q-122 -200 -387 -200q-185 0 -293 102q-109 103 -109 303q0 73 15 147
q49 273 191 413q141 140 356 140q127 0 227 -53q99 -52 123 -149l26 147q6 31 39 31h101q30 0 24 -33zM928 1223l-125 112l-164 -112q-27 -21 -49 -21h-84q-19 0 -19 11t13 22l227 186q22 19 47 19h84q24 0 43 -19l162 -186q10 -10 5 -22q-4 -11 -21 -11h-78q-20 0 -41 21z
" />
    <glyph glyph-name="atilde.alt" unicode="&#xe009;" horiz-adv-x="1265" 
d="M952 532q13 72 13 119q0 140 -73 215q-72 74 -206 74q-328 0 -397 -405q-15 -91 -15 -142q0 -268 269 -268q160 0 267 104t142 303zM1204 1028l-176 -995q-6 -33 -35 -33h-100q-35 0 -29 31l27 149q-122 -200 -387 -200q-185 0 -293 102q-109 103 -109 303q0 73 15 147
q49 273 191 413q141 140 356 140q127 0 227 -53q99 -52 123 -149l26 147q6 31 39 31h101q30 0 24 -33zM1108 1341q-27 -139 -154 -139q-75 0 -174 39l-41 16q-68 27 -100 27q-39 0 -51 -33l-8 -20q-11 -25 -41 -25h-47q-28 0 -21 39q23 137 154 137q58 0 172 -41l47 -16
q77 -27 100 -27q36 0 51 41l4 17q7 26 41 26h50q26 0 18 -41z" />
    <glyph glyph-name="adieresis.alt" unicode="&#xe00a;" horiz-adv-x="1265" 
d="M952 532q13 72 13 119q0 140 -73 215q-72 74 -206 74q-328 0 -397 -405q-15 -91 -15 -142q0 -268 269 -268q160 0 267 104t142 303zM1204 1028l-176 -995q-6 -33 -35 -33h-100q-35 0 -29 31l27 149q-122 -200 -387 -200q-185 0 -293 102q-109 103 -109 303q0 73 15 147
q49 273 191 413q141 140 356 140q127 0 227 -53q99 -52 123 -149l26 147q6 31 39 31h101q30 0 24 -33zM709 1386l-27 -153q-6 -31 -37 -31h-106q-33 0 -27 31l27 153q6 31 39 31h106q31 0 25 -31zM1077 1386l-26 -153q-6 -31 -37 -31h-107q-32 0 -26 31l26 153q6 31 39 31
h107q30 0 24 -31z" />
    <glyph glyph-name="amacron.alt" unicode="&#xe00b;" horiz-adv-x="1265" 
d="M952 532q13 72 13 119q0 140 -73 215q-72 74 -206 74q-328 0 -397 -405q-15 -91 -15 -142q0 -268 269 -268q160 0 267 104t142 303zM1204 1028l-176 -995q-6 -33 -35 -33h-100q-35 0 -29 31l27 149q-122 -200 -387 -200q-185 0 -293 102q-109 103 -109 303q0 73 15 147
q49 273 191 413q141 140 356 140q127 0 227 -53q99 -52 123 -149l26 147q6 31 39 31h101q30 0 24 -33zM1067 1214h-584q-30 0 -24 31l8 53q6 31 37 31h583q31 0 25 -31l-8 -53q-6 -31 -37 -31z" />
    <glyph glyph-name="abreve.alt" unicode="&#xe00c;" horiz-adv-x="1265" 
d="M952 532q13 72 13 119q0 140 -73 215q-72 74 -206 74q-328 0 -397 -405q-15 -91 -15 -142q0 -268 269 -268q160 0 267 104t142 303zM1204 1028l-176 -995q-6 -33 -35 -33h-100q-35 0 -29 31l27 149q-122 -200 -387 -200q-185 0 -293 102q-109 103 -109 303q0 73 15 147
q49 273 191 413q141 140 356 140q127 0 227 -53q99 -52 123 -149l26 147q6 31 39 31h101q30 0 24 -33zM788 1196q-142 0 -206 67q-65 68 -50 158q2 25 29 25h58q22 0 24 -23q5 -59 34 -88q30 -30 116 -30q87 0 123 29q39 31 65 89q8 23 33 23h57q23 0 21 -25
q-45 -225 -304 -225z" />
    <glyph glyph-name="aring.alt" unicode="&#xe00d;" horiz-adv-x="1265" 
d="M952 532q13 72 13 119q0 140 -73 215q-72 74 -206 74q-328 0 -397 -405q-15 -91 -15 -142q0 -268 269 -268q160 0 267 104t142 303zM1204 1028l-176 -995q-6 -33 -35 -33h-100q-35 0 -29 31l27 149q-122 -200 -387 -200q-185 0 -293 102q-109 103 -109 303q0 73 15 147
q49 273 191 413q141 140 356 140q127 0 227 -53q99 -52 123 -149l26 147q6 31 39 31h101q30 0 24 -33zM793 1278q55 0 94 33t39 90q0 40 -29 64t-78 24q-55 0 -94 -33t-39 -92q0 -38 29 -62t78 -24zM829 1577q86 0 141 -47q54 -46 54 -119q0 -96 -71 -159q-69 -62 -173 -62
q-86 0 -139 47t-53 119q0 95 69 158t172 63z" />
    <glyph glyph-name="aringacute.alt" unicode="&#xe00e;" horiz-adv-x="1265" 
d="M1204 1028l-176 -995q-6 -33 -35 -33h-100q-35 0 -29 31l27 149q-122 -200 -387 -200q-185 0 -293 102q-109 103 -109 303q0 73 15 147q49 273 191 413q141 140 356 140q127 0 227 -53q99 -52 123 -149l26 147q6 31 39 31h101q30 0 24 -33zM952 532q13 72 13 119
q0 140 -73 215q-72 74 -206 74q-328 0 -397 -405q-15 -91 -15 -142q0 -268 269 -268q160 0 267 104t142 303zM588 1356q0 72 40 127q41 56 107 78l113 141q21 24 49 24h147q18 0 19 -13q2 -14 -12 -23l-152 -123q56 -16 91 -59q34 -41 34 -97q0 -96 -71 -159
q-69 -62 -173 -62q-86 0 -139 47t-53 119zM793 1278q55 0 94 33t39 90q0 40 -29 64t-78 24q-55 0 -94 -33t-39 -92q0 -38 29 -62t78 -24z" />
    <glyph glyph-name="aogonek.alt" unicode="&#xe00f;" horiz-adv-x="1265" 
d="M1204 1028l-176 -995q-6 -33 -35 -33h-22q-160 -63 -160 -156q0 -49 92 -49q33 0 72 10q20 4 20 -10l2 -55q0 -21 -14 -25q-48 -26 -123 -26q-72 0 -121 30t-49 86q0 68 52 119q54 52 130 80q-14 6 -8 27l27 149q-122 -200 -387 -200q-185 0 -293 102q-109 103 -109 303
q0 73 15 147q49 273 191 413q141 140 356 140q127 0 227 -53q99 -52 123 -149l26 147q6 31 39 31h101q30 0 24 -33zM952 532q13 72 13 119q0 140 -73 215q-72 74 -206 74q-328 0 -397 -405q-15 -91 -15 -142q0 -268 269 -268q160 0 267 104t142 303z" />
    <glyph glyph-name="ij.alt" unicode="&#xe010;" horiz-adv-x="966" 
d="M426 1028l-176 -995q-6 -33 -35 -33h-102q-33 0 -27 33l176 995q6 33 37 33h102q31 0 25 -33zM492 1397l-31 -166q-1 -33 -35 -33h-102q-28 0 -27 33l31 166q6 33 37 33h102q31 0 25 -33zM901 1028l-215 -1221q-6 -32 -37 -32h-102q-31 0 -25 32l215 1221q6 33 37 33h103
q30 0 24 -33zM967 1397l-31 -166q-2 -33 -35 -33h-102q-29 0 -27 33l31 166q6 33 37 33h102q31 0 25 -33z" />
    <glyph glyph-name="jcircumflex.alt" unicode="&#xe011;" horiz-adv-x="495" 
d="M426 1028l-215 -1221q-6 -32 -37 -32h-102q-31 0 -25 32l215 1221q6 33 37 33h102q31 0 25 -33zM528 1223l-125 112l-163 -112q-27 -21 -50 -21h-84q-18 0 -18 11t12 22l228 186q22 19 47 19h84q24 0 43 -19l162 -186q10 -10 5 -22q-4 -11 -22 -11h-78q-20 0 -41 21z" />
    <glyph glyph-name="dotlessj.alt" unicode="&#xe012;" horiz-adv-x="491" 
d="M426 1028l-215 -1221q-6 -32 -37 -32h-102q-31 0 -25 32l215 1221q6 33 37 33h102q31 0 25 -33z" />
    <glyph glyph-name="ugrave.alt" unicode="&#xe013;" horiz-adv-x="1167" 
d="M522 -20q-181 0 -291 79t-110 228q0 33 6 73l117 668q6 33 37 33h102q31 0 25 -33l-117 -659q-18 -111 43 -174q62 -64 190 -64t213 64t103 174l116 659q6 33 37 33h101q32 0 26 -33l-116 -668q-33 -183 -159 -282q-125 -98 -323 -98zM735 1413l88 -180q5 -13 -3 -22
t-21 -9h-56q-24 0 -45 21l-166 178q-10 10 -3 23q8 14 24 14h141q25 0 41 -25z" />
    <glyph glyph-name="uacute.alt" unicode="&#xe014;" horiz-adv-x="1167" 
d="M522 -20q-181 0 -291 79t-110 228q0 33 6 73l117 668q6 33 37 33h102q31 0 25 -33l-117 -659q-18 -111 43 -174q62 -64 190 -64t213 64t103 174l116 659q6 33 37 33h101q32 0 26 -33l-116 -668q-33 -183 -159 -282q-125 -98 -323 -98zM614 1233l144 180q22 25 49 25h147
q17 0 19 -14t-12 -23l-222 -178q-23 -21 -51 -21h-61q-15 0 -19 10t6 21z" />
    <glyph glyph-name="ucircumflex.alt" unicode="&#xe015;" horiz-adv-x="1167" 
d="M522 -20q-181 0 -291 79t-110 228q0 33 6 73l117 668q6 33 37 33h102q31 0 25 -33l-117 -659q-18 -111 43 -174q62 -64 190 -64t213 64t103 174l116 659q6 33 37 33h101q32 0 26 -33l-116 -668q-33 -183 -159 -282q-125 -98 -323 -98zM864 1223l-125 112l-164 -112
q-27 -21 -49 -21h-84q-18 0 -18 11t12 22l228 186q22 19 47 19h84q24 0 43 -19l161 -186q10 -10 6 -22q-4 -11 -22 -11h-78q-20 0 -41 21z" />
    <glyph glyph-name="utilde.alt" unicode="&#xe016;" horiz-adv-x="1167" 
d="M522 -20q-181 0 -291 79t-110 228q0 33 6 73l117 668q6 33 37 33h102q31 0 25 -33l-117 -659q-18 -111 43 -174q62 -64 190 -64t213 64t103 174l116 659q6 33 37 33h101q32 0 26 -33l-116 -668q-33 -183 -159 -282q-125 -98 -323 -98zM1047 1341q-27 -139 -154 -139
q-75 0 -174 39l-41 16q-67 27 -100 27q-40 0 -52 -33l-8 -20q-11 -25 -41 -25h-47q-28 0 -20 39q23 137 153 137q58 0 172 -41l47 -16q76 -27 101 -27q36 0 51 41l4 17q7 26 41 26h49q27 0 19 -41z" />
    <glyph glyph-name="udieresis.alt" unicode="&#xe017;" horiz-adv-x="1167" 
d="M522 -20q-181 0 -291 79t-110 228q0 33 6 73l117 668q6 33 37 33h102q31 0 25 -33l-117 -659q-18 -111 43 -174q62 -64 190 -64t213 64t103 174l116 659q6 33 37 33h101q32 0 26 -33l-116 -668q-33 -183 -159 -282q-125 -98 -323 -98zM645 1386l-27 -153q-6 -31 -36 -31
h-107q-32 0 -26 31l26 153q6 31 39 31h107q30 0 24 -31zM1014 1386l-27 -153q-6 -31 -37 -31h-106q-33 0 -27 31l27 153q6 31 39 31h106q31 0 25 -31z" />
    <glyph glyph-name="umacron.alt" unicode="&#xe018;" horiz-adv-x="1167" 
d="M522 -20q-181 0 -291 79t-110 228q0 33 6 73l117 668q6 33 37 33h102q31 0 25 -33l-117 -659q-18 -111 43 -174q62 -64 190 -64t213 64t103 174l116 659q6 33 37 33h101q32 0 26 -33l-116 -668q-33 -183 -159 -282q-125 -98 -323 -98zM1006 1214h-584q-31 0 -25 31l9 53
q6 31 36 31h584q31 0 25 -31l-9 -53q-6 -31 -36 -31z" />
    <glyph glyph-name="ubreve.alt" unicode="&#xe019;" horiz-adv-x="1167" 
d="M522 -20q-181 0 -291 79t-110 228q0 33 6 73l117 668q6 33 37 33h102q31 0 25 -33l-117 -659q-18 -111 43 -174q62 -64 190 -64t213 64t103 174l116 659q6 33 37 33h101q32 0 26 -33l-116 -668q-33 -183 -159 -282q-125 -98 -323 -98zM727 1196q-143 0 -207 67t-49 158
q2 25 29 25h57q23 0 25 -23q5 -60 33 -88q30 -30 116 -30q88 0 124 29q39 31 65 89q8 23 32 23h58q22 0 20 -25q-45 -225 -303 -225z" />
    </font>
</defs>
</svg>
