<?xml version="1.0" standalone="no"?>
<!DOCTYPE svg PUBLIC "-//W3C//DTD SVG 1.1//EN" "http://www.w3.org/Graphics/SVG/1.1/DTD/svg11.dtd" >
<svg xmlns="http://www.w3.org/2000/svg" xmlns:xlink="http://www.w3.org/1999/xlink" version="1.1">
<metadata>
Created by FontForge 20170731 at Mon Nov 21 16:50:41 2022
 By Aleksey,,,
(c) 2012, 2013, 2014, 2015 by Stawix Ruecha &#38; Foundry. All rights reserved.
</metadata>
<defs>
<font id="AmsiProCond-SemiBoldItalic" horiz-adv-x="624" >
  <font-face 
    font-family="AmsiProCond-SemiBoldItalic"
    font-weight="400"
    font-style="italic"
    font-stretch="condensed"
    units-per-em="2048"
    panose-1="2 11 10 6 2 2 1 1 1 4"
    ascent="1755"
    descent="-293"
    x-height="1104"
    cap-height="1440"
    bbox="-419.692 -573 2458 2122"
    underline-thickness="92"
    underline-position="-206"
    slope="-10"
    unicode-range="U+0020-FB4E"
  />
<missing-glyph horiz-adv-x="1007" 
d="M0 1413h1008v-1413h-1008v1413zM907 193v1030l-344 -516zM100 1223v-1030l344 514zM504 797l344 516h-686zM504 616l-342 -516h684z" />
    <glyph glyph-name="f_f" unicode="ff" horiz-adv-x="997" 
d="M907 1094h140q34 0 28 -37l-16 -101q-7 -34 -43 -34h-142l-155 -887q-8 -35 -39 -35h-119q-37 0 -31 35l158 887h-272l-156 -887q-6 -35 -39 -35h-117q-36 0 -30 35l155 887h-77q-34 0 -27 34l16 101q6 37 43 37h78l12 88q28 144 91 208q61 62 180 62q61 0 102 -12
q19 -6 19 -37l-11 -82q-5 -41 -39 -35h-51q-46 0 -70 -24q-23 -23 -34 -97l-12 -71h270l12 69q29 161 90 225t193 64q66 0 104 -12q23 -5 19 -37l-11 -82q0 -41 -39 -35h-13h-21h-19q-56 0 -81 -26t-40 -111z" />
    <glyph glyph-name="fi" unicode="fi" horiz-adv-x="888" 
d="M893 1057l-180 -1020q-6 -37 -39 -37h-119q-37 0 -31 37l156 885h-264l-156 -887q-6 -35 -39 -35h-117q-36 0 -30 35l155 887h-77q-34 0 -27 34l16 101q6 37 43 37h78l12 82q29 152 88 214t177 62q73 0 110 -12q19 -6 19 -37l-11 -82q-5 -39 -43 -35h-51q-46 0 -69 -26
q-25 -28 -37 -99l-11 -67h420q34 0 27 -37zM956 1405l-26 -141q-2 -35 -41 -35h-119q-37 0 -31 35l27 141q6 35 41 35h119q36 0 30 -35z" />
    <glyph glyph-name="fl" unicode="fl" horiz-adv-x="894" 
d="M956 1380l-237 -1343q-6 -37 -39 -37h-119q-37 0 -31 37l222 1247q-53 8 -103 8q-90 0 -135 -36t-61 -119l-7 -43h109q33 0 27 -37l-17 -101q-6 -34 -41 -34h-108l-156 -887q-6 -35 -39 -35h-117q-36 0 -30 35l155 887h-77q-34 0 -27 34l16 101q6 37 43 37h78l6 49
q30 167 118 240t280 73q164 0 266 -33q30 -12 24 -43z" />
    <glyph glyph-name="f_f_i" unicode="ffi" horiz-adv-x="1343" 
d="M1350 1057l-181 -1020q-6 -37 -41 -37h-116q-37 0 -31 37l158 885h-265l-155 -887q-8 -35 -39 -35h-119q-37 0 -31 35l158 887h-272l-156 -887q-6 -35 -39 -35h-117q-36 0 -30 35l155 887h-77q-34 0 -27 34l16 101q6 37 43 37h78l12 88q28 144 91 208q61 62 180 62
q73 0 102 -12q19 -6 19 -37l-11 -82q-5 -41 -39 -35h-51q-46 0 -70 -24q-23 -23 -34 -97l-12 -71h270l14 88q27 146 89 208t182 62q62 0 102 -12q20 -6 18 -37l-10 -82q0 -41 -39 -35h-51q-47 0 -71 -24q-23 -23 -35 -97l-11 -71h414q35 0 29 -37zM1413 1405l-27 -141
q-6 -35 -38 -35h-121q-35 0 -33 35l29 141q6 35 39 35h120q37 0 31 -35z" />
    <glyph glyph-name="f_f_l" unicode="ffl" horiz-adv-x="1349" 
d="M874 922l-155 -887q-8 -35 -39 -35h-119q-37 0 -31 37l158 885h-272l-156 -887q-6 -35 -39 -35h-117q-36 0 -30 35l155 887h-77q-34 0 -27 34l16 101q6 37 43 37h78l12 88q28 144 91 208q61 62 180 62q61 0 102 -12q19 -6 19 -37l-11 -80q-4 -43 -39 -37h-51
q-46 0 -70 -24q-23 -23 -34 -97l-12 -71h270l6 49q30 167 118 240t277 73q164 0 266 -33q32 -13 27 -43l-237 -1343q-7 -37 -39 -37h-119q-37 0 -31 37l219 1247q-53 8 -100 8q-90 0 -134 -36q-44 -37 -59 -119l-6 -43h105q34 0 28 -37l-18 -101q-6 -34 -41 -34h-107z" />
    <glyph glyph-name="f_b" unicode="fb" horiz-adv-x="1402" 
d="M809 551q-21 -108 -21 -195q0 -206 134 -206q89 0 145 93q55 92 94 308q23 143 23 219q0 98 -30 141t-93 43q-176 0 -252 -403zM956 1380l-71 -405q33 62 95 103q63 42 142 42q256 0 256 -323q0 -105 -24 -246q-52 -295 -148 -432q-94 -135 -252 -135q-85 0 -148 42
q-62 42 -73 105l-18 -98q-7 -33 -41 -33h-113q-37 0 -31 37l222 1247q-53 8 -103 8q-89 0 -136 -38q-46 -37 -58 -117l-6 -43h106q33 0 27 -37l-17 -101q-6 -34 -41 -34h-108l-156 -887q-6 -35 -39 -35h-117q-36 0 -30 35l155 887h-77q-34 0 -27 34l16 101q6 37 43 37h78
l6 51q24 160 115 236q90 75 281 75q166 0 268 -33q30 -12 24 -43z" />
    <glyph glyph-name="f_f_b" unicode="ffb" horiz-adv-x="1859" 
d="M1266 551q-21 -108 -21 -195q0 -206 133 -206q93 0 147 93t93 308q24 151 24 219q0 184 -124 184q-180 0 -252 -403zM1413 1378l-72 -403q29 59 95 103q63 42 143 42q256 0 256 -323q0 -114 -25 -248q-56 -296 -148 -430q-93 -135 -253 -135q-83 0 -146 42
q-62 42 -73 105l-19 -98q-7 -33 -43 -33h-110q-37 0 -31 37l219 1247q-53 8 -100 8q-90 0 -134 -36q-44 -37 -59 -119l-6 -43h107q32 0 28 -37l-18 -101q-7 -34 -43 -34h-107l-155 -887q-4 -20 -12 -28q-7 -7 -27 -7h-119q-37 0 -31 35l158 887h-272l-156 -887
q-6 -35 -39 -35h-117q-36 0 -30 35l155 887h-77q-34 0 -27 34l16 101q6 37 43 37h78l12 88q21 139 86 204q66 66 185 66q61 0 102 -12q23 -5 19 -37l-11 -82q-8 -41 -39 -35h-51q-47 0 -71 -25q-26 -27 -33 -96l-12 -71h270l6 49q27 165 116 239t279 74q164 0 266 -33
q19 -8 24 -16t3 -29z" />
    <glyph glyph-name="f_h" unicode="fh" horiz-adv-x="1376" 
d="M956 1380l-69 -397q99 137 243 137q109 0 167 -65q59 -67 59 -178q0 -44 -10 -97l-132 -743q-6 -37 -40 -37h-117q-39 0 -33 37l127 711q8 42 8 79q0 117 -104 117q-86 0 -144 -70q-56 -67 -77 -192l-115 -645q-6 -37 -39 -37h-119q-37 0 -31 37l222 1247q-53 8 -103 8
q-91 0 -134 -36q-44 -36 -60 -119l-6 -43h106q33 0 27 -37l-17 -101q-6 -34 -41 -34h-108l-156 -887q-6 -35 -39 -35h-117q-36 0 -30 35l155 887h-77q-34 0 -27 34l16 101q6 37 43 37h78l6 49q30 167 118 240t278 73q166 0 268 -33q30 -12 24 -43z" />
    <glyph glyph-name="f_f_h" unicode="ffh" horiz-adv-x="1832" 
d="M1413 1380l-70 -397q95 137 242 137q111 0 169 -66q58 -65 58 -180q0 -41 -10 -94l-131 -743q-7 -37 -41 -37h-119q-36 0 -30 37l127 711q8 61 8 77q0 119 -103 119q-87 0 -145 -70t-80 -192l-112 -645q-7 -37 -39 -37h-119q-37 0 -31 37l219 1247q-53 8 -100 8
q-90 0 -134 -36q-44 -37 -59 -119l-6 -43h107q34 0 28 -37l-18 -101q-6 -34 -43 -34h-107l-155 -887q-8 -35 -39 -35h-119q-37 0 -31 35l158 887h-272l-156 -887q-6 -35 -39 -35h-117q-36 0 -30 35l155 887h-77q-34 0 -27 34l16 101q6 37 43 37h78l12 88q28 143 90 208
q59 62 175 62q67 0 108 -12q19 -6 19 -37l-11 -82q-5 -41 -39 -35h-51q-46 0 -70 -24q-23 -23 -34 -97l-12 -71h270l6 49q30 167 118 240t277 73q164 0 266 -33q32 -13 27 -43z" />
    <glyph glyph-name="f_j" unicode="fj" horiz-adv-x="890" 
d="M899 1057l-182 -1039q-23 -141 -78 -197q-53 -54 -172 -54q-49 0 -84 8q-29 8 -27 37l13 96q5 40 39 33q14 -2 41 -2q36 0 53 20t28 84l156 879h-270l-156 -887q-6 -35 -39 -35h-117q-36 0 -30 35l155 887h-77q-34 0 -27 34l16 101q6 37 43 37h78l12 88q28 144 91 208
q61 62 180 62q61 0 104 -12q19 -6 19 -37l-11 -82q-5 -41 -41 -35h-51q-46 0 -70 -24q-23 -23 -34 -97l-12 -71h421q35 0 29 -37zM963 1405l-27 -141q-6 -35 -41 -35h-119q-35 0 -33 35l29 141q6 35 39 35h119q39 0 33 -35z" />
    <glyph glyph-name="f_f_j" unicode="ffj" horiz-adv-x="1345" 
d="M1356 1057l-185 -1039q-24 -142 -77 -197q-52 -54 -170 -54q-43 0 -86 8q-27 6 -25 37l12 96q0 38 39 33q9 0 19 -1t20 -1q37 0 56 21t30 83l154 879h-269l-155 -887q-8 -35 -39 -35h-119q-37 0 -31 35l158 887h-272l-156 -887q-6 -35 -39 -35h-117q-36 0 -30 35l155 887
h-77q-34 0 -27 34l16 101q6 37 43 37h78l12 88q28 144 91 208q61 62 180 62q61 0 102 -12q19 -6 19 -37l-11 -82q-5 -41 -39 -35h-51q-46 0 -70 -24q-23 -23 -34 -97l-12 -71h270l14 88q27 146 89 208t182 62q62 0 102 -12q24 -6 18 -39l-10 -80q0 -41 -39 -35h-51
q-47 0 -71 -24q-23 -23 -35 -97l-11 -71h420q35 0 29 -37zM1417 1405l-26 -141q-2 -35 -39 -35h-119q-35 0 -33 35l27 141q6 35 41 35h121q36 0 28 -35z" />
    <glyph glyph-name="f_k" unicode="fk" horiz-adv-x="1292" 
d="M958 1380l-116 -657l295 358q23 23 57 23h164q14 0 20 -7q6 -8 2 -19q-4 -10 -16 -21l-395 -447l227 -565q7 -16 0 -31q-7 -14 -31 -14h-139q-34 0 -51 31l-172 483l-82 -477q-6 -37 -41 -37h-117q-39 0 -33 37l222 1247q-53 8 -103 8q-90 0 -135 -36q-44 -35 -59 -119
l-6 -43h106q34 0 27 -37l-17 -101q-7 -34 -41 -34h-108l-156 -887q-6 -35 -39 -35h-117q-36 0 -30 35l155 887h-77q-34 0 -27 34l16 101q4 37 43 37h78l6 49q24 159 115 237q89 76 281 76q169 0 268 -33q31 -12 26 -43z" />
    <glyph glyph-name="f_f_k" unicode="ffk" horiz-adv-x="1748" 
d="M1415 1380l-119 -657l295 358q28 23 60 23h161q17 0 22 -8t2 -19q-3 -9 -15 -20l-398 -447l230 -565q6 -17 -1 -31t-30 -14h-141q-37 0 -49 31l-172 483l-82 -477q-10 -37 -41 -37h-117q-39 0 -33 37l219 1247q-53 8 -100 8q-90 0 -134 -36q-44 -37 -59 -119l-6 -43h105
q32 0 28 -37l-18 -101q-6 -34 -41 -34h-107l-155 -887q-8 -35 -39 -35h-119q-37 0 -31 35l158 887h-272l-156 -887q-6 -35 -39 -35h-117q-36 0 -30 35l155 887h-77q-34 0 -27 34l16 101q7 37 43 37h78l12 88q21 139 86 204q66 66 185 66q61 0 102 -12q23 -5 19 -37l-11 -82
q-6 -41 -39 -35h-51q-47 0 -71 -25q-26 -27 -33 -96l-12 -71h270l6 49q27 162 116 238q89 75 279 75q167 0 269 -33q30 -15 26 -43z" />
    <glyph glyph-name="f_t" unicode="ft" horiz-adv-x="1015" 
d="M449 1094h274l35 206q6 35 41 35h112q33 0 31 -35l-35 -206h135q34 0 27 -37l-16 -101q-6 -34 -43 -34h-136l-108 -611q-10 -54 -10 -82q0 -39 17 -53t61 -14q4 0 47 6q35 0 28 -33l-16 -96q-12 -33 -39 -39q-39 -10 -72 -10q-112 0 -164 43q-53 44 -53 147q0 44 13 115
l110 627h-272l-156 -887q-6 -35 -39 -35h-117q-36 0 -30 35l155 887h-77q-34 0 -27 34l16 101q6 37 43 37h78l12 88q28 144 91 208q61 62 180 62q61 0 102 -12q19 -6 19 -37l-11 -82q-5 -41 -39 -35h-51q-46 0 -70 -24q-23 -23 -34 -97z" />
    <glyph glyph-name="f_f_t" unicode="fft" horiz-adv-x="1470" 
d="M719 1094l14 88q27 146 88 208t183 62q62 0 100 -12q20 -6 20 -37l-12 -82q0 -41 -39 -35h-13h-19h-17q-47 0 -71 -25q-23 -24 -35 -98l-11 -69h273l34 206q2 35 41 35h111q33 0 31 -35l-37 -206h139q33 0 27 -35l-17 -103q-7 -34 -41 -34h-139l-110 -611q-9 -74 -9 -78
q0 -40 19 -56q18 -15 61 -15q10 0 22 3t17 3q17 2 23 -6q6 -7 4 -27l-2 -92q-6 -29 -35 -41q-33 -12 -82 -12q-111 0 -163 42t-52 148q0 50 12 117l109 625h-269l-155 -887q-8 -35 -39 -35h-119q-37 0 -31 35l158 887h-272l-156 -887q-6 -35 -39 -35h-117q-36 0 -30 35
l155 887h-77q-34 0 -27 34l16 101q6 37 43 37h78l12 88q28 144 91 208q61 62 180 62q61 0 102 -12q19 -6 19 -37l-11 -80q-4 -43 -39 -37h-51q-46 0 -70 -24q-23 -23 -34 -97l-12 -71h270z" />
    <glyph glyph-name="t_t" unicode="tt" horiz-adv-x="1015" 
d="M1012 922h-140l-108 -611q-8 -46 -8 -78q0 -39 17 -55t61 -16q9 0 21 3t20 3q14 1 21 -6q8 -8 3 -27l-2 -92q-2 -29 -35 -41q-28 -12 -80 -12q-112 0 -164 43q-53 44 -53 147q0 44 13 115l110 627h-278l-109 -611q-10 -54 -10 -84q0 -37 14 -51t49 -14q13 0 22 3t15 3
q15 1 22 -6q8 -8 3 -27l-2 -92q-1 -25 -33 -41q-33 -12 -78 -12q-102 0 -151 43q-50 44 -50 147q0 42 13 115l110 627h-78q-36 0 -30 34l18 101q6 37 43 37h82l37 225q6 35 43 35h111q34 0 28 -35l-37 -225h281l37 225q8 35 43 35h110q35 0 29 -35l-37 -225h137q34 0 27 -37
l-16 -101q-6 -34 -41 -34z" />
    <glyph glyph-name="t_t_f" unicode="ttf" horiz-adv-x="1468" 
d="M872 922l-108 -611q-8 -46 -8 -78q0 -39 17 -55t61 -16q8 0 45 6q35 0 28 -33l-16 -96q-8 -31 -39 -39q-36 -10 -70 -10q-111 0 -163 43q-54 45 -54 151q0 44 13 115l110 623h-278l-109 -611q-10 -54 -10 -84q0 -37 14 -51t49 -14q11 0 20 3t17 3q15 1 22 -6q8 -8 3 -27
l-2 -92q-1 -25 -33 -41q-33 -12 -78 -12q-101 0 -150 43q-51 45 -51 147q0 46 13 119l110 623h-78q-36 0 -30 34l18 101q6 37 43 37h82l37 225q6 35 43 35h111q34 0 28 -35l-37 -225h281l37 225q8 35 43 35h110q35 0 29 -35l-37 -225h289l10 69q29 161 90 225t191 64
q67 0 108 -12q19 -6 19 -37l-13 -82q0 -41 -38 -35h-54q-58 0 -81 -26q-22 -24 -37 -109l-9 -57h142q32 0 26 -37l-16 -101q-6 -34 -43 -34h-141l-156 -887q-6 -35 -39 -35h-119q-36 0 -28 35l155 887h-289z" />
    <glyph glyph-name=".notdef" horiz-adv-x="1007" 
d="M0 1413h1008v-1413h-1008v1413zM907 193v1030l-344 -516zM100 1223v-1030l344 514zM504 797l344 516h-686zM504 616l-342 -516h684z" />
    <glyph glyph-name=".null" horiz-adv-x="0" 
 />
    <glyph glyph-name="nonmarkingreturn" horiz-adv-x="681" 
 />
    <glyph glyph-name="space" unicode=" " horiz-adv-x="382" 
 />
    <glyph glyph-name="exclam" unicode="!" horiz-adv-x="446" 
d="M41 37l31 170q6 35 41 35h141q35 0 29 -35l-31 -170q-6 -37 -41 -37h-139q-37 0 -31 37zM256 414h-86q-37 0 -31 37l137 952q6 37 41 37h152q35 0 29 -37l-199 -952q-6 -37 -43 -37z" />
    <glyph glyph-name="quotedbl" unicode="&#x22;" horiz-adv-x="636" 
d="M397 1278l-92 -317h-80l17 317q5 76 14 123q11 48 31 65q22 19 67 19q49 0 66 -20q16 -18 8 -64q-8 -42 -15 -66q-13 -46 -16 -57zM680 1278l-92 -317h-82l18 317q4 71 13 123q11 49 30 65q22 19 70 19q46 0 63 -20q16 -19 9 -64q-7 -27 -29 -123z" />
    <glyph glyph-name="numbersign" unicode="#" horiz-adv-x="995" 
d="M1094 1391l-164 -371h102q35 0 27 -35l-8 -65q-10 -37 -41 -37h-140l-143 -326h102q32 0 31 -37l-12 -63q-8 -35 -43 -35h-139l-181 -410q-20 -37 -49 -26l-65 20q-33 10 -21 43l166 373h-213l-180 -410q-16 -38 -49 -26l-66 20q-32 7 -20 43l166 373h-103q-36 0 -28 35
l12 63q1 37 41 37h139l143 326h-104q-35 0 -29 37l11 65q6 35 40 35h142l180 410q14 32 49 24l66 -20q40 -8 18 -43l-164 -371h211l183 410q14 32 49 24l65 -20q35 -11 19 -43zM508 883l-143 -326h213l141 326h-211z" />
    <glyph glyph-name="dollar" unicode="$" horiz-adv-x="831" 
d="M684 1589l-22 -133q45 -1 188 -26q34 -15 24 -52l-38 -96q-15 -44 -54 -29q-86 23 -168 23q-104 0 -168 -62q-63 -62 -63 -167q0 -43 26 -90q25 -45 51 -73q26 -27 77 -77q111 -97 161 -176q54 -85 54 -205q0 -167 -88 -282t-252 -148l-25 -146q-6 -34 -39 -34h-72
q-34 0 -28 34l22 134q-134 0 -237 41q-24 8 -32 17q-7 9 -1 30l41 98q16 43 53 27q118 -33 189 -33q107 0 185 68q79 69 79 180q0 45 -26 89q-25 42 -51 70q-22 24 -87 82q-95 79 -153 170q-56 88 -56 211q0 170 87 281t261 135l25 139q6 35 41 35h69q33 0 27 -35z" />
    <glyph glyph-name="percent" unicode="%" horiz-adv-x="1435" 
d="M1284 1405l-878 -1376q-23 -29 -48 -29h-106q-17 0 -20 11q-3 12 8 24l876 1378q22 27 49 27h107q35 0 12 -35zM150 1044q69 410 323 410q229 0 229 -262q0 -58 -14 -148q-69 -407 -323 -407q-108 0 -168 68q-60 67 -60 198q0 58 13 141zM528 1044q15 91 15 140
q0 125 -78 125q-113 0 -158 -265q-14 -90 -14 -133q0 -129 80 -129q56 0 94 62q37 61 61 200zM834 395q74 410 325 410q227 0 227 -262q0 -76 -14 -150q-68 -405 -321 -405q-230 0 -230 260q0 61 13 147zM1212 395q15 78 15 137q0 127 -76 127q-115 0 -160 -264
q-14 -90 -14 -135q0 -127 80 -127q112 0 155 262z" />
    <glyph glyph-name="ampersand" unicode="&#x26;" horiz-adv-x="1091" 
d="M1030 672q0 -220 -145 -428l104 -205q10 -18 4 -29q-6 -10 -22 -10h-152q-12 0 -12 -14l-57 127q-140 -129 -322 -129q-172 0 -275 91q-104 92 -104 253q0 177 83 317q82 138 253 217l-23 51q-30 72 -30 201q0 163 97 254q98 92 273 92q74 0 152 -22q37 -15 27 -47
l-33 -78q-12 -42 -55 -27q-59 10 -91 10q-75 0 -130 -47q-54 -47 -54 -135q0 -54 31 -156l244 -563q45 69 57 133q12 63 12 158q0 14 37 14h102q29 0 29 -28zM449 156q127 0 217 96l-203 475q-101 -51 -156 -150q-55 -98 -55 -219q0 -96 50 -149t147 -53zM809 -16l-2 2z" />
    <glyph glyph-name="quotesingle" unicode="'" horiz-adv-x="354" 
d="M397 1278l-92 -317h-80l17 317q5 76 14 123q11 48 31 65q22 19 67 19q49 0 66 -20q16 -18 8 -64q-8 -42 -15 -66q-13 -46 -16 -57z" />
    <glyph glyph-name="parenleft" unicode="(" horiz-adv-x="526" 
d="M94 317q0 289 108 579t300 540q23 20 47 20h88q33 0 12 -35q-169 -245 -263 -535q-95 -294 -95 -585q0 -263 71 -500q10 -37 -24 -37h-88q-26 0 -39 19q-117 258 -117 534z" />
    <glyph glyph-name="parenright" unicode=")" horiz-adv-x="526" 
d="M479 907q0 -295 -106 -585q-107 -293 -301 -539q-13 -19 -43 -19h-90q-17 0 -19 13q-2 12 6 24q171 246 267 534q96 289 96 585q0 266 -76 501q-4 11 2 24q5 11 23 11h90q26 0 37 -20q114 -258 114 -529z" />
    <glyph glyph-name="asterisk" unicode="*" horiz-adv-x="727" 
d="M426 821q-36 0 -47 15q-10 14 -4 47q6 31 27 91q23 65 34 109q-8 -5 -65 -47q-15 -11 -38.5 -27.5t-28.5 -20.5q-27 -20 -48 -27q-60 -34 -82 20q-18 51 43 84q26 14 94 38q77 27 105 40q-29 13 -67 27q-36 13 -65 27q-26 12 -40 22q-52 30 -13 81q40 54 91 25
q18 -12 64 -58q39 -39 71 -67q3 31 5 111q1 67 3 88q12 65 76 65q35 0 44 -15t3 -50q-1 -16 -13 -49q-3 -10 -11.5 -35t-13.5 -40q-17 -48 -26 -75q30 18 100 68q64 46 85 57q60 28 82 -22q15 -59 -41 -86q-14 -6 -93 -34q-76 -26 -108 -40q42 -22 96 -43q59 -23 78 -35
q45 -33 8 -84q-24 -30 -44 -35q-18 -4 -44 15q-14 6 -37 26q-6 5 -52 49q-33 31 -50 47v-127q0 -43 -6 -73q-8 -62 -72 -62z" />
    <glyph glyph-name="plus" unicode="+" horiz-adv-x="974" 
d="M889 641h-283l-63 -352q-1 -33 -39 -33h-107q-36 0 -30 33l63 352h-283q-35 0 -28 33l18 94q0 33 39 33h283l59 344q8 35 39 35h109q36 0 28 -35l-59 -344h280q33 0 33 -33l-18 -94q-6 -33 -41 -33z" />
    <glyph glyph-name="comma" unicode="," horiz-adv-x="380" 
d="M203 6l-103 -178q-15 -23 -39 -23h-45q-29 0 -12 31l76 164h-37q-37 0 -31 37l31 162q6 37 43 37h127q37 0 31 -37l-27 -150q-1 -7 -14 -43z" />
    <glyph glyph-name="hyphen" unicode="-" horiz-adv-x="559" 
d="M459 485h-357q-34 0 -26 33l16 94q6 31 39 31h354q20 0 27 -7q8 -8 6 -24l-16 -94q-8 -33 -43 -33z" />
    <glyph glyph-name="period" unicode="." horiz-adv-x="380" 
d="M12 37l31 162q6 37 43 37h127q37 0 31 -37l-31 -162q-6 -37 -39 -37h-131q-37 0 -31 37z" />
    <glyph glyph-name="slash" unicode="/" horiz-adv-x="626" 
d="M-61 39l651 1368q12 33 47 33h115q22 0 28 -12q6 -11 -6 -29l-651 -1366q-11 -33 -43 -33h-117q-45 0 -24 39z" />
    <glyph glyph-name="zero" unicode="0" horiz-adv-x="978" 
d="M645 1458q330 0 330 -416q0 -120 -33 -321q-69 -397 -197 -567t-327 -170q-326 0 -326 409q0 141 33 326q69 399 194 569t326 170zM432 162q104 0 179 127q76 129 128 430q33 189 33 311q0 248 -141 248q-103 0 -175 -127q-73 -129 -128 -430q-33 -179 -33 -318
q0 -241 137 -241z" />
    <glyph glyph-name="one" unicode="1" horiz-adv-x="710" 
d="M264 39l205 1161l-203 -162q-29 -18 -41 2l-63 80q-18 23 10 39l330 266q16 15 49 15h125q37 0 31 -37l-242 -1364q-6 -39 -41 -39h-125q-41 0 -35 39z" />
    <glyph glyph-name="two" unicode="2" horiz-adv-x="882" 
d="M367 1024q0 -63 -39 -63h-115q-33 0 -33 59q0 183 124 310q125 128 292 128q162 0 242 -86t80 -219q0 -134 -60 -281q-60 -146 -156 -277q-96 -130 -191 -233q-86 -93 -192 -184h406l8 -4q13 -8 18 -13q9 -9 7 -22l-19 -100q-7 -39 -43 -39h-676q-44 0 -32 39l14 82
q6 32 35 49q78 68 182 166q78 74 177 183q103 114 163 204q65 98 109 207q45 112 45 215q0 135 -133 135q-109 0 -161 -76t-52 -180z" />
    <glyph glyph-name="three" unicode="3" horiz-adv-x="827" 
d="M328 834h88q114 0 170 98q57 99 57 215q0 71 -39 103q-40 32 -123 32q-45 0 -87 -6q-41 -6 -85 -18q-40 -11 -49 -11q-18 -5 -28 2q-9 6 -7 25l-4 100q1 28 41 43q166 41 248 41q154 0 246 -74t92 -206q0 -133 -53 -253q-52 -117 -166 -161q129 -51 129 -242
q0 -254 -130 -396t-374 -142q-155 0 -266 32q-29 12 -23 39l39 107q12 37 45 26q147 -30 207 -30q148 0 222 98q75 99 75 254q0 154 -160 154h-94q-39 0 -33 32l19 103q6 35 43 35z" />
    <glyph glyph-name="four" unicode="4" horiz-adv-x="944" 
d="M643 0h-125q-39 0 -33 39l52 280h-476q-37 0 -30 37l18 99q1 23 21 49l641 907q24 29 53 29h129q37 0 31 -37l-160 -914h119q36 0 30 -36l-14 -97q-7 -37 -43 -37h-121l-51 -280q-6 -39 -41 -39zM686 1157l-442 -668h323z" />
    <glyph glyph-name="five" unicode="5" horiz-adv-x="843" 
d="M248 -16q-159 0 -258 32q-31 15 -19 47l37 101q1 15 18 23q15 7 29 3q105 -32 191 -32q170 0 252 121t82 303q0 80 -37 117q-38 38 -123 38q-77 0 -140 -19q-66 -20 -71 -20q-13 0 -27 7l-41 18q-18 10 -10 41q78 302 141 639q10 37 43 37h523q37 0 30 -37l-16 -105
q-6 -34 -45 -34h-387l-84 -379q50 18 137 18q151 0 230 -81q79 -80 79 -222q0 -271 -141 -443q-141 -173 -393 -173z" />
    <glyph glyph-name="six" unicode="6" horiz-adv-x="929" 
d="M834 1255q-84 29 -148 29q-148 0 -218 -101q-70 -102 -138 -372q46 71 107 97t153 26q146 0 216 -91q71 -92 71 -237q0 -148 -46 -288q-45 -136 -151 -235t-258 -99q-168 0 -252 105t-84 294q0 116 33 317q67 404 192 579q128 179 373 179q127 0 205 -28q37 -12 26 -41
l-36 -105q-10 -37 -45 -29zM434 156q69 0 121 44q51 44 77 113q26 70 38 140q12 69 12 137q0 176 -143 176q-94 0 -154 -68q-59 -67 -79 -148q-19 -79 -19 -171q0 -96 35 -160q34 -63 112 -63z" />
    <glyph glyph-name="seven" unicode="7" horiz-adv-x="819" 
d="M127 37q61 320 225 660q168 349 342 567h-467q-37 0 -30 36l16 103q6 37 43 37h643q38 0 31 -37l-17 -96q-2 -21 -28 -58q-186 -260 -346 -589q-158 -325 -203 -623q-7 -37 -43 -37h-133q-39 0 -33 37z" />
    <glyph glyph-name="eight" unicode="8" horiz-adv-x="929" 
d="M391 -18q-168 0 -255 80q-89 81 -89 214q0 162 81 286q81 125 224 186q-153 88 -153 286q0 195 118 309q120 115 308 115q152 0 240 -76q89 -77 89 -204q0 -300 -276 -430q166 -94 166 -314q0 -205 -127 -329q-126 -123 -326 -123zM608 1296q-107 0 -161 -73t-54 -181
q0 -145 135 -217q108 46 170 133q62 86 62 195q0 143 -152 143zM500 666q-117 -52 -184 -147q-66 -93 -66 -212q0 -157 162 -157q115 0 173 82t58 198q0 169 -143 236z" />
    <glyph glyph-name="nine" unicode="9" horiz-adv-x="929" 
d="M193 180q103 -26 145 -26q143 0 215 96q71 94 137 360q-40 -59 -103 -83q-60 -23 -163 -23q-144 0 -214 87q-71 88 -71 230q0 112 27 220q28 111 79 203q54 97 143 154q91 58 208 58q334 0 334 -403q0 -114 -35 -332q-72 -394 -195 -566q-123 -173 -362 -173
q-134 0 -205 28q-36 12 -24 41l36 103q10 38 48 26zM578 1280q-69 0 -118 -46q-52 -49 -75 -118q-24 -73 -36 -139q-11 -62 -11 -127q0 -178 145 -178q71 0 124 38q52 37 78 101q25 61 37 126q11 58 11 130q0 96 -38 155q-37 58 -117 58z" />
    <glyph glyph-name="colon" unicode=":" horiz-adv-x="432" 
d="M39 37l31 162q6 37 41 37h129q36 0 30 -37l-30 -162q-6 -37 -41 -37h-129q-37 0 -31 37zM190 895l31 164q1 37 41 37h129q32 0 31 -37l-29 -164q-12 -35 -43 -35h-129q-39 0 -31 35z" />
    <glyph glyph-name="semicolon" unicode=";" horiz-adv-x="432" 
d="M190 895l31 164q1 37 41 37h129q32 0 31 -37l-29 -164q-12 -35 -43 -35h-129q-39 0 -31 35zM227 6l-100 -178q-15 -23 -39 -23h-45q-29 0 -14 31l77 164h-36q-37 0 -31 37l31 162q6 37 41 37h129q36 0 30 -37l-28 -150q-1 -16 -15 -43z" />
    <glyph glyph-name="less" unicode="&#x3c;" horiz-adv-x="974" 
d="M164 719q0 15 20 29l639 550q36 29 54 5l57 -76q15 -25 -12 -49l-529 -459l369 -459q19 -25 -8 -47l-82 -78q-27 -23 -51 0l-447 555q-12 16 -10 29z" />
    <glyph glyph-name="equal" unicode="=" horiz-adv-x="974" 
d="M903 840h-700q-30 0 -29 32l16 93q6 34 41 34h699q34 0 28 -34l-16 -93q-6 -32 -39 -32zM831 444h-698q-33 0 -27 35l17 92q1 33 39 33h698q35 0 29 -33l-17 -92q-6 -35 -41 -35z" />
    <glyph glyph-name="greater" unicode="&#x3e;" horiz-adv-x="974" 
d="M901 719q-2 -13 -18 -29l-652 -555q-27 -27 -51 0l-45 78q-21 26 6 47l533 461l-371 459q-18 21 10 47l74 76q33 21 49 0l455 -555q10 -11 10 -29z" />
    <glyph glyph-name="question" unicode="?" horiz-adv-x="741" 
d="M172 37l31 170q6 35 43 35h137q42 0 31 -35l-29 -170q-7 -37 -43 -37h-137q-39 0 -33 37zM459 518l-13 -67q-7 -37 -43 -37h-110q-37 0 -31 37l12 67q15 79 66 164q52 87 101 151q52 68 91 153q41 90 41 177q0 115 -145 115q-35 0 -73 -5q-25 -3 -62 -13q-11 -3 -23 -7
l-12 -4q-19 -4 -31 1q-10 4 -8 24l-4 106q2 29 41 41q81 37 209 37q154 0 234 -70q81 -71 81 -200q0 -109 -46 -213q-47 -106 -101 -173q-61 -76 -110 -148q-53 -79 -64 -136z" />
    <glyph glyph-name="at" unicode="@" horiz-adv-x="1570" 
d="M899 444l105 357q-28 2 -52 2q-117 0 -199 -70q-81 -69 -113 -166q-32 -98 -32 -209q0 -65 24 -107t64 -42q136 0 203 235zM1026 -72q9 4 17 -2q7 -6 6 -20l-2 -62q-1 -22 -23 -24q-152 -41 -305 -41q-292 0 -461 125q-168 125 -168 377q0 239 101 453q102 215 305 360
q201 143 458 143q274 0 414 -124q141 -124 141 -335q0 -105 -32 -220q-33 -117 -93 -229q-62 -115 -159 -186q-100 -73 -221 -73h-97q-21 0 -34 8q-11 7 -9 26l2 89q-91 -130 -209 -130q-95 0 -160 77t-65 196q0 158 56 291q57 134 185 228q127 93 304 93q101 0 194 -41
q27 -7 19 -37l-195 -675h27q92 0 163 59t112 153q39 90 61 188q20 90 20 181q0 342 -434 342q-210 0 -377 -118q-169 -119 -258 -306q-90 -189 -90 -403q0 -395 508 -395q164 0 299 32z" />
    <glyph glyph-name="A" unicode="A" horiz-adv-x="964" 
d="M371 537h250v692h-5zM563 1440h178q25 0 34 -9t11 -32l60 -1358q5 -41 -37 -41h-129q-33 0 -37 37l-6 319h-342l-119 -319q-21 -37 -47 -37h-135q-44 0 -29 41l541 1358q17 41 57 41z" />
    <glyph glyph-name="B" unicode="B" horiz-adv-x="956" 
d="M360 827h148q128 0 197 81t69 214q0 76 -44 106q-42 29 -136 29h-154zM408 0h-351q-40 0 -34 39l241 1364q6 37 45 37h307q168 0 267 -72q98 -71 98 -211q0 -127 -54 -241q-53 -112 -167 -162q59 -18 97 -86t38 -172q0 -223 -127 -359q-128 -137 -360 -137zM248 184h160
q142 0 212 84q70 83 70 230q0 81 -46 118t-144 37h-166z" />
    <glyph glyph-name="C" unicode="C" horiz-adv-x="821" 
d="M514 168q56 0 135 20q41 12 41 -32l6 -99q-2 -29 -45 -47q-77 -26 -182 -26q-193 0 -289 93t-96 310q0 122 35 334q73 414 202 576q128 161 369 161q119 0 201 -26q39 -12 27 -48l-37 -96q-12 -44 -54 -28q-80 14 -125 14q-159 0 -239 -115t-137 -438q-35 -218 -35 -303
q0 -141 53 -196q53 -54 170 -54z" />
    <glyph glyph-name="D" unicode="D" horiz-adv-x="964" 
d="M348 0h-291q-40 0 -34 39l241 1364q6 37 45 37h254q202 0 304 -99t102 -321q0 -125 -29 -279q-72 -413 -209 -578q-136 -163 -383 -163zM545 1253h-105l-186 -1067h108q145 0 230 118q87 120 143 435q27 147 27 248q0 146 -54 206t-163 60z" />
    <glyph glyph-name="E" unicode="E" horiz-adv-x="792" 
d="M692 647h-360l-82 -461h381q41 0 35 -36l-21 -111q-7 -39 -45 -39h-543q-40 0 -34 39l241 1364q6 37 45 37h537q39 0 33 -37l-21 -111q-6 -39 -43 -39h-377l-73 -428h358q37 0 31 -39l-19 -102q-6 -37 -43 -37z" />
    <glyph glyph-name="F" unicode="F" horiz-adv-x="765" 
d="M686 623h-356l-105 -584q-6 -39 -43 -39h-123q-42 0 -36 39l241 1362q6 39 45 39h535q37 0 33 -37l-21 -109q-6 -39 -43 -39h-371l-80 -452h355q39 0 31 -39l-19 -105q-6 -36 -43 -36z" />
    <glyph glyph-name="G" unicode="G" horiz-adv-x="927" 
d="M561 844h303q37 0 31 -37l-125 -715q-6 -41 -47 -59q-89 -49 -242 -49q-197 0 -297 92q-98 91 -98 311q0 128 35 336q72 413 210 574t400 161q130 0 211 -28q37 -16 25 -50l-37 -98q-15 -44 -56 -27q-97 19 -145 19q-184 0 -265 -113q-80 -112 -136 -438
q-35 -199 -35 -311q0 -138 51 -192t166 -54q34 0 82 8l88 494h-148q-38 0 -32 37l16 102q6 37 45 37z" />
    <glyph glyph-name="H" unicode="H" horiz-adv-x="968" 
d="M588 39l108 602h-362l-109 -602q-6 -39 -43 -39h-125q-40 0 -34 39l241 1364q6 37 45 37h125q39 0 33 -37l-100 -574h362l100 574q6 37 45 37h125q39 0 33 -37l-241 -1364q-6 -39 -41 -39h-127q-41 0 -35 39z" />
    <glyph glyph-name="I" unicode="I" horiz-adv-x="423" 
d="M35 39l241 1364q6 37 43 37h125q43 0 33 -37l-239 -1364q-6 -39 -43 -39h-127q-39 0 -33 39z" />
    <glyph glyph-name="J" unicode="J" horiz-adv-x="612" 
d="M297 369l182 1034q6 37 43 37h127q37 0 31 -37l-186 -1059q-33 -191 -114 -274q-81 -82 -235 -82q-105 0 -151 14q-44 17 -29 51l37 101q12 34 43 28q56 -8 96 -8q65 0 99 39t57 156z" />
    <glyph glyph-name="K" unicode="K" horiz-adv-x="892" 
d="M371 872l395 537q25 31 55 31h183q20 0 25 -15q4 -14 -7 -30l-504 -633l270 -715q8 -18 -1 -33q-8 -14 -29 -14h-150q-26 0 -43 35l-223 643l-117 -639q-6 -39 -43 -39h-125q-40 0 -34 39l241 1364q6 37 45 37h125q39 0 33 -37z" />
    <glyph glyph-name="L" unicode="L" horiz-adv-x="735" 
d="M467 1403l-213 -1215h334q39 0 33 -36l-21 -113q-6 -39 -43 -39h-500q-40 0 -34 39l241 1364q6 37 45 37h125q39 0 33 -37z" />
    <glyph glyph-name="M" unicode="M" horiz-adv-x="1138" 
d="M555 395q-22 0 -33 25l-123 616l-176 -997q-6 -39 -41 -39h-125q-40 0 -34 39l241 1364q6 37 45 37h111q30 0 41 -25l145 -692l393 692q17 25 45 25h125q39 0 33 -37l-241 -1364q-6 -39 -43 -39h-123q-41 0 -33 39l176 997l-344 -616q-11 -25 -39 -25z" />
    <glyph glyph-name="N" unicode="N" horiz-adv-x="989" 
d="M1055 1403l-244 -1364q-6 -39 -43 -39h-113q-37 0 -43 33l-215 1011l-176 -1005q-7 -39 -43 -39h-121q-40 0 -34 39l241 1364q6 37 45 37h111q39 0 47 -31l211 -1014l176 1008q10 37 45 37h121q36 0 35 -37z" />
    <glyph glyph-name="O" unicode="O" horiz-adv-x="1003" 
d="M659 1458q171 0 259 -94t88 -309q0 -131 -35 -336q-72 -411 -197 -574q-124 -161 -340 -161q-170 0 -260 93t-90 310q0 127 35 332q74 412 199 575q126 164 341 164zM446 164q118 0 190 121q74 124 130 434q35 208 35 319q0 132 -39 186t-119 54q-117 0 -189 -122
q-73 -122 -128 -437q-35 -208 -35 -318q0 -131 39 -184t116 -53z" />
    <glyph glyph-name="P" unicode="P" horiz-adv-x="909" 
d="M328 616h98q131 0 191 66q61 68 94 254q18 92 18 154q0 94 -45 129q-44 34 -145 34h-99zM182 0h-125q-40 0 -34 39l241 1362q6 39 45 39h246q196 0 289 -73q92 -72 92 -247q0 -78 -18 -186q-46 -281 -160 -392q-113 -110 -346 -110h-117l-70 -393q-6 -39 -43 -39z" />
    <glyph glyph-name="Q" unicode="Q" horiz-adv-x="1003" 
d="M590 29q58 -29 127 -29q21 0 34 1t25 1q37 0 29 -31l-17 -94q-6 -41 -53 -41q-224 0 -370 160q-279 22 -279 393q0 129 35 334q72 410 197 572q126 163 344 163q168 0 257 -93q89 -94 89 -306q0 -144 -35 -336q-57 -319 -149 -484q-92 -164 -234 -210zM446 168
q118 0 190 122q74 124 130 433q35 205 35 313q0 132 -39 187t-119 55q-117 0 -189 -121q-74 -125 -126 -434q-35 -212 -35 -322q0 -127 38 -180t115 -53z" />
    <glyph glyph-name="R" unicode="R" horiz-adv-x="917" 
d="M340 676h117q126 0 183 61q56 61 85 226q14 69 14 135q0 88 -43 122q-42 33 -147 33h-109zM309 1440h258q196 0 289 -73q92 -72 92 -237q0 -80 -18 -172q-34 -202 -110 -305t-202 -133l134 -473q6 -19 -1 -33t-30 -14h-129q-36 0 -47 31l-125 463h-113l-82 -455
q-6 -39 -43 -39h-125q-40 0 -34 39l241 1364q6 37 45 37z" />
    <glyph glyph-name="S" unicode="S" horiz-adv-x="784" 
d="M707 428q0 -204 -116 -325q-115 -119 -333 -119q-169 0 -240 26q-42 14 -30 47l39 103q15 43 53 28q88 -24 176 -24q111 0 177 63q67 64 67 176q0 121 -133 248q-197 159 -197 369q0 200 108 319t318 119q140 0 213 -24q41 -17 29 -48l-39 -100q-15 -43 -54 -26
q-64 16 -151 16q-217 0 -217 -227q0 -105 135 -240q195 -174 195 -381z" />
    <glyph glyph-name="T" unicode="T" horiz-adv-x="759" 
d="M186 1290l19 113q6 37 45 37h600q39 0 33 -37l-21 -113q-6 -39 -45 -39h-199l-215 -1212q-6 -39 -43 -39h-124q-40 0 -33 39l213 1212h-197q-39 0 -33 39z" />
    <glyph glyph-name="U" unicode="U" horiz-adv-x="950" 
d="M408 -16q-168 0 -252 72t-84 231q0 61 12 135l174 981q6 37 45 37h125q39 0 33 -37l-170 -961q-12 -74 -12 -127q0 -80 32 -113q33 -34 111 -34q101 0 150 61q50 62 77 213l168 961q6 37 43 37h127q37 0 31 -37l-174 -981q-40 -233 -142 -336q-100 -102 -294 -102z" />
    <glyph glyph-name="V" unicode="V" horiz-adv-x="946" 
d="M483 0h-182q-44 0 -45 43l-49 1356q0 41 37 41h135q35 0 35 -37l16 -864l-10 -316h8l104 316l318 864q18 37 49 37h141q48 0 25 -41l-524 -1356q-24 -43 -58 -43z" />
    <glyph glyph-name="W" unicode="W" horiz-adv-x="1503" 
d="M858 1440h123q40 0 41 -37l-6 -801v-354h6l117 356l266 799q12 37 47 37h139q41 0 23 -41l-486 -1356q-21 -43 -55 -43h-176q-43 0 -43 43l4 684v350h-4l-125 -350l-229 -684q-15 -43 -58 -43h-174q-39 0 -43 43l-10 1356q5 41 37 41h135q31 0 35 -37l-10 -799l-11 -356
h7l120 354l279 801q12 37 51 37z" />
    <glyph glyph-name="X" unicode="X" horiz-adv-x="899" 
d="M467 547l-281 -514q-23 -33 -55 -33h-143q-22 0 -26 14q-5 15 7 31l416 686l-170 664q-7 45 31 45h141q30 0 45 -33l96 -496l265 496q21 33 55 33h145q19 0 25 -16q6 -14 -6 -29l-404 -664l172 -686q4 -17 -4 -32q-7 -13 -26 -13h-140q-30 0 -45 33z" />
    <glyph glyph-name="Y" unicode="Y" horiz-adv-x="925" 
d="M578 549l-91 -510q-6 -39 -43 -39h-127q-38 0 -32 39l92 510l-174 846q-6 16 3 30q9 15 32 15h133q32 0 43 -35l67 -459l23 -211h2l100 211l234 459q18 35 49 35h139q44 0 21 -45z" />
    <glyph glyph-name="Z" unicode="Z" horiz-adv-x="823" 
d="M-10 39l18 108q10 32 29 54l620 1050h-395q-37 0 -31 39l21 113q6 37 43 37h586q36 0 30 -37l-18 -109q-1 -24 -25 -55l-618 -1053h422q35 0 28 -36l-20 -111q-6 -39 -41 -39h-616q-41 0 -33 39z" />
    <glyph glyph-name="bracketleft" unicode="[" horiz-adv-x="526" 
d="M367 -104l-17 -84q-6 -37 -39 -37h-266q-37 0 -31 37l283 1593q6 35 41 35h264q37 0 31 -35l-17 -86q-2 -35 -38 -35h-117l-240 -1354h117q35 0 29 -34z" />
    <glyph glyph-name="backslash" unicode="\" horiz-adv-x="626" 
d="M360 1407l170 -1368q4 -39 -36 -39h-105q-31 0 -37 33l-168 1366q0 41 37 41h103q30 0 36 -33z" />
    <glyph glyph-name="bracketright" unicode="]" horiz-adv-x="528" 
d="M-55 -188l16 84q6 34 41 34h117l239 1354h-116q-33 0 -31 35l16 86q6 35 41 35h262q39 0 33 -35l-280 -1593q-7 -37 -43 -37h-265q-36 0 -30 37z" />
    <glyph glyph-name="asciicircum" unicode="^" horiz-adv-x="974" 
d="M604 1440h107q31 0 41 -33l176 -647q6 -41 -35 -41h-119q-26 0 -37 33l-112 469l-279 -469q-22 -33 -49 -33h-129q-19 0 -23 11t9 30l401 647q23 33 49 33z" />
    <glyph glyph-name="underscore" unicode="_" horiz-adv-x="788" 
d="M600 -207h-647q-40 0 -29 35l8 55q6 35 41 35h648q37 0 26 -35l-8 -55q-6 -35 -39 -35z" />
    <glyph glyph-name="grave" unicode="`" horiz-adv-x="532" 
d="M496 1395l45 -162q8 -29 -27 -29h-68q-25 0 -43 21l-116 157q-10 12 -4 26q6 13 24 13h152q27 0 37 -26z" />
    <glyph glyph-name="a" unicode="a" horiz-adv-x="800" 
d="M768 786l-131 -749q-10 -37 -41 -37h-102q-34 0 -33 33l16 96q-94 -141 -237 -141q-104 0 -164 67t-60 176q0 243 136 344t417 113l17 98q16 84 -13 126q-28 40 -110 40q-90 0 -215 -41q-16 -4 -28 3q-11 7 -9 26v92q5 35 37 45q93 43 248 43q280 0 280 -241
q0 -47 -8 -93zM516 391l29 158q-117 -7 -192 -28q-69 -19 -104 -60q-34 -40 -42 -85q-8 -46 -8 -126q0 -111 92 -111q83 0 145 73t80 179z" />
    <glyph glyph-name="b" unicode="b" horiz-adv-x="888" 
d="M295 551q-21 -127 -21 -195q0 -206 134 -206q90 0 144 93t93 308q25 158 25 221q0 98 -30 140t-93 42q-180 0 -252 -403zM219 129l-18 -96q-7 -33 -41 -33h-113q-39 0 -33 37l244 1368q6 35 41 35h117q38 0 30 -35l-75 -426q79 141 235 141q258 0 258 -323
q0 -105 -24 -246q-56 -297 -150 -432t-254 -135q-82 0 -146 41q-63 41 -71 104z" />
    <glyph glyph-name="c" unicode="c" horiz-adv-x="665" 
d="M80 553q49 294 156 431q106 136 290 136q111 0 174 -20q33 -15 23 -47l-41 -92q-11 -35 -47 -21q-73 6 -98 6q-110 0 -169 -89q-60 -90 -94 -304q-24 -135 -24 -219q0 -96 36 -137t109 -41q45 0 119 16q33 12 33 -25l6 -94q0 -18 -8 -26t-33 -19q-106 -24 -137 -24
q-320 0 -320 327q0 78 25 242z" />
    <glyph glyph-name="d" unicode="d" horiz-adv-x="888" 
d="M625 551q18 99 18 192q0 211 -135 211q-90 0 -144 -93q-55 -94 -92 -310q-24 -151 -24 -223q0 -178 121 -178q183 0 256 401zM532 33l17 94q-69 -143 -234 -143q-264 0 -264 323q0 91 27 244q46 289 146 430q99 139 259 139q82 0 141 -41q57 -39 72 -100l76 426
q6 35 41 35h117q39 0 33 -35l-244 -1368q-6 -37 -41 -37h-113q-35 0 -33 33z" />
    <glyph glyph-name="e" unicode="e" horiz-adv-x="796" 
d="M434 145q79 0 154 23q15 6 29 -2t12 -25l6 -82q-2 -35 -39 -47q-94 -28 -184 -28q-355 0 -355 352q0 74 25 233q49 280 155 416q105 135 277 135q132 0 199 -76t67 -215q0 -89 -22 -215l-19 -110q-6 -37 -45 -37h-444q-12 -61 -12 -123q0 -199 196 -199zM498 963
q-78 0 -130 -81q-53 -82 -92 -266h302l2 17q22 125 22 184q0 146 -104 146z" />
    <glyph glyph-name="f" unicode="f" horiz-adv-x="536" 
d="M449 1094h143q32 0 26 -37l-18 -101q-6 -34 -41 -34h-143l-156 -887q-6 -35 -39 -35h-117q-36 0 -30 35l155 887h-77q-34 0 -27 34l16 101q6 37 43 37h78l10 69q29 160 94 225q64 64 195 64q62 0 101 -12q18 -6 18 -37l-10 -82q-5 -41 -41 -35h-51q-62 0 -84 -26
t-37 -111z" />
    <glyph glyph-name="g" unicode="g" horiz-adv-x="860" 
d="M606 602q17 102 17 162q0 197 -125 197q-81 0 -134 -88q-52 -86 -85 -271q-19 -97 -19 -184q0 -170 113 -170q173 0 233 354zM874 1067l-167 -948q-30 -183 -133 -273q-101 -88 -283 -88q-165 0 -250 35q-33 15 -23 43l33 88q12 41 47 29q95 -31 187 -31q202 0 239 205
l17 106q-66 -141 -222 -141q-253 0 -253 299q0 105 20 211q46 262 140 390q93 128 243 128q77 0 134 -45t73 -106l16 102q8 33 47 33h109q32 0 26 -37z" />
    <glyph glyph-name="h" unicode="h" horiz-adv-x="862" 
d="M829 780l-131 -743q-6 -37 -39 -37h-118q-37 0 -31 37l127 711q8 42 8 79q0 117 -104 117q-87 0 -145 -70q-56 -67 -77 -192l-114 -645q-6 -37 -41 -37h-117q-39 0 -33 37l244 1368q6 35 41 35h117q38 0 30 -35l-73 -422q95 137 239 137q110 0 169 -66q59 -67 59 -180
q0 -36 -11 -94z" />
    <glyph glyph-name="i" unicode="i" horiz-adv-x="382" 
d="M391 1067l-182 -1030q-6 -37 -39 -37h-119q-37 0 -31 37l183 1030q6 37 43 37h119q32 0 26 -37zM453 1397l-23 -133q-7 -37 -39 -37h-129q-35 0 -29 37l25 133q6 35 39 35h127q37 0 29 -35z" />
    <glyph glyph-name="j" unicode="j" horiz-adv-x="409" 
d="M47 43l182 1024q6 37 41 37h119q33 0 27 -37l-185 -1049q-24 -145 -71 -198t-164 -53q-78 0 -94 6q-28 6 -27 34l12 101q1 38 39 33h39q36 0 53 20q19 22 29 82zM481 1397l-24 -133q-6 -37 -41 -37h-127q-37 0 -31 37l25 133q6 35 41 35h127q36 0 30 -35z" />
    <glyph glyph-name="k" unicode="k" horiz-adv-x="776" 
d="M649 0h-139q-34 0 -51 31l-172 483l-82 -477q-6 -37 -41 -37h-117q-39 0 -33 37l244 1368q6 35 41 35h117q38 0 30 -35l-120 -682l295 358q23 23 57 23h164q14 0 20 -8t2 -20t-16 -19l-395 -447l227 -565q7 -16 0 -31q-7 -14 -31 -14z" />
    <glyph glyph-name="l" unicode="l" horiz-adv-x="385" 
d="M451 1405l-242 -1368q-6 -37 -39 -37h-119q-37 0 -31 37l244 1368q6 35 39 35h119q37 0 29 -35z" />
    <glyph glyph-name="m" unicode="m" horiz-adv-x="1292" 
d="M782 711l-116 -674q-10 -37 -41 -37h-117q-39 0 -33 37l129 717q8 43 8 82q0 108 -90 108q-80 0 -132 -67t-75 -187l-114 -653q-6 -37 -41 -37h-117q-39 0 -33 37l183 1030q6 37 45 37h112q37 0 31 -33l-14 -92q89 141 223 141q86 0 138 -42q53 -42 63 -115
q99 157 262 157q106 0 162 -65q57 -66 57 -178q0 -46 -8 -89l-136 -751q-10 -37 -38 -37h-117q-39 0 -33 37l129 717q8 43 8 82q0 108 -92 108q-73 0 -129 -66q-56 -67 -74 -167z" />
    <glyph glyph-name="n" unicode="n" horiz-adv-x="851" 
d="M821 780l-133 -743q-6 -37 -39 -37h-119q-36 0 -30 37l125 711q8 43 8 83q0 113 -101 113q-85 0 -143 -70t-76 -192l-116 -645q-6 -37 -41 -37h-117q-39 0 -29 37l180 1030q10 37 43 37h113q35 0 29 -33l-13 -92q92 141 242 141q110 0 169 -66q58 -65 58 -180
q0 -41 -10 -94z" />
    <glyph glyph-name="o" unicode="o" horiz-adv-x="851" 
d="M356 -16q-303 0 -303 331q0 95 25 236q52 294 159 433q105 136 289 136q301 0 301 -336q0 -108 -22 -233q-55 -293 -161 -431q-105 -136 -288 -136zM371 150q89 0 145 93q55 92 94 308q25 158 25 219q0 184 -125 184q-90 0 -144 -93q-56 -96 -94 -310q-24 -151 -24 -219
q0 -182 123 -182z" />
    <glyph glyph-name="p" unicode="p" horiz-adv-x="884" 
d="M291 551q-21 -127 -21 -195q0 -206 133 -206q91 0 145 93t93 308q25 158 25 221q0 98 -30 140t-93 42q-180 0 -252 -403zM379 1071l-17 -96q35 63 98 104q64 41 142 41q256 0 256 -327q0 -100 -22 -242q-50 -291 -147 -431q-94 -136 -255 -136q-84 0 -145 40
q-62 41 -72 101l-55 -313q-6 -37 -43 -37h-117q-37 0 -31 37l222 1255q6 37 45 37h110q37 0 31 -33z" />
    <glyph glyph-name="q" unicode="q" horiz-adv-x="884" 
d="M625 551q18 113 18 192q0 211 -135 211q-90 0 -144 -93q-55 -94 -92 -310q-24 -151 -24 -223q0 -178 121 -178q189 0 256 401zM698 975l19 96q6 33 43 33h112q35 0 29 -37l-221 -1255q-6 -37 -43 -37h-117q-37 0 -31 37l56 313q-28 -66 -88 -103q-61 -38 -142 -38
q-264 0 -264 323q0 91 27 244q52 295 150 432t257 137q82 0 141 -43q60 -44 72 -102z" />
    <glyph glyph-name="r" unicode="r" horiz-adv-x="569" 
d="M238 1104h114q35 0 29 -35l-19 -117q29 70 97 118q65 46 147 46q24 0 32 -8t3 -29l-25 -145q-8 -33 -36 -33q-1 0 -25 2t-33 2q-78 0 -138 -81q-61 -82 -83 -218l-100 -569q-6 -37 -41 -37h-117q-39 0 -33 37l183 1030q6 37 45 37z" />
    <glyph glyph-name="s" unicode="s" horiz-adv-x="667" 
d="M596 354q0 -172 -99 -271t-278 -99q-148 0 -225 26q-38 11 -27 41l35 94q10 39 43 27q77 -25 168 -25q76 0 135 51q58 50 58 136q0 48 -30 82q-31 36 -108 92q-162 114 -162 262q0 161 97 256q95 94 268 94q123 0 193 -22q35 -11 24 -41l-33 -90q-10 -37 -43 -27
q-70 16 -129 16q-77 0 -132 -41q-54 -41 -54 -120q0 -26 15 -50q14 -23 35 -42q1 0 61 -52q6 -5 13 -11t9 -7q88 -67 127 -129t39 -150z" />
    <glyph glyph-name="t" unicode="t" horiz-adv-x="552" 
d="M547 922h-137l-109 -611q-8 -46 -8 -80q0 -40 17 -54q18 -15 61 -15q9 0 21 3t20 3q14 1 20 -6t4 -27l-2 -92q-2 -29 -35 -41q-29 -12 -80 -12q-111 0 -163 42q-54 43 -54 144q0 39 13 111l110 635h-78q-36 0 -30 34l18 101q6 37 43 37h82l37 225q6 35 43 35h111
q34 0 28 -35l-37 -225h138q32 0 26 -37l-16 -101q-6 -34 -43 -34z" />
    <glyph glyph-name="u" unicode="u" horiz-adv-x="845" 
d="M55 322l133 745q6 37 43 37h117q37 0 27 -37l-125 -709q-8 -61 -8 -79q0 -121 104 -121q80 0 134 69q55 71 79 191l113 649q6 37 45 37h117q32 0 26 -37l-182 -1030q-6 -37 -39 -37h-113q-20 0 -28 8t-6 25l14 90q-79 -139 -225 -139q-116 0 -175 65t-59 182q0 45 8 91z
" />
    <glyph glyph-name="v" unicode="v" horiz-adv-x="774" 
d="M377 0h-144q-38 0 -38 35l-56 1030q-5 39 35 39h123q29 0 33 -37l20 -651l-8 -183h6l53 183l248 651q16 37 47 37h131q35 0 19 -39l-418 -1030q-18 -35 -51 -35z" />
    <glyph glyph-name="w" unicode="w" horiz-adv-x="1222" 
d="M664 1104h112q28 0 33 -35l-2 -575l-4 -265h4l92 265l188 573q21 37 50 37h127q36 0 20 -39l-379 -1028q-16 -37 -51 -37h-137q-41 0 -41 37l4 512l-2 282h-6l-103 -282l-174 -512q-15 -37 -51 -37h-139q-35 0 -39 37l-19 1028q0 39 37 39h117q33 0 33 -37l-10 -573
l-7 -265h5l92 265l202 575q18 35 48 35z" />
    <glyph glyph-name="x" unicode="x" horiz-adv-x="788" 
d="M344 1077l92 -364l217 364q15 27 49 27h127q19 0 22 -13t-9 -28l-332 -502l158 -522q6 -15 0 -27t-25 -12h-129q-28 0 -39 25l-90 381l-225 -381q-17 -25 -45 -25h-135q-19 0 -22 12q-3 13 7 27l344 522l-157 502q-6 17 1 29t25 12h129q25 0 37 -27z" />
    <glyph glyph-name="y" unicode="y" horiz-adv-x="778" 
d="M850 1065l-401 -999q-60 -162 -134 -233t-225 -71q-80 0 -123 19q-30 12 -22 39l30 90q12 33 45 31l4 -1q3 -1 10 -2.5t15 -2.5q30 -5 55 -5q130 0 109 160l-70 975q-5 39 35 39h123q29 0 33 -37l31 -657l-13 -174h4l56 174l239 657q21 37 49 37h127q35 0 23 -39z" />
    <glyph glyph-name="z" unicode="z" horiz-adv-x="731" 
d="M756 1067l-13 -74q-5 -29 -22 -51l-469 -770h319q37 0 31 -33l-18 -102q-6 -37 -41 -37h-520q-37 0 -31 37l14 72q1 18 19 47l475 776h-303q-37 0 -29 33l16 102q6 37 45 37h500q37 0 27 -37z" />
    <glyph glyph-name="braceleft" unicode="{" horiz-adv-x="526" 
d="M55 555l21 104q5 35 39 35h22q44 0 71 77q26 73 64 290q39 217 102 298t197 81h54q38 0 30 -35l-16 -84q-1 -37 -43 -37h-27q-44 0 -71 -57q-28 -60 -52 -199q-40 -224 -81 -309q-44 -91 -119 -113q82 -24 82 -162q0 -80 -29 -256q-20 -97 -20 -168q0 -90 53 -90h28
q33 0 29 -36l-14 -82q-6 -37 -43 -37h-66q-96 0 -136 39t-40 135q0 74 23 207q37 200 37 282q0 84 -44 84h-22q-35 0 -29 33z" />
    <glyph glyph-name="bar" unicode="|" horiz-adv-x="528" 
d="M354 1446v-1634q0 -37 -35 -37h-108q-37 0 -37 37v1634q0 37 37 37h108q35 0 35 -37z" />
    <glyph glyph-name="braceright" unicode="}" horiz-adv-x="526" 
d="M518 659l-18 -104q-6 -33 -41 -33h-23q-41 0 -68 -78q-30 -85 -67 -290q-38 -215 -100 -297q-63 -82 -197 -82h-55q-37 0 -31 37l14 82q6 36 43 36h27q47 0 74 58q26 54 53 200q40 223 82 309q43 88 119 109q-84 27 -84 162q0 92 30 260q19 112 19 166q0 90 -55 90h-27
q-35 0 -29 37l17 84q6 35 41 35h65q97 0 137 -40q41 -41 41 -136q0 -77 -22 -203q-37 -203 -37 -285t41 -82h22q35 0 29 -35z" />
    <glyph glyph-name="asciitilde" unicode="~" horiz-adv-x="976" 
d="M346 885q71 0 168 -47l96 -47q75 -35 111 -35q53 0 92 61q11 15 25 41q15 24 39 12l73 -34q17 -11 11 -37q-72 -221 -238 -221q-73 0 -168 49l-96 47q-69 33 -109 33q-54 0 -94 -60l-25 -43q-12 -22 -38 -12l-74 37q-21 7 -10 35q77 221 237 221z" />
    <glyph glyph-name="uni00A0" unicode="&#xa0;" horiz-adv-x="0" 
 />
    <glyph glyph-name="exclamdown" unicode="&#xa1;" horiz-adv-x="444" 
d="M432 1067l-29 -170q-10 -37 -41 -37h-139q-40 0 -30 37l28 170q6 37 43 37h142q32 0 26 -37zM215 688h90q35 0 29 -37l-117 -839q-7 -37 -43 -37h-147q-37 0 -31 37l178 839q6 37 41 37z" />
    <glyph glyph-name="cent" unicode="&#xa2;" horiz-adv-x="698" 
d="M82 553q46 267 142 402q95 134 265 161l23 137q6 35 39 35h70q36 0 30 -35l-22 -137q24 -1 64 -11q37 -9 42 -9q26 -15 19 -43l-39 -92q-15 -40 -43 -25q-59 10 -113 10q-118 0 -181 -88q-63 -89 -102 -305q-22 -126 -22 -207q0 -99 41 -145q41 -45 129 -45q40 0 119 12
q37 16 37 -23l6 -92q-2 -30 -39 -45q-92 -19 -119 -20l-22 -138q-6 -34 -41 -34h-72q-33 0 -27 34l23 140q-108 15 -168 99q-62 86 -62 237q0 103 23 227z" />
    <glyph glyph-name="sterling" unicode="&#xa3;" horiz-adv-x="958" 
d="M270 655h-145q-35 0 -29 33l13 70q6 30 38 30h99q-23 143 -23 193q0 216 121 346q122 131 320 131q319 0 319 -276q0 -158 -47 -158h-121q-24 0 -24 27q0 5 9 43q9 37 9 73q0 115 -154 115q-129 0 -183 -89t-54 -216q0 -28 20 -189h207q35 0 29 -30l-12 -70
q-6 -33 -39 -33h-168q-3 -44 -4 -78q-1 -35 -8 -101q-4 -40 -21 -98t-57 -107q-41 -50 -103 -91q59 25 105 25q47 0 110 -23q60 -22 101 -22q107 0 135 184q6 35 43 35h96q38 0 31 -45q-28 -161 -89 -255q-60 -93 -173 -93q-73 0 -167 30q-98 31 -161 31q-112 0 -207 -53
q-29 -11 -37 6l-53 102q-10 20 14 35q271 203 260 518z" />
    <glyph glyph-name="currency" unicode="&#xa4;" horiz-adv-x="989" 
d="M84 260l104 105q-30 83 -30 215q0 133 30 215l-104 104q-23 24 0 47l45 45q23 21 47 0l94 -94q80 113 226 113q145 0 223 -113l96 94q23 23 45 0l47 -45q21 -24 0 -47l-106 -106q30 -85 30 -213q0 -133 -30 -215l106 -105q23 -22 0 -45l-47 -47q-22 -22 -45 0l-96 98
q-77 -116 -223 -116q-147 0 -226 116l-94 -98q-24 -21 -47 0l-45 47q-24 21 0 45zM676 580q0 288 -180 288q-181 0 -181 -288q0 -287 181 -287q180 0 180 287z" />
    <glyph glyph-name="yen" unicode="&#xa5;" horiz-adv-x="950" 
d="M559 362l-59 -323q-8 -39 -43 -39h-125q-41 0 -35 39l59 323h-247q-36 0 -25 35l8 64q6 33 39 33h248l6 36l-20 127h-205q-33 0 -27 33l10 66q7 30 39 30h148l-127 609q-7 45 35 45h137q32 0 43 -35l104 -657h6l340 657q23 35 52 35h131q46 0 22 -45l-344 -609h150
q34 0 28 -30l-12 -66q-6 -33 -39 -33h-205l-65 -127l-6 -36h247q33 0 27 -33l-8 -64q-11 -35 -39 -35h-248z" />
    <glyph glyph-name="brokenbar" unicode="&#xa6;" horiz-adv-x="528" 
d="M354 1446v-610q0 -37 -35 -37h-108q-37 0 -37 37v610q0 37 37 37h108q35 0 35 -37zM354 422v-610q0 -37 -35 -37h-108q-37 0 -37 37v610q0 37 37 37h108q35 0 35 -37z" />
    <glyph glyph-name="section" unicode="&#xa7;" horiz-adv-x="985" 
d="M143 602q0 101 58 190q56 86 157 119q-84 84 -84 199q0 167 118 258q119 92 302 92q131 0 230 -30q34 -12 26 -48l-18 -98q-6 -38 -53 -27q-100 27 -187 27q-85 0 -154 -51t-69 -125q0 -41 26 -70q25 -27 87 -64q65 -38 84 -52q108 -70 170 -143q59 -69 59 -161
q0 -103 -53 -185q-53 -81 -154 -116q86 -83 86 -200q0 -162 -131 -257q-133 -96 -313 -96q-169 0 -260 31q-20 6 -27 16q-6 9 -2 31l16 99q6 37 54 26q97 -26 213 -26q91 0 171 49t80 133q0 31 -19 57q-18 25 -42 41q-9 6 -67 40q-47 27 -68 42q-115 70 -175 137
q-61 69 -61 162zM494 809q-67 -5 -118 -60q-52 -56 -52 -126q0 -29 10 -50q10 -22 39 -46q11 -9 45 -34q15 -11 67 -40q55 -31 68 -39q60 7 111 61q49 52 49 117q0 42 -33 83q-32 39 -71 64q-58 37 -115 70z" />
    <glyph glyph-name="dieresis" unicode="&#xa8;" horiz-adv-x="532" 
d="M369 1339l-17 -102q-8 -33 -41 -33h-114q-37 0 -31 33l18 102q6 35 41 35h115q35 0 29 -35zM655 1339l-18 -102q-6 -33 -39 -33h-117q-34 0 -28 33l16 102q8 35 43 35h115q34 0 28 -35z" />
    <glyph glyph-name="copyright" unicode="&#xa9;" horiz-adv-x="1421" 
d="M774 436q59 0 92 10q27 12 31 -20l18 -78q2 -26 -20 -33q-73 -20 -141 -20q-163 0 -240 98q-78 99 -78 328q0 230 77 330q76 98 237 98q94 0 139 -21q24 -8 24 -32l-20 -80q-5 -34 -31 -19q-25 11 -90 11q-98 0 -137 -63t-39 -224q0 -160 40 -222q41 -63 138 -63z
M211 719q0 -275 123 -445t377 -170q253 0 376 170q123 169 123 445t-123 447t-376 171q-254 0 -377 -171t-123 -447zM84 719q0 323 159 531t468 208t468 -208q158 -207 158 -531q0 -323 -158 -529t-468 -206t-468 206q-159 207 -159 529z" />
    <glyph glyph-name="ordfeminine" unicode="&#xaa;" horiz-adv-x="649" 
d="M569 1305l23 120q-127 -5 -195 -52q-69 -48 -69 -169q0 -48 16 -65q17 -19 53 -19q67 0 114 51q46 50 58 134zM528 1032l9 64q-55 -105 -179 -105q-79 0 -132 55q-52 53 -52 144q0 196 113 274q112 77 327 82l17 92q8 64 -16 86q-25 23 -89 23q-66 0 -168 -31
q-11 -5 -23 -1q-11 4 -9 22l-4 82q0 24 28 34q111 39 199 39q242 0 242 -194q0 -25 -7 -72l-102 -592q-6 -35 -43 -35h-82q-35 0 -29 33z" />
    <glyph glyph-name="guillemotleft" unicode="&#xab;" horiz-adv-x="722" 
d="M72 567q5 14 10 19l160 278q16 27 45 27h106q32 0 17 -35l-170 -289l67 -286q6 -35 -28 -35h-107q-28 0 -35 26l-63 279q0 10 -2 16zM377 567l10 19l158 278q21 27 45 27h108q30 0 13 -35l-168 -289l67 -286q5 -35 -28 -35h-107q-23 0 -35 26l-61 279q0 10 -2 16z" />
    <glyph glyph-name="logicalnot" unicode="&#xac;" horiz-adv-x="980" 
d="M899 778l-80 -448q-1 -37 -43 -37h-108q-32 0 -31 37l57 313h-528q-39 0 -31 35l17 100q6 33 43 33h675q35 0 29 -33z" />
    <glyph glyph-name="uni00AD" unicode="&#xad;" horiz-adv-x="557" 
d="M459 485h-357q-34 0 -26 33l16 94q6 31 39 31h354q20 0 27 -7q8 -8 6 -24l-16 -94q-8 -33 -43 -33z" />
    <glyph glyph-name="registered" unicode="&#xae;" horiz-adv-x="784" 
d="M356 1104h37q39 0 51 13q13 15 13 52q0 36 -13 51q-12 13 -51 13h-37v-129zM391 1458q150 0 234 -102t84 -254t-84 -255q-84 -104 -234 -104q-146 0 -232 105q-85 104 -85 254t85 253t232 103zM391 813q123 0 184 79q62 80 62 210q0 129 -62 209t-184 80t-184 -80
t-62 -209q0 -130 62 -210q61 -79 184 -79zM270 920v370q0 19 19 19h112q76 0 110 -34t34 -106q0 -105 -78 -129l65 -116q8 -19 -14 -19h-53q-11 0 -19 13l-61 114h-29v-112q0 -15 -16 -15h-51q-19 0 -19 15z" />
    <glyph glyph-name="macron" unicode="&#xaf;" horiz-adv-x="532" 
d="M612 1212h-428q-34 0 -28 35l8 53q11 35 39 35h430q37 0 26 -35l-6 -53q-8 -35 -41 -35z" />
    <glyph glyph-name="degree" unicode="&#xb0;" horiz-adv-x="636" 
d="M420 1020q75 0 121 59q47 61 47 144q0 53 -31 89q-30 34 -86 34q-77 0 -123 -60q-48 -61 -49 -137q-2 -60 31 -94q33 -35 90 -35zM408 903q-103 0 -166 65q-64 66 -64 165q0 126 86 227q85 100 219 100q103 0 165 -62q63 -63 63 -161q0 -133 -85 -233q-86 -101 -218 -101
z" />
    <glyph glyph-name="plusminus" unicode="&#xb1;" horiz-adv-x="974" 
d="M899 690h-283l-65 -348q-1 -33 -37 -33h-108q-32 0 -31 33l63 348h-280q-38 0 -31 33l16 94q6 33 43 33h281l57 340q8 35 43 35h107q34 0 26 -35l-57 -340h283q32 0 30 -33l-18 -94q-7 -33 -39 -33zM776 0h-741q-37 0 -31 35l14 74q6 34 41 34h740q37 0 30 -34l-12 -74
q-11 -35 -41 -35z" />
    <glyph glyph-name="two.superior" unicode="&#xb2;" 
d="M410 1612q0 -39 -39 -39h-82q-31 0 -31 24q0 127 69 210t210 83q108 0 163 -55q56 -56 56 -137q0 -253 -361 -555h240q41 0 31 -33l-17 -78q-11 -33 -37 -33h-422q-38 0 -28 33l14 70q6 24 27 39q5 5 51 48q12 11 26.5 25t23 22t13.5 12q11 10 63 62q43 43 66 71
q8 10 55 71q32 41 50 78q17 34 30 73t13 76q5 74 -72 74q-112 0 -112 -141z" />
    <glyph glyph-name="three.superior" unicode="&#xb3;" 
d="M373 1382h-64q-32 0 -26 33l12 70q6 33 39 33h63q62 0 98 45q35 44 35 112q0 76 -122 76q-26 0 -123 -20q-29 -8 -29 20l-4 80q-2 19 27 31q68 28 157 28q117 0 187 -47q69 -46 69 -139q0 -80 -39 -152t-104 -94q38 -10 62 -52t24 -103q0 -152 -89 -233q-88 -81 -241 -81
q-50 0 -107 10t-75 19q-27 15 -23 33l29 75q15 30 43 23q76 -21 123 -21q85 0 131 43q47 44 47 125q0 86 -100 86z" />
    <glyph glyph-name="acute" unicode="&#xb4;" horiz-adv-x="532" 
d="M262 1233l98 162q17 26 43 26h158q19 0 22 -13q3 -14 -12 -26l-168 -157q-23 -21 -49 -21h-75q-32 0 -17 29z" />
    <glyph glyph-name="mu" unicode="&#xb5;" horiz-adv-x="847" 
d="M868 1067l-133 -748q-57 -335 -305 -335q-89 0 -144 41q-54 41 -71 98l-53 -313q-6 -35 -43 -35h-117q-37 0 -31 37l222 1255q6 37 45 37h116q35 0 29 -37l-115 -647q-8 -43 -8 -86q0 -176 129 -176q71 0 109 50q37 49 55 150l125 709q6 37 43 37h119q34 0 28 -37z" />
    <glyph glyph-name="paragraph" unicode="&#xb6;" horiz-adv-x="911" 
d="M995 1309h-65q-61 0 -89 -25t-40 -94l-209 -1186q-22 -130 -73 -184q-50 -53 -157 -53q-67 0 -112 12q-24 6 -19 35l9 59q2 29 36 29q6 0 27 -3t35 -3q47 0 71 27q23 25 35 97l103 580h-31q-158 0 -255 91t-97 245q0 215 122 360q122 144 345 144h385q37 0 31 -33
l-13 -66q-6 -32 -39 -32z" />
    <glyph glyph-name="periodcentered" unicode="&#xb7;" horiz-adv-x="380" 
d="M88 473l31 162q6 37 43 37h127q36 0 30 -37l-30 -162q-6 -37 -39 -37h-131q-37 0 -31 37z" />
    <glyph glyph-name="cedilla" unicode="&#xb8;" horiz-adv-x="532" 
d="M92 18h78q149 -52 149 -163q0 -74 -46 -114t-123 -40q-67 0 -93 8q-19 8 -14 29l8 55q5 21 25 21h51q72 0 72 71q0 61 -107 133z" />
    <glyph glyph-name="one.superior" unicode="&#xb9;" 
d="M500 1679l-131 -108q-28 -21 -47 4l-39 55q-12 29 16 47l229 191q24 12 45 12h82q37 0 31 -35l-143 -811q-6 -35 -39 -35h-88q-37 0 -31 35z" />
    <glyph glyph-name="ordmasculine" unicode="&#xba;" horiz-adv-x="679" 
d="M565 1747q-67 0 -110 -72q-44 -72 -72 -235q-16 -87 -16 -166q0 -141 90 -141q67 0 110 72q43 70 70 235q18 100 18 168q0 139 -90 139zM451 989q-250 0 -250 271q0 75 16 180q40 235 125 344q84 108 231 108q248 0 248 -272q0 -58 -18 -180q-40 -233 -124 -343
q-83 -108 -228 -108z" />
    <glyph glyph-name="guillemotright" unicode="&#xbb;" horiz-adv-x="722" 
d="M682 567q4 -6 -6 -16l-162 -279q-12 -26 -43 -26h-106q-35 0 -11 35l162 286l-61 289q-12 35 24 35h109q28 0 33 -27l63 -278q2 -10 -2 -19zM379 567q1 -4 -6 -16l-162 -279q-14 -26 -41 -26h-109q-35 0 -12 35l164 286l-61 289q-12 35 26 35h107q26 0 32 -27l64 -278
q2 -10 -2 -19z" />
    <glyph glyph-name="onequarter" unicode="&#xbc;" horiz-adv-x="1458" 
d="M424 1239l-131 -109q-28 -21 -47 5l-39 55q-12 29 16 47l230 190q26 13 45 13h82q36 0 30 -35l-143 -811q-6 -35 -39 -35h-88q-37 0 -31 35zM1337 1405l-878 -1376q-18 -29 -47 -29h-105q-18 0 -21 10q-3 11 7 25l876 1378q23 27 48 27h104q34 0 16 -35zM1229 672
l-232 -342h172zM1352 188h-49l-31 -153q-6 -35 -39 -35h-88q-35 0 -29 35l29 153h-297q-34 0 -29 35l12 70q1 21 21 41l399 520q23 27 43 27h92q37 0 31 -35l-92 -516h49q38 0 27 -33l-10 -74q-11 -35 -39 -35z" />
    <glyph glyph-name="onehalf" unicode="&#xbd;" horiz-adv-x="1458" 
d="M424 1239l-131 -109q-28 -21 -47 5l-39 55q-12 29 16 47l230 190q26 13 45 13h82q36 0 30 -35l-143 -811q-6 -35 -39 -35h-88q-37 0 -31 35zM1069 612q0 142 113 142q76 0 71 -74q0 -38 -13 -77t-30 -73t-50 -77q-8 -10 -27 -35.5t-27 -35.5q-23 -28 -67 -72
q-51 -51 -62 -61q-5 -4 -13.5 -12.5t-23.5 -22.5t-27 -25q-47 -43 -51 -48q-20 -14 -26 -39l-15 -69q-11 -33 29 -33h422q26 0 37 33l16 78q10 32 -31 32h-239q360 301 360 555q0 83 -55 138t-164 55q-141 0 -210 -83q-68 -81 -68 -210q0 -25 30 -25h82q39 0 39 39z
M1260 1405l-879 -1376q-18 -29 -47 -29h-105q-18 0 -21 10q-3 11 7 25l877 1378q22 27 47 27h104q35 0 17 -35z" />
    <glyph glyph-name="threequarters" unicode="&#xbe;" horiz-adv-x="1458" 
d="M297 942h-64q-32 0 -26 33l12 69q6 33 39 33h64q61 0 97 45t36 113q0 76 -123 76q-21 0 -123 -21q-29 -8 -29 21l-4 80q-2 18 27 30q70 29 157 29q117 0 187 -47q69 -47 69 -139q0 -82 -38 -152q-39 -71 -105 -94q39 -11 63 -52q23 -40 23 -104q0 -151 -89 -232
q-88 -81 -241 -81q-50 0 -107 10t-75 19q-26 15 -22 32l28 76q15 30 43 23q78 -21 123 -21q85 0 131 43q47 44 47 125q0 86 -100 86zM1352 1405l-879 -1376q-18 -29 -47 -29h-104q-19 0 -22 10q-3 11 7 25l877 1378q22 27 47 27h104q35 0 17 -35zM1229 672l-232 -342h172z
M1352 188h-49l-31 -153q-6 -35 -39 -35h-88q-35 0 -29 35l29 153h-297q-34 0 -29 35l12 70q1 21 21 41l399 520q23 27 43 27h92q37 0 31 -35l-92 -516h49q38 0 27 -33l-10 -74q-11 -35 -39 -35z" />
    <glyph glyph-name="questiondown" unicode="&#xbf;" horiz-adv-x="694" 
d="M344 690q-37 0 -43 -35v7q-11 -72 -47 -135q-39 -68 -82 -123q-57 -72 -88 -115q-44 -61 -72 -134q-28 -74 -28 -155q0 -117 79 -178q80 -62 220 -62q144 0 225 37q36 12 37 39l-2 107q1 16 -7 23q-9 7 -30 1l-28 -8q-7 -2 -19.5 -5t-17.5 -5q-13 -4 -45 -7
q-30 -3 -60 -3q-139 0 -139 108q0 71 41 151q38 75 92 140q49 60 100 150q48 86 64 174v-9q6 37 -31 37h-119zM573 1067l-26 -170q-10 -37 -43 -37h-137q-41 0 -31 37l26 170q10 37 46 37h139q36 0 26 -37z" />
    <glyph glyph-name="Agrave" unicode="&#xc0;" horiz-adv-x="964" 
d="M371 537h250v692h-5zM563 1440h178q25 0 34 -9t11 -32l60 -1358q5 -41 -37 -41h-129q-33 0 -37 37l-6 319h-342l-119 -319q-21 -37 -47 -37h-135q-44 0 -29 41l541 1358q17 41 57 41zM688 1714l47 -162q4 -10 -3 -19q-8 -9 -21 -9h-72q-20 0 -41 22l-119 158q-8 11 -1 25
t26 14h151q25 0 33 -29z" />
    <glyph glyph-name="Aacute" unicode="&#xc1;" horiz-adv-x="964" 
d="M371 537h250v692h-5zM563 1440h178q25 0 34 -9t11 -32l60 -1358q5 -41 -37 -41h-129q-33 0 -37 37l-6 319h-342l-119 -319q-21 -37 -47 -37h-135q-44 0 -29 41l541 1358q17 41 57 41zM608 1552l97 162q21 29 49 29h157q19 0 20 -13q1 -14 -11 -26l-170 -158
q-22 -22 -52 -22h-73q-33 0 -17 28z" />
    <glyph glyph-name="Acircumflex" unicode="&#xc2;" horiz-adv-x="964" 
d="M371 537h250v692h-5zM563 1440h178q25 0 34 -9t11 -32l60 -1358q5 -41 -37 -41h-129q-33 0 -37 37l-6 319h-342l-119 -319q-21 -37 -47 -37h-135q-44 0 -29 41l541 1358q17 41 57 41zM768 1546l-76 94l-108 -94q-29 -22 -49 -22h-89q-18 0 -19 12q-2 13 13 25l170 165
q28 23 49 23h91q33 0 45 -23l110 -165q11 -12 4 -25q-6 -12 -22 -12h-76q-17 0 -43 22z" />
    <glyph glyph-name="Atilde" unicode="&#xc3;" horiz-adv-x="964" 
d="M371 537h250v692h-5zM563 1440h178q25 0 34 -9t11 -32l60 -1358q5 -41 -37 -41h-129q-33 0 -37 37l-6 319h-342l-119 -319q-21 -37 -47 -37h-135q-44 0 -29 41l541 1358q17 41 57 41zM952 1657q-27 -137 -147 -137q-46 0 -129 32l-51 31q-35 18 -57 12t-30 -17
q-11 -14 -12 -24l-2 -8q-1 -20 -37 -20h-49q-30 0 -20 43q6 58 44 99q37 40 101 40q42 0 129 -35l47 -31q37 -20 60 -20q37 0 37 45l6 12q8 23 35 23h49q32 0 26 -45z" />
    <glyph glyph-name="Adieresis" unicode="&#xc4;" horiz-adv-x="964" 
d="M371 537h250v692h-5zM563 1440h178q25 0 34 -9t11 -32l60 -1358q5 -41 -37 -41h-129q-33 0 -37 37l-6 319h-342l-119 -319q-21 -37 -47 -37h-135q-44 0 -29 41l541 1358q17 41 57 41zM643 1659l-20 -100q-6 -35 -41 -35h-119q-35 0 -29 35l21 100q4 37 37 37h118
q37 0 33 -37zM934 1659l-23 -100q-6 -35 -41 -35h-118q-35 0 -29 35l22 100q4 37 35 37h119q39 0 35 -37z" />
    <glyph glyph-name="Aring" unicode="&#xc5;" horiz-adv-x="964" 
d="M481 1499q0 86 57 143q58 58 146 58q76 0 124 -42t48 -108q0 -94 -70 -155l60 -1354q5 -41 -37 -41h-129q-33 0 -37 37l-6 319h-342l-119 -319q-21 -37 -47 -37h-135q-44 0 -29 41l541 1358q0 6 4 10q-29 40 -29 90zM371 537h250v692h-5zM680 1612q-46 0 -73 -29t-27 -78
q0 -59 69 -65h10q42 0 69 28q28 30 28 74q0 70 -76 70z" />
    <glyph glyph-name="AE" unicode="&#xc6;" horiz-adv-x="1241" 
d="M1141 647h-328l-82 -461h350q39 0 33 -36l-20 -111q-8 -39 -43 -39h-512q-41 0 -35 39l57 321h-278l-127 -323q-22 -37 -50 -37h-135q-21 0 -28 12q-8 13 2 29l606 1358q18 41 59 41h684q37 0 31 -37l-18 -113q-6 -39 -43 -39h-344l-76 -426h327q37 0 31 -39l-18 -102
q-6 -37 -43 -37zM381 539h211l129 716h-64z" />
    <glyph glyph-name="Ccedilla" unicode="&#xc7;" horiz-adv-x="821" 
d="M514 168q56 0 135 20q41 12 41 -32l6 -99q-2 -29 -45 -47q-77 -26 -182 -26h-12q80 -56 80 -136q0 -79 -53 -121q-52 -42 -138 -42q-58 0 -82 12q-21 7 -16 29l10 57q6 20 25 20h55q76 0 76 70q0 62 -80 125q-250 52 -250 389q0 122 35 334q73 414 202 576
q128 161 369 161q119 0 201 -26q39 -12 27 -48l-37 -96q-12 -44 -54 -28q-80 14 -125 14q-159 0 -239 -115t-137 -438q-35 -218 -35 -303q0 -141 53 -196q53 -54 170 -54z" />
    <glyph glyph-name="Egrave" unicode="&#xc8;" horiz-adv-x="792" 
d="M692 647h-360l-82 -461h381q41 0 35 -36l-21 -111q-7 -39 -45 -39h-543q-40 0 -34 39l241 1364q6 37 45 37h537q39 0 33 -37l-21 -111q-6 -39 -43 -39h-377l-73 -428h358q37 0 31 -39l-19 -102q-6 -37 -43 -37zM651 1714l47 -162q4 -10 -3 -19t-21 -9h-72q-20 0 -41 22
l-119 158q-8 11 -1 25t26 14h151q25 0 33 -29z" />
    <glyph glyph-name="Eacute" unicode="&#xc9;" horiz-adv-x="792" 
d="M692 647h-360l-82 -461h381q41 0 35 -36l-21 -111q-7 -39 -45 -39h-543q-40 0 -34 39l241 1364q6 37 45 37h537q39 0 33 -37l-21 -111q-6 -39 -43 -39h-377l-73 -428h358q37 0 31 -39l-19 -102q-6 -37 -43 -37zM520 1552l96 162q23 29 50 29h157q19 0 20 -13t-12 -26
l-169 -158q-22 -22 -52 -22h-73q-33 0 -17 28z" />
    <glyph glyph-name="Ecircumflex" unicode="&#xca;" horiz-adv-x="792" 
d="M692 647h-360l-82 -461h381q41 0 35 -36l-21 -111q-7 -39 -45 -39h-543q-40 0 -34 39l241 1364q6 37 45 37h537q39 0 33 -37l-21 -111q-6 -39 -43 -39h-377l-73 -428h358q37 0 31 -39l-19 -102q-6 -37 -43 -37zM711 1546l-76 94l-109 -94q-29 -22 -49 -22h-88
q-17 0 -19 12q-2 13 13 25l170 165q28 23 49 23h90q33 0 45 -23l111 -165q10 -12 4 -25q-6 -12 -23 -12h-75q-17 0 -43 22z" />
    <glyph glyph-name="Edieresis" unicode="&#xcb;" horiz-adv-x="792" 
d="M692 647h-360l-82 -461h381q41 0 35 -36l-21 -111q-7 -39 -45 -39h-543q-40 0 -34 39l241 1364q6 37 45 37h537q39 0 33 -37l-21 -111q-6 -39 -43 -39h-377l-73 -428h358q37 0 31 -39l-19 -102q-6 -37 -43 -37zM584 1659l-21 -100q-6 -35 -41 -35h-119q-34 0 -28 35
l20 100q1 37 37 37h119q34 0 33 -37zM874 1659l-22 -100q-6 -35 -41 -35h-119q-34 0 -28 35l22 100q1 37 35 37h119q35 0 34 -37z" />
    <glyph glyph-name="Igrave" unicode="&#xcc;" horiz-adv-x="423" 
d="M35 39l241 1364q6 37 43 37h125q43 0 33 -37l-239 -1364q-6 -39 -43 -39h-127q-39 0 -33 39zM418 1714l47 -162q4 -10 -3 -19q-8 -9 -22 -9h-71q-20 0 -41 22l-119 158q-8 11 -1 25t25 14h152q25 0 33 -29z" />
    <glyph glyph-name="Iacute" unicode="&#xcd;" horiz-adv-x="423" 
d="M35 39l241 1364q6 37 43 37h125q43 0 33 -37l-239 -1364q-6 -39 -43 -39h-127q-39 0 -33 39zM340 1552l96 162q23 29 49 29h158q19 0 20 -13t-12 -26l-170 -158q-22 -22 -51 -22h-74q-32 0 -16 28z" />
    <glyph glyph-name="Icircumflex" unicode="&#xce;" horiz-adv-x="423" 
d="M35 39l241 1364q6 37 43 37h125q43 0 33 -37l-239 -1364q-6 -39 -43 -39h-127q-39 0 -33 39zM498 1546l-76 94l-109 -94q-29 -22 -49 -22h-88q-18 0 -19 12q-2 13 13 25l170 165q28 23 49 23h90q33 0 45 -23l111 -165q11 -12 4 -25q-6 -12 -23 -12h-75q-17 0 -43 22z" />
    <glyph glyph-name="Idieresis" unicode="&#xcf;" horiz-adv-x="423" 
d="M35 39l241 1364q6 37 43 37h125q43 0 33 -37l-239 -1364q-6 -39 -43 -39h-127q-39 0 -33 39zM373 1659l-21 -100q-6 -35 -41 -35h-118q-35 0 -29 35l20 100q4 37 37 37h119q37 0 33 -37zM664 1659l-23 -100q-6 -35 -41 -35h-119q-34 0 -28 35l22 100q4 37 35 37h119
q39 0 35 -37z" />
    <glyph glyph-name="Eth" unicode="&#xd0;" horiz-adv-x="968" 
d="M352 0h-291q-40 0 -34 39l112 616h-53q-37 0 -29 31l13 68q7 34 39 34h53l106 615q6 37 45 37h254q199 0 301 -100q101 -99 101 -330q0 -129 -29 -291q-67 -399 -205 -559q-137 -160 -383 -160zM549 1253h-105l-82 -465h148q31 0 27 -34l-13 -68q-8 -31 -37 -31h-147
l-82 -469h109q145 0 232 116q86 115 136 417q29 171 29 266q0 145 -54 207q-54 61 -161 61z" />
    <glyph glyph-name="Ntilde" unicode="&#xd1;" horiz-adv-x="989" 
d="M1055 1403l-244 -1364q-6 -39 -43 -39h-113q-37 0 -43 33l-215 1011l-176 -1005q-7 -39 -43 -39h-121q-40 0 -34 39l241 1364q6 37 45 37h111q39 0 47 -31l211 -1014l176 1008q10 37 45 37h121q36 0 35 -37zM965 1657q-27 -137 -148 -137q-46 0 -129 32l-51 31
q-35 18 -56 12q-23 -7 -31 -17q-10 -13 -11 -24l-2 -8q-1 -20 -37 -20h-49q-31 0 -21 43q6 58 44 99q37 40 101 40q43 0 130 -35l47 -31q37 -20 59 -20q37 0 37 45l6 12q8 23 35 23h49q33 0 27 -45z" />
    <glyph glyph-name="Ograve" unicode="&#xd2;" horiz-adv-x="1003" 
d="M659 1458q171 0 259 -94t88 -309q0 -131 -35 -336q-72 -411 -197 -574q-124 -161 -340 -161q-170 0 -260 93t-90 310q0 127 35 332q74 412 199 575q126 164 341 164zM446 164q118 0 190 121q74 124 130 434q35 208 35 319q0 132 -39 186t-119 54q-117 0 -189 -122
q-73 -122 -128 -437q-35 -208 -35 -318q0 -131 39 -184t116 -53zM707 1714l47 -162q4 -10 -3 -19t-22 -9h-72q-20 0 -41 22l-118 158q-8 11 -1 25t25 14h152q27 0 33 -29z" />
    <glyph glyph-name="Oacute" unicode="&#xd3;" horiz-adv-x="1003" 
d="M659 1458q171 0 259 -94t88 -309q0 -131 -35 -336q-72 -411 -197 -574q-124 -161 -340 -161q-170 0 -260 93t-90 310q0 127 35 332q74 412 199 575q126 164 341 164zM446 164q118 0 190 121q74 124 130 434q35 208 35 319q0 132 -39 186t-119 54q-117 0 -189 -122
q-73 -122 -128 -437q-35 -208 -35 -318q0 -131 39 -184t116 -53zM629 1552l96 162q21 29 49 29h158q18 0 19 -13q1 -14 -11 -26l-170 -158q-22 -22 -51 -22h-74q-32 0 -16 28z" />
    <glyph glyph-name="Ocircumflex" unicode="&#xd4;" horiz-adv-x="1003" 
d="M659 1458q171 0 259 -94t88 -309q0 -131 -35 -336q-72 -411 -197 -574q-124 -161 -340 -161q-170 0 -260 93t-90 310q0 127 35 332q74 412 199 575q126 164 341 164zM446 164q118 0 190 121q74 124 130 434q35 208 35 319q0 132 -39 186t-119 54q-117 0 -189 -122
q-73 -122 -128 -437q-35 -208 -35 -318q0 -131 39 -184t116 -53zM788 1546l-75 94l-109 -94q-29 -22 -49 -22h-88q-19 0 -20 12q-2 13 14 25l170 165q28 23 49 23h90q33 0 45 -23l111 -165q10 -12 4 -25q-6 -12 -23 -12h-76q-17 0 -43 22z" />
    <glyph glyph-name="Otilde" unicode="&#xd5;" horiz-adv-x="1003" 
d="M659 1458q171 0 259 -94t88 -309q0 -131 -35 -336q-72 -411 -197 -574q-124 -161 -340 -161q-170 0 -260 93t-90 310q0 127 35 332q74 412 199 575q126 164 341 164zM446 164q118 0 190 121q74 124 130 434q35 208 35 319q0 132 -39 186t-119 54q-117 0 -189 -122
q-73 -122 -128 -437q-35 -208 -35 -318q0 -131 39 -184t116 -53zM973 1657q-27 -137 -148 -137q-46 0 -129 32l-51 31q-35 18 -56 12q-23 -7 -31 -17q-10 -13 -11 -24l-2 -8q-1 -20 -37 -20h-49q-31 0 -21 43q6 58 44 99q37 40 102 40q42 0 129 -35l47 -31q37 -20 59 -20
q37 0 37 45l6 12q8 23 35 23h49q33 0 27 -45z" />
    <glyph glyph-name="Odieresis" unicode="&#xd6;" horiz-adv-x="1003" 
d="M659 1458q171 0 259 -94t88 -309q0 -131 -35 -336q-72 -411 -197 -574q-124 -161 -340 -161q-170 0 -260 93t-90 310q0 127 35 332q74 412 199 575q126 164 341 164zM446 164q118 0 190 121q74 124 130 434q35 208 35 319q0 132 -39 186t-119 54q-117 0 -189 -122
q-73 -122 -128 -437q-35 -208 -35 -318q0 -131 39 -184t116 -53zM664 1659l-21 -100q-6 -35 -41 -35h-119q-34 0 -28 35l20 100q4 37 37 37h119q37 0 33 -37zM954 1659l-22 -100q-6 -35 -41 -35h-119q-35 0 -29 35l23 100q4 37 35 37h119q38 0 34 -37z" />
    <glyph glyph-name="multiply" unicode="&#xd7;" horiz-adv-x="974" 
d="M741 322l-229 276l-330 -279q-30 -24 -51 0l-51 70q-26 26 4 49l332 281l-234 278q-18 24 11 47l79 68q30 27 52 2l229 -280l328 278q29 24 47 0l57 -68q20 -20 -10 -47l-326 -278l228 -281q16 -24 -7 -49l-84 -70q-27 -24 -45 3z" />
    <glyph glyph-name="Oslash" unicode="&#xd8;" horiz-adv-x="1013" 
d="M662 1458q190 0 276 -117l68 93q29 33 53 12l51 -47q23 -23 0 -47l-115 -150q15 -76 15 -147q0 -131 -35 -336q-73 -411 -199 -574q-124 -161 -340 -161q-191 0 -276 110l-74 -94q-25 -25 -47 -8l-53 49q-27 16 2 45l112 143q-14 59 -14 158q0 127 35 332q73 411 200 575
q126 164 341 164zM328 719q-26 -161 -31 -254l494 690q-29 123 -146 123t-189 -122q-73 -122 -128 -437zM449 164q117 0 190 121q74 122 129 434q22 128 33 248l-496 -684q27 -119 144 -119z" />
    <glyph glyph-name="Ugrave" unicode="&#xd9;" horiz-adv-x="950" 
d="M408 -16q-168 0 -252 72t-84 231q0 61 12 135l174 981q6 37 45 37h125q39 0 33 -37l-170 -961q-12 -74 -12 -127q0 -80 32 -113q33 -34 111 -34q101 0 150 61q50 62 77 213l168 961q6 37 43 37h127q37 0 31 -37l-174 -981q-40 -233 -142 -336q-100 -102 -294 -102z
M680 1714l47 -162q4 -10 -3 -19q-8 -9 -22 -9h-71q-20 0 -41 22l-119 158q-8 11 -1 25t26 14h151q25 0 33 -29z" />
    <glyph glyph-name="Uacute" unicode="&#xda;" horiz-adv-x="950" 
d="M408 -16q-168 0 -252 72t-84 231q0 61 12 135l174 981q6 37 45 37h125q39 0 33 -37l-170 -961q-12 -74 -12 -127q0 -80 32 -113q33 -34 111 -34q101 0 150 61q50 62 77 213l168 961q6 37 43 37h127q37 0 31 -37l-174 -981q-40 -233 -142 -336q-100 -102 -294 -102z
M602 1552l96 162q23 29 50 29h157q19 0 20 -13t-12 -26l-170 -158q-22 -22 -51 -22h-74q-32 0 -16 28z" />
    <glyph glyph-name="Ucircumflex" unicode="&#xdb;" horiz-adv-x="950" 
d="M408 -16q-168 0 -252 72t-84 231q0 61 12 135l174 981q6 37 45 37h125q39 0 33 -37l-170 -961q-12 -74 -12 -127q0 -80 32 -113q33 -34 111 -34q101 0 150 61q50 62 77 213l168 961q6 37 43 37h127q37 0 31 -37l-174 -981q-40 -233 -142 -336q-100 -102 -294 -102z
M762 1546l-76 94l-108 -94q-29 -22 -50 -22h-88q-18 0 -19 12q-2 13 13 25l170 165q28 23 49 23h90q33 0 45 -23l111 -165q11 -12 4 -25q-6 -12 -22 -12h-76q-17 0 -43 22z" />
    <glyph glyph-name="Udieresis" unicode="&#xdc;" horiz-adv-x="950" 
d="M408 -16q-168 0 -252 72t-84 231q0 61 12 135l174 981q6 37 45 37h125q39 0 33 -37l-170 -961q-12 -74 -12 -127q0 -80 32 -113q33 -34 111 -34q101 0 150 61q50 62 77 213l168 961q6 37 43 37h127q37 0 31 -37l-174 -981q-40 -233 -142 -336q-100 -102 -294 -102z
M637 1659l-21 -100q-6 -35 -41 -35h-118q-35 0 -29 35l21 100q1 37 36 37h119q34 0 33 -37zM928 1659l-23 -100q-6 -35 -41 -35h-119q-34 0 -28 35l22 100q1 37 35 37h119q36 0 35 -37z" />
    <glyph glyph-name="Yacute" unicode="&#xdd;" horiz-adv-x="925" 
d="M578 549l-91 -510q-6 -39 -43 -39h-127q-38 0 -32 39l92 510l-174 846q-6 16 3 30q9 15 32 15h133q32 0 43 -35l67 -459l23 -211h2l100 211l234 459q18 35 49 35h139q44 0 21 -45zM588 1552l96 162q21 29 49 29h158q18 0 19 -13q2 -14 -11 -26l-170 -158q-22 -22 -51 -22
h-74q-32 0 -16 28z" />
    <glyph glyph-name="Thorn" unicode="&#xde;" horiz-adv-x="901" 
d="M182 0h-127q-38 0 -32 39l241 1364q6 37 45 37h125q39 0 33 -37l-23 -131h76q195 0 288 -72t93 -239q0 -77 -18 -173q-52 -272 -163 -380q-110 -107 -339 -107h-109l-47 -262q-6 -39 -43 -39zM307 485h90q129 0 189 63q59 62 92 240q14 69 14 134q0 94 -44 129
q-43 34 -146 34h-90z" />
    <glyph glyph-name="germandbls" unicode="&#xdf;" horiz-adv-x="913" 
d="M582 1286q-162 0 -197 -199l-184 -1052q-6 -35 -39 -35h-115q-39 0 -33 35l191 1065q60 352 395 352q140 0 220 -68q79 -67 79 -174q0 -66 -36 -133q-34 -64 -80 -113q-44 -47 -80 -92q-35 -44 -35 -67q0 -29 26 -69q29 -44 60 -83t59 -109q27 -69 27 -145
q0 -400 -258 -417q-62 0 -158 20q-51 11 -74 21t-20 20l18 96q8 39 43 33q30 0 145 82t115 139q0 77 -88 195t-88 198q0 54 25 102q22 43 59 80q24 24 70 64q34 30 59 70q25 41 25 82q0 102 -131 102z" />
    <glyph glyph-name="agrave" unicode="&#xe0;" horiz-adv-x="800" 
d="M768 786l-131 -749q-10 -37 -41 -37h-102q-34 0 -33 33l16 96q-94 -141 -237 -141q-104 0 -164 67t-60 176q0 243 136 344t417 113l17 98q16 84 -13 126q-28 40 -110 40q-90 0 -215 -41q-16 -4 -28 3q-11 7 -9 26v92q5 35 37 45q93 43 248 43q280 0 280 -241
q0 -47 -8 -93zM516 391l29 158q-117 -7 -192 -28q-69 -19 -104 -60q-34 -40 -42 -85q-8 -46 -8 -126q0 -111 92 -111q83 0 145 73t80 179zM573 1395l45 -162q8 -29 -26 -29h-68q-25 0 -43 21l-116 157q-11 13 -5 26t25 13h152q26 0 36 -26z" />
    <glyph glyph-name="aacute" unicode="&#xe1;" horiz-adv-x="800" 
d="M768 786l-131 -749q-10 -37 -41 -37h-102q-34 0 -33 33l16 96q-94 -141 -237 -141q-104 0 -164 67t-60 176q0 243 136 344t417 113l17 98q16 84 -13 126q-28 40 -110 40q-90 0 -215 -41q-16 -4 -28 3q-11 7 -9 26v92q5 35 37 45q93 43 248 43q280 0 280 -241
q0 -47 -8 -93zM516 391l29 158q-117 -7 -192 -28q-69 -19 -104 -60q-34 -40 -42 -85q-8 -46 -8 -126q0 -111 92 -111q83 0 145 73t80 179zM451 1233l98 162q17 26 43 26h158q18 0 21 -13q3 -15 -11 -26l-168 -157q-22 -21 -49 -21h-76q-31 0 -16 29z" />
    <glyph glyph-name="acircumflex" unicode="&#xe2;" horiz-adv-x="800" 
d="M768 786l-131 -749q-10 -37 -41 -37h-102q-34 0 -33 33l16 96q-94 -141 -237 -141q-104 0 -164 67t-60 176q0 243 136 344t417 113l17 98q16 84 -13 126q-28 40 -110 40q-90 0 -215 -41q-16 -4 -28 3q-11 7 -9 26v92q5 35 37 45q93 43 248 43q280 0 280 -241
q0 -47 -8 -93zM516 391l29 158q-117 -7 -192 -28q-69 -19 -104 -60q-34 -40 -42 -85q-8 -46 -8 -126q0 -111 92 -111q83 0 145 73t80 179zM633 1225l-78 102l-111 -102q-27 -21 -47 -21h-88q-17 0 -18 11q-2 12 10 24l172 174q23 21 49 21h90q30 0 45 -21l113 -174
q8 -12 3 -24q-4 -11 -21 -11h-76q-22 0 -43 21z" />
    <glyph glyph-name="atilde" unicode="&#xe3;" horiz-adv-x="800" 
d="M768 786l-131 -749q-10 -37 -41 -37h-102q-34 0 -33 33l16 96q-94 -141 -237 -141q-104 0 -164 67t-60 176q0 243 136 344t417 113l17 98q16 84 -13 126q-28 40 -110 40q-90 0 -215 -41q-16 -4 -28 3q-11 7 -9 26v92q5 35 37 45q93 43 248 43q280 0 280 -241
q0 -47 -8 -93zM516 391l29 158q-117 -7 -192 -28q-69 -19 -104 -60q-34 -40 -42 -85q-8 -46 -8 -126q0 -111 92 -111q83 0 145 73t80 179zM805 1335q-21 -135 -133 -135q-74 0 -135 35l-48 31q-3 2 -11.5 6.5t-13.5 6.5q-13 5 -21 5h-15q-7 0 -11 -4q-3 -3 -9 -7
q-5 -4 -8 -10l-4 -12q-2 -6 -3 -10l-2 -8v-8q-7 -21 -35 -21h-47q-36 0 -26 43q21 139 137 139q60 0 131 -36l49 -29q34 -21 57 -21q33 0 39 50v8q6 24 37 24h49q34 0 23 -47z" />
    <glyph glyph-name="adieresis" unicode="&#xe4;" horiz-adv-x="800" 
d="M768 786l-131 -749q-10 -37 -41 -37h-102q-34 0 -33 33l16 96q-94 -141 -237 -141q-104 0 -164 67t-60 176q0 243 136 344t417 113l17 98q16 84 -13 126q-28 40 -110 40q-90 0 -215 -41q-16 -4 -28 3q-11 7 -9 26v92q5 35 37 45q93 43 248 43q280 0 280 -241
q0 -47 -8 -93zM516 391l29 158q-117 -7 -192 -28q-69 -19 -104 -60q-34 -40 -42 -85q-8 -46 -8 -126q0 -111 92 -111q83 0 145 73t80 179zM502 1339l-17 -102q-8 -33 -41 -33h-114q-37 0 -31 33l18 102q6 35 41 35h115q35 0 29 -35zM788 1339l-18 -102q-6 -33 -39 -33h-117
q-34 0 -28 33l16 102q8 35 43 35h115q34 0 28 -35z" />
    <glyph glyph-name="aring" unicode="&#xe5;" horiz-adv-x="800" 
d="M768 786l-131 -749q-10 -37 -41 -37h-102q-34 0 -33 33l16 96q-94 -141 -237 -141q-104 0 -164 67t-60 176q0 243 136 344t417 113l17 98q16 84 -13 126q-28 40 -110 40q-90 0 -215 -41q-16 -4 -28 3q-11 7 -9 26v92q5 35 37 45q93 43 248 43q280 0 280 -241
q0 -47 -8 -93zM516 391l29 158q-117 -7 -192 -28q-69 -19 -104 -60q-34 -40 -42 -85q-8 -46 -8 -126q0 -111 92 -111q83 0 145 73t80 179zM551 1280q38 0 69 28q29 26 29 70q0 72 -78 72q-44 0 -72 -28t-28 -74q0 -32 23 -50q22 -18 57 -18zM584 1540q72 0 119 -41t47 -106
q0 -89 -60 -146t-153 -57q-75 0 -121 41q-45 41 -45 104q0 89 58 147t155 58z" />
    <glyph glyph-name="ae" unicode="&#xe6;" horiz-adv-x="1241" 
d="M883 145q55 0 153 25q17 6 29 -1t12 -24l2 -86q0 -32 -37 -47q-75 -28 -184 -28q-124 0 -200 52q-77 53 -87 140q-112 -188 -295 -188q-126 0 -194 64q-70 65 -70 173q0 126 44 214q43 86 126 130q82 43 170 61q86 17 207 19l21 133q24 170 -121 170q-84 0 -215 -41
q-16 -5 -27 3q-10 7 -8 26l-6 92q7 37 39 45q116 43 239 43q214 0 244 -121q94 121 248 121q125 0 189 -70q65 -71 65 -204q0 -97 -21 -205l-20 -115q-6 -39 -47 -39h-430q-19 -100 -19 -159q0 -183 193 -183zM946 963q-76 0 -127 -78q-52 -79 -86 -248h291l2 16q0 1 1.5 13
t4 29t4.5 37q8 70 8 95q0 70 -21 103t-77 33zM512 393l20 113q-216 -12 -275 -62q-58 -49 -58 -198q0 -103 108 -103q78 0 131 70t74 180z" />
    <glyph glyph-name="ccedilla" unicode="&#xe7;" horiz-adv-x="665" 
d="M199 18h4q-146 72 -146 293q0 78 25 242q49 294 156 431q106 136 290 136q110 0 174 -20q33 -15 23 -47l-41 -92q-11 -35 -47 -21q-73 6 -98 6q-110 0 -169 -89q-60 -90 -94 -304q-24 -135 -24 -219q0 -96 36 -137t109 -41q45 0 119 16q33 12 33 -25l6 -94q0 -18 -8 -26
t-33 -19q-106 -24 -137 -24q-19 0 -33 2q82 -52 82 -131q0 -74 -46 -114t-124 -40q-66 0 -92 8q-19 8 -14 29l8 55q4 21 24 21h51q72 0 72 71q0 61 -106 133z" />
    <glyph glyph-name="egrave" unicode="&#xe8;" horiz-adv-x="796" 
d="M434 145q79 0 154 23q15 6 29 -2t12 -25l6 -82q-2 -35 -39 -47q-94 -28 -184 -28q-355 0 -355 352q0 74 25 233q49 280 155 416q105 135 277 135q132 0 199 -76t67 -215q0 -89 -22 -215l-19 -110q-6 -37 -45 -37h-444q-12 -61 -12 -123q0 -199 196 -199zM498 963
q-78 0 -130 -81q-53 -82 -92 -266h302l2 17q22 125 22 184q0 146 -104 146zM571 1395l45 -162q6 -29 -26 -29h-68q-25 0 -43 21l-117 157q-10 12 -4 26q6 13 25 13h152q26 0 36 -26z" />
    <glyph glyph-name="eacute" unicode="&#xe9;" horiz-adv-x="796" 
d="M434 145q79 0 154 23q15 6 29 -2t12 -25l6 -82q-2 -35 -39 -47q-94 -28 -184 -28q-355 0 -355 352q0 74 25 233q49 280 155 416q105 135 277 135q132 0 199 -76t67 -215q0 -89 -22 -215l-19 -110q-6 -37 -45 -37h-444q-12 -61 -12 -123q0 -199 196 -199zM498 963
q-78 0 -130 -81q-53 -82 -92 -266h302l2 17q22 125 22 184q0 146 -104 146zM467 1233l98 162q17 26 43 26h158q18 0 21 -13q3 -15 -11 -26l-168 -157q-22 -21 -49 -21h-76q-31 0 -16 29z" />
    <glyph glyph-name="ecircumflex" unicode="&#xea;" horiz-adv-x="796" 
d="M434 145q79 0 154 23q15 6 29 -2t12 -25l6 -82q-2 -35 -39 -47q-94 -28 -184 -28q-355 0 -355 352q0 74 25 233q49 280 155 416q105 135 277 135q132 0 199 -76t67 -215q0 -89 -22 -215l-19 -110q-6 -37 -45 -37h-444q-12 -61 -12 -123q0 -199 196 -199zM498 963
q-78 0 -130 -81q-53 -82 -92 -266h302l2 17q22 125 22 184q0 146 -104 146zM641 1225l-78 102l-110 -102q-27 -21 -47 -21h-89q-17 0 -18 11q-2 12 10 24l172 174q23 21 49 21h91q30 0 45 -21l112 -174q8 -12 3 -24q-4 -11 -21 -11h-76q-22 0 -43 21z" />
    <glyph glyph-name="edieresis" unicode="&#xeb;" horiz-adv-x="796" 
d="M434 145q79 0 154 23q15 6 29 -2t12 -25l6 -82q-2 -35 -39 -47q-94 -28 -184 -28q-355 0 -355 352q0 74 25 233q49 280 155 416q105 135 277 135q132 0 199 -76t67 -215q0 -89 -22 -215l-19 -110q-6 -37 -45 -37h-444q-12 -61 -12 -123q0 -199 196 -199zM498 963
q-78 0 -130 -81q-53 -82 -92 -266h302l2 17q22 125 22 184q0 146 -104 146zM510 1339l-16 -102q-7 -33 -41 -33h-115q-37 0 -31 33l19 102q6 35 41 35h114q35 0 29 -35zM797 1339l-19 -102q-6 -33 -39 -33h-116q-35 0 -29 33l16 102q8 35 43 35h115q35 0 29 -35z" />
    <glyph glyph-name="igrave" unicode="&#xec;" horiz-adv-x="382" 
d="M391 1067l-182 -1030q-6 -37 -39 -37h-117q-39 0 -33 37l183 1030q6 37 43 37h119q32 0 26 -37zM348 1395l45 -162q8 -29 -26 -29h-68q-25 0 -43 21l-117 157q-10 12 -4 26q6 13 25 13h151q27 0 37 -26z" />
    <glyph glyph-name="iacute" unicode="&#xed;" horiz-adv-x="382" 
d="M391 1067l-182 -1030q-6 -37 -39 -37h-117q-39 0 -33 37l183 1030q6 37 43 37h119q32 0 26 -37zM260 1233l98 162q17 26 43 26h158q19 0 22 -13q3 -14 -12 -26l-168 -157q-23 -21 -49 -21h-76q-31 0 -16 29z" />
    <glyph glyph-name="icircumflex" unicode="&#xee;" horiz-adv-x="382" 
d="M391 1067l-182 -1030q-6 -37 -39 -37h-117q-39 0 -33 37l183 1030q6 37 43 37h119q32 0 26 -37zM426 1225l-78 102l-110 -102q-27 -21 -48 -21h-88q-17 0 -18 11q-2 12 10 24l172 174q22 21 49 21h91q30 0 45 -21l112 -174q7 -12 3 -24q-4 -11 -21 -11h-76q-22 0 -43 21z
" />
    <glyph glyph-name="idieresis" unicode="&#xef;" horiz-adv-x="382" 
d="M391 1067l-182 -1030q-6 -37 -39 -37h-117q-39 0 -33 37l183 1030q6 37 43 37h119q32 0 26 -37zM295 1339l-16 -102q-7 -33 -41 -33h-115q-37 0 -31 33l19 102q6 35 41 35h114q35 0 29 -35zM582 1339l-19 -102q-6 -33 -39 -33h-116q-35 0 -29 33l16 102q8 35 43 35h115
q35 0 29 -35z" />
    <glyph glyph-name="eth" unicode="&#xf0;" horiz-adv-x="847" 
d="M848 1202h-74q57 -159 57 -354q0 -133 -28 -297q-52 -296 -158 -432q-105 -135 -287 -135q-305 0 -305 329q0 95 25 236q53 293 158 430t276 137q78 0 135 -39q-16 83 -35 125h-176q-34 0 -28 35l10 45q6 31 39 31h98q-2 2 -11.5 13t-31 37t-43.5 52q-13 7 4 19l14 6h136
q27 0 39 -15q55 -80 69 -112h137q33 0 27 -31l-10 -45q-6 -35 -37 -35zM371 150q87 0 143 92q55 91 96 307q25 158 25 219q0 184 -125 184q-90 0 -144 -93q-56 -96 -94 -310q-24 -151 -24 -219q0 -180 123 -180z" />
    <glyph glyph-name="ntilde" unicode="&#xf1;" horiz-adv-x="851" 
d="M821 780l-133 -743q-6 -37 -39 -37h-119q-36 0 -30 37l125 711q8 43 8 83q0 113 -101 113q-85 0 -143 -70t-76 -192l-116 -645q-6 -37 -41 -37h-117q-39 0 -29 37l180 1030q10 37 43 37h113q35 0 29 -33l-13 -92q92 141 242 141q110 0 169 -66q58 -65 58 -180
q0 -41 -10 -94zM831 1335q-21 -135 -133 -135q-74 0 -135 35l-47 31l-26 13q-13 5 -20 5h-15q-8 0 -12 -4q-3 -3 -9 -7q-4 -3 -7 -10l-4 -12q-2 -6 -3 -10l-2 -8v-8q-8 -21 -35 -21h-47q-37 0 -27 43q21 139 137 139q61 0 132 -36l49 -29q35 -21 57 -21q33 0 39 50v8
q6 24 37 24h49q33 0 22 -47z" />
    <glyph glyph-name="ograve" unicode="&#xf2;" horiz-adv-x="851" 
d="M356 -16q183 0 288 136q106 138 161 431q22 125 22 233q0 336 -301 336q-184 0 -289 -136q-107 -139 -159 -433q-25 -141 -25 -236q0 -331 303 -331zM371 150q-123 0 -123 182q0 68 24 219q38 214 94 310q54 93 144 93q125 0 125 -184q0 -61 -25 -219q-39 -216 -94 -308
q-56 -93 -145 -93zM588 1395l45 -162q6 -29 -27 -29h-67q-25 0 -43 21l-117 157q-10 12 -4 26q6 13 24 13h152q27 0 37 -26z" />
    <glyph glyph-name="oacute" unicode="&#xf3;" horiz-adv-x="851" 
d="M356 -16q183 0 288 136q106 138 161 431q22 125 22 233q0 336 -301 336q-184 0 -289 -136q-107 -139 -159 -433q-25 -141 -25 -236q0 -331 303 -331zM371 150q-123 0 -123 182q0 68 24 219q38 214 94 310q54 93 144 93q125 0 125 -184q0 -61 -25 -219q-39 -216 -94 -308
q-56 -93 -145 -93zM485 1233l99 162q17 26 43 26h157q19 0 22 -13q3 -15 -11 -26l-168 -157q-23 -21 -49 -21h-76q-32 0 -17 29z" />
    <glyph glyph-name="ocircumflex" unicode="&#xf4;" horiz-adv-x="851" 
d="M356 -16q183 0 288 136q106 138 161 431q22 125 22 233q0 336 -301 336q-184 0 -289 -136q-107 -139 -159 -433q-25 -141 -25 -236q0 -331 303 -331zM371 150q-123 0 -123 182q0 68 24 219q38 214 94 310q54 93 144 93q125 0 125 -184q0 -61 -25 -219q-39 -216 -94 -308
q-56 -93 -145 -93zM659 1225l-77 102l-111 -102q-27 -21 -47 -21h-88q-18 0 -19 11q-1 12 11 24l172 174q23 21 49 21h90q30 0 45 -21l113 -174q7 -12 3 -24q-4 -11 -22 -11h-76q-22 0 -43 21z" />
    <glyph glyph-name="otilde" unicode="&#xf5;" horiz-adv-x="851" 
d="M356 -16q-303 0 -303 331q0 95 25 236q52 294 159 433q105 136 289 136q301 0 301 -336q0 -108 -22 -233q-55 -293 -161 -431q-105 -136 -288 -136zM371 150q89 0 145 93q55 92 94 308q25 158 25 219q0 184 -125 184q-90 0 -144 -93q-56 -96 -94 -310q-24 -151 -24 -219
q0 -182 123 -182zM831 1335q-21 -135 -133 -135q-74 0 -135 35l-47 31l-26 13q-13 5 -20 5h-15q-8 0 -12 -4q-3 -3 -9 -7q-4 -3 -7 -10l-4 -12q-2 -6 -3 -10l-2 -8v-8q-8 -21 -35 -21h-47q-37 0 -27 43q21 139 137 139q61 0 132 -36l49 -29q35 -21 57 -21q33 0 39 50v8
q6 24 37 24h49q33 0 22 -47z" />
    <glyph glyph-name="odieresis" unicode="&#xf6;" horiz-adv-x="851" 
d="M356 -16q183 0 288 136q106 138 161 431q22 125 22 233q0 336 -301 336q-184 0 -289 -136q-107 -139 -159 -433q-25 -141 -25 -236q0 -331 303 -331zM371 150q-123 0 -123 182q0 68 24 219q38 214 94 310q54 93 144 93q125 0 125 -184q0 -61 -25 -219q-39 -216 -94 -308
q-56 -93 -145 -93zM528 1339l-16 -102q-8 -33 -41 -33h-115q-36 0 -30 33l18 102q6 35 41 35h115q34 0 28 -35zM815 1339l-18 -102q-6 -33 -39 -33h-117q-35 0 -29 33l17 102q8 35 43 35h114q35 0 29 -35z" />
    <glyph glyph-name="divide" unicode="&#xf7;" horiz-adv-x="974" 
d="M870 643h-704q-35 0 -27 35l15 88q5 35 41 35h702q35 0 29 -35l-15 -88q-8 -35 -41 -35zM354 289l29 157q6 37 43 37h127q37 0 31 -37l-27 -157q-6 -37 -43 -37h-129q-37 0 -31 37zM479 995l29 158q6 37 41 37h127q39 0 33 -37l-27 -158q-7 -37 -43 -37h-127
q-39 0 -33 37z" />
    <glyph glyph-name="oslash" unicode="&#xf8;" horiz-adv-x="860" 
d="M360 -16q-149 0 -225 82l-41 -58q-23 -29 -47 -8l-35 33q-22 21 0 43l68 88q-21 61 -21 151q0 95 25 236q52 294 159 433q105 136 289 136q146 0 222 -82l41 58q21 24 47 4l35 -27q22 -16 0 -43l-68 -88q22 -66 22 -158q0 -109 -20 -233q-52 -293 -161 -431
q-108 -136 -290 -136zM377 150q89 0 145 93q55 92 94 308q24 144 25 197l-375 -517q22 -81 111 -81zM279 551q-20 -111 -25 -176l371 506q-28 73 -109 73q-90 0 -144 -93t-93 -310z" />
    <glyph glyph-name="ugrave" unicode="&#xf9;" horiz-adv-x="845" 
d="M55 322l133 745q6 37 43 37h117q37 0 27 -37l-125 -709q-8 -61 -8 -79q0 -121 104 -121q80 0 134 69q55 71 79 191l113 649q6 37 45 37h117q32 0 26 -37l-182 -1030q-6 -37 -39 -37h-113q-20 0 -28 8t-6 25l14 90q-79 -139 -225 -139q-116 0 -175 65t-59 182q0 45 8 91z
M592 1395l45 -162q6 -29 -27 -29h-67q-25 0 -43 21l-117 157q-10 12 -4 26q6 13 24 13h152q27 0 37 -26z" />
    <glyph glyph-name="uacute" unicode="&#xfa;" horiz-adv-x="845" 
d="M55 322l133 745q6 37 43 37h117q37 0 27 -37l-125 -709q-8 -61 -8 -79q0 -121 104 -121q80 0 134 69q55 71 79 191l113 649q6 37 45 37h117q32 0 26 -37l-182 -1030q-6 -37 -39 -37h-113q-20 0 -28 8t-6 25l14 90q-79 -139 -225 -139q-116 0 -175 65t-59 182q0 45 8 91z
M475 1233l98 162q17 26 43 26h158q19 0 22 -13q3 -14 -12 -26l-168 -157q-22 -21 -49 -21h-75q-32 0 -17 29z" />
    <glyph glyph-name="ucircumflex" unicode="&#xfb;" horiz-adv-x="845" 
d="M55 322l133 745q6 37 43 37h117q37 0 27 -37l-125 -709q-8 -61 -8 -79q0 -121 104 -121q80 0 134 69q55 71 79 191l113 649q6 37 45 37h117q32 0 26 -37l-182 -1030q-6 -37 -39 -37h-113q-20 0 -28 8t-6 25l14 90q-79 -139 -225 -139q-116 0 -175 65t-59 182q0 45 8 91z
M655 1225l-77 102l-111 -102q-27 -21 -47 -21h-88q-18 0 -19 11q-1 12 11 24l172 174q22 21 49 21h90q30 0 45 -21l113 -174q7 -12 3 -24q-4 -11 -22 -11h-76q-22 0 -43 21z" />
    <glyph glyph-name="udieresis" unicode="&#xfc;" horiz-adv-x="845" 
d="M55 322l133 745q6 37 43 37h117q37 0 27 -37l-125 -709q-8 -61 -8 -79q0 -121 104 -121q80 0 134 69q55 71 79 191l113 649q6 37 45 37h117q32 0 26 -37l-182 -1030q-6 -37 -39 -37h-113q-20 0 -28 8t-6 25l14 90q-79 -139 -225 -139q-116 0 -175 65t-59 182q0 45 8 91z
M524 1339l-16 -102q-8 -33 -41 -33h-115q-36 0 -30 33l18 102q6 35 41 35h115q34 0 28 -35zM811 1339l-18 -102q-6 -33 -39 -33h-117q-35 0 -29 33l17 102q8 35 43 35h114q35 0 29 -35z" />
    <glyph glyph-name="yacute" unicode="&#xfd;" horiz-adv-x="778" 
d="M850 1065l-401 -999q-60 -162 -134 -233t-225 -71q-80 0 -123 19q-30 12 -22 39l30 90q12 33 45 31l4 -1q3 -1 10 -2.5t15 -2.5q30 -5 55 -5q130 0 109 160l-70 975q-5 39 35 39h123q29 0 33 -37l31 -657l-13 -174h4l56 174l239 657q21 37 49 37h127q35 0 23 -39z
M459 1233l98 162q17 26 43 26h158q18 0 21 -13q3 -15 -11 -26l-168 -157q-22 -21 -49 -21h-76q-31 0 -16 29z" />
    <glyph glyph-name="thorn" unicode="&#xfe;" horiz-adv-x="884" 
d="M295 1440h117q38 0 32 -35l-77 -428q82 143 235 143q258 0 258 -323q0 -112 -26 -254q-51 -288 -146 -424q-94 -135 -254 -135q-84 0 -146 40q-64 41 -71 101l-55 -313q-6 -37 -43 -37h-117q-39 0 -29 37l281 1593q6 35 41 35zM291 551q-21 -108 -21 -195
q0 -206 133 -206q91 0 145 92q55 93 95 309q23 143 23 221q0 98 -30 140t-91 42q-91 0 -152 -96q-62 -96 -102 -307z" />
    <glyph glyph-name="ydieresis" unicode="&#xff;" horiz-adv-x="778" 
d="M850 1065l-401 -999q-60 -162 -134 -233t-225 -71q-80 0 -123 19q-30 12 -22 39l30 90q12 33 45 31l4 -1q3 -1 10 -2.5t15 -2.5q30 -5 55 -5q130 0 109 160l-70 975q-5 39 35 39h123q29 0 33 -37l31 -657l-13 -174h4l56 174l239 657q21 37 49 37h127q35 0 23 -39z
M492 1339l-17 -102q-8 -33 -41 -33h-115q-36 0 -30 33l18 102q6 35 41 35h115q35 0 29 -35zM778 1339l-18 -102q-6 -33 -39 -33h-117q-35 0 -29 33l17 102q8 35 43 35h115q34 0 28 -35z" />
    <glyph glyph-name="Amacron" unicode="&#x100;" horiz-adv-x="964" 
d="M371 537h250v692h-5zM563 1440h178q25 0 34 -9t11 -32l60 -1358q5 -41 -37 -41h-129q-33 0 -37 37l-6 319h-342l-119 -319q-21 -37 -47 -37h-135q-44 0 -29 41l541 1358q17 41 57 41zM883 1532h-430q-19 0 -24 8t-3 27l10 61q8 33 41 33h428q37 0 31 -33l-12 -61
q-2 -35 -41 -35z" />
    <glyph glyph-name="amacron" unicode="&#x101;" horiz-adv-x="800" 
d="M768 786l-131 -749q-10 -37 -41 -37h-102q-34 0 -33 33l16 96q-94 -141 -237 -141q-104 0 -164 67t-60 176q0 243 136 344t417 113l17 98q16 84 -13 126q-28 40 -110 40q-90 0 -215 -41q-16 -4 -28 3q-11 7 -9 26v92q5 35 37 45q93 43 248 43q280 0 280 -241
q0 -47 -8 -93zM516 391l29 158q-117 -7 -192 -28q-69 -19 -104 -60q-34 -40 -42 -85q-8 -46 -8 -126q0 -111 92 -111q83 0 145 73t80 179zM745 1212h-428q-34 0 -28 35l8 53q11 35 39 35h430q38 0 27 -35l-7 -53q-8 -35 -41 -35z" />
    <glyph glyph-name="Abreve" unicode="&#x102;" horiz-adv-x="964" 
d="M371 537h250v692h-5zM563 1440h178q25 0 34 -9t11 -32l60 -1358q5 -41 -37 -41h-129q-33 0 -37 37l-6 319h-342l-119 -319q-21 -37 -47 -37h-135q-44 0 -29 41l541 1358q17 41 57 41zM676 1518q-115 0 -169 54t-38 144q1 27 31 27h67q29 0 29 -27q-2 -44 18 -65
q21 -23 72 -23q97 0 125 88q6 27 33 27h67q27 0 25 -27q-41 -198 -260 -198z" />
    <glyph glyph-name="abreve" unicode="&#x103;" horiz-adv-x="800" 
d="M768 786l-131 -749q-10 -37 -41 -37h-102q-34 0 -33 33l16 96q-94 -141 -237 -141q-104 0 -164 67t-60 176q0 243 136 344t417 113l17 98q16 84 -13 126q-28 40 -110 40q-90 0 -215 -41q-16 -4 -28 3q-11 7 -9 26v92q5 35 37 45q93 43 248 43q280 0 280 -241
q0 -47 -8 -93zM516 391l29 158q-117 -7 -192 -28q-69 -19 -104 -60q-34 -40 -42 -85q-8 -46 -8 -126q0 -111 92 -111q83 0 145 73t80 179zM543 1200q-114 0 -172 53t-41 144q6 26 33 26h67q16 0 21 -6q4 -5 2 -20q-2 -45 20 -65q23 -21 76 -21q97 0 121 86q7 26 37 26h67
q24 0 23 -26q-41 -197 -254 -197z" />
    <glyph glyph-name="Aogonek" unicode="&#x104;" horiz-adv-x="964" 
d="M563 1440h178q25 0 34 -9t11 -32l60 -1358q5 -41 -37 -41h-4q-121 -73 -121 -156q0 -39 59 -39q18 0 34 2q3 0 10 1.5t10 1.5q16 0 14 -17v-59q-1 -20 -25 -31q-40 -18 -81 -18q-160 0 -160 118q0 114 160 197h-25q-33 0 -37 37l-6 319h-342l-119 -319q-21 -37 -47 -37
h-135q-44 0 -29 41l541 1358q17 41 57 41zM371 537h250v692h-5z" />
    <glyph glyph-name="aogonek" unicode="&#x105;" horiz-adv-x="800" 
d="M768 786l-131 -749q-10 -37 -41 -37h-4q-117 -72 -117 -143q0 -39 57 -39q22 0 30 1t20 1q18 0 16 -19l-2 -53q-2 -25 -23 -31q-37 -18 -81 -18q-63 0 -107 29q-43 28 -43 77q0 117 156 195h-4q-34 0 -33 33l16 96q-94 -141 -237 -141q-104 0 -164 67t-60 176
q0 243 136 344t417 113l17 98q16 84 -13 126q-28 40 -110 40q-90 0 -215 -41q-16 -4 -28 3q-11 7 -9 26v92q5 35 37 45q93 43 248 43q280 0 280 -241q0 -47 -8 -93zM516 391l29 158q-117 -7 -192 -28q-69 -19 -104 -60q-34 -40 -42 -85q-8 -46 -8 -126q0 -111 92 -111
q83 0 145 73t80 179z" />
    <glyph glyph-name="Cacute" unicode="&#x106;" horiz-adv-x="821" 
d="M514 168q56 0 135 20q41 12 41 -32l6 -99q-2 -29 -45 -47q-77 -26 -182 -26q-193 0 -289 93t-96 310q0 122 35 334q73 414 202 576q128 161 369 161q119 0 201 -26q39 -12 27 -48l-37 -96q-12 -44 -54 -28q-80 14 -125 14q-159 0 -239 -115t-137 -438q-35 -218 -35 -303
q0 -141 53 -196q53 -54 170 -54zM582 1552l96 162q23 29 49 29h158q18 0 19 -13q2 -14 -11 -26l-170 -158q-22 -22 -51 -22h-74q-32 0 -16 28z" />
    <glyph glyph-name="cacute" unicode="&#x107;" horiz-adv-x="665" 
d="M82 553q49 294 156 431q106 136 290 136q110 0 174 -20q33 -15 23 -47l-41 -92q-11 -35 -47 -21q-73 6 -98 6q-110 0 -169 -89q-60 -90 -94 -304q-24 -135 -24 -219q0 -96 36 -137t109 -41q45 0 119 16q33 12 33 -25l6 -94q0 -18 -8 -26t-33 -19q-106 -24 -137 -24
q-320 0 -320 327q0 78 25 242zM438 1233l99 162q17 26 43 26h157q19 0 22 -13q3 -15 -11 -26l-168 -157q-22 -21 -50 -21h-75q-32 0 -17 29z" />
    <glyph glyph-name="Ccircumflex" unicode="&#x108;" horiz-adv-x="821" 
d="M514 168q56 0 135 20q41 12 41 -32l6 -99q-2 -29 -45 -47q-77 -26 -182 -26q-193 0 -289 93t-96 310q0 122 35 334q73 414 202 576q128 161 369 161q119 0 201 -26q39 -12 27 -48l-37 -96q-12 -44 -54 -28q-80 14 -125 14q-159 0 -239 -115t-137 -438q-35 -218 -35 -303
q0 -141 53 -196q53 -54 170 -54zM784 1546l-75 94l-109 -94q-29 -22 -49 -22h-88q-19 0 -20 12q-2 13 14 25l170 165q28 23 49 23h90q33 0 45 -23l111 -165q10 -12 4 -25q-6 -12 -23 -12h-76q-17 0 -43 22z" />
    <glyph glyph-name="ccircumflex" unicode="&#x109;" horiz-adv-x="665" 
d="M82 553q49 294 156 431q106 136 290 136q110 0 174 -20q33 -15 23 -47l-41 -92q-11 -35 -47 -21q-73 6 -98 6q-110 0 -169 -89q-60 -90 -94 -304q-24 -135 -24 -219q0 -96 36 -137t109 -41q45 0 119 16q33 12 33 -25l6 -94q0 -18 -8 -26t-33 -19q-106 -24 -137 -24
q-320 0 -320 327q0 78 25 242zM606 1225l-78 102l-110 -102q-27 -21 -47 -21h-88q-18 0 -19 11q-2 12 10 24l172 174q22 21 50 21h90q30 0 45 -21l112 -174q7 -12 3 -24q-4 -11 -21 -11h-76q-22 0 -43 21z" />
    <glyph glyph-name="Cdotaccent" unicode="&#x10a;" horiz-adv-x="821" 
d="M514 168q56 0 135 20q41 12 41 -32l6 -99q-2 -29 -45 -47q-77 -26 -182 -26q-193 0 -289 93t-96 310q0 122 35 334q73 414 202 576q128 161 369 161q119 0 201 -26q39 -12 27 -48l-37 -96q-12 -44 -54 -28q-80 14 -125 14q-159 0 -239 -115t-137 -438q-35 -218 -35 -303
q0 -141 53 -196q53 -54 170 -54zM811 1663l-23 -104q-6 -35 -38 -35h-132q-36 0 -30 35l20 104q2 35 41 35h131q33 0 31 -35z" />
    <glyph glyph-name="cdotaccent" unicode="&#x10b;" horiz-adv-x="665" 
d="M82 553q49 294 156 431q106 136 290 136q110 0 174 -20q33 -15 23 -47l-41 -92q-11 -35 -47 -21q-73 6 -98 6q-110 0 -169 -89q-60 -90 -94 -304q-24 -135 -24 -219q0 -96 36 -137t109 -41q45 0 119 16q33 12 33 -25l6 -94q0 -18 -8 -26t-33 -19q-106 -24 -137 -24
q-320 0 -320 327q0 78 25 242zM657 1343l-16 -106q-7 -33 -41 -33h-131q-37 0 -31 33l17 106q8 35 43 35h131q34 0 28 -35z" />
    <glyph glyph-name="Ccaron" unicode="&#x10c;" horiz-adv-x="821" 
d="M514 168q56 0 135 20q41 12 41 -32l6 -99q-2 -29 -45 -47q-77 -26 -182 -26q-193 0 -289 93t-96 310q0 122 35 334q73 414 202 576q128 161 369 161q119 0 201 -26q39 -12 27 -48l-37 -96q-12 -44 -54 -28q-80 14 -125 14q-159 0 -239 -115t-137 -438q-35 -218 -35 -303
q0 -141 53 -196q53 -54 170 -54zM700 1630l103 94q31 25 47 25h88q16 0 20 -12q5 -13 -10 -23l-168 -170q-23 -20 -51 -20h-92q-27 0 -41 20l-113 170q-8 11 -2 23t23 12h76q25 0 43 -23z" />
    <glyph glyph-name="ccaron" unicode="&#x10d;" horiz-adv-x="665" 
d="M82 553q49 294 156 431q106 136 290 136q110 0 174 -20q33 -15 23 -47l-41 -92q-11 -35 -47 -21q-73 6 -98 6q-110 0 -169 -89q-60 -90 -94 -304q-24 -135 -24 -219q0 -96 36 -137t109 -41q45 0 119 16q33 12 33 -25l6 -94q0 -18 -8 -26t-33 -19q-106 -24 -137 -24
q-320 0 -320 327q0 78 25 242zM532 1311l111 102q27 21 47 21h90q18 0 19 -12q1 -11 -13 -23l-172 -174q-21 -21 -49 -21h-92q-28 0 -43 21l-113 174q-7 10 -3 22q5 13 22 13h78q25 0 41 -21z" />
    <glyph glyph-name="Dcaron" unicode="&#x10e;" horiz-adv-x="964" 
d="M348 0h-291q-40 0 -34 39l241 1364q6 37 45 37h254q202 0 304 -99t102 -321q0 -125 -29 -279q-72 -413 -209 -578q-136 -163 -383 -163zM545 1253h-105l-186 -1067h108q145 0 230 118q87 120 143 435q27 147 27 248q0 146 -54 206t-163 60zM680 1630l102 94q31 25 47 25
h89q15 0 20 -12q5 -13 -10 -23l-168 -170q-23 -20 -51 -20h-93q-27 0 -41 20l-112 170q-8 11 -2 23t22 12h76q25 0 43 -23z" />
    <glyph glyph-name="dcaron" unicode="&#x10f;" horiz-adv-x="1083" 
d="M625 551q18 99 18 192q0 211 -135 211q-90 0 -144 -93q-55 -94 -92 -310q-24 -151 -24 -223q0 -178 121 -178q183 0 256 401zM532 33l17 94q-69 -143 -234 -143q-264 0 -264 323q0 91 27 244q46 289 146 430q99 139 259 139q82 0 141 -41q57 -39 72 -100l76 426
q6 35 41 35h117q39 0 33 -35l-244 -1368q-6 -37 -41 -37h-113q-35 0 -33 33zM1208 1233l-104 -189q-10 -26 -37 -26h-45q-28 0 -16 33l90 178h-43q-37 0 -31 39l29 159q6 37 43 37h127q36 0 30 -37l-24 -149q-5 -25 -19 -45z" />
    <glyph glyph-name="Dcroat" unicode="&#x110;" horiz-adv-x="968" 
d="M352 0h-291q-40 0 -34 39l112 616h-53q-37 0 -29 31l13 68q7 34 39 34h53l106 615q6 37 45 37h254q199 0 301 -100q101 -99 101 -330q0 -129 -29 -291q-67 -399 -205 -559q-137 -160 -383 -160zM549 1253h-105l-82 -465h148q31 0 27 -34l-13 -68q-8 -31 -37 -31h-147
l-82 -469h109q145 0 232 116q86 115 136 417q29 171 29 266q0 145 -54 207q-54 61 -161 61z" />
    <glyph glyph-name="dcroat" unicode="&#x111;" horiz-adv-x="888" 
d="M532 33l17 94q-69 -143 -230 -143q-268 0 -268 325q0 94 27 244q52 291 150 429t255 138q81 0 137 -40q55 -39 76 -99l39 223h-178q-33 0 -27 33l11 45q5 33 37 33h178l16 90q6 35 41 35h117q39 0 33 -35l-19 -90h47q33 0 27 -33l-10 -45q-6 -33 -37 -33h-45l-207 -1167
q-6 -37 -41 -37h-113q-35 0 -33 33zM625 551q18 99 18 192q0 211 -135 211q-90 0 -144 -93q-55 -94 -92 -310q-24 -151 -24 -223q0 -178 121 -178q183 0 256 401z" />
    <glyph glyph-name="Emacron" unicode="&#x112;" horiz-adv-x="792" 
d="M692 647h-360l-82 -461h381q41 0 35 -36l-21 -111q-7 -39 -45 -39h-543q-40 0 -34 39l241 1364q6 37 45 37h537q39 0 33 -37l-21 -111q-6 -39 -43 -39h-377l-73 -428h358q37 0 31 -39l-19 -102q-6 -37 -43 -37zM819 1532h-430q-18 0 -23 8q-5 9 -4 27l11 61q7 33 41 33
h428q36 0 30 -33l-12 -61q-2 -35 -41 -35z" />
    <glyph glyph-name="emacron" unicode="&#x113;" horiz-adv-x="796" 
d="M434 145q79 0 154 23q15 6 29 -2t12 -25l6 -82q-2 -35 -39 -47q-94 -28 -184 -28q-355 0 -355 352q0 74 25 233q49 280 155 416q105 135 277 135q132 0 199 -76t67 -215q0 -89 -22 -215l-19 -110q-6 -37 -45 -37h-444q-12 -61 -12 -123q0 -199 196 -199zM498 963
q-78 0 -130 -81q-53 -82 -92 -266h302l2 17q22 125 22 184q0 146 -104 146zM756 1212h-428q-35 0 -29 35l8 53q11 35 39 35h430q38 0 27 -35l-6 -53q-8 -35 -41 -35z" />
    <glyph glyph-name="Ebreve" unicode="&#x114;" horiz-adv-x="792" 
d="M692 647h-360l-82 -461h381q41 0 35 -36l-21 -111q-7 -39 -45 -39h-543q-40 0 -34 39l241 1364q6 37 45 37h537q39 0 33 -37l-21 -111q-6 -39 -43 -39h-377l-73 -428h358q37 0 31 -39l-19 -102q-6 -37 -43 -37zM625 1518q-115 0 -169 54t-38 144q2 27 31 27h67
q29 0 29 -27q-2 -44 18 -65q21 -23 72 -23q97 0 125 88q6 27 33 27h67q26 0 25 -27q-41 -198 -260 -198z" />
    <glyph glyph-name="ebreve" unicode="&#x115;" horiz-adv-x="796" 
d="M434 145q79 0 154 23q15 6 29 -2t12 -25l6 -82q-2 -35 -39 -47q-94 -28 -184 -28q-355 0 -355 352q0 74 25 233q49 280 155 416q105 135 277 135q132 0 199 -76t67 -215q0 -89 -22 -215l-19 -110q-6 -37 -45 -37h-444q-12 -61 -12 -123q0 -199 196 -199zM498 963
q-78 0 -130 -81q-53 -82 -92 -266h302l2 17q22 125 22 184q0 146 -104 146zM553 1200q-114 0 -172 53t-41 144q6 26 33 26h67q16 0 21 -6q4 -5 2 -20q-2 -45 20 -65q22 -21 76 -21q97 0 121 86q7 26 37 26h67q24 0 23 -26q-41 -197 -254 -197z" />
    <glyph glyph-name="Edotaccent" unicode="&#x116;" horiz-adv-x="792" 
d="M692 647h-360l-82 -461h381q41 0 35 -36l-21 -111q-7 -39 -45 -39h-543q-40 0 -34 39l241 1364q6 37 45 37h537q39 0 33 -37l-21 -111q-6 -39 -43 -39h-377l-73 -428h358q37 0 31 -39l-19 -102q-6 -37 -43 -37zM750 1663l-23 -104q-6 -35 -39 -35h-131q-37 0 -31 35
l21 104q2 35 41 35h131q33 0 31 -35z" />
    <glyph glyph-name="edotaccent" unicode="&#x117;" horiz-adv-x="796" 
d="M434 145q79 0 154 23q15 6 29 -2t12 -25l6 -82q-2 -35 -39 -47q-94 -28 -184 -28q-355 0 -355 352q0 74 25 233q49 280 155 416q105 135 277 135q132 0 199 -76t67 -215q0 -89 -22 -215l-19 -110q-6 -37 -45 -37h-444q-12 -61 -12 -123q0 -199 196 -199zM498 963
q-78 0 -130 -81q-53 -82 -92 -266h302l2 17q22 125 22 184q0 146 -104 146zM664 1343l-17 -106q-7 -33 -41 -33h-131q-37 0 -31 33l17 106q8 35 43 35h131q35 0 29 -35z" />
    <glyph glyph-name="Eogonek" unicode="&#x118;" horiz-adv-x="792" 
d="M692 647h-360l-82 -461h381q41 0 35 -36l-21 -111q-7 -39 -45 -39h-14q-121 -73 -121 -156q0 -39 59 -39q18 0 34 2q3 0 10 1.5t10 1.5q16 0 14 -17v-59q-1 -20 -25 -31q-39 -18 -82 -18q-159 0 -159 118q0 115 159 197h-428q-40 0 -34 39l241 1364q6 37 45 37h537
q39 0 33 -37l-21 -111q-6 -39 -43 -39h-377l-73 -428h358q37 0 31 -39l-19 -102q-6 -37 -43 -37z" />
    <glyph glyph-name="eogonek" unicode="&#x119;" horiz-adv-x="796" 
d="M434 145q79 0 154 23q15 6 29 -2t12 -25l6 -82q-2 -35 -39 -47q-31 -10 -98 -22q-101 -68 -101 -133q0 -39 58 -39q21 0 29 1t20 1q18 0 16 -19l-2 -53q-2 -25 -22 -31q-38 -18 -82 -18q-63 0 -107 29q-43 28 -43 77q0 106 127 179q-334 10 -334 352q0 74 25 233
q49 280 155 416q105 135 277 135q132 0 199 -76t67 -215q0 -89 -22 -215l-19 -110q-6 -37 -45 -37h-444q-12 -61 -12 -123q0 -199 196 -199zM498 963q-78 0 -130 -81q-53 -82 -92 -266h302l2 17q22 125 22 184q0 146 -104 146z" />
    <glyph glyph-name="Ecaron" unicode="&#x11a;" horiz-adv-x="792" 
d="M692 647h-360l-82 -461h381q41 0 35 -36l-21 -111q-7 -39 -45 -39h-543q-40 0 -34 39l241 1364q6 37 45 37h537q39 0 33 -37l-21 -111q-6 -39 -43 -39h-377l-73 -428h358q37 0 31 -39l-19 -102q-6 -37 -43 -37zM629 1630l102 94q31 25 47 25h88q16 0 21 -12
q5 -13 -10 -23l-168 -170q-23 -20 -52 -20h-92q-27 0 -41 20l-112 170q-8 11 -2 23t22 12h76q25 0 43 -23z" />
    <glyph glyph-name="ecaron" unicode="&#x11b;" horiz-adv-x="796" 
d="M434 145q79 0 154 23q15 6 29 -2t12 -25l6 -82q-2 -35 -39 -47q-94 -28 -184 -28q-355 0 -355 352q0 74 25 233q49 280 155 416q105 135 277 135q132 0 199 -76t67 -215q0 -89 -22 -215l-19 -110q-6 -37 -45 -37h-444q-12 -61 -12 -123q0 -199 196 -199zM498 963
q-78 0 -130 -81q-53 -82 -92 -266h302l2 17q22 125 22 184q0 146 -104 146zM553 1311l111 102q27 21 47 21h90q17 0 18 -12q2 -12 -12 -23l-172 -174q-21 -21 -49 -21h-92q-28 0 -43 21l-113 174q-7 10 -3 22q5 13 21 13h78q24 0 41 -21z" />
    <glyph glyph-name="Gcircumflex" unicode="&#x11c;" horiz-adv-x="927" 
d="M561 844h303q37 0 31 -37l-125 -715q-6 -41 -47 -59q-89 -49 -242 -49q-197 0 -297 92q-98 91 -98 311q0 128 35 336q72 413 210 574t400 161q130 0 211 -28q37 -16 25 -50l-37 -98q-15 -44 -56 -27q-97 19 -145 19q-184 0 -265 -113q-80 -112 -136 -438
q-35 -199 -35 -311q0 -138 51 -192t166 -54q34 0 82 8l88 494h-148q-38 0 -32 37l16 102q6 37 45 37zM799 1546l-76 94l-109 -94q-29 -22 -49 -22h-88q-17 0 -19 12q-2 13 13 25l170 165q28 23 49 23h90q33 0 45 -23l111 -165q10 -12 4 -25q-6 -12 -22 -12h-76q-17 0 -43 22
z" />
    <glyph glyph-name="gcircumflex" unicode="&#x11d;" horiz-adv-x="860" 
d="M606 602q17 102 17 162q0 197 -125 197q-81 0 -134 -88q-52 -86 -85 -271q-19 -97 -19 -184q0 -170 113 -170q173 0 233 354zM874 1067l-167 -948q-30 -183 -133 -273q-101 -88 -283 -88q-165 0 -250 35q-33 15 -23 43l33 88q12 41 47 29q95 -31 187 -31q202 0 239 205
l17 106q-66 -141 -222 -141q-253 0 -253 299q0 105 20 211q46 262 140 390q93 128 243 128q77 0 134 -45t73 -106l16 102q8 33 47 33h109q32 0 26 -37zM668 1225l-78 102l-111 -102q-27 -21 -47 -21h-88q-17 0 -18 11q-2 12 10 24l172 174q22 21 49 21h90q30 0 45 -21
l113 -174q7 -12 3 -24q-4 -11 -22 -11h-75q-22 0 -43 21z" />
    <glyph glyph-name="Gbreve" unicode="&#x11e;" horiz-adv-x="927" 
d="M561 844h303q37 0 31 -37l-125 -715q-6 -41 -47 -59q-89 -49 -242 -49q-197 0 -297 92q-98 91 -98 311q0 128 35 336q72 413 210 574t400 161q130 0 211 -28q37 -16 25 -50l-37 -98q-15 -44 -56 -27q-97 19 -145 19q-184 0 -265 -113q-80 -112 -136 -438
q-35 -199 -35 -311q0 -138 51 -192t166 -54q34 0 82 8l88 494h-148q-38 0 -32 37l16 102q6 37 45 37zM717 1518q-115 0 -169 54t-38 144q2 27 31 27h67q29 0 29 -27q-2 -44 18 -65q21 -23 72 -23q97 0 125 88q6 27 33 27h67q26 0 25 -27q-40 -198 -260 -198z" />
    <glyph glyph-name="gbreve" unicode="&#x11f;" horiz-adv-x="860" 
d="M606 602q17 102 17 162q0 197 -125 197q-81 0 -134 -88q-52 -86 -85 -271q-19 -97 -19 -184q0 -170 113 -170q173 0 233 354zM874 1067l-167 -948q-30 -183 -133 -273q-101 -88 -283 -88q-165 0 -250 35q-33 15 -23 43l33 88q12 41 47 29q95 -31 187 -31q202 0 239 205
l17 106q-66 -141 -222 -141q-253 0 -253 299q0 105 20 211q46 262 140 390q93 128 243 128q77 0 134 -45t73 -106l16 102q8 33 47 33h109q32 0 26 -37zM578 1200q-114 0 -172 53t-41 144q6 26 32 26h68q15 0 20 -6q4 -5 2 -20q-2 -44 21 -65q22 -21 76 -21q97 0 121 86
q7 26 36 26h68q23 0 22 -26q-41 -197 -253 -197z" />
    <glyph glyph-name="Gdotaccent" unicode="&#x120;" horiz-adv-x="927" 
d="M561 844h303q37 0 31 -37l-125 -715q-6 -41 -47 -59q-89 -49 -242 -49q-197 0 -297 92q-98 91 -98 311q0 128 35 336q72 413 210 574t400 161q130 0 211 -28q37 -16 25 -50l-37 -98q-15 -44 -56 -27q-97 19 -145 19q-184 0 -265 -113q-80 -112 -136 -438
q-35 -199 -35 -311q0 -138 51 -192t166 -54q34 0 82 8l88 494h-148q-38 0 -32 37l16 102q6 37 45 37zM850 1663l-23 -104q-6 -35 -39 -35h-131q-36 0 -30 35l20 104q2 35 41 35h131q33 0 31 -35z" />
    <glyph glyph-name="gdotaccent" unicode="&#x121;" horiz-adv-x="860" 
d="M606 602q17 102 17 162q0 197 -125 197q-81 0 -134 -88q-52 -86 -85 -271q-19 -97 -19 -184q0 -170 113 -170q173 0 233 354zM874 1067l-167 -948q-30 -183 -133 -273q-101 -88 -283 -88q-165 0 -250 35q-33 15 -23 43l33 88q12 41 47 29q95 -31 187 -31q202 0 239 205
l17 106q-66 -141 -222 -141q-253 0 -253 299q0 105 20 211q46 262 140 390q93 128 243 128q77 0 134 -45t73 -106l16 102q8 33 47 33h109q32 0 26 -37zM686 1343l-16 -106q-8 -33 -41 -33h-131q-37 0 -31 33l16 106q8 35 43 35h131q35 0 29 -35z" />
    <glyph glyph-name="Gcommaaccent" unicode="&#x122;" horiz-adv-x="927" 
d="M561 844h303q37 0 31 -37l-125 -715q-6 -41 -47 -59q-89 -49 -242 -49q-197 0 -297 92q-98 91 -98 311q0 128 35 336q72 413 210 574t400 161q130 0 211 -28q37 -16 25 -50l-37 -98q-15 -44 -56 -27q-97 19 -145 19q-184 0 -265 -113q-80 -112 -136 -438
q-35 -199 -35 -311q0 -138 51 -192t166 -54q34 0 82 8l88 494h-148q-38 0 -32 37l16 102q6 37 45 37zM516 -285l-94 -161q-15 -27 -39 -27h-21q-25 0 -14 31l62 153h-45q-32 0 -31 37l22 123q6 35 41 35h125q37 0 29 -35l-19 -113q-6 -27 -16 -43z" />
    <glyph glyph-name="gcommaaccent" unicode="&#x123;" horiz-adv-x="860" 
d="M606 602q17 102 17 162q0 197 -125 197q-81 0 -134 -88q-52 -86 -85 -271q-19 -97 -19 -184q0 -170 113 -170q173 0 233 354zM874 1067l-167 -948q-30 -183 -133 -273q-101 -88 -283 -88q-165 0 -250 35q-33 15 -23 43l33 88q12 41 47 29q95 -31 187 -31q202 0 239 205
l17 106q-66 -141 -222 -141q-253 0 -253 299q0 105 20 211q46 262 140 390q93 128 243 128q77 0 134 -45t73 -106l16 102q8 33 47 33h109q32 0 26 -37zM676 1380l88 160q16 25 37 25h22q23 0 15 -31l-62 -148h41q37 0 31 -36l-21 -115q-6 -35 -41 -35h-116q-35 0 -29 35
l18 104q1 18 17 41z" />
    <glyph glyph-name="Hcircumflex" unicode="&#x124;" horiz-adv-x="968" 
d="M588 39l108 602h-362l-109 -602q-6 -39 -43 -39h-125q-40 0 -34 39l241 1364q6 37 45 37h125q39 0 33 -37l-100 -574h362l100 574q6 37 45 37h125q39 0 33 -37l-241 -1364q-6 -39 -41 -39h-127q-41 0 -35 39zM766 1546l-76 94l-108 -94q-29 -22 -50 -22h-88q-18 0 -19 12
q-2 13 13 25l170 165q28 23 49 23h91q33 0 45 -23l110 -165q11 -12 4 -25q-6 -12 -22 -12h-76q-17 0 -43 22z" />
    <glyph glyph-name="hcircumflex" unicode="&#x125;" horiz-adv-x="862" 
d="M829 780l-131 -743q-6 -37 -39 -37h-118q-37 0 -31 37l127 711q8 42 8 79q0 117 -104 117q-87 0 -145 -70q-56 -67 -77 -192l-114 -645q-6 -37 -41 -37h-117q-39 0 -33 37l244 1368q6 35 41 35h117q38 0 30 -35l-73 -422q95 137 239 137q110 0 169 -66q59 -67 59 -180
q0 -36 -11 -94zM717 1546l-76 94l-109 -94q-29 -22 -49 -22h-88q-17 0 -19 12q-2 13 13 25l170 165q28 23 49 23h90q33 0 45 -23l111 -165q10 -12 4 -25q-6 -12 -22 -12h-76q-17 0 -43 22z" />
    <glyph glyph-name="Hbar" unicode="&#x126;" horiz-adv-x="970" 
d="M588 39l108 602h-362l-109 -602q-6 -39 -43 -39h-125q-40 0 -34 39l188 1063h-49q-31 0 -29 31l10 47q5 30 37 30h51l33 193q6 37 45 37h125q39 0 33 -37l-35 -193h365l32 193q6 37 45 37h125q39 0 33 -37l-35 -193h50q36 0 30 -30l-10 -45q-5 -33 -39 -33h-49
l-188 -1063q-6 -39 -41 -39h-127q-41 0 -35 39zM367 829h362l47 273h-362z" />
    <glyph glyph-name="hbar" unicode="&#x127;" horiz-adv-x="862" 
d="M829 780l-131 -743q-6 -37 -39 -37h-118q-37 0 -31 37l127 711q8 42 8 79q0 117 -104 117q-87 0 -145 -70q-56 -67 -77 -192l-114 -645q-6 -37 -41 -37h-117q-39 0 -33 37l207 1167h-45q-30 0 -24 33l8 45q4 33 37 33h45l16 90q6 35 41 35h117q38 0 30 -35l-16 -90h178
q35 0 29 -33l-8 -45q-6 -33 -41 -33h-176l-39 -221q84 137 239 137q111 0 169 -64q59 -65 59 -179q0 -37 -11 -97z" />
    <glyph glyph-name="Itilde" unicode="&#x128;" horiz-adv-x="423" 
d="M35 39l241 1364q6 37 43 37h125q43 0 33 -37l-239 -1364q-6 -39 -43 -39h-127q-39 0 -33 39zM682 1657q-27 -137 -147 -137q-46 0 -129 32l-52 31q-35 18 -56 12q-23 -7 -31 -17q-10 -13 -11 -24l-2 -8q-1 -20 -37 -20h-49q-31 0 -21 43q6 58 44 99q37 40 102 40
q42 0 129 -35l47 -31q37 -20 59 -20q37 0 37 45l6 12q8 23 35 23h49q33 0 27 -45z" />
    <glyph glyph-name="itilde" unicode="&#x129;" horiz-adv-x="382" 
d="M391 1067l-182 -1030q-6 -37 -39 -37h-117q-39 0 -33 37l183 1030q6 37 43 37h119q32 0 26 -37zM598 1335q-21 -135 -133 -135q-74 0 -135 35l-47 31l-26 13q-13 5 -20 5h-16q-7 0 -11 -4q-3 -3 -9 -7q-4 -3 -7 -10q-1 -2 -2.5 -6t-2.5 -6q-2 -6 -3 -10l-2 -8v-8
q-8 -21 -34 -21h-48q-36 0 -26 43q21 139 137 139q60 0 131 -36l49 -29q34 -21 58 -21q32 0 38 50v8q6 24 37 24h49q34 0 23 -47z" />
    <glyph glyph-name="Imacron" unicode="&#x12a;" horiz-adv-x="423" 
d="M35 39l241 1364q6 37 43 37h125q43 0 33 -37l-239 -1364q-6 -39 -43 -39h-127q-39 0 -33 39zM612 1532h-430q-18 0 -23 8t-3 27l10 61q8 33 41 33h428q37 0 31 -33l-13 -61q-2 -35 -41 -35z" />
    <glyph glyph-name="imacron" unicode="&#x12b;" horiz-adv-x="382" 
d="M391 1067l-182 -1030q-6 -37 -39 -37h-117q-39 0 -33 37l183 1030q6 37 43 37h119q32 0 26 -37zM539 1212h-428q-35 0 -29 35l8 53q11 35 39 35h430q38 0 27 -35l-6 -53q-8 -35 -41 -35z" />
    <glyph glyph-name="Ibreve" unicode="&#x12c;" horiz-adv-x="423" 
d="M35 39l241 1364q6 37 43 37h125q43 0 33 -37l-239 -1364q-6 -39 -43 -39h-127q-39 0 -33 39zM406 1518q-115 0 -169 54t-38 144q1 27 30 27h68q29 0 29 -27q-2 -44 18 -65q21 -23 72 -23q97 0 125 88q6 27 32 27h68q27 0 25 -27q-40 -198 -260 -198z" />
    <glyph glyph-name="ibreve" unicode="&#x12d;" horiz-adv-x="382" 
d="M391 1067l-182 -1030q-6 -37 -39 -37h-117q-39 0 -33 37l183 1030q6 37 43 37h119q32 0 26 -37zM336 1200q-114 0 -172 53t-41 144q6 26 33 26h67q17 0 21 -6q4 -5 2 -20q-2 -45 20 -65q22 -21 76 -21q97 0 121 86q7 26 37 26h67q24 0 23 -26q-41 -197 -254 -197z" />
    <glyph glyph-name="Iogonek" unicode="&#x12e;" horiz-adv-x="423" 
d="M35 39l241 1364q6 37 43 37h125q43 0 33 -37l-239 -1364q-6 -39 -43 -39q-121 -73 -121 -156q0 -39 59 -39q18 0 34 2q3 0 9.5 1.5t9.5 1.5q17 0 15 -17v-59q-1 -20 -25 -31q-40 -18 -82 -18q-160 0 -160 118q0 114 160 197h-26q-39 0 -33 39z" />
    <glyph glyph-name="iogonek" unicode="&#x12f;" horiz-adv-x="382" 
d="M391 1067l-182 -1030q-6 -37 -39 -37h-8q-117 -72 -117 -143q0 -39 57 -39q22 0 30 1t20 1q18 0 16 -19l-2 -53q-2 -25 -23 -31q-38 -18 -82 -18q-62 0 -106 29q-43 28 -43 77q0 115 156 195h-17q-37 0 -31 37l183 1030q6 37 43 37h119q32 0 26 -37zM453 1397l-23 -133
q-7 -37 -39 -37h-129q-35 0 -29 37l25 133q6 35 39 35h127q37 0 29 -35z" />
    <glyph glyph-name="Idotaccent" unicode="&#x130;" horiz-adv-x="423" 
d="M35 39l241 1364q6 37 43 37h125q43 0 33 -37l-239 -1364q-6 -39 -43 -39h-127q-39 0 -33 39zM524 1663l-22 -104q-6 -35 -39 -35h-131q-37 0 -31 35l21 104q2 35 40 35h132q32 0 30 -35z" />
    <glyph glyph-name="dotlessi" unicode="&#x131;" horiz-adv-x="382" 
d="M391 1067l-182 -1030q-6 -37 -39 -37h-117q-39 0 -33 37l183 1030q6 37 43 37h119q32 0 26 -37z" />
    <glyph glyph-name="IJ" unicode="&#x132;" horiz-adv-x="1009" 
d="M35 39l241 1364q6 37 43 37h125q43 0 33 -37l-239 -1364q-6 -39 -43 -39h-127q-39 0 -33 39zM694 369l183 1034q6 37 43 37h127q36 0 30 -37l-186 -1059q-33 -191 -114 -274q-81 -82 -234 -82q-106 0 -152 14q-44 17 -29 51l37 101q12 34 43 28q56 -8 97 -8q63 0 98 39
t57 156z" />
    <glyph glyph-name="ij" unicode="&#x133;" horiz-adv-x="792" 
d="M391 1067l-182 -1030q-6 -37 -39 -37h-119q-37 0 -31 37l183 1030q6 37 43 37h119q32 0 26 -37zM453 1397l-23 -133q-7 -37 -39 -37h-129q-35 0 -29 37l25 133q6 35 39 35h127q37 0 29 -35zM467 266l143 801q6 37 43 37h119q34 0 27 -37l-146 -825q-27 -148 -75 -200
q-50 -54 -166 -54q-64 0 -93 8q-28 6 -22 37l12 96q6 37 39 33q16 -2 39 -2q35 0 53 21q20 23 27 85zM862 1397l-24 -133q-6 -37 -41 -37h-125q-38 0 -31 37l23 133q8 35 43 35h124q37 0 31 -35z" />
    <glyph glyph-name="Jcircumflex" unicode="&#x134;" horiz-adv-x="612" 
d="M297 369l182 1034q6 37 43 37h127q37 0 31 -37l-186 -1059q-33 -191 -114 -274q-81 -82 -235 -82q-105 0 -151 14q-44 17 -29 51l37 101q12 34 43 28q56 -8 96 -8q65 0 99 39t57 156zM582 1546l-76 94l-109 -94q-29 -22 -49 -22h-88q-18 0 -19 12q-2 13 13 25l170 165
q28 23 49 23h90q33 0 45 -23l111 -165q11 -12 4 -25q-6 -12 -23 -12h-75q-17 0 -43 22z" />
    <glyph glyph-name="jcircumflex" unicode="&#x135;" horiz-adv-x="411" 
d="M47 43l182 1024q6 37 41 37h119q33 0 27 -37l-185 -1049q-24 -143 -75 -197t-170 -54q-68 0 -84 6q-33 6 -27 37l12 98q6 33 39 33h39q36 0 53 20q19 22 29 82zM451 1225l-78 102l-111 -102q-27 -21 -47 -21h-88q-17 0 -18 11q-2 12 10 24l172 174q22 21 49 21h90
q30 0 45 -21l113 -174q8 -12 3 -24q-4 -11 -22 -11h-75q-22 0 -43 21z" />
    <glyph glyph-name="Kcommaaccent" unicode="&#x136;" horiz-adv-x="892" 
d="M371 872l395 537q25 31 55 31h183q20 0 25 -15q4 -14 -7 -30l-504 -633l270 -715q8 -18 -1 -33q-8 -14 -29 -14h-150q-26 0 -43 35l-223 643l-117 -639q-6 -39 -43 -39h-125q-40 0 -34 39l241 1364q6 37 45 37h125q39 0 33 -37zM432 -285l-94 -161q-15 -27 -39 -27h-20
q-26 0 -15 31l62 153h-45q-35 0 -31 37l22 123q6 35 41 35h125q37 0 29 -35l-18 -113q-6 -25 -17 -43z" />
    <glyph glyph-name="kcommaaccent" unicode="&#x137;" horiz-adv-x="776" 
d="M649 0h-139q-34 0 -51 31l-172 483l-82 -477q-6 -37 -41 -37h-117q-39 0 -33 37l244 1368q6 35 41 35h117q38 0 30 -35l-120 -682l295 358q23 23 57 23h164q14 0 20 -8t2 -20t-16 -19l-395 -447l227 -565q7 -16 0 -31q-7 -14 -31 -14zM362 -274l-88 -160q-17 -25 -36 -25
h-23q-22 0 -14 31l61 147h-41q-37 0 -31 37l21 115q6 35 41 35h117q34 0 28 -35l-18 -104q-1 -18 -17 -41z" />
    <glyph glyph-name="kgreenlandic" unicode="&#x138;" horiz-adv-x="772" 
d="M647 0h-141q-34 0 -51 31l-170 483l-84 -477q-6 -37 -41 -37h-117q-38 0 -31 37l183 1032q6 35 38 35h119q37 0 31 -35l-61 -346l294 358q23 23 58 23h164q14 0 20 -7t3 -19q-3 -10 -15 -21l-397 -447l227 -565q8 -16 1 -30q-7 -15 -30 -15z" />
    <glyph glyph-name="Lacute" unicode="&#x139;" horiz-adv-x="735" 
d="M465 1403l-213 -1215h334q38 0 32 -36l-20 -113q-6 -39 -43 -39h-500q-41 0 -35 39l242 1364q6 37 45 37h125q39 0 33 -37zM336 1552l96 162q21 29 49 29h158q18 0 19 -13q2 -14 -11 -26l-170 -158q-22 -22 -51 -22h-74q-32 0 -16 28z" />
    <glyph glyph-name="lacute" unicode="&#x13a;" horiz-adv-x="385" 
d="M451 1405l-242 -1368q-6 -37 -39 -37h-119q-37 0 -31 37l244 1368q6 35 39 35h119q37 0 29 -35zM319 1552l97 162q21 29 49 29h158q18 0 19 -13q2 -14 -11 -26l-170 -158q-22 -22 -51 -22h-74q-33 0 -17 28z" />
    <glyph glyph-name="Lcommaaccent" unicode="&#x13b;" horiz-adv-x="735" 
d="M467 1403l-213 -1215h334q39 0 33 -36l-21 -113q-6 -39 -43 -39h-500q-40 0 -34 39l241 1364q6 37 45 37h125q39 0 33 -37zM365 -285l-95 -161q-15 -27 -39 -27h-20q-25 0 -14 31l61 153h-45q-32 0 -31 37l23 123q6 35 41 35h125q36 0 28 -35l-18 -113q-6 -27 -16 -43z
" />
    <glyph glyph-name="lcommaaccent" unicode="&#x13c;" horiz-adv-x="385" 
d="M451 1405l-242 -1368q-6 -37 -39 -37h-119q-37 0 -31 37l244 1368q6 35 39 35h119q37 0 29 -35zM143 -274l-88 -160q-17 -25 -37 -25h-22q-22 0 -14 31l61 147h-41q-37 0 -31 37l21 115q6 35 41 35h117q34 0 28 -35l-18 -104q-1 -18 -17 -41z" />
    <glyph glyph-name="Lcaron" unicode="&#x13d;" horiz-adv-x="739" 
d="M467 1403l-213 -1215h334q39 0 33 -36l-21 -113q-6 -39 -43 -39h-500q-40 0 -34 39l241 1364q6 37 45 37h125q39 0 33 -37zM770 1233l-104 -189q-10 -26 -37 -26h-45q-29 0 -17 33l90 178h-43q-36 0 -30 39l28 159q6 37 43 37h127q37 0 31 -37l-25 -149q-5 -27 -18 -45z
" />
    <glyph glyph-name="lcaron" unicode="&#x13e;" horiz-adv-x="573" 
d="M451 1405l-242 -1368q-6 -37 -39 -37h-119q-37 0 -31 37l244 1368q6 35 39 35h119q37 0 29 -35zM698 1233l-104 -189q-10 -26 -37 -26h-45q-28 0 -16 33l90 178h-43q-37 0 -31 39l29 159q6 37 43 37h127q36 0 30 -37l-24 -149q-5 -25 -19 -45z" />
    <glyph glyph-name="Ldot" unicode="&#x13f;" horiz-adv-x="761" 
d="M467 1403l-213 -1215h334q39 0 33 -36l-21 -113q-6 -39 -43 -39h-500q-40 0 -34 39l241 1364q6 37 45 37h125q39 0 33 -37zM528 584l31 161q6 37 43 37h127q37 0 31 -37l-31 -161q-6 -37 -39 -37h-131q-37 0 -31 37z" />
    <glyph glyph-name="ldot" unicode="&#x140;" horiz-adv-x="579" 
d="M451 1405l-242 -1368q-6 -37 -39 -37h-119q-37 0 -31 37l244 1368q6 35 39 35h119q37 0 29 -35zM375 479l31 162q6 37 43 37h126q37 0 31 -37l-31 -162q-6 -37 -38 -37h-131q-37 0 -31 37z" />
    <glyph glyph-name="Lslash" unicode="&#x141;" horiz-adv-x="741" 
d="M471 1403l-94 -553l166 88q35 16 45 -12l14 -37q12 -30 -18 -45l-230 -123l-96 -533h336q39 0 33 -36l-23 -113q-6 -39 -43 -39h-498q-40 0 -34 39l100 565l-37 -18q-35 -17 -45 10l-14 39q-15 27 18 45l101 51l116 672q10 37 45 37h125q39 0 33 -37z" />
    <glyph glyph-name="lslash" unicode="&#x142;" horiz-adv-x="395" 
d="M457 1405l-101 -563l33 16q30 18 41 -12l16 -39q15 -26 -20 -43l-90 -51l-121 -676q-10 -37 -39 -37h-119q-36 0 -30 37l100 565l-31 -16q-32 -15 -47 14l-12 39q-12 27 20 45l93 47l118 674q6 35 39 35h119q37 0 31 -35z" />
    <glyph glyph-name="Nacute" unicode="&#x143;" horiz-adv-x="989" 
d="M1055 1403l-244 -1364q-6 -39 -43 -39h-113q-37 0 -43 33l-215 1011l-176 -1005q-7 -39 -43 -39h-121q-40 0 -34 39l241 1364q6 37 45 37h111q39 0 47 -31l211 -1014l176 1008q10 37 45 37h121q36 0 35 -37zM616 1552l97 162q21 29 49 29h158q18 0 19 -13q1 -14 -11 -26
l-170 -158q-22 -22 -51 -22h-74q-33 0 -17 28z" />
    <glyph glyph-name="nacute" unicode="&#x144;" horiz-adv-x="851" 
d="M821 780l-133 -743q-6 -37 -39 -37h-119q-36 0 -30 37l125 711q8 43 8 83q0 113 -101 113q-85 0 -143 -70t-76 -192l-116 -645q-6 -37 -41 -37h-117q-39 0 -29 37l180 1030q10 37 43 37h113q35 0 29 -33l-13 -92q92 141 242 141q110 0 169 -66q58 -65 58 -180
q0 -41 -10 -94zM496 1233l98 162q17 26 43 26h158q18 0 21 -13q3 -15 -11 -26l-168 -157q-23 -21 -49 -21h-76q-31 0 -16 29z" />
    <glyph glyph-name="Ncommaaccent" unicode="&#x145;" horiz-adv-x="989" 
d="M1055 1403l-244 -1364q-6 -39 -43 -39h-113q-37 0 -43 33l-215 1011l-176 -1005q-7 -39 -43 -39h-121q-40 0 -34 39l241 1364q6 37 45 37h111q39 0 47 -31l211 -1014l176 1008q10 37 45 37h121q36 0 35 -37zM446 -285l-94 -161q-15 -27 -39 -27h-20q-25 0 -14 31l61 153
h-45q-32 0 -31 37l23 123q6 35 41 35h125q36 0 28 -35l-18 -113q-6 -25 -17 -43z" />
    <glyph glyph-name="ncommaaccent" unicode="&#x146;" horiz-adv-x="851" 
d="M821 780l-133 -743q-6 -37 -39 -37h-119q-36 0 -30 37l125 711q8 43 8 83q0 113 -101 113q-85 0 -143 -70t-76 -192l-116 -645q-6 -37 -41 -37h-117q-39 0 -29 37l180 1030q10 37 43 37h113q35 0 29 -33l-13 -92q92 141 242 141q110 0 169 -66q58 -65 58 -180
q0 -41 -10 -94zM377 -274l-88 -160q-16 -25 -37 -25h-23q-22 0 -14 31l61 147h-40q-37 0 -31 37l20 115q6 35 41 35h117q35 0 29 -35l-19 -104q-2 -19 -16 -41z" />
    <glyph glyph-name="Ncaron" unicode="&#x147;" horiz-adv-x="989" 
d="M1055 1403l-244 -1364q-6 -39 -43 -39h-113q-37 0 -43 33l-215 1011l-176 -1005q-7 -39 -43 -39h-121q-40 0 -34 39l241 1364q6 37 45 37h111q39 0 47 -31l211 -1014l176 1008q10 37 45 37h121q36 0 35 -37zM692 1630l103 94q31 25 47 25h88q15 0 20 -12q5 -13 -10 -23
l-168 -170q-23 -20 -51 -20h-92q-27 0 -41 20l-113 170q-8 11 -2 23t23 12h75q25 0 43 -23z" />
    <glyph glyph-name="ncaron" unicode="&#x148;" horiz-adv-x="851" 
d="M821 780l-133 -743q-6 -37 -39 -37h-119q-36 0 -30 37l125 711q8 43 8 83q0 113 -101 113q-85 0 -143 -70t-76 -192l-116 -645q-6 -37 -41 -37h-117q-39 0 -29 37l180 1030q10 37 43 37h113q35 0 29 -33l-13 -92q92 141 242 141q110 0 169 -66q58 -65 58 -180
q0 -41 -10 -94zM569 1311l111 102q27 21 47 21h90q17 0 19 -12q1 -11 -13 -23l-172 -174q-21 -21 -49 -21h-92q-28 0 -43 21l-113 174q-7 10 -3 22q5 13 22 13h78q24 0 41 -21z" />
    <glyph glyph-name="napostrophe" unicode="&#x149;" horiz-adv-x="1034" 
d="M1004 780l-134 -743q-6 -37 -39 -37h-118q-37 0 -31 37l125 711q8 43 8 83q0 113 -100 113q-86 0 -144 -70q-57 -69 -75 -192l-117 -645q-6 -37 -41 -37h-117q-35 0 -28 37l180 1030q7 37 43 37h112q35 0 29 -33l-12 -92q91 141 241 141q110 0 169 -66q59 -67 59 -180
q0 -41 -10 -94zM332 1260l-105 -189q-11 -27 -37 -27h-45q-28 0 -16 33l90 178h-43q-37 0 -31 39l29 160q6 37 43 37h127q37 0 31 -37l-25 -149q-5 -27 -18 -45z" />
    <glyph glyph-name="Eng" unicode="&#x14a;" horiz-adv-x="989" 
d="M1053 1403l-234 -1327q-29 -171 -94 -242q-66 -72 -188 -72q-56 0 -146 19q-37 10 -26 39l32 92q12 38 49 31q44 -15 76 -15q38 0 57 19q16 16 27 73l-209 1024l-176 -1005q-7 -39 -43 -39h-121q-40 0 -34 39l241 1364q6 37 45 37h119q34 0 45 -31l205 -1014l176 1008
q10 37 45 37h121q39 0 33 -37z" />
    <glyph glyph-name="eng" unicode="&#x14b;" horiz-adv-x="851" 
d="M500 41l127 707q8 66 8 79q0 117 -103 117q-86 0 -143 -71q-58 -72 -76 -193l-116 -643q-6 -37 -41 -37h-117q-39 0 -29 37l180 1030q10 37 43 37h115q35 0 29 -33l-15 -92q39 57 105 99t151 42q108 0 160 -61q53 -62 53 -172q0 -48 -10 -107l-135 -768
q-24 -134 -77 -190q-52 -55 -165 -55q-44 0 -84 8q-30 8 -24 37l12 96q2 38 37 33q20 -2 37 -2q33 0 51 21q20 23 27 81z" />
    <glyph glyph-name="Omacron" unicode="&#x14c;" horiz-adv-x="1003" 
d="M659 1458q171 0 259 -94t88 -309q0 -131 -35 -336q-72 -411 -197 -574q-124 -161 -340 -161q-170 0 -260 93t-90 310q0 127 35 332q74 412 199 575q126 164 341 164zM446 164q118 0 190 121q74 124 130 434q35 208 35 319q0 132 -39 186t-119 54q-117 0 -189 -122
q-73 -122 -128 -437q-35 -208 -35 -318q0 -131 39 -184t116 -53zM903 1532h-430q-18 0 -23 8q-5 9 -4 27l11 61q7 33 41 33h428q36 0 30 -33l-12 -61q-2 -35 -41 -35z" />
    <glyph glyph-name="omacron" unicode="&#x14d;" horiz-adv-x="851" 
d="M356 -16q183 0 288 136q106 138 161 431q22 125 22 233q0 336 -301 336q-184 0 -289 -136q-107 -139 -159 -433q-25 -141 -25 -236q0 -331 303 -331zM371 150q-123 0 -123 182q0 68 24 219q38 214 94 310q54 93 144 93q125 0 125 -184q0 -61 -25 -219q-39 -216 -94 -308
q-56 -93 -145 -93zM772 1212h-428q-35 0 -29 35l9 53q11 35 38 35h431q37 0 26 -35l-6 -53q-8 -35 -41 -35z" />
    <glyph glyph-name="Obreve" unicode="&#x14e;" horiz-adv-x="1003" 
d="M659 1458q171 0 259 -94t88 -309q0 -131 -35 -336q-72 -411 -197 -574q-124 -161 -340 -161q-170 0 -260 93t-90 310q0 127 35 332q74 412 199 575q126 164 341 164zM446 164q118 0 190 121q74 124 130 434q35 208 35 319q0 132 -39 186t-119 54q-117 0 -189 -122
q-73 -122 -128 -437q-35 -208 -35 -318q0 -131 39 -184t116 -53zM696 1518q-115 0 -169 54t-38 144q1 27 31 27h68q28 0 28 -27q-1 -43 19 -65q21 -23 72 -23q96 0 124 88q6 27 33 27h68q26 0 24 -27q-40 -198 -260 -198z" />
    <glyph glyph-name="obreve" unicode="&#x14f;" horiz-adv-x="851" 
d="M356 -16q-303 0 -303 331q0 95 25 236q52 294 159 433q105 136 289 136q301 0 301 -336q0 -108 -22 -233q-55 -293 -161 -431q-105 -136 -288 -136zM371 150q89 0 145 93q55 92 94 308q25 158 25 219q0 184 -125 184q-90 0 -144 -93q-56 -96 -94 -310q-24 -151 -24 -219
q0 -182 123 -182zM569 1200q-114 0 -172 53t-41 144q6 26 33 26h68q15 0 20 -6q4 -5 2 -20q-2 -44 21 -65q22 -21 75 -21q97 0 121 86q7 26 37 26h68q23 0 22 -26q-41 -197 -254 -197z" />
    <glyph glyph-name="Ohungarumlaut" unicode="&#x150;" horiz-adv-x="1003" 
d="M659 1458q171 0 259 -94t88 -309q0 -131 -35 -336q-72 -411 -197 -574q-124 -161 -340 -161q-170 0 -260 93t-90 310q0 127 35 332q74 412 199 575q126 164 341 164zM446 164q118 0 190 121q74 124 130 434q35 208 35 319q0 132 -39 186t-119 54q-117 0 -189 -122
q-73 -122 -128 -437q-35 -208 -35 -318q0 -131 39 -184t116 -53zM500 1552l94 164q18 29 49 29h129q19 0 19 -14t-13 -27l-145 -158q-18 -22 -49 -22h-70q-30 0 -14 28zM772 1552l96 164q17 29 47 29h127q13 0 19 -7t4 -17q-1 -8 -10 -17l-146 -158q-21 -22 -53 -22h-68
q-31 0 -16 28z" />
    <glyph glyph-name="ohungarumlaut" unicode="&#x151;" horiz-adv-x="851" 
d="M356 -16q183 0 288 136q106 138 161 431q22 125 22 233q0 336 -301 336q-184 0 -289 -136q-107 -139 -159 -433q-25 -141 -25 -236q0 -331 303 -331zM371 150q-123 0 -123 182q0 68 24 219q38 214 94 310q54 93 144 93q125 0 125 -184q0 -61 -25 -219q-39 -216 -94 -308
q-56 -93 -145 -93zM360 1233l95 162q14 26 45 26h123q18 0 21 -12t-9 -27l-143 -157q-18 -21 -50 -21h-65q-35 0 -17 29zM629 1233l94 162q17 26 43 26h125q18 0 21 -13q3 -14 -9 -26l-143 -157q-18 -21 -51 -21h-64q-31 0 -16 29z" />
    <glyph glyph-name="OE" unicode="&#x152;" horiz-adv-x="1337" 
d="M1237 647h-356l-80 -461h377q38 0 32 -36l-22 -111q-5 -25 -12 -32t-31 -7h-656q-201 0 -301 101t-100 335q0 129 29 283q69 401 209 561t389 160h676q38 0 32 -37l-20 -113q-6 -39 -45 -39h-371l-74 -426h355q40 0 30 -39l-18 -102q-6 -37 -43 -37zM788 1253h-92
q-145 0 -233 -115t-141 -419q-29 -162 -29 -258q0 -152 52 -214q53 -63 161 -63h96z" />
    <glyph glyph-name="oe" unicode="&#x153;" horiz-adv-x="1294" 
d="M934 145q68 0 151 25q18 6 32 0q13 -6 11 -25l7 -86q-1 -37 -35 -43q-99 -32 -189 -32q-227 0 -290 155q-107 -155 -273 -155q-295 0 -295 333q0 95 25 234q52 295 155 432q102 137 277 137q189 0 240 -149q106 149 262 149q129 0 196 -76q68 -77 68 -210q0 -95 -21 -203
l-18 -111q-4 -22 -13 -28q-10 -7 -32 -7h-434q-13 -120 -13 -133q0 -100 50 -153q51 -54 139 -54zM358 150q84 0 137 93q52 93 93 308q24 135 24 223q0 180 -114 180q-85 0 -136 -94t-90 -309q-24 -153 -24 -223q0 -178 110 -178zM999 963q-75 0 -128 -80q-51 -77 -89 -250
h293v10q23 133 23 186q0 64 -22 100q-21 34 -77 34z" />
    <glyph glyph-name="Racute" unicode="&#x154;" horiz-adv-x="917" 
d="M340 676h117q126 0 183 61q56 61 85 226q14 69 14 135q0 88 -43 122q-42 33 -147 33h-109zM309 1440h258q196 0 289 -73q92 -72 92 -237q0 -80 -18 -172q-34 -202 -110 -305t-202 -133l134 -473q6 -19 -1 -33t-30 -14h-129q-36 0 -47 31l-125 463h-113l-82 -455
q-6 -39 -43 -39h-125q-40 0 -34 39l241 1364q6 37 45 37zM567 1552l97 162q21 29 49 29h157q19 0 20 -13q2 -14 -11 -26l-170 -158q-22 -22 -52 -22h-73q-33 0 -17 28z" />
    <glyph glyph-name="racute" unicode="&#x155;" horiz-adv-x="569" 
d="M238 1104h114q35 0 29 -35l-19 -117q29 70 97 118q65 46 147 46q24 0 32 -8t3 -29l-25 -145q-8 -33 -36 -33q-1 0 -25 2t-33 2q-78 0 -138 -81q-61 -82 -83 -218l-100 -569q-6 -37 -41 -37h-117q-39 0 -33 37l183 1030q6 37 45 37zM332 1233l98 162q17 26 43 26h158
q18 0 21 -13q3 -15 -11 -26l-168 -157q-23 -21 -49 -21h-76q-31 0 -16 29z" />
    <glyph glyph-name="Rcommaaccent" unicode="&#x156;" horiz-adv-x="917" 
d="M340 676h117q126 0 183 61q56 61 85 226q14 69 14 135q0 88 -43 122q-42 33 -147 33h-109zM309 1440h258q196 0 289 -73q92 -72 92 -237q0 -80 -18 -172q-34 -202 -110 -305t-202 -133l134 -473q6 -19 -1 -33t-30 -14h-129q-36 0 -47 31l-125 463h-113l-82 -455
q-6 -39 -43 -39h-125q-40 0 -34 39l241 1364q6 37 45 37zM430 -285l-94 -161q-15 -27 -39 -27h-21q-25 0 -14 31l62 153h-45q-32 0 -31 37l22 123q6 35 41 35h125q37 0 29 -35l-19 -113q-6 -27 -16 -43z" />
    <glyph glyph-name="rcommaaccent" unicode="&#x157;" horiz-adv-x="569" 
d="M238 1104h114q35 0 29 -35l-19 -117q29 70 97 118q65 46 147 46q24 0 32 -8t3 -29l-25 -145q-8 -33 -36 -33q-1 0 -25 2t-33 2q-78 0 -138 -81q-61 -82 -83 -218l-100 -569q-6 -37 -41 -37h-117q-39 0 -33 37l183 1030q6 37 45 37zM137 -274l-88 -160q-16 -25 -37 -25
h-22q-23 0 -15 31l62 147h-41q-37 0 -31 37l21 115q6 35 41 35h116q35 0 29 -35l-18 -104q-1 -18 -17 -41z" />
    <glyph glyph-name="Rcaron" unicode="&#x158;" horiz-adv-x="917" 
d="M340 676h117q126 0 183 61q56 61 85 226q14 69 14 135q0 88 -43 122q-42 33 -147 33h-109zM309 1440h258q196 0 289 -73q92 -72 92 -237q0 -80 -18 -172q-34 -202 -110 -305t-202 -133l134 -473q6 -19 -1 -33t-30 -14h-129q-36 0 -47 31l-125 463h-113l-82 -455
q-6 -39 -43 -39h-125q-40 0 -34 39l241 1364q6 37 45 37zM662 1630l102 94q31 25 47 25h88q17 0 21 -12q5 -12 -11 -23l-168 -170q-23 -20 -51 -20h-92q-27 0 -41 20l-113 170q-8 11 -2 23t23 12h76q25 0 43 -23z" />
    <glyph glyph-name="rcaron" unicode="&#x159;" horiz-adv-x="569" 
d="M238 1104h114q35 0 29 -35l-19 -117q29 70 97 118q65 46 147 46q24 0 32 -8t3 -29l-25 -145q-8 -33 -36 -33q-1 0 -25 2t-33 2q-78 0 -138 -81q-61 -82 -83 -218l-100 -569q-6 -37 -41 -37h-117q-39 0 -33 37l183 1030q6 37 45 37zM444 1311l111 102q27 21 47 21h90
q18 0 19 -12q1 -11 -13 -23l-172 -174q-21 -21 -49 -21h-92q-28 0 -43 21l-113 174q-7 10 -3 22q5 13 22 13h78q24 0 41 -21z" />
    <glyph glyph-name="Sacute" unicode="&#x15a;" horiz-adv-x="784" 
d="M707 428q0 -204 -116 -325q-115 -119 -333 -119q-169 0 -240 26q-42 14 -30 47l39 103q15 43 53 28q88 -24 176 -24q111 0 177 63q67 64 67 176q0 121 -133 248q-197 159 -197 369q0 200 108 319t318 119q140 0 213 -24q41 -17 29 -48l-39 -100q-15 -43 -54 -26
q-64 16 -151 16q-217 0 -217 -227q0 -105 135 -240q195 -174 195 -381zM516 1552l96 162q23 29 50 29h157q19 0 20 -13t-12 -26l-170 -158q-22 -22 -51 -22h-74q-32 0 -16 28z" />
    <glyph glyph-name="sacute" unicode="&#x15b;" horiz-adv-x="667" 
d="M596 354q0 -172 -99 -271t-278 -99q-148 0 -225 26q-38 11 -27 41l35 94q10 39 43 27q77 -25 168 -25q76 0 135 51q58 50 58 136q0 48 -30 82q-31 36 -108 92q-162 114 -162 262q0 161 97 256q95 94 268 94q123 0 193 -22q35 -11 24 -41l-33 -90q-10 -37 -43 -27
q-70 16 -129 16q-77 0 -132 -41q-54 -41 -54 -120q0 -26 15 -50q14 -23 35 -42q1 0 61 -52q6 -5 13 -11t9 -7q88 -67 127 -129t39 -150zM387 1233l98 162q17 26 43 26h158q19 0 22 -13q3 -14 -12 -26l-168 -157q-23 -21 -49 -21h-76q-31 0 -16 29z" />
    <glyph glyph-name="Scircumflex" unicode="&#x15c;" horiz-adv-x="784" 
d="M707 428q0 -204 -116 -325q-115 -119 -333 -119q-169 0 -240 26q-42 14 -30 47l39 103q15 43 53 28q88 -24 176 -24q111 0 177 63q67 64 67 176q0 121 -133 248q-197 159 -197 369q0 200 108 319t318 119q140 0 213 -24q41 -17 29 -48l-39 -100q-15 -43 -54 -26
q-64 16 -151 16q-217 0 -217 -227q0 -105 135 -240q195 -174 195 -381zM680 1546l-76 94l-108 -94q-29 -22 -50 -22h-88q-18 0 -19 12q-2 13 13 25l170 165q28 23 49 23h91q33 0 45 -23l110 -165q11 -12 4 -25q-6 -12 -22 -12h-76q-17 0 -43 22z" />
    <glyph glyph-name="scircumflex" unicode="&#x15d;" horiz-adv-x="667" 
d="M596 354q0 -172 -99 -271t-278 -99q-148 0 -225 26q-38 11 -27 41l35 94q10 39 43 27q77 -25 168 -25q76 0 135 51q58 50 58 136q0 48 -30 82q-31 36 -108 92q-162 114 -162 262q0 161 97 256q95 94 268 94q123 0 193 -22q35 -11 24 -41l-33 -90q-10 -37 -43 -27
q-70 16 -129 16q-77 0 -132 -41q-54 -41 -54 -120q0 -26 15 -50q14 -23 35 -42q1 0 61 -52q6 -5 13 -11t9 -7q88 -67 127 -129t39 -150zM567 1225l-78 102l-110 -102q-27 -21 -47 -21h-88q-18 0 -19 11q-1 12 11 24l172 174q22 21 49 21h90q30 0 45 -21l113 -174
q7 -12 3 -24q-4 -11 -22 -11h-76q-22 0 -43 21z" />
    <glyph glyph-name="Scedilla" unicode="&#x15e;" horiz-adv-x="784" 
d="M707 428q0 -180 -92 -296t-261 -140q90 -60 90 -144q0 -79 -52 -121t-138 -42q-58 0 -82 12q-21 7 -16 29l10 57q6 20 24 20h56q76 0 76 70q0 58 -64 111q-169 0 -240 26q-42 14 -30 47l39 103q15 43 53 28q88 -24 176 -24q111 0 177 63q67 64 67 176q0 121 -133 248
q-197 159 -197 369q0 200 108 319t318 119q140 0 213 -24q41 -17 29 -48l-39 -100q-15 -43 -54 -26q-64 16 -151 16q-217 0 -217 -227q0 -105 135 -240q195 -174 195 -381z" />
    <glyph glyph-name="scedilla" unicode="&#x15f;" horiz-adv-x="667" 
d="M596 354q0 -155 -84 -254q-82 -97 -236 -112q84 -56 84 -133q0 -74 -46 -114t-124 -40q-66 0 -92 8q-19 8 -14 29l8 55q4 21 25 21h51q72 0 72 71q0 49 -60 101q-128 5 -186 24q-38 11 -27 41l35 94q10 39 43 27q77 -25 168 -25q76 0 135 51q58 50 58 136q0 48 -30 82
q-31 36 -108 92q-162 114 -162 262q0 161 97 256q95 94 268 94q123 0 193 -22q35 -11 24 -41l-33 -90q-10 -37 -43 -27q-70 16 -129 16q-77 0 -132 -41q-54 -41 -54 -120q0 -26 15 -50q14 -23 35 -42q1 0 61 -52q6 -5 13 -11t9 -7q88 -67 127 -129t39 -150z" />
    <glyph glyph-name="Scaron" unicode="&#x160;" horiz-adv-x="784" 
d="M707 428q0 -204 -116 -325q-115 -119 -333 -119q-169 0 -240 26q-42 14 -30 47l39 103q15 43 53 28q88 -24 176 -24q111 0 177 63q67 64 67 176q0 121 -133 248q-197 159 -197 369q0 200 108 319t318 119q140 0 213 -24q41 -17 29 -48l-39 -100q-15 -43 -54 -26
q-64 16 -151 16q-217 0 -217 -227q0 -105 135 -240q195 -174 195 -381zM604 1630l103 94q31 25 47 25h88q16 0 20 -12q5 -13 -10 -23l-168 -170q-23 -20 -51 -20h-92q-27 0 -41 20l-113 170q-8 11 -2 23t23 12h75q25 0 43 -23z" />
    <glyph glyph-name="scaron" unicode="&#x161;" horiz-adv-x="667" 
d="M596 354q0 -172 -99 -271t-278 -99q-148 0 -225 26q-38 11 -27 41l35 94q10 39 43 27q77 -25 168 -25q76 0 135 51q58 50 58 136q0 48 -30 82q-31 36 -108 92q-162 114 -162 262q0 161 97 256q95 94 268 94q123 0 193 -22q35 -11 24 -41l-33 -90q-10 -37 -43 -27
q-70 16 -129 16q-77 0 -132 -41q-54 -41 -54 -120q0 -26 15 -50q14 -23 35 -42q1 0 61 -52q6 -5 13 -11t9 -7q88 -67 127 -129t39 -150zM477 1311l111 102q27 21 47 21h90q17 0 18 -12q2 -12 -12 -23l-172 -174q-21 -21 -49 -21h-92q-28 0 -43 21l-113 174q-7 10 -3 22
q5 13 22 13h77q24 0 41 -21z" />
    <glyph glyph-name="Tcommaaccent" unicode="&#x162;" horiz-adv-x="759" 
d="M186 1290l19 113q6 37 45 37h600q39 0 33 -37l-21 -113q-6 -39 -45 -39h-199l-215 -1212q-6 -39 -43 -39h-124q-40 0 -33 39l213 1212h-197q-39 0 -33 39zM332 -285l-94 -161q-15 -27 -39 -27h-21q-25 0 -14 31l61 153h-45q-31 0 -30 37l22 123q6 35 41 35h125
q37 0 29 -35l-19 -113q-6 -27 -16 -43z" />
    <glyph glyph-name="tcommaaccent" unicode="&#x163;" horiz-adv-x="552" 
d="M547 922h-137l-109 -611q-8 -46 -8 -80q0 -40 17 -54q18 -15 61 -15q9 0 21 3t20 3q14 1 20 -6t4 -27l-2 -92q-2 -29 -35 -41q-29 -12 -80 -12q-111 0 -163 42q-54 43 -54 144q0 39 13 111l110 635h-78q-36 0 -30 34l18 101q6 37 43 37h82l37 225q6 35 43 35h111
q34 0 28 -35l-37 -225h138q32 0 26 -37l-16 -101q-6 -34 -43 -34zM285 -274l-88 -160q-16 -25 -37 -25h-23q-22 0 -14 31l61 147h-41q-36 0 -30 37l20 115q6 35 41 35h117q34 0 28 -35l-18 -104q-2 -19 -16 -41z" />
    <glyph glyph-name="Tcaron" unicode="&#x164;" horiz-adv-x="759" 
d="M186 1290l19 113q6 37 45 37h600q39 0 33 -37l-21 -113q-6 -39 -45 -39h-199l-215 -1212q-6 -39 -43 -39h-124q-40 0 -33 39l213 1212h-197q-39 0 -33 39zM578 1630l102 94q31 25 47 25h88q17 0 21 -12q5 -12 -11 -23l-168 -170q-23 -20 -51 -20h-92q-27 0 -41 20
l-113 170q-8 11 -2 23t23 12h76q25 0 43 -23z" />
    <glyph glyph-name="tcaron" unicode="&#x165;" horiz-adv-x="772" 
d="M547 922h-137l-109 -611q-8 -46 -8 -80q0 -40 17 -54q18 -15 61 -15q9 0 21 3t20 3q14 1 20 -6t4 -27l-2 -92q-2 -29 -35 -41q-29 -12 -80 -12q-111 0 -163 42q-54 43 -54 144q0 39 13 111l110 635h-78q-36 0 -30 34l18 101q6 37 43 37h82l37 225q6 35 43 35h111
q34 0 28 -35l-37 -225h138q32 0 26 -37l-16 -101q-6 -34 -43 -34zM901 1257l-104 -188q-11 -27 -37 -27h-45q-29 0 -17 33l90 178h-43q-36 0 -30 39l28 160q6 37 43 37h127q37 0 31 -37l-24 -149q-5 -26 -19 -46z" />
    <glyph glyph-name="Tbar" unicode="&#x166;" horiz-adv-x="759" 
d="M186 1290l19 113q6 37 45 37h600q39 0 33 -37l-21 -113q-6 -39 -45 -39h-199l-86 -491h115q37 0 29 -31l-8 -51q-5 -35 -39 -35h-117l-109 -604q-6 -39 -43 -39h-124q-40 0 -33 39l106 604h-116q-33 0 -27 35l8 51q8 31 39 31h117l86 491h-197q-39 0 -33 39z" />
    <glyph glyph-name="tbar" unicode="&#x167;" horiz-adv-x="552" 
d="M547 922h-137l-58 -320h131q31 0 29 -35l-8 -47q-7 -33 -41 -33h-131l-31 -176q-8 -46 -8 -80q0 -40 17 -54q18 -15 61 -15q9 0 21 3t20 3q14 1 20 -6t4 -27l-2 -92q-2 -29 -35 -41q-29 -12 -84 -12q-107 0 -160 42t-53 142q0 44 13 115l32 198h-77q-35 0 -29 33l10 47
q2 35 37 35h80l57 320h-78q-36 0 -30 34l18 101q6 37 43 37h82l37 225q6 35 43 35h111q34 0 28 -35l-37 -225h138q32 0 26 -37l-16 -101q-6 -34 -43 -34z" />
    <glyph glyph-name="Utilde" unicode="&#x168;" horiz-adv-x="950" 
d="M408 -16q-168 0 -252 72t-84 231q0 61 12 135l174 981q6 37 45 37h125q39 0 33 -37l-170 -961q-12 -74 -12 -127q0 -80 32 -113q33 -34 111 -34q101 0 150 61q50 62 77 213l168 961q6 37 43 37h127q37 0 31 -37l-174 -981q-40 -233 -142 -336q-100 -102 -294 -102z
M946 1657q-27 -137 -147 -137q-46 0 -129 32l-52 31q-35 18 -56 12q-23 -7 -31 -17q-10 -13 -11 -24l-2 -8q-1 -20 -37 -20h-49q-30 0 -20 43q6 58 44 99q37 40 101 40q42 0 129 -35l47 -31q37 -20 60 -20q36 0 36 45l7 12q8 23 34 23h50q32 0 26 -45z" />
    <glyph glyph-name="utilde" unicode="&#x169;" horiz-adv-x="845" 
d="M55 322l133 745q6 37 43 37h117q37 0 27 -37l-125 -709q-8 -61 -8 -79q0 -121 104 -121q80 0 134 69q55 71 79 191l113 649q6 37 45 37h117q32 0 26 -37l-182 -1030q-6 -37 -39 -37h-113q-20 0 -28 8t-6 25l14 90q-79 -139 -225 -139q-116 0 -175 65t-59 182q0 45 8 91z
M827 1335q-21 -135 -133 -135q-74 0 -135 35l-47 31l-26 13q-13 5 -20 5h-15q-8 0 -12 -4q-3 -3 -9 -7q-4 -3 -7 -10l-4 -12q-2 -6 -3 -10l-2 -8v-8q-8 -21 -35 -21h-47q-37 0 -27 43q21 139 137 139q60 0 131 -36l50 -29q35 -21 57 -21q33 0 39 50v8q6 24 37 24h49
q33 0 22 -47z" />
    <glyph glyph-name="Umacron" unicode="&#x16a;" horiz-adv-x="950" 
d="M408 -16q-168 0 -252 72t-84 231q0 61 12 135l174 981q6 37 45 37h125q39 0 33 -37l-170 -961q-12 -74 -12 -127q0 -80 32 -113q33 -34 111 -34q101 0 150 61q50 62 77 213l168 961q6 37 43 37h127q37 0 31 -37l-174 -981q-40 -233 -142 -336q-100 -102 -294 -102z
M877 1532h-431q-18 0 -23 8t-3 27l10 61q8 33 41 33h428q37 0 31 -33l-12 -61q-2 -35 -41 -35z" />
    <glyph glyph-name="umacron" unicode="&#x16b;" horiz-adv-x="845" 
d="M55 322l133 745q6 37 43 37h117q37 0 27 -37l-125 -709q-8 -61 -8 -79q0 -121 104 -121q80 0 134 69q55 71 79 191l113 649q6 37 45 37h117q32 0 26 -37l-182 -1030q-6 -37 -39 -37h-113q-20 0 -28 8t-6 25l14 90q-79 -139 -225 -139q-116 0 -175 65t-59 182q0 45 8 91z
M768 1212h-428q-35 0 -29 35l8 53q11 35 39 35h430q38 0 27 -35l-6 -53q-8 -35 -41 -35z" />
    <glyph glyph-name="Ubreve" unicode="&#x16c;" horiz-adv-x="950" 
d="M408 -16q-168 0 -252 72t-84 231q0 61 12 135l174 981q6 37 45 37h125q39 0 33 -37l-170 -961q-12 -74 -12 -127q0 -80 32 -113q33 -34 111 -34q101 0 150 61q50 62 77 213l168 961q6 37 43 37h127q37 0 31 -37l-174 -981q-40 -233 -142 -336q-100 -102 -294 -102z
M670 1518q-115 0 -169 54t-38 144q1 27 31 27h67q29 0 29 -27q-2 -44 18 -65q21 -23 72 -23q97 0 125 88q6 27 33 27h67q27 0 25 -27q-40 -198 -260 -198z" />
    <glyph glyph-name="ubreve" unicode="&#x16d;" horiz-adv-x="845" 
d="M55 322l133 745q6 37 43 37h117q37 0 27 -37l-125 -709q-8 -61 -8 -79q0 -121 104 -121q80 0 134 69q55 71 79 191l113 649q6 37 45 37h117q32 0 26 -37l-182 -1030q-6 -37 -39 -37h-113q-20 0 -28 8t-6 25l14 90q-79 -139 -225 -139q-116 0 -175 65t-59 182q0 45 8 91z
M565 1200q-114 0 -172 53t-41 144q6 26 33 26h68q15 0 20 -6q4 -5 2 -20q-2 -44 21 -65q22 -21 75 -21q97 0 121 86q7 26 37 26h68q23 0 22 -26q-41 -197 -254 -197z" />
    <glyph glyph-name="Uring" unicode="&#x16e;" horiz-adv-x="950" 
d="M408 -16q-168 0 -252 72t-84 231q0 61 12 135l174 981q6 37 45 37h125q39 0 33 -37l-170 -961q-12 -74 -12 -127q0 -80 32 -113q33 -34 111 -34q101 0 150 61q50 62 77 213l168 961q6 37 43 37h127q37 0 31 -37l-174 -981q-40 -233 -142 -336q-100 -102 -294 -102z
M700 1765q-45 0 -72 -28q-28 -30 -28 -78q0 -29 23 -47q24 -19 57 -19q42 0 69 29q27 28 27 74q0 69 -76 69zM502 1653q0 87 56 143q57 57 147 57q75 0 123 -42q49 -43 49 -107q0 -85 -59 -144t-148 -59q-76 0 -122 43t-46 109z" />
    <glyph glyph-name="uring" unicode="&#x16f;" horiz-adv-x="845" 
d="M55 322l133 745q6 37 43 37h117q37 0 27 -37l-125 -709q-8 -61 -8 -79q0 -121 104 -121q80 0 134 69q55 71 79 191l113 649q6 37 45 37h117q32 0 26 -37l-182 -1030q-6 -37 -39 -37h-113q-20 0 -28 8t-6 25l14 90q-79 -139 -225 -139q-116 0 -175 65t-59 182q0 45 8 91z
M571 1280q38 0 69 28q30 27 30 70q0 72 -78 72q-45 0 -73 -28q-27 -27 -27 -74q0 -32 22 -50t57 -18zM604 1540q73 0 120 -41q46 -40 46 -106q0 -90 -59 -146q-60 -57 -154 -57q-75 0 -121 41q-45 41 -45 104q0 88 59 147q58 58 154 58z" />
    <glyph glyph-name="Uhungarumlaut" unicode="&#x170;" horiz-adv-x="950" 
d="M408 -16q-168 0 -252 72t-84 231q0 61 12 135l174 981q6 37 45 37h125q39 0 33 -37l-170 -961q-12 -74 -12 -127q0 -80 32 -113q33 -34 111 -34q101 0 150 61q50 62 77 213l168 961q6 37 43 37h127q37 0 31 -37l-174 -981q-40 -233 -142 -336q-100 -102 -294 -102z
M469 1552l94 164q18 29 49 29h129q19 0 19 -14q0 -15 -12 -27l-146 -158q-18 -22 -49 -22h-70q-30 0 -14 28zM741 1552l97 164q17 29 47 29h127q12 0 18 -7t4 -17q-1 -8 -10 -17l-145 -158q-21 -22 -54 -22h-67q-32 0 -17 28z" />
    <glyph glyph-name="uhungarumlaut" unicode="&#x171;" horiz-adv-x="845" 
d="M55 322l133 745q6 37 43 37h117q37 0 27 -37l-125 -709q-8 -61 -8 -79q0 -121 104 -121q80 0 134 69q55 71 79 191l113 649q6 37 45 37h117q32 0 26 -37l-182 -1030q-6 -37 -39 -37h-113q-20 0 -28 8t-6 25l14 90q-79 -139 -225 -139q-116 0 -175 65t-59 182q0 45 8 91z
M348 1233l94 162q14 26 45 26h123q19 0 22 -12t-9 -27l-144 -157q-18 -21 -49 -21h-65q-35 0 -17 29zM616 1233l95 162q17 26 43 26h125q18 0 21 -13q3 -14 -9 -26l-143 -157q-18 -21 -52 -21h-63q-32 0 -17 29z" />
    <glyph glyph-name="Uogonek" unicode="&#x172;" horiz-adv-x="950" 
d="M844 422q-34 -200 -113 -303t-219 -127q-109 -70 -109 -148q0 -39 60 -39q18 0 34 2q3 0 9.5 1.5t9.5 1.5q16 0 14 -17v-59q-1 -20 -24 -31q-39 -18 -82 -18q-160 0 -160 118q0 103 131 181q-165 5 -243 75q-80 72 -80 226q0 59 12 137l174 981q6 37 45 37h125
q39 0 33 -37l-170 -961q-12 -74 -12 -127q0 -80 32 -113q33 -34 111 -34q101 0 150 61q50 62 77 213l168 961q6 37 43 37h127q37 0 31 -37z" />
    <glyph glyph-name="uogonek" unicode="&#x173;" horiz-adv-x="845" 
d="M55 322l133 745q6 37 43 37h117q37 0 27 -37l-125 -709q-8 -61 -8 -79q0 -121 104 -121q80 0 134 69q55 71 79 191l113 649q6 37 45 37h117q32 0 26 -37l-182 -1030q-6 -37 -39 -37h-2q-117 -72 -117 -143q0 -39 58 -39q21 0 29 1t20 1q18 0 16 -19l-2 -53
q-2 -25 -23 -31q-38 -18 -81 -18q-63 0 -107 29q-43 28 -43 77q0 117 156 195h-17q-20 0 -28 8t-6 25l14 90q-79 -139 -225 -139q-116 0 -175 65t-59 182q0 45 8 91z" />
    <glyph glyph-name="Wcircumflex" unicode="&#x174;" horiz-adv-x="1503" 
d="M858 1440h123q40 0 41 -37l-6 -801v-354h6l117 356l266 799q12 37 47 37h139q41 0 23 -41l-486 -1356q-21 -43 -55 -43h-176q-43 0 -43 43l4 684v350h-4l-125 -350l-229 -684q-15 -43 -58 -43h-174q-39 0 -43 43l-10 1356q5 41 37 41h135q31 0 35 -37l-10 -799l-11 -356
h7l120 354l279 801q12 37 51 37zM1036 1546l-75 94l-109 -94q-29 -22 -49 -22h-88q-19 0 -20 12q-2 13 14 25l170 165q28 23 49 23h90q33 0 45 -23l111 -165q10 -12 4 -25q-6 -12 -23 -12h-76q-17 0 -43 22z" />
    <glyph glyph-name="wcircumflex" unicode="&#x175;" horiz-adv-x="1222" 
d="M664 1104h112q28 0 33 -35l-2 -575l-4 -265h4l92 265l188 573q21 37 50 37h127q36 0 20 -39l-379 -1028q-16 -37 -51 -37h-137q-41 0 -41 37l4 512l-2 282h-6l-103 -282l-174 -512q-15 -37 -51 -37h-139q-35 0 -39 37l-19 1028q0 39 37 39h117q33 0 33 -37l-10 -573
l-7 -265h5l92 265l202 575q18 35 48 35zM842 1225l-78 102l-111 -102q-27 -21 -47 -21h-88q-17 0 -18 11q-2 12 10 24l172 174q22 21 49 21h90q30 0 45 -21l113 -174q7 -12 3 -24q-4 -11 -21 -11h-76q-22 0 -43 21z" />
    <glyph glyph-name="Ycircumflex" unicode="&#x176;" horiz-adv-x="925" 
d="M578 549l-91 -510q-6 -39 -43 -39h-127q-38 0 -32 39l92 510l-174 846q-6 16 3 30q9 15 32 15h133q32 0 43 -35l67 -459l23 -211h2l100 211l234 459q18 35 49 35h139q44 0 21 -45zM750 1546l-76 94l-109 -94q-29 -22 -49 -22h-88q-18 0 -19 12q-2 13 13 25l170 165
q28 23 49 23h90q33 0 45 -23l111 -165q11 -12 4 -25q-6 -12 -23 -12h-75q-17 0 -43 22z" />
    <glyph glyph-name="ycircumflex" unicode="&#x177;" horiz-adv-x="778" 
d="M850 1065l-401 -999q-60 -162 -134 -233t-225 -71q-80 0 -123 19q-30 12 -22 39l30 90q12 33 45 31l4 -1q3 -1 10 -2.5t15 -2.5q30 -5 55 -5q130 0 109 160l-70 975q-5 39 35 39h123q29 0 33 -37l31 -657l-13 -174h4l56 174l239 657q21 37 49 37h127q35 0 23 -39z
M623 1225l-78 102l-111 -102q-27 -21 -47 -21h-88q-17 0 -18 11q-2 12 10 24l172 174q23 21 49 21h90q30 0 45 -21l113 -174q8 -12 3 -24q-4 -11 -22 -11h-75q-22 0 -43 21z" />
    <glyph glyph-name="Ydieresis" unicode="&#x178;" horiz-adv-x="925" 
d="M578 549l-91 -510q-6 -39 -43 -39h-127q-38 0 -32 39l92 510l-174 846q-6 16 3 30q9 15 32 15h133q32 0 43 -35l67 -459l23 -211h2l100 211l234 459q18 35 49 35h139q44 0 21 -45zM625 1659l-21 -100q-6 -35 -41 -35h-119q-34 0 -28 35l20 100q1 37 37 37h119
q34 0 33 -37zM915 1659l-22 -100q-6 -35 -41 -35h-119q-34 0 -28 35l22 100q1 37 35 37h119q35 0 34 -37z" />
    <glyph glyph-name="Zacute" unicode="&#x179;" horiz-adv-x="823" 
d="M-10 39l18 108q10 32 29 54l620 1050h-395q-37 0 -31 39l21 113q6 37 43 37h586q36 0 30 -37l-18 -109q-1 -24 -25 -55l-618 -1053h422q35 0 28 -36l-20 -111q-6 -39 -41 -39h-616q-41 0 -33 39zM537 1552l96 162q23 29 49 29h158q18 0 19 -13q1 -14 -11 -26l-170 -158
q-22 -22 -51 -22h-74q-32 0 -16 28z" />
    <glyph glyph-name="zacute" unicode="&#x17a;" horiz-adv-x="731" 
d="M756 1067l-13 -74q-5 -29 -22 -51l-469 -770h319q37 0 31 -33l-18 -102q-6 -37 -41 -37h-520q-37 0 -31 37l14 72q1 18 19 47l475 776h-303q-37 0 -29 33l16 102q6 37 45 37h500q37 0 27 -37zM434 1233l98 162q17 26 43 26h158q19 0 22 -13q3 -14 -12 -26l-168 -157
q-23 -21 -49 -21h-75q-32 0 -17 29z" />
    <glyph glyph-name="Zdotaccent" unicode="&#x17b;" horiz-adv-x="823" 
d="M-10 39l18 108q10 32 29 54l620 1050h-395q-37 0 -31 39l21 113q6 37 43 37h586q36 0 30 -37l-18 -109q-1 -24 -25 -55l-618 -1053h422q35 0 28 -36l-20 -111q-6 -39 -41 -39h-616q-41 0 -33 39zM737 1663l-22 -104q-6 -35 -39 -35h-131q-37 0 -31 35l21 104q2 35 40 35
h132q32 0 30 -35z" />
    <glyph glyph-name="zdotaccent" unicode="&#x17c;" horiz-adv-x="731" 
d="M756 1067l-13 -74q-5 -29 -22 -51l-469 -770h319q37 0 31 -33l-18 -102q-6 -37 -41 -37h-520q-37 0 -31 37l14 72q1 18 19 47l475 776h-303q-37 0 -29 33l16 102q6 37 45 37h500q37 0 27 -37zM618 1343l-16 -106q-8 -33 -41 -33h-131q-37 0 -31 33l17 106q8 35 43 35h131
q34 0 28 -35z" />
    <glyph glyph-name="Zcaron" unicode="&#x17d;" horiz-adv-x="823" 
d="M-10 39l18 108q10 32 29 54l620 1050h-395q-37 0 -31 39l21 113q6 37 43 37h586q36 0 30 -37l-18 -109q-1 -24 -25 -55l-618 -1053h422q35 0 28 -36l-20 -111q-6 -39 -41 -39h-616q-41 0 -33 39zM635 1630l102 94q31 25 47 25h88q16 0 21 -12q5 -13 -10 -23l-168 -170
q-23 -20 -51 -20h-93q-27 0 -41 20l-112 170q-8 11 -2 23t22 12h76q25 0 43 -23z" />
    <glyph glyph-name="zcaron" unicode="&#x17e;" horiz-adv-x="731" 
d="M756 1067l-13 -74q-5 -29 -22 -51l-469 -770h319q37 0 31 -33l-18 -102q-6 -37 -41 -37h-520q-37 0 -31 37l14 72q1 18 19 47l475 776h-303q-37 0 -29 33l16 102q6 37 45 37h500q37 0 27 -37zM508 1311l110 102q27 21 48 21h90q16 0 18 -12t-12 -23l-172 -174
q-21 -21 -49 -21h-92q-28 0 -43 21l-113 174q-7 10 -3 22q5 13 21 13h78q25 0 41 -21z" />
    <glyph glyph-name="longs" unicode="&#x17f;" horiz-adv-x="489" 
d="M457 1149l-197 -1114q-6 -35 -39 -35h-117q-36 0 -30 35l155 887h-77q-34 0 -27 34l16 101q6 37 43 37h78l10 69q29 164 88 226q60 63 189 63q59 0 96 -12q24 -6 19 -37l-11 -82q-5 -41 -39 -35h-45q-56 0 -76 -26q-21 -27 -36 -111z" />
    <glyph glyph-name="florin" unicode="&#x192;" horiz-adv-x="995" 
d="M764 1130l-96 -321h172q32 0 24 -35l-20 -65q-12 -33 -39 -33h-178l-197 -637q-49 -157 -115 -217t-198 -60q-71 0 -101 11q-26 6 -18 37l29 96q12 37 47 35q11 -4 37 -4q56 0 86 30q29 29 51 101l186 608h-119q-38 0 -26 33l22 67q12 33 41 33h123l109 350
q51 165 124 231q71 64 207 64q80 0 109 -8q26 -10 18 -39l-26 -80q-4 -39 -47 -33q-8 0 -19 1t-22 1q-67 0 -100 -36t-64 -130z" />
    <glyph glyph-name="Aringacute" unicode="&#x1fa;" horiz-adv-x="964" 
d="M481 1501q0 74 41 127t111 68l76 127q21 28 49 28h157q19 0 20 -13q1 -14 -11 -26l-144 -133q76 -43 76 -127q0 -94 -70 -155l60 -1356q5 -41 -37 -41h-129q-33 0 -37 37l-6 319h-342l-119 -319q-21 -37 -47 -37h-135q-44 0 -29 41l541 1358l4 12q-29 40 -29 90zM371 537
h250v692h-5zM680 1614q-46 0 -73 -29t-27 -78q0 -29 22 -47t57 -18q42 0 69 28q28 30 28 74q0 70 -76 70z" />
    <glyph glyph-name="aringacute" unicode="&#x1fb;" horiz-adv-x="800" 
d="M768 786l-131 -749q-10 -37 -41 -37h-102q-34 0 -33 33l16 96q-94 -141 -237 -141q-104 0 -164 67t-60 176q0 243 136 344t417 113l17 98q16 84 -13 126q-28 40 -110 40q-90 0 -215 -41q-16 -4 -28 3q-11 7 -9 26v92q5 35 37 45q93 43 248 43q280 0 280 -241
q0 -47 -8 -93zM369 1335q0 69 38 122q37 52 103 73l78 129q18 27 43 27h157q19 0 22 -14t-11 -25l-133 -125q82 -39 82 -129q0 -89 -60 -146t-153 -57q-75 0 -121 41q-45 41 -45 104zM516 391l29 158q-117 -7 -192 -28q-69 -19 -104 -60q-34 -40 -42 -85q-8 -46 -8 -126
q0 -111 92 -111q83 0 145 73t80 179zM549 1280q37 0 68 28q30 27 30 70q0 72 -78 72q-44 0 -72 -28t-28 -74q0 -32 23 -50q22 -18 57 -18z" />
    <glyph glyph-name="AEacute" unicode="&#x1fc;" horiz-adv-x="1241" 
d="M1141 647h-328l-82 -461h350q39 0 33 -36l-20 -111q-8 -39 -43 -39h-512q-41 0 -35 39l57 321h-278l-127 -323q-22 -37 -50 -37h-135q-21 0 -28 12q-8 13 2 29l606 1358q18 41 59 41h684q37 0 31 -37l-18 -113q-6 -39 -43 -39h-344l-76 -426h327q37 0 31 -39l-18 -102
q-6 -37 -43 -37zM381 539h211l129 716h-64zM745 1552l97 162q23 29 49 29h158q18 0 19 -13q2 -14 -11 -26l-170 -158q-22 -22 -51 -22h-74q-33 0 -17 28z" />
    <glyph glyph-name="aeacute" unicode="&#x1fd;" horiz-adv-x="1241" 
d="M883 145q55 0 153 25q17 6 29 -1t12 -24l2 -86q0 -32 -37 -47q-75 -28 -184 -28q-124 0 -200 52q-77 53 -87 140q-112 -188 -295 -188q-126 0 -194 64q-70 65 -70 173q0 126 44 214q43 86 126 130q82 43 170 61q86 17 207 19l21 133q24 170 -121 170q-84 0 -215 -41
q-16 -5 -27 3q-10 7 -8 26l-6 92q7 37 39 45q116 43 239 43q214 0 244 -121q94 121 248 121q125 0 189 -70q65 -71 65 -204q0 -97 -21 -205l-20 -115q-6 -39 -47 -39h-430q-19 -100 -19 -159q0 -183 193 -183zM946 963q-76 0 -127 -78q-52 -79 -86 -248h291l2 16q0 1 1.5 13
t4 29t4.5 37q8 70 8 95q0 70 -21 103t-77 33zM512 393l20 113q-216 -12 -275 -62q-58 -49 -58 -198q0 -103 108 -103q78 0 131 70t74 180zM672 1233l98 162q17 26 43 26h158q18 0 21 -13q3 -15 -11 -26l-168 -157q-22 -21 -49 -21h-76q-31 0 -16 29z" />
    <glyph glyph-name="Oslashacute" unicode="&#x1fe;" horiz-adv-x="1013" 
d="M662 1458q190 0 276 -117l68 93q29 33 53 12l51 -47q23 -23 0 -47l-115 -150q15 -76 15 -147q0 -131 -35 -336q-73 -411 -199 -574q-124 -161 -340 -161q-191 0 -276 110l-74 -94q-25 -25 -47 -8l-53 49q-27 16 2 45l112 143q-14 59 -14 158q0 127 35 332q73 411 200 575
q126 164 341 164zM328 719q-26 -161 -31 -254l494 690q-29 123 -146 123t-189 -122q-73 -122 -128 -437zM449 164q117 0 190 121q74 122 129 434q22 128 33 248l-496 -684q27 -119 144 -119zM616 1552l97 162q21 29 49 29h158q18 0 19 -13q1 -14 -11 -26l-170 -158
q-22 -22 -51 -22h-74q-33 0 -17 28z" />
    <glyph glyph-name="oslashacute" unicode="&#x1ff;" horiz-adv-x="860" 
d="M360 -16q-149 0 -225 82l-41 -58q-23 -29 -47 -8l-35 33q-22 21 0 43l68 88q-21 61 -21 151q0 95 25 236q52 294 159 433q105 136 289 136q146 0 222 -82l41 58q21 24 47 4l35 -27q22 -16 0 -43l-68 -88q22 -66 22 -158q0 -109 -20 -233q-52 -293 -161 -431
q-108 -136 -290 -136zM377 150q89 0 145 93q55 92 94 308q24 144 25 197l-375 -517q22 -81 111 -81zM279 551q-20 -111 -25 -176l371 506q-28 73 -109 73q-90 0 -144 -93t-93 -310zM483 1233l99 162q17 26 43 26h157q19 0 22 -13q3 -15 -11 -26l-168 -157q-23 -21 -50 -21
h-75q-32 0 -17 29z" />
    <glyph glyph-name="Scommaaccent" unicode="&#x218;" horiz-adv-x="784" 
d="M707 428q0 -204 -116 -325q-115 -119 -333 -119q-169 0 -240 26q-42 14 -30 47l39 103q15 43 53 28q88 -24 176 -24q111 0 177 63q67 64 67 176q0 121 -133 248q-197 159 -197 369q0 200 108 319t318 119q140 0 213 -24q41 -17 29 -48l-39 -100q-15 -43 -54 -26
q-64 16 -151 16q-217 0 -217 -227q0 -105 135 -240q195 -174 195 -381zM328 -285l-95 -161q-15 -27 -38 -27h-21q-25 0 -14 31l61 153h-45q-32 0 -31 37l23 123q6 35 41 35h125q36 0 28 -35l-18 -113q-6 -27 -16 -43z" />
    <glyph glyph-name="scommaaccent" unicode="&#x219;" horiz-adv-x="667" 
d="M596 354q0 -172 -99 -271t-278 -99q-148 0 -225 26q-38 11 -27 41l35 94q10 39 43 27q77 -25 168 -25q76 0 135 51q58 50 58 136q0 48 -30 82q-31 36 -108 92q-162 114 -162 262q0 161 97 256q95 94 268 94q123 0 193 -22q35 -11 24 -41l-33 -90q-10 -37 -43 -27
q-70 16 -129 16q-77 0 -132 -41q-54 -41 -54 -120q0 -26 15 -50q14 -23 35 -42q1 0 61 -52q6 -5 13 -11t9 -7q88 -67 127 -129t39 -150zM285 -274l-88 -160q-16 -25 -37 -25h-23q-22 0 -14 31l61 147h-41q-36 0 -30 37l20 115q6 35 41 35h117q34 0 28 -35l-18 -104
q-2 -19 -16 -41z" />
    <glyph glyph-name="uni021A" unicode="&#x21a;" horiz-adv-x="759" 
d="M186 1290l19 113q6 37 45 37h600q39 0 33 -37l-21 -113q-6 -39 -45 -39h-199l-215 -1212q-6 -39 -43 -39h-124q-40 0 -33 39l213 1212h-197q-39 0 -33 39zM332 -285l-94 -161q-15 -27 -39 -27h-21q-25 0 -14 31l61 153h-45q-31 0 -30 37l22 123q6 35 41 35h125
q37 0 29 -35l-19 -113q-6 -27 -16 -43z" />
    <glyph glyph-name="uni021B" unicode="&#x21b;" horiz-adv-x="552" 
d="M547 922h-137l-109 -611q-8 -46 -8 -80q0 -40 17 -54q18 -15 61 -15q9 0 21 3t20 3q14 1 20 -6t4 -27l-2 -92q-2 -29 -35 -41q-29 -12 -80 -12q-111 0 -163 42q-54 43 -54 144q0 39 13 111l110 635h-78q-36 0 -30 34l18 101q6 37 43 37h82l37 225q6 35 43 35h111
q34 0 28 -35l-37 -225h138q32 0 26 -37l-16 -101q-6 -34 -43 -34zM285 -274l-88 -160q-16 -25 -37 -25h-23q-22 0 -14 31l61 147h-41q-36 0 -30 37l20 115q6 35 41 35h117q34 0 28 -35l-18 -104q-2 -19 -16 -41z" />
    <glyph glyph-name="dotlessj" unicode="&#x237;" horiz-adv-x="409" 
d="M47 43l182 1024q6 37 41 37h119q33 0 27 -37l-185 -1049q-24 -143 -75 -197t-170 -54q-68 0 -84 6q-33 6 -27 37l12 98q6 33 39 33h39q36 0 53 20q19 22 29 82z" />
    <glyph glyph-name="circumflex" unicode="&#x2c6;" horiz-adv-x="532" 
d="M500 1225l-78 102l-111 -102q-27 -21 -47 -21h-88q-17 0 -18 11q-2 12 10 24l172 174q22 21 49 21h90q30 0 45 -21l113 -174q7 -12 3 -24q-4 -11 -22 -11h-75q-22 0 -43 21z" />
    <glyph glyph-name="caron" unicode="&#x2c7;" horiz-adv-x="532" 
d="M410 1311l110 102q27 21 47 21h90q17 0 19 -12t-12 -23l-172 -174q-21 -21 -50 -21h-92q-28 0 -43 21l-112 174q-8 11 -4 22q5 13 22 13h78q25 0 41 -21z" />
    <glyph glyph-name="uni02C9" unicode="&#x2c9;" horiz-adv-x="532" 
d="M612 1212h-428q-34 0 -28 35l8 53q11 35 39 35h430q37 0 26 -35l-6 -53q-8 -35 -41 -35z" />
    <glyph glyph-name="breve" unicode="&#x2d8;" horiz-adv-x="532" 
d="M410 1200q-114 0 -172 53t-41 144q6 26 32 26h68q15 0 20 -6q4 -5 2 -20q-2 -44 21 -65q22 -21 76 -21q97 0 121 86q7 26 36 26h68q24 0 23 -26q-41 -197 -254 -197z" />
    <glyph glyph-name="dotaccent" unicode="&#x2d9;" horiz-adv-x="532" 
d="M520 1343l-16 -106q-7 -33 -41 -33h-131q-37 0 -31 33l16 106q8 35 43 35h132q34 0 28 -35z" />
    <glyph glyph-name="ring" unicode="&#x2da;" horiz-adv-x="532" 
d="M416 1280q37 0 68 28q30 27 30 70q0 72 -78 72q-44 0 -72 -28t-28 -74q0 -32 22 -50q23 -18 58 -18zM449 1540q72 0 119 -41q46 -40 46 -106q0 -90 -59 -146q-60 -57 -154 -57q-74 0 -120 41q-45 41 -45 104q0 89 58 147t155 58z" />
    <glyph glyph-name="ogonek" unicode="&#x2db;" horiz-adv-x="532" 
d="M199 18h86q-150 -84 -150 -161q0 -39 58 -39q21 0 29 1t20 1q18 0 16 -19l-2 -53q-2 -25 -23 -31q-38 -18 -81 -18q-63 0 -107 29q-43 28 -43 77q0 129 197 213z" />
    <glyph glyph-name="tilde" unicode="&#x2dc;" horiz-adv-x="532" 
d="M672 1335q-21 -135 -133 -135q-75 0 -136 35l-47 31q-3 2 -11.5 6.5t-13.5 6.5q-13 5 -21 5h-15q-7 0 -11 -4q-1 -1 -10 -7q-4 -3 -7 -10l-4 -12q-2 -6 -3 -10l-2 -8v-8q-8 -21 -35 -21h-47q-36 0 -26 43q21 139 137 139q60 0 131 -36l49 -29q35 -21 57 -21q33 0 39 50v8
q6 24 37 24h49q34 0 23 -47z" />
    <glyph glyph-name="hungarumlaut" unicode="&#x2dd;" horiz-adv-x="532" 
d="M205 1233l94 162q14 26 45 26h123q18 0 21 -12t-9 -27l-143 -157q-18 -21 -49 -21h-66q-34 0 -16 29zM473 1233l94 162q17 26 43 26h125q19 0 22 -13q3 -14 -9 -26l-144 -157q-18 -21 -51 -21h-64q-31 0 -16 29z" />
    <glyph glyph-name="uni037E" unicode="&#x37e;" horiz-adv-x="380" 
d="M86 459l31 162q6 36 43 36h127q36 0 30 -36l-30 -162q-6 -37 -39 -37h-131q-37 0 -31 37z" />
    <glyph glyph-name="uni0394" unicode="&#x394;" horiz-adv-x="1032" 
d="M586 1450h198q32 0 37 -41l49 -1358q4 -51 -49 -51h-774q-50 0 -35 51l518 1358q23 41 56 41zM651 1262l-389 -1086h404l-7 1086h-8z" />
    <glyph glyph-name="uni03A9" unicode="&#x3a9;" horiz-adv-x="1142" 
d="M727 1460q190 0 304 -123t114 -325q0 -212 -93 -424q-93 -211 -261 -322l-19 -100l158 14q20 1 29 -6q11 -9 6 -27l-21 -112q-6 -35 -39 -35h-340l47 276q6 30 31 46q140 102 219 289q80 189 80 378q0 134 -62 211q-63 78 -165 78q-97 0 -174 -63q-76 -63 -119 -159
q-44 -100 -65 -201q-21 -103 -21 -200q0 -226 110 -333q22 -17 17 -46l-47 -276h-338q-17 0 -27 10t-6 25l21 112q6 37 45 33l155 -14l19 92q-69 58 -112 168q-44 112 -44 250q0 123 40 255q41 136 112 254q72 120 189 197q119 78 257 78z" />
    <glyph glyph-name="uni03BC" unicode="&#x3bc;" horiz-adv-x="847" 
d="M868 1067l-133 -748q-57 -335 -305 -335q-89 0 -144 41q-54 41 -71 98l-53 -313q-6 -35 -43 -35h-117q-37 0 -31 37l222 1255q6 37 45 37h116q35 0 29 -37l-115 -647q-8 -43 -8 -86q0 -176 129 -176q71 0 109 50q37 49 55 150l125 709q6 37 43 37h119q34 0 28 -37z" />
    <glyph glyph-name="pi" unicode="&#x3c0;" horiz-adv-x="1034" 
d="M897 928l-117 -666q-15 -68 -1 -90q13 -20 65 -20q17 0 29 1t20 1q20 1 28 -7q7 -7 5 -26l-17 -84q-2 -25 -37 -37q-33 -10 -104 -10q-99 0 -142 40q-44 41 -44 126q0 43 8 86l123 686h-197l-291 -893q-17 -35 -43 -35h-121q-19 0 -26 10q-8 11 -2 25l295 893h-138
q-34 0 -28 37l18 102q6 37 43 37h832q38 0 28 -37l-18 -102q-4 -37 -41 -37h-127z" />
    <glyph glyph-name="Wgrave" unicode="&#x1e80;" horiz-adv-x="1503" 
d="M858 1440h123q40 0 41 -37l-6 -801v-354h6l117 356l266 799q12 37 47 37h139q41 0 23 -41l-486 -1356q-21 -43 -55 -43h-176q-43 0 -43 43l4 684v350h-4l-125 -350l-229 -684q-15 -43 -58 -43h-174q-39 0 -43 43l-10 1356q5 41 37 41h135q31 0 35 -37l-10 -799l-11 -356
h7l120 354l279 801q12 37 51 37zM952 1714l47 -162q4 -10 -3 -19t-21 -9h-72q-20 0 -41 22l-119 158q-8 11 -1 25t26 14h152q26 0 32 -29z" />
    <glyph glyph-name="wgrave" unicode="&#x1e81;" horiz-adv-x="1222" 
d="M664 1104h112q28 0 33 -35l-2 -575l-4 -265h4l92 265l188 573q21 37 50 37h127q36 0 20 -39l-379 -1028q-16 -37 -51 -37h-137q-41 0 -41 37l4 512l-2 282h-6l-103 -282l-174 -512q-15 -37 -51 -37h-139q-35 0 -39 37l-19 1028q0 39 37 39h117q33 0 33 -37l-10 -573
l-7 -265h5l92 265l202 575q18 35 48 35zM762 1395l45 -162q8 -29 -27 -29h-67q-25 0 -43 21l-117 157q-10 12 -4 26q6 13 24 13h152q27 0 37 -26z" />
    <glyph glyph-name="Wacute" unicode="&#x1e82;" horiz-adv-x="1503" 
d="M858 1440h123q40 0 41 -37l-6 -801v-354h6l117 356l266 799q12 37 47 37h139q41 0 23 -41l-486 -1356q-21 -43 -55 -43h-176q-43 0 -43 43l4 684v350h-4l-125 -350l-229 -684q-15 -43 -58 -43h-174q-39 0 -43 43l-10 1356q5 41 37 41h135q31 0 35 -37l-10 -799l-11 -356
h7l120 354l279 801q12 37 51 37zM868 1552l97 162q23 29 49 29h157q19 0 20 -13q1 -14 -11 -26l-170 -158q-22 -22 -52 -22h-73q-33 0 -17 28z" />
    <glyph glyph-name="wacute" unicode="&#x1e83;" horiz-adv-x="1222" 
d="M664 1104h112q28 0 33 -35l-2 -575l-4 -265h4l92 265l188 573q21 37 50 37h127q36 0 20 -39l-379 -1028q-16 -37 -51 -37h-137q-41 0 -41 37l4 512l-2 282h-6l-103 -282l-174 -512q-15 -37 -51 -37h-139q-35 0 -39 37l-19 1028q0 39 37 39h117q33 0 33 -37l-10 -573
l-7 -265h5l92 265l202 575q18 35 48 35zM676 1233l98 162q17 26 43 26h158q18 0 21 -13q3 -15 -11 -26l-168 -157q-23 -21 -49 -21h-76q-31 0 -16 29z" />
    <glyph glyph-name="Wdieresis" unicode="&#x1e84;" horiz-adv-x="1503" 
d="M858 1440h123q40 0 41 -37l-6 -801v-354h6l117 356l266 799q12 37 47 37h139q41 0 23 -41l-486 -1356q-21 -43 -55 -43h-176q-43 0 -43 43l4 684v350h-4l-125 -350l-229 -684q-15 -43 -58 -43h-174q-39 0 -43 43l-10 1356q5 41 37 41h135q31 0 35 -37l-10 -799l-11 -356
h7l120 354l279 801q12 37 51 37zM911 1659l-20 -100q-6 -35 -41 -35h-119q-35 0 -29 35l21 100q1 37 37 37h119q33 0 32 -37zM1202 1659l-22 -100q-6 -35 -41 -35h-119q-35 0 -29 35l23 100q1 37 35 37h118q36 0 35 -37z" />
    <glyph glyph-name="wdieresis" unicode="&#x1e85;" horiz-adv-x="1222" 
d="M664 1104h112q28 0 33 -35l-2 -575l-4 -265h4l92 265l188 573q21 37 50 37h127q36 0 20 -39l-379 -1028q-16 -37 -51 -37h-137q-41 0 -41 37l4 512l-2 282h-6l-103 -282l-174 -512q-15 -37 -51 -37h-139q-35 0 -39 37l-19 1028q0 39 37 39h117q33 0 33 -37l-10 -573
l-7 -265h5l92 265l202 575q18 35 48 35zM711 1339l-17 -102q-8 -33 -41 -33h-114q-37 0 -31 33l18 102q6 35 41 35h115q35 0 29 -35zM997 1339l-18 -102q-6 -33 -39 -33h-117q-34 0 -28 33l16 102q8 35 43 35h115q34 0 28 -35z" />
    <glyph glyph-name="Ygrave" unicode="&#x1ef2;" horiz-adv-x="925" 
d="M578 549l-91 -510q-6 -39 -43 -39h-127q-38 0 -32 39l92 510l-174 846q-6 16 3 30q9 15 32 15h133q32 0 43 -35l67 -459l23 -211h2l100 211l234 459q18 35 49 35h139q44 0 21 -45zM668 1714l47 -162q4 -10 -3 -19q-8 -9 -22 -9h-72q-19 0 -40 22l-119 158q-8 11 -1 25
t25 14h152q25 0 33 -29z" />
    <glyph glyph-name="ygrave" unicode="&#x1ef3;" horiz-adv-x="778" 
d="M850 1065l-401 -999q-60 -162 -134 -233t-225 -71q-80 0 -123 19q-30 12 -22 39l30 90q12 33 45 31l4 -1q3 -1 10 -2.5t15 -2.5q30 -5 55 -5q130 0 109 160l-70 975q-5 39 35 39h123q29 0 33 -37l31 -657l-13 -174h4l56 174l239 657q21 37 49 37h127q35 0 23 -39z
M547 1395l45 -162q6 -29 -27 -29h-67q-25 0 -43 21l-117 157q-10 12 -4 26q6 13 24 13h152q27 0 37 -26z" />
    <glyph glyph-name="figuredash" unicode="&#x2012;" horiz-adv-x="866" 
d="M739 504h-602q-29 0 -28 33l16 84q6 32 39 32h600q35 0 29 -32l-17 -84q-2 -33 -37 -33z" />
    <glyph glyph-name="endash" unicode="&#x2013;" horiz-adv-x="761" 
d="M664 485h-562q-34 0 -26 33l16 94q6 31 39 31h559q37 0 29 -31l-17 -94q-6 -33 -38 -33z" />
    <glyph glyph-name="emdash" unicode="&#x2014;" horiz-adv-x="1112" 
d="M1012 485h-910q-34 0 -26 33l16 94q6 31 39 31h909q37 0 31 -31l-16 -94q-6 -33 -43 -33z" />
    <glyph glyph-name="quoteleft" unicode="&#x2018;" horiz-adv-x="370" 
d="M227 1231l105 188q21 23 39 23h45q24 0 18 -31l-92 -178h45q35 0 29 -37l-29 -162q-6 -35 -41 -35h-127q-39 0 -31 35l25 150q5 28 14 47z" />
    <glyph glyph-name="quoteright" unicode="&#x2019;" horiz-adv-x="370" 
d="M406 1208l-105 -188q-11 -27 -37 -27h-45q-28 0 -16 33l90 178h-43q-37 0 -31 39l29 160q6 37 43 37h127q37 0 31 -37l-25 -150q-5 -27 -18 -45z" />
    <glyph glyph-name="quotesinglbase" unicode="&#x201a;" horiz-adv-x="370" 
d="M195 4l-105 -188q-10 -27 -37 -27h-45q-28 0 -16 33l90 178h-43q-37 0 -31 39l29 160q6 37 43 37h127q37 0 31 -37l-25 -150q-5 -27 -18 -45z" />
    <glyph glyph-name="quotedblleft" unicode="&#x201c;" horiz-adv-x="681" 
d="M537 1229l104 188q23 25 39 25h45q27 0 16 -33l-86 -176h39q37 0 31 -39l-29 -162q-6 -35 -43 -35h-127q-36 0 -30 35l24 152q1 10 8 25q1 3 3.5 8t4 7.5t1.5 4.5zM227 1229l105 188q19 25 39 25h45q26 0 18 -33l-88 -176h41q35 0 29 -39l-29 -162q-6 -35 -41 -35h-129
q-37 0 -31 35l27 152q5 26 14 45z" />
    <glyph glyph-name="quotedblright" unicode="&#x201d;" horiz-adv-x="681" 
d="M406 1202l-105 -190q-16 -25 -39 -25h-45q-26 0 -14 31l84 180h-39q-37 0 -31 35l29 162q7 37 43 37h127q37 0 30 -37l-24 -148q-2 -28 -16 -45zM715 1202l-105 -190q-16 -25 -39 -25h-45q-14 0 -17 10q-3 11 3 21l84 180h-39q-37 0 -31 35l29 162q7 37 41 37h131
q36 0 29 -37l-27 -148q0 -28 -14 -45z" />
    <glyph glyph-name="quotedblbase" unicode="&#x201e;" horiz-adv-x="681" 
d="M197 4l-105 -190q-16 -25 -39 -25h-45q-26 0 -14 31l84 180h-39q-37 0 -31 35l29 162q7 36 43 36h127q38 0 31 -36l-25 -148q-2 -28 -16 -45zM506 4l-105 -190q-16 -25 -39 -25h-45q-14 0 -17 10q-3 11 3 21l84 180h-39q-37 0 -31 35l29 162q7 36 41 36h131q36 0 29 -36
l-27 -148q0 -28 -14 -45z" />
    <glyph glyph-name="dagger" unicode="&#x2020;" horiz-adv-x="768" 
d="M813 1067l-16 -92q-6 -37 -41 -37h-197l-199 -1126q-6 -37 -41 -37h-116q-35 0 -29 37l199 1126h-197q-37 0 -31 37l19 92q6 37 43 37h196l54 301q6 35 37 35h118q37 0 31 -35l-53 -301h196q33 0 27 -37z" />
    <glyph glyph-name="daggerdbl" unicode="&#x2021;" horiz-adv-x="772" 
d="M670 242l-17 -97q-6 -32 -39 -32h-198l-51 -301q-6 -37 -43 -37h-115q-37 0 -31 37l53 301h-196q-35 0 -29 32l16 97q6 32 41 32h197l117 664h-197q-34 0 -28 37l16 92q6 37 43 37h197l53 301q6 35 39 35h114q41 0 33 -35l-51 -301h197q32 0 26 -37l-18 -92
q-6 -37 -39 -37h-199l-115 -664h197q33 0 27 -32z" />
    <glyph glyph-name="bullet" unicode="&#x2022;" horiz-adv-x="673" 
d="M305 297q-93 0 -152 57t-59 148q0 124 87 215q87 92 214 92q97 0 155 -55t58 -148q0 -123 -87 -216t-216 -93z" />
    <glyph glyph-name="onedotenleader" unicode="&#x2024;" horiz-adv-x="380" 
d="M12 37l31 162q6 37 43 37h127q37 0 31 -37l-31 -162q-6 -37 -39 -37h-131q-37 0 -31 37z" />
    <glyph glyph-name="twodotenleader" unicode="&#x2025;" horiz-adv-x="759" 
d="M393 37l31 162q6 37 43 37h127q37 0 31 -37l-31 -162q-6 -37 -39 -37h-131q-37 0 -31 37zM12 37l31 162q6 37 43 37h127q37 0 31 -37l-31 -162q-6 -37 -39 -37h-131q-37 0 -31 37z" />
    <glyph glyph-name="ellipsis" unicode="&#x2026;" horiz-adv-x="1140" 
d="M12 37l31 162q6 37 43 37h127q37 0 31 -37l-31 -162q-6 -37 -39 -37h-131q-37 0 -31 37zM393 37l29 162q7 37 45 37h129q35 0 29 -37l-31 -162q-6 -37 -39 -37h-131q-37 0 -31 37zM774 37l29 162q6 37 43 37h129q37 0 31 -37l-31 -162q-6 -37 -39 -37h-131q-38 0 -31 37z
" />
    <glyph glyph-name="perthousand" unicode="&#x2030;" horiz-adv-x="2062" 
d="M1284 1405l-878 -1376q-23 -29 -48 -29h-106q-17 0 -20 10t8 25l876 1378q22 27 49 27h107q35 0 12 -35zM150 1042q69 412 323 412q229 0 229 -262q0 -58 -14 -148q-69 -407 -323 -407q-108 0 -168 68q-60 67 -60 198q0 59 13 139zM528 1044q15 86 15 140q0 125 -78 125
q-113 0 -158 -265q-14 -90 -14 -133q0 -129 80 -129q56 0 94 62q37 61 61 200zM834 395q74 410 325 410q227 0 227 -262q0 -76 -14 -150q-68 -405 -321 -405q-230 0 -230 264q0 57 13 143zM1212 395q15 78 15 137q0 127 -76 127q-115 0 -160 -264q-14 -90 -14 -135
q0 -127 80 -127q112 0 155 262zM1462 395q69 410 324 410q229 0 229 -262q0 -58 -14 -148q-69 -407 -324 -407q-229 0 -229 264q0 74 14 143zM1841 395q12 84 12 137q0 127 -75 127q-114 0 -158 -264q-16 -86 -16 -135q0 -127 79 -127q59 0 97 62q37 61 61 200z" />
    <glyph glyph-name="guilsinglleft" unicode="&#x2039;" horiz-adv-x="419" 
d="M72 567q7 17 10 19l160 278q16 27 45 27h106q32 0 17 -35l-170 -289l67 -286q6 -35 -28 -35h-107q-28 0 -35 26l-63 279q0 10 -2 16z" />
    <glyph glyph-name="guilsinglright" unicode="&#x203a;" horiz-adv-x="419" 
d="M379 567q1 -4 -6 -16l-162 -279q-14 -26 -41 -26h-109q-35 0 -12 35l164 286l-61 289q-12 35 26 35h107q26 0 32 -27l64 -278q2 -10 -2 -19z" />
    <glyph glyph-name="exclamdbl" unicode="&#x203c;" horiz-adv-x="866" 
d="M41 37l31 170q6 35 41 35h141q35 0 29 -35l-31 -170q-6 -37 -41 -37h-139q-37 0 -31 37zM256 414h-86q-37 0 -31 37l137 952q6 37 41 37h152q35 0 29 -37l-199 -952q-6 -37 -43 -37zM461 37l31 170q6 35 40 35h142q34 0 28 -35l-30 -170q-6 -37 -41 -37h-139
q-37 0 -31 37zM676 414h-86q-37 0 -31 37l137 952q6 37 41 37h152q35 0 29 -37l-199 -952q-6 -37 -43 -37z" />
    <glyph glyph-name="fraction" unicode="&#x2044;" horiz-adv-x="131" 
d="M633 1405l-879 -1376q-18 -29 -47 -29h-104q-19 0 -22 10q-3 11 7 25l877 1378q23 27 47 27h104q35 0 17 -35z" />
    <glyph glyph-name="zero.superior" unicode="&#x2070;" 
d="M416 989q-226 0 -226 268q0 83 21 183q40 227 121 340q79 110 219 110q221 0 221 -266q0 -94 -18 -184q-44 -234 -122 -341q-80 -110 -216 -110zM428 1135q59 0 98 69t66 236q20 117 20 178q0 127 -75 127q-57 0 -94 -67q-35 -65 -70 -238q-23 -107 -23 -183
q0 -122 78 -122z" />
    <glyph glyph-name="four.superior" unicode="&#x2074;" 
d="M571 1671l-231 -342h172zM694 1188h-49l-31 -154q-6 -35 -39 -35h-88q-34 0 -28 35l28 154h-297q-33 0 -28 35l12 69q1 21 21 41l399 520q22 27 43 27h92q37 0 31 -35l-92 -516h49q36 0 26 -33l-10 -73q-11 -35 -39 -35z" />
    <glyph glyph-name="five.superior" unicode="&#x2075;" 
d="M362 985q-138 0 -176 23q-28 12 -20 36l29 74q12 31 43 23q49 -15 120 -15q185 0 185 201q0 96 -97 96q-32 0 -78 -8t-57 -8q-24 0 -28 4l-17 14q-15 15 -10 33q7 36 27 118q9 36 35 157q4 19 12.5 56.5t11.5 51.5q6 35 41 35h346q37 0 29 -33l-15 -76q-10 -34 -38 -34
h-242q-25 -119 -43 -193q33 10 82 10q100 0 151 -58q52 -60 52 -151q0 -162 -93 -260q-92 -96 -250 -96z" />
    <glyph glyph-name="six.superior" unicode="&#x2076;" 
d="M682 1741q-52 12 -88 12q-85 0 -131 -52q-48 -54 -70 -181q59 65 152 65q94 0 143 -61t49 -156q0 -151 -81 -265t-220 -114q-117 0 -177 69t-60 197q0 81 18 187q40 231 127 340q86 108 240 108q108 0 147 -20q24 -12 17 -33l-27 -76q-6 -30 -39 -20zM446 1126
q74 0 107 74t33 156q0 96 -90 96q-72 0 -106 -69q-34 -68 -34 -144q0 -113 90 -113z" />
    <glyph glyph-name="seven.superior" unicode="&#x2077;" 
d="M799 1847l-15 -65q0 -10 -22 -47q-125 -163 -224 -356q-99 -194 -120 -343q-7 -37 -41 -37h-94q-33 0 -27 35q44 311 352 703h-291q-32 0 -28 32l16 78q6 33 37 33h428q35 0 29 -33z" />
    <glyph glyph-name="eight.superior" unicode="&#x2078;" 
d="M416 989q-113 0 -178 52q-66 53 -66 139q0 190 180 270q-86 53 -86 172q0 125 84 197q83 71 201 71q99 0 163 -50q62 -49 62 -132q0 -176 -160 -250q97 -56 97 -182q0 -135 -85 -211t-212 -76zM475 1395q-59 -27 -103 -79q-42 -49 -42 -108q0 -88 94 -88q57 0 96 45
t39 103q0 84 -84 127zM494 1509q127 66 127 183q0 69 -80 69q-56 0 -87 -40q-32 -41 -32 -91q0 -78 72 -121z" />
    <glyph glyph-name="nine.superior" unicode="&#x2079;" 
d="M279 1139q47 -19 90 -19q87 0 133 55q44 53 67 185q-60 -66 -141 -66q-96 0 -149 64q-54 65 -54 160q0 148 82 260t219 112q238 0 238 -274q0 -78 -19 -184q-44 -239 -127 -340q-85 -103 -239 -103q-107 0 -148 21q-12 6 -17 11q-3 3 1 21l29 76q8 33 35 21zM516 1753
q-70 0 -104 -76q-35 -78 -35 -153q0 -97 90 -97q70 0 105 65q34 64 34 142q0 119 -90 119z" />
    <glyph glyph-name="parenleft.superior" unicode="&#x207d;" horiz-adv-x="360" 
d="M221 1292q0 154 60 312q61 160 163 284q18 15 31 15h82q7 0 12 -5q5 -4 3 -9q-3 -8 -5 -11q-194 -264 -194 -606q0 -151 41 -271q10 -24 -19 -24h-82q-18 0 -22 14q-70 142 -70 301z" />
    <glyph glyph-name="parenright.superior" unicode="&#x207e;" horiz-adv-x="360" 
d="M475 1579q0 -153 -58 -309t-161 -279q-17 -14 -33 -14h-80q-8 0 -12 4q-5 5 -3 9q3 8 5 11q193 303 193 601q0 148 -43 276q-4 9 2 17t18 8h82q17 0 25 -15q65 -165 65 -309z" />
    <glyph glyph-name="n.superior" unicode="&#x207f;" horiz-adv-x="686" 
d="M352 1882h86q37 0 31 -35l-10 -67q67 112 190 112q88 0 133 -52q45 -53 45 -142q0 -34 -6 -72l-104 -592q-6 -35 -41 -35h-92q-35 0 -29 35l100 563q23 142 -71 142q-64 0 -108 -56t-56 -141l-90 -508q-6 -35 -41 -35h-92q-33 0 -27 35l141 813q6 35 41 35z" />
    <glyph glyph-name="zero.inferior" unicode="&#x2080;" 
d="M164 -451q-225 0 -225 269q0 86 20 182q40 227 121 340q80 111 219 111q221 0 221 -267q0 -94 -18 -184q-44 -234 -122 -341q-80 -110 -216 -110zM176 -305q59 0 98 69t66 236q20 117 20 178q0 127 -75 127q-58 0 -94 -66q-35 -64 -70 -239q-23 -107 -23 -182
q0 -123 78 -123z" />
    <glyph glyph-name="one.inferior" unicode="&#x2081;" 
d="M250 240l-131 -109q-28 -21 -47 4l-39 55q-13 30 16 48l230 190q24 12 45 12h82q36 0 30 -34l-143 -812q-6 -34 -39 -34h-88q-37 0 -31 34z" />
    <glyph glyph-name="two.inferior" unicode="&#x2082;" 
d="M160 172q0 -39 -39 -39h-82q-31 0 -31 25q0 128 69 210q69 83 210 83q108 0 164 -56q55 -55 55 -137q0 -253 -361 -555h240q41 0 31 -33l-17 -78q-10 -32 -36 -32h-422q-39 0 -29 32l14 70q6 24 27 39q5 5 51 48q12 11 27 25t23.5 22.5t13.5 12.5q11 10 62 61
q44 44 67 72q5 6 54 70q32 41 50 78q17 34 30 73t13 77q4 73 -72 73q-112 0 -112 -141z" />
    <glyph glyph-name="three.inferior" unicode="&#x2083;" 
d="M172 -57h-63q-33 0 -27 32l12 70q6 33 39 33h64q61 0 97 45t36 113q0 75 -123 75q-26 0 -123 -20q-29 -8 -29 20l-4 80q-2 19 27 31q70 29 158 29q115 0 186 -48q70 -47 70 -139q0 -79 -39 -151q-39 -73 -105 -95q39 -11 63 -52q23 -40 23 -103q0 -152 -89 -233
q-88 -81 -241 -81q-44 0 -107 11q-60 10 -75 18q-27 15 -22 33l28 76q15 29 43 22q74 -20 123 -20q85 0 131 43q47 44 47 125q0 86 -100 86z" />
    <glyph glyph-name="four.inferior" unicode="&#x2084;" 
d="M319 231l-231 -342h172zM442 -252h-49l-31 -154q-6 -34 -38 -34h-88q-35 0 -29 34l29 154h-297q-34 0 -29 35l12 70q1 21 21 41l399 520q22 26 43 26h92q37 0 31 -34l-92 -517h49q37 0 27 -32l-11 -74q-11 -35 -39 -35z" />
    <glyph glyph-name="five.inferior" unicode="&#x2085;" 
d="M111 -455q-139 0 -177 23q-28 12 -20 37l29 73q12 31 43 23q48 -14 120 -14q185 0 185 200q0 97 -96 97q-27 0 -79 -9q-46 -8 -57 -8q-24 0 -28 4l-17 15q-14 14 -10 32q7 36 27 118q19 78 36 157q19 89 23 108q6 35 41 35h346q37 0 29 -33l-14 -75q-11 -35 -39 -35h-242
q-24 -119 -43 -193q36 11 82 11q100 0 151 -59q52 -60 52 -150q0 -162 -93 -260q-92 -97 -249 -97z" />
    <glyph glyph-name="six.inferior" unicode="&#x2086;" 
d="M430 301q-52 12 -88 12q-85 0 -131 -52q-48 -54 -70 -181q59 65 152 65q94 0 143 -61t49 -156q0 -151 -81 -265t-220 -114q-117 0 -177 69t-60 198q0 78 18 186q40 231 127 340q86 109 240 109q106 0 147 -21q24 -12 17 -33l-27 -75q-6 -31 -39 -21zM195 -313
q73 0 106 73q33 74 33 156q0 96 -90 96q-72 0 -106 -68t-34 -145q0 -112 91 -112z" />
    <glyph glyph-name="seven.inferior" unicode="&#x2087;" 
d="M547 408l-15 -66q0 -10 -22 -47q-127 -165 -224 -355q-99 -194 -120 -343q-10 -37 -41 -37h-94q-33 0 -27 34q44 311 352 703h-290q-34 0 -29 33l16 78q6 32 37 32h428q35 0 29 -32z" />
    <glyph glyph-name="eight.inferior" unicode="&#x2088;" 
d="M164 -451q-111 0 -178 53q-66 52 -66 138q0 190 180 270q-86 53 -86 172q0 125 84 197t201 72q98 0 163 -51q62 -49 62 -132q0 -176 -159 -250q96 -55 96 -182q0 -135 -85 -211t-212 -76zM223 -45q-59 -27 -103 -79q-42 -50 -42 -107q0 -88 94 -88q57 0 96 45t39 102
q0 84 -84 127zM242 70q127 66 127 182q0 70 -80 70q-56 0 -87 -40q-32 -41 -32 -92q0 -76 72 -120z" />
    <glyph glyph-name="nine.inferior" unicode="&#x2089;" 
d="M27 -301q45 -18 90 -18q88 0 133 54q44 53 67 185q-59 -65 -141 -65q-96 0 -149 63q-54 65 -54 160q0 148 82 260q83 113 219 113q238 0 238 -275q0 -82 -18 -184q-44 -239 -127 -340q-85 -103 -240 -103q-107 0 -147 21q-14 7 -18 11t1 22l29 75q8 33 35 21zM264 313
q-70 0 -104 -75q-35 -78 -35 -154q0 -96 90 -96q72 0 106 64q33 62 33 143q0 118 -90 118z" />
    <glyph glyph-name="parenleft.inferior" unicode="&#x208d;" horiz-adv-x="360" 
d="M-31 -147q0 153 60 311q61 160 164 285q17 14 30 14h82q8 0 12 -4q5 -5 4 -9q-2 -7 -6 -12q-194 -264 -194 -606q0 -150 41 -270q11 -25 -19 -25h-82q-18 0 -22 14q-70 142 -70 302z" />
    <glyph glyph-name="parenright.inferior" unicode="&#x208e;" horiz-adv-x="360" 
d="M223 139q0 -153 -58 -309t-161 -279q-17 -14 -33 -14h-80q-8 0 -12 4q-5 5 -3 9q3 10 5 12q193 303 193 600q0 148 -43 276q-4 10 2 18q6 7 18 7h82q19 0 25 -14q65 -165 65 -310z" />
    <glyph glyph-name="Euro" unicode="&#x20ac;" horiz-adv-x="948" 
d="M111 643h100q1 5 3.5 20.5t3.5 23.5q5 33 5 34l17 80h-101q-34 0 -28 35l12 67q8 31 39 31h110q73 250 205 388q130 136 357 136q57 0 210 -26q35 -12 17 -46l-51 -100q-16 -37 -52 -29q-79 17 -118 17q-146 0 -229 -90q-82 -89 -132 -250h365q28 0 22 -33l-26 -65
q-15 -35 -45 -35h-351q0 -2 -2 -11t-6 -28.5t-8 -40.5q-10 -57 -12 -78h321q35 0 23 -35l-27 -65q-11 -33 -43 -33h-282q-2 -30 -2 -68q0 -129 55 -200q55 -72 186 -72q63 0 123 16q35 8 41 -30l16 -101q5 -31 -34 -43q-77 -26 -181 -26q-212 0 -314 122q-101 120 -101 334
q0 38 2 68h-109q-37 0 -31 33l13 65q6 35 39 35z" />
    <glyph glyph-name="afii61289" unicode="&#x2113;" horiz-adv-x="974" 
d="M522 156q38 0 86 8q18 4 26 -2q7 -5 5 -21l-6 -98q-4 -26 -37 -41q-48 -14 -125 -14q-244 0 -244 223q0 38 9 94l22 127q-72 -28 -156 -51q-22 -4 -22 14l-12 97q0 18 18 22q84 24 199 74l63 368q45 255 129 380q84 124 240 124q113 0 169 -62t56 -169q0 -37 -6 -76
q-60 -371 -481 -623l-33 -188q-8 -46 -8 -82q0 -56 25 -80q26 -24 83 -24zM537 993l-52 -291q262 192 303 459q9 59 9 66q0 88 -76 88q-127 0 -184 -322z" />
    <glyph glyph-name="trademark" unicode="&#x2122;" horiz-adv-x="1075" 
d="M545 1323h-101l-92 -526q-2 -23 -26 -23h-84q-23 0 -21 23l92 526h-98q-23 0 -18 25l14 69q5 23 25 23h327q26 0 21 -23l-13 -69q-5 -25 -26 -25zM827 946q-15 0 -20 17l-68 262l-73 -428q-2 -23 -29 -23h-80q-22 0 -20 23l110 620q5 23 25 23h84q18 0 26 -15l72 -305
l180 305q8 15 25 15h96q26 0 21 -23l-111 -620q-2 -23 -29 -23h-80q-20 0 -18 23l76 428l-158 -262q-17 -17 -29 -17z" />
    <glyph glyph-name="Omega" unicode="&#x2126;" horiz-adv-x="1142" 
d="M727 1460q190 0 304 -123t114 -325q0 -212 -93 -424q-93 -211 -261 -322l-19 -100l158 14q20 1 29 -6q11 -9 6 -27l-21 -112q-6 -35 -39 -35h-340l47 276q6 30 31 46q140 102 219 289q80 189 80 378q0 134 -62 211q-63 78 -165 78q-97 0 -174 -63q-76 -63 -119 -159
q-44 -100 -65 -201q-21 -103 -21 -200q0 -226 110 -333q22 -17 17 -46l-47 -276h-338q-17 0 -27 10t-6 25l21 112q6 37 45 33l155 -14l19 92q-69 58 -112 168q-44 112 -44 250q0 123 40 255q41 136 112 254q72 120 189 197q119 78 257 78z" />
    <glyph glyph-name="estimated" unicode="&#x212e;" horiz-adv-x="1753" 
d="M1679 686h-1286q-10 0 -10 -8v-379q0 -39 16 -59q170 -197 492 -197q324 0 516 223h119q-111 -132 -279 -209q-163 -75 -358 -75q-338 0 -573 215q-234 215 -234 518q0 307 230 521t569 214q338 0 568 -214t230 -521v-29zM1378 748v380q0 51 -22 74q-192 187 -473 187
q-289 0 -482 -199q-18 -18 -18 -60v-382q0 -13 10 -13h975q10 0 10 13z" />
    <glyph glyph-name="onethird" unicode="&#x2153;" horiz-adv-x="1454" 
d="M424 1239l-131 -109q-28 -21 -47 5l-39 55q-12 29 16 47l230 190q26 13 45 13h82q36 0 30 -35l-143 -811q-6 -35 -39 -35h-88q-37 0 -31 35zM1249 1405l-878 -1376q-18 -29 -47 -29h-105q-18 0 -21 10q-3 11 7 25l876 1378q23 27 47 27h105q34 0 16 -35zM965 383h63
q100 0 100 -86q0 -81 -47 -125q-46 -43 -131 -43q-45 0 -123 21q-28 7 -43 -23l-28 -76q-5 -18 22 -33q15 -8 75 -18q57 -10 108 -10q151 0 240 81t89 232q0 64 -23 104q-24 41 -63 52q66 23 105 94q39 72 39 152q0 92 -70 139t-186 47q-88 0 -158 -29q-29 -12 -27 -31
l4 -79q0 -29 29 -21q102 21 123 21q123 0 123 -76q0 -68 -36 -113t-97 -45h-64q-33 0 -39 -33l-12 -69q-6 -33 27 -33z" />
    <glyph glyph-name="twothirds" unicode="&#x2154;" horiz-adv-x="1454" 
d="M334 1171q0 -38 -39 -38h-82q-31 0 -31 24q0 127 69 210t210 83q109 0 164 -55t55 -138q0 -253 -361 -555h240q41 0 31 -32l-17 -78q-11 -33 -36 -33h-422q-39 0 -29 33l14 70q6 23 27 38q20 20 51 49t64 59q11 10 62 61q44 44 67 72q8 10 27 35.5t27 35.5q32 41 50 78
q18 36 30 72q13 39 13 77q5 74 -72 74q-112 0 -112 -142zM1298 1405l-342 -535l-20 -8q-29 -12 -27 -31l2 -34l-491 -768q-18 -29 -47 -29h-105q-18 0 -21 10q-3 11 7 25l877 1378q23 27 47 27h104q34 0 16 -35zM1030 383h-63q-33 0 -27 33l12 69q6 33 39 33h64q61 0 97 45
t36 113q0 76 -123 76q-21 0 -123 -21q-29 -8 -29 21l-2 45l45 73q62 21 138 21q116 0 186 -47t70 -139q0 -80 -39 -152q-39 -71 -105 -94q39 -11 63 -52q23 -40 23 -104q0 -151 -89 -232t-240 -81q-51 0 -108 10q-60 10 -75 18q-27 15 -22 33l28 76q15 30 43 23
q77 -21 123 -21q85 0 131 43q48 45 48 125q0 86 -101 86z" />
    <glyph glyph-name="oneeighth" unicode="&#x215b;" horiz-adv-x="1454" 
d="M424 1239l-131 -109q-28 -21 -47 5l-39 55q-12 29 16 47l230 190q26 13 45 13h82q36 0 30 -35l-143 -811q-6 -35 -39 -35h-88q-37 0 -31 35zM1266 1405l-879 -1376q-18 -29 -47 -29h-104q-19 0 -22 10q-3 11 7 25l877 1378q22 27 47 27h104q35 0 17 -35zM1069 -10
q127 0 212 76t85 210q0 128 -96 183q160 74 160 250q0 83 -63 132q-64 50 -163 50q-116 0 -200 -72t-84 -196q0 -119 86 -172q-181 -80 -181 -271q0 -86 66 -138q65 -52 178 -52zM1128 395q84 -43 84 -127q0 -58 -38 -102q-39 -45 -97 -45q-94 0 -94 88q0 57 42 107
q44 52 103 79zM1147 510q-72 44 -72 121q0 50 32 91q31 40 87 40q80 0 80 -70q0 -116 -127 -182z" />
    <glyph glyph-name="threeeighths" unicode="&#x215c;" horiz-adv-x="1454" 
d="M297 942h-64q-32 0 -26 33l12 69q6 33 39 33h64q61 0 97 45t36 113q0 76 -123 76q-21 0 -123 -21q-29 -8 -29 21l-4 80q-2 18 27 30q70 29 157 29q117 0 187 -47q69 -47 69 -139q0 -82 -38 -152q-39 -71 -105 -94q39 -11 63 -52q23 -40 23 -104q0 -151 -89 -232
q-88 -81 -241 -81q-50 0 -107 10t-75 19q-26 15 -22 32l28 76q15 30 43 23q78 -21 123 -21q85 0 131 43q47 44 47 125q0 86 -100 86zM1280 1405l-879 -1376q-18 -29 -47 -29h-104q-19 0 -22 10t8 25l876 1378q22 27 47 27h105q34 0 16 -35zM1069 -10q-113 0 -178 52
q-66 52 -66 138q0 191 181 271q-86 53 -86 172q0 124 84 196t200 72q99 0 163 -50q63 -49 63 -132q0 -176 -160 -250q96 -55 96 -183q0 -134 -85 -210t-212 -76zM1128 395q-59 -27 -103 -79q-42 -50 -42 -107q0 -88 94 -88q58 0 97 45q38 44 38 102q0 84 -84 127zM1147 510
q127 66 127 182q0 70 -80 70q-56 0 -87 -40q-32 -41 -32 -91q0 -77 72 -121z" />
    <glyph glyph-name="fiveeighths" unicode="&#x215d;" horiz-adv-x="1454" 
d="M285 545q159 0 250 96q92 97 92 260q0 91 -52 151q-51 58 -151 58q-49 0 -82 -10q20 79 43 192h242q28 0 39 35l14 76q8 33 -29 33h-346q-35 0 -41 -35q-5 -28 -23 -109q-15 -69 -36 -156q-20 -82 -27 -118q-5 -18 10 -33l17 -14q4 -4 28 -4q10 0 56 8t80 8q96 0 96 -96
q0 -201 -184 -201q-75 0 -121 14q-31 8 -43 -22l-29 -74q-8 -25 21 -37q37 -22 176 -22zM1284 1405l-878 -1376q-18 -29 -48 -29h-104q-19 0 -22 10t8 25l876 1378q22 27 47 27h105q34 0 16 -35zM1069 -10q127 0 212 76t85 210q0 128 -96 183q160 74 160 250q0 83 -63 132
q-64 50 -163 50q-116 0 -200 -72t-84 -196q0 -119 86 -172q-181 -80 -181 -271q0 -86 66 -138q65 -52 178 -52zM1128 395q84 -43 84 -127q0 -58 -38 -102q-39 -45 -97 -45q-94 0 -94 88q0 57 42 107q44 52 103 79zM1147 510q-72 44 -72 121q0 50 32 91q31 40 87 40
q80 0 80 -70q0 -116 -127 -182z" />
    <glyph glyph-name="seveneighths" unicode="&#x215e;" horiz-adv-x="1454" 
d="M721 1407l-14 -66q0 -9 -23 -47q-127 -165 -224 -355q-99 -194 -120 -343q-7 -37 -41 -37h-94q-33 0 -27 35q44 310 352 702h-290q-34 0 -29 33l16 78q6 33 37 33h428q35 0 29 -33zM1210 1405l-878 -1376q-18 -29 -47 -29h-105q-18 0 -21 10q-3 11 7 25l876 1378
q22 27 48 27h104q34 0 16 -35zM1069 -10q-113 0 -178 52q-66 52 -66 138q0 191 181 271q-86 53 -86 172q0 124 84 196t200 72q99 0 163 -50q63 -49 63 -132q0 -176 -160 -250q96 -55 96 -183q0 -134 -85 -210t-212 -76zM1128 395q-59 -27 -103 -79q-42 -50 -42 -107
q0 -88 94 -88q58 0 97 45q38 44 38 102q0 84 -84 127zM1147 510q127 66 127 182q0 70 -80 70q-56 0 -87 -40q-32 -41 -32 -91q0 -77 72 -121z" />
    <glyph glyph-name="arrowleft" unicode="&#x2190;" horiz-adv-x="1009" 
d="M684 987l-317 -352l526 2q37 0 31 -35l-17 -98q-6 -33 -41 -33l-528 2l192 -352q8 -11 1 -24t-25 -13h-137q-26 0 -33 20l-227 420q-8 16 -7 29q0 12 17 29l373 419q1 1 12 11q8 8 13 10q6 2 18 2h137q16 0 20 -14q5 -15 -8 -23z" />
    <glyph glyph-name="arrowup" unicode="&#x2191;" horiz-adv-x="1009" 
d="M944 516l-307 254l-90 -528q-6 -35 -41 -35h-96q-36 0 -31 35l96 528l-399 -254q-10 -10 -22 -6q-10 4 -9 20l25 140q5 25 26 39l473 301q17 10 31 10q9 0 25 -10l370 -301q19 -19 15 -39l-25 -140q-1 -15 -17 -20t-24 6z" />
    <glyph glyph-name="arrowright" unicode="&#x2192;" horiz-adv-x="1009" 
d="M700 635l-192 352q-8 11 -3 24q4 13 21 13h140q27 0 39 -23l227 -419q4 -21 4 -29q-1 -10 -14 -29l-375 -420q-20 -20 -47 -20h-140q-10 0 -14 6q-4 5 -2 14t10 17l320 352l-531 -2q-34 0 -28 33l16 98q6 35 41 35z" />
    <glyph glyph-name="arrowdown" unicode="&#x2193;" horiz-adv-x="1009" 
d="M90 592l309 -256l93 528q4 37 38 37h99q34 0 28 -37l-96 -528l395 256q16 8 27 4q12 -4 10 -21l-24 -139q-4 -20 -29 -37l-475 -303q-11 -10 -29 -10q-14 0 -28 10l-367 303q-16 16 -12 37l24 139q1 10 10 17q7 6 17 6q8 0 10 -6z" />
    <glyph glyph-name="arrowboth" unicode="&#x2194;" horiz-adv-x="1517" 
d="M1208 635l-190 352q-8 11 -3 24q4 13 21 13h140q24 0 36 -23l230 -419q4 -21 4 -29l-14 -29l-375 -420q-21 -20 -47 -20h-140q-10 0 -14 6q-4 5 -2 14t10 17l318 352l-422 -4l-422 4l192 -352q8 -11 1 -24t-25 -13h-137q-26 0 -33 20l-227 420q-8 16 -7 29q0 7 17 29
l373 419q1 1 12 11q8 8 13 10q6 2 18 2h137q16 0 20 -14q5 -15 -8 -23l-317 -352l421 2z" />
    <glyph glyph-name="arrowupdn" unicode="&#x2195;" horiz-adv-x="1009" 
d="M522 119l398 254q12 10 25 6t11 -21l-26 -139q-1 -20 -27 -39l-475 -301q-18 -12 -29 -12q-21 0 -26 12l-367 301q-20 15 -18 39l26 139q1 16 17 21q15 4 22 -6l309 -254l74 432l78 438l-397 -256q-13 -8 -24 -5t-9 20l22 139q7 28 31 41l473 299q12 12 29 12
q11 0 29 -12l366 -299q21 -21 15 -41l-23 -139q-2 -16 -18 -21q-17 -5 -25 6l-309 256l-70 -438z" />
    <glyph glyph-name="arrowupleft" unicode="&#x2196;" horiz-adv-x="1009" 
d="M920 809l-443 -70l309 -370q23 -23 -8 -52l-80 -65q-33 -28 -49 0l-305 375l-145 -430q-5 -15 -17 -20t-22 5l-82 99q-12 12 -6 43l174 510q5 13 18 26q10 10 29 12l524 86q32 2 43 -12l82 -100q8 -11 0 -23q-8 -13 -22 -14z" />
    <glyph glyph-name="arrowupright" unicode="&#x2197;" horiz-adv-x="1009" 
d="M629 739l-420 70q-11 1 -16 14q-5 12 8 23l116 100q19 14 45 12l494 -86q14 -1 25 -12q8 -11 8 -26l-2 -510q-1 -26 -23 -43l-116 -99q-12 -12 -24 -5q-11 7 -9 20l6 430l-438 -375q-31 -28 -50 0l-55 65q-21 27 8 52z" />
    <glyph glyph-name="arrowdownright" unicode="&#x2198;" horiz-adv-x="1009" 
d="M111 262l444 70l-307 373q-21 18 4 47l82 67q30 27 51 0l305 -375l146 433q5 12 16 18q13 6 20 -4l82 -100q15 -17 9 -41l-179 -512q-8 -16 -16 -25q-17 -13 -29 -14l-526 -86q-27 -1 -41 14l-82 98q-8 13 1 25t20 12z" />
    <glyph glyph-name="arrowdownleft" unicode="&#x2199;" horiz-adv-x="1009" 
d="M406 332l415 -70q15 -1 19 -13q4 -11 -9 -24l-116 -98q-17 -16 -47 -14l-492 86q-14 4 -24 14q-5 5 -9 25l4 512q5 30 19 41l119 100q14 10 25 4q11 -5 9 -18l-6 -433l437 375q28 28 49 0l53 -67q27 -24 -6 -47z" />
    <glyph glyph-name="partialdiff" unicode="&#x2202;" horiz-adv-x="964" 
d="M459 1270q-20 -4 -28 2q-7 6 -3 22l8 101q2 29 43 41q89 24 189 24q327 0 327 -334q0 -96 -21 -232q-20 -133 -74 -298q-52 -161 -123 -298q-70 -135 -183 -227q-112 -91 -244 -91q-147 0 -231 92t-84 239q0 153 55 293q56 141 171 240q114 98 267 98q211 0 234 -158
q43 171 43 318q0 95 -44 141q-43 45 -138 45q-31 0 -63 -3q-21 -2 -61 -8q-11 -2 -24.5 -4.5t-15.5 -2.5zM360 152q96 0 170 90q75 92 106 200q32 113 32 211q0 64 -30 91q-31 28 -103 28q-99 0 -174 -81t-105 -180q-31 -102 -31 -189q0 -76 36 -123t99 -47z" />
    <glyph glyph-name="Delta" unicode="&#x2206;" horiz-adv-x="1032" 
d="M586 1450h198q32 0 37 -41l49 -1358q4 -51 -49 -51h-774q-50 0 -35 51l518 1358q23 41 56 41zM651 1262l-389 -1086h404l-7 1086h-8z" />
    <glyph glyph-name="product" unicode="&#x220f;" horiz-adv-x="1116" 
d="M193 1296l16 107q6 37 45 37h950q37 0 31 -37l-18 -107q-6 -39 -43 -39h-136l-215 -1220q-6 -37 -43 -37h-121q-39 0 -32 37l215 1220h-289l-215 -1220q-10 -37 -43 -37h-121q-39 0 -33 37l217 1220h-133q-38 0 -32 39z" />
    <glyph glyph-name="summation" unicode="&#x2211;" horiz-adv-x="849" 
d="M598 555l-397 -604h454q37 0 31 -37l-18 -102q-6 -37 -41 -37h-643q-41 0 -35 35l22 110q6 35 27 53l420 641l-193 629q-10 26 -4 51l17 109q6 37 43 37h628q37 0 31 -37l-18 -103q-6 -38 -43 -38h-443l185 -594q4 -14 2 -33l-7 -41q-2 -22 -18 -39z" />
    <glyph glyph-name="minus" unicode="&#x2212;" horiz-adv-x="974" 
d="M868 641h-700q-37 0 -31 33l19 94q2 33 41 33h700q31 0 29 -33l-19 -94q-6 -33 -39 -33z" />
    <glyph glyph-name="uni2215" unicode="&#x2215;" horiz-adv-x="131" 
d="M633 1405l-879 -1376q-18 -29 -47 -29h-104q-19 0 -22 10q-3 11 7 25l877 1378q23 27 47 27h104q35 0 17 -35z" />
    <glyph glyph-name="uni2219" unicode="&#x2219;" horiz-adv-x="380" 
d="M88 469l31 162q6 37 43 37h127q36 0 30 -37l-30 -162q-6 -37 -39 -37h-131q-37 0 -31 37z" />
    <glyph glyph-name="radical" unicode="&#x221a;" horiz-adv-x="1136" 
d="M553 -143h-160q-33 0 -39 34l-59 945h-127q-38 0 -31 34l17 97q1 34 39 34h251q32 0 39 -34l31 -840h6l510 1403q16 37 49 37h135q37 0 19 -41l-631 -1635q-16 -34 -49 -34z" />
    <glyph glyph-name="infinity" unicode="&#x221e;" horiz-adv-x="1081" 
d="M635 950q72 111 219 111q207 0 207 -223q0 -76 -17 -155q-17 -77 -52 -148q-37 -73 -103 -116q-68 -44 -158 -44q-149 0 -196 108q-79 -108 -224 -108q-219 0 -219 229q0 175 87 316t255 141q148 0 201 -111zM496 672l61 166q-16 104 -121 104q-63 0 -108 -60
q-46 -62 -61 -132q-15 -72 -15 -144q0 -108 86 -108q58 0 88 34q31 36 70 140zM672 762l-62 -166q21 -102 125 -102q67 0 110 62t58 134t15 139q0 107 -89 107q-57 0 -89 -36q-30 -34 -68 -138z" />
    <glyph glyph-name="integral" unicode="&#x222b;" horiz-adv-x="667" 
d="M166 61l199 1123q27 152 81 213q55 63 175 63q63 0 96 -10q24 -4 24 -39l-26 -96q-6 -37 -39 -33h-31q-42 0 -62 -25t-32 -92l-197 -1124q-24 -147 -82 -211q-57 -63 -178 -63q-66 0 -90 8q-29 5 -29 35l29 100q0 37 37 33q8 0 16 -1t15 -1q43 0 62 26q20 28 32 94z" />
    <glyph glyph-name="approxequal" unicode="&#x2248;" horiz-adv-x="974" 
d="M901 567q-34 -194 -223 -194q-74 0 -164 41l-78 39q-81 36 -119 36q-57 0 -79 -65q0 2 -4 -4q-2 -2 -3 -4l-4 -6q-15 -29 -47 -29h-67q-43 0 -27 61q39 197 225 197q73 0 162 -43l82 -37q65 -31 115 -31q71 0 82 60q1 2 2 5t1.5 5t1.5 3.5t1 2.5q18 27 47 27h67
q46 0 29 -64zM981 1018q-35 -193 -225 -193q-71 0 -164 41l-76 37q-81 37 -119 37q-59 0 -82 -66q-1 -6 -8 -14q-12 -26 -47 -26h-70q-40 0 -24 61q40 192 225 192q76 0 162 -38l80 -39q71 -31 115 -31q67 0 83 59l9 15q12 28 43 28h69q46 0 29 -63z" />
    <glyph glyph-name="notequal" unicode="&#x2260;" horiz-adv-x="974" 
d="M834 453h-349l-198 -418q-15 -35 -45 -35h-90q-42 0 -27 37l194 416h-184q-35 0 -29 32l17 93q1 34 39 34h248l92 238h-297q-33 0 -31 35l16 92q8 33 43 33h361l190 403q15 27 41 27h97q44 0 20 -41l-182 -389h172q39 0 31 -33l-19 -92q-2 -35 -39 -35h-235l-97 -238h287
q34 0 33 -34l-16 -93q-6 -32 -43 -32z" />
    <glyph glyph-name="lessequal" unicode="&#x2264;" horiz-adv-x="974" 
d="M178 780q1 9 19 27l630 524q33 24 50 0l55 -76q25 -25 -8 -47l-516 -430l364 -430q24 -21 -8 -47l-82 -76q-22 -22 -49 0l-445 525q-12 12 -10 30zM688 0h-602q-37 0 -31 35l15 74q6 34 41 34h600q35 0 28 -34l-12 -74q-11 -35 -39 -35z" />
    <glyph glyph-name="greaterequal" unicode="&#x2265;" horiz-adv-x="974" 
d="M907 780q-1 -14 -20 -30l-631 -525q-28 -27 -51 0l-53 76q-21 26 8 49l518 430l-367 428q-22 22 8 49l80 74q34 24 52 0l446 -524q15 -15 10 -27zM727 0h-602q-40 0 -29 35l13 74q6 34 38 34h601q38 0 32 -34l-14 -74q-6 -35 -39 -35z" />
    <glyph glyph-name="lozenge" unicode="&#x25ca;" horiz-adv-x="1032" 
d="M481 270l287 449l-129 450l-289 -450zM428 -18q-16 0 -20 18l-263 698q-4 15 -4 21q3 8 11 24l507 697q12 18 31 18q16 0 23 -18l262 -697q6 -16 4 -24q-5 -14 -12 -21l-506 -698q-15 -18 -33 -18z" />
    <glyph glyph-name="uniE000" unicode="&#xe000;" horiz-adv-x="1024" 
 />
    <glyph glyph-name="Q.alt" unicode="&#xe001;" horiz-adv-x="1005" 
d="M657 1458q171 0 259 -94q90 -96 90 -311q0 -129 -35 -334q-66 -373 -174 -538q-108 -164 -291 -187l-21 -180q-1 -39 -43 -39h-127q-40 0 -28 39l45 180q-248 44 -248 403q0 121 35 322q74 412 198 575q125 164 340 164zM446 164q118 0 191 121q74 122 129 434
q35 208 35 321q0 132 -39 185t-119 53q-117 0 -189 -122q-74 -125 -126 -435q-37 -215 -37 -322q0 -129 39 -182t116 -53z" />
    <glyph glyph-name="a.alt" unicode="&#xe002;" horiz-adv-x="876" 
d="M618 551q21 127 21 194q0 209 -133 209q-88 0 -142 -94q-55 -96 -92 -309q-24 -151 -24 -223q0 -178 119 -178q182 0 251 401zM895 1067l-182 -1030q-7 -37 -39 -37h-115q-39 0 -33 33l17 96q-76 -145 -232 -145q-122 0 -191 79t-69 244q0 91 27 244q52 294 148 432
q95 137 253 137q80 0 139 -43q60 -44 72 -102l19 96q7 33 45 33h114q33 0 27 -37z" />
    <glyph glyph-name="u.alt" unicode="&#xe003;" horiz-adv-x="835" 
d="M356 -16q-301 0 -301 270q0 59 11 111l122 702q6 37 41 37h119q37 0 27 -37l-121 -692q-10 -59 -10 -96q0 -65 27 -93t94 -28q85 0 124 51t60 166l121 692q10 37 43 37h116q35 0 29 -37l-123 -702q-38 -199 -124 -290q-87 -91 -255 -91z" />
    <glyph glyph-name="y.alt" unicode="&#xe004;" horiz-adv-x="833" 
d="M502 129l18 98q-88 -135 -229 -135q-109 0 -166 66t-57 180q0 48 8 94l112 635q6 37 41 37h119q37 0 27 -37l-105 -602q-10 -53 -10 -86q0 -113 98 -113q78 0 135 71q54 67 76 189l95 541q6 37 43 37h118q33 0 27 -37l-168 -948q-62 -361 -414 -361q-157 0 -235 33
q-30 15 -23 45l19 90q6 38 47 27q110 -31 188 -31q199 0 236 207z" />
    <glyph glyph-name="j.alt" unicode="&#xe005;" horiz-adv-x="382" 
d="M391 1067l-221 -1255q-6 -37 -41 -37h-119q-34 0 -28 37l221 1255q6 37 43 37h119q32 0 26 -37zM453 1397l-23 -133q-7 -37 -39 -37h-129q-35 0 -29 37l25 133q6 35 39 35h127q37 0 29 -35z" />
    <glyph glyph-name="agrave.alt" unicode="&#xe006;" horiz-adv-x="876" 
d="M618 551q21 127 21 194q0 209 -133 209q-88 0 -142 -94q-55 -96 -92 -309q-24 -151 -24 -223q0 -178 119 -178q182 0 251 401zM895 1067l-182 -1030q-7 -37 -39 -37h-115q-39 0 -33 33l17 96q-76 -145 -232 -145q-122 0 -191 79t-69 244q0 91 27 244q52 294 148 432
q95 137 253 137q80 0 139 -43q60 -44 72 -102l19 96q7 33 45 33h114q33 0 27 -37zM616 1395l46 -162q6 -29 -27 -29h-68q-25 0 -43 21l-116 157q-11 13 -5 26t25 13h152q26 0 36 -26z" />
    <glyph glyph-name="aacute.alt" unicode="&#xe007;" horiz-adv-x="876" 
d="M618 551q21 127 21 194q0 209 -133 209q-88 0 -142 -94q-55 -96 -92 -309q-24 -151 -24 -223q0 -178 119 -178q182 0 251 401zM895 1067l-182 -1030q-7 -37 -39 -37h-115q-39 0 -33 33l17 96q-76 -145 -232 -145q-122 0 -191 79t-69 244q0 91 27 244q52 294 148 432
q95 137 253 137q80 0 139 -43q60 -44 72 -102l19 96q7 33 45 33h114q33 0 27 -37zM487 1233l99 162q17 26 43 26h157q19 0 22 -13q3 -15 -11 -26l-168 -157q-23 -21 -49 -21h-76q-32 0 -17 29z" />
    <glyph glyph-name="acircumflex.alt" unicode="&#xe008;" horiz-adv-x="876" 
d="M618 551q21 127 21 194q0 209 -133 209q-88 0 -142 -94q-55 -96 -92 -309q-24 -151 -24 -223q0 -178 119 -178q182 0 251 401zM895 1067l-182 -1030q-7 -37 -39 -37h-115q-39 0 -33 33l17 96q-76 -145 -232 -145q-122 0 -191 79t-69 244q0 91 27 244q52 294 148 432
q95 137 253 137q80 0 139 -43q60 -44 72 -102l19 96q7 33 45 33h114q33 0 27 -37zM672 1225l-78 102l-111 -102q-27 -21 -47 -21h-88q-17 0 -18 11q-2 12 10 24l172 174q22 21 49 21h90q30 0 45 -21l113 -174q7 -12 3 -24q-4 -11 -21 -11h-76q-22 0 -43 21z" />
    <glyph glyph-name="atilde.alt" unicode="&#xe009;" horiz-adv-x="876" 
d="M618 551q21 127 21 194q0 209 -133 209q-88 0 -142 -94q-55 -96 -92 -309q-24 -151 -24 -223q0 -178 119 -178q182 0 251 401zM895 1067l-182 -1030q-7 -37 -39 -37h-115q-39 0 -33 33l17 96q-76 -145 -232 -145q-122 0 -191 79t-69 244q0 91 27 244q52 294 148 432
q95 137 253 137q80 0 139 -43q60 -44 72 -102l19 96q7 33 45 33h114q33 0 27 -37zM846 1335q-21 -135 -133 -135q-74 0 -135 35l-48 31q-3 2 -11.5 6.5t-13.5 6.5q-13 5 -21 5h-15q-7 0 -11 -4q-3 -3 -9 -7q-5 -4 -8 -10l-4 -12q-2 -6 -3 -10l-2 -8v-8q-8 -21 -35 -21h-47
q-36 0 -26 43q21 139 137 139q60 0 131 -36l49 -29q35 -21 57 -21q33 0 39 50v8q6 24 37 24h49q34 0 23 -47z" />
    <glyph glyph-name="adieresis.alt" unicode="&#xe00a;" horiz-adv-x="876" 
d="M618 551q21 127 21 194q0 209 -133 209q-88 0 -142 -94q-55 -96 -92 -309q-24 -151 -24 -223q0 -178 119 -178q182 0 251 401zM895 1067l-182 -1030q-7 -37 -39 -37h-115q-39 0 -33 33l17 96q-76 -145 -232 -145q-122 0 -191 79t-69 244q0 91 27 244q52 294 148 432
q95 137 253 137q80 0 139 -43q60 -44 72 -102l19 96q7 33 45 33h114q33 0 27 -37zM541 1339l-17 -102q-8 -33 -41 -33h-114q-37 0 -31 33l18 102q6 35 41 35h115q35 0 29 -35zM827 1339l-18 -102q-6 -33 -39 -33h-117q-34 0 -28 33l16 102q8 35 43 35h115q34 0 28 -35z" />
    <glyph glyph-name="amacron.alt" unicode="&#xe00b;" horiz-adv-x="876" 
d="M618 551q21 127 21 194q0 209 -133 209q-88 0 -142 -94q-55 -96 -92 -309q-24 -151 -24 -223q0 -178 119 -178q182 0 251 401zM895 1067l-182 -1030q-7 -37 -39 -37h-115q-39 0 -33 33l17 96q-76 -145 -232 -145q-122 0 -191 79t-69 244q0 91 27 244q52 294 148 432
q95 137 253 137q80 0 139 -43q60 -44 72 -102l19 96q7 33 45 33h114q33 0 27 -37zM786 1212h-428q-34 0 -28 35l8 53q11 35 39 35h430q38 0 27 -35l-7 -53q-8 -35 -41 -35z" />
    <glyph glyph-name="abreve.alt" unicode="&#xe00c;" horiz-adv-x="876" 
d="M618 551q21 127 21 194q0 209 -133 209q-88 0 -142 -94q-55 -96 -92 -309q-24 -151 -24 -223q0 -178 119 -178q182 0 251 401zM895 1067l-182 -1030q-7 -37 -39 -37h-115q-39 0 -33 33l17 96q-76 -145 -232 -145q-122 0 -191 79t-69 244q0 91 27 244q52 294 148 432
q95 137 253 137q80 0 139 -43q60 -44 72 -102l19 96q7 33 45 33h114q33 0 27 -37zM584 1200q-114 0 -172 53t-41 144q6 26 32 26h68q17 0 21 -6q4 -5 2 -20q-2 -45 20 -65q22 -21 76 -21q97 0 121 86q7 26 37 26h67q24 0 23 -26q-41 -197 -254 -197z" />
    <glyph glyph-name="aring.alt" unicode="&#xe00d;" horiz-adv-x="876" 
d="M618 551q21 127 21 194q0 209 -133 209q-88 0 -142 -94q-55 -96 -92 -309q-24 -151 -24 -223q0 -178 119 -178q182 0 251 401zM895 1067l-182 -1030q-7 -37 -39 -37h-115q-39 0 -33 33l17 96q-76 -145 -232 -145q-122 0 -191 79t-69 244q0 91 27 244q52 294 148 432
q95 137 253 137q80 0 139 -43q60 -44 72 -102l19 96q7 33 45 33h114q33 0 27 -37zM590 1280q37 0 68 28q30 27 30 70q0 72 -78 72q-44 0 -72 -28t-28 -74q0 -32 22 -50t58 -18zM623 1540q72 0 119 -41q46 -40 46 -106q0 -90 -59 -146q-60 -57 -154 -57q-74 0 -120 41
q-45 41 -45 104q0 89 58 147t155 58z" />
    <glyph glyph-name="aringacute.alt" unicode="&#xe00e;" horiz-adv-x="876" 
d="M895 1067l-182 -1030q-7 -37 -39 -37h-115q-39 0 -33 33l17 96q-76 -145 -232 -145q-122 0 -191 79t-69 244q0 91 27 244q52 294 148 432q95 137 253 137q80 0 139 -43q60 -44 72 -102l19 96q7 33 45 33h114q33 0 27 -37zM618 551q21 127 21 194q0 209 -133 209
q-88 0 -142 -94q-55 -96 -92 -309q-24 -151 -24 -223q0 -178 119 -178q182 0 251 401zM410 1335q0 70 37 122t104 73l74 121q17 26 43 26h157q19 0 22 -13q3 -15 -11 -26l-125 -118q77 -40 77 -127q0 -90 -59 -146q-60 -57 -154 -57q-74 0 -120 41q-45 41 -45 104zM590 1280
q37 0 68 28q30 27 30 70q0 72 -78 72q-44 0 -72 -28t-28 -74q0 -32 22 -50t58 -18z" />
    <glyph glyph-name="aogonek.alt" unicode="&#xe00f;" horiz-adv-x="876" 
d="M895 1067l-182 -1030q-7 -37 -39 -37h-6q-117 -72 -117 -143q0 -39 57 -39q22 0 30 1t19 1q19 0 17 -19l-2 -53q-2 -25 -23 -31q-37 -18 -82 -18q-62 0 -106 29q-43 28 -43 77q0 117 155 195h-14q-39 0 -33 33l17 96q-76 -145 -232 -145q-122 0 -191 79t-69 244
q0 91 27 244q52 294 148 432q95 137 253 137q80 0 139 -43q60 -44 72 -102l19 96q7 33 45 33h114q33 0 27 -37zM618 551q21 127 21 194q0 209 -133 209q-88 0 -142 -94q-55 -96 -92 -309q-24 -151 -24 -223q0 -178 119 -178q182 0 251 401z" />
    <glyph glyph-name="ij.alt" unicode="&#xe010;" horiz-adv-x="751" 
d="M391 1067l-182 -1030q-6 -37 -39 -37h-119q-37 0 -31 37l183 1030q6 37 43 37h119q32 0 26 -37zM453 1397l-23 -133q-7 -37 -39 -37h-129q-35 0 -29 37l25 133q6 35 39 35h127q37 0 29 -35zM760 1067l-221 -1255q-6 -37 -41 -37h-119q-35 0 -29 37l221 1255q6 37 43 37
h119q33 0 27 -37zM821 1397l-22 -133q-7 -37 -39 -37h-129q-35 0 -29 37l25 133q6 35 39 35h127q36 0 28 -35z" />
    <glyph glyph-name="jcircumflex.alt" unicode="&#xe011;" horiz-adv-x="387" 
d="M391 1067l-221 -1255q-6 -37 -41 -37h-119q-34 0 -28 37l221 1255q6 37 43 37h119q32 0 26 -37zM426 1225l-78 102l-110 -102q-27 -21 -48 -21h-88q-17 0 -18 11q-2 12 10 24l172 174q22 21 49 21h91q30 0 45 -21l112 -174q7 -12 3 -24q-4 -11 -21 -11h-76q-22 0 -43 21z
" />
    <glyph glyph-name="dotlessj.alt" unicode="&#xe012;" horiz-adv-x="382" 
d="M391 1067l-221 -1255q-6 -37 -41 -37h-119q-34 0 -28 37l221 1255q6 37 43 37h119q32 0 26 -37z" />
    <glyph glyph-name="ugrave.alt" unicode="&#xe013;" horiz-adv-x="835" 
d="M356 -16q-301 0 -301 270q0 59 11 111l122 702q6 37 41 37h119q37 0 27 -37l-121 -692q-10 -59 -10 -96q0 -65 27 -93t94 -28q85 0 124 51t60 166l121 692q10 37 43 37h116q35 0 29 -37l-123 -702q-38 -199 -124 -290q-87 -91 -255 -91zM573 1395l45 -162q8 -29 -26 -29
h-68q-25 0 -43 21l-116 157q-11 13 -5 26t25 13h152q26 0 36 -26z" />
    <glyph glyph-name="uacute.alt" unicode="&#xe014;" horiz-adv-x="835" 
d="M356 -16q-301 0 -301 270q0 59 11 111l122 702q6 37 41 37h119q37 0 27 -37l-121 -692q-10 -59 -10 -96q0 -65 27 -93t94 -28q85 0 124 51t60 166l121 692q10 37 43 37h116q35 0 29 -37l-123 -702q-38 -199 -124 -290q-87 -91 -255 -91zM485 1233l99 162q17 26 43 26h157
q19 0 22 -13q3 -15 -11 -26l-168 -157q-23 -21 -49 -21h-76q-32 0 -17 29z" />
    <glyph glyph-name="ucircumflex.alt" unicode="&#xe015;" horiz-adv-x="835" 
d="M356 -16q-301 0 -301 270q0 59 11 111l122 702q6 37 41 37h119q37 0 27 -37l-121 -692q-10 -59 -10 -96q0 -65 27 -93t94 -28q85 0 124 51t60 166l121 692q10 37 43 37h116q35 0 29 -37l-123 -702q-38 -199 -124 -290q-87 -91 -255 -91zM651 1225l-78 102l-110 -102
q-27 -21 -47 -21h-88q-18 0 -19 11q-2 12 10 24l173 174q22 21 49 21h90q30 0 45 -21l112 -174q8 -13 4 -24t-22 -11h-76q-22 0 -43 21z" />
    <glyph glyph-name="utilde.alt" unicode="&#xe016;" horiz-adv-x="835" 
d="M356 -16q-301 0 -301 270q0 59 11 111l122 702q6 37 41 37h119q37 0 27 -37l-121 -692q-10 -59 -10 -96q0 -65 27 -93t94 -28q85 0 124 51t60 166l121 692q10 37 43 37h116q35 0 29 -37l-123 -702q-38 -199 -124 -290q-87 -91 -255 -91zM823 1335q-21 -135 -133 -135
q-74 0 -135 35l-47 31l-26 13q-13 5 -20 5h-16q-7 0 -11 -4q-3 -3 -9 -7q-4 -3 -7 -10l-4 -12q-2 -6 -3 -10l-2 -8v-8q-8 -21 -35 -21h-47q-37 0 -27 43q21 139 137 139q60 0 131 -36l49 -29q34 -21 58 -21q33 0 39 50v8q6 24 37 24h49q33 0 22 -47z" />
    <glyph glyph-name="udieresis.alt" unicode="&#xe017;" horiz-adv-x="835" 
d="M356 -16q-301 0 -301 270q0 59 11 111l122 702q6 37 41 37h119q37 0 27 -37l-121 -692q-10 -59 -10 -96q0 -65 27 -93t94 -28q85 0 124 51t60 166l121 692q10 37 43 37h116q35 0 29 -37l-123 -702q-38 -199 -124 -290q-87 -91 -255 -91zM520 1339l-16 -102
q-7 -33 -41 -33h-115q-37 0 -31 33l19 102q6 35 41 35h115q34 0 28 -35zM807 1339l-19 -102q-6 -33 -38 -33h-117q-35 0 -29 33l17 102q8 35 43 35h114q35 0 29 -35z" />
    <glyph glyph-name="umacron.alt" unicode="&#xe018;" horiz-adv-x="835" 
d="M356 -16q-301 0 -301 270q0 59 11 111l122 702q6 37 41 37h119q37 0 27 -37l-121 -692q-10 -59 -10 -96q0 -65 27 -93t94 -28q85 0 124 51t60 166l121 692q10 37 43 37h116q35 0 29 -37l-123 -702q-38 -199 -124 -290q-87 -91 -255 -91zM764 1212h-428q-35 0 -29 35l8 53
q11 35 39 35h430q38 0 27 -35l-6 -53q-8 -35 -41 -35z" />
    <glyph glyph-name="ubreve.alt" unicode="&#xe019;" horiz-adv-x="835" 
d="M356 -16q-301 0 -301 270q0 59 11 111l122 702q6 37 41 37h119q37 0 27 -37l-121 -692q-10 -59 -10 -96q0 -65 27 -93t94 -28q85 0 124 51t60 166l121 692q10 37 43 37h116q35 0 29 -37l-123 -702q-38 -199 -124 -290q-87 -91 -255 -91zM561 1200q-114 0 -172 53t-41 144
q6 26 33 26h68q15 0 20 -6q4 -5 2 -20q-2 -44 21 -65q22 -21 75 -21q97 0 121 86q7 26 37 26h68q23 0 22 -26q-41 -197 -254 -197z" />
    <glyph glyph-name="uring.alt" unicode="&#xe01a;" horiz-adv-x="835" 
d="M356 -16q-301 0 -301 270q0 59 11 111l122 702q6 37 41 37h119q37 0 27 -37l-121 -692q-10 -59 -10 -96q0 -65 27 -93t94 -28q85 0 124 51t60 166l121 692q10 37 43 37h116q35 0 29 -37l-123 -702q-38 -199 -124 -290q-87 -91 -255 -91zM567 1280q38 0 69 28q30 27 30 70
q0 72 -78 72q-45 0 -73 -28t-28 -74q0 -32 23 -50q22 -18 57 -18zM600 1540q73 0 120 -41q46 -40 46 -106q0 -90 -59 -146q-60 -57 -154 -57q-75 0 -121 41q-45 41 -45 104q0 89 58 147t155 58z" />
    <glyph glyph-name="uhungarumlaut.alt" unicode="&#xe01b;" horiz-adv-x="835" 
d="M356 -16q-301 0 -301 270q0 59 11 111l122 702q6 37 41 37h119q37 0 27 -37l-121 -692q-10 -59 -10 -96q0 -65 27 -93t94 -28q85 0 124 51t60 166l121 692q10 37 43 37h116q35 0 29 -37l-123 -702q-38 -199 -124 -290q-87 -91 -255 -91zM358 1233l95 162q14 26 45 26h123
q18 0 21 -12t-9 -27l-144 -157q-18 -21 -49 -21h-65q-35 0 -17 29zM627 1233l94 162q17 26 43 26h125q18 0 21 -13q3 -14 -9 -26l-143 -157q-18 -21 -51 -21h-64q-31 0 -16 29z" />
    <glyph glyph-name="ydieresis.alt" unicode="&#xe01c;" horiz-adv-x="833" 
d="M502 129l18 98q-88 -135 -229 -135q-109 0 -166 66t-57 180q0 48 8 94l112 635q6 37 41 37h119q37 0 27 -37l-105 -602q-10 -53 -10 -86q0 -113 98 -113q78 0 135 71q54 67 76 189l95 541q6 37 43 37h118q33 0 27 -37l-168 -948q-62 -361 -414 -361q-157 0 -235 33
q-30 15 -23 45l19 90q6 38 47 27q110 -31 188 -31q199 0 236 207zM518 1339l-16 -102q-8 -33 -41 -33h-115q-37 0 -31 33l19 102q6 35 41 35h114q35 0 29 -35zM805 1339l-19 -102q-6 -33 -38 -33h-117q-35 0 -29 33l16 102q8 35 44 35h114q35 0 29 -35z" />
    <glyph glyph-name="yacute.alt" unicode="&#xe01d;" horiz-adv-x="833" 
d="M502 129l18 98q-88 -135 -229 -135q-109 0 -166 66t-57 180q0 48 8 94l112 635q6 37 41 37h119q37 0 27 -37l-105 -602q-10 -53 -10 -86q0 -113 98 -113q78 0 135 71q54 67 76 189l95 541q6 37 43 37h118q33 0 27 -37l-168 -948q-62 -361 -414 -361q-157 0 -235 33
q-30 15 -23 45l19 90q6 38 47 27q110 -31 188 -31q199 0 236 207zM473 1233l98 162q17 26 43 26h158q19 0 22 -13q3 -14 -12 -26l-168 -157q-22 -21 -49 -21h-76q-31 0 -16 29z" />
    <glyph glyph-name="ycircumflex.alt" unicode="&#xe01e;" horiz-adv-x="833" 
d="M502 129l18 98q-88 -135 -229 -135q-109 0 -166 66t-57 180q0 48 8 94l112 635q6 37 41 37h119q37 0 27 -37l-105 -602q-10 -53 -10 -86q0 -113 98 -113q78 0 135 71q54 67 76 189l95 541q6 37 43 37h118q33 0 27 -37l-168 -948q-62 -361 -414 -361q-157 0 -235 33
q-30 15 -23 45l19 90q6 38 47 27q110 -31 188 -31q199 0 236 207zM649 1225l-78 102l-110 -102q-27 -21 -47 -21h-88q-18 0 -19 11q-2 12 10 24l172 174q23 21 50 21h90q30 0 45 -21l112 -174q8 -13 4 -24t-22 -11h-76q-22 0 -43 21z" />
    <glyph glyph-name="ygrave.alt" unicode="&#xe01f;" horiz-adv-x="833" 
d="M502 129l18 98q-88 -135 -229 -135q-109 0 -166 66t-57 180q0 48 8 94l112 635q6 37 41 37h119q37 0 27 -37l-105 -602q-10 -53 -10 -86q0 -113 98 -113q78 0 135 71q54 67 76 189l95 541q6 37 43 37h118q33 0 27 -37l-168 -948q-62 -361 -414 -361q-157 0 -235 33
q-30 15 -23 45l19 90q6 38 47 27q110 -31 188 -31q199 0 236 207zM575 1395l46 -162q6 -29 -27 -29h-68q-25 0 -43 21l-116 157q-11 13 -5 26t25 13h152q26 0 36 -26z" />
    <glyph glyph-name="i.dot" unicode="&#xe020;" horiz-adv-x="382" 
d="M391 1067l-182 -1030q-6 -37 -39 -37h-119q-37 0 -31 37l183 1030q6 37 43 37h119q32 0 26 -37zM453 1397l-23 -133q-7 -37 -39 -37h-129q-35 0 -29 37l25 133q6 35 39 35h127q37 0 29 -35z" />
    <glyph glyph-name="dollar.old" unicode="&#xe021;" horiz-adv-x="802" 
d="M627 1329l-21 -123q104 -8 174 -28q39 -15 27 -45l-37 -91q-12 -42 -51 -30q-127 20 -168 20q-85 0 -147 -40t-62 -128q0 -30 25 -68q24 -36 46 -55q6 -5 15.5 -13t25 -21t27.5 -23q125 -90 162 -135q66 -83 66 -195q0 -141 -85 -238q-86 -98 -231 -120l-24 -133
q-11 -35 -39 -35h-66q-39 0 -28 35l20 123q-146 2 -240 30q-38 15 -28 47l41 97q12 38 49 28q86 -30 196 -30q90 0 160 47t70 139q0 24 -7 42q-7 20 -15 33q-8 15 -28 32q-22 19 -32 26q-2 1 -8.5 6t-15.5 11.5t-19 13.5t-19 13.5t-15.5 11.5t-8.5 6q-201 129 -199 309
q0 148 89 243q88 94 247 111l21 127q6 33 38 33h66q35 0 29 -33z" />
    <glyph glyph-name="cent.old" unicode="&#xe022;" horiz-adv-x="763" 
d="M96 596q50 286 160 434q108 145 291 172l22 127q6 33 39 33h68q19 0 23 -7q5 -8 3 -26l-22 -125q69 -6 123 -28q37 -15 24 -46l-43 -92q-16 -37 -49 -22q-57 14 -117 14q-126 0 -205 -103t-118 -331q-23 -138 -23 -197q0 -237 191 -237q67 0 137 16q39 10 39 -24l2 -93
q0 -29 -37 -45q-42 -17 -137 -28l-23 -127q-6 -33 -38 -33h-66q-35 0 -29 33l25 129q-262 30 -262 381q0 97 22 225z" />
    <glyph glyph-name="sterling.old" unicode="&#xe023;" horiz-adv-x="940" 
d="M225 537h-102q-35 0 -29 32l12 58q4 30 37 30h58q-5 37 -10 76.5t-7 54.5t-2 17q0 184 115 294q113 109 297 109q156 0 240 -62q86 -63 86 -190q0 -133 -52 -133h-104q6 21 6 45q0 94 -46 131t-134 37q-108 0 -160 -67q-53 -68 -53 -172q0 -66 14 -140h199q36 0 28 -30
l-12 -58q-6 -32 -37 -32h-161q6 -102 -35 -205q-41 -102 -115 -160q54 23 104 23q44 0 107 -20q60 -19 98 -19q94 0 121 145q8 29 35 29h96q41 0 31 -39q-24 -142 -78 -225q-53 -80 -162 -80q-71 0 -161 25q-93 26 -152 26q-92 0 -203 -43q-23 -12 -33 4l-51 96
q-10 20 13 35q92 61 151 156q57 91 57 190q0 32 -6 62zM723 791q0 14 13 23q14 9 24 9h4q-18 -63 -33 -63q-8 5 -8 31z" />
    <glyph glyph-name="yen.old" unicode="&#xe024;" horiz-adv-x="917" 
d="M748 276h-228l-43 -241q-5 -35 -39 -35h-121q-37 0 -32 35l45 241h-226q-31 0 -26 31l10 55q2 33 37 33h227l4 33l-22 104h-182q-33 0 -31 31l12 53q6 33 37 33h131l-137 496q-6 14 2 29q7 14 31 14h125q37 0 43 -33l116 -534h8l306 534q23 33 49 33h127q22 0 28 -16
q6 -15 -4 -27l-317 -496h133q33 0 27 -33l-13 -53q-2 -31 -32 -31h-189l-59 -104l-4 -33h227q26 0 25 -33l-11 -55q-5 -31 -34 -31z" />
    <glyph glyph-name="Euro.old" unicode="&#xe025;" horiz-adv-x="876" 
d="M78 543h92q-2 18 6 57q5 31 10 49h-90q-32 0 -26 31l10 53q2 31 37 31h100q145 444 500 444q151 0 201 -37q28 -21 16 -45l-51 -82q-18 -37 -49 -26q-49 14 -109 14q-219 0 -303 -268h313q35 0 19 -31l-21 -53q-11 -31 -43 -31h-309q-8 -35 -8 -47q-6 -30 -6 -59h280
q31 0 19 -33l-23 -55q-8 -29 -41 -29h-242q-6 -266 211 -266q41 0 109 12q44 8 45 -22l23 -84q0 -33 -33 -48q-64 -32 -176 -32q-193 0 -290 118t-91 322h-101q-18 0 -24 7t-4 26l12 51q1 33 37 33z" />
    <glyph glyph-name="zero.old" unicode="&#xe026;" horiz-adv-x="937" 
d="M584 1208q155 0 240 -100t85 -291q0 -95 -22 -221q-102 -612 -481 -612q-158 0 -245 100q-87 101 -87 293q0 93 22 219q106 612 488 612zM414 160q200 0 272 434q25 153 25 221q0 217 -144 217q-101 0 -167 -106t-105 -330q-23 -138 -23 -219q0 -217 142 -217z" />
    <glyph glyph-name="one.old" unicode="&#xe027;" horiz-adv-x="825" 
d="M668 0h-635q-37 0 -31 37l18 100q6 35 41 35h230l139 795l-188 -146q-26 -15 -37 2l-55 80q-16 23 6 39l301 236q15 14 47 14h121q37 0 30 -37l-172 -983h213q37 0 31 -35l-18 -100q-6 -37 -41 -37z" />
    </font>
</defs>
</svg>
