<?xml version="1.0" standalone="no"?>
<!DOCTYPE svg PUBLIC "-//W3C//DTD SVG 1.1//EN" "http://www.w3.org/Graphics/SVG/1.1/DTD/svg11.dtd" >
<svg xmlns="http://www.w3.org/2000/svg" xmlns:xlink="http://www.w3.org/1999/xlink" version="1.1">
<metadata>
Created by FontForge 20170731 at Mon Nov 21 16:50:46 2022
 By Aleksey,,,
(c) 2012, 2013, 2014, 2015 by Stawix Ruecha &#38; Foundry. All rights reserved.
</metadata>
<defs>
<font id="AmsiProNarw-Light" horiz-adv-x="712" >
  <font-face 
    font-family="AmsiProNarw-Light"
    font-weight="400"
    font-stretch="semi-condensed"
    units-per-em="2048"
    panose-1="2 11 10 6 2 2 1 1 1 4"
    ascent="1751"
    descent="-297"
    x-height="1067"
    cap-height="1436"
    bbox="-375.122 -573 2458 2130"
    underline-thickness="71"
    underline-position="-206"
    unicode-range="U+0020-FB4E"
  />
<missing-glyph horiz-adv-x="1007" 
d="M0 1413h1008v-1413h-1008v1413zM907 193v1030l-344 -516zM100 1223v-1030l344 514zM504 797l344 516h-686zM504 616l-342 -516h684z" />
    <glyph glyph-name="f_f" unicode="ff" horiz-adv-x="1087" 
d="M807 1067h215q25 0 25 -25v-53q0 -22 -25 -22h-215v-944q0 -23 -21 -23h-67q-23 0 -23 23v944h-387v-944q0 -23 -20 -23h-66q-22 0 -22 23v944h-131q-23 0 -23 22v53q0 25 23 25h131v104q0 277 231 277q60 0 103 -14q18 -4 18 -27v-45q0 -27 -25 -21q-40 7 -82 7
q-71 0 -104 -43t-33 -140v-98h387v94q0 147 59 217t181 70q49 0 102 -14q19 -5 19 -27v-45q0 -27 -23 -21q-38 7 -84 7q-77 0 -110 -44t-33 -149v-88z" />
    <glyph glyph-name="fi" unicode="fi" horiz-adv-x="948" 
d="M805 1042v-1019q0 -23 -23 -23h-65q-25 0 -25 23v944h-383v-944q0 -23 -20 -23h-66q-22 0 -22 23v944h-131q-23 0 -23 22v53q0 25 23 25h131v100q0 281 229 281q64 0 105 -14q18 -6 18 -27v-45q0 -22 -27 -21q-72 7 -82 7q-69 0 -102 -43t-33 -144v-94h473q23 0 23 -25z
M805 1413v-156q0 -22 -23 -22h-65q-23 0 -23 22v156q0 23 23 23h65q23 0 23 -23z" />
    <glyph glyph-name="fl" unicode="fl" horiz-adv-x="952" 
d="M807 1393v-1370q0 -23 -21 -23h-67q-23 0 -23 23v1316q-89 13 -157 13q-128 0 -179 -53t-51 -162v-70h178q23 0 23 -25v-53q0 -22 -23 -22h-178v-944q0 -23 -20 -23h-66q-22 0 -22 23v944h-131q-23 0 -23 22v53q0 25 23 25h131v74q0 157 77 234t261 77q140 0 245 -31
q23 -8 23 -28z" />
    <glyph glyph-name="f_f_i" unicode="ffi" horiz-adv-x="1443" 
d="M1303 1042v-1019q0 -23 -25 -23h-66q-20 0 -20 23v944h-385v-944q0 -23 -21 -23h-67q-23 0 -23 23v944h-387v-944q0 -23 -20 -23h-66q-22 0 -22 23v944h-131q-23 0 -23 22v53q0 25 23 25h131v104q0 277 231 277q68 0 103 -14q18 -4 18 -27v-45q0 -27 -25 -21q-40 7 -82 7
q-71 0 -104 -43t-33 -140v-98h387v104q0 277 234 277q59 0 102 -14q19 -6 19 -27v-45q0 -27 -25 -21q-39 7 -82 7q-71 0 -104 -42t-33 -141v-98h471q25 0 25 -25zM1303 1413v-156q0 -22 -25 -22h-64q-24 0 -24 22v156q0 23 24 23h64q25 0 25 -23z" />
    <glyph glyph-name="f_f_l" unicode="ffl" horiz-adv-x="1447" 
d="M807 967v-944q0 -23 -21 -23h-67q-23 0 -23 23v944h-387v-944q0 -23 -20 -23h-66q-22 0 -22 23v944h-131q-23 0 -23 22v53q0 25 23 25h131v104q0 277 231 277q60 0 103 -14q18 -4 18 -27v-45q0 -27 -25 -21q-40 7 -82 7q-71 0 -104 -43t-33 -140v-98h387v74q0 157 77 234
t261 77q141 0 246 -31q25 -8 25 -30v-1368q0 -23 -23 -23h-65q-23 0 -23 23v1316q-93 13 -158 13q-126 0 -178 -52q-51 -51 -51 -163v-70h178q23 0 23 -25v-53q0 -22 -23 -22h-178z" />
    <glyph glyph-name="f_b" unicode="fb" horiz-adv-x="1591" 
d="M807 535q0 -223 77 -338t220 -115q285 0 285 453q0 452 -285 452q-143 0 -220 -116t-77 -336zM807 1393v-519q34 98 118 156q83 57 197 57q186 0 284 -141q97 -140 97 -411q0 -273 -97 -413t-284 -140q-117 0 -198 56q-83 57 -117 155v-170q0 -23 -23 -23h-65
q-23 0 -23 23v1316q-89 13 -157 13q-128 0 -179 -53t-51 -162v-70h178q23 0 23 -25v-53q0 -22 -23 -22h-178v-944q0 -23 -20 -23h-66q-22 0 -22 23v944h-131q-23 0 -23 22v53q0 25 23 25h131v74q0 157 77 234t261 77q140 0 245 -31q23 -8 23 -28z" />
    <glyph glyph-name="f_f_b" unicode="ffb" horiz-adv-x="2088" 
d="M1303 535q0 -225 76 -338q77 -115 223 -115q282 0 282 453q0 452 -282 452q-143 0 -222 -115q-77 -113 -77 -337zM1305 1393v-519q35 99 117 156t196 57q187 0 284 -140t97 -412q0 -553 -381 -553q-116 0 -197 56q-82 56 -116 155v-170q0 -23 -25 -23h-63q-23 0 -23 23
v1316q-93 13 -158 13q-126 0 -178 -52q-51 -51 -51 -163v-70h178q25 0 25 -25v-53q0 -22 -25 -22h-178v-944q0 -23 -21 -23h-67q-23 0 -23 23v944h-387v-944q0 -23 -20 -23h-66q-22 0 -22 23v944h-131q-23 0 -23 22v53q0 25 23 25h131v104q0 277 231 277q60 0 103 -14
q18 -4 18 -27v-45q0 -27 -25 -21q-40 7 -82 7q-71 0 -104 -43t-33 -140v-98h387v74q0 157 77 234t261 77q141 0 246 -31q25 -8 25 -28z" />
    <glyph glyph-name="f_h" unicode="fh" horiz-adv-x="1564" 
d="M807 1393v-496q33 77 112 134q78 56 203 56q156 0 234 -93t78 -257v-714q0 -23 -23 -23h-63q-25 0 -25 23v702q0 258 -225 258q-129 0 -210 -88q-81 -89 -81 -227v-645q0 -23 -21 -23h-67q-23 0 -23 23v1316q-89 13 -157 13q-128 0 -179 -53t-51 -162v-70h178
q23 0 23 -25v-53q0 -22 -23 -22h-178v-944q0 -23 -20 -23h-66q-22 0 -22 23v944h-131q-23 0 -23 22v53q0 25 23 25h131v74q0 157 77 234t261 77q140 0 245 -31q23 -8 23 -28z" />
    <glyph glyph-name="f_f_h" unicode="ffh" horiz-adv-x="2060" 
d="M1305 1393v-496q33 78 110 134t203 56q154 0 234 -93q79 -92 79 -257v-714q0 -23 -22 -23h-66q-24 0 -24 23v702q0 258 -224 258q-132 0 -211 -88t-79 -227v-645q0 -23 -23 -23h-65q-23 0 -23 23v1316q-93 13 -158 13q-126 0 -178 -52q-51 -51 -51 -163v-70h178
q25 0 25 -25v-53q0 -22 -25 -22h-178v-944q0 -23 -21 -23h-67q-23 0 -23 23v944h-387v-944q0 -23 -20 -23h-66q-22 0 -22 23v944h-131q-23 0 -23 22v53q0 25 23 25h131v104q0 277 229 277q62 0 105 -14q18 -4 18 -27v-45q0 -27 -25 -21q-40 7 -82 7q-71 0 -104 -43t-33 -140
v-98h387v74q0 157 77 234t261 77q141 0 246 -31q25 -8 25 -28z" />
    <glyph glyph-name="f_j" unicode="fj" horiz-adv-x="950" 
d="M809 1042v-1038q0 -125 -43 -181t-148 -56q-44 0 -83 10q-19 2 -19 24l-2 54q0 24 25 18q27 -6 63 -6q52 0 73 34q21 35 21 111v955h-387v-944q0 -23 -20 -23h-66q-22 0 -22 23v944h-131q-23 0 -23 22v53q0 25 23 25h131v104q0 277 231 277q60 0 103 -14q18 -4 18 -27
v-45q0 -27 -25 -21q-40 7 -82 7q-71 0 -104 -43t-33 -140v-98h475q25 0 25 -25zM809 1413v-156q0 -22 -25 -22h-63q-23 0 -23 22v156q0 23 23 23h63q25 0 25 -23z" />
    <glyph glyph-name="f_f_j" unicode="ffj" horiz-adv-x="1445" 
d="M1305 1042v-1038q0 -125 -43 -181t-146 -56q-37 0 -86 10q-18 1 -18 24v54q0 23 24 18q28 -6 62 -6q53 0 74 34q22 36 22 113v953h-387v-944q0 -23 -21 -23h-67q-23 0 -23 23v944h-387v-944q0 -23 -20 -23h-66q-22 0 -22 23v944h-131q-23 0 -23 22v53q0 25 23 25h131v104
q0 277 231 277q60 0 103 -14q18 -4 18 -27v-45q0 -27 -25 -21q-40 7 -82 7q-71 0 -104 -43t-33 -140v-98h387v104q0 277 234 277q59 0 102 -14q19 -5 19 -27v-45q0 -27 -25 -21q-39 7 -82 7q-71 0 -104 -42t-33 -141v-98h473q25 0 25 -25zM1305 1413v-156q0 -22 -23 -22h-65
q-25 0 -25 22v156q0 23 25 23h65q23 0 23 -23z" />
    <glyph glyph-name="f_k" unicode="fk" horiz-adv-x="1396" 
d="M809 1393v-736l397 396q15 14 37 14h90q16 0 17 -10q2 -11 -9 -21l-454 -440l473 -565q10 -11 6 -21t-18 -10h-93q-21 0 -36 18l-410 506v-501q0 -23 -23 -23h-67q-23 0 -23 23v1316q-89 13 -157 13q-128 0 -179 -53t-51 -162v-70h178q23 0 23 -25v-53q0 -22 -23 -22
h-178v-944q0 -23 -20 -23h-66q-22 0 -22 23v944h-131q-23 0 -23 22v53q0 25 23 25h131v74q0 157 77 234t261 77q140 0 245 -31q25 -8 25 -28z" />
    <glyph glyph-name="f_f_k" unicode="ffk" horiz-adv-x="1890" 
d="M1194 23v1316q-93 13 -158 13q-126 0 -178 -52q-51 -51 -51 -163v-70h178q23 0 23 -25v-53q0 -22 -23 -22h-178v-944q0 -23 -21 -23h-67q-23 0 -23 23v944h-387v-944q0 -23 -20 -23h-66q-22 0 -22 23v944h-131q-23 0 -23 22v53q0 25 23 25h131v104q0 277 231 277
q60 0 103 -14q18 -4 18 -27v-45q0 -27 -25 -21q-40 7 -82 7q-71 0 -104 -43t-33 -140v-98h387v74q0 157 77 234t261 77q143 0 248 -31q25 -8 25 -28v-736l397 396q14 14 35 14h90q14 0 17 -10q3 -11 -7 -21l-455 -440l471 -565q11 -11 7 -21t-19 -10h-90q-21 0 -37 18
l-409 506v-501q0 -23 -25 -23h-65q-23 0 -23 23z" />
    <glyph glyph-name="f_t" unicode="ft" horiz-adv-x="1116" 
d="M309 1067h391v248q0 24 21 24h63q23 0 23 -24v-248h227q25 0 25 -25v-53q0 -22 -25 -22h-227v-676q0 -116 31 -159q30 -42 118 -42q43 0 82 10q23 5 23 -20l4 -51q0 -21 -21 -27q-50 -12 -106 -12q-131 0 -186 64q-56 65 -56 227v686h-387v-944q0 -23 -20 -23h-66
q-22 0 -22 23v944h-131q-23 0 -23 22v53q0 25 23 25h131v104q0 277 231 277q60 0 103 -14q18 -4 18 -27v-45q0 -27 -25 -21q-40 7 -82 7q-71 0 -104 -43t-33 -140v-98z" />
    <glyph glyph-name="f_f_t" unicode="fft" horiz-adv-x="1615" 
d="M696 1067v104q0 277 234 277q70 0 102 -14q19 -6 19 -27v-45q0 -27 -25 -21q-39 7 -82 7q-74 0 -105 -43q-32 -44 -32 -142v-96h389v248q0 24 23 24h61q25 0 25 -24v-248h227q22 0 22 -23v-55q0 -22 -22 -22h-227v-676q0 -117 30 -159t117 -42q19 0 78 10q20 4 22 -20
l11 -49q6 -21 -17 -27q-32 -14 -110 -14q-132 0 -187 63q-55 62 -55 228v686h-387v-944q0 -23 -21 -23h-67q-23 0 -23 23v944h-387v-944q0 -23 -20 -23h-66q-22 0 -22 23v944h-131q-23 0 -23 22v53q0 25 23 25h131v104q0 277 231 277q60 0 103 -14q18 -4 18 -27v-45
q0 -27 -25 -21q-40 7 -82 7q-71 0 -104 -43t-33 -140v-98h387z" />
    <glyph glyph-name="t_t" unicode="tt" horiz-adv-x="1114" 
d="M1028 967h-229v-676q0 -117 30 -159t119 -42q14 0 78 10q19 5 25 -20l10 -49q2 -21 -19 -27q-32 -14 -110 -14q-132 0 -187 63q-55 62 -55 228v686h-391v-676q0 -117 30 -159t109 -42q37 0 76 10q17 2 23 -20l12 -49q2 -21 -19 -27q-32 -14 -108 -14q-125 0 -179 64
q-55 66 -55 227v686h-129q-24 0 -24 22v53q0 25 24 25h131v258q0 25 25 25h59q25 0 25 -25v-258h393v258q0 25 23 25h59q25 0 25 -25v-258h229q23 0 23 -25v-53q0 -22 -23 -22z" />
    <glyph glyph-name="t_t_f" unicode="ttf" horiz-adv-x="1587" 
d="M799 967v-676q0 -117 30 -159t119 -42q27 0 76 10q25 6 25 -20l8 -51q0 -21 -21 -27q-52 -12 -104 -12q-132 0 -187 63q-55 62 -55 228v686h-391v-676q0 -117 30 -159t109 -42q21 0 80 10q22 2 23 -20l8 -49q2 -21 -19 -27q-32 -14 -108 -14q-125 0 -179 64
q-55 66 -55 227v686h-129q-24 0 -24 22v53q0 25 24 25h131v258q0 25 25 25h59q25 0 25 -25v-258h393v258q0 25 23 25h59q25 0 25 -25v-258h399v94q0 148 57 217q58 70 181 70q61 0 104 -14q16 -4 16 -27v-45q0 -27 -24 -21q-39 7 -82 7q-78 0 -110 -44q-31 -43 -31 -149v-88
h215q22 0 22 -25v-53q0 -22 -22 -22h-215v-944q0 -23 -25 -23h-65q-21 0 -21 23v944h-399z" />
    <glyph glyph-name=".notdef" horiz-adv-x="1007" 
d="M0 1413h1008v-1413h-1008v1413zM907 193v1030l-344 -516zM100 1223v-1030l344 514zM504 797l344 516h-686zM504 616l-342 -516h684z" />
    <glyph glyph-name=".null" horiz-adv-x="0" 
 />
    <glyph glyph-name="nonmarkingreturn" horiz-adv-x="681" 
 />
    <glyph glyph-name="space" unicode=" " horiz-adv-x="509" 
 />
    <glyph glyph-name="exclam" unicode="!" horiz-adv-x="479" 
d="M166 23v141q0 22 22 22h105q20 0 20 -22v-141q0 -23 -20 -23h-105q-22 0 -22 23zM264 387h-49q-22 0 -22 25l-21 1001q0 23 25 23h88q22 0 22 -23l-20 -1001q0 -25 -23 -25z" />
    <glyph glyph-name="quotedbl" unicode="&#x22;" horiz-adv-x="593" 
d="M219 1276l-22 -283h-56l-22 283q-6 63 -6 129q0 34 12 49q11 14 43 14q34 0 45 -14q12 -15 12 -49q0 -66 -6 -129zM475 1276l-20 -283h-58l-22 283q0 5 -2 41q-1 27 -3 48q-1 14 -1 40q0 34 12 49q11 14 45 14q29 0 42 -14t13 -51q0 -64 -6 -127z" />
    <glyph glyph-name="numbersign" unicode="#" horiz-adv-x="1126" 
d="M1014 1411l-107 -397h164q23 0 23 -25v-45q0 -22 -23 -22h-188l-111 -406h162q22 0 22 -24v-46q0 -22 -22 -22h-186l-113 -422q-6 -24 -27 -20l-51 16q-22 7 -16 29l106 397h-328l-110 -422q-6 -26 -29 -20l-51 16q-22 7 -16 29l106 397h-164q-24 0 -24 22v46q0 24 24 24
h189l108 406h-159q-23 0 -23 22v45q0 25 23 25h184l115 422q6 22 26 16l51 -12q23 -6 17 -29l-107 -397h326l113 422q6 22 28 16l51 -12q23 -6 17 -29zM455 922l-111 -406h328l108 406h-325z" />
    <glyph glyph-name="dollar" unicode="$" horiz-adv-x="952" 
d="M535 1608v-154q139 -1 253 -43q25 -8 17 -31l-17 -55q-6 -26 -30 -18q-115 41 -240 41q-297 0 -297 -240q0 -60 21 -107q23 -50 69 -88q55 -45 83 -62q61 -37 110 -65q69 -38 78 -44q5 -4 14 -9.5t26 -16t30 -18.5q52 -33 72 -51q23 -21 54 -55q34 -37 49 -70t27 -78
t12 -96q0 -160 -87 -250t-240 -108v-162q0 -23 -25 -23h-47q-23 0 -23 23v154q-199 0 -329 51q-27 11 -23 30l17 58q6 23 32 16q132 -49 293 -49q147 0 231 67q83 66 83 193q0 60 -23 111q-22 48 -63 86q-33 30 -88 66t-105 63l-12 6q-5 2 -11 6t-12 6l-101 59
q-37 21 -87 61q-55 44 -79 79q-25 36 -46 94q-21 57 -21 123q0 148 84 238q83 89 254 104v158q0 22 25 22h47q25 0 25 -22z" />
    <glyph glyph-name="percent" unicode="%" horiz-adv-x="1597" 
d="M1237 1411l-768 -1391q-10 -20 -31 -20h-65q-29 0 -13 25l764 1392q11 19 33 19h68q28 0 12 -25zM78 1040q0 200 74 306q73 104 210 104q136 0 210 -104q75 -105 75 -306q0 -200 -75 -304q-75 -103 -210 -103q-137 0 -210 103q-74 104 -74 304zM547 1040q0 316 -185 316
q-184 0 -184 -316q0 -315 184 -315q185 0 185 315zM948 395q0 200 75 305t212 105q135 0 210 -105t75 -305q0 -198 -75 -303q-74 -104 -210 -104q-138 0 -212 104q-75 105 -75 303zM1419 395q0 316 -184 316q-182 0 -182 -316q0 -313 182 -313q184 0 184 313z" />
    <glyph glyph-name="ampersand" unicode="&#x26;" horiz-adv-x="1253" 
d="M1128 512q0 -167 -77 -293l157 -194q9 -9 4 -17t-14 -8h-84q-24 0 -35 14l-92 125q-136 -155 -401 -155q-228 0 -361 114t-133 322q0 159 87 279t239 165l-41 54q-107 140 -107 270q0 268 332 268q116 0 201 -35q28 -10 22 -30l-16 -45q-8 -27 -37 -15q-73 27 -164 27
q-231 0 -231 -170q0 -97 108 -238l496 -645q45 90 45 211q0 13 -2 41q-1 20 -6 43q-4 22 -6 35q-4 24 20 24h60q17 0 24 -22q12 -51 12 -125zM588 86q224 0 330 133l-433 565q-135 -39 -205 -134q-69 -94 -69 -228q0 -154 101 -245t276 -91z" />
    <glyph glyph-name="quotesingle" unicode="'" horiz-adv-x="339" 
d="M219 1276l-22 -283h-56l-22 283q-6 63 -6 129q0 34 12 49q11 14 43 14q34 0 45 -14q12 -15 12 -49q0 -66 -6 -129z" />
    <glyph glyph-name="parenleft" unicode="(" horiz-adv-x="600" 
d="M158 608q0 237 78 451q79 218 196 379q11 14 31 14h53q24 0 12 -22q-112 -155 -184 -375q-72 -219 -72 -447q0 -385 256 -821q6 -8 3 -16q-4 -9 -15 -9h-53q-16 0 -31 15q-119 150 -196 369q-78 220 -78 462z" />
    <glyph glyph-name="parenright" unicode=")" horiz-adv-x="600" 
d="M444 608q0 -243 -77 -461t-197 -370q-15 -15 -31 -15h-53q-11 0 -15 9q-3 8 3 16q112 155 184 375q72 219 72 446q0 228 -72 447q-72 220 -184 375q-6 6 -3 14t15 8h53q20 0 31 -14q119 -164 197 -379q77 -212 77 -451z" />
    <glyph glyph-name="asterisk" unicode="*" horiz-adv-x="747" 
d="M375 817q-26 0 -34 11q-9 12 -9 40q0 16 20 226q-9 -6 -100 -70q-70 -50 -88 -59q-45 -27 -66 10q-21 34 25 63q15 10 49 25q6 3 33.5 15.5t45.5 20.5l77 36q-9 4 -21 9.5t-29 13t-28 12.5q-25 11 -79 37q-28 14 -48 26q-47 27 -25 61q21 38 66 11q19 -10 89 -61
q4 -3 97 -68q-1 13 -10 117q-8 88 -8 108q0 29 8 42q7 11 33 11t33 -11q8 -13 8 -42q0 -18 -3 -54q-1 -13 -4 -42t-4 -45q-5 -51 -6 -84q151 107 187 129q44 24 65 -9q21 -38 -24 -65q-13 -9 -48 -25q-26 -12 -80 -36l-77 -33q10 -5 114 -55q87 -42 91 -44q45 -28 24 -61
q-21 -39 -65 -12q-35 22 -46 30q-30 21 -72 51t-69 48q21 -220 21 -226q0 -51 -43 -51z" />
    <glyph glyph-name="plus" unicode="+" horiz-adv-x="1067" 
d="M938 670h-352v-391q0 -21 -23 -21h-59q-25 0 -25 21v391h-350q-23 0 -23 20v55q0 23 23 23h350v385q0 25 25 25h59q23 0 23 -25v-385h352q23 0 23 -23v-55q0 -20 -23 -20z" />
    <glyph glyph-name="comma" unicode="," horiz-adv-x="385" 
d="M260 0l-57 -186q-6 -17 -23 -17h-28q-19 0 -13 23l39 180h-33q-24 0 -24 23v137q0 24 24 24h95q24 0 24 -24v-129q0 -20 -4 -31z" />
    <glyph glyph-name="hyphen" unicode="-" horiz-adv-x="671" 
d="M565 494h-461q-22 0 -22 20v55q0 21 24 21h459q23 0 23 -21v-55q0 -20 -23 -20z" />
    <glyph glyph-name="period" unicode="." horiz-adv-x="385" 
d="M121 23v137q0 24 24 24h95q24 0 24 -24v-137q0 -23 -22 -23h-97q-24 0 -24 23z" />
    <glyph glyph-name="slash" unicode="/" horiz-adv-x="708" 
d="M20 27l553 1388q7 21 33 21h64q28 0 18 -27l-555 -1386q-8 -23 -31 -23h-63q-29 0 -19 27z" />
    <glyph glyph-name="zero" unicode="0" horiz-adv-x="1142" 
d="M569 1456q465 0 465 -737t-465 -737q-463 0 -463 735q0 739 463 739zM569 88q346 0 346 629q0 631 -346 631q-171 0 -257 -155q-85 -154 -85 -476q0 -323 85 -475q86 -154 257 -154z" />
    <glyph glyph-name="one" unicode="1" horiz-adv-x="749" 
d="M403 25v1267l-262 -207q-18 -12 -28 2l-41 48q-14 14 2 26l319 264q13 11 31 11h74q22 0 22 -23v-1388q0 -25 -22 -25h-70q-25 0 -25 25z" />
    <glyph glyph-name="two" unicode="2" horiz-adv-x="1052" 
d="M233 1083q0 -8 4 -48q3 -30 3 -40q0 -22 -23 -22h-65q-17 0 -23 26q-8 53 -8 91q0 160 100 263t295 103q209 0 305 -111q97 -112 97 -294q0 -419 -625 -945h625q24 0 24 -24v-57q0 -25 -24 -25h-787q-25 0 -25 25v47q0 19 17 34q73 60 175 149q76 66 177 173
q99 105 165 198q68 95 113 205q46 111 46 216q0 303 -285 303q-148 0 -214 -74q-67 -75 -67 -193z" />
    <glyph glyph-name="three" unicode="3" horiz-adv-x="962" 
d="M326 801h116q122 0 192 69q71 69 71 213q0 267 -287 267q-137 0 -287 -52q-19 -8 -27 17l-20 55q-4 16 20 27q137 59 314 59q198 0 302 -92q103 -91 103 -272q0 -270 -202 -330q105 -24 171 -110t66 -244q0 -426 -457 -426q-147 0 -319 57q-23 8 -19 24l17 58q6 27 29 16
q144 -51 292 -51q336 0 336 322q0 290 -293 290h-118q-27 0 -27 23v57q0 23 27 23z" />
    <glyph glyph-name="four" unicode="4" horiz-adv-x="1101" 
d="M831 0h-69q-23 0 -23 25v319h-645q-22 0 -22 25v55q0 19 10 35l643 958q13 19 33 19h73q23 0 23 -23v-967h186q25 0 25 -22v-55q0 -25 -25 -25h-186v-319q0 -25 -23 -25zM739 1262l-538 -816h538v816z" />
    <glyph glyph-name="five" unicode="5" horiz-adv-x="985" 
d="M887 451q0 -227 -120 -349q-119 -120 -347 -120q-188 0 -326 55q-26 11 -18 33l20 53q7 21 27 16q138 -53 291 -53q352 0 352 365q0 156 -69 242q-69 85 -234 85q-104 0 -189 -26l-88 -27q-6 0 -22 6l-33 14q-14 4 -12 29q31 351 37 637q0 25 24 25h608q27 0 27 -23v-57
q0 -25 -27 -25h-532q-7 -285 -29 -493q105 43 246 43q414 0 414 -430z" />
    <glyph glyph-name="six" unicode="6" horiz-adv-x="1075" 
d="M809 1315q-95 37 -195 37q-205 0 -300 -164t-93 -514q27 112 120 184t243 72q206 0 304 -128q97 -127 97 -335q0 -220 -107 -352q-108 -133 -305 -133q-467 0 -467 710q0 764 500 764q122 0 230 -41q24 -11 20 -26l-18 -58q-6 -24 -29 -16zM571 86q143 0 220 104t77 275
q0 162 -70 263t-229 101q-147 0 -231 -94q-84 -95 -84 -274q0 -139 82 -257t235 -118z" />
    <glyph glyph-name="seven" unicode="7" horiz-adv-x="952" 
d="M279 23q12 312 151 686q140 376 307 622h-635q-24 0 -24 25v57q0 23 24 23h744q22 0 22 -23v-55q0 -14 -16 -37q-177 -252 -313 -626q-137 -376 -138 -672q0 -23 -24 -23h-74q-24 0 -24 23z" />
    <glyph glyph-name="eight" unicode="8" horiz-adv-x="1054" 
d="M528 -18q-207 0 -319 100q-113 101 -113 270q0 155 90 254q89 98 232 142q-293 105 -293 366q0 156 103 249q104 93 300 93q194 0 299 -93t105 -249q0 -260 -295 -366q142 -44 231 -142q90 -99 90 -254q0 -170 -111 -270q-110 -100 -319 -100zM528 1356q-141 0 -215 -65
q-73 -64 -73 -177q0 -227 288 -317q289 91 289 317q0 112 -75 177q-76 65 -214 65zM528 694q-315 -84 -315 -336q0 -126 81 -201t234 -75q154 0 234 75t80 201q0 252 -314 336z" />
    <glyph glyph-name="nine" unicode="9" horiz-adv-x="1075" 
d="M270 121q127 -37 195 -37q202 0 299 160q96 158 94 508q-22 -104 -118 -175q-95 -71 -248 -71q-205 0 -304 129q-98 128 -98 336q0 219 108 351t304 132q467 0 467 -711q0 -377 -119 -570q-118 -191 -377 -191q-119 0 -229 38q-25 6 -19 29l17 55q6 24 28 17zM506 1350
q-143 0 -221 -104t-78 -273q0 -160 71 -263q70 -102 228 -102q146 0 232 92q85 91 85 273q0 146 -82 261q-83 116 -235 116z" />
    <glyph glyph-name="colon" unicode=":" horiz-adv-x="444" 
d="M150 23v137q0 24 24 24h96q23 0 23 -24v-137q0 -23 -23 -23h-96q-24 0 -24 23zM150 905v137q0 25 24 25h96q23 0 23 -25v-137q0 -22 -23 -22h-96q-24 0 -24 22z" />
    <glyph glyph-name="semicolon" unicode=";" horiz-adv-x="444" 
d="M150 905v137q0 25 24 25h96q23 0 23 -25v-137q0 -22 -23 -22h-96q-24 0 -24 22zM289 0l-56 -186q-6 -17 -24 -17h-27q-21 0 -16 23l41 180h-33q-24 0 -24 23v137q0 24 24 24h96q23 0 23 -24v-129q0 -20 -4 -31z" />
    <glyph glyph-name="less" unicode="&#x3c;" horiz-adv-x="1067" 
d="M131 719q0 15 14 22l666 564q18 18 33 2l37 -45q15 -18 -2 -31l-609 -512l609 -514q17 -15 2 -31l-37 -47q-17 -12 -31 -2l-668 567q-14 7 -14 27z" />
    <glyph glyph-name="equal" unicode="=" horiz-adv-x="1067" 
d="M920 866h-775q-20 0 -20 23v53q0 21 22 21h773q22 0 22 -21v-53q0 -23 -22 -23zM920 473h-775q-20 0 -20 23v53q0 22 22 22h773q22 0 22 -22v-53q0 -23 -22 -23z" />
    <glyph glyph-name="greater" unicode="&#x3e;" horiz-adv-x="1067" 
d="M936 719q0 -13 -14 -27l-670 -567q-21 -16 -33 2l-33 47q-15 18 2 31l611 514l-611 512q-15 12 -2 31l33 45q12 18 33 2l670 -568q14 -14 14 -22z" />
    <glyph glyph-name="question" unicode="?" horiz-adv-x="876" 
d="M342 23v141q0 22 23 22h102q22 0 22 -22v-141q0 -23 -22 -23h-102q-23 0 -23 23zM473 494v-82q0 -25 -24 -25h-62q-22 0 -22 25v82q0 78 45 161q44 81 99 142t99 146q45 87 45 175q0 232 -268 232q-40 0 -88 -8q-49 -8 -67 -12q-25 -5 -66 -19l-45 -15q-25 -8 -31 17
l-18 57q-4 16 18 27q117 59 301 59q194 0 289 -89q94 -88 94 -245q0 -86 -31 -165q-29 -74 -74 -133q-28 -36 -88 -107q-46 -54 -75 -109q-31 -59 -31 -114z" />
    <glyph glyph-name="at" unicode="@" horiz-adv-x="1695" 
d="M1051 467l51 364q-69 21 -150 21q-184 0 -273 -126q-89 -127 -89 -316q0 -116 49 -184t141 -68q112 0 181 83t90 226zM1200 -88q20 7 21 -14l10 -41q2 -13 -14 -19q-134 -55 -357 -55q-366 0 -548 151q-183 152 -183 490q0 368 206 588q205 219 564 219q668 0 668 -606
q0 -251 -110 -402q-109 -149 -316 -149h-80q-17 0 -26 6q-8 6 -7 22l10 134q-84 -173 -270 -173q-134 0 -210 94q-75 93 -75 246q0 140 44 260q42 115 155 199q110 82 272 82q127 0 244 -43q18 -6 16 -27l-104 -718h35q170 0 253 125t83 346q0 250 -133 386t-451 136
q-317 0 -499 -194q-181 -193 -181 -531q0 -298 157 -431q156 -132 486 -132q151 0 340 51z" />
    <glyph glyph-name="A" unicode="A" horiz-adv-x="1122" 
d="M330 520h463l-230 780h-4zM516 1436h90q25 0 31 -25l430 -1384q6 -27 -20 -27h-74q-23 0 -29 23l-117 389h-530l-119 -389q-6 -23 -26 -23h-78q-25 0 -19 27l428 1384q8 25 33 25z" />
    <glyph glyph-name="B" unicode="B" horiz-adv-x="1142" 
d="M270 797h291q175 0 252 64q78 65 78 206q0 146 -77 203q-76 57 -255 57h-289v-530zM561 0h-383q-26 0 -26 25v1388q0 23 26 23h385q225 0 335 -86t110 -275q0 -141 -61 -222q-59 -78 -152 -101q252 -50 252 -355q0 -211 -120 -304t-366 -93zM270 109h285q199 0 287 66
t88 228q0 155 -82 221t-277 66h-301v-581z" />
    <glyph glyph-name="C" unicode="C" horiz-adv-x="997" 
d="M647 90q114 0 219 45q21 8 31 -18l21 -54q6 -16 -21 -28q-126 -53 -262 -53q-272 0 -402 178q-131 179 -131 559t130 558q131 179 395 179q154 0 256 -51q25 -12 20 -31l-18 -53q-10 -26 -31 -16q-100 41 -213 41q-217 0 -316 -149q-100 -150 -100 -478q0 -331 101 -480
t321 -149z" />
    <glyph glyph-name="D" unicode="D" horiz-adv-x="1142" 
d="M465 0h-287q-26 0 -26 25v1388q0 23 24 23h287q291 0 435 -159t144 -546q0 -210 -37 -352t-115 -226t-179 -118q-103 -35 -246 -35zM463 1325h-193v-1214h195q115 0 194 27q82 28 141 96q60 69 90 192t30 305q0 335 -112 465q-111 129 -345 129z" />
    <glyph glyph-name="E" unicode="E" horiz-adv-x="923" 
d="M784 682h-514v-573h537q24 0 24 -23v-61q0 -25 -24 -25h-629q-26 0 -26 25v1388q0 23 24 23h625q24 0 24 -23v-61q0 -25 -24 -25h-531v-539h514q25 0 25 -24v-57q0 -25 -25 -25z" />
    <glyph glyph-name="F" unicode="F" horiz-adv-x="897" 
d="M784 672h-514v-647q0 -25 -24 -25h-68q-26 0 -26 25v1388q0 23 26 23h621q22 0 22 -23v-61q0 -25 -22 -25h-529v-549h514q27 0 27 -24v-58q0 -24 -27 -24z" />
    <glyph glyph-name="G" unicode="G" horiz-adv-x="1130" 
d="M606 805h369q24 0 24 -25v-686q0 -33 -26 -47q-112 -65 -314 -65q-286 0 -421 174q-136 175 -136 563q0 386 137 562q136 175 427 175q150 0 272 -55q29 -11 23 -29l-21 -55q-11 -27 -33 -17q-124 46 -235 46q-241 0 -344 -145t-103 -482q0 -336 103 -483
q102 -146 338 -146q119 0 219 41v567h-279q-24 0 -24 23v59q0 25 24 25z" />
    <glyph glyph-name="H" unicode="H" horiz-adv-x="1171" 
d="M899 25v655h-629v-655q0 -25 -24 -25h-68q-26 0 -26 25v1388q0 23 26 23h68q24 0 24 -23v-622h629v622q0 23 27 23h69q23 0 23 -23v-1388q0 -25 -23 -25h-69q-27 0 -27 25z" />
    <glyph glyph-name="I" unicode="I" horiz-adv-x="448" 
d="M166 25v1388q0 23 22 23h70q27 0 27 -23v-1388q0 -25 -27 -25h-70q-22 0 -22 25z" />
    <glyph glyph-name="J" unicode="J" horiz-adv-x="759" 
d="M496 371v1042q0 23 24 23h70q24 0 24 -23v-1051q0 -196 -78 -286q-80 -92 -247 -92q-132 0 -217 43q-27 16 -21 34l17 58q7 26 30 14q84 -41 185 -41q112 0 162 67q51 68 51 212z" />
    <glyph glyph-name="K" unicode="K" horiz-adv-x="1011" 
d="M270 815l535 602q19 19 37 19h92q14 0 19 -10q4 -9 -3 -19l-585 -649l596 -727q8 -13 5 -22t-18 -9h-96q-21 0 -37 20l-545 670v-665q0 -25 -24 -25h-68q-26 0 -26 25v1388q0 23 26 23h68q24 0 24 -23v-598z" />
    <glyph glyph-name="L" unicode="L" horiz-adv-x="880" 
d="M270 1413v-1302h512q25 0 25 -25v-61q0 -25 -25 -25h-604q-26 0 -26 25v1388q0 23 26 23h68q24 0 24 -23z" />
    <glyph glyph-name="M" unicode="M" horiz-adv-x="1345" 
d="M672 430q-19 0 -29 16l-373 762v-1183q0 -25 -24 -25h-68q-26 0 -26 25v1388q0 23 26 23h70q23 0 31 -17l393 -803l395 803q6 17 29 17h71q23 0 23 -23v-1388q0 -25 -23 -25h-69q-23 0 -23 25v1183l-373 -762q-10 -16 -30 -16z" />
    <glyph glyph-name="N" unicode="N" horiz-adv-x="1181" 
d="M1028 1413v-1388q0 -25 -24 -25h-70q-25 0 -35 20l-631 1203v-1198q0 -25 -22 -25h-68q-26 0 -26 25v1388q0 23 26 23h68q29 0 37 -19l630 -1204v1200q0 23 25 23h66q24 0 24 -23z" />
    <glyph glyph-name="O" unicode="O" horiz-adv-x="1200" 
d="M600 1456q250 0 375 -180q125 -181 125 -557q0 -379 -125 -558t-375 -179t-375 179t-125 558q0 376 125 557q125 180 375 180zM600 88q193 0 285 152t92 479q0 325 -92 477t-285 152t-285 -152t-92 -477q0 -327 92 -479t285 -152z" />
    <glyph glyph-name="P" unicode="P" horiz-adv-x="1069" 
d="M270 567h201q210 0 292 82q83 83 83 297q0 216 -84 298q-85 83 -291 83h-201v-760zM246 0h-68q-26 0 -26 25v1386q0 25 24 25h293q269 0 383 -111q115 -112 115 -379t-115 -379q-113 -110 -381 -110h-201v-432q0 -25 -24 -25z" />
    <glyph glyph-name="Q" unicode="Q" horiz-adv-x="1200" 
d="M692 0q113 -61 258 -61q19 0 32 1t26 1q30 0 30 -23v-51q0 -29 -49 -29q-264 0 -438 150q-226 17 -338 194q-113 179 -113 537q0 376 125 557q125 180 375 180q248 0 373 -179q126 -180 127 -558q0 -656 -408 -719zM600 88q193 0 285 152t92 479q0 325 -92 477t-285 152
t-285 -152t-92 -477q0 -327 92 -479t285 -152z" />
    <glyph glyph-name="R" unicode="R" horiz-adv-x="1085" 
d="M270 633h219q205 0 287 78t82 268q0 194 -83 271t-290 77h-215v-694zM178 1436h309q262 0 377 -106t115 -351q0 -210 -87 -315q-87 -104 -267 -127l342 -506q8 -11 4 -21t-19 -10h-82q-22 0 -34 18l-340 506h-226v-499q0 -25 -24 -25h-68q-26 0 -26 25v1388q0 23 26 23z
" />
    <glyph glyph-name="S" unicode="S" horiz-adv-x="915" 
d="M829 342q0 -174 -109 -267q-110 -93 -317 -93q-201 0 -296 43q-27 15 -23 30l20 58q10 24 29 16q115 -41 268 -41t232 68q78 68 78 190q0 66 -21 116q-22 53 -68 94q-52 47 -87 70q-31 20 -115 68q-80 45 -123 75q-42 29 -96 80q-53 50 -77 115q-24 64 -24 146
q0 346 396 346q148 0 260 -41q26 -7 20 -31l-18 -55q-7 -22 -31 -16q-93 35 -225 35q-153 0 -219 -60t-66 -178q0 -60 19 -109q18 -47 63 -87q40 -36 78 -62q46 -31 104 -64q93 -53 107 -62q33 -21 89 -66q60 -48 84 -83q26 -38 47 -101t21 -134z" />
    <glyph glyph-name="T" unicode="T" horiz-adv-x="892" 
d="M55 1350v63q0 23 25 23h735q23 0 23 -23v-63q0 -25 -23 -25h-309v-1300q0 -25 -25 -25h-67q-27 0 -27 25v1300h-307q-25 0 -25 25z" />
    <glyph glyph-name="U" unicode="U" horiz-adv-x="1150" 
d="M575 -20q-223 0 -327 117q-105 119 -105 360v956q0 23 25 23h68q26 0 26 -23v-946q0 -194 73 -287q72 -92 240 -92q169 0 241 92q73 93 73 287v946q0 23 24 23h70q23 0 23 -23v-956q0 -241 -104 -360q-102 -117 -327 -117z" />
    <glyph glyph-name="V" unicode="V" horiz-adv-x="1097" 
d="M596 0h-92q-27 0 -35 25l-403 1384q-6 27 18 27h76q22 0 28 -23l267 -928l92 -348h4l92 350l268 926q6 23 29 23h76q24 0 18 -27l-405 -1384q-8 -25 -33 -25z" />
    <glyph glyph-name="W" unicode="W" horiz-adv-x="1726" 
d="M825 1436h74q27 0 33 -23l211 -885l88 -389h6l84 385l207 889q6 23 28 23h74q27 0 21 -29l-334 -1380q-6 -27 -33 -27h-96q-27 0 -33 25l-211 874l-80 344h-4l-80 -344l-209 -874q-6 -25 -32 -25h-97q-28 0 -34 27l-330 1380q-6 29 18 29h74q23 0 29 -23l207 -889
l81 -385h7l88 389l213 885q6 23 30 23z" />
    <glyph glyph-name="X" unicode="X" horiz-adv-x="1042" 
d="M522 627l-332 -607q-14 -20 -34 -20h-80q-30 0 -15 27l396 700l-385 682q-6 8 -2 17q5 10 18 10h80q22 0 33 -19l321 -588l318 588q8 19 32 19h82q12 0 17 -10q4 -9 -2 -17l-385 -682l397 -700q7 -11 2 -19t-16 -8h-78q-26 0 -37 20z" />
    <glyph glyph-name="Y" unicode="Y" horiz-adv-x="1069" 
d="M596 549v-524q0 -25 -27 -25h-69q-23 0 -23 25v524l-416 860q-12 27 17 27h78q20 0 30 -21l250 -532l96 -226h3l100 226l248 532q11 21 32 21h76q25 0 17 -27z" />
    <glyph glyph-name="Z" unicode="Z" horiz-adv-x="974" 
d="M96 25v59q0 13 13 39l626 1202h-596q-24 0 -24 25v63q0 23 24 23h707q22 0 22 -23v-61q0 -16 -12 -39l-623 -1202h619q27 0 27 -23v-63q0 -25 -27 -25h-733q-23 0 -23 25z" />
    <glyph glyph-name="bracketleft" unicode="[" horiz-adv-x="600" 
d="M508 -154v-49q0 -22 -23 -22h-262q-24 0 -24 22v1616q0 23 24 23h262q23 0 23 -23v-49q0 -23 -23 -23h-176v-1472h176q23 0 23 -23z" />
    <glyph glyph-name="backslash" unicode="\" horiz-adv-x="708" 
d="M133 1415l555 -1388q10 -27 -18 -27h-64q-25 0 -33 23l-553 1386q-8 27 19 27h63q24 0 31 -21z" />
    <glyph glyph-name="bracketright" unicode="]" horiz-adv-x="604" 
d="M94 -203v49q0 23 25 23h176v1472h-176q-25 0 -25 23v49q0 23 25 23h262q22 0 22 -23v-1616q0 -22 -22 -22h-262q-25 0 -25 22z" />
    <glyph glyph-name="asciicircum" unicode="^" horiz-adv-x="1067" 
d="M506 1436h55q23 0 33 -21l350 -680q10 -26 -18 -26h-70q-20 0 -31 20l-293 578l-290 -578q-14 -20 -33 -20h-68q-32 0 -16 26l350 680q11 21 31 21z" />
    <glyph glyph-name="underscore" unicode="_" horiz-adv-x="847" 
d="M784 -178h-718q-23 0 -23 24v37q0 21 23 21h718q21 0 21 -21v-37q0 -24 -21 -24z" />
    <glyph glyph-name="grave" unicode="`" horiz-adv-x="591" 
d="M311 1395l109 -176q12 -21 -12 -21h-41q-17 0 -31 14l-168 174q-8 11 -5 20t17 9h94q26 0 37 -20z" />
    <glyph glyph-name="a" unicode="a" horiz-adv-x="929" 
d="M803 754v-731q0 -23 -25 -23h-59q-23 0 -23 23v155q-80 -192 -325 -192q-143 0 -220 81q-77 82 -77 220q0 89 31 151q31 63 82 101q47 35 135 59t168 32q91 10 204 11v109q0 124 -54 181q-53 56 -179 56q-133 0 -277 -55q-20 -10 -26 14l-15 53q-6 18 17 29
q127 59 309 59q175 0 254 -82q80 -83 80 -251zM694 391v160q-81 -1 -166 -7q-60 -4 -138 -22q-72 -17 -112 -43q-42 -28 -68 -73q-28 -48 -28 -115q0 -98 51 -155q50 -56 156 -56q143 0 224 89t81 222z" />
    <glyph glyph-name="b" unicode="b" horiz-adv-x="1036" 
d="M252 535q0 -453 297 -453q282 0 282 453q0 452 -282 452q-144 0 -221 -115q-76 -113 -76 -337zM250 190v-167q0 -23 -21 -23h-65q-25 0 -25 23v1390q0 23 25 23h65q23 0 23 -23v-536q34 96 117 154q81 56 196 56q187 0 284 -141q97 -140 97 -411q0 -273 -97 -413
t-284 -140q-115 0 -198 54t-117 154z" />
    <glyph glyph-name="c" unicode="c" horiz-adv-x="808" 
d="M90 535q0 270 103 412q101 140 303 140q130 0 219 -40q24 -12 18 -33l-18 -49q-8 -28 -33 -15q-74 33 -174 33q-155 0 -229 -110t-74 -338q0 -451 301 -451q110 0 188 39q21 11 29 -12l18 -54q4 -16 -20 -28q-91 -47 -215 -47q-206 0 -310 140q-106 142 -106 413z" />
    <glyph glyph-name="d" unicode="d" horiz-adv-x="1036" 
d="M786 535q0 224 -77 337q-79 115 -222 115q-282 0 -282 -452q0 -453 282 -453q146 0 223 115q76 113 76 338zM786 23v165q-34 -98 -117 -152t-200 -54q-185 0 -282 140t-97 413q0 271 97 411q97 141 282 141q117 0 198 -56q83 -58 117 -154v536q0 23 23 23h63q25 0 25 -23
v-1390q0 -23 -25 -23h-63q-21 0 -21 23z" />
    <glyph glyph-name="e" unicode="e" horiz-adv-x="933" 
d="M537 78q123 0 219 45q25 12 32 -14l15 -48q6 -22 -19 -30q-112 -51 -254 -51q-440 0 -440 555q0 270 99 411t292 141q184 0 276 -134q91 -133 91 -365v-82q0 -25 -27 -25h-620q12 -403 336 -403zM481 989q-268 0 -280 -414h536v19q0 395 -256 395z" />
    <glyph glyph-name="f" unicode="f" horiz-adv-x="589" 
d="M309 1067h217q23 0 23 -25v-53q0 -22 -23 -22h-217v-944q0 -23 -20 -23h-66q-22 0 -22 23v944h-131q-23 0 -23 22v53q0 25 23 25h131v94q0 148 57 217q58 70 180 70q62 0 105 -14q18 -6 18 -27v-45q0 -27 -24 -21q-40 7 -82 7q-77 0 -112 -44q-34 -43 -34 -149v-88z" />
    <glyph glyph-name="g" unicode="g" horiz-adv-x="991" 
d="M748 590q0 194 -74 297q-74 102 -207 102q-264 0 -264 -405q0 -406 264 -406q133 0 207 108q74 109 74 304zM856 1042v-915q0 -187 -100 -280t-289 -93q-163 0 -283 53q-21 10 -16 27l16 51q6 24 27 17q123 -47 254 -47q280 0 280 278v152q-31 -94 -109 -147
q-80 -54 -185 -54q-173 0 -267 129q-94 128 -94 371q0 242 92 373q91 130 267 130q107 0 186 -55q81 -56 110 -143v155q0 23 25 23h64q22 0 22 -25z" />
    <glyph glyph-name="h" unicode="h" horiz-adv-x="1007" 
d="M877 737v-714q0 -23 -21 -23h-65q-25 0 -25 23v702q0 258 -225 258q-130 0 -209 -88q-80 -89 -80 -227v-643q0 -25 -23 -25h-65q-25 0 -25 23v1390q0 23 25 23h65q23 0 23 -23v-516q29 76 110 134q78 56 205 56q154 0 232 -93t78 -257z" />
    <glyph glyph-name="i" unicode="i" horiz-adv-x="397" 
d="M254 1042v-1019q0 -23 -23 -23h-65q-23 0 -23 23v1019q0 25 23 25h65q23 0 23 -25zM256 1395v-156q0 -22 -23 -22h-69q-23 0 -23 22v156q0 22 23 22h69q23 0 23 -22z" />
    <glyph glyph-name="j" unicode="j" horiz-adv-x="415" 
d="M162 14v1028q0 25 22 25h66q22 0 22 -25v-1038q0 -125 -43 -181t-145 -56q-36 0 -84 8q-20 1 -20 24v56q0 23 24 18q30 -6 64 -6q51 0 72 34q22 36 22 113zM274 1395v-156q0 -22 -22 -22h-70q-22 0 -22 22v156q0 22 22 22h70q22 0 22 -22z" />
    <glyph glyph-name="k" unicode="k" horiz-adv-x="839" 
d="M791 0h-93q-22 0 -34 18l-412 506v-501q0 -23 -23 -23h-65q-25 0 -25 23v1390q0 23 25 23h65q23 0 23 -23v-756l397 396q17 14 37 14h90q10 0 15 -5q4 -4 2 -12q-1 -6 -9 -14l-454 -440l473 -565q11 -11 6 -21q-4 -10 -18 -10z" />
    <glyph glyph-name="l" unicode="l" horiz-adv-x="397" 
d="M254 1413v-1390q0 -23 -23 -23h-65q-23 0 -23 23v1390q0 23 23 23h65q23 0 23 -23z" />
    <glyph glyph-name="m" unicode="m" horiz-adv-x="1533" 
d="M825 696v-673q0 -23 -22 -23h-66q-22 0 -22 23v710q0 250 -201 250q-118 0 -193 -85q-75 -86 -75 -220v-655q0 -23 -23 -23h-65q-25 0 -25 23v1019q0 25 25 25h65q23 0 23 -23v-145q27 75 101 132q74 56 190 56q217 0 266 -200q33 87 112 143q79 57 201 57q141 0 215 -92
t74 -250v-722q0 -23 -23 -23h-65q-23 0 -23 23v710q0 250 -202 250q-117 0 -192 -81t-75 -206z" />
    <glyph glyph-name="n" unicode="n" horiz-adv-x="995" 
d="M866 737v-714q0 -23 -24 -23h-64q-22 0 -22 23v702q0 258 -224 258q-129 0 -208 -88q-80 -89 -80 -225v-647q0 -23 -23 -23h-65q-23 0 -23 23v1019q0 25 23 25h63q23 0 23 -23l2 -147q34 77 111 134q75 56 200 56q155 0 233 -93t78 -257z" />
    <glyph glyph-name="o" unicode="o" horiz-adv-x="989" 
d="M494 -18q-200 0 -301 140q-103 142 -103 413q0 270 103 412q101 140 301 140q199 0 302 -140t103 -412q0 -273 -103 -413t-302 -140zM494 82q290 0 290 453q0 452 -290 452q-289 0 -289 -452q0 -453 289 -453z" />
    <glyph glyph-name="p" unicode="p" horiz-adv-x="1030" 
d="M246 535q0 -223 77 -338t220 -115q282 0 282 453q0 452 -282 452q-143 0 -220 -115t-77 -337zM244 1044v-167q34 96 117 154q81 56 198 56q187 0 284 -141q97 -140 97 -411q0 -273 -97 -413t-284 -140q-241 0 -313 208v-393q0 -22 -23 -22h-65q-25 0 -25 22v1245
q0 25 25 25h63q23 0 23 -23z" />
    <glyph glyph-name="q" unicode="q" horiz-adv-x="1030" 
d="M786 535q0 224 -77 337q-79 115 -222 115q-282 0 -282 -452q0 -453 282 -453q146 0 223 115q76 113 76 338zM786 877v167q0 23 21 23h63q25 0 25 -25v-1245q0 -22 -25 -22h-63q-23 0 -23 22v391q-34 -99 -116 -152q-82 -54 -199 -54q-185 0 -282 140t-97 413
q0 271 97 411q97 141 282 141q116 0 199 -56q84 -57 118 -154z" />
    <glyph glyph-name="r" unicode="r" horiz-adv-x="618" 
d="M158 1067h65q23 0 23 -23v-190q24 87 103 155q78 68 192 68q26 0 26 -22v-78q0 -23 -22 -23h-2q-2 1 -6.5 1.5t-8.5 0.5q-20 2 -24 2q-106 0 -182 -107t-76 -257v-571q0 -23 -23 -23h-65q-25 0 -25 23v1019q0 25 25 25z" />
    <glyph glyph-name="s" unicode="s" horiz-adv-x="776" 
d="M700 274q0 -143 -88 -218q-87 -74 -254 -74q-157 0 -268 43q-22 7 -20 26l14 53q8 23 29 15q108 -39 239 -39q238 0 238 194q0 38 -15 69q-18 39 -26 50q-12 18 -59 47q-49 30 -61 36q-38 19 -83 42q-146 74 -186 111q-80 74 -80 190q0 268 319 268q117 0 238 -40
q23 -6 18 -27l-14 -47q-6 -24 -27 -17q-99 33 -204 33q-117 0 -169 -40q-53 -41 -53 -130q0 -37 13 -70q12 -29 53 -60q42 -31 64 -42l98 -49q65 -31 112 -59q36 -21 86 -63q44 -37 66 -88q20 -47 20 -114z" />
    <glyph glyph-name="t" unicode="t" horiz-adv-x="612" 
d="M526 967h-227v-676q0 -116 31 -159q30 -42 119 -42q16 0 75 10q17 2 23 -20l12 -49q2 -21 -18 -27q-32 -14 -111 -14q-130 0 -186 63q-56 64 -56 228v686h-129q-24 0 -24 22v53q0 25 24 25h131v258q0 25 25 25h59q25 0 25 -25v-258h227q23 0 23 -25v-53q0 -22 -23 -22z
" />
    <glyph glyph-name="u" unicode="u" horiz-adv-x="983" 
d="M125 338v704q0 25 25 25h63q23 0 23 -25v-688q0 -270 225 -270q123 0 199 88q77 89 77 225v645q0 25 23 25h65q23 0 23 -25v-1019q0 -23 -23 -23h-65q-23 0 -23 23v149q-28 -77 -102 -134q-72 -56 -197 -56q-157 0 -235 94q-78 95 -78 262z" />
    <glyph glyph-name="v" unicode="v" horiz-adv-x="849" 
d="M465 0h-78q-25 0 -31 23l-305 1017q-6 27 19 27h69q21 0 27 -25l182 -634l76 -271h4l74 271l184 634q6 25 27 25h69q25 0 19 -27l-307 -1017q-6 -23 -29 -23z" />
    <glyph glyph-name="w" unicode="w" horiz-adv-x="1368" 
d="M649 1067h68q22 0 28 -23l177 -688l51 -225h4l47 225l164 686q6 25 26 25h68q27 0 21 -27l-256 -1017q-6 -23 -31 -23h-76q-25 0 -31 23l-168 651l-55 239h-4l-53 -239l-170 -651q-6 -23 -31 -23h-76q-22 0 -28 23l-256 1017q-6 27 18 27h68q20 0 26 -25l164 -686
l47 -225h4l51 225l179 688q6 23 24 23z" />
    <glyph glyph-name="x" unicode="x" horiz-adv-x="858" 
d="M182 1051l248 -418l244 418q12 16 31 16h75q12 0 17 -8q4 -7 -4 -21l-304 -497l314 -514q12 -27 -12 -27h-80q-17 0 -27 16l-256 435l-254 -435q-10 -16 -27 -16h-81q-11 0 -14 8t3 19l314 514l-306 497q-18 29 11 29h82q14 0 26 -16z" />
    <glyph glyph-name="y" unicode="y" horiz-adv-x="854" 
d="M805 1040l-289 -993q-45 -154 -102 -218q-57 -65 -181 -65q-69 0 -118 19q-23 6 -21 24l12 52q6 20 29 18q73 -12 94 -12q88 0 124 67q36 68 12 140l-310 968q-10 27 17 27h69q18 0 29 -25l195 -641l75 -264h4l72 264l174 641q6 25 27 25h69q25 0 19 -27z" />
    <glyph glyph-name="z" unicode="z" horiz-adv-x="835" 
d="M737 1042v-43q0 -16 -10 -30l-494 -869h486q24 0 24 -20v-57q0 -23 -24 -23h-606q-23 0 -23 23v43q0 12 8 30l498 869h-471q-23 0 -23 22v55q0 25 23 25h588q24 0 24 -25z" />
    <glyph glyph-name="braceleft" unicode="{" horiz-adv-x="600" 
d="M78 575v60q0 22 22 22h29q61 0 87 94q26 95 26 310q0 209 42 292t173 83h59q25 0 25 -23v-49q0 -25 -25 -25h-43q-78 0 -102 -64q-25 -67 -25 -231q0 -224 -30 -322t-97 -116q67 -18 97 -117t30 -323q0 -162 25 -231q24 -66 102 -66h43q25 0 25 -23v-49q0 -22 -25 -22
h-59q-131 0 -173 83q-42 82 -42 294q0 213 -26 309q-25 94 -87 94h-29q-22 0 -22 20z" />
    <glyph glyph-name="bar" unicode="|" horiz-adv-x="509" 
d="M309 1452v-1655q0 -22 -22 -22h-62q-22 0 -22 22v1655q0 25 22 25h62q22 0 22 -25z" />
    <glyph glyph-name="braceright" unicode="}" horiz-adv-x="600" 
d="M522 635v-60q0 -20 -20 -20h-29q-62 0 -87 -94q-26 -96 -26 -309q0 -210 -43 -293q-43 -84 -172 -84h-61q-25 0 -25 22v49q0 23 25 23h45q77 0 101 65q24 66 24 232q0 220 31 322q30 100 96 118q-66 18 -96 117q-31 102 -31 321q0 166 -24 231q-24 64 -101 64h-45
q-25 0 -25 25v49q0 23 25 23h61q129 0 172 -84q43 -83 43 -291q0 -215 26 -310q26 -94 87 -94h29q20 0 20 -22z" />
    <glyph glyph-name="asciitilde" unicode="~" horiz-adv-x="1064" 
d="M313 850q63 0 181 -47l98 -41q96 -39 141 -39q62 0 96 59q15 22 21 47q7 20 31 9l45 -19q16 -6 10 -31q-39 -176 -184 -176q-70 0 -181 45l-100 43q-87 37 -139 37q-62 0 -99 -59q-12 -23 -18 -47q-8 -19 -31 -8l-45 20q-14 7 -12 29q43 178 186 178z" />
    <glyph glyph-name="uni00A0" unicode="&#xa0;" horiz-adv-x="0" 
 />
    <glyph glyph-name="exclamdown" unicode="&#xa1;" horiz-adv-x="475" 
d="M311 1042v-139q0 -22 -20 -22h-103q-24 0 -24 22v139q0 25 22 25h105q20 0 20 -25zM213 680h51q21 0 21 -27l20 -856q0 -22 -22 -22h-88q-25 0 -25 22l20 856q0 27 23 27z" />
    <glyph glyph-name="cent" unicode="&#xa2;" horiz-adv-x="843" 
d="M92 532q0 515 373 553v152q0 25 22 25h48q24 0 24 -25v-152q99 -5 189 -45q22 -10 16 -28l-16 -49q-8 -27 -31 -15q-79 35 -189 35q-162 0 -242 -111q-79 -110 -79 -340q0 -228 78 -338t243 -110q114 0 197 39q24 13 31 -14l16 -50q4 -18 -18 -30q-79 -39 -195 -45v-156
q0 -23 -24 -23h-48q-22 0 -22 23v158q-373 35 -373 546z" />
    <glyph glyph-name="sterling" unicode="&#xa3;" horiz-adv-x="1132" 
d="M297 680h-184q-21 0 -21 25v47q0 20 21 20h147q-84 196 -84 313q0 165 108 268q107 103 318 103q195 0 293 -91t98 -243q0 -84 -26 -84h-60q-11 0 -18 5q-6 4 -4 16q4 36 4 61q0 103 -71 166q-72 64 -212 64q-153 0 -233 -74t-80 -195q0 -107 86 -309h342q22 0 22 -20
v-47q0 -25 -22 -25h-309q57 -129 57 -229q0 -104 -49 -193q-50 -91 -144 -143q77 28 158 28q73 0 176 -26q107 -27 172 -27q95 0 130 64q34 62 34 172q0 24 25 24h55q25 0 25 -28q0 -155 -53 -246q-53 -90 -191 -90q-90 0 -203 29q-117 30 -198 30q-143 0 -250 -55
q-22 -8 -29 4l-35 59q-11 17 4 25q258 147 258 377q0 91 -57 225z" />
    <glyph glyph-name="currency" unicode="&#xa4;" horiz-adv-x="1122" 
d="M129 209l113 113q-64 102 -64 258q0 158 64 256l-113 114q-15 18 0 33l31 31q18 18 33 0l110 -113q95 109 258 109t258 -109l113 113q15 15 31 0l32 -31q18 -15 0 -33l-116 -116q63 -96 63 -254q0 -160 -63 -256l116 -115q18 -18 0 -33l-32 -31q-16 -15 -31 0l-113 113
q-95 -108 -258 -108t-258 108l-110 -113q-15 -18 -33 0l-31 31q-18 18 0 33zM848 580q0 166 -76 251q-78 87 -211 87q-135 0 -213 -87q-76 -85 -76 -251q0 -167 76 -252q77 -86 213 -86q134 0 211 86q76 85 76 252z" />
    <glyph glyph-name="yen" unicode="&#xa5;" horiz-adv-x="1097" 
d="M608 389v-364q0 -25 -24 -25h-70q-25 0 -25 25v364h-348q-20 0 -20 23v45q0 20 20 20h348v53l-73 152h-275q-20 0 -20 23v45q0 20 20 20h232l-314 639q-15 27 17 27h76q20 0 30 -21l365 -762h4l367 762q12 21 30 21h74q28 0 16 -27l-315 -639h231q25 0 25 -20v-45
q0 -23 -25 -23h-272l-74 -152v-53h346q25 0 25 -20v-45q0 -23 -25 -23h-346z" />
    <glyph glyph-name="brokenbar" unicode="&#xa6;" horiz-adv-x="509" 
d="M309 1452v-631q0 -22 -22 -22h-62q-22 0 -22 22v631q0 25 22 25h62q22 0 22 -25zM309 428v-631q0 -22 -22 -22h-62q-22 0 -22 22v631q0 25 22 25h62q22 0 22 -25z" />
    <glyph glyph-name="section" unicode="&#xa7;" horiz-adv-x="1196" 
d="M184 643q0 103 69 180q68 75 189 90q-98 61 -146 118q-50 59 -50 145q0 139 88 208q90 70 291 70q153 0 293 -39q24 -6 24 -29l-2 -51q-4 -27 -29 -16q-110 35 -272 35q-154 0 -216 -46q-63 -46 -63 -139q0 -79 71 -132q68 -51 239 -130q91 -42 134 -67q48 -28 103 -70
t78 -90q25 -52 25 -109q0 -96 -68 -167q-67 -70 -190 -91q209 -113 209 -268q0 -281 -412 -281q-165 0 -289 33q-24 7 -24 33v49q0 26 28 19q136 -33 275 -33q307 0 307 186q0 29 -9 53q-9 25 -31 48q-17 19 -42 38q-21 17 -56 37q-30 17 -59 31q-24 11 -65 31
q-33 16 -62 28l-96 48q-27 12 -78 42q-52 31 -72 49q-12 11 -47 50q-26 28 -35 63q-10 37 -10 74zM549 852q-115 -2 -185 -61q-71 -60 -71 -144q0 -97 129 -170q50 -27 225 -104q111 6 183 63q73 58 73 129q0 39 -20 72q-22 37 -46 59q-30 29 -81 56q-72 39 -93 49
q-37 18 -114 51z" />
    <glyph glyph-name="dieresis" unicode="&#xa8;" horiz-adv-x="591" 
d="M201 1339v-118q0 -23 -21 -23h-71q-25 0 -25 23v118q0 23 25 23h71q21 0 21 -23zM506 1339v-118q0 -23 -23 -23h-71q-23 0 -23 23v118q0 23 23 23h71q23 0 23 -23z" />
    <glyph glyph-name="copyright" unicode="&#xa9;" horiz-adv-x="1548" 
d="M819 385q96 0 154 29q16 6 22 -11l19 -49q4 -11 -15 -22q-81 -37 -190 -37q-169 0 -260 105q-92 106 -92 321q0 216 91 320q92 106 259 106q97 0 186 -39q22 -8 17 -21l-19 -49q-6 -19 -22 -12q-53 29 -150 29q-258 0 -258 -334q0 -336 258 -336zM195 719q0 -186 58 -329
q59 -145 192 -236q136 -93 329 -93t329 93q133 91 192 236t59 329q0 133 -35 252q-35 118 -102 209t-182 144q-113 52 -261 52t-261 -52t-181 -144q-69 -93 -103 -209q-34 -115 -34 -252zM113 719q0 153 40 282q43 137 118 234q80 102 208 162q127 59 295 59q221 0 373 -103
q153 -103 222 -267t69 -367q0 -154 -40 -283q-40 -130 -120 -234q-79 -103 -209 -162q-128 -58 -295 -58t-295 58t-208 162q-76 99 -118 234q-40 129 -40 283z" />
    <glyph glyph-name="ordfeminine" unicode="&#xaa;" horiz-adv-x="776" 
d="M573 1315v125q-211 -1 -313 -42q-102 -40 -102 -163q0 -164 168 -164q118 0 183 69q64 68 64 175zM573 1024v109q-62 -146 -262 -146q-117 0 -184 67q-66 66 -66 179q0 73 28 127q27 52 72 83q43 30 114 48q73 19 138 23q104 7 160 8v94q0 96 -44 137t-146 41
q-112 0 -227 -47q-19 -11 -27 12l-16 51q-4 15 16 25q123 51 256 51q289 0 289 -264v-598q0 -27 -27 -27h-47q-27 0 -27 27z" />
    <glyph glyph-name="guillemotleft" unicode="&#xab;" horiz-adv-x="702" 
d="M74 543q0 6 2 14l141 272q6 19 29 19h59q27 0 14 -25l-143 -280l143 -277q12 -24 -14 -24h-59q-22 0 -29 18l-141 272q-2 8 -2 11zM354 543q0 6 2 14l140 272q8 19 28 19h60q30 0 14 -25l-143 -278l143 -279q15 -24 -14 -24h-60q-21 0 -28 18l-140 272q-2 6 -2 11z" />
    <glyph glyph-name="logicalnot" unicode="&#xac;" horiz-adv-x="1069" 
d="M909 750v-400q0 -24 -24 -24h-62q-22 0 -22 24v320h-662q-24 0 -24 24v56q0 22 24 22h746q24 0 24 -22z" />
    <glyph glyph-name="uni00AD" unicode="&#xad;" horiz-adv-x="669" 
d="M565 494h-461q-22 0 -22 20v55q0 21 24 21h459q23 0 23 -21v-55q0 -20 -23 -20z" />
    <glyph glyph-name="registered" unicode="&#xae;" horiz-adv-x="858" 
d="M369 1094h59q59 0 79 16q21 16 21 61q0 43 -21 60q-20 16 -77 16h-61v-153zM430 1456q158 0 243 -103t85 -257q0 -150 -86 -256q-86 -105 -242 -105q-158 0 -244 105q-86 106 -86 256q0 153 86 257q85 103 244 103zM430 788q135 0 205 88t70 220t-70 220q-69 87 -205 87
q-138 0 -207 -87t-69 -220t69 -220q70 -88 207 -88zM307 913v377q0 13 15 13h114q154 0 154 -132q0 -111 -96 -127l88 -129q10 -16 -11 -16h-36q-13 0 -19 10l-86 131h-61v-127q0 -14 -13 -14h-34q-15 0 -15 14z" />
    <glyph glyph-name="macron" unicode="&#xaf;" horiz-adv-x="591" 
d="M522 1212h-454q-21 0 -21 21v37q0 22 21 22h454q23 0 23 -22v-37q0 -21 -23 -21z" />
    <glyph glyph-name="degree" unicode="&#xb0;" horiz-adv-x="659" 
d="M332 1008q78 0 123 51t45 135t-45 135t-123 51q-80 0 -126 -51q-46 -50 -46 -135t46 -135q46 -51 126 -51zM332 930q-117 0 -186 74q-68 72 -68 190t68 190q69 74 186 74q114 0 183 -74q69 -73 69 -190q0 -116 -69 -190t-183 -74z" />
    <glyph glyph-name="plusminus" unicode="&#xb1;" horiz-adv-x="1067" 
d="M938 692h-352v-389q0 -22 -23 -22h-59q-25 0 -25 22v389h-350q-23 0 -23 23v53q0 20 23 20h350v386q0 24 25 24h59q23 0 23 -24v-386h352q23 0 23 -20v-53q0 -23 -23 -23zM938 0h-809q-23 0 -23 23v45q0 22 23 22h809q23 0 23 -22v-45q0 -23 -23 -23z" />
    <glyph glyph-name="two.superior" unicode="&#xb2;" 
d="M184 1651q0 -3 2 -25t2 -27q0 -24 -24 -24h-47q-21 0 -25 22q-6 18 -6 56q0 104 64 168q63 63 196 63q137 0 199 -66q61 -65 61 -178q0 -246 -373 -548h363q27 0 27 -27v-41q0 -27 -27 -27h-485q-25 0 -25 27v39q0 18 14 29q79 65 133 114q47 42 123 125q75 81 112 157
q38 78 38 148q0 158 -162 158q-160 0 -160 -143z" />
    <glyph glyph-name="three.superior" unicode="&#xb3;" 
d="M326 1405h-78q-27 0 -27 27v38q0 25 27 25h78q70 0 114 39q43 39 43 117q0 143 -186 143q-64 0 -166 -31q-25 -8 -31 13l-14 45q-4 14 18 26q87 37 201 37q281 0 281 -227q0 -152 -121 -197q139 -39 139 -213q0 -260 -301 -260q-128 0 -211 39q-22 10 -18 27l14 43
q7 24 29 16q87 -35 180 -35q205 0 205 170q0 158 -176 158z" />
    <glyph glyph-name="acute" unicode="&#xb4;" horiz-adv-x="591" 
d="M172 1219l109 176q11 20 36 20h97q12 0 15 -9t-5 -20l-168 -174q-14 -14 -33 -14h-39q-24 0 -12 21z" />
    <glyph glyph-name="mu" unicode="&#xb5;" horiz-adv-x="989" 
d="M858 1042v-704q0 -169 -77 -264q-76 -94 -236 -94q-125 0 -196 56q-74 59 -103 134v-373q0 -22 -23 -22h-65q-25 0 -25 22v1245q0 25 25 25h65q23 0 23 -25v-647q0 -136 77 -225q76 -88 199 -88q226 0 226 270v690q0 25 22 25h66q22 0 22 -25z" />
    <glyph glyph-name="paragraph" unicode="&#xb6;" horiz-adv-x="925" 
d="M868 1350h-71q-62 0 -86 -26q-25 -27 -25 -93v-1241q0 -119 -46 -171t-148 -52q-58 0 -101 14q-18 6 -18 24l4 39q1 21 24 19q6 0 30 -4t44 -4q61 0 85 33q26 35 26 112v606h-56q-197 0 -317 109q-119 108 -119 305q0 202 114 309q115 107 316 107h344q25 0 25 -23v-41
q0 -22 -25 -22z" />
    <glyph glyph-name="periodcentered" unicode="&#xb7;" horiz-adv-x="385" 
d="M121 465v137q0 25 24 25h95q24 0 24 -25v-137q0 -23 -22 -23h-97q-24 0 -24 23z" />
    <glyph glyph-name="cedilla" unicode="&#xb8;" horiz-adv-x="591" 
d="M233 16h64q79 -24 128 -75q50 -52 50 -111q0 -123 -162 -123q-48 0 -63 6q-14 4 -14 23v35q0 14 16 14h47q92 0 92 61q0 93 -158 170z" />
    <glyph glyph-name="one.superior" unicode="&#xb9;" 
d="M358 1739l-163 -135q-20 -14 -37 4l-27 37q-14 17 4 32l219 187q10 10 33 10h45q25 0 25 -27v-823q0 -27 -25 -27h-49q-25 0 -25 27v715z" />
    <glyph glyph-name="ordmasculine" unicode="&#xba;" horiz-adv-x="808" 
d="M406 1794q-234 0 -234 -358q0 -357 234 -357q229 0 229 357q0 358 -229 358zM406 987q-166 0 -252 114q-86 115 -86 335q0 221 86 336q86 114 252 114q164 0 249 -114q86 -115 86 -336q0 -220 -86 -335q-85 -114 -249 -114z" />
    <glyph glyph-name="guillemotright" unicode="&#xbb;" horiz-adv-x="702" 
d="M629 543q0 -6 -4 -11l-140 -272q-11 -18 -26 -18h-62q-27 0 -12 24l141 277l-141 280q-16 25 12 25h62q15 0 26 -19l140 -272q4 -5 4 -14zM350 543q0 -6 -4 -11l-141 -272q-7 -18 -25 -18h-61q-28 0 -13 24l142 277l-142 280q-16 25 13 25h61q17 0 25 -19l141 -272
q4 -5 4 -14z" />
    <glyph glyph-name="onequarter" unicode="&#xbc;" horiz-adv-x="1687" 
d="M1315 1411l-768 -1391q-14 -20 -31 -20h-65q-27 0 -15 25l766 1392q13 19 33 19h65q11 0 16 -8q4 -7 -1 -17zM358 1300l-163 -135q-20 -14 -37 4l-27 37q-15 18 4 33l219 186q11 11 33 11h45q25 0 25 -27v-823q0 -27 -25 -27h-49q-25 0 -25 27v714zM1434 733l-297 -438
h297v438zM1630 203h-96v-176q0 -27 -27 -27h-47q-26 0 -26 27v176h-390q-24 0 -24 26v39q0 14 12 31l395 559q16 19 31 19h49q27 0 27 -27v-555h96q25 0 25 -25v-41q0 -26 -25 -26z" />
    <glyph glyph-name="onehalf" unicode="&#xbd;" horiz-adv-x="1687" 
d="M1233 1411l-768 -1391q-14 -20 -31 -20h-65q-27 0 -15 25l766 1392q13 19 33 19h66q10 0 15 -8q4 -7 -1 -17zM358 1300l-163 -135q-20 -14 -37 4l-27 37q-15 18 4 33l219 186q11 11 33 11h45q25 0 25 -27v-823q0 -27 -25 -27h-49q-25 0 -25 27v714zM1161 653
q0 144 160 144q162 0 162 -158q0 -71 -38 -149q-36 -74 -112 -156q-76 -83 -123 -125q-66 -60 -133 -115q-14 -11 -14 -28v-39q0 -27 24 -27h486q26 0 26 27v41q0 26 -26 26h-363q373 302 373 549q0 112 -61 177q-62 67 -199 67q-135 0 -198 -63q-62 -62 -62 -169
q0 -37 6 -55q4 -22 25 -22h47q24 0 24 24q0 3 -2 25t-2 26z" />
    <glyph glyph-name="threequarters" unicode="&#xbe;" horiz-adv-x="1687" 
d="M1343 1411l-768 -1391q-14 -20 -30 -20h-66q-27 0 -14 25l766 1392q13 19 33 19h65q11 0 16 -8q4 -7 -2 -17zM1434 733l-297 -438h297v438zM1630 203h-96v-176q0 -27 -27 -27h-47q-26 0 -26 27v176h-390q-24 0 -24 26v39q0 14 12 31l395 559q16 19 31 19h49q27 0 27 -27
v-555h96q25 0 25 -25v-41q0 -26 -25 -26zM326 967h-78q-27 0 -27 26v39q0 25 27 25h78q70 0 114 39q43 39 43 116q0 144 -186 144q-64 0 -166 -31q-25 -8 -31 12l-14 45q-4 15 18 27q87 37 201 37q281 0 281 -227q0 -152 -121 -197q139 -39 139 -213q0 -260 -301 -260
q-128 0 -211 39q-22 10 -18 26l14 43q8 25 29 17q90 -35 180 -35q205 0 205 170q0 158 -176 158z" />
    <glyph glyph-name="questiondown" unicode="&#xbf;" horiz-adv-x="804" 
d="M506 1042v-139q0 -22 -23 -22h-102q-23 0 -23 22v139q0 25 23 25h102q23 0 23 -25zM375 655v-39q0 -72 -44 -145q-43 -71 -97 -122q-52 -49 -96 -129t-44 -163q0 -152 85 -224q87 -73 263 -73q153 0 281 54q26 10 20 26l-20 60q-6 22 -29 14q-129 -47 -233 -47
q-133 0 -189 46q-57 47 -57 153q0 72 43 142q46 74 94 121q49 47 94 127q43 76 43 160v39q0 25 -22 25h-70q-22 0 -22 -25z" />
    <glyph glyph-name="Agrave" unicode="&#xc0;" horiz-adv-x="1122" 
d="M330 520h463l-230 780h-4zM516 1436h90q25 0 31 -25l430 -1384q6 -27 -20 -27h-74q-23 0 -29 23l-117 389h-530l-119 -389q-6 -23 -26 -23h-78q-25 0 -19 27l428 1384q8 25 33 25zM477 1729l109 -168q7 -8 2 -16q-4 -7 -17 -7h-41q-16 0 -30 14l-166 172q-8 8 -4 19
q4 10 16 10h94q22 0 37 -24z" />
    <glyph glyph-name="Aacute" unicode="&#xc1;" horiz-adv-x="1122" 
d="M330 520h463l-230 780h-4zM516 1436h90q25 0 31 -25l430 -1384q6 -27 -20 -27h-74q-23 0 -29 23l-117 389h-530l-119 -389q-6 -23 -26 -23h-78q-25 0 -19 27l428 1384q8 25 33 25zM535 1561l108 168q17 24 35 24h96q13 0 16 -10t-4 -19l-165 -172q-11 -14 -33 -14h-39
q-13 0 -17 7t3 16z" />
    <glyph glyph-name="Acircumflex" unicode="&#xc2;" horiz-adv-x="1122" 
d="M330 520h463l-230 780h-4zM516 1436h90q25 0 31 -25l430 -1384q6 -27 -20 -27h-74q-23 0 -29 23l-117 389h-530l-119 -389q-6 -23 -26 -23h-78q-25 0 -19 27l428 1384q8 25 33 25zM694 1552l-131 123l-135 -123q-17 -14 -33 -14h-51q-10 0 -13 7t5 18l162 174
q15 16 34 16h58q21 0 37 -16l161 -174q8 -12 6 -18q-3 -7 -16 -7h-51q-12 0 -33 14z" />
    <glyph glyph-name="Atilde" unicode="&#xc3;" horiz-adv-x="1122" 
d="M330 520h463l-230 780h-4zM516 1436h90q25 0 31 -25l430 -1384q6 -27 -20 -27h-74q-23 0 -29 23l-117 389h-530l-119 -389q-6 -23 -26 -23h-78q-25 0 -19 27l428 1384q8 25 33 25zM834 1663q0 -57 -32 -95t-93 -38q-56 0 -140 39l-53 26q-44 23 -82 23q-55 0 -61 -43
l-2 -19q0 -20 -25 -20h-31q-22 0 -22 29q0 59 32 97t91 38q57 0 139 -43l51 -27q49 -26 88 -26q52 0 58 51l2 16q0 23 26 23h29q25 0 25 -31z" />
    <glyph glyph-name="Adieresis" unicode="&#xc4;" horiz-adv-x="1122" 
d="M330 520h463l-230 780h-4zM516 1436h90q25 0 31 -25l430 -1384q6 -27 -20 -27h-74q-23 0 -29 23l-117 389h-530l-119 -389q-6 -23 -26 -23h-78q-25 0 -19 27l428 1384q8 25 33 25zM467 1675v-114q0 -23 -23 -23h-75q-23 0 -23 23v114q0 23 23 23h75q23 0 23 -23z
M778 1675v-114q0 -23 -24 -23h-74q-23 0 -23 23v114q0 23 23 23h74q24 0 24 -23z" />
    <glyph glyph-name="Aring" unicode="&#xc5;" horiz-adv-x="1122" 
d="M379 1544q0 79 49 125q50 47 135 47q84 0 134 -47q51 -48 51 -125q0 -116 -103 -160l422 -1357q6 -27 -20 -27h-74q-23 0 -29 23l-117 389h-530l-119 -389q-6 -23 -26 -23h-78q-25 0 -19 27l420 1359q-96 40 -96 158zM330 520h463l-230 780h-4zM449 1544q0 -106 114 -106
q111 0 111 106q0 49 -29 78t-82 29q-54 0 -85 -29q-29 -28 -29 -78z" />
    <glyph glyph-name="AE" unicode="&#xc6;" horiz-adv-x="1452" 
d="M1309 682h-465v-571h489q25 0 25 -23v-63q0 -25 -25 -25h-581q-25 0 -25 25v374h-424l-145 -376q-11 -23 -29 -23h-82q-30 0 -18 27l565 1384q8 25 37 25h696q25 0 25 -23v-63q0 -25 -25 -25h-483v-537h465q26 0 26 -24v-57q0 -25 -26 -25zM354 506h371v821h-53z" />
    <glyph glyph-name="Ccedilla" unicode="&#xc7;" horiz-adv-x="997" 
d="M647 90q114 0 219 45q21 8 31 -18l21 -54q6 -16 -21 -28q-126 -53 -262 -53h-25q107 -66 107 -160q0 -131 -172 -131q-49 0 -64 6q-18 7 -18 22v37q0 17 18 17h54q94 0 94 63q0 87 -113 156q-209 35 -311 213q-103 180 -103 514q0 380 130 558q131 179 395 179
q154 0 256 -51q25 -12 20 -31l-18 -53q-10 -26 -31 -16q-100 41 -213 41q-217 0 -316 -149q-100 -150 -100 -478q0 -331 101 -480t321 -149z" />
    <glyph glyph-name="Egrave" unicode="&#xc8;" horiz-adv-x="923" 
d="M784 682h-514v-573h537q24 0 24 -23v-61q0 -25 -24 -25h-629q-26 0 -26 25v1388q0 23 24 23h625q24 0 24 -23v-61q0 -25 -24 -25h-531v-539h514q25 0 25 -24v-57q0 -25 -25 -25zM475 1729l109 -168q7 -8 2 -16q-4 -7 -17 -7h-41q-16 0 -30 14l-166 172q-8 8 -4 19
q4 10 16 10h94q22 0 37 -24z" />
    <glyph glyph-name="Eacute" unicode="&#xc9;" horiz-adv-x="923" 
d="M784 682h-514v-573h537q24 0 24 -23v-61q0 -25 -24 -25h-629q-26 0 -26 25v1388q0 23 24 23h625q24 0 24 -23v-61q0 -25 -24 -25h-531v-539h514q25 0 25 -24v-57q0 -25 -25 -25zM436 1561l109 168q17 24 35 24h96q12 0 15 -10q3 -11 -3 -19l-166 -172q-11 -14 -33 -14
h-38q-13 0 -17 7q-5 8 2 16z" />
    <glyph glyph-name="Ecircumflex" unicode="&#xca;" horiz-adv-x="923" 
d="M784 682h-514v-573h537q24 0 24 -23v-61q0 -25 -24 -25h-629q-26 0 -26 25v1388q0 23 24 23h625q24 0 24 -23v-61q0 -25 -24 -25h-531v-539h514q25 0 25 -24v-57q0 -25 -25 -25zM635 1552l-131 123l-135 -123q-17 -14 -33 -14h-51q-11 0 -14 7t5 18l162 174q15 16 35 16
h57q21 0 37 -16l162 -174q8 -11 5 -18t-15 -7h-51q-13 0 -33 14z" />
    <glyph glyph-name="Edieresis" unicode="&#xcb;" horiz-adv-x="923" 
d="M784 682h-514v-573h537q24 0 24 -23v-61q0 -25 -24 -25h-629q-26 0 -26 25v1388q0 23 24 23h625q24 0 24 -23v-61q0 -25 -24 -25h-531v-539h514q25 0 25 -24v-57q0 -25 -25 -25zM408 1675v-114q0 -23 -23 -23h-76q-22 0 -22 23v114q0 23 22 23h76q23 0 23 -23zM719 1675
v-114q0 -23 -25 -23h-73q-23 0 -23 23v114q0 23 23 23h73q25 0 25 -23z" />
    <glyph glyph-name="Igrave" unicode="&#xcc;" horiz-adv-x="448" 
d="M166 25v1388q0 23 22 23h70q27 0 27 -23v-1388q0 -25 -27 -25h-70q-22 0 -22 25zM152 1729l108 -168q7 -8 2 -16q-4 -7 -16 -7h-41q-17 0 -31 14l-166 172q-9 8 -4 19q4 10 16 10h95q22 0 37 -24z" />
    <glyph glyph-name="Iacute" unicode="&#xcd;" horiz-adv-x="448" 
d="M166 25v1388q0 23 22 23h70q27 0 27 -23v-1388q0 -25 -27 -25h-70q-22 0 -22 25zM188 1561l109 168q17 24 35 24h96q12 0 15 -10q3 -11 -3 -19l-166 -172q-11 -14 -32 -14h-39q-13 0 -17 7q-5 8 2 16z" />
    <glyph glyph-name="Icircumflex" unicode="&#xce;" horiz-adv-x="448" 
d="M166 25v1388q0 23 22 23h70q27 0 27 -23v-1388q0 -25 -27 -25h-70q-22 0 -22 25zM354 1552l-131 123l-135 -123q-17 -14 -33 -14h-51q-10 0 -13 7t5 18l162 174q15 16 35 16h57q21 0 37 -16l162 -174q8 -11 5 -18t-16 -7h-51q-12 0 -33 14z" />
    <glyph glyph-name="Idieresis" unicode="&#xcf;" horiz-adv-x="448" 
d="M166 25v1388q0 23 22 23h70q27 0 27 -23v-1388q0 -25 -27 -25h-70q-22 0 -22 25zM127 1675v-114q0 -23 -23 -23h-75q-23 0 -23 23v114q0 23 23 23h75q23 0 23 -23zM438 1675v-114q0 -23 -24 -23h-74q-23 0 -23 23v114q0 23 23 23h74q24 0 24 -23z" />
    <glyph glyph-name="Eth" unicode="&#xd0;" horiz-adv-x="1146" 
d="M469 0h-287q-26 0 -26 25v651h-95q-22 0 -22 20v45q0 23 22 23h95v649q0 23 24 23h287q292 0 436 -161t144 -556q0 -397 -144 -558t-434 -161zM524 676h-250v-565h195q154 0 249 50q94 49 150 186q56 138 56 372q0 343 -112 475q-111 131 -345 131h-193v-561h250
q21 0 21 -23v-45q0 -20 -21 -20z" />
    <glyph glyph-name="Ntilde" unicode="&#xd1;" horiz-adv-x="1181" 
d="M1028 1413v-1388q0 -25 -24 -25h-70q-25 0 -35 20l-631 1203v-1198q0 -25 -22 -25h-68q-26 0 -26 25v1388q0 23 26 23h68q29 0 37 -19l630 -1204v1200q0 23 25 23h66q24 0 24 -23zM862 1663q0 -57 -32 -95t-93 -38q-55 0 -139 39l-53 26q-44 23 -82 23q-56 0 -62 -43
l-2 -19q0 -20 -24 -20h-31q-22 0 -22 29q0 60 31 97q32 38 91 38q58 0 140 -43l51 -27q49 -26 88 -26q51 0 57 51l2 16q0 23 27 23h29q24 0 24 -31z" />
    <glyph glyph-name="Ograve" unicode="&#xd2;" horiz-adv-x="1200" 
d="M600 1456q250 0 375 -180q125 -181 125 -557q0 -379 -125 -558t-375 -179t-375 179t-125 558q0 376 125 557q125 180 375 180zM600 88q193 0 285 152t92 479q0 325 -92 477t-285 152t-285 -152t-92 -477q0 -327 92 -479t285 -152zM545 1729l108 -168q7 -8 2 -16
q-4 -7 -16 -7h-41q-17 0 -31 14l-166 172q-9 8 -4 19q4 10 17 10h94q22 0 37 -24z" />
    <glyph glyph-name="Oacute" unicode="&#xd3;" horiz-adv-x="1200" 
d="M600 1456q250 0 375 -180q125 -181 125 -557q0 -379 -125 -558t-375 -179t-375 179t-125 558q0 376 125 557q125 180 375 180zM600 88q193 0 285 152t92 479q0 325 -92 477t-285 152t-285 -152t-92 -477q0 -327 92 -479t285 -152zM557 1561l109 168q16 24 34 24h97
q12 0 15 -10q3 -11 -3 -19l-166 -172q-11 -14 -33 -14h-39q-12 0 -16 7q-5 8 2 16z" />
    <glyph glyph-name="Ocircumflex" unicode="&#xd4;" horiz-adv-x="1200" 
d="M600 1456q250 0 375 -180q125 -181 125 -557q0 -379 -125 -558t-375 -179t-375 179t-125 558q0 376 125 557q125 180 375 180zM600 88q193 0 285 152t92 479q0 325 -92 477t-285 152t-285 -152t-92 -477q0 -327 92 -479t285 -152zM731 1552l-131 123l-135 -123
q-17 -14 -33 -14h-51q-10 0 -13 7t5 18l162 174q15 16 34 16h58q21 0 37 -16l161 -174q8 -11 5 -18t-15 -7h-51q-12 0 -33 14z" />
    <glyph glyph-name="Otilde" unicode="&#xd5;" horiz-adv-x="1200" 
d="M600 1456q250 0 375 -180q125 -181 125 -557q0 -379 -125 -558t-375 -179t-375 179t-125 558q0 376 125 557q125 180 375 180zM600 88q193 0 285 152t92 479q0 325 -92 477t-285 152t-285 -152t-92 -477q0 -327 92 -479t285 -152zM870 1663q0 -58 -31 -95
q-32 -38 -94 -38q-55 0 -139 39l-53 26q-44 23 -82 23q-55 0 -61 -43l-2 -19q0 -20 -25 -20h-31q-22 0 -22 29q0 60 31 97q32 38 92 38q57 0 139 -43l51 -27q49 -26 88 -26q51 0 57 51l3 16q0 23 26 23h29q24 0 24 -31z" />
    <glyph glyph-name="Odieresis" unicode="&#xd6;" horiz-adv-x="1200" 
d="M600 1456q250 0 375 -180q125 -181 125 -557q0 -379 -125 -558t-375 -179t-375 179t-125 558q0 376 125 557q125 180 375 180zM600 88q193 0 285 152t92 479q0 325 -92 477t-285 152t-285 -152t-92 -477q0 -327 92 -479t285 -152zM504 1675v-114q0 -23 -23 -23h-75
q-23 0 -23 23v114q0 23 23 23h75q23 0 23 -23zM815 1675v-114q0 -23 -24 -23h-74q-23 0 -23 23v114q0 23 23 23h74q24 0 24 -23z" />
    <glyph glyph-name="multiply" unicode="&#xd7;" horiz-adv-x="1067" 
d="M850 330l-318 315l-315 -317q-17 -16 -33 0l-39 41q-15 17 -2 30l320 318l-320 317q-17 21 0 33l41 37q18 15 33 0l315 -316l318 316q15 15 33 0l37 -37q18 -15 0 -33l-316 -317l316 -318q14 -16 0 -30l-37 -41q-15 -16 -33 2z" />
    <glyph glyph-name="Oslash" unicode="&#xd8;" horiz-adv-x="1208" 
d="M604 1456q238 0 359 -168l92 125q15 20 30 8l41 -32q16 -12 4 -33l-110 -156q82 -185 82 -481q0 -380 -124 -558q-125 -179 -374 -179q-244 0 -360 165l-94 -129q-15 -18 -31 -4l-41 33q-18 15 -4 31l112 158q-80 171 -80 483q0 380 124 558q125 179 374 179zM604 88
q193 0 285 152t92 479q0 237 -49 377l-613 -854q50 -79 118 -117q65 -37 167 -37zM227 719q0 -253 47 -379l613 852q-90 156 -283 156t-285 -152t-92 -477z" />
    <glyph glyph-name="Ugrave" unicode="&#xd9;" horiz-adv-x="1150" 
d="M575 -20q-223 0 -327 117q-105 119 -105 360v956q0 23 25 23h68q26 0 26 -23v-946q0 -194 73 -287q72 -92 240 -92q169 0 241 92q73 93 73 287v946q0 23 24 23h70q23 0 23 -23v-956q0 -241 -104 -360q-102 -117 -327 -117zM530 1729l109 -168q7 -8 2 -16q-4 -7 -16 -7
h-41q-17 0 -31 14l-166 172q-9 8 -4 19q4 10 16 10h95q21 0 36 -24z" />
    <glyph glyph-name="Uacute" unicode="&#xda;" horiz-adv-x="1150" 
d="M575 -20q-223 0 -327 117q-105 119 -105 360v956q0 23 25 23h68q26 0 26 -23v-946q0 -194 73 -287q72 -92 240 -92q169 0 241 92q73 93 73 287v946q0 23 24 23h70q23 0 23 -23v-956q0 -241 -104 -360q-102 -117 -327 -117zM512 1561l109 168q17 24 34 24h97q12 0 15 -10
q3 -11 -3 -19l-166 -172q-11 -14 -33 -14h-39q-12 0 -16 7q-5 8 2 16z" />
    <glyph glyph-name="Ucircumflex" unicode="&#xdb;" horiz-adv-x="1150" 
d="M575 -20q-223 0 -327 117q-105 119 -105 360v956q0 23 25 23h68q26 0 26 -23v-946q0 -194 73 -287q72 -92 240 -92q169 0 241 92q73 93 73 287v946q0 23 24 23h70q23 0 23 -23v-956q0 -241 -104 -360q-102 -117 -327 -117zM707 1552l-132 123l-135 -123q-17 -14 -32 -14
h-52q-10 0 -13 7t5 18l162 174q15 16 35 16h57q21 0 37 -16l162 -174q8 -11 5 -18t-15 -7h-52q-11 0 -32 14z" />
    <glyph glyph-name="Udieresis" unicode="&#xdc;" horiz-adv-x="1150" 
d="M575 -20q-223 0 -327 117q-105 119 -105 360v956q0 23 25 23h68q26 0 26 -23v-946q0 -194 73 -287q72 -92 240 -92q169 0 241 92q73 93 73 287v946q0 23 24 23h70q23 0 23 -23v-956q0 -241 -104 -360q-102 -117 -327 -117zM479 1675v-114q0 -23 -22 -23h-76q-23 0 -23 23
v114q0 23 23 23h76q22 0 22 -23zM791 1675v-114q0 -23 -25 -23h-74q-22 0 -22 23v114q0 23 22 23h74q25 0 25 -23z" />
    <glyph glyph-name="Yacute" unicode="&#xdd;" horiz-adv-x="1069" 
d="M596 549v-524q0 -25 -27 -25h-69q-23 0 -23 25v524l-416 860q-12 27 17 27h78q20 0 30 -21l250 -532l96 -226h3l100 226l248 532q11 21 32 21h76q25 0 17 -27zM489 1561l109 168q16 24 35 24h96q12 0 15 -10q3 -11 -3 -19l-166 -172q-11 -14 -32 -14h-39q-13 0 -17 7
q-5 8 2 16z" />
    <glyph glyph-name="Thorn" unicode="&#xde;" horiz-adv-x="1026" 
d="M246 0h-70q-24 0 -24 25v1388q0 23 26 23h68q24 0 24 -23v-147h176q252 0 365 -107t113 -356q0 -248 -113 -356q-111 -107 -362 -107h-179v-315q0 -25 -24 -25zM270 449h179q192 0 274 79t82 277q0 194 -82 273t-274 79h-179v-708z" />
    <glyph glyph-name="germandbls" unicode="&#xdf;" horiz-adv-x="1048" 
d="M510 1354q-115 0 -187 -63q-73 -64 -73 -197v-1071q0 -23 -23 -23h-65q-25 0 -25 23v1083q0 174 103 260t274 86q172 0 257 -76t85 -186q0 -64 -26 -114q-27 -53 -61 -81q-39 -33 -73 -57q-37 -27 -62 -53q-26 -28 -26 -54q0 -30 37 -64q37 -35 90 -72q57 -41 107 -85
q52 -46 90 -125q37 -77 37 -174q0 -174 -92 -248q-91 -73 -267 -73q-59 0 -118 10q-31 6 -31 27v47q0 24 24 20q53 -8 113 -8q256 0 256 233q0 101 -56 179q-57 80 -123 123q-69 46 -123 98q-56 55 -56 108q0 47 39 91q38 42 86 70q45 26 86 78q38 48 38 110q0 74 -57 126
q-56 52 -178 52z" />
    <glyph glyph-name="agrave" unicode="&#xe0;" horiz-adv-x="929" 
d="M803 754v-731q0 -23 -25 -23h-59q-23 0 -23 23v155q-80 -192 -325 -192q-143 0 -220 81q-77 82 -77 220q0 89 31 151q31 63 82 101q47 35 135 59t168 32q91 10 204 11v109q0 124 -54 181q-53 56 -179 56q-133 0 -277 -55q-20 -10 -26 14l-15 53q-6 18 17 29
q127 59 309 59q175 0 254 -82q80 -83 80 -251zM694 391v160q-81 -1 -166 -7q-60 -4 -138 -22q-72 -17 -112 -43q-42 -28 -68 -73q-28 -48 -28 -115q0 -98 51 -155q50 -56 156 -56q143 0 224 89t81 222zM422 1395l108 -176q12 -21 -12 -21h-41q-17 0 -31 14l-167 174
q-9 12 -6 20q3 9 18 9h94q26 0 37 -20z" />
    <glyph glyph-name="aacute" unicode="&#xe1;" horiz-adv-x="929" 
d="M803 754v-731q0 -23 -25 -23h-59q-23 0 -23 23v155q-80 -192 -325 -192q-143 0 -220 81q-77 82 -77 220q0 89 31 151q31 63 82 101q47 35 135 59t168 32q91 10 204 11v109q0 124 -54 181q-53 56 -179 56q-133 0 -277 -55q-20 -10 -26 14l-15 53q-6 18 17 29
q127 59 309 59q175 0 254 -82q80 -83 80 -251zM694 391v160q-81 -1 -166 -7q-60 -4 -138 -22q-72 -17 -112 -43q-42 -28 -68 -73q-28 -48 -28 -115q0 -98 51 -155q50 -56 156 -56q143 0 224 89t81 222zM397 1219l109 176q11 20 37 20h96q12 0 15 -9t-5 -20l-168 -174
q-14 -14 -32 -14h-39q-25 0 -13 21z" />
    <glyph glyph-name="acircumflex" unicode="&#xe2;" horiz-adv-x="929" 
d="M803 754v-731q0 -23 -25 -23h-59q-23 0 -23 23v155q-80 -192 -325 -192q-143 0 -220 81q-77 82 -77 220q0 89 31 151q31 63 82 101q47 35 135 59t168 32q91 10 204 11v109q0 124 -54 181q-53 56 -179 56q-133 0 -277 -55q-20 -10 -26 14l-15 53q-6 18 17 29
q127 59 309 59q175 0 254 -82q80 -83 80 -251zM694 391v160q-81 -1 -166 -7q-60 -4 -138 -22q-72 -17 -112 -43q-42 -28 -68 -73q-28 -48 -28 -115q0 -98 51 -155q50 -56 156 -56q143 0 224 89t81 222zM600 1212l-135 134l-137 -134q-15 -14 -31 -14h-51q-13 0 -16 7t6 16
l163 184q16 16 35 16h58q20 0 36 -16l164 -184q6 -7 4 -16q-1 -7 -14 -7h-51q-16 0 -31 14z" />
    <glyph glyph-name="atilde" unicode="&#xe3;" horiz-adv-x="929" 
d="M803 754v-731q0 -23 -25 -23h-59q-23 0 -23 23v155q-80 -192 -325 -192q-143 0 -220 81q-77 82 -77 220q0 89 31 151q31 63 82 101q47 35 135 59t168 32q91 10 204 11v109q0 124 -54 181q-53 56 -179 56q-133 0 -277 -55q-20 -10 -26 14l-15 53q-6 18 17 29
q127 59 309 59q175 0 254 -82q80 -83 80 -251zM694 391v160q-81 -1 -166 -7q-60 -4 -138 -22q-72 -17 -112 -43q-42 -28 -68 -73q-28 -48 -28 -115q0 -98 51 -155q50 -56 156 -56q143 0 224 89t81 222zM719 1321q0 -55 -29 -90t-84 -35q-64 0 -137 39l-49 25q-45 24 -74 24
q-49 0 -57 -47l-2 -18q-5 -19 -27 -19h-31q-22 0 -22 29q0 56 29 93q29 36 83 36t138 -41l51 -25q53 -24 80 -24q45 0 51 47l2 16q1 21 25 21h32q21 0 21 -31z" />
    <glyph glyph-name="adieresis" unicode="&#xe4;" horiz-adv-x="929" 
d="M803 754v-731q0 -23 -25 -23h-59q-23 0 -23 23v155q-80 -192 -325 -192q-143 0 -220 81q-77 82 -77 220q0 89 31 151q31 63 82 101q47 35 135 59t168 32q91 10 204 11v109q0 124 -54 181q-53 56 -179 56q-133 0 -277 -55q-20 -10 -26 14l-15 53q-6 18 17 29
q127 59 309 59q175 0 254 -82q80 -83 80 -251zM694 391v160q-81 -1 -166 -7q-60 -4 -138 -22q-72 -17 -112 -43q-42 -28 -68 -73q-28 -48 -28 -115q0 -98 51 -155q50 -56 156 -56q143 0 224 89t81 222zM369 1339v-118q0 -23 -21 -23h-72q-24 0 -24 23v118q0 23 24 23h72
q21 0 21 -23zM674 1339v-118q0 -23 -23 -23h-71q-23 0 -23 23v118q0 23 23 23h71q23 0 23 -23z" />
    <glyph glyph-name="aring" unicode="&#xe5;" horiz-adv-x="929" 
d="M803 754v-731q0 -23 -25 -23h-59q-23 0 -23 23v155q-80 -192 -325 -192q-143 0 -220 81q-77 82 -77 220q0 89 31 151q31 63 82 101q47 35 135 59t168 32q91 10 204 11v109q0 124 -54 181q-53 56 -179 56q-133 0 -277 -55q-20 -10 -26 14l-15 53q-6 18 17 29
q127 59 309 59q175 0 254 -82q80 -83 80 -251zM694 391v160q-81 -1 -166 -7q-60 -4 -138 -22q-72 -17 -112 -43q-42 -28 -68 -73q-28 -48 -28 -115q0 -98 51 -155q50 -56 156 -56q143 0 224 89t81 222zM465 1247q110 0 110 107q0 104 -112 104q-53 0 -83 -27t-30 -77
q0 -107 115 -107zM463 1524q84 0 134 -47t50 -123q0 -79 -49 -125q-50 -47 -133 -47q-85 0 -135 47q-49 46 -49 125q0 77 49 123q50 47 133 47z" />
    <glyph glyph-name="ae" unicode="&#xe6;" horiz-adv-x="1503" 
d="M1114 78q117 0 213 45q25 8 31 -14l16 -50q6 -15 -18 -30q-98 -49 -246 -49q-144 0 -237 68q-95 69 -128 188q-38 -116 -129 -183t-229 -67q-156 0 -234 77q-79 78 -79 216q0 84 30 144q29 58 79 94q46 33 133 53q89 20 166 26q89 7 204 8v146q0 122 -56 179
q-57 58 -175 58q-124 0 -273 -55q-20 -7 -26 14l-17 53q-6 21 19 29q145 59 297 59q264 0 307 -200q73 200 305 200q174 0 260 -128t86 -347v-88q0 -22 -24 -22h-596q12 -424 321 -424zM1061 989q-258 0 -270 -393h514v18q0 375 -244 375zM686 393v117q-12 0 -141 -4
q-39 -1 -119 -10q-65 -7 -103 -23q-35 -14 -73 -39q-37 -24 -52 -63q-16 -42 -16 -90q0 -94 52 -146q53 -53 161 -53q139 0 215 88t76 223z" />
    <glyph glyph-name="ccedilla" unicode="&#xe7;" horiz-adv-x="808" 
d="M90 535q0 270 103 412q101 140 303 140q130 0 219 -40q24 -12 18 -33l-18 -49q-8 -28 -33 -15q-74 33 -174 33q-155 0 -229 -110t-74 -338q0 -451 301 -451q110 0 188 39q21 11 29 -12l18 -54q4 -16 -20 -28q-91 -47 -215 -47h-23q103 -62 103 -152q0 -123 -162 -123
q-49 0 -64 6q-14 4 -14 23v35q0 14 16 14h48q92 0 92 61q0 81 -119 150q-293 78 -293 539z" />
    <glyph glyph-name="egrave" unicode="&#xe8;" horiz-adv-x="933" 
d="M537 78q123 0 219 45q25 12 32 -14l15 -48q6 -22 -19 -30q-112 -51 -254 -51q-440 0 -440 555q0 270 99 411t292 141q184 0 276 -134q91 -133 91 -365v-82q0 -25 -27 -25h-620q12 -403 336 -403zM481 989q-268 0 -280 -414h536v19q0 395 -256 395zM424 1395l108 -176
q12 -21 -12 -21h-41q-16 0 -30 14l-168 174q-9 12 -6 20q3 9 18 9h94q26 0 37 -20z" />
    <glyph glyph-name="eacute" unicode="&#xe9;" horiz-adv-x="933" 
d="M537 78q123 0 219 45q25 12 32 -14l15 -48q6 -22 -19 -30q-112 -51 -254 -51q-440 0 -440 555q0 270 99 411t292 141q184 0 276 -134q91 -133 91 -365v-82q0 -25 -27 -25h-620q12 -403 336 -403zM481 989q-268 0 -280 -414h536v19q0 395 -256 395zM414 1219l108 176
q11 20 37 20h96q13 0 16 -9t-5 -20l-168 -174q-14 -14 -33 -14h-39q-24 0 -12 21z" />
    <glyph glyph-name="ecircumflex" unicode="&#xea;" horiz-adv-x="933" 
d="M537 78q123 0 219 45q25 12 32 -14l15 -48q6 -22 -19 -30q-112 -51 -254 -51q-440 0 -440 555q0 270 99 411t292 141q184 0 276 -134q91 -133 91 -365v-82q0 -25 -27 -25h-620q12 -403 336 -403zM481 989q-268 0 -280 -414h536v19q0 395 -256 395zM614 1212l-135 134
l-137 -134q-15 -14 -31 -14h-51q-12 0 -15 7q-3 8 5 16l164 184q16 16 35 16h57q21 0 37 -16l164 -184q6 -7 4 -16q-1 -7 -15 -7h-51q-16 0 -31 14z" />
    <glyph glyph-name="edieresis" unicode="&#xeb;" horiz-adv-x="933" 
d="M537 78q123 0 219 45q25 12 32 -14l15 -48q6 -22 -19 -30q-112 -51 -254 -51q-440 0 -440 555q0 270 99 411t292 141q184 0 276 -134q91 -133 91 -365v-82q0 -25 -27 -25h-620q12 -403 336 -403zM481 989q-268 0 -280 -414h536v19q0 395 -256 395zM383 1339v-118
q0 -23 -21 -23h-71q-25 0 -25 23v118q0 23 25 23h71q21 0 21 -23zM688 1339v-118q0 -23 -22 -23h-72q-23 0 -23 23v118q0 23 23 23h72q22 0 22 -23z" />
    <glyph glyph-name="igrave" unicode="&#xec;" horiz-adv-x="397" 
d="M254 1042v-1019q0 -23 -23 -23h-63q-25 0 -25 23v1019q0 25 25 25h63q23 0 23 -25zM129 1395l109 -176q12 -21 -13 -21h-41q-16 0 -30 14l-168 174q-8 11 -5 20t17 9h94q26 0 37 -20z" />
    <glyph glyph-name="iacute" unicode="&#xed;" horiz-adv-x="397" 
d="M254 1042v-1019q0 -23 -23 -23h-63q-25 0 -25 23v1019q0 25 25 25h63q23 0 23 -25zM162 1219l108 176q11 20 37 20h96q13 0 16 -9t-5 -20l-168 -174q-14 -14 -33 -14h-39q-24 0 -12 21z" />
    <glyph glyph-name="icircumflex" unicode="&#xee;" horiz-adv-x="397" 
d="M254 1042v-1019q0 -23 -23 -23h-63q-25 0 -25 23v1019q0 25 25 25h63q23 0 23 -25zM336 1212l-135 134l-138 -134q-15 -14 -30 -14h-51q-13 0 -16 7q-3 8 5 16l164 184q16 16 35 16h57q21 0 37 -16l164 -184q6 -7 4 -16q-1 -7 -14 -7h-51q-16 0 -31 14z" />
    <glyph glyph-name="idieresis" unicode="&#xef;" horiz-adv-x="397" 
d="M254 1042v-1019q0 -23 -23 -23h-63q-25 0 -25 23v1019q0 25 25 25h63q23 0 23 -25zM104 1339v-118q0 -23 -20 -23h-72q-24 0 -24 23v118q0 23 24 23h72q20 0 20 -23zM410 1339v-118q0 -23 -23 -23h-72q-22 0 -22 23v118q0 23 22 23h72q23 0 23 -23z" />
    <glyph glyph-name="eth" unicode="&#xf0;" horiz-adv-x="989" 
d="M823 1214h-114q190 -290 190 -679q0 -272 -102 -413q-101 -140 -303 -140q-200 0 -301 140q-103 142 -103 413q0 268 103 410q101 140 296 140q156 0 234 -90q-39 105 -121 219h-235q-23 0 -23 21v31q0 20 23 20h180q-26 34 -129 125q-10 7 -7 16q4 9 15 9h72
q21 0 37 -13q78 -74 124 -137h164q23 0 23 -20v-31q0 -21 -23 -21zM494 82q290 0 290 453q0 452 -290 452q-289 0 -289 -452q0 -453 289 -453z" />
    <glyph glyph-name="ntilde" unicode="&#xf1;" horiz-adv-x="995" 
d="M866 737v-714q0 -23 -24 -23h-64q-22 0 -22 23v702q0 258 -224 258q-129 0 -208 -88q-80 -89 -80 -225v-647q0 -23 -23 -23h-65q-23 0 -23 23v1019q0 25 23 25h63q23 0 23 -23l2 -147q34 77 111 134q75 56 200 56q155 0 233 -93t78 -257zM754 1321q0 -55 -29 -90t-84 -35
q-63 0 -137 39l-49 25q-47 24 -74 24q-49 0 -57 -47l-2 -18q-2 -19 -27 -19h-31q-22 0 -22 29q0 58 28 93q28 36 84 36q54 0 138 -41l51 -25q53 -24 80 -24q45 0 51 47l2 16q2 21 24 21h33q21 0 21 -31z" />
    <glyph glyph-name="ograve" unicode="&#xf2;" horiz-adv-x="989" 
d="M494 -18q199 0 302 140t103 413q0 272 -103 412t-302 140q-200 0 -301 -140q-103 -142 -103 -412q0 -271 103 -413q101 -140 301 -140zM494 82q-289 0 -289 453q0 452 289 452q290 0 290 -452q0 -453 -290 -453zM444 1395l109 -176q12 -21 -12 -21h-41q-17 0 -31 14
l-168 174q-8 11 -5 20t17 9h95q25 0 36 -20z" />
    <glyph glyph-name="oacute" unicode="&#xf3;" horiz-adv-x="989" 
d="M494 -18q199 0 302 140t103 413q0 272 -103 412t-302 140q-200 0 -301 -140q-103 -142 -103 -412q0 -271 103 -413q101 -140 301 -140zM494 82q-289 0 -289 453q0 452 289 452q290 0 290 -452q0 -453 -290 -453zM434 1219l109 176q11 20 37 20h96q12 0 15 -9t-5 -20
l-168 -174q-14 -14 -33 -14h-39q-24 0 -12 21z" />
    <glyph glyph-name="ocircumflex" unicode="&#xf4;" horiz-adv-x="989" 
d="M494 -18q199 0 302 140t103 413q0 272 -103 412t-302 140q-200 0 -301 -140q-103 -142 -103 -412q0 -271 103 -413q101 -140 301 -140zM494 82q-289 0 -289 453q0 452 289 452q290 0 290 -452q0 -453 -290 -453zM631 1212l-135 134l-138 -134q-15 -14 -30 -14h-52
q-12 0 -15 7q-3 8 5 16l164 184q16 16 35 16h57q21 0 37 -16l164 -184q6 -7 4 -16q-1 -7 -14 -7h-51q-16 0 -31 14z" />
    <glyph glyph-name="otilde" unicode="&#xf5;" horiz-adv-x="989" 
d="M494 -18q-200 0 -301 140q-103 142 -103 413q0 270 103 412q101 140 301 140q199 0 302 -140t103 -412q0 -273 -103 -413t-302 -140zM494 82q290 0 290 453q0 452 -290 452q-289 0 -289 -452q0 -453 289 -453zM750 1321q0 -55 -29 -90t-84 -35q-63 0 -137 39l-49 25
q-45 24 -74 24q-50 0 -58 -47l-2 -18q-2 -19 -26 -19h-31q-22 0 -22 29q0 58 28 93q28 36 84 36q53 0 137 -41l52 -25q51 -24 79 -24q46 0 52 47l2 16q2 21 24 21h33q21 0 21 -31z" />
    <glyph glyph-name="odieresis" unicode="&#xf6;" horiz-adv-x="989" 
d="M494 -18q199 0 302 140t103 413q0 272 -103 412t-302 140q-200 0 -301 -140q-103 -142 -103 -412q0 -271 103 -413q101 -140 301 -140zM494 82q-289 0 -289 453q0 452 289 452q290 0 290 -452q0 -453 -290 -453zM399 1339v-118q0 -23 -20 -23h-72q-24 0 -24 23v118
q0 23 24 23h72q20 0 20 -23zM705 1339v-118q0 -23 -23 -23h-72q-22 0 -22 23v118q0 23 22 23h72q23 0 23 -23z" />
    <glyph glyph-name="divide" unicode="&#xf7;" horiz-adv-x="1067" 
d="M926 670h-789q-20 0 -20 22v51q0 25 22 25h787q22 0 22 -25v-51q0 -22 -22 -22zM463 313v133q0 25 22 25h97q22 0 22 -25v-133q0 -24 -22 -24h-97q-22 0 -22 24zM463 987v135q0 25 22 25h97q22 0 22 -25v-135q0 -22 -22 -22h-97q-22 0 -22 22z" />
    <glyph glyph-name="oslash" unicode="&#xf8;" horiz-adv-x="997" 
d="M498 -18q-172 0 -271 106l-55 -80q-15 -22 -35 -6l-24 23q-19 19 -9 30l70 101q-80 130 -80 379q0 270 103 412q101 140 301 140q175 0 274 -108l53 78q15 22 35 6l27 -21q16 -12 6 -26l-70 -103q80 -131 80 -378q0 -273 -103 -413t-302 -140zM498 987q-289 0 -289 -452
q0 -189 41 -285l452 641q-68 96 -204 96zM498 82q290 0 290 453q0 183 -40 282l-451 -641q72 -94 201 -94z" />
    <glyph glyph-name="ugrave" unicode="&#xf9;" horiz-adv-x="983" 
d="M125 338v704q0 25 25 25h63q23 0 23 -25v-688q0 -270 225 -270q123 0 199 88q77 89 77 225v645q0 25 23 25h65q23 0 23 -25v-1019q0 -23 -23 -23h-65q-23 0 -23 23v149q-28 -77 -102 -134q-72 -56 -197 -56q-157 0 -235 94q-78 95 -78 262zM446 1395l109 -176
q12 -21 -12 -21h-41q-17 0 -31 14l-168 174q-8 11 -5 20t17 9h95q25 0 36 -20z" />
    <glyph glyph-name="uacute" unicode="&#xfa;" horiz-adv-x="983" 
d="M125 338v704q0 25 25 25h63q23 0 23 -25v-688q0 -270 225 -270q123 0 199 88q77 89 77 225v645q0 25 23 25h65q23 0 23 -25v-1019q0 -23 -23 -23h-65q-23 0 -23 23v149q-28 -77 -102 -134q-72 -56 -197 -56q-157 0 -235 94q-78 95 -78 262zM426 1219l109 176q11 20 36 20
h97q12 0 15 -9t-5 -20l-168 -174q-14 -14 -33 -14h-39q-24 0 -12 21z" />
    <glyph glyph-name="ucircumflex" unicode="&#xfb;" horiz-adv-x="983" 
d="M125 338v704q0 25 25 25h63q23 0 23 -25v-688q0 -270 225 -270q123 0 199 88q77 89 77 225v645q0 25 23 25h65q23 0 23 -25v-1019q0 -23 -23 -23h-65q-23 0 -23 23v149q-28 -77 -102 -134q-72 -56 -197 -56q-157 0 -235 94q-78 95 -78 262zM629 1212l-135 134l-138 -134
q-15 -14 -30 -14h-52q-12 0 -15 7q-3 8 5 16l164 184q16 16 35 16h57q21 0 37 -16l164 -184q6 -7 4 -16q-1 -7 -14 -7h-52q-15 0 -30 14z" />
    <glyph glyph-name="udieresis" unicode="&#xfc;" horiz-adv-x="983" 
d="M125 338v704q0 25 25 25h63q23 0 23 -25v-688q0 -270 225 -270q123 0 199 88q77 89 77 225v645q0 25 23 25h65q23 0 23 -25v-1019q0 -23 -23 -23h-65q-23 0 -23 23v149q-28 -77 -102 -134q-72 -56 -197 -56q-157 0 -235 94q-78 95 -78 262zM397 1339v-118q0 -23 -20 -23
h-72q-24 0 -24 23v118q0 23 24 23h72q20 0 20 -23zM702 1339v-118q0 -23 -22 -23h-72q-22 0 -22 23v118q0 23 22 23h72q22 0 22 -23z" />
    <glyph glyph-name="yacute" unicode="&#xfd;" horiz-adv-x="854" 
d="M805 1040l-289 -993q-45 -154 -102 -218q-57 -65 -181 -65q-69 0 -118 19q-23 6 -21 24l12 52q6 20 29 18q73 -12 94 -12q88 0 124 67q36 68 12 140l-310 968q-10 27 17 27h69q18 0 29 -25l195 -641l75 -264h4l72 264l174 641q6 25 27 25h69q25 0 19 -27zM373 1219
l108 176q11 20 37 20h96q13 0 16 -9t-5 -20l-168 -174q-14 -14 -33 -14h-39q-24 0 -12 21z" />
    <glyph glyph-name="thorn" unicode="&#xfe;" horiz-adv-x="1034" 
d="M162 1436h65q23 0 23 -23v-536q33 95 118 154q81 56 197 56q185 0 282 -141q97 -140 97 -411q0 -273 -97 -413t-282 -140q-117 0 -199 54q-83 55 -116 154v-393q0 -22 -23 -22h-65q-25 0 -25 22v1616q0 23 25 23zM250 535q0 -453 297 -453q282 0 282 453q0 452 -282 452
q-144 0 -221 -115q-76 -113 -76 -337z" />
    <glyph glyph-name="ydieresis" unicode="&#xff;" horiz-adv-x="854" 
d="M805 1040l-289 -993q-45 -154 -102 -218q-57 -65 -181 -65q-69 0 -118 19q-23 6 -21 24l12 52q6 20 29 18q73 -12 94 -12q88 0 124 67q36 68 12 140l-310 968q-10 27 17 27h69q18 0 29 -25l195 -641l75 -264h4l72 264l174 641q6 25 27 25h69q25 0 19 -27zM332 1339v-118
q0 -23 -21 -23h-71q-25 0 -25 23v118q0 23 25 23h71q21 0 21 -23zM637 1339v-118q0 -23 -23 -23h-71q-23 0 -23 23v118q0 23 23 23h71q23 0 23 -23z" />
    <glyph glyph-name="Amacron" unicode="&#x100;" horiz-adv-x="1122" 
d="M330 520h463l-230 780h-4zM516 1436h90q25 0 31 -25l430 -1384q6 -27 -20 -27h-74q-23 0 -29 23l-117 389h-530l-119 -389q-6 -23 -26 -23h-78q-25 0 -19 27l428 1384q8 25 33 25zM791 1554h-457q-23 0 -23 21v41q0 22 23 22h457q22 0 22 -22v-41q0 -21 -22 -21z" />
    <glyph glyph-name="amacron" unicode="&#x101;" horiz-adv-x="929" 
d="M803 754v-731q0 -23 -25 -23h-59q-23 0 -23 23v155q-80 -192 -325 -192q-143 0 -220 81q-77 82 -77 220q0 89 31 151q31 63 82 101q47 35 135 59t168 32q91 10 204 11v109q0 124 -54 181q-53 56 -179 56q-133 0 -277 -55q-20 -10 -26 14l-15 53q-6 18 17 29
q127 59 309 59q175 0 254 -82q80 -83 80 -251zM694 391v160q-81 -1 -166 -7q-60 -4 -138 -22q-72 -17 -112 -43q-42 -28 -68 -73q-28 -48 -28 -115q0 -98 51 -155q50 -56 156 -56q143 0 224 89t81 222zM690 1212h-454q-21 0 -21 21v37q0 22 21 22h454q23 0 23 -22v-37
q0 -21 -23 -21z" />
    <glyph glyph-name="Abreve" unicode="&#x102;" horiz-adv-x="1122" 
d="M330 520h463l-230 780h-4zM516 1436h90q25 0 31 -25l430 -1384q6 -27 -20 -27h-74q-23 0 -29 23l-117 389h-530l-119 -389q-6 -23 -26 -23h-78q-25 0 -19 27l428 1384q8 25 33 25zM563 1532q-113 0 -171 54q-59 54 -60 136q0 21 16 21h41q21 0 23 -19q22 -112 151 -112
q134 0 152 112q2 19 20 19h39q19 0 19 -21q-1 -81 -61 -136q-58 -54 -169 -54z" />
    <glyph glyph-name="abreve" unicode="&#x103;" horiz-adv-x="929" 
d="M803 754v-731q0 -23 -25 -23h-59q-23 0 -23 23v155q-80 -192 -325 -192q-143 0 -220 81q-77 82 -77 220q0 89 31 151q31 63 82 101q47 35 135 59t168 32q91 10 204 11v109q0 124 -54 181q-53 56 -179 56q-133 0 -277 -55q-20 -10 -26 14l-15 53q-6 18 17 29
q127 59 309 59q175 0 254 -82q80 -83 80 -251zM694 391v160q-81 -1 -166 -7q-60 -4 -138 -22q-72 -17 -112 -43q-42 -28 -68 -73q-28 -48 -28 -115q0 -98 51 -155q50 -56 156 -56q143 0 224 89t81 222zM465 1192q-116 0 -172 56q-59 59 -60 141q0 20 17 20h41q15 0 20 -18
q23 -119 154 -119q140 0 151 119q2 18 21 18h39q18 0 18 -20q-1 -83 -59 -141q-56 -56 -170 -56z" />
    <glyph glyph-name="Aogonek" unicode="&#x104;" horiz-adv-x="1122" 
d="M516 1436h90q25 0 31 -25l430 -1384q6 -27 -20 -27h-15q-127 -66 -127 -164q0 -61 94 -61q11 0 60 6q15 0 16 -10l6 -39q2 -19 -10 -23q-33 -18 -94 -18q-160 0 -160 125q0 50 39 103q39 52 100 85q-10 6 -12 19l-117 389h-530l-119 -389q-6 -23 -26 -23h-78
q-25 0 -19 27l428 1384q8 25 33 25zM330 520h463l-230 780h-4z" />
    <glyph glyph-name="aogonek" unicode="&#x105;" horiz-adv-x="929" 
d="M803 754v-731q0 -23 -25 -23h-12q-121 -67 -121 -154q0 -59 86 -59q7 0 31 2q5 0 10 0.5t8 1t4 0.5q20 0 21 -10l6 -37q1 -16 -10 -20q-29 -17 -90 -17q-152 0 -152 117q0 52 39 102q40 50 102 80q-4 4 -4 17v155q-80 -192 -325 -192q-143 0 -220 81q-77 82 -77 220
q0 89 31 151q31 63 82 101q47 35 135 59t168 32q91 10 204 11v109q0 124 -54 181q-53 56 -179 56q-133 0 -277 -55q-20 -10 -26 14l-15 53q-6 18 17 29q127 59 309 59q175 0 254 -82q80 -83 80 -251zM694 391v160q-81 -1 -166 -7q-60 -4 -138 -22q-72 -17 -112 -43
q-42 -28 -68 -73q-28 -48 -28 -115q0 -98 51 -155q50 -56 156 -56q143 0 224 89t81 222z" />
    <glyph glyph-name="Cacute" unicode="&#x106;" horiz-adv-x="997" 
d="M647 90q114 0 219 45q21 8 31 -18l21 -54q6 -16 -21 -28q-126 -53 -262 -53q-272 0 -402 178q-131 179 -131 559t130 558q131 179 395 179q154 0 256 -51q25 -12 20 -31l-18 -53q-10 -26 -31 -16q-100 41 -213 41q-217 0 -316 -149q-100 -150 -100 -478q0 -331 101 -480
t321 -149zM516 1561l109 168q17 24 34 24h97q12 0 15 -10q3 -11 -3 -19l-166 -172q-11 -14 -33 -14h-39q-12 0 -16 7q-5 8 2 16z" />
    <glyph glyph-name="cacute" unicode="&#x107;" horiz-adv-x="808" 
d="M90 535q0 270 103 412q101 140 303 140q130 0 219 -40q24 -12 18 -33l-18 -49q-8 -28 -33 -15q-74 33 -174 33q-155 0 -229 -110t-74 -338q0 -451 301 -451q110 0 188 39q21 11 29 -12l18 -54q4 -16 -20 -28q-91 -47 -215 -47q-206 0 -310 140q-106 142 -106 413z
M420 1219l108 176q11 20 37 20h97q12 0 15 -9t-5 -20l-168 -174q-14 -14 -33 -14h-39q-24 0 -12 21z" />
    <glyph glyph-name="Ccircumflex" unicode="&#x108;" horiz-adv-x="997" 
d="M647 90q114 0 219 45q21 8 31 -18l21 -54q6 -16 -21 -28q-126 -53 -262 -53q-272 0 -402 178q-131 179 -131 559t130 558q131 179 395 179q154 0 256 -51q25 -12 20 -31l-18 -53q-10 -26 -31 -16q-100 41 -213 41q-217 0 -316 -149q-100 -150 -100 -478q0 -331 101 -480
t321 -149zM737 1552l-131 123l-135 -123q-17 -14 -33 -14h-51q-10 0 -13 7t5 18l162 174q15 16 34 16h58q21 0 37 -16l161 -174q8 -12 6 -18q-3 -7 -16 -7h-51q-13 0 -33 14z" />
    <glyph glyph-name="ccircumflex" unicode="&#x109;" horiz-adv-x="808" 
d="M90 535q0 270 103 412q101 140 303 140q130 0 219 -40q24 -12 18 -33l-18 -49q-8 -28 -33 -15q-74 33 -174 33q-155 0 -229 -110t-74 -338q0 -451 301 -451q110 0 188 39q21 11 29 -12l18 -54q4 -16 -20 -28q-91 -47 -215 -47q-206 0 -310 140q-106 142 -106 413z
M602 1212l-135 134l-137 -134q-15 -14 -31 -14h-51q-13 0 -16 7t6 16l163 184q16 16 35 16h58q20 0 36 -16l164 -184q6 -7 4 -16q-1 -7 -14 -7h-51q-16 0 -31 14z" />
    <glyph glyph-name="Cdotaccent" unicode="&#x10a;" horiz-adv-x="997" 
d="M647 90q114 0 219 45q21 8 31 -18l21 -54q6 -16 -21 -28q-126 -53 -262 -53q-272 0 -402 178q-131 179 -131 559t130 558q131 179 395 179q154 0 256 -51q25 -12 20 -31l-18 -53q-10 -26 -31 -16q-100 41 -213 41q-217 0 -316 -149q-100 -150 -100 -478q0 -331 101 -480
t321 -149zM666 1681v-120q0 -23 -21 -23h-78q-24 0 -24 23v120q0 23 24 23h78q21 0 21 -23z" />
    <glyph glyph-name="cdotaccent" unicode="&#x10b;" horiz-adv-x="808" 
d="M90 535q0 270 103 412q101 140 303 140q130 0 219 -40q24 -12 18 -33l-18 -49q-8 -28 -33 -15q-74 33 -174 33q-155 0 -229 -110t-74 -338q0 -451 301 -451q110 0 188 39q21 11 29 -12l18 -54q4 -16 -20 -28q-91 -47 -215 -47q-206 0 -310 140q-106 142 -106 413z
M543 1341v-120q0 -23 -21 -23h-78q-24 0 -24 23v120q0 25 24 25h78q21 0 21 -25z" />
    <glyph glyph-name="Ccaron" unicode="&#x10c;" horiz-adv-x="997" 
d="M647 90q114 0 219 45q21 8 31 -18l21 -54q6 -16 -21 -28q-126 -53 -262 -53q-272 0 -402 178q-131 179 -131 559t130 558q131 179 395 179q154 0 256 -51q25 -12 20 -31l-18 -53q-10 -26 -31 -16q-100 41 -213 41q-217 0 -316 -149q-100 -150 -100 -478q0 -331 101 -480
t321 -149zM606 1616l131 121q20 16 31 16h51q13 0 16 -8q3 -7 -4 -16l-161 -175q-16 -16 -37 -16h-58q-18 0 -34 16l-162 175q-9 9 -4 16q5 8 16 8h51q13 0 29 -16z" />
    <glyph glyph-name="ccaron" unicode="&#x10d;" horiz-adv-x="808" 
d="M90 535q0 270 103 412q101 140 303 140q130 0 219 -40q24 -12 18 -33l-18 -49q-8 -28 -33 -15q-74 33 -174 33q-155 0 -229 -110t-74 -338q0 -451 301 -451q110 0 188 39q21 11 29 -12l18 -54q4 -16 -20 -28q-91 -47 -215 -47q-206 0 -310 140q-106 142 -106 413z
M477 1274l135 133q15 14 31 14h51q14 0 15 -7q2 -8 -4 -15l-164 -185q-16 -16 -37 -16h-58q-19 0 -34 16l-164 185q-8 8 -5 15t15 7h51q16 0 31 -14z" />
    <glyph glyph-name="Dcaron" unicode="&#x10e;" horiz-adv-x="1142" 
d="M465 0h-287q-26 0 -26 25v1388q0 23 24 23h287q291 0 435 -159t144 -546q0 -210 -37 -352t-115 -226t-179 -118q-103 -35 -246 -35zM463 1325h-193v-1214h195q115 0 194 27q82 28 141 96q60 69 90 192t30 305q0 335 -112 465q-111 129 -345 129zM569 1616l131 121
q20 16 31 16h51q13 0 16 -8t-3 -16l-162 -175q-16 -16 -37 -16h-57q-19 0 -35 16l-162 175q-8 9 -4 16q5 8 16 8h52q12 0 28 -16z" />
    <glyph glyph-name="dcaron" unicode="&#x10f;" horiz-adv-x="1173" 
d="M786 535q0 224 -77 337q-79 115 -222 115q-282 0 -282 -452q0 -453 282 -453q146 0 223 115q76 113 76 338zM786 23v165q-34 -98 -117 -152t-200 -54q-185 0 -282 140t-97 413q0 271 97 411q97 141 282 141q117 0 198 -56q83 -58 117 -154v536q0 23 23 23h63q25 0 25 -23
v-1390q0 -23 -25 -23h-63q-21 0 -21 23zM1167 1274l-61 -189q-6 -18 -23 -18h-28q-20 0 -15 25l47 182h-36q-25 0 -25 22v138q0 22 25 22h98q22 0 22 -22v-129q0 -20 -4 -31z" />
    <glyph glyph-name="Dcroat" unicode="&#x110;" horiz-adv-x="1146" 
d="M469 0h-287q-26 0 -26 25v651h-95q-22 0 -22 20v45q0 23 22 23h95v649q0 23 24 23h287q292 0 436 -161t144 -556q0 -397 -144 -558t-434 -161zM524 676h-250v-565h195q154 0 249 50q94 49 150 186q56 138 56 372q0 343 -112 475q-111 131 -345 131h-193v-561h250
q21 0 21 -23v-45q0 -20 -21 -20z" />
    <glyph glyph-name="dcroat" unicode="&#x111;" horiz-adv-x="1036" 
d="M786 23v165q-34 -98 -117 -152t-200 -54q-185 0 -282 140t-97 413q0 271 97 411q97 141 282 141q117 0 198 -56q83 -58 117 -154v337h-256q-22 0 -22 21v31q0 22 22 22h256v125q0 23 23 23h63q25 0 25 -23v-125h88q23 0 23 -22v-31q0 -21 -23 -21h-88v-1191
q0 -23 -25 -23h-63q-21 0 -21 23zM786 535q0 224 -77 337q-79 115 -222 115q-282 0 -282 -452q0 -453 282 -453q146 0 223 115q76 113 76 338z" />
    <glyph glyph-name="Emacron" unicode="&#x112;" horiz-adv-x="923" 
d="M784 682h-514v-573h537q24 0 24 -23v-61q0 -25 -24 -25h-629q-26 0 -26 25v1388q0 23 24 23h625q24 0 24 -23v-61q0 -25 -24 -25h-531v-539h514q25 0 25 -24v-57q0 -25 -25 -25zM727 1554h-457q-22 0 -22 21v41q0 22 22 22h457q23 0 23 -22v-41q0 -21 -23 -21z" />
    <glyph glyph-name="emacron" unicode="&#x113;" horiz-adv-x="933" 
d="M537 78q123 0 219 45q25 12 32 -14l15 -48q6 -22 -19 -30q-112 -51 -254 -51q-440 0 -440 555q0 270 99 411t292 141q184 0 276 -134q91 -133 91 -365v-82q0 -25 -27 -25h-620q12 -403 336 -403zM481 989q-268 0 -280 -414h536v19q0 395 -256 395zM707 1212h-455
q-21 0 -21 21v37q0 22 21 22h455q22 0 22 -22v-37q0 -21 -22 -21z" />
    <glyph glyph-name="Ebreve" unicode="&#x114;" horiz-adv-x="923" 
d="M784 682h-514v-573h537q24 0 24 -23v-61q0 -25 -24 -25h-629q-26 0 -26 25v1388q0 23 24 23h625q24 0 24 -23v-61q0 -25 -24 -25h-531v-539h514q25 0 25 -24v-57q0 -25 -25 -25zM518 1532q-112 0 -171 54t-60 136q0 21 16 21h41q21 0 23 -19q22 -112 151 -112
q134 0 152 112q2 19 20 19h39q19 0 19 -21q-1 -81 -61 -136q-59 -54 -169 -54z" />
    <glyph glyph-name="ebreve" unicode="&#x115;" horiz-adv-x="933" 
d="M537 78q123 0 219 45q25 12 32 -14l15 -48q6 -22 -19 -30q-112 -51 -254 -51q-440 0 -440 555q0 270 99 411t292 141q184 0 276 -134q91 -133 91 -365v-82q0 -25 -27 -25h-620q12 -403 336 -403zM481 989q-268 0 -280 -414h536v19q0 395 -256 395zM481 1192
q-116 0 -172 56q-58 58 -59 141q0 20 16 20h41q17 0 21 -18q23 -119 153 -119q141 0 152 119q1 18 20 18h39q19 0 19 -20q-1 -82 -60 -141q-56 -56 -170 -56z" />
    <glyph glyph-name="Edotaccent" unicode="&#x116;" horiz-adv-x="923" 
d="M784 682h-514v-573h537q24 0 24 -23v-61q0 -25 -24 -25h-629q-26 0 -26 25v1388q0 23 24 23h625q24 0 24 -23v-61q0 -25 -24 -25h-531v-539h514q25 0 25 -24v-57q0 -25 -25 -25zM588 1681v-120q0 -23 -21 -23h-78q-24 0 -24 23v120q0 23 24 23h78q21 0 21 -23z" />
    <glyph glyph-name="edotaccent" unicode="&#x117;" horiz-adv-x="933" 
d="M537 78q123 0 219 45q25 12 32 -14l15 -48q6 -22 -19 -30q-112 -51 -254 -51q-440 0 -440 555q0 270 99 411t292 141q184 0 276 -134q91 -133 91 -365v-82q0 -25 -27 -25h-620q12 -403 336 -403zM481 989q-268 0 -280 -414h536v19q0 395 -256 395zM541 1341v-120
q0 -23 -21 -23h-78q-24 0 -24 23v120q0 25 24 25h78q21 0 21 -25z" />
    <glyph glyph-name="Eogonek" unicode="&#x118;" horiz-adv-x="923" 
d="M784 682h-514v-573h537q24 0 24 -23v-61q0 -25 -24 -25h-39q-127 -66 -127 -164q0 -61 94 -61q11 0 60 6q15 0 16 -10l6 -39q2 -19 -10 -23q-33 -18 -94 -18q-160 0 -160 125q0 52 37 101q39 52 96 83h-508q-26 0 -26 25v1388q0 23 24 23h625q24 0 24 -23v-61
q0 -25 -24 -25h-531v-539h514q25 0 25 -24v-57q0 -25 -25 -25z" />
    <glyph glyph-name="eogonek" unicode="&#x119;" horiz-adv-x="933" 
d="M537 78q123 0 219 45q25 12 32 -14l15 -48q6 -22 -19 -30q-62 -29 -145 -41q-100 -63 -100 -144q0 -59 86 -59q6 0 30 2q4 0 8 0.5t7 1t5 0.5h3q19 0 20 -10l7 -37q1 -15 -11 -20q-29 -17 -90 -17q-151 0 -151 117q0 87 96 156h-19q-440 0 -440 555q0 270 99 411t292 141
q184 0 276 -134q91 -133 91 -365v-82q0 -25 -27 -25h-620q12 -403 336 -403zM481 989q-268 0 -280 -414h536v19q0 395 -256 395z" />
    <glyph glyph-name="Ecaron" unicode="&#x11a;" horiz-adv-x="923" 
d="M784 682h-514v-573h537q24 0 24 -23v-61q0 -25 -24 -25h-629q-26 0 -26 25v1388q0 23 24 23h625q24 0 24 -23v-61q0 -25 -24 -25h-531v-539h514q25 0 25 -24v-57q0 -25 -25 -25zM510 1616l131 121q20 16 31 16h51q12 0 15 -8t-3 -16l-162 -175q-16 -16 -36 -16h-58
q-19 0 -35 16l-161 175q-9 9 -4 16q5 8 16 8h51q13 0 29 -16z" />
    <glyph glyph-name="ecaron" unicode="&#x11b;" horiz-adv-x="933" 
d="M537 78q123 0 219 45q25 12 32 -14l15 -48q6 -22 -19 -30q-112 -51 -254 -51q-440 0 -440 555q0 270 99 411t292 141q184 0 276 -134q91 -133 91 -365v-82q0 -25 -27 -25h-620q12 -403 336 -403zM481 989q-268 0 -280 -414h536v19q0 395 -256 395zM481 1274l135 133
q15 14 31 14h51q14 0 15 -7q2 -8 -4 -15l-164 -185q-16 -16 -37 -16h-57q-20 0 -35 16l-164 185q-8 8 -5 15t15 7h51q16 0 31 -14z" />
    <glyph glyph-name="Gcircumflex" unicode="&#x11c;" horiz-adv-x="1130" 
d="M606 805h369q24 0 24 -25v-686q0 -33 -26 -47q-112 -65 -314 -65q-286 0 -421 174q-136 175 -136 563q0 386 137 562q136 175 427 175q150 0 272 -55q29 -11 23 -29l-21 -55q-11 -27 -33 -17q-124 46 -235 46q-241 0 -344 -145t-103 -482q0 -336 103 -483
q102 -146 338 -146q119 0 219 41v567h-279q-24 0 -24 23v59q0 25 24 25zM758 1552l-131 123l-135 -123q-17 -14 -33 -14h-51q-11 0 -14 7t5 18l162 174q15 16 35 16h57q21 0 37 -16l162 -174q8 -11 5 -18t-15 -7h-51q-13 0 -33 14z" />
    <glyph glyph-name="gcircumflex" unicode="&#x11d;" horiz-adv-x="991" 
d="M748 590q0 194 -74 297q-74 102 -207 102q-264 0 -264 -405q0 -406 264 -406q133 0 207 108q74 109 74 304zM856 1042v-915q0 -187 -100 -280t-289 -93q-163 0 -283 53q-21 10 -16 27l16 51q6 24 27 17q123 -47 254 -47q280 0 280 278v152q-31 -94 -109 -147
q-80 -54 -185 -54q-173 0 -267 129q-94 128 -94 371q0 242 92 373q91 130 267 130q107 0 186 -55q81 -56 110 -143v155q0 23 25 23h64q22 0 22 -25zM623 1212l-136 134l-137 -134q-15 -14 -31 -14h-51q-12 0 -15 7q-3 8 5 16l164 184q16 16 35 16h57q21 0 37 -16l164 -184
q6 -7 4 -16q-1 -7 -14 -7h-52q-15 0 -30 14z" />
    <glyph glyph-name="Gbreve" unicode="&#x11e;" horiz-adv-x="1130" 
d="M606 805h369q24 0 24 -25v-686q0 -33 -26 -47q-112 -65 -314 -65q-286 0 -421 174q-136 175 -136 563q0 386 137 562q136 175 427 175q150 0 272 -55q29 -11 23 -29l-21 -55q-11 -27 -33 -17q-124 46 -235 46q-241 0 -344 -145t-103 -482q0 -336 103 -483
q102 -146 338 -146q119 0 219 41v567h-279q-24 0 -24 23v59q0 25 24 25zM631 1532q-113 0 -171 54q-60 55 -61 136q0 21 17 21h41q20 0 22 -19q22 -112 152 -112q133 0 151 112q2 19 21 19h39q18 0 18 -21q-1 -82 -60 -136q-58 -54 -169 -54z" />
    <glyph glyph-name="gbreve" unicode="&#x11f;" horiz-adv-x="991" 
d="M748 590q0 194 -74 297q-74 102 -207 102q-264 0 -264 -405q0 -406 264 -406q133 0 207 108q74 109 74 304zM856 1042v-915q0 -187 -100 -280t-289 -93q-163 0 -283 53q-21 10 -16 27l16 51q6 24 27 17q123 -47 254 -47q280 0 280 278v152q-31 -94 -109 -147
q-80 -54 -185 -54q-173 0 -267 129q-94 128 -94 371q0 242 92 373q91 130 267 130q107 0 186 -55q81 -56 110 -143v155q0 23 25 23h64q22 0 22 -25zM487 1192q-116 0 -172 56q-58 58 -59 141q0 20 16 20h41q19 0 21 -18q23 -119 153 -119q141 0 152 119q5 18 20 18h39
q19 0 19 -20q-1 -82 -60 -141q-56 -56 -170 -56z" />
    <glyph glyph-name="Gdotaccent" unicode="&#x120;" horiz-adv-x="1130" 
d="M606 805h369q24 0 24 -25v-686q0 -33 -26 -47q-112 -65 -314 -65q-286 0 -421 174q-136 175 -136 563q0 386 137 562q136 175 427 175q150 0 272 -55q29 -11 23 -29l-21 -55q-11 -27 -33 -17q-124 46 -235 46q-241 0 -344 -145t-103 -482q0 -336 103 -483
q102 -146 338 -146q119 0 219 41v567h-279q-24 0 -24 23v59q0 25 24 25zM707 1681v-120q0 -23 -21 -23h-78q-24 0 -24 23v120q0 23 24 23h78q21 0 21 -23z" />
    <glyph glyph-name="gdotaccent" unicode="&#x121;" horiz-adv-x="991" 
d="M748 590q0 194 -74 297q-74 102 -207 102q-264 0 -264 -405q0 -406 264 -406q133 0 207 108q74 109 74 304zM856 1042v-915q0 -187 -100 -280t-289 -93q-163 0 -283 53q-21 10 -16 27l16 51q6 24 27 17q123 -47 254 -47q280 0 280 278v152q-31 -94 -109 -147
q-80 -54 -185 -54q-173 0 -267 129q-94 128 -94 371q0 242 92 373q91 130 267 130q107 0 186 -55q81 -56 110 -143v155q0 23 25 23h64q22 0 22 -25zM557 1341v-120q0 -23 -20 -23h-78q-25 0 -25 23v120q0 25 25 25h78q20 0 20 -25z" />
    <glyph glyph-name="Gcommaaccent" unicode="&#x122;" horiz-adv-x="1130" 
d="M606 805h369q24 0 24 -25v-686q0 -33 -26 -47q-112 -65 -314 -65q-286 0 -421 174q-136 175 -136 563q0 386 137 562q136 175 427 175q150 0 272 -55q29 -11 23 -29l-21 -55q-11 -27 -33 -17q-124 46 -235 46q-241 0 -344 -145t-103 -482q0 -336 103 -483
q102 -146 338 -146q119 0 219 41v567h-279q-24 0 -24 23v59q0 25 24 25zM743 -270l-59 -164q-6 -21 -22 -21h-17q-19 0 -14 23l37 164h-41q-21 0 -21 24v115q0 23 21 23h98q25 0 25 -23v-111q0 -9 -7 -30z" />
    <glyph glyph-name="gcommaaccent" unicode="&#x123;" horiz-adv-x="991" 
d="M748 590q0 194 -74 297q-74 102 -207 102q-264 0 -264 -405q0 -406 264 -406q133 0 207 108q74 109 74 304zM856 1042v-915q0 -187 -100 -280t-289 -93q-163 0 -283 53q-21 10 -16 27l16 51q6 24 27 17q123 -47 254 -47q280 0 280 278v152q-31 -94 -109 -147
q-80 -54 -185 -54q-173 0 -267 129q-94 128 -94 371q0 242 92 373q91 130 267 130q107 0 186 -55q81 -56 110 -143v155q0 23 25 23h64q22 0 22 -25zM422 1348l53 157q8 19 23 19h18q17 0 12 -23l-32 -155h36q25 0 25 -21v-111q0 -22 -25 -22h-92q-22 0 -22 22v103q0 20 4 31
z" />
    <glyph glyph-name="Hcircumflex" unicode="&#x124;" horiz-adv-x="1171" 
d="M899 25v655h-629v-655q0 -25 -24 -25h-68q-26 0 -26 25v1388q0 23 26 23h68q24 0 24 -23v-622h629v622q0 23 27 23h69q23 0 23 -23v-1388q0 -25 -23 -25h-69q-27 0 -27 25zM715 1552l-131 123l-135 -123q-17 -14 -33 -14h-51q-11 0 -14 7t5 18l162 174q15 16 35 16h57
q21 0 37 -16l162 -174q8 -11 5 -18t-15 -7h-51q-12 0 -33 14z" />
    <glyph glyph-name="hcircumflex" unicode="&#x125;" horiz-adv-x="1007" 
d="M877 737v-714q0 -23 -21 -23h-65q-25 0 -25 23v702q0 258 -225 258q-130 0 -209 -88q-80 -89 -80 -227v-643q0 -25 -23 -25h-65q-25 0 -25 23v1390q0 23 25 23h65q23 0 23 -23v-516q29 76 110 134q78 56 205 56q154 0 232 -93t78 -257zM635 1552l-131 123l-135 -123
q-17 -14 -33 -14h-51q-11 0 -14 7t5 18l162 174q15 16 35 16h57q21 0 37 -16l162 -174q8 -11 5 -18t-15 -7h-51q-13 0 -33 14z" />
    <glyph glyph-name="Hbar" unicode="&#x126;" horiz-adv-x="1150" 
d="M899 25v655h-629v-655q0 -25 -24 -25h-68q-26 0 -26 25v1087h-89q-22 0 -22 23v28q0 23 22 23h89v227q0 23 26 23h68q24 0 24 -23v-227h629v227q0 23 27 23h69q23 0 23 -25v-225h90q22 0 22 -23v-28q0 -23 -22 -23h-90v-1087q0 -25 -23 -25h-69q-27 0 -27 25zM270 791
h629v321h-629v-321z" />
    <glyph glyph-name="hbar" unicode="&#x127;" horiz-adv-x="1007" 
d="M877 737v-714q0 -23 -21 -23h-65q-25 0 -25 23v702q0 258 -225 258q-130 0 -209 -88q-80 -89 -80 -227v-645q0 -23 -23 -23h-65q-25 0 -25 23v1191h-86q-22 0 -22 21v31q0 22 22 22h86v125q0 23 25 23h65q23 0 23 -23v-125h256q22 0 22 -22v-31q0 -21 -22 -21h-256v-317
q29 76 110 134q78 56 205 56q154 0 232 -93t78 -257z" />
    <glyph glyph-name="Itilde" unicode="&#x128;" horiz-adv-x="448" 
d="M166 25v1388q0 23 22 23h70q27 0 27 -23v-1388q0 -25 -27 -25h-70q-22 0 -22 25zM494 1663q0 -57 -32 -95t-93 -38q-56 0 -140 39l-53 26q-44 23 -82 23q-55 0 -61 -43l-2 -19q0 -20 -25 -20h-31q-22 0 -22 29q0 59 32 97t91 38q57 0 139 -43l51 -27q49 -26 88 -26
q52 0 58 51l2 16q0 23 26 23h29q25 0 25 -31z" />
    <glyph glyph-name="itilde" unicode="&#x129;" horiz-adv-x="397" 
d="M254 1042v-1019q0 -23 -23 -23h-63q-25 0 -25 23v1019q0 25 25 25h63q23 0 23 -25zM455 1321q0 -55 -29 -90t-84 -35q-64 0 -137 39l-49 25q-47 24 -74 24q-49 0 -57 -47l-2 -18q-2 -19 -27 -19h-31q-22 0 -22 29q0 58 28 93q29 36 84 36q54 0 138 -41l51 -25
q51 -24 80 -24q45 0 51 47l2 16q1 21 24 21h33q21 0 21 -31z" />
    <glyph glyph-name="Imacron" unicode="&#x12a;" horiz-adv-x="448" 
d="M166 25v1388q0 23 22 23h70q27 0 27 -23v-1388q0 -25 -27 -25h-70q-22 0 -22 25zM451 1554h-457q-23 0 -23 21v41q0 22 23 22h457q22 0 22 -22v-41q0 -21 -22 -21z" />
    <glyph glyph-name="imacron" unicode="&#x12b;" horiz-adv-x="397" 
d="M254 1042v-1019q0 -23 -23 -23h-63q-25 0 -25 23v1019q0 25 25 25h63q23 0 23 -25zM426 1212h-455q-20 0 -20 21v37q0 22 20 22h455q23 0 23 -22v-37q0 -21 -23 -21z" />
    <glyph glyph-name="Ibreve" unicode="&#x12c;" horiz-adv-x="448" 
d="M166 25v1388q0 23 22 23h70q27 0 27 -23v-1388q0 -25 -27 -25h-70q-22 0 -22 25zM223 1532q-113 0 -171 54q-59 54 -60 136q0 21 16 21h41q21 0 23 -19q22 -112 151 -112q134 0 152 112q2 19 20 19h39q19 0 19 -21q-1 -81 -61 -136q-59 -54 -169 -54z" />
    <glyph glyph-name="ibreve" unicode="&#x12d;" horiz-adv-x="397" 
d="M254 1042v-1019q0 -23 -23 -23h-63q-25 0 -25 23v1019q0 25 25 25h63q23 0 23 -25zM201 1192q-116 0 -172 56q-59 59 -60 141q0 20 17 20h41q19 0 20 -18q23 -119 154 -119q140 0 151 119q4 18 21 18h39q18 0 18 -20q-1 -83 -59 -141q-56 -56 -170 -56z" />
    <glyph glyph-name="Iogonek" unicode="&#x12e;" horiz-adv-x="448" 
d="M166 25v1388q0 23 22 23h70q27 0 27 -23v-1388q0 -25 -27 -25h-10q-127 -66 -127 -164q0 -61 94 -61q9 0 59 6q16 0 17 -10l6 -39q2 -19 -10 -23q-33 -18 -94 -18q-160 0 -160 125q0 51 40 103q41 53 101 85q-8 6 -8 21z" />
    <glyph glyph-name="iogonek" unicode="&#x12f;" horiz-adv-x="397" 
d="M254 1042v-1019q0 -23 -23 -23h-14q-121 -67 -121 -154q0 -59 86 -59q7 0 31 2q4 0 8 0.5t7 1t5 0.5h3q19 0 20 -10l6 -37q1 -16 -10 -20q-29 -17 -90 -17q-152 0 -152 117q0 51 39 101q40 51 101 79q-7 7 -7 19v1019q0 25 23 25h65q23 0 23 -25zM256 1395v-156
q0 -22 -23 -22h-69q-23 0 -23 22v156q0 22 23 22h69q23 0 23 -22z" />
    <glyph glyph-name="Idotaccent" unicode="&#x130;" horiz-adv-x="448" 
d="M166 25v1388q0 23 22 23h70q27 0 27 -23v-1388q0 -25 -27 -25h-70q-22 0 -22 25zM283 1681v-120q0 -23 -21 -23h-78q-24 0 -24 23v120q0 23 24 23h78q21 0 21 -23z" />
    <glyph glyph-name="dotlessi" unicode="&#x131;" horiz-adv-x="397" 
d="M254 1042v-1019q0 -23 -23 -23h-63q-25 0 -25 23v1019q0 25 25 25h63q23 0 23 -25z" />
    <glyph glyph-name="IJ" unicode="&#x132;" horiz-adv-x="1185" 
d="M166 25v1388q0 23 22 23h70q27 0 27 -23v-1388q0 -25 -27 -25h-70q-22 0 -22 25zM918 371v1042q0 23 24 23h70q24 0 24 -23v-1051q0 -195 -79 -286q-80 -92 -246 -92q-132 0 -217 43q-27 16 -21 34l16 58q7 27 31 14q84 -41 185 -41q112 0 162 67q51 68 51 212z" />
    <glyph glyph-name="ij" unicode="&#x133;" horiz-adv-x="813" 
d="M254 1042v-1019q0 -23 -23 -23h-65q-23 0 -23 23v1019q0 25 23 25h65q23 0 23 -25zM256 1395v-156q0 -22 -23 -22h-69q-23 0 -23 22v156q0 22 23 22h69q23 0 23 -22zM557 236v806q0 25 25 25h65q23 0 23 -25v-817q0 -125 -43 -181t-146 -56q-52 0 -84 8q-20 6 -20 27v53
q0 22 24 18q30 -6 62 -6q52 0 73 34t21 114zM672 1395v-156q0 -22 -23 -22h-69q-25 0 -25 22v156q0 22 25 22h69q23 0 23 -22z" />
    <glyph glyph-name="Jcircumflex" unicode="&#x134;" horiz-adv-x="759" 
d="M496 371v1042q0 23 24 23h70q24 0 24 -23v-1051q0 -196 -78 -286q-80 -92 -247 -92q-132 0 -217 43q-27 16 -21 34l17 58q7 26 30 14q84 -41 185 -41q112 0 162 67q51 68 51 212zM502 1552l-131 123l-135 -123q-17 -14 -33 -14h-51q-11 0 -14 7t5 18l162 174q15 16 35 16
h57q21 0 37 -16l162 -174q8 -11 5 -18t-15 -7h-51q-13 0 -33 14z" />
    <glyph glyph-name="jcircumflex" unicode="&#x135;" horiz-adv-x="417" 
d="M162 14v1028q0 25 22 25h66q22 0 22 -25v-1038q0 -125 -43 -181t-145 -56q-52 0 -84 8q-20 1 -20 26v54q0 23 24 18q30 -6 64 -6q51 0 72 34q22 36 22 113zM352 1212l-135 134l-137 -134q-15 -14 -31 -14h-51q-12 0 -15 7q-3 8 5 16l164 184q16 16 34 16h58q21 0 37 -16
l163 -184q7 -8 5 -16q-1 -7 -15 -7h-51q-16 0 -31 14z" />
    <glyph glyph-name="Kcommaaccent" unicode="&#x136;" horiz-adv-x="1011" 
d="M270 815l535 602q19 19 37 19h92q14 0 19 -10q4 -9 -3 -19l-585 -649l596 -727q8 -13 5 -22t-18 -9h-96q-21 0 -37 20l-545 670v-665q0 -25 -24 -25h-68q-26 0 -26 25v1388q0 23 26 23h68q24 0 24 -23v-598zM618 -270l-59 -164q-6 -21 -22 -21h-17q-19 0 -14 23l37 164
h-41q-21 0 -21 24v115q0 23 21 23h98q25 0 25 -23v-111q0 -9 -7 -30z" />
    <glyph glyph-name="kcommaaccent" unicode="&#x137;" horiz-adv-x="839" 
d="M791 0h-93q-22 0 -34 18l-412 506v-501q0 -23 -23 -23h-65q-25 0 -25 23v1390q0 23 25 23h65q23 0 23 -23v-756l397 396q17 14 37 14h90q10 0 15 -5q4 -4 2 -12q-1 -6 -9 -14l-454 -440l473 -565q11 -11 6 -21q-4 -10 -18 -10zM530 -262l-53 -158q-7 -18 -22 -18h-19
q-16 0 -12 22l33 156h-37q-25 0 -25 20v111q0 23 25 23h92q23 0 23 -23v-102q0 -18 -5 -31z" />
    <glyph glyph-name="kgreenlandic" unicode="&#x138;" horiz-adv-x="829" 
d="M782 0h-90q-20 0 -37 18l-411 506v-501q0 -23 -23 -23h-63q-25 0 -25 23v1019q0 25 25 25h63q23 0 23 -25v-385l399 396q17 14 35 14h90q14 0 17 -10q3 -11 -7 -21l-456 -440l473 -565q11 -11 6 -21q-4 -10 -19 -10z" />
    <glyph glyph-name="Lacute" unicode="&#x139;" horiz-adv-x="880" 
d="M281 1413v-1302h512q24 0 24 -25v-61q0 -25 -24 -25h-605q-26 0 -26 25v1388q0 23 26 23h68q25 0 25 -23zM197 1561l108 168q16 24 35 24h96q13 0 16 -10q3 -11 -3 -19l-166 -172q-11 -14 -33 -14h-39q-12 0 -16 7q-5 8 2 16z" />
    <glyph glyph-name="lacute" unicode="&#x13a;" horiz-adv-x="397" 
d="M254 1413v-1390q0 -23 -23 -23h-65q-23 0 -23 23v1390q0 23 23 23h65q23 0 23 -23zM160 1561l108 168q16 24 35 24h96q13 0 16 -10q3 -11 -3 -19l-166 -172q-11 -14 -33 -14h-39q-12 0 -16 7q-5 8 2 16z" />
    <glyph glyph-name="Lcommaaccent" unicode="&#x13b;" horiz-adv-x="880" 
d="M270 1413v-1302h512q25 0 25 -25v-61q0 -25 -25 -25h-604q-26 0 -26 25v1388q0 23 26 23h68q24 0 24 -23zM528 -270l-59 -164q-6 -21 -23 -21h-16q-19 0 -14 23l37 164h-41q-21 0 -21 24v115q0 23 21 23h98q25 0 25 -23v-111q0 -9 -7 -30z" />
    <glyph glyph-name="lcommaaccent" unicode="&#x13c;" horiz-adv-x="397" 
d="M256 1413v-1390q0 -23 -23 -23h-65q-23 0 -23 23v1390q0 23 23 23h65q23 0 23 -23zM262 -262l-53 -158q-8 -18 -23 -18h-18q-16 0 -12 22l32 156h-36q-25 0 -25 20v111q0 23 25 23h92q22 0 22 -23v-102q0 -20 -4 -31z" />
    <glyph glyph-name="Lcaron" unicode="&#x13d;" horiz-adv-x="880" 
d="M270 1413v-1302h512q25 0 25 -25v-61q0 -25 -25 -25h-604q-26 0 -26 25v1388q0 23 26 23h68q24 0 24 -23zM635 1274l-62 -189q-6 -18 -22 -18h-29q-19 0 -14 25l47 182h-37q-24 0 -24 22v138q0 22 24 22h98q23 0 23 -22v-129q0 -20 -4 -31z" />
    <glyph glyph-name="lcaron" unicode="&#x13e;" horiz-adv-x="534" 
d="M256 1413v-1390q0 -23 -23 -23h-65q-23 0 -23 23v1390q0 23 23 23h65q23 0 23 -23zM530 1274l-61 -189q-6 -18 -23 -18h-28q-20 0 -15 25l48 182h-37q-25 0 -25 22v138q0 22 25 22h98q23 0 23 -22v-129q0 -18 -5 -31z" />
    <glyph glyph-name="Ldot" unicode="&#x13f;" horiz-adv-x="890" 
d="M270 1413v-1302h512q25 0 25 -25v-61q0 -25 -25 -25h-604q-26 0 -26 25v1388q0 23 26 23h68q24 0 24 -23zM637 582v137q0 24 25 24h94q24 0 24 -24v-137q0 -23 -22 -23h-96q-25 0 -25 23z" />
    <glyph glyph-name="ldot" unicode="&#x140;" horiz-adv-x="528" 
d="M248 1413v-1390q0 -23 -23 -23h-65q-23 0 -23 23v1390q0 23 23 23h65q23 0 23 -23zM385 469v137q0 25 25 25h94q24 0 24 -25v-137q0 -23 -22 -23h-96q-25 0 -25 23z" />
    <glyph glyph-name="Lslash" unicode="&#x141;" horiz-adv-x="884" 
d="M274 1413v-649l230 133q20 10 31 -8l16 -27q10 -16 -10 -28l-267 -156v-567h512q25 0 25 -23v-63q0 -25 -25 -25h-604q-26 0 -26 25v583l-62 -37q-22 -10 -33 9l-14 26q-10 20 8 31l101 57v719q0 23 26 23h68q24 0 24 -23z" />
    <glyph glyph-name="lslash" unicode="&#x142;" horiz-adv-x="405" 
d="M258 1413v-618l51 28q20 10 31 -8l16 -27q11 -18 -10 -30l-88 -51v-684q0 -23 -22 -23h-66q-23 0 -23 23v618l-51 -29q-21 -12 -33 9l-14 28q-13 17 8 29l90 53v682q0 23 23 23h66q22 0 22 -23z" />
    <glyph glyph-name="Nacute" unicode="&#x143;" horiz-adv-x="1181" 
d="M1028 1413v-1388q0 -25 -24 -25h-70q-25 0 -35 20l-631 1203v-1198q0 -25 -22 -25h-68q-26 0 -26 25v1388q0 23 26 23h68q29 0 37 -19l630 -1204v1200q0 23 25 23h66q24 0 24 -23zM545 1561l108 168q17 24 35 24h96q13 0 16 -10q3 -11 -3 -19l-166 -172q-11 -14 -33 -14
h-39q-12 0 -16 7q-5 8 2 16z" />
    <glyph glyph-name="nacute" unicode="&#x144;" horiz-adv-x="995" 
d="M866 737v-714q0 -23 -24 -23h-64q-22 0 -22 23v702q0 258 -224 258q-129 0 -208 -88q-80 -89 -80 -225v-647q0 -23 -23 -23h-65q-23 0 -23 23v1019q0 25 23 25h63q23 0 23 -23l2 -147q34 77 111 134q75 56 200 56q155 0 233 -93t78 -257zM432 1219l109 176q11 20 37 20
h96q12 0 15 -9t-5 -20l-168 -174q-14 -14 -33 -14h-39q-24 0 -12 21z" />
    <glyph glyph-name="Ncommaaccent" unicode="&#x145;" horiz-adv-x="1181" 
d="M1028 1413v-1388q0 -25 -24 -25h-70q-25 0 -35 20l-631 1203v-1198q0 -25 -22 -25h-68q-26 0 -26 25v1388q0 23 26 23h68q29 0 37 -19l630 -1204v1200q0 23 25 23h66q24 0 24 -23zM655 -270l-59 -164q-6 -21 -23 -21h-16q-19 0 -14 23l37 164h-41q-21 0 -21 24v115
q0 23 21 23h98q25 0 25 -23v-111q0 -9 -7 -30z" />
    <glyph glyph-name="ncommaaccent" unicode="&#x146;" horiz-adv-x="995" 
d="M866 737v-714q0 -23 -24 -23h-64q-22 0 -22 23v702q0 258 -224 258q-129 0 -208 -88q-80 -89 -80 -225v-647q0 -23 -23 -23h-65q-23 0 -23 23v1019q0 25 23 25h63q23 0 23 -23l2 -147q34 77 111 134q75 56 200 56q155 0 233 -93t78 -257zM569 -262l-53 -158
q-8 -18 -22 -18h-19q-16 0 -12 22l33 156h-37q-25 0 -25 20v111q0 23 25 23h92q22 0 22 -23v-102q0 -20 -4 -31z" />
    <glyph glyph-name="Ncaron" unicode="&#x147;" horiz-adv-x="1181" 
d="M1028 1413v-1388q0 -25 -24 -25h-70q-25 0 -35 20l-631 1203v-1198q0 -25 -22 -25h-68q-26 0 -26 25v1388q0 23 26 23h68q29 0 37 -19l630 -1204v1200q0 23 25 23h66q24 0 24 -23zM590 1616l131 121q20 16 31 16h51q12 0 15 -8t-3 -16l-162 -175q-16 -16 -37 -16h-57
q-19 0 -35 16l-162 175q-8 9 -4 16q5 8 17 8h51q13 0 29 -16z" />
    <glyph glyph-name="ncaron" unicode="&#x148;" horiz-adv-x="995" 
d="M866 737v-714q0 -23 -24 -23h-64q-22 0 -22 23v702q0 258 -224 258q-129 0 -208 -88q-80 -89 -80 -225v-647q0 -23 -23 -23h-65q-23 0 -23 23v1019q0 25 23 25h63q23 0 23 -23l2 -147q34 77 111 134q75 56 200 56q155 0 233 -93t78 -257zM500 1274l135 133q15 14 31 14
h51q13 0 14 -7q2 -8 -4 -15l-164 -185q-16 -16 -37 -16h-57q-20 0 -35 16l-164 185q-8 8 -5 15t16 7h51q15 0 30 -14z" />
    <glyph glyph-name="napostrophe" unicode="&#x149;" horiz-adv-x="1126" 
d="M997 737v-714q0 -23 -24 -23h-64q-22 0 -22 23v702q0 258 -223 258q-130 0 -209 -88q-80 -89 -80 -225v-647q0 -23 -23 -23h-65q-23 0 -23 23v1019q0 25 23 25h63q23 0 23 -23l2 -147q34 77 111 134q75 56 200 56q156 0 234 -93q77 -92 77 -257zM141 1288l-61 -188
q-6 -19 -23 -19h-28q-20 0 -15 25l47 182h-36q-25 0 -25 23v137q0 22 25 22h98q22 0 22 -22v-129q0 -20 -4 -31z" />
    <glyph glyph-name="Eng" unicode="&#x14a;" horiz-adv-x="1181" 
d="M1028 1413v-1382q0 -267 -217 -267q-77 0 -131 19q-22 6 -18 24l14 54q6 25 26 18q49 -14 93 -14q59 0 87 31t29 106l-643 1221v-1198q0 -25 -22 -25h-68q-26 0 -26 25v1388q0 23 26 23h68q29 0 37 -19l630 -1204v1200q0 23 25 23h66q24 0 24 -23z" />
    <glyph glyph-name="eng" unicode="&#x14b;" horiz-adv-x="995" 
d="M756 14v711q0 258 -224 258q-129 0 -208 -88q-80 -89 -80 -227v-645q0 -23 -23 -23h-65q-23 0 -23 23v1019q0 25 23 25h65q23 0 23 -23v-147q34 77 111 134q75 56 200 56q155 0 233 -93t78 -257v-733q0 -122 -44 -180q-44 -57 -144 -57q-41 0 -84 10q-19 2 -19 24v54
q0 23 23 18q33 -6 64 -6q51 0 72 34q22 36 22 113z" />
    <glyph glyph-name="Omacron" unicode="&#x14c;" horiz-adv-x="1200" 
d="M600 1456q250 0 375 -180q125 -181 125 -557q0 -379 -125 -558t-375 -179t-375 179t-125 558q0 376 125 557q125 180 375 180zM600 88q193 0 285 152t92 479q0 325 -92 477t-285 152t-285 -152t-92 -477q0 -327 92 -479t285 -152zM827 1554h-456q-23 0 -23 21v41
q0 22 23 22h456q23 0 23 -22v-41q0 -21 -23 -21z" />
    <glyph glyph-name="omacron" unicode="&#x14d;" horiz-adv-x="989" 
d="M494 -18q199 0 302 140t103 413q0 272 -103 412t-302 140q-200 0 -301 -140q-103 -142 -103 -412q0 -271 103 -413q101 -140 301 -140zM494 82q-289 0 -289 453q0 452 289 452q290 0 290 -452q0 -453 -290 -453zM721 1212h-455q-20 0 -20 21v37q0 22 20 22h455
q22 0 22 -22v-37q0 -21 -22 -21z" />
    <glyph glyph-name="Obreve" unicode="&#x14e;" horiz-adv-x="1200" 
d="M600 1456q250 0 375 -180q125 -181 125 -557q0 -379 -125 -558t-375 -179t-375 179t-125 558q0 376 125 557q125 180 375 180zM600 88q193 0 285 152t92 479q0 325 -92 477t-285 152t-285 -152t-92 -477q0 -327 92 -479t285 -152zM600 1532q-112 0 -171 54t-60 136
q0 21 16 21h41q21 0 23 -19q22 -112 151 -112q134 0 152 112q2 19 20 19h39q18 0 18 -21q-1 -82 -60 -136t-169 -54z" />
    <glyph glyph-name="obreve" unicode="&#x14f;" horiz-adv-x="989" 
d="M494 -18q-200 0 -301 140q-103 142 -103 413q0 270 103 412q101 140 301 140q199 0 302 -140t103 -412q0 -273 -103 -413t-302 -140zM494 82q290 0 290 453q0 452 -290 452q-289 0 -289 -452q0 -453 289 -453zM496 1192q-116 0 -172 56q-59 59 -60 141q0 20 17 20h41
q18 0 20 -18q23 -119 154 -119q140 0 151 119q5 18 21 18h39q18 0 18 -20q-1 -83 -59 -141q-56 -56 -170 -56z" />
    <glyph glyph-name="Ohungarumlaut" unicode="&#x150;" horiz-adv-x="1200" 
d="M600 1456q250 0 375 -180q125 -181 125 -557q0 -379 -125 -558t-375 -179t-375 179t-125 558q0 376 125 557q125 180 375 180zM600 88q193 0 285 152t92 479q0 325 -92 477t-285 152t-285 -152t-92 -477q0 -327 92 -479t285 -152zM428 1561l94 170q15 22 37 22h80
q12 0 15 -10t-5 -21l-135 -170q-11 -14 -33 -14h-41q-20 0 -12 23zM696 1561l97 170q12 22 34 22h78q15 0 18 -10t-5 -21l-134 -170q-11 -14 -32 -14h-41q-27 0 -15 23z" />
    <glyph glyph-name="ohungarumlaut" unicode="&#x151;" horiz-adv-x="989" 
d="M494 -18q199 0 302 140t103 413q0 272 -103 412t-302 140q-200 0 -301 -140q-103 -142 -103 -412q0 -271 103 -413q101 -140 301 -140zM494 82q-289 0 -289 453q0 452 289 452q290 0 290 -452q0 -453 -290 -453zM319 1219l99 176q11 20 35 20h75q15 0 18 -9t-5 -20
l-138 -174q-11 -14 -30 -14h-39q-22 0 -15 21zM586 1219l96 176q11 20 35 20h76q11 0 16 -9q4 -9 -2 -20l-139 -174q-10 -14 -33 -14h-35q-26 0 -14 21z" />
    <glyph glyph-name="OE" unicode="&#x152;" horiz-adv-x="1583" 
d="M1444 682h-486v-571h508q25 0 25 -23v-63q0 -25 -25 -25h-751q-290 0 -433 161t-143 558q0 395 144 556t434 161h743q25 0 25 -23v-63q0 -25 -25 -25h-502v-537h486q22 0 22 -24v-57q0 -25 -22 -25zM844 1325h-127q-231 0 -344 -131t-113 -475q0 -177 30 -299t90 -189
q60 -68 140 -95t195 -27h129v1216z" />
    <glyph glyph-name="oe" unicode="&#x153;" horiz-adv-x="1579" 
d="M1192 78q115 0 211 45q23 8 33 -14l16 -50q6 -18 -16 -28q-117 -51 -250 -51q-281 0 -369 249q-79 -247 -336 -247q-191 0 -291 141q-100 140 -100 412q0 271 100 411q100 141 291 141q253 0 336 -243q79 243 320 243q174 0 264 -133q90 -134 90 -356v-82q0 -22 -25 -22
h-598q12 -416 324 -416zM481 82q279 0 279 453q0 452 -279 452q-276 0 -276 -452q0 -453 276 -453zM1139 989q-261 0 -271 -401h512v16q0 385 -241 385z" />
    <glyph glyph-name="Racute" unicode="&#x154;" horiz-adv-x="1085" 
d="M270 633h219q205 0 287 78t82 268q0 194 -83 271t-290 77h-215v-694zM178 1436h309q262 0 377 -106t115 -351q0 -210 -87 -315q-87 -104 -267 -127l342 -506q8 -11 4 -21t-19 -10h-82q-22 0 -34 18l-340 506h-226v-499q0 -25 -24 -25h-68q-26 0 -26 25v1388q0 23 26 23z
M479 1561l109 168q16 24 35 24h96q12 0 15 -10q3 -11 -3 -19l-166 -172q-11 -14 -33 -14h-38q-13 0 -17 7q-5 8 2 16z" />
    <glyph glyph-name="racute" unicode="&#x155;" horiz-adv-x="618" 
d="M158 1067h65q23 0 23 -23v-190q24 87 103 155q78 68 192 68q26 0 26 -22v-78q0 -23 -22 -23h-2q-2 1 -6.5 1.5t-8.5 0.5q-20 2 -24 2q-106 0 -182 -107t-76 -257v-571q0 -23 -23 -23h-65q-25 0 -25 23v1019q0 25 25 25zM244 1219l108 176q11 20 37 20h96q13 0 16 -9
t-5 -20l-168 -174q-14 -14 -33 -14h-39q-24 0 -12 21z" />
    <glyph glyph-name="Rcommaaccent" unicode="&#x156;" horiz-adv-x="1085" 
d="M270 633h219q205 0 287 78t82 268q0 194 -83 271t-290 77h-215v-694zM178 1436h309q262 0 377 -106t115 -351q0 -210 -87 -315q-87 -104 -267 -127l342 -506q8 -11 4 -21t-19 -10h-82q-22 0 -34 18l-340 506h-226v-499q0 -25 -24 -25h-68q-26 0 -26 25v1388q0 23 26 23z
M612 -270l-59 -164q-6 -21 -23 -21h-16q-19 0 -14 23l37 164h-41q-21 0 -21 24v115q0 23 21 23h98q24 0 24 -23v-111q0 -12 -6 -30z" />
    <glyph glyph-name="rcommaaccent" unicode="&#x157;" horiz-adv-x="618" 
d="M158 1067h65q23 0 23 -23v-190q24 87 103 155q78 68 192 68q26 0 26 -22v-78q0 -23 -22 -23h-2q-2 1 -6.5 1.5t-8.5 0.5q-20 2 -24 2q-106 0 -182 -107t-76 -257v-571q0 -23 -23 -23h-65q-25 0 -25 23v1019q0 25 25 25zM256 -262l-53 -158q-7 -18 -23 -18h-18
q-16 0 -12 22l32 156h-37q-24 0 -24 20v111q0 23 24 23h93q22 0 22 -23v-102q0 -20 -4 -31z" />
    <glyph glyph-name="Rcaron" unicode="&#x158;" horiz-adv-x="1085" 
d="M270 633h219q205 0 287 78t82 268q0 194 -83 271t-290 77h-215v-694zM178 1436h309q262 0 377 -106t115 -351q0 -210 -87 -315q-87 -104 -267 -127l342 -506q8 -11 4 -21t-19 -10h-82q-22 0 -34 18l-340 506h-226v-499q0 -25 -24 -25h-68q-26 0 -26 25v1388q0 23 26 23z
M543 1616l131 121q20 16 31 16h51q12 0 15 -8t-3 -16l-162 -175q-16 -16 -37 -16h-57q-19 0 -35 16l-162 175q-9 9 -4 16q5 8 17 8h51q13 0 29 -16z" />
    <glyph glyph-name="rcaron" unicode="&#x159;" horiz-adv-x="618" 
d="M158 1067h65q23 0 23 -23v-190q24 87 103 155q78 68 192 68q26 0 26 -22v-78q0 -23 -22 -23h-2q-2 1 -6.5 1.5t-8.5 0.5q-20 2 -24 2q-106 0 -182 -107t-76 -257v-571q0 -23 -23 -23h-65q-25 0 -25 23v1019q0 25 25 25zM330 1274l135 133q15 14 31 14h51q13 0 14 -7
q2 -8 -4 -15l-164 -185q-16 -16 -37 -16h-57q-20 0 -35 16l-164 185q-8 8 -5 15t16 7h51q16 0 31 -14z" />
    <glyph glyph-name="Sacute" unicode="&#x15a;" horiz-adv-x="915" 
d="M829 342q0 -174 -109 -267q-110 -93 -317 -93q-201 0 -296 43q-27 15 -23 30l20 58q10 24 29 16q115 -41 268 -41t232 68q78 68 78 190q0 66 -21 116q-22 53 -68 94q-52 47 -87 70q-31 20 -115 68q-80 45 -123 75q-42 29 -96 80q-53 50 -77 115q-24 64 -24 146
q0 346 396 346q148 0 260 -41q26 -7 20 -31l-18 -55q-7 -22 -31 -16q-93 35 -225 35q-153 0 -219 -60t-66 -178q0 -60 19 -109q18 -47 63 -87q40 -36 78 -62q46 -31 104 -64q93 -53 107 -62q33 -21 89 -66q60 -48 84 -83q26 -38 47 -101t21 -134zM406 1561l108 168
q16 24 35 24h96q12 0 15 -10q3 -11 -3 -19l-165 -172q-11 -14 -33 -14h-39q-13 0 -17 7t3 16z" />
    <glyph glyph-name="sacute" unicode="&#x15b;" horiz-adv-x="776" 
d="M700 274q0 -143 -88 -218q-87 -74 -254 -74q-157 0 -268 43q-22 7 -20 26l14 53q8 23 29 15q108 -39 239 -39q238 0 238 194q0 38 -15 69q-18 39 -26 50q-12 18 -59 47q-49 30 -61 36q-38 19 -83 42q-146 74 -186 111q-80 74 -80 190q0 268 319 268q117 0 238 -40
q23 -6 18 -27l-14 -47q-6 -24 -27 -17q-99 33 -204 33q-117 0 -169 -40q-53 -41 -53 -130q0 -37 13 -70q12 -29 53 -60q42 -31 64 -42l98 -49q65 -31 112 -59q36 -21 86 -63q44 -37 66 -88q20 -47 20 -114zM313 1219l109 176q11 20 37 20h96q12 0 15 -9q3 -8 -5 -19
l-168 -175q-14 -14 -32 -14h-39q-25 0 -13 21z" />
    <glyph glyph-name="Scircumflex" unicode="&#x15c;" horiz-adv-x="915" 
d="M829 342q0 -174 -109 -267q-110 -93 -317 -93q-201 0 -296 43q-27 15 -23 30l20 58q10 24 29 16q115 -41 268 -41t232 68q78 68 78 190q0 66 -21 116q-22 53 -68 94q-52 47 -87 70q-31 20 -115 68q-80 45 -123 75q-42 29 -96 80q-53 50 -77 115q-24 64 -24 146
q0 346 396 346q148 0 260 -41q26 -7 20 -31l-18 -55q-7 -22 -31 -16q-93 35 -225 35q-153 0 -219 -60t-66 -178q0 -60 19 -109q18 -47 63 -87q40 -36 78 -62q46 -31 104 -64q93 -53 107 -62q33 -21 89 -66q60 -48 84 -83q26 -38 47 -101t21 -134zM590 1552l-131 123
l-135 -123q-17 -14 -33 -14h-51q-11 0 -14 7t5 18l162 174q15 16 35 16h57q21 0 37 -16l162 -174q8 -11 5 -18t-15 -7h-51q-13 0 -33 14z" />
    <glyph glyph-name="scircumflex" unicode="&#x15d;" horiz-adv-x="776" 
d="M700 274q0 -143 -88 -218q-87 -74 -254 -74q-157 0 -268 43q-22 7 -20 26l14 53q8 23 29 15q108 -39 239 -39q238 0 238 194q0 38 -15 69q-18 39 -26 50q-12 18 -59 47q-49 30 -61 36q-38 19 -83 42q-146 74 -186 111q-80 74 -80 190q0 268 319 268q117 0 238 -40
q23 -6 18 -27l-14 -47q-6 -24 -27 -17q-99 33 -204 33q-117 0 -169 -40q-53 -41 -53 -130q0 -37 13 -70q12 -29 53 -60q42 -31 64 -42l98 -49q65 -31 112 -59q36 -21 86 -63q44 -37 66 -88q20 -47 20 -114zM524 1212l-135 134l-137 -134q-15 -14 -31 -14h-51q-12 0 -15 7
q-3 8 5 16l164 184q16 16 34 16h58q21 0 37 -16l163 -184q7 -8 5 -16q-1 -7 -15 -7h-51q-16 0 -31 14z" />
    <glyph glyph-name="Scedilla" unicode="&#x15e;" horiz-adv-x="915" 
d="M829 342q0 -151 -81 -241t-240 -111q117 -69 117 -168q0 -131 -172 -131q-49 0 -64 6q-18 7 -18 22v37q0 17 18 17h53q95 0 95 63q0 80 -101 148q-9 0 -16 -1t-17 -1q-201 0 -296 43q-27 15 -23 30l20 58q10 24 29 16q115 -41 268 -41t232 68q78 68 78 190q0 66 -21 116
q-22 53 -68 94q-52 47 -87 70q-31 20 -115 68q-80 45 -123 75q-42 29 -96 80q-53 50 -77 115q-24 64 -24 146q0 346 396 346q148 0 260 -41q26 -7 20 -31l-18 -55q-7 -22 -31 -16q-93 35 -225 35q-153 0 -219 -60t-66 -178q0 -60 19 -109q18 -47 63 -87q40 -36 78 -62
q46 -31 104 -64q93 -53 107 -62q33 -21 89 -66q60 -48 84 -83q26 -38 47 -101t21 -134z" />
    <glyph glyph-name="scedilla" unicode="&#x15f;" horiz-adv-x="776" 
d="M700 274q0 -268 -295 -290q107 -62 107 -154q0 -123 -162 -123q-48 0 -63 6q-15 5 -15 23v35q0 14 17 14h47q92 0 92 61q0 73 -96 136q-147 6 -242 43q-22 7 -20 26l14 53q8 23 29 15q108 -39 239 -39q238 0 238 194q0 38 -15 69q-18 39 -26 50q-12 18 -59 47
q-49 30 -61 36q-38 19 -83 42q-146 74 -186 111q-80 74 -80 190q0 268 319 268q117 0 238 -40q23 -6 18 -27l-14 -47q-6 -24 -27 -17q-99 33 -204 33q-117 0 -169 -40q-53 -41 -53 -130q0 -37 13 -70q12 -29 53 -60q42 -31 64 -42l98 -49q65 -31 112 -59q36 -21 86 -63
q44 -37 66 -88q20 -47 20 -114z" />
    <glyph glyph-name="Scaron" unicode="&#x160;" horiz-adv-x="915" 
d="M829 342q0 -174 -109 -267q-110 -93 -317 -93q-201 0 -296 43q-27 15 -23 30l20 58q10 24 29 16q115 -41 268 -41t232 68q78 68 78 190q0 66 -21 116q-22 53 -68 94q-52 47 -87 70q-31 20 -115 68q-80 45 -123 75q-42 29 -96 80q-53 50 -77 115q-24 64 -24 146
q0 346 396 346q148 0 260 -41q26 -7 20 -31l-18 -55q-7 -22 -31 -16q-93 35 -225 35q-153 0 -219 -60t-66 -178q0 -60 19 -109q18 -47 63 -87q40 -36 78 -62q46 -31 104 -64q93 -53 107 -62q33 -21 89 -66q60 -48 84 -83q26 -38 47 -101t21 -134zM465 1616l131 121
q20 16 31 16h51q12 0 15 -8t-3 -16l-162 -175q-16 -16 -36 -16h-58q-19 0 -35 16l-161 175q-9 9 -5 16q5 8 17 8h51q13 0 29 -16z" />
    <glyph glyph-name="scaron" unicode="&#x161;" horiz-adv-x="776" 
d="M700 274q0 -143 -88 -218q-87 -74 -254 -74q-157 0 -268 43q-22 7 -20 26l14 53q8 23 29 15q108 -39 239 -39q238 0 238 194q0 38 -15 69q-18 39 -26 50q-12 18 -59 47q-49 30 -61 36q-38 19 -83 42q-146 74 -186 111q-80 74 -80 190q0 268 319 268q117 0 238 -40
q23 -6 18 -27l-14 -47q-6 -24 -27 -17q-99 33 -204 33q-117 0 -169 -40q-53 -41 -53 -130q0 -37 13 -70q12 -29 53 -60q42 -31 64 -42l98 -49q65 -31 112 -59q36 -21 86 -63q44 -37 66 -88q20 -47 20 -114zM389 1274l135 133q15 14 31 14h51q14 0 15 -7t-5 -15l-163 -185
q-16 -16 -37 -16h-58q-19 0 -34 16l-164 185q-8 8 -5 15t15 7h51q16 0 31 -14z" />
    <glyph glyph-name="Tcommaaccent" unicode="&#x162;" horiz-adv-x="892" 
d="M55 1350v63q0 23 25 23h735q23 0 23 -23v-63q0 -25 -23 -25h-309v-1300q0 -25 -25 -25h-67q-27 0 -27 25v1300h-307q-25 0 -25 25zM510 -270l-59 -164q-6 -21 -23 -21h-16q-20 0 -15 23l37 164h-41q-20 0 -20 24v115q0 23 20 23h99q24 0 24 -23v-111q0 -12 -6 -30z" />
    <glyph glyph-name="tcommaaccent" unicode="&#x163;" horiz-adv-x="612" 
d="M526 967h-227v-676q0 -116 31 -159q30 -42 119 -42q16 0 75 10q17 2 23 -20l12 -49q2 -21 -18 -27q-32 -14 -111 -14q-130 0 -186 63q-56 64 -56 228v686h-129q-24 0 -24 22v53q0 25 24 25h131v258q0 25 25 25h59q25 0 25 -25v-258h227q23 0 23 -25v-53q0 -22 -23 -22z
M414 -262l-54 -158q-8 -18 -22 -18h-19q-16 0 -12 22l33 156h-37q-24 0 -24 20v111q0 23 24 23h92q23 0 23 -23v-102q0 -20 -4 -31z" />
    <glyph glyph-name="Tcaron" unicode="&#x164;" horiz-adv-x="892" 
d="M55 1350v63q0 23 25 23h735q23 0 23 -23v-63q0 -25 -23 -25h-309v-1300q0 -25 -25 -25h-67q-27 0 -27 25v1300h-307q-25 0 -25 25zM444 1616l131 121q20 16 31 16h51q13 0 16 -8t-3 -16l-162 -175q-16 -16 -37 -16h-57q-19 0 -35 16l-162 175q-9 9 -4 16q5 8 16 8h52
q12 0 28 -16z" />
    <glyph glyph-name="tcaron" unicode="&#x165;" horiz-adv-x="765" 
d="M526 967h-227v-676q0 -116 31 -159q30 -42 119 -42q16 0 75 10q17 2 23 -20l12 -49q2 -21 -18 -27q-32 -14 -111 -14q-130 0 -186 63q-56 64 -56 228v686h-129q-24 0 -24 22v53q0 25 24 25h131v258q0 25 25 25h59q25 0 25 -25v-258h227q23 0 23 -25v-53q0 -22 -23 -22z
M762 1288l-62 -188q-6 -19 -22 -19h-29q-19 0 -14 25l47 182h-37q-24 0 -24 23v137q0 22 24 22h98q23 0 23 -22v-129q0 -20 -4 -31z" />
    <glyph glyph-name="Tbar" unicode="&#x166;" horiz-adv-x="892" 
d="M55 1350v63q0 23 25 23h735q23 0 23 -23v-63q0 -25 -23 -25h-309v-563h186q23 0 23 -23v-30q0 -25 -23 -25h-186v-659q0 -25 -25 -25h-67q-27 0 -27 25v659h-184q-23 0 -23 25v30q0 23 23 23h184v563h-307q-25 0 -25 25z" />
    <glyph glyph-name="tbar" unicode="&#x167;" horiz-adv-x="612" 
d="M526 967h-227v-371h207q24 0 24 -21v-30q0 -23 -24 -23h-207v-231q0 -116 31 -159q30 -42 119 -42q16 0 75 10q17 2 23 -20l12 -49q2 -21 -18 -27q-32 -14 -111 -14q-130 0 -186 63q-56 64 -56 228v241h-129q-24 0 -24 23v30q0 21 24 21h129v371h-129q-24 0 -24 22v53
q0 25 24 25h131v258q0 25 25 25h59q25 0 25 -25v-258h227q23 0 23 -25v-53q0 -22 -23 -22z" />
    <glyph glyph-name="Utilde" unicode="&#x168;" horiz-adv-x="1150" 
d="M575 -20q-223 0 -327 117q-105 119 -105 360v956q0 23 25 23h68q26 0 26 -23v-946q0 -194 73 -287q72 -92 240 -92q169 0 241 92q73 93 73 287v946q0 23 24 23h70q23 0 23 -23v-956q0 -241 -104 -360q-102 -117 -327 -117zM846 1663q0 -57 -32 -95t-93 -38q-55 0 -139 39
l-54 26q-44 23 -82 23q-55 0 -61 -43l-2 -19q0 -20 -25 -20h-30q-23 0 -23 29q0 59 32 97t91 38q57 0 139 -43l51 -27q49 -26 89 -26q51 0 57 51l2 16q0 23 27 23h28q25 0 25 -31z" />
    <glyph glyph-name="utilde" unicode="&#x169;" horiz-adv-x="983" 
d="M125 338v704q0 25 25 25h63q23 0 23 -25v-688q0 -270 225 -270q123 0 199 88q77 89 77 225v645q0 25 23 25h65q23 0 23 -25v-1019q0 -23 -23 -23h-65q-23 0 -23 23v149q-28 -77 -102 -134q-72 -56 -197 -56q-157 0 -235 94q-78 95 -78 262zM748 1321q0 -55 -29 -90
t-84 -35q-63 0 -137 39l-49 25q-47 24 -74 24q-50 0 -58 -47l-2 -18q-5 -19 -26 -19h-31q-22 0 -22 29q0 58 28 93q28 36 84 36q53 0 137 -41l52 -25q51 -24 79 -24q46 0 52 47l2 16q2 21 24 21h33q21 0 21 -31z" />
    <glyph glyph-name="Umacron" unicode="&#x16a;" horiz-adv-x="1150" 
d="M575 -20q-223 0 -327 117q-105 119 -105 360v956q0 23 25 23h68q26 0 26 -23v-946q0 -194 73 -287q72 -92 240 -92q169 0 241 92q73 93 73 287v946q0 23 24 23h70q23 0 23 -23v-956q0 -241 -104 -360q-102 -117 -327 -117zM803 1554h-457q-22 0 -22 21v41q0 22 22 22h457
q22 0 22 -22v-41q0 -21 -22 -21z" />
    <glyph glyph-name="umacron" unicode="&#x16b;" horiz-adv-x="983" 
d="M125 338v704q0 25 25 25h63q23 0 23 -25v-688q0 -270 225 -270q123 0 199 88q77 89 77 225v645q0 25 23 25h65q23 0 23 -25v-1019q0 -23 -23 -23h-65q-23 0 -23 23v149q-28 -77 -102 -134q-72 -56 -197 -56q-157 0 -235 94q-78 95 -78 262zM719 1212h-455q-20 0 -20 21
v37q0 22 20 22h455q22 0 22 -22v-37q0 -21 -22 -21z" />
    <glyph glyph-name="Ubreve" unicode="&#x16c;" horiz-adv-x="1150" 
d="M575 -20q-223 0 -327 117q-105 119 -105 360v956q0 23 25 23h68q26 0 26 -23v-946q0 -194 73 -287q72 -92 240 -92q169 0 241 92q73 93 73 287v946q0 23 24 23h70q23 0 23 -23v-956q0 -241 -104 -360q-102 -117 -327 -117zM575 1532q-113 0 -171 54q-59 54 -60 136
q0 21 16 21h41q21 0 23 -19q22 -112 151 -112q134 0 152 112q2 19 21 19h38q19 0 19 -21q-1 -81 -61 -136q-58 -54 -169 -54z" />
    <glyph glyph-name="ubreve" unicode="&#x16d;" horiz-adv-x="983" 
d="M125 338v704q0 25 25 25h63q23 0 23 -25v-688q0 -270 225 -270q123 0 199 88q77 89 77 225v645q0 25 23 25h65q23 0 23 -25v-1019q0 -23 -23 -23h-65q-23 0 -23 23v149q-28 -77 -102 -134q-72 -56 -197 -56q-157 0 -235 94q-78 95 -78 262zM494 1192q-116 0 -172 56
q-59 59 -60 141q0 20 17 20h40q17 0 21 -18q23 -119 154 -119q140 0 151 119q1 18 21 18h39q18 0 18 -20q-1 -83 -59 -141q-56 -56 -170 -56z" />
    <glyph glyph-name="Uring" unicode="&#x16e;" horiz-adv-x="1150" 
d="M575 -20q-223 0 -327 117q-105 119 -105 360v956q0 23 25 23h68q26 0 26 -23v-946q0 -194 73 -287q72 -92 240 -92q169 0 241 92q73 93 73 287v946q0 23 24 23h70q23 0 23 -23v-956q0 -241 -104 -360q-102 -117 -327 -117zM461 1696q0 -107 114 -107q111 0 111 107
q0 49 -29 78q-28 28 -82 28q-56 0 -85 -28t-29 -78zM391 1696q0 79 49 125q50 47 135 47t135 -47t50 -125q0 -75 -50 -125q-49 -49 -135 -49q-85 0 -135 48q-49 48 -49 126z" />
    <glyph glyph-name="uring" unicode="&#x16f;" horiz-adv-x="983" 
d="M125 338v704q0 25 25 25h63q23 0 23 -25v-688q0 -270 225 -270q123 0 199 88q77 89 77 225v645q0 25 23 25h65q23 0 23 -25v-1019q0 -23 -23 -23h-65q-23 0 -23 23v149q-28 -77 -102 -134q-72 -56 -197 -56q-157 0 -235 94q-78 95 -78 262zM494 1247q110 0 110 107
q0 104 -112 104q-53 0 -83 -27t-30 -77q0 -107 115 -107zM492 1524q84 0 134 -47t50 -123q0 -79 -49 -125q-50 -47 -133 -47q-86 0 -136 47q-49 46 -49 125q0 77 49 123q50 47 134 47z" />
    <glyph glyph-name="Uhungarumlaut" unicode="&#x170;" horiz-adv-x="1150" 
d="M575 -20q-223 0 -327 117q-105 119 -105 360v956q0 23 25 23h68q26 0 26 -23v-946q0 -194 73 -287q72 -92 240 -92q169 0 241 92q73 93 73 287v946q0 23 24 23h70q23 0 23 -23v-956q0 -241 -104 -360q-102 -117 -327 -117zM385 1561l94 170q15 22 37 22h80q12 0 15 -10
t-5 -21l-135 -170q-11 -14 -33 -14h-41q-20 0 -12 23zM653 1561l97 170q12 22 34 22h78q15 0 18 -10q3 -9 -6 -21l-133 -170q-11 -14 -32 -14h-41q-26 0 -15 23z" />
    <glyph glyph-name="uhungarumlaut" unicode="&#x171;" horiz-adv-x="983" 
d="M125 338v704q0 25 25 25h63q23 0 23 -25v-688q0 -270 225 -270q123 0 199 88q77 89 77 225v645q0 25 23 25h65q23 0 23 -25v-1019q0 -23 -23 -23h-65q-23 0 -23 23v149q-28 -77 -102 -134q-72 -56 -197 -56q-157 0 -235 94q-78 95 -78 262zM299 1219l98 176q11 20 35 20
h76q14 0 17 -9t-5 -20l-137 -174q-11 -14 -31 -14h-39q-21 0 -14 21zM565 1219l96 176q11 20 35 20h76q12 0 16 -9t-2 -20l-139 -174q-10 -14 -33 -14h-34q-27 0 -15 21z" />
    <glyph glyph-name="Uogonek" unicode="&#x172;" horiz-adv-x="1150" 
d="M575 -20q-223 0 -327 117q-105 119 -105 360v956q0 23 25 23h68q26 0 26 -23v-946q0 -194 73 -287q72 -92 240 -92q169 0 241 92q73 93 73 287v946q0 23 24 23h70q23 0 23 -23v-956q0 -409 -306 -465q-110 -67 -110 -156q0 -61 94 -61q10 0 59 6q16 0 17 -10l6 -39
q2 -19 -10 -23q-33 -18 -94 -18q-160 0 -160 125q0 92 102 164h-29z" />
    <glyph glyph-name="uogonek" unicode="&#x173;" horiz-adv-x="983" 
d="M125 338v704q0 25 25 25h63q23 0 23 -25v-688q0 -270 225 -270q123 0 199 88q77 89 77 225v645q0 25 23 25h65q23 0 23 -25v-1019q0 -23 -23 -23h-16q-121 -67 -121 -154q0 -59 86 -59q7 0 31 2q5 0 10 0.5t8 1t4 0.5q20 0 21 -10l6 -37q1 -16 -10 -20q-29 -17 -90 -17
q-152 0 -152 117q0 52 39 102q40 51 100 80q-4 7 -4 17v149q-28 -77 -102 -134q-72 -56 -197 -56q-157 0 -235 94q-78 95 -78 262z" />
    <glyph glyph-name="Wcircumflex" unicode="&#x174;" horiz-adv-x="1726" 
d="M825 1436h74q27 0 33 -23l211 -885l88 -389h6l84 385l207 889q6 23 28 23h74q27 0 21 -29l-334 -1380q-6 -27 -33 -27h-96q-27 0 -33 25l-211 874l-80 344h-4l-80 -344l-209 -874q-6 -25 -32 -25h-97q-28 0 -34 27l-330 1380q-6 29 18 29h74q23 0 29 -23l207 -889
l81 -385h7l88 389l213 885q6 23 30 23zM995 1552l-131 123l-135 -123q-17 -14 -33 -14h-51q-10 0 -13 7t5 18l162 174q15 16 35 16h57q21 0 37 -16l162 -174q8 -11 5 -18t-16 -7h-51q-13 0 -33 14z" />
    <glyph glyph-name="wcircumflex" unicode="&#x175;" horiz-adv-x="1368" 
d="M649 1067h68q22 0 28 -23l177 -688l51 -225h4l47 225l164 686q6 25 26 25h68q27 0 21 -27l-256 -1017q-6 -23 -31 -23h-76q-25 0 -31 23l-168 651l-55 239h-4l-53 -239l-170 -651q-6 -23 -31 -23h-76q-22 0 -28 23l-256 1017q-6 27 18 27h68q20 0 26 -25l164 -686
l47 -225h4l51 225l179 688q6 23 24 23zM821 1212l-135 134l-137 -134q-15 -14 -31 -14h-51q-12 0 -15 7q-3 8 5 16l164 184q16 16 34 16h58q21 0 37 -16l163 -184q7 -8 5 -16q-1 -7 -15 -7h-51q-16 0 -31 14z" />
    <glyph glyph-name="Ycircumflex" unicode="&#x176;" horiz-adv-x="1069" 
d="M596 549v-524q0 -25 -27 -25h-69q-23 0 -23 25v524l-416 860q-12 27 17 27h78q20 0 30 -21l250 -532l96 -226h3l100 226l248 532q11 21 32 21h76q25 0 17 -27zM668 1552l-131 123l-136 -123q-17 -14 -32 -14h-52q-10 0 -13 7t5 18l162 174q15 16 35 16h57q21 0 37 -16
l162 -174q8 -11 5 -18t-15 -7h-52q-12 0 -32 14z" />
    <glyph glyph-name="ycircumflex" unicode="&#x177;" horiz-adv-x="854" 
d="M805 1040l-289 -993q-45 -154 -102 -218q-57 -65 -181 -65q-69 0 -118 19q-23 6 -21 24l12 52q6 20 29 18q73 -12 94 -12q88 0 124 67q36 68 12 140l-310 968q-10 27 17 27h69q18 0 29 -25l195 -641l75 -264h4l72 264l174 641q6 25 27 25h69q25 0 19 -27zM563 1212
l-135 134l-137 -134q-15 -14 -31 -14h-51q-12 0 -15 7q-3 8 5 16l163 184q16 16 35 16h58q21 0 37 -16l163 -184q6 -7 4 -16q-1 -7 -14 -7h-51q-16 0 -31 14z" />
    <glyph glyph-name="Ydieresis" unicode="&#x178;" horiz-adv-x="1069" 
d="M596 549v-524q0 -25 -27 -25h-69q-23 0 -23 25v524l-416 860q-12 27 17 27h78q20 0 30 -21l250 -532l96 -226h3l100 226l248 532q11 21 32 21h76q25 0 17 -27zM440 1675v-114q0 -23 -22 -23h-76q-23 0 -23 23v114q0 23 23 23h76q22 0 22 -23zM752 1675v-114
q0 -23 -25 -23h-74q-22 0 -22 23v114q0 23 22 23h74q25 0 25 -23z" />
    <glyph glyph-name="Zacute" unicode="&#x179;" horiz-adv-x="974" 
d="M96 25v59q0 13 13 39l626 1202h-596q-24 0 -24 25v63q0 23 24 23h707q22 0 22 -23v-61q0 -16 -12 -39l-623 -1202h619q27 0 27 -23v-63q0 -25 -27 -25h-733q-23 0 -23 25zM434 1561l109 168q17 24 35 24h96q12 0 15 -10q3 -11 -3 -19l-166 -172q-11 -14 -33 -14h-38
q-13 0 -17 7q-5 8 2 16z" />
    <glyph glyph-name="zacute" unicode="&#x17a;" horiz-adv-x="835" 
d="M737 1042v-43q0 -16 -10 -30l-494 -869h486q24 0 24 -20v-57q0 -23 -24 -23h-606q-23 0 -23 23v43q0 12 8 30l498 869h-471q-23 0 -23 22v55q0 25 23 25h588q24 0 24 -25zM354 1219l109 176q11 20 37 20h96q12 0 15 -9t-5 -20l-168 -174q-14 -14 -32 -14h-39
q-25 0 -13 21z" />
    <glyph glyph-name="Zdotaccent" unicode="&#x17b;" horiz-adv-x="974" 
d="M96 25v59q0 13 13 39l626 1202h-596q-24 0 -24 25v63q0 23 24 23h707q22 0 22 -23v-61q0 -16 -12 -39l-623 -1202h619q27 0 27 -23v-63q0 -25 -27 -25h-733q-23 0 -23 25zM555 1681v-120q0 -23 -20 -23h-78q-25 0 -25 23v120q0 23 25 23h78q20 0 20 -23z" />
    <glyph glyph-name="zdotaccent" unicode="&#x17c;" horiz-adv-x="835" 
d="M737 1042v-43q0 -16 -10 -30l-494 -869h486q24 0 24 -20v-57q0 -23 -24 -23h-606q-23 0 -23 23v43q0 12 8 30l498 869h-471q-23 0 -23 22v55q0 25 23 25h588q24 0 24 -25zM479 1341v-120q0 -23 -20 -23h-78q-25 0 -25 23v120q0 25 25 25h78q20 0 20 -25z" />
    <glyph glyph-name="Zcaron" unicode="&#x17d;" horiz-adv-x="974" 
d="M96 25v59q0 13 13 39l626 1202h-596q-24 0 -24 25v63q0 23 24 23h707q22 0 22 -23v-61q0 -16 -12 -39l-623 -1202h619q27 0 27 -23v-63q0 -25 -27 -25h-733q-23 0 -23 25zM502 1616l131 121q20 16 31 16h51q12 0 15 -8t-3 -16l-162 -175q-16 -16 -37 -16h-57
q-19 0 -35 16l-162 175q-9 9 -4 16q5 8 17 8h51q13 0 29 -16z" />
    <glyph glyph-name="zcaron" unicode="&#x17e;" horiz-adv-x="835" 
d="M737 1042v-43q0 -16 -10 -30l-494 -869h486q24 0 24 -20v-57q0 -23 -24 -23h-606q-23 0 -23 23v43q0 12 8 30l498 869h-471q-23 0 -23 22v55q0 25 23 25h588q24 0 24 -25zM420 1274l135 133q15 14 31 14h51q13 0 14 -7q2 -8 -4 -15l-164 -185q-16 -16 -37 -16h-57
q-20 0 -35 16l-164 185q-8 8 -5 15t16 7h51q16 0 31 -14z" />
    <glyph glyph-name="longs" unicode="&#x17f;" horiz-adv-x="528" 
d="M309 1155v-1132q0 -23 -20 -23h-66q-22 0 -22 23v944h-131q-23 0 -23 22v53q0 25 23 25h131v94q0 149 55 217q56 70 178 70q58 0 101 -14q16 -1 16 -27v-45q0 -27 -25 -21q-38 7 -75 7q-78 0 -110 -44t-32 -149z" />
    <glyph glyph-name="florin" unicode="&#x192;" horiz-adv-x="1126" 
d="M655 1143l-43 -338h238q22 0 20 -23l-8 -45q0 -20 -20 -20h-242l-92 -703q-16 -129 -71 -190q-54 -60 -167 -60q-57 0 -98 13q-19 6 -18 26l10 52q1 22 29 20q40 -8 63 -8q63 0 96 39q32 38 43 121l92 690h-151q-25 0 -19 22l7 43q0 23 24 23h152l45 352q22 155 86 225
t188 70q77 0 113 -14q18 -7 16 -27l-8 -45q-7 -26 -31 -20q-49 10 -75 10q-82 0 -123 -50t-56 -163z" />
    <glyph glyph-name="Aringacute" unicode="&#x1fa;" horiz-adv-x="1122" 
d="M379 1544q0 126 110 160l91 139q17 25 34 25h97q12 0 15 -10q3 -11 -3 -19l-121 -127q69 -11 107 -55q39 -45 39 -113q0 -116 -103 -160l422 -1357q6 -27 -20 -27h-74q-23 0 -29 23l-117 389h-530l-119 -389q-6 -23 -26 -23h-78q-25 0 -19 27l420 1359q-96 40 -96 158z
M330 520h463l-230 780h-4zM449 1544q0 -106 114 -106q111 0 111 106q0 49 -29 78t-82 29q-54 0 -85 -29q-29 -28 -29 -78z" />
    <glyph glyph-name="aringacute" unicode="&#x1fb;" horiz-adv-x="929" 
d="M803 754v-731q0 -23 -25 -23h-59q-23 0 -23 23v155q-80 -192 -325 -192q-143 0 -220 81q-77 82 -77 220q0 89 31 151q31 63 82 101q47 35 135 59t168 32q91 10 204 11v109q0 124 -54 181q-53 56 -179 56q-133 0 -277 -55q-20 -10 -26 14l-15 53q-6 18 17 29
q127 59 309 59q175 0 254 -82q80 -83 80 -251zM694 391v160q-81 -1 -166 -7q-60 -4 -138 -22q-72 -17 -112 -43q-42 -28 -68 -73q-28 -48 -28 -115q0 -98 51 -155q50 -56 156 -56q143 0 224 89t81 222zM281 1354q0 129 118 162l90 145q11 20 37 20h97q12 0 15 -9
q3 -8 -5 -19l-129 -133q67 -10 105 -56t38 -110q0 -79 -49 -125q-50 -47 -133 -47q-85 0 -135 47q-49 46 -49 125zM465 1247q110 0 110 107q0 104 -112 104q-53 0 -83 -27t-30 -77q0 -107 115 -107z" />
    <glyph glyph-name="AEacute" unicode="&#x1fc;" horiz-adv-x="1452" 
d="M1309 682h-465v-571h489q25 0 25 -23v-63q0 -25 -25 -25h-581q-25 0 -25 25v374h-424l-145 -376q-11 -23 -29 -23h-82q-30 0 -18 27l565 1384q8 25 37 25h696q25 0 25 -23v-63q0 -25 -25 -25h-483v-537h465q26 0 26 -24v-57q0 -25 -26 -25zM354 506h371v821h-53z
M690 1561l109 168q17 24 35 24h96q12 0 15 -10q3 -11 -3 -19l-166 -172q-11 -14 -33 -14h-38q-13 0 -17 7q-5 8 2 16z" />
    <glyph glyph-name="aeacute" unicode="&#x1fd;" horiz-adv-x="1503" 
d="M1114 78q117 0 213 45q25 8 31 -14l16 -50q6 -15 -18 -30q-98 -49 -246 -49q-144 0 -237 68q-95 69 -128 188q-38 -116 -129 -183t-229 -67q-156 0 -234 77q-79 78 -79 216q0 84 30 144q29 58 79 94q46 33 133 53q89 20 166 26q89 7 204 8v146q0 122 -56 179
q-57 58 -175 58q-124 0 -273 -55q-20 -7 -26 14l-17 53q-6 21 19 29q145 59 297 59q264 0 307 -200q73 200 305 200q174 0 260 -128t86 -347v-88q0 -22 -24 -22h-596q12 -424 321 -424zM1061 989q-258 0 -270 -393h514v18q0 375 -244 375zM686 393v117q-12 0 -141 -4
q-39 -1 -119 -10q-65 -7 -103 -23q-35 -14 -73 -39q-37 -24 -52 -63q-16 -42 -16 -90q0 -94 52 -146q53 -53 161 -53q139 0 215 88t76 223zM676 1219l108 176q11 20 37 20h97q12 0 15 -9q3 -8 -5 -19l-168 -175q-14 -14 -33 -14h-39q-24 0 -12 21z" />
    <glyph glyph-name="Oslashacute" unicode="&#x1fe;" horiz-adv-x="1208" 
d="M604 1456q238 0 359 -168l92 125q15 20 30 8l41 -32q16 -12 4 -33l-110 -156q82 -185 82 -481q0 -380 -124 -558q-125 -179 -374 -179q-244 0 -360 165l-94 -129q-15 -18 -31 -4l-41 33q-18 15 -4 31l112 158q-80 171 -80 483q0 380 124 558q125 179 374 179zM604 88
q193 0 285 152t92 479q0 237 -49 377l-613 -854q50 -79 118 -117q65 -37 167 -37zM227 719q0 -253 47 -379l613 852q-90 156 -283 156t-285 -152t-92 -477zM549 1561l108 168q17 24 35 24h96q13 0 16 -10q3 -11 -3 -19l-166 -172q-11 -14 -33 -14h-39q-12 0 -16 7q-5 8 2 16
z" />
    <glyph glyph-name="oslashacute" unicode="&#x1ff;" horiz-adv-x="997" 
d="M498 -18q199 0 302 140t103 413q0 247 -80 378l70 103q10 14 -6 26l-27 21q-20 16 -35 -6l-53 -78q-99 108 -274 108q-200 0 -301 -140q-103 -142 -103 -412q0 -249 80 -379l-70 -101q-10 -11 9 -30l24 -23q20 -16 35 6l55 80q99 -106 271 -106zM498 987q136 0 204 -96
l-452 -641q-41 96 -41 285q0 452 289 452zM498 82q-129 0 -201 94l451 641q40 -99 40 -282q0 -453 -290 -453zM434 1219l109 176q11 20 37 20h96q12 0 15 -9t-5 -20l-168 -174q-14 -14 -33 -14h-39q-24 0 -12 21z" />
    <glyph glyph-name="Scommaaccent" unicode="&#x218;" horiz-adv-x="915" 
d="M829 342q0 -174 -109 -267q-110 -93 -317 -93q-201 0 -296 43q-27 15 -23 30l20 58q10 24 29 16q115 -41 268 -41t232 68q78 68 78 190q0 66 -21 116q-22 53 -68 94q-52 47 -87 70q-31 20 -115 68q-80 45 -123 75q-42 29 -96 80q-53 50 -77 115q-24 64 -24 146
q0 346 396 346q148 0 260 -41q26 -7 20 -31l-18 -55q-7 -22 -31 -16q-93 35 -225 35q-153 0 -219 -60t-66 -178q0 -60 19 -109q18 -47 63 -87q40 -36 78 -62q46 -31 104 -64q93 -53 107 -62q33 -21 89 -66q60 -48 84 -83q26 -38 47 -101t21 -134zM524 -270l-59 -164
q-6 -21 -23 -21h-16q-19 0 -14 23l37 164h-41q-21 0 -21 24v115q0 23 21 23h98q24 0 24 -23v-111q0 -12 -6 -30z" />
    <glyph glyph-name="scommaaccent" unicode="&#x219;" horiz-adv-x="776" 
d="M700 274q0 -143 -88 -218q-87 -74 -254 -74q-157 0 -268 43q-22 7 -20 26l14 53q8 23 29 15q108 -39 239 -39q238 0 238 194q0 38 -15 69q-18 39 -26 50q-12 18 -59 47q-49 30 -61 36q-38 19 -83 42q-146 74 -186 111q-80 74 -80 190q0 268 319 268q117 0 238 -40
q23 -6 18 -27l-14 -47q-6 -24 -27 -17q-99 33 -204 33q-117 0 -169 -40q-53 -41 -53 -130q0 -37 13 -70q12 -29 53 -60q42 -31 64 -42l98 -49q65 -31 112 -59q36 -21 86 -63q44 -37 66 -88q20 -47 20 -114zM461 -262l-53 -158q-8 -18 -23 -18h-18q-17 0 -13 22l33 156h-37
q-24 0 -24 20v111q0 23 24 23h92q23 0 23 -23v-102q0 -20 -4 -31z" />
    <glyph glyph-name="uni021A" unicode="&#x21a;" horiz-adv-x="892" 
d="M55 1350v63q0 23 25 23h735q23 0 23 -23v-63q0 -25 -23 -25h-309v-1300q0 -25 -25 -25h-67q-27 0 -27 25v1300h-307q-25 0 -25 25zM510 -270l-59 -164q-6 -21 -23 -21h-16q-20 0 -15 23l37 164h-41q-20 0 -20 24v115q0 23 20 23h99q24 0 24 -23v-111q0 -12 -6 -30z" />
    <glyph glyph-name="uni021B" unicode="&#x21b;" horiz-adv-x="612" 
d="M526 967h-227v-676q0 -116 31 -159q30 -42 119 -42q16 0 75 10q17 2 23 -20l12 -49q2 -21 -18 -27q-32 -14 -111 -14q-130 0 -186 63q-56 64 -56 228v686h-129q-24 0 -24 22v53q0 25 24 25h131v258q0 25 25 25h59q25 0 25 -25v-258h227q23 0 23 -25v-53q0 -22 -23 -22z
M414 -262l-54 -158q-8 -18 -22 -18h-19q-16 0 -12 22l33 156h-37q-24 0 -24 20v111q0 23 24 23h92q23 0 23 -23v-102q0 -20 -4 -31z" />
    <glyph glyph-name="dotlessj" unicode="&#x237;" horiz-adv-x="415" 
d="M162 14v1028q0 25 22 25h66q22 0 22 -25v-1038q0 -125 -43 -181t-145 -56q-52 0 -84 8q-20 1 -20 26v54q0 23 24 18q30 -6 64 -6q51 0 72 34q22 36 22 113z" />
    <glyph glyph-name="circumflex" unicode="&#x2c6;" horiz-adv-x="591" 
d="M432 1212l-135 134l-137 -134q-15 -14 -31 -14h-51q-13 0 -16 7t6 16l163 184q16 16 35 16h58q20 0 36 -16l164 -184q6 -7 4 -16q-1 -7 -14 -7h-51q-16 0 -31 14z" />
    <glyph glyph-name="caron" unicode="&#x2c7;" horiz-adv-x="591" 
d="M297 1274l135 133q15 14 31 14h51q13 0 14 -7q2 -8 -4 -15l-164 -185q-16 -16 -36 -16h-58q-20 0 -35 16l-163 185q-9 9 -6 15q3 7 16 7h51q16 0 31 -14z" />
    <glyph glyph-name="uni02C9" unicode="&#x2c9;" horiz-adv-x="591" 
d="M522 1212h-454q-21 0 -21 21v37q0 22 21 22h454q23 0 23 -22v-37q0 -21 -23 -21z" />
    <glyph glyph-name="breve" unicode="&#x2d8;" horiz-adv-x="591" 
d="M297 1192q-116 0 -172 56q-58 58 -59 141q0 20 16 20h41q15 0 20 -18q23 -119 154 -119q141 0 152 119q1 18 20 18h39q18 0 18 -20q-1 -83 -59 -141q-56 -56 -170 -56z" />
    <glyph glyph-name="dotaccent" unicode="&#x2d9;" horiz-adv-x="591" 
d="M356 1341v-120q0 -23 -20 -23h-78q-25 0 -25 23v120q0 25 25 25h78q20 0 20 -25z" />
    <glyph glyph-name="ring" unicode="&#x2da;" horiz-adv-x="591" 
d="M297 1247q111 0 111 107q0 104 -113 104q-53 0 -83 -27t-30 -77q0 -107 115 -107zM295 1524q84 0 134 -47t50 -123q0 -79 -49 -125q-50 -47 -133 -47q-85 0 -135 47q-49 46 -49 125q0 77 49 123q50 47 133 47z" />
    <glyph glyph-name="ogonek" unicode="&#x2db;" horiz-adv-x="591" 
d="M309 20l64 -4q-152 -74 -152 -170q0 -59 86 -59q7 0 31 2q5 0 10 0.5t8 1t4 0.5q20 0 21 -10l6 -37q1 -16 -10 -20q-29 -17 -90 -17q-152 0 -152 117q0 61 49 114q49 54 125 82z" />
    <glyph glyph-name="tilde" unicode="&#x2dc;" horiz-adv-x="591" 
d="M551 1321q0 -55 -29 -90t-84 -35q-64 0 -137 39l-49 25q-45 24 -74 24q-49 0 -57 -47l-2 -18q-5 -19 -27 -19h-31q-22 0 -22 29q0 56 29 93q28 36 84 36q53 0 137 -41l51 -25q52 -24 80 -24q45 0 51 47l2 16q1 21 25 21h32q21 0 21 -31z" />
    <glyph glyph-name="hungarumlaut" unicode="&#x2dd;" horiz-adv-x="591" 
d="M129 1219l98 176q11 20 35 20h76q14 0 17 -9t-5 -20l-137 -174q-11 -14 -31 -14h-39q-21 0 -14 21zM395 1219l97 176q11 20 34 20h76q12 0 16 -9t-2 -20l-139 -174q-10 -14 -33 -14h-34q-27 0 -15 21z" />
    <glyph glyph-name="uni037E" unicode="&#x37e;" horiz-adv-x="385" 
d="M121 459v137q0 25 24 25h95q24 0 24 -25v-137q0 -23 -22 -23h-97q-24 0 -24 23z" />
    <glyph glyph-name="uni0394" unicode="&#x394;" horiz-adv-x="1179" 
d="M541 1436h100q25 0 31 -25l389 -1366q15 -45 -39 -45h-866q-23 0 -32 12t-3 33l387 1366q6 25 33 25zM586 1317l-336 -1213h680l-336 1213h-8z" />
    <glyph glyph-name="uni03A9" unicode="&#x3a9;" horiz-adv-x="1349" 
d="M676 1456q279 0 423 -170q144 -169 144 -442q0 -411 -338 -608v-134l244 7q22 0 22 -21v-65q0 -23 -22 -23h-356v254q0 23 24 41q303 192 303 547q0 225 -111 366q-112 142 -333 142t-334 -141q-113 -142 -113 -367q0 -379 303 -547q27 -17 27 -41v-254h-356
q-25 0 -25 23v65q0 21 25 21l241 -7v134q-338 198 -338 608q0 272 146 442t424 170z" />
    <glyph glyph-name="uni03BC" unicode="&#x3bc;" horiz-adv-x="989" 
d="M858 1042v-704q0 -169 -77 -264q-76 -94 -236 -94q-125 0 -196 56q-74 59 -103 134v-373q0 -22 -23 -22h-65q-25 0 -25 22v1245q0 25 25 25h65q23 0 23 -25v-647q0 -136 77 -225q76 -88 199 -88q226 0 226 270v690q0 25 22 25h66q22 0 22 -25z" />
    <glyph glyph-name="pi" unicode="&#x3c0;" horiz-adv-x="1155" 
d="M874 963v-705q0 -98 27 -135t98 -37q44 0 74 6q23 6 27 -20l2 -47q0 -21 -19 -23q-53 -14 -104 -14q-116 0 -165 62q-50 64 -50 200v713h-336l-172 -940q-5 -23 -29 -23h-65q-27 0 -21 23l174 940h-200q-23 0 -23 22v57q0 25 23 25h956q25 0 25 -25v-57q0 -22 -25 -22
h-197z" />
    <glyph glyph-name="Wgrave" unicode="&#x1e80;" horiz-adv-x="1726" 
d="M825 1436h74q27 0 33 -23l211 -885l88 -389h6l84 385l207 889q6 23 28 23h74q27 0 21 -29l-334 -1380q-6 -27 -33 -27h-96q-27 0 -33 25l-211 874l-80 344h-4l-80 -344l-209 -874q-6 -25 -32 -25h-97q-28 0 -34 27l-330 1380q-6 29 18 29h74q23 0 29 -23l207 -889
l81 -385h7l88 389l213 885q6 23 30 23zM780 1729l109 -168q7 -8 2 -16q-4 -7 -17 -7h-40q-17 0 -31 14l-166 172q-9 8 -4 19q4 10 16 10h94q22 0 37 -24z" />
    <glyph glyph-name="wgrave" unicode="&#x1e81;" horiz-adv-x="1368" 
d="M649 1067h68q22 0 28 -23l177 -688l51 -225h4l47 225l164 686q6 25 26 25h68q27 0 21 -27l-256 -1017q-6 -23 -31 -23h-76q-25 0 -31 23l-168 651l-55 239h-4l-53 -239l-170 -651q-6 -23 -31 -23h-76q-22 0 -28 23l-256 1017q-6 27 18 27h68q20 0 26 -25l164 -686
l47 -225h4l51 225l179 688q6 23 24 23zM602 1395l109 -176q12 -21 -13 -21h-41q-16 0 -30 14l-168 174q-8 11 -5 20t17 9h94q26 0 37 -20z" />
    <glyph glyph-name="Wacute" unicode="&#x1e82;" horiz-adv-x="1726" 
d="M825 1436h74q27 0 33 -23l211 -885l88 -389h6l84 385l207 889q6 23 28 23h74q27 0 21 -29l-334 -1380q-6 -27 -33 -27h-96q-27 0 -33 25l-211 874l-80 344h-4l-80 -344l-209 -874q-6 -25 -32 -25h-97q-28 0 -34 27l-330 1380q-6 29 18 29h74q23 0 29 -23l207 -889
l81 -385h7l88 389l213 885q6 23 30 23zM838 1561l108 168q16 24 35 24h96q13 0 16 -10q3 -11 -3 -19l-166 -172q-11 -14 -33 -14h-39q-12 0 -16 7q-5 8 2 16z" />
    <glyph glyph-name="wacute" unicode="&#x1e83;" horiz-adv-x="1368" 
d="M649 1067h68q22 0 28 -23l177 -688l51 -225h4l47 225l164 686q6 25 26 25h68q27 0 21 -27l-256 -1017q-6 -23 -31 -23h-76q-25 0 -31 23l-168 651l-55 239h-4l-53 -239l-170 -651q-6 -23 -31 -23h-76q-22 0 -28 23l-256 1017q-6 27 18 27h68q20 0 26 -25l164 -686
l47 -225h4l51 225l179 688q6 23 24 23zM657 1219l109 176q11 20 37 20h96q12 0 15 -9t-5 -20l-168 -174q-14 -14 -32 -14h-39q-25 0 -13 21z" />
    <glyph glyph-name="Wdieresis" unicode="&#x1e84;" horiz-adv-x="1726" 
d="M825 1436h74q27 0 33 -23l211 -885l88 -389h6l84 385l207 889q6 23 28 23h74q27 0 21 -29l-334 -1380q-6 -27 -33 -27h-96q-27 0 -33 25l-211 874l-80 344h-4l-80 -344l-209 -874q-6 -25 -32 -25h-97q-28 0 -34 27l-330 1380q-6 29 18 29h74q23 0 29 -23l207 -889
l81 -385h7l88 389l213 885q6 23 30 23zM768 1675v-114q0 -23 -23 -23h-75q-23 0 -23 23v114q0 23 23 23h75q23 0 23 -23zM1079 1675v-114q0 -23 -24 -23h-74q-23 0 -23 23v114q0 23 23 23h74q24 0 24 -23z" />
    <glyph glyph-name="wdieresis" unicode="&#x1e85;" horiz-adv-x="1368" 
d="M649 1067h68q22 0 28 -23l177 -688l51 -225h4l47 225l164 686q6 25 26 25h68q27 0 21 -27l-256 -1017q-6 -23 -31 -23h-76q-25 0 -31 23l-168 651l-55 239h-4l-53 -239l-170 -651q-6 -23 -31 -23h-76q-22 0 -28 23l-256 1017q-6 27 18 27h68q20 0 26 -25l164 -686
l47 -225h4l51 225l179 688q6 23 24 23zM590 1339v-118q0 -23 -21 -23h-71q-25 0 -25 23v118q0 23 25 23h71q21 0 21 -23zM895 1339v-118q0 -23 -23 -23h-71q-23 0 -23 23v118q0 23 23 23h71q23 0 23 -23z" />
    <glyph glyph-name="Ygrave" unicode="&#x1ef2;" horiz-adv-x="1069" 
d="M596 549v-524q0 -25 -27 -25h-69q-23 0 -23 25v524l-416 860q-12 27 17 27h78q20 0 30 -21l250 -532l96 -226h3l100 226l248 532q11 21 32 21h76q25 0 17 -27zM459 1729l108 -168q7 -8 2 -16q-4 -7 -16 -7h-41q-17 0 -31 14l-166 172q-9 8 -4 19q4 10 17 10h94
q22 0 37 -24z" />
    <glyph glyph-name="ygrave" unicode="&#x1ef3;" horiz-adv-x="854" 
d="M805 1040l-289 -993q-45 -154 -102 -218q-57 -65 -181 -65q-69 0 -118 19q-23 6 -21 24l12 52q6 20 29 18q73 -12 94 -12q88 0 124 67q36 68 12 140l-310 968q-10 27 17 27h69q18 0 29 -25l195 -641l75 -264h4l72 264l174 641q6 25 27 25h69q25 0 19 -27zM360 1395
l109 -176q12 -21 -12 -21h-41q-17 0 -31 14l-168 174q-8 11 -5 20t17 9h95q25 0 36 -20z" />
    <glyph glyph-name="figuredash" unicode="&#x2012;" horiz-adv-x="964" 
d="M823 514h-682q-22 0 -22 23v53q0 20 22 20h682q23 0 23 -20v-53q0 -23 -23 -23z" />
    <glyph glyph-name="endash" unicode="&#x2013;" horiz-adv-x="894" 
d="M788 494h-684q-20 0 -20 20v55q0 21 20 21h684q23 0 23 -21v-55q0 -20 -23 -20z" />
    <glyph glyph-name="emdash" unicode="&#x2014;" horiz-adv-x="1312" 
d="M1204 494h-1100q-20 0 -20 20v55q0 21 20 21h1100q27 0 27 -21v-55q0 -20 -27 -20z" />
    <glyph glyph-name="quoteleft" unicode="&#x2018;" horiz-adv-x="366" 
d="M121 1235l61 186q6 19 25 19h26q20 0 15 -23l-45 -182h37q22 0 22 -25v-135q0 -24 -22 -24h-99q-26 0 -26 24v129q0 13 6 31z" />
    <glyph glyph-name="quoteright" unicode="&#x2019;" horiz-adv-x="366" 
d="M248 1253l-62 -188q-6 -18 -22 -18h-29q-19 0 -14 24l47 182h-37q-25 0 -25 23v137q0 23 25 23h98q23 0 23 -23v-129q0 -20 -4 -31z" />
    <glyph glyph-name="quotesinglbase" unicode="&#x201a;" horiz-adv-x="366" 
d="M248 0l-62 -188q-6 -19 -22 -19h-29q-19 0 -14 25l47 182h-37q-25 0 -25 23v137q0 22 25 22h98q23 0 23 -22v-129q0 -20 -4 -31z" />
    <glyph glyph-name="quotedblleft" unicode="&#x201c;" horiz-adv-x="647" 
d="M399 1235l62 186q6 19 24 19h27q19 0 14 -23l-45 -182h37q23 0 23 -25v-135q0 -24 -23 -24h-100q-23 0 -23 24v129q0 20 4 31zM121 1235l61 186q6 19 25 19h26q20 0 15 -23l-45 -182h37q22 0 22 -25v-135q0 -24 -22 -24h-99q-26 0 -26 24v129q0 19 6 31z" />
    <glyph glyph-name="quotedblright" unicode="&#x201d;" horiz-adv-x="647" 
d="M248 1253l-62 -188q-6 -16 -22 -16h-29q-18 0 -14 20l45 184h-35q-25 0 -25 23v137q0 23 25 23h98q23 0 23 -23v-131q0 -20 -4 -29zM526 1253l-61 -188q-6 -16 -23 -16h-28q-21 0 -15 20l47 184h-38q-21 0 -21 23v137q0 23 21 23h100q22 0 22 -23v-131q0 -20 -4 -29z" />
    <glyph glyph-name="quotedblbase" unicode="&#x201e;" horiz-adv-x="647" 
d="M248 0l-62 -188q-6 -17 -22 -17h-29q-18 0 -14 21l45 184h-35q-25 0 -25 23v137q0 22 25 22h98q23 0 23 -22v-131q0 -20 -4 -29zM526 0l-61 -188q-6 -17 -23 -17h-28q-21 0 -15 21l47 184h-38q-21 0 -21 23v137q0 22 21 22h100q22 0 22 -22v-131q0 -20 -4 -29z" />
    <glyph glyph-name="dagger" unicode="&#x2020;" horiz-adv-x="882" 
d="M801 1042v-51q0 -24 -23 -24h-282v-1170q0 -22 -23 -22h-65q-23 0 -23 22v1170h-283q-22 0 -22 24v51q0 25 22 25h283v346q0 23 23 23h65q23 0 23 -23v-346h282q23 0 23 -25z" />
    <glyph glyph-name="daggerdbl" unicode="&#x2021;" horiz-adv-x="884" 
d="M803 219v-51q0 -23 -23 -23h-282v-348q0 -22 -23 -22h-65q-23 0 -23 22v348h-283q-22 0 -22 23v51q0 25 22 25h283v723h-283q-22 0 -22 24v51q0 25 22 25h283v346q0 23 23 23h65q23 0 23 -23v-346h282q23 0 23 -25v-51q0 -24 -23 -24h-282v-723h282q23 0 23 -25z" />
    <glyph glyph-name="bullet" unicode="&#x2022;" horiz-adv-x="684" 
d="M342 303q-103 0 -173 70q-69 69 -69 176t69 174q70 68 173 68q104 0 172 -68t68 -174q0 -107 -69 -176q-70 -70 -171 -70z" />
    <glyph glyph-name="onedotenleader" unicode="&#x2024;" horiz-adv-x="385" 
d="M121 23v137q0 24 24 24h95q24 0 24 -24v-137q0 -23 -22 -23h-97q-24 0 -24 23z" />
    <glyph glyph-name="twodotenleader" unicode="&#x2025;" horiz-adv-x="765" 
d="M502 23v137q0 24 24 24h95q24 0 24 -24v-137q0 -23 -22 -23h-97q-24 0 -24 23zM121 23v137q0 24 24 24h95q24 0 24 -24v-137q0 -23 -22 -23h-97q-24 0 -24 23z" />
    <glyph glyph-name="ellipsis" unicode="&#x2026;" horiz-adv-x="1157" 
d="M121 23v137q0 24 24 24h95q24 0 24 -24v-137q0 -23 -22 -23h-97q-24 0 -24 23zM508 23v137q0 24 22 24h99q20 0 20 -24v-137q0 -23 -20 -23h-99q-22 0 -22 23zM893 23v137q0 24 22 24h99q20 0 20 -24v-137q0 -23 -20 -23h-99q-22 0 -22 23z" />
    <glyph glyph-name="perthousand" unicode="&#x2030;" horiz-adv-x="2299" 
d="M1237 1411l-768 -1391q-10 -20 -31 -20h-65q-29 0 -13 25l764 1392q11 19 33 19h68q28 0 12 -25zM78 1040q0 200 74 306q73 104 210 104q136 0 210 -104q75 -105 75 -306q0 -200 -75 -304q-75 -103 -210 -103q-137 0 -210 103q-74 104 -74 304zM547 1040q0 316 -185 316
q-184 0 -184 -316q0 -315 184 -315q185 0 185 315zM948 395q0 200 75 305t212 105q135 0 210 -105t75 -305q0 -198 -75 -303q-74 -104 -210 -104q-138 0 -212 104q-75 105 -75 303zM1419 395q0 316 -184 316q-182 0 -182 -316q0 -313 182 -313q184 0 184 313zM1651 395
q0 201 74 305q75 105 210 105q137 0 211 -104t74 -306q0 -197 -74 -303q-73 -104 -211 -104q-136 0 -210 104t-74 303zM2120 395q0 316 -185 316q-182 0 -182 -316q0 -313 182 -313q185 0 185 313z" />
    <glyph glyph-name="guilsinglleft" unicode="&#x2039;" horiz-adv-x="421" 
d="M74 543q0 6 2 14l141 272q8 19 29 19h59q27 0 14 -25l-143 -280l143 -277q12 -24 -14 -24h-59q-22 0 -29 18l-141 272q-2 8 -2 11z" />
    <glyph glyph-name="guilsinglright" unicode="&#x203a;" horiz-adv-x="421" 
d="M350 543q0 -6 -4 -11l-141 -272q-7 -18 -25 -18h-61q-28 0 -13 24l142 277l-142 280q-16 25 13 25h61q17 0 25 -19l141 -272q4 -5 4 -14z" />
    <glyph glyph-name="exclamdbl" unicode="&#x203c;" horiz-adv-x="944" 
d="M166 23v141q0 22 22 22h105q20 0 20 -22v-141q0 -23 -20 -23h-105q-22 0 -22 23zM264 387h-49q-22 0 -22 25l-21 1001q0 23 25 23h88q22 0 22 -23l-20 -1001q0 -25 -23 -25zM629 23v141q0 22 22 22h105q20 0 20 -22v-141q0 -23 -20 -23h-105q-22 0 -22 23zM727 387h-49
q-23 0 -23 25l-20 1001q0 23 24 23h89q22 0 22 -23l-20 -1001q0 -25 -23 -25z" />
    <glyph glyph-name="fraction" unicode="&#x2044;" horiz-adv-x="135" 
d="M508 1411l-768 -1391q-14 -20 -31 -20h-65q-28 0 -15 25l766 1392q13 19 33 19h66q10 0 15 -8q4 -7 -1 -17z" />
    <glyph glyph-name="zero.superior" unicode="&#x2070;" 
d="M356 987q-301 0 -301 449q0 448 301 448q303 0 303 -448q0 -449 -303 -449zM356 1079q199 0 199 357q0 356 -199 356q-102 0 -151 -87q-49 -86 -49 -269q0 -184 49 -270q49 -87 151 -87z" />
    <glyph glyph-name="four.superior" unicode="&#x2074;" 
d="M457 1731l-297 -439h297v439zM653 1200h-96v-176q0 -27 -27 -27h-47q-26 0 -26 27v176h-389q-25 0 -25 27v39q0 15 12 30l396 559q16 19 30 19h49q27 0 27 -27v-555h96q25 0 25 -24v-41q0 -27 -25 -27z" />
    <glyph glyph-name="five.superior" unicode="&#x2075;" 
d="M614 1272q0 -142 -78 -213q-80 -72 -227 -72q-140 0 -207 35q-24 15 -18 29l14 43q6 20 29 14q99 -31 178 -31q207 0 207 193q0 184 -178 184q-62 0 -113 -13q-54 -14 -63 -14q-7 -1 -25 5l-16 12q-15 6 -15 24q21 213 21 377q0 29 31 29h385q26 0 26 -27v-41
q0 -26 -26 -26h-324q-5 -176 -16 -267q77 27 153 27q137 0 200 -74q62 -72 62 -194z" />
    <glyph glyph-name="six.superior" unicode="&#x2076;" 
d="M541 1774q-81 22 -125 22q-239 0 -238 -346q51 127 215 127q131 0 196 -80q64 -79 64 -209q0 -138 -71 -219q-72 -82 -199 -82q-307 0 -307 438q0 222 83 341q82 118 247 118q99 0 157 -26q21 -11 17 -27l-13 -43q-6 -18 -26 -14zM383 1077q81 0 128 58q46 56 46 151
q0 203 -176 203q-86 0 -135 -56t-49 -149q0 -84 48 -145q48 -62 138 -62z" />
    <glyph glyph-name="seven.superior" unicode="&#x2077;" 
d="M618 1847v-35q0 -11 -12 -32q-116 -169 -203 -382q-88 -216 -90 -374q0 -27 -26 -27h-51q-25 0 -25 27q1 161 87 370q85 208 208 386h-395q-25 0 -25 26v41q0 27 25 27h481q26 0 26 -27z" />
    <glyph glyph-name="eight.superior" unicode="&#x2078;" 
d="M356 987q-138 0 -211 63t-73 167q0 172 180 235q-162 63 -162 217q0 98 70 157q68 58 196 58q129 0 197 -58q70 -59 70 -157q0 -151 -162 -217q182 -63 182 -235q0 -104 -75 -167t-212 -63zM356 1411q-186 -49 -186 -188q0 -69 49 -109q50 -41 137 -41q88 0 138 41
q49 40 49 109q0 137 -187 188zM356 1489q166 51 166 180q0 59 -43 95t-123 36t-124 -36t-44 -95q0 -129 168 -180z" />
    <glyph glyph-name="nine.superior" unicode="&#x2079;" 
d="M172 1098q58 -25 125 -25q240 0 240 348q-55 -127 -218 -127q-130 0 -196 80t-66 209q0 137 72 219t197 82q311 0 311 -438q0 -459 -332 -459q-101 0 -153 27q-22 8 -17 26l12 43q6 21 25 15zM330 1794q-82 0 -128 -57q-46 -56 -46 -152q0 -203 176 -203q85 0 135 58
q49 56 49 147q0 86 -47 147q-47 60 -139 60z" />
    <glyph glyph-name="parenleft.superior" unicode="&#x207d;" horiz-adv-x="395" 
d="M104 1436q0 261 158 446q10 10 23 10h51q25 0 10 -18q-141 -172 -141 -438t141 -439q15 -18 -10 -18h-51q-13 0 -23 10q-158 185 -158 447z" />
    <glyph glyph-name="parenright.superior" unicode="&#x207e;" horiz-adv-x="395" 
d="M289 1436q0 -135 -43 -252q-43 -118 -113 -195q-10 -10 -22 -10h-52q-10 0 -13 6t3 12q141 191 141 439q0 266 -141 438q-6 6 -3 12t13 6h52q15 0 22 -10q156 -184 156 -446z" />
    <glyph glyph-name="n.superior" unicode="&#x207f;" horiz-adv-x="821" 
d="M131 1876h49q27 0 27 -27v-116q27 63 90 108t166 45q127 0 190 -77q64 -78 64 -210v-575q0 -27 -25 -27h-51q-27 0 -27 27v563q0 203 -176 203q-102 0 -167 -72q-64 -71 -64 -178v-516q0 -27 -25 -27h-51q-25 0 -25 27v825q0 27 25 27z" />
    <glyph glyph-name="zero.inferior" unicode="&#x2080;" 
d="M356 -449q-301 0 -301 449t301 449q303 0 303 -449t-303 -449zM356 -356q199 0 199 356t-199 356q-102 0 -151 -87q-49 -86 -49 -269t49 -269q49 -87 151 -87z" />
    <glyph glyph-name="one.inferior" unicode="&#x2081;" 
d="M358 303l-163 -135q-20 -14 -37 4l-27 37q-15 18 4 33l219 186q10 10 33 10h45q25 0 25 -26v-824q0 -26 -25 -26h-49q-25 0 -25 26v715z" />
    <glyph glyph-name="two.inferior" unicode="&#x2082;" 
d="M184 215q0 -5 2 -27t2 -24q0 -25 -24 -25h-47q-20 0 -25 23q-6 18 -6 55q0 105 64 169q63 63 196 63q137 0 199 -67q61 -65 61 -177q0 -247 -373 -549h363q27 0 27 -27v-41q0 -26 -27 -26h-485q-25 0 -25 26v39q0 18 14 29q67 55 133 115q47 42 123 125q76 82 112 156
q38 78 38 149q0 157 -162 157q-160 0 -160 -143z" />
    <glyph glyph-name="three.inferior" unicode="&#x2083;" 
d="M326 -31h-78q-27 0 -27 27v39q0 24 27 24h78q70 0 114 39q43 39 43 117q0 143 -186 143q-67 0 -166 -30q-25 -8 -31 12l-14 45q-4 15 18 27q87 37 201 37q281 0 281 -228q0 -151 -121 -196q139 -39 139 -213q0 -261 -301 -261q-128 0 -211 39q-22 10 -18 27l14 43
q7 24 29 16q87 -34 180 -34q205 0 205 170q0 157 -176 157z" />
    <glyph glyph-name="four.inferior" unicode="&#x2084;" 
d="M457 295l-297 -438h297v438zM653 -236h-96v-176q0 -26 -27 -26h-47q-26 0 -26 26v176h-389q-25 0 -25 27v39q0 14 12 31l396 559q15 18 30 18h49q27 0 27 -26v-555h96q25 0 25 -25v-41q0 -27 -25 -27z" />
    <glyph glyph-name="five.inferior" unicode="&#x2085;" 
d="M614 -164q0 -142 -78 -213q-80 -72 -227 -72q-140 0 -207 35q-24 15 -18 29l14 43q6 20 29 14q96 -30 178 -30q207 0 207 192q0 184 -178 184q-62 0 -113 -13t-63 -13q-9 -2 -25 4l-16 12q-15 6 -15 25q21 213 21 377q0 28 31 28h385q26 0 26 -26v-41q0 -27 -26 -27h-324
q-5 -175 -16 -266q74 26 153 26q137 0 200 -73q62 -72 62 -195z" />
    <glyph glyph-name="six.inferior" unicode="&#x2086;" 
d="M541 338q-81 22 -125 22q-239 0 -238 -346q51 127 215 127q131 0 196 -80q64 -79 64 -208q0 -139 -71 -220q-72 -82 -199 -82q-307 0 -307 439q0 222 83 341q82 118 247 118q97 0 157 -27q21 -11 17 -27l-13 -43q-6 -18 -26 -14zM383 -358q81 0 128 57q46 56 46 151
q0 203 -176 203q-86 0 -135 -56t-49 -149q0 -84 48 -145t138 -61z" />
    <glyph glyph-name="seven.inferior" unicode="&#x2087;" 
d="M618 412v-35q0 -12 -12 -33q-116 -169 -203 -382q-88 -216 -90 -374q0 -26 -26 -26h-51q-25 0 -25 26q1 161 87 370q85 208 208 386h-395q-25 0 -25 27v41q0 26 25 26h481q26 0 26 -26z" />
    <glyph glyph-name="eight.inferior" unicode="&#x2088;" 
d="M356 -449q-138 0 -211 63t-73 167q0 172 180 235q-162 63 -162 217q0 98 70 157t196 59q127 0 197 -59t70 -157q0 -151 -162 -217q182 -63 182 -235q0 -104 -75 -167t-212 -63zM356 -25q-186 -49 -186 -188q0 -69 49 -109t137 -40q89 0 138 40t49 109q0 137 -187 188z
M356 53q166 51 166 180q0 60 -43 96t-123 36t-124 -36t-44 -96q0 -129 168 -180z" />
    <glyph glyph-name="nine.inferior" unicode="&#x2089;" 
d="M172 -338q56 -24 125 -24q240 0 240 348q-55 -127 -218 -127q-130 0 -196 80q-66 79 -66 208q0 137 72 220q72 82 197 82q311 0 311 -439q0 -459 -332 -459q-101 0 -153 27q-22 8 -17 27l12 43q6 20 25 14zM330 358q-82 0 -128 -57q-46 -56 -46 -151q0 -203 176 -203
q86 0 135 57q49 56 49 148q0 85 -47 146q-47 60 -139 60z" />
    <glyph glyph-name="parenleft.inferior" unicode="&#x208d;" horiz-adv-x="395" 
d="M104 0q0 261 158 446q11 11 23 11h51q26 0 10 -19q-141 -172 -141 -438t141 -438q16 -19 -10 -19h-51q-12 0 -23 11q-158 185 -158 446z" />
    <glyph glyph-name="parenright.inferior" unicode="&#x208e;" horiz-adv-x="395" 
d="M289 0q0 -135 -43 -252q-43 -116 -113 -194q-11 -11 -22 -11h-52q-10 0 -13 6q-3 7 3 13q141 190 141 438q0 266 -141 438q-6 6 -3 13q3 6 13 6h52q14 0 22 -11q156 -184 156 -446z" />
    <glyph glyph-name="Euro" unicode="&#x20ac;" horiz-adv-x="1110" 
d="M78 621h137q-4 55 -4 98q0 49 4 96h-137q-23 0 -23 23v47q0 20 23 20h143q33 256 167 404q134 147 376 147q146 0 258 -53q26 -10 18 -29l-24 -57q-11 -24 -33 -14q-98 43 -209 43q-195 0 -300 -118q-106 -120 -130 -323h508q22 0 16 -24l-12 -43q-5 -23 -27 -23h-495
q-2 -40 -2 -96q0 -58 2 -98h432q20 0 14 -23l-10 -43q-8 -25 -31 -25h-395q27 -203 132 -322q105 -118 300 -118q112 0 215 47q22 8 33 -18l23 -56q6 -18 -15 -28q-120 -53 -264 -53q-244 0 -379 147t-168 401h-143q-23 0 -23 25v45q0 21 23 21z" />
    <glyph glyph-name="afii61289" unicode="&#x2113;" horiz-adv-x="962" 
d="M561 86q68 0 111 14q16 6 22 -16l13 -51q4 -21 -21 -27q-60 -18 -137 -18q-135 0 -204 73t-69 234v162q-103 -43 -186 -60q-17 -4 -22 11l-15 53q-6 15 13 20q100 23 210 74v424q0 240 65 359q64 118 222 118q127 0 192 -83q64 -82 64 -230q0 -214 -124 -372
q-125 -159 -310 -261v-203q0 -122 41 -172q40 -49 135 -49zM385 995v-383q340 205 340 533q0 223 -154 223q-105 0 -145 -88q-41 -90 -41 -285z" />
    <glyph glyph-name="trademark" unicode="&#x2122;" horiz-adv-x="1189" 
d="M440 1360h-133v-569q0 -17 -18 -17h-51q-17 0 -17 17v569h-133q-18 0 -18 16v43q0 17 18 17h352q17 0 17 -17v-43q0 -16 -17 -16zM823 965q-12 0 -20 12l-172 326v-512q0 -17 -17 -17h-49q-16 0 -16 17v628q0 17 16 17h60q14 0 20 -11l178 -352l178 352q6 11 21 11h57
q17 0 17 -17v-628q0 -17 -17 -17h-49q-16 0 -16 17v509l-170 -323q-12 -12 -21 -12z" />
    <glyph glyph-name="Omega" unicode="&#x2126;" horiz-adv-x="1349" 
d="M676 1456q279 0 423 -170q144 -169 144 -442q0 -411 -338 -608v-134l244 7q22 0 22 -21v-65q0 -23 -22 -23h-356v254q0 23 24 41q303 192 303 547q0 225 -111 366q-112 142 -333 142t-334 -141q-113 -142 -113 -367q0 -379 303 -547q27 -17 27 -41v-254h-356
q-25 0 -25 23v65q0 21 25 21l241 -7v134q-338 198 -338 608q0 272 146 442t424 170z" />
    <glyph glyph-name="estimated" unicode="&#x212e;" horiz-adv-x="1753" 
d="M1679 686h-1286q-10 0 -10 -8v-379q0 -39 16 -59q170 -197 492 -197q324 0 516 223h119q-111 -132 -279 -209q-163 -75 -358 -75q-338 0 -573 215q-234 215 -234 518q0 307 230 521t569 214q338 0 568 -214t230 -521v-29zM1378 748v380q0 51 -22 74q-192 187 -473 187
q-289 0 -482 -199q-18 -18 -18 -60v-382q0 -13 10 -13h975q10 0 10 13z" />
    <glyph glyph-name="onethird" unicode="&#x2153;" horiz-adv-x="1687" 
d="M1219 1411l-768 -1391q-14 -20 -31 -20h-66q-26 0 -14 25l766 1392q13 19 33 19h65q11 0 16 -8q4 -7 -1 -17zM1223 408h77q177 0 177 -158q0 -170 -205 -170q-90 0 -180 35q-21 8 -29 -17l-14 -43q-4 -16 18 -26q83 -39 211 -39q301 0 301 260q0 174 -139 213
q121 45 121 196q0 228 -281 228q-114 0 -201 -37q-23 -12 -18 -27l14 -45q6 -20 31 -12q102 31 166 31q186 0 186 -144q0 -77 -43 -116q-44 -39 -115 -39h-77q-27 0 -27 -25v-39q0 -26 27 -26zM358 1300l-163 -135q-20 -14 -37 4l-27 37q-15 18 4 33l219 186q11 11 33 11h45
q25 0 25 -27v-823q0 -27 -25 -27h-49q-25 0 -25 27v714z" />
    <glyph glyph-name="twothirds" unicode="&#x2154;" horiz-adv-x="1687" 
d="M184 1212q0 -2 2 -24t2 -27q0 -24 -24 -24h-47q-21 0 -25 22q-6 18 -6 55q0 104 64 168t196 64q137 0 199 -67q61 -65 61 -177q0 -247 -373 -549h363q27 0 27 -26v-41q0 -27 -27 -27h-485q-25 0 -25 27v39q0 17 14 28q67 55 133 115q47 42 123 125q75 81 112 157
q38 78 38 148q0 158 -162 158q-160 0 -160 -144zM1292 1411l-768 -1391q-14 -20 -30 -20h-66q-26 0 -14 25l766 1392q13 19 32 19h66q10 0 15 -8q4 -7 -1 -17zM1300 408h-77q-27 0 -27 26v39q0 25 27 25h77q71 0 115 39q43 39 43 116q0 144 -186 144q-64 0 -166 -31
q-25 -8 -31 12l-14 45q-5 15 18 27q87 37 201 37q281 0 281 -228q0 -151 -121 -196q139 -39 139 -213q0 -260 -301 -260q-128 0 -211 39q-22 10 -18 26l14 43q8 25 29 17q90 -35 180 -35q205 0 205 170q0 158 -177 158z" />
    <glyph glyph-name="oneeighth" unicode="&#x215b;" horiz-adv-x="1687" 
d="M1237 1411l-768 -1391q-14 -20 -31 -20h-65q-27 0 -15 25l766 1392q13 19 33 19h66q10 0 15 -8q4 -7 -1 -17zM1331 -10q138 0 212 62q75 63 75 167q0 173 -182 236q161 66 161 217q0 98 -69 156q-70 59 -197 59q-126 0 -196 -59t-70 -156q0 -154 162 -217
q-180 -63 -180 -236q0 -104 73 -167q72 -62 211 -62zM1331 414q187 -51 187 -189q0 -67 -50 -108t-137 -41t-137 41q-49 40 -49 108q0 139 186 189zM1331 492q-168 51 -168 180q0 59 44 95q43 36 124 36q79 0 123 -36q43 -36 43 -95q0 -129 -166 -180zM358 1300l-163 -135
q-20 -14 -37 4l-27 37q-15 18 4 33l219 186q11 11 33 11h45q25 0 25 -27v-823q0 -27 -25 -27h-49q-25 0 -25 27v714z" />
    <glyph glyph-name="threeeighths" unicode="&#x215c;" horiz-adv-x="1687" 
d="M326 967h-78q-27 0 -27 26v39q0 25 27 25h78q70 0 114 39q43 39 43 116q0 144 -186 144q-64 0 -166 -31q-25 -8 -31 12l-14 45q-4 15 18 27q87 37 201 37q281 0 281 -227q0 -152 -121 -197q139 -39 139 -213q0 -260 -301 -260q-128 0 -211 39q-22 10 -18 26l14 43
q8 25 29 17q90 -35 180 -35q205 0 205 170q0 158 -176 158zM1272 1411l-768 -1391q-14 -20 -31 -20h-65q-28 0 -15 25l766 1392q13 19 33 19h65q11 0 16 -8q4 -7 -1 -17zM1331 -10q-139 0 -211 62q-73 63 -73 167q0 173 180 236q-162 63 -162 217q0 97 70 156t196 59
q127 0 197 -59q69 -58 69 -156q0 -151 -161 -217q182 -63 182 -236q0 -104 -75 -167q-74 -62 -212 -62zM1331 414q-186 -50 -186 -189q0 -68 49 -108q50 -41 137 -41t137 41t50 108q0 138 -187 189zM1331 492q166 51 166 180q0 59 -43 95q-44 36 -123 36q-81 0 -124 -36
q-44 -36 -44 -95q0 -129 168 -180z" />
    <glyph glyph-name="fiveeighths" unicode="&#x215d;" horiz-adv-x="1687" 
d="M614 834q0 -142 -78 -213q-80 -72 -227 -72q-140 0 -207 35q-23 15 -18 28l14 43q6 21 29 15q99 -31 178 -31q207 0 207 192q0 185 -178 185q-59 0 -113 -14q-51 -13 -63 -13q-9 -2 -25 4l-16 13q-15 6 -15 24q21 213 21 377q0 29 31 29h385q26 0 26 -27v-41
q0 -27 -26 -27h-324q-5 -175 -16 -266q77 27 153 27q137 0 200 -74q62 -72 62 -194zM1274 1411l-768 -1391q-14 -20 -31 -20h-65q-28 0 -15 25l766 1392q13 19 33 19h66q10 0 15 -8q4 -7 -1 -17zM1331 -10q-139 0 -211 62q-73 63 -73 167q0 173 180 236q-162 63 -162 217
q0 97 70 156t196 59q127 0 197 -59q69 -58 69 -156q0 -151 -161 -217q182 -63 182 -236q0 -104 -75 -167q-74 -62 -212 -62zM1331 414q-186 -50 -186 -189q0 -68 49 -108q50 -41 137 -41t137 41t50 108q0 138 -187 189zM1331 492q166 51 166 180q0 59 -43 95q-44 36 -123 36
q-81 0 -124 -36q-44 -36 -44 -95q0 -129 168 -180z" />
    <glyph glyph-name="seveneighths" unicode="&#x215e;" horiz-adv-x="1687" 
d="M618 1409v-35q0 -12 -12 -33q-116 -169 -203 -382q-89 -216 -90 -373q0 -27 -26 -27h-51q-25 0 -25 27q1 160 87 369q85 208 208 386h-395q-25 0 -25 27v41q0 27 25 27h481q26 0 26 -27zM1178 1411l-768 -1391q-14 -20 -31 -20h-66q-27 0 -14 25l766 1392q13 19 33 19h65
q11 0 16 -8q4 -7 -1 -17zM1331 -10q-139 0 -211 62q-73 63 -73 167q0 173 180 236q-162 63 -162 217q0 97 70 156t196 59q127 0 197 -59q69 -58 69 -156q0 -151 -161 -217q182 -63 182 -236q0 -104 -75 -167q-74 -62 -212 -62zM1331 414q-186 -50 -186 -189q0 -68 49 -108
q50 -41 137 -41t137 41t50 108q0 138 -187 189zM1331 492q166 51 166 180q0 59 -43 95q-44 36 -123 36q-81 0 -124 -36q-44 -36 -44 -95q0 -129 168 -180z" />
    <glyph glyph-name="arrowleft" unicode="&#x2190;" horiz-adv-x="1144" 
d="M612 961l-342 -377l734 4q24 0 24 -25v-55q0 -25 -24 -25l-734 4l342 -378q9 -9 4 -17t-14 -8h-80q-18 0 -26 12l-369 412q-10 14 -10 27q0 15 10 26l369 412q14 14 26 14h80q9 0 14 -8q4 -7 -4 -18z" />
    <glyph glyph-name="arrowup" unicode="&#x2191;" horiz-adv-x="1144" 
d="M1004 545l-379 342l4 -733q0 -23 -25 -23h-55q-25 0 -25 23l4 733l-378 -342q-8 -8 -17 -5q-8 3 -8 15v80q0 17 12 29l412 364q15 12 29 12q12 0 24 -12l414 -364q12 -12 12 -29v-80q0 -12 -8 -15t-16 5z" />
    <glyph glyph-name="arrowright" unicode="&#x2192;" horiz-adv-x="1144" 
d="M874 584l-342 377q-8 11 -5 18q3 8 14 8h80q13 0 30 -14l365 -412q12 -15 12 -26q0 -12 -12 -27l-365 -412q-17 -12 -30 -12h-80q-11 0 -14 8q-3 9 5 17l342 378l-735 -4q-22 0 -22 25v55q0 25 22 25z" />
    <glyph glyph-name="arrowdown" unicode="&#x2193;" horiz-adv-x="1144" 
d="M150 524l378 -342l-4 733q0 25 25 25h55q25 0 25 -25l-4 -733l379 342q8 8 16 5t8 -15v-78q0 -16 -12 -28l-414 -367q-10 -12 -24 -12t-29 12l-412 367q-12 12 -12 28v78q0 12 9 15t16 -5z" />
    <glyph glyph-name="arrowboth" unicode="&#x2194;" horiz-adv-x="1730" 
d="M1460 584l-340 377q-8 11 -5 18q3 8 15 8h78q17 0 31 -14l365 -412q12 -15 12 -26q0 -9 -12 -27l-365 -412q-15 -12 -31 -12h-78q-12 0 -15 8q-3 9 5 17l340 378l-594 -6l-596 6l342 -378q9 -9 4 -17t-14 -8h-80q-18 0 -26 12l-369 412q-10 14 -10 27q0 15 10 26l369 412
q14 14 26 14h80q9 0 14 -8q4 -7 -4 -18l-342 -377l596 4z" />
    <glyph glyph-name="arrowupdn" unicode="&#x2195;" horiz-adv-x="1144" 
d="M621 31l378 342q8 8 18 5q9 -3 9 -16v-77q0 -15 -16 -31l-412 -365q-12 -12 -25 -12q-15 0 -26 12l-412 365q-14 14 -14 31v77q0 13 8 16t14 -5l381 -342l-4 504l4 505l-381 -342q-6 -8 -14 -6t-8 15v79q0 19 14 29l412 367q10 10 26 10q14 0 25 -10l412 -367
q16 -12 16 -29v-79q0 -13 -9 -16q-11 -4 -18 7l-378 342l4 -505z" />
    <glyph glyph-name="arrowupleft" unicode="&#x2196;" horiz-adv-x="1144" 
d="M895 827l-508 -24l520 -516q18 -17 0 -35l-39 -39q-17 -17 -32 0l-517 520l-24 -510q0 -7 -8 -12t-19 2l-55 57q-12 12 -12 29l35 551q0 16 8 27q10 10 28 10l549 33q18 2 31 -11l57 -55q6 -11 2 -18q-5 -9 -16 -9z" />
    <glyph glyph-name="arrowupright" unicode="&#x2197;" horiz-adv-x="1144" 
d="M758 803l-510 24q-27 5 -12 27l57 55q11 12 31 11l550 -33q11 0 25 -10q10 -7 10 -27l33 -551q5 -17 -10 -29l-55 -57q-9 -9 -18 -4t-9 14l-25 510l-516 -520q-17 -17 -35 0l-36 39q-18 18 0 35z" />
    <glyph glyph-name="arrowdownright" unicode="&#x2198;" horiz-adv-x="1144" 
d="M248 225l510 25l-520 518q-18 10 0 33l36 39q18 17 35 0l516 -523l25 510q2 12 9 16q7 5 18 -3l55 -56q14 -14 10 -32l-33 -551q0 -15 -10 -25q-14 -10 -25 -10l-550 -33q-17 -2 -31 12l-57 56q-7 9 -3 16q5 8 15 8z" />
    <glyph glyph-name="arrowdownleft" unicode="&#x2199;" horiz-adv-x="1144" 
d="M387 250l508 -25q11 -1 15 -9q5 -8 -1 -15l-57 -58q-16 -12 -31 -10l-549 33q-16 1 -28 10q-6 6 -8 25l-35 551q0 17 12 32l55 56q8 8 18 3q9 -5 9 -16l24 -510l517 523q12 16 32 0l39 -39q23 -23 0 -33z" />
    <glyph glyph-name="partialdiff" unicode="&#x2202;" horiz-adv-x="1099" 
d="M340 1323q-19 -5 -25 14l-14 56q-6 15 25 26q89 37 227 37q448 0 448 -577q0 -157 -23 -295q-24 -142 -78 -287q-53 -141 -163 -230q-108 -87 -260 -87q-189 0 -291 112t-102 303q0 139 44 259q44 119 148 198q106 80 256 80q154 0 244 -81t105 -198q12 107 12 232
q0 469 -354 469q-89 0 -199 -31zM473 82q115 0 199 70q81 68 116 170q34 100 33 217q0 133 -70 212q-69 78 -210 78q-168 0 -255 -124q-87 -125 -87 -304q0 -146 70 -232q71 -87 204 -87z" />
    <glyph glyph-name="Delta" unicode="&#x2206;" horiz-adv-x="1179" 
d="M541 1436h100q25 0 31 -25l389 -1366q15 -45 -39 -45h-866q-23 0 -32 12t-3 33l387 1366q6 25 33 25zM586 1317l-336 -1213h680l-336 1213h-8z" />
    <glyph glyph-name="product" unicode="&#x220f;" horiz-adv-x="1271" 
d="M70 1352v61q0 23 26 23h1082q24 0 24 -23v-61q0 -23 -24 -23h-195v-1306q0 -23 -25 -23h-67q-25 0 -25 23v1306h-460v-1306q0 -23 -25 -23h-68q-22 0 -22 23v1306h-195q-26 0 -26 23z" />
    <glyph glyph-name="summation" unicode="&#x2211;" horiz-adv-x="1009" 
d="M651 573l-422 -694h674q23 0 23 -22v-60q0 -22 -23 -22h-786q-25 0 -25 24v56q0 18 12 39l435 720l-426 701q-11 17 -11 37v61q0 23 25 23h766q22 0 22 -23v-57q0 -25 -22 -25h-662l420 -684q8 -13 8 -24v-23q0 -9 -8 -27z" />
    <glyph glyph-name="minus" unicode="&#x2212;" horiz-adv-x="1067" 
d="M926 670h-787q-22 0 -22 20v55q0 23 24 23h785q22 0 22 -23v-55q0 -20 -22 -20z" />
    <glyph glyph-name="uni2215" unicode="&#x2215;" horiz-adv-x="135" 
d="M508 1411l-768 -1391q-14 -20 -31 -20h-65q-28 0 -15 25l766 1392q13 19 33 19h66q10 0 15 -8q4 -7 -1 -17z" />
    <glyph glyph-name="uni2219" unicode="&#x2219;" horiz-adv-x="385" 
d="M121 463v137q0 25 24 25h95q24 0 24 -25v-137q0 -23 -22 -23h-97q-24 0 -24 23z" />
    <glyph glyph-name="radical" unicode="&#x221a;" horiz-adv-x="1198" 
d="M657 -143h-82q-21 0 -32 24l-279 946h-145q-27 0 -27 23v55q0 23 27 23h215q22 0 28 -23l248 -872h6l357 1501q6 25 24 25h74q25 0 19 -27l-404 -1651q-6 -24 -29 -24z" />
    <glyph glyph-name="infinity" unicode="&#x221e;" horiz-adv-x="1273" 
d="M655 924q67 127 236 127q278 0 278 -336q0 -332 -286 -332q-181 0 -265 127q-66 -127 -235 -127q-144 0 -216 87q-73 88 -73 249q0 332 297 332q180 0 264 -127zM575 664l46 178q-66 127 -220 127q-107 0 -156 -64q-48 -63 -48 -190q0 -250 186 -250q92 0 128 42
q35 41 64 157zM696 770l-41 -178q61 -127 219 -127q107 0 155 63t48 191q0 250 -186 250q-91 0 -128 -42q-39 -43 -67 -157z" />
    <glyph glyph-name="integral" unicode="&#x222b;" horiz-adv-x="647" 
d="M268 25v1173q0 130 42 191t147 61q51 0 90 -10q25 -6 20 -25l-8 -55q-1 -21 -24 -19q-51 7 -56 7q-57 0 -78 -37q-20 -36 -20 -119v-1176q0 -127 -43 -188t-148 -61q-53 0 -90 8q-19 6 -18 26l6 54q2 25 25 20q27 -6 55 -6q58 0 79 37q21 38 21 119z" />
    <glyph glyph-name="approxequal" unicode="&#x2248;" horiz-adv-x="1067" 
d="M950 565q-30 -170 -184 -170q-70 0 -174 43l-135 54q-104 40 -148 40q-65 0 -94 -75l-6 -21q-6 -18 -27 -18h-43q-28 0 -22 37q33 172 184 172q55 0 174 -45l135 -52q92 -36 148 -36q73 0 94 69l6 23q6 18 25 18h43q30 0 24 -39zM950 993q-28 -172 -184 -172
q-63 0 -174 45l-135 54q-98 38 -146 38q-74 0 -96 -73l-6 -21q-4 -20 -27 -20h-43q-28 0 -22 37q33 172 184 172q53 0 174 -45l135 -50q104 -38 148 -38q73 0 94 71l6 23q4 16 25 16h43q30 0 24 -37z" />
    <glyph glyph-name="notequal" unicode="&#x2260;" horiz-adv-x="1067" 
d="M920 479h-431l-182 -456q-8 -23 -31 -23h-53q-29 0 -18 25l180 454h-240q-22 0 -22 23v53q0 23 24 23h281l111 294h-394q-22 0 -22 23v53q0 21 24 21h435l182 450q8 17 27 17h59q26 0 16 -27l-180 -440h234q24 0 24 -21v-53q0 -23 -24 -23h-275l-113 -294h388
q24 0 24 -23v-53q0 -23 -24 -23z" />
    <glyph glyph-name="lessequal" unicode="&#x2264;" horiz-adv-x="1067" 
d="M131 752q0 14 14 24l666 549q18 15 31 -2l39 -47q15 -18 -2 -31l-609 -493l609 -496q18 -15 2 -31l-39 -45q-13 -17 -31 -2l-666 547q-14 14 -14 27zM862 0h-698q-25 0 -25 23v45q0 22 25 22h698q25 0 25 -22v-45q0 -23 -25 -23z" />
    <glyph glyph-name="greaterequal" unicode="&#x2265;" horiz-adv-x="1067" 
d="M934 752q0 -15 -12 -27l-666 -547q-16 -15 -33 2l-39 45q-15 18 2 31l609 496l-609 493q-21 12 -2 31l39 47q17 17 33 2l666 -549q12 -11 12 -24zM905 0h-702q-21 0 -21 23v45q0 22 21 22h700q23 0 23 -22v-45q0 -23 -21 -23z" />
    <glyph glyph-name="lozenge" unicode="&#x25ca;" horiz-adv-x="1179" 
d="M590 154l340 565l-340 565l-340 -565zM590 -14q-13 0 -23 14l-438 698q-6 12 -6 21q0 11 6 18l438 699q7 14 23 14q15 0 22 -14l439 -699q6 -12 6 -18q0 -9 -6 -21l-439 -698q-7 -14 -22 -14z" />
    <glyph glyph-name="uniE000" unicode="&#xe000;" horiz-adv-x="1024" 
 />
    <glyph glyph-name="Q.alt" unicode="&#xe001;" horiz-adv-x="1200" 
d="M539 -201l10 189q-449 35 -449 731q0 376 125 557q125 180 375 180t375 -180q125 -181 125 -557q0 -701 -449 -731l8 -189q0 -24 -22 -24h-74q-24 0 -24 24zM600 88q193 0 285 152t92 479q0 325 -92 477t-285 152t-285 -152t-92 -477q0 -327 92 -479t285 -152z" />
    <glyph glyph-name="a.alt" unicode="&#xe002;" horiz-adv-x="1015" 
d="M774 535q0 224 -76 337q-77 115 -217 115q-276 0 -276 -452q0 -453 276 -453q139 0 216 115t77 338zM885 1042v-1019q0 -23 -25 -23h-63q-23 0 -23 23v167q-34 -100 -117 -154t-194 -54q-182 0 -277 140q-96 141 -96 413q0 270 96 411t277 141q113 0 194 -56
q83 -58 117 -154v167q0 23 23 23h63q25 0 25 -25z" />
    <glyph glyph-name="u.alt" unicode="&#xe003;" horiz-adv-x="966" 
d="M483 -18q-356 0 -356 374v686q0 25 20 25h68q23 0 23 -25v-680q0 -139 57 -208q58 -70 188 -70q131 0 189 70q57 69 57 208v680q0 25 23 25h63q25 0 25 -25v-686q0 -374 -357 -374z" />
    <glyph glyph-name="y.alt" unicode="&#xe004;" horiz-adv-x="970" 
d="M727 133v139q-28 -75 -100 -132q-71 -56 -193 -56q-153 0 -230 95t-77 263v600q0 25 20 25h68q23 0 23 -25v-585q0 -271 219 -271q118 0 193 88t75 226v542q0 25 25 25h65q21 0 21 -25v-915q0 -184 -98 -279q-97 -94 -281 -94q-164 0 -269 49q-20 11 -18 29l4 53
q5 23 27 17q120 -47 252 -47q274 0 274 278z" />
    <glyph glyph-name="j.alt" unicode="&#xe005;" horiz-adv-x="397" 
d="M254 1042v-1245q0 -22 -23 -22h-65q-23 0 -23 22v1245q0 25 23 25h65q23 0 23 -25zM256 1395v-156q0 -22 -23 -22h-69q-23 0 -23 22v156q0 22 23 22h69q23 0 23 -22z" />
    <glyph glyph-name="agrave.alt" unicode="&#xe006;" horiz-adv-x="1015" 
d="M774 535q0 224 -76 337q-77 115 -217 115q-276 0 -276 -452q0 -453 276 -453q139 0 216 115t77 338zM885 1042v-1019q0 -23 -25 -23h-63q-23 0 -23 23v167q-34 -100 -117 -154t-194 -54q-182 0 -277 140q-96 141 -96 413q0 270 96 411t277 141q113 0 194 -56
q83 -58 117 -154v167q0 23 23 23h63q25 0 25 -25zM477 1395l109 -176q12 -21 -13 -21h-41q-16 0 -30 14l-168 174q-8 11 -5 20t17 9h94q26 0 37 -20z" />
    <glyph glyph-name="aacute.alt" unicode="&#xe007;" horiz-adv-x="1015" 
d="M774 535q0 224 -76 337q-77 115 -217 115q-276 0 -276 -452q0 -453 276 -453q139 0 216 115t77 338zM885 1042v-1019q0 -23 -25 -23h-63q-23 0 -23 23v167q-34 -100 -117 -154t-194 -54q-182 0 -277 140q-96 141 -96 413q0 270 96 411t277 141q113 0 194 -56
q83 -58 117 -154v167q0 23 23 23h63q25 0 25 -25zM434 1219l109 176q11 20 37 20h96q12 0 15 -9t-5 -20l-168 -174q-14 -14 -33 -14h-39q-24 0 -12 21z" />
    <glyph glyph-name="acircumflex.alt" unicode="&#xe008;" horiz-adv-x="1015" 
d="M774 535q0 224 -76 337q-77 115 -217 115q-276 0 -276 -452q0 -453 276 -453q139 0 216 115t77 338zM885 1042v-1019q0 -23 -25 -23h-63q-23 0 -23 23v167q-34 -100 -117 -154t-194 -54q-182 0 -277 140q-96 141 -96 413q0 270 96 411t277 141q113 0 194 -56
q83 -58 117 -154v167q0 23 23 23h63q25 0 25 -25zM643 1212l-135 134l-137 -134q-15 -14 -31 -14h-51q-13 0 -16 7t6 16l163 184q16 16 35 16h58q20 0 36 -16l164 -184q6 -7 4 -16q-1 -7 -14 -7h-51q-16 0 -31 14z" />
    <glyph glyph-name="atilde.alt" unicode="&#xe009;" horiz-adv-x="1015" 
d="M774 535q0 224 -76 337q-77 115 -217 115q-276 0 -276 -452q0 -453 276 -453q139 0 216 115t77 338zM885 1042v-1019q0 -23 -25 -23h-63q-23 0 -23 23v167q-34 -100 -117 -154t-194 -54q-182 0 -277 140q-96 141 -96 413q0 270 96 411t277 141q113 0 194 -56
q83 -58 117 -154v167q0 23 23 23h63q25 0 25 -25zM764 1321q0 -55 -29 -90t-84 -35q-63 0 -137 39l-49 25q-47 24 -74 24q-49 0 -57 -47l-2 -18q-5 -19 -27 -19h-31q-22 0 -22 29q0 56 29 93q29 36 84 36q53 0 137 -41l51 -25q51 -24 80 -24q45 0 51 47l2 16q2 21 25 21h32
q21 0 21 -31z" />
    <glyph glyph-name="adieresis.alt" unicode="&#xe00a;" horiz-adv-x="1015" 
d="M774 535q0 224 -76 337q-77 115 -217 115q-276 0 -276 -452q0 -453 276 -453q139 0 216 115t77 338zM885 1042v-1019q0 -23 -25 -23h-63q-23 0 -23 23v167q-34 -100 -117 -154t-194 -54q-182 0 -277 140q-96 141 -96 413q0 270 96 411t277 141q113 0 194 -56
q83 -58 117 -154v167q0 23 23 23h63q25 0 25 -25zM412 1339v-118q0 -23 -21 -23h-72q-24 0 -24 23v118q0 23 24 23h72q21 0 21 -23zM717 1339v-118q0 -23 -23 -23h-71q-23 0 -23 23v118q0 23 23 23h71q23 0 23 -23z" />
    <glyph glyph-name="amacron.alt" unicode="&#xe00b;" horiz-adv-x="1015" 
d="M774 535q0 224 -76 337q-77 115 -217 115q-276 0 -276 -452q0 -453 276 -453q139 0 216 115t77 338zM885 1042v-1019q0 -23 -25 -23h-63q-23 0 -23 23v167q-34 -100 -117 -154t-194 -54q-182 0 -277 140q-96 141 -96 413q0 270 96 411t277 141q113 0 194 -56
q83 -58 117 -154v167q0 23 23 23h63q25 0 25 -25zM735 1212h-454q-21 0 -21 21v37q0 22 21 22h454q23 0 23 -22v-37q0 -21 -23 -21z" />
    <glyph glyph-name="abreve.alt" unicode="&#xe00c;" horiz-adv-x="1015" 
d="M774 535q0 224 -76 337q-77 115 -217 115q-276 0 -276 -452q0 -453 276 -453q139 0 216 115t77 338zM885 1042v-1019q0 -23 -25 -23h-63q-23 0 -23 23v167q-34 -100 -117 -154t-194 -54q-182 0 -277 140q-96 141 -96 413q0 270 96 411t277 141q113 0 194 -56
q83 -58 117 -154v167q0 23 23 23h63q25 0 25 -25zM510 1192q-116 0 -172 56q-58 58 -59 141q0 20 16 20h41q16 0 20 -18q23 -119 154 -119q141 0 152 119q2 18 20 18h39q18 0 18 -20q-1 -83 -59 -141q-56 -56 -170 -56z" />
    <glyph glyph-name="aring.alt" unicode="&#xe00d;" horiz-adv-x="1015" 
d="M774 535q0 224 -76 337q-77 115 -217 115q-276 0 -276 -452q0 -453 276 -453q139 0 216 115t77 338zM885 1042v-1019q0 -23 -25 -23h-63q-23 0 -23 23v167q-34 -100 -117 -154t-194 -54q-182 0 -277 140q-96 141 -96 413q0 270 96 411t277 141q113 0 194 -56
q83 -58 117 -154v167q0 23 23 23h63q25 0 25 -25zM510 1247q111 0 111 107q0 104 -113 104q-53 0 -83 -27t-30 -77q0 -107 115 -107zM508 1524q84 0 134 -47t50 -123q0 -79 -49 -125q-50 -47 -133 -47q-85 0 -135 47q-49 46 -49 125q0 77 49 123q50 47 133 47z" />
    <glyph glyph-name="aringacute.alt" unicode="&#xe00e;" horiz-adv-x="1015" 
d="M885 1042v-1019q0 -23 -25 -23h-63q-23 0 -23 23v167q-34 -100 -117 -154t-194 -54q-182 0 -277 140q-96 141 -96 413q0 270 96 411t277 141q113 0 194 -56q83 -58 117 -154v167q0 23 23 23h63q25 0 25 -25zM774 535q0 224 -76 337q-77 115 -217 115q-276 0 -276 -452
q0 -453 276 -453q139 0 216 115t77 338zM326 1354q0 128 118 162l88 143q11 20 37 20h97q12 0 15 -10t-5 -18l-127 -131q67 -10 105 -56t38 -110q0 -79 -49 -125q-50 -47 -133 -47q-85 0 -135 47q-49 46 -49 125zM510 1247q111 0 111 107q0 104 -113 104q-53 0 -83 -27
t-30 -77q0 -107 115 -107z" />
    <glyph glyph-name="aogonek.alt" unicode="&#xe00f;" horiz-adv-x="1015" 
d="M885 1042v-1019q0 -23 -25 -23h-14q-121 -67 -121 -154q0 -59 86 -59q7 0 31 2q5 0 10 0.5t8 1t4 0.5q20 0 21 -10l6 -37q1 -16 -10 -20q-29 -17 -90 -17q-152 0 -152 117q0 52 39 102q40 51 100 80q-4 4 -4 17v167q-34 -100 -117 -154t-194 -54q-182 0 -277 140
q-96 141 -96 413q0 270 96 411t277 141q113 0 194 -56q83 -58 117 -154v167q0 23 23 23h63q25 0 25 -25zM774 535q0 224 -76 337q-77 115 -217 115q-276 0 -276 -452q0 -453 276 -453q139 0 216 115t77 338z" />
    <glyph glyph-name="ij.alt" unicode="&#xe010;" horiz-adv-x="782" 
d="M254 1042v-1019q0 -23 -23 -23h-65q-23 0 -23 23v1019q0 25 23 25h65q23 0 23 -25zM256 1395v-156q0 -22 -23 -22h-69q-23 0 -23 22v156q0 22 23 22h69q23 0 23 -22zM639 1042v-1245q0 -22 -23 -22h-65q-23 0 -23 22v1245q0 25 23 25h65q23 0 23 -25zM641 1395v-156
q0 -22 -23 -22h-69q-23 0 -23 22v156q0 22 23 22h69q23 0 23 -22z" />
    <glyph glyph-name="jcircumflex.alt" unicode="&#xe011;" horiz-adv-x="399" 
d="M254 1042v-1245q0 -22 -23 -22h-65q-23 0 -23 22v1245q0 25 23 25h65q23 0 23 -25zM336 1212l-135 134l-138 -134q-15 -14 -30 -14h-51q-13 0 -16 7q-3 8 5 16l164 184q16 16 35 16h57q21 0 37 -16l164 -184q6 -7 4 -16q-1 -7 -14 -7h-51q-16 0 -31 14z" />
    <glyph glyph-name="dotlessj.alt" unicode="&#xe012;" horiz-adv-x="397" 
d="M254 1042v-1245q0 -22 -23 -22h-65q-23 0 -23 22v1245q0 25 23 25h65q23 0 23 -25z" />
    <glyph glyph-name="ugrave.alt" unicode="&#xe013;" horiz-adv-x="966" 
d="M483 -18q-356 0 -356 374v686q0 25 20 25h68q23 0 23 -25v-680q0 -139 57 -208q58 -70 188 -70q131 0 189 70q57 69 57 208v680q0 25 23 25h63q25 0 25 -25v-686q0 -374 -357 -374zM432 1395l109 -176q12 -21 -13 -21h-41q-16 0 -30 14l-168 174q-8 11 -5 20t17 9h94
q26 0 37 -20z" />
    <glyph glyph-name="uacute.alt" unicode="&#xe014;" horiz-adv-x="966" 
d="M483 -18q-356 0 -356 374v686q0 25 20 25h68q23 0 23 -25v-680q0 -139 57 -208q58 -70 188 -70q131 0 189 70q57 69 57 208v680q0 25 23 25h63q25 0 25 -25v-686q0 -374 -357 -374zM424 1219l108 176q11 20 37 20h97q12 0 15 -9t-5 -20l-168 -174q-14 -14 -33 -14h-39
q-24 0 -12 21z" />
    <glyph glyph-name="ucircumflex.alt" unicode="&#xe015;" horiz-adv-x="966" 
d="M483 -18q-356 0 -356 374v686q0 25 20 25h68q23 0 23 -25v-680q0 -139 57 -208q58 -70 188 -70q131 0 189 70q57 69 57 208v680q0 25 23 25h63q25 0 25 -25v-686q0 -374 -357 -374zM618 1212l-135 134l-137 -134q-15 -14 -31 -14h-51q-12 0 -15 7q-3 8 5 16l164 184
q16 16 35 16h57q21 0 37 -16l164 -184q6 -7 4 -16q-1 -7 -15 -7h-51q-16 0 -31 14z" />
    <glyph glyph-name="utilde.alt" unicode="&#xe016;" horiz-adv-x="966" 
d="M483 -18q-356 0 -356 374v686q0 25 20 25h68q23 0 23 -25v-680q0 -139 57 -208q58 -70 188 -70q131 0 189 70q57 69 57 208v680q0 25 23 25h63q25 0 25 -25v-686q0 -374 -357 -374zM737 1321q0 -56 -28 -90q-29 -35 -84 -35q-65 0 -138 39l-49 25q-45 24 -73 24
q-50 0 -58 -47l-2 -18q-2 -19 -26 -19h-31q-23 0 -23 29q0 56 29 93q28 36 84 36q53 0 137 -41l51 -25q52 -24 80 -24q45 0 51 47l2 16q1 21 25 21h33q20 0 20 -31z" />
    <glyph glyph-name="udieresis.alt" unicode="&#xe017;" horiz-adv-x="966" 
d="M483 -18q-356 0 -356 374v686q0 25 20 25h68q23 0 23 -25v-680q0 -139 57 -208q58 -70 188 -70q131 0 189 70q57 69 57 208v680q0 25 23 25h63q25 0 25 -25v-686q0 -374 -357 -374zM387 1339v-118q0 -23 -20 -23h-72q-25 0 -25 23v118q0 23 25 23h72q20 0 20 -23z
M692 1339v-118q0 -23 -22 -23h-72q-23 0 -23 23v118q0 23 23 23h72q22 0 22 -23z" />
    <glyph glyph-name="umacron.alt" unicode="&#xe018;" horiz-adv-x="966" 
d="M483 -18q-356 0 -356 374v686q0 25 20 25h68q23 0 23 -25v-680q0 -139 57 -208q58 -70 188 -70q131 0 189 70q57 69 57 208v680q0 25 23 25h63q25 0 25 -25v-686q0 -374 -357 -374zM709 1212h-455q-21 0 -21 21v37q0 22 21 22h455q22 0 22 -22v-37q0 -21 -22 -21z" />
    <glyph glyph-name="ubreve.alt" unicode="&#xe019;" horiz-adv-x="966" 
d="M483 -18q-356 0 -356 374v686q0 25 20 25h68q23 0 23 -25v-680q0 -139 57 -208q58 -70 188 -70q131 0 189 70q57 69 57 208v680q0 25 23 25h63q25 0 25 -25v-686q0 -374 -357 -374zM483 1192q-116 0 -172 56q-58 58 -59 141q0 20 16 20h41q19 0 21 -18q23 -119 153 -119
q141 0 152 119q5 18 20 18h39q19 0 19 -20q-1 -82 -60 -141q-56 -56 -170 -56z" />
    <glyph glyph-name="uring.alt" unicode="&#xe01a;" horiz-adv-x="966" 
d="M483 -18q-356 0 -356 374v686q0 25 20 25h68q23 0 23 -25v-680q0 -139 57 -208q58 -70 188 -70q131 0 189 70q57 69 57 208v680q0 25 23 25h63q25 0 25 -25v-686q0 -374 -357 -374zM483 1247q111 0 111 107q0 104 -113 104q-53 0 -83 -27q-29 -26 -29 -77
q0 -107 114 -107zM481 1524q84 0 134 -47q51 -48 51 -123q0 -78 -50 -125t-133 -47q-85 0 -135 47q-49 46 -49 125q0 77 49 123q50 47 133 47z" />
    <glyph glyph-name="uhungarumlaut.alt" unicode="&#xe01b;" horiz-adv-x="966" 
d="M483 -18q-356 0 -356 374v686q0 25 20 25h68q23 0 23 -25v-680q0 -139 57 -208q58 -70 188 -70q131 0 189 70q57 69 57 208v680q0 25 23 25h63q25 0 25 -25v-686q0 -374 -357 -374zM289 1219l98 176q11 20 35 20h76q14 0 17 -9t-5 -20l-137 -174q-11 -14 -31 -14h-39
q-21 0 -14 21zM555 1219l96 176q11 20 35 20h76q12 0 16 -9t-2 -20l-139 -174q-10 -14 -33 -14h-35q-26 0 -14 21z" />
    <glyph glyph-name="ydieresis.alt" unicode="&#xe01c;" horiz-adv-x="970" 
d="M727 133v139q-28 -75 -100 -132q-71 -56 -193 -56q-153 0 -230 95t-77 263v600q0 25 20 25h68q23 0 23 -25v-585q0 -271 219 -271q118 0 193 88t75 226v542q0 25 25 25h65q21 0 21 -25v-915q0 -184 -98 -279q-97 -94 -281 -94q-164 0 -269 49q-20 11 -18 29l4 53
q5 23 27 17q120 -47 252 -47q274 0 274 278zM389 1339v-118q0 -23 -20 -23h-72q-25 0 -25 23v118q0 23 25 23h72q20 0 20 -23zM694 1339v-118q0 -23 -22 -23h-72q-22 0 -22 23v118q0 23 22 23h72q22 0 22 -23z" />
    <glyph glyph-name="yacute.alt" unicode="&#xe01d;" horiz-adv-x="970" 
d="M727 133v139q-28 -75 -100 -132q-71 -56 -193 -56q-153 0 -230 95t-77 263v600q0 25 20 25h68q23 0 23 -25v-585q0 -271 219 -271q118 0 193 88t75 226v542q0 25 25 25h65q21 0 21 -25v-915q0 -184 -98 -279q-97 -94 -281 -94q-164 0 -269 49q-20 11 -18 29l4 53
q5 23 27 17q120 -47 252 -47q274 0 274 278zM420 1219l108 176q11 20 37 20h97q12 0 15 -9t-5 -20l-168 -174q-14 -14 -33 -14h-39q-24 0 -12 21z" />
    <glyph glyph-name="ycircumflex.alt" unicode="&#xe01e;" horiz-adv-x="970" 
d="M727 133v139q-28 -75 -100 -132q-71 -56 -193 -56q-153 0 -230 95t-77 263v600q0 25 20 25h68q23 0 23 -25v-585q0 -271 219 -271q118 0 193 88t75 226v542q0 25 25 25h65q21 0 21 -25v-915q0 -184 -98 -279q-97 -94 -281 -94q-164 0 -269 49q-20 11 -18 29l4 53
q5 23 27 17q120 -47 252 -47q274 0 274 278zM612 1212l-135 134l-137 -134q-15 -14 -31 -14h-51q-12 0 -15 7q-3 8 5 16l164 184q16 16 34 16h58q21 0 37 -16l164 -184q6 -7 4 -16q-1 -7 -15 -7h-51q-16 0 -31 14z" />
    <glyph glyph-name="ygrave.alt" unicode="&#xe01f;" horiz-adv-x="970" 
d="M727 133v139q-28 -75 -100 -132q-71 -56 -193 -56q-153 0 -230 95t-77 263v600q0 25 20 25h68q23 0 23 -25v-585q0 -271 219 -271q118 0 193 88t75 226v542q0 25 25 25h65q21 0 21 -25v-915q0 -184 -98 -279q-97 -94 -281 -94q-164 0 -269 49q-20 11 -18 29l4 53
q5 23 27 17q120 -47 252 -47q274 0 274 278zM426 1395l109 -176q12 -21 -13 -21h-41q-16 0 -30 14l-168 174q-8 11 -5 20t17 9h94q26 0 37 -20z" />
    <glyph glyph-name="i.dot" unicode="&#xe020;" horiz-adv-x="397" 
d="M254 1042v-1019q0 -23 -23 -23h-65q-23 0 -23 23v1019q0 25 23 25h65q23 0 23 -25zM256 1395v-156q0 -22 -23 -22h-69q-23 0 -23 22v156q0 22 23 22h69q23 0 23 -22z" />
    <glyph glyph-name="dollar.old" unicode="&#xe021;" horiz-adv-x="892" 
d="M504 1327v-129q129 -6 225 -39q29 -12 23 -31l-17 -49q-6 -27 -35 -16q-95 33 -221 33q-262 0 -262 -187q0 -45 18 -82q18 -38 57 -67q38 -28 71 -48q28 -17 92 -48q11 -5 20 -11q78 -38 123 -65q36 -22 97 -71q58 -47 81 -102q25 -59 25 -130q0 -125 -78 -201
q-77 -75 -219 -92v-135q0 -25 -25 -25h-45q-22 0 -22 25v129q-181 0 -303 43q-30 8 -23 30l18 54q10 23 31 16q110 -43 275 -43q274 0 274 201q0 25 -4 42q-4 19 -9 36q-4 13 -20 33q-14 17 -22 28q-6 8 -30 27l-18 13.5t-13 9.5q-11 9 -36 23q-27 15 -35 19q-20 10 -41 21
q-9 5 -18 9.5t-14.5 7t-7.5 3.5q-17 9 -36.5 19t-31 16t-17.5 9q-3 2 -27.5 15.5t-43.5 24.5q-49 28 -69 50q-14 15 -46 56q-26 33 -35 72q-10 43 -10 88q0 123 79 199q78 75 233 90v129q0 25 22 25h45q25 0 25 -25z" />
    <glyph glyph-name="cent.old" unicode="&#xe022;" horiz-adv-x="874" 
d="M94 590q0 561 404 602v135q0 25 22 25h45q25 0 25 -25v-131q101 -6 188 -43q28 -12 21 -33l-19 -49q-6 -21 -32 -14q-90 35 -185 35q-352 0 -352 -502q0 -504 352 -504q93 0 195 39q23 8 30 -16l19 -48q6 -15 -21 -30q-70 -36 -196 -47v-127q0 -25 -25 -25h-45
q-22 0 -22 25v129q-404 35 -404 604z" />
    <glyph glyph-name="sterling.old" unicode="&#xe023;" horiz-adv-x="1026" 
d="M256 557h-141q-25 0 -25 25v36q0 23 25 23h102q-65 137 -65 242q0 137 98 225t289 88q180 0 272 -77t92 -208q0 -71 -26 -71h-60q-22 0 -22 20q0 13 1 22t1 25q0 89 -65 139t-189 50q-138 0 -207 -63q-70 -64 -70 -161q0 -82 70 -231h299q24 0 24 -23v-36q0 -25 -24 -25
h-266q41 -93 41 -182q0 -77 -34 -148q-34 -70 -97 -114q55 18 124 18q60 0 158 -22q103 -23 154 -23q84 0 112 49q29 50 29 137q0 25 23 25h53q24 0 24 -29q0 -133 -45 -208q-44 -74 -168 -74q-72 0 -181 23q-114 24 -179 24q-130 0 -236 -45q-21 -8 -28 6l-35 51
q-8 20 8 27q211 106 211 305q0 89 -47 180z" />
    <glyph glyph-name="yen.old" unicode="&#xe024;" horiz-adv-x="989" 
d="M844 305h-293v-280q0 -25 -23 -25h-65q-25 0 -25 25v280h-295q-22 0 -22 23v34q0 25 22 25h297v41l-65 125h-232q-22 0 -22 22v37q0 23 22 23h189l-279 516q-15 29 17 29h71q23 0 31 -21l320 -618h6l319 618q11 21 33 21h68q15 0 20 -11q4 -10 -2 -18l-281 -516h189
q24 0 24 -23v-37q0 -22 -24 -22h-232l-61 -125v-41h293q24 0 24 -25v-34q0 -23 -24 -23z" />
    <glyph glyph-name="Euro.old" unicode="&#xe025;" horiz-adv-x="970" 
d="M303 741h436q27 0 17 -24l-13 -35q-7 -20 -28 -20h-422q-4 -20 -4 -68q0 -30 4 -74h373q26 0 16 -24l-12 -35q-8 -21 -29 -21h-338q50 -350 371 -350q96 0 180 35q27 11 35 -12l22 -47q8 -17 -14 -31q-79 -49 -231 -49q-209 0 -329 119q-123 122 -153 335h-123
q-22 0 -22 23v37q0 20 22 20h117q-4 44 -4 74q0 24 4 68h-117q-22 0 -22 20v39q0 20 22 20h123q30 215 151 334t324 119q145 0 230 -49q24 -15 18 -31l-22 -45q-15 -23 -37 -16q-99 37 -180 37q-315 0 -365 -349z" />
    <glyph glyph-name="zero.old" unicode="&#xe026;" horiz-adv-x="1028" 
d="M514 1194q206 0 313 -156q107 -157 107 -450q0 -292 -107 -449q-106 -155 -311 -155q-204 0 -312 156t-108 450q0 292 108 448t310 156zM514 88q301 0 301 500q0 504 -301 504t-301 -502t301 -502z" />
    <glyph glyph-name="one.old" unicode="&#xe027;" horiz-adv-x="860" 
d="M768 0h-616q-25 0 -25 23v59q0 20 25 20h260v945l-224 -177q-16 -15 -28 2l-39 43q-15 15 0 27l285 232q14 10 28 10h68q22 0 22 -23v-1059h244q25 0 25 -20v-59q0 -23 -25 -23z" />
    <glyph glyph-name="two.old" unicode="&#xe028;" horiz-adv-x="931" 
d="M86 23v49q0 17 16 32q76 57 156 119q60 46 155 134q95 87 149 158q52 68 97 164q43 92 43 179q0 103 -61 168q-61 66 -190 66q-244 0 -244 -222q0 -10 2 -44q0 -7 0.5 -14.5t1 -12t0.5 -6.5q0 -21 -25 -21h-61q-19 0 -23 21q-6 30 -6 79q0 146 87 234t270 88
q184 0 274 -92q90 -91 90 -240q0 -114 -53 -229q-51 -112 -150 -218q-96 -103 -172 -169q-80 -69 -178 -144h555q23 0 23 -22v-57q0 -23 -23 -23h-710q-23 0 -23 23z" />
    <glyph glyph-name="three.old" unicode="&#xe029;" horiz-adv-x="897" 
d="M266 586h111q120 0 196 67t76 195q0 244 -295 244q-135 0 -260 -48q-20 -7 -26 15l-19 55q-4 16 19 29q126 53 294 53q191 0 297 -89q105 -89 105 -251q0 -124 -57 -204q-55 -77 -148 -105q105 -23 174 -108q70 -87 70 -236q0 -441 -461 -441q-174 0 -303 56
q-23 11 -19 26l19 60q6 27 29 16q140 -51 278 -51q342 0 342 332q0 148 -85 215t-224 67h-113q-24 0 -24 23v59q0 21 24 21z" />
    <glyph glyph-name="four.old" unicode="&#xe02a;" horiz-adv-x="1046" 
d="M698 1008l-508 -770h508v770zM715 1180h76q22 0 22 -25v-917h178q23 0 23 -27v-53q0 -27 -23 -27h-178v-332q0 -24 -22 -24h-68q-27 0 -27 24v332h-612q-23 0 -23 27v55q0 13 9 33l614 915q13 19 31 19z" />
    <glyph glyph-name="five.old" unicode="&#xe02b;" horiz-adv-x="962" 
d="M770 1077h-516q-7 -273 -25 -479q108 45 236 45q401 0 401 -424q0 -229 -116 -342q-118 -115 -338 -115q-179 0 -314 56q-24 11 -20 28l20 56q8 24 27 16q129 -53 281 -53q342 0 342 354q0 155 -67 239q-66 83 -222 83q-98 0 -185 -26t-88 -26h-1q-1 0 -3 0.5t-4.5 1
t-6 1.5t-7.5 2l-33 14q-14 7 -12 29q29 319 35 618q0 25 26 25h590q25 0 25 -23v-57q0 -23 -25 -23z" />
    <glyph glyph-name="six.old" unicode="&#xe02c;" horiz-adv-x="999" 
d="M498 1417q16 19 39 19h77q12 0 17 -10q5 -9 -6 -17q-264 -241 -363 -588q84 121 258 121q190 0 291 -128q100 -127 100 -351q0 -221 -105 -350t-296 -129q-197 0 -303 130q-107 131 -107 361q0 282 113 526t285 416zM215 463q0 -173 77 -276q76 -101 214 -101
q140 0 216 101q77 103 77 276q0 175 -74 276t-217 101q-140 0 -216 -102q-77 -103 -77 -275z" />
    <glyph glyph-name="seven.old" unicode="&#xe02d;" horiz-adv-x="894" 
d="M84 1180h715q26 0 26 -23v-51q0 -17 -16 -37q-161 -234 -295 -612q-136 -383 -143 -660q0 -22 -25 -22h-65q-25 0 -25 22q8 292 141 664q134 374 297 616h-610q-25 0 -25 23v57q0 23 25 23z" />
    <glyph glyph-name="eight.old" unicode="&#xe02e;" horiz-adv-x="1030" 
d="M516 -16q-202 0 -312 100q-112 101 -112 268q0 158 87 255t229 141q-289 105 -289 364q0 154 104 248t293 94t292 -94t103 -248q0 -263 -288 -364q140 -43 229 -141q88 -97 88 -255q0 -167 -113 -268q-112 -100 -311 -100zM516 1356q-136 0 -209 -66q-74 -66 -74 -176
q0 -228 283 -317q283 90 283 317q0 110 -74 176q-73 66 -209 66zM516 694q-307 -82 -307 -336q0 -126 80 -201q79 -75 227 -75q145 0 226 75t81 199q0 256 -307 338z" />
    <glyph glyph-name="nine.old" unicode="&#xe02f;" horiz-adv-x="999" 
d="M506 -207q-15 -18 -37 -18h-78q-11 0 -16 8q-5 7 6 18q254 235 354 553q-83 -116 -258 -116q-188 0 -289 128q-100 127 -100 349t106 352q105 129 298 129q194 0 301 -131q106 -130 106 -358q0 -495 -393 -914zM786 715q0 175 -77 276q-79 103 -217 103q-139 0 -214 -102
t-75 -277q0 -177 72 -276t217 -99q140 0 217 101t77 274z" />
    <glyph glyph-name="dollar.tab" unicode="&#xe030;" horiz-adv-x="1126" 
d="M616 1608v-154q140 -1 254 -43q25 -8 17 -31l-17 -55q-6 -26 -30 -18q-115 41 -240 41q-297 0 -297 -240q0 -60 21 -107q23 -50 69 -88q55 -45 83 -62q61 -37 110 -65q69 -38 78 -44q5 -4 14 -9.5t26 -16t30 -18.5q52 -33 72 -51q23 -21 54 -55q34 -37 49 -70t27 -78
t12 -96q0 -160 -87 -250t-240 -108v-162q0 -23 -25 -23h-47q-23 0 -23 23v154q-198 0 -329 51q-27 11 -23 30l16 58q6 24 33 16q132 -49 293 -49q146 0 230 67q83 66 83 193q0 63 -22 111q-21 46 -64 86q-35 33 -87 66q-55 36 -105 63l-12 6q-5 2 -11 6t-12 6l-101 59
q-37 21 -87 61q-55 44 -79 79q-25 36 -46 94q-21 57 -21 123q0 148 84 238q83 89 254 104v158q0 22 25 22h47q24 0 24 -22z" />
    <glyph glyph-name="cent.tab" unicode="&#xe031;" horiz-adv-x="1126" 
d="M236 532q0 516 372 553v152q0 25 23 25h47q24 0 24 -25v-152q99 -5 189 -45q22 -10 16 -28l-16 -49q-8 -27 -31 -15q-79 35 -188 35q-164 0 -243 -111q-79 -110 -79 -340q0 -228 78 -338t244 -110q114 0 196 39q24 13 31 -14l16 -50q5 -18 -18 -30q-79 -39 -195 -45v-156
q0 -23 -24 -23h-47q-23 0 -23 23v158q-372 34 -372 546z" />
    <glyph glyph-name="sterling.tab" unicode="&#xe032;" horiz-adv-x="1126" 
d="M299 680h-184q-21 0 -21 25v47q0 20 21 20h147q-84 196 -84 313q0 165 108 268q107 103 318 103q195 0 293 -91t98 -243q0 -84 -26 -84h-60q-11 0 -18 5q-6 4 -4 16q4 36 4 61q0 103 -71 166q-72 64 -212 64q-153 0 -233 -74t-80 -195q0 -107 86 -309h342q22 0 22 -20
v-47q0 -25 -22 -25h-309q57 -129 57 -229q0 -104 -49 -193q-50 -92 -143 -143q77 28 157 28q75 0 178 -26q106 -27 170 -27q95 0 130 64q34 62 34 172q0 24 25 24h55q25 0 25 -28q0 -155 -53 -246q-52 -90 -191 -90q-90 0 -203 29q-117 30 -198 30q-143 0 -250 -55
q-22 -8 -29 4l-35 59q-11 17 4 25q258 147 258 377q0 91 -57 225z" />
    <glyph glyph-name="yen.tab" unicode="&#xe033;" horiz-adv-x="1126" 
d="M623 389v-364q0 -25 -25 -25h-70q-24 0 -24 25v364h-348q-21 0 -21 23v45q0 20 21 20h348v53l-74 152h-274q-21 0 -21 23v45q0 20 21 20h231l-313 639q-15 27 16 27h76q20 0 31 -21l364 -762h4l367 762q12 21 31 21h73q29 0 17 -27l-316 -639h232q24 0 24 -20v-45
q0 -23 -24 -23h-273l-73 -152v-53h346q24 0 24 -20v-45q0 -23 -24 -23h-346z" />
    <glyph glyph-name="Euro.tab" unicode="&#xe034;" horiz-adv-x="1126" 
d="M96 621h137q-4 55 -4 98q0 49 4 96h-137q-22 0 -22 23v47q0 20 22 20h144q33 256 167 404q133 147 375 147q146 0 258 -53q27 -10 19 -29l-25 -57q-11 -24 -33 -14q-98 43 -208 43q-195 0 -300 -118q-107 -121 -131 -323h508q23 0 17 -24l-13 -43q-5 -23 -26 -23h-496
q-2 -40 -2 -96q0 -58 2 -98h432q21 0 15 -23l-11 -43q-8 -25 -30 -25h-396q27 -202 133 -322q105 -118 300 -118q112 0 215 47q21 7 32 -18l23 -56q6 -18 -14 -28q-123 -53 -265 -53q-243 0 -378 147t-168 401h-144q-22 0 -22 25v45q0 21 22 21z" />
    <glyph glyph-name="zero.tab" unicode="&#xe035;" horiz-adv-x="1126" 
d="M561 1456q465 0 465 -737t-465 -737q-463 0 -463 735q0 739 463 739zM561 88q346 0 346 629q0 631 -346 631q-171 0 -257 -155q-85 -154 -85 -476q0 -323 85 -475q86 -154 257 -154z" />
    <glyph glyph-name="one.tab" unicode="&#xe036;" horiz-adv-x="1126" 
d="M592 25v1267l-262 -207q-19 -13 -29 2l-41 48q-14 14 2 26l320 264q13 11 30 11h74q23 0 23 -23v-1388q0 -25 -23 -25h-70q-24 0 -24 25z" />
    <glyph glyph-name="two.tab" unicode="&#xe037;" horiz-adv-x="1126" 
d="M274 1083q0 -8 4 -48q3 -30 3 -40q0 -22 -23 -22h-65q-17 0 -23 26q-8 53 -8 91q0 160 100 263t295 103q209 0 305 -111t96 -294q0 -420 -624 -945h624q25 0 25 -24v-57q0 -25 -25 -25h-786q-25 0 -25 25v47q0 19 17 34q73 60 175 149q76 66 177 173q99 105 165 198
q68 95 113 205q46 111 46 216q0 303 -285 303q-148 0 -214 -74q-67 -75 -67 -193z" />
    <glyph glyph-name="three.tab" unicode="&#xe038;" horiz-adv-x="1126" 
d="M416 801h116q122 0 192 69q71 69 71 213q0 267 -287 267q-137 0 -287 -52q-18 -8 -26 17l-21 55q-4 16 21 27q137 59 313 59q198 0 302 -92q103 -91 103 -272q0 -270 -202 -330q105 -24 171 -110t66 -244q0 -426 -456 -426q-148 0 -320 57q-22 7 -18 24l16 58q6 27 29 16
q144 -51 293 -51q335 0 335 322q0 290 -292 290h-119q-27 0 -27 23v57q0 23 27 23z" />
    <glyph glyph-name="four.tab" unicode="&#xe039;" horiz-adv-x="1126" 
d="M854 0h-70q-22 0 -22 25v319h-645q-23 0 -23 25v55q0 19 10 35l644 958q13 19 32 19h74q23 0 23 -23v-967h186q24 0 24 -22v-55q0 -25 -24 -25h-186v-319q0 -25 -23 -25zM762 1262l-539 -816h539v816z" />
    <glyph glyph-name="five.tab" unicode="&#xe03a;" horiz-adv-x="1126" 
d="M971 451q0 -227 -120 -349q-119 -120 -347 -120q-191 0 -326 55q-26 11 -18 33l20 53q7 21 27 16q138 -53 291 -53q352 0 352 365q0 156 -69 242q-69 85 -234 85q-104 0 -189 -26l-88 -27q-7 0 -22 6l-33 14q-14 4 -12 29q31 351 37 637q0 25 24 25h608q27 0 27 -23v-57
q0 -25 -27 -25h-532q-7 -285 -29 -493q107 43 246 43q414 0 414 -430z" />
    <glyph glyph-name="six.tab" unicode="&#xe03b;" horiz-adv-x="1126" 
d="M840 1315q-95 37 -195 37q-205 0 -300 -164t-93 -514q27 112 120 184t242 72q207 0 305 -128q97 -127 97 -335q0 -219 -108 -352t-304 -133q-467 0 -467 710q0 764 500 764q121 0 229 -41q25 -11 21 -26l-19 -58q-6 -23 -28 -16zM602 86q142 0 219 104q78 105 78 275
q0 160 -71 263q-70 101 -228 101q-147 0 -231 -94q-84 -95 -84 -274q0 -139 82 -257t235 -118z" />
    <glyph glyph-name="seven.tab" unicode="&#xe03c;" horiz-adv-x="1126" 
d="M362 23q12 309 152 686q140 376 307 622h-635q-24 0 -24 25v57q0 23 24 23h744q22 0 22 -23v-55q0 -14 -16 -37q-177 -252 -313 -626q-137 -376 -138 -672q0 -23 -24 -23h-74q-25 0 -25 23z" />
    <glyph glyph-name="eight.tab" unicode="&#xe03d;" horiz-adv-x="1126" 
d="M563 -18q-207 0 -319 100q-113 101 -113 270q0 155 90 254q89 98 232 142q-293 105 -293 366q0 156 103 249t300 93q194 0 299 -93t105 -249q0 -260 -295 -366q142 -44 231 -142q90 -99 90 -254q0 -170 -111 -270q-110 -100 -319 -100zM563 1356q-141 0 -215 -65
t-74 -177q0 -227 289 -317q289 91 289 317q0 112 -75 177q-76 65 -214 65zM563 694q-315 -84 -315 -336q0 -126 81 -201t234 -75q155 0 234 75q80 75 80 201q0 252 -314 336z" />
    <glyph glyph-name="nine.tab" unicode="&#xe03e;" horiz-adv-x="1126" 
d="M293 121q127 -37 194 -37q202 0 299 160t95 508q-22 -104 -118 -175q-95 -71 -249 -71q-204 0 -303 129q-98 128 -98 336q0 220 107 351q108 132 304 132q467 0 467 -711q0 -377 -119 -570q-118 -191 -376 -191q-120 0 -230 38q-24 6 -18 29l16 55q6 25 29 17zM528 1350
q-143 0 -221 -104t-78 -273q0 -160 71 -263q70 -102 228 -102q147 0 233 92q85 91 85 273q0 146 -82 261q-83 116 -236 116z" />
    <glyph glyph-name="dollar.tabold" unicode="&#xe03f;" horiz-adv-x="1126" 
d="M618 1327l1 -129q129 -6 225 -39q28 -12 22 -31l-16 -49q-6 -27 -35 -16q-95 33 -221 33q-262 0 -262 -187q0 -47 17 -82q18 -37 58 -67q43 -32 70 -48q28 -17 92 -48q14 -5 21 -11q78 -38 123 -65q36 -22 97 -71q58 -47 81 -102q24 -57 24 -130q0 -125 -77 -201
q-77 -75 -220 -92v-135q0 -25 -24 -25h-45q-23 0 -23 25v129q-181 0 -303 43q-30 7 -22 30l18 54q10 23 31 16q110 -43 274 -43q275 0 275 201q0 25 -4 42q-2 8 -6 21t-4 15q-4 15 -19 33q-21 25 -23 28q-7 10 -29 27q-7 6 -17.5 13.5t-13.5 9.5q-11 9 -36 23q-18 10 -36 19
q-20 10 -41 21q-9 5 -18 9.5t-14.5 7t-7.5 3.5q-17 9 -36.5 19t-31 16t-17.5 9l-70 40q-49 28 -69 50q-14 15 -46 56q-27 35 -36 72q-9 39 -9 88q0 123 79 199q78 75 232 90v129q0 25 23 25h45q24 0 24 -25z" />
    <glyph glyph-name="cent.tabold" unicode="&#xe040;" horiz-adv-x="1126" 
d="M223 590q0 561 404 602v135q0 25 22 25h45q25 0 25 -25v-131q101 -6 188 -43q29 -12 21 -33l-19 -49q-6 -21 -32 -14q-87 35 -185 35q-352 0 -352 -502q0 -504 352 -504q93 0 195 39q24 8 31 -16l18 -48q6 -15 -21 -30q-70 -36 -196 -47v-127q0 -25 -25 -25h-45
q-22 0 -22 25v129q-404 35 -404 604z" />
    <glyph glyph-name="sterling.tabold" unicode="&#xe041;" horiz-adv-x="1126" 
d="M311 557h-141q-25 0 -25 25v36q0 23 25 23h102q-65 137 -65 242q0 137 98 225t289 88q180 0 272 -77t92 -208q0 -71 -26 -71h-60q-22 0 -22 20q0 13 1 22t1 25q0 89 -65 139t-189 50q-138 0 -207 -63t-69 -161q0 -84 69 -231h299q25 0 25 -23v-36q0 -25 -25 -25h-266
q41 -93 41 -182q0 -77 -34 -148q-34 -70 -97 -114q56 18 125 18q59 0 157 -22q103 -23 154 -23q85 0 113 49t28 137q0 25 23 25h53q25 0 25 -29q0 -133 -45 -208q-44 -74 -168 -74q-73 0 -182 23q-114 24 -179 24q-128 0 -235 -45q-22 -8 -29 6l-35 51q-8 20 8 27
q211 106 211 305q0 89 -47 180z" />
    <glyph glyph-name="yen.tabold" unicode="&#xe042;" horiz-adv-x="1126" 
d="M913 305h-292v-280q0 -25 -23 -25h-66q-24 0 -24 25v280h-295q-23 0 -23 23v34q0 25 23 25h297v41l-66 125h-231q-23 0 -23 22v37q0 23 23 23h188l-278 516q-15 29 16 29h72q23 0 31 -21l319 -618h6l320 618q11 21 33 21h67q16 0 21 -11q4 -10 -2 -18l-281 -516h188
q25 0 25 -23v-37q0 -22 -25 -22h-231l-61 -125v-41h292q25 0 25 -25v-34q0 -23 -25 -23z" />
    <glyph glyph-name="Euro.tabold" unicode="&#xe043;" horiz-adv-x="1126" 
d="M373 741h436q23 0 16 -24l-12 -35q-7 -20 -29 -20h-422q-4 -20 -4 -68q0 -30 4 -74h373q27 0 17 -24l-13 -35q-7 -21 -28 -21h-338q50 -350 370 -350q97 0 181 35q27 10 34 -12l23 -47q8 -17 -14 -31q-79 -49 -232 -49q-208 0 -328 119q-123 122 -153 335h-123
q-22 0 -22 23v37q0 20 22 20h117q-4 44 -4 74q0 24 4 68h-117q-22 0 -22 20v39q0 20 22 20h123q30 216 150 334q121 119 325 119q144 0 229 -49q25 -15 19 -31l-23 -45q-14 -23 -36 -16q-99 37 -181 37q-314 0 -364 -349z" />
    <glyph glyph-name="zero.tabold" unicode="&#xe044;" horiz-adv-x="1126" 
d="M563 1194q208 0 314 -156q106 -155 106 -450q0 -294 -106 -449t-312 -155q-204 0 -312 156t-108 450q0 292 108 448t310 156zM563 88q301 0 301 500q0 504 -301 504t-301 -502t301 -502z" />
    <glyph glyph-name="one.tabold" unicode="&#xe045;" horiz-adv-x="1126" 
d="M907 0h-616q-25 0 -25 23v59q0 20 25 20h260v945l-223 -177q-17 -15 -29 2l-39 43q-15 15 0 27l285 232q14 10 28 10h68q23 0 23 -23v-1059h243q25 0 25 -20v-59q0 -23 -25 -23z" />
    <glyph glyph-name="two.tabold" unicode="&#xe046;" horiz-adv-x="1126" 
d="M182 23v49q0 17 17 32q45 34 155 119q60 46 155 134q95 87 149 158q55 71 98 164q43 92 43 179q0 101 -62 168q-61 66 -190 66q-244 0 -244 -222q0 -10 2 -44q0 -7 0.5 -14.5t1 -12t0.5 -6.5q0 -21 -24 -21h-62q-17 0 -22 21q-6 30 -6 79q0 146 87 234t269 88
q184 0 274 -92q90 -91 90 -240q0 -114 -53 -229q-52 -114 -149 -218q-96 -103 -172 -169q-73 -63 -179 -144h555q23 0 23 -22v-57q0 -23 -23 -23h-710q-23 0 -23 23z" />
    <glyph glyph-name="three.tabold" unicode="&#xe047;" horiz-adv-x="1126" 
d="M383 586h111q120 0 196 67t76 195q0 244 -295 244q-135 0 -260 -48q-21 -8 -27 15l-18 55q-5 17 18 29q126 53 295 53q191 0 297 -89q105 -89 105 -251q0 -123 -58 -204q-56 -78 -147 -105q105 -23 174 -108q70 -87 70 -236q0 -441 -461 -441q-174 0 -303 56
q-23 11 -19 26l19 60q6 26 28 16q140 -51 279 -51q342 0 342 332q0 148 -85 215t-224 67h-113q-25 0 -25 23v59q0 21 25 21z" />
    </font>
</defs>
</svg>
