<?xml version="1.0" standalone="no"?>
<!DOCTYPE svg PUBLIC "-//W3C//DTD SVG 1.1//EN" "http://www.w3.org/Graphics/SVG/1.1/DTD/svg11.dtd" >
<svg xmlns="http://www.w3.org/2000/svg" xmlns:xlink="http://www.w3.org/1999/xlink" version="1.1">
<metadata>
Created by FontForge 20170731 at Mon Nov 21 16:50:40 2022
 By Aleksey,,,
(c) 2012, 2013, 2014, 2015 by Stawix Ruecha &#38; Foundry. All rights reserved.
</metadata>
<defs>
<font id="AmsiProCond-Regular" horiz-adv-x="614" >
  <font-face 
    font-family="AmsiProCond-Regular"
    font-weight="400"
    font-stretch="condensed"
    units-per-em="2048"
    panose-1="2 11 10 6 2 2 1 1 1 4"
    ascent="1755"
    descent="-293"
    x-height="1094"
    cap-height="1438"
    bbox="-339.512 -571 2458 2126"
    underline-thickness="81"
    underline-position="-203"
    unicode-range="U+0020-FB4E"
  />
<missing-glyph horiz-adv-x="1007" 
d="M0 1413h1008v-1413h-1008v1413zM907 193v1030l-344 -516zM100 1223v-1030l344 514zM504 797l344 516h-686zM504 616l-342 -516h684z" />
    <glyph glyph-name="f_f" unicode="ff" horiz-adv-x="946" 
d="M735 1094h160q29 0 29 -29v-78q0 -29 -29 -29h-160v-929q0 -29 -26 -29h-86q-29 0 -29 29v929h-289v-929q0 -29 -26 -29h-86q-29 0 -29 29v929h-90q-29 0 -29 29v78q0 29 29 29h90v86q0 142 52 204q53 64 159 64q53 0 90 -12q18 -6 18 -31v-66q0 -26 -26 -26l-28 2
q-28 2 -32 2q-47 0 -71 -32q-25 -33 -25 -111v-80h293v75q0 151 53 215t174 64q49 0 86 -12q19 -6 19 -31v-66q0 -26 -29 -26l-26 2q-26 2 -29 2q-61 0 -84 -32t-23 -122v-69z" />
    <glyph glyph-name="fi" unicode="fi" horiz-adv-x="843" 
d="M737 1065v-1036q0 -29 -28 -29h-86q-29 0 -29 29v929h-289v-929q0 -29 -26 -29h-86q-29 0 -29 29v929h-90q-29 0 -29 29v78q0 29 29 29h90v86q0 142 52 204q53 64 159 64q53 0 90 -12q18 -6 18 -31v-66q0 -26 -26 -26l-28 2q-28 2 -32 2q-47 0 -71 -32q-25 -33 -25 -111
v-80h408q28 0 28 -29zM737 1409v-141q0 -29 -28 -29h-86q-29 0 -29 29v141q0 29 29 29h86q28 0 28 -29z" />
    <glyph glyph-name="fl" unicode="fl" horiz-adv-x="843" 
d="M737 1389v-1360q0 -29 -28 -29h-86q-29 0 -29 29v1284q-53 8 -107 8q-97 0 -140 -41q-42 -40 -42 -133v-53h123q29 0 29 -29v-78q0 -29 -29 -29h-123v-929q0 -29 -26 -29h-86q-29 0 -29 29v929h-90q-29 0 -29 29v78q0 29 29 29h90v59q0 155 75 227t246 72q150 0 226 -31
q26 -10 26 -32z" />
    <glyph glyph-name="f_f_i" unicode="ffi" horiz-adv-x="1273" 
d="M1167 1065v-1036q0 -29 -28 -29h-86q-29 0 -29 29v929h-289v-929q0 -29 -26 -29h-86q-29 0 -29 29v929h-289v-929q0 -29 -26 -29h-86q-29 0 -29 29v929h-90q-29 0 -29 29v78q0 29 29 29h90v86q0 142 52 204q53 64 159 64q53 0 90 -12q18 -6 18 -31v-66q0 -26 -26 -26
l-28 2q-28 2 -32 2q-47 0 -71 -32q-25 -33 -25 -111v-80h293v86q0 142 52 204q53 64 159 64q53 0 90 -12q18 -6 18 -31v-66q0 -26 -26 -26q-2 0 -5.5 0.5t-10.5 1t-12 0.5q-28 2 -32 2q-47 0 -71 -32q-25 -33 -25 -111v-80h408q28 0 28 -29zM1167 1409v-141q0 -29 -28 -29
h-86q-29 0 -29 29v141q0 29 29 29h86q28 0 28 -29z" />
    <glyph glyph-name="f_f_l" unicode="ffl" horiz-adv-x="1273" 
d="M735 958v-929q0 -29 -26 -29h-86q-29 0 -29 31v927h-289v-929q0 -29 -26 -29h-86q-29 0 -29 29v929h-90q-29 0 -29 29v78q0 29 29 29h90v86q0 142 52 204q53 64 159 64q53 0 90 -12q18 -6 18 -31v-66q0 -26 -26 -26l-28 2q-28 2 -32 2q-47 0 -71 -32q-25 -33 -25 -111
v-80h293v59q0 155 75 227t246 72q150 0 226 -31q26 -10 26 -32v-1360q0 -29 -28 -29h-86q-29 0 -29 29v1284q-53 8 -106 8q-98 0 -141 -41q-42 -40 -42 -133v-53h123q29 0 29 -29v-78q0 -29 -29 -29h-123z" />
    <glyph glyph-name="f_b" unicode="fb" horiz-adv-x="1359" 
d="M735 547q0 -432 213 -432q105 0 150 101q45 102 45 331t-45 331q-45 101 -150 101q-213 0 -213 -432zM737 1389v-441q21 69 84 115q64 47 150 47q319 0 319 -563t-319 -563q-88 0 -150 44q-61 44 -84 117v-116q0 -29 -28 -29h-86q-29 0 -29 29v1284q-53 8 -107 8
q-97 0 -140 -41q-42 -40 -42 -133v-53h123q29 0 29 -29v-78q0 -29 -29 -29h-123v-929q0 -29 -26 -29h-86q-29 0 -29 29v929h-90q-29 0 -29 29v78q0 29 29 29h90v61q0 153 75 225t246 72q150 0 226 -31q26 -10 26 -32z" />
    <glyph glyph-name="f_f_b" unicode="ffb" horiz-adv-x="1789" 
d="M1165 547q0 -432 213 -432q105 0 150 101q45 102 45 331t-45 331q-45 101 -150 101q-213 0 -213 -432zM1167 1389v-441q21 69 84 115q64 47 150 47q319 0 319 -563t-319 -563q-88 0 -150 44q-61 44 -84 117v-116q0 -29 -28 -29h-86q-29 0 -29 29v1284q-53 8 -106 8
q-98 0 -141 -41q-42 -40 -42 -133v-53h123q29 0 29 -29v-78q0 -29 -29 -29h-123v-929q0 -29 -26 -29h-86q-29 0 -29 29v929h-289v-929q0 -29 -26 -29h-86q-29 0 -29 29v929h-90q-29 0 -29 29v78q0 29 29 29h90v86q0 142 52 204q53 64 159 64q53 0 90 -12q18 -6 18 -31v-66
q0 -26 -26 -26l-28 2q-28 2 -32 2q-47 0 -71 -32q-25 -33 -25 -111v-80h293v59q0 155 75 227t246 72q150 0 226 -31q26 -10 26 -32z" />
    <glyph glyph-name="f_h" unicode="fh" horiz-adv-x="1335" 
d="M737 1389v-428q27 61 87 105q61 44 153 44q132 0 198 -91t66 -245v-745q0 -29 -29 -29h-86q-28 0 -28 29v727q0 217 -154 217q-100 0 -153 -78q-54 -80 -54 -209v-657q0 -29 -28 -29h-86q-29 0 -29 29v1284q-53 8 -107 8q-97 0 -140 -41q-42 -40 -42 -133v-53h123
q29 0 29 -29v-78q0 -29 -29 -29h-123v-929q0 -29 -26 -29h-86q-29 0 -29 29v929h-90q-29 0 -29 29v78q0 29 29 29h90v59q0 155 75 227t246 72q150 0 226 -31q26 -10 26 -32z" />
    <glyph glyph-name="f_f_h" unicode="ffh" horiz-adv-x="1765" 
d="M1167 1389v-428q27 61 87 105q61 44 153 44q132 0 198 -91q66 -92 66 -245v-745q0 -29 -29 -29h-86q-28 0 -28 29v727q0 217 -154 217q-100 0 -153 -78q-54 -80 -54 -209v-657q0 -29 -28 -29h-86q-29 0 -29 29v1284q-53 8 -106 8q-98 0 -141 -41q-42 -40 -42 -133v-53
h123q29 0 29 -29v-78q0 -29 -29 -29h-123v-929q0 -29 -26 -29h-86q-29 0 -29 29v929h-289v-929q0 -29 -26 -29h-86q-29 0 -29 29v929h-90q-29 0 -29 29v78q0 29 29 29h90v86q0 142 52 204q53 64 159 64q53 0 90 -12q18 -6 18 -31v-66q0 -26 -26 -26l-28 2q-28 2 -32 2
q-47 0 -71 -32q-25 -33 -25 -111v-80h293v59q0 155 75 227t246 72q150 0 226 -31q26 -10 26 -32z" />
    <glyph glyph-name="f_j" unicode="fj" horiz-adv-x="839" 
d="M737 1065v-1063q0 -130 -42 -183q-42 -52 -148 -52q-28 0 -68 8q-24 6 -24 30v72q0 31 28 27q22 -2 41 -2q38 0 54 22t16 90v944h-289v-929q0 -29 -26 -29h-86q-29 0 -29 29v929h-90q-29 0 -29 29v78q0 29 29 29h90v86q0 142 52 204q53 64 159 64q53 0 90 -12
q18 -6 18 -31v-66q0 -26 -26 -26l-28 2q-28 2 -32 2q-47 0 -71 -32q-25 -33 -25 -111v-80h408q28 0 28 -29zM737 1409v-141q0 -29 -28 -29h-86q-29 0 -29 29v141q0 29 29 29h86q28 0 28 -29z" />
    <glyph glyph-name="f_f_j" unicode="ffj" horiz-adv-x="1269" 
d="M1167 1065v-1063q0 -130 -42 -183q-42 -52 -148 -52q-28 0 -68 8q-24 6 -24 30v72q0 31 28 27q22 -2 41 -2q38 0 54 22t16 90v944h-289v-929q0 -29 -26 -29h-86q-29 0 -29 29v929h-289v-929q0 -29 -26 -29h-86q-29 0 -29 29v929h-90q-29 0 -29 29v78q0 29 29 29h90v86
q0 142 52 204q53 64 159 64q53 0 90 -12q18 -6 18 -31v-66q0 -26 -26 -26l-28 2q-28 2 -32 2q-47 0 -71 -32q-25 -33 -25 -111v-80h293v86q0 142 52 204q53 64 159 64q53 0 90 -12q18 -6 18 -31v-66q0 -26 -26 -26q-2 0 -5.5 0.5t-10.5 1t-12 0.5q-28 2 -32 2q-47 0 -71 -32
q-25 -33 -25 -111v-80h408q28 0 28 -29zM1167 1409v-141q0 -29 -28 -29h-86q-29 0 -29 29v141q0 29 29 29h86q28 0 28 -29z" />
    <glyph glyph-name="f_k" unicode="fk" horiz-adv-x="1228" 
d="M737 1389v-703l301 383q19 25 43 25h93q18 0 24 -13q6 -11 -6 -26l-352 -447l360 -571q10 -14 5 -26q-4 -11 -23 -11h-95q-24 0 -40 25l-310 493v-489q0 -29 -28 -29h-86q-29 0 -29 29v1284q-53 8 -107 8q-97 0 -140 -41q-42 -40 -42 -133v-53h123q29 0 29 -31v-76
q0 -29 -29 -29h-123v-929q0 -29 -26 -29h-86q-29 0 -29 29v929h-90q-29 0 -29 29v78q0 29 29 29h90v59q0 155 75 227t246 72q150 0 226 -31q26 -10 26 -32z" />
    <glyph glyph-name="f_f_k" unicode="ffk" horiz-adv-x="1658" 
d="M1024 29v1284q-53 8 -106 8q-98 0 -141 -41q-42 -40 -42 -133v-53h123q29 0 29 -29v-78q0 -29 -29 -29h-123v-929q0 -29 -26 -29h-86q-29 0 -29 29v929h-289v-929q0 -29 -26 -29h-86q-29 0 -29 29v929h-90q-29 0 -29 29v78q0 29 29 29h90v86q0 142 52 204q53 64 159 64
q53 0 90 -12q18 -6 18 -31v-66q0 -26 -26 -26l-28 2q-28 2 -32 2q-47 0 -71 -32q-25 -33 -25 -111v-80h293v59q0 155 75 227t246 72q150 0 226 -31q26 -10 26 -32v-703l301 383q19 25 43 25h93q18 0 24 -13q6 -11 -6 -26l-352 -447l360 -571q10 -14 5 -26q-4 -11 -23 -11
h-94q-25 0 -41 25l-310 493v-489q0 -29 -28 -29h-86q-29 0 -29 29z" />
    <glyph glyph-name="f_t" unicode="ft" horiz-adv-x="970" 
d="M301 1094h297v211q0 28 29 28h80q28 0 28 -28v-211h156q29 0 29 -29v-78q0 -29 -29 -29h-156v-667q0 -97 21 -132q21 -34 86 -34q8 0 51 6q29 5 29 -25v-73q0 -27 -25 -33q-36 -10 -80 -10q-122 0 -172 62q-51 63 -51 224v682h-289v-929q0 -29 -26 -29h-86q-29 0 -29 29
v929h-90q-29 0 -29 29v78q0 29 29 29h90v86q0 142 52 204q53 64 159 64q53 0 90 -12q18 -6 18 -31v-66q0 -26 -26 -26l-28 2q-28 2 -32 2q-47 0 -71 -32q-25 -33 -25 -111v-80z" />
    <glyph glyph-name="f_f_t" unicode="fft" horiz-adv-x="1400" 
d="M594 1094v86q0 142 52 204q53 64 159 64q53 0 90 -12q18 -6 18 -31v-66q0 -26 -26 -26q-2 0 -5.5 0.5t-10.5 1t-12 0.5q-28 2 -32 2q-47 0 -71 -32q-25 -33 -25 -111v-80h297v211q0 28 29 28h80q28 0 28 -28v-211h156q29 0 29 -27v-80q0 -29 -29 -29h-156v-667
q0 -97 21 -132q21 -34 86 -34q8 0 51 6q29 5 29 -25v-73q0 -27 -25 -33q-36 -10 -80 -10q-122 0 -172 62q-51 63 -51 224v682h-289v-929q0 -29 -26 -29h-86q-29 0 -29 29v929h-289v-929q0 -29 -26 -29h-86q-29 0 -29 29v929h-90q-29 0 -29 29v78q0 29 29 29h90v86
q0 142 52 204q53 64 159 64q53 0 90 -12q18 -6 18 -31v-66q0 -26 -26 -26l-28 2q-28 2 -32 2q-47 0 -71 -32q-25 -33 -25 -111v-80h293z" />
    <glyph glyph-name="t_t" unicode="tt" horiz-adv-x="970" 
d="M891 958h-156v-667q0 -97 21 -132q21 -34 86 -34q8 0 51 6q29 5 29 -25v-73q0 -27 -25 -33q-36 -10 -80 -10q-122 0 -172 62q-51 63 -51 224v682h-297v-667q0 -99 20 -132q21 -34 86 -34q9 0 52 6q28 4 28 -25v-73q0 -27 -24 -33q-36 -10 -80 -10q-122 0 -172 62
q-51 63 -51 224v682h-90q-29 0 -29 29v78q0 29 29 29h94v231q0 29 28 29h80q29 0 29 -29v-231h301v231q0 29 29 29h80q28 0 28 -29v-231h156q29 0 29 -29v-78q0 -29 -29 -29z" />
    <glyph glyph-name="t_t_f" unicode="ttf" horiz-adv-x="1396" 
d="M735 958v-667q0 -97 21 -132q21 -34 86 -34q8 0 51 6q29 5 29 -25v-73q0 -27 -25 -33q-36 -10 -80 -10q-122 0 -172 62q-51 63 -51 224v682h-297v-667q0 -99 20 -132q21 -34 86 -34q9 0 52 6q28 4 28 -25v-73q0 -27 -24 -33q-36 -10 -80 -10q-122 0 -172 62
q-51 63 -51 224v682h-90q-29 0 -29 29v78q0 29 29 29h94v231q0 29 28 29h80q29 0 29 -29v-231h301v231q0 29 29 29h80q28 0 28 -29v-231h309v75q0 150 54 215q53 64 174 64q48 0 86 -12q18 -6 18 -31v-66q0 -26 -28 -26l-26 2q-26 2 -30 2q-61 0 -84 -32q-22 -31 -22 -122
v-69h160q28 0 28 -29v-78q0 -29 -28 -29h-160v-929q0 -29 -27 -29h-86q-29 0 -29 29v929h-309z" />
    <glyph glyph-name=".notdef" horiz-adv-x="1007" 
d="M0 1413h1008v-1413h-1008v1413zM907 193v1030l-344 -516zM100 1223v-1030l344 514zM504 797l344 516h-686zM504 616l-342 -516h684z" />
    <glyph glyph-name=".null" horiz-adv-x="0" 
 />
    <glyph glyph-name="nonmarkingreturn" horiz-adv-x="681" 
 />
    <glyph glyph-name="space" unicode=" " horiz-adv-x="389" 
 />
    <glyph glyph-name="exclam" unicode="!" horiz-adv-x="425" 
d="M127 29v153q0 29 29 29h114q29 0 29 -29v-153q0 -29 -29 -29h-114q-29 0 -29 29zM246 399h-66q-28 0 -28 29l-25 979q0 31 29 31h114q29 0 29 -31l-25 -979q0 -29 -28 -29z" />
    <glyph glyph-name="quotedbl" unicode="&#x22;" horiz-adv-x="598" 
d="M233 1278l-28 -297h-70l-31 297q-6 68 -6 127q0 38 17 55t55 17t55 -17t17 -55q0 -19 -9 -127zM494 1278l-29 -297h-72l-28 297q-7 79 -7 127q0 40 16 56t56 16q36 0 53 -17t17 -57q0 -57 -6 -125z" />
    <glyph glyph-name="numbersign" unicode="#" horiz-adv-x="983" 
d="M918 1399l-103 -387h115q28 0 28 -29v-65q0 -29 -28 -29h-148l-90 -340h115q29 0 29 -29v-65q0 -29 -29 -29h-148l-110 -422q-6 -31 -35 -20l-72 20q-26 7 -20 35l102 387h-221l-110 -422q-6 -31 -35 -20l-72 20q-28 7 -20 35l102 387h-115q-28 0 -28 29v65q0 29 28 29
h148l90 340h-115q-29 0 -29 29v65q0 29 29 29h148l110 422q6 26 35 20l72 -20q26 -7 20 -35l-102 -387h221l111 422q6 30 34 20l72 -20q29 -11 21 -35zM426 889l-90 -340h221l90 340h-221z" />
    <glyph glyph-name="dollar" unicode="$" horiz-adv-x="802" 
d="M465 1593v-139q71 -1 172 -24q31 -6 31 -39v-78q0 -37 -39 -25q-83 25 -176 25q-119 0 -170 -51q-52 -52 -52 -154q0 -71 37 -133q40 -67 71 -94q63 -54 105 -88q54 -43 111 -93q33 -29 84 -89q49 -58 70 -124q20 -63 20 -145q0 -289 -256 -346v-152q0 -28 -29 -28h-65
q-29 0 -29 28v140q-141 0 -229 28q-33 10 -33 39v78q0 35 37 25q110 -29 209 -29q241 0 241 221q0 55 -15 98q-14 42 -56 88q-35 38 -69 69q-12 10 -97 79q-55 42 -95 81q-38 37 -80 87q-44 53 -65 119q-20 63 -20 143q0 297 264 336v147q0 29 29 29h65q29 0 29 -29z" />
    <glyph glyph-name="percent" unicode="%" horiz-adv-x="1404" 
d="M1102 1409l-653 -1386q-11 -23 -33 -23h-97q-28 0 -16 29l651 1386q11 23 35 23h96q29 0 17 -29zM53 1047q0 403 260 403t260 -403q0 -404 -260 -404t-260 404zM440 1047q0 278 -127 278t-127 -278q0 -279 127 -279t127 279zM831 391q0 404 261 404q260 0 260 -404
q0 -403 -260 -403q-261 0 -261 403zM1219 391q0 279 -127 279t-127 -279q0 -278 127 -278t127 278z" />
    <glyph glyph-name="ampersand" unicode="&#x26;" horiz-adv-x="1073" 
d="M977 520q0 -153 -80 -301l117 -190q8 -12 4 -20q-4 -9 -17 -9h-102q-19 0 -33 20l-59 95q-61 -67 -131 -99t-182 -32q-200 0 -310 107t-110 323q0 154 71 277q72 124 201 175l-33 56q-88 152 -88 266q0 268 305 268q106 0 170 -20q31 -8 31 -37v-64q0 -32 -35 -26
q-60 18 -137 18q-108 0 -152 -35q-45 -36 -45 -116q0 -86 78 -209l377 -613q29 81 29 170q0 46 -10 119q0 27 28 27h76q22 0 27 -29q10 -54 10 -121zM494 117q161 0 243 112l-323 523q-94 -42 -140 -132q-47 -92 -47 -202q0 -144 70 -223q69 -78 197 -78z" />
    <glyph glyph-name="quotesingle" unicode="'" horiz-adv-x="339" 
d="M233 1278l-28 -297h-70l-31 297q-6 68 -6 127q0 38 17 55t55 17t55 -17t17 -55q0 -19 -9 -127z" />
    <glyph glyph-name="parenleft" unicode="(" horiz-adv-x="507" 
d="M111 608q0 240 63 455q64 216 168 373q10 18 35 18h67q15 0 18 -10q3 -11 -3 -19q-86 -160 -143 -377q-56 -214 -56 -440q0 -224 56 -438q57 -217 143 -377q15 -29 -15 -29h-67q-24 0 -35 17q-104 158 -168 375q-63 214 -63 452z" />
    <glyph glyph-name="parenright" unicode=")" horiz-adv-x="507" 
d="M397 608q0 -238 -63 -452q-64 -217 -168 -375q-11 -17 -33 -17h-70q-29 0 -14 29q87 157 145 377q56 214 56 438q0 226 -56 440q-58 220 -145 377q-7 8 -2 19q4 10 16 10h70q23 0 33 -18q104 -157 168 -373q63 -215 63 -455z" />
    <glyph glyph-name="asterisk" unicode="*" horiz-adv-x="710" 
d="M356 842q-30 0 -41 12q-10 11 -10 43q0 23 9 96q3 27 14 109q-18 -12 -64 -47q-12 -9 -32.5 -25t-28.5 -22q-28 -21 -41 -27q-47 -31 -74 14q-22 43 25 72q1 1 16.5 9t26.5 13q10 5 71 30q58 24 74 32q-5 2 -30.5 13t-42.5 18q-51 21 -71 30q-10 5 -25 12t-19 9
q-49 28 -25 72q24 45 74 16q24 -12 78 -56q47 -38 88 -67q-11 82 -14 109q-9 73 -9 96q0 31 10 44t41 13q29 0 39 -13t10 -44q0 -23 -9 -96q-3 -24 -7 -60.5t-6 -48.5q41 29 88 67q54 44 78 56q50 29 74 -16t-25 -72q-4 -2 -19 -9t-25 -12q-7 -3 -72 -30q-16 -7 -40.5 -17.5
l-31.5 -13.5q49 -22 74 -33q14 -6 37.5 -16.5t33.5 -14.5q19 -8 43 -20q28 -17 32 -31q5 -15 -7 -41q-24 -44 -74 -14q-16 7 -41 26q-5 4 -16.5 12.5t-23.5 17t-23 17.5q-30 24 -62 48q2 -12 6 -48.5t7 -60.5q10 -82 10 -96q0 -30 -11 -43q-11 -12 -39 -12z" />
    <glyph glyph-name="plus" unicode="+" horiz-adv-x="962" 
d="M848 657h-299v-370q0 -27 -27 -27h-80q-28 0 -28 27v370h-301q-27 0 -27 27v72q0 26 29 26h299v363q0 29 28 29h80q27 0 27 -29v-363h299q29 0 29 -26v-72q0 -27 -29 -27z" />
    <glyph glyph-name="comma" unicode="," horiz-adv-x="360" 
d="M256 4l-57 -170q-7 -20 -29 -20h-35q-23 0 -16 26l39 160h-31q-29 0 -29 29v147q0 29 29 29h106q29 0 29 -29v-137q0 -14 -6 -35z" />
    <glyph glyph-name="hyphen" unicode="-" horiz-adv-x="555" 
d="M455 489h-359q-26 0 -26 27v72q0 26 28 26h357q28 0 28 -26v-72q0 -27 -28 -27z" />
    <glyph glyph-name="period" unicode="." horiz-adv-x="360" 
d="M98 29v147q0 29 29 29h106q29 0 29 -29v-147q0 -29 -29 -29h-106q-29 0 -29 29z" />
    <glyph glyph-name="slash" unicode="/" horiz-adv-x="598" 
d="M14 31l424 1382q6 27 35 27h86q35 0 25 -33l-424 -1380q-8 -27 -33 -27h-88q-36 0 -25 31z" />
    <glyph glyph-name="zero" unicode="0" horiz-adv-x="962" 
d="M481 1454q197 0 296 -173q100 -174 100 -562t-100 -562q-99 -173 -296 -173t-296 173t-99 562t99 562t296 173zM481 123q119 0 179 139q61 142 61 457t-61 457q-60 139 -179 139t-179 -139q-60 -140 -60 -457t60 -457q60 -139 179 -139z" />
    <glyph glyph-name="one" unicode="1" horiz-adv-x="675" 
d="M338 31v1212l-193 -176q-17 -15 -32 0l-62 66q-17 17 0 32l281 260q18 13 37 13h92q31 0 31 -31v-1376q0 -31 -31 -31h-92q-31 0 -31 31z" />
    <glyph glyph-name="two" unicode="2" horiz-adv-x="864" 
d="M233 1083q0 -5 1.5 -19t1.5 -21q2 -34 2 -37q0 -27 -29 -27h-88q-24 0 -29 35q-4 47 -4 78q0 164 86 264q85 98 258 98q180 0 262 -106t82 -281q0 -112 -36 -229q-35 -115 -83 -207q-48 -93 -123 -193q-70 -94 -130 -162q-53 -60 -128 -137h484q31 0 31 -30v-78
q0 -31 -31 -31h-660q-30 0 -30 31v63q0 21 20 41q533 533 533 926q0 254 -197 254q-193 0 -193 -232z" />
    <glyph glyph-name="three" unicode="3" horiz-adv-x="802" 
d="M260 817h88q195 0 195 262q0 121 -49 179q-50 59 -164 59q-100 0 -219 -35q-31 -5 -31 23v77q0 23 26 33q100 39 230 39q360 0 360 -364q0 -248 -164 -322q193 -66 193 -344q0 -231 -99 -336q-98 -104 -309 -104q-138 0 -237 34q-27 8 -27 31v86q0 31 33 23
q145 -37 213 -37q143 0 208 72q64 71 64 229q0 260 -219 260h-92q-31 0 -31 27v82q0 26 31 26z" />
    <glyph glyph-name="four" unicode="4" horiz-adv-x="925" 
d="M702 0h-90q-30 0 -30 31v297h-498q-31 0 -31 30v74q0 18 13 41l499 940q13 25 37 25h100q31 0 31 -31v-944h133q31 0 31 -31v-74q0 -30 -31 -30h-133v-297q0 -31 -31 -31zM584 1171l-375 -708h375v708z" />
    <glyph glyph-name="five" unicode="5" horiz-adv-x="819" 
d="M737 457q0 -473 -432 -473q-129 0 -221 32q-27 7 -27 33v80q0 31 33 23q115 -31 207 -31q148 0 217 83q70 84 70 253q0 146 -50 225q-49 78 -182 78q-66 0 -129 -22q-60 -21 -63 -21q-12 0 -27 6l-37 16q-14 7 -12 35q29 427 29 633q0 31 30 31h502q31 0 31 -31v-78
q0 -31 -31 -31h-399q-6 -222 -23 -432q79 31 158 31q182 0 269 -117t87 -323z" />
    <glyph glyph-name="six" unicode="6" horiz-adv-x="909" 
d="M678 1288q-84 27 -162 27q-153 0 -213 -127q-58 -124 -63 -430q27 77 95 123q70 47 163 47q338 0 338 -465q0 -220 -91 -350q-90 -129 -262 -129q-211 0 -304 176q-93 175 -93 542q0 400 93 576t327 176q98 0 176 -29q27 -7 27 -32v-82q0 -34 -31 -23zM479 121
q103 0 154 91q51 92 51 247q0 334 -207 334q-98 0 -158 -77q-59 -75 -59 -245q0 -80 20 -158q20 -77 71 -134q52 -58 128 -58z" />
    <glyph glyph-name="seven" unicode="7" horiz-adv-x="798" 
d="M221 29q0 298 111 670q110 370 246 599h-494q-31 0 -31 31v78q0 31 31 31h627q30 0 30 -31v-76q0 -22 -16 -45q-142 -247 -245 -595q-101 -342 -101 -662q0 -29 -29 -29h-98q-31 0 -31 29z" />
    <glyph glyph-name="eight" unicode="8" horiz-adv-x="905" 
d="M453 -18q-182 0 -276 98q-95 100 -95 270q0 284 242 398q-224 114 -224 364q0 157 93 250q92 92 260 92q169 0 260 -91q92 -92 92 -251q0 -250 -223 -364q241 -114 241 -398q0 -170 -95 -270q-94 -98 -275 -98zM453 1323q-205 0 -205 -211t205 -301q204 89 204 301
q0 211 -204 211zM453 680q-220 -89 -220 -320q0 -243 220 -243q219 0 219 243q0 232 -219 320z" />
    <glyph glyph-name="nine" unicode="9" horiz-adv-x="909" 
d="M231 147q81 -26 162 -26q153 0 213 127q59 126 64 430q-27 -76 -96 -123q-70 -47 -162 -47q-338 0 -338 465q0 221 90 350t262 129q211 0 304 -176t93 -543q0 -399 -93 -575t-327 -176q-101 0 -176 28q-26 7 -26 33v82q0 33 30 22zM430 1315q-103 0 -154 -91
q-51 -92 -51 -247q0 -334 207 -334q98 0 158 77q59 75 59 245q0 82 -19 157t-72 134t-128 59z" />
    <glyph glyph-name="colon" unicode=":" horiz-adv-x="409" 
d="M123 29v147q0 29 29 29h106q29 0 29 -29v-147q0 -29 -29 -29h-106q-29 0 -29 29zM123 918v147q0 29 29 29h106q29 0 29 -29v-147q0 -29 -29 -29h-106q-29 0 -29 29z" />
    <glyph glyph-name="semicolon" unicode=";" horiz-adv-x="409" 
d="M123 918v147q0 29 29 29h106q29 0 29 -29v-147q0 -29 -29 -29h-106q-29 0 -29 29zM281 4l-58 -170q-7 -20 -28 -20h-35q-24 0 -17 26l39 160h-30q-29 0 -29 29v147q0 29 29 29h106q29 0 29 -29v-137q0 -14 -6 -35z" />
    <glyph glyph-name="less" unicode="&#x3c;" horiz-adv-x="962" 
d="M123 719q0 10 12 22l549 551q20 20 41 0l55 -53q16 -18 0 -39l-481 -481l481 -483q16 -16 0 -37l-55 -56q-21 -21 -41 0l-549 551q-12 12 -12 25z" />
    <glyph glyph-name="equal" unicode="=" horiz-adv-x="962" 
d="M831 842h-702q-27 0 -27 26v72q0 27 29 27h700q29 0 29 -27v-72q0 -26 -29 -26zM831 473h-702q-27 0 -27 27v71q0 27 29 27h700q29 0 29 -27v-71q0 -27 -29 -27z" />
    <glyph glyph-name="greater" unicode="&#x3e;" horiz-adv-x="962" 
d="M840 719q0 -12 -13 -25l-548 -551q-20 -23 -41 0l-54 56q-18 19 0 37l482 483l-482 481q-21 21 0 39l54 53q24 21 41 0l548 -551q13 -13 13 -22z" />
    <glyph glyph-name="question" unicode="?" horiz-adv-x="724" 
d="M260 29v153q0 29 29 29h114q29 0 29 -29v-153q0 -29 -29 -29h-114q-29 0 -29 29zM420 506v-78q0 -29 -29 -29h-86q-29 0 -29 29v78q0 69 32 147q30 72 69 132q35 53 68 146q32 90 32 183q0 201 -192 201q-41 0 -79 -6q-28 -4 -72 -16q-10 -3 -19 -5.5t-14.5 -4t-6.5 -1.5
q-33 -6 -33 23v81q0 21 27 33q75 35 225 35q322 0 322 -330q0 -106 -34 -196q-36 -96 -74 -149q-34 -48 -73 -129q-34 -71 -34 -144z" />
    <glyph glyph-name="at" unicode="@" horiz-adv-x="1556" 
d="M913 434l43 381q-61 8 -84 8q-105 0 -170 -68t-86 -159q-20 -86 -20 -203q0 -209 135 -209q77 0 124 68q46 67 58 182zM1102 -78q22 4 22 -18v-62q0 -20 -18 -22q-117 -37 -291 -37q-696 0 -696 653q0 376 189 584q189 209 517 209q617 0 617 -608q0 -253 -108 -401
t-292 -148h-79q-40 0 -41 32l-7 93q-66 -134 -202 -134q-121 0 -190 85q-68 84 -68 239q0 110 21 205q20 90 69 177q47 83 133 130t205 47q118 0 200 -31q22 -10 21 -30l-80 -703h25q134 0 206 116q72 115 72 325q0 245 -119 370t-385 125q-271 0 -430 -178
q-160 -180 -160 -504q0 -289 149 -418q148 -129 433 -129q157 0 287 33z" />
    <glyph glyph-name="A" unicode="A" horiz-adv-x="942" 
d="M315 528h312l-154 729h-4zM408 1438h127q34 0 40 -33l320 -1372q6 -33 -27 -33h-92q-27 0 -33 29l-84 360h-376l-84 -360q-6 -29 -33 -29h-92q-33 0 -27 33l320 1372q6 33 41 33z" />
    <glyph glyph-name="B" unicode="B" horiz-adv-x="942" 
d="M262 807h176q128 0 189 60t61 194q0 133 -57 184t-187 51h-182v-489zM457 0h-316q-30 0 -30 31v1376q0 31 30 31h310q391 0 391 -369q0 -138 -52 -214t-126 -103q208 -63 208 -351q0 -211 -105 -306q-106 -95 -310 -95zM262 141h184q138 0 205 61q66 60 66 208
q0 138 -63 200q-64 62 -199 62h-193v-531z" />
    <glyph glyph-name="C" unicode="C" horiz-adv-x="802" 
d="M549 127q65 0 149 20q35 11 35 -26v-74q0 -26 -31 -37q-71 -26 -174 -26q-237 0 -341 164q-105 165 -105 571t103 570q103 165 337 165q101 0 170 -24q31 -11 31 -37v-74q0 -38 -35 -27q-84 19 -145 19q-169 0 -236 -126q-67 -125 -67 -466q0 -342 68 -466
q69 -126 241 -126z" />
    <glyph glyph-name="D" unicode="D" horiz-adv-x="946" 
d="M395 0h-254q-30 0 -30 31v1376q0 31 30 31h250q244 0 361 -162q116 -161 116 -557q0 -398 -115 -558q-116 -161 -358 -161zM391 1294h-127v-1151h131q163 0 239 127q77 128 77 449q0 323 -78 449t-242 126z" />
    <glyph glyph-name="E" unicode="E" horiz-adv-x="770" 
d="M641 666h-377v-523h398q30 0 30 -30v-82q0 -31 -30 -31h-521q-30 0 -30 31v1376q0 31 30 31h514q31 0 31 -31v-82q0 -31 -31 -31h-391v-489h377q31 0 31 -31v-78q0 -30 -31 -30z" />
    <glyph glyph-name="F" unicode="F" horiz-adv-x="747" 
d="M641 649h-377v-618q0 -31 -31 -31h-92q-30 0 -30 31v1376q0 31 30 31h514q31 0 31 -31v-82q0 -31 -31 -31h-391v-506h377q31 0 31 -30v-78q0 -31 -31 -31z" />
    <glyph glyph-name="G" unicode="G" horiz-adv-x="905" 
d="M477 827h299q31 0 31 -30v-719q0 -32 -31 -51q-68 -43 -231 -43q-251 0 -357 162q-106 163 -106 575q0 410 106 571q106 162 371 162q101 0 176 -22q31 -11 31 -39v-78q0 -31 -39 -25q-78 21 -158 21q-192 0 -261 -124q-68 -123 -68 -466t67 -468q67 -126 244 -126
q60 0 102 16v545h-176q-31 0 -31 31v78q0 30 31 30z" />
    <glyph glyph-name="H" unicode="H" horiz-adv-x="954" 
d="M690 31v633h-426v-633q0 -31 -31 -31h-92q-30 0 -30 31v1376q0 31 30 31h92q31 0 31 -31v-600h426v600q0 31 31 31h92q31 0 31 -31v-1376q0 -31 -31 -31h-92q-31 0 -31 31z" />
    <glyph glyph-name="I" unicode="I" horiz-adv-x="399" 
d="M123 31v1376q0 31 31 31h92q30 0 30 -31v-1376q0 -31 -30 -31h-92q-31 0 -31 31z" />
    <glyph glyph-name="J" unicode="J" horiz-adv-x="593" 
d="M334 346v1061q0 31 31 31h92q30 0 30 -31v-1075q0 -188 -63 -266t-213 -78q-81 0 -129 16q-33 10 -33 41v76q0 30 31 24q57 -14 106 -14q80 0 114 45q34 44 34 170z" />
    <glyph glyph-name="K" unicode="K" horiz-adv-x="860" 
d="M264 825l400 590q17 23 41 23h98q16 0 22 -12q6 -11 -4 -25l-432 -645l436 -719q10 -16 4 -27q-6 -10 -24 -10h-111q-24 0 -39 27l-391 647v-643q0 -31 -31 -31h-92q-30 0 -30 31v1376q0 31 30 31h92q31 0 31 -31v-582z" />
    <glyph glyph-name="L" unicode="L" horiz-adv-x="716" 
d="M264 1407v-1264h361q30 0 30 -30v-82q0 -31 -30 -31h-484q-30 0 -30 31v1376q0 31 30 31h92q31 0 31 -31z" />
    <glyph glyph-name="M" unicode="M" horiz-adv-x="1110" 
d="M555 414q-21 0 -29 18l-266 637v-1038q0 -31 -31 -31h-88q-30 0 -30 31v1376q0 31 30 31h90q25 0 33 -21l291 -723l291 723q8 21 33 21h90q30 0 30 -31v-1376q0 -31 -30 -31h-88q-31 0 -31 31v1038l-266 -637q-8 -18 -29 -18z" />
    <glyph glyph-name="N" unicode="N" horiz-adv-x="970" 
d="M860 1407v-1376q0 -31 -31 -31h-92q-29 0 -41 27l-436 1067v-1063q0 -31 -31 -31h-88q-30 0 -30 31v1376q0 31 30 31h92q29 0 41 -27l437 -1067v1063q0 31 30 31h88q31 0 31 -31z" />
    <glyph glyph-name="O" unicode="O" horiz-adv-x="991" 
d="M496 1454q210 0 312 -167q101 -165 101 -568t-101 -568q-102 -167 -312 -167q-211 0 -313 167q-101 165 -101 568t101 568q102 167 313 167zM496 123q133 0 194 133q62 135 62 463t-62 463q-61 133 -194 133q-134 0 -195 -133q-61 -132 -61 -463t61 -463
q61 -133 195 -133z" />
    <glyph glyph-name="P" unicode="P" horiz-adv-x="884" 
d="M264 588h117q150 0 207 74t57 280t-57 278t-207 72h-117v-704zM233 0h-92q-30 0 -30 31v1374q0 31 30 31h238q232 0 328 -110t96 -386t-96 -386t-326 -110h-117v-413q0 -31 -31 -31z" />
    <glyph glyph-name="Q" unicode="Q" horiz-adv-x="991" 
d="M625 10q81 -37 163 -37q20 0 32 1t24 1q30 0 30 -26v-72q0 -35 -40 -35q-221 0 -390 152q-121 12 -200 83q-78 71 -120 228t-42 414q0 403 101 568q102 167 313 167q210 0 312 -167q101 -165 101 -568q0 -618 -284 -709zM496 123q133 0 194 133q62 135 62 463
q0 327 -62 462q-62 134 -194 134q-134 0 -195 -133q-61 -132 -61 -463t61 -463q61 -133 195 -133z" />
    <glyph glyph-name="R" unicode="R" horiz-adv-x="892" 
d="M264 657h137q146 0 199 68t53 248q0 187 -55 254t-207 67h-127v-637zM141 1438h254q227 0 322 -107q94 -106 94 -358q0 -390 -254 -443l236 -493q18 -37 -21 -37h-94q-30 0 -41 25l-231 489h-142v-483q0 -31 -31 -31h-92q-30 0 -30 31v1376q0 31 30 31z" />
    <glyph glyph-name="S" unicode="S" horiz-adv-x="757" 
d="M688 342q0 -176 -93 -267q-92 -91 -271 -91q-137 0 -215 24q-33 10 -33 39v78q0 40 37 25q98 -25 194 -25q228 0 228 221q0 104 -52 174q-53 71 -168 160q-116 92 -178 186q-63 96 -63 244q0 171 82 257q82 87 270 87q99 0 178 -20q31 -8 31 -39v-78q0 -35 -39 -25
q-68 21 -162 21q-114 0 -160 -51q-47 -52 -47 -154t49 -170q48 -67 146 -145q59 -46 106 -91q42 -40 81 -92q44 -58 61 -121q18 -66 18 -147z" />
    <glyph glyph-name="T" unicode="T" horiz-adv-x="739" 
d="M45 1325v82q0 31 31 31h588q30 0 30 -31v-82q0 -31 -30 -31h-218v-1263q0 -31 -30 -31h-92q-31 0 -31 31v1263h-217q-31 0 -31 31z" />
    <glyph glyph-name="U" unicode="U" horiz-adv-x="933" 
d="M467 -16q-190 0 -276 104q-87 105 -87 332v987q0 31 31 31h92q31 0 31 -31v-975q0 -167 46 -235q47 -70 163 -70t163 70q46 68 46 235v975q0 31 31 31h92q30 0 30 -31v-987q0 -227 -87 -332q-86 -104 -275 -104z" />
    <glyph glyph-name="V" unicode="V" horiz-adv-x="921" 
d="M526 0h-131q-33 0 -41 35l-303 1370q-6 33 25 33h102q27 0 33 -31l192 -903l56 -326h4l55 326l193 903q6 31 32 31h103q30 0 24 -33l-303 -1370q-8 -35 -41 -35z" />
    <glyph glyph-name="W" unicode="W" horiz-adv-x="1482" 
d="M690 1438h103q32 0 38 -31l162 -852l64 -373h4l55 373l150 852q6 31 32 31h101q30 0 24 -33l-258 -1370q-8 -35 -41 -35h-131q-35 0 -41 35l-153 762l-56 350h-4l-57 -350l-152 -762q-6 -35 -41 -35h-131q-35 0 -41 35l-258 1370q-6 33 25 33h100q27 0 33 -31l150 -852
l55 -373h4l63 373l162 852q6 31 39 31z" />
    <glyph glyph-name="X" unicode="X" horiz-adv-x="868" 
d="M434 555l-227 -528q-11 -27 -41 -27h-98q-16 0 -20 10q-5 11 1 25l303 692l-295 676q-5 14 -1 24q5 11 20 11h100q30 0 41 -27l217 -510l217 510q11 27 41 27h101q14 0 19 -11q4 -10 -1 -24l-295 -676l303 -692q6 -14 1 -25q-4 -10 -19 -10h-99q-30 0 -40 27z" />
    <glyph glyph-name="Y" unicode="Y" horiz-adv-x="899" 
d="M526 549v-518q0 -31 -30 -31h-93q-30 0 -30 31v518l-328 854q-12 35 23 35h100q26 0 37 -29l174 -483l70 -215h2l69 215l174 483q11 29 37 29h100q35 0 23 -35z" />
    <glyph glyph-name="Z" unicode="Z" horiz-adv-x="798" 
d="M70 31v82q0 14 12 43l475 1138h-436q-31 0 -31 31v82q0 31 31 31h569q31 0 31 -31v-80q0 -21 -12 -45l-476 -1139h465q31 0 31 -30v-82q0 -31 -31 -31h-598q-30 0 -30 31z" />
    <glyph glyph-name="bracketleft" unicode="[" horiz-adv-x="507" 
d="M442 -131v-66q0 -28 -28 -28h-242q-29 0 -29 28v1606q0 29 29 29h242q28 0 28 -29v-66q0 -28 -28 -28h-127v-1417h127q28 0 28 -29z" />
    <glyph glyph-name="backslash" unicode="\" horiz-adv-x="598" 
d="M160 1413l424 -1382q11 -31 -25 -31h-86q-27 0 -35 27l-424 1380q-10 33 25 33h88q27 0 33 -27z" />
    <glyph glyph-name="bracketright" unicode="]" horiz-adv-x="512" 
d="M70 -197v66q0 29 28 29h127v1417h-127q-28 0 -28 28v66q0 29 28 29h242q29 0 29 -29v-1606q0 -28 -29 -28h-242q-28 0 -28 28z" />
    <glyph glyph-name="asciicircum" unicode="^" horiz-adv-x="962" 
d="M442 1438h78q25 0 37 -27l299 -659q12 -33 -20 -33h-93q-22 0 -34 26l-228 512l-227 -512q-12 -26 -35 -26h-94q-35 0 -19 33l300 659q10 27 36 27z" />
    <glyph glyph-name="underscore" unicode="_" horiz-adv-x="761" 
d="M694 -193h-626q-27 0 -27 27v51q0 27 27 27h626q27 0 27 -27v-51q0 -27 -27 -27z" />
    <glyph glyph-name="grave" unicode="`" horiz-adv-x="520" 
d="M313 1389l76 -164q5 -9 0 -17t-16 -8h-56q-19 0 -36 19l-146 161q-11 8 -6 21q5 12 21 12h129q19 0 34 -24z" />
    <glyph glyph-name="a" unicode="a" horiz-adv-x="778" 
d="M684 795v-766q0 -29 -29 -29h-77q-29 0 -29 29v114q-66 -155 -240 -155q-120 0 -186 82t-66 227q0 209 127 291t361 88v108q0 100 -39 147q-39 46 -129 46q-113 0 -223 -43q-10 -4 -22 2q-11 6 -11 20v78q0 28 24 35q108 41 244 41q156 0 225 -78q70 -79 70 -237z
M545 393v164q-175 -6 -261 -58q-87 -52 -87 -200q0 -182 143 -182q90 0 147 80q58 81 58 196z" />
    <glyph glyph-name="b" unicode="b" horiz-adv-x="868" 
d="M244 547q0 -432 213 -432q104 0 149 101q45 102 45 331t-45 331q-45 101 -149 101q-213 0 -213 -432zM246 145v-116q0 -29 -29 -29h-86q-29 0 -29 29v1380q0 29 29 29h86q29 0 29 -29v-461q21 69 84 115q64 47 149 47q320 0 320 -563t-320 -563q-87 0 -149 44t-84 117z
" />
    <glyph glyph-name="c" unicode="c" horiz-adv-x="647" 
d="M70 547q0 287 84 425t260 138q88 0 145 -23q31 -11 31 -36v-72q0 -31 -33 -21q-54 17 -123 17q-118 0 -168 -99q-49 -98 -49 -329q0 -229 50 -329q49 -99 171 -99q67 0 127 18q33 11 33 -20v-72q0 -26 -31 -37q-61 -24 -149 -24q-178 0 -263 138q-85 137 -85 425z" />
    <glyph glyph-name="d" unicode="d" horiz-adv-x="868" 
d="M625 547q0 432 -213 432q-105 0 -150 -101q-45 -102 -45 -331t45 -331q45 -101 150 -101q213 0 213 432zM623 29v114q-22 -71 -84 -115t-150 -44q-319 0 -319 563t319 563q86 0 150 -47q63 -46 84 -115v461q0 29 28 29h86q29 0 29 -29v-1380q0 -29 -29 -29h-86
q-28 0 -28 29z" />
    <glyph glyph-name="e" unicode="e" horiz-adv-x="774" 
d="M471 113q77 0 166 30q11 4 22 -2t11 -22v-70q0 -26 -29 -37q-81 -28 -178 -28q-203 0 -298 138q-95 139 -95 425q0 563 331 563q304 0 304 -498v-106q0 -29 -33 -29h-459q15 -364 258 -364zM399 981q-90 0 -135 -90t-51 -285h348v15q0 176 -35 269q-34 91 -127 91z" />
    <glyph glyph-name="f" unicode="f" horiz-adv-x="516" 
d="M305 1094h160q29 0 29 -29v-78q0 -29 -29 -29h-160v-929q0 -29 -26 -29h-86q-29 0 -29 29v929h-90q-29 0 -29 29v78q0 29 29 29h90v75q0 151 53 215t174 64q49 0 86 -12q19 -6 19 -31v-66q0 -26 -29 -26l-26 2q-26 2 -29 2q-61 0 -84 -32t-23 -122v-69z" />
    <glyph glyph-name="g" unicode="g" horiz-adv-x="839" 
d="M600 592q0 190 -53 290q-53 99 -148 99q-96 0 -140 -95q-44 -96 -44 -294q0 -197 44 -293q43 -94 140 -94t149 98t52 289zM741 1065v-961q0 -170 -91 -258t-263 -88q-131 0 -217 33q-25 8 -25 35v76q0 32 33 22q112 -33 205 -33q215 0 215 224v123q-23 -74 -82 -117
t-139 -43q-307 0 -307 514q0 518 303 518q77 0 141 -47q63 -46 84 -115v117q0 29 29 29h86q28 0 28 -29z" />
    <glyph glyph-name="h" unicode="h" horiz-adv-x="843" 
d="M750 774v-745q0 -29 -29 -29h-86q-29 0 -29 29v727q0 217 -153 217q-101 0 -154 -78q-53 -79 -53 -209v-657q0 -29 -29 -29h-86q-29 0 -29 29v1380q0 29 29 29h86q29 0 29 -29v-448q27 61 87 105q61 44 152 44q132 0 198 -91q67 -93 67 -245z" />
    <glyph glyph-name="i" unicode="i" horiz-adv-x="356" 
d="M250 1065v-1036q0 -29 -29 -29h-86q-29 0 -29 29v1036q0 29 29 29h86q29 0 29 -29zM254 1399v-142q0 -28 -29 -28h-94q-29 0 -29 28v142q0 28 29 28h94q29 0 29 -28z" />
    <glyph glyph-name="j" unicode="j" horiz-adv-x="376" 
d="M127 14v1051q0 29 29 29h86q28 0 28 -29v-1063q0 -130 -42 -183q-42 -52 -148 -52q-28 0 -68 8q-24 6 -24 30v72q0 31 28 27q22 -2 41 -2q38 0 54 22t16 90zM274 1399v-142q0 -28 -28 -28h-94q-29 0 -29 28v142q0 28 29 28h94q28 0 28 -28z" />
    <glyph glyph-name="k" unicode="k" horiz-adv-x="737" 
d="M694 0h-98q-25 0 -41 25l-309 493v-489q0 -29 -29 -29h-86q-29 0 -29 29v1380q0 29 29 29h86q29 0 29 -29v-723l301 383q19 25 43 25h96q18 0 25 -13q6 -11 -6 -26l-353 -447l361 -571q10 -14 5 -26q-4 -11 -24 -11z" />
    <glyph glyph-name="l" unicode="l" horiz-adv-x="356" 
d="M250 1409v-1380q0 -29 -29 -29h-86q-29 0 -29 29v1380q0 29 29 29h86q29 0 29 -29z" />
    <glyph glyph-name="m" unicode="m" horiz-adv-x="1269" 
d="M709 719v-690q0 -29 -29 -29h-86q-29 0 -29 29v735q0 104 -30 157q-30 52 -105 52q-90 0 -139 -76t-49 -201v-667q0 -29 -29 -29h-86q-29 0 -29 29v1036q0 29 29 29h86q29 0 29 -29v-104q22 58 80 104q57 45 141 45q167 0 213 -166q28 73 95 120q65 46 159 46
q120 0 183 -89q63 -88 63 -239v-753q0 -29 -29 -29h-86q-29 0 -29 29v735q0 103 -31 157q-30 52 -104 52q-85 0 -137 -73q-51 -72 -51 -181z" />
    <glyph glyph-name="n" unicode="n" horiz-adv-x="831" 
d="M737 774v-745q0 -29 -28 -29h-86q-29 0 -29 29v727q0 106 -35 162q-34 55 -117 55q-98 0 -151 -77t-53 -210v-657q0 -29 -29 -29h-86q-29 0 -29 29v1036q0 29 29 29h86q29 0 29 -29v-104q27 63 86 105q61 44 151 44q131 0 197 -91q65 -90 65 -245z" />
    <glyph glyph-name="o" unicode="o" horiz-adv-x="831" 
d="M416 -16q-176 0 -261 138q-85 137 -85 425t85 425q85 138 261 138t261 -138q85 -137 85 -425t-85 -425q-85 -138 -261 -138zM416 115q102 0 150 102t48 330t-48 330t-150 102q-103 0 -151 -102t-48 -330t48 -330t151 -102z" />
    <glyph glyph-name="p" unicode="p" horiz-adv-x="864" 
d="M240 547q0 -432 213 -432q104 0 149 101q45 102 45 331t-45 331q-45 101 -149 101q-213 0 -213 -432zM242 1065v-117q21 69 84 115q64 47 149 47q320 0 320 -563t-320 -563q-87 0 -149 44t-84 117v-342q0 -28 -29 -28h-86q-29 0 -29 28v1262q0 29 29 29h86q29 0 29 -29z
" />
    <glyph glyph-name="q" unicode="q" horiz-adv-x="864" 
d="M625 547q0 432 -213 432q-105 0 -150 -101q-45 -102 -45 -331t45 -331q45 -101 150 -101q213 0 213 432zM623 948v117q0 29 28 29h86q29 0 29 -29v-1262q0 -28 -29 -28h-86q-28 0 -28 28v342q-23 -73 -84 -117q-62 -44 -150 -44q-319 0 -319 563t319 563q86 0 150 -47
q63 -46 84 -115z" />
    <glyph glyph-name="r" unicode="r" horiz-adv-x="536" 
d="M127 1094h86q29 0 29 -29v-147q17 74 80 132q60 56 145 56q37 0 37 -31v-104q0 -27 -27 -27q-9 0 -21 1t-32 1q-82 0 -132 -89t-50 -224v-604q0 -29 -29 -29h-86q-29 0 -29 29v1036q0 29 29 29z" />
    <glyph glyph-name="s" unicode="s" horiz-adv-x="647" 
d="M590 287q0 -303 -309 -303q-120 0 -201 26q-27 8 -27 33v76q0 31 33 20q74 -26 184 -26q179 0 179 172q0 78 -40 124q-38 43 -143 113q-105 68 -156 136t-51 182q0 136 73 203t226 67q82 0 166 -23q25 -6 25 -32v-70q0 -28 -31 -22q-60 18 -143 18q-93 0 -134 -32
q-40 -31 -40 -113q0 -64 39 -111q40 -48 129 -104q116 -78 168 -146q53 -70 53 -188z" />
    <glyph glyph-name="t" unicode="t" horiz-adv-x="532" 
d="M453 958h-156v-667q0 -99 20 -132q21 -34 86 -34q9 0 52 6q28 4 28 -25v-73q0 -27 -24 -33q-36 -10 -80 -10q-122 0 -172 62q-51 63 -51 224v682h-90q-29 0 -29 29v78q0 29 29 29h94v231q0 29 28 29h80q29 0 29 -29v-231h156q28 0 28 -29v-78q0 -29 -28 -29z" />
    <glyph glyph-name="u" unicode="u" horiz-adv-x="823" 
d="M90 324v741q0 29 29 29h86q28 0 28 -29v-723q0 -109 34 -165t118 -56q91 0 144 78q53 79 53 209v657q0 29 28 29h86q29 0 29 -29v-1036q0 -29 -29 -29h-86q-28 0 -28 29v104q-61 -149 -230 -149q-132 0 -197 92t-65 248z" />
    <glyph glyph-name="v" unicode="v" horiz-adv-x="741" 
d="M424 0h-107q-30 0 -36 29l-242 1034q-6 31 22 31h93q26 0 32 -29l144 -659l39 -220h4l39 220l143 659q6 29 33 29h92q28 0 22 -31l-241 -1034q-6 -29 -37 -29z" />
    <glyph glyph-name="w" unicode="w" horiz-adv-x="1187" 
d="M547 1094h94q27 0 33 -29l129 -659l39 -230h4l31 230l116 659q6 29 33 29h88q29 0 23 -31l-203 -1034q-6 -29 -37 -29h-104q-31 0 -37 29l-117 573l-43 266h-4l-43 -266l-117 -573q-6 -29 -37 -29h-104q-31 0 -37 29l-203 1034q-6 31 23 31h88q27 0 33 -29l116 -659
l31 -230h4l39 230l129 659q6 29 33 29z" />
    <glyph glyph-name="x" unicode="x" horiz-adv-x="753" 
d="M195 1073l184 -391l180 391q11 21 33 21h92q32 0 16 -33l-247 -506l256 -524q12 -31 -17 -31h-100q-26 0 -33 20l-182 408l-187 -408q-7 -20 -32 -20h-97q-28 0 -16 31l256 524l-252 506q-17 33 17 33h96q22 0 33 -21z" />
    <glyph glyph-name="y" unicode="y" horiz-adv-x="745" 
d="M707 1063l-224 -979q-22 -93 -37 -139q-17 -51 -48 -97q-32 -46 -81 -66q-51 -20 -122 -20q-63 0 -99 13q-24 7 -24 32v72q0 31 30 27q59 -10 84 -10q113 0 113 114q0 35 -10 74l-246 979q-6 31 23 31h92q26 0 32 -29l152 -659l41 -218h4l37 218l135 659q6 29 33 29h92
q29 0 23 -31z" />
    <glyph glyph-name="z" unicode="z" horiz-adv-x="708" 
d="M625 1065v-57q0 -16 -11 -41l-378 -832h366q29 0 29 -29v-77q0 -29 -29 -29h-500q-28 0 -28 29v55q0 16 10 39l379 835h-350q-29 0 -29 29v78q0 29 29 29h483q29 0 29 -29z" />
    <glyph glyph-name="braceleft" unicode="{" horiz-adv-x="507" 
d="M49 565v82q0 27 29 27h24q45 0 60 83q14 77 14 308q0 209 43 291t166 82h53q29 0 29 -29v-66q0 -28 -29 -28h-30q-54 0 -73 -63q-20 -65 -20 -212q0 -230 -24 -322q-24 -91 -92 -112q68 -21 92 -111q24 -91 24 -323q0 -147 20 -212q19 -62 73 -62h30q29 0 29 -29v-66
q0 -28 -29 -28h-53q-123 0 -166 82t-43 290q0 232 -14 309q-15 83 -60 83h-24q-29 0 -29 26z" />
    <glyph glyph-name="bar" unicode="|" horiz-adv-x="507" 
d="M324 1450v-1647q0 -28 -29 -28h-82q-29 0 -29 28v1647q0 29 29 29h82q29 0 29 -29z" />
    <glyph glyph-name="braceright" unicode="}" horiz-adv-x="507" 
d="M459 647v-82q0 -26 -29 -26h-24q-45 0 -60 -84q-14 -78 -14 -310q0 -209 -43 -289q-43 -81 -166 -81h-53q-29 0 -29 28v66q0 29 29 29h30q54 0 73 62q20 65 20 212q0 232 24 323q24 90 92 111q-68 21 -92 112t-24 322q0 147 -20 212q-19 63 -73 63h-30q-29 0 -29 28v66
q0 29 29 29h53q123 0 166 -82t43 -291q0 -231 14 -308q15 -83 60 -83h24q29 0 29 -27z" />
    <glyph glyph-name="asciitilde" unicode="~" horiz-adv-x="962" 
d="M270 868q63 0 172 -47l105 -45q81 -35 123 -35q56 0 86 60l18 43q6 21 31 10l65 -27q17 -6 13 -30q-38 -199 -191 -199q-60 0 -172 47l-104 45q-81 35 -123 35q-57 0 -86 -59l-19 -43q-6 -21 -30 -11l-66 27q-17 6 -12 31q38 198 190 198z" />
    <glyph glyph-name="uni00A0" unicode="&#xa0;" horiz-adv-x="0" 
 />
    <glyph glyph-name="exclamdown" unicode="&#xa1;" horiz-adv-x="425" 
d="M299 1063v-154q0 -28 -29 -28h-114q-29 0 -29 28v154q0 29 29 29h114q29 0 29 -29zM180 692h66q28 0 28 -28l25 -859q0 -30 -29 -30h-114q-29 0 -29 30l25 859q0 28 28 28z" />
    <glyph glyph-name="cent" unicode="&#xa2;" horiz-adv-x="679" 
d="M74 547q0 264 71 399q72 137 226 160v143q0 29 28 29h66q29 0 29 -29v-143q64 -6 94 -19q30 -11 30 -36v-72q0 -31 -32 -21q-54 17 -129 17q-132 0 -184 -98t-52 -330q0 -230 54 -329t186 -99q73 0 133 18q33 11 33 -20v-72q0 -26 -31 -37q-37 -14 -102 -20v-144
q0 -28 -29 -28h-66q-28 0 -28 28v146q-154 23 -226 160q-71 135 -71 397z" />
    <glyph glyph-name="sterling" unicode="&#xa3;" horiz-adv-x="946" 
d="M246 659h-154q-29 0 -29 29v66q0 28 29 28h113q-72 211 -72 316q0 167 92 262q91 94 277 94q169 0 255 -85q87 -86 87 -241q0 -90 -27 -90h-84q-13 0 -21 6q-7 5 -5 19q4 36 4 63q0 189 -203 189q-223 0 -223 -219q0 -96 69 -314h262q29 0 29 -28v-66q0 -29 -29 -29h-223
q35 -120 35 -194q0 -207 -145 -313q54 22 106 22q55 0 129 -24q77 -25 119 -25q114 0 119 209q0 26 28 26h74q31 0 31 -34q0 -340 -211 -340q-75 0 -172 29q-100 30 -168 30q-99 0 -188 -53q-19 -12 -29 4l-53 80q-12 16 4 26q204 140 204 367q0 71 -30 190z" />
    <glyph glyph-name="currency" unicode="&#xa4;" horiz-adv-x="983" 
d="M78 252l110 110q-32 83 -32 218q0 132 32 215l-110 112q-20 21 0 41l45 45q21 21 41 0l88 -88q88 105 240 105q150 0 239 -105l88 88q21 21 41 0l45 -45q21 -20 0 -41l-112 -112q34 -90 34 -215q0 -128 -34 -218l112 -110q21 -20 0 -41l-45 -45q-20 -20 -41 0l-88 88
q-88 -104 -239 -104q-152 0 -240 104l-88 -88q-20 -20 -41 0l-45 45q-20 21 0 41zM700 580q0 313 -208 313q-209 0 -209 -313q0 -314 209 -314q208 0 208 314z" />
    <glyph glyph-name="yen" unicode="&#xa5;" horiz-adv-x="931" 
d="M543 373v-342q0 -31 -31 -31h-92q-31 0 -31 31v342h-266q-29 0 -29 28v62q0 29 29 29h266v45l-51 127h-215q-29 0 -29 28v62q0 28 29 28h168l-246 621q-12 35 23 35h100q26 0 37 -29l260 -702h2l260 702q11 29 37 29h100q35 0 23 -35l-248 -621h170q29 0 29 -28v-62
q0 -28 -29 -28h-217l-49 -127v-45h266q29 0 29 -29v-62q0 -28 -29 -28h-266z" />
    <glyph glyph-name="brokenbar" unicode="&#xa6;" horiz-adv-x="507" 
d="M324 1450v-623q0 -28 -29 -28h-82q-29 0 -29 28v623q0 29 29 29h82q29 0 29 -29zM324 426v-623q0 -28 -29 -28h-82q-29 0 -29 28v623q0 29 29 29h82q29 0 29 -29z" />
    <glyph glyph-name="section" unicode="&#xa7;" horiz-adv-x="983" 
d="M135 653q0 94 52 162q53 70 141 92q-148 115 -148 252q0 150 82 223q83 74 262 74q134 0 226 -29q30 -7 30 -38v-76q0 -33 -39 -23q-116 29 -198 29q-115 0 -163 -42t-48 -128q0 -24 6 -45q6 -20 22 -41q17 -22 28 -34q12 -13 43 -34q27 -18 43 -28q38 -24 51 -31
q12 -7 22.5 -13t18 -10.5t9.5 -5.5q139 -81 207 -152q70 -73 70 -190q0 -90 -49 -157q-51 -69 -135 -93q147 -111 147 -252q0 -143 -93 -220q-92 -76 -280 -76q-159 0 -243 28q-33 7 -33 39v76q0 32 39 22q90 -28 221 -28q118 0 177 46q61 47 61 126q0 22 -7 46
q-6 22 -22 42q-15 19 -30 34q-12 12 -43 32q-8 5 -23.5 15.5t-20.5 13.5q-22 13 -52 30q-9 5 -21 12t-18.5 10.5t-10.5 5.5q-87 48 -146 90q-52 37 -93 101q-42 66 -42 145zM446 827q-74 -1 -124 -55q-50 -53 -50 -123q0 -38 17 -70q17 -33 62 -66q42 -31 74 -49
q27 -15 99 -54q7 -4 16 -9t11 -6q70 6 118 58q46 50 46 116q0 40 -19 76t-65 70q-41 31 -79 54q-20 12 -106 58z" />
    <glyph glyph-name="dieresis" unicode="&#xa8;" horiz-adv-x="520" 
d="M205 1329v-100q0 -29 -29 -29h-94q-29 0 -29 29v100q0 29 29 29h94q29 0 29 -29zM467 1329v-100q0 -29 -29 -29h-94q-29 0 -29 29v100q0 29 29 29h94q29 0 29 -29z" />
    <glyph glyph-name="copyright" unicode="&#xa9;" horiz-adv-x="1404" 
d="M762 416q63 0 112 10q25 5 25 -16v-74q0 -21 -20 -27q-51 -16 -136 -16q-155 0 -234 99q-79 98 -79 327q0 228 78 327t233 99q70 0 133 -19q21 -4 21 -26v-74q0 -21 -25 -16q-62 12 -110 12q-108 0 -151 -69q-44 -70 -44 -234q0 -166 45 -235q44 -68 152 -68zM195 719
q0 -279 126 -455t381 -176q256 0 382 176t126 455q0 280 -126 455q-126 176 -382 176q-255 0 -381 -176q-126 -175 -126 -455zM86 719q0 156 37 285q38 133 109 233q73 103 194 160t276 57q156 0 277 -57q120 -56 193 -160q73 -103 110 -233q37 -129 37 -285t-37 -285
q-37 -130 -110 -233q-73 -104 -193 -160q-121 -57 -277 -57q-154 0 -276 57q-121 57 -194 160q-71 100 -109 233q-37 129 -37 285z" />
    <glyph glyph-name="ordfeminine" unicode="&#xaa;" horiz-adv-x="638" 
d="M438 1303v129q-141 -5 -205 -47q-63 -42 -63 -152q0 -129 113 -129q71 0 113 55t42 144zM438 1028v76q-44 -115 -186 -115q-96 0 -152 63q-55 62 -55 171q0 176 95 239t298 80v84q0 75 -32 107t-103 32q-92 0 -176 -30q-35 -15 -35 20v70q0 22 21 28q85 35 211 35
q241 0 241 -254v-606q0 -31 -30 -31h-66q-31 0 -31 31z" />
    <glyph glyph-name="guillemotleft" unicode="&#xab;" horiz-adv-x="663" 
d="M61 557q0 1 5 14l110 275q10 22 31 22h82q26 0 16 -26l-115 -285l115 -285q10 -26 -16 -26h-82q-21 0 -31 22l-110 275q-5 13 -5 14zM334 557q0 3 4 14l111 275q10 22 30 22h82q27 0 17 -26l-115 -285l115 -285q10 -26 -17 -26h-82q-20 0 -30 22l-111 275q-4 11 -4 14z
" />
    <glyph glyph-name="logicalnot" unicode="&#xac;" horiz-adv-x="962" 
d="M819 766v-422q0 -29 -28 -29h-80q-29 0 -29 29v315h-551q-29 0 -29 29v78q0 29 29 29h660q28 0 28 -29z" />
    <glyph glyph-name="uni00AD" unicode="&#xad;" horiz-adv-x="552" 
d="M455 489h-359q-26 0 -26 27v72q0 26 28 26h357q28 0 28 -26v-72q0 -27 -28 -27z" />
    <glyph glyph-name="registered" unicode="&#xae;" horiz-adv-x="778" 
d="M348 1098h43q43 0 58 15q14 14 14 56t-14 55t-60 13h-41v-139zM389 1454q147 0 229 -102q82 -101 82 -254q0 -150 -82 -253q-83 -104 -229 -104q-145 0 -228 104t-83 253q0 151 83 254q83 102 228 102zM389 805q123 0 184 81q62 82 62 212t-62 212q-61 81 -184 81
t-183 -81q-61 -82 -61 -212t61 -212q60 -81 183 -81zM272 915v375q0 15 15 15h112q73 0 108 -33q34 -33 34 -103q0 -111 -82 -129l69 -120q4 -5 2 -13q-2 -6 -10 -6h-49q-13 0 -18 12l-68 119h-37v-117q0 -14 -14 -14h-47q-15 0 -15 14z" />
    <glyph glyph-name="macron" unicode="&#xaf;" horiz-adv-x="520" 
d="M463 1208h-406q-28 0 -28 29v47q0 29 28 29h406q29 0 29 -29v-47q0 -29 -29 -29z" />
    <glyph glyph-name="degree" unicode="&#xb0;" horiz-adv-x="622" 
d="M311 1022q69 0 106 46q38 47 38 122t-38 122q-37 46 -106 46q-68 0 -105 -46q-38 -47 -38 -122t38 -122q37 -46 105 -46zM311 920q-113 0 -181 75q-69 77 -69 195t69 194t181 76q113 0 182 -76q68 -75 68 -192q0 -122 -68 -197t-182 -75z" />
    <glyph glyph-name="plusminus" unicode="&#xb1;" horiz-adv-x="962" 
d="M848 690h-299v-371q0 -26 -27 -26h-80q-28 0 -28 26v371h-301q-27 0 -27 27v71q0 27 29 27h299v363q0 28 28 28h80q27 0 27 -28v-363h299q29 0 29 -27v-71q0 -27 -29 -27zM848 0h-735q-27 0 -27 27v63q0 27 29 27h733q29 0 29 -27v-63q0 -27 -29 -27z" />
    <glyph glyph-name="two.superior" unicode="&#xb2;" 
d="M190 1657q0 -6 4 -26q3 -15 3 -21q0 -29 -35 -29h-66q-25 0 -30 29q-5 27 -5 47q0 105 61 169q59 62 175 62q121 0 178 -67t57 -179q0 -76 -27 -152q-26 -75 -79 -149q-47 -67 -90 -116q-51 -59 -94 -103h268q31 0 31 -30v-64q0 -31 -31 -31h-414q-30 0 -30 31v57
q0 19 18 37q45 46 101 109q36 41 96 117q58 74 89 148q29 70 29 138q0 133 -104 133q-105 0 -105 -110z" />
    <glyph glyph-name="three.superior" unicode="&#xb3;" 
d="M262 1389h-61q-31 0 -31 30v60q0 30 31 30h63q119 0 119 136q0 70 -37 95t-113 25q-40 0 -131 -20q-32 -6 -32 20v70q0 19 20 29q52 24 156 24q135 0 201 -54q67 -55 67 -177q0 -140 -98 -195q112 -51 112 -207q0 -268 -288 -268q-110 0 -162 25q-25 12 -25 30v66
q0 16 12 21q13 5 25 1q59 -20 139 -20q89 0 127 34q39 34 39 111q0 134 -133 134z" />
    <glyph glyph-name="acute" unicode="&#xb4;" horiz-adv-x="520" 
d="M131 1225l76 164q12 24 35 24h129q15 0 20 -12q5 -13 -6 -21l-145 -161q-17 -19 -37 -19h-56q-11 0 -16 8t0 17z" />
    <glyph glyph-name="mu" unicode="&#xb5;" horiz-adv-x="827" 
d="M733 1065v-741q0 -157 -64 -248q-65 -92 -198 -92q-168 0 -229 149v-330q0 -28 -29 -28h-86q-29 0 -29 28v1262q0 29 29 29h86q29 0 29 -29v-657q0 -132 52 -209q52 -78 144 -78q84 0 118 56t34 165v723q0 29 28 29h87q28 0 28 -29z" />
    <glyph glyph-name="paragraph" unicode="&#xb6;" horiz-adv-x="884" 
d="M831 1319h-69q-62 0 -84 -24q-23 -25 -23 -93v-1200q0 -129 -47 -182t-155 -53q-51 0 -88 12q-25 8 -25 31v55q0 31 29 26q49 -6 61 -6q48 0 69 30t21 99v600h-49q-185 0 -287 105t-102 307q0 205 100 308q101 104 287 104h362q29 0 29 -29v-61q0 -29 -29 -29z" />
    <glyph glyph-name="periodcentered" unicode="&#xb7;" horiz-adv-x="360" 
d="M98 473v148q0 28 29 28h106q29 0 29 -28v-148q0 -29 -29 -29h-106q-29 0 -29 29z" />
    <glyph glyph-name="cedilla" unicode="&#xb8;" horiz-adv-x="520" 
d="M176 16h72q72 -27 121 -73t49 -109q0 -125 -156 -125q-43 0 -67 8q-19 6 -19 25v49q0 19 19 19h47q67 0 67 51q0 76 -133 155z" />
    <glyph glyph-name="one.superior" unicode="&#xb9;" 
d="M295 1696l-119 -117q-23 -23 -45 4l-41 49q-16 21 6 43l199 191q12 12 37 12h63q31 0 31 -31v-819q0 -31 -31 -31h-69q-31 0 -31 31v668z" />
    <glyph glyph-name="ordmasculine" unicode="&#xba;" horiz-adv-x="667" 
d="M334 1765q-78 0 -114 -77q-36 -78 -36 -250t36 -250t114 -78q77 0 113 78t36 250t-36 250q-36 77 -113 77zM334 987q-285 0 -285 451q0 450 285 450q284 0 284 -450q0 -451 -284 -451z" />
    <glyph glyph-name="guillemotright" unicode="&#xbb;" horiz-adv-x="663" 
d="M602 557q0 -3 -4 -14l-111 -275q-10 -22 -30 -22h-82q-27 0 -17 26l115 285l-115 285q-10 26 17 26h82q20 0 30 -22l111 -275q4 -11 4 -14zM330 557q0 -3 -4 -14l-111 -275q-10 -22 -31 -22h-82q-26 0 -16 26l115 285l-115 285q-10 26 16 26h82q21 0 31 -22l111 -275
q4 -11 4 -14z" />
    <glyph glyph-name="onequarter" unicode="&#xbc;" horiz-adv-x="1433" 
d="M295 1255l-119 -116q-23 -23 -45 4l-41 49q-16 21 6 43l199 190q13 13 37 13h63q31 0 31 -31v-819q0 -31 -31 -31h-69q-31 0 -31 31v667zM1157 1409l-653 -1386q-11 -23 -33 -23h-96q-29 0 -17 29l652 1386q11 23 34 23h97q28 0 16 -29zM1192 682l-213 -363h213v363z
M1378 195h-55v-164q0 -31 -31 -31h-69q-31 0 -31 31v164h-309q-31 0 -31 30v58q0 15 12 36l320 537q16 25 37 25h71q31 0 31 -31v-531h55q31 0 31 -30v-64q0 -30 -31 -30z" />
    <glyph glyph-name="onehalf" unicode="&#xbd;" horiz-adv-x="1433" 
d="M295 1255l-119 -116q-23 -23 -45 4l-41 49q-16 21 6 43l199 190q13 13 37 13h63q31 0 31 -31v-819q0 -31 -31 -31h-69q-31 0 -31 31v667zM1010 659q0 111 104 111q105 0 105 -133q0 -66 -30 -138q-32 -76 -89 -149q-67 -86 -95 -117q-36 -41 -102 -108q-18 -18 -18 -37
v-57q0 -31 30 -31h414q31 0 31 31v63q0 31 -31 31h-268q51 52 94 102q39 45 90 117q53 74 79 149q28 79 28 152q0 109 -58 178q-57 68 -178 68q-115 0 -175 -63t-60 -169q0 -26 4 -47q4 -28 30 -28h66q35 0 35 28q0 7 -3 22t-3 25zM1075 1409l-653 -1386q-11 -23 -33 -23
h-96q-29 0 -17 29l652 1386q11 23 35 23h96q28 0 16 -29z" />
    <glyph glyph-name="threequarters" unicode="&#xbe;" horiz-adv-x="1433" 
d="M262 948h-61q-31 0 -31 31v59q0 31 31 31h63q119 0 119 135q0 70 -37 95q-38 26 -113 26q-40 0 -131 -20q-32 -6 -32 20v70q0 18 20 28q55 25 156 25q135 0 201 -54q67 -55 67 -177q0 -140 -98 -195q112 -51 112 -207q0 -268 -288 -268q-112 0 -162 24q-25 13 -25 31v66
q0 16 12 21q13 5 25 1q59 -20 139 -20q90 0 127 33q39 35 39 112q0 133 -133 133zM1174 1409l-654 -1386q-11 -23 -33 -23h-96q-28 0 -16 29l651 1386q11 23 35 23h96q29 0 17 -29zM1192 682l-213 -363h213v363zM1378 195h-55v-164q0 -31 -31 -31h-69q-31 0 -31 31v164h-309
q-31 0 -31 30v58q0 15 12 36l320 537q16 25 37 25h71q31 0 31 -31v-531h55q31 0 31 -30v-64q0 -30 -31 -30z" />
    <glyph glyph-name="questiondown" unicode="&#xbf;" horiz-adv-x="671" 
d="M440 1065v-154q0 -28 -28 -28h-115q-29 0 -29 28v154q0 29 29 29h115q28 0 28 -29zM281 666v-58q0 -64 -34 -128q-36 -66 -74 -112q-39 -46 -74 -127q-33 -76 -33 -169q0 -310 313 -310q142 0 217 35q27 12 27 33v82q0 28 -33 22q-7 -1 -39 -11q-29 -9 -67 -15
q-36 -6 -76 -6q-185 0 -185 180q0 81 32 157q31 73 69 122q34 43 68 115q32 67 32 132v58q0 28 -29 28h-86q-28 0 -28 -28z" />
    <glyph glyph-name="Agrave" unicode="&#xc0;" horiz-adv-x="942" 
d="M315 528h312l-154 729h-4zM408 1438h127q34 0 40 -33l320 -1372q6 -33 -27 -33h-92q-27 0 -33 29l-84 360h-376l-84 -360q-6 -29 -33 -29h-92q-33 0 -27 33l320 1372q6 33 41 33zM442 1712l76 -164q5 -8 0 -16t-16 -8h-56q-20 0 -36 18l-146 162q-11 8 -6 20q5 13 21 13
h129q22 0 34 -25z" />
    <glyph glyph-name="Aacute" unicode="&#xc1;" horiz-adv-x="942" 
d="M315 528h312l-154 729h-4zM408 1438h127q34 0 40 -33l320 -1372q6 -33 -27 -33h-92q-27 0 -33 29l-84 360h-376l-84 -360q-6 -29 -33 -29h-92q-33 0 -27 33l320 1372q6 33 41 33zM424 1548l76 164q12 25 35 25h129q15 0 20 -13q5 -12 -6 -20l-146 -162q-16 -18 -36 -18
h-56q-11 0 -16 8t0 16z" />
    <glyph glyph-name="Acircumflex" unicode="&#xc2;" horiz-adv-x="942" 
d="M315 528h312l-154 729h-4zM408 1438h127q34 0 40 -33l320 -1372q6 -33 -27 -33h-92q-27 0 -33 29l-84 360h-376l-84 -360q-6 -29 -33 -29h-92q-33 0 -27 33l320 1372q6 33 41 33zM567 1542l-96 98l-96 -98q-15 -18 -35 -18h-72q-14 0 -18 9t6 19l137 168q17 19 39 19h78
q22 0 39 -19l137 -168q10 -10 6 -19t-18 -9h-72q-20 0 -35 18z" />
    <glyph glyph-name="Atilde" unicode="&#xc3;" horiz-adv-x="942" 
d="M315 528h312l-154 729h-4zM408 1438h127q34 0 40 -33l320 -1372q6 -33 -27 -33h-92q-27 0 -33 29l-84 360h-376l-84 -360q-6 -29 -33 -29h-92q-33 0 -27 33l320 1372q6 33 41 33zM717 1649q0 -129 -117 -129q-68 0 -133 32l-51 25q-84 39 -92 -18l-2 -15q-1 -20 -29 -20
h-41q-27 0 -27 37q0 129 117 129q66 0 133 -33l51 -25q84 -39 92 19l3 14q1 21 28 21h41q27 0 27 -37z" />
    <glyph glyph-name="Adieresis" unicode="&#xc4;" horiz-adv-x="942" 
d="M315 528h312l-154 729h-4zM408 1438h127q34 0 40 -33l320 -1372q6 -33 -27 -33h-92q-27 0 -33 29l-84 360h-376l-84 -360q-6 -29 -33 -29h-92q-33 0 -27 33l320 1372q6 33 41 33zM416 1653v-101q0 -28 -29 -28h-98q-29 0 -29 28v101q0 28 29 28h98q29 0 29 -28zM682 1653
v-101q0 -28 -29 -28h-98q-29 0 -29 28v101q0 28 29 28h98q29 0 29 -28z" />
    <glyph glyph-name="Aring" unicode="&#xc5;" horiz-adv-x="942" 
d="M295 1530q0 75 47 122q46 46 129 46t129 -46q47 -47 47 -122q0 -92 -69 -139l317 -1358q6 -33 -27 -33h-92q-27 0 -33 29l-84 360h-376l-84 -360q-6 -29 -33 -29h-92q-33 0 -27 33l315 1358q-67 49 -67 139zM315 528h312l-154 729h-4zM381 1530q0 -88 90 -88t90 88
t-90 88t-90 -88z" />
    <glyph glyph-name="AE" unicode="&#xc6;" horiz-adv-x="1208" 
d="M1079 666h-344v-523h365q30 0 30 -30v-82q0 -31 -30 -31h-488q-30 0 -30 31v358h-301l-107 -360q-8 -29 -35 -29h-92q-35 0 -24 33l407 1372q8 33 43 33h621q30 0 30 -31v-82q0 -31 -30 -31h-359v-489h344q31 0 31 -31v-78q0 -30 -31 -30zM324 528h258v766h-50z" />
    <glyph glyph-name="Ccedilla" unicode="&#xc7;" horiz-adv-x="802" 
d="M549 127q65 0 149 20q35 11 35 -26v-74q0 -26 -31 -37q-71 -26 -174 -26h-4q105 -63 105 -158q0 -133 -160 -133q-46 0 -70 8q-20 7 -20 27v51q0 18 20 18h50q67 0 67 56q0 69 -100 141q-175 33 -254 201q-80 169 -80 524q0 406 103 570q103 165 337 165q101 0 170 -24
q31 -11 31 -37v-74q0 -38 -35 -27q-84 19 -145 19q-169 0 -236 -126q-67 -125 -67 -466q0 -342 68 -466q69 -126 241 -126z" />
    <glyph glyph-name="Egrave" unicode="&#xc8;" horiz-adv-x="770" 
d="M641 666h-377v-523h398q30 0 30 -30v-82q0 -31 -30 -31h-521q-30 0 -30 31v1376q0 31 30 31h514q31 0 31 -31v-82q0 -31 -31 -31h-391v-489h377q31 0 31 -31v-78q0 -30 -31 -30zM414 1712l75 -164q5 -8 0 -16t-16 -8h-55q-20 0 -37 18l-145 162q-11 8 -7 20q5 13 21 13
h129q23 0 35 -25z" />
    <glyph glyph-name="Eacute" unicode="&#xc9;" horiz-adv-x="770" 
d="M641 666h-377v-523h398q30 0 30 -30v-82q0 -31 -30 -31h-521q-30 0 -30 31v1376q0 31 30 31h514q31 0 31 -31v-82q0 -31 -31 -31h-391v-489h377q31 0 31 -31v-78q0 -30 -31 -30zM338 1548l76 164q12 25 35 25h129q15 0 20 -13q5 -12 -6 -20l-146 -162q-16 -18 -36 -18
h-56q-11 0 -16 8t0 16z" />
    <glyph glyph-name="Ecircumflex" unicode="&#xca;" horiz-adv-x="770" 
d="M641 666h-377v-523h398q30 0 30 -30v-82q0 -31 -30 -31h-521q-30 0 -30 31v1376q0 31 30 31h514q31 0 31 -31v-82q0 -31 -31 -31h-391v-489h377q31 0 31 -31v-78q0 -30 -31 -30zM512 1542l-96 98l-97 -98q-15 -18 -34 -18h-72q-14 0 -17 9q-3 8 5 19l137 168q16 19 39 19
h78q23 0 39 -19l137 -168q8 -11 5 -19q-3 -9 -18 -9h-71q-19 0 -35 18z" />
    <glyph glyph-name="Edieresis" unicode="&#xcb;" horiz-adv-x="770" 
d="M641 666h-377v-523h398q30 0 30 -30v-82q0 -31 -30 -31h-521q-30 0 -30 31v1376q0 31 30 31h514q31 0 31 -31v-82q0 -31 -31 -31h-391v-489h377q31 0 31 -31v-78q0 -30 -31 -30zM358 1653v-101q0 -28 -28 -28h-99q-28 0 -28 28v101q0 28 28 28h99q28 0 28 -28zM625 1653
v-101q0 -28 -29 -28h-98q-29 0 -29 28v101q0 28 29 28h98q29 0 29 -28z" />
    <glyph glyph-name="Igrave" unicode="&#xcc;" horiz-adv-x="399" 
d="M123 31v1376q0 31 31 31h92q30 0 30 -31v-1376q0 -31 -30 -31h-92q-31 0 -31 31zM170 1712l76 -164q5 -8 0 -16t-17 -8h-55q-20 0 -37 18l-145 162q-11 8 -6 20q5 13 20 13h129q23 0 35 -25z" />
    <glyph glyph-name="Iacute" unicode="&#xcd;" horiz-adv-x="399" 
d="M123 31v1376q0 31 31 31h92q30 0 30 -31v-1376q0 -31 -30 -31h-92q-31 0 -31 31zM152 1548l75 164q13 25 35 25h129q16 0 21 -13q5 -12 -6 -20l-146 -162q-17 -18 -37 -18h-55q-11 0 -16 8t0 16z" />
    <glyph glyph-name="Icircumflex" unicode="&#xce;" horiz-adv-x="399" 
d="M123 31v1376q0 31 31 31h92q30 0 30 -31v-1376q0 -31 -30 -31h-92q-31 0 -31 31zM295 1542l-96 98l-97 -98q-17 -18 -34 -18h-72q-15 0 -18 9q-2 7 6 19l137 168q16 19 39 19h78q22 0 38 -19l138 -168q8 -11 5 -19q-3 -9 -18 -9h-71q-18 0 -35 18z" />
    <glyph glyph-name="Idieresis" unicode="&#xcf;" horiz-adv-x="399" 
d="M123 31v1376q0 31 31 31h92q30 0 30 -31v-1376q0 -31 -30 -31h-92q-31 0 -31 31zM143 1653v-101q0 -28 -28 -28h-99q-28 0 -28 28v101q0 28 28 28h99q28 0 28 -28zM410 1653v-101q0 -28 -29 -28h-98q-29 0 -29 28v101q0 28 29 28h98q29 0 29 -28z" />
    <glyph glyph-name="Eth" unicode="&#xd0;" horiz-adv-x="950" 
d="M399 0h-254q-30 0 -30 31v631h-62q-28 0 -28 28v60q0 28 28 28h62v629q0 31 30 31h250q244 0 361 -162q116 -161 116 -557q0 -398 -115 -558q-116 -161 -358 -161zM438 662h-170v-519h131q163 0 239 127q77 128 77 449q0 323 -78 449t-242 126h-127v-516h170q29 0 29 -28
v-60q0 -28 -29 -28z" />
    <glyph glyph-name="Ntilde" unicode="&#xd1;" horiz-adv-x="970" 
d="M860 1407v-1376q0 -31 -31 -31h-92q-29 0 -41 27l-436 1067v-1063q0 -31 -31 -31h-88q-30 0 -30 31v1376q0 31 30 31h92q29 0 41 -27l437 -1067v1063q0 31 30 31h88q31 0 31 -31zM731 1649q0 -129 -117 -129q-68 0 -133 32l-51 25q-84 39 -92 -18l-2 -15q-1 -20 -29 -20
h-41q-26 0 -26 37q0 129 116 129q66 0 133 -33l52 -25q84 -39 92 19l2 14q1 21 29 21h41q26 0 26 -37z" />
    <glyph glyph-name="Ograve" unicode="&#xd2;" horiz-adv-x="991" 
d="M496 1454q210 0 312 -167q101 -165 101 -568t-101 -568q-102 -167 -312 -167q-211 0 -313 167q-101 165 -101 568t101 568q102 167 313 167zM496 123q133 0 194 133q62 135 62 463t-62 463q-61 133 -194 133q-134 0 -195 -133q-61 -132 -61 -463t61 -463
q61 -133 195 -133zM467 1712l76 -164q5 -8 0 -16t-17 -8h-55q-21 0 -37 18l-145 162q-11 8 -6 20q5 13 20 13h129q22 0 35 -25z" />
    <glyph glyph-name="Oacute" unicode="&#xd3;" horiz-adv-x="991" 
d="M496 1454q210 0 312 -167q101 -165 101 -568t-101 -568q-102 -167 -312 -167q-211 0 -313 167q-101 165 -101 568t101 568q102 167 313 167zM496 123q133 0 194 133q62 135 62 463t-62 463q-61 133 -194 133q-134 0 -195 -133q-61 -132 -61 -463t61 -463
q61 -133 195 -133zM449 1548l75 164q12 25 35 25h129q16 0 21 -13q4 -12 -7 -20l-145 -162q-17 -18 -37 -18h-55q-11 0 -16 8t0 16z" />
    <glyph glyph-name="Ocircumflex" unicode="&#xd4;" horiz-adv-x="991" 
d="M496 1454q210 0 312 -167q101 -165 101 -568t-101 -568q-102 -167 -312 -167q-211 0 -313 167q-101 165 -101 568t101 568q102 167 313 167zM496 123q133 0 194 133q62 135 62 463t-62 463q-61 133 -194 133q-134 0 -195 -133q-61 -132 -61 -463t61 -463
q61 -133 195 -133zM592 1542l-96 98l-97 -98q-15 -18 -34 -18h-72q-15 0 -19 9q-4 8 7 19l137 168q16 19 39 19h78q21 0 38 -19l138 -168q10 -10 6 -19q-5 -9 -19 -9h-71q-20 0 -35 18z" />
    <glyph glyph-name="Otilde" unicode="&#xd5;" horiz-adv-x="991" 
d="M496 1454q210 0 312 -167q101 -165 101 -568t-101 -568q-102 -167 -312 -167q-211 0 -313 167q-101 165 -101 568t101 568q102 167 313 167zM496 123q133 0 194 133q62 135 62 463t-62 463q-61 133 -194 133q-134 0 -195 -133q-61 -132 -61 -463t61 -463
q61 -133 195 -133zM741 1649q0 -129 -116 -129q-68 0 -133 32l-52 25q-84 39 -92 -18l-2 -15q-1 -20 -29 -20h-41q-26 0 -26 37q0 129 117 129q65 0 133 -33l51 -25q84 -39 92 19l2 14q1 21 29 21h41q26 0 26 -37z" />
    <glyph glyph-name="Odieresis" unicode="&#xd6;" horiz-adv-x="991" 
d="M496 1454q210 0 312 -167q101 -165 101 -568t-101 -568q-102 -167 -312 -167q-211 0 -313 167q-101 165 -101 568t101 568q102 167 313 167zM496 123q133 0 194 133q62 135 62 463t-62 463q-61 133 -194 133q-134 0 -195 -133q-61 -132 -61 -463t61 -463
q61 -133 195 -133zM440 1653v-101q0 -28 -28 -28h-99q-28 0 -28 28v101q0 28 28 28h99q28 0 28 -28zM707 1653v-101q0 -28 -29 -28h-98q-29 0 -29 28v101q0 28 29 28h98q29 0 29 -28z" />
    <glyph glyph-name="multiply" unicode="&#xd7;" horiz-adv-x="962" 
d="M776 334l-295 293l-295 -295q-21 -21 -39 0l-49 51q-18 23 -2 39l295 295l-295 295q-21 21 0 39l51 49q21 20 39 2l295 -297l295 295q18 18 39 0l51 -49q21 -16 -2 -39l-295 -295l295 -295q18 -18 0 -39l-49 -51q-16 -21 -39 2z" />
    <glyph glyph-name="Oslash" unicode="&#xd8;" horiz-adv-x="999" 
d="M500 1454q184 0 284 -129l56 98q15 27 39 11l47 -27q25 -15 10 -39l-90 -156q67 -171 67 -493q0 -403 -101 -568q-102 -167 -312 -167q-189 0 -285 127l-55 -97q-15 -27 -39 -10l-47 27q-25 16 -11 39l89 155q-66 174 -66 494q0 403 101 568q102 167 313 167zM500 123
q133 0 194 133q62 135 62 463q0 173 -19 303l-436 -760q60 -139 199 -139zM244 719q0 -181 18 -303l434 758q-57 141 -196 141q-134 0 -195 -133q-61 -132 -61 -463z" />
    <glyph glyph-name="Ugrave" unicode="&#xd9;" horiz-adv-x="933" 
d="M467 -16q-190 0 -276 104q-87 105 -87 332v987q0 31 31 31h92q31 0 31 -31v-975q0 -167 46 -235q47 -70 163 -70t163 70q46 68 46 235v975q0 31 31 31h92q30 0 30 -31v-987q0 -227 -87 -332q-86 -104 -275 -104zM438 1712l76 -164q5 -8 0 -16t-16 -8h-56q-20 0 -36 18
l-146 162q-11 8 -6 20q5 13 20 13h129q23 0 35 -25z" />
    <glyph glyph-name="Uacute" unicode="&#xda;" horiz-adv-x="933" 
d="M467 -16q-190 0 -276 104q-87 105 -87 332v987q0 31 31 31h92q31 0 31 -31v-975q0 -167 46 -235q47 -70 163 -70t163 70q46 68 46 235v975q0 31 31 31h92q30 0 30 -31v-987q0 -227 -87 -332q-86 -104 -275 -104zM420 1548l76 164q12 25 34 25h129q16 0 21 -13
q5 -12 -6 -20l-146 -162q-16 -18 -36 -18h-56q-11 0 -16 8t0 16z" />
    <glyph glyph-name="Ucircumflex" unicode="&#xdb;" horiz-adv-x="933" 
d="M467 -16q-190 0 -276 104q-87 105 -87 332v987q0 31 31 31h92q31 0 31 -31v-975q0 -167 46 -235q47 -70 163 -70t163 70q46 68 46 235v975q0 31 31 31h92q30 0 30 -31v-987q0 -227 -87 -332q-86 -104 -275 -104zM563 1542l-96 98l-96 -98q-15 -18 -35 -18h-72
q-14 0 -17 9q-3 8 5 19l137 168q17 19 39 19h78q22 0 39 -19l137 -168q10 -10 6 -19t-18 -9h-72q-20 0 -35 18z" />
    <glyph glyph-name="Udieresis" unicode="&#xdc;" horiz-adv-x="933" 
d="M467 -16q-190 0 -276 104q-87 105 -87 332v987q0 31 31 31h92q31 0 31 -31v-975q0 -167 46 -235q47 -70 163 -70t163 70q46 68 46 235v975q0 31 31 31h92q30 0 30 -31v-987q0 -227 -87 -332q-86 -104 -275 -104zM412 1653v-101q0 -28 -29 -28h-98q-29 0 -29 28v101
q0 28 29 28h98q29 0 29 -28zM678 1653v-101q0 -28 -29 -28h-98q-29 0 -29 28v101q0 28 29 28h98q29 0 29 -28z" />
    <glyph glyph-name="Yacute" unicode="&#xdd;" horiz-adv-x="899" 
d="M526 549v-518q0 -31 -30 -31h-93q-30 0 -30 31v518l-328 854q-12 35 23 35h100q26 0 37 -29l174 -483l70 -215h2l69 215l174 483q11 29 37 29h100q35 0 23 -35zM401 1548l76 164q13 25 35 25h129q16 0 21 -13q4 -12 -7 -20l-145 -162q-16 -18 -37 -18h-55q-12 0 -17 8
t0 16z" />
    <glyph glyph-name="Thorn" unicode="&#xde;" horiz-adv-x="872" 
d="M233 0h-94q-28 0 -28 31v1376q0 31 30 31h92q31 0 31 -31v-137h103q226 0 325 -107t99 -368q0 -263 -99 -369q-99 -107 -323 -107h-105v-288q0 -31 -31 -31zM264 463h105q146 0 205 71t59 263q0 188 -59 259q-58 70 -205 70h-105v-663z" />
    <glyph glyph-name="germandbls" unicode="&#xdf;" horiz-adv-x="892" 
d="M428 1317q-184 0 -184 -217v-1071q0 -29 -27 -29h-86q-29 0 -29 29v1085q0 172 87 253t239 81q150 0 229 -73q78 -72 78 -189q0 -76 -29 -134q-30 -61 -65 -94q-36 -35 -64 -68q-30 -36 -30 -63q0 -29 30 -64q32 -37 70 -72t83 -85q42 -46 72 -123q29 -74 29 -166
q0 -171 -77 -247t-232 -76q-31 0 -78 4q-55 6 -55 39v67q0 32 31 27q41 -6 80 -6q91 0 140 43q50 44 50 151q0 67 -30 127t-70 103q-27 29 -83 83q-43 42 -72 89q-29 48 -29 100q0 40 19 74q20 36 48 62l57 57q31 31 49 68q19 39 19 87q0 64 -43 106q-44 42 -127 42z" />
    <glyph glyph-name="agrave" unicode="&#xe0;" horiz-adv-x="778" 
d="M684 795v-766q0 -29 -29 -29h-77q-29 0 -29 29v114q-66 -155 -240 -155q-120 0 -186 82t-66 227q0 209 127 291t361 88v108q0 100 -39 147q-39 46 -129 46q-113 0 -223 -43q-10 -4 -22 2q-11 6 -11 20v78q0 28 24 35q108 41 244 41q156 0 225 -78q70 -79 70 -237z
M545 393v164q-175 -6 -261 -58q-87 -52 -87 -200q0 -182 143 -182q90 0 147 80q58 81 58 196zM381 1389l76 -164q5 -9 0 -17t-17 -8h-55q-20 0 -37 19l-145 161q-11 8 -6 21q4 12 20 12h129q20 0 35 -24z" />
    <glyph glyph-name="aacute" unicode="&#xe1;" horiz-adv-x="778" 
d="M684 795v-766q0 -29 -29 -29h-77q-29 0 -29 29v114q-66 -155 -240 -155q-120 0 -186 82t-66 227q0 209 127 291t361 88v108q0 100 -39 147q-39 46 -129 46q-113 0 -223 -43q-10 -4 -22 2q-11 6 -11 20v78q0 28 24 35q108 41 244 41q156 0 225 -78q70 -79 70 -237z
M545 393v164q-175 -6 -261 -58q-87 -52 -87 -200q0 -182 143 -182q90 0 147 80q58 81 58 196zM319 1225l76 164q12 24 35 24h129q17 0 21 -12q5 -13 -7 -21l-145 -161q-17 -19 -37 -19h-55q-12 0 -17 8t0 17z" />
    <glyph glyph-name="acircumflex" unicode="&#xe2;" horiz-adv-x="778" 
d="M684 795v-766q0 -29 -29 -29h-77q-29 0 -29 29v114q-66 -155 -240 -155q-120 0 -186 82t-66 227q0 209 127 291t361 88v108q0 100 -39 147q-39 46 -129 46q-113 0 -223 -43q-10 -4 -22 2q-11 6 -11 20v78q0 28 24 35q108 41 244 41q156 0 225 -78q70 -79 70 -237z
M545 393v164q-175 -6 -261 -58q-87 -52 -87 -200q0 -182 143 -182q90 0 147 80q58 81 58 196zM489 1219l-100 106l-100 -106q-16 -19 -35 -19h-72q-14 0 -18 9q-5 9 6 20l141 176q17 18 39 18h78q22 0 39 -18l141 -176q8 -11 5 -20t-17 -9h-72q-18 0 -35 19z" />
    <glyph glyph-name="atilde" unicode="&#xe3;" horiz-adv-x="778" 
d="M684 795v-766q0 -29 -29 -29h-77q-29 0 -29 29v114q-66 -155 -240 -155q-120 0 -186 82t-66 227q0 209 127 291t361 88v108q0 100 -39 147q-39 46 -129 46q-113 0 -223 -43q-10 -4 -22 2q-11 6 -11 20v78q0 28 24 35q108 41 244 41q156 0 225 -78q70 -79 70 -237z
M545 393v164q-175 -6 -261 -58q-87 -52 -87 -200q0 -182 143 -182q90 0 147 80q58 81 58 196zM627 1325q0 -67 -25 -98t-86 -31q-67 0 -133 33l-47 24q-78 39 -86 -18l-2 -14q-2 -21 -29 -21h-41q-26 0 -26 37q0 68 24 98q25 31 86 31q67 0 133 -33l47 -24q78 -39 86 18
l2 14q2 21 29 21h41q27 0 27 -37z" />
    <glyph glyph-name="adieresis" unicode="&#xe4;" horiz-adv-x="778" 
d="M684 795v-766q0 -29 -29 -29h-77q-29 0 -29 29v114q-66 -155 -240 -155q-120 0 -186 82t-66 227q0 209 127 291t361 88v108q0 100 -39 147q-39 46 -129 46q-113 0 -223 -43q-10 -4 -22 2q-11 6 -11 20v78q0 28 24 35q108 41 244 41q156 0 225 -78q70 -79 70 -237z
M545 393v164q-175 -6 -261 -58q-87 -52 -87 -200q0 -182 143 -182q90 0 147 80q58 81 58 196zM334 1329v-100q0 -29 -29 -29h-94q-29 0 -29 29v100q0 29 29 29h94q29 0 29 -29zM596 1329v-100q0 -29 -29 -29h-94q-29 0 -29 29v100q0 29 29 29h94q29 0 29 -29z" />
    <glyph glyph-name="aring" unicode="&#xe5;" horiz-adv-x="778" 
d="M684 795v-766q0 -29 -29 -29h-77q-29 0 -29 29v114q-66 -155 -240 -155q-120 0 -186 82t-66 227q0 209 127 291t361 88v108q0 100 -39 147q-39 46 -129 46q-113 0 -223 -43q-10 -4 -22 2q-11 6 -11 20v78q0 28 24 35q108 41 244 41q156 0 225 -78q70 -79 70 -237z
M545 393v164q-175 -6 -261 -58q-87 -52 -87 -200q0 -182 143 -182q90 0 147 80q58 81 58 196zM389 1268q90 0 90 88t-90 88t-90 -88t90 -88zM389 1524q83 0 129 -46q47 -47 47 -122t-47 -122q-46 -46 -129 -46t-129 46q-47 47 -47 122t47 122q46 46 129 46z" />
    <glyph glyph-name="ae" unicode="&#xe6;" horiz-adv-x="1220" 
d="M924 113q70 0 159 30q12 4 23 -2q10 -6 10 -22v-70q0 -26 -29 -37q-81 -28 -172 -28q-239 0 -305 219q-77 -215 -284 -215q-131 0 -200 79t-69 218q0 190 125 268q124 77 355 82v149q0 100 -39 146q-39 47 -123 47q-111 0 -221 -43q-12 -4 -23 2q-10 6 -10 20v78
q0 28 24 35q108 41 242 41q189 0 240 -139q66 139 231 139q149 0 221 -128t72 -349v-107q0 -28 -33 -28h-446q15 -385 252 -385zM852 981q-168 0 -180 -354h336v14q0 340 -156 340zM537 393v123q-124 -5 -185 -21q-67 -18 -111 -68t-44 -140q0 -170 153 -170q88 0 137 79
q50 80 50 197z" />
    <glyph glyph-name="ccedilla" unicode="&#xe7;" horiz-adv-x="647" 
d="M410 -139q0 67 -111 141q-229 82 -229 545q0 287 84 425t260 138q88 0 145 -23q31 -11 31 -36v-72q0 -31 -33 -21q-54 17 -123 17q-118 0 -168 -99q-49 -98 -49 -329q0 -229 50 -329q49 -99 171 -99q67 0 127 18q33 11 33 -20v-72q0 -26 -31 -37q-61 -24 -149 -24h-2
q102 -63 102 -150q0 -125 -156 -125q-43 0 -67 8q-19 6 -19 25v49q0 19 19 19h47q68 0 68 51z" />
    <glyph glyph-name="egrave" unicode="&#xe8;" horiz-adv-x="774" 
d="M471 113q77 0 166 30q11 4 22 -2t11 -22v-70q0 -26 -29 -37q-81 -28 -178 -28q-203 0 -298 138q-95 139 -95 425q0 563 331 563q304 0 304 -498v-106q0 -29 -33 -29h-459q15 -364 258 -364zM399 981q-90 0 -135 -90t-51 -285h348v15q0 176 -35 269q-34 91 -127 91z
M379 1389l76 -164q5 -9 0 -17t-17 -8h-55q-20 0 -37 19l-145 161q-11 8 -6 21q5 12 20 12h129q20 0 35 -24z" />
    <glyph glyph-name="eacute" unicode="&#xe9;" horiz-adv-x="774" 
d="M471 113q77 0 166 30q11 4 22 -2t11 -22v-70q0 -26 -29 -37q-81 -28 -178 -28q-203 0 -298 138q-95 139 -95 425q0 563 331 563q304 0 304 -498v-106q0 -29 -33 -29h-459q15 -364 258 -364zM399 981q-90 0 -135 -90t-51 -285h348v15q0 176 -35 269q-34 91 -127 91z
M338 1225l76 164q12 24 35 24h129q16 0 20 -12q5 -13 -6 -21l-146 -161q-17 -19 -36 -19h-56q-11 0 -16 8t0 17z" />
    <glyph glyph-name="ecircumflex" unicode="&#xea;" horiz-adv-x="774" 
d="M471 113q77 0 166 30q11 4 22 -2t11 -22v-70q0 -26 -29 -37q-81 -28 -178 -28q-203 0 -298 138q-95 139 -95 425q0 563 331 563q304 0 304 -498v-106q0 -29 -33 -29h-459q15 -364 258 -364zM399 981q-90 0 -135 -90t-51 -285h348v15q0 176 -35 269q-34 91 -127 91z
M500 1219l-101 106l-100 -106q-17 -19 -35 -19h-71q-15 0 -18 9t5 20l142 176q15 18 38 18h78q22 0 39 -18l141 -176q9 -12 6 -20q-3 -9 -18 -9h-71q-18 0 -35 19z" />
    <glyph glyph-name="edieresis" unicode="&#xeb;" horiz-adv-x="774" 
d="M471 113q77 0 166 30q11 4 22 -2t11 -22v-70q0 -26 -29 -37q-81 -28 -178 -28q-203 0 -298 138q-95 139 -95 425q0 563 331 563q304 0 304 -498v-106q0 -29 -33 -29h-459q15 -364 258 -364zM399 981q-90 0 -135 -90t-51 -285h348v15q0 176 -35 269q-34 91 -127 91z
M344 1329v-100q0 -29 -29 -29h-94q-28 0 -28 29v100q0 29 28 29h94q29 0 29 -29zM606 1329v-100q0 -29 -28 -29h-95q-28 0 -28 29v100q0 29 28 29h95q28 0 28 -29z" />
    <glyph glyph-name="igrave" unicode="&#xec;" horiz-adv-x="356" 
d="M250 1065v-1036q0 -29 -29 -29h-86q-29 0 -29 29v1036q0 29 29 29h86q29 0 29 -29zM156 1389l75 -164q5 -9 0 -17t-16 -8h-55q-20 0 -37 19l-146 161q-11 8 -6 21q5 12 21 12h129q20 0 35 -24z" />
    <glyph glyph-name="iacute" unicode="&#xed;" horiz-adv-x="356" 
d="M250 1065v-1036q0 -29 -29 -29h-86q-29 0 -29 29v1036q0 29 29 29h86q29 0 29 -29zM127 1225l76 164q12 24 35 24h129q15 0 20 -12q5 -13 -6 -21l-145 -161q-17 -19 -37 -19h-56q-11 0 -16 8t0 17z" />
    <glyph glyph-name="icircumflex" unicode="&#xee;" horiz-adv-x="356" 
d="M250 1065v-1036q0 -29 -29 -29h-86q-29 0 -29 29v1036q0 29 29 29h86q29 0 29 -29zM279 1219l-101 106l-100 -106q-16 -19 -35 -19h-72q-14 0 -17 9t5 20l141 176q15 18 39 18h78q24 0 39 -18l141 -176q8 -11 5 -20t-17 -9h-72q-17 0 -34 19z" />
    <glyph glyph-name="idieresis" unicode="&#xef;" horiz-adv-x="356" 
d="M250 1065v-1036q0 -29 -29 -29h-86q-29 0 -29 29v1036q0 29 29 29h86q29 0 29 -29zM123 1329v-100q0 -29 -29 -29h-94q-29 0 -29 29v100q0 29 29 29h94q29 0 29 -29zM385 1329v-100q0 -29 -29 -29h-94q-29 0 -29 29v100q0 29 29 29h94q29 0 29 -29z" />
    <glyph glyph-name="eth" unicode="&#xf0;" horiz-adv-x="825" 
d="M692 1206h-78q148 -282 148 -659q0 -288 -85 -425q-85 -138 -261 -138t-261 138q-85 137 -85 425q0 563 340 563q86 0 135 -37q-28 72 -66 133h-172q-28 0 -28 29v39q0 29 28 29h105q-34 43 -107 108q-5 5 -7 12q-2 6 3 11q4 4 10 4h113q22 0 39 -17q50 -56 94 -118h135
q29 0 29 -29v-39q0 -29 -29 -29zM416 115q102 0 150 102t48 330t-48 330t-150 102q-103 0 -151 -102t-48 -330t48 -330t151 -102z" />
    <glyph glyph-name="ntilde" unicode="&#xf1;" horiz-adv-x="831" 
d="M737 774v-745q0 -29 -28 -29h-86q-29 0 -29 29v727q0 106 -35 162q-34 55 -117 55q-98 0 -151 -77t-53 -210v-657q0 -29 -29 -29h-86q-29 0 -29 29v1036q0 29 29 29h86q29 0 29 -29v-104q27 63 86 105q61 44 151 44q131 0 197 -91q65 -90 65 -245zM653 1325
q0 -68 -24 -98q-25 -31 -86 -31q-67 0 -133 33l-48 24q-78 39 -86 -18l-2 -14q-2 -21 -28 -21h-41q-27 0 -27 37q0 67 25 98t86 31q67 0 133 -33l47 -24q78 -39 86 18l2 14q1 21 29 21h41q26 0 26 -37z" />
    <glyph glyph-name="ograve" unicode="&#xf2;" horiz-adv-x="831" 
d="M416 -16q176 0 261 138q85 137 85 425t-85 425q-85 138 -261 138t-261 -138q-85 -137 -85 -425t85 -425q85 -138 261 -138zM416 115q-103 0 -151 102t-48 330t48 330t151 102q102 0 150 -102t48 -330t-48 -330t-150 -102zM397 1389l76 -164q5 -9 0 -17t-16 -8h-56
q-19 0 -36 19l-146 161q-11 8 -6 21q5 12 20 12h129q20 0 35 -24z" />
    <glyph glyph-name="oacute" unicode="&#xf3;" horiz-adv-x="831" 
d="M416 -16q176 0 261 138q85 137 85 425t-85 425q-85 138 -261 138t-261 -138q-85 -137 -85 -425t85 -425q85 -138 261 -138zM416 115q-103 0 -151 102t-48 330t48 330t151 102q102 0 150 -102t48 -330t-48 -330t-150 -102zM356 1225l76 164q12 24 35 24h129q16 0 20 -12
q5 -13 -6 -21l-145 -161q-17 -19 -37 -19h-55q-12 0 -17 8t0 17z" />
    <glyph glyph-name="ocircumflex" unicode="&#xf4;" horiz-adv-x="831" 
d="M416 -16q176 0 261 138q85 137 85 425t-85 425q-85 138 -261 138t-261 -138q-85 -137 -85 -425t85 -425q85 -138 261 -138zM416 115q-103 0 -151 102t-48 330t48 330t151 102q102 0 150 -102t48 -330t-48 -330t-150 -102zM516 1219l-100 106l-101 -106q-17 -19 -34 -19
h-72q-15 0 -18 9q-3 8 6 20l141 176q15 18 39 18h78q24 0 39 -18l141 -176q8 -11 5 -20t-17 -9h-72q-18 0 -35 19z" />
    <glyph glyph-name="otilde" unicode="&#xf5;" horiz-adv-x="831" 
d="M416 -16q-176 0 -261 138q-85 137 -85 425t85 425q85 138 261 138t261 -138q85 -137 85 -425t-85 -425q-85 -138 -261 -138zM416 115q102 0 150 102t48 330t-48 330t-150 102q-103 0 -151 -102t-48 -330t48 -330t151 -102zM653 1325q0 -68 -24 -98q-25 -31 -86 -31
q-67 0 -133 33l-48 24q-78 39 -86 -18l-2 -14q-2 -21 -28 -21h-41q-27 0 -27 37q0 67 25 98t86 31q67 0 133 -33l47 -24q78 -39 86 18l2 14q1 21 29 21h41q26 0 26 -37z" />
    <glyph glyph-name="odieresis" unicode="&#xf6;" horiz-adv-x="831" 
d="M416 -16q176 0 261 138q85 137 85 425t-85 425q-85 138 -261 138t-261 -138q-85 -137 -85 -425t85 -425q85 -138 261 -138zM416 115q-103 0 -151 102t-48 330t48 330t151 102q102 0 150 -102t48 -330t-48 -330t-150 -102zM360 1329v-100q0 -29 -28 -29h-94q-29 0 -29 29
v100q0 29 29 29h94q28 0 28 -29zM623 1329v-100q0 -29 -29 -29h-94q-29 0 -29 29v100q0 29 29 29h94q29 0 29 -29z" />
    <glyph glyph-name="divide" unicode="&#xf7;" horiz-adv-x="962" 
d="M831 657h-702q-27 0 -27 27v72q0 26 29 26h700q29 0 29 -26v-72q0 -27 -29 -27zM399 303v148q0 28 29 28h107q28 0 28 -28v-148q0 -29 -28 -29h-107q-29 0 -29 29zM399 987v148q0 28 29 28h107q28 0 28 -28v-148q0 -29 -28 -29h-107q-29 0 -29 29z" />
    <glyph glyph-name="oslash" unicode="&#xf8;" horiz-adv-x="839" 
d="M420 -16q-133 0 -217 84l-33 -58q-15 -25 -39 -10l-39 23q-24 12 -10 38l57 101q-65 127 -65 385q0 288 85 425q85 138 261 138q136 0 215 -84l35 57q16 25 39 11l39 -23q25 -12 10 -39l-58 -100q66 -141 66 -385q0 -288 -85 -425q-85 -138 -261 -138zM420 979
q-103 0 -151 -102t-48 -330q0 -133 15 -217l325 565q-47 84 -141 84zM420 115q102 0 150 102t48 330q0 125 -16 217l-323 -565q47 -84 141 -84z" />
    <glyph glyph-name="ugrave" unicode="&#xf9;" horiz-adv-x="823" 
d="M90 324v741q0 29 29 29h86q28 0 28 -29v-723q0 -109 34 -165t118 -56q91 0 144 78q53 79 53 209v657q0 29 28 29h86q29 0 29 -29v-1036q0 -29 -29 -29h-86q-28 0 -28 29v104q-61 -149 -230 -149q-132 0 -197 92t-65 248zM403 1389l76 -164q5 -9 0 -17t-16 -8h-55
q-20 0 -37 19l-146 161q-11 8 -6 21q5 12 21 12h129q19 0 34 -24z" />
    <glyph glyph-name="uacute" unicode="&#xfa;" horiz-adv-x="823" 
d="M90 324v741q0 29 29 29h86q28 0 28 -29v-723q0 -109 34 -165t118 -56q91 0 144 78q53 79 53 209v657q0 29 28 29h86q29 0 29 -29v-1036q0 -29 -29 -29h-86q-28 0 -28 29v104q-61 -149 -230 -149q-132 0 -197 92t-65 248zM342 1225l76 164q12 24 35 24h129q16 0 20 -12
q5 -13 -6 -21l-145 -161q-17 -19 -37 -19h-56q-11 0 -16 8t0 17z" />
    <glyph glyph-name="ucircumflex" unicode="&#xfb;" horiz-adv-x="823" 
d="M90 324v741q0 29 29 29h86q28 0 28 -29v-723q0 -109 34 -165t118 -56q91 0 144 78q53 79 53 209v657q0 29 28 29h86q29 0 29 -29v-1036q0 -29 -29 -29h-86q-28 0 -28 29v104q-61 -149 -230 -149q-132 0 -197 92t-65 248zM512 1219l-100 106l-101 -106q-17 -19 -35 -19
h-71q-15 0 -18 9q-3 8 6 20l141 176q16 18 39 18h78q23 0 38 -18l142 -176q8 -11 5 -20t-18 -9h-71q-18 0 -35 19z" />
    <glyph glyph-name="udieresis" unicode="&#xfc;" horiz-adv-x="823" 
d="M90 324v741q0 29 29 29h86q28 0 28 -29v-723q0 -109 34 -165t118 -56q91 0 144 78q53 79 53 209v657q0 29 28 29h86q29 0 29 -29v-1036q0 -29 -29 -29h-86q-28 0 -28 29v104q-61 -149 -230 -149q-132 0 -197 92t-65 248zM356 1329v-100q0 -29 -28 -29h-95q-28 0 -28 29
v100q0 29 28 29h95q28 0 28 -29zM618 1329v-100q0 -29 -28 -29h-94q-29 0 -29 29v100q0 29 29 29h94q28 0 28 -29z" />
    <glyph glyph-name="yacute" unicode="&#xfd;" horiz-adv-x="745" 
d="M707 1063l-224 -979q-22 -93 -37 -139q-17 -51 -48 -97q-32 -46 -81 -66q-51 -20 -122 -20q-63 0 -99 13q-24 7 -24 32v72q0 31 30 27q59 -10 84 -10q113 0 113 114q0 35 -10 74l-246 979q-6 31 23 31h92q26 0 32 -29l152 -659l41 -218h4l37 218l135 659q6 29 33 29h92
q29 0 23 -31zM324 1225l75 164q12 24 35 24h129q17 0 21 -12q5 -13 -6 -21l-146 -161q-17 -19 -37 -19h-55q-11 0 -16 8t0 17z" />
    <glyph glyph-name="thorn" unicode="&#xfe;" horiz-adv-x="864" 
d="M127 1438h86q29 0 29 -29v-461q21 69 84 115q64 47 149 47q320 0 320 -563t-320 -563q-87 0 -149 44t-84 117v-342q0 -28 -29 -28h-86q-29 0 -29 28v1606q0 29 29 29zM240 547q0 -432 213 -432q104 0 149 101q45 102 45 331t-45 331q-45 101 -149 101q-213 0 -213 -432z
" />
    <glyph glyph-name="ydieresis" unicode="&#xff;" horiz-adv-x="745" 
d="M707 1063l-224 -979q-22 -93 -37 -139q-17 -51 -48 -97q-32 -46 -81 -66q-51 -20 -122 -20q-63 0 -99 13q-24 7 -24 32v72q0 31 30 27q59 -10 84 -10q113 0 113 114q0 35 -10 74l-246 979q-6 31 23 31h92q26 0 32 -29l152 -659l41 -218h4l37 218l135 659q6 29 33 29h92
q29 0 23 -31zM317 1329v-100q0 -29 -28 -29h-94q-29 0 -29 29v100q0 29 29 29h94q28 0 28 -29zM580 1329v-100q0 -29 -29 -29h-94q-29 0 -29 29v100q0 29 29 29h94q29 0 29 -29z" />
    <glyph glyph-name="Amacron" unicode="&#x100;" horiz-adv-x="942" 
d="M315 528h312l-154 729h-4zM408 1438h127q34 0 40 -33l320 -1372q6 -33 -27 -33h-92q-27 0 -33 29l-84 360h-376l-84 -360q-6 -29 -33 -29h-92q-33 0 -27 33l320 1372q6 33 41 33zM674 1536h-406q-28 0 -28 29v51q0 29 28 29h406q28 0 28 -29v-51q0 -29 -28 -29z" />
    <glyph glyph-name="amacron" unicode="&#x101;" horiz-adv-x="778" 
d="M684 795v-766q0 -29 -29 -29h-77q-29 0 -29 29v114q-66 -155 -240 -155q-120 0 -186 82t-66 227q0 209 127 291t361 88v108q0 100 -39 147q-39 46 -129 46q-113 0 -223 -43q-10 -4 -22 2q-11 6 -11 20v78q0 28 24 35q108 41 244 41q156 0 225 -78q70 -79 70 -237z
M545 393v164q-175 -6 -261 -58q-87 -52 -87 -200q0 -182 143 -182q90 0 147 80q58 81 58 196zM592 1208h-406q-28 0 -28 29v47q0 29 28 29h406q29 0 29 -29v-47q0 -29 -29 -29z" />
    <glyph glyph-name="Abreve" unicode="&#x102;" horiz-adv-x="942" 
d="M315 528h312l-154 729h-4zM408 1438h127q34 0 40 -33l320 -1372q6 -33 -27 -33h-92q-27 0 -33 29l-84 360h-376l-84 -360q-6 -29 -33 -29h-92q-33 0 -27 33l320 1372q6 33 41 33zM471 1518q-105 0 -159 51q-55 51 -56 141q0 23 23 23h55q19 0 24 -23q12 -92 113 -92
t113 92q5 23 24 23h56q22 0 22 -23q-1 -90 -56 -141q-54 -51 -159 -51z" />
    <glyph glyph-name="abreve" unicode="&#x103;" horiz-adv-x="778" 
d="M684 795v-766q0 -29 -29 -29h-77q-29 0 -29 29v114q-66 -155 -240 -155q-120 0 -186 82t-66 227q0 209 127 291t361 88v108q0 100 -39 147q-39 46 -129 46q-113 0 -223 -43q-10 -4 -22 2q-11 6 -11 20v78q0 28 24 35q108 41 244 41q156 0 225 -78q70 -79 70 -237z
M545 393v164q-175 -6 -261 -58q-87 -52 -87 -200q0 -182 143 -182q90 0 147 80q58 81 58 196zM389 1196q-105 0 -159 51t-56 142q0 22 23 22h55q20 0 24 -22q12 -93 113 -93t113 93q4 22 24 22h56q22 0 22 -22q-2 -91 -56 -142t-159 -51z" />
    <glyph glyph-name="Aogonek" unicode="&#x104;" horiz-adv-x="942" 
d="M408 1438h127q34 0 40 -33l320 -1372q6 -33 -27 -33h-2q-100 -69 -100 -147q0 -56 76 -56q5 0 25 2t22 2q17 0 18 -14l6 -53q2 -21 -14 -27q-36 -16 -88 -16q-67 0 -111 30q-43 30 -43 95q0 53 35 103q36 51 88 81h-4q-27 0 -33 29l-84 360h-376l-84 -360q-6 -29 -33 -29
h-92q-33 0 -27 33l320 1372q6 33 41 33zM315 528h312l-154 729h-4z" />
    <glyph glyph-name="aogonek" unicode="&#x105;" horiz-adv-x="778" 
d="M684 795v-766q0 -29 -29 -29h-4q-98 -67 -98 -139q0 -51 70 -51q4 0 24 2t21 2q16 0 18 -15l6 -51q2 -21 -14 -27q-35 -14 -84 -14q-145 0 -145 117q0 105 120 176q-20 1 -20 29v114q-66 -155 -240 -155q-120 0 -186 82t-66 227q0 209 127 291t361 88v108q0 100 -39 147
q-39 46 -129 46q-113 0 -223 -43q-10 -4 -22 2q-11 6 -11 20v78q0 28 24 35q108 41 244 41q156 0 225 -78q70 -79 70 -237zM545 393v164q-175 -6 -261 -58q-87 -52 -87 -200q0 -182 143 -182q90 0 147 80q58 81 58 196z" />
    <glyph glyph-name="Cacute" unicode="&#x106;" horiz-adv-x="802" 
d="M549 127q65 0 149 20q35 11 35 -26v-74q0 -26 -31 -37q-71 -26 -174 -26q-237 0 -341 164q-105 165 -105 571t103 570q103 165 337 165q101 0 170 -24q31 -11 31 -37v-74q0 -38 -35 -27q-84 19 -145 19q-169 0 -236 -126q-67 -125 -67 -466q0 -342 68 -466
q69 -126 241 -126zM399 1548l76 164q13 25 35 25h129q15 0 20 -13q5 -12 -6 -20l-145 -162q-16 -18 -37 -18h-55q-12 0 -17 8t0 16z" />
    <glyph glyph-name="cacute" unicode="&#x107;" horiz-adv-x="647" 
d="M70 547q0 287 84 425t260 138q88 0 145 -23q31 -11 31 -36v-72q0 -31 -33 -21q-54 17 -123 17q-118 0 -168 -99q-49 -98 -49 -329q0 -229 50 -329q49 -99 171 -99q67 0 127 18q33 11 33 -20v-72q0 -26 -31 -37q-61 -24 -149 -24q-178 0 -263 138q-85 137 -85 425z
M317 1225l76 164q12 24 35 24h129q17 0 21 -12q5 -13 -7 -21l-145 -161q-17 -19 -37 -19h-55q-12 0 -17 8t0 17z" />
    <glyph glyph-name="Ccircumflex" unicode="&#x108;" horiz-adv-x="802" 
d="M549 127q65 0 149 20q35 11 35 -26v-74q0 -26 -31 -37q-71 -26 -174 -26q-237 0 -341 164q-105 165 -105 571t103 570q103 165 337 165q101 0 170 -24q31 -11 31 -37v-74q0 -38 -35 -27q-84 19 -145 19q-169 0 -236 -126q-67 -125 -67 -466q0 -342 68 -466
q69 -126 241 -126zM590 1542l-96 98l-97 -98q-17 -18 -35 -18h-71q-15 0 -18 9q-2 7 6 19l137 168q17 19 39 19h77q23 0 39 -19l138 -168q8 -11 5 -19q-3 -9 -18 -9h-71q-19 0 -35 18z" />
    <glyph glyph-name="ccircumflex" unicode="&#x109;" horiz-adv-x="647" 
d="M70 547q0 287 84 425t260 138q88 0 145 -23q31 -11 31 -36v-72q0 -31 -33 -21q-54 17 -123 17q-118 0 -168 -99q-49 -98 -49 -329q0 -229 50 -329q49 -99 171 -99q67 0 127 18q33 11 33 -20v-72q0 -26 -31 -37q-61 -24 -149 -24q-178 0 -263 138q-85 137 -85 425z
M465 1219l-100 106l-101 -106q-17 -19 -35 -19h-71q-14 0 -19 9t6 20l142 176q17 18 39 18h77q23 0 39 -18l142 -176q8 -11 5 -20t-18 -9h-71q-19 0 -35 19z" />
    <glyph glyph-name="Cdotaccent" unicode="&#x10a;" horiz-adv-x="802" 
d="M549 127q65 0 149 20q35 11 35 -26v-74q0 -26 -31 -37q-71 -26 -174 -26q-237 0 -341 164q-105 165 -105 571t103 570q103 165 337 165q101 0 170 -24q31 -11 31 -37v-74q0 -38 -35 -27q-84 19 -145 19q-169 0 -236 -126q-67 -125 -67 -466q0 -342 68 -466
q69 -126 241 -126zM575 1657v-105q0 -28 -28 -28h-103q-28 0 -28 28v105q0 29 28 29h103q28 0 28 -29z" />
    <glyph glyph-name="cdotaccent" unicode="&#x10b;" horiz-adv-x="647" 
d="M70 547q0 287 84 425t260 138q88 0 145 -23q31 -11 31 -36v-72q0 -31 -33 -21q-54 17 -123 17q-118 0 -168 -99q-49 -98 -49 -329q0 -229 50 -329q49 -99 171 -99q67 0 127 18q33 11 33 -20v-72q0 -26 -31 -37q-61 -24 -149 -24q-178 0 -263 138q-85 137 -85 425z
M475 1333v-104q0 -29 -29 -29h-102q-29 0 -29 29v104q0 29 29 29h102q29 0 29 -29z" />
    <glyph glyph-name="Ccaron" unicode="&#x10c;" horiz-adv-x="802" 
d="M549 127q65 0 149 20q35 11 35 -26v-74q0 -26 -31 -37q-71 -26 -174 -26q-237 0 -341 164q-105 165 -105 571t103 570q103 165 337 165q101 0 170 -24q31 -11 31 -37v-74q0 -38 -35 -27q-84 19 -145 19q-169 0 -236 -126q-67 -125 -67 -466q0 -342 68 -466
q69 -126 241 -126zM494 1622l94 96q18 21 37 21h71q15 0 18 -9t-5 -20l-138 -168q-15 -18 -39 -18h-77q-24 0 -39 18l-137 168q-9 12 -6 20q3 9 18 9h71q18 0 35 -19z" />
    <glyph glyph-name="ccaron" unicode="&#x10d;" horiz-adv-x="647" 
d="M70 547q0 287 84 425t260 138q88 0 145 -23q31 -11 31 -36v-72q0 -31 -33 -21q-54 17 -123 17q-118 0 -168 -99q-49 -98 -49 -329q0 -229 50 -329q49 -99 171 -99q67 0 127 18q33 11 33 -20v-72q0 -26 -31 -37q-61 -24 -149 -24q-178 0 -263 138q-85 137 -85 425z
M385 1298l100 107q15 18 35 18h72q14 0 17 -9q3 -8 -5 -19l-141 -176q-17 -19 -39 -19h-78q-22 0 -39 19l-141 176q-8 11 -5 19q3 9 17 9h72q20 0 35 -18z" />
    <glyph glyph-name="Dcaron" unicode="&#x10e;" horiz-adv-x="946" 
d="M395 0h-254q-30 0 -30 31v1376q0 31 30 31h250q244 0 361 -162q116 -161 116 -557q0 -398 -115 -558q-116 -161 -358 -161zM391 1294h-127v-1151h131q163 0 239 127q77 128 77 449q0 323 -78 449t-242 126zM473 1622l94 96q18 21 37 21h72q14 0 17 -9t-5 -20l-137 -168
q-15 -18 -39 -18h-78q-24 0 -39 18l-137 168q-8 11 -5 20t17 9h72q18 0 35 -19z" />
    <glyph glyph-name="dcaron" unicode="&#x10f;" horiz-adv-x="1024" 
d="M625 547q0 432 -213 432q-105 0 -150 -101q-45 -102 -45 -331t45 -331q45 -101 150 -101q213 0 213 432zM623 29v114q-22 -71 -84 -115t-150 -44q-319 0 -319 563t319 563q86 0 150 -47q63 -46 84 -115v461q0 29 28 29h86q29 0 29 -29v-1380q0 -29 -29 -29h-86
q-28 0 -28 29zM1018 1255l-62 -184q-6 -20 -28 -20h-35q-23 0 -16 26l47 176h-35q-29 0 -29 29v148q0 28 29 28h106q29 0 29 -28v-138q0 -14 -6 -37z" />
    <glyph glyph-name="Dcroat" unicode="&#x110;" horiz-adv-x="950" 
d="M399 0h-254q-30 0 -30 31v631h-62q-28 0 -28 28v60q0 28 28 28h62v629q0 31 30 31h250q244 0 361 -162q116 -161 116 -557q0 -398 -115 -558q-116 -161 -358 -161zM438 662h-170v-519h131q163 0 239 127q77 128 77 449q0 323 -78 449t-242 126h-127v-516h170q29 0 29 -28
v-60q0 -28 -29 -28z" />
    <glyph glyph-name="dcroat" unicode="&#x111;" horiz-adv-x="868" 
d="M623 29v116q-23 -73 -84 -117q-62 -44 -150 -44q-319 0 -319 563t319 563q86 0 150 -47q63 -46 84 -115v258h-189q-28 0 -28 29v39q0 29 28 29h189v106q0 29 28 29h86q29 0 29 -29v-106h53q29 0 29 -29v-39q0 -29 -29 -29h-53v-1177q0 -29 -29 -29h-86q-28 0 -28 29z
M625 547q0 432 -213 432q-105 0 -150 -101q-45 -102 -45 -331t45 -331q45 -101 150 -101q213 0 213 432z" />
    <glyph glyph-name="Emacron" unicode="&#x112;" horiz-adv-x="770" 
d="M641 666h-377v-523h398q30 0 30 -30v-82q0 -31 -30 -31h-521q-30 0 -30 31v1376q0 31 30 31h514q31 0 31 -31v-82q0 -31 -31 -31h-391v-489h377q31 0 31 -31v-78q0 -30 -31 -30zM612 1536h-405q-29 0 -29 29v51q0 29 29 29h405q29 0 29 -29v-51q0 -29 -29 -29z" />
    <glyph glyph-name="emacron" unicode="&#x113;" horiz-adv-x="774" 
d="M471 113q77 0 166 30q11 4 22 -2t11 -22v-70q0 -26 -29 -37q-81 -28 -178 -28q-203 0 -298 138q-95 139 -95 425q0 563 331 563q304 0 304 -498v-106q0 -29 -33 -29h-459q15 -364 258 -364zM399 981q-90 0 -135 -90t-51 -285h348v15q0 176 -35 269q-34 91 -127 91z
M600 1208h-405q-29 0 -29 29v47q0 29 29 29h405q29 0 29 -29v-47q0 -29 -29 -29z" />
    <glyph glyph-name="Ebreve" unicode="&#x114;" horiz-adv-x="770" 
d="M641 666h-377v-523h398q30 0 30 -30v-82q0 -31 -30 -31h-521q-30 0 -30 31v1376q0 31 30 31h514q31 0 31 -31v-82q0 -31 -31 -31h-391v-489h377q31 0 31 -31v-78q0 -30 -31 -30zM424 1518q-105 0 -159 51q-55 51 -56 141q0 23 22 23h56q19 0 24 -23q12 -92 113 -92
t113 92q5 23 24 23h55q23 0 23 -23q-1 -90 -56 -141q-54 -51 -159 -51z" />
    <glyph glyph-name="ebreve" unicode="&#x115;" horiz-adv-x="774" 
d="M471 113q77 0 166 30q11 4 22 -2t11 -22v-70q0 -26 -29 -37q-81 -28 -178 -28q-203 0 -298 138q-95 139 -95 425q0 563 331 563q304 0 304 -498v-106q0 -29 -33 -29h-459q15 -364 258 -364zM399 981q-90 0 -135 -90t-51 -285h348v15q0 176 -35 269q-34 91 -127 91z
M397 1196q-104 0 -158 51q-56 52 -57 142q0 22 23 22h55q21 0 25 -22q12 -93 112 -93q101 0 113 93q4 22 25 22h55q22 0 22 -22q-2 -91 -56 -142t-159 -51z" />
    <glyph glyph-name="Edotaccent" unicode="&#x116;" horiz-adv-x="770" 
d="M641 666h-377v-523h398q30 0 30 -30v-82q0 -31 -30 -31h-521q-30 0 -30 31v1376q0 31 30 31h514q31 0 31 -31v-82q0 -31 -31 -31h-391v-489h377q31 0 31 -31v-78q0 -30 -31 -30zM512 1657v-105q0 -28 -29 -28h-102q-29 0 -29 28v105q0 29 29 29h102q29 0 29 -29z" />
    <glyph glyph-name="edotaccent" unicode="&#x117;" horiz-adv-x="774" 
d="M471 113q77 0 166 30q11 4 22 -2t11 -22v-70q0 -26 -29 -37q-81 -28 -178 -28q-203 0 -298 138q-95 139 -95 425q0 563 331 563q304 0 304 -498v-106q0 -29 -33 -29h-459q15 -364 258 -364zM399 981q-90 0 -135 -90t-51 -285h348v15q0 176 -35 269q-34 91 -127 91z
M477 1333v-104q0 -29 -28 -29h-103q-29 0 -29 29v104q0 29 29 29h103q28 0 28 -29z" />
    <glyph glyph-name="Eogonek" unicode="&#x118;" horiz-adv-x="770" 
d="M641 666h-377v-523h398q30 0 30 -30v-82q0 -31 -30 -31h-17q-100 -69 -100 -147q0 -56 76 -56q5 0 25 2t22 2q17 0 18 -14l6 -53q2 -21 -14 -27q-36 -16 -88 -16q-68 0 -111 30t-43 95q0 53 35 103q36 51 88 81h-418q-30 0 -30 31v1376q0 31 30 31h514q31 0 31 -31v-82
q0 -31 -31 -31h-391v-489h377q31 0 31 -31v-78q0 -30 -31 -30z" />
    <glyph glyph-name="eogonek" unicode="&#x119;" horiz-adv-x="774" 
d="M471 113q77 0 166 30q11 4 22 -2t11 -22v-70q0 -26 -29 -37q-27 -9 -96 -22q-84 -62 -84 -129q0 -51 69 -51q5 0 25 2q4 0 8.5 0.5t7 1t4.5 0.5q17 0 19 -15l6 -51q2 -21 -14 -27q-35 -14 -84 -14q-146 0 -146 117q0 90 97 160q-200 2 -291 141q-92 140 -92 422
q0 563 331 563q304 0 304 -498v-106q0 -29 -33 -29h-459q15 -364 258 -364zM399 981q-90 0 -135 -90t-51 -285h348v15q0 176 -35 269q-34 91 -127 91z" />
    <glyph glyph-name="Ecaron" unicode="&#x11a;" horiz-adv-x="770" 
d="M641 666h-377v-523h398q30 0 30 -30v-82q0 -31 -30 -31h-521q-30 0 -30 31v1376q0 31 30 31h514q31 0 31 -31v-82q0 -31 -31 -31h-391v-489h377q31 0 31 -31v-78q0 -30 -31 -30zM420 1622l94 96q18 21 37 21h72q14 0 17 -9t-5 -20l-137 -168q-16 -18 -39 -18h-78
q-24 0 -39 18l-137 168q-8 11 -5 20t17 9h72q18 0 35 -19z" />
    <glyph glyph-name="ecaron" unicode="&#x11b;" horiz-adv-x="774" 
d="M471 113q77 0 166 30q11 4 22 -2t11 -22v-70q0 -26 -29 -37q-81 -28 -178 -28q-203 0 -298 138q-95 139 -95 425q0 563 331 563q304 0 304 -498v-106q0 -29 -33 -29h-459q15 -364 258 -364zM399 981q-90 0 -135 -90t-51 -285h348v15q0 176 -35 269q-34 91 -127 91z
M397 1298l101 107q15 18 34 18h72q15 0 18 -9q2 -7 -6 -19l-141 -176q-17 -19 -39 -19h-78q-22 0 -39 19l-141 176q-8 11 -5 19q3 9 17 9h72q20 0 35 -18z" />
    <glyph glyph-name="Gcircumflex" unicode="&#x11c;" horiz-adv-x="905" 
d="M477 827h299q31 0 31 -30v-719q0 -32 -31 -51q-68 -43 -231 -43q-251 0 -357 162q-106 163 -106 575q0 410 106 571q106 162 371 162q101 0 176 -22q31 -11 31 -39v-78q0 -31 -39 -25q-78 21 -158 21q-192 0 -261 -124q-68 -123 -68 -466t67 -468q67 -126 244 -126
q60 0 102 16v545h-176q-31 0 -31 31v78q0 30 31 30zM600 1542l-96 98l-96 -98q-17 -18 -35 -18h-72q-13 0 -18 9q-4 9 6 19l137 168q17 19 39 19h78q22 0 39 -19l137 -168q10 -10 6 -19q-5 -9 -18 -9h-72q-20 0 -35 18z" />
    <glyph glyph-name="gcircumflex" unicode="&#x11d;" horiz-adv-x="839" 
d="M600 592q0 190 -53 290q-53 99 -148 99q-96 0 -140 -95q-44 -96 -44 -294q0 -197 44 -293q43 -94 140 -94t149 98t52 289zM741 1065v-961q0 -170 -91 -258t-263 -88q-131 0 -217 33q-25 8 -25 35v76q0 32 33 22q112 -33 205 -33q215 0 215 224v123q-23 -74 -82 -117
t-139 -43q-307 0 -307 514q0 518 303 518q77 0 141 -47q63 -46 84 -115v117q0 29 29 29h86q28 0 28 -29zM520 1219l-100 106l-101 -106q-17 -19 -34 -19h-72q-14 0 -17 9t5 20l141 176q15 18 39 18h78q23 0 39 -18l141 -176q8 -11 5 -20t-17 -9h-72q-18 0 -35 19z" />
    <glyph glyph-name="Gbreve" unicode="&#x11e;" horiz-adv-x="905" 
d="M477 827h299q31 0 31 -30v-719q0 -32 -31 -51q-68 -43 -231 -43q-251 0 -357 162q-106 163 -106 575q0 410 106 571q106 162 371 162q101 0 176 -22q31 -11 31 -39v-78q0 -31 -39 -25q-78 21 -158 21q-192 0 -261 -124q-68 -123 -68 -466t67 -468q67 -126 244 -126
q60 0 102 16v545h-176q-31 0 -31 31v78q0 30 31 30zM514 1518q-105 0 -159 51q-55 51 -56 141q0 23 23 23h55q19 0 24 -23q12 -92 113 -92t113 92q5 23 24 23h56q22 0 22 -23q-1 -90 -56 -141q-54 -51 -159 -51z" />
    <glyph glyph-name="gbreve" unicode="&#x11f;" horiz-adv-x="839" 
d="M600 592q0 190 -53 290q-53 99 -148 99q-96 0 -140 -95q-44 -96 -44 -294q0 -197 44 -293q43 -94 140 -94t149 98t52 289zM741 1065v-961q0 -170 -91 -258t-263 -88q-131 0 -217 33q-25 8 -25 35v76q0 32 33 22q112 -33 205 -33q215 0 215 224v123q-23 -74 -82 -117
t-139 -43q-307 0 -307 514q0 518 303 518q77 0 141 -47q63 -46 84 -115v117q0 29 29 29h86q28 0 28 -29zM420 1196q-105 0 -159 51t-56 142q0 22 22 22h56q20 0 24 -22q12 -93 113 -93q100 0 112 93q4 22 25 22h55q23 0 23 -22q-2 -91 -56 -142t-159 -51z" />
    <glyph glyph-name="Gdotaccent" unicode="&#x120;" horiz-adv-x="905" 
d="M477 827h299q31 0 31 -30v-719q0 -32 -31 -51q-68 -43 -231 -43q-251 0 -357 162q-106 163 -106 575q0 410 106 571q106 162 371 162q101 0 176 -22q31 -11 31 -39v-78q0 -31 -39 -25q-78 21 -158 21q-192 0 -261 -124q-68 -123 -68 -466t67 -468q67 -126 244 -126
q60 0 102 16v545h-176q-31 0 -31 31v78q0 30 31 30zM614 1657v-105q0 -28 -28 -28h-103q-28 0 -28 28v105q0 29 28 29h103q28 0 28 -29z" />
    <glyph glyph-name="gdotaccent" unicode="&#x121;" horiz-adv-x="839" 
d="M600 592q0 190 -53 290q-53 99 -148 99q-96 0 -140 -95q-44 -96 -44 -294q0 -197 44 -293q43 -94 140 -94t149 98t52 289zM741 1065v-961q0 -170 -91 -258t-263 -88q-131 0 -217 33q-25 8 -25 35v76q0 32 33 22q112 -33 205 -33q215 0 215 224v123q-23 -74 -82 -117
t-139 -43q-307 0 -307 514q0 518 303 518q77 0 141 -47q63 -46 84 -115v117q0 29 29 29h86q28 0 28 -29zM500 1333v-104q0 -29 -29 -29h-102q-29 0 -29 29v104q0 29 29 29h102q29 0 29 -29z" />
    <glyph glyph-name="Gcommaaccent" unicode="&#x122;" horiz-adv-x="905" 
d="M477 827h299q31 0 31 -30v-719q0 -32 -31 -51q-68 -43 -231 -43q-251 0 -357 162q-106 163 -106 575q0 410 106 571q106 162 371 162q101 0 176 -22q31 -11 31 -39v-78q0 -31 -39 -25q-78 21 -158 21q-192 0 -261 -124q-68 -123 -68 -466t67 -468q67 -126 244 -126
q60 0 102 16v545h-176q-31 0 -31 31v78q0 30 31 30zM633 -268l-60 -158q-11 -23 -28 -23h-17q-20 0 -16 27l33 152h-45q-29 0 -29 28v115q0 29 29 29h110q29 0 29 -29v-106q0 -20 -6 -35z" />
    <glyph glyph-name="gcommaaccent" unicode="&#x123;" horiz-adv-x="839" 
d="M600 592q0 190 -53 290q-53 99 -148 99q-96 0 -140 -95q-44 -96 -44 -294q0 -197 44 -293q43 -94 140 -94t149 98t52 289zM741 1065v-961q0 -170 -91 -258t-263 -88q-131 0 -217 33q-25 8 -25 35v76q0 32 33 22q112 -33 205 -33q215 0 215 224v123q-23 -74 -82 -117
t-139 -43q-307 0 -307 514q0 518 303 518q77 0 141 -47q63 -46 84 -115v117q0 29 29 29h86q28 0 28 -29zM346 1356l55 153q11 23 29 23h16q22 0 17 -27l-33 -147h41q29 0 29 -29v-106q0 -29 -29 -29h-102q-29 0 -29 29v98q0 20 6 35z" />
    <glyph glyph-name="Hcircumflex" unicode="&#x124;" horiz-adv-x="954" 
d="M690 31v633h-426v-633q0 -31 -31 -31h-92q-30 0 -30 31v1376q0 31 30 31h92q31 0 31 -31v-600h426v600q0 31 31 31h92q31 0 31 -31v-1376q0 -31 -31 -31h-92q-31 0 -31 31zM573 1542l-96 98l-96 -98q-15 -18 -35 -18h-72q-14 0 -17 9q-3 8 5 19l137 168q16 19 39 19h78
q23 0 39 -19l137 -168q8 -11 5 -19q-3 -9 -17 -9h-72q-18 0 -35 18z" />
    <glyph glyph-name="hcircumflex" unicode="&#x125;" horiz-adv-x="843" 
d="M750 774v-745q0 -29 -29 -29h-86q-29 0 -29 29v727q0 217 -153 217q-101 0 -154 -78q-53 -79 -53 -209v-657q0 -29 -29 -29h-86q-29 0 -29 29v1380q0 29 29 29h86q29 0 29 -29v-448q27 61 87 105q61 44 152 44q132 0 198 -91q67 -93 67 -245zM518 1542l-96 98l-96 -98
q-17 -18 -35 -18h-72q-13 0 -18 9q-4 9 6 19l137 168q17 19 39 19h78q23 0 39 -19l137 -168q10 -10 6 -19q-5 -9 -18 -9h-72q-20 0 -35 18z" />
    <glyph glyph-name="Hbar" unicode="&#x126;" horiz-adv-x="954" 
d="M690 31v633h-426v-633q0 -31 -31 -31h-92q-30 0 -30 31v1073h-58q-28 0 -28 29v38q0 29 28 29h58v207q0 31 30 31h92q31 0 31 -31v-207h426v207q0 31 31 31h92q31 0 31 -31v-207h57q29 0 29 -29v-38q0 -29 -29 -29h-57v-1073q0 -31 -31 -31h-92q-31 0 -31 31zM264 807
h426v297h-426v-297z" />
    <glyph glyph-name="hbar" unicode="&#x127;" horiz-adv-x="843" 
d="M750 774v-745q0 -29 -29 -29h-86q-29 0 -29 29v727q0 217 -153 217q-101 0 -154 -78q-53 -79 -53 -209v-657q0 -29 -29 -29h-86q-29 0 -29 29v1177h-53q-29 0 -29 29v39q0 29 29 29h53v106q0 29 29 29h86q29 0 29 -29v-106h188q29 0 29 -29v-39q0 -29 -29 -29h-188v-245
q27 61 87 105q61 44 152 44q132 0 198 -91q67 -93 67 -245z" />
    <glyph glyph-name="Itilde" unicode="&#x128;" horiz-adv-x="399" 
d="M123 31v1376q0 31 31 31h92q30 0 30 -31v-1376q0 -31 -30 -31h-92q-31 0 -31 31zM444 1649q0 -129 -116 -129q-68 0 -133 32l-52 25q-84 39 -92 -18l-2 -15q-1 -20 -29 -20h-40q-27 0 -27 37q0 129 117 129q66 0 133 -33l51 -25q84 -39 92 19l2 14q2 21 29 21h41
q26 0 26 -37z" />
    <glyph glyph-name="itilde" unicode="&#x129;" horiz-adv-x="356" 
d="M250 1065v-1036q0 -29 -29 -29h-86q-29 0 -29 29v1036q0 29 29 29h86q29 0 29 -29zM416 1325q0 -67 -25 -98t-86 -31q-67 0 -133 33l-47 24q-78 39 -86 -18l-2 -14q-1 -21 -29 -21h-41q-26 0 -26 37q0 68 24 98q25 31 86 31q67 0 133 -33l47 -24q78 -39 86 18l2 14
q1 21 29 21h41q27 0 27 -37z" />
    <glyph glyph-name="Imacron" unicode="&#x12a;" horiz-adv-x="399" 
d="M123 31v1376q0 31 31 31h92q30 0 30 -31v-1376q0 -31 -30 -31h-92q-31 0 -31 31zM401 1536h-405q-29 0 -29 29v51q0 29 29 29h405q29 0 29 -29v-51q0 -29 -29 -29z" />
    <glyph glyph-name="imacron" unicode="&#x12b;" horiz-adv-x="356" 
d="M250 1065v-1036q0 -29 -29 -29h-86q-29 0 -29 29v1036q0 29 29 29h86q29 0 29 -29zM381 1208h-406q-28 0 -28 29v47q0 29 28 29h406q29 0 29 -29v-47q0 -29 -29 -29z" />
    <glyph glyph-name="Ibreve" unicode="&#x12c;" horiz-adv-x="399" 
d="M123 31v1376q0 31 31 31h92q30 0 30 -31v-1376q0 -31 -30 -31h-92q-31 0 -31 31zM199 1518q-105 0 -159 51q-55 51 -56 141q0 23 22 23h55q20 0 25 -23q12 -92 113 -92q100 0 112 92q5 23 25 23h55q23 0 23 -23q-1 -89 -57 -141q-54 -51 -158 -51z" />
    <glyph glyph-name="ibreve" unicode="&#x12d;" horiz-adv-x="356" 
d="M250 1065v-1036q0 -29 -29 -29h-86q-29 0 -29 29v1036q0 29 29 29h86q29 0 29 -29zM178 1196q-105 0 -159 51t-56 142q0 22 23 22h55q21 0 25 -22q12 -93 112 -93q101 0 113 93q4 22 24 22h56q22 0 22 -22q-2 -91 -56 -142t-159 -51z" />
    <glyph glyph-name="Iogonek" unicode="&#x12e;" horiz-adv-x="399" 
d="M123 31v1376q0 31 31 31h92q30 0 30 -31v-1376q0 -31 -30 -31q-101 -69 -101 -147q0 -56 76 -56q6 0 26 2t21 2q18 0 19 -14l6 -53q2 -21 -14 -27q-36 -16 -89 -16q-66 0 -110 30q-43 30 -43 95q0 53 35 103q36 51 88 81h-6q-31 0 -31 31z" />
    <glyph glyph-name="iogonek" unicode="&#x12f;" horiz-adv-x="356" 
d="M250 1065v-1036q0 -29 -29 -29h-4q-98 -67 -98 -139q0 -51 69 -51q5 0 25 2q4 0 8.5 0.5t7 1t4.5 0.5q17 0 19 -15l6 -51q2 -21 -14 -27q-35 -14 -84 -14q-146 0 -146 117q0 104 121 176q-29 0 -29 29v1036q0 29 29 29h86q29 0 29 -29zM254 1399v-142q0 -28 -29 -28h-94
q-29 0 -29 28v142q0 28 29 28h94q29 0 29 -28z" />
    <glyph glyph-name="Idotaccent" unicode="&#x130;" horiz-adv-x="399" 
d="M123 31v1376q0 31 31 31h92q30 0 30 -31v-1376q0 -31 -30 -31h-92q-31 0 -31 31zM279 1657v-105q0 -28 -29 -28h-103q-28 0 -28 28v105q0 29 28 29h103q29 0 29 -29z" />
    <glyph glyph-name="dotlessi" unicode="&#x131;" horiz-adv-x="356" 
d="M250 1065v-1036q0 -29 -29 -29h-86q-29 0 -29 29v1036q0 29 29 29h86q29 0 29 -29z" />
    <glyph glyph-name="IJ" unicode="&#x132;" horiz-adv-x="960" 
d="M123 31v1376q0 31 31 31h92q30 0 30 -31v-1376q0 -31 -30 -31h-92q-31 0 -31 31zM700 346v1061q0 31 31 31h92q31 0 31 -31v-1075q0 -188 -63 -266t-213 -78q-81 0 -129 16q-33 10 -33 41v76q0 30 30 24q57 -14 107 -14q79 0 114 45q33 43 33 170z" />
    <glyph glyph-name="ij" unicode="&#x133;" horiz-adv-x="733" 
d="M250 1065v-1036q0 -29 -29 -29h-86q-29 0 -29 29v1036q0 29 29 29h86q29 0 29 -29zM254 1399v-142q0 -28 -29 -28h-94q-29 0 -29 28v142q0 28 29 28h94q29 0 29 -28zM483 236v829q0 29 29 29h86q29 0 29 -29v-842q0 -131 -42 -183t-149 -52q-27 0 -67 8q-25 6 -25 31v71
q0 32 29 27q22 -2 41 -2q37 0 53 22t16 91zM631 1399v-142q0 -28 -29 -28h-94q-29 0 -29 28v142q0 28 29 28h94q29 0 29 -28z" />
    <glyph glyph-name="Jcircumflex" unicode="&#x134;" horiz-adv-x="593" 
d="M334 346v1061q0 31 31 31h92q30 0 30 -31v-1075q0 -188 -63 -266t-213 -78q-81 0 -129 16q-33 10 -33 41v76q0 30 31 24q57 -14 106 -14q80 0 114 45q34 44 34 170zM373 1542l-97 98l-96 -98q-15 -18 -35 -18h-71q-15 0 -18 9q-3 8 5 19l138 168q16 19 39 19h77
q23 0 39 -19l138 -168q10 -10 6 -19t-19 -9h-71q-18 0 -35 18z" />
    <glyph glyph-name="jcircumflex" unicode="&#x135;" horiz-adv-x="380" 
d="M127 14v1051q0 29 29 29h86q28 0 28 -29v-1063q0 -130 -42 -183q-42 -52 -148 -52q-28 0 -68 8q-24 6 -24 30v72q0 31 28 27q22 -2 41 -2q38 0 54 22t16 90zM303 1219l-100 106l-101 -106q-17 -19 -34 -19h-72q-15 0 -18 9q-3 8 6 20l141 176q17 18 39 18h78q24 0 39 -18
l141 -176q8 -11 5 -20t-17 -9h-72q-18 0 -35 19z" />
    <glyph glyph-name="Kcommaaccent" unicode="&#x136;" horiz-adv-x="860" 
d="M264 825l400 590q17 23 41 23h98q16 0 22 -12q6 -11 -4 -25l-432 -645l436 -719q10 -16 4 -27q-6 -10 -24 -10h-111q-24 0 -39 27l-391 647v-643q0 -31 -31 -31h-92q-30 0 -30 31v1376q0 31 30 31h92q31 0 31 -31v-582zM541 -268l-60 -158q-11 -23 -28 -23h-17
q-20 0 -16 27l33 152h-45q-29 0 -29 28v115q0 29 29 29h110q29 0 29 -29v-106q0 -20 -6 -35z" />
    <glyph glyph-name="kcommaaccent" unicode="&#x137;" horiz-adv-x="737" 
d="M694 0h-98q-25 0 -41 25l-309 493v-489q0 -29 -29 -29h-86q-29 0 -29 29v1380q0 29 29 29h86q29 0 29 -29v-723l301 383q19 25 43 25h96q18 0 25 -13q6 -11 -6 -26l-353 -447l361 -571q10 -14 5 -26q-4 -11 -24 -11zM467 -260l-55 -154q-10 -22 -29 -22h-16q-21 0 -17 26
l33 148h-41q-29 0 -29 29v106q0 29 29 29h102q29 0 29 -29v-98q0 -20 -6 -35z" />
    <glyph glyph-name="kgreenlandic" unicode="&#x138;" horiz-adv-x="737" 
d="M694 0h-98q-25 0 -41 25l-309 493v-489q0 -29 -29 -29h-86q-29 0 -29 29v1036q0 29 29 29h86q29 0 29 -29v-379l301 383q19 25 43 25h96q18 0 25 -13q6 -11 -6 -26l-353 -447l361 -571q10 -14 5 -26q-4 -11 -24 -11z" />
    <glyph glyph-name="Lacute" unicode="&#x139;" horiz-adv-x="716" 
d="M264 1407v-1264h361q30 0 30 -30v-82q0 -31 -30 -31h-484q-30 0 -30 31v1376q0 31 30 31h92q31 0 31 -31zM147 1548l76 164q13 25 35 25h129q16 0 21 -13q4 -12 -7 -20l-145 -162q-16 -18 -37 -18h-55q-12 0 -17 8t0 16z" />
    <glyph glyph-name="lacute" unicode="&#x13a;" horiz-adv-x="356" 
d="M250 1409v-1380q0 -29 -29 -29h-86q-29 0 -29 29v1380q0 29 29 29h86q29 0 29 -29zM131 1548l76 164q13 25 35 25h129q15 0 20 -13q5 -12 -6 -20l-145 -162q-17 -18 -37 -18h-56q-11 0 -16 8t0 16z" />
    <glyph glyph-name="Lcommaaccent" unicode="&#x13b;" horiz-adv-x="716" 
d="M264 1407v-1264h361q30 0 30 -30v-82q0 -31 -30 -31h-484q-30 0 -30 31v1376q0 31 30 31h92q31 0 31 -31zM477 -268l-59 -158q-11 -23 -29 -23h-16q-21 0 -17 27l33 152h-45q-29 0 -29 28v115q0 29 29 29h111q28 0 28 -29v-106q0 -20 -6 -35z" />
    <glyph glyph-name="lcommaaccent" unicode="&#x13c;" horiz-adv-x="356" 
d="M250 1409v-1380q0 -29 -29 -29h-86q-29 0 -29 29v1380q0 29 29 29h86q29 0 29 -29zM252 -260l-55 -154q-10 -22 -29 -22h-16q-21 0 -17 26l33 148h-41q-29 0 -29 29v106q0 29 29 29h102q29 0 29 -29v-98q0 -20 -6 -35z" />
    <glyph glyph-name="Lcaron" unicode="&#x13d;" horiz-adv-x="716" 
d="M264 1407v-1264h361q30 0 30 -30v-82q0 -31 -30 -31h-484q-30 0 -30 31v1376q0 31 30 31h92q31 0 31 -31zM584 1255l-62 -184q-6 -20 -28 -20h-35q-24 0 -17 26l47 176h-34q-29 0 -29 29v148q0 28 29 28h106q29 0 29 -28v-138q0 -14 -6 -37z" />
    <glyph glyph-name="lcaron" unicode="&#x13e;" horiz-adv-x="507" 
d="M250 1409v-1380q0 -29 -29 -29h-86q-29 0 -29 29v1380q0 29 29 29h86q29 0 29 -29zM502 1255l-62 -184q-6 -20 -28 -20h-35q-24 0 -17 26l48 176h-35q-29 0 -29 29v148q0 28 29 28h106q29 0 29 -28v-138q0 -14 -6 -37z" />
    <glyph glyph-name="Ldot" unicode="&#x13f;" horiz-adv-x="733" 
d="M264 1407v-1264h361q30 0 30 -30v-82q0 -31 -30 -31h-484q-30 0 -30 31v1376q0 31 30 31h92q31 0 31 -31zM508 575v148q0 29 29 29h106q29 0 29 -29v-148q0 -28 -29 -28h-106q-29 0 -29 28z" />
    <glyph glyph-name="ldot" unicode="&#x140;" horiz-adv-x="507" 
d="M250 1409v-1380q0 -29 -29 -29h-86q-29 0 -29 29v1380q0 29 29 29h86q29 0 29 -29zM344 473v148q0 28 29 28h106q29 0 29 -28v-148q0 -29 -29 -29h-106q-29 0 -29 29z" />
    <glyph glyph-name="Lslash" unicode="&#x141;" horiz-adv-x="720" 
d="M268 1407v-594l168 98q24 15 39 -10l21 -33q15 -24 -13 -39l-215 -124v-562h361q30 0 30 -30v-82q0 -31 -30 -31h-484q-30 0 -30 31v583l-41 -22q-26 -14 -41 10l-19 33q-14 23 11 39l90 51v682q0 31 30 31h93q30 0 30 -31z" />
    <glyph glyph-name="lslash" unicode="&#x142;" horiz-adv-x="364" 
d="M254 1409v-598l33 20q24 15 39 -10l20 -33q15 -23 -12 -38l-80 -48v-673q0 -29 -29 -29h-86q-28 0 -28 29v589l-33 -18q-26 -14 -41 10l-19 33q-14 23 11 39l82 47v680q0 29 28 29h86q29 0 29 -29z" />
    <glyph glyph-name="Nacute" unicode="&#x143;" horiz-adv-x="970" 
d="M860 1407v-1376q0 -31 -31 -31h-92q-29 0 -41 27l-436 1067v-1063q0 -31 -31 -31h-88q-30 0 -30 31v1376q0 31 30 31h92q29 0 41 -27l437 -1067v1063q0 31 30 31h88q31 0 31 -31zM438 1548l76 164q12 25 35 25h129q15 0 20 -13q5 -12 -6 -20l-145 -162q-17 -18 -37 -18
h-55q-12 0 -17 8t0 16z" />
    <glyph glyph-name="nacute" unicode="&#x144;" horiz-adv-x="831" 
d="M737 774v-745q0 -29 -28 -29h-86q-29 0 -29 29v727q0 106 -35 162q-34 55 -117 55q-98 0 -151 -77t-53 -210v-657q0 -29 -29 -29h-86q-29 0 -29 29v1036q0 29 29 29h86q29 0 29 -29v-104q27 63 86 105q61 44 151 44q131 0 197 -91q65 -90 65 -245zM369 1225l75 164
q12 24 35 24h129q16 0 21 -12q5 -13 -6 -21l-146 -161q-17 -19 -37 -19h-55q-11 0 -16 8t0 17z" />
    <glyph glyph-name="Ncommaaccent" unicode="&#x145;" horiz-adv-x="970" 
d="M860 1407v-1376q0 -31 -31 -31h-92q-29 0 -41 27l-436 1067v-1063q0 -31 -31 -31h-88q-30 0 -30 31v1376q0 31 30 31h92q29 0 41 -27l437 -1067v1063q0 31 30 31h88q31 0 31 -31zM563 -268l-59 -158q-11 -23 -29 -23h-16q-21 0 -17 27l33 152h-45q-29 0 -29 28v115
q0 29 29 29h111q28 0 28 -29v-106q0 -20 -6 -35z" />
    <glyph glyph-name="ncommaaccent" unicode="&#x146;" horiz-adv-x="831" 
d="M737 774v-745q0 -29 -28 -29h-86q-29 0 -29 29v727q0 106 -35 162q-34 55 -117 55q-98 0 -151 -77t-53 -210v-657q0 -29 -29 -29h-86q-29 0 -29 29v1036q0 29 29 29h86q29 0 29 -29v-104q27 63 86 105q61 44 151 44q131 0 197 -91q65 -90 65 -245zM489 -260l-55 -154
q-10 -22 -28 -22h-17q-20 0 -16 26l33 148h-41q-29 0 -29 29v106q0 29 29 29h102q29 0 29 -29v-98q0 -17 -7 -35z" />
    <glyph glyph-name="Ncaron" unicode="&#x147;" horiz-adv-x="970" 
d="M860 1407v-1376q0 -31 -31 -31h-92q-29 0 -41 27l-436 1067v-1063q0 -31 -31 -31h-88q-30 0 -30 31v1376q0 31 30 31h92q29 0 41 -27l437 -1067v1063q0 31 30 31h88q31 0 31 -31zM485 1622l95 96q18 21 36 21h72q15 0 18 -9q3 -8 -6 -20l-137 -168q-15 -18 -39 -18h-78
q-23 0 -38 18l-138 168q-8 11 -5 20t18 9h71q18 0 35 -19z" />
    <glyph glyph-name="ncaron" unicode="&#x148;" horiz-adv-x="831" 
d="M737 774v-745q0 -29 -28 -29h-86q-29 0 -29 29v727q0 106 -35 162q-34 55 -117 55q-98 0 -151 -77t-53 -210v-657q0 -29 -29 -29h-86q-29 0 -29 29v1036q0 29 29 29h86q29 0 29 -29v-104q27 63 86 105q61 44 151 44q131 0 197 -91q65 -90 65 -245zM416 1298l100 107
q16 18 35 18h72q14 0 17 -9q3 -8 -5 -19l-141 -176q-16 -19 -39 -19h-78q-23 0 -39 19l-141 176q-8 12 -6 19q3 9 18 9h72q17 0 34 -18z" />
    <glyph glyph-name="napostrophe" unicode="&#x149;" horiz-adv-x="974" 
d="M881 774v-745q0 -29 -29 -29h-86q-29 0 -29 29v727q0 106 -35 162q-34 55 -116 55q-99 0 -152 -77t-53 -210v-657q0 -29 -29 -29h-86q-28 0 -28 29v1036q0 29 28 29h86q29 0 29 -29v-104q27 63 86 105q61 44 151 44q131 0 197 -91t66 -245zM158 1282l-62 -184
q-6 -21 -28 -21h-35q-25 0 -17 27l47 176h-34q-29 0 -29 29v147q0 29 29 29h106q29 0 29 -29v-137q0 -16 -6 -37z" />
    <glyph glyph-name="Eng" unicode="&#x14a;" horiz-adv-x="970" 
d="M860 1407v-1352q0 -160 -50 -227q-50 -66 -161 -66q-48 0 -108 13q-25 6 -25 30v74q0 33 31 27q43 -8 80 -8q84 0 84 104l-451 1092v-1063q0 -31 -31 -31h-88q-30 0 -30 31v1376q0 31 30 31h92q29 0 41 -27l437 -1067v1063q0 31 30 31h88q31 0 31 -31z" />
    <glyph glyph-name="eng" unicode="&#x14b;" horiz-adv-x="831" 
d="M594 14v742q0 106 -35 162q-34 55 -117 55q-98 0 -151 -78q-53 -79 -53 -211v-655q0 -29 -29 -29h-86q-29 0 -29 29v1036q0 29 29 29h86q29 0 29 -29v-104q27 63 86 105q61 44 151 44q131 0 197 -91q65 -90 65 -245v-772q0 -130 -42 -183q-42 -52 -148 -52q-28 0 -68 8
q-24 6 -24 30v72q0 31 28 27q22 -2 41 -2q38 0 54 22t16 90z" />
    <glyph glyph-name="Omacron" unicode="&#x14c;" horiz-adv-x="991" 
d="M496 1454q210 0 312 -167q101 -165 101 -568t-101 -568q-102 -167 -312 -167q-211 0 -313 167q-101 165 -101 568t101 568q102 167 313 167zM496 123q133 0 194 133q62 135 62 463t-62 463q-61 133 -194 133q-134 0 -195 -133q-61 -132 -61 -463t61 -463
q61 -133 195 -133zM698 1536h-405q-29 0 -29 29v51q0 29 29 29h405q29 0 29 -29v-51q0 -29 -29 -29z" />
    <glyph glyph-name="omacron" unicode="&#x14d;" horiz-adv-x="831" 
d="M416 -16q176 0 261 138q85 137 85 425t-85 425q-85 138 -261 138t-261 -138q-85 -137 -85 -425t85 -425q85 -138 261 -138zM416 115q-103 0 -151 102t-48 330t48 330t151 102q102 0 150 -102t48 -330t-48 -330t-150 -102zM618 1208h-405q-29 0 -29 29v47q0 29 29 29h405
q29 0 29 -29v-47q0 -29 -29 -29z" />
    <glyph glyph-name="Obreve" unicode="&#x14e;" horiz-adv-x="991" 
d="M496 1454q210 0 312 -167q101 -165 101 -568t-101 -568q-102 -167 -312 -167q-211 0 -313 167q-101 165 -101 568t101 568q102 167 313 167zM496 123q133 0 194 133q62 135 62 463t-62 463q-61 133 -194 133q-134 0 -195 -133q-61 -132 -61 -463t61 -463
q61 -133 195 -133zM496 1518q-105 0 -159 51q-55 51 -56 141q0 23 22 23h55q20 0 25 -23q12 -92 113 -92q100 0 112 92q5 23 25 23h55q23 0 23 -23q-1 -89 -57 -141q-54 -51 -158 -51z" />
    <glyph glyph-name="obreve" unicode="&#x14f;" horiz-adv-x="831" 
d="M416 -16q-176 0 -261 138q-85 137 -85 425t85 425q85 138 261 138t261 -138q85 -137 85 -425t-85 -425q-85 -138 -261 -138zM416 115q102 0 150 102t48 330t-48 330t-150 102q-103 0 -151 -102t-48 -330t48 -330t151 -102zM416 1196q-105 0 -159 51t-56 142q0 22 22 22
h56q20 0 24 -22q12 -93 113 -93q100 0 112 93q4 22 25 22h55q23 0 23 -22q-1 -90 -57 -142q-54 -51 -158 -51z" />
    <glyph glyph-name="Ohungarumlaut" unicode="&#x150;" horiz-adv-x="991" 
d="M496 1454q210 0 312 -167q101 -165 101 -568t-101 -568q-102 -167 -312 -167q-211 0 -313 167q-101 165 -101 568t101 568q102 167 313 167zM496 123q133 0 194 133q62 135 62 463t-62 463q-61 133 -194 133q-134 0 -195 -133q-61 -132 -61 -463t61 -463
q61 -133 195 -133zM330 1548l71 164q8 25 37 25h103q14 0 17 -12q3 -10 -5 -21l-117 -162q-12 -18 -37 -18h-55q-26 0 -14 24zM580 1548l69 164q13 25 37 25h102q17 0 20 -12q3 -10 -5 -21l-117 -162q-15 -18 -39 -18h-53q-24 0 -14 24z" />
    <glyph glyph-name="ohungarumlaut" unicode="&#x151;" horiz-adv-x="831" 
d="M416 -16q176 0 261 138q85 137 85 425t-85 425q-85 138 -261 138t-261 -138q-85 -137 -85 -425t85 -425q85 -138 261 -138zM416 115q-103 0 -151 102t-48 330t48 330t151 102q102 0 150 -102t48 -330t-48 -330t-150 -102zM242 1225l71 164q11 24 37 24h99q33 0 12 -33
l-117 -161q-13 -19 -37 -19h-51q-26 0 -14 25zM487 1225l70 164q12 24 37 24h98q17 0 20 -11t-5 -22l-117 -161q-13 -19 -39 -19h-49q-28 0 -15 25z" />
    <glyph glyph-name="OE" unicode="&#x152;" horiz-adv-x="1323" 
d="M1194 666h-377v-523h397q31 0 31 -30v-82q0 -31 -31 -31h-659q-241 0 -357 161t-116 558q0 395 117 557t360 162h649q31 0 31 -31v-82q0 -31 -31 -31h-391v-489h377q31 0 31 -31v-78q0 -30 -31 -30zM668 1294h-109q-164 0 -242 -126q-77 -124 -77 -449q0 -322 76 -449
t239 -127h113v1151z" />
    <glyph glyph-name="oe" unicode="&#x153;" horiz-adv-x="1273" 
d="M977 113q71 0 160 30q11 4 22 -2q10 -6 10 -22v-70q0 -27 -28 -37q-81 -28 -172 -28q-219 0 -305 176q-78 -176 -263 -176q-331 0 -331 563t331 563q180 0 258 -166q73 166 244 166q301 0 301 -477v-107q0 -28 -33 -28h-446q12 -385 252 -385zM401 115q98 0 141 104
q44 106 44 328q0 221 -44 327q-43 105 -141 105q-97 0 -140 -105q-44 -106 -44 -327q0 -222 44 -328q43 -104 140 -104zM905 981q-168 0 -180 -354h336v14q0 340 -156 340z" />
    <glyph glyph-name="Racute" unicode="&#x154;" horiz-adv-x="892" 
d="M264 657h137q146 0 199 68t53 248q0 187 -55 254t-207 67h-127v-637zM141 1438h254q227 0 322 -107q94 -106 94 -358q0 -390 -254 -443l236 -493q18 -37 -21 -37h-94q-30 0 -41 25l-231 489h-142v-483q0 -31 -31 -31h-92q-30 0 -30 31v1376q0 31 30 31zM379 1548l76 164
q13 25 34 25h129q16 0 21 -13q5 -12 -6 -20l-146 -162q-17 -18 -36 -18h-56q-11 0 -16 8t0 16z" />
    <glyph glyph-name="racute" unicode="&#x155;" horiz-adv-x="540" 
d="M127 1094h86q29 0 29 -29v-147q17 74 80 132q60 56 145 56q37 0 37 -31v-104q0 -27 -27 -27q-9 0 -21 1t-32 1q-82 0 -132 -89t-50 -224v-604q0 -29 -29 -29h-86q-29 0 -29 29v1036q0 29 29 29zM201 1225l75 164q12 24 35 24h129q16 0 21 -12q5 -13 -6 -21l-146 -161
q-17 -19 -37 -19h-55q-11 0 -16 8t0 17z" />
    <glyph glyph-name="Rcommaaccent" unicode="&#x156;" horiz-adv-x="892" 
d="M264 657h137q146 0 199 68t53 248q0 187 -55 254t-207 67h-127v-637zM141 1438h254q227 0 322 -107q94 -106 94 -358q0 -390 -254 -443l236 -493q18 -37 -21 -37h-94q-30 0 -41 25l-231 489h-142v-483q0 -31 -31 -31h-92q-30 0 -30 31v1376q0 31 30 31zM541 -268
l-60 -158q-11 -23 -28 -23h-17q-20 0 -16 27l33 152h-45q-29 0 -29 28v115q0 29 29 29h110q29 0 29 -29v-106q0 -20 -6 -35z" />
    <glyph glyph-name="rcommaaccent" unicode="&#x157;" horiz-adv-x="540" 
d="M127 1094h86q29 0 29 -29v-147q17 74 80 132q60 56 145 56q37 0 37 -31v-104q0 -27 -27 -27q-9 0 -21 1t-32 1q-82 0 -132 -89t-50 -224v-604q0 -29 -29 -29h-86q-29 0 -29 29v1036q0 29 29 29zM246 -260l-56 -154q-10 -22 -28 -22h-17q-20 0 -16 26l33 148h-41
q-29 0 -29 29v106q0 29 29 29h102q29 0 29 -29v-98q0 -20 -6 -35z" />
    <glyph glyph-name="Rcaron" unicode="&#x158;" horiz-adv-x="892" 
d="M264 657h137q146 0 199 68t53 248q0 187 -55 254t-207 67h-127v-637zM141 1438h254q227 0 322 -107q94 -106 94 -358q0 -390 -254 -443l236 -493q18 -37 -21 -37h-94q-30 0 -41 25l-231 489h-142v-483q0 -31 -31 -31h-92q-30 0 -30 31v1376q0 31 30 31zM446 1622l95 96
q18 21 37 21h71q15 0 18 -9t-5 -20l-138 -168q-16 -18 -39 -18h-77q-22 0 -39 18l-138 168q-8 11 -5 20t18 9h71q19 0 35 -19z" />
    <glyph glyph-name="rcaron" unicode="&#x159;" horiz-adv-x="540" 
d="M127 1094h86q29 0 29 -29v-147q17 74 80 132q60 56 145 56q37 0 37 -31v-104q0 -27 -27 -27q-9 0 -21 1t-32 1q-82 0 -132 -89t-50 -224v-604q0 -29 -29 -29h-86q-29 0 -29 29v1036q0 29 29 29zM291 1298l100 107q15 18 35 18h72q14 0 17 -9q3 -8 -5 -19l-141 -176
q-17 -19 -39 -19h-78q-22 0 -39 19l-141 176q-8 11 -5 19q3 9 17 9h72q19 0 34 -18z" />
    <glyph glyph-name="Sacute" unicode="&#x15a;" horiz-adv-x="757" 
d="M688 342q0 -176 -93 -267q-92 -91 -271 -91q-137 0 -215 24q-33 10 -33 39v78q0 40 37 25q98 -25 194 -25q228 0 228 221q0 104 -52 174q-53 71 -168 160q-116 92 -178 186q-63 96 -63 244q0 171 82 257q82 87 270 87q99 0 178 -20q31 -8 31 -39v-78q0 -35 -39 -25
q-68 21 -162 21q-114 0 -160 -51q-47 -52 -47 -154t49 -170q48 -67 146 -145q59 -46 106 -91q42 -40 81 -92q44 -58 61 -121q18 -66 18 -147zM332 1548l76 164q12 25 34 25h129q16 0 21 -13q5 -12 -6 -20l-146 -162q-16 -18 -37 -18h-55q-11 0 -16 8t0 16z" />
    <glyph glyph-name="sacute" unicode="&#x15b;" horiz-adv-x="647" 
d="M590 287q0 -303 -309 -303q-120 0 -201 26q-27 8 -27 33v76q0 31 33 20q74 -26 184 -26q179 0 179 172q0 78 -40 124q-38 43 -143 113q-105 68 -156 136t-51 182q0 136 73 203t226 67q82 0 166 -23q25 -6 25 -32v-70q0 -28 -31 -22q-60 18 -143 18q-93 0 -134 -32
q-40 -31 -40 -113q0 -64 39 -111q40 -48 129 -104q116 -78 168 -146q53 -70 53 -188zM254 1225l76 164q12 24 35 24h129q15 0 20 -12q5 -13 -6 -21l-146 -161q-17 -19 -36 -19h-56q-11 0 -16 8t0 17z" />
    <glyph glyph-name="Scircumflex" unicode="&#x15c;" horiz-adv-x="757" 
d="M688 342q0 -176 -93 -267q-92 -91 -271 -91q-137 0 -215 24q-33 10 -33 39v78q0 40 37 25q98 -25 194 -25q228 0 228 221q0 104 -52 174q-53 71 -168 160q-116 92 -178 186q-63 96 -63 244q0 171 82 257q82 87 270 87q99 0 178 -20q31 -8 31 -39v-78q0 -35 -39 -25
q-68 21 -162 21q-114 0 -160 -51q-47 -52 -47 -154t49 -170q48 -67 146 -145q59 -46 106 -91q42 -40 81 -92q44 -58 61 -121q18 -66 18 -147zM475 1542l-96 98l-96 -98q-15 -18 -35 -18h-72q-14 0 -17 9q-3 8 5 19l137 168q16 19 39 19h78q22 0 39 -19l137 -168q8 -11 5 -19
q-3 -9 -17 -9h-72q-18 0 -35 18z" />
    <glyph glyph-name="scircumflex" unicode="&#x15d;" horiz-adv-x="647" 
d="M590 287q0 -303 -309 -303q-120 0 -201 26q-27 8 -27 33v76q0 31 33 20q74 -26 184 -26q179 0 179 172q0 78 -40 124q-38 43 -143 113q-105 68 -156 136t-51 182q0 136 73 203t226 67q82 0 166 -23q25 -6 25 -32v-70q0 -28 -31 -22q-60 18 -143 18q-93 0 -134 -32
q-40 -31 -40 -113q0 -64 39 -111q40 -48 129 -104q116 -78 168 -146q53 -70 53 -188zM424 1219l-100 106l-101 -106q-17 -19 -35 -19h-71q-15 0 -19 9q-5 9 6 20l142 176q16 18 39 18h77q22 0 39 -18l142 -176q8 -11 5 -20t-18 -9h-71q-19 0 -35 19z" />
    <glyph glyph-name="Scedilla" unicode="&#x15e;" horiz-adv-x="757" 
d="M688 342q0 -306 -270 -350q117 -68 117 -166q0 -133 -160 -133q-46 0 -70 8q-20 7 -20 27v51q0 18 20 18h49q68 0 68 56q0 68 -86 131h-12q-137 0 -215 24q-33 10 -33 39v78q0 40 37 25q98 -25 194 -25q228 0 228 221q0 104 -52 174q-53 71 -168 160q-116 92 -178 186
q-63 96 -63 244q0 171 82 257q82 87 270 87q99 0 178 -20q31 -8 31 -39v-78q0 -35 -39 -25q-68 21 -162 21q-114 0 -160 -51q-47 -52 -47 -154t49 -170q48 -67 146 -145q59 -46 106 -91q42 -40 81 -92q44 -58 61 -121q18 -66 18 -147z" />
    <glyph glyph-name="scedilla" unicode="&#x15f;" horiz-adv-x="647" 
d="M590 287q0 -275 -250 -299q109 -64 109 -154q0 -125 -156 -125q-44 0 -68 8q-18 6 -18 25v49q0 19 18 19h47q68 0 68 51q0 61 -84 123q-92 1 -176 26q-27 8 -27 33v76q0 31 33 20q74 -26 184 -26q179 0 179 172q0 78 -40 124q-38 43 -143 113q-105 68 -156 136t-51 182
q0 136 73 203t226 67q82 0 166 -23q25 -6 25 -32v-70q0 -28 -31 -22q-60 18 -143 18q-93 0 -134 -32q-40 -31 -40 -113q0 -64 39 -111q40 -48 129 -104q116 -78 168 -146q53 -70 53 -188z" />
    <glyph glyph-name="Scaron" unicode="&#x160;" horiz-adv-x="757" 
d="M688 342q0 -176 -93 -267q-92 -91 -271 -91q-137 0 -215 24q-33 10 -33 39v78q0 40 37 25q98 -25 194 -25q228 0 228 221q0 104 -52 174q-53 71 -168 160q-116 92 -178 186q-63 96 -63 244q0 171 82 257q82 87 270 87q99 0 178 -20q31 -8 31 -39v-78q0 -35 -39 -25
q-68 21 -162 21q-114 0 -160 -51q-47 -52 -47 -154t49 -170q48 -67 146 -145q59 -46 106 -91q42 -40 81 -92q44 -58 61 -121q18 -66 18 -147zM391 1622l94 96q18 21 37 21h72q14 0 17 -9t-5 -20l-137 -168q-15 -18 -39 -18h-78q-24 0 -39 18l-137 168q-8 11 -5 20t17 9h72
q18 0 35 -19z" />
    <glyph glyph-name="scaron" unicode="&#x161;" horiz-adv-x="647" 
d="M590 287q0 -303 -309 -303q-120 0 -201 26q-27 8 -27 33v76q0 31 33 20q74 -26 184 -26q179 0 179 172q0 78 -40 124q-38 43 -143 113q-105 68 -156 136t-51 182q0 136 73 203t226 67q82 0 166 -23q25 -6 25 -32v-70q0 -28 -31 -22q-60 18 -143 18q-93 0 -134 -32
q-40 -31 -40 -113q0 -64 39 -111q40 -48 129 -104q116 -78 168 -146q53 -70 53 -188zM324 1298l100 107q15 18 35 18h71q15 0 18 -9q3 -8 -5 -19l-142 -176q-17 -19 -39 -19h-77q-22 0 -39 19l-142 176q-8 11 -5 19q3 9 18 9h71q18 0 35 -18z" />
    <glyph glyph-name="Tcommaaccent" unicode="&#x162;" horiz-adv-x="739" 
d="M45 1325v82q0 31 31 31h588q30 0 30 -31v-82q0 -31 -30 -31h-218v-1263q0 -31 -30 -31h-92q-31 0 -31 31v1263h-217q-31 0 -31 31zM440 -268l-59 -158q-11 -23 -29 -23h-16q-22 0 -17 27l33 152h-45q-28 0 -28 28v115q0 29 28 29h111q28 0 28 -29v-106q0 -20 -6 -35z" />
    <glyph glyph-name="tcommaaccent" unicode="&#x163;" horiz-adv-x="532" 
d="M453 958h-156v-667q0 -99 20 -132q21 -34 86 -34q9 0 52 6q28 4 28 -25v-73q0 -27 -24 -33q-36 -10 -80 -10q-122 0 -172 62q-51 63 -51 224v682h-90q-29 0 -29 29v78q0 29 29 29h94v231q0 29 28 29h80q29 0 29 -29v-231h156q28 0 28 -29v-78q0 -29 -28 -29zM401 -260
l-55 -154q-10 -22 -29 -22h-16q-20 0 -16 26l32 148h-41q-28 0 -28 29v106q0 29 28 29h103q29 0 29 -29v-98q0 -17 -7 -35z" />
    <glyph glyph-name="Tcaron" unicode="&#x164;" horiz-adv-x="739" 
d="M45 1325v82q0 31 31 31h588q30 0 30 -31v-82q0 -31 -30 -31h-218v-1263q0 -31 -30 -31h-92q-31 0 -31 31v1263h-217q-31 0 -31 31zM362 1622l95 96q18 21 37 21h71q15 0 18 -9t-5 -20l-138 -168q-15 -18 -39 -18h-77q-24 0 -39 18l-138 168q-8 11 -5 20t18 9h71
q18 0 35 -19z" />
    <glyph glyph-name="tcaron" unicode="&#x165;" horiz-adv-x="720" 
d="M453 958h-156v-667q0 -99 20 -132q21 -34 86 -34q9 0 52 6q28 4 28 -25v-73q0 -27 -24 -33q-36 -10 -80 -10q-122 0 -172 62q-51 63 -51 224v682h-90q-29 0 -29 29v78q0 29 29 29h94v231q0 29 28 29h80q29 0 29 -29v-231h156q28 0 28 -29v-78q0 -29 -28 -29zM715 1282
l-62 -184q-6 -21 -28 -21h-35q-24 0 -17 27l48 176h-35q-29 0 -29 29v147q0 29 29 29h106q29 0 29 -29v-137q0 -16 -6 -37z" />
    <glyph glyph-name="Tbar" unicode="&#x166;" horiz-adv-x="739" 
d="M45 1325v82q0 31 31 31h588q30 0 30 -31v-82q0 -31 -30 -31h-218v-524h127q29 0 29 -29v-39q0 -28 -29 -28h-127v-643q0 -31 -30 -31h-92q-31 0 -31 31v643h-127q-29 0 -29 28v39q0 29 29 29h127v524h-217q-31 0 -31 31z" />
    <glyph glyph-name="tbar" unicode="&#x167;" horiz-adv-x="532" 
d="M453 958h-156v-362h147q29 0 29 -29v-39q0 -28 -29 -28h-147v-209q0 -99 20 -132q21 -34 86 -34q9 0 52 6q28 4 28 -25v-73q0 -27 -24 -33q-36 -10 -80 -10q-122 0 -172 62q-51 63 -51 224v224h-90q-29 0 -29 28v39q0 29 29 29h90v362h-90q-29 0 -29 29v78q0 29 29 29h94
v231q0 29 28 29h80q29 0 29 -29v-231h156q28 0 28 -29v-78q0 -29 -28 -29z" />
    <glyph glyph-name="Utilde" unicode="&#x168;" horiz-adv-x="933" 
d="M467 -16q-190 0 -276 104q-87 105 -87 332v987q0 31 31 31h92q31 0 31 -31v-975q0 -167 46 -235q47 -70 163 -70t163 70q46 68 46 235v975q0 31 31 31h92q30 0 30 -31v-987q0 -227 -87 -332q-86 -104 -275 -104zM713 1649q0 -129 -117 -129q-68 0 -133 32l-51 25
q-85 40 -93 -18l-2 -15q-1 -20 -28 -20h-41q-27 0 -27 37q0 129 117 129q66 0 133 -33l51 -25q84 -39 92 19l2 14q2 21 29 21h41q27 0 27 -37z" />
    <glyph glyph-name="utilde" unicode="&#x169;" horiz-adv-x="823" 
d="M90 324v741q0 29 29 29h86q28 0 28 -29v-723q0 -109 34 -165t118 -56q91 0 144 78q53 79 53 209v657q0 29 28 29h86q29 0 29 -29v-1036q0 -29 -29 -29h-86q-28 0 -28 29v104q-61 -149 -230 -149q-132 0 -197 92t-65 248zM649 1325q0 -68 -24 -98q-25 -31 -86 -31
q-67 0 -133 33l-48 24q-78 39 -86 -18l-2 -14q-2 -21 -28 -21h-41q-27 0 -27 37q0 67 25 98t86 31q67 0 133 -33l47 -24q78 -39 86 18l2 14q1 21 29 21h41q26 0 26 -37z" />
    <glyph glyph-name="Umacron" unicode="&#x16a;" horiz-adv-x="933" 
d="M467 -16q-190 0 -276 104q-87 105 -87 332v987q0 31 31 31h92q31 0 31 -31v-975q0 -167 46 -235q47 -70 163 -70t163 70q46 68 46 235v975q0 31 31 31h92q30 0 30 -31v-987q0 -227 -87 -332q-86 -104 -275 -104zM670 1536h-406q-28 0 -28 29v51q0 29 28 29h406
q28 0 28 -29v-51q0 -29 -28 -29z" />
    <glyph glyph-name="umacron" unicode="&#x16b;" horiz-adv-x="823" 
d="M90 324v741q0 29 29 29h86q28 0 28 -29v-723q0 -109 34 -165t118 -56q91 0 144 78q53 79 53 209v657q0 29 28 29h86q29 0 29 -29v-1036q0 -29 -29 -29h-86q-28 0 -28 29v104q-61 -149 -230 -149q-132 0 -197 92t-65 248zM614 1208h-405q-29 0 -29 29v47q0 29 29 29h405
q29 0 29 -29v-47q0 -29 -29 -29z" />
    <glyph glyph-name="Ubreve" unicode="&#x16c;" horiz-adv-x="933" 
d="M467 -16q-190 0 -276 104q-87 105 -87 332v987q0 31 31 31h92q31 0 31 -31v-975q0 -167 46 -235q47 -70 163 -70t163 70q46 68 46 235v975q0 31 31 31h92q30 0 30 -31v-987q0 -227 -87 -332q-86 -104 -275 -104zM467 1518q-105 0 -159 51q-55 51 -56 141q0 23 22 23h56
q19 0 24 -23q12 -92 113 -92t113 92q5 23 24 23h55q23 0 23 -23q-1 -90 -56 -141q-54 -51 -159 -51z" />
    <glyph glyph-name="ubreve" unicode="&#x16d;" horiz-adv-x="823" 
d="M90 324v741q0 29 29 29h86q28 0 28 -29v-723q0 -109 34 -165t118 -56q91 0 144 78q53 79 53 209v657q0 29 28 29h86q29 0 29 -29v-1036q0 -29 -29 -29h-86q-28 0 -28 29v104q-61 -149 -230 -149q-132 0 -197 92t-65 248zM412 1196q-105 0 -159 51t-56 142q0 22 22 22h55
q21 0 25 -22q12 -93 113 -93q100 0 112 93q4 22 25 22h55q23 0 23 -22q-1 -90 -57 -142q-54 -51 -158 -51z" />
    <glyph glyph-name="Uring" unicode="&#x16e;" horiz-adv-x="933" 
d="M467 -16q-190 0 -276 104q-87 105 -87 332v987q0 31 31 31h92q31 0 31 -31v-975q0 -167 46 -235q47 -70 163 -70t163 70q46 68 46 235v975q0 31 31 31h92q30 0 30 -31v-987q0 -227 -87 -332q-86 -104 -275 -104zM377 1673q0 -88 90 -88t90 88t-90 88t-90 -88zM291 1673
q0 75 47 122q46 46 129 46t129 -46q47 -47 47 -122t-47 -122q-46 -46 -129 -46t-129 46q-47 47 -47 122z" />
    <glyph glyph-name="uring" unicode="&#x16f;" horiz-adv-x="823" 
d="M90 324v741q0 29 29 29h86q28 0 28 -29v-723q0 -109 34 -165t118 -56q91 0 144 78q53 79 53 209v657q0 29 28 29h86q29 0 29 -29v-1036q0 -29 -29 -29h-86q-28 0 -28 29v104q-61 -149 -230 -149q-132 0 -197 92t-65 248zM412 1268q90 0 90 88t-90 88t-90 -88t90 -88z
M412 1524q83 0 129 -46q47 -47 47 -122t-47 -122q-46 -46 -129 -46t-129 46q-47 47 -47 122t47 122q46 46 129 46z" />
    <glyph glyph-name="Uhungarumlaut" unicode="&#x170;" horiz-adv-x="933" 
d="M467 -16q-190 0 -276 104q-87 105 -87 332v987q0 31 31 31h92q31 0 31 -31v-975q0 -167 46 -235q47 -70 163 -70t163 70q46 68 46 235v975q0 31 31 31h92q30 0 30 -31v-987q0 -227 -87 -332q-86 -104 -275 -104zM299 1548l72 164q11 25 37 25h102q14 0 17 -12
q3 -10 -5 -21l-116 -162q-12 -18 -37 -18h-56q-26 0 -14 24zM549 1548l69 164q12 25 37 25h103q16 0 19 -12q3 -10 -5 -21l-117 -162q-15 -18 -39 -18h-53q-25 0 -14 24z" />
    <glyph glyph-name="uhungarumlaut" unicode="&#x171;" horiz-adv-x="823" 
d="M90 324v741q0 29 29 29h86q28 0 28 -29v-723q0 -109 34 -165t118 -56q91 0 144 78q53 79 53 209v657q0 29 28 29h86q29 0 29 -29v-1036q0 -29 -29 -29h-86q-28 0 -28 29v104q-61 -149 -230 -149q-132 0 -197 92t-65 248zM225 1225l72 164q11 24 37 24h98q33 0 12 -33
l-116 -161q-13 -19 -37 -19h-51q-28 0 -15 25zM471 1225l70 164q12 24 37 24h98q16 0 19 -11t-5 -22l-117 -161q-13 -19 -38 -19h-50q-27 0 -14 25z" />
    <glyph glyph-name="Uogonek" unicode="&#x172;" horiz-adv-x="933" 
d="M467 -16q-190 0 -276 104q-87 105 -87 332v987q0 31 31 31h92q31 0 31 -31v-975q0 -167 46 -235q47 -70 163 -70t163 70q46 68 46 235v975q0 31 31 31h92q30 0 30 -31v-987q0 -190 -58 -291q-59 -103 -183 -131q-96 -69 -96 -145q0 -56 75 -56q6 0 26 2t21 2q18 0 19 -14
l6 -53q2 -21 -14 -27q-36 -16 -88 -16q-67 0 -111 30q-43 30 -43 95q0 95 98 168h-14z" />
    <glyph glyph-name="uogonek" unicode="&#x173;" horiz-adv-x="823" 
d="M90 324v741q0 29 29 29h86q28 0 28 -29v-723q0 -109 34 -165t118 -56q91 0 144 78q53 79 53 209v657q0 29 28 29h86q29 0 29 -29v-1036q0 -29 -29 -29h-2q-98 -67 -98 -139q0 -51 70 -51q4 0 24 2t21 2q17 0 18 -15l6 -51q2 -21 -14 -27q-35 -14 -84 -14q-145 0 -145 117
q0 105 120 176h-2q-28 0 -28 29v104q-61 -149 -230 -149q-132 0 -197 92t-65 248z" />
    <glyph glyph-name="Wcircumflex" unicode="&#x174;" horiz-adv-x="1482" 
d="M690 1438h103q32 0 38 -31l162 -852l64 -373h4l55 373l150 852q6 31 32 31h101q30 0 24 -33l-258 -1370q-8 -35 -41 -35h-131q-35 0 -41 35l-153 762l-56 350h-4l-57 -350l-152 -762q-6 -35 -41 -35h-131q-35 0 -41 35l-258 1370q-6 33 25 33h100q27 0 33 -31l150 -852
l55 -373h4l63 373l162 852q6 31 39 31zM838 1542l-97 98l-96 -98q-15 -18 -35 -18h-71q-15 0 -19 9t6 19l138 168q17 19 38 19h78q22 0 39 -19l137 -168q11 -11 7 -19q-5 -9 -19 -9h-72q-19 0 -34 18z" />
    <glyph glyph-name="wcircumflex" unicode="&#x175;" horiz-adv-x="1187" 
d="M547 1094h94q27 0 33 -29l129 -659l39 -230h4l31 230l116 659q6 29 33 29h88q29 0 23 -31l-203 -1034q-6 -29 -37 -29h-104q-31 0 -37 29l-117 573l-43 266h-4l-43 -266l-117 -573q-6 -29 -37 -29h-104q-31 0 -37 29l-203 1034q-6 31 23 31h88q27 0 33 -29l116 -659
l31 -230h4l39 230l129 659q6 29 33 29zM694 1219l-100 106l-100 -106q-16 -19 -35 -19h-72q-13 0 -18 9t6 20l141 176q16 18 39 18h78q23 0 39 -18l141 -176q8 -11 5 -20t-17 -9h-72q-19 0 -35 19z" />
    <glyph glyph-name="Ycircumflex" unicode="&#x176;" horiz-adv-x="899" 
d="M526 549v-518q0 -31 -30 -31h-93q-30 0 -30 31v518l-328 854q-12 35 23 35h100q26 0 37 -29l174 -483l70 -215h2l69 215l174 483q11 29 37 29h100q35 0 23 -35zM545 1542l-96 98l-97 -98q-16 -18 -35 -18h-71q-15 0 -18 9q-3 8 5 19l138 168q17 19 39 19h77q23 0 39 -19
l138 -168q8 -11 5 -19q-3 -9 -18 -9h-71q-18 0 -35 18z" />
    <glyph glyph-name="ycircumflex" unicode="&#x177;" horiz-adv-x="745" 
d="M707 1063l-224 -979q-22 -93 -37 -139q-17 -51 -48 -97q-32 -46 -81 -66q-51 -20 -122 -20q-63 0 -99 13q-24 7 -24 32v72q0 31 30 27q59 -10 84 -10q113 0 113 114q0 35 -10 74l-246 979q-6 31 23 31h92q26 0 32 -29l152 -659l41 -218h4l37 218l135 659q6 29 33 29h92
q29 0 23 -31zM473 1219l-100 106l-101 -106q-16 -19 -34 -19h-72q-14 0 -19 9q-4 9 7 20l141 176q15 18 39 18h78q22 0 39 -18l141 -176q8 -11 5 -20t-17 -9h-72q-19 0 -35 19z" />
    <glyph glyph-name="Ydieresis" unicode="&#x178;" horiz-adv-x="899" 
d="M526 549v-518q0 -31 -30 -31h-93q-30 0 -30 31v518l-328 854q-12 35 23 35h100q26 0 37 -29l174 -483l70 -215h2l69 215l174 483q11 29 37 29h100q35 0 23 -35zM393 1653v-101q0 -28 -28 -28h-99q-28 0 -28 28v101q0 28 28 28h99q28 0 28 -28zM659 1653v-101
q0 -28 -28 -28h-99q-28 0 -28 28v101q0 28 28 28h99q28 0 28 -28z" />
    <glyph glyph-name="Zacute" unicode="&#x179;" horiz-adv-x="798" 
d="M70 31v82q0 14 12 43l475 1138h-436q-31 0 -31 31v82q0 31 31 31h569q31 0 31 -31v-80q0 -21 -12 -45l-476 -1139h465q31 0 31 -30v-82q0 -31 -31 -31h-598q-30 0 -30 31zM352 1548l76 164q12 25 35 25h129q15 0 20 -13q5 -12 -6 -20l-145 -162q-16 -18 -37 -18h-55
q-12 0 -17 8t0 16z" />
    <glyph glyph-name="zacute" unicode="&#x17a;" horiz-adv-x="708" 
d="M625 1065v-57q0 -16 -11 -41l-378 -832h366q29 0 29 -29v-77q0 -29 -29 -29h-500q-28 0 -28 29v55q0 16 10 39l379 835h-350q-29 0 -29 29v78q0 29 29 29h483q29 0 29 -29zM305 1225l76 164q12 24 35 24h129q15 0 20 -12q5 -13 -6 -21l-145 -161q-17 -19 -37 -19h-55
q-12 0 -17 8t0 17z" />
    <glyph glyph-name="Zdotaccent" unicode="&#x17b;" horiz-adv-x="798" 
d="M70 31v82q0 14 12 43l475 1138h-436q-31 0 -31 31v82q0 31 31 31h569q31 0 31 -31v-80q0 -21 -12 -45l-476 -1139h465q31 0 31 -30v-82q0 -31 -31 -31h-598q-30 0 -30 31zM492 1657v-105q0 -28 -29 -28h-103q-28 0 -28 28v105q0 29 28 29h103q29 0 29 -29z" />
    <glyph glyph-name="zdotaccent" unicode="&#x17c;" horiz-adv-x="708" 
d="M625 1065v-57q0 -16 -11 -41l-378 -832h366q29 0 29 -29v-77q0 -29 -29 -29h-500q-28 0 -28 29v55q0 16 10 39l379 835h-350q-29 0 -29 29v78q0 29 29 29h483q29 0 29 -29zM434 1333v-104q0 -29 -28 -29h-103q-29 0 -29 29v104q0 29 29 29h103q28 0 28 -29z" />
    <glyph glyph-name="Zcaron" unicode="&#x17d;" horiz-adv-x="798" 
d="M70 31v82q0 14 12 43l475 1138h-436q-31 0 -31 31v82q0 31 31 31h569q31 0 31 -31v-80q0 -21 -12 -45l-476 -1139h465q31 0 31 -30v-82q0 -31 -31 -31h-598q-30 0 -30 31zM422 1622l94 96q18 21 37 21h72q14 0 17 -9t-5 -20l-137 -168q-15 -18 -39 -18h-78q-23 0 -39 18
l-137 168q-8 11 -5 20t17 9h72q19 0 35 -19z" />
    <glyph glyph-name="zcaron" unicode="&#x17e;" horiz-adv-x="708" 
d="M625 1065v-57q0 -16 -11 -41l-378 -832h366q29 0 29 -29v-77q0 -29 -29 -29h-500q-28 0 -28 29v55q0 16 10 39l379 835h-350q-29 0 -29 29v78q0 29 29 29h483q29 0 29 -29zM354 1298l101 107q16 18 34 18h72q15 0 18 -9q2 -7 -6 -19l-141 -176q-16 -19 -39 -19h-78
q-23 0 -39 19l-141 176q-8 11 -5 19q3 9 17 9h72q19 0 35 -18z" />
    <glyph glyph-name="longs" unicode="&#x17f;" horiz-adv-x="458" 
d="M305 1163v-1134q0 -29 -26 -29h-86q-29 0 -29 29v929h-90q-29 0 -29 29v78q0 29 29 29h90v75q0 151 53 215t174 64q49 0 86 -12q19 -6 19 -31v-66q0 -26 -29 -26l-26 2q-26 2 -29 2q-61 0 -84 -32t-23 -122z" />
    <glyph glyph-name="florin" unicode="&#x192;" horiz-adv-x="983" 
d="M618 1141l-43 -334h185q28 0 26 -29l-8 -65q-2 -29 -30 -29h-189l-86 -661q-18 -145 -74 -203t-180 -58q-50 0 -82 9q-21 6 -20 32l10 74q2 29 35 27q29 -4 41 -4q60 0 88 32q29 33 39 109l84 643h-121q-29 0 -27 29l8 65q2 29 31 29h125l47 356q22 162 80 227
q57 64 182 64q70 0 99 -10q22 -7 20 -31l-8 -61q-4 -33 -37 -27q-19 4 -49 4q-72 0 -102 -43q-32 -47 -44 -145z" />
    <glyph glyph-name="Aringacute" unicode="&#x1fa;" horiz-adv-x="942" 
d="M295 1530q0 60 33 104q33 43 90 58l61 133q12 24 35 24h129q17 0 21 -11q4 -10 -7 -21l-116 -131q106 -34 106 -156q0 -92 -69 -139l317 -1358q6 -33 -27 -33h-92q-27 0 -33 29l-84 360h-376l-84 -360q-6 -29 -33 -29h-92q-33 0 -27 33l315 1358q-67 49 -67 139zM315 528
h312l-154 729h-4zM381 1530q0 -88 90 -88t90 88t-90 88t-90 -88z" />
    <glyph glyph-name="aringacute" unicode="&#x1fb;" horiz-adv-x="778" 
d="M684 795v-766q0 -29 -29 -29h-77q-29 0 -29 29v114q-66 -155 -240 -155q-120 0 -186 82t-66 227q0 209 127 291t361 88v108q0 100 -39 147q-39 46 -129 46q-113 0 -223 -43q-10 -4 -22 2q-11 6 -11 20v78q0 28 24 35q108 41 244 41q156 0 225 -78q70 -79 70 -237z
M545 393v164q-175 -6 -261 -58q-87 -52 -87 -200q0 -182 143 -182q90 0 147 80q58 81 58 196zM213 1356q0 125 115 160l59 129q12 24 35 24h129q16 0 20 -11q4 -12 -6 -22l-110 -123q51 -17 81 -58q29 -41 29 -99q0 -75 -47 -122q-46 -46 -129 -46t-129 46q-47 47 -47 122z
M389 1268q90 0 90 88t-90 88t-90 -88t90 -88z" />
    <glyph glyph-name="AEacute" unicode="&#x1fc;" horiz-adv-x="1208" 
d="M1079 666h-344v-523h365q30 0 30 -30v-82q0 -31 -30 -31h-488q-30 0 -30 31v358h-301l-107 -360q-8 -29 -35 -29h-92q-35 0 -24 33l407 1372q8 33 43 33h621q30 0 30 -31v-82q0 -31 -30 -31h-359v-489h344q31 0 31 -31v-78q0 -30 -31 -30zM324 528h258v766h-50zM557 1548
l76 164q13 25 35 25h129q15 0 20 -13q5 -12 -6 -20l-145 -162q-16 -18 -37 -18h-56q-11 0 -16 8t0 16z" />
    <glyph glyph-name="aeacute" unicode="&#x1fd;" horiz-adv-x="1220" 
d="M924 113q70 0 159 30q12 4 23 -2q10 -6 10 -22v-70q0 -26 -29 -37q-81 -28 -172 -28q-239 0 -305 219q-77 -215 -284 -215q-131 0 -200 79t-69 218q0 190 125 268q124 77 355 82v149q0 100 -39 146q-39 47 -123 47q-111 0 -221 -43q-12 -4 -23 2q-10 6 -10 20v78
q0 28 24 35q108 41 242 41q189 0 240 -139q66 139 231 139q149 0 221 -128t72 -349v-107q0 -28 -33 -28h-446q15 -385 252 -385zM852 981q-168 0 -180 -354h336v14q0 340 -156 340zM537 393v123q-124 -5 -185 -21q-67 -18 -111 -68t-44 -140q0 -170 153 -170q88 0 137 79
q50 80 50 197zM543 1225l75 164q12 24 35 24h129q16 0 21 -12q5 -13 -6 -21l-146 -161q-17 -19 -37 -19h-55q-11 0 -16 8t0 17z" />
    <glyph glyph-name="Oslashacute" unicode="&#x1fe;" horiz-adv-x="999" 
d="M500 1454q184 0 284 -129l56 98q15 27 39 11l47 -27q25 -15 10 -39l-90 -156q67 -171 67 -493q0 -403 -101 -568q-102 -167 -312 -167q-189 0 -285 127l-55 -97q-15 -27 -39 -10l-47 27q-25 16 -11 39l89 155q-66 174 -66 494q0 403 101 568q102 167 313 167zM500 123
q133 0 194 133q62 135 62 463q0 173 -19 303l-436 -760q60 -139 199 -139zM244 719q0 -181 18 -303l434 758q-57 141 -196 141q-134 0 -195 -133q-61 -132 -61 -463zM432 1548l76 164q12 25 35 25h129q15 0 20 -13q5 -12 -6 -20l-145 -162q-17 -18 -37 -18h-55q-12 0 -17 8
t0 16z" />
    <glyph glyph-name="oslashacute" unicode="&#x1ff;" horiz-adv-x="839" 
d="M420 -16q176 0 261 138q85 137 85 425q0 244 -66 385l58 100q15 27 -10 39l-39 23q-23 14 -39 -11l-35 -57q-79 84 -215 84q-176 0 -261 -138q-85 -137 -85 -425q0 -258 65 -385l-57 -101q-14 -26 10 -38l39 -23q24 -15 39 10l33 58q84 -84 217 -84zM420 979
q94 0 141 -84l-325 -565q-15 84 -15 217q0 228 48 330t151 102zM420 115q-94 0 -141 84l323 565q16 -92 16 -217q0 -228 -48 -330t-150 -102zM352 1225l76 164q12 24 35 24h129q16 0 20 -12q5 -13 -6 -21l-145 -161q-17 -19 -37 -19h-55q-12 0 -17 8t0 17z" />
    <glyph glyph-name="Scommaaccent" unicode="&#x218;" horiz-adv-x="757" 
d="M688 342q0 -176 -93 -267q-92 -91 -271 -91q-137 0 -215 24q-33 10 -33 39v78q0 40 37 25q98 -25 194 -25q228 0 228 221q0 104 -52 174q-53 71 -168 160q-116 92 -178 186q-63 96 -63 244q0 171 82 257q82 87 270 87q99 0 178 -20q31 -8 31 -39v-78q0 -35 -39 -25
q-68 21 -162 21q-114 0 -160 -51q-47 -52 -47 -154t49 -170q48 -67 146 -145q59 -46 106 -91q42 -40 81 -92q44 -58 61 -121q18 -66 18 -147zM436 -268l-59 -158q-10 -22 -29 -22h-16q-21 0 -17 26l33 152h-45q-29 0 -29 28v115q0 29 29 29h111q28 0 28 -29v-106
q0 -20 -6 -35z" />
    <glyph glyph-name="scommaaccent" unicode="&#x219;" horiz-adv-x="647" 
d="M590 287q0 -303 -309 -303q-120 0 -201 26q-27 8 -27 33v76q0 31 33 20q74 -26 184 -26q179 0 179 172q0 78 -40 124q-38 43 -143 113q-105 68 -156 136t-51 182q0 136 73 203t226 67q82 0 166 -23q25 -6 25 -32v-70q0 -28 -31 -22q-60 18 -143 18q-93 0 -134 -32
q-40 -31 -40 -113q0 -64 39 -111q40 -48 129 -104q116 -78 168 -146q53 -70 53 -188zM397 -260l-55 -154q-10 -22 -29 -22h-16q-20 0 -16 26l32 148h-41q-28 0 -28 29v106q0 29 28 29h103q28 0 28 -29v-98q0 -20 -6 -35z" />
    <glyph glyph-name="uni021A" unicode="&#x21a;" horiz-adv-x="739" 
d="M45 1325v82q0 31 31 31h588q30 0 30 -31v-82q0 -31 -30 -31h-218v-1263q0 -31 -30 -31h-92q-31 0 -31 31v1263h-217q-31 0 -31 31zM440 -268l-59 -158q-11 -23 -29 -23h-16q-22 0 -17 27l33 152h-45q-28 0 -28 28v115q0 29 28 29h111q28 0 28 -29v-106q0 -20 -6 -35z" />
    <glyph glyph-name="uni021B" unicode="&#x21b;" horiz-adv-x="532" 
d="M453 958h-156v-667q0 -99 20 -132q21 -34 86 -34q9 0 52 6q28 4 28 -25v-73q0 -27 -24 -33q-36 -10 -80 -10q-122 0 -172 62q-51 63 -51 224v682h-90q-29 0 -29 29v78q0 29 29 29h94v231q0 29 28 29h80q29 0 29 -29v-231h156q28 0 28 -29v-78q0 -29 -28 -29zM401 -260
l-55 -154q-10 -22 -29 -22h-16q-20 0 -16 26l32 148h-41q-28 0 -28 29v106q0 29 28 29h103q29 0 29 -29v-98q0 -17 -7 -35z" />
    <glyph glyph-name="dotlessj" unicode="&#x237;" horiz-adv-x="376" 
d="M127 14v1051q0 29 29 29h86q28 0 28 -29v-1063q0 -130 -42 -183q-42 -52 -148 -52q-28 0 -68 8q-24 6 -24 30v72q0 31 28 27q22 -2 41 -2q38 0 54 22t16 90z" />
    <glyph glyph-name="circumflex" unicode="&#x2c6;" horiz-adv-x="520" 
d="M360 1219l-100 106l-100 -106q-16 -19 -35 -19h-72q-14 0 -17 9t5 20l141 176q15 18 39 18h78q24 0 39 -18l141 -176q8 -11 5 -20t-17 -9h-72q-18 0 -35 19z" />
    <glyph glyph-name="caron" unicode="&#x2c7;" horiz-adv-x="520" 
d="M260 1298l100 107q17 18 35 18h72q14 0 17 -9q3 -8 -5 -19l-141 -176q-16 -19 -39 -19h-78q-23 0 -39 19l-141 176q-8 11 -5 19q3 9 17 9h72q19 0 35 -18z" />
    <glyph glyph-name="uni02C9" unicode="&#x2c9;" horiz-adv-x="520" 
d="M463 1208h-406q-28 0 -28 29v47q0 29 28 29h406q29 0 29 -29v-47q0 -29 -29 -29z" />
    <glyph glyph-name="breve" unicode="&#x2d8;" horiz-adv-x="520" 
d="M260 1196q-105 0 -159 51t-56 142q0 22 23 22h55q20 0 24 -22q12 -93 113 -93t113 93q4 22 24 22h56q22 0 22 -22q-2 -91 -56 -142t-159 -51z" />
    <glyph glyph-name="dotaccent" unicode="&#x2d9;" horiz-adv-x="520" 
d="M340 1333v-104q0 -29 -29 -29h-102q-29 0 -29 29v104q0 29 29 29h102q29 0 29 -29z" />
    <glyph glyph-name="ring" unicode="&#x2da;" horiz-adv-x="520" 
d="M260 1268q90 0 90 88t-90 88t-90 -88t90 -88zM260 1524q83 0 129 -46q47 -47 47 -122t-47 -122q-46 -46 -129 -46t-129 46q-47 47 -47 122t47 122q46 46 129 46z" />
    <glyph glyph-name="ogonek" unicode="&#x2db;" horiz-adv-x="520" 
d="M276 16h76q-125 -77 -125 -155q0 -51 70 -51q5 0 25 2q4 0 8.5 0.5t7 1t4.5 0.5q16 0 18 -15l7 -51q1 -21 -15 -27q-32 -14 -84 -14q-145 0 -145 117q0 58 45 110q46 54 108 82z" />
    <glyph glyph-name="tilde" unicode="&#x2dc;" horiz-adv-x="520" 
d="M498 1325q0 -67 -25 -98t-86 -31q-67 0 -133 33l-47 24q-78 39 -86 -18l-2 -14q-1 -21 -29 -21h-41q-26 0 -26 37q0 68 24 98q25 31 86 31q67 0 133 -33l47 -24q78 -39 86 18l2 14q1 21 29 21h41q27 0 27 -37z" />
    <glyph glyph-name="hungarumlaut" unicode="&#x2dd;" horiz-adv-x="520" 
d="M90 1225l72 164q7 24 37 24h98q33 0 12 -33l-116 -161q-13 -19 -37 -19h-52q-26 0 -14 25zM336 1225l70 164q12 24 36 24h99q16 0 19 -11t-5 -22l-117 -161q-13 -19 -39 -19h-49q-26 0 -14 25z" />
    <glyph glyph-name="uni037E" unicode="&#x37e;" horiz-adv-x="360" 
d="M98 463v147q0 29 29 29h106q29 0 29 -29v-147q0 -29 -29 -29h-106q-29 0 -29 29z" />
    <glyph glyph-name="uni0394" unicode="&#x394;" horiz-adv-x="1015" 
d="M434 1438h148q33 0 39 -35l297 -1358q10 -45 -37 -45h-746q-47 0 -37 45l297 1358q6 35 39 35zM504 1276l-234 -1137h475l-233 1137h-8z" />
    <glyph glyph-name="uni03A9" unicode="&#x3a9;" horiz-adv-x="1126" 
d="M563 1456q241 0 362 -157q119 -155 119 -433q0 -215 -70 -367q-70 -153 -177 -237v-125l168 10q30 5 30 -26v-92q0 -29 -28 -29h-320v279q0 22 23 40q217 168 217 549q0 449 -324 449q-323 0 -323 -449q0 -381 217 -549q22 -18 22 -40v-279h-319q-29 0 -29 29v92
q0 31 31 26l168 -10v125q-106 84 -177 237q-71 154 -71 367q0 277 120 433q121 157 361 157z" />
    <glyph glyph-name="uni03BC" unicode="&#x3bc;" horiz-adv-x="827" 
d="M733 1065v-741q0 -157 -64 -248q-65 -92 -198 -92q-168 0 -229 149v-330q0 -28 -29 -28h-86q-29 0 -29 28v1262q0 29 29 29h86q29 0 29 -29v-657q0 -132 52 -209q52 -78 144 -78q84 0 118 56t34 165v723q0 29 28 29h87q28 0 28 -29z" />
    <glyph glyph-name="pi" unicode="&#x3c0;" horiz-adv-x="995" 
d="M776 961v-717q0 -72 20 -100q20 -27 72 -27q31 0 50 4q32 6 32 -27v-63q0 -23 -24 -31q-29 -10 -90 -10q-108 0 -154 58q-47 59 -47 183v730h-232l-141 -932q-5 -29 -31 -29h-92q-29 0 -24 29l145 932h-149q-29 0 -29 28v76q0 29 29 29h802q29 0 29 -29v-76
q0 -28 -29 -28h-137z" />
    <glyph glyph-name="Wgrave" unicode="&#x1e80;" horiz-adv-x="1482" 
d="M690 1438h103q32 0 38 -31l162 -852l64 -373h4l55 373l150 852q6 31 32 31h101q30 0 24 -33l-258 -1370q-8 -35 -41 -35h-131q-35 0 -41 35l-153 762l-56 350h-4l-57 -350l-152 -762q-6 -35 -41 -35h-131q-35 0 -41 35l-258 1370q-6 33 25 33h100q27 0 33 -31l150 -852
l55 -373h4l63 373l162 852q6 31 39 31zM713 1712l75 -164q5 -8 0 -16t-16 -8h-55q-21 0 -37 18l-145 162q-11 8 -7 20q5 13 21 13h129q22 0 35 -25z" />
    <glyph glyph-name="wgrave" unicode="&#x1e81;" horiz-adv-x="1187" 
d="M547 1094h94q27 0 33 -29l129 -659l39 -230h4l31 230l116 659q6 29 33 29h88q29 0 23 -31l-203 -1034q-6 -29 -37 -29h-104q-31 0 -37 29l-117 573l-43 266h-4l-43 -266l-117 -573q-6 -29 -37 -29h-104q-31 0 -37 29l-203 1034q-6 31 23 31h88q27 0 33 -29l116 -659
l31 -230h4l39 230l129 659q6 29 33 29zM565 1389l76 -164q5 -9 0 -17t-16 -8h-56q-20 0 -37 19l-145 161q-11 8 -6 21q5 12 20 12h129q20 0 35 -24z" />
    <glyph glyph-name="Wacute" unicode="&#x1e82;" horiz-adv-x="1482" 
d="M690 1438h103q32 0 38 -31l162 -852l64 -373h4l55 373l150 852q6 31 32 31h101q30 0 24 -33l-258 -1370q-8 -35 -41 -35h-131q-35 0 -41 35l-153 762l-56 350h-4l-57 -350l-152 -762q-6 -35 -41 -35h-131q-35 0 -41 35l-258 1370q-6 33 25 33h100q27 0 33 -31l150 -852
l55 -373h4l63 373l162 852q6 31 39 31zM694 1548l76 164q12 25 35 25h129q15 0 20 -13q5 -12 -6 -20l-145 -162q-17 -18 -37 -18h-55q-12 0 -17 8t0 16z" />
    <glyph glyph-name="wacute" unicode="&#x1e83;" horiz-adv-x="1187" 
d="M547 1094h94q27 0 33 -29l129 -659l39 -230h4l31 230l116 659q6 29 33 29h88q29 0 23 -31l-203 -1034q-6 -29 -37 -29h-104q-31 0 -37 29l-117 573l-43 266h-4l-43 -266l-117 -573q-6 -29 -37 -29h-104q-31 0 -37 29l-203 1034q-6 31 23 31h88q27 0 33 -29l116 -659
l31 -230h4l39 230l129 659q6 29 33 29zM545 1225l76 164q12 24 34 24h129q16 0 21 -12q5 -13 -6 -21l-146 -161q-17 -19 -37 -19h-55q-11 0 -16 8t0 17z" />
    <glyph glyph-name="Wdieresis" unicode="&#x1e84;" horiz-adv-x="1482" 
d="M690 1438h103q32 0 38 -31l162 -852l64 -373h4l55 373l150 852q6 31 32 31h101q30 0 24 -33l-258 -1370q-8 -35 -41 -35h-131q-35 0 -41 35l-153 762l-56 350h-4l-57 -350l-152 -762q-6 -35 -41 -35h-131q-35 0 -41 35l-258 1370q-6 33 25 33h100q27 0 33 -31l150 -852
l55 -373h4l63 373l162 852q6 31 39 31zM686 1653v-101q0 -28 -29 -28h-98q-29 0 -29 28v101q0 28 29 28h98q29 0 29 -28zM952 1653v-101q0 -28 -28 -28h-99q-28 0 -28 28v101q0 28 28 28h99q28 0 28 -28z" />
    <glyph glyph-name="wdieresis" unicode="&#x1e85;" horiz-adv-x="1187" 
d="M547 1094h94q27 0 33 -29l129 -659l39 -230h4l31 230l116 659q6 29 33 29h88q29 0 23 -31l-203 -1034q-6 -29 -37 -29h-104q-31 0 -37 29l-117 573l-43 266h-4l-43 -266l-117 -573q-6 -29 -37 -29h-104q-31 0 -37 29l-203 1034q-6 31 23 31h88q27 0 33 -29l116 -659
l31 -230h4l39 230l129 659q6 29 33 29zM539 1329v-100q0 -29 -29 -29h-94q-29 0 -29 29v100q0 29 29 29h94q29 0 29 -29zM801 1329v-100q0 -29 -29 -29h-94q-29 0 -29 29v100q0 29 29 29h94q29 0 29 -29z" />
    <glyph glyph-name="Ygrave" unicode="&#x1ef2;" horiz-adv-x="899" 
d="M526 549v-518q0 -31 -30 -31h-93q-30 0 -30 31v518l-328 854q-12 35 23 35h100q26 0 37 -29l174 -483l70 -215h2l69 215l174 483q11 29 37 29h100q35 0 23 -35zM420 1712l76 -164q5 -8 0 -16t-17 -8h-55q-20 0 -37 18l-145 162q-11 8 -6 20q5 13 20 13h129q23 0 35 -25z
" />
    <glyph glyph-name="ygrave" unicode="&#x1ef3;" horiz-adv-x="745" 
d="M707 1063l-224 -979q-22 -93 -37 -139q-17 -51 -48 -97q-32 -46 -81 -66q-51 -20 -122 -20q-63 0 -99 13q-24 7 -24 32v72q0 31 30 27q59 -10 84 -10q113 0 113 114q0 35 -10 74l-246 979q-6 31 23 31h92q26 0 32 -29l152 -659l41 -218h4l37 218l135 659q6 29 33 29h92
q29 0 23 -31zM344 1389l76 -164q5 -9 0 -17t-17 -8h-55q-20 0 -37 19l-145 161q-11 8 -6 21q4 12 20 12h129q20 0 35 -24z" />
    <glyph glyph-name="figuredash" unicode="&#x2012;" horiz-adv-x="839" 
d="M709 510h-580q-27 0 -27 27v71q0 27 29 27h578q28 0 28 -27v-71q0 -27 -28 -27z" />
    <glyph glyph-name="endash" unicode="&#x2013;" horiz-adv-x="749" 
d="M651 489h-555q-26 0 -26 27v72q0 26 28 26h553q29 0 29 -26v-72q0 -27 -29 -27z" />
    <glyph glyph-name="emdash" unicode="&#x2014;" horiz-adv-x="1097" 
d="M999 489h-903q-26 0 -26 27v72q0 26 28 26h901q29 0 29 -26v-72q0 -27 -29 -27z" />
    <glyph glyph-name="quoteleft" unicode="&#x2018;" horiz-adv-x="348" 
d="M100 1237l62 184q6 21 28 21h35q25 0 17 -27l-47 -176h34q29 0 29 -29v-147q0 -29 -29 -29h-106q-29 0 -29 29v137q0 16 6 37z" />
    <glyph glyph-name="quoteright" unicode="&#x2019;" horiz-adv-x="348" 
d="M248 1235l-62 -184q-6 -21 -28 -21h-35q-25 0 -17 27l48 176h-35q-29 0 -29 29v147q0 29 29 29h106q29 0 29 -29v-137q0 -14 -6 -37z" />
    <glyph glyph-name="quotesinglbase" unicode="&#x201a;" horiz-adv-x="348" 
d="M248 2l-62 -184q-6 -21 -28 -21h-35q-25 0 -17 27l48 176h-35q-29 0 -29 29v147q0 29 29 29h106q29 0 29 -29v-137q0 -15 -6 -37z" />
    <glyph glyph-name="quotedblleft" unicode="&#x201c;" horiz-adv-x="626" 
d="M379 1237l61 184q6 21 29 21h35q24 0 16 -27l-47 -176h35q29 0 29 -29v-147q0 -29 -29 -29h-107q-28 0 -28 29v137q0 16 6 37zM100 1237l62 184q6 21 28 21h35q25 0 17 -27l-47 -176h34q29 0 29 -29v-147q0 -29 -29 -29h-106q-29 0 -29 29v137q0 16 6 37z" />
    <glyph glyph-name="quotedblright" unicode="&#x201d;" horiz-adv-x="626" 
d="M248 1235l-62 -184q-6 -21 -28 -21h-35q-25 0 -17 27l48 176h-35q-29 0 -29 29v147q0 29 29 29h106q29 0 29 -29v-137q0 -14 -6 -37zM526 1235l-61 -184q-6 -21 -29 -21h-35q-23 0 -16 27l47 176h-35q-28 0 -28 29v147q0 29 28 29h107q28 0 28 -29v-137q0 -14 -6 -37z
" />
    <glyph glyph-name="quotedblbase" unicode="&#x201e;" horiz-adv-x="626" 
d="M248 2l-62 -184q-6 -21 -28 -21h-35q-25 0 -17 27l48 176h-35q-29 0 -29 29v147q0 29 29 29h106q29 0 29 -29v-137q0 -15 -6 -37zM526 2l-61 -184q-6 -21 -29 -21h-35q-23 0 -16 27l47 176h-35q-28 0 -28 29v147q0 29 28 29h107q28 0 28 -29v-137q0 -15 -6 -37z" />
    <glyph glyph-name="dagger" unicode="&#x2020;" horiz-adv-x="745" 
d="M684 1065v-70q0 -28 -29 -28h-211v-1164q0 -28 -28 -28h-86q-29 0 -29 28v1164h-211q-29 0 -29 28v70q0 29 29 29h211v315q0 29 29 29h86q28 0 28 -29v-315h211q29 0 29 -29z" />
    <glyph glyph-name="daggerdbl" unicode="&#x2021;" horiz-adv-x="753" 
d="M688 217v-70q0 -28 -29 -28h-210v-316q0 -28 -29 -28h-86q-29 0 -29 28v316h-211q-28 0 -28 28v70q0 29 28 29h211v721h-211q-28 0 -28 28v70q0 29 28 29h211v315q0 29 29 29h86q29 0 29 -29v-315h210q29 0 29 -29v-70q0 -28 -29 -28h-210v-721h210q29 0 29 -29z" />
    <glyph glyph-name="bullet" unicode="&#x2022;" horiz-adv-x="647" 
d="M324 307q-105 0 -171 68q-67 69 -67 174t67 174q66 68 173 68q103 0 169 -68q66 -67 66 -174t-66 -174q-66 -68 -171 -68z" />
    <glyph glyph-name="onedotenleader" unicode="&#x2024;" horiz-adv-x="360" 
d="M98 29v147q0 29 29 29h106q29 0 29 -29v-147q0 -29 -29 -29h-106q-29 0 -29 29z" />
    <glyph glyph-name="twodotenleader" unicode="&#x2025;" horiz-adv-x="720" 
d="M459 29v147q0 29 28 29h107q29 0 29 -29v-147q0 -29 -29 -29h-107q-28 0 -28 29zM98 29v147q0 29 29 29h106q29 0 29 -29v-147q0 -29 -29 -29h-106q-29 0 -29 29z" />
    <glyph glyph-name="ellipsis" unicode="&#x2026;" horiz-adv-x="1081" 
d="M98 29v147q0 29 29 29h106q29 0 29 -29v-147q0 -29 -29 -29h-106q-29 0 -29 29zM459 29v147q0 29 28 29h107q29 0 29 -29v-147q0 -29 -29 -29h-107q-28 0 -28 29zM819 29v147q0 29 29 29h106q29 0 29 -29v-147q0 -29 -29 -29h-106q-29 0 -29 29z" />
    <glyph glyph-name="perthousand" unicode="&#x2030;" horiz-adv-x="2019" 
d="M1102 1409l-653 -1386q-11 -23 -33 -23h-97q-28 0 -16 29l651 1386q11 23 35 23h96q29 0 17 -29zM53 1047q0 403 260 403t260 -403q0 -404 -260 -404t-260 404zM440 1047q0 278 -127 278t-127 -278q0 -279 127 -279t127 279zM831 391q0 404 261 404q260 0 260 -404
q0 -403 -260 -403q-261 0 -261 403zM1219 391q0 279 -127 279t-127 -279q0 -278 127 -278t127 278zM1446 391q0 404 260 404t260 -404q0 -403 -260 -403t-260 403zM1833 391q0 279 -127 279t-127 -279q0 -278 127 -278t127 278z" />
    <glyph glyph-name="guilsinglleft" unicode="&#x2039;" horiz-adv-x="391" 
d="M61 557q0 1 5 14l110 275q10 22 31 22h82q26 0 16 -26l-115 -285l115 -285q10 -26 -16 -26h-82q-21 0 -31 22l-110 275q-5 13 -5 14z" />
    <glyph glyph-name="guilsinglright" unicode="&#x203a;" horiz-adv-x="391" 
d="M330 557q0 -3 -4 -14l-111 -275q-10 -22 -31 -22h-82q-26 0 -16 26l115 285l-115 285q-10 26 16 26h82q21 0 31 -22l111 -275q4 -11 4 -14z" />
    <glyph glyph-name="exclamdbl" unicode="&#x203c;" horiz-adv-x="831" 
d="M127 29v153q0 29 29 29h114q29 0 29 -29v-153q0 -29 -29 -29h-114q-29 0 -29 29zM246 399h-66q-28 0 -28 29l-25 979q0 31 29 31h114q29 0 29 -31l-25 -979q0 -29 -28 -29zM532 29v153q0 29 29 29h115q29 0 29 -29v-153q0 -29 -29 -29h-115q-29 0 -29 29zM651 399h-65
q-29 0 -29 29l-25 979q0 31 29 31h115q29 0 29 -31l-25 -979q0 -29 -29 -29z" />
    <glyph glyph-name="fraction" unicode="&#x2044;" horiz-adv-x="126" 
d="M463 1409l-653 -1386q-11 -23 -33 -23h-96q-29 0 -17 29l651 1386q11 23 35 23h96q29 0 17 -29z" />
    <glyph glyph-name="zero.superior" unicode="&#x2070;" 
d="M307 987q-264 0 -264 451q0 450 264 450t264 -450q0 -451 -264 -451zM307 1112q70 0 100 74q29 71 29 252t-29 252q-30 73 -100 73q-69 0 -99 -73q-30 -74 -30 -252t30 -252t99 -74z" />
    <glyph glyph-name="four.superior" unicode="&#x2074;" 
d="M373 1679l-213 -362h213v362zM559 1192h-55v-164q0 -31 -31 -31h-70q-30 0 -30 31v164h-310q-30 0 -30 31v57q0 16 12 37l320 536q16 25 36 25h72q31 0 31 -31v-530h55q31 0 31 -31v-63q0 -31 -31 -31z" />
    <glyph glyph-name="five.superior" unicode="&#x2075;" 
d="M541 1282q0 -295 -287 -295q-108 0 -160 25q-24 12 -24 30v66q0 17 11 21q13 5 25 1q59 -20 138 -20q164 0 164 172q0 154 -127 154q-36 0 -86 -10q-45 -9 -58 -9q-10 0 -22 6l-19 13q-12 7 -12 28q16 276 16 381q0 33 37 33h334q31 0 31 -31v-63q0 -31 -31 -31h-248
q-1 -100 -12 -217q43 14 98 14q118 0 175 -73t57 -195z" />
    <glyph glyph-name="six.superior" unicode="&#x2076;" 
d="M465 1751q-64 16 -105 16q-90 0 -131 -57q-42 -58 -43 -201q51 76 158 76q115 0 172 -82q57 -83 57 -211q0 -140 -64 -222q-65 -83 -177 -83q-279 0 -279 453q0 448 291 448q86 0 125 -20q23 -12 23 -31v-61q0 -32 -27 -25zM326 1108q55 0 88 48q32 47 32 132
q0 176 -122 176q-123 0 -123 -174q0 -84 31 -133t94 -49z" />
    <glyph glyph-name="seven.superior" unicode="&#x2077;" 
d="M545 1847v-53q0 -17 -15 -41q-96 -159 -164 -367q-67 -206 -67 -356q0 -33 -33 -33h-71q-31 0 -31 33q0 162 70 369q69 205 163 354h-301q-30 0 -30 31v63q0 31 30 31h418q31 0 31 -31z" />
    <glyph glyph-name="eight.superior" unicode="&#x2078;" 
d="M307 987q-124 0 -191 62t-67 170q0 167 141 233q-124 66 -124 215q0 102 65 161q66 60 176 60t176 -60t66 -161q0 -149 -125 -215q141 -66 141 -233q0 -106 -67 -169q-68 -63 -191 -63zM307 1401q-127 -52 -127 -174q0 -57 34 -90t93 -33t93 33t34 90q0 122 -127 174z
M307 1499q111 51 111 166q0 107 -111 107q-110 0 -110 -107q0 -115 110 -166z" />
    <glyph glyph-name="nine.superior" unicode="&#x2079;" 
d="M150 1124q64 -16 104 -16q90 0 131 57q42 58 43 201q-51 -76 -158 -76q-115 0 -172 82t-57 211q0 140 64 222q65 83 178 83q278 0 278 -452q0 -449 -291 -449q-84 0 -125 21q-22 12 -22 30v62q0 31 27 24zM289 1767q-55 0 -88 -48t-33 -132q0 -176 123 -176t123 174
q0 83 -32 133q-31 49 -93 49z" />
    <glyph glyph-name="parenleft.superior" unicode="&#x207d;" horiz-adv-x="348" 
d="M74 1438q0 263 131 448q11 15 22 15h70q23 0 12 -21q-110 -166 -110 -442q0 -277 110 -443q10 -20 -12 -20h-70q-12 0 -22 14q-131 185 -131 449z" />
    <glyph glyph-name="parenright.superior" unicode="&#x207e;" horiz-adv-x="348" 
d="M274 1438q0 -264 -131 -449q-10 -14 -22 -14h-70q-22 0 -12 20q111 168 111 443q0 274 -111 442q-15 21 12 21h70q11 0 22 -15q131 -185 131 -448z" />
    <glyph glyph-name="n.superior" unicode="&#x207f;" horiz-adv-x="675" 
d="M104 1878h70q31 0 31 -31v-80q22 53 69 86q50 35 121 35q106 0 156 -71q51 -72 51 -195v-594q0 -31 -31 -31h-69q-31 0 -31 31v578q0 155 -111 155q-74 0 -114 -61q-41 -62 -41 -156v-516q0 -31 -31 -31h-70q-30 0 -30 31v819q0 31 30 31z" />
    <glyph glyph-name="zero.inferior" unicode="&#x2080;" 
d="M307 -451q-264 0 -264 451t264 451t264 -451t-264 -451zM307 -326q70 0 100 74q29 71 29 252t-29 252q-30 74 -100 74q-69 0 -99 -74t-30 -252t30 -252t99 -74z" />
    <glyph glyph-name="one.inferior" unicode="&#x2081;" 
d="M295 258l-119 -117q-23 -23 -45 4l-41 50q-16 21 6 43l199 190q12 12 37 12h63q31 0 31 -30v-820q0 -30 -31 -30h-69q-31 0 -31 30v668z" />
    <glyph glyph-name="two.inferior" unicode="&#x2082;" 
d="M190 219q0 -5 4 -25q3 -15 3 -22q0 -29 -35 -29h-66q-25 0 -30 29q-5 27 -5 47q0 105 61 169q60 63 175 63q121 0 178 -68q57 -67 57 -178q0 -77 -27 -153q-26 -73 -79 -148q-51 -72 -90 -117q-43 -50 -94 -102h268q31 0 31 -31v-64q0 -30 -31 -30h-414q-30 0 -30 30v58
q0 19 18 37q55 56 101 108q36 41 96 117q58 74 89 148q29 70 29 139q0 133 -104 133q-105 0 -105 -111z" />
    <glyph glyph-name="three.inferior" unicode="&#x2083;" 
d="M262 -49h-61q-31 0 -31 31v59q0 31 31 31h63q119 0 119 135q0 70 -37 95q-38 26 -113 26q-35 0 -131 -21q-32 -6 -32 21v69q0 19 20 29q55 25 156 25q134 0 201 -55t67 -177q0 -139 -98 -194q112 -51 112 -207q0 -269 -288 -269q-110 0 -162 25q-25 12 -25 31v65
q0 18 12 22q13 5 25 1q62 -21 139 -21q89 0 127 34q39 34 39 112q0 133 -133 133z" />
    <glyph glyph-name="four.inferior" unicode="&#x2084;" 
d="M373 242l-213 -363h213v363zM559 -246h-55v-164q0 -30 -31 -30h-70q-30 0 -30 30v164h-310q-30 0 -30 31v57q0 16 12 37l320 537q15 24 36 24h72q31 0 31 -30v-531h55q31 0 31 -31v-63q0 -31 -31 -31z" />
    <glyph glyph-name="five.inferior" unicode="&#x2085;" 
d="M541 -156q0 -295 -287 -295q-108 0 -160 25q-24 12 -24 31v65q0 18 11 22q13 5 25 1q62 -21 138 -21q164 0 164 172q0 154 -127 154q-41 0 -86 -9t-58 -9q-10 0 -22 6l-19 12q-12 7 -12 29q16 276 16 381q0 32 37 32h334q31 0 31 -30v-64q0 -31 -31 -31h-248
q-1 -100 -12 -217q47 15 98 15q118 0 175 -74q57 -73 57 -195z" />
    <glyph glyph-name="six.inferior" unicode="&#x2086;" 
d="M465 313q-68 17 -105 17q-90 0 -131 -58q-42 -58 -43 -200q50 75 158 75q116 0 172 -81q57 -82 57 -211q0 -141 -64 -223q-65 -83 -177 -83q-279 0 -279 453q0 449 291 449q84 0 125 -21q23 -12 23 -31v-61q0 -32 -27 -25zM326 -330q55 0 88 48q32 47 32 132
q0 177 -122 177q-123 0 -123 -174q0 -85 31 -134t94 -49z" />
    <glyph glyph-name="seven.inferior" unicode="&#x2087;" 
d="M545 410v-54q0 -17 -15 -41q-97 -160 -164 -366t-67 -357q0 -32 -33 -32h-71q-31 0 -31 32q0 162 70 369q69 205 163 354h-301q-30 0 -30 31v64q0 30 30 30h418q31 0 31 -30z" />
    <glyph glyph-name="eight.inferior" unicode="&#x2088;" 
d="M307 -451q-124 0 -191 62t-67 170q0 167 141 233q-124 66 -124 215q0 102 65 161q67 61 176 61t176 -61q66 -60 66 -161q0 -149 -125 -215q141 -66 141 -233q0 -106 -67 -169q-68 -63 -191 -63zM307 -37q-127 -52 -127 -174q0 -57 34 -90t93 -33t93 33t34 90
q0 122 -127 174zM307 61q111 51 111 166q0 107 -111 107q-110 0 -110 -107q0 -115 110 -166z" />
    <glyph glyph-name="nine.inferior" unicode="&#x2089;" 
d="M150 -313q68 -17 104 -17q90 0 131 58q42 58 43 200q-50 -75 -158 -75q-116 0 -172 81q-57 82 -57 211q0 141 64 223q65 83 178 83q278 0 278 -453q0 -449 -291 -449q-84 0 -125 21q-22 12 -22 31v61q0 32 27 25zM289 330q-55 0 -88 -48t-33 -132q0 -177 123 -177
t123 174q0 84 -32 134q-31 49 -93 49z" />
    <glyph glyph-name="parenleft.inferior" unicode="&#x208d;" horiz-adv-x="348" 
d="M74 0q0 264 131 449q10 14 22 14h70q23 0 12 -21q-110 -166 -110 -442t110 -442q11 -21 -12 -21h-70q-12 0 -22 14q-131 185 -131 449z" />
    <glyph glyph-name="parenright.inferior" unicode="&#x208e;" horiz-adv-x="348" 
d="M274 0q0 -264 -131 -449q-10 -14 -22 -14h-70q-23 0 -12 21q111 168 111 442t-111 442q-15 21 12 21h70q12 0 22 -14q131 -185 131 -449z" />
    <glyph glyph-name="Euro" unicode="&#x20ac;" horiz-adv-x="933" 
d="M82 635h108q-2 36 -2 84t2 88h-108q-29 0 -29 29v65q0 29 29 29h119q66 524 475 524q100 0 178 -24q25 -8 20 -35l-14 -78q-6 -33 -37 -25q-67 19 -135 19q-158 0 -235 -104q-76 -103 -97 -277h383q29 0 23 -29l-12 -65q-6 -29 -35 -29h-369q-2 -36 -2 -88t2 -84h338
q29 0 23 -29l-13 -65q-6 -29 -35 -29h-303q43 -385 332 -385q69 0 135 18q31 8 37 -24l14 -78q5 -27 -20 -35q-78 -24 -178 -24q-411 0 -477 528h-117q-29 0 -29 29v65q0 29 29 29z" />
    <glyph glyph-name="afii61289" unicode="&#x2113;" horiz-adv-x="962" 
d="M563 121q40 0 88 8q29 6 29 -18v-76q0 -27 -27 -33q-36 -14 -116 -14q-267 0 -267 303v147q-74 -31 -159 -53q-19 -2 -23 12l-25 80q-6 16 13 21q105 28 194 73v396q0 245 65 367t212 122q122 0 185 -86t63 -233q0 -391 -385 -625v-193q0 -107 35 -152q36 -46 118 -46z
M410 993v-340q258 191 258 486q0 103 -27 153q-27 49 -86 49q-145 0 -145 -348z" />
    <glyph glyph-name="trademark" unicode="&#x2122;" horiz-adv-x="1040" 
d="M383 1341h-107v-548q0 -19 -18 -19h-70q-18 0 -18 19v548h-107q-18 0 -18 19v59q0 19 18 19h320q18 0 18 -19v-59q0 -19 -18 -19zM719 948q-15 0 -21 15l-127 284v-454q0 -19 -18 -19h-68q-18 0 -18 19v626q0 19 18 19h78q16 0 21 -13l135 -311l135 311q5 13 20 13h78
q19 0 19 -19v-626q0 -19 -19 -19h-67q-19 0 -19 19v454l-127 -284q-6 -15 -20 -15z" />
    <glyph glyph-name="Omega" unicode="&#x2126;" horiz-adv-x="1126" 
d="M563 1456q241 0 362 -157q119 -155 119 -433q0 -215 -70 -367q-70 -153 -177 -237v-125l168 10q30 5 30 -26v-92q0 -29 -28 -29h-320v279q0 22 23 40q217 168 217 549q0 449 -324 449q-323 0 -323 -449q0 -381 217 -549q22 -18 22 -40v-279h-319q-29 0 -29 29v92
q0 31 31 26l168 -10v125q-106 84 -177 237q-71 154 -71 367q0 277 120 433q121 157 361 157z" />
    <glyph glyph-name="estimated" unicode="&#x212e;" horiz-adv-x="1753" 
d="M1679 686h-1286q-10 0 -10 -8v-379q0 -39 16 -59q170 -197 492 -197q324 0 516 223h119q-111 -132 -279 -209q-163 -75 -358 -75q-338 0 -573 215q-234 215 -234 518q0 307 230 521t569 214q338 0 568 -214t230 -521v-29zM1378 748v380q0 51 -22 74q-192 187 -473 187
q-289 0 -482 -199q-18 -18 -18 -60v-382q0 -13 10 -13h975q10 0 10 13z" />
    <glyph glyph-name="onethird" unicode="&#x2153;" horiz-adv-x="1433" 
d="M295 1255l-119 -116q-23 -23 -45 4l-41 49q-16 21 6 43l199 190q13 13 37 13h63q31 0 31 -31v-819q0 -31 -31 -31h-69q-31 0 -31 31v667zM1065 1409l-653 -1386q-11 -23 -33 -23h-96q-29 0 -17 29l652 1386q11 23 34 23h97q28 0 16 -29zM1020 391h61q133 0 133 -133
q0 -78 -38 -112q-37 -33 -127 -33q-81 0 -140 20q-12 4 -25 -1q-12 -4 -12 -21v-66q0 -19 25 -31q49 -24 162 -24q289 0 289 268q0 156 -113 207q98 55 98 194q0 124 -66 178t-202 54q-101 0 -156 -25q-20 -10 -20 -28v-70q0 -26 33 -20q91 20 131 20q74 0 112 -26
q37 -25 37 -95q0 -135 -119 -135h-63q-31 0 -31 -31v-59q0 -31 31 -31z" />
    <glyph glyph-name="twothirds" unicode="&#x2154;" horiz-adv-x="1433" 
d="M190 1217q0 -6 4 -26q3 -15 3 -22q0 -28 -35 -28h-66q-26 0 -30 28q-5 27 -5 48q0 104 61 168q60 63 175 63q121 0 178 -68t57 -178q0 -76 -27 -152q-26 -75 -79 -149q-51 -72 -90 -117q-43 -50 -94 -102h268q31 0 31 -31v-63q0 -31 -31 -31h-414q-30 0 -30 31v57
q0 19 18 37q45 46 101 109q43 48 96 116q57 73 89 149q29 70 29 138q0 133 -104 133q-105 0 -105 -110zM1118 1409l-653 -1386q-11 -23 -33 -23h-96q-29 0 -17 29l652 1386q11 23 35 23h96q28 0 16 -29zM1081 391h-61q-31 0 -31 31v59q0 31 31 31h63q119 0 119 135
q0 70 -37 95q-38 26 -112 26q-40 0 -131 -20q-33 -6 -33 20v70q0 18 20 28q55 25 156 25q136 0 202 -54t66 -178q0 -139 -98 -194q113 -51 113 -207q0 -268 -289 -268q-113 0 -162 24q-25 12 -25 31v66q0 17 12 21q13 5 25 1q59 -20 140 -20q90 0 127 33q38 34 38 112
q0 133 -133 133z" />
    <glyph glyph-name="oneeighth" unicode="&#x215b;" horiz-adv-x="1433" 
d="M295 1255l-119 -116q-23 -23 -45 4l-41 49q-16 21 6 43l199 190q13 13 37 13h63q31 0 31 -31v-819q0 -31 -31 -31h-69q-31 0 -31 31v667zM1083 1409l-653 -1386q-11 -23 -33 -23h-96q-28 0 -16 29l651 1386q11 23 35 23h96q28 0 16 -29zM1126 -10q125 0 191 62
q67 63 67 169q0 168 -141 234q125 66 125 215q0 101 -65 160q-67 61 -177 61q-109 0 -176 -61q-65 -59 -65 -160q0 -149 125 -215q-142 -66 -142 -234q0 -108 67 -170q65 -61 191 -61zM1126 403q127 -52 127 -174q0 -58 -33 -90q-34 -33 -94 -33q-58 0 -93 33q-34 33 -34 90
q0 122 127 174zM1126 502q-110 51 -110 166q0 106 110 106q111 0 111 -106q0 -115 -111 -166z" />
    <glyph glyph-name="threeeighths" unicode="&#x215c;" horiz-adv-x="1433" 
d="M262 948h-61q-31 0 -31 31v59q0 31 31 31h63q119 0 119 135q0 70 -37 95q-38 26 -113 26q-40 0 -131 -20q-32 -6 -32 20v70q0 18 20 28q55 25 156 25q135 0 201 -54q67 -55 67 -177q0 -140 -98 -195q112 -51 112 -207q0 -268 -288 -268q-112 0 -162 24q-25 13 -25 31v66
q0 16 12 21q13 5 25 1q59 -20 139 -20q90 0 127 33q39 35 39 112q0 133 -133 133zM1102 1409l-653 -1386q-11 -23 -33 -23h-97q-28 0 -16 29l651 1386q11 23 35 23h96q29 0 17 -29zM1126 -10q-126 0 -191 61q-67 62 -67 170q0 168 142 234q-125 66 -125 215q0 101 65 160
q67 61 176 61q110 0 177 -61q65 -59 65 -160q0 -149 -125 -215q141 -66 141 -234q0 -106 -67 -169q-66 -62 -191 -62zM1126 403q-127 -52 -127 -174q0 -57 34 -90t93 -33q60 0 94 33q33 32 33 90q0 122 -127 174zM1126 502q111 51 111 166q0 106 -111 106q-110 0 -110 -106
q0 -115 110 -166z" />
    <glyph glyph-name="fiveeighths" unicode="&#x215d;" horiz-adv-x="1433" 
d="M541 842q0 -295 -287 -295q-110 0 -160 24q-24 12 -24 31v66q0 17 11 21q13 5 25 1q59 -20 138 -20q164 0 164 172q0 153 -127 153q-41 0 -86 -9t-58 -9q-10 0 -22 6l-19 12q-12 7 -12 29q16 276 16 381q0 33 37 33h334q31 0 31 -31v-64q0 -30 -31 -30h-248
q-1 -100 -12 -217q43 14 98 14q118 0 175 -74q57 -73 57 -194zM1104 1409l-653 -1386q-11 -23 -33 -23h-96q-29 0 -17 29l651 1386q11 23 35 23h96q29 0 17 -29zM1126 -10q-126 0 -191 61q-67 62 -67 170q0 168 142 234q-125 66 -125 215q0 101 65 160q67 61 176 61
q110 0 177 -61q65 -59 65 -160q0 -149 -125 -215q141 -66 141 -234q0 -106 -67 -169q-66 -62 -191 -62zM1126 403q-127 -52 -127 -174q0 -57 34 -90t93 -33q60 0 94 33q33 32 33 90q0 122 -127 174zM1126 502q111 51 111 166q0 106 -111 106q-110 0 -110 -106
q0 -115 110 -166z" />
    <glyph glyph-name="seveneighths" unicode="&#x215e;" horiz-adv-x="1433" 
d="M545 1407v-53q0 -17 -15 -41q-96 -159 -164 -367q-67 -206 -67 -356q0 -33 -33 -33h-71q-31 0 -31 33q0 161 70 368t163 355h-301q-30 0 -30 30v64q0 31 30 31h418q31 0 31 -31zM1026 1409l-653 -1386q-11 -23 -33 -23h-96q-29 0 -17 29l652 1386q11 23 34 23h97
q28 0 16 -29zM1126 -10q-126 0 -191 61q-67 62 -67 170q0 168 142 234q-125 66 -125 215q0 101 65 160q67 61 176 61q110 0 177 -61q65 -59 65 -160q0 -149 -125 -215q141 -66 141 -234q0 -106 -67 -169q-66 -62 -191 -62zM1126 403q-127 -52 -127 -174q0 -57 34 -90t93 -33
q60 0 94 33q33 32 33 90q0 122 -127 174zM1126 502q111 51 111 166q0 106 -111 106q-110 0 -110 -106q0 -115 110 -166z" />
    <glyph glyph-name="arrowleft" unicode="&#x2190;" horiz-adv-x="995" 
d="M559 979l-270 -367l567 2q29 0 29 -28v-74q0 -29 -29 -29l-567 2l270 -366q3 -4 5 -14q1 -7 -4 -12t-13 -5h-107q-17 0 -32 18l-304 416q-10 11 -10 27q0 15 10 26l304 416q16 19 32 19h107q12 0 15 -12t-3 -19z" />
    <glyph glyph-name="arrowup" unicode="&#x2191;" horiz-adv-x="995" 
d="M928 541l-367 270l2 -567q0 -29 -28 -29h-74q-29 0 -29 29l2 567l-366 -270q-4 -3 -14 -5q-7 -1 -12 4t-5 13v106q0 17 18 33l416 303q13 11 27 11q13 0 26 -11l416 -303q18 -16 18 -33v-106q0 -12 -10 -15t-20 3z" />
    <glyph glyph-name="arrowright" unicode="&#x2192;" horiz-adv-x="995" 
d="M707 612l-271 367q-3 4 -5 13q-1 8 4 13t14 5h106q17 0 33 -19l303 -416q10 -11 10 -26q0 -16 -10 -27l-303 -416q-15 -18 -33 -18h-106q-13 0 -16 11q-3 12 3 20l271 366l-568 -2q-28 0 -28 29v74q0 28 28 28z" />
    <glyph glyph-name="arrowdown" unicode="&#x2193;" horiz-adv-x="995" 
d="M68 557l366 -270l-2 567q0 29 29 29h74q28 0 28 -29l-2 -567l367 270q4 3 13 5q7 1 12 -4t5 -13v-107q0 -16 -18 -32l-416 -304q-11 -10 -26 -10q-16 0 -27 10l-416 304q-18 16 -18 32v107q0 12 10 15q11 3 21 -3z" />
    <glyph glyph-name="arrowboth" unicode="&#x2194;" horiz-adv-x="1486" 
d="M1198 612l-270 367q-3 4 -5 13q-1 8 4 13t13 5h107q16 0 32 -19l303 -416q11 -13 11 -26q0 -14 -11 -27l-303 -416q-15 -18 -32 -18h-107q-12 0 -15 11q-3 12 3 20l270 366l-455 -4l-454 4l270 -366q3 -4 5 -14q1 -7 -4 -12t-13 -5h-107q-17 0 -32 18l-304 416
q-10 11 -10 27q0 15 10 26l304 416q16 19 32 19h107q12 0 15 -12t-3 -19l-270 -367l454 4z" />
    <glyph glyph-name="arrowupdn" unicode="&#x2195;" horiz-adv-x="995" 
d="M561 94l367 271q4 3 13 5q7 1 12 -4t5 -14v-106q0 -16 -18 -33l-416 -303q-11 -10 -26 -10q-16 0 -27 10l-416 303q-18 17 -18 33v106q0 13 10 16q11 3 21 -3l366 -271l-4 455l4 455l-366 -271q-4 -3 -14 -5q-7 -1 -12 4t-5 13v107q0 16 18 33l416 303q11 10 27 10
q15 0 26 -10l416 -303q18 -17 18 -33v-107q0 -12 -10 -15t-20 3l-367 271l4 -455z" />
    <glyph glyph-name="arrowupleft" unicode="&#x2196;" horiz-adv-x="995" 
d="M834 823l-451 -67l401 -400q23 -18 0 -41l-51 -51q-23 -23 -41 0l-399 402l-68 -451q-1 -10 -11 -15q-9 -4 -19 3l-76 76q-12 12 -10 36l79 508q1 13 13 25q6 10 24 12l508 80q25 2 37 -10l76 -76q7 -10 3 -19q-5 -11 -15 -12z" />
    <glyph glyph-name="arrowupright" unicode="&#x2197;" horiz-adv-x="995" 
d="M612 756l-450 67q-12 1 -17 12q-4 7 5 19l75 76q12 12 37 10l508 -80q10 -1 25 -12q10 -6 12 -25l80 -508q2 -24 -10 -36l-76 -76q-11 -8 -20 -3q-10 5 -11 15l-68 451l-399 -402q-18 -23 -41 0l-51 51q-23 23 0 41z" />
    <glyph glyph-name="arrowdownright" unicode="&#x2198;" horiz-adv-x="995" 
d="M162 248l450 67l-401 400q-23 18 0 41l51 51q23 23 41 0l399 -401l68 450q1 10 11 15q9 5 20 -3l76 -75q12 -12 10 -37l-80 -508q-1 -14 -12 -25t-25 -12l-508 -80q-25 -2 -37 10l-75 76q-8 12 -4 20q5 9 16 11z" />
    <glyph glyph-name="arrowdownleft" unicode="&#x2199;" horiz-adv-x="995" 
d="M383 315l451 -67q10 -1 15 -11q5 -9 -3 -20l-76 -76q-12 -12 -37 -10l-508 80q-12 4 -24 12q-12 12 -13 25l-79 508q-2 25 10 37l76 75q10 7 19 3q10 -5 11 -15l68 -450l399 401q18 23 41 0l51 -51q23 -23 0 -41z" />
    <glyph glyph-name="partialdiff" unicode="&#x2202;" horiz-adv-x="946" 
d="M307 1303q-16 -1 -23 3t-5 17l8 78q2 26 30 33q66 22 170 22q201 0 291 -122t90 -378q0 -976 -471 -976q-157 0 -244 105t-87 292q0 101 18 193q18 91 60 175q43 86 123 135q82 50 192 50q105 0 172 -49t82 -119q8 77 8 192q0 196 -61 283q-60 86 -195 86q-71 0 -158 -20
zM403 115q77 0 133 43q58 44 84 111q26 66 40 137q14 70 14 133q0 254 -205 254q-77 0 -129 -40q-54 -42 -79 -106t-37 -130q-11 -59 -11 -134q0 -126 49 -197t141 -71z" />
    <glyph glyph-name="Delta" unicode="&#x2206;" horiz-adv-x="1015" 
d="M434 1438h148q33 0 39 -35l297 -1358q10 -45 -37 -45h-746q-47 0 -37 45l297 1358q6 35 39 35zM504 1276l-234 -1137h475l-233 1137h-8z" />
    <glyph glyph-name="product" unicode="&#x220f;" horiz-adv-x="1081" 
d="M49 1329v78q0 31 31 31h921q31 0 31 -31v-78q0 -31 -31 -31h-147v-1267q0 -31 -31 -31h-88q-30 0 -30 31v1267h-328v-1267q0 -31 -31 -31h-88q-31 0 -31 31v1267h-147q-31 0 -31 31z" />
    <glyph glyph-name="summation" unicode="&#x2211;" horiz-adv-x="831" 
d="M557 565l-313 -653h493q29 0 29 -29v-80q0 -28 -29 -28h-637q-30 0 -30 28v84q0 20 12 41l326 686l-322 670q-10 20 -10 41v82q0 31 30 31h623q29 0 29 -31v-78q0 -31 -29 -31h-481l309 -641q8 -18 8 -30v-31q0 -13 -8 -31z" />
    <glyph glyph-name="minus" unicode="&#x2212;" horiz-adv-x="962" 
d="M831 657h-702q-27 0 -27 27v72q0 26 29 26h700q29 0 29 -26v-72q0 -27 -29 -27z" />
    <glyph glyph-name="uni2215" unicode="&#x2215;" horiz-adv-x="126" 
d="M463 1409l-653 -1386q-11 -23 -33 -23h-96q-29 0 -17 29l651 1386q11 23 35 23h96q29 0 17 -29z" />
    <glyph glyph-name="uni2219" unicode="&#x2219;" horiz-adv-x="360" 
d="M98 469v147q0 29 29 29h106q29 0 29 -29v-147q0 -29 -29 -29h-106q-29 0 -29 29z" />
    <glyph glyph-name="radical" unicode="&#x221a;" horiz-adv-x="1095" 
d="M621 -143h-117q-31 0 -37 28l-234 967h-131q-28 0 -28 29v77q0 29 28 29h224q28 0 34 -29l197 -870h6l287 1444q6 31 33 31h98q29 0 23 -33l-349 -1645q-6 -28 -34 -28z" />
    <glyph glyph-name="infinity" unicode="&#x221e;" horiz-adv-x="1069" 
d="M547 938q51 117 198 117q136 0 189 -86t53 -254q0 -164 -53 -250t-191 -86q-152 0 -221 117q-51 -117 -198 -117q-263 0 -263 342q0 334 265 334q152 0 221 -117zM469 664l33 174q-43 112 -160 112q-81 0 -113 -56q-32 -55 -32 -177q0 -117 30 -174q31 -58 101 -58
q66 0 93 36t48 143zM600 770l-33 -174q44 -113 160 -113q80 0 113 57q32 55 32 177q0 117 -30 174t-101 57q-66 0 -93 -36t-48 -142z" />
    <glyph glyph-name="integral" unicode="&#x222b;" horiz-adv-x="618" 
d="M238 35v1182q0 130 41 185q41 54 151 54q43 0 72 -8q22 -4 22 -31v-76q0 -30 -28 -26q-7 0 -15 1t-20 1q-48 0 -63 -29q-15 -28 -15 -100v-1182q0 -134 -42 -186q-42 -53 -153 -53q-40 0 -69 6q-25 6 -25 30v78q0 25 29 25q8 0 18 -1t19 -1q45 0 61 29q17 31 17 102z" />
    <glyph glyph-name="approxequal" unicode="&#x2248;" horiz-adv-x="962" 
d="M870 573q-22 -182 -188 -182q-66 0 -164 43l-90 39q-87 37 -121 37q-59 0 -88 -70l-6 -16q-8 -23 -31 -23h-57q-39 0 -33 50q22 182 189 182q65 0 163 -43l91 -39q87 -37 120 -37q61 0 88 70l7 16q8 23 30 23h58q38 0 32 -50zM870 1014q-22 -183 -188 -183q-66 0 -164 43
l-90 39q-87 37 -121 37q-64 0 -88 -69l-6 -17q-7 -22 -31 -22h-57q-39 0 -33 49q22 182 189 182q65 0 163 -43l91 -39q87 -37 120 -37q61 0 88 70l7 16q8 23 30 23h58q38 0 32 -49z" />
    <glyph glyph-name="notequal" unicode="&#x2260;" horiz-adv-x="962" 
d="M831 485h-352l-141 -458q-8 -27 -33 -27h-80q-32 0 -24 31l139 454h-211q-27 0 -27 27v72q0 26 29 26h246l76 244h-324q-27 0 -27 27v71q0 27 29 27h361l133 434q6 27 34 27h78q35 0 25 -33l-131 -428h200q29 0 29 -27v-71q0 -27 -29 -27h-239l-76 -244h315q29 0 29 -26
v-72q0 -27 -29 -27z" />
    <glyph glyph-name="lessequal" unicode="&#x2264;" horiz-adv-x="962" 
d="M123 760q0 10 12 22l549 531q18 18 41 0l55 -53q18 -18 0 -39l-481 -461l481 -463q18 -19 0 -37l-55 -55q-21 -21 -41 0l-549 530q-12 12 -12 25zM758 0h-596q-27 0 -27 27v63q0 27 29 27h594q28 0 28 -27v-63q0 -27 -28 -27z" />
    <glyph glyph-name="greaterequal" unicode="&#x2265;" horiz-adv-x="962" 
d="M840 760q0 -12 -13 -25l-548 -530q-21 -21 -41 0l-56 55q-18 18 0 37l482 463l-482 461q-18 21 0 39l56 53q20 21 41 0l548 -531q13 -13 13 -22zM801 0h-596q-29 0 -29 27v63q0 27 29 27h594q28 0 28 -27v-63q0 -27 -26 -27z" />
    <glyph glyph-name="lozenge" unicode="&#x25ca;" horiz-adv-x="1015" 
d="M508 246l250 473l-250 473l-250 -473zM508 -16q-13 0 -23 16l-376 698q-7 14 -7 21q0 6 7 20l376 699q10 16 23 16q12 0 22 -16l377 -699q6 -12 6 -20q0 -9 -6 -21l-377 -698q-10 -16 -22 -16z" />
    <glyph glyph-name="uniE000" unicode="&#xe000;" horiz-adv-x="1024" 
 />
    <glyph glyph-name="Q.alt" unicode="&#xe001;" horiz-adv-x="991" 
d="M420 -195l10 187q-177 23 -262 190q-86 169 -86 537q0 403 101 568q102 167 313 167q210 0 312 -167q101 -165 101 -568q0 -368 -86 -537q-85 -167 -262 -190l10 -187q1 -30 -28 -30h-94q-31 0 -29 30zM496 123q133 0 194 133q62 135 62 463t-62 463q-61 133 -194 133
q-134 0 -195 -133q-61 -132 -61 -461q0 -333 61 -465q61 -133 195 -133z" />
    <glyph glyph-name="a.alt" unicode="&#xe002;" horiz-adv-x="851" 
d="M616 547q0 432 -208 432q-101 0 -146 -102t-45 -330t45 -330t146 -102q208 0 208 432zM758 1065v-1036q0 -29 -29 -29h-86q-29 0 -29 29v116q-22 -73 -83 -117t-148 -44q-313 0 -313 563t315 563q81 0 145 -47q63 -46 84 -115v117q0 29 29 29h86q29 0 29 -29z" />
    <glyph glyph-name="u.alt" unicode="&#xe003;" horiz-adv-x="811" 
d="M406 -16q-316 0 -316 366v715q0 29 29 29h86q28 0 28 -29v-709q0 -123 37 -179t136 -56q98 0 135 56t37 179v709q0 29 28 29h86q29 0 29 -29v-715q0 -366 -315 -366z" />
    <glyph glyph-name="y.alt" unicode="&#xe004;" horiz-adv-x="811" 
d="M573 113v114q-61 -149 -225 -149q-128 0 -193 92t-65 248v647q0 29 29 29h86q28 0 28 -29v-629q0 -221 148 -221q88 0 140 79t52 208v563q0 29 29 29h86q29 0 29 -29v-961q0 -169 -89 -258q-88 -88 -257 -88q-127 0 -209 31q-25 11 -25 35v76q0 32 33 22q108 -31 197 -31
q206 0 206 222z" />
    <glyph glyph-name="j.alt" unicode="&#xe005;" horiz-adv-x="356" 
d="M250 1065v-1262q0 -28 -29 -28h-86q-29 0 -29 28v1262q0 29 29 29h86q29 0 29 -29zM254 1399v-142q0 -28 -29 -28h-94q-29 0 -29 28v142q0 28 29 28h94q29 0 29 -28z" />
    <glyph glyph-name="agrave.alt" unicode="&#xe006;" horiz-adv-x="851" 
d="M616 547q0 432 -208 432q-101 0 -146 -102t-45 -330t45 -330t146 -102q208 0 208 432zM758 1065v-1036q0 -29 -29 -29h-86q-29 0 -29 29v116q-22 -73 -83 -117t-148 -44q-313 0 -313 563t315 563q81 0 145 -47q63 -46 84 -115v117q0 29 29 29h86q29 0 29 -29zM418 1389
l76 -164q5 -9 0 -17t-17 -8h-55q-20 0 -37 19l-145 161q-12 8 -7 21q5 12 21 12h129q20 0 35 -24z" />
    <glyph glyph-name="aacute.alt" unicode="&#xe007;" horiz-adv-x="851" 
d="M616 547q0 432 -208 432q-101 0 -146 -102t-45 -330t45 -330t146 -102q208 0 208 432zM758 1065v-1036q0 -29 -29 -29h-86q-29 0 -29 29v116q-22 -73 -83 -117t-148 -44q-313 0 -313 563t315 563q81 0 145 -47q63 -46 84 -115v117q0 29 29 29h86q29 0 29 -29zM358 1225
l76 164q12 24 35 24h129q16 0 20 -12q5 -13 -6 -21l-145 -161q-17 -19 -37 -19h-55q-12 0 -17 8t0 17z" />
    <glyph glyph-name="acircumflex.alt" unicode="&#xe008;" horiz-adv-x="851" 
d="M616 547q0 432 -208 432q-101 0 -146 -102t-45 -330t45 -330t146 -102q208 0 208 432zM758 1065v-1036q0 -29 -29 -29h-86q-29 0 -29 29v116q-22 -73 -83 -117t-148 -44q-313 0 -313 563t315 563q81 0 145 -47q63 -46 84 -115v117q0 29 29 29h86q29 0 29 -29zM526 1219
l-100 106l-100 -106q-17 -19 -35 -19h-72q-13 0 -18 9t6 20l141 176q16 18 39 18h78q23 0 39 -18l141 -176q8 -11 5 -20t-17 -9h-72q-19 0 -35 19z" />
    <glyph glyph-name="atilde.alt" unicode="&#xe009;" horiz-adv-x="851" 
d="M616 547q0 432 -208 432q-101 0 -146 -102t-45 -330t45 -330t146 -102q208 0 208 432zM758 1065v-1036q0 -29 -29 -29h-86q-29 0 -29 29v116q-22 -73 -83 -117t-148 -44q-313 0 -313 563t315 563q81 0 145 -47q63 -46 84 -115v117q0 29 29 29h86q29 0 29 -29zM664 1325
q0 -67 -25 -98t-86 -31q-67 0 -133 33l-47 24q-78 39 -86 -18l-2 -14q-1 -21 -29 -21h-41q-27 0 -27 37q0 67 25 98t86 31q67 0 133 -33l47 -24q78 -39 86 18l2 14q1 21 29 21h41q27 0 27 -37z" />
    <glyph glyph-name="adieresis.alt" unicode="&#xe00a;" horiz-adv-x="851" 
d="M616 547q0 432 -208 432q-101 0 -146 -102t-45 -330t45 -330t146 -102q208 0 208 432zM758 1065v-1036q0 -29 -29 -29h-86q-29 0 -29 29v116q-22 -73 -83 -117t-148 -44q-313 0 -313 563t315 563q81 0 145 -47q63 -46 84 -115v117q0 29 29 29h86q29 0 29 -29zM371 1329
v-100q0 -29 -29 -29h-94q-29 0 -29 29v100q0 29 29 29h94q29 0 29 -29zM633 1329v-100q0 -29 -29 -29h-94q-29 0 -29 29v100q0 29 29 29h94q29 0 29 -29z" />
    <glyph glyph-name="amacron.alt" unicode="&#xe00b;" horiz-adv-x="851" 
d="M616 547q0 432 -208 432q-101 0 -146 -102t-45 -330t45 -330t146 -102q208 0 208 432zM758 1065v-1036q0 -29 -29 -29h-86q-29 0 -29 29v116q-22 -73 -83 -117t-148 -44q-313 0 -313 563t315 563q81 0 145 -47q63 -46 84 -115v117q0 29 29 29h86q29 0 29 -29zM629 1208
h-406q-28 0 -28 29v47q0 29 28 29h406q28 0 28 -29v-47q0 -29 -28 -29z" />
    <glyph glyph-name="abreve.alt" unicode="&#xe00c;" horiz-adv-x="851" 
d="M616 547q0 432 -208 432q-101 0 -146 -102t-45 -330t45 -330t146 -102q208 0 208 432zM758 1065v-1036q0 -29 -29 -29h-86q-29 0 -29 29v116q-22 -73 -83 -117t-148 -44q-313 0 -313 563t315 563q81 0 145 -47q63 -46 84 -115v117q0 29 29 29h86q29 0 29 -29zM426 1196
q-105 0 -159 51t-56 142q0 22 22 22h56q20 0 24 -22q12 -93 113 -93t113 93q4 22 24 22h55q23 0 23 -22q-2 -91 -56 -142t-159 -51z" />
    <glyph glyph-name="aring.alt" unicode="&#xe00d;" horiz-adv-x="851" 
d="M616 547q0 432 -208 432q-101 0 -146 -102t-45 -330t45 -330t146 -102q208 0 208 432zM758 1065v-1036q0 -29 -29 -29h-86q-29 0 -29 29v116q-22 -73 -83 -117t-148 -44q-313 0 -313 563t315 563q81 0 145 -47q63 -46 84 -115v117q0 29 29 29h86q29 0 29 -29zM426 1268
q90 0 90 88t-90 88t-90 -88t90 -88zM426 1524q83 0 129 -46q47 -47 47 -122t-47 -122q-46 -46 -129 -46t-129 46q-47 47 -47 122t47 122q46 46 129 46z" />
    <glyph glyph-name="aringacute.alt" unicode="&#xe00e;" horiz-adv-x="851" 
d="M758 1065v-1036q0 -29 -29 -29h-86q-29 0 -29 29v116q-22 -73 -83 -117t-148 -44q-313 0 -313 563t315 563q81 0 145 -47q63 -46 84 -115v117q0 29 29 29h86q29 0 29 -29zM616 547q0 432 -208 432q-101 0 -146 -102t-45 -330t45 -330t146 -102q208 0 208 432zM250 1356
q0 126 112 160l58 120q12 25 35 25h129q16 0 20 -11q4 -12 -6 -22l-104 -115q108 -35 108 -157q0 -75 -47 -122q-46 -46 -129 -46t-129 46q-47 47 -47 122zM426 1268q90 0 90 88t-90 88t-90 -88t90 -88z" />
    <glyph glyph-name="aogonek.alt" unicode="&#xe00f;" horiz-adv-x="851" 
d="M758 1065v-1036q0 -29 -29 -29h-2q-98 -67 -98 -139q0 -51 69 -51q5 0 25 2q4 0 8.5 0.5t7 1t4.5 0.5q17 0 19 -15l6 -51q2 -21 -14 -27q-32 -14 -84 -14q-146 0 -146 117q0 104 121 176h-2q-29 0 -29 29v116q-22 -73 -83 -117t-148 -44q-313 0 -313 563t315 563
q81 0 145 -47q63 -46 84 -115v117q0 29 29 29h86q29 0 29 -29zM616 547q0 432 -208 432q-101 0 -146 -102t-45 -330t45 -330t146 -102q208 0 208 432z" />
    <glyph glyph-name="ij.alt" unicode="&#xe010;" horiz-adv-x="696" 
d="M250 1065v-1036q0 -29 -29 -29h-86q-29 0 -29 29v1036q0 29 29 29h86q29 0 29 -29zM254 1399v-142q0 -28 -29 -28h-94q-29 0 -29 28v142q0 28 29 28h94q29 0 29 -28zM590 1065v-1262q0 -28 -29 -28h-86q-29 0 -29 28v1262q0 29 29 29h86q29 0 29 -29zM594 1399v-142
q0 -28 -29 -28h-94q-29 0 -29 28v142q0 28 29 28h94q29 0 29 -28z" />
    <glyph glyph-name="jcircumflex.alt" unicode="&#xe011;" horiz-adv-x="360" 
d="M250 1065v-1262q0 -28 -29 -28h-86q-29 0 -29 28v1262q0 29 29 29h86q29 0 29 -29zM281 1219l-101 106l-100 -106q-17 -19 -35 -19h-72q-13 0 -18 9t6 20l141 176q16 18 39 18h78q23 0 39 -18l141 -176q8 -11 5 -20t-17 -9h-72q-18 0 -34 19z" />
    <glyph glyph-name="dotlessj.alt" unicode="&#xe012;" horiz-adv-x="356" 
d="M250 1065v-1262q0 -28 -29 -28h-86q-29 0 -29 28v1262q0 29 29 29h86q29 0 29 -29z" />
    <glyph glyph-name="ugrave.alt" unicode="&#xe013;" horiz-adv-x="811" 
d="M406 -16q-316 0 -316 366v715q0 29 29 29h86q28 0 28 -29v-709q0 -123 37 -179t136 -56q98 0 135 56t37 179v709q0 29 28 29h86q29 0 29 -29v-715q0 -366 -315 -366zM385 1389l76 -164q5 -9 0 -17t-17 -8h-55q-20 0 -37 19l-145 161q-11 8 -6 21q5 12 20 12h129
q20 0 35 -24z" />
    <glyph glyph-name="uacute.alt" unicode="&#xe014;" horiz-adv-x="811" 
d="M406 -16q-316 0 -316 366v715q0 29 29 29h86q28 0 28 -29v-709q0 -123 37 -179t136 -56q98 0 135 56t37 179v709q0 29 28 29h86q29 0 29 -29v-715q0 -366 -315 -366zM350 1225l76 164q12 24 35 24h129q16 0 20 -12q5 -13 -6 -21l-145 -161q-17 -19 -37 -19h-55
q-12 0 -17 8t0 17z" />
    <glyph glyph-name="ucircumflex.alt" unicode="&#xe015;" horiz-adv-x="811" 
d="M406 -16q-316 0 -316 366v715q0 29 29 29h86q28 0 28 -29v-709q0 -123 37 -179t136 -56q98 0 135 56t37 179v709q0 29 28 29h86q29 0 29 -29v-715q0 -366 -315 -366zM506 1219l-100 106l-101 -106q-17 -19 -35 -19h-71q-15 0 -19 9q-5 9 6 20l142 176q16 18 39 18h77
q22 0 39 -18l142 -176q8 -11 5 -20t-18 -9h-71q-19 0 -35 19z" />
    <glyph glyph-name="utilde.alt" unicode="&#xe016;" horiz-adv-x="811" 
d="M406 -16q-316 0 -316 366v715q0 29 29 29h86q28 0 28 -29v-709q0 -123 37 -179t136 -56q98 0 135 56t37 179v709q0 29 28 29h86q29 0 29 -29v-715q0 -366 -315 -366zM643 1325q0 -67 -25 -98t-86 -31q-67 0 -133 33l-47 24q-78 39 -86 -18l-2 -14q-2 -21 -28 -21h-41
q-27 0 -27 37q0 67 25 98t86 31q67 0 133 -33l47 -24q78 -39 86 18l2 14q1 21 28 21h41q27 0 27 -37z" />
    <glyph glyph-name="udieresis.alt" unicode="&#xe017;" horiz-adv-x="811" 
d="M406 -16q-316 0 -316 366v715q0 29 29 29h86q28 0 28 -29v-709q0 -123 37 -179t136 -56q98 0 135 56t37 179v709q0 29 28 29h86q29 0 29 -29v-715q0 -366 -315 -366zM350 1329v-100q0 -29 -28 -29h-95q-28 0 -28 29v100q0 29 28 29h95q28 0 28 -29zM612 1329v-100
q0 -29 -28 -29h-95q-28 0 -28 29v100q0 29 28 29h95q28 0 28 -29z" />
    <glyph glyph-name="umacron.alt" unicode="&#xe018;" horiz-adv-x="811" 
d="M406 -16q-316 0 -316 366v715q0 29 29 29h86q28 0 28 -29v-709q0 -123 37 -179t136 -56q98 0 135 56t37 179v709q0 29 28 29h86q29 0 29 -29v-715q0 -366 -315 -366zM608 1208h-405q-29 0 -29 29v47q0 29 29 29h405q29 0 29 -29v-47q0 -29 -29 -29z" />
    <glyph glyph-name="ubreve.alt" unicode="&#xe019;" horiz-adv-x="811" 
d="M406 -16q-316 0 -316 366v715q0 29 29 29h86q28 0 28 -29v-709q0 -123 37 -179t136 -56q98 0 135 56t37 179v709q0 29 28 29h86q29 0 29 -29v-715q0 -366 -315 -366zM406 1196q-105 0 -159 51q-56 52 -57 142q0 22 23 22h55q21 0 25 -22q12 -93 113 -93q100 0 112 93
q4 22 25 22h55q23 0 23 -22q-1 -90 -57 -142q-54 -51 -158 -51z" />
    <glyph glyph-name="uring.alt" unicode="&#xe01a;" horiz-adv-x="811" 
d="M406 -16q-316 0 -316 366v715q0 29 29 29h86q28 0 28 -29v-709q0 -123 37 -179t136 -56q98 0 135 56t37 179v709q0 29 28 29h86q29 0 29 -29v-715q0 -366 -315 -366zM406 1268q90 0 90 88t-90 88q-91 0 -91 -88t91 -88zM406 1524q83 0 129 -46q47 -47 47 -122t-47 -122
q-46 -46 -129 -46q-84 0 -130 46q-47 47 -47 122t47 122q46 46 130 46z" />
    <glyph glyph-name="uhungarumlaut.alt" unicode="&#xe01b;" horiz-adv-x="811" 
d="M406 -16q-316 0 -316 366v715q0 29 29 29h86q28 0 28 -29v-709q0 -123 37 -179t136 -56q98 0 135 56t37 179v709q0 29 28 29h86q29 0 29 -29v-715q0 -366 -315 -366zM238 1225l71 164q11 24 37 24h98q34 0 13 -33l-117 -161q-13 -19 -37 -19h-51q-26 0 -14 25zM483 1225
l70 164q12 24 37 24h98q17 0 20 -11q3 -10 -6 -22l-116 -161q-13 -19 -39 -19h-49q-28 0 -15 25z" />
    <glyph glyph-name="ydieresis.alt" unicode="&#xe01c;" horiz-adv-x="811" 
d="M573 113v114q-61 -149 -225 -149q-128 0 -193 92t-65 248v647q0 29 29 29h86q28 0 28 -29v-629q0 -221 148 -221q88 0 140 79t52 208v563q0 29 29 29h86q29 0 29 -29v-961q0 -169 -89 -258q-88 -88 -257 -88q-127 0 -209 31q-25 11 -25 35v76q0 32 33 22q108 -31 197 -31
q206 0 206 222zM350 1329v-100q0 -29 -28 -29h-95q-28 0 -28 29v100q0 29 28 29h95q28 0 28 -29zM612 1329v-100q0 -29 -28 -29h-95q-28 0 -28 29v100q0 29 28 29h95q28 0 28 -29z" />
    <glyph glyph-name="yacute.alt" unicode="&#xe01d;" horiz-adv-x="811" 
d="M573 113v114q-61 -149 -225 -149q-128 0 -193 92t-65 248v647q0 29 29 29h86q28 0 28 -29v-629q0 -221 148 -221q88 0 140 79t52 208v563q0 29 29 29h86q29 0 29 -29v-961q0 -169 -89 -258q-88 -88 -257 -88q-127 0 -209 31q-25 11 -25 35v76q0 32 33 22q108 -31 197 -31
q206 0 206 222zM338 1225l76 164q12 24 35 24h129q16 0 20 -12q5 -13 -6 -21l-146 -161q-17 -19 -36 -19h-56q-11 0 -16 8t0 17z" />
    <glyph glyph-name="ycircumflex.alt" unicode="&#xe01e;" horiz-adv-x="811" 
d="M573 113v114q-61 -149 -225 -149q-128 0 -193 92t-65 248v647q0 29 29 29h86q28 0 28 -29v-629q0 -221 148 -221q88 0 140 79t52 208v563q0 29 29 29h86q29 0 29 -29v-961q0 -169 -89 -258q-88 -88 -257 -88q-127 0 -209 31q-25 11 -25 35v76q0 32 33 22q108 -31 197 -31
q206 0 206 222zM506 1219l-100 106l-101 -106q-17 -19 -35 -19h-71q-15 0 -19 9q-5 9 6 20l142 176q16 18 39 18h77q22 0 39 -18l142 -176q8 -11 5 -20t-18 -9h-71q-19 0 -35 19z" />
    <glyph glyph-name="ygrave.alt" unicode="&#xe01f;" horiz-adv-x="811" 
d="M573 113v114q-61 -149 -225 -149q-128 0 -193 92t-65 248v647q0 29 29 29h86q28 0 28 -29v-629q0 -221 148 -221q88 0 140 79t52 208v563q0 29 29 29h86q29 0 29 -29v-961q0 -169 -89 -258q-88 -88 -257 -88q-127 0 -209 31q-25 11 -25 35v76q0 32 33 22q108 -31 197 -31
q206 0 206 222zM385 1389l76 -164q5 -9 0 -17t-17 -8h-55q-20 0 -37 19l-145 161q-11 8 -6 21q5 12 20 12h129q20 0 35 -24z" />
    <glyph glyph-name="i.dot" unicode="&#xe020;" horiz-adv-x="356" 
d="M250 1065v-1036q0 -29 -29 -29h-86q-29 0 -29 29v1036q0 29 29 29h86q29 0 29 -29zM254 1399v-142q0 -28 -29 -28h-94q-29 0 -29 28v142q0 28 29 28h94q29 0 29 -28z" />
    <glyph glyph-name="dollar.old" unicode="&#xe021;" horiz-adv-x="778" 
d="M457 1327v-127q108 -6 159 -22q33 -11 33 -37v-72q0 -35 -39 -25q-88 21 -180 21q-104 0 -154 -37q-51 -38 -51 -125q0 -31 15 -61q21 -42 25 -48q12 -18 50 -47t52 -38q3 -2 11.5 -7.5t24 -16t29.5 -19.5q136 -88 184 -142q84 -94 84 -229q0 -255 -243 -299v-135
q0 -29 -29 -29h-61q-29 0 -29 29v125q-171 5 -234 26q-30 10 -30 39v78q0 35 37 23q87 -29 217 -29q221 0 221 172q0 41 -19 81q-19 39 -61 74q-40 33 -72 55q-25 17 -86 54q-116 71 -177 146q-60 73 -60 196q0 128 65 205t199 92v129q0 29 29 29h61q29 0 29 -29z" />
    <glyph glyph-name="cent.old" unicode="&#xe022;" horiz-adv-x="737" 
d="M78 594q0 282 83 430t251 172v131q0 29 28 29h62q28 0 28 -29v-127q59 -5 109 -22q29 -11 29 -39v-70q0 -32 -37 -22q-66 18 -133 18q-136 0 -202 -114q-67 -116 -67 -357q0 -471 267 -471q76 0 145 20q35 11 35 -22v-70q0 -22 -29 -37q-27 -15 -117 -26v-127
q0 -29 -28 -29h-62q-28 0 -28 29v129q-334 40 -334 604z" />
    <glyph glyph-name="sterling.old" unicode="&#xe023;" horiz-adv-x="919" 
d="M219 543h-106q-29 0 -29 28v54q0 28 29 28h63q-53 141 -53 234q0 141 91 228q92 87 267 87q160 0 247 -75t87 -212q0 -77 -27 -77h-88q-24 0 -24 24q0 15 1 24t1 25q0 156 -193 156q-211 0 -211 -193q0 -77 52 -221h245q29 0 29 -28v-54q0 -28 -29 -28h-206
q26 -77 26 -150q0 -72 -31 -143q-31 -70 -81 -109q49 19 106 19q48 0 123 -20q72 -19 117 -19q106 0 106 164q0 24 27 24h76q28 0 28 -30q0 -293 -196 -293q-68 0 -164 21q-101 22 -156 22q-100 0 -188 -39q-19 -8 -29 4l-51 76q-11 16 6 26q162 105 162 299q0 59 -27 148z
" />
    <glyph glyph-name="yen.old" unicode="&#xe024;" horiz-adv-x="897" 
d="M760 285h-240v-256q0 -29 -28 -29h-86q-29 0 -29 29v256h-240q-28 0 -28 28v49q0 29 28 29h242v35l-51 109h-191q-28 0 -28 28v49q0 29 28 29h139l-231 506q-6 11 0 23t25 12h92q25 0 37 -27l247 -549h5l247 549q15 27 37 27h92q19 0 25 -12t0 -23l-234 -506h142
q28 0 28 -29v-49q0 -28 -28 -28h-193l-49 -109v-35h242q28 0 28 -29v-49q0 -28 -28 -28z" />
    <glyph glyph-name="Euro.old" unicode="&#xe025;" horiz-adv-x="851" 
d="M61 537h99q-2 22 -2 57q0 33 2 57h-99q-28 0 -28 29v49q0 29 28 29h109q28 201 134 323q105 121 294 121q103 0 166 -29q24 -11 20 -38l-14 -66q-6 -28 -39 -20q-58 16 -123 16q-246 0 -286 -307h335q29 0 23 -29l-10 -49q-6 -29 -35 -29h-324q-2 -24 -2 -57q0 -35 2 -57
h297q29 0 23 -29l-10 -49q-6 -29 -35 -29h-264q40 -307 286 -307q65 0 123 16q33 8 39 -20l14 -66q4 -28 -20 -39q-60 -28 -166 -28q-190 0 -294 119q-106 121 -134 325h-109q-28 0 -28 29v49q0 29 28 29z" />
    <glyph glyph-name="zero.old" unicode="&#xe026;" horiz-adv-x="909" 
d="M455 1202q184 0 280 -156t96 -452t-96 -452t-278 -156q-185 0 -282 156q-97 155 -97 452q0 296 96 452t281 156zM455 123q225 0 225 469q0 473 -225 473q-226 0 -226 -471t226 -471z" />
    <glyph glyph-name="one.old" unicode="&#xe027;" horiz-adv-x="782" 
d="M709 0h-598q-29 0 -29 29v77q0 29 29 29h233v871l-176 -162q-16 -15 -31 0l-59 61q-17 19 0 31l260 240q15 12 35 12h86q28 0 28 -29v-1024h222q28 0 28 -29v-77q0 -29 -28 -29z" />
    <glyph glyph-name="two.old" unicode="&#xe028;" horiz-adv-x="843" 
d="M70 29v65q0 24 20 41q72 62 131 115q41 37 128 127t127 151q44 66 81 156q37 89 37 172q0 95 -46 151t-138 56q-192 0 -187 -201q0 -7 2 -37t2 -34q0 -25 -26 -25h-86q-21 0 -27 29q-4 16 -4 69q0 158 82 246t246 88q165 0 247 -91t82 -249q0 -91 -34 -183t-79 -163
q-43 -69 -119 -152q-66 -73 -119 -122q-35 -33 -114 -103h461q29 0 29 -29v-77q0 -29 -29 -29h-639q-28 0 -28 29z" />
    <glyph glyph-name="three.old" unicode="&#xe029;" horiz-adv-x="772" 
d="M215 604h76q89 0 148 62t59 182q0 217 -226 217q-87 0 -206 -35q-31 -8 -31 23v77q0 23 26 33q100 39 218 39q180 0 276 -87t96 -257q0 -225 -172 -303q90 -30 151 -117q60 -86 60 -237q0 -437 -426 -437q-135 0 -237 35q-27 7 -27 31v86q0 30 33 23q145 -37 213 -37
q291 0 291 299q0 141 -67 205q-66 63 -175 63h-80q-31 0 -31 27v82q0 26 31 26z" />
    <glyph glyph-name="four.old" unicode="&#xe02a;" horiz-adv-x="909" 
d="M575 934l-380 -672h380v672zM594 1188h100q31 0 31 -31v-895h133q31 0 31 -31v-73q0 -31 -31 -31h-133v-322q0 -30 -31 -30h-90q-31 0 -31 30v322h-497q-31 0 -31 31v73q0 20 12 41l500 891q13 25 37 25z" />
    <glyph glyph-name="five.old" unicode="&#xe02b;" horiz-adv-x="823" 
d="M653 1053h-399q-6 -194 -23 -418q79 31 158 31q356 0 356 -435q0 -469 -432 -469q-127 0 -221 33q-26 7 -26 33v78q0 29 32 22q111 -30 209 -30q146 0 215 83q70 84 70 250q0 146 -50 223q-49 76 -182 76q-69 0 -129 -21l-63 -22q-10 0 -27 7l-37 16q-14 7 -12 35
q28 395 29 612q0 31 31 31h501q29 0 29 -29v-78q0 -28 -29 -28z" />
    <glyph glyph-name="six.old" unicode="&#xe02c;" horiz-adv-x="884" 
d="M438 1415q18 23 45 23h101q16 0 21 -12q4 -12 -7 -23q-238 -241 -315 -516q60 74 186 74q165 0 254 -134q88 -133 88 -352q0 -226 -91 -357q-92 -132 -269 -132q-183 0 -276 135t-93 371q0 276 101 520q102 245 255 403zM229 475q0 -162 57 -258t163 -96t160 95
q55 96 55 259q0 159 -54 256q-52 94 -159 94q-108 0 -165 -95q-57 -94 -57 -255z" />
    <glyph glyph-name="seven.old" unicode="&#xe02d;" horiz-adv-x="761" 
d="M70 1188h606q33 0 33 -29v-69q0 -17 -17 -46q-139 -218 -253 -597q-113 -375 -113 -644q0 -28 -29 -28h-88q-31 0 -31 28q0 276 112 642q112 365 257 608h-477q-29 0 -29 28v78q0 29 29 29z" />
    <glyph glyph-name="eight.old" unicode="&#xe02e;" horiz-adv-x="888" 
d="M444 -14q-181 0 -275 97q-95 98 -95 269q0 282 241 396q-223 114 -223 362q0 157 92 249q91 91 260 91q170 0 261 -91q92 -92 92 -249q0 -248 -224 -362q242 -114 242 -396q0 -171 -95 -269q-94 -97 -276 -97zM444 1321q-100 0 -153 -54q-53 -55 -53 -157q0 -112 53 -182
q54 -71 153 -115q101 45 154 115t53 182q0 102 -53 157q-52 54 -154 54zM444 678q-221 -90 -221 -316q0 -243 221 -243q222 0 222 243q0 225 -222 316z" />
    <glyph glyph-name="nine.old" unicode="&#xe02f;" horiz-adv-x="884" 
d="M451 -203q-18 -22 -45 -22h-101q-17 0 -21 11q-5 12 7 24q222 225 311 491q-60 -74 -186 -74q-166 0 -254 133t-88 353q0 226 91 357q92 132 269 132q183 0 276 -135t93 -371q0 -261 -100 -502q-100 -240 -252 -397zM655 713q0 164 -56 258q-57 96 -163 96
q-107 0 -161 -95q-54 -94 -54 -259q0 -161 53 -256t160 -95t165 96q56 93 56 255z" />
    <glyph glyph-name="dollar.tab" unicode="&#xe030;" horiz-adv-x="983" 
d="M551 1593v-139q71 -1 172 -24q31 -6 31 -39v-78q0 -37 -39 -25q-83 25 -176 25q-119 0 -170 -51q-52 -52 -52 -154q0 -71 37 -133q40 -67 71 -94q63 -54 105 -88q54 -43 111 -93q33 -29 84 -89q49 -58 70 -124q20 -63 20 -145q0 -289 -256 -346v-152q0 -28 -29 -28h-65
q-29 0 -29 28v140q-141 0 -229 28q-33 10 -33 39v78q0 35 37 25q110 -29 209 -29q242 0 242 221q0 52 -16 98q-14 42 -56 88q-34 38 -69 69q-12 10 -97 79q-55 42 -95 81q-38 37 -80 87q-44 53 -65 119q-20 63 -20 143q0 297 264 336v147q0 29 29 29h65q29 0 29 -29z" />
    <glyph glyph-name="cent.tab" unicode="&#xe031;" horiz-adv-x="983" 
d="M225 547q0 263 72 399q73 138 225 160v143q0 29 29 29h65q29 0 29 -29v-143q64 -6 94 -19q31 -11 31 -36v-72q0 -31 -33 -21q-54 17 -129 17q-131 0 -183 -98t-52 -330q0 -230 54 -329t185 -99q73 0 133 18q33 11 33 -20v-72q0 -27 -30 -37q-36 -14 -103 -20v-144
q0 -28 -29 -28h-65q-29 0 -29 28v146q-152 22 -225 160q-72 136 -72 397z" />
    <glyph glyph-name="sterling.tab" unicode="&#xe032;" horiz-adv-x="983" 
d="M266 659h-153q-29 0 -29 29v66q0 28 29 28h112q-71 209 -71 316q0 167 92 262q91 94 276 94q169 0 255 -85q87 -86 87 -241q0 -90 -26 -90h-84q-14 0 -22 6q-7 5 -5 19q4 36 4 63q0 189 -203 189q-223 0 -223 -219q0 -93 70 -314h262q29 0 29 -28v-66q0 -29 -29 -29h-223
q35 -120 35 -194q0 -206 -146 -313q54 22 107 22q56 0 129 -24q77 -25 118 -25q114 0 119 209q0 26 29 26h74q30 0 30 -34q0 -340 -211 -340q-75 0 -172 29q-100 30 -168 30q-99 0 -188 -53q-19 -12 -29 4l-53 80q-12 16 4 26q205 141 205 367q0 68 -31 190z" />
    <glyph glyph-name="yen.tab" unicode="&#xe033;" horiz-adv-x="983" 
d="M567 373v-342q0 -31 -30 -31h-93q-30 0 -30 31v342h-267q-28 0 -28 28v62q0 29 28 29h267v45l-52 127h-215q-28 0 -28 28v62q0 28 28 28h168l-245 621q-12 35 22 35h101q25 0 36 -29l260 -702h3l260 702q11 29 36 29h101q34 0 22 -35l-247 -621h170q28 0 28 -28v-62
q0 -28 -28 -28h-218l-49 -127v-45h267q28 0 28 -29v-62q0 -28 -28 -28h-267z" />
    <glyph glyph-name="Euro.tab" unicode="&#xe034;" horiz-adv-x="983" 
d="M115 635h108q-2 36 -2 84t2 88h-108q-29 0 -29 29v65q0 29 29 29h118q66 524 476 524q100 0 178 -24q25 -8 20 -35l-14 -78q-6 -33 -37 -25q-67 19 -135 19q-159 0 -236 -104q-75 -101 -96 -277h383q29 0 23 -29l-13 -65q-6 -29 -34 -29h-369q-2 -36 -2 -88t2 -84h338
q28 0 22 -29l-12 -65q-6 -29 -35 -29h-303q43 -385 332 -385q69 0 135 18q31 8 37 -24l14 -78q5 -27 -20 -35q-78 -24 -178 -24q-412 0 -478 528h-116q-29 0 -29 29v65q0 29 29 29z" />
    <glyph glyph-name="zero.tab" unicode="&#xe035;" horiz-adv-x="983" 
d="M492 1454q196 0 295 -173q100 -174 100 -562t-100 -562q-99 -173 -295 -173q-197 0 -296 173q-100 174 -100 562t100 562q99 173 296 173zM492 123q119 0 179 139q60 140 60 457t-60 457q-60 139 -179 139q-120 0 -180 -139q-60 -140 -60 -457t60 -457q60 -139 180 -139z
" />
    <glyph glyph-name="one.tab" unicode="&#xe036;" horiz-adv-x="983" 
d="M473 31v1212l-192 -176q-18 -15 -33 0l-62 66q-17 17 0 32l281 260q16 13 37 13h92q31 0 31 -31v-1376q0 -31 -31 -31h-92q-31 0 -31 31z" />
    <glyph glyph-name="two.tab" unicode="&#xe037;" horiz-adv-x="983" 
d="M295 1083q0 -6 2 -40t2 -37q0 -27 -29 -27h-88q-23 0 -28 35q-4 47 -4 78q0 164 86 264q85 98 258 98q180 0 262 -106t82 -281q0 -112 -36 -229q-35 -115 -83 -207q-46 -89 -124 -193q-77 -102 -129 -162q-53 -60 -128 -137h483q31 0 31 -30v-78q0 -31 -31 -31h-659
q-31 0 -31 31v63q0 20 21 41q532 532 532 926q0 254 -197 254q-192 0 -192 -232z" />
    <glyph glyph-name="three.tab" unicode="&#xe038;" horiz-adv-x="983" 
d="M354 817h88q195 0 195 262q0 121 -49 179q-50 59 -164 59q-100 0 -219 -35q-31 -5 -31 23v77q0 22 27 33q101 39 229 39q361 0 361 -364q0 -248 -164 -322q192 -66 192 -344q0 -231 -99 -336q-98 -104 -308 -104q-139 0 -238 34q-27 8 -27 31v86q0 31 33 23
q145 -37 213 -37q143 0 208 72q65 73 65 229q0 260 -220 260h-92q-30 0 -30 27v82q0 26 30 26z" />
    <glyph glyph-name="four.tab" unicode="&#xe039;" horiz-adv-x="983" 
d="M743 0h-90q-30 0 -30 31v297h-498q-31 0 -31 30v74q0 20 12 41l500 940q12 25 37 25h100q31 0 31 -31v-944h133q31 0 31 -31v-74q0 -30 -31 -30h-133v-297q0 -31 -31 -31zM625 1171l-375 -708h375v708z" />
    <glyph glyph-name="five.tab" unicode="&#xe03a;" horiz-adv-x="983" 
d="M836 457q0 -473 -433 -473q-129 0 -221 32q-26 7 -26 33v80q0 30 32 23q115 -31 207 -31q148 0 217 83q70 84 70 253q0 146 -50 225q-49 78 -181 78q-66 0 -129 -22q-60 -21 -64 -21q-12 0 -27 6l-36 16q-15 7 -13 35q29 427 29 633q0 31 31 31h501q31 0 31 -31v-78
q0 -31 -31 -31h-399q-6 -240 -22 -432q79 31 157 31q183 0 270 -117t87 -323z" />
    <glyph glyph-name="six.tab" unicode="&#xe03b;" horiz-adv-x="983" 
d="M719 1288q-84 27 -162 27q-153 0 -213 -127q-58 -124 -63 -430q27 77 95 123q70 47 163 47q338 0 338 -465q0 -220 -91 -350q-90 -129 -262 -129q-211 0 -304 176q-93 175 -93 542q0 400 93 576t327 176q98 0 176 -29q27 -7 27 -32v-82q0 -34 -31 -23zM520 121
q103 0 154 91q51 92 51 247q0 334 -207 334q-98 0 -158 -77q-59 -75 -59 -245q0 -80 20 -158q20 -77 71 -134q52 -58 128 -58z" />
    <glyph glyph-name="seven.tab" unicode="&#xe03c;" horiz-adv-x="983" 
d="M311 29q0 298 111 670q110 370 246 599h-494q-31 0 -31 31v78q0 31 31 31h627q30 0 30 -31v-76q0 -22 -16 -45q-142 -247 -245 -595q-101 -342 -101 -662q0 -29 -29 -29h-98q-31 0 -31 29z" />
    <glyph glyph-name="eight.tab" unicode="&#xe03d;" horiz-adv-x="983" 
d="M492 -18q-182 0 -276 98q-95 100 -95 270q0 284 241 398q-223 114 -223 364q0 158 92 250t261 92t260 -91q92 -92 92 -251q0 -250 -223 -364q241 -114 241 -398q0 -170 -95 -270q-94 -98 -275 -98zM492 1323q-205 0 -205 -211t205 -301q204 89 204 301q0 211 -204 211z
M492 680q-220 -89 -220 -320q0 -243 220 -243q219 0 219 243q0 232 -219 320z" />
    <glyph glyph-name="nine.tab" unicode="&#xe03e;" horiz-adv-x="983" 
d="M264 147q81 -26 162 -26q153 0 213 127q58 124 63 430q-27 -77 -95 -123q-70 -47 -163 -47q-338 0 -338 465q0 220 91 350q90 129 262 129q211 0 304 -176t93 -543q0 -399 -93 -575t-327 -176q-101 0 -176 28q-27 8 -27 33v82q0 33 31 22zM463 1315q-103 0 -154 -91
q-51 -92 -51 -247q0 -334 207 -334q98 0 158 77q59 75 59 245q0 82 -19 157t-72 134t-128 59z" />
    <glyph glyph-name="dollar.tabold" unicode="&#xe03f;" horiz-adv-x="983" 
d="M559 1327v-127q110 -6 160 -22q33 -11 33 -37v-72q0 -35 -39 -25q-88 21 -181 21q-103 0 -153 -37q-51 -38 -51 -125q0 -33 14 -61q18 -36 26 -48q12 -18 50 -47q42 -33 51 -38q12 -7 66 -43q136 -88 184 -142q84 -94 84 -229q0 -255 -244 -299v-135q0 -29 -29 -29h-61
q-29 0 -29 29v125q-170 5 -233 26q-31 11 -31 39v78q0 35 37 23q87 -29 217 -29q221 0 221 172q0 43 -18 81t-62 74q-45 37 -71 55q-25 17 -86 54q-116 71 -177 146t-61 196q0 127 66 205q65 77 198 92v129q0 29 29 29h61q29 0 29 -29z" />
    <glyph glyph-name="cent.tabold" unicode="&#xe040;" horiz-adv-x="983" 
d="M205 594q0 282 83 430t251 172v131q0 29 28 29h62q28 0 28 -29v-127q59 -5 109 -22q29 -11 29 -39v-70q0 -32 -37 -22q-66 18 -133 18q-136 0 -202 -114q-67 -116 -67 -357q0 -471 267 -471q76 0 145 20q35 11 35 -22v-70q0 -22 -29 -37q-27 -15 -117 -26v-127
q0 -29 -28 -29h-62q-28 0 -28 29v129q-334 40 -334 604z" />
    <glyph glyph-name="sterling.tabold" unicode="&#xe041;" horiz-adv-x="983" 
d="M256 543h-106q-29 0 -29 28v54q0 28 29 28h63q-53 141 -53 234q0 141 91 228t267 87q160 0 247 -75t87 -212q0 -77 -27 -77h-88q-24 0 -24 24q0 15 1 24t1 25q0 156 -193 156q-211 0 -211 -193q0 -80 51 -221h246q29 0 29 -28v-54q0 -28 -29 -28h-207q27 -79 27 -150
q0 -72 -31 -143q-30 -69 -82 -109q49 19 107 19q48 0 123 -20q72 -19 117 -19q106 0 106 164q0 24 27 24h75q29 0 29 -30q0 -293 -197 -293q-67 0 -163 21q-101 22 -156 22q-99 0 -188 -39q-19 -8 -29 4l-51 76q-11 16 6 26q162 105 162 299q0 59 -27 148z" />
    <glyph glyph-name="yen.tabold" unicode="&#xe042;" horiz-adv-x="983" 
d="M803 285h-240v-256q0 -29 -28 -29h-86q-29 0 -29 29v256h-240q-28 0 -28 28v49q0 29 28 29h242v35l-51 109h-191q-28 0 -28 28v49q0 29 28 29h139l-231 506q-6 11 0 23t25 12h92q25 0 37 -27l247 -549h5l247 549q12 27 37 27h92q19 0 25 -12t0 -23l-233 -506h141
q28 0 28 -29v-49q0 -28 -28 -28h-193l-49 -109v-35h242q28 0 28 -29v-49q0 -28 -28 -28z" />
    <glyph glyph-name="Euro.tabold" unicode="&#xe043;" horiz-adv-x="983" 
d="M123 537h98q-2 22 -2 57q0 33 2 57h-98q-29 0 -29 29v49q0 29 29 29h108q28 199 135 323q105 121 293 121q103 0 166 -29q25 -11 21 -38l-15 -66q-6 -27 -38 -20q-58 16 -123 16q-247 0 -287 -307h336q28 0 22 -29l-10 -49q-6 -29 -35 -29h-323q-2 -24 -2 -57
q0 -35 2 -57h297q28 0 22 -29l-10 -49q-6 -29 -35 -29h-264q40 -307 287 -307q65 0 123 16q32 7 38 -20l15 -66q4 -28 -21 -39q-60 -28 -166 -28q-189 0 -293 119q-107 122 -135 325h-108q-29 0 -29 29v49q0 29 29 29z" />
    <glyph glyph-name="zero.tabold" unicode="&#xe044;" horiz-adv-x="983" 
d="M492 1202q184 0 280 -156t96 -452t-96 -452t-278 -156q-184 0 -282 156q-97 155 -97 452q0 296 96 452t281 156zM492 123q225 0 225 469q0 473 -225 473q-226 0 -226 -471t226 -471z" />
    <glyph glyph-name="one.tabold" unicode="&#xe045;" horiz-adv-x="983" 
d="M811 0h-598q-29 0 -29 29v77q0 29 29 29h233v871l-176 -162q-16 -14 -30 0l-60 61q-17 19 0 31l260 240q15 12 35 12h86q29 0 29 -29v-1024h221q29 0 29 -29v-77q0 -29 -29 -29z" />
    <glyph glyph-name="two.tabold" unicode="&#xe046;" horiz-adv-x="983" 
d="M139 29v65q0 23 21 41q72 62 131 115q41 37 128 127t127 151q44 66 81 156q37 89 37 172q0 93 -47 151q-46 56 -138 56q-191 0 -186 -201q0 -7 2 -37t2 -34q0 -25 -27 -25h-86q-20 0 -26 29q-4 16 -4 69q0 158 82 246t245 88q166 0 248 -91t82 -249q0 -89 -35 -183
q-34 -92 -79 -163q-46 -72 -118 -152q-66 -73 -119 -122q-35 -33 -114 -103h461q29 0 29 -29v-77q0 -29 -29 -29h-639q-29 0 -29 29z" />
    <glyph glyph-name="three.tabold" unicode="&#xe047;" horiz-adv-x="983" 
d="M332 604h76q89 0 148 62q58 61 58 182q0 217 -225 217q-88 0 -207 -35q-30 -8 -30 23v77q0 23 26 33q101 39 217 39q181 0 277 -87t96 -257q0 -225 -172 -303q89 -30 150 -117t61 -237q0 -437 -426 -437q-136 0 -238 35q-26 7 -26 31v86q0 30 33 23q145 -37 212 -37
q291 0 291 299q0 142 -66 205t-175 63h-80q-31 0 -31 27v82q0 26 31 26z" />
    <glyph glyph-name="four.tabold" unicode="&#xe048;" horiz-adv-x="983" 
d="M621 934l-381 -672h381v672zM639 1188h100q31 0 31 -31v-895h133q31 0 31 -31v-73q0 -31 -31 -31h-133v-322q0 -30 -31 -30h-90q-31 0 -31 30v322h-497q-31 0 -31 31v73q0 20 12 41l500 891q12 25 37 25z" />
    <glyph glyph-name="five.tabold" unicode="&#xe049;" horiz-adv-x="983" 
d="M727 1053h-399q-6 -194 -23 -418q79 31 158 31q356 0 356 -435q0 -469 -432 -469q-126 0 -221 33q-27 7 -27 33v78q0 30 33 22q111 -30 209 -30q146 0 215 83q70 84 70 250q0 144 -51 223q-49 76 -181 76q-69 0 -129 -21l-63 -22q-10 0 -27 7l-37 16q-14 7 -12 35
q28 395 29 612q0 31 30 31h502q29 0 29 -29v-78q0 -28 -29 -28z" />
    <glyph glyph-name="six.tabold" unicode="&#xe04a;" horiz-adv-x="983" 
d="M492 1415q18 23 45 23h100q17 0 21 -12t-7 -23q-238 -241 -315 -516q60 74 186 74q165 0 254 -134q88 -133 88 -352q0 -226 -91 -357q-91 -132 -269 -132q-183 0 -276 135t-93 371q0 274 102 520q102 245 255 403zM283 475q0 -164 56 -258q57 -96 163 -96q107 0 161 95
t54 259q0 161 -53 256q-52 94 -160 94t-165 -95q-56 -93 -56 -255z" />
    <glyph glyph-name="seven.tabold" unicode="&#xe04b;" horiz-adv-x="983" 
d="M180 1188h606q33 0 33 -29v-69q0 -18 -16 -46q-139 -218 -253 -597q-114 -378 -114 -644q0 -28 -28 -28h-89q-30 0 -30 28q0 279 111 642q112 365 257 608h-477q-28 0 -28 28v78q0 29 28 29z" />
    <glyph glyph-name="eight.tabold" unicode="&#xe04c;" horiz-adv-x="983" 
d="M504 -14q-182 0 -276 97q-95 98 -95 269q0 282 242 396q-223 114 -223 362q0 157 92 249q91 91 260 91t260 -91q92 -92 92 -249q0 -248 -223 -362q241 -114 241 -396q0 -171 -95 -269q-94 -97 -275 -97zM504 1321q-102 0 -154 -54q-53 -55 -53 -157q0 -112 53 -182
t154 -115q99 44 153 115t54 182q0 101 -54 157q-53 54 -153 54zM504 678q-221 -90 -221 -316q0 -243 221 -243t221 243q0 226 -221 316z" />
    <glyph glyph-name="nine.tabold" unicode="&#xe04d;" horiz-adv-x="983" 
d="M496 -203q-18 -22 -45 -22h-101q-17 0 -21 11q-5 12 7 24q222 225 311 491q-60 -74 -186 -74q-166 0 -254 133t-88 353q0 226 91 357q92 132 269 132q183 0 276 -135t93 -371q0 -264 -99 -502t-253 -397zM700 713q0 164 -56 258q-57 96 -163 96t-160 -95
q-55 -96 -55 -259q0 -161 53 -256t160 -95t165 96q56 93 56 255z" />
    <glyph glyph-name="ampersand.alt" unicode="&#xe04e;" horiz-adv-x="1019" 
d="M915 469h-94q-43 -485 -356 -485q-183 0 -283 148t-100 423q0 627 362 627q119 0 182 -71q62 -69 62 -177q0 -84 -26 -133q126 153 178 397q5 23 24 19l90 -19q25 -6 19 -29q-91 -309 -277 -480q-184 -169 -465 -222q7 -162 68 -257q61 -96 164 -97q121 -1 175 116
q55 120 62 338q0 27 29 27h186q27 0 27 -27v-71q0 -27 -27 -27zM444 1055q-216 0 -215 -477q148 34 243 114q97 82 97 207q0 156 -125 156z" />
    <glyph glyph-name="at.cap" unicode="&#xe04f;" horiz-adv-x="1556" 
d="M913 647l43 381q-61 8 -84 8q-105 0 -170 -68t-86 -159q-20 -86 -20 -203q0 -209 135 -209q77 0 124 68q46 67 58 182zM1102 135q22 4 22 -18v-62q0 -21 -18 -22q-117 -37 -291 -37q-696 0 -696 653q0 375 189 584t517 209q617 0 617 -608q0 -252 -108 -401
q-108 -148 -292 -148h-79q-40 0 -41 32l-7 93q-66 -134 -202 -134q-121 0 -190 85q-68 84 -68 239q0 110 21 205q20 90 69 177q47 83 133 130t205 47q118 0 200 -31q22 -10 21 -30l-80 -703h25q134 0 206 116q72 115 72 325q0 245 -119 370t-385 125q-271 0 -430 -178
q-160 -180 -160 -504q0 -289 149 -418q148 -129 433 -129q157 0 287 33z" />
    <glyph glyph-name="paragraph.cap" unicode="&#xe050;" horiz-adv-x="884" 
d="M831 1319h-69q-62 0 -84 -24q-23 -25 -23 -93v-977q0 -129 -47 -182t-155 -53q-51 0 -88 12q-25 8 -25 31v55q0 32 29 27q49 -6 61 -6q49 0 69 29q21 30 21 100v376h-49q-185 0 -287 105t-102 307q0 205 100 308q101 104 289 104h360q29 0 29 -29v-61q0 -29 -29 -29z" />
    <glyph glyph-name="registered.cap" unicode="&#xe051;" horiz-adv-x="1404" 
d="M195 719q0 -279 126 -455t381 -176q256 0 382 176t126 455q0 280 -126 455q-126 176 -382 176q-255 0 -381 -176q-126 -175 -126 -455zM623 709h79q82 0 111 33q31 36 31 120t-31 120q-30 34 -111 34h-79v-307zM520 1139h189q134 0 201 -67t67 -210q0 -207 -146 -260
l138 -260q15 -31 -15 -31h-86q-25 0 -37 23l-126 252h-82v-246q0 -29 -29 -29h-74q-28 0 -28 29v770q0 29 28 29zM86 719q0 156 37 285q38 133 109 233q73 103 194 160t276 57q156 0 277 -57q120 -56 193 -160q73 -103 110 -233q37 -129 37 -285t-37 -285
q-37 -130 -110 -233q-73 -104 -193 -160q-121 -57 -277 -57q-154 0 -276 57q-121 57 -194 160q-71 100 -109 233q-37 129 -37 285z" />
    <glyph glyph-name="questiondown.cap" unicode="&#xe052;" horiz-adv-x="724" 
d="M465 1409v-154q0 -28 -29 -28h-114q-29 0 -29 28v154q0 29 29 29h114q29 0 29 -29zM305 1010v-78q0 -74 -34 -145q-39 -81 -73 -129q-39 -55 -74 -148q-34 -90 -34 -197q0 -329 322 -329q153 0 225 34q27 12 27 33v82q0 29 -33 23q-1 0 -6.5 -2t-14.5 -4.5t-19 -5.5
q-35 -9 -72 -15t-79 -6q-192 0 -192 201q0 93 32 183q32 91 68 145q39 60 69 132q32 78 32 148v78q0 28 -29 28h-86q-29 0 -29 -28z" />
    <glyph glyph-name="exclamdown.cap" unicode="&#xe053;" horiz-adv-x="425" 
d="M127 1255v154q0 29 29 29h114q29 0 29 -29v-154q0 -28 -29 -28h-114q-29 0 -29 28zM180 1038h66q28 0 28 -28l25 -979q0 -31 -29 -31h-114q-29 0 -29 31l25 979q0 28 28 28z" />
    <glyph glyph-name="parenleft.cap" unicode="&#xe054;" horiz-adv-x="507" 
d="M111 719q0 396 215 721q10 18 34 18h68q14 0 17 -10t-3 -18q-182 -336 -182 -711t182 -711q6 -8 3 -18t-17 -10h-68q-24 0 -34 18q-215 325 -215 721z" />
    <glyph glyph-name="parenright.cap" unicode="&#xe055;" horiz-adv-x="507" 
d="M397 719q0 -396 -215 -721q-10 -18 -35 -18h-67q-15 0 -18 10t4 18q182 336 182 711t-182 711q-7 8 -4 18t18 10h67q25 0 35 -18q215 -325 215 -721z" />
    <glyph glyph-name="bracketleft.cap" unicode="&#xe056;" horiz-adv-x="507" 
d="M442 94v-65q0 -29 -28 -29h-242q-29 0 -29 29v1380q0 29 29 29h242q28 0 28 -29v-66q0 -28 -28 -28h-127v-1192h127q28 0 28 -29z" />
    </font>
</defs>
</svg>
