<?xml version="1.0" standalone="no"?>
<!DOCTYPE svg PUBLIC "-//W3C//DTD SVG 1.1//EN" "http://www.w3.org/Graphics/SVG/1.1/DTD/svg11.dtd" >
<svg xmlns="http://www.w3.org/2000/svg" xmlns:xlink="http://www.w3.org/1999/xlink" version="1.1">
<metadata>
Created by FontForge 20170731 at Mon Nov 21 16:50:41 2022
 By Aleksey,,,
(c) 2012, 2013, 2014, 2015 by Stawix Ruecha &#38; Foundry. All rights reserved.
</metadata>
<defs>
<font id="AmsiProCond-Thin" horiz-adv-x="552" >
  <font-face 
    font-family="AmsiProCond-Thin"
    font-weight="400"
    font-stretch="condensed"
    units-per-em="2048"
    panose-1="2 11 10 6 2 2 1 1 1 4"
    ascent="1753"
    descent="-295"
    x-height="1069"
    cap-height="1434"
    bbox="-307.227 -555 2458 2140"
    underline-thickness="30"
    underline-position="-206"
    unicode-range="U+0020-FB4E"
  />
<missing-glyph horiz-adv-x="1007" 
d="M0 1413h1008v-1413h-1008v1413zM907 193v1030l-344 -516zM100 1223v-1030l344 514zM504 797l344 516h-686zM504 616l-342 -516h684z" />
    <glyph glyph-name="f_f" unicode="ff" horiz-adv-x="860" 
d="M618 1069h193q12 0 12 -12v-19q0 -12 -12 -12h-193v-1014q0 -12 -12 -12h-20q-13 0 -13 12v1014h-348v-1014q0 -12 -12 -12h-20q-13 0 -13 12v1014h-123q-12 0 -12 12v19q0 12 12 12h123v115q0 135 40 196q41 62 134 62q31 0 60 -4q14 -1 14 -21v-10q0 -13 -18 -12
q-25 4 -52 4q-75 0 -104 -50t-29 -173v-107h348v94q0 153 40 215q41 64 147 64q36 0 61 -4q15 -2 15 -21v-10q0 -14 -19 -12q-21 4 -53 4q-86 0 -116 -53q-30 -52 -30 -191v-86z" />
    <glyph glyph-name="fi" unicode="fi" horiz-adv-x="737" 
d="M610 1057v-1045q0 -12 -12 -12h-20q-13 0 -13 12v1014h-340v-1014q0 -12 -12 -12h-20q-13 0 -13 12v1014h-123q-12 0 -12 12v19q0 12 12 12h123v115q0 135 40 196q41 62 134 62q31 0 60 -4q14 -1 14 -21v-10q0 -13 -18 -12q-25 4 -52 4q-75 0 -104 -50t-29 -171v-109h373
q12 0 12 -12zM614 1421v-145q0 -12 -12 -12h-29q-12 0 -12 12v145q0 13 12 13h29q12 0 12 -13z" />
    <glyph glyph-name="fl" unicode="fl" horiz-adv-x="745" 
d="M618 1407v-1395q0 -12 -12 -12h-20q-13 0 -13 12v1377q-64 10 -131 10q-121 0 -169 -63t-48 -197v-70h172q13 0 13 -12v-19q0 -12 -13 -12h-172v-1014q0 -12 -12 -12h-20q-13 0 -13 12v1014h-123q-12 0 -12 12v19q0 12 12 12h123v78q0 150 61 223q60 72 201 72
q84 0 164 -17q12 -5 12 -18z" />
    <glyph glyph-name="f_f_i" unicode="ffi" horiz-adv-x="1130" 
d="M1004 1057v-1045q0 -12 -13 -12h-20q-13 0 -13 12v1014h-340v-1014q0 -12 -12 -12h-20q-13 0 -13 12v1014h-348v-1014q0 -12 -12 -12h-20q-13 0 -13 12v1014h-123q-12 0 -12 12v19q0 12 12 12h123v115q0 135 40 196q41 62 134 62q31 0 60 -4q14 -1 14 -21v-10
q0 -13 -18 -12q-25 4 -52 4q-75 0 -104 -50t-29 -173v-107h348v115q0 135 40 196q41 62 135 62q30 0 59 -4q14 -1 14 -21v-10q0 -13 -18 -12q-25 4 -51 4q-76 0 -105 -50t-29 -173v-107h373q13 0 13 -12zM1008 1421v-145q0 -12 -13 -12h-28q-13 0 -13 12v145q0 13 13 13h28
q13 0 13 -13z" />
    <glyph glyph-name="f_f_l" unicode="ffl" horiz-adv-x="1138" 
d="M618 1026v-1014q0 -12 -12 -12h-20q-13 0 -13 12v1014h-348v-1014q0 -12 -12 -12h-20q-13 0 -13 12v1014h-123q-12 0 -12 12v19q0 12 12 12h123v115q0 135 40 196q41 62 134 62q31 0 60 -4q14 -1 14 -21v-8q0 -15 -18 -14q-25 4 -52 4q-75 0 -104 -50t-29 -173v-107h348
v78q0 150 61 223q60 72 200 72q85 0 165 -17q13 -5 13 -18v-1395q0 -12 -13 -12h-20q-12 0 -12 12v1377q-64 10 -131 10q-121 0 -169 -63q-49 -64 -49 -197v-70h173q12 0 12 -12v-19q0 -12 -12 -12h-173z" />
    <glyph glyph-name="f_b" unicode="fb" horiz-adv-x="1236" 
d="M616 535q0 -508 258 -508q242 0 242 508q0 507 -242 507q-258 0 -258 -507zM618 1407v-547q24 101 91 164q65 61 165 61q155 0 222 -139q67 -138 67 -411q0 -274 -67 -412q-67 -139 -222 -139q-102 0 -166 61q-66 63 -90 164v-197q0 -12 -12 -12h-20q-13 0 -13 12v1377
q-64 10 -131 10q-121 0 -169 -63t-48 -197v-70h172q13 0 13 -12v-19q0 -12 -13 -12h-172v-1014q0 -12 -12 -12h-20q-13 0 -13 12v1014h-123q-12 0 -12 12v19q0 12 12 12h123v78q0 150 61 223q60 72 199 72q86 0 166 -17q12 -5 12 -18z" />
    <glyph glyph-name="f_f_b" unicode="ffb" horiz-adv-x="1630" 
d="M1010 535q0 -508 258 -508q241 0 241 510q0 505 -241 505q-258 0 -258 -507zM1012 1407v-547q24 102 89 164q64 61 167 61q154 0 221 -139q67 -138 67 -411q0 -274 -67 -412q-67 -139 -221 -139q-103 0 -167 61q-65 62 -89 164v-197q0 -12 -13 -12h-20q-12 0 -12 12v1377
q-64 10 -131 10q-121 0 -169 -63q-49 -64 -49 -197v-70h173q12 0 12 -12v-19q0 -12 -12 -12h-173v-1014q0 -12 -12 -12h-20q-13 0 -13 12v1014h-348v-1014q0 -12 -12 -12h-20q-13 0 -13 12v1014h-123q-12 0 -12 12v19q0 12 12 12h123v115q0 135 40 196q41 62 134 62
q31 0 60 -4q14 -1 14 -21v-10q0 -13 -18 -12q-25 4 -52 4q-75 0 -104 -50t-29 -173v-107h348v78q0 150 61 223q60 72 200 72q85 0 165 -17q13 -5 13 -18z" />
    <glyph glyph-name="f_h" unicode="fh" horiz-adv-x="1236" 
d="M618 1407v-518q78 196 269 196q122 0 181 -84q58 -83 58 -229v-760q0 -12 -12 -12h-20q-13 0 -13 12v760q0 270 -194 270q-116 0 -192 -91q-77 -92 -77 -238v-701q0 -12 -12 -12h-20q-13 0 -13 12v1377q-64 10 -131 10q-121 0 -169 -63t-48 -197v-70h172q13 0 13 -12v-19
q0 -12 -13 -12h-172v-1014q0 -12 -12 -12h-20q-13 0 -13 12v1014h-123q-12 0 -12 12v19q0 12 12 12h123v78q0 150 61 223q60 72 199 72q86 0 166 -17q12 -5 12 -18z" />
    <glyph glyph-name="f_f_h" unicode="ffh" horiz-adv-x="1630" 
d="M1012 1407v-518q28 79 96 138q67 58 172 58q122 0 181 -84q59 -85 59 -227v-762q0 -12 -13 -12h-20q-12 0 -12 12v760q0 270 -195 270q-115 0 -191 -91q-77 -92 -77 -238v-701q0 -12 -13 -12h-20q-12 0 -12 12v1377q-64 10 -131 10q-121 0 -169 -63q-49 -64 -49 -197v-70
h173q12 0 12 -12v-19q0 -12 -12 -12h-173v-1014q0 -12 -12 -12h-20q-13 0 -13 12v1014h-348v-1014q0 -12 -12 -12h-20q-13 0 -13 12v1014h-123q-12 0 -12 12v19q0 12 12 12h123v115q0 135 40 196q41 62 134 62q31 0 60 -4q14 -1 14 -21v-10q0 -13 -18 -12q-25 4 -52 4
q-75 0 -104 -50t-29 -173v-107h348v78q0 150 61 223q60 72 200 72q85 0 165 -17q13 -5 13 -18z" />
    <glyph glyph-name="f_j" unicode="fj" horiz-adv-x="737" 
d="M610 1057v-1100q0 -101 -28 -145q-28 -45 -105 -45q-17 0 -33 2q-14 1 -14 18v14q0 15 14 11q14 -2 35 -2q52 0 69 33t17 112v1071h-340v-1014q0 -12 -12 -12h-20q-13 0 -13 12v1014h-123q-12 0 -12 12v19q0 12 12 12h123v115q0 135 40 196q41 62 134 62q31 0 60 -4
q14 -1 14 -21v-10q0 -13 -18 -12q-25 4 -52 4q-75 0 -104 -50t-29 -173v-107h373q12 0 12 -12zM614 1421v-145q0 -12 -12 -12h-29q-12 0 -12 12v145q0 13 12 13h29q12 0 12 -13z" />
    <glyph glyph-name="f_f_j" unicode="ffj" horiz-adv-x="1130" 
d="M1004 1057v-1100q0 -99 -29 -145q-29 -45 -105 -45q-16 0 -32 2q-15 1 -15 18v14q0 15 15 11q14 -2 34 -2q52 0 69 33t17 116v1067h-340v-1014q0 -12 -12 -12h-20q-13 0 -13 12v1014h-348v-1014q0 -12 -12 -12h-20q-13 0 -13 12v1014h-123q-12 0 -12 12v19q0 12 12 12
h123v115q0 135 40 196q41 62 134 62q31 0 60 -4q14 -1 14 -21v-10q0 -13 -18 -12q-25 4 -52 4q-75 0 -104 -50t-29 -173v-107h348v115q0 135 40 196q41 62 135 62q30 0 59 -4q14 -1 14 -21v-10q0 -13 -18 -12q-25 4 -51 4q-76 0 -105 -50t-29 -173v-107h373q13 0 13 -12z
M1008 1421v-145q0 -12 -13 -12h-28q-13 0 -13 12v145q0 13 13 13h28q13 0 13 -13z" />
    <glyph glyph-name="f_k" unicode="fk" horiz-adv-x="1101" 
d="M618 1407v-797l377 447q12 12 27 12h20q12 0 13 -6q2 -6 -4 -12l-389 -457l401 -576q15 -18 -8 -18h-21q-18 0 -26 12l-390 563v-563q0 -12 -12 -12h-20q-13 0 -13 12v1377q-64 10 -131 10q-121 0 -169 -63t-48 -197v-70h172q13 0 13 -12v-19q0 -12 -13 -12h-172v-1014
q0 -12 -12 -12h-20q-13 0 -13 12v1014h-123q-12 0 -12 12v19q0 12 12 12h123v78q0 150 61 223q60 72 199 72q86 0 166 -17q12 -5 12 -18z" />
    <glyph glyph-name="f_f_k" unicode="ffk" horiz-adv-x="1495" 
d="M967 12v1377q-64 10 -131 10q-121 0 -169 -63q-49 -64 -49 -197v-70h173q12 0 12 -12v-19q0 -12 -12 -12h-173v-1014q0 -12 -12 -12h-20q-13 0 -13 12v1014h-348v-1014q0 -12 -12 -12h-20q-13 0 -13 12v1014h-123q-12 0 -12 12v19q0 12 12 12h123v115q0 135 40 196
q41 62 134 62q31 0 60 -4q14 -1 14 -21v-10q0 -13 -18 -12q-25 4 -52 4q-75 0 -104 -50t-29 -173v-107h348v78q0 150 61 223q60 72 200 72q85 0 165 -17q13 -5 13 -18v-797l377 447q12 12 26 12h21q10 0 12 -6t-4 -12l-389 -457l401 -576q15 -18 -8 -18h-21q-19 0 -26 12
l-389 563v-563q0 -12 -13 -12h-20q-12 0 -12 12z" />
    <glyph glyph-name="f_t" unicode="ft" horiz-adv-x="892" 
d="M225 1069h348v246q0 12 13 12h20q12 0 12 -12v-246h193q12 0 12 -12v-19q0 -12 -12 -12h-193v-782q0 -123 29 -167t103 -44q33 0 63 6q14 4 14 -10v-13q0 -19 -14 -20q-27 -6 -65 -6q-93 0 -134 53t-41 197v786h-348v-1014q0 -12 -12 -12h-20q-13 0 -13 12v1014h-123
q-12 0 -12 12v19q0 12 12 12h123v115q0 135 40 196q41 62 134 62q31 0 60 -4q14 -1 14 -21v-10q0 -13 -18 -12q-25 4 -52 4q-75 0 -104 -50t-29 -173v-107z" />
    <glyph glyph-name="f_f_t" unicode="fft" horiz-adv-x="1286" 
d="M573 1069v115q0 135 40 196q41 62 135 62q30 0 59 -4q14 -1 14 -21v-10q0 -13 -18 -12q-25 4 -51 4q-76 0 -105 -51q-29 -52 -29 -174v-105h349v246q0 12 12 12h20q13 0 13 -12v-246h192q13 0 13 -12v-19q0 -12 -13 -12h-192v-782q0 -124 28 -167q29 -44 103 -44
q33 0 63 6q15 5 15 -10v-13q0 -18 -15 -20q-27 -6 -65 -6q-92 0 -133 53t-41 197v786h-349v-1014q0 -12 -12 -12h-20q-13 0 -13 12v1014h-348v-1014q0 -12 -12 -12h-20q-13 0 -13 12v1014h-123q-12 0 -12 12v19q0 12 12 12h123v115q0 135 40 196q41 62 134 62q31 0 60 -4
q14 -1 14 -21v-8q0 -15 -18 -14q-25 4 -52 4q-75 0 -104 -50t-29 -173v-107h348z" />
    <glyph glyph-name="t_t" unicode="tt" horiz-adv-x="884" 
d="M803 1026h-193v-782q0 -123 29 -167t102 -44q34 0 64 6q14 4 14 -10v-13q0 -19 -14 -20q-27 -6 -66 -6q-92 0 -133 53t-41 199v784h-348v-782q0 -121 27 -166t88 -45q29 0 59 6q15 5 15 -10v-13q0 -18 -15 -20q-27 -6 -61 -6q-80 0 -119 53t-39 197v786h-119
q-12 0 -12 12v19q0 12 12 12h119v266q0 13 12 13h21q12 0 12 -13v-266h348v266q0 13 13 13h20q12 0 12 -13v-266h193q12 0 12 -12v-19q0 -12 -12 -12z" />
    <glyph glyph-name="t_t_f" unicode="ttf" horiz-adv-x="1245" 
d="M610 1026v-782q0 -123 29 -167t102 -44q34 0 64 6q14 4 14 -10v-13q0 -19 -14 -20q-27 -6 -66 -6q-92 0 -133 53t-41 199v784h-348v-782q0 -121 27 -166t88 -45q29 0 59 6q15 5 15 -10v-13q0 -18 -15 -20q-27 -6 -61 -6q-80 0 -119 53t-39 197v786h-119q-12 0 -12 12v19
q0 12 12 12h119v266q0 13 12 13h21q12 0 12 -13v-266h348v266q0 13 13 13h20q12 0 12 -13v-266h348v96q0 151 40 213q41 64 147 64q36 0 61 -4q15 -2 15 -21v-10q0 -14 -19 -12q-21 4 -53 4q-88 0 -117 -53q-28 -52 -28 -189v-88h192q12 0 12 -12v-19q0 -12 -12 -12h-192
v-1014q0 -12 -13 -12h-20q-13 0 -13 12v1014h-348z" />
    <glyph glyph-name=".notdef" horiz-adv-x="1007" 
d="M0 1413h1008v-1413h-1008v1413zM907 193v1030l-344 -516zM100 1223v-1030l344 514zM504 797l344 516h-686zM504 616l-342 -516h684z" />
    <glyph glyph-name=".null" horiz-adv-x="0" 
 />
    <glyph glyph-name="nonmarkingreturn" horiz-adv-x="681" 
 />
    <glyph glyph-name="space" unicode=" " horiz-adv-x="409" 
 />
    <glyph glyph-name="exclam" unicode="!" horiz-adv-x="364" 
d="M143 12v113q0 12 13 12h53q12 0 12 -12v-113q0 -12 -12 -12h-53q-13 0 -13 12zM190 365h-16q-12 0 -12 12l-6 1044q0 13 12 13h29q12 0 12 -13l-6 -1044q0 -12 -13 -12z" />
    <glyph glyph-name="quotedbl" unicode="&#x22;" horiz-adv-x="499" 
d="M168 1282l-10 -254h-29l-10 254q-4 91 -4 127q0 31 5 43q4 10 23 10q20 0 24 -10q5 -12 5 -43q0 -36 -4 -127zM381 1282l-10 -254h-29l-10 254q-4 91 -4 127q0 34 5 44q5 9 25 9q19 0 23 -10q4 -9 4 -45q0 -34 -4 -125z" />
    <glyph glyph-name="numbersign" unicode="#" horiz-adv-x="942" 
d="M885 1425l-121 -442h141q13 0 13 -12v-21q0 -12 -13 -12h-153l-117 -426h143q13 0 13 -12v-21q0 -12 -13 -12h-155l-129 -471q-4 -12 -15 -10l-22 6q-12 2 -8 16l124 459h-346l-129 -471q-4 -11 -14 -10l-23 6q-12 2 -8 16l125 459h-141q-12 0 -12 12v21q0 12 12 12h153
l117 426h-143q-12 0 -12 12v21q0 12 12 12h155l125 455q1 10 15 8l22 -6q10 -4 8 -15l-120 -442h346l125 455q1 10 14 8l23 -6q10 -4 8 -15zM356 938l-116 -426h346l116 426h-346z" />
    <glyph glyph-name="dollar" unicode="$" horiz-adv-x="749" 
d="M408 1606v-156q113 -1 188 -23q14 -4 14 -18v-14q0 -17 -16 -13q-87 23 -186 23q-146 0 -207 -67q-60 -66 -60 -205q0 -83 36 -155t77 -116q37 -40 113 -100q140 -114 188 -168q104 -123 104 -277q0 -150 -64 -235q-65 -86 -187 -98v-156q0 -12 -13 -12h-22q-13 0 -13 12
v152q-161 0 -256 34q-14 4 -14 19v14q0 16 16 12q90 -34 254 -34q126 0 189 76q63 77 63 216q0 26 -5 58q-2 13 -10 50q-4 20 -20 48q-3 6 -11.5 20.5t-11.5 20.5q-6 11 -32 41q-24 27 -30 36q-7 10 -38 37q-9 8 -18 15t-13.5 11t-5.5 5t-6 5t-15 12.5t-20 16.5
q-36 30 -38 32q-73 58 -120 109q-43 46 -84 128q-40 80 -40 171q0 143 61 224q60 79 205 91v158q0 12 13 12h22q13 0 13 -12z" />
    <glyph glyph-name="percent" unicode="%" horiz-adv-x="1294" 
d="M1012 1417l-680 -1405q-6 -12 -19 -12h-22q-15 0 -8 16l680 1405q7 13 18 13h23q16 0 8 -17zM66 1055q0 391 231 391t231 -391t-231 -391t-231 391zM481 1055q0 348 -184 348t-184 -348t184 -348t184 348zM766 379q0 391 231 391q232 0 232 -391t-230 -391
q-233 0 -233 391zM1182 379q0 348 -185 348q-184 0 -184 -348t184 -348q185 0 185 348z" />
    <glyph glyph-name="ampersand" unicode="&#x26;" horiz-adv-x="1024" 
d="M897 453q0 -137 -59 -258l112 -181q10 -14 -6 -14h-29q-10 0 -16 10l-86 140q-112 -166 -326 -166q-188 0 -290 105q-103 106 -103 317q0 151 70 280q68 126 205 178l-37 62q-94 158 -94 278q0 114 69 180t211 66q94 0 148 -20q14 -4 14 -19v-12q0 -17 -16 -13
q-62 21 -146 21q-117 0 -174 -54t-57 -149q0 -116 86 -256l436 -706q39 96 39 211q0 72 -8 125q-4 12 12 12h22q12 0 13 -12q10 -60 10 -125zM487 29q203 0 297 166l-393 632q-121 -46 -184 -165q-64 -120 -64 -256q0 -187 89 -282t255 -95z" />
    <glyph glyph-name="quotesingle" unicode="'" horiz-adv-x="286" 
d="M168 1282l-10 -254h-29l-10 254q-4 91 -4 127q0 31 5 43q4 10 23 10q20 0 24 -10q5 -12 5 -43q0 -36 -4 -127z" />
    <glyph glyph-name="parenleft" unicode="(" horiz-adv-x="454" 
d="M135 606q0 483 209 832q6 8 16 8h21q12 0 6 -12q-88 -149 -146 -373q-57 -219 -57 -455q0 -235 57 -454q58 -224 146 -373q6 -12 -6 -12h-21q-10 0 -16 8q-209 349 -209 831z" />
    <glyph glyph-name="parenright" unicode=")" horiz-adv-x="454" 
d="M319 606q0 -484 -208 -831q-6 -8 -17 -8h-20q-12 0 -6 12q88 149 146 373q56 215 56 454q0 240 -56 455q-58 224 -146 373q-6 12 6 12h20q11 0 17 -8q208 -347 208 -832z" />
    <glyph glyph-name="asterisk" unicode="*" horiz-adv-x="684" 
d="M342 885q-27 0 -27 43q0 44 15 219q-159 -109 -183 -121q-36 -20 -51 2q-12 22 25 43q36 22 196 98q-152 72 -196 99q-37 22 -25 43q15 22 51 2q24 -12 183 -121q-15 176 -15 219t27 43t27 -43t-15 -219q45 29 75 49q8 6 33 22.5t35 23.5q29 21 40 26q39 23 51 0
q12 -24 -25 -45q-118 -62 -196 -99q127 -60 196 -98q37 -21 25 -45q-10 -22 -51 0q-53 29 -183 121q15 -175 15 -219q0 -43 -27 -43z" />
    <glyph glyph-name="plus" unicode="+" horiz-adv-x="925" 
d="M823 713h-338v-412q0 -12 -12 -12h-20q-13 0 -13 12v412h-338q-12 0 -12 12v20q0 13 14 13h336v411q0 13 13 13h20q12 0 12 -13v-411h338q13 0 13 -13v-20q0 -12 -13 -12z" />
    <glyph glyph-name="comma" unicode="," horiz-adv-x="299" 
d="M186 -2l-34 -154q-4 -12 -15 -12h-8q-14 0 -10 14l28 154h-24q-12 0 -12 12v113q0 12 12 12h53q12 0 12 -12v-111q0 -6 -2 -16z" />
    <glyph glyph-name="hyphen" unicode="-" horiz-adv-x="544" 
d="M451 528h-357q-12 0 -12 13v18q0 12 12 12h357q12 0 12 -12v-18q0 -13 -12 -13z" />
    <glyph glyph-name="period" unicode="." horiz-adv-x="299" 
d="M111 12v113q0 12 12 12h53q12 0 12 -12v-113q0 -12 -12 -12h-53q-12 0 -12 12z" />
    <glyph glyph-name="slash" unicode="/" horiz-adv-x="528" 
d="M18 12l445 1411q2 11 14 11h23q12 0 10 -13l-444 -1411q-1 -10 -15 -10h-22q-13 0 -11 12z" />
    <glyph glyph-name="zero" unicode="0" horiz-adv-x="897" 
d="M449 1450q181 0 270 -174q88 -173 88 -563q0 -388 -88 -560q-89 -173 -270 -173q-182 0 -271 173q-88 172 -88 562t88 562q89 173 271 173zM449 23q156 0 232 163q77 165 77 527q0 365 -76 529q-76 165 -233 165q-156 0 -233 -164q-77 -165 -77 -528q0 -364 77 -529
q76 -163 233 -163z" />
    <glyph glyph-name="one" unicode="1" horiz-adv-x="544" 
d="M313 12v1356l-227 -205q-10 -10 -16 0l-15 17q-11 10 0 18l256 229q7 7 17 7h20q12 0 12 -13v-1409q0 -12 -12 -12h-22q-13 0 -13 12z" />
    <glyph glyph-name="two" unicode="2" horiz-adv-x="835" 
d="M156 1108q0 -33 2 -61q0 -13 -13 -13h-22q-12 0 -12 13q-5 50 -5 63q0 151 77 246q76 94 233 94q156 0 229 -100q74 -101 74 -263q0 -113 -44 -245q-44 -133 -96 -229q-48 -89 -148 -224q-89 -119 -144 -185q-41 -48 -140 -159h594q13 0 13 -12v-21q0 -12 -13 -12h-643
q-12 0 -12 12v21q0 12 8 20q117 131 147 168q63 76 145 187q96 130 146 222q52 96 95 221t43 236q0 318 -256 318q-133 0 -196 -80q-62 -78 -62 -217z" />
    <glyph glyph-name="three" unicode="3" horiz-adv-x="741" 
d="M256 774h86q104 0 173 81t69 241q0 161 -66 236t-221 75q-97 0 -205 -33q-16 -4 -16 12v13q0 14 14 18q105 33 207 33q180 0 258 -85t78 -269q0 -146 -58 -235q-56 -86 -137 -107q96 -16 159 -105q62 -87 62 -256q0 -209 -92 -312q-91 -101 -286 -101q-114 0 -222 30
q-14 4 -14 19v12q0 16 16 12q111 -30 220 -30q329 0 329 370q0 336 -268 336h-86q-12 0 -12 12v21q0 12 12 12z" />
    <glyph glyph-name="four" unicode="4" horiz-adv-x="872" 
d="M649 0h-22q-13 0 -13 12v361h-544q-13 0 -13 12v18q0 11 6 23l541 997q6 11 19 11h26q13 0 13 -13v-1003h161q13 0 13 -12v-21q0 -12 -13 -12h-161v-361q0 -12 -13 -12zM614 1343l-501 -925h501v925z" />
    <glyph glyph-name="five" unicode="5" horiz-adv-x="761" 
d="M680 444q0 -464 -391 -464q-125 0 -209 28q-14 4 -14 19v12q0 16 16 12q88 -28 207 -28q342 0 342 421q0 174 -60 276q-59 101 -213 101q-69 0 -117 -11q-55 -13 -78 -22q-24 -10 -30 -10q-5 0 -12 4l-12 9q-9 7 -9 20q20 275 31 610q0 13 12 13h463q12 0 12 -13v-20
q0 -12 -12 -12h-430q-6 -295 -29 -562q90 37 211 37q96 0 159 -31t99 -93q35 -61 50 -132q14 -67 14 -164z" />
    <glyph glyph-name="six" unicode="6" horiz-adv-x="839" 
d="M635 1384q-69 23 -150 23q-178 0 -262 -149q-84 -148 -84 -510q0 -74 2 -140q17 126 96 199q80 74 207 74q322 0 322 -453q0 -205 -80 -327q-79 -121 -233 -121q-193 0 -278 171q-85 170 -85 564q0 395 90 565t305 170q88 0 152 -23q14 -4 14 -18v-12q0 -17 -16 -13z
M453 23q131 0 197 111q67 113 67 294q0 410 -275 410q-282 0 -282 -402q0 -71 15 -140q15 -67 47 -132q32 -64 92 -103q58 -38 139 -38z" />
    <glyph glyph-name="seven" unicode="7" horiz-adv-x="753" 
d="M211 12q0 320 122 715q121 392 290 662h-545q-12 0 -12 12v20q0 13 12 13h594q12 0 12 -13v-20q0 -11 -6 -21q-163 -238 -290 -647q-128 -411 -128 -721q0 -12 -12 -12h-25q-12 0 -12 12z" />
    <glyph glyph-name="eight" unicode="8" horiz-adv-x="835" 
d="M418 -20q-164 0 -248 93t-84 257q0 154 80 260q78 104 201 155q-265 122 -265 385q0 143 83 232q82 88 233 88q150 0 232 -88q83 -89 83 -232q0 -264 -264 -385q123 -51 201 -155q80 -106 80 -260q0 -164 -84 -257t-248 -93zM418 1407q-126 0 -196 -75q-70 -74 -70 -202
q0 -259 266 -360q266 101 266 360q0 126 -71 202q-71 75 -195 75zM418 721q-125 -46 -203 -143q-80 -100 -80 -250q0 -144 72 -225q71 -80 211 -80t211 80t71 225q0 152 -79 250q-78 97 -203 143z" />
    <glyph glyph-name="nine" unicode="9" horiz-adv-x="839" 
d="M205 47q66 -22 149 -22q178 0 262 148q84 149 84 511q0 73 -2 139q-17 -126 -95 -198q-80 -74 -208 -74q-321 0 -321 453q0 204 80 326t233 122q193 0 278 -171q85 -170 85 -564t-91 -565q-90 -170 -305 -170q-89 0 -151 22q-15 5 -15 19v12q0 17 17 12zM387 1409
q-131 0 -198 -112q-66 -111 -66 -293q0 -410 274 -410q283 0 283 401q0 72 -15 141q-14 64 -48 132q-31 63 -92 102q-60 39 -138 39z" />
    <glyph glyph-name="colon" unicode=":" horiz-adv-x="356" 
d="M139 12v113q0 12 13 12h53q12 0 12 -12v-113q0 -12 -12 -12h-53q-13 0 -13 12zM139 936v111q0 14 13 14h53q12 0 12 -12v-113q0 -12 -12 -12h-53q-13 0 -13 12z" />
    <glyph glyph-name="semicolon" unicode=";" horiz-adv-x="356" 
d="M139 936v113q0 12 11 12h55q12 0 12 -12v-113q0 -12 -12 -12h-53q-13 0 -13 12zM215 -2l-35 -154q-4 -12 -14 -12h-8q-15 0 -11 14l29 154h-24q-13 0 -13 12v113q0 12 13 12h53q12 0 12 -12v-111q0 -6 -2 -16z" />
    <glyph glyph-name="less" unicode="&#x3c;" horiz-adv-x="925" 
d="M135 733q0 6 6 12l551 551q8 11 19 0l16 -16q8 -8 0 -16l-530 -531l530 -530q9 -9 0 -17l-16 -16q-11 -11 -19 0l-551 551q-6 6 -6 12z" />
    <glyph glyph-name="equal" unicode="=" horiz-adv-x="925" 
d="M811 922h-696q-13 0 -13 12v20q0 13 13 13h696q12 0 12 -13v-20q0 -12 -12 -12zM811 504h-696q-13 0 -13 12v21q0 12 13 12h696q12 0 12 -12v-21q0 -12 -12 -12z" />
    <glyph glyph-name="greater" unicode="&#x3e;" horiz-adv-x="925" 
d="M791 733q0 -5 -7 -12l-551 -551q-7 -10 -18 0l-16 16q-9 8 0 17l530 530l-530 531q-8 8 0 16l16 16q11 10 18 0l551 -551q7 -7 7 -12z" />
    <glyph glyph-name="question" unicode="?" horiz-adv-x="679" 
d="M270 12v113q0 12 13 12h53q12 0 12 -12v-113q0 -12 -12 -12h-53q-13 0 -13 12zM334 481v-102q0 -14 -12 -14h-25q-12 0 -12 12v104q0 85 38 173t81 149q47 66 82 152q38 93 38 184q0 131 -54 198q-54 68 -185 68q-96 0 -191 -31q-16 -4 -16 12v15q0 14 14 18
q88 31 193 31q157 0 223 -79q65 -78 65 -232q0 -102 -37 -195q-36 -91 -82 -156t-82 -144q-38 -84 -38 -163z" />
    <glyph glyph-name="at" unicode="@" horiz-adv-x="1486" 
d="M934 457l49 432q-59 10 -127 10q-334 0 -334 -514q0 -126 43 -202q44 -77 117 -77q103 0 169 102q67 103 83 249zM1014 -143q16 4 16 -13v-10q0 -17 -14 -18q-111 -27 -250 -27q-318 0 -476 142q-159 143 -159 489q0 390 177 604q177 215 485 215q306 0 436 -148
q131 -149 131 -444q0 -248 -106 -410q-105 -161 -289 -161h-35q-34 0 -33 33l10 133q-66 -179 -231 -179q-93 0 -146 91t-53 231q0 76 8 151q7 62 33 148q24 77 65 132q41 54 109 90q69 36 162 36q98 0 164 -18q14 -5 12 -21l-92 -788h18q171 0 267 148q96 149 96 386
q0 279 -120 414t-408 135q-289 0 -454 -201t-165 -577q0 -326 150 -458t444 -132q134 0 248 27z" />
    <glyph glyph-name="A" unicode="A" horiz-adv-x="876" 
d="M225 504h426l-211 848h-4zM424 1434h29q14 0 16 -13l352 -1407q1 -14 -10 -14h-23q-10 0 -14 12l-112 447h-447l-113 -447q-4 -12 -14 -12h-22q-12 0 -11 14l353 1407q2 13 16 13z" />
    <glyph glyph-name="B" unicode="B" horiz-adv-x="864" 
d="M174 766h219q161 0 240 77q78 77 78 240q0 171 -76 238q-77 68 -240 68h-221v-623zM385 0h-246q-12 0 -12 12v1409q0 13 12 13h258q179 0 270 -81t91 -270q0 -151 -63 -234q-64 -84 -160 -104q251 -40 251 -360q0 -206 -101 -295q-102 -90 -300 -90zM174 45h211
q178 0 265 78t87 262q0 174 -82 255q-83 81 -252 81h-229v-676z" />
    <glyph glyph-name="C" unicode="C" horiz-adv-x="757" 
d="M506 29q89 0 158 20q16 4 16 -12v-14q0 -15 -14 -19q-66 -20 -160 -20q-231 0 -323 162q-93 164 -93 571q0 406 92 570q91 163 320 163q85 0 151 -20q15 -4 15 -19v-14q0 -18 -17 -13q-72 21 -149 21q-204 0 -283 -153q-80 -154 -80 -535q0 -383 81 -536
q80 -152 286 -152z" />
    <glyph glyph-name="D" unicode="D" horiz-adv-x="888" 
d="M360 0h-221q-12 0 -12 12v1409q0 13 14 13h219q112 0 188 -33t135 -113q58 -79 87 -221q29 -143 29 -350t-29 -350t-87 -222t-135 -112q-76 -33 -188 -33zM360 1389h-186v-1344h186q134 0 214 55q81 56 128 206q48 155 48 411q0 255 -48 410q-47 150 -128 206
q-82 56 -214 56z" />
    <glyph glyph-name="E" unicode="E" horiz-adv-x="716" 
d="M606 713h-432v-668h449q12 0 12 -12v-23q0 -10 -12 -10h-484q-12 0 -12 12v1409q0 13 14 13h477q13 0 13 -13v-20q0 -12 -13 -12h-444v-631h432q12 0 12 -13v-20q0 -12 -12 -12z" />
    <glyph glyph-name="F" unicode="F" horiz-adv-x="688" 
d="M598 713h-424v-701q0 -12 -12 -12h-23q-12 0 -12 12v1409q0 13 12 13h471q13 0 13 -15v-18q0 -12 -13 -12h-436v-631h424q12 0 12 -13v-20q0 -12 -12 -12z" />
    <glyph glyph-name="G" unicode="G" horiz-adv-x="819" 
d="M389 770h307q13 0 13 -12v-719q0 -17 -17 -25q-62 -30 -182 -30q-231 0 -325 163q-95 164 -95 570t94 569q95 164 324 164q92 0 158 -20q14 -4 14 -19v-14q0 -17 -16 -13q-72 21 -156 21q-205 0 -287 -153q-82 -152 -82 -535q0 -381 83 -535q82 -153 288 -153
q86 0 152 24v672h-273q-12 0 -12 12v21q0 12 12 12z" />
    <glyph glyph-name="H" unicode="H" horiz-adv-x="892" 
d="M719 12v701h-545v-701q0 -12 -12 -12h-23q-12 0 -12 12v1409q0 13 12 13h23q12 0 12 -13v-663h545v663q0 13 12 13h23q12 0 12 -13v-1409q0 -12 -12 -12h-23q-12 0 -12 12z" />
    <glyph glyph-name="I" unicode="I" horiz-adv-x="319" 
d="M137 12v1409q0 13 13 13h22q12 0 12 -13v-1409q0 -12 -12 -12h-22q-13 0 -13 12z" />
    <glyph glyph-name="J" unicode="J" horiz-adv-x="544" 
d="M371 285v1136q0 13 12 13h23q12 0 12 -13v-1138q0 -163 -52 -227t-171 -64q-74 0 -127 20q-15 4 -15 19v14q0 17 17 12q54 -20 125 -20q95 0 136 53q40 52 40 195z" />
    <glyph glyph-name="K" unicode="K" horiz-adv-x="757" 
d="M174 764l483 659q6 11 17 11h33q17 0 6 -15l-504 -682l516 -723q10 -14 -6 -14h-33q-10 0 -16 10l-496 699v-697q0 -12 -12 -12h-23q-12 0 -12 12v1409q0 13 12 13h23q12 0 12 -13v-657z" />
    <glyph glyph-name="L" unicode="L" horiz-adv-x="663" 
d="M174 1421v-1376h416q12 0 12 -14v-19q0 -12 -12 -12h-451q-12 0 -12 12v1409q0 13 12 13h23q12 0 12 -13z" />
    <glyph glyph-name="M" unicode="M" horiz-adv-x="1036" 
d="M518 461q-12 0 -18 12l-326 842v-1303q0 -12 -12 -12h-23q-12 0 -12 12v1409q0 13 12 13h25q11 0 16 -11l338 -882l338 882q5 11 16 11h25q12 0 12 -13v-1409q0 -12 -12 -12h-23q-12 0 -12 12v1303l-325 -842q-6 -12 -19 -12z" />
    <glyph glyph-name="N" unicode="N" horiz-adv-x="913" 
d="M786 1419v-1407q0 -12 -12 -12h-20q-13 0 -19 12l-561 1309v-1309q0 -12 -12 -12h-23q-12 0 -12 12v1409q0 13 12 13h21q12 0 18 -13l561 -1308v1308q0 13 13 13h22q12 0 12 -15z" />
    <glyph glyph-name="O" unicode="O" horiz-adv-x="937" 
d="M469 1450q199 0 289 -167t90 -566q0 -400 -90 -566q-90 -167 -287 -167q-198 0 -290 167q-91 166 -91 566q0 399 90 566t289 167zM469 27q174 0 252 156t78 534q0 377 -78 533q-79 157 -252 157t-252 -157q-78 -156 -78 -533q0 -378 78 -534t252 -156z" />
    <glyph glyph-name="P" unicode="P" horiz-adv-x="798" 
d="M174 524h154q200 0 272 90t72 344q0 250 -72 340q-73 91 -272 91h-154v-865zM162 0h-23q-12 0 -12 12v1409q0 13 14 13h185q224 0 310 -103q85 -101 85 -375q0 -273 -85 -374q-86 -103 -308 -103h-154v-467q0 -12 -12 -12z" />
    <glyph glyph-name="Q" unicode="Q" horiz-adv-x="937" 
d="M494 -16q112 -80 258 -80q17 0 29 1t24 1q18 0 18 -17v-12q0 -18 -30 -18q-226 0 -365 127q-177 15 -257 183q-81 169 -81 548q0 399 90 566t289 167q197 0 285 -166q89 -167 90 -567q2 -389 -81 -556q-82 -166 -269 -177zM469 27q174 0 252 156t78 534q0 375 -78 532
q-78 158 -250 158q-175 0 -254 -157q-78 -156 -78 -533q0 -378 78 -534t252 -156z" />
    <glyph glyph-name="R" unicode="R" horiz-adv-x="835" 
d="M174 582h176q188 0 265 86t77 317q0 233 -77 319q-76 85 -279 85h-162v-807zM139 1434h197q227 0 316 -98t89 -351q0 -227 -68 -326q-69 -100 -235 -118l277 -527q6 -14 -8 -14h-27q-10 0 -16 10l-277 527h-213v-525q0 -12 -12 -12h-23q-12 0 -12 12v1409q0 13 12 13z
" />
    <glyph glyph-name="S" unicode="S" horiz-adv-x="679" 
d="M598 315q0 -335 -313 -335q-103 0 -191 22q-14 4 -14 18v15q0 16 16 12q81 -22 189 -22q266 0 266 290q0 77 -17 134q-17 58 -60 111q-39 48 -74 82q-32 31 -95 83q-111 94 -172 183q-59 87 -59 227q0 151 67 233t230 82q86 0 164 -23q14 -4 14 -18v-14q0 -18 -17 -13
q-81 23 -163 23q-137 0 -193 -69q-55 -68 -55 -201q0 -124 53 -206q52 -80 160 -167q57 -46 100 -86q28 -25 79 -88q46 -56 66 -124q19 -64 19 -149z" />
    <glyph glyph-name="T" unicode="T" horiz-adv-x="661" 
d="M49 1401v20q0 13 14 13h537q12 0 12 -13v-20q0 -12 -12 -12h-246v-1377q0 -12 -12 -12h-23q-12 0 -12 12v1377h-246q-12 0 -12 12z" />
    <glyph glyph-name="U" unicode="U" horiz-adv-x="880" 
d="M440 -16q-174 0 -246 96q-73 97 -73 326v1015q0 13 12 13h23q12 0 12 -13v-1011q0 -213 59 -297q60 -86 213 -86t213 86q60 85 60 297v1011q0 13 12 13h23q12 0 12 -13v-1015q0 -229 -73 -326q-72 -96 -247 -96z" />
    <glyph glyph-name="V" unicode="V" horiz-adv-x="843" 
d="M438 0h-32q-12 0 -17 12l-334 1407q-1 15 11 15h22q9 0 14 -13l234 -981l82 -360h8l82 358l233 983q5 13 15 13h22q12 0 10 -15l-333 -1407q-5 -12 -17 -12z" />
    <glyph glyph-name="W" unicode="W" horiz-adv-x="1302" 
d="M641 1434h21q12 0 14 -13l188 -956l70 -381h8l68 381l180 956q2 13 14 13h25q11 0 10 -15l-268 -1407q-5 -12 -17 -12h-32q-13 0 -17 12l-192 989l-60 322h-4l-59 -322l-193 -989q-1 -12 -16 -12h-33q-12 0 -16 12l-269 1407q-1 15 11 15h22q15 0 17 -13l180 -956
l67 -383h9l69 383l189 956q2 13 14 13z" />
    <glyph glyph-name="X" unicode="X" horiz-adv-x="782" 
d="M391 680l-291 -672q-2 -8 -14 -8h-27q-14 0 -8 14l316 721l-299 684q-6 15 8 15h26q13 0 15 -9l274 -637l275 637q2 9 14 9h27q14 0 8 -15l-299 -684l315 -721q6 -14 -8 -14h-27q-12 0 -14 8z" />
    <glyph glyph-name="Y" unicode="Y" horiz-adv-x="829" 
d="M438 569v-557q0 -12 -12 -12h-23q-12 0 -12 12v557l-332 850q-4 15 11 15h22q9 0 14 -11l222 -565l84 -231h6l84 231l221 565q5 11 14 11h23q14 0 10 -15z" />
    <glyph glyph-name="Z" unicode="Z" horiz-adv-x="729" 
d="M74 12v21q0 3 4 14l524 1342h-493q-13 0 -13 12v20q0 13 13 13h534q12 0 12 -13v-18q0 -6 -4 -17l-522 -1341h518q12 0 12 -12v-21q0 -12 -12 -12h-561q-12 0 -12 12z" />
    <glyph glyph-name="bracketleft" unicode="[" horiz-adv-x="454" 
d="M373 -195v-18q0 -12 -13 -12h-184q-12 0 -12 12v1634q0 13 12 13h184q13 0 13 -13v-18q0 -12 -13 -12h-151v-1573h151q13 0 13 -13z" />
    <glyph glyph-name="backslash" unicode="\" horiz-adv-x="528" 
d="M66 1423l444 -1411q2 -12 -10 -12h-23q-13 0 -14 10l-445 1411q-2 13 11 13h22q13 0 15 -11z" />
    <glyph glyph-name="bracketright" unicode="]" horiz-adv-x="454" 
d="M82 -213v18q0 13 12 13h152v1573h-152q-12 0 -12 12v18q0 13 12 13h185q12 0 12 -13v-1634q0 -12 -12 -12h-185q-12 0 -12 12z" />
    <glyph glyph-name="asciicircum" unicode="^" horiz-adv-x="925" 
d="M455 1434h16q9 0 16 -13l308 -686q6 -14 -11 -14h-22q-11 0 -17 12l-282 621l-283 -621q-6 -12 -16 -12h-23q-16 0 -10 14l307 686q6 13 17 13z" />
    <glyph glyph-name="underscore" unicode="_" horiz-adv-x="688" 
d="M635 -150h-582q-12 0 -12 13v18q0 13 12 13h582q12 0 12 -13v-18q0 -13 -12 -13z" />
    <glyph glyph-name="grave" unicode="`" horiz-adv-x="491" 
d="M223 1376l113 -172q7 -12 -6 -12h-15q-8 0 -14 8l-143 174q-16 19 8 19h33q13 0 24 -17z" />
    <glyph glyph-name="a" unicode="a" horiz-adv-x="720" 
d="M610 809v-797q0 -12 -12 -12h-20q-13 0 -13 12v172q-23 -80 -89 -138q-63 -56 -171 -56q-119 0 -179 81t-60 224q0 89 25 151t67 101q38 35 110 57q66 20 135 28q66 8 162 9v162q0 126 -45 183q-44 56 -153 56q-123 0 -228 -43q-14 -4 -14 11v12q0 16 14 20
q104 43 232 43q125 0 182 -67q57 -68 57 -209zM565 365v235q-75 -1 -148 -7q-53 -4 -122 -23q-65 -18 -101 -49t-60 -89q-23 -55 -23 -139q0 -260 198 -260q118 0 187 95t69 237z" />
    <glyph glyph-name="b" unicode="b" horiz-adv-x="778" 
d="M158 535q0 -508 258 -508q241 0 241 508q0 507 -241 507q-258 0 -258 -507zM160 209v-197q0 -12 -13 -12h-20q-12 0 -12 12v1409q0 13 12 13h20q13 0 13 -13v-561q24 102 89 164q64 61 167 61q154 0 221 -139q68 -141 68 -411q0 -271 -68 -412q-67 -139 -221 -139
q-103 0 -167 61q-65 62 -89 164z" />
    <glyph glyph-name="c" unicode="c" horiz-adv-x="591" 
d="M74 535q0 287 67 418q67 132 240 132q77 0 143 -24q15 -5 15 -21v-12q0 -18 -17 -10q-51 22 -139 22q-149 0 -206 -119q-56 -118 -56 -386q0 -269 56 -387q57 -119 208 -119q90 0 141 22q17 8 17 -10v-12q0 -17 -15 -21q-66 -24 -145 -24q-174 0 -242 132
q-67 131 -67 419z" />
    <glyph glyph-name="d" unicode="d" horiz-adv-x="778" 
d="M621 535q0 507 -259 507q-241 0 -241 -507q0 -508 241 -508q259 0 259 508zM618 12v197q-24 -102 -89 -164q-64 -61 -167 -61q-154 0 -221 139q-67 138 -67 412q0 273 67 411q67 139 221 139q103 0 167 -61q65 -62 89 -164v561q0 13 13 13h20q13 0 13 -13v-1409
q0 -12 -13 -12h-20q-13 0 -13 12z" />
    <glyph glyph-name="e" unicode="e" horiz-adv-x="700" 
d="M412 27q103 0 178 28q14 4 14 -10v-12q0 -17 -14 -21q-75 -28 -180 -28q-187 0 -262 130q-74 129 -74 423q0 280 68 413q69 135 225 135q147 0 205 -129q59 -130 59 -376v-58q0 -12 -13 -12h-497q5 -259 67 -371q63 -112 224 -112zM367 1042q-131 0 -188 -119
q-56 -119 -58 -370h463v27q0 228 -47 346q-46 116 -170 116z" />
    <glyph glyph-name="f" unicode="f" horiz-adv-x="466" 
d="M225 1069h193q12 0 12 -12v-19q0 -12 -12 -12h-193v-1014q0 -12 -12 -12h-20q-13 0 -13 12v1014h-123q-12 0 -12 12v19q0 12 12 12h123v94q0 153 40 215q41 64 147 64q36 0 61 -4q14 -1 14 -21v-10q0 -13 -18 -12q-21 4 -53 4q-88 0 -117 -53t-29 -191v-86z" />
    <glyph glyph-name="g" unicode="g" horiz-adv-x="761" 
d="M608 580q0 221 -65 341q-66 121 -191 121q-231 0 -231 -462q0 -463 231 -463q125 0 191 122q65 120 65 341zM651 1057v-955q0 -183 -71 -263q-72 -81 -224 -81q-116 0 -206 45q-15 7 -15 21v12q0 14 15 10q99 -45 202 -45q134 0 195 70q59 68 59 235v193
q-24 -102 -89 -164q-64 -61 -165 -61q-278 0 -278 506q0 505 278 505q101 0 165 -61q65 -62 89 -164v197q0 12 12 12h21q12 0 12 -12z" />
    <glyph glyph-name="h" unicode="h" horiz-adv-x="778" 
d="M668 772v-760q0 -12 -13 -12h-20q-12 0 -12 12v760q0 270 -195 270q-115 0 -191 -91q-77 -92 -77 -238v-699q0 -14 -13 -14h-20q-12 0 -12 12v1409q0 13 12 13h20q13 0 13 -13v-532q28 79 96 138q67 58 172 58q122 0 181 -84q59 -85 59 -229z" />
    <glyph glyph-name="i" unicode="i" horiz-adv-x="299" 
d="M172 1057v-1045q0 -12 -12 -12h-21q-12 0 -12 12v1045q0 12 12 12h21q12 0 12 -12zM176 1393v-146q0 -12 -12 -12h-29q-12 0 -12 12v146q0 12 12 12h29q12 0 12 -12z" />
    <glyph glyph-name="j" unicode="j" horiz-adv-x="311" 
d="M139 -41v1098q0 12 13 12h20q12 0 12 -12v-1100q0 -101 -28 -145q-28 -45 -105 -45q-17 0 -33 2q-14 1 -14 18v14q0 15 14 11q14 -2 35 -2q52 0 69 33t17 116zM188 1393v-146q0 -12 -12 -12h-29q-12 0 -12 12v146q0 12 12 12h29q12 0 12 -12z" />
    <glyph glyph-name="k" unicode="k" horiz-adv-x="643" 
d="M596 0h-21q-19 0 -26 12l-389 563v-563q0 -12 -13 -12h-20q-12 0 -12 12v1409q0 13 12 13h20q13 0 13 -13v-811l377 447q12 12 26 12h21q10 0 12 -6t-4 -12l-389 -457l401 -576q15 -18 -8 -18z" />
    <glyph glyph-name="l" unicode="l" horiz-adv-x="299" 
d="M172 1421v-1409q0 -12 -12 -12h-21q-12 0 -12 12v1409q0 13 12 13h21q12 0 12 -13z" />
    <glyph glyph-name="m" unicode="m" horiz-adv-x="1216" 
d="M631 731v-719q0 -12 -13 -12h-20q-12 0 -12 12v768q0 262 -183 262q-103 0 -175 -93t-72 -232v-705q0 -12 -13 -12h-20q-12 0 -12 12v1045q0 12 12 12h20q13 0 13 -12v-164q22 73 90 133q66 59 157 59q93 0 148 -54q55 -53 67 -150q17 76 92 141q72 63 169 63
q115 0 171 -80t56 -225v-768q0 -12 -12 -12h-21q-12 0 -12 12v768q0 262 -182 262q-105 0 -177 -88q-71 -87 -71 -223z" />
    <glyph glyph-name="n" unicode="n" horiz-adv-x="774" 
d="M664 772v-760q0 -12 -13 -12h-20q-13 0 -13 12v760q0 270 -194 270q-116 0 -193 -95q-75 -93 -75 -236v-699q0 -12 -13 -12h-20q-12 0 -12 12v1045q0 12 12 12h20q13 0 13 -12v-172q23 73 94 138q68 62 174 62q122 0 181 -84q59 -85 59 -229z" />
    <glyph glyph-name="o" unicode="o" horiz-adv-x="753" 
d="M377 -16q-165 0 -234 135t-69 416q0 280 69 415t234 135q164 0 233 -135q70 -137 70 -415q0 -279 -70 -416q-69 -135 -233 -135zM377 27q136 0 196 124q60 125 60 384t-60 384q-59 123 -196 123q-138 0 -197 -123q-59 -122 -59 -384t59 -384q60 -124 197 -124z" />
    <glyph glyph-name="p" unicode="p" horiz-adv-x="774" 
d="M154 535q0 -508 258 -508q241 0 241 508q0 507 -241 507q-258 0 -258 -507zM156 1057v-197q24 102 89 164q64 61 167 61q154 0 221 -139q67 -138 67 -411q0 -274 -67 -412q-67 -139 -221 -139q-103 0 -167 61q-65 62 -89 164v-422q0 -12 -13 -12h-20q-12 0 -12 12v1270
q0 12 12 12h20q13 0 13 -12z" />
    <glyph glyph-name="q" unicode="q" horiz-adv-x="774" 
d="M621 535q0 507 -259 507q-241 0 -241 -507q0 -508 241 -508q259 0 259 508zM618 860v197q0 12 13 12h20q13 0 13 -12v-1270q0 -12 -13 -12h-20q-13 0 -13 12v426q-24 -103 -90 -166t-166 -63q-154 0 -221 139q-67 138 -67 412q0 273 67 411q67 139 221 139q103 0 167 -61
q65 -62 89 -164z" />
    <glyph glyph-name="r" unicode="r" horiz-adv-x="466" 
d="M123 1069h20q13 0 13 -12v-189q17 89 85 153t162 64q27 0 27 -18v-14q0 -17 -14 -17q-8 0 -16 1t-15 1q-91 0 -160 -97t-69 -249v-680q0 -12 -13 -12h-20q-12 0 -12 12v1045q0 12 12 12z" />
    <glyph glyph-name="s" unicode="s" horiz-adv-x="610" 
d="M549 270q0 -134 -69 -211q-68 -75 -206 -75q-116 0 -198 30q-15 4 -15 21v12q0 15 17 10q92 -30 196 -30q230 0 230 243q0 30 -5 60q-4 23 -19 50q-18 31 -23 39q-11 16 -37 36l-40 30q-15 11 -50 34q-28 18 -51 34q-64 44 -109 80q-37 29 -68 84q-30 53 -30 119
q0 249 264 249q74 0 153 -20q15 -5 15 -18v-13q0 -17 -17 -12q-69 20 -151 20q-219 0 -219 -206q0 -56 24 -99q21 -38 54 -66q26 -22 92 -69q11 -7 20 -14q4 -3 12.5 -8.5t23.5 -15.5t26 -18q47 -32 61 -43q18 -15 46 -41q32 -30 42 -52t21 -60q10 -36 10 -80z" />
    <glyph glyph-name="t" unicode="t" horiz-adv-x="491" 
d="M410 1026h-193v-782q0 -123 29 -167t102 -44q34 0 64 6q14 4 14 -10v-13q0 -19 -14 -20q-27 -6 -66 -6q-92 0 -133 53t-41 197v786h-119q-12 0 -12 12v19q0 12 12 12h119v266q0 13 12 13h21q12 0 12 -13v-266h193q12 0 12 -12v-19q0 -12 -12 -12z" />
    <glyph glyph-name="u" unicode="u" horiz-adv-x="765" 
d="M111 313v744q0 12 12 12h20q13 0 13 -12v-744q0 -286 206 -286q116 0 182 97t66 241v692q0 12 13 12h20q12 0 12 -12v-1045q0 -12 -12 -12h-20q-13 0 -13 12v172q-18 -76 -82 -139q-62 -61 -168 -61q-124 0 -187 87q-62 86 -62 242z" />
    <glyph glyph-name="v" unicode="v" horiz-adv-x="663" 
d="M342 0h-20q-16 0 -17 12l-258 1043q-1 14 10 14h23q14 0 16 -12l183 -750l51 -221h4l51 221l182 750q1 12 17 12h22q11 0 10 -14l-258 -1043q-2 -12 -16 -12z" />
    <glyph glyph-name="w" unicode="w" horiz-adv-x="1040" 
d="M508 1069h24q14 0 15 -10l147 -740l41 -239h4l43 239l148 738q4 12 16 12h21q11 0 10 -14l-213 -1043q-2 -12 -16 -12h-21q-15 0 -16 12l-146 719l-43 250h-4l-43 -250l-149 -719q-2 -12 -17 -12h-20q-15 0 -17 12l-209 1043q-1 14 11 14h20q12 0 17 -12l143 -738
l43 -239h4l41 239l152 740q1 10 14 10z" />
    <glyph glyph-name="x" unicode="x" horiz-adv-x="684" 
d="M109 1061l233 -473l233 473q5 8 15 8h22q16 0 9 -16l-254 -510l262 -527q7 -16 -8 -16h-23q-9 0 -14 8l-242 490l-242 -490q-5 -8 -14 -8h-23q-15 0 -8 16l262 527l-254 510q-7 16 9 16h22q10 0 15 -8z" />
    <glyph glyph-name="y" unicode="y" horiz-adv-x="679" 
d="M629 1055l-252 -1037q-33 -137 -76 -196q-43 -60 -137 -60q-42 0 -86 13q-15 5 -15 20v12q0 16 17 11q50 -13 86 -13q86 0 125 87t22 151l-258 1012q-1 14 11 14h22q14 0 16 -12l191 -750l49 -217h4l49 217l183 750q2 12 16 12h22q12 0 11 -14z" />
    <glyph glyph-name="z" unicode="z" horiz-adv-x="671" 
d="M578 1057v-15q0 -8 -5 -16l-442 -983h451q12 0 12 -12v-19q0 -12 -12 -12h-492q-12 0 -12 12v13q0 9 4 16l442 985h-422q-12 0 -12 12v19q0 12 12 12h463q13 0 13 -12z" />
    <glyph glyph-name="braceleft" unicode="{" horiz-adv-x="454" 
d="M74 594v20q0 13 12 13h18q54 0 73 100q20 103 20 352q0 198 26 275q27 80 123 80h47q13 0 13 -13v-18q0 -12 -13 -12h-47q-63 0 -84 -70q-20 -66 -20 -242q0 -263 -21 -361t-78 -114q57 -16 78 -114t21 -361q0 -176 20 -242q21 -69 84 -69h47q13 0 13 -13v-18
q0 -12 -13 -12h-47q-96 0 -123 80q-26 77 -26 274q0 249 -20 352q-20 101 -73 101h-18q-12 0 -12 12z" />
    <glyph glyph-name="bar" unicode="|" horiz-adv-x="454" 
d="M250 1462v-1675q0 -12 -12 -12h-21q-12 0 -12 12v1675q0 13 12 13h21q12 0 12 -13z" />
    <glyph glyph-name="braceright" unicode="}" horiz-adv-x="454" 
d="M381 614v-20q0 -12 -12 -12h-19q-52 0 -72 -101q-20 -103 -20 -352q0 -195 -27 -274q-27 -80 -122 -80h-48q-12 0 -12 12v18q0 13 12 13h48q63 0 84 69q20 66 20 242q0 268 20 361q21 98 78 114q-57 16 -78 114q-20 93 -20 361q0 176 -20 242q-21 70 -84 70h-48
q-12 0 -12 12v18q0 13 12 13h48q95 0 122 -80t27 -275q0 -249 20 -352q19 -100 72 -100h19q12 0 12 -13z" />
    <glyph glyph-name="asciitilde" unicode="~" horiz-adv-x="925" 
d="M264 827q54 0 160 -45l98 -41q100 -41 144 -41q61 0 94 56q14 25 22 51q4 13 19 6l16 -8q8 -7 4 -17q-43 -143 -155 -143q-58 0 -164 45l-109 45q-83 37 -133 37q-61 0 -94 -55q-16 -29 -23 -51q-4 -14 -18 -7l-16 9q-9 7 -5 16q43 143 160 143z" />
    <glyph glyph-name="uni00A0" unicode="&#xa0;" horiz-adv-x="0" 
 />
    <glyph glyph-name="exclamdown" unicode="&#xa1;" horiz-adv-x="364" 
d="M221 1057v-113q0 -12 -12 -12h-53q-13 0 -13 12v113q0 12 13 12h53q12 0 12 -12zM174 705h16q13 0 13 -13l6 -905q0 -12 -12 -12h-29q-12 0 -12 12l6 905q0 13 12 13z" />
    <glyph glyph-name="cent" unicode="&#xa2;" horiz-adv-x="630" 
d="M78 535q0 274 65 404q66 132 228 144v158q0 12 12 12h23q12 0 12 -12v-156q63 -1 137 -26q14 -4 14 -21v-12q0 -17 -16 -10q-57 24 -147 24q-159 0 -220 -120q-61 -121 -61 -385q0 -268 61 -387t222 -119q92 0 149 24q16 7 16 -10v-12q0 -17 -14 -21q-74 -25 -141 -26
v-156q0 -12 -12 -12h-23q-12 0 -12 12v158q-165 11 -229 143t-64 406z" />
    <glyph glyph-name="sterling" unicode="&#xa3;" horiz-adv-x="884" 
d="M236 713h-144q-12 0 -12 12v18q0 13 12 13h129q-72 231 -72 366q0 153 80 241q79 87 242 87q153 0 225 -82t72 -219q0 -74 -16 -74h-23q-12 0 -12 12q2 28 2 62q0 256 -246 256q-274 0 -274 -283q0 -134 71 -366h260q13 0 13 -13v-18q0 -12 -13 -12h-245q55 -184 55 -287
q0 -108 -44 -205q-43 -96 -130 -158q84 35 131 35q66 0 161 -32q98 -33 154 -33q46 0 75 23t44 69q14 43 19 87q4 37 4 101q0 13 12 13h25q12 0 12 -13q0 -65 -6 -114t-24 -102t-58 -81t-103 -28q-68 0 -157 32q-91 33 -166 33q-101 0 -187 -53q-10 -6 -16 4l-12 21
q-7 10 4 16q213 141 213 389q0 102 -55 283z" />
    <glyph glyph-name="currency" unicode="&#xa4;" horiz-adv-x="942" 
d="M84 225l113 115q-37 93 -37 240q0 146 37 239l-113 115q-8 10 0 18l14 15q8 8 19 0l102 -103q80 146 252 146t252 -146l102 103q11 8 19 0l14 -15q8 -8 0 -18l-113 -115q37 -93 37 -239q0 -147 -37 -240l113 -115q8 -11 0 -18l-14 -14q-8 -8 -19 0l-102 102
q-79 -145 -252 -145t-252 145l-102 -102q-11 -8 -19 0l-14 14q-8 7 0 18zM739 580q0 193 -69 292t-199 99q-127 0 -198 -99q-70 -98 -70 -292t69 -293t199 -99t199 99t69 293z" />
    <glyph glyph-name="yen" unicode="&#xa5;" horiz-adv-x="876" 
d="M461 430v-418q0 -12 -12 -12h-21q-12 0 -12 12v418h-303q-13 0 -13 12v19q0 12 13 12h303v55l-74 185h-229q-13 0 -13 12v18q0 13 13 13h211l-265 663q-4 15 11 15h22q9 0 14 -11l330 -833h4l330 833q5 11 14 11h23q15 0 10 -15l-266 -663h213q12 0 12 -13v-18
q0 -12 -12 -12h-229l-74 -185v-55h303q12 0 12 -12v-19q0 -12 -12 -12h-303z" />
    <glyph glyph-name="brokenbar" unicode="&#xa6;" horiz-adv-x="454" 
d="M250 1462v-651q0 -12 -12 -12h-21q-12 0 -12 12v651q0 13 12 13h21q12 0 12 -13zM250 438v-651q0 -12 -12 -12h-21q-12 0 -12 12v651q0 13 12 13h21q12 0 12 -13z" />
    <glyph glyph-name="section" unicode="&#xa7;" horiz-adv-x="942" 
d="M160 643q0 105 65 179t176 89q-89 61 -139 126q-49 64 -49 157q0 124 68 190q67 66 223 66q130 0 215 -31q14 -4 14 -20v-12q0 -15 -16 -11q-95 31 -213 31q-135 0 -191 -53q-55 -52 -55 -160q0 -63 38 -119q38 -57 78 -86q48 -36 118 -80l6 -3q1 -1 5 -3l6 -4q2 -1 5 -4
q48 -31 99 -67q41 -29 80 -68q44 -44 65 -90q20 -44 20 -103q0 -100 -62 -172q-63 -74 -169 -90q188 -124 188 -280q0 -120 -73 -189q-74 -69 -232 -69q-138 0 -221 30q-14 4 -14 21v12q0 14 16 10q91 -30 219 -30q260 0 260 215q0 52 -19 94q-19 43 -68 84q-46 39 -77 60
q-32 22 -100 63q-91 56 -133 87q-49 36 -90 96q-43 62 -43 134zM455 879q-109 0 -180 -71q-70 -70 -70 -169q0 -25 8 -51q6 -18 16 -43q7 -17 31 -41q27 -27 36 -35q17 -15 47 -36q42 -29 47 -32q4 -2 11 -6.5t20 -12t23 -13.5l52 -31q105 5 171 73q66 69 66 160
q0 47 -18 87q-17 37 -64 80q-45 40 -72 60q-2 1 -96 62q-4 3 -14 10t-14 9z" />
    <glyph glyph-name="dieresis" unicode="&#xa8;" horiz-adv-x="491" 
d="M154 1288v-84q0 -12 -13 -12h-28q-13 0 -13 12v84q0 12 13 12h28q13 0 13 -12zM391 1288v-84q0 -12 -12 -12h-29q-12 0 -12 12v84q0 12 12 12h29q12 0 12 -12z" />
    <glyph glyph-name="copyright" unicode="&#xa9;" horiz-adv-x="1347" 
d="M717 334q78 0 119 14q12 4 12 -8v-16q0 -16 -10 -17q-51 -16 -123 -16q-144 0 -204 100t-60 326q0 225 60 325q60 101 202 101q67 0 121 -17q12 -2 12 -16v-16q0 -14 -15 -9q-39 15 -116 15q-121 0 -169 -87t-48 -296t48 -296t171 -87zM166 717q0 -148 25 -264
q26 -122 82 -219q57 -100 158 -153q102 -54 243 -54q140 0 242 54q101 53 158 153q56 97 82 219q26 121 26 264t-26 264t-82 218q-58 101 -158 154q-102 54 -242 54q-141 0 -243 -54q-100 -53 -158 -154q-56 -97 -82 -218q-25 -116 -25 -264zM119 717q0 129 17 228
q18 104 59 200t103 161q63 66 159 105t217 39t217 -39t159 -105q62 -65 103 -161q40 -92 58 -200q18 -105 18 -228q0 -124 -18 -229q-18 -106 -58 -199q-41 -96 -103 -161q-63 -66 -159 -105t-217 -39t-217 39t-159 105q-62 65 -103 161q-41 97 -59 199q-17 99 -17 229z" />
    <glyph glyph-name="ordfeminine" unicode="&#xaa;" horiz-adv-x="614" 
d="M477 1296v187q-75 -2 -121 -6q-44 -4 -99 -20q-50 -14 -82 -40q-29 -23 -49 -69t-20 -111q0 -205 164 -205q94 0 151 75q56 74 56 189zM477 1012v137q-57 -158 -211 -158q-96 0 -148 66q-52 65 -52 180q0 89 29 146q30 59 91 87q62 29 127 39q73 12 164 13v129
q0 101 -39 144q-39 44 -127 44q-93 0 -186 -35q-12 -6 -12 8v17q0 13 12 18q83 33 190 33q205 0 205 -223v-645q0 -13 -12 -13h-19q-12 0 -12 13z" />
    <glyph glyph-name="guillemotleft" unicode="&#xab;" horiz-adv-x="524" 
d="M74 530q0 3 2 9l108 268q4 10 13 10h26q13 0 8 -12l-110 -275l110 -274q5 -12 -8 -12h-26q-9 0 -13 10l-108 268q-2 6 -2 8zM274 530q0 3 2 9l109 268q4 10 12 10h27q12 0 8 -12l-110 -277l110 -272q4 -12 -8 -12h-27q-8 0 -12 10l-109 268z" />
    <glyph glyph-name="logicalnot" unicode="&#xac;" horiz-adv-x="925" 
d="M766 745v-362q0 -12 -12 -12h-21q-12 0 -12 12v330h-594q-12 0 -12 12v20q0 13 12 13h627q12 0 12 -13z" />
    <glyph glyph-name="uni00AD" unicode="&#xad;" horiz-adv-x="544" 
d="M451 528h-357q-12 0 -12 13v18q0 12 12 12h357q12 0 12 -12v-18q0 -13 -12 -13z" />
    <glyph glyph-name="registered" unicode="&#xae;" horiz-adv-x="774" 
d="M330 1081h55q52 0 70 20q18 19 18 70q0 50 -18 68t-74 18h-51v-176zM387 1450q142 0 227 -104q86 -106 86 -254t-86 -254q-86 -105 -227 -105t-227 105q-86 106 -86 254t86 254q85 104 227 104zM387 774q125 0 199 92q73 91 73 226q0 134 -73 225q-74 92 -199 92
t-199 -92q-73 -91 -73 -225q0 -135 73 -226q74 -92 199 -92zM287 905v383q0 10 10 10h84q75 0 105 -29q32 -30 32 -98q0 -117 -94 -129l80 -133q7 -14 -8 -14h-21q-8 0 -14 10l-80 135h-51v-135q0 -10 -11 -10h-22q-10 0 -10 10z" />
    <glyph glyph-name="macron" unicode="&#xaf;" horiz-adv-x="491" 
d="M406 1208h-320q-12 0 -12 13v14q0 12 12 12h320q12 0 12 -12v-14q0 -13 -12 -13z" />
    <glyph glyph-name="degree" unicode="&#xb0;" horiz-adv-x="569" 
d="M285 1008q78 0 124 56t46 148q0 93 -46 149t-124 56t-124 -56t-46 -149q0 -92 46 -148t124 -56zM285 967q-102 0 -158 68q-57 69 -57 177q0 109 57 178q56 68 158 68q101 0 157 -68q58 -70 58 -178q0 -107 -58 -177q-56 -68 -157 -68z" />
    <glyph glyph-name="plusminus" unicode="&#xb1;" horiz-adv-x="925" 
d="M823 713h-338v-412q0 -12 -12 -12h-20q-13 0 -13 12v412h-338q-12 0 -12 12v20q0 13 12 13h338v411q0 13 13 13h20q12 0 12 -13v-411h338q13 0 13 -13v-20q0 -12 -13 -12zM823 0h-721q-12 0 -12 12v21q0 12 12 12h721q13 0 13 -12v-21q0 -12 -13 -12z" />
    <glyph glyph-name="two.superior" unicode="&#xb2;" 
d="M111 1696q0 -20 4 -41q5 -13 -11 -13h-18q-12 0 -14 13q-4 15 -4 41q0 90 48 145t148 55q195 0 195 -219q0 -39 -7 -74q-7 -32 -17 -71q-9 -34 -30 -74l-18 -36l-15 -30q-15 -28 -42 -68q-29 -43 -43 -61q-37 -48 -48 -61q-10 -11 -19.5 -23t-15.5 -19t-9 -10
q-2 -3 -17 -19t-28 -31q-36 -41 -37 -43h346q12 0 12 -13v-16q0 -12 -12 -12h-385q-13 0 -13 12v16q0 12 7 19q61 69 108 125q43 52 106 140q65 92 100 181q34 87 34 168q0 183 -152 183q-153 0 -153 -164z" />
    <glyph glyph-name="three.superior" unicode="&#xb3;" 
d="M248 1452h-55q-13 0 -13 12v15q0 12 13 12h53q69 0 111 47q42 46 42 143q0 96 -43 136q-44 41 -137 41q-57 0 -123 -21q-12 -5 -12 8v19q0 7 8 12q49 20 127 20q117 0 170 -51t53 -164q0 -91 -33 -141q-34 -52 -83 -67q55 -6 96 -64t41 -156q0 -249 -254 -249
q-85 0 -135 20q-8 5 -8 12v17q0 13 12 8q54 -19 131 -19q107 0 160 51q51 49 51 160q0 199 -172 199z" />
    <glyph glyph-name="acute" unicode="&#xb4;" horiz-adv-x="491" 
d="M156 1204l112 172q11 17 25 17h33q24 0 8 -19l-144 -174q-6 -8 -14 -8h-14q-14 0 -6 12z" />
    <glyph glyph-name="mu" unicode="&#xb5;" horiz-adv-x="765" 
d="M655 1057v-744q0 -156 -62 -242q-63 -87 -187 -87q-106 0 -168 61q-64 63 -82 139v-397q0 -12 -13 -12h-20q-12 0 -12 12v1270q0 12 12 12h20q13 0 13 -12v-692q0 -144 66 -241t181 -97q207 0 207 286v744q0 12 13 12h20q12 0 12 -12z" />
    <glyph glyph-name="paragraph" unicode="&#xb6;" horiz-adv-x="770" 
d="M700 1391h-63q-61 0 -84 -29t-23 -100v-1289q0 -118 -36 -161q-38 -45 -138 -45q-30 0 -67 6q-15 1 -15 18v14q0 15 15 11q38 -6 69 -6q74 0 101 34q26 33 26 131v691h-45q-164 0 -257 97t-93 286q0 193 91 288q92 97 257 97h262q13 0 13 -13v-18q0 -12 -13 -12z" />
    <glyph glyph-name="periodcentered" unicode="&#xb7;" horiz-adv-x="299" 
d="M111 477v113q0 12 12 12h53q12 0 12 -12v-113q0 -12 -12 -12h-53q-12 0 -12 12z" />
    <glyph glyph-name="cedilla" unicode="&#xb8;" horiz-adv-x="491" 
d="M184 18h43q138 -80 138 -190q0 -102 -117 -102q-30 0 -47 6q-11 6 -11 16v12q0 13 13 13h39q75 0 75 61q0 99 -133 184z" />
    <glyph glyph-name="one.superior" unicode="&#xb9;" 
d="M301 1819l-174 -172q-8 -8 -16 0l-15 12q-10 10 0 16l205 203q6 6 14 6h17q12 0 12 -12v-844q0 -12 -12 -12h-19q-12 0 -12 12v791z" />
    <glyph glyph-name="ordmasculine" unicode="&#xba;" horiz-adv-x="630" 
d="M317 1841q-112 0 -160 -100q-48 -101 -48 -307q0 -208 48 -308t158 -100q111 0 159 100t48 308q0 206 -48 307q-48 100 -157 100zM315 987q-129 0 -190 112q-59 109 -59 335q0 225 59 334q61 112 190 112q130 0 191 -112q59 -109 59 -334q0 -226 -59 -335
q-61 -112 -191 -112z" />
    <glyph glyph-name="guillemotright" unicode="&#xbb;" horiz-adv-x="524" 
d="M451 530q0 -2 -2 -8l-109 -268q-4 -10 -12 -10h-27q-13 0 -8 12l110 274l-110 275q-5 12 8 12h27q8 0 12 -10l109 -268q2 -6 2 -9zM250 530q0 -2 -2 -8l-109 -268q-4 -10 -12 -10h-27q-12 0 -8 12l111 274l-111 275q-5 12 8 12h27q8 0 12 -10l109 -268q2 -6 2 -9z" />
    <glyph glyph-name="onequarter" unicode="&#xbc;" horiz-adv-x="1331" 
d="M301 1368l-174 -172q-8 -8 -16 0l-15 12q-11 11 0 17l205 202q7 7 14 7h17q12 0 12 -13v-843q0 -13 -12 -13h-19q-12 0 -12 13v790zM1071 1417l-680 -1405q-6 -12 -18 -12h-23q-15 0 -8 16l680 1405q6 13 18 13h23q16 0 8 -17zM1169 791l-305 -535h305v535zM1307 215h-95
v-203q0 -12 -12 -12h-18q-13 0 -13 12v203h-342q-12 0 -12 12v19q0 9 8 22l340 590q6 10 17 10h20q12 0 12 -12v-600h95q12 0 12 -12v-17q0 -12 -12 -12z" />
    <glyph glyph-name="onehalf" unicode="&#xbd;" horiz-adv-x="1331" 
d="M301 1368l-174 -172q-8 -8 -16 0l-15 12q-11 11 0 17l205 202q7 7 14 7h17q12 0 12 -13v-843q0 -13 -12 -13h-19q-12 0 -12 13v790zM889 680q0 164 153 164q152 0 152 -182q0 -81 -34 -168q-36 -91 -100 -182q-63 -89 -106 -140q-47 -56 -108 -125q-6 -6 -6 -18v-17
q0 -12 12 -12h385q12 0 12 12v17q0 12 -12 12h-346q1 2 37 43q13 15 28 31t17 19q3 3 9 10t15.5 19t19.5 23q11 13 48 61q14 18 43 61q27 40 42 68q5 9 16.5 31.5t17.5 34.5q19 36 29 74q11 39 17 71q7 35 7 75q0 219 -195 219q-100 0 -148 -56q-48 -55 -48 -145
q0 -26 4 -41q2 -12 14 -12h19q14 0 10 12q-4 21 -4 41zM989 1417l-680 -1405q-6 -12 -18 -12h-23q-15 0 -8 16l680 1405q6 13 18 13h23q16 0 8 -17z" />
    <glyph glyph-name="threequarters" unicode="&#xbe;" horiz-adv-x="1331" 
d="M248 1001h-55q-13 0 -13 13v14q0 12 13 12h53q69 0 111 47t42 144q0 95 -43 135q-44 41 -137 41q-57 0 -123 -21q-12 -4 -12 9v18q0 7 8 12q51 21 127 21q117 0 170 -51t53 -164q0 -91 -33 -141q-35 -54 -83 -68q55 -6 96 -64t41 -155q0 -250 -254 -250q-85 0 -135 20
q-8 5 -8 13v16q0 12 12 8q51 -18 131 -18q108 0 160 50q51 50 51 161q0 198 -172 198zM1092 1417l-680 -1405q-6 -12 -19 -12h-22q-16 0 -9 16l680 1405q6 13 19 13h22q17 0 9 -17zM1169 791l-305 -535h305v535zM1307 215h-95v-203q0 -12 -12 -12h-18q-13 0 -13 12v203h-342
q-12 0 -12 12v19q0 9 8 22l340 590q6 10 17 10h20q12 0 12 -12v-600h95q12 0 12 -12v-17q0 -12 -12 -12z" />
    <glyph glyph-name="questiondown" unicode="&#xbf;" horiz-adv-x="655" 
d="M393 1057v-113q0 -12 -12 -12h-53q-13 0 -13 12v113q0 12 13 12h53q12 0 12 -12zM330 692v-37q0 -100 -36 -190t-80 -146t-80 -128t-36 -144q0 -285 273 -285q101 0 192 31q15 5 15 19v12q0 19 -17 14q-95 -31 -190 -31q-224 0 -224 240q0 54 24 107q27 59 57 102
q38 55 69 103q33 52 58 131q24 76 24 165v37q0 13 -12 13h-25q-12 0 -12 -13z" />
    <glyph glyph-name="Agrave" unicode="&#xc0;" horiz-adv-x="876" 
d="M225 504h426l-211 848h-4zM424 1434h29q14 0 16 -13l352 -1407q1 -14 -10 -14h-23q-10 0 -14 12l-112 447h-447l-113 -447q-4 -12 -14 -12h-22q-12 0 -11 14l353 1407q2 13 16 13zM336 1706l108 -162q8 -12 -6 -12h-14q-8 0 -14 8l-140 164q-15 18 9 18h32q15 0 25 -16z
" />
    <glyph glyph-name="Aacute" unicode="&#xc1;" horiz-adv-x="876" 
d="M225 504h426l-211 848h-4zM424 1434h29q14 0 16 -13l352 -1407q1 -14 -10 -14h-23q-10 0 -14 12l-112 447h-447l-113 -447q-4 -12 -14 -12h-22q-12 0 -11 14l353 1407q2 13 16 13zM432 1544l109 162q10 16 24 16h33q23 0 8 -18l-139 -164q-6 -8 -14 -8h-15q-14 0 -6 12z
" />
    <glyph glyph-name="Acircumflex" unicode="&#xc2;" horiz-adv-x="876" 
d="M225 504h426l-211 848h-4zM424 1434h29q14 0 16 -13l352 -1407q1 -14 -10 -14h-23q-10 0 -14 12l-112 447h-447l-113 -447q-4 -12 -14 -12h-22q-12 0 -11 14l353 1407q2 13 16 13zM575 1540l-137 146l-137 -146q-8 -8 -14 -8h-15q-15 0 -8 12l137 170q11 15 25 15h25
q13 0 24 -15l137 -170q7 -12 -8 -12h-14q-7 0 -15 8z" />
    <glyph glyph-name="Atilde" unicode="&#xc3;" horiz-adv-x="876" 
d="M225 504h426l-211 848h-4zM424 1434h29q14 0 16 -13l352 -1407q1 -14 -10 -14h-23q-10 0 -14 12l-112 447h-447l-113 -447q-4 -12 -14 -12h-22q-12 0 -11 14l353 1407q2 13 16 13zM641 1640q0 -50 -29 -82t-71 -32q-44 0 -90 37l-60 43q-52 31 -80 13q-29 -18 -35 -56
l-2 -17q-1 -14 -14 -14h-10q-14 0 -14 14q0 51 28 85t72 34t90 -37l49 -37q32 -26 64 -26q25 0 41 16q15 15 20 43l2 16q2 15 14 15h11q14 0 14 -15z" />
    <glyph glyph-name="Adieresis" unicode="&#xc4;" horiz-adv-x="876" 
d="M225 504h426l-211 848h-4zM424 1434h29q14 0 16 -13l352 -1407q1 -14 -10 -14h-23q-10 0 -14 12l-112 447h-447l-113 -447q-4 -12 -14 -12h-22q-12 0 -11 14l353 1407q2 13 16 13zM346 1628v-84q0 -12 -12 -12h-29q-12 0 -12 12v84q0 12 12 12h29q12 0 12 -12zM584 1628
v-84q0 -12 -13 -12h-28q-13 0 -13 12v84q0 12 13 12h28q13 0 13 -12z" />
    <glyph glyph-name="Aring" unicode="&#xc5;" horiz-adv-x="876" 
d="M285 1544q0 68 41 109t112 41q72 0 113 -41t41 -109q0 -58 -31 -98q-29 -38 -86 -49l346 -1383q1 -14 -10 -14h-23q-10 0 -14 12l-112 447h-447l-113 -447q-4 -12 -14 -12h-22q-12 0 -11 14l346 1383q-116 22 -116 147zM225 504h426l-211 848h-4zM326 1544q0 -52 29 -81
t83 -29t83 29q30 30 30 81t-30 81t-83 30t-83 -30q-29 -29 -29 -81z" />
    <glyph glyph-name="AE" unicode="&#xc6;" horiz-adv-x="1105" 
d="M995 713h-395v-668h412q12 0 12 -12v-21q0 -12 -12 -12h-447q-12 0 -12 12v441h-346l-125 -441q-4 -12 -14 -12h-23q-11 0 -10 14l399 1407q5 13 17 13h557q12 0 12 -13v-20q0 -12 -12 -12h-408v-631h395q13 0 13 -13v-20q0 -12 -13 -12zM219 498h334v891h-82z" />
    <glyph glyph-name="Ccedilla" unicode="&#xc7;" horiz-adv-x="757" 
d="M506 29q89 0 158 20q16 4 16 -12v-14q0 -15 -14 -19q-66 -20 -160 -20q-23 0 -39 2q94 -73 94 -162q0 -107 -125 -107q-36 0 -55 7q-10 6 -10 16v12q0 12 12 12h47q84 0 84 66q0 84 -100 162q-174 27 -249 193t-75 532q0 406 92 570q91 163 320 163q85 0 151 -20
q15 -4 15 -19v-14q0 -18 -17 -13q-72 21 -149 21q-204 0 -283 -153q-80 -154 -80 -535q0 -383 81 -536q80 -152 286 -152z" />
    <glyph glyph-name="Egrave" unicode="&#xc8;" horiz-adv-x="716" 
d="M606 713h-432v-668h449q12 0 12 -12v-23q0 -10 -12 -10h-484q-12 0 -12 12v1409q0 13 14 13h477q13 0 13 -13v-20q0 -12 -13 -12h-444v-631h432q12 0 12 -13v-20q0 -12 -12 -12zM317 1706l109 -162q7 -12 -6 -12h-14q-9 0 -15 8l-139 164q-15 18 8 18h33q14 0 24 -16z
" />
    <glyph glyph-name="Eacute" unicode="&#xc9;" horiz-adv-x="716" 
d="M606 713h-432v-668h449q12 0 12 -12v-23q0 -10 -12 -10h-484q-12 0 -12 12v1409q0 13 14 13h477q13 0 13 -13v-20q0 -12 -13 -12h-444v-631h432q12 0 12 -13v-20q0 -12 -12 -12zM352 1544l109 162q10 16 24 16h33q23 0 8 -18l-139 -164q-6 -8 -14 -8h-15q-14 0 -6 12z
" />
    <glyph glyph-name="Ecircumflex" unicode="&#xca;" horiz-adv-x="716" 
d="M606 713h-432v-668h449q12 0 12 -12v-23q0 -10 -12 -10h-484q-12 0 -12 12v1409q0 13 14 13h477q13 0 13 -13v-20q0 -12 -13 -12h-444v-631h432q12 0 12 -13v-20q0 -12 -12 -12zM537 1540l-138 146l-137 -146q-8 -8 -14 -8h-15q-15 0 -8 12l137 170q10 15 25 15h25
q14 0 24 -15l137 -170q8 -12 -8 -12h-14q-6 0 -14 8z" />
    <glyph glyph-name="Edieresis" unicode="&#xcb;" horiz-adv-x="716" 
d="M606 713h-432v-668h449q12 0 12 -12v-23q0 -10 -12 -10h-484q-12 0 -12 12v1409q0 13 14 13h477q13 0 13 -13v-20q0 -12 -13 -12h-444v-631h432q12 0 12 -13v-20q0 -12 -12 -12zM307 1628v-84q0 -12 -12 -12h-29q-12 0 -12 12v84q0 12 12 12h29q12 0 12 -12zM545 1628
v-84q0 -12 -13 -12h-28q-12 0 -12 12v84q0 12 12 12h28q13 0 13 -12z" />
    <glyph glyph-name="Igrave" unicode="&#xcc;" horiz-adv-x="319" 
d="M137 12v1409q0 13 13 13h22q12 0 12 -13v-1409q0 -12 -12 -12h-22q-13 0 -13 12zM61 1706l109 -162q8 -12 -6 -12h-14q-9 0 -15 8l-139 164q-15 18 8 18h33q14 0 24 -16z" />
    <glyph glyph-name="Iacute" unicode="&#xcd;" horiz-adv-x="319" 
d="M137 12v1409q0 13 13 13h22q12 0 12 -13v-1409q0 -12 -12 -12h-22q-13 0 -13 12zM150 1544l108 162q10 16 25 16h32q24 0 9 -18l-140 -164q-6 -8 -14 -8h-14q-14 0 -6 12z" />
    <glyph glyph-name="Icircumflex" unicode="&#xce;" horiz-adv-x="319" 
d="M137 12v1409q0 13 13 13h22q12 0 12 -13v-1409q0 -12 -12 -12h-22q-13 0 -13 12zM297 1540l-137 146l-137 -146q-8 -8 -15 -8h-14q-16 0 -8 12l137 170q11 15 24 15h25q14 0 25 -15l137 -170q8 -12 -8 -12h-15q-6 0 -14 8z" />
    <glyph glyph-name="Idieresis" unicode="&#xcf;" horiz-adv-x="319" 
d="M137 12v1409q0 13 13 13h22q12 0 12 -13v-1409q0 -12 -12 -12h-22q-13 0 -13 12zM68 1628v-84q0 -12 -13 -12h-28q-13 0 -13 12v84q0 12 13 12h28q13 0 13 -12zM305 1628v-84q0 -12 -12 -12h-29q-12 0 -12 12v84q0 12 12 12h29q12 0 12 -12z" />
    <glyph glyph-name="Eth" unicode="&#xd0;" horiz-adv-x="892" 
d="M365 0h-222q-12 0 -12 12v686h-82q-12 0 -12 13v14q0 12 12 12h82v684q0 13 14 13h220q111 0 187 -33t135 -113q58 -79 87 -221q29 -143 29 -350t-29 -350t-87 -222t-135 -112q-76 -33 -187 -33zM369 698h-191v-653h187q134 0 214 55q81 56 128 206q47 152 47 411
q0 258 -47 410q-47 150 -128 206q-82 56 -214 56h-187v-652h191q12 0 12 -12v-14q0 -13 -12 -13z" />
    <glyph glyph-name="Ntilde" unicode="&#xd1;" horiz-adv-x="913" 
d="M786 1419v-1407q0 -12 -12 -12h-20q-13 0 -19 12l-561 1309v-1309q0 -12 -12 -12h-23q-12 0 -12 12v1409q0 13 12 13h21q12 0 18 -13l561 -1308v1308q0 13 13 13h22q12 0 12 -15zM659 1640q0 -51 -28 -82q-29 -32 -72 -32q-44 0 -90 37l-59 43q-52 31 -80 13
q-29 -18 -35 -56l-2 -17q-1 -14 -14 -14h-11q-14 0 -14 14q0 50 29 85q28 34 71 34q44 0 90 -37l50 -37q32 -26 63 -26q25 0 41 16q15 15 20 43l3 16q1 15 14 15h10q14 0 14 -15z" />
    <glyph glyph-name="Ograve" unicode="&#xd2;" horiz-adv-x="937" 
d="M469 1450q199 0 289 -167t90 -566q0 -400 -90 -566q-90 -167 -287 -167q-198 0 -290 167q-91 166 -91 566q0 399 90 566t289 167zM469 27q174 0 252 156t78 534q0 377 -78 533q-79 157 -252 157t-252 -157q-78 -156 -78 -533q0 -378 78 -534t252 -156zM387 1706l109 -162
q7 -12 -7 -12h-14q-8 0 -14 8l-139 164q-15 18 8 18h32q15 0 25 -16z" />
    <glyph glyph-name="Oacute" unicode="&#xd3;" horiz-adv-x="937" 
d="M469 1450q199 0 289 -167t90 -566q0 -400 -90 -566q-90 -167 -287 -167q-198 0 -290 167q-91 166 -91 566q0 399 90 566t289 167zM469 27q174 0 252 156t78 534q0 377 -78 533q-79 157 -252 157t-252 -157q-78 -156 -78 -533q0 -378 78 -534t252 -156zM442 1544l109 162
q10 16 24 16h33q23 0 8 -18l-139 -164q-6 -8 -14 -8h-14q-15 0 -7 12z" />
    <glyph glyph-name="Ocircumflex" unicode="&#xd4;" horiz-adv-x="937" 
d="M469 1450q199 0 289 -167t90 -566q0 -400 -90 -566q-90 -167 -287 -167q-198 0 -290 167q-91 166 -91 566q0 399 90 566t289 167zM469 27q174 0 252 156t78 534q0 377 -78 533q-79 157 -252 157t-252 -157q-78 -156 -78 -533q0 -378 78 -534t252 -156zM606 1540l-137 146
l-137 -146q-8 -8 -15 -8h-14q-15 0 -8 12l137 170q10 15 25 15h24q15 0 25 -15l137 -170q8 -12 -8 -12h-14q-7 0 -15 8z" />
    <glyph glyph-name="Otilde" unicode="&#xd5;" horiz-adv-x="937" 
d="M469 1450q199 0 289 -167t90 -566q0 -400 -90 -566q-90 -167 -287 -167q-198 0 -290 167q-91 166 -91 566q0 399 90 566t289 167zM469 27q174 0 252 156t78 534q0 377 -78 533q-79 157 -252 157t-252 -157q-78 -156 -78 -533q0 -378 78 -534t252 -156zM672 1640
q0 -50 -29 -82t-72 -32q-44 0 -90 37l-59 43q-52 31 -80 13q-29 -18 -35 -56l-2 -17q-1 -14 -14 -14h-10q-15 0 -15 14q0 50 29 85q28 34 72 34t90 -37l49 -37q32 -26 63 -26q25 0 41 16q17 17 21 43l2 16q1 15 14 15h10q15 0 15 -15z" />
    <glyph glyph-name="Odieresis" unicode="&#xd6;" horiz-adv-x="937" 
d="M469 1450q199 0 289 -167t90 -566q0 -400 -90 -566q-90 -167 -287 -167q-198 0 -290 167q-91 166 -91 566q0 399 90 566t289 167zM469 27q174 0 252 156t78 534q0 377 -78 533q-79 157 -252 157t-252 -157q-78 -156 -78 -533q0 -378 78 -534t252 -156zM377 1628v-84
q0 -12 -12 -12h-29q-12 0 -12 12v84q0 12 12 12h29q12 0 12 -12zM614 1628v-84q0 -12 -12 -12h-29q-12 0 -12 12v84q0 12 12 12h29q12 0 12 -12z" />
    <glyph glyph-name="multiply" unicode="&#xd7;" horiz-adv-x="925" 
d="M782 383l-319 319l-320 -319q-7 -11 -18 0l-14 14q-8 8 0 19l319 319l-319 320q-7 11 0 18l14 14q11 11 18 0l320 -319l319 319q8 11 19 0l14 -14q7 -7 0 -18l-319 -320l319 -319q8 -11 0 -19l-14 -14q-11 -11 -19 0z" />
    <glyph glyph-name="Oslash" unicode="&#xd8;" horiz-adv-x="950" 
d="M475 1450q201 0 291 -178l82 141q6 12 18 6l19 -12q11 -6 4 -16l-101 -174q66 -179 66 -500q0 -400 -90 -566q-90 -167 -289 -167q-202 0 -291 176l-82 -142q-6 -10 -18 -4l-18 11q-11 6 -5 18l99 172q-64 172 -64 502q0 399 90 566t289 167zM475 27q174 0 252 156
t78 534q0 287 -49 444l-543 -950q76 -184 262 -184zM145 717q0 -289 48 -447l544 951q-78 186 -262 186q-173 0 -252 -157q-78 -156 -78 -533z" />
    <glyph glyph-name="Ugrave" unicode="&#xd9;" horiz-adv-x="880" 
d="M440 -16q-174 0 -246 96q-73 97 -73 326v1015q0 13 12 13h23q12 0 12 -13v-1011q0 -213 59 -297q60 -86 213 -86t213 86q60 85 60 297v1011q0 13 12 13h23q12 0 12 -13v-1015q0 -229 -73 -326q-72 -96 -247 -96zM358 1706l109 -162q7 -12 -6 -12h-15q-8 0 -14 8l-139 164
q-15 18 8 18h33q14 0 24 -16z" />
    <glyph glyph-name="Uacute" unicode="&#xda;" horiz-adv-x="880" 
d="M440 -16q-174 0 -246 96q-73 97 -73 326v1015q0 13 12 13h23q12 0 12 -13v-1011q0 -213 59 -297q60 -86 213 -86t213 86q60 85 60 297v1011q0 13 12 13h23q12 0 12 -13v-1015q0 -229 -73 -326q-72 -96 -247 -96zM414 1544l108 162q10 16 25 16h33q23 0 8 -18l-139 -164
q-6 -8 -15 -8h-14q-13 0 -6 12z" />
    <glyph glyph-name="Ucircumflex" unicode="&#xdb;" horiz-adv-x="880" 
d="M440 -16q-174 0 -246 96q-73 97 -73 326v1015q0 13 12 13h23q12 0 12 -13v-1011q0 -213 59 -297q60 -86 213 -86t213 86q60 85 60 297v1011q0 13 12 13h23q12 0 12 -13v-1015q0 -229 -73 -326q-72 -96 -247 -96zM578 1540l-138 146l-137 -146q-8 -8 -14 -8h-15
q-16 0 -8 12l137 170q11 15 25 15h25q13 0 24 -15l137 -170q8 -12 -8 -12h-14q-6 0 -14 8z" />
    <glyph glyph-name="Udieresis" unicode="&#xdc;" horiz-adv-x="880" 
d="M440 -16q-174 0 -246 96q-73 97 -73 326v1015q0 13 12 13h23q12 0 12 -13v-1011q0 -213 59 -297q60 -86 213 -86t213 86q60 85 60 297v1011q0 13 12 13h23q12 0 12 -13v-1015q0 -229 -73 -326q-72 -96 -247 -96zM348 1628v-84q0 -12 -12 -12h-29q-12 0 -12 12v84
q0 12 12 12h29q12 0 12 -12zM586 1628v-84q0 -12 -13 -12h-28q-13 0 -13 12v84q0 12 13 12h28q13 0 13 -12z" />
    <glyph glyph-name="Yacute" unicode="&#xdd;" horiz-adv-x="829" 
d="M438 569v-557q0 -12 -12 -12h-23q-12 0 -12 12v557l-332 850q-4 15 11 15h22q9 0 14 -11l222 -565l84 -231h6l84 231l221 565q5 11 14 11h23q14 0 10 -15zM387 1544l109 162q10 16 24 16h33q23 0 8 -18l-139 -164q-6 -8 -14 -8h-15q-13 0 -6 12z" />
    <glyph glyph-name="Thorn" unicode="&#xde;" horiz-adv-x="770" 
d="M162 0h-23q-12 0 -12 12v1409q0 13 12 13h23q12 0 12 -13v-159h137q205 0 291 -101t86 -342q0 -240 -86 -343q-85 -101 -291 -101h-137v-363q0 -12 -12 -12zM174 420h137q180 0 254 89t74 310q0 219 -73 309q-72 89 -255 89h-137v-797z" />
    <glyph glyph-name="germandbls" unicode="&#xdf;" horiz-adv-x="798" 
d="M393 1399q-101 0 -168 -67q-65 -65 -65 -218v-1102q0 -12 -13 -12h-20q-12 0 -12 12v1110q0 166 75 242q77 78 199 78q132 0 195 -66t63 -162q0 -71 -32 -130t-69 -89q-41 -33 -70 -70q-32 -41 -32 -83q0 -41 30 -83t71 -83q44 -44 83 -90q41 -48 71 -125t30 -164
q0 -303 -258 -303q-53 0 -92 6q-14 1 -14 20v13q0 10 16 10q74 -6 88 -6q95 0 155 54t60 204q0 84 -30 156q-30 71 -71 120q-42 49 -83 92q-42 44 -71 87q-30 45 -30 90q0 52 32 99t71 77q38 29 70 83q32 53 32 115q0 80 -52 132q-53 53 -159 53z" />
    <glyph glyph-name="agrave" unicode="&#xe0;" horiz-adv-x="720" 
d="M610 809v-797q0 -12 -12 -12h-20q-13 0 -13 12v172q-23 -80 -89 -138q-63 -56 -171 -56q-119 0 -179 81t-60 224q0 89 25 151t67 101q38 35 110 57q66 20 135 28q66 8 162 9v162q0 126 -45 183q-44 56 -153 56q-123 0 -228 -43q-14 -4 -14 11v12q0 16 14 20
q104 43 232 43q125 0 182 -67q57 -68 57 -209zM565 365v235q-75 -1 -148 -7q-53 -4 -122 -23q-65 -18 -101 -49t-60 -89q-23 -55 -23 -139q0 -260 198 -260q118 0 187 95t69 237zM276 1376l113 -172q8 -12 -6 -12h-14q-9 0 -15 8l-143 174q-16 19 8 19h33q13 0 24 -17z" />
    <glyph glyph-name="aacute" unicode="&#xe1;" horiz-adv-x="720" 
d="M610 809v-797q0 -12 -12 -12h-20q-13 0 -13 12v172q-23 -80 -89 -138q-63 -56 -171 -56q-119 0 -179 81t-60 224q0 89 25 151t67 101q38 35 110 57q66 20 135 28q66 8 162 9v162q0 126 -45 183q-44 56 -153 56q-123 0 -228 -43q-14 -4 -14 11v12q0 16 14 20
q104 43 232 43q125 0 182 -67q57 -68 57 -209zM565 365v235q-75 -1 -148 -7q-53 -4 -122 -23q-65 -18 -101 -49t-60 -89q-23 -55 -23 -139q0 -260 198 -260q118 0 187 95t69 237zM332 1204l112 172q11 17 25 17h33q24 0 8 -19l-143 -174q-6 -8 -15 -8h-14q-14 0 -6 12z" />
    <glyph glyph-name="acircumflex" unicode="&#xe2;" horiz-adv-x="720" 
d="M610 809v-797q0 -12 -12 -12h-20q-13 0 -13 12v172q-23 -80 -89 -138q-63 -56 -171 -56q-119 0 -179 81t-60 224q0 89 25 151t67 101q38 35 110 57q66 20 135 28q66 8 162 9v162q0 126 -45 183q-44 56 -153 56q-123 0 -228 -43q-14 -4 -14 11v12q0 16 14 20
q104 43 232 43q125 0 182 -67q57 -68 57 -209zM565 365v235q-75 -1 -148 -7q-53 -4 -122 -23q-65 -18 -101 -49t-60 -89q-23 -55 -23 -139q0 -260 198 -260q118 0 187 95t69 237zM494 1200l-134 158l-133 -158q-8 -8 -14 -8h-14q-17 0 -9 12l134 183q10 14 24 14h25
q14 0 24 -14l133 -183q8 -12 -8 -12h-14q-6 0 -14 8z" />
    <glyph glyph-name="atilde" unicode="&#xe3;" horiz-adv-x="720" 
d="M610 809v-797q0 -12 -12 -12h-20q-13 0 -13 12v172q-23 -80 -89 -138q-63 -56 -171 -56q-119 0 -179 81t-60 224q0 89 25 151t67 101q38 35 110 57q66 20 135 28q66 8 162 9v162q0 126 -45 183q-44 56 -153 56q-123 0 -228 -43q-14 -4 -14 11v12q0 16 14 20
q104 43 232 43q125 0 182 -67q57 -68 57 -209zM565 365v235q-75 -1 -148 -7q-53 -4 -122 -23q-65 -18 -101 -49t-60 -89q-23 -55 -23 -139q0 -260 198 -260q118 0 187 95t69 237zM567 1300q0 -52 -26 -82q-27 -32 -70 -32q-46 0 -90 37l-53 39q-38 24 -60 24q-27 0 -41 -20
t-16 -43l-2 -17q-1 -14 -14 -14h-11q-14 0 -14 14q0 50 27 85q27 34 69 34q44 0 90 -37l50 -37q33 -26 63 -26q25 0 40 19q16 20 17 40l2 16q2 15 15 15h10q14 0 14 -15z" />
    <glyph glyph-name="adieresis" unicode="&#xe4;" horiz-adv-x="720" 
d="M610 809v-797q0 -12 -12 -12h-20q-13 0 -13 12v172q-23 -80 -89 -138q-63 -56 -171 -56q-119 0 -179 81t-60 224q0 89 25 151t67 101q38 35 110 57q66 20 135 28q66 8 162 9v162q0 126 -45 183q-44 56 -153 56q-123 0 -228 -43q-14 -4 -14 11v12q0 16 14 20
q104 43 232 43q125 0 182 -67q57 -68 57 -209zM565 365v235q-75 -1 -148 -7q-53 -4 -122 -23q-65 -18 -101 -49t-60 -89q-23 -55 -23 -139q0 -260 198 -260q118 0 187 95t69 237zM276 1288v-84q0 -12 -12 -12h-28q-13 0 -13 12v84q0 12 13 12h28q12 0 12 -12zM514 1288v-84
q0 -12 -12 -12h-29q-12 0 -12 12v84q0 12 12 12h29q12 0 12 -12z" />
    <glyph glyph-name="aring" unicode="&#xe5;" horiz-adv-x="720" 
d="M610 809v-797q0 -12 -12 -12h-20q-13 0 -13 12v172q-23 -80 -89 -138q-63 -56 -171 -56q-119 0 -179 81t-60 224q0 89 25 151t67 101q38 35 110 57q66 20 135 28q66 8 162 9v162q0 126 -45 183q-44 56 -153 56q-123 0 -228 -43q-14 -4 -14 11v12q0 16 14 20
q104 43 232 43q125 0 182 -67q57 -68 57 -209zM565 365v235q-75 -1 -148 -7q-53 -4 -122 -23q-65 -18 -101 -49t-60 -89q-23 -55 -23 -139q0 -260 198 -260q118 0 187 95t69 237zM369 1210q110 0 110 109q0 52 -28 80t-80 28q-113 0 -113 -108q0 -109 111 -109zM371 1466
q71 0 110 -40t39 -107q0 -68 -40 -108t-111 -40q-72 0 -112 40t-40 108q0 67 40 107t114 40z" />
    <glyph glyph-name="ae" unicode="&#xe6;" horiz-adv-x="1142" 
d="M866 27q89 0 164 28q14 4 14 -10v-12q0 -17 -14 -21q-75 -28 -166 -28q-122 0 -191 66q-70 67 -100 204q-17 -114 -90 -189t-178 -75q-113 0 -176 79t-63 207q0 83 23 138q24 57 61 91t102 53q67 20 131 27q66 7 162 9l2 172q1 150 -45 213q-47 63 -150 63
q-104 0 -209 -43q-14 -4 -14 11v12q0 16 14 20q104 43 213 43q196 0 226 -194q57 194 239 194q138 0 195 -121q57 -122 57 -352v-49q0 -12 -12 -12h-471q0 -283 62 -403q63 -121 214 -121zM821 1042q-123 0 -176 -108q-54 -110 -55 -340h436v18q0 212 -45 321t-160 109z
M545 365v186q-76 -1 -149 -7q-46 -4 -117 -21q-62 -15 -94 -44t-53 -79t-21 -124q0 -108 51 -176q51 -67 147 -67q110 0 173 94t63 238z" />
    <glyph glyph-name="ccedilla" unicode="&#xe7;" horiz-adv-x="591" 
d="M74 535q0 287 67 418q67 132 240 132q77 0 143 -24q15 -5 15 -21v-12q0 -18 -17 -10q-51 22 -139 22q-149 0 -206 -119q-56 -118 -56 -386q0 -269 56 -387q57 -119 208 -119q90 0 141 22q17 8 17 -10v-12q0 -17 -15 -21q-66 -24 -145 -24q-21 0 -35 2q88 -72 88 -158
q0 -102 -117 -102q-32 0 -47 6q-10 6 -10 16v12q0 13 12 13h39q76 0 76 61q0 84 -100 162q-119 33 -167 164q-48 130 -48 375z" />
    <glyph glyph-name="egrave" unicode="&#xe8;" horiz-adv-x="700" 
d="M412 27q103 0 178 28q14 4 14 -10v-12q0 -17 -14 -21q-75 -28 -180 -28q-187 0 -262 130q-74 129 -74 423q0 280 68 413q69 135 225 135q147 0 205 -129q59 -130 59 -376v-58q0 -12 -13 -12h-497q5 -259 67 -371q63 -112 224 -112zM367 1042q-131 0 -188 -119
q-56 -119 -58 -370h463v27q0 228 -47 346q-46 116 -170 116zM266 1376l113 -172q8 -12 -6 -12h-15q-8 0 -14 8l-143 174q-16 19 8 19h33q13 0 24 -17z" />
    <glyph glyph-name="eacute" unicode="&#xe9;" horiz-adv-x="700" 
d="M412 27q103 0 178 28q14 4 14 -10v-12q0 -17 -14 -21q-75 -28 -180 -28q-187 0 -262 130q-74 129 -74 423q0 280 68 413q69 135 225 135q147 0 205 -129q59 -130 59 -376v-58q0 -12 -13 -12h-497q5 -259 67 -371q63 -112 224 -112zM367 1042q-131 0 -188 -119
q-56 -119 -58 -370h463v27q0 228 -47 346q-46 116 -170 116zM322 1204l112 172q11 17 25 17h33q24 0 8 -19l-144 -174q-6 -8 -14 -8h-14q-14 0 -6 12z" />
    <glyph glyph-name="ecircumflex" unicode="&#xea;" horiz-adv-x="700" 
d="M412 27q103 0 178 28q14 4 14 -10v-12q0 -17 -14 -21q-75 -28 -180 -28q-187 0 -262 130q-74 129 -74 423q0 280 68 413q69 135 225 135q147 0 205 -129q59 -130 59 -376v-58q0 -12 -13 -12h-497q5 -259 67 -371q63 -112 224 -112zM367 1042q-131 0 -188 -119
q-56 -119 -58 -370h463v27q0 228 -47 346q-46 116 -170 116zM492 1200l-134 158l-133 -158q-8 -8 -14 -8h-14q-17 0 -9 12l134 182q10 15 24 15h25q13 0 24 -15l133 -182q8 -12 -8 -12h-14q-6 0 -14 8z" />
    <glyph glyph-name="edieresis" unicode="&#xeb;" horiz-adv-x="700" 
d="M412 27q103 0 178 28q14 4 14 -10v-12q0 -17 -14 -21q-75 -28 -180 -28q-187 0 -262 130q-74 129 -74 423q0 280 68 413q69 135 225 135q147 0 205 -129q59 -130 59 -376v-58q0 -12 -13 -12h-497q5 -259 67 -371q63 -112 224 -112zM367 1042q-131 0 -188 -119
q-56 -119 -58 -370h463v27q0 228 -47 346q-46 116 -170 116zM266 1288v-84q0 -12 -12 -12h-29q-12 0 -12 12v84q0 12 12 12h29q12 0 12 -12zM504 1288v-84q0 -12 -12 -12h-29q-12 0 -12 12v84q0 12 12 12h29q12 0 12 -12z" />
    <glyph glyph-name="igrave" unicode="&#xec;" horiz-adv-x="299" 
d="M172 1057v-1045q0 -12 -12 -12h-21q-12 0 -12 12v1045q0 12 12 12h21q12 0 12 -12zM45 1376l113 -172q7 -12 -6 -12h-15q-8 0 -14 8l-143 174q-16 19 8 19h32q14 0 25 -17z" />
    <glyph glyph-name="iacute" unicode="&#xed;" horiz-adv-x="299" 
d="M172 1057v-1045q0 -12 -12 -12h-21q-12 0 -12 12v1045q0 12 12 12h21q12 0 12 -12zM141 1204l113 172q11 17 25 17h32q24 0 8 -19l-143 -174q-6 -8 -14 -8h-15q-13 0 -6 12z" />
    <glyph glyph-name="icircumflex" unicode="&#xee;" horiz-adv-x="299" 
d="M172 1057v-1045q0 -12 -12 -12h-21q-12 0 -12 12v1045q0 12 12 12h21q12 0 12 -12zM283 1200l-133 158l-134 -158q-8 -8 -14 -8h-14q-16 0 -8 12l133 182q11 15 24 15h25q14 0 24 -15l133 -182q8 -12 -8 -12h-14q-6 0 -14 8z" />
    <glyph glyph-name="idieresis" unicode="&#xef;" horiz-adv-x="299" 
d="M172 1057v-1045q0 -12 -12 -12h-21q-12 0 -12 12v1045q0 12 12 12h21q12 0 12 -12zM57 1288v-84q0 -12 -12 -12h-29q-12 0 -12 12v84q0 12 12 12h29q12 0 12 -12zM295 1288v-84q0 -12 -12 -12h-29q-12 0 -12 12v84q0 12 12 12h29q12 0 12 -12z" />
    <glyph glyph-name="eth" unicode="&#xf0;" horiz-adv-x="757" 
d="M631 1229h-107q156 -269 156 -694q0 -279 -70 -416q-69 -135 -233 -135q-165 0 -234 135t-69 416q0 280 69 415t234 135q132 0 205 -100q-37 120 -107 244h-164q-12 0 -12 12v14q0 13 12 13h140q-60 83 -125 153q-13 13 6 13h24q10 0 19 -9q80 -86 125 -157h131
q12 0 12 -13v-14q0 -12 -12 -12zM377 27q136 0 196 124q60 125 60 384t-60 384q-59 123 -196 123q-138 0 -197 -123q-59 -122 -59 -384t59 -384q60 -124 197 -124z" />
    <glyph glyph-name="ntilde" unicode="&#xf1;" horiz-adv-x="774" 
d="M664 772v-760q0 -12 -13 -12h-20q-13 0 -13 12v760q0 270 -194 270q-116 0 -193 -95q-75 -93 -75 -236v-699q0 -12 -13 -12h-20q-12 0 -12 12v1045q0 12 12 12h20q13 0 13 -12v-172q23 73 94 138q68 62 174 62q122 0 181 -84q59 -85 59 -229zM586 1300q0 -50 -27 -82
t-70 -32q-44 0 -90 37l-53 39q-37 24 -59 24q-27 0 -41 -20q-16 -22 -17 -43l-2 -17q-1 -14 -14 -14h-10q-15 0 -15 14q0 50 27 85q27 34 70 34q44 0 90 -37l49 -37q33 -26 63 -26q25 0 40 19q17 22 18 40l2 16q1 15 14 15h10q15 0 15 -15z" />
    <glyph glyph-name="ograve" unicode="&#xf2;" horiz-adv-x="753" 
d="M377 -16q164 0 233 135q70 137 70 416q0 278 -70 415q-69 135 -233 135q-165 0 -234 -135t-69 -415q0 -281 69 -416t234 -135zM377 27q-137 0 -197 124q-59 122 -59 384t59 384q59 123 197 123q137 0 196 -123q60 -125 60 -384t-60 -384q-60 -124 -196 -124zM293 1376
l113 -172q7 -12 -7 -12h-14q-8 0 -14 8l-144 174q-16 19 9 19h32q14 0 25 -17z" />
    <glyph glyph-name="oacute" unicode="&#xf3;" horiz-adv-x="753" 
d="M377 -16q164 0 233 135q70 137 70 416q0 278 -70 415q-69 135 -233 135q-165 0 -234 -135t-69 -415q0 -281 69 -416t234 -135zM377 27q-137 0 -197 124q-59 122 -59 384t59 384q59 123 197 123q137 0 196 -123q60 -125 60 -384t-60 -384q-60 -124 -196 -124zM348 1204
l113 172q11 17 24 17h33q24 0 8 -19l-143 -174q-6 -8 -14 -8h-15q-14 0 -6 12z" />
    <glyph glyph-name="ocircumflex" unicode="&#xf4;" horiz-adv-x="753" 
d="M377 -16q164 0 233 135q70 137 70 416q0 278 -70 415q-69 135 -233 135q-165 0 -234 -135t-69 -415q0 -281 69 -416t234 -135zM377 27q-137 0 -197 124q-59 122 -59 384t59 384q59 123 197 123q137 0 196 -123q60 -125 60 -384t-60 -384q-60 -124 -196 -124zM510 1200
l-133 158l-133 -158q-8 -8 -15 -8h-14q-15 0 -8 12l133 182q11 15 25 15h24q15 0 25 -15l133 -182q7 -12 -8 -12h-15q-6 0 -14 8z" />
    <glyph glyph-name="otilde" unicode="&#xf5;" horiz-adv-x="753" 
d="M377 -16q-165 0 -234 135t-69 416q0 280 69 415t234 135q164 0 233 -135q70 -137 70 -415q0 -279 -70 -416q-69 -135 -233 -135zM377 27q136 0 196 124q60 125 60 384t-60 384q-59 123 -196 123q-138 0 -197 -123q-59 -122 -59 -384t59 -384q60 -124 197 -124zM575 1300
q0 -52 -26 -82q-27 -32 -70 -32q-46 0 -90 37l-53 39q-38 24 -60 24q-26 0 -40 -20q-16 -22 -17 -43l-2 -17q-1 -14 -14 -14h-10q-15 0 -15 14q0 50 27 85q27 34 69 34q45 0 91 -37l49 -37q33 -26 63 -26q25 0 40 19q17 22 18 40l2 16q1 15 14 15h10q14 0 14 -15z" />
    <glyph glyph-name="odieresis" unicode="&#xf6;" horiz-adv-x="753" 
d="M377 -16q164 0 233 135q70 137 70 416q0 278 -70 415q-69 135 -233 135q-165 0 -234 -135t-69 -415q0 -281 69 -416t234 -135zM377 27q-137 0 -197 124q-59 122 -59 384t59 384q59 123 197 123q137 0 196 -123q60 -125 60 -384t-60 -384q-60 -124 -196 -124zM285 1288
v-84q0 -12 -13 -12h-28q-13 0 -13 12v84q0 12 13 12h28q13 0 13 -12zM522 1288v-84q0 -12 -12 -12h-29q-12 0 -12 12v84q0 12 12 12h29q12 0 12 -12z" />
    <glyph glyph-name="divide" unicode="&#xf7;" horiz-adv-x="925" 
d="M811 713h-696q-13 0 -13 12v20q0 13 13 13h696q12 0 12 -13v-20q0 -12 -12 -12zM424 381v113q0 12 12 12h53q13 0 13 -12v-113q0 -12 -13 -12h-53q-12 0 -12 12zM424 977v113q0 12 12 12h53q13 0 13 -12v-113q0 -12 -13 -12h-53q-12 0 -12 12z" />
    <glyph glyph-name="oslash" unicode="&#xf8;" horiz-adv-x="761" 
d="M381 -16q-150 0 -223 116l-52 -92q-6 -12 -18 -6l-12 10q-13 8 -6 17l65 114q-57 129 -57 392q0 280 69 415t234 135q148 0 221 -116l53 94q6 10 17 4l14 -8q10 -6 4 -17l-65 -114q59 -131 59 -393q0 -279 -70 -416q-69 -135 -233 -135zM381 1042q-138 0 -197 -123
q-59 -122 -59 -384q0 -215 41 -338l409 725q-61 120 -194 120zM381 27q137 0 197 124q59 122 59 384q0 216 -43 339l-408 -727q61 -120 195 -120z" />
    <glyph glyph-name="ugrave" unicode="&#xf9;" horiz-adv-x="765" 
d="M111 313v744q0 12 12 12h20q13 0 13 -12v-744q0 -286 206 -286q116 0 182 97t66 241v692q0 12 13 12h20q12 0 12 -12v-1045q0 -12 -12 -12h-20q-13 0 -13 12v172q-18 -76 -82 -139q-62 -61 -168 -61q-124 0 -187 87q-62 86 -62 242zM299 1376l113 -172q8 -12 -6 -12h-15
q-8 0 -14 8l-144 174q-16 19 9 19h32q14 0 25 -17z" />
    <glyph glyph-name="uacute" unicode="&#xfa;" horiz-adv-x="765" 
d="M111 313v744q0 12 12 12h20q13 0 13 -12v-744q0 -286 206 -286q116 0 182 97t66 241v692q0 12 13 12h20q12 0 12 -12v-1045q0 -12 -12 -12h-20q-13 0 -13 12v172q-18 -76 -82 -139q-62 -61 -168 -61q-124 0 -187 87q-62 86 -62 242zM354 1204l113 172q11 17 25 17h32
q24 0 8 -19l-143 -174q-6 -8 -14 -8h-15q-14 0 -6 12z" />
    <glyph glyph-name="ucircumflex" unicode="&#xfb;" horiz-adv-x="765" 
d="M111 313v744q0 12 12 12h20q13 0 13 -12v-744q0 -286 206 -286q116 0 182 97t66 241v692q0 12 13 12h20q12 0 12 -12v-1045q0 -12 -12 -12h-20q-13 0 -13 12v172q-18 -76 -82 -139q-62 -61 -168 -61q-124 0 -187 87q-62 86 -62 242zM516 1200l-133 158l-133 -158
q-8 -8 -14 -8h-15q-16 0 -8 12l133 182q10 15 25 15h24q15 0 25 -15l133 -182q8 -12 -8 -12h-15q-6 0 -14 8z" />
    <glyph glyph-name="udieresis" unicode="&#xfc;" horiz-adv-x="765" 
d="M111 313v744q0 12 12 12h20q13 0 13 -12v-744q0 -286 206 -286q116 0 182 97t66 241v692q0 12 13 12h20q12 0 12 -12v-1045q0 -12 -12 -12h-20q-13 0 -13 12v172q-18 -76 -82 -139q-62 -61 -168 -61q-124 0 -187 87q-62 86 -62 242zM291 1288v-84q0 -12 -12 -12h-29
q-12 0 -12 12v84q0 12 12 12h29q12 0 12 -12zM528 1288v-84q0 -12 -12 -12h-29q-12 0 -12 12v84q0 12 12 12h29q12 0 12 -12z" />
    <glyph glyph-name="yacute" unicode="&#xfd;" horiz-adv-x="679" 
d="M629 1055l-252 -1037q-33 -137 -76 -196q-43 -60 -137 -60q-42 0 -86 13q-15 5 -15 20v12q0 16 17 11q50 -13 86 -13q86 0 125 87t22 151l-258 1012q-1 14 11 14h22q14 0 16 -12l191 -750l49 -217h4l49 217l183 750q2 12 16 12h22q12 0 11 -14zM311 1204l113 172
q11 17 25 17h32q24 0 8 -19l-143 -174q-6 -8 -14 -8h-15q-13 0 -6 12z" />
    <glyph glyph-name="thorn" unicode="&#xfe;" horiz-adv-x="778" 
d="M127 1434h20q13 0 13 -13v-561q24 102 89 164q64 61 167 61q154 0 221 -139q68 -141 68 -411q0 -271 -68 -412q-67 -139 -221 -139q-103 0 -167 61q-65 62 -89 164v-422q0 -12 -13 -12h-20q-12 0 -12 12v1634q0 13 12 13zM158 535q0 -508 258 -508q241 0 241 508
q0 507 -241 507q-258 0 -258 -507z" />
    <glyph glyph-name="ydieresis" unicode="&#xff;" horiz-adv-x="679" 
d="M629 1055l-252 -1037q-33 -137 -76 -196q-43 -60 -137 -60q-42 0 -86 13q-15 5 -15 20v12q0 16 17 11q50 -13 86 -13q86 0 125 87t22 151l-258 1012q-1 14 11 14h22q14 0 16 -12l191 -750l49 -217h4l49 217l183 750q2 12 16 12h22q12 0 11 -14zM248 1288v-84
q0 -12 -12 -12h-29q-12 0 -12 12v84q0 12 12 12h29q12 0 12 -12zM485 1288v-84q0 -12 -12 -12h-29q-12 0 -12 12v84q0 12 12 12h29q12 0 12 -12z" />
    <glyph glyph-name="Amacron" unicode="&#x100;" horiz-adv-x="876" 
d="M225 504h426l-211 848h-4zM424 1434h29q14 0 16 -13l352 -1407q1 -14 -10 -14h-23q-10 0 -14 12l-112 447h-447l-113 -447q-4 -12 -14 -12h-22q-12 0 -11 14l353 1407q2 13 16 13zM602 1532h-328q-12 0 -12 12v15q0 12 12 12h328q12 0 12 -12v-15q0 -12 -12 -12z" />
    <glyph glyph-name="amacron" unicode="&#x101;" horiz-adv-x="720" 
d="M610 809v-797q0 -12 -12 -12h-20q-13 0 -13 12v172q-23 -80 -89 -138q-63 -56 -171 -56q-119 0 -179 81t-60 224q0 89 25 151t67 101q38 35 110 57q66 20 135 28q66 8 162 9v162q0 126 -45 183q-44 56 -153 56q-123 0 -228 -43q-14 -4 -14 11v12q0 16 14 20
q104 43 232 43q125 0 182 -67q57 -68 57 -209zM565 365v235q-75 -1 -148 -7q-53 -4 -122 -23q-65 -18 -101 -49t-60 -89q-23 -55 -23 -139q0 -260 198 -260q118 0 187 95t69 237zM528 1208h-319q-12 0 -12 13v14q0 12 12 12h319q13 0 13 -12v-14q0 -13 -13 -13z" />
    <glyph glyph-name="Abreve" unicode="&#x102;" horiz-adv-x="876" 
d="M225 504h426l-211 848h-4zM424 1434h29q14 0 16 -13l352 -1407q1 -14 -10 -14h-23q-10 0 -14 12l-112 447h-447l-113 -447q-4 -12 -14 -12h-22q-12 0 -11 14l353 1407q2 13 16 13zM438 1520q-82 0 -129 48q-46 48 -51 118q0 12 12 12h19q12 0 12 -12q15 -123 137 -123
t137 123q0 12 13 12h18q12 0 12 -12q-5 -70 -51 -118q-47 -48 -129 -48z" />
    <glyph glyph-name="abreve" unicode="&#x103;" horiz-adv-x="720" 
d="M610 809v-797q0 -12 -12 -12h-20q-13 0 -13 12v172q-23 -80 -89 -138q-63 -56 -171 -56q-119 0 -179 81t-60 224q0 89 25 151t67 101q38 35 110 57q66 20 135 28q66 8 162 9v162q0 126 -45 183q-44 56 -153 56q-123 0 -228 -43q-14 -4 -14 11v12q0 16 14 20
q104 43 232 43q125 0 182 -67q57 -68 57 -209zM565 365v235q-75 -1 -148 -7q-53 -4 -122 -23q-65 -18 -101 -49t-60 -89q-23 -55 -23 -139q0 -260 198 -260q118 0 187 95t69 237zM369 1188q-83 0 -129 48q-48 49 -52 118q0 12 13 12h18q12 0 12 -12q15 -123 138 -123
q122 0 137 123q0 12 12 12h19q12 0 12 -12q-5 -70 -51 -118t-129 -48z" />
    <glyph glyph-name="Aogonek" unicode="&#x104;" horiz-adv-x="876" 
d="M424 1434h29q14 0 16 -13l352 -1407q1 -14 -10 -14h-20q-113 -80 -113 -170q0 -66 84 -66q2 0 24 2q11 1 23 1t12 -13v-14q0 -10 -10 -16q-19 -7 -55 -7q-125 0 -125 107q0 112 141 192l-110 443h-447l-113 -447q-4 -12 -14 -12h-22q-12 0 -11 14l353 1407q2 13 16 13z
M225 504h426l-211 848h-4z" />
    <glyph glyph-name="aogonek" unicode="&#x105;" horiz-adv-x="720" 
d="M610 809v-797q0 -12 -12 -12h-14q-107 -78 -107 -166q0 -61 76 -61h39q12 0 12 -13v-12q0 -10 -10 -16q-16 -6 -47 -6q-117 0 -117 102q0 112 135 188v168q-23 -80 -89 -138q-63 -56 -171 -56q-119 0 -179 81t-60 224q0 89 25 151t67 101q38 35 110 57q66 20 135 28
q66 8 162 9v162q0 126 -45 183q-44 56 -153 56q-123 0 -228 -43q-14 -4 -14 11v12q0 16 14 20q104 43 232 43q125 0 182 -67q57 -68 57 -209zM565 365v235q-75 -1 -148 -7q-53 -4 -122 -23q-65 -18 -101 -49t-60 -89q-23 -55 -23 -139q0 -260 198 -260q118 0 187 95t69 237z
" />
    <glyph glyph-name="Cacute" unicode="&#x106;" horiz-adv-x="757" 
d="M506 29q89 0 158 20q16 4 16 -12v-14q0 -15 -14 -19q-66 -20 -160 -20q-231 0 -323 162q-93 164 -93 571q0 406 92 570q91 163 320 163q85 0 151 -20q15 -4 15 -19v-14q0 -18 -17 -13q-72 21 -149 21q-204 0 -283 -153q-80 -154 -80 -535q0 -383 81 -536
q80 -152 286 -152zM414 1544l108 162q10 16 25 16h33q23 0 8 -18l-139 -164q-6 -8 -15 -8h-14q-13 0 -6 12z" />
    <glyph glyph-name="cacute" unicode="&#x107;" horiz-adv-x="591" 
d="M74 535q0 287 67 418q67 132 240 132q77 0 143 -24q15 -5 15 -21v-12q0 -18 -17 -10q-51 22 -139 22q-149 0 -206 -119q-56 -118 -56 -386q0 -269 56 -387q57 -119 208 -119q90 0 141 22q17 8 17 -10v-12q0 -17 -15 -21q-66 -24 -145 -24q-174 0 -242 132
q-67 131 -67 419zM307 1204l113 172q11 17 24 17h33q24 0 8 -19l-143 -174q-6 -8 -14 -8h-15q-13 0 -6 12z" />
    <glyph glyph-name="Ccircumflex" unicode="&#x108;" horiz-adv-x="757" 
d="M506 29q89 0 158 20q16 4 16 -12v-14q0 -15 -14 -19q-66 -20 -160 -20q-231 0 -323 162q-93 164 -93 571q0 406 92 570q91 163 320 163q85 0 151 -20q15 -4 15 -19v-14q0 -18 -17 -13q-72 21 -149 21q-204 0 -283 -153q-80 -154 -80 -535q0 -383 81 -536
q80 -152 286 -152zM618 1540l-137 146l-137 -146q-8 -8 -14 -8h-15q-15 0 -8 12l137 170q10 15 25 15h25q14 0 24 -15l137 -170q7 -12 -8 -12h-14q-7 0 -15 8z" />
    <glyph glyph-name="ccircumflex" unicode="&#x109;" horiz-adv-x="591" 
d="M74 535q0 287 67 418q67 132 240 132q77 0 143 -24q15 -5 15 -21v-12q0 -18 -17 -10q-51 22 -139 22q-149 0 -206 -119q-56 -118 -56 -386q0 -269 56 -387q57 -119 208 -119q90 0 141 22q17 8 17 -10v-12q0 -17 -15 -21q-66 -24 -145 -24q-174 0 -242 132
q-67 131 -67 419zM500 1200l-133 158l-134 -158q-8 -8 -14 -8h-14q-15 0 -8 12l133 182q10 15 24 15h25q14 0 24 -15l134 -182q7 -12 -9 -12h-14q-6 0 -14 8z" />
    <glyph glyph-name="Cdotaccent" unicode="&#x10a;" horiz-adv-x="757" 
d="M506 29q89 0 158 20q16 4 16 -12v-14q0 -15 -14 -19q-66 -20 -160 -20q-231 0 -323 162q-93 164 -93 571q0 406 92 570q91 163 320 163q85 0 151 -20q15 -4 15 -19v-14q0 -18 -17 -13q-72 21 -149 21q-204 0 -283 -153q-80 -154 -80 -535q0 -383 81 -536
q80 -152 286 -152zM508 1628v-84q0 -12 -12 -12h-29q-12 0 -12 12v84q0 12 12 12h29q12 0 12 -12z" />
    <glyph glyph-name="cdotaccent" unicode="&#x10b;" horiz-adv-x="591" 
d="M74 535q0 287 67 418q67 132 240 132q77 0 143 -24q15 -5 15 -21v-12q0 -18 -17 -10q-51 22 -139 22q-149 0 -206 -119q-56 -118 -56 -386q0 -269 56 -387q57 -119 208 -119q90 0 141 22q17 8 17 -10v-12q0 -17 -15 -21q-66 -24 -145 -24q-174 0 -242 132
q-67 131 -67 419zM393 1288v-84q0 -12 -12 -12h-29q-12 0 -12 12v84q0 12 12 12h29q12 0 12 -12z" />
    <glyph glyph-name="Ccaron" unicode="&#x10c;" horiz-adv-x="757" 
d="M506 29q89 0 158 20q16 4 16 -12v-14q0 -15 -14 -19q-66 -20 -160 -20q-231 0 -323 162q-93 164 -93 571q0 406 92 570q91 163 320 163q85 0 151 -20q15 -4 15 -19v-14q0 -18 -17 -13q-72 21 -149 21q-204 0 -283 -153q-80 -154 -80 -535q0 -383 81 -536
q80 -152 286 -152zM481 1575l137 145q9 9 15 9h14q16 0 8 -13l-137 -170q-10 -14 -24 -14h-25q-15 0 -25 14l-137 170q-8 13 8 13h15q5 0 14 -9z" />
    <glyph glyph-name="ccaron" unicode="&#x10d;" horiz-adv-x="591" 
d="M74 535q0 287 67 418q67 132 240 132q77 0 143 -24q15 -5 15 -21v-12q0 -18 -17 -10q-51 22 -139 22q-149 0 -206 -119q-56 -118 -56 -386q0 -269 56 -387q57 -119 208 -119q90 0 141 22q17 8 17 -10v-12q0 -17 -15 -21q-66 -24 -145 -24q-174 0 -242 132
q-67 131 -67 419zM367 1235l133 158q8 8 14 8h14q16 0 9 -12l-134 -183q-10 -14 -24 -14h-25q-14 0 -24 14l-133 183q-7 12 8 12h14q6 0 14 -8z" />
    <glyph glyph-name="Dcaron" unicode="&#x10e;" horiz-adv-x="888" 
d="M360 0h-221q-12 0 -12 12v1409q0 13 14 13h219q112 0 188 -33t135 -113q58 -79 87 -221q29 -143 29 -350t-29 -350t-87 -222t-135 -112q-76 -33 -188 -33zM360 1389h-186v-1344h186q134 0 214 55q81 56 128 206q48 155 48 411q0 255 -48 410q-47 150 -128 206
q-82 56 -214 56zM444 1575l138 145q9 9 14 9h14q16 0 8 -13l-137 -170q-10 -14 -24 -14h-25q-14 0 -24 14l-138 170q-8 13 9 13h14q5 0 14 -9z" />
    <glyph glyph-name="dcaron" unicode="&#x10f;" horiz-adv-x="860" 
d="M621 535q0 507 -259 507q-241 0 -241 -507q0 -508 241 -508q259 0 259 508zM618 12v197q-24 -102 -89 -164q-64 -61 -167 -61q-154 0 -221 139q-67 138 -67 412q0 273 67 411q67 139 221 139q103 0 167 -61q65 -62 89 -164v561q0 13 13 13h20q13 0 13 -13v-1409
q0 -12 -13 -12h-20q-13 0 -13 12zM854 1335l-39 -170q-5 -12 -14 -12h-8q-15 0 -11 14l33 170h-24q-13 0 -13 13v112q0 13 13 13h53q12 0 12 -13v-110q0 -7 -2 -17z" />
    <glyph glyph-name="Dcroat" unicode="&#x110;" horiz-adv-x="892" 
d="M365 0h-222q-12 0 -12 12v686h-82q-12 0 -12 13v14q0 12 12 12h82v684q0 13 14 13h220q111 0 187 -33t135 -113q58 -79 87 -221q29 -143 29 -350t-29 -350t-87 -222t-135 -112q-76 -33 -187 -33zM369 698h-191v-653h187q134 0 214 55q81 56 128 206q47 152 47 411
q0 258 -47 410q-47 150 -128 206q-82 56 -214 56h-187v-652h191q12 0 12 -12v-14q0 -13 -12 -13z" />
    <glyph glyph-name="dcroat" unicode="&#x111;" horiz-adv-x="778" 
d="M618 12v197q-24 -102 -89 -164q-64 -61 -167 -61q-154 0 -221 139q-67 138 -67 414q0 273 67 410q67 138 221 138q103 0 167 -61q65 -62 89 -164v365h-200q-12 0 -12 12v14q0 13 12 13h200v157q0 13 13 13h20q13 0 13 -13v-157h73q13 0 13 -13v-14q0 -12 -13 -12h-73
v-1213q0 -12 -13 -12h-20q-13 0 -13 12zM621 535q0 507 -259 507q-241 0 -241 -507q0 -508 241 -508q259 0 259 508z" />
    <glyph glyph-name="Emacron" unicode="&#x112;" horiz-adv-x="716" 
d="M606 713h-432v-668h449q12 0 12 -12v-23q0 -10 -12 -10h-484q-12 0 -12 12v1409q0 13 14 13h477q13 0 13 -13v-20q0 -12 -13 -12h-444v-631h432q12 0 12 -13v-20q0 -12 -12 -12zM551 1532h-328q-12 0 -12 12v15q0 12 12 12h328q12 0 12 -12v-15q0 -12 -12 -12z" />
    <glyph glyph-name="emacron" unicode="&#x113;" horiz-adv-x="700" 
d="M412 27q103 0 178 28q14 4 14 -10v-12q0 -17 -14 -21q-75 -28 -180 -28q-187 0 -262 130q-74 129 -74 423q0 280 68 413q69 135 225 135q147 0 205 -129q59 -130 59 -376v-58q0 -12 -13 -12h-497q5 -259 67 -371q63 -112 224 -112zM367 1042q-131 0 -188 -119
q-56 -119 -58 -370h463v27q0 228 -47 346q-46 116 -170 116zM520 1208h-319q-13 0 -13 13v14q0 12 13 12h319q12 0 12 -12v-14q0 -13 -12 -13z" />
    <glyph glyph-name="Ebreve" unicode="&#x114;" horiz-adv-x="716" 
d="M606 713h-432v-668h449q12 0 12 -12v-23q0 -10 -12 -10h-484q-12 0 -12 12v1409q0 13 14 13h477q13 0 13 -13v-20q0 -12 -13 -12h-444v-631h432q12 0 12 -13v-20q0 -12 -12 -12zM408 1520q-82 0 -129 48q-48 49 -52 118q0 12 13 12h18q12 0 12 -12q16 -123 138 -123
q120 0 137 123q0 12 12 12h18q13 0 13 -12q-5 -70 -51 -118q-47 -48 -129 -48z" />
    <glyph glyph-name="ebreve" unicode="&#x115;" horiz-adv-x="700" 
d="M412 27q103 0 178 28q14 4 14 -10v-12q0 -17 -14 -21q-75 -28 -180 -28q-187 0 -262 130q-74 129 -74 423q0 280 68 413q69 135 225 135q147 0 205 -129q59 -130 59 -376v-58q0 -12 -13 -12h-497q5 -259 67 -371q63 -112 224 -112zM367 1042q-131 0 -188 -119
q-56 -119 -58 -370h463v27q0 228 -47 346q-46 116 -170 116zM360 1188q-82 0 -129 48q-46 48 -51 118q0 12 13 12h18q12 0 12 -12q15 -123 137 -123q123 0 138 123q0 12 12 12h18q13 0 13 -12q-4 -69 -52 -118q-47 -48 -129 -48z" />
    <glyph glyph-name="Edotaccent" unicode="&#x116;" horiz-adv-x="716" 
d="M606 713h-432v-668h449q12 0 12 -12v-23q0 -10 -12 -10h-484q-12 0 -12 12v1409q0 13 14 13h477q13 0 13 -13v-20q0 -12 -13 -12h-444v-631h432q12 0 12 -13v-20q0 -12 -12 -12zM438 1628v-84q0 -12 -12 -12h-29q-12 0 -12 12v84q0 12 12 12h29q12 0 12 -12z" />
    <glyph glyph-name="edotaccent" unicode="&#x117;" horiz-adv-x="700" 
d="M412 27q103 0 178 28q14 4 14 -10v-12q0 -17 -14 -21q-75 -28 -180 -28q-187 0 -262 130q-74 129 -74 423q0 280 68 413q69 135 225 135q147 0 205 -129q59 -130 59 -376v-58q0 -12 -13 -12h-497q5 -259 67 -371q63 -112 224 -112zM367 1042q-131 0 -188 -119
q-56 -119 -58 -370h463v27q0 228 -47 346q-46 116 -170 116zM387 1288v-84q0 -12 -12 -12h-29q-12 0 -12 12v84q0 12 12 12h29q12 0 12 -12z" />
    <glyph glyph-name="Eogonek" unicode="&#x118;" horiz-adv-x="716" 
d="M606 713h-432v-668h449q12 0 12 -12v-23q0 -10 -12 -10h-60q-112 -79 -112 -170q0 -66 84 -66q2 0 24 2q11 1 23 1t12 -13v-14q0 -10 -10 -16q-18 -7 -56 -7q-125 0 -125 107q0 99 115 176h-379q-12 0 -12 12v1409q0 13 14 13h477q13 0 13 -13v-20q0 -12 -13 -12h-444
v-631h432q12 0 12 -13v-20q0 -12 -12 -12z" />
    <glyph glyph-name="eogonek" unicode="&#x119;" horiz-adv-x="700" 
d="M412 27q103 0 178 28q14 4 14 -10v-12q0 -17 -14 -21l-39 -12q-107 -78 -107 -166q0 -61 76 -61h39q12 0 12 -13v-12q0 -10 -10 -16q-15 -6 -47 -6q-117 0 -117 102q0 85 92 162q-39 -6 -79 -6q-187 0 -262 130q-74 129 -74 423q0 280 68 413q69 135 225 135
q147 0 205 -129q59 -130 59 -376v-58q0 -12 -13 -12h-497q5 -259 67 -371q63 -112 224 -112zM367 1042q-131 0 -188 -119q-56 -119 -58 -370h463v27q0 228 -47 346q-46 116 -170 116z" />
    <glyph glyph-name="Ecaron" unicode="&#x11a;" horiz-adv-x="716" 
d="M606 713h-432v-668h449q12 0 12 -12v-23q0 -10 -12 -10h-484q-12 0 -12 12v1409q0 13 14 13h477q13 0 13 -13v-20q0 -12 -13 -12h-444v-631h432q12 0 12 -13v-20q0 -12 -12 -12zM403 1575l138 145q9 9 14 9h14q17 0 9 -13l-138 -170q-10 -14 -24 -14h-25q-14 0 -24 14
l-138 170q-8 13 9 13h14q5 0 14 -9z" />
    <glyph glyph-name="ecaron" unicode="&#x11b;" horiz-adv-x="700" 
d="M412 27q103 0 178 28q14 4 14 -10v-12q0 -17 -14 -21q-75 -28 -180 -28q-187 0 -262 130q-74 129 -74 423q0 280 68 413q69 135 225 135q147 0 205 -129q59 -130 59 -376v-58q0 -12 -13 -12h-497q5 -259 67 -371q63 -112 224 -112zM367 1042q-131 0 -188 -119
q-56 -119 -58 -370h463v27q0 228 -47 346q-46 116 -170 116zM360 1235l134 158q8 8 14 8h14q16 0 8 -12l-133 -183q-10 -14 -24 -14h-25q-14 0 -24 14l-134 183q-8 12 9 12h14q6 0 14 -8z" />
    <glyph glyph-name="Gcircumflex" unicode="&#x11c;" horiz-adv-x="819" 
d="M389 770h307q13 0 13 -12v-719q0 -17 -17 -25q-62 -30 -182 -30q-231 0 -325 163q-95 164 -95 570t94 569q95 164 324 164q92 0 158 -20q14 -4 14 -19v-14q0 -17 -16 -13q-72 21 -156 21q-205 0 -287 -153q-82 -152 -82 -535q0 -381 83 -535q82 -153 288 -153
q86 0 152 24v672h-273q-12 0 -12 12v21q0 12 12 12zM616 1540l-137 146l-137 -146q-8 -8 -14 -8h-15q-15 0 -8 12l137 170q11 15 25 15h25q13 0 24 -15l137 -170q8 -12 -8 -12h-14q-7 0 -15 8z" />
    <glyph glyph-name="gcircumflex" unicode="&#x11d;" horiz-adv-x="761" 
d="M608 580q0 221 -65 341q-66 121 -191 121q-231 0 -231 -462q0 -463 231 -463q125 0 191 122q65 120 65 341zM651 1057v-955q0 -183 -71 -263q-72 -81 -224 -81q-116 0 -206 45q-15 7 -15 21v12q0 14 15 10q99 -45 202 -45q134 0 195 70q59 68 59 235v193
q-24 -102 -89 -164q-64 -61 -165 -61q-278 0 -278 506q0 505 278 505q101 0 165 -61q65 -62 89 -164v197q0 12 12 12h21q12 0 12 -12zM514 1200l-133 158l-133 -158q-8 -8 -15 -8h-14q-15 0 -8 12l133 182q10 15 25 15h24q14 0 25 -15l133 -182q7 -12 -8 -12h-15q-6 0 -14 8
z" />
    <glyph glyph-name="Gbreve" unicode="&#x11e;" horiz-adv-x="819" 
d="M389 770h307q13 0 13 -12v-719q0 -17 -17 -25q-62 -30 -182 -30q-231 0 -325 163q-95 164 -95 570t94 569q95 164 324 164q92 0 158 -20q14 -4 14 -19v-14q0 -17 -16 -13q-72 21 -156 21q-205 0 -287 -153q-82 -152 -82 -535q0 -381 83 -535q82 -153 288 -153
q86 0 152 24v672h-273q-12 0 -12 12v21q0 12 12 12zM479 1520q-83 0 -129 48t-51 118q0 12 12 12h19q12 0 12 -12q15 -123 137 -123t137 123q0 12 13 12h18q12 0 12 -12q-5 -70 -51 -118t-129 -48z" />
    <glyph glyph-name="gbreve" unicode="&#x11f;" horiz-adv-x="761" 
d="M608 580q0 221 -65 341q-66 121 -191 121q-231 0 -231 -462q0 -463 231 -463q125 0 191 122q65 120 65 341zM651 1057v-955q0 -183 -71 -263q-72 -81 -224 -81q-116 0 -206 45q-15 7 -15 21v12q0 14 15 10q99 -45 202 -45q134 0 195 70q59 68 59 235v193
q-24 -102 -89 -164q-64 -61 -165 -61q-278 0 -278 506q0 505 278 505q101 0 165 -61q65 -62 89 -164v197q0 12 12 12h21q12 0 12 -12zM381 1188q-83 0 -129 48t-51 118q0 12 12 12h18q13 0 13 -12q15 -123 137 -123t137 123q0 12 12 12h19q12 0 12 -12q-5 -70 -51 -118
t-129 -48z" />
    <glyph glyph-name="Gdotaccent" unicode="&#x120;" horiz-adv-x="819" 
d="M389 770h307q13 0 13 -12v-719q0 -17 -17 -25q-62 -30 -182 -30q-231 0 -325 163q-95 164 -95 570t94 569q95 164 324 164q92 0 158 -20q14 -4 14 -19v-14q0 -17 -16 -13q-72 21 -156 21q-205 0 -287 -153q-82 -152 -82 -535q0 -381 83 -535q82 -153 288 -153
q86 0 152 24v672h-273q-12 0 -12 12v21q0 12 12 12zM506 1628v-84q0 -12 -12 -12h-29q-12 0 -12 12v84q0 12 12 12h29q12 0 12 -12z" />
    <glyph glyph-name="gdotaccent" unicode="&#x121;" horiz-adv-x="761" 
d="M608 580q0 221 -65 341q-66 121 -191 121q-231 0 -231 -462q0 -463 231 -463q125 0 191 122q65 120 65 341zM651 1057v-955q0 -183 -71 -263q-72 -81 -224 -81q-116 0 -206 45q-15 7 -15 21v12q0 14 15 10q99 -45 202 -45q134 0 195 70q59 68 59 235v193
q-24 -102 -89 -164q-64 -61 -165 -61q-278 0 -278 506q0 505 278 505q101 0 165 -61q65 -62 89 -164v197q0 12 12 12h21q12 0 12 -12zM408 1288v-84q0 -12 -13 -12h-28q-13 0 -13 12v84q0 12 13 12h28q13 0 13 -12z" />
    <glyph glyph-name="Gcommaaccent" unicode="&#x122;" horiz-adv-x="819" 
d="M389 770h307q13 0 13 -12v-719q0 -17 -17 -25q-62 -30 -182 -30q-231 0 -325 163q-95 164 -95 570t94 569q95 164 324 164q92 0 158 -20q14 -4 14 -19v-14q0 -17 -16 -13q-72 21 -156 21q-205 0 -287 -153q-82 -152 -82 -535q0 -381 83 -535q82 -153 288 -153
q86 0 152 24v672h-273q-12 0 -12 12v21q0 12 12 12zM539 -233l-37 -158q-2 -12 -15 -12h-8q-14 0 -10 14l29 158h-27q-12 0 -12 12v92q0 12 12 12h57q13 0 13 -12v-90q0 -6 -2 -16z" />
    <glyph glyph-name="gcommaaccent" unicode="&#x123;" horiz-adv-x="761" 
d="M608 580q0 221 -65 341q-66 121 -191 121q-231 0 -231 -462q0 -463 231 -463q125 0 191 122q65 120 65 341zM651 1057v-955q0 -183 -71 -263q-72 -81 -224 -81q-116 0 -206 45q-15 7 -15 21v12q0 14 15 10q99 -45 202 -45q134 0 195 70q59 68 59 235v193
q-24 -102 -89 -164q-64 -61 -165 -61q-278 0 -278 506q0 505 278 505q101 0 165 -61q65 -62 89 -164v197q0 12 12 12h21q12 0 12 -12zM352 1303l37 141q5 12 14 12h9q14 0 10 -14l-29 -142h27q12 0 12 -12v-92q0 -12 -12 -12h-58q-12 0 -12 12v90q0 7 2 17z" />
    <glyph glyph-name="Hcircumflex" unicode="&#x124;" horiz-adv-x="892" 
d="M719 12v701h-545v-701q0 -12 -12 -12h-23q-12 0 -12 12v1409q0 13 12 13h23q12 0 12 -13v-663h545v663q0 13 12 13h23q12 0 12 -13v-1409q0 -12 -12 -12h-23q-12 0 -12 12zM584 1540l-138 146l-137 -146q-8 -8 -14 -8h-14q-17 0 -9 12l138 170q11 15 24 15h25
q13 0 24 -15l138 -170q7 -12 -9 -12h-14q-6 0 -14 8z" />
    <glyph glyph-name="hcircumflex" unicode="&#x125;" horiz-adv-x="778" 
d="M668 772v-760q0 -12 -13 -12h-20q-12 0 -12 12v760q0 270 -195 270q-115 0 -191 -91q-77 -92 -77 -238v-699q0 -14 -13 -14h-20q-12 0 -12 12v1409q0 13 12 13h20q13 0 13 -13v-532q28 79 96 138q67 58 172 58q122 0 181 -84q59 -85 59 -229zM526 1540l-137 146
l-137 -146q-8 -8 -14 -8h-15q-15 0 -8 12l137 170q10 15 25 15h24q15 0 25 -15l137 -170q8 -12 -8 -12h-14q-7 0 -15 8z" />
    <glyph glyph-name="Hbar" unicode="&#x126;" horiz-adv-x="892" 
d="M719 12v701h-545v-701q0 -12 -12 -12h-23q-12 0 -12 12v1112h-78q-12 0 -12 13v14q0 12 12 12h78v258q0 13 12 13h23q12 0 12 -13v-258h545v258q0 13 12 13h23q12 0 12 -11v-260h78q12 0 12 -12v-14q0 -13 -12 -13h-78v-1112q0 -12 -12 -12h-23q-12 0 -12 12zM174 758
h545v366h-545v-366z" />
    <glyph glyph-name="hbar" unicode="&#x127;" horiz-adv-x="778" 
d="M668 772v-760q0 -12 -13 -12h-20q-12 0 -12 12v760q0 270 -195 270q-115 0 -191 -91q-77 -92 -77 -238v-701q0 -12 -13 -12h-20q-12 0 -12 12v1213h-74q-12 0 -12 12v14q0 13 12 13h74v157q0 13 12 13h20q13 0 13 -13v-157h200q13 0 13 -13v-14q0 -12 -13 -12h-200v-336
q28 79 96 138q67 58 172 58q122 0 181 -84q59 -85 59 -229z" />
    <glyph glyph-name="Itilde" unicode="&#x128;" horiz-adv-x="319" 
d="M137 12v1409q0 13 13 13h22q12 0 12 -13v-1409q0 -12 -12 -12h-22q-13 0 -13 12zM362 1640q0 -51 -28 -82q-29 -32 -72 -32q-44 0 -90 37l-59 43q-52 31 -80 13q-29 -18 -35 -56l-2 -17q-1 -14 -14 -14h-11q-14 0 -14 14q0 50 29 85q28 34 71 34q44 0 90 -37l50 -37
q32 -26 63 -26q25 0 41 16q17 17 21 43l2 16q2 15 14 15h10q14 0 14 -15z" />
    <glyph glyph-name="itilde" unicode="&#x129;" horiz-adv-x="299" 
d="M172 1057v-1045q0 -12 -12 -12h-21q-12 0 -12 12v1045q0 12 12 12h21q12 0 12 -12zM348 1300q0 -52 -26 -82q-27 -32 -70 -32q-44 0 -90 37l-53 39q-37 24 -60 24q-27 0 -41 -20t-16 -43l-2 -17q-1 -14 -15 -14h-10q-14 0 -14 14q0 52 26 85q27 34 70 34q44 0 90 -37
l49 -37q33 -26 64 -26q25 0 40 19q16 20 17 40l2 16q1 15 15 15h10q14 0 14 -15z" />
    <glyph glyph-name="Imacron" unicode="&#x12a;" horiz-adv-x="319" 
d="M137 12v1409q0 13 13 13h22q12 0 12 -13v-1409q0 -12 -12 -12h-22q-13 0 -13 12zM324 1532h-328q-12 0 -12 12v15q0 12 12 12h328q12 0 12 -12v-15q0 -12 -12 -12z" />
    <glyph glyph-name="imacron" unicode="&#x12b;" horiz-adv-x="299" 
d="M172 1057v-1045q0 -12 -12 -12h-21q-12 0 -12 12v1045q0 12 12 12h21q12 0 12 -12zM309 1208h-319q-13 0 -13 13v14q0 12 13 12h319q13 0 13 -12v-14q0 -13 -13 -13z" />
    <glyph glyph-name="Ibreve" unicode="&#x12c;" horiz-adv-x="319" 
d="M137 12v1409q0 13 13 13h22q12 0 12 -13v-1409q0 -12 -12 -12h-22q-13 0 -13 12zM160 1520q-82 0 -129 48q-46 48 -51 118q0 12 12 12h18q13 0 13 -12q15 -123 137 -123t137 123q0 12 12 12h19q12 0 12 -12q-5 -70 -51 -118q-47 -48 -129 -48z" />
    <glyph glyph-name="ibreve" unicode="&#x12d;" horiz-adv-x="299" 
d="M172 1057v-1045q0 -12 -12 -12h-21q-12 0 -12 12v1045q0 12 12 12h21q12 0 12 -12zM150 1188q-84 0 -130 48t-51 118q0 12 13 12h18q12 0 12 -12q16 -123 138 -123q120 0 137 123q0 12 12 12h18q13 0 13 -12q-5 -70 -51 -118q-47 -48 -129 -48z" />
    <glyph glyph-name="Iogonek" unicode="&#x12e;" horiz-adv-x="319" 
d="M172 0h-18q-113 -80 -113 -170q0 -66 84 -66q3 0 25 2q11 1 22 1q12 0 12 -13v-14q0 -10 -10 -16q-17 -7 -55 -7q-125 0 -125 107q0 116 143 192v1405q0 13 13 13h22q12 0 12 -13v-1409q0 -12 -12 -12z" />
    <glyph glyph-name="iogonek" unicode="&#x12f;" horiz-adv-x="299" 
d="M172 1057v-1045q0 -12 -12 -12h-15q-106 -78 -106 -166q0 -61 76 -61h39q12 0 12 -13v-12q0 -10 -10 -16q-15 -6 -47 -6q-117 0 -117 102q0 112 135 188v1041q0 12 12 12h21q12 0 12 -12zM176 1393v-146q0 -12 -12 -12h-29q-12 0 -12 12v146q0 12 12 12h29q12 0 12 -12z
" />
    <glyph glyph-name="Idotaccent" unicode="&#x130;" horiz-adv-x="319" 
d="M137 12v1409q0 13 13 13h22q12 0 12 -13v-1409q0 -12 -12 -12h-22q-13 0 -13 12zM186 1628v-84q0 -12 -12 -12h-29q-12 0 -12 12v84q0 12 12 12h29q12 0 12 -12z" />
    <glyph glyph-name="dotlessi" unicode="&#x131;" horiz-adv-x="299" 
d="M172 1057v-1045q0 -12 -12 -12h-21q-12 0 -12 12v1045q0 12 12 12h21q12 0 12 -12z" />
    <glyph glyph-name="IJ" unicode="&#x132;" horiz-adv-x="864" 
d="M137 12v1409q0 13 13 13h22q12 0 12 -13v-1409q0 -12 -12 -12h-22q-13 0 -13 12zM690 285v1136q0 13 12 13h23q12 0 12 -13v-1138q0 -163 -52 -227t-171 -64q-74 0 -127 20q-14 4 -14 19v14q0 16 16 12q54 -20 125 -20q95 0 136 53q40 52 40 195z" />
    <glyph glyph-name="ij" unicode="&#x133;" horiz-adv-x="610" 
d="M172 1057v-1045q0 -12 -12 -12h-21q-12 0 -12 12v1045q0 12 12 12h21q12 0 12 -12zM176 1393v-146q0 -12 -12 -12h-29q-12 0 -12 12v146q0 12 12 12h29q12 0 12 -12zM438 184v873q0 12 13 12h20q12 0 12 -12v-875q0 -101 -28 -145q-29 -45 -105 -45q-17 0 -33 2
q-14 1 -14 18v15q0 14 14 10q14 -2 35 -2q51 0 69 34q17 33 17 115zM487 1393v-146q0 -12 -12 -12h-29q-12 0 -12 12v146q0 12 12 12h29q12 0 12 -12z" />
    <glyph glyph-name="Jcircumflex" unicode="&#x134;" horiz-adv-x="544" 
d="M371 285v1136q0 13 12 13h23q12 0 12 -13v-1138q0 -163 -52 -227t-171 -64q-74 0 -127 20q-15 4 -15 19v14q0 17 17 12q54 -20 125 -20q95 0 136 53q40 52 40 195zM430 1540l-137 146l-137 -146q-8 -8 -15 -8h-14q-15 0 -8 12l137 170q11 15 25 15h24q15 0 25 -15
l137 -170q7 -12 -8 -12h-15q-6 0 -14 8z" />
    <glyph glyph-name="jcircumflex" unicode="&#x135;" horiz-adv-x="311" 
d="M139 -41v1098q0 12 13 12h20q12 0 12 -12v-1100q0 -101 -28 -145q-28 -45 -105 -45q-17 0 -33 2q-14 1 -14 18v14q0 15 14 11q8 -2 35 -2q52 0 69 33t17 116zM289 1200l-133 158l-133 -158q-8 -8 -15 -8h-14q-16 0 -8 12l133 182q11 15 24 15h25q14 0 25 -15l133 -182
q8 -12 -9 -12h-14q-6 0 -14 8z" />
    <glyph glyph-name="Kcommaaccent" unicode="&#x136;" horiz-adv-x="757" 
d="M174 764l483 659q6 11 17 11h33q17 0 6 -15l-504 -682l516 -723q10 -14 -6 -14h-33q-10 0 -16 10l-496 699v-697q0 -12 -12 -12h-23q-12 0 -12 12v1409q0 13 12 13h23q12 0 12 -13v-657zM459 -233l-37 -158q-4 -12 -14 -12h-9q-14 0 -10 14l29 158h-27q-12 0 -12 12v92
q0 12 12 12h58q12 0 12 -12v-90q0 -6 -2 -16z" />
    <glyph glyph-name="kcommaaccent" unicode="&#x137;" horiz-adv-x="643" 
d="M596 0h-21q-19 0 -26 12l-389 563v-563q0 -12 -13 -12h-20q-12 0 -12 12v1409q0 13 12 13h20q13 0 13 -13v-811l377 447q12 12 26 12h21q10 0 12 -6t-4 -12l-389 -457l401 -576q15 -18 -8 -18zM393 -233l-37 -142q-4 -12 -14 -12h-8q-14 0 -10 14l28 142h-26
q-13 0 -13 12v92q0 12 13 12h57q12 0 12 -12v-90q0 -6 -2 -16z" />
    <glyph glyph-name="kgreenlandic" unicode="&#x138;" horiz-adv-x="638" 
d="M592 0h-21q-19 0 -26 12l-389 563v-563q0 -12 -13 -12h-20q-12 0 -12 12v1045q0 12 12 12h20q13 0 13 -12v-447l376 447q12 12 27 12h21q10 0 12 -6t-4 -12l-389 -457l401 -576q15 -18 -8 -18z" />
    <glyph glyph-name="Lacute" unicode="&#x139;" horiz-adv-x="663" 
d="M174 1421v-1376h416q12 0 12 -14v-19q0 -12 -12 -12h-451q-12 0 -12 12v1409q0 13 12 13h23q12 0 12 -13zM141 1544l109 162q10 16 24 16h33q23 0 8 -18l-139 -164q-6 -8 -14 -8h-15q-14 0 -6 12z" />
    <glyph glyph-name="lacute" unicode="&#x13a;" horiz-adv-x="299" 
d="M172 1421v-1409q0 -12 -12 -12h-21q-12 0 -12 12v1409q0 13 12 13h21q12 0 12 -13zM137 1544l109 162q10 16 24 16h33q23 0 8 -18l-139 -164q-6 -8 -14 -8h-15q-13 0 -6 12z" />
    <glyph glyph-name="Lcommaaccent" unicode="&#x13b;" horiz-adv-x="663" 
d="M174 1421v-1376h416q12 0 12 -14v-19q0 -12 -12 -12h-451q-12 0 -12 12v1409q0 13 12 13h23q12 0 12 -13zM412 -233l-37 -158q-1 -12 -15 -12h-8q-14 0 -10 14l29 158h-27q-12 0 -12 12v92q0 12 12 12h57q13 0 13 -12v-90q0 -6 -2 -16z" />
    <glyph glyph-name="lcommaaccent" unicode="&#x13c;" horiz-adv-x="299" 
d="M172 1421v-1409q0 -12 -12 -12h-21q-12 0 -12 12v1409q0 13 12 13h21q12 0 12 -13zM188 -233l-36 -142q-4 -12 -15 -12h-8q-14 0 -10 14l28 142h-26q-12 0 -12 12v92q0 12 12 12h57q12 0 12 -12v-90q0 -6 -2 -16z" />
    <glyph glyph-name="Lcaron" unicode="&#x13d;" horiz-adv-x="663" 
d="M174 1421v-1376h416q12 0 12 -14v-19q0 -12 -12 -12h-451q-12 0 -12 12v1409q0 13 12 13h23q12 0 12 -13zM444 1335l-38 -170q-4 -12 -15 -12h-8q-14 0 -10 14l33 170h-25q-12 0 -12 13v112q0 13 12 13h53q12 0 12 -13v-110q0 -7 -2 -17z" />
    <glyph glyph-name="lcaron" unicode="&#x13e;" horiz-adv-x="368" 
d="M172 1421v-1409q0 -12 -12 -12h-21q-12 0 -12 12v1409q0 13 12 13h21q12 0 12 -13zM362 1335l-38 -170q-4 -12 -15 -12h-8q-14 0 -10 14l33 170h-25q-12 0 -12 13v112q0 13 12 13h53q13 0 13 -13v-110q0 -2 -3 -17z" />
    <glyph glyph-name="Ldot" unicode="&#x13f;" horiz-adv-x="663" 
d="M174 1421v-1376h416q12 0 12 -14v-19q0 -12 -12 -12h-451q-12 0 -12 12v1409q0 13 12 13h23q12 0 12 -13zM524 563v113q0 12 13 12h53q12 0 12 -12v-113q0 -12 -12 -12h-53q-13 0 -13 12z" />
    <glyph glyph-name="ldot" unicode="&#x140;" horiz-adv-x="405" 
d="M164 1421v-1409q0 -12 -12 -12h-21q-12 0 -12 12v1409q0 13 12 13h21q12 0 12 -13zM299 477v113q0 12 12 12h54q12 0 12 -12v-113q0 -12 -12 -12h-54q-12 0 -12 12z" />
    <glyph glyph-name="Lslash" unicode="&#x141;" horiz-adv-x="667" 
d="M178 1421v-676l203 117q10 6 16 -6l9 -12q6 -10 -7 -17l-221 -129v-653h416q12 0 12 -12v-21q0 -12 -12 -12h-451q-12 0 -12 12v660l-88 -51q-12 -6 -18 4l-7 14q-6 10 5 16l108 62v704q0 13 12 13h23q12 0 12 -13z" />
    <glyph glyph-name="lslash" unicode="&#x142;" horiz-adv-x="307" 
d="M176 1421v-678l88 52q11 6 17 -7l8 -12q6 -10 -6 -16l-107 -62v-686q0 -12 -12 -12h-21q-12 0 -12 12v660l-88 -51q-12 -6 -18 4l-7 14q-6 10 5 16l108 62v704q0 13 12 13h21q12 0 12 -13z" />
    <glyph glyph-name="Nacute" unicode="&#x143;" horiz-adv-x="913" 
d="M786 1419v-1407q0 -12 -12 -12h-20q-13 0 -19 12l-561 1309v-1309q0 -12 -12 -12h-23q-12 0 -12 12v1409q0 13 12 13h21q12 0 18 -13l561 -1308v1308q0 13 13 13h22q12 0 12 -15zM430 1544l109 162q10 16 24 16h33q23 0 8 -18l-139 -164q-6 -8 -14 -8h-15q-14 0 -6 12z
" />
    <glyph glyph-name="nacute" unicode="&#x144;" horiz-adv-x="774" 
d="M664 772v-760q0 -12 -13 -12h-20q-13 0 -13 12v760q0 270 -194 270q-116 0 -193 -95q-75 -93 -75 -236v-699q0 -12 -13 -12h-20q-12 0 -12 12v1045q0 12 12 12h20q13 0 13 -12v-172q23 73 94 138q68 62 174 62q122 0 181 -84q59 -85 59 -229zM379 1204l113 172
q11 17 24 17h33q24 0 8 -19l-143 -174q-6 -8 -15 -8h-14q-14 0 -6 12z" />
    <glyph glyph-name="Ncommaaccent" unicode="&#x145;" horiz-adv-x="913" 
d="M786 1419v-1407q0 -12 -12 -12h-20q-13 0 -19 12l-561 1309v-1309q0 -12 -12 -12h-23q-12 0 -12 12v1409q0 13 12 13h21q12 0 18 -13l561 -1308v1308q0 13 13 13h22q12 0 12 -15zM496 -233l-37 -158q-5 -12 -15 -12h-8q-14 0 -10 14l29 158h-27q-12 0 -12 12v92
q0 12 12 12h57q13 0 13 -12v-90q0 -6 -2 -16z" />
    <glyph glyph-name="ncommaaccent" unicode="&#x146;" horiz-adv-x="774" 
d="M664 772v-760q0 -12 -13 -12h-20q-13 0 -13 12v760q0 270 -194 270q-116 0 -193 -95q-75 -93 -75 -236v-699q0 -12 -13 -12h-20q-12 0 -12 12v1045q0 12 12 12h20q13 0 13 -12v-172q23 73 94 138q68 62 174 62q122 0 181 -84q59 -85 59 -229zM426 -233l-37 -142
q-5 -12 -14 -12h-8q-15 0 -11 14l29 142h-27q-12 0 -12 12v92q0 12 12 12h58q12 0 12 -12v-90q0 -6 -2 -16z" />
    <glyph glyph-name="Ncaron" unicode="&#x147;" horiz-adv-x="913" 
d="M786 1419v-1407q0 -12 -12 -12h-20q-13 0 -19 12l-561 1309v-1309q0 -12 -12 -12h-23q-12 0 -12 12v1409q0 13 12 13h21q12 0 18 -13l561 -1308v1308q0 13 13 13h22q12 0 12 -15zM457 1575l137 145q9 9 14 9h15q16 0 8 -13l-137 -170q-10 -14 -25 -14h-25q-14 0 -24 14
l-137 170q-8 13 8 13h14q5 0 14 -9z" />
    <glyph glyph-name="ncaron" unicode="&#x148;" horiz-adv-x="774" 
d="M664 772v-760q0 -12 -13 -12h-20q-13 0 -13 12v760q0 270 -194 270q-116 0 -193 -95q-75 -93 -75 -236v-699q0 -12 -13 -12h-20q-12 0 -12 12v1045q0 12 12 12h20q13 0 13 -12v-172q23 73 94 138q68 62 174 62q122 0 181 -84q59 -85 59 -229zM408 1235l133 158q8 8 14 8
h14q17 0 9 -12l-134 -183q-10 -14 -24 -14h-25q-14 0 -24 14l-133 183q-8 12 8 12h14q6 0 14 -8z" />
    <glyph glyph-name="napostrophe" unicode="&#x149;" horiz-adv-x="827" 
d="M717 772v-760q0 -12 -12 -12h-21q-12 0 -12 12v760q0 270 -195 270q-115 0 -192 -95q-76 -94 -76 -236v-699q0 -12 -12 -12h-21q-12 0 -12 12v1045q0 12 12 12h21q12 0 12 -12v-172q23 73 94 138q68 62 174 62q123 0 181 -84q59 -85 59 -229zM68 1335l-39 -170
q-5 -12 -15 -12h-8q-14 0 -10 14l33 170h-25q-12 0 -12 13v112q0 13 12 13h53q13 0 13 -13v-110q0 -7 -2 -17z" />
    <glyph glyph-name="Eng" unicode="&#x14a;" horiz-adv-x="913" 
d="M786 1421v-1366q0 -163 -47 -228t-151 -65q-59 0 -111 19q-14 4 -14 18v15q0 16 16 12q54 -19 109 -19q72 0 108 45q35 44 41 154l-563 1315v-1309q0 -12 -12 -12h-23q-12 0 -12 12v1409q0 13 12 13h21q12 0 18 -13l561 -1308v1308q0 13 13 13h22q12 0 12 -13z" />
    <glyph glyph-name="eng" unicode="&#x14b;" horiz-adv-x="774" 
d="M618 -41v813q0 270 -194 270q-116 0 -193 -95q-75 -93 -75 -238v-697q0 -12 -13 -12h-20q-12 0 -12 12v1045q0 12 12 12h20q13 0 13 -12v-172q23 73 94 138q68 62 174 62q122 0 181 -84q59 -85 59 -229v-815q0 -99 -29 -145q-29 -45 -105 -45q-16 0 -32 2q-15 1 -15 18
v14q0 11 13 11q7 0 13 -1t15 -1q56 0 75 28t19 121z" />
    <glyph glyph-name="Omacron" unicode="&#x14c;" horiz-adv-x="937" 
d="M469 1450q199 0 289 -167t90 -566q0 -400 -90 -566q-90 -167 -287 -167q-198 0 -290 167q-91 166 -91 566q0 399 90 566t289 167zM469 27q174 0 252 156t78 534q0 377 -78 533q-79 157 -252 157t-252 -157q-78 -156 -78 -533q0 -378 78 -534t252 -156zM633 1532h-328
q-12 0 -12 12v15q0 12 12 12h328q12 0 12 -12v-15q0 -12 -12 -12z" />
    <glyph glyph-name="omacron" unicode="&#x14d;" horiz-adv-x="753" 
d="M377 -16q164 0 233 135q70 137 70 416q0 278 -70 415q-69 135 -233 135q-165 0 -234 -135t-69 -415q0 -281 69 -416t234 -135zM377 27q-137 0 -197 124q-59 122 -59 384t59 384q59 123 197 123q137 0 196 -123q60 -125 60 -384t-60 -384q-60 -124 -196 -124zM537 1208
h-320q-12 0 -12 13v14q0 12 12 12h320q12 0 12 -12v-14q0 -13 -12 -13z" />
    <glyph glyph-name="Obreve" unicode="&#x14e;" horiz-adv-x="937" 
d="M469 1450q199 0 289 -167t90 -566q0 -400 -90 -566q-90 -167 -287 -167q-198 0 -290 167q-91 166 -91 566q0 399 90 566t289 167zM469 27q174 0 252 156t78 534q0 377 -78 533q-79 157 -252 157t-252 -157q-78 -156 -78 -533q0 -378 78 -534t252 -156zM469 1520
q-83 0 -129 48t-51 118q0 12 12 12h18q13 0 13 -12q17 -123 137 -123q121 0 137 123q0 12 12 12h19q12 0 12 -12q-5 -70 -51 -118t-129 -48z" />
    <glyph glyph-name="obreve" unicode="&#x14f;" horiz-adv-x="753" 
d="M377 -16q-165 0 -234 135t-69 416q0 280 69 415t234 135q164 0 233 -135q70 -137 70 -415q0 -279 -70 -416q-69 -135 -233 -135zM377 27q136 0 196 124q60 125 60 384t-60 384q-59 123 -196 123q-138 0 -197 -123q-59 -122 -59 -384t59 -384q60 -124 197 -124zM377 1188
q-83 0 -129 48t-51 118q0 12 12 12h18q13 0 13 -12q15 -123 137 -123t137 123q0 12 12 12h19q12 0 12 -12q-5 -70 -51 -118t-129 -48z" />
    <glyph glyph-name="Ohungarumlaut" unicode="&#x150;" horiz-adv-x="937" 
d="M469 1450q199 0 289 -167t90 -566q0 -400 -90 -566q-90 -167 -287 -167q-198 0 -290 167q-91 166 -91 566q0 399 90 566t289 167zM469 27q174 0 252 156t78 534q0 377 -78 533q-79 157 -252 157t-252 -157q-78 -156 -78 -533q0 -378 78 -534t252 -156zM362 1544l93 160
q10 16 24 16h31q23 0 8 -18l-121 -162q-6 -8 -14 -8h-14q-15 0 -7 12zM557 1544l92 160q10 16 25 16h31q23 0 8 -18l-121 -162q-6 -8 -14 -8h-15q-13 0 -6 12z" />
    <glyph glyph-name="ohungarumlaut" unicode="&#x151;" horiz-adv-x="753" 
d="M377 -16q164 0 233 135q70 137 70 416q0 278 -70 415q-69 135 -233 135q-165 0 -234 -135t-69 -415q0 -281 69 -416t234 -135zM377 27q-137 0 -197 124q-59 122 -59 384t59 384q59 123 197 123q137 0 196 -123q60 -125 60 -384t-60 -384q-60 -124 -196 -124zM268 1204
l97 172q11 17 24 17h31q24 0 8 -19l-125 -174q-6 -8 -14 -8h-15q-14 0 -6 12zM463 1204l96 172q11 17 25 17h30q25 0 9 -19l-125 -174q-6 -8 -15 -8h-14q-13 0 -6 12z" />
    <glyph glyph-name="OE" unicode="&#x152;" horiz-adv-x="1269" 
d="M1159 713h-424v-668h441q12 0 12 -12v-21q0 -12 -12 -12h-627q-90 0 -154 20q-68 21 -127 70q-60 49 -97 130q-38 82 -59 206q-22 130 -22 291q0 204 32 349q31 140 95 221q62 78 143 113q78 34 191 34h620q13 0 13 -13v-20q0 -12 -13 -12h-436v-631h424q12 0 12 -13v-20
q0 -12 -12 -12zM688 1389h-137q-133 0 -219 -56q-87 -56 -139 -207q-54 -156 -54 -409q0 -254 54 -411q52 -152 139 -208q85 -55 219 -55h137v1346z" />
    <glyph glyph-name="oe" unicode="&#x153;" horiz-adv-x="1228" 
d="M950 27q93 0 168 28q15 5 15 -10v-12q0 -17 -15 -21q-75 -28 -170 -28q-134 0 -207 66t-102 210q-27 -140 -92 -208t-180 -68q-156 0 -225 135q-68 133 -68 416q0 282 68 415q69 135 225 135q219 0 272 -276q53 276 266 276q140 0 197 -129t57 -376v-58q0 -12 -12 -12
h-483q5 -257 67 -370t219 -113zM367 27q133 0 191 124q58 123 58 384t-58 384t-191 123t-189 -123q-57 -125 -57 -384t57 -384q57 -124 189 -124zM905 1042q-127 0 -183 -120t-58 -369h448v27q0 226 -45 345q-44 117 -162 117z" />
    <glyph glyph-name="Racute" unicode="&#x154;" horiz-adv-x="835" 
d="M174 582h176q188 0 265 86t77 317q0 233 -77 319q-76 85 -279 85h-162v-807zM139 1434h197q227 0 316 -98t89 -351q0 -227 -68 -326q-69 -100 -235 -118l277 -527q6 -14 -8 -14h-27q-10 0 -16 10l-277 527h-213v-525q0 -12 -12 -12h-23q-12 0 -12 12v1409q0 13 12 13z
M371 1544l108 162q10 16 25 16h33q23 0 8 -18l-139 -164q-6 -8 -15 -8h-14q-13 0 -6 12z" />
    <glyph glyph-name="racute" unicode="&#x155;" horiz-adv-x="466" 
d="M123 1069h20q13 0 13 -12v-189q17 89 85 153t162 64q27 0 27 -18v-14q0 -17 -14 -17q-8 0 -16 1t-15 1q-91 0 -160 -97t-69 -249v-680q0 -12 -13 -12h-20q-12 0 -12 12v1045q0 12 12 12zM205 1204l112 172q11 17 25 17h33q24 0 8 -19l-143 -174q-6 -8 -15 -8h-14
q-13 0 -6 12z" />
    <glyph glyph-name="Rcommaaccent" unicode="&#x156;" horiz-adv-x="835" 
d="M174 582h176q188 0 265 86t77 317q0 233 -77 319q-76 85 -279 85h-162v-807zM139 1434h197q227 0 316 -98t89 -351q0 -227 -68 -326q-69 -100 -235 -118l277 -527q6 -14 -8 -14h-27q-10 0 -16 10l-277 527h-213v-525q0 -12 -12 -12h-23q-12 0 -12 12v1409q0 13 12 13z
M457 -233l-37 -158q-2 -12 -14 -12h-9q-14 0 -10 14l29 158h-27q-12 0 -12 12v92q0 12 12 12h57q13 0 13 -12v-90q0 -6 -2 -16z" />
    <glyph glyph-name="rcommaaccent" unicode="&#x157;" horiz-adv-x="466" 
d="M123 1069h20q13 0 13 -12v-189q17 89 85 153t162 64q27 0 27 -18v-14q0 -17 -14 -17q-8 0 -16 1t-15 1q-91 0 -160 -97t-69 -249v-680q0 -12 -13 -12h-20q-12 0 -12 12v1045q0 12 12 12zM172 -233l-37 -142q-5 -12 -14 -12h-8q-15 0 -11 14l29 142h-27q-12 0 -12 12v92
q0 12 12 12h58q12 0 12 -12v-90q0 -6 -2 -16z" />
    <glyph glyph-name="Rcaron" unicode="&#x158;" horiz-adv-x="835" 
d="M174 582h176q188 0 265 86t77 317q0 233 -77 319q-76 85 -279 85h-162v-807zM139 1434h197q227 0 316 -98t89 -351q0 -227 -68 -326q-69 -100 -235 -118l277 -527q6 -14 -8 -14h-27q-10 0 -16 10l-277 527h-213v-525q0 -12 -12 -12h-23q-12 0 -12 12v1409q0 13 12 13z
M418 1575l137 145q9 9 14 9h15q16 0 8 -13l-137 -170q-10 -14 -25 -14h-24q-15 0 -25 14l-137 170q-8 13 8 13h14q6 0 15 -9z" />
    <glyph glyph-name="rcaron" unicode="&#x159;" horiz-adv-x="466" 
d="M123 1069h20q13 0 13 -12v-189q17 89 85 153t162 64q27 0 27 -18v-14q0 -17 -14 -17q-8 0 -16 1t-15 1q-91 0 -160 -97t-69 -249v-680q0 -12 -13 -12h-20q-12 0 -12 12v1045q0 12 12 12zM233 1235l134 158q8 8 14 8h14q15 0 8 -12l-133 -183q-10 -14 -24 -14h-25
q-14 0 -24 14l-134 183q-7 12 9 12h14q6 0 14 -8z" />
    <glyph glyph-name="Sacute" unicode="&#x15a;" horiz-adv-x="679" 
d="M598 315q0 -335 -313 -335q-103 0 -191 22q-14 4 -14 18v15q0 16 16 12q81 -22 189 -22q266 0 266 290q0 77 -17 134q-17 58 -60 111q-39 48 -74 82q-32 31 -95 83q-111 94 -172 183q-59 87 -59 227q0 151 67 233t230 82q86 0 164 -23q14 -4 14 -18v-14q0 -18 -17 -13
q-81 23 -163 23q-137 0 -193 -69q-55 -68 -55 -201q0 -124 53 -206q52 -80 160 -167q57 -46 100 -86q28 -25 79 -88q46 -56 66 -124q19 -64 19 -149zM313 1544l109 162q10 16 24 16h33q23 0 8 -18l-139 -164q-6 -8 -14 -8h-15q-14 0 -6 12z" />
    <glyph glyph-name="sacute" unicode="&#x15b;" horiz-adv-x="610" 
d="M549 270q0 -134 -69 -211q-68 -75 -206 -75q-116 0 -198 30q-15 4 -15 21v12q0 15 17 10q92 -30 196 -30q230 0 230 243q0 30 -5 60q-4 23 -19 50q-18 31 -23 39q-11 16 -37 36l-40 30q-15 11 -50 34q-28 18 -51 34q-64 44 -109 80q-37 29 -68 84q-30 53 -30 119
q0 249 264 249q74 0 153 -20q15 -5 15 -18v-13q0 -17 -17 -12q-69 20 -151 20q-219 0 -219 -206q0 -56 24 -99q21 -38 54 -66q26 -22 92 -69q11 -7 20 -14q4 -3 12.5 -8.5t23.5 -15.5t26 -18q47 -32 61 -43q18 -15 46 -41q32 -30 42 -52t21 -60q10 -36 10 -80zM276 1204
l113 172q11 17 25 17h32q25 0 9 -19l-144 -174q-6 -8 -14 -8h-14q-15 0 -7 12z" />
    <glyph glyph-name="Scircumflex" unicode="&#x15c;" horiz-adv-x="679" 
d="M598 315q0 -335 -313 -335q-103 0 -191 22q-14 4 -14 18v15q0 16 16 12q81 -22 189 -22q266 0 266 290q0 77 -17 134q-17 58 -60 111q-39 48 -74 82q-32 31 -95 83q-111 94 -172 183q-59 87 -59 227q0 151 67 233t230 82q86 0 164 -23q14 -4 14 -18v-14q0 -18 -17 -13
q-81 23 -163 23q-137 0 -193 -69q-55 -68 -55 -201q0 -124 53 -206q52 -80 160 -167q57 -46 100 -86q28 -25 79 -88q46 -56 66 -124q19 -64 19 -149zM489 1540l-137 146l-137 -146q-8 -8 -14 -8h-15q-16 0 -8 12l137 170q11 15 25 15h25q14 0 24 -15l137 -170q7 -12 -8 -12
h-14q-7 0 -15 8z" />
    <glyph glyph-name="scircumflex" unicode="&#x15d;" horiz-adv-x="610" 
d="M549 270q0 -134 -69 -211q-68 -75 -206 -75q-116 0 -198 30q-15 4 -15 21v12q0 15 17 10q92 -30 196 -30q230 0 230 243q0 30 -5 60q-4 23 -19 50q-18 31 -23 39q-11 16 -37 36l-40 30q-15 11 -50 34q-28 18 -51 34q-64 44 -109 80q-37 29 -68 84q-30 53 -30 119
q0 249 264 249q74 0 153 -20q15 -5 15 -18v-13q0 -17 -17 -12q-69 20 -151 20q-219 0 -219 -206q0 -56 24 -99q21 -38 54 -66q26 -22 92 -69q11 -7 20 -14q4 -3 12.5 -8.5t23.5 -15.5t26 -18q47 -32 61 -43q18 -15 46 -41q32 -30 42 -52t21 -60q10 -36 10 -80zM438 1200
l-133 158l-133 -158q-8 -8 -14 -8h-15q-15 0 -8 12l133 182q10 15 25 15h24q15 0 25 -15l133 -182q7 -12 -8 -12h-14q-7 0 -15 8z" />
    <glyph glyph-name="Scedilla" unicode="&#x15e;" horiz-adv-x="679" 
d="M598 315q0 -270 -201 -321q105 -78 105 -170q0 -107 -125 -107q-36 0 -55 7q-11 6 -11 16v12q0 12 13 12h47q84 0 84 66q0 84 -95 156q-33 -6 -75 -6q-103 0 -191 22q-14 4 -14 18v15q0 16 16 12q81 -22 189 -22q266 0 266 290q0 77 -17 134q-17 58 -60 111
q-39 48 -74 82q-32 31 -95 83q-111 94 -172 183q-59 87 -59 227q0 151 67 233t230 82q86 0 164 -23q14 -4 14 -18v-14q0 -18 -17 -13q-81 23 -163 23q-137 0 -193 -69q-55 -68 -55 -201q0 -124 53 -206q52 -80 160 -167q57 -46 100 -86q28 -25 79 -88q46 -56 66 -124
q19 -64 19 -149z" />
    <glyph glyph-name="scedilla" unicode="&#x15f;" horiz-adv-x="610" 
d="M549 270q0 -260 -232 -284q91 -74 91 -158q0 -102 -117 -102q-32 0 -47 6q-11 6 -11 16v12q0 13 13 13h39q75 0 75 61q0 76 -86 150q-116 0 -198 30q-15 4 -15 21v12q0 15 17 10q92 -30 196 -30q230 0 230 243q0 30 -5 60q-4 23 -19 50q-18 31 -23 39q-11 16 -37 36
l-40 30q-15 11 -50 34q-28 18 -51 34q-64 44 -109 80q-37 29 -68 84q-30 53 -30 119q0 249 264 249q74 0 153 -20q15 -5 15 -18v-13q0 -17 -17 -12q-69 20 -151 20q-219 0 -219 -206q0 -56 24 -99q21 -38 54 -66q26 -22 92 -69q11 -7 20 -14q4 -3 12.5 -8.5t23.5 -15.5
t26 -18q47 -32 61 -43q18 -15 46 -41q32 -30 42 -52t21 -60q10 -36 10 -80z" />
    <glyph glyph-name="Scaron" unicode="&#x160;" horiz-adv-x="679" 
d="M598 315q0 -335 -313 -335q-103 0 -191 22q-14 4 -14 18v15q0 16 16 12q81 -22 189 -22q266 0 266 290q0 77 -17 134q-17 58 -60 111q-39 48 -74 82q-32 31 -95 83q-111 94 -172 183q-59 87 -59 227q0 151 67 233t230 82q86 0 164 -23q14 -4 14 -18v-14q0 -18 -17 -13
q-81 23 -163 23q-137 0 -193 -69q-55 -68 -55 -201q0 -124 53 -206q52 -80 160 -167q57 -46 100 -86q28 -25 79 -88q46 -56 66 -124q19 -64 19 -149zM360 1575l138 145q9 9 14 9h14q17 0 9 -13l-138 -170q-10 -14 -24 -14h-25q-14 0 -24 14l-138 170q-8 13 9 13h14
q5 0 14 -9z" />
    <glyph glyph-name="scaron" unicode="&#x161;" horiz-adv-x="610" 
d="M549 270q0 -134 -69 -211q-68 -75 -206 -75q-116 0 -198 30q-15 4 -15 21v12q0 15 17 10q92 -30 196 -30q230 0 230 243q0 30 -5 60q-4 23 -19 50q-18 31 -23 39q-11 16 -37 36l-40 30q-15 11 -50 34q-28 18 -51 34q-64 44 -109 80q-37 29 -68 84q-30 53 -30 119
q0 249 264 249q74 0 153 -20q15 -5 15 -18v-13q0 -17 -17 -12q-69 20 -151 20q-219 0 -219 -206q0 -56 24 -99q21 -38 54 -66q26 -22 92 -69q11 -7 20 -14q4 -3 12.5 -8.5t23.5 -15.5t26 -18q47 -32 61 -43q18 -15 46 -41q32 -30 42 -52t21 -60q10 -36 10 -80zM305 1235
l133 158q8 8 15 8h14q15 0 8 -12l-133 -183q-10 -14 -25 -14h-24q-15 0 -25 14l-133 183q-7 12 8 12h15q6 0 14 -8z" />
    <glyph glyph-name="Tcommaaccent" unicode="&#x162;" horiz-adv-x="661" 
d="M49 1401v20q0 13 14 13h537q12 0 12 -13v-20q0 -12 -12 -12h-246v-1377q0 -12 -12 -12h-23q-12 0 -12 12v1377h-246q-12 0 -12 12zM369 -233l-37 -158q-4 -12 -15 -12h-8q-14 0 -10 14l29 158h-27q-12 0 -12 12v92q0 12 12 12h57q13 0 13 -12v-90q0 -6 -2 -16z" />
    <glyph glyph-name="tcommaaccent" unicode="&#x163;" horiz-adv-x="491" 
d="M410 1026h-193v-782q0 -123 29 -167t102 -44q34 0 64 6q14 4 14 -10v-13q0 -19 -14 -20q-27 -6 -66 -6q-92 0 -133 53t-41 197v786h-119q-12 0 -12 12v19q0 12 12 12h119v266q0 13 12 13h21q12 0 12 -13v-266h193q12 0 12 -12v-19q0 -12 -12 -12zM326 -233l-37 -142
q-1 -12 -15 -12h-8q-14 0 -10 14l29 142h-27q-12 0 -12 12v92q0 12 12 12h57q13 0 13 -12v-90q0 -6 -2 -16z" />
    <glyph glyph-name="Tcaron" unicode="&#x164;" horiz-adv-x="661" 
d="M49 1401v20q0 13 14 13h537q12 0 12 -13v-20q0 -12 -12 -12h-246v-1377q0 -12 -12 -12h-23q-12 0 -12 12v1377h-246q-12 0 -12 12zM330 1575l137 145q9 9 14 9h15q16 0 8 -13l-137 -170q-10 -14 -25 -14h-25q-14 0 -24 14l-137 170q-8 13 8 13h14q6 0 15 -9z" />
    <glyph glyph-name="tcaron" unicode="&#x165;" horiz-adv-x="561" 
d="M414 1026h-193v-782q0 -123 29 -167t102 -44q34 0 64 6q14 4 14 -10v-13q0 -19 -14 -20q-27 -6 -66 -6q-92 0 -133 53t-41 197v786h-119q-12 0 -12 12v19q0 12 12 12h119v266q0 13 12 13h21q12 0 12 -13v-266h193q12 0 12 -12v-19q0 -12 -12 -12zM555 1335l-39 -170
q-4 -12 -14 -12h-8q-15 0 -11 14l33 170h-24q-13 0 -13 13v112q0 13 13 13h53q12 0 12 -13v-110q0 -7 -2 -17z" />
    <glyph glyph-name="Tbar" unicode="&#x166;" horiz-adv-x="661" 
d="M49 1401v20q0 13 12 13h539q12 0 12 -13v-20q0 -12 -12 -12h-246v-633h148q12 0 12 -13v-14q0 -12 -12 -12h-148v-705q0 -12 -12 -12h-23q-12 0 -12 12v705h-149q-13 5 -13 12v14q0 13 13 13h149v633h-246q-12 0 -12 12z" />
    <glyph glyph-name="tbar" unicode="&#x167;" horiz-adv-x="491" 
d="M410 1026h-193v-432h176q13 0 13 -12v-15q0 -12 -13 -12h-176v-311q0 -123 29 -167t102 -44q34 0 64 6q14 4 14 -10v-13q0 -19 -14 -20q-27 -6 -66 -6q-92 0 -133 53t-41 197v315h-119q-12 0 -12 12v15q0 12 12 12h119v432h-119q-12 0 -12 12v19q0 12 12 12h119v266
q0 13 12 13h21q12 0 12 -13v-266h193q12 0 12 -12v-19q0 -12 -12 -12z" />
    <glyph glyph-name="Utilde" unicode="&#x168;" horiz-adv-x="880" 
d="M440 -16q-174 0 -246 96q-73 97 -73 326v1015q0 13 12 13h23q12 0 12 -13v-1011q0 -213 59 -297q60 -86 213 -86t213 86q60 85 60 297v1011q0 13 12 13h23q12 0 12 -13v-1015q0 -229 -73 -326q-72 -96 -247 -96zM643 1640q0 -50 -29 -82t-71 -32q-44 0 -90 37l-60 43
q-52 31 -80 13t-34 -56l-3 -17q-1 -14 -14 -14h-10q-14 0 -14 14q0 51 28 85t72 34t90 -37l49 -37q32 -26 64 -26q25 0 41 16q15 15 20 43l2 16q2 15 14 15h11q14 0 14 -15z" />
    <glyph glyph-name="utilde" unicode="&#x169;" horiz-adv-x="765" 
d="M111 313v744q0 12 12 12h20q13 0 13 -12v-744q0 -286 206 -286q116 0 182 97t66 241v692q0 12 13 12h20q12 0 12 -12v-1045q0 -12 -12 -12h-20q-13 0 -13 12v172q-18 -76 -82 -139q-62 -61 -168 -61q-124 0 -187 87q-62 86 -62 242zM582 1300q0 -50 -27 -82t-70 -32
q-44 0 -90 37l-53 39q-37 24 -59 24q-27 0 -41 -20q-16 -22 -17 -43l-2 -17q-1 -14 -14 -14h-10q-15 0 -15 14q0 50 27 85q27 34 70 34q44 0 90 -37l49 -37q33 -26 63 -26q25 0 40 19q17 22 18 40l2 16q1 15 14 15h10q15 0 15 -15z" />
    <glyph glyph-name="Umacron" unicode="&#x16a;" horiz-adv-x="880" 
d="M440 -16q-174 0 -246 96q-73 97 -73 326v1015q0 13 12 13h23q12 0 12 -13v-1011q0 -213 59 -297q60 -86 213 -86t213 86q60 85 60 297v1011q0 13 12 13h23q12 0 12 -13v-1015q0 -229 -73 -326q-72 -96 -247 -96zM604 1532h-328q-12 0 -12 12v15q0 12 12 12h328
q12 0 12 -12v-15q0 -12 -12 -12z" />
    <glyph glyph-name="umacron" unicode="&#x16b;" horiz-adv-x="765" 
d="M111 313v744q0 12 12 12h20q13 0 13 -12v-744q0 -286 206 -286q116 0 182 97t66 241v692q0 12 13 12h20q12 0 12 -12v-1045q0 -12 -12 -12h-20q-13 0 -13 12v172q-18 -76 -82 -139q-62 -61 -168 -61q-124 0 -187 87q-62 86 -62 242zM543 1208h-320q-12 0 -12 13v14
q0 12 12 12h320q12 0 12 -12v-14q0 -13 -12 -13z" />
    <glyph glyph-name="Ubreve" unicode="&#x16c;" horiz-adv-x="880" 
d="M440 -16q-174 0 -246 96q-73 97 -73 326v1015q0 13 12 13h23q12 0 12 -13v-1011q0 -213 59 -297q60 -86 213 -86t213 86q60 85 60 297v1011q0 13 12 13h23q12 0 12 -13v-1015q0 -229 -73 -326q-72 -96 -247 -96zM440 1520q-82 0 -129 48q-46 48 -51 118q0 12 12 12h19
q12 0 12 -12q17 -123 137 -123q122 0 138 123q0 12 12 12h18q13 0 13 -12q-4 -69 -52 -118q-47 -48 -129 -48z" />
    <glyph glyph-name="ubreve" unicode="&#x16d;" horiz-adv-x="765" 
d="M111 313v744q0 12 12 12h20q13 0 13 -12v-744q0 -286 206 -286q116 0 182 97t66 241v692q0 12 13 12h20q12 0 12 -12v-1045q0 -12 -12 -12h-20q-13 0 -13 12v172q-18 -76 -82 -139q-62 -61 -168 -61q-124 0 -187 87q-62 86 -62 242zM383 1188q-83 0 -129 48t-51 118
q0 12 12 12h18q13 0 13 -12q17 -123 137 -123q121 0 137 123q0 12 12 12h19q12 0 12 -12q-5 -70 -51 -118t-129 -48z" />
    <glyph glyph-name="Uring" unicode="&#x16e;" horiz-adv-x="880" 
d="M440 -16q-174 0 -246 96q-73 97 -73 326v1015q0 13 12 13h23q12 0 12 -13v-1011q0 -213 59 -297q60 -86 213 -86t213 86q60 85 60 297v1011q0 13 12 13h23q12 0 12 -13v-1015q0 -229 -73 -326q-72 -96 -247 -96zM328 1669q0 -52 29 -81t83 -29t83 29q30 30 30 81t-30 81
t-83 30t-83 -30q-29 -29 -29 -81zM287 1669q0 68 41 109t112 41q72 0 113 -41t41 -109q0 -67 -41 -108t-113 -41q-71 0 -112 41t-41 108z" />
    <glyph glyph-name="uring" unicode="&#x16f;" horiz-adv-x="765" 
d="M111 313v744q0 12 12 12h20q13 0 13 -12v-744q0 -286 206 -286q116 0 182 97t66 241v692q0 12 13 12h20q12 0 12 -12v-1045q0 -12 -12 -12h-20q-13 0 -13 12v172q-18 -76 -82 -139q-62 -61 -168 -61q-124 0 -187 87q-62 86 -62 242zM383 1210q111 0 111 109q0 51 -29 80
q-28 28 -80 28q-113 0 -113 -108q0 -109 111 -109zM385 1466q72 0 111 -40t39 -107q0 -68 -40 -108t-112 -40t-112 40t-40 108q0 67 40 107t114 40z" />
    <glyph glyph-name="Uhungarumlaut" unicode="&#x170;" horiz-adv-x="880" 
d="M440 -16q-174 0 -246 96q-73 97 -73 326v1015q0 13 12 13h23q12 0 12 -13v-1011q0 -213 59 -297q60 -86 213 -86t213 86q60 85 60 297v1011q0 13 12 13h23q12 0 12 -13v-1015q0 -229 -73 -326q-72 -96 -247 -96zM326 1544l92 160q10 16 24 16h31q23 0 8 -18l-121 -162
q-6 -8 -14 -8h-14q-14 0 -6 12zM520 1544l92 160q10 16 25 16h31q23 0 8 -18l-121 -162q-6 -8 -14 -8h-15q-14 0 -6 12z" />
    <glyph glyph-name="uhungarumlaut" unicode="&#x171;" horiz-adv-x="765" 
d="M111 313v744q0 12 12 12h20q13 0 13 -12v-744q0 -286 206 -286q116 0 182 97t66 241v692q0 12 13 12h20q12 0 12 -12v-1045q0 -12 -12 -12h-20q-13 0 -13 12v172q-18 -76 -82 -139q-62 -61 -168 -61q-124 0 -187 87q-62 86 -62 242zM266 1204l96 172q11 17 25 17h31
q24 0 8 -19l-125 -174q-6 -8 -14 -8h-15q-14 0 -6 12zM461 1204l96 172q11 17 25 17h30q25 0 9 -19l-125 -174q-6 -8 -15 -8h-14q-13 0 -6 12z" />
    <glyph glyph-name="Uogonek" unicode="&#x172;" horiz-adv-x="880" 
d="M440 -16q-174 0 -246 96q-73 97 -73 326v1015q0 13 12 13h23q12 0 12 -13v-1011q0 -213 59 -297q60 -86 213 -86t213 86q60 85 60 297v1011q0 13 12 13h23q12 0 12 -13v-1015q0 -197 -52 -294q-53 -98 -173 -120q-101 -77 -101 -162q0 -66 84 -66q3 0 25 2q11 1 22 1
q13 0 13 -13v-14q0 -10 -11 -16q-17 -7 -55 -7q-125 0 -125 107q0 90 94 162q-20 -2 -41 -2z" />
    <glyph glyph-name="uogonek" unicode="&#x173;" horiz-adv-x="765" 
d="M111 313v744q0 12 12 12h20q13 0 13 -12v-744q0 -286 206 -286q116 0 182 97t66 241v692q0 12 13 12h20q12 0 12 -12v-1045q0 -12 -12 -12h-14q-107 -78 -107 -166q0 -61 76 -61h39q12 0 12 -13v-12q0 -10 -10 -16q-17 -6 -47 -6q-117 0 -117 102q0 112 135 188v168
q-18 -76 -82 -139q-62 -61 -168 -61q-124 0 -187 87q-62 86 -62 242z" />
    <glyph glyph-name="Wcircumflex" unicode="&#x174;" horiz-adv-x="1302" 
d="M641 1434h21q12 0 14 -13l188 -956l70 -381h8l68 381l180 956q2 13 14 13h25q11 0 10 -15l-268 -1407q-5 -12 -17 -12h-32q-13 0 -17 12l-192 989l-60 322h-4l-59 -322l-193 -989q-1 -12 -16 -12h-33q-12 0 -16 12l-269 1407q-1 15 11 15h22q15 0 17 -13l180 -956
l67 -383h9l69 383l189 956q2 13 14 13zM788 1540l-137 146l-137 -146q-8 -8 -14 -8h-15q-15 0 -8 12l137 170q10 15 25 15h25q14 0 24 -15l137 -170q7 -12 -8 -12h-14q-7 0 -15 8z" />
    <glyph glyph-name="wcircumflex" unicode="&#x175;" horiz-adv-x="1040" 
d="M508 1069h24q14 0 15 -10l147 -740l41 -239h4l43 239l148 738q4 12 16 12h21q11 0 10 -14l-213 -1043q-2 -12 -16 -12h-21q-15 0 -16 12l-146 719l-43 250h-4l-43 -250l-149 -719q-2 -12 -17 -12h-20q-15 0 -17 12l-209 1043q-1 14 11 14h20q12 0 17 -12l143 -738
l43 -239h4l41 239l152 740q1 10 14 10zM653 1200l-133 158l-133 -158q-8 -8 -14 -8h-15q-16 0 -8 12l133 182q11 15 25 15h24q14 0 25 -15l133 -182q8 -12 -8 -12h-14q-7 0 -15 8z" />
    <glyph glyph-name="Ycircumflex" unicode="&#x176;" horiz-adv-x="829" 
d="M438 569v-557q0 -12 -12 -12h-23q-12 0 -12 12v557l-332 850q-4 15 11 15h22q9 0 14 -11l222 -565l84 -231h6l84 231l221 565q5 11 14 11h23q14 0 10 -15zM551 1540l-137 146l-138 -146q-8 -8 -14 -8h-14q-16 0 -8 12l137 170q10 15 24 15h25q14 0 25 -15l137 -170
q8 -12 -8 -12h-15q-6 0 -14 8z" />
    <glyph glyph-name="ycircumflex" unicode="&#x177;" horiz-adv-x="679" 
d="M629 1055l-252 -1037q-33 -137 -76 -196q-43 -60 -137 -60q-42 0 -86 13q-15 5 -15 20v12q0 16 17 11q50 -13 86 -13q86 0 125 87t22 151l-258 1012q-1 14 11 14h22q14 0 16 -12l191 -750l49 -217h4l49 217l183 750q2 12 16 12h22q12 0 11 -14zM473 1200l-133 158
l-133 -158q-8 -8 -14 -8h-15q-16 0 -8 12l133 182q11 15 25 15h24q14 0 25 -15l133 -182q8 -12 -8 -12h-15q-6 0 -14 8z" />
    <glyph glyph-name="Ydieresis" unicode="&#x178;" horiz-adv-x="829" 
d="M438 569v-557q0 -12 -12 -12h-23q-12 0 -12 12v557l-332 850q-4 15 11 15h22q9 0 14 -11l222 -565l84 -231h6l84 231l221 565q5 11 14 11h23q14 0 10 -15zM322 1628v-84q0 -12 -13 -12h-28q-13 0 -13 12v84q0 12 13 12h28q13 0 13 -12zM559 1628v-84q0 -12 -12 -12h-29
q-12 0 -12 12v84q0 12 12 12h29q12 0 12 -12z" />
    <glyph glyph-name="Zacute" unicode="&#x179;" horiz-adv-x="729" 
d="M74 12v21q0 3 4 14l524 1342h-493q-13 0 -13 12v20q0 13 13 13h534q12 0 12 -13v-18q0 -6 -4 -17l-522 -1341h518q12 0 12 -12v-21q0 -12 -12 -12h-561q-12 0 -12 12zM326 1544l108 162q10 16 25 16h33q23 0 8 -18l-140 -164q-6 -8 -14 -8h-14q-14 0 -6 12z" />
    <glyph glyph-name="zacute" unicode="&#x17a;" horiz-adv-x="671" 
d="M578 1057v-15q0 -8 -5 -16l-442 -983h451q12 0 12 -12v-19q0 -12 -12 -12h-492q-12 0 -12 12v13q0 9 4 16l442 985h-422q-12 0 -12 12v19q0 12 12 12h463q13 0 13 -12zM307 1204l113 172q11 17 24 17h33q24 0 8 -19l-143 -174q-6 -8 -14 -8h-15q-13 0 -6 12z" />
    <glyph glyph-name="Zdotaccent" unicode="&#x17b;" horiz-adv-x="729" 
d="M74 12v21q0 3 4 14l524 1342h-493q-13 0 -13 12v20q0 13 13 13h534q12 0 12 -13v-18q0 -6 -4 -17l-522 -1341h518q12 0 12 -12v-21q0 -12 -12 -12h-561q-12 0 -12 12zM403 1628v-84q0 -12 -12 -12h-29q-12 0 -12 12v84q0 12 12 12h29q12 0 12 -12z" />
    <glyph glyph-name="zdotaccent" unicode="&#x17c;" horiz-adv-x="671" 
d="M578 1057v-15q0 -8 -5 -16l-442 -983h451q12 0 12 -12v-19q0 -12 -12 -12h-492q-12 0 -12 12v13q0 9 4 16l442 985h-422q-12 0 -12 12v19q0 12 12 12h463q13 0 13 -12zM362 1288v-84q0 -12 -12 -12h-28q-13 0 -13 12v84q0 12 13 12h28q12 0 12 -12z" />
    <glyph glyph-name="Zcaron" unicode="&#x17d;" horiz-adv-x="729" 
d="M74 12v21q0 3 4 14l524 1342h-493q-13 0 -13 12v20q0 13 13 13h534q12 0 12 -13v-18q0 -6 -4 -17l-522 -1341h518q12 0 12 -12v-21q0 -12 -12 -12h-561q-12 0 -12 12zM395 1575l137 145q9 9 15 9h14q16 0 8 -13l-137 -170q-10 -14 -24 -14h-25q-15 0 -25 14l-137 170
q-8 13 8 13h15q5 0 14 -9z" />
    <glyph glyph-name="zcaron" unicode="&#x17e;" horiz-adv-x="671" 
d="M578 1057v-15q0 -8 -5 -16l-442 -983h451q12 0 12 -12v-19q0 -12 -12 -12h-492q-12 0 -12 12v13q0 9 4 16l442 985h-422q-12 0 -12 12v19q0 12 12 12h463q13 0 13 -12zM336 1235l133 158q8 8 14 8h15q16 0 8 -12l-133 -183q-10 -14 -25 -14h-24q-15 0 -25 14l-133 183
q-8 12 8 12h14q7 0 15 -8z" />
    <glyph glyph-name="longs" unicode="&#x17f;" horiz-adv-x="454" 
d="M225 1155v-1143q0 -12 -12 -12h-20q-13 0 -13 12v1014h-123q-12 0 -12 12v19q0 12 12 12h123v94q0 154 37 216q37 63 141 63q29 0 54 -4q14 -1 14 -21v-10q0 -13 -18 -12q-21 4 -46 4q-86 0 -111 -52q-26 -54 -26 -192z" />
    <glyph glyph-name="florin" unicode="&#x192;" horiz-adv-x="942" 
d="M530 1155l-47 -352h193q14 0 12 -15l-4 -16q-4 -12 -12 -12h-195l-100 -776q-16 -117 -62 -167q-45 -50 -137 -50q-36 0 -61 4q-18 2 -13 20l2 10q1 15 21 13q15 -4 51 -4q76 0 105 39q30 40 45 143l102 768h-121q-13 0 -12 14l4 17q1 12 12 12h121l49 360q21 152 69 215
q49 64 155 64q41 0 71 -8q12 -4 10 -17l-2 -12q-1 -14 -20 -12q-30 6 -59 6q-87 0 -121 -54q-35 -55 -56 -190z" />
    <glyph glyph-name="Aringacute" unicode="&#x1fa;" horiz-adv-x="876" 
d="M285 1546q0 112 98 142l96 143q10 16 25 16h33q23 0 8 -18l-115 -133h8q72 0 113 -41t41 -109q0 -124 -119 -147l348 -1385q1 -14 -10 -14h-23q-10 0 -14 12l-112 447h-447l-113 -447q-4 -12 -14 -12h-22q-12 0 -11 14l346 1385q-116 22 -116 147zM225 504h426l-211 848
h-4zM326 1546q0 -52 29 -81t83 -29t83 29q30 30 30 81t-30 81t-83 30t-83 -30q-29 -29 -29 -81z" />
    <glyph glyph-name="aringacute" unicode="&#x1fb;" horiz-adv-x="720" 
d="M610 809v-797q0 -12 -12 -12h-20q-13 0 -13 12v172q-23 -80 -89 -138q-63 -56 -171 -56q-119 0 -179 81t-60 224q0 89 25 151t67 101q38 35 110 57q66 20 135 28q66 8 162 9v162q0 126 -45 183q-44 56 -153 56q-123 0 -228 -43q-14 -4 -14 11v12q0 16 14 20
q104 43 232 43q125 0 182 -67q57 -68 57 -209zM565 365v235q-75 -1 -148 -7q-53 -4 -122 -23q-65 -18 -101 -49t-60 -89q-23 -55 -23 -139q0 -260 198 -260q118 0 187 95t69 237zM362 1466q72 0 111 -40t39 -107q0 -68 -40 -108t-112 -40q-71 0 -111 40t-40 108
q0 102 86 137l102 156q10 16 25 16h33q23 0 8 -18l-119 -146q6 0 10 1t8 1zM360 1210q111 0 111 109q0 51 -29 80q-28 28 -79 28q-113 0 -113 -108q0 -109 110 -109z" />
    <glyph glyph-name="AEacute" unicode="&#x1fc;" horiz-adv-x="1105" 
d="M995 713h-395v-668h412q12 0 12 -12v-21q0 -12 -12 -12h-447q-12 0 -12 12v441h-346l-125 -441q-4 -12 -14 -12h-23q-11 0 -10 14l399 1407q5 13 17 13h557q12 0 12 -13v-20q0 -12 -12 -12h-408v-631h395q13 0 13 -13v-20q0 -12 -13 -12zM219 498h334v891h-82zM526 1544
l109 162q10 16 24 16h33q23 0 8 -18l-139 -164q-6 -8 -14 -8h-15q-14 0 -6 12z" />
    <glyph glyph-name="aeacute" unicode="&#x1fd;" horiz-adv-x="1142" 
d="M866 27q89 0 164 28q14 4 14 -10v-12q0 -17 -14 -21q-75 -28 -166 -28q-122 0 -191 66q-70 67 -100 204q-17 -114 -90 -189t-178 -75q-113 0 -176 79t-63 207q0 83 23 138q24 57 61 91t102 53q67 20 131 27q66 7 162 9l2 172q1 150 -45 213q-47 63 -150 63
q-104 0 -209 -43q-14 -4 -14 11v12q0 16 14 20q104 43 213 43q196 0 226 -194q57 194 239 194q138 0 195 -121q57 -122 57 -352v-49q0 -12 -12 -12h-471q0 -283 62 -403q63 -121 214 -121zM821 1042q-123 0 -176 -108q-54 -110 -55 -340h436v18q0 212 -45 321t-160 109z
M545 365v186q-76 -1 -149 -7q-46 -4 -117 -21q-62 -15 -94 -44t-53 -79t-21 -124q0 -108 51 -176q51 -67 147 -67q110 0 173 94t63 238zM563 1204l113 172q11 17 24 17h33q24 0 8 -19l-143 -174q-6 -8 -14 -8h-15q-13 0 -6 12z" />
    <glyph glyph-name="Oslashacute" unicode="&#x1fe;" horiz-adv-x="950" 
d="M475 1450q201 0 291 -178l82 141q6 12 18 6l19 -12q11 -6 4 -16l-101 -174q66 -179 66 -500q0 -400 -90 -566q-90 -167 -289 -167q-202 0 -291 176l-82 -142q-6 -10 -18 -4l-18 11q-11 6 -5 18l99 172q-64 172 -64 502q0 399 90 566t289 167zM475 27q174 0 252 156
t78 534q0 287 -49 444l-543 -950q76 -184 262 -184zM145 717q0 -289 48 -447l544 951q-78 186 -262 186q-173 0 -252 -157q-78 -156 -78 -533zM449 1544l108 162q10 16 25 16h32q24 0 9 -18l-140 -164q-6 -8 -14 -8h-14q-13 0 -6 12z" />
    <glyph glyph-name="oslashacute" unicode="&#x1ff;" horiz-adv-x="761" 
d="M381 -16q164 0 233 135q70 137 70 416q0 262 -59 393l65 114q6 11 -4 17l-14 8q-11 6 -17 -4l-53 -94q-73 116 -221 116q-165 0 -234 -135t-69 -415q0 -263 57 -392l-65 -114q-7 -9 6 -17l12 -10q12 -6 18 6l52 92q73 -116 223 -116zM381 1042q133 0 194 -120l-409 -725
q-41 123 -41 338q0 262 59 384q59 123 197 123zM381 27q-134 0 -195 120l408 727q43 -123 43 -339q0 -262 -59 -384q-60 -124 -197 -124zM352 1204l113 172q11 17 24 17h33q24 0 8 -19l-143 -174q-6 -8 -14 -8h-15q-14 0 -6 12z" />
    <glyph glyph-name="Scommaaccent" unicode="&#x218;" horiz-adv-x="679" 
d="M598 315q0 -335 -313 -335q-103 0 -191 22q-14 4 -14 18v15q0 16 16 12q81 -22 189 -22q266 0 266 290q0 77 -17 134q-17 58 -60 111q-39 48 -74 82q-32 31 -95 83q-111 94 -172 183q-59 87 -59 227q0 151 67 233t230 82q86 0 164 -23q14 -4 14 -18v-14q0 -18 -17 -13
q-81 23 -163 23q-137 0 -193 -69q-55 -68 -55 -201q0 -124 53 -206q52 -80 160 -167q57 -46 100 -86q28 -25 79 -88q46 -56 66 -124q19 -64 19 -149zM362 -233l-36 -158q-2 -12 -15 -12h-8q-14 0 -10 14l29 158h-27q-12 0 -12 12v92q0 12 12 12h57q13 0 13 -12v-90
q0 -1 -3 -16z" />
    <glyph glyph-name="scommaaccent" unicode="&#x219;" horiz-adv-x="610" 
d="M549 270q0 -134 -69 -211q-68 -75 -206 -75q-116 0 -198 30q-15 4 -15 21v12q0 15 17 10q92 -30 196 -30q230 0 230 243q0 30 -5 60q-4 23 -19 50q-18 31 -23 39q-11 16 -37 36l-40 30q-15 11 -50 34q-28 18 -51 34q-64 44 -109 80q-37 29 -68 84q-30 53 -30 119
q0 249 264 249q74 0 153 -20q15 -5 15 -18v-13q0 -17 -17 -12q-69 20 -151 20q-219 0 -219 -206q0 -56 24 -99q21 -38 54 -66q26 -22 92 -69q11 -7 20 -14q4 -3 12.5 -8.5t23.5 -15.5t26 -18q47 -32 61 -43q18 -15 46 -41q32 -30 42 -52t21 -60q10 -36 10 -80zM344 -233
l-37 -142q-5 -12 -14 -12h-8q-15 0 -11 14l29 142h-27q-12 0 -12 12v92q0 12 12 12h58q12 0 12 -12v-90q0 -6 -2 -16z" />
    <glyph glyph-name="uni021A" unicode="&#x21a;" horiz-adv-x="661" 
d="M49 1401v20q0 13 14 13h537q12 0 12 -13v-20q0 -12 -12 -12h-246v-1377q0 -12 -12 -12h-23q-12 0 -12 12v1377h-246q-12 0 -12 12zM369 -233l-37 -158q-4 -12 -15 -12h-8q-14 0 -10 14l29 158h-27q-12 0 -12 12v92q0 12 12 12h57q13 0 13 -12v-90q0 -6 -2 -16z" />
    <glyph glyph-name="uni021B" unicode="&#x21b;" horiz-adv-x="491" 
d="M410 1026h-193v-782q0 -123 29 -167t102 -44q34 0 64 6q14 4 14 -10v-13q0 -19 -14 -20q-27 -6 -66 -6q-92 0 -133 53t-41 197v786h-119q-12 0 -12 12v19q0 12 12 12h119v266q0 13 12 13h21q12 0 12 -13v-266h193q12 0 12 -12v-19q0 -12 -12 -12zM326 -233l-37 -142
q-1 -12 -15 -12h-8q-14 0 -10 14l29 142h-27q-12 0 -12 12v92q0 12 12 12h57q13 0 13 -12v-90q0 -6 -2 -16z" />
    <glyph glyph-name="dotlessj" unicode="&#x237;" horiz-adv-x="311" 
d="M139 -41v1098q0 12 13 12h20q12 0 12 -12v-1100q0 -101 -28 -145q-28 -45 -105 -45q-17 0 -33 2q-14 1 -14 18v14q0 15 14 11q8 -2 35 -2q52 0 69 33t17 116z" />
    <glyph glyph-name="circumflex" unicode="&#x2c6;" horiz-adv-x="491" 
d="M379 1200l-133 158l-133 -158q-8 -8 -15 -8h-14q-16 0 -8 12l133 182q10 15 24 15h25q14 0 25 -15l133 -182q7 -12 -8 -12h-15q-6 0 -14 8z" />
    <glyph glyph-name="caron" unicode="&#x2c7;" horiz-adv-x="491" 
d="M246 1235l133 158q8 8 14 8h15q16 0 8 -12l-133 -183q-10 -14 -25 -14h-25q-14 0 -24 14l-133 183q-8 12 8 12h14q7 0 15 -8z" />
    <glyph glyph-name="uni02C9" unicode="&#x2c9;" horiz-adv-x="491" 
d="M406 1208h-320q-12 0 -12 13v14q0 12 12 12h320q12 0 12 -12v-14q0 -13 -12 -13z" />
    <glyph glyph-name="breve" unicode="&#x2d8;" horiz-adv-x="491" 
d="M246 1188q-82 0 -129 48q-46 48 -51 118q0 12 12 12h18q13 0 13 -12q15 -123 137 -123t137 123q0 12 12 12h19q12 0 12 -12q-5 -70 -51 -118q-47 -48 -129 -48z" />
    <glyph glyph-name="dotaccent" unicode="&#x2d9;" horiz-adv-x="491" 
d="M272 1288v-84q0 -12 -12 -12h-29q-12 0 -12 12v84q0 12 12 12h29q12 0 12 -12z" />
    <glyph glyph-name="ring" unicode="&#x2da;" horiz-adv-x="491" 
d="M246 1210q110 0 110 109q0 52 -28 80t-80 28q-113 0 -113 -108q0 -109 111 -109zM248 1466q71 0 110 -40t39 -107q0 -68 -40 -108t-111 -40q-72 0 -112 40t-40 108q0 67 40 107t114 40z" />
    <glyph glyph-name="ogonek" unicode="&#x2db;" horiz-adv-x="491" 
d="M264 18h43q-133 -85 -133 -184q0 -61 76 -61h39q12 0 12 -13v-12q0 -10 -10 -16q-15 -6 -47 -6q-117 0 -117 102q0 110 137 190z" />
    <glyph glyph-name="tilde" unicode="&#x2dc;" horiz-adv-x="491" 
d="M444 1300q0 -52 -26 -82q-27 -32 -70 -32q-46 0 -90 37l-53 39q-37 24 -60 24q-27 0 -41 -20t-16 -43l-2 -17q-1 -14 -14 -14h-11q-14 0 -14 14q0 50 27 85q27 34 69 34q44 0 90 -37l50 -37q33 -26 63 -26q25 0 40 19q16 20 17 40l3 16q2 15 14 15h10q14 0 14 -15z" />
    <glyph glyph-name="hungarumlaut" unicode="&#x2dd;" horiz-adv-x="491" 
d="M131 1204l96 172q11 17 25 17h31q24 0 8 -19l-125 -174q-6 -8 -14 -8h-15q-13 0 -6 12zM326 1204l96 172q11 17 24 17h31q24 0 8 -19l-125 -174q-6 -8 -14 -8h-14q-14 0 -6 12z" />
    <glyph glyph-name="uni037E" unicode="&#x37e;" horiz-adv-x="299" 
d="M111 477v113q0 12 12 12h53q12 0 12 -12v-113q0 -12 -12 -12h-53q-12 0 -12 12z" />
    <glyph glyph-name="uni0394" unicode="&#x394;" horiz-adv-x="966" 
d="M469 1446h29q10 0 14 -12l332 -1401q8 -33 -27 -33h-667q-34 0 -27 33l332 1401q5 12 14 12zM479 1362l-307 -1317h623l-308 1317h-8z" />
    <glyph glyph-name="uni03A9" unicode="&#x3a9;" horiz-adv-x="1056" 
d="M528 1450q118 0 204 -47q85 -46 133 -132q49 -87 71 -190t22 -235q0 -427 -270 -625v-176h211q12 0 12 -12v-21q0 -12 -12 -12h-258v223q0 20 21 35q116 77 182 229q65 149 65 359q0 251 -89 406t-292 155q-202 0 -291 -155q-90 -157 -90 -406q0 -208 66 -359
q66 -152 182 -229q21 -15 21 -35v-223h-258q-13 0 -13 12v21q0 12 13 12h211v176q-271 199 -271 625q0 128 23 235q23 106 70 190q48 85 134 132t203 47z" />
    <glyph glyph-name="uni03BC" unicode="&#x3bc;" horiz-adv-x="765" 
d="M655 1057v-744q0 -156 -62 -242q-63 -87 -187 -87q-106 0 -168 61q-64 63 -82 139v-397q0 -12 -13 -12h-20q-12 0 -12 12v1270q0 12 12 12h20q13 0 13 -12v-692q0 -144 66 -241t181 -97q207 0 207 286v744q0 12 13 12h20q12 0 12 -12z" />
    <glyph glyph-name="pi" unicode="&#x3c0;" horiz-adv-x="876" 
d="M659 1026v-842q0 -80 23 -115q22 -34 78 -34q37 0 61 6q15 5 15 -10v-15q0 -14 -15 -18q-18 -6 -59 -6q-82 0 -115 45t-33 145v844h-301l-161 -1014q-4 -12 -15 -12h-22q-13 0 -11 12l162 1014h-168q-12 0 -12 12v19q0 12 12 12h713q12 0 12 -12v-19q0 -12 -12 -12h-152z
" />
    <glyph glyph-name="Wgrave" unicode="&#x1e80;" horiz-adv-x="1302" 
d="M641 1434h21q12 0 14 -13l188 -956l70 -381h8l68 381l180 956q2 13 14 13h25q11 0 10 -15l-268 -1407q-5 -12 -17 -12h-32q-13 0 -17 12l-192 989l-60 322h-4l-59 -322l-193 -989q-1 -12 -16 -12h-33q-12 0 -16 12l-269 1407q-1 15 11 15h22q15 0 17 -13l180 -956
l67 -383h9l69 383l189 956q2 13 14 13zM569 1706l109 -162q8 -12 -6 -12h-15q-8 0 -14 8l-139 164q-15 18 8 18h33q14 0 24 -16z" />
    <glyph glyph-name="wgrave" unicode="&#x1e81;" horiz-adv-x="1040" 
d="M508 1069h24q14 0 15 -10l147 -740l41 -239h4l43 239l148 738q4 12 16 12h21q11 0 10 -14l-213 -1043q-2 -12 -16 -12h-21q-15 0 -16 12l-146 719l-43 250h-4l-43 -250l-149 -719q-2 -12 -17 -12h-20q-15 0 -17 12l-209 1043q-1 14 11 14h20q12 0 17 -12l143 -738
l43 -239h4l41 239l152 740q1 10 14 10zM416 1376l112 -172q8 -12 -6 -12h-14q-8 0 -14 8l-144 174q-16 19 8 19h33q14 0 25 -17z" />
    <glyph glyph-name="Wacute" unicode="&#x1e82;" horiz-adv-x="1302" 
d="M641 1434h21q12 0 14 -13l188 -956l70 -381h8l68 381l180 956q2 13 14 13h25q11 0 10 -15l-268 -1407q-5 -12 -17 -12h-32q-13 0 -17 12l-192 989l-60 322h-4l-59 -322l-193 -989q-1 -12 -16 -12h-33q-12 0 -16 12l-269 1407q-1 15 11 15h22q15 0 17 -13l180 -956
l67 -383h9l69 383l189 956q2 13 14 13zM625 1544l108 162q10 16 25 16h33q23 0 8 -18l-140 -164q-6 -8 -14 -8h-14q-13 0 -6 12z" />
    <glyph glyph-name="wacute" unicode="&#x1e83;" horiz-adv-x="1040" 
d="M508 1069h24q14 0 15 -10l147 -740l41 -239h4l43 239l148 738q4 12 16 12h21q11 0 10 -14l-213 -1043q-2 -12 -16 -12h-21q-15 0 -16 12l-146 719l-43 250h-4l-43 -250l-149 -719q-2 -12 -17 -12h-20q-15 0 -17 12l-209 1043q-1 14 11 14h20q12 0 17 -12l143 -738
l43 -239h4l41 239l152 740q1 10 14 10zM512 1204l113 172q11 17 24 17h33q24 0 8 -19l-143 -174q-6 -8 -15 -8h-14q-14 0 -6 12z" />
    <glyph glyph-name="Wdieresis" unicode="&#x1e84;" horiz-adv-x="1302" 
d="M641 1434h21q12 0 14 -13l188 -956l70 -381h8l68 381l180 956q2 13 14 13h25q11 0 10 -15l-268 -1407q-5 -12 -17 -12h-32q-13 0 -17 12l-192 989l-60 322h-4l-59 -322l-193 -989q-1 -12 -16 -12h-33q-12 0 -16 12l-269 1407q-1 15 11 15h22q15 0 17 -13l180 -956
l67 -383h9l69 383l189 956q2 13 14 13zM559 1628v-84q0 -12 -12 -12h-29q-12 0 -12 12v84q0 12 12 12h29q12 0 12 -12zM797 1628v-84q0 -12 -13 -12h-28q-13 0 -13 12v84q0 12 13 12h28q13 0 13 -12z" />
    <glyph glyph-name="wdieresis" unicode="&#x1e85;" horiz-adv-x="1040" 
d="M508 1069h24q14 0 15 -10l147 -740l41 -239h4l43 239l148 738q4 12 16 12h21q11 0 10 -14l-213 -1043q-2 -12 -16 -12h-21q-15 0 -16 12l-146 719l-43 250h-4l-43 -250l-149 -719q-2 -12 -17 -12h-20q-15 0 -17 12l-209 1043q-1 14 11 14h20q12 0 17 -12l143 -738
l43 -239h4l41 239l152 740q1 10 14 10zM428 1288v-84q0 -12 -12 -12h-29q-12 0 -12 12v84q0 12 12 12h29q12 0 12 -12zM666 1288v-84q0 -12 -13 -12h-28q-13 0 -13 12v84q0 12 13 12h28q13 0 13 -12z" />
    <glyph glyph-name="Ygrave" unicode="&#x1ef2;" horiz-adv-x="829" 
d="M438 569v-557q0 -12 -12 -12h-23q-12 0 -12 12v557l-332 850q-4 15 11 15h22q9 0 14 -11l222 -565l84 -231h6l84 231l221 565q5 11 14 11h23q14 0 10 -15zM332 1706l108 -162q8 -12 -6 -12h-14q-8 0 -14 8l-140 164q-15 18 8 18h33q15 0 25 -16z" />
    <glyph glyph-name="ygrave" unicode="&#x1ef3;" horiz-adv-x="679" 
d="M629 1055l-252 -1037q-33 -137 -76 -196q-43 -60 -137 -60q-42 0 -86 13q-15 5 -15 20v12q0 16 17 11q50 -13 86 -13q86 0 125 87t22 151l-258 1012q-1 14 11 14h22q14 0 16 -12l191 -750l49 -217h4l49 217l183 750q2 12 16 12h22q12 0 11 -14zM317 1376l113 -172
q8 -12 -6 -12h-14q-9 0 -15 8l-143 174q-16 19 8 19h33q13 0 24 -17z" />
    <glyph glyph-name="figuredash" unicode="&#x2012;" horiz-adv-x="778" 
d="M655 541h-532q-12 0 -12 12v18q0 13 12 13h532q13 0 13 -13v-18q0 -12 -13 -12z" />
    <glyph glyph-name="endash" unicode="&#x2013;" horiz-adv-x="720" 
d="M631 528h-541q-12 0 -12 13v18q0 12 12 12h541q12 0 12 -12v-18q0 -13 -12 -13z" />
    <glyph glyph-name="emdash" unicode="&#x2014;" horiz-adv-x="1048" 
d="M958 528h-868q-12 0 -12 13v18q0 12 12 12h868q13 0 13 -12v-18q0 -13 -13 -13z" />
    <glyph glyph-name="quoteleft" unicode="&#x2018;" horiz-adv-x="294" 
d="M113 1251l39 170q5 13 14 13h8q14 0 10 -15l-32 -170h24q12 0 12 -12v-113q0 -12 -12 -12h-53q-12 0 -12 12v111q0 6 2 16z" />
    <glyph glyph-name="quoteright" unicode="&#x2019;" horiz-adv-x="294" 
d="M182 1294l-39 -170q-5 -12 -14 -12h-8q-14 0 -10 14l32 170h-24q-13 0 -13 13v112q0 13 13 13h53q12 0 12 -13v-110q0 -7 -2 -17z" />
    <glyph glyph-name="quotesinglbase" unicode="&#x201a;" horiz-adv-x="294" 
d="M182 -2l-39 -170q-5 -12 -14 -12h-8q-14 0 -10 14l32 170h-24q-13 0 -13 12v113q0 12 13 12h53q12 0 12 -12v-111q0 -6 -2 -16z" />
    <glyph glyph-name="quotedblleft" unicode="&#x201c;" horiz-adv-x="507" 
d="M326 1251l39 170q5 13 14 13h8q15 0 10 -15l-32 -170h24q12 0 12 -12v-113q0 -12 -12 -12h-53q-12 0 -12 12v111q0 6 2 16zM113 1251l39 170q5 13 14 13h8q14 0 10 -15l-32 -170h24q12 0 12 -12v-113q0 -12 -12 -12h-53q-12 0 -12 12v111q0 6 2 16z" />
    <glyph glyph-name="quotedblright" unicode="&#x201d;" horiz-adv-x="507" 
d="M182 1294l-39 -170q-5 -12 -14 -12h-8q-14 0 -10 14l32 170h-24q-13 0 -13 13v112q0 13 13 13h53q12 0 12 -13v-110q0 -7 -2 -17zM395 1294l-39 -170q-4 -12 -14 -12h-8q-14 0 -10 14l32 170h-24q-13 0 -13 13v112q0 13 13 13h53q12 0 12 -13v-110q0 -7 -2 -17z" />
    <glyph glyph-name="quotedblbase" unicode="&#x201e;" horiz-adv-x="507" 
d="M182 -2l-39 -170q-5 -12 -14 -12h-8q-14 0 -10 14l32 170h-24q-13 0 -13 12v113q0 12 13 12h53q12 0 12 -12v-111q0 -6 -2 -16zM395 -2l-39 -170q-4 -12 -14 -12h-8q-14 0 -10 14l32 170h-24q-13 0 -13 12v113q0 12 13 12h53q12 0 12 -12v-111q0 -6 -2 -16z" />
    <glyph glyph-name="dagger" unicode="&#x2020;" horiz-adv-x="686" 
d="M604 1057v-21q0 -12 -12 -12h-225v-1237q0 -12 -13 -12h-22q-13 0 -13 12v1237h-225q-12 0 -12 12v21q0 12 12 12h225v352q0 13 13 13h22q13 0 13 -13v-352h225q12 0 12 -12z" />
    <glyph glyph-name="daggerdbl" unicode="&#x2021;" horiz-adv-x="686" 
d="M604 172v-20q0 -13 -12 -13h-225v-352q0 -12 -13 -12h-22q-13 0 -13 12v352h-225q-12 0 -12 13v20q0 12 12 12h225v840h-225q-12 0 -12 12v21q0 12 12 12h225v352q0 13 13 13h22q13 0 13 -13v-352h225q12 0 12 -12v-21q0 -12 -12 -12h-225v-840h225q12 0 12 -12z" />
    <glyph glyph-name="bullet" unicode="&#x2022;" horiz-adv-x="602" 
d="M301 332q-89 0 -148 57t-59 150q0 92 59 149t148 57q91 0 149 -57t58 -149q0 -93 -58 -150t-149 -57z" />
    <glyph glyph-name="onedotenleader" unicode="&#x2024;" horiz-adv-x="299" 
d="M111 12v113q0 12 12 12h53q12 0 12 -12v-113q0 -12 -12 -12h-53q-12 0 -12 12z" />
    <glyph glyph-name="twodotenleader" unicode="&#x2025;" horiz-adv-x="598" 
d="M410 12v113q0 12 12 12h53q12 0 12 -12v-113q0 -12 -12 -12h-53q-12 0 -12 12zM111 12v113q0 12 12 12h53q12 0 12 -12v-113q0 -12 -12 -12h-53q-12 0 -12 12z" />
    <glyph glyph-name="ellipsis" unicode="&#x2026;" horiz-adv-x="897" 
d="M111 12v113q0 12 12 12h53q12 0 12 -12v-113q0 -12 -12 -12h-53q-12 0 -12 12zM410 12v113q0 12 12 12h53q12 0 12 -12v-113q0 -12 -12 -12h-53q-12 0 -12 12zM709 12v113q0 12 12 12h53q12 0 12 -12v-113q0 -12 -12 -12h-53q-12 0 -12 12z" />
    <glyph glyph-name="perthousand" unicode="&#x2030;" horiz-adv-x="1875" 
d="M1012 1417l-680 -1405q-6 -12 -19 -12h-22q-15 0 -8 16l680 1405q7 13 18 13h23q16 0 8 -17zM66 1055q0 391 231 391t231 -391t-231 -391t-231 391zM481 1055q0 348 -184 348t-184 -348t184 -348t184 348zM766 379q0 391 231 391q232 0 232 -391t-230 -391
q-233 0 -233 391zM1182 379q0 348 -185 348q-184 0 -184 -348t184 -348q185 0 185 348zM1348 379q0 391 231 391t231 -391t-231 -391t-231 391zM1763 379q0 348 -184 348t-184 -348t184 -348t184 348z" />
    <glyph glyph-name="guilsinglleft" unicode="&#x2039;" horiz-adv-x="323" 
d="M74 530q0 3 2 9l108 268q4 10 13 10h26q13 0 8 -12l-110 -275l110 -274q5 -12 -8 -12h-26q-9 0 -13 10l-108 268q-2 6 -2 8z" />
    <glyph glyph-name="guilsinglright" unicode="&#x203a;" horiz-adv-x="323" 
d="M250 530q0 -2 -2 -8l-109 -268q-4 -10 -12 -10h-27q-12 0 -8 12l111 274l-111 275q-5 12 8 12h27q8 0 12 -10l109 -268q2 -6 2 -9z" />
    <glyph glyph-name="exclamdbl" unicode="&#x203c;" horiz-adv-x="708" 
d="M143 12v113q0 12 13 12h53q12 0 12 -12v-113q0 -12 -12 -12h-53q-13 0 -13 12zM190 365h-16q-12 0 -12 12l-6 1044q0 13 12 13h29q12 0 12 -13l-6 -1044q0 -12 -13 -12zM487 12v113q0 12 13 12h53q12 0 12 -12v-113q0 -12 -12 -12h-53q-13 0 -13 12zM535 365h-17
q-12 0 -12 12l-6 1044q0 13 12 13h29q12 0 12 -13l-6 -1044q0 -12 -12 -12z" />
    <glyph glyph-name="fraction" unicode="&#x2044;" horiz-adv-x="118" 
d="M424 1417l-680 -1405q-6 -12 -18 -12h-23q-15 0 -8 16l680 1405q7 13 18 13h23q16 0 8 -17z" />
    <glyph glyph-name="zero.superior" unicode="&#x2070;" 
d="M276 987q-114 0 -170 107q-55 106 -55 340t55 340t170 106t170 -106q56 -107 56 -340q0 -235 -56 -341t-170 -106zM276 1026q93 0 138 96t45 312q0 215 -45 311t-138 96q-92 0 -137 -96t-45 -311q0 -216 45 -312t137 -96z" />
    <glyph glyph-name="four.superior" unicode="&#x2074;" 
d="M391 1790l-305 -535h305v535zM528 1214h-94v-202q0 -13 -12 -13h-19q-12 0 -12 13v202h-342q-12 0 -12 13v18q0 10 8 23l340 590q6 10 16 10h21q12 0 12 -13v-600h94q13 0 13 -12v-16q0 -13 -13 -13z" />
    <glyph glyph-name="five.superior" unicode="&#x2075;" 
d="M471 1251q0 -264 -250 -264q-83 0 -135 21q-8 5 -8 12v16q0 12 12 8q51 -18 131 -18q207 0 207 225q0 230 -164 230q-43 0 -74 -7q-25 -6 -50 -14q-18 -6 -19 -6l-6 2l-6 4q-7 5 -7 15q17 236 17 380q0 13 12 13h287q12 0 12 -13v-16q0 -12 -12 -12h-260
q-1 -154 -17 -328q55 21 127 21q104 0 154 -74q49 -73 49 -195z" />
    <glyph glyph-name="six.superior" unicode="&#x2076;" 
d="M416 1827q-36 14 -92 14q-115 0 -166 -85q-52 -87 -52 -294q0 -3 2 -35q1 -16 1 -38q15 68 64 108q50 41 118 41q107 0 158 -76q51 -77 51 -198t-54 -200q-53 -77 -145 -77q-118 0 -177 106q-58 104 -58 341q0 247 59 346q60 100 199 100q58 0 94 -14q6 -2 6 -11v-20
q0 -6 -2 -8q-2 -1 -6 0zM301 1026q75 0 115 66q41 67 41 172q0 235 -166 235q-72 0 -120 -57t-48 -176q0 -94 47 -167t131 -73z" />
    <glyph glyph-name="seven.superior" unicode="&#x2077;" 
d="M479 1855v-18q0 -11 -4 -16q-101 -150 -180 -387q-80 -238 -80 -422q0 -13 -12 -13h-21q-12 0 -12 13q0 180 79 413q80 236 181 402h-348q-12 0 -12 12v16q0 13 12 13h385q12 0 12 -13z" />
    <glyph glyph-name="eight.superior" unicode="&#x2078;" 
d="M276 987q-105 0 -161 56q-58 58 -58 157q0 179 172 252q-155 76 -155 234q0 86 54 140t148 54q95 0 149 -54t54 -140q0 -158 -155 -234q172 -73 172 -252q0 -99 -58 -157q-56 -56 -162 -56zM276 1432q-174 -66 -174 -234q0 -80 45 -126t129 -46q85 0 130 46t45 126
q0 168 -175 234zM276 1470q160 62 160 216q0 70 -42 114q-42 43 -118 43q-75 0 -117 -43q-42 -44 -42 -114q0 -154 159 -216z" />
    <glyph glyph-name="nine.superior" unicode="&#x2079;" 
d="M137 1040q36 -14 92 -14q115 0 166 85t51 294q0 19 -1 35t-1 39q-15 -69 -64 -109q-50 -41 -118 -41q-107 0 -158 76t-51 199q0 122 53 199t146 77q118 0 177 -105q58 -104 58 -341q0 -248 -59 -347q-60 -100 -199 -100q-58 0 -94 14q-6 1 -6 11v20q0 6 2 8q1 2 6 0z
M252 1841q-75 0 -115 -65q-41 -67 -41 -172q0 -236 166 -236q72 0 120 57t48 177q0 93 -47 166t-131 73z" />
    <glyph glyph-name="parenleft.superior" unicode="&#x207d;" horiz-adv-x="307" 
d="M98 1434q0 268 129 452q6 8 15 8h22q14 0 6 -12q-127 -166 -127 -448q0 -283 127 -449q8 -12 -6 -12h-22q-9 0 -15 8q-129 185 -129 453z" />
    <glyph glyph-name="parenright.superior" unicode="&#x207e;" horiz-adv-x="307" 
d="M209 1434q0 -268 -129 -453q-6 -8 -14 -8h-23q-13 0 -6 12q127 166 127 449q0 282 -127 448q-7 12 6 12h23q8 0 14 -8q129 -184 129 -452z" />
    <glyph glyph-name="n.superior" unicode="&#x207f;" horiz-adv-x="649" 
d="M109 1868h18q12 0 12 -13v-137q22 65 77 114q54 48 138 48q101 0 151 -66q50 -67 50 -184v-618q0 -13 -12 -13h-19q-12 0 -12 13v618q0 209 -156 209q-94 0 -155 -79q-62 -80 -62 -189v-559q0 -13 -12 -13h-18q-13 0 -13 13v843q0 13 13 13z" />
    <glyph glyph-name="zero.inferior" unicode="&#x2080;" 
d="M276 -446q-115 0 -170 106t-55 340t55 340t170 106t170 -106q56 -107 56 -340q0 -235 -56 -341q-56 -105 -170 -105zM276 -408q93 0 138 97q45 96 45 311t-45 311q-45 97 -138 97q-92 0 -137 -97q-45 -96 -45 -311t45 -311q45 -97 137 -97z" />
    <glyph glyph-name="one.inferior" unicode="&#x2081;" 
d="M301 369l-174 -172q-8 -8 -16 0l-15 12q-10 10 0 16l205 203q6 6 14 6h17q12 0 12 -12v-844q0 -12 -12 -12h-19q-12 0 -12 12v791z" />
    <glyph glyph-name="two.inferior" unicode="&#x2082;" 
d="M111 246q0 -20 4 -41q4 -12 -11 -12h-18q-12 0 -14 12q-4 15 -4 41q0 90 48 145t148 55q195 0 195 -219q0 -39 -7 -74q-7 -33 -17 -71q-9 -34 -30 -74l-18 -36l-15 -30q-15 -28 -42 -68q-29 -43 -43 -61q-37 -48 -48 -61q-10 -11 -19.5 -23t-15.5 -19t-9 -10
q-2 -3 -17 -19t-28 -31q-36 -41 -37 -43h346q12 0 12 -13v-16q0 -12 -12 -12h-385q-13 0 -13 12v16q0 12 7 19q61 69 108 125q43 51 106 140q65 92 100 181q34 87 34 168q0 183 -152 183q-153 0 -153 -164z" />
    <glyph glyph-name="three.inferior" unicode="&#x2083;" 
d="M248 2h-55q-13 0 -13 12v15q0 12 13 12h53q69 0 111 47t42 143t-43 136q-44 41 -137 41q-57 0 -123 -21q-12 -5 -12 8v19q0 7 8 12q49 20 127 20q117 0 170 -51t53 -164q0 -91 -33 -141q-34 -52 -83 -67q55 -6 96 -64t41 -156q0 -249 -254 -249q-85 0 -135 20q-8 5 -8 12
v17q0 13 12 8q54 -19 131 -19q107 0 160 51q51 50 51 160q0 199 -172 199z" />
    <glyph glyph-name="four.inferior" unicode="&#x2084;" 
d="M391 356l-305 -534h305v534zM528 -219h-94v-203q0 -12 -12 -12h-19q-12 0 -12 12v203h-342q-12 0 -12 12v19q0 9 8 22l340 590q6 10 16 10h21q12 0 12 -12v-600h94q13 0 13 -12v-17q0 -12 -13 -12z" />
    <glyph glyph-name="five.inferior" unicode="&#x2085;" 
d="M471 -182q0 -264 -250 -264q-85 0 -135 20q-8 5 -8 12v17q0 13 12 8q54 -19 131 -19q207 0 207 226q0 229 -164 229q-43 0 -74 -7q-35 -8 -50 -13q-5 -2 -9.5 -3.5t-6.5 -2.5l-3 -1l-2 1l-4 2l-6 4q-7 5 -7 14q17 236 17 381q0 12 12 12h287q12 0 12 -12v-16
q0 -13 -12 -13h-260q-1 -153 -17 -327q53 20 127 20q104 0 154 -74q49 -73 49 -194z" />
    <glyph glyph-name="six.inferior" unicode="&#x2086;" 
d="M416 393q-39 15 -92 15q-115 0 -166 -85q-52 -87 -52 -294q0 -3 2 -35q1 -16 1 -39q15 68 64 108q50 41 118 41q108 0 158 -75q51 -77 51 -199q0 -121 -54 -200q-52 -76 -145 -76q-119 0 -177 105q-58 104 -58 341q0 247 59 346q60 100 199 100q58 0 94 -14q6 -2 6 -10
v-21q0 -6 -2 -8q-2 -1 -6 0zM301 -408q75 0 115 66q41 67 41 172q0 236 -166 236q-71 0 -120 -58q-48 -57 -48 -176q0 -94 47 -167t131 -73z" />
    <glyph glyph-name="seven.inferior" unicode="&#x2087;" 
d="M479 422v-19q0 -11 -4 -16q-101 -150 -180 -387q-80 -238 -80 -422q0 -12 -12 -12h-21q-12 0 -12 12q0 181 79 414q79 234 181 401h-348q-12 0 -12 13v16q0 12 12 12h385q12 0 12 -12z" />
    <glyph glyph-name="eight.inferior" unicode="&#x2088;" 
d="M276 -446q-105 0 -161 56q-58 58 -58 157q0 178 172 251q-155 76 -155 234q0 86 54 140t148 54q95 0 149 -54t54 -140q0 -158 -155 -234q172 -73 172 -251q0 -99 -58 -157q-56 -56 -162 -56zM276 -2q-174 -66 -174 -234q0 -78 45 -125t129 -47q85 0 130 47t45 125
q0 168 -175 234zM276 37q160 62 160 215q0 72 -42 115t-118 43q-75 0 -117 -43t-42 -115q0 -154 159 -215z" />
    <glyph glyph-name="nine.inferior" unicode="&#x2089;" 
d="M137 -393q39 -15 92 -15q115 0 166 85t51 294q0 19 -1 35t-1 39q-15 -68 -64 -108q-50 -41 -118 -41q-108 0 -158 75q-51 77 -51 199q0 123 53 200q52 76 146 76q118 0 177 -105q58 -104 58 -341q0 -247 -59 -346q-60 -100 -199 -100q-58 0 -94 14q-6 2 -6 10v21q0 6 2 8
q1 1 6 0zM252 408q-74 0 -115 -66q-41 -67 -41 -172q0 -236 166 -236q71 0 120 58q48 57 48 176q0 94 -47 167t-131 73z" />
    <glyph glyph-name="parenleft.inferior" unicode="&#x208d;" horiz-adv-x="307" 
d="M98 0q0 268 129 453q6 8 15 8h22q14 0 6 -12q-127 -166 -127 -449t127 -449q8 -12 -6 -12h-22q-9 0 -15 8q-129 185 -129 453z" />
    <glyph glyph-name="parenright.inferior" unicode="&#x208e;" horiz-adv-x="307" 
d="M209 0q0 -268 -129 -453q-6 -8 -14 -8h-23q-14 0 -6 12q127 166 127 449t-127 449q-8 12 6 12h23q8 0 14 -8q129 -185 129 -453z" />
    <glyph glyph-name="Euro" unicode="&#x20ac;" horiz-adv-x="888" 
d="M74 614h139q-2 44 -2 103q0 58 2 102h-139q-13 0 -13 12v19q0 12 13 12h139q16 307 117 448q100 140 313 140q90 0 156 -20q16 -6 14 -19l-2 -16q-2 -15 -18 -11q-72 21 -150 21q-188 0 -276 -130t-103 -413h467q12 0 12 -12l-2 -19q0 -12 -12 -12h-467q-2 -44 -2 -102
q0 -59 2 -103h440q13 0 13 -12l-2 -18q0 -13 -13 -13h-436q16 -281 105 -412q88 -130 276 -130q78 0 156 22q17 5 18 -10l2 -14q2 -15 -14 -21q-75 -22 -162 -22q-213 0 -313 140q-101 141 -117 447h-141q-13 0 -13 13v18q0 12 13 12z" />
    <glyph glyph-name="afii61289" unicode="&#x2113;" horiz-adv-x="925" 
d="M477 33q41 0 84 8q14 4 14 -10v-13q0 -19 -14 -20q-40 -8 -86 -8q-95 0 -145 60q-49 59 -49 206v233q-97 -53 -191 -77q-11 -2 -16 8l-6 16q-5 12 8 17q98 28 205 86v456q0 455 235 455q197 0 197 -299q0 -218 -112 -378q-110 -158 -275 -259v-254q0 -124 35 -175
q36 -52 116 -52zM326 997v-432q342 221 342 588q0 254 -152 254q-88 0 -139 -102t-51 -308z" />
    <glyph glyph-name="trademark" unicode="&#x2122;" horiz-adv-x="946" 
d="M356 1393h-120v-609q0 -10 -11 -10h-22q-10 0 -10 10v609h-121q-11 0 -11 10v20q0 11 11 11h284q11 0 11 -11v-20q0 -10 -11 -10zM641 979q-11 0 -18 14l-148 363v-572q0 -10 -10 -10h-21q-10 0 -10 10v639q0 11 10 11h33q7 0 8 -4l156 -394l156 394q1 4 8 4h33
q10 0 10 -11v-639q0 -10 -10 -10h-21q-10 0 -10 10v574l-148 -365q-7 -14 -18 -14z" />
    <glyph glyph-name="Omega" unicode="&#x2126;" horiz-adv-x="1056" 
d="M528 1450q118 0 204 -47q85 -46 133 -132q49 -87 71 -190t22 -235q0 -427 -270 -625v-176h211q12 0 12 -12v-21q0 -12 -12 -12h-258v223q0 20 21 35q116 77 182 229q65 149 65 359q0 251 -89 406t-292 155q-202 0 -291 -155q-90 -157 -90 -406q0 -208 66 -359
q66 -152 182 -229q21 -15 21 -35v-223h-258q-13 0 -13 12v21q0 12 13 12h211v176q-271 199 -271 625q0 128 23 235q23 106 70 190q48 85 134 132t203 47z" />
    <glyph glyph-name="estimated" unicode="&#x212e;" horiz-adv-x="1753" 
d="M1679 686h-1286q-10 0 -10 -8v-379q0 -39 16 -59q170 -197 492 -197q324 0 516 223h119q-111 -132 -279 -209q-163 -75 -358 -75q-338 0 -573 215q-234 215 -234 518q0 307 230 521t569 214q338 0 568 -214t230 -521v-29zM1378 748v380q0 51 -22 74q-192 187 -473 187
q-289 0 -482 -199q-18 -18 -18 -60v-382q0 -13 10 -13h975q10 0 10 13z" />
    <glyph glyph-name="onethird" unicode="&#x2153;" horiz-adv-x="1331" 
d="M301 1368l-174 -172q-8 -8 -16 0l-15 12q-11 11 0 17l205 202q7 7 14 7h17q12 0 12 -13v-843q0 -13 -12 -13h-19q-12 0 -12 13v790zM989 1417l-680 -1405q-6 -12 -18 -12h-23q-15 0 -8 16l680 1405q6 13 18 13h23q16 0 8 -17zM971 436h55q172 0 172 -198q0 -112 -51 -161
q-52 -50 -160 -50q-80 0 -131 18q-12 5 -12 -8v-17q0 -7 8 -12q50 -20 135 -20q254 0 254 250q0 97 -41 155t-96 64q49 15 83 67t34 142q0 111 -54 163t-170 52q-76 0 -127 -21q-8 -5 -8 -12v-19q0 -13 12 -8q66 21 123 21q94 0 138 -41q43 -40 43 -135q0 -98 -42 -144
q-42 -47 -112 -47h-53q-13 0 -13 -12v-14q0 -13 13 -13z" />
    <glyph glyph-name="twothirds" unicode="&#x2154;" horiz-adv-x="1331" 
d="M111 1245q0 -20 4 -41q4 -12 -11 -12h-18q-12 0 -14 12q-4 15 -4 41q0 91 48 146t148 55q195 0 195 -219q0 -40 -7 -75q-7 -32 -17 -71q-9 -32 -30 -73q-7 -14 -18 -36.5t-15 -30.5q-15 -28 -42 -68q-29 -43 -43 -61q-29 -38 -48 -60q-13 -15 -27 -32.5t-17 -20.5
q-2 -3 -17 -19t-28 -31q-36 -41 -37 -43h346q12 0 12 -12v-16q0 -13 -12 -13h-385q-13 0 -13 13v16q0 11 7 18q61 69 108 125q39 46 106 141q65 92 100 181q34 87 34 168q0 182 -152 182q-153 0 -153 -164zM1030 1417l-680 -1405q-6 -12 -18 -12h-23q-15 0 -8 16l680 1405
q7 13 18 13h23q16 0 8 -17zM1026 436h-55q-13 0 -13 13v14q0 12 13 12h53q70 0 112 47q42 46 42 144q0 95 -43 135q-44 41 -138 41q-55 0 -123 -21q-12 -5 -12 8v19q0 7 8 12q51 21 127 21q116 0 170 -52t54 -163q0 -90 -34 -142t-83 -67q55 -6 96 -64t41 -155
q0 -250 -254 -250q-85 0 -135 20q-8 5 -8 12v17q0 13 12 8q51 -18 131 -18q108 0 160 50q51 49 51 161q0 198 -172 198z" />
    <glyph glyph-name="oneeighth" unicode="&#x215b;" horiz-adv-x="1331" 
d="M301 1368l-174 -172q-8 -8 -16 0l-15 12q-11 11 0 17l205 202q7 7 14 7h17q12 0 12 -13v-843q0 -13 -12 -13h-19q-12 0 -12 13v790zM989 1417l-680 -1405q-6 -12 -18 -12h-23q-15 0 -8 16l680 1405q6 13 18 13h23q16 0 8 -17zM1055 -12q106 0 162 56q57 57 57 157
q0 179 -172 252q155 76 155 233q0 86 -54 140q-55 55 -148 55q-94 0 -149 -55q-54 -54 -54 -140q0 -156 156 -233q-172 -73 -172 -252q0 -100 57 -157q56 -56 162 -56zM1055 432q174 -66 174 -233q0 -79 -45 -126q-45 -46 -129 -46t-129 46q-45 47 -45 126q0 167 174 233z
M1055 471q-160 62 -160 215q0 72 42 115t118 43q75 0 117 -43t42 -115q0 -154 -159 -215z" />
    <glyph glyph-name="threeeighths" unicode="&#x215c;" horiz-adv-x="1331" 
d="M248 1001h-55q-13 0 -13 13v14q0 12 13 12h53q69 0 111 47t42 144q0 95 -43 135q-44 41 -137 41q-57 0 -123 -21q-12 -4 -12 9v18q0 7 8 12q51 21 127 21q117 0 170 -51t53 -164q0 -91 -33 -141q-35 -54 -83 -68q55 -6 96 -64t41 -155q0 -250 -254 -250q-85 0 -135 20
q-8 5 -8 13v16q0 12 12 8q51 -18 131 -18q108 0 160 50q51 50 51 161q0 198 -172 198zM1030 1417l-680 -1405q-6 -12 -18 -12h-23q-15 0 -8 16l680 1405q7 13 18 13h23q16 0 8 -17zM1055 -12q-106 0 -162 56q-57 57 -57 157q0 179 172 252q-156 77 -156 233q0 86 54 140
q55 55 149 55q93 0 148 -55q54 -54 54 -140q0 -157 -155 -233q172 -73 172 -252q0 -100 -57 -157q-56 -56 -162 -56zM1055 432q-174 -66 -174 -233q0 -79 45 -126q45 -46 129 -46t129 46q45 47 45 126q0 167 -174 233zM1055 471q159 61 159 215q0 72 -42 115t-117 43
q-76 0 -118 -43t-42 -115q0 -153 160 -215z" />
    <glyph glyph-name="fiveeighths" unicode="&#x215d;" horiz-adv-x="1331" 
d="M471 817q0 -264 -250 -264q-85 0 -135 20q-8 5 -8 13v16q0 12 12 8q51 -18 131 -18q207 0 207 225q0 230 -164 230q-39 0 -74 -8t-50 -13q-18 -6 -19 -6l-6 2l-6 4q-7 5 -7 14q17 236 17 381q0 13 12 13h287q12 0 12 -13v-16q0 -12 -12 -12h-260q-1 -154 -17 -328
q53 20 127 20q105 0 154 -73t49 -195zM1030 1417l-680 -1405q-6 -12 -18 -12h-23q-15 0 -8 16l680 1405q7 13 18 13h23q16 0 8 -17zM1055 -12q-106 0 -162 56q-57 57 -57 157q0 179 172 252q-156 77 -156 233q0 86 54 140q55 55 149 55q93 0 148 -55q54 -54 54 -140
q0 -157 -155 -233q172 -73 172 -252q0 -100 -57 -157q-56 -56 -162 -56zM1055 432q-174 -66 -174 -233q0 -79 45 -126q45 -46 129 -46t129 46q45 47 45 126q0 167 -174 233zM1055 471q159 61 159 215q0 72 -42 115t-117 43q-76 0 -118 -43t-42 -115q0 -153 160 -215z" />
    <glyph glyph-name="seveneighths" unicode="&#x215e;" horiz-adv-x="1331" 
d="M479 1421v-18q0 -12 -4 -17q-101 -150 -180 -387q-80 -238 -80 -421q0 -13 -12 -13h-21q-12 0 -12 13q0 180 79 413q80 236 181 402h-348q-12 0 -12 12v16q0 13 12 13h385q12 0 12 -13zM948 1417l-680 -1405q-6 -12 -18 -12h-23q-15 0 -8 16l680 1405q7 13 19 13h22
q16 0 8 -17zM1055 -12q-106 0 -162 56q-57 57 -57 157q0 179 172 252q-156 77 -156 233q0 86 54 140q55 55 149 55q93 0 148 -55q54 -54 54 -140q0 -157 -155 -233q172 -73 172 -252q0 -100 -57 -157q-56 -56 -162 -56zM1055 432q-174 -66 -174 -233q0 -79 45 -126
q45 -46 129 -46t129 46q45 47 45 126q0 167 -174 233zM1055 471q159 61 159 215q0 72 -42 115t-117 43q-76 0 -118 -43t-42 -115q0 -153 160 -215z" />
    <glyph glyph-name="arrowleft" unicode="&#x2190;" horiz-adv-x="962" 
d="M475 958l-299 -401h651q13 0 13 -12v-17q0 -12 -13 -12h-651l299 -401q11 -15 -6 -15h-25q-10 0 -18 11l-301 401q-10 16 -10 25q0 8 10 24l301 402q7 10 18 10h25q17 0 6 -15z" />
    <glyph glyph-name="arrowup" unicode="&#x2191;" horiz-adv-x="962" 
d="M903 600l-401 299v-651q0 -12 -13 -12h-16q-12 0 -12 12v651l-402 -299q-14 -10 -14 6v25q0 11 10 18l402 301q17 11 24 11q8 0 25 -11l401 -301q11 -8 11 -18v-25q0 -16 -15 -6z" />
    <glyph glyph-name="arrowright" unicode="&#x2192;" horiz-adv-x="962" 
d="M786 557l-299 401q-10 15 7 15h24q12 0 19 -10l301 -402q10 -16 10 -24q0 -9 -10 -25l-301 -401q-8 -11 -19 -11h-24q-17 0 -7 15l299 401h-651q-12 0 -12 12v17q0 12 12 12h651z" />
    <glyph glyph-name="arrowdown" unicode="&#x2193;" horiz-adv-x="962" 
d="M59 473l402 -299v651q0 13 12 13h16q13 0 13 -13v-651l401 299q15 11 15 -6v-25q0 -10 -11 -18l-401 -301q-14 -10 -25 -10q-8 0 -24 10l-402 301q-10 7 -10 18v25q0 16 14 6z" />
    <glyph glyph-name="arrowboth" unicode="&#x2194;" horiz-adv-x="1413" 
d="M1237 557l-299 401q-10 15 6 15h25q11 0 18 -10l301 -402q10 -16 10 -24q0 -9 -10 -25l-301 -401q-8 -11 -18 -11h-25q-16 0 -6 15l299 401l-520 4l-541 -4l299 -401q11 -15 -6 -15h-25q-10 0 -18 11l-301 401q-10 16 -10 25q0 8 10 24l301 402q7 10 18 10h25q17 0 6 -15
l-299 -401l541 -4z" />
    <glyph glyph-name="arrowupdn" unicode="&#x2195;" horiz-adv-x="962" 
d="M502 6l401 299q15 11 15 -6v-25q0 -10 -11 -18l-401 -301q-16 -10 -25 -10q-10 0 -24 10l-402 301q-10 7 -10 18v25q0 16 14 6l402 -299l4 520l-4 541l-402 -299q-14 -10 -14 6v25q0 11 10 18l402 301q16 10 24 10q9 0 25 -10l401 -301q11 -8 11 -18v-25q0 -16 -15 -6
l-401 299l-4 -541z" />
    <glyph glyph-name="arrowupleft" unicode="&#x2196;" horiz-adv-x="962" 
d="M764 856l-496 -72l461 -460q9 -8 0 -17l-12 -12q-9 -9 -17 0l-460 461l-72 -496q-10 -10 -14 -6l-19 18q-8 8 -6 21l72 495q1 16 10 25t25 10l495 72q13 2 21 -6l18 -19q4 -4 1 -9t-7 -5z" />
    <glyph glyph-name="arrowupright" unicode="&#x2197;" horiz-adv-x="962" 
d="M694 784l-495 72q-5 0 -8 5q-3 4 2 9l18 19q8 8 20 6l496 -72q17 -1 25 -10t10 -25l72 -495q2 -12 -7 -21l-18 -18q-4 -4 -9 -1t-5 7l-72 496l-461 -461q-8 -8 -16 0l-13 12q-9 9 0 17z" />
    <glyph glyph-name="arrowdownright" unicode="&#x2198;" horiz-adv-x="962" 
d="M199 217l495 72l-461 461q-8 8 0 16l13 12q8 8 16 0l461 -461l72 496q0 4 5 7t9 -1l18 -18q9 -9 7 -21l-72 -495q-2 -16 -10 -25q-8 -8 -25 -10l-496 -72q-12 -2 -18 4l-20 21q-5 5 -2 9q3 5 8 5z" />
    <glyph glyph-name="arrowdownleft" unicode="&#x2199;" horiz-adv-x="962" 
d="M268 289l496 -72q16 -4 6 -14l-18 -19q-8 -8 -21 -6l-495 72q-16 2 -25 10q-5 5 -10 25l-72 495q-2 13 6 21l19 18q4 4 9 1t5 -7l72 -496l460 461q8 8 17 0l12 -12q8 -8 0 -16z" />
    <glyph glyph-name="partialdiff" unicode="&#x2202;" horiz-adv-x="884" 
d="M303 1386q-14 -4 -14 13v12q0 13 16 19q59 20 150 20q178 0 259 -119t81 -373q0 -978 -428 -978q-137 0 -213 100t-76 268q0 102 17 183q18 85 57 163q39 77 111 124q71 46 173 46q134 0 209 -68t86 -192q14 113 14 352q0 238 -69 344q-69 107 -225 107q-82 0 -148 -21z
M365 23q90 0 158 52q69 53 105 135q35 80 52 167q16 81 16 166q0 278 -258 278q-89 0 -155 -45q-67 -46 -98 -121q-32 -78 -45 -150t-13 -155q0 -147 60 -237t178 -90z" />
    <glyph glyph-name="Delta" unicode="&#x2206;" horiz-adv-x="966" 
d="M469 1446h29q10 0 14 -12l332 -1401q8 -33 -27 -33h-667q-34 0 -27 33l332 1401q5 12 14 12zM479 1362l-307 -1317h623l-308 1317h-8z" />
    <glyph glyph-name="product" unicode="&#x220f;" horiz-adv-x="1011" 
d="M66 1401v20q0 13 12 13h856q12 0 12 -13v-20q0 -4 -3 -7l-5 -5h-4h-172v-1377q0 -12 -12 -12h-23q-12 0 -12 12v1377h-418v-1377q0 -12 -12 -12h-23q-12 4 -12 12v1377h-172q-12 0 -12 12z" />
    <glyph glyph-name="summation" unicode="&#x2211;" horiz-adv-x="798" 
d="M498 586l-355 -766h570q12 0 12 -13v-20q0 -12 -12 -12h-619q-12 0 -12 12v14q0 8 4 19l367 792l-359 777q-4 11 -4 18v14q0 13 12 13h603q12 0 12 -13v-20q0 -12 -12 -12h-558l351 -758q4 -11 4 -19v-8q0 -7 -4 -18z" />
    <glyph glyph-name="minus" unicode="&#x2212;" horiz-adv-x="925" 
d="M811 713h-696q-13 0 -13 12v20q0 13 13 13h696q12 0 12 -13v-20q0 -12 -12 -12z" />
    <glyph glyph-name="uni2215" unicode="&#x2215;" horiz-adv-x="118" 
d="M424 1417l-680 -1405q-6 -12 -18 -12h-23q-15 0 -8 16l680 1405q7 13 18 13h23q16 0 8 -17z" />
    <glyph glyph-name="uni2219" unicode="&#x2219;" horiz-adv-x="299" 
d="M111 477v113q0 12 12 12h53q12 0 12 -12v-113q0 -12 -12 -12h-53q-12 0 -12 12z" />
    <glyph glyph-name="radical" unicode="&#x221a;" horiz-adv-x="1011" 
d="M535 -143h-21q-14 0 -16 12l-256 1085h-148q-12 0 -12 13v18q0 12 12 12h174q16 0 17 -12l237 -1034h4l320 1593q2 12 16 12h23q11 0 10 -14l-344 -1673q-1 -12 -16 -12z" />
    <glyph glyph-name="infinity" unicode="&#x221e;" horiz-adv-x="1028" 
d="M530 899q46 143 195 143q209 0 209 -325q0 -166 -50 -246t-167 -80q-83 0 -139 45q-55 45 -80 99q-46 -144 -195 -144q-209 0 -209 326q0 166 50 246q49 79 167 79q85 0 140 -45q54 -44 79 -98zM477 637l39 205q-61 157 -203 157q-93 0 -133 -66q-41 -67 -41 -216
q0 -144 38 -214q38 -69 124 -69q82 0 119 46q36 44 57 157zM551 797l-39 -205q62 -158 203 -158q92 0 133 67t41 216q0 144 -38 214q-37 68 -124 68q-82 0 -119 -46q-36 -45 -57 -156z" />
    <glyph glyph-name="integral" unicode="&#x222b;" horiz-adv-x="514" 
d="M233 -41v1301q0 99 29 145q28 45 107 45q16 0 32 -2q15 -2 15 -18v-17q0 -15 -15 -10q-14 2 -34 2q-51 0 -69 -33q-17 -31 -17 -112v-1303q0 -100 -30 -145t-106 -45q-16 0 -32 2q-15 1 -15 18v16q0 15 15 11q14 -2 34 -2q52 0 69 32q17 31 17 115z" />
    <glyph glyph-name="approxequal" unicode="&#x2248;" horiz-adv-x="925" 
d="M825 590q-21 -77 -56 -115q-36 -39 -105 -39q-55 0 -160 45l-107 45q-91 39 -137 39q-80 0 -104 -90l-4 -14q-4 -12 -15 -12h-28q-13 0 -9 16q21 76 57 115q35 38 105 38q54 0 160 -45l127 -53q79 -31 119 -31q75 0 102 91l4 14q4 12 14 12h29q14 0 8 -16zM825 1008
q-21 -77 -56 -115q-36 -39 -105 -39q-55 0 -160 45l-107 45q-91 39 -137 39q-80 0 -104 -90l-4 -14q-5 -13 -15 -13h-28q-14 0 -9 17q20 74 57 114q36 39 105 39q54 0 160 -45l127 -53q81 -31 119 -31q75 0 102 90l4 15q4 12 14 12h29q14 0 8 -16z" />
    <glyph glyph-name="notequal" unicode="&#x2260;" horiz-adv-x="925" 
d="M811 500h-393l-154 -490q-1 -10 -14 -10h-23q-15 0 -10 12l154 488h-256q-13 0 -13 12v20q0 13 13 13h270l119 381h-389q-13 0 -13 12v20q0 13 13 13h403l144 452q2 11 14 11h22q16 0 11 -13l-144 -450h246q12 0 12 -13v-20q0 -12 -12 -12h-260l-119 -381h379
q12 0 12 -13v-20q0 -12 -12 -12z" />
    <glyph glyph-name="lessequal" unicode="&#x2264;" horiz-adv-x="925" 
d="M135 733q0 6 6 12l551 551q8 11 19 0l16 -16q8 -8 0 -16l-530 -531l530 -530q9 -9 0 -17l-16 -16q-11 -11 -19 0l-551 551q-6 6 -6 12zM717 0h-563q-13 0 -13 12v21q0 12 13 12h563q12 0 12 -12v-21q0 -12 -12 -12z" />
    <glyph glyph-name="greaterequal" unicode="&#x2265;" horiz-adv-x="925" 
d="M791 733q0 -5 -7 -12l-551 -551q-7 -10 -18 0l-16 16q-9 8 0 17l530 530l-530 531q-8 8 0 16l16 16q11 10 18 0l551 -551q7 -7 7 -12zM772 0h-563q-12 0 -12 12v21q0 12 12 12h563q12 0 12 -12v-21q0 -12 -12 -12z" />
    <glyph glyph-name="lozenge" unicode="&#x25ca;" horiz-adv-x="966" 
d="M483 63l308 654l-308 653l-307 -653zM483 -12q-10 0 -14 12l-336 700q-6 12 -6 17q0 4 6 16l336 701q4 12 14 12q11 0 15 -12l336 -701q6 -12 6 -16q0 -5 -6 -17l-336 -700q-4 -12 -15 -12z" />
    <glyph glyph-name="uniE000" unicode="&#xe000;" horiz-adv-x="1024" 
 />
    <glyph glyph-name="Q.alt" unicode="&#xe001;" horiz-adv-x="937" 
d="M442 -213l4 197q-185 10 -271 177q-85 166 -85 556q0 399 90 566t289 167t289 -167t90 -566q0 -388 -86 -557q-86 -168 -273 -176l5 -197q0 -12 -13 -12h-26q-13 0 -13 12zM469 27q174 0 252 156t78 534q0 377 -78 533q-79 157 -252 157q-174 0 -252 -158
q-78 -157 -78 -534q0 -376 78 -532t252 -156z" />
    <glyph glyph-name="a.alt" unicode="&#xe002;" horiz-adv-x="765" 
d="M612 535q0 507 -254 507q-237 0 -237 -510q0 -505 237 -505q254 0 254 508zM655 1057v-1045q0 -12 -12 -12h-20q-13 0 -13 12v197q-24 -102 -89 -164q-64 -61 -163 -61q-150 0 -217 139q-67 138 -67 412q0 273 67 411q67 139 217 139q99 0 163 -61q65 -62 89 -164v197
q0 12 13 12h20q12 0 12 -12z" />
    <glyph glyph-name="u.alt" unicode="&#xe003;" horiz-adv-x="765" 
d="M383 -16q-158 0 -215 88q-57 89 -57 282v703q0 12 12 12h20q13 0 13 -12v-703q0 -176 45 -252q44 -75 182 -75t182 75q45 76 45 252v703q0 12 13 12h20q12 0 12 -12v-703q0 -193 -57 -282q-57 -88 -215 -88z" />
    <glyph glyph-name="y.alt" unicode="&#xe004;" horiz-adv-x="753" 
d="M598 106v168q-18 -77 -81 -139q-62 -61 -163 -61q-120 0 -182 87q-61 86 -61 242v654q0 12 12 12h20q13 0 13 -12v-654q0 -286 200 -286q111 0 176 98q66 99 66 240v602q0 12 12 12h21q12 0 12 -12v-955q0 -179 -72 -262q-72 -82 -219 -82q-123 0 -207 41q-14 7 -14 21
v12q0 14 14 10q91 -41 203 -41q130 0 190 71q60 70 60 234z" />
    <glyph glyph-name="j.alt" unicode="&#xe005;" horiz-adv-x="299" 
d="M172 1057v-1270q0 -12 -12 -12h-21q-12 0 -12 12v1270q0 12 12 12h21q12 0 12 -12zM176 1393v-146q0 -12 -12 -12h-29q-12 0 -12 12v146q0 12 12 12h29q12 0 12 -12z" />
    <glyph glyph-name="agrave.alt" unicode="&#xe006;" horiz-adv-x="765" 
d="M612 535q0 507 -254 507q-237 0 -237 -510q0 -505 237 -505q254 0 254 508zM655 1057v-1045q0 -12 -12 -12h-20q-13 0 -13 12v197q-24 -102 -89 -164q-64 -61 -163 -61q-150 0 -217 139q-67 138 -67 412q0 273 67 411q67 139 217 139q99 0 163 -61q65 -62 89 -164v197
q0 12 13 12h20q12 0 12 -12zM299 1376l113 -172q8 -12 -6 -12h-15q-8 0 -14 8l-144 174q-16 19 9 19h32q14 0 25 -17z" />
    <glyph glyph-name="aacute.alt" unicode="&#xe007;" horiz-adv-x="765" 
d="M612 535q0 507 -254 507q-237 0 -237 -510q0 -505 237 -505q254 0 254 508zM655 1057v-1045q0 -12 -12 -12h-20q-13 0 -13 12v197q-24 -102 -89 -164q-64 -61 -163 -61q-150 0 -217 139q-67 138 -67 412q0 273 67 411q67 139 217 139q99 0 163 -61q65 -62 89 -164v197
q0 12 13 12h20q12 0 12 -12zM354 1204l113 172q11 17 25 17h32q24 0 8 -19l-143 -174q-6 -8 -14 -8h-15q-14 0 -6 12z" />
    <glyph glyph-name="acircumflex.alt" unicode="&#xe008;" horiz-adv-x="765" 
d="M612 535q0 507 -254 507q-237 0 -237 -510q0 -505 237 -505q254 0 254 508zM655 1057v-1045q0 -12 -12 -12h-20q-13 0 -13 12v197q-24 -102 -89 -164q-64 -61 -163 -61q-150 0 -217 139q-67 138 -67 412q0 273 67 411q67 139 217 139q99 0 163 -61q65 -62 89 -164v197
q0 12 13 12h20q12 0 12 -12zM500 1200l-133 158l-134 -158q-8 -8 -14 -8h-14q-15 0 -8 12l133 182q10 15 24 15h25q14 0 24 -15l134 -182q7 -12 -9 -12h-14q-6 0 -14 8z" />
    <glyph glyph-name="atilde.alt" unicode="&#xe009;" horiz-adv-x="765" 
d="M612 535q0 507 -254 507q-237 0 -237 -510q0 -505 237 -505q254 0 254 508zM655 1057v-1045q0 -12 -12 -12h-20q-13 0 -13 12v197q-24 -102 -89 -164q-64 -61 -163 -61q-150 0 -217 139q-67 138 -67 412q0 273 67 411q67 139 217 139q99 0 163 -61q65 -62 89 -164v197
q0 12 13 12h20q12 0 12 -12zM569 1300q0 -52 -26 -82q-27 -32 -70 -32q-46 0 -90 37l-53 39q-38 24 -60 24q-27 0 -41 -20t-16 -43l-2 -17q-1 -14 -14 -14h-11q-14 0 -14 14q0 50 27 85q27 34 69 34q44 0 90 -37l50 -37q33 -26 63 -26q25 0 40 19q16 20 17 40l2 16
q2 15 15 15h10q14 0 14 -15z" />
    <glyph glyph-name="adieresis.alt" unicode="&#xe00a;" horiz-adv-x="765" 
d="M612 535q0 507 -254 507q-237 0 -237 -510q0 -505 237 -505q254 0 254 508zM655 1057v-1045q0 -12 -12 -12h-20q-13 0 -13 12v197q-24 -102 -89 -164q-64 -61 -163 -61q-150 0 -217 139q-67 138 -67 412q0 273 67 411q67 139 217 139q99 0 163 -61q65 -62 89 -164v197
q0 12 13 12h20q12 0 12 -12zM274 1288v-84q0 -12 -12 -12h-29q-12 0 -12 12v84q0 12 12 12h29q12 0 12 -12zM512 1288v-84q0 -12 -12 -12h-29q-12 0 -12 12v84q0 12 12 12h29q12 0 12 -12z" />
    <glyph glyph-name="amacron.alt" unicode="&#xe00b;" horiz-adv-x="765" 
d="M612 535q0 507 -254 507q-237 0 -237 -510q0 -505 237 -505q254 0 254 508zM655 1057v-1045q0 -12 -12 -12h-20q-13 0 -13 12v197q-24 -102 -89 -164q-64 -61 -163 -61q-150 0 -217 139q-67 138 -67 412q0 273 67 411q67 139 217 139q99 0 163 -61q65 -62 89 -164v197
q0 12 13 12h20q12 0 12 -12zM530 1208h-319q-12 0 -12 13v14q0 12 12 12h319q13 0 13 -12v-14q0 -13 -13 -13z" />
    <glyph glyph-name="abreve.alt" unicode="&#xe00c;" horiz-adv-x="765" 
d="M612 535q0 507 -254 507q-237 0 -237 -510q0 -505 237 -505q254 0 254 508zM655 1057v-1045q0 -12 -12 -12h-20q-13 0 -13 12v197q-24 -102 -89 -164q-64 -61 -163 -61q-150 0 -217 139q-67 138 -67 412q0 273 67 411q67 139 217 139q99 0 163 -61q65 -62 89 -164v197
q0 12 13 12h20q12 0 12 -12zM371 1188q-83 0 -129 48q-48 49 -52 118q0 12 13 12h18q12 0 12 -12q17 -123 138 -123t137 123q0 12 12 12h19q12 0 12 -12q-5 -70 -51 -118t-129 -48z" />
    <glyph glyph-name="aring.alt" unicode="&#xe00d;" horiz-adv-x="765" 
d="M612 535q0 507 -254 507q-237 0 -237 -510q0 -505 237 -505q254 0 254 508zM655 1057v-1045q0 -12 -12 -12h-20q-13 0 -13 12v197q-24 -102 -89 -164q-64 -61 -163 -61q-150 0 -217 139q-67 138 -67 412q0 273 67 411q67 139 217 139q99 0 163 -61q65 -62 89 -164v197
q0 12 13 12h20q12 0 12 -12zM371 1210q110 0 110 109q0 52 -28 80t-80 28q-113 0 -113 -108q0 -109 111 -109zM373 1466q71 0 110 -40t39 -107q0 -68 -40 -108t-111 -40q-72 0 -112 40t-40 108q0 67 40 107t114 40z" />
    <glyph glyph-name="aringacute.alt" unicode="&#xe00e;" horiz-adv-x="765" 
d="M655 1057v-1045q0 -12 -12 -12h-20q-13 0 -13 12v197q-24 -102 -89 -164q-64 -61 -163 -61q-150 0 -217 139q-67 138 -67 412q0 273 67 411q67 139 217 139q99 0 163 -61q65 -62 89 -164v197q0 12 13 12h20q12 0 12 -12zM612 535q0 507 -254 507q-237 0 -237 -510
q0 -505 237 -505q254 0 254 508zM504 1610l-119 -144q66 -4 101 -44q36 -40 36 -103q0 -68 -40 -108t-111 -40q-72 0 -112 40t-40 108q0 127 121 145l98 148q10 16 25 16h33q23 0 8 -18zM371 1210q110 0 110 109q0 52 -28 80t-80 28q-113 0 -113 -108q0 -109 111 -109z" />
    <glyph glyph-name="aogonek.alt" unicode="&#xe00f;" horiz-adv-x="765" 
d="M655 1057v-1045q0 -12 -12 -12h-14q-107 -78 -107 -166q0 -61 76 -61h39q12 0 12 -13v-12q0 -10 -10 -16q-17 -6 -47 -6q-117 0 -117 102q0 112 135 188v193q-24 -102 -89 -164q-64 -61 -163 -61q-150 0 -217 139q-67 138 -67 412q0 273 67 411q67 139 217 139
q99 0 163 -61q65 -62 89 -164v197q0 12 13 12h20q12 0 12 -12zM612 535q0 507 -254 507q-237 0 -237 -510q0 -505 237 -505q254 0 254 508z" />
    <glyph glyph-name="ij.alt" unicode="&#xe010;" horiz-adv-x="589" 
d="M172 1057v-1045q0 -12 -12 -12h-21q-12 0 -12 12v1045q0 12 12 12h21q12 0 12 -12zM176 1393v-146q0 -12 -12 -12h-29q-12 0 -12 12v146q0 12 12 12h29q12 0 12 -12zM463 1057v-1270q0 -12 -12 -12h-21q-12 0 -12 12v1270q0 12 12 12h21q12 0 12 -12zM467 1393v-146
q0 -12 -12 -12h-29q-12 0 -12 12v146q0 12 12 12h29q12 0 12 -12z" />
    <glyph glyph-name="jcircumflex.alt" unicode="&#xe011;" horiz-adv-x="299" 
d="M172 1057v-1270q0 -12 -12 -12h-21q-12 0 -12 12v1270q0 12 12 12h21q12 0 12 -12zM283 1200l-133 158l-134 -158q-8 -8 -14 -8h-14q-16 0 -8 12l133 182q11 15 24 15h25q14 0 24 -15l133 -182q8 -12 -8 -12h-14q-6 0 -14 8z" />
    <glyph glyph-name="dotlessj.alt" unicode="&#xe012;" horiz-adv-x="299" 
d="M172 1057v-1270q0 -12 -12 -12h-21q-12 0 -12 12v1270q0 12 12 12h21q12 0 12 -12z" />
    <glyph glyph-name="ugrave.alt" unicode="&#xe013;" horiz-adv-x="765" 
d="M383 -16q-158 0 -215 88q-57 89 -57 282v703q0 12 12 12h20q13 0 13 -12v-703q0 -176 45 -252q44 -75 182 -75t182 75q45 76 45 252v703q0 12 13 12h20q12 0 12 -12v-703q0 -193 -57 -282q-57 -88 -215 -88zM279 1376l112 -172q7 -12 -6 -12h-14q-9 0 -15 8l-143 174
q-16 19 8 19h33q14 0 25 -17z" />
    <glyph glyph-name="uacute.alt" unicode="&#xe014;" horiz-adv-x="765" 
d="M383 -16q-158 0 -215 88q-57 89 -57 282v703q0 12 12 12h20q13 0 13 -12v-703q0 -176 45 -252q44 -75 182 -75t182 75q45 76 45 252v703q0 12 13 12h20q12 0 12 -12v-703q0 -193 -57 -282q-57 -88 -215 -88zM375 1204l112 172q11 17 25 17h33q24 0 8 -19l-143 -174
q-6 -8 -15 -8h-14q-13 0 -6 12z" />
    <glyph glyph-name="ucircumflex.alt" unicode="&#xe015;" horiz-adv-x="765" 
d="M383 -16q-158 0 -215 88q-57 89 -57 282v703q0 12 12 12h20q13 0 13 -12v-703q0 -176 45 -252q44 -75 182 -75t182 75q45 76 45 252v703q0 12 13 12h20q12 0 12 -12v-703q0 -193 -57 -282q-57 -88 -215 -88zM516 1200l-133 158l-133 -158q-8 -8 -14 -8h-15q-16 0 -8 12
l133 182q10 15 25 15h24q15 0 25 -15l133 -182q8 -12 -8 -12h-15q-6 0 -14 8z" />
    <glyph glyph-name="utilde.alt" unicode="&#xe016;" horiz-adv-x="765" 
d="M383 -16q-158 0 -215 88q-57 89 -57 282v703q0 12 12 12h20q13 0 13 -12v-703q0 -176 45 -252q44 -75 182 -75t182 75q45 76 45 252v703q0 12 13 12h20q12 0 12 -12v-703q0 -193 -57 -282q-57 -88 -215 -88zM582 1300q0 -50 -27 -82t-70 -32q-44 0 -90 37l-53 39
q-37 24 -59 24q-27 0 -41 -20q-16 -22 -17 -43l-2 -17q-1 -14 -14 -14h-10q-15 0 -15 14q0 50 27 85q27 34 70 34q44 0 90 -37l49 -37q33 -26 63 -26q25 0 40 19q17 22 18 40l2 16q1 15 14 15h10q15 0 15 -15z" />
    <glyph glyph-name="udieresis.alt" unicode="&#xe017;" horiz-adv-x="765" 
d="M383 -16q-158 0 -215 88q-57 89 -57 282v703q0 12 12 12h20q13 0 13 -12v-703q0 -176 45 -252q44 -75 182 -75t182 75q45 76 45 252v703q0 12 13 12h20q12 0 12 -12v-703q0 -193 -57 -282q-57 -88 -215 -88zM291 1288v-84q0 -12 -12 -12h-29q-12 0 -12 12v84q0 12 12 12
h29q12 0 12 -12zM528 1288v-84q0 -12 -12 -12h-29q-12 0 -12 12v84q0 12 12 12h29q12 0 12 -12z" />
    <glyph glyph-name="umacron.alt" unicode="&#xe018;" horiz-adv-x="765" 
d="M383 -16q-158 0 -215 88q-57 89 -57 282v703q0 12 12 12h20q13 0 13 -12v-703q0 -176 45 -252q44 -75 182 -75t182 75q45 76 45 252v703q0 12 13 12h20q12 0 12 -12v-703q0 -193 -57 -282q-57 -88 -215 -88zM543 1208h-320q-12 0 -12 13v14q0 12 12 12h320q12 0 12 -12
v-14q0 -13 -12 -13z" />
    <glyph glyph-name="ubreve.alt" unicode="&#xe019;" horiz-adv-x="765" 
d="M383 -16q-158 0 -215 88q-57 89 -57 282v703q0 12 12 12h20q13 0 13 -12v-703q0 -176 45 -252q44 -75 182 -75t182 75q45 76 45 252v703q0 12 13 12h20q12 0 12 -12v-703q0 -193 -57 -282q-57 -88 -215 -88zM383 1188q-83 0 -129 48t-51 118q0 12 12 12h18q13 0 13 -12
q17 -123 137 -123q121 0 137 123q0 12 12 12h19q12 0 12 -12q-5 -70 -51 -118t-129 -48z" />
    <glyph glyph-name="uring.alt" unicode="&#xe01a;" horiz-adv-x="765" 
d="M383 -16q-158 0 -215 88q-57 89 -57 282v703q0 12 12 12h20q13 0 13 -12v-703q0 -176 45 -252q44 -75 182 -75t182 75q45 76 45 252v703q0 12 13 12h20q12 0 12 -12v-703q0 -193 -57 -282q-57 -88 -215 -88zM383 1210q111 0 111 109q0 51 -29 80q-28 28 -80 28
q-113 0 -113 -108q0 -109 111 -109zM385 1466q72 0 111 -40t39 -107q0 -68 -40 -108t-112 -40t-112 40t-40 108q0 67 40 107t114 40z" />
    <glyph glyph-name="uhungarumlaut.alt" unicode="&#xe01b;" horiz-adv-x="765" 
d="M383 -16q-158 0 -215 88q-57 89 -57 282v703q0 12 12 12h20q13 0 13 -12v-703q0 -176 45 -252q44 -75 182 -75t182 75q45 76 45 252v703q0 12 13 12h20q12 0 12 -12v-703q0 -193 -57 -282q-57 -88 -215 -88zM266 1204l96 172q11 17 25 17h31q24 0 8 -19l-125 -174
q-6 -8 -14 -8h-15q-14 0 -6 12zM461 1204l96 172q11 17 25 17h30q25 0 9 -19l-125 -174q-6 -8 -15 -8h-14q-13 0 -6 12z" />
    <glyph glyph-name="ydieresis.alt" unicode="&#xe01c;" horiz-adv-x="753" 
d="M598 106v168q-18 -77 -81 -139q-62 -61 -163 -61q-120 0 -182 87q-61 86 -61 242v654q0 12 12 12h20q13 0 13 -12v-654q0 -286 200 -286q111 0 176 98q66 99 66 240v602q0 12 12 12h21q12 0 12 -12v-955q0 -179 -72 -262q-72 -82 -219 -82q-123 0 -207 41q-14 7 -14 21
v12q0 14 14 10q91 -41 203 -41q130 0 190 71q60 70 60 234zM285 1288v-84q0 -12 -13 -12h-28q-13 0 -13 12v84q0 12 13 12h28q13 0 13 -12zM522 1288v-84q0 -12 -12 -12h-29q-12 0 -12 12v84q0 12 12 12h29q12 0 12 -12z" />
    <glyph glyph-name="yacute.alt" unicode="&#xe01d;" horiz-adv-x="753" 
d="M598 106v168q-18 -77 -81 -139q-62 -61 -163 -61q-120 0 -182 87q-61 86 -61 242v654q0 12 12 12h20q13 0 13 -12v-654q0 -286 200 -286q111 0 176 98q66 99 66 240v602q0 12 12 12h21q12 0 12 -12v-955q0 -179 -72 -262q-72 -82 -219 -82q-123 0 -207 41q-14 7 -14 21
v12q0 14 14 10q91 -41 203 -41q130 0 190 71q60 70 60 234zM360 1204l113 172q11 17 25 17h32q25 0 9 -19l-144 -174q-6 -8 -14 -8h-14q-15 0 -7 12z" />
    <glyph glyph-name="ycircumflex.alt" unicode="&#xe01e;" horiz-adv-x="753" 
d="M598 106v168q-18 -77 -81 -139q-62 -61 -163 -61q-120 0 -182 87q-61 86 -61 242v654q0 12 12 12h20q13 0 13 -12v-654q0 -286 200 -286q111 0 176 98q66 99 66 240v602q0 12 12 12h21q12 0 12 -12v-955q0 -179 -72 -262q-72 -82 -219 -82q-123 0 -207 41q-14 7 -14 21
v12q0 14 14 10q91 -41 203 -41q130 0 190 71q60 70 60 234zM510 1200l-133 158l-133 -158q-8 -8 -15 -8h-14q-15 0 -8 12l133 182q11 15 25 15h24q15 0 25 -15l133 -182q7 -12 -8 -12h-15q-6 0 -14 8z" />
    <glyph glyph-name="ygrave.alt" unicode="&#xe01f;" horiz-adv-x="753" 
d="M598 106v168q-18 -77 -81 -139q-62 -61 -163 -61q-120 0 -182 87q-61 86 -61 242v654q0 12 12 12h20q13 0 13 -12v-654q0 -286 200 -286q111 0 176 98q66 99 66 240v602q0 12 12 12h21q12 0 12 -12v-955q0 -179 -72 -262q-72 -82 -219 -82q-123 0 -207 41q-14 7 -14 21
v12q0 14 14 10q91 -41 203 -41q130 0 190 71q60 70 60 234zM281 1376l112 -172q8 -12 -6 -12h-14q-9 0 -15 8l-143 174q-16 19 8 19h33q14 0 25 -17z" />
    <glyph glyph-name="i.dot" unicode="&#xe020;" horiz-adv-x="299" 
d="M172 1057v-1045q0 -12 -12 -12h-21q-12 0 -12 12v1045q0 12 12 12h21q12 0 12 -12zM176 1393v-146q0 -12 -12 -12h-29q-12 0 -12 12v146q0 12 12 12h29q12 0 12 -12z" />
    <glyph glyph-name="dollar.old" unicode="&#xe021;" horiz-adv-x="708" 
d="M391 1319v-135q96 -1 168 -21q14 -4 14 -18v-15q0 -16 -16 -12q-72 21 -184 21q-115 0 -176 -52q-60 -51 -60 -167q0 -69 33 -126q33 -58 67 -84q51 -40 105 -77q10 -6 56 -38q56 -39 59 -41q38 -30 49 -39q33 -26 48 -49q3 -5 14.5 -23t18.5 -29q18 -27 26 -67
q8 -38 8 -77q0 -122 -62 -193q-61 -71 -168 -87v-142q0 -12 -12 -12h-23q-12 0 -12 12v136q-166 0 -248 30q-14 4 -14 21v14q0 14 16 10q92 -30 226 -30q117 0 183 60t66 181q0 38 -6 68q-7 34 -23 58q-28 42 -31 46q-14 18 -44 44t-45 36q-10 7 -55 37q-30 20 -54 35
q-108 74 -167 146q-58 71 -58 180q0 250 254 262v137q0 12 12 12h23q12 0 12 -12z" />
    <glyph glyph-name="cent.old" unicode="&#xe022;" horiz-adv-x="737" 
d="M94 584q0 576 334 598v137q0 12 12 12h23q12 0 12 -12v-135q84 -1 150 -27q14 -4 14 -20v-13q0 -14 -16 -10q-69 25 -160 25q-320 0 -320 -555q0 -559 320 -559q102 0 168 24q16 4 16 -10v-12q0 -17 -14 -21q-57 -21 -158 -26v-136q0 -12 -12 -12h-23q-12 0 -12 12v138
q-334 22 -334 602z" />
    <glyph glyph-name="sterling.old" unicode="&#xe023;" horiz-adv-x="860" 
d="M219 578h-129q-12 0 -12 12v16q0 12 12 12h113q-72 186 -72 289q0 127 81 202t234 75q142 0 216 -68q73 -67 73 -178q0 -64 -16 -64h-23q-12 0 -12 13q2 28 2 49q0 95 -59 148q-61 55 -178 55q-133 0 -201 -62t-68 -170q0 -101 76 -289h270q13 0 13 -12v-16
q0 -12 -13 -12h-256q54 -140 54 -230q0 -84 -36 -160t-95 -116q42 16 92 16q70 0 166 -27q92 -26 147 -26q56 0 86 36q31 38 37 77q6 42 6 108q0 10 12 10h23q12 0 12 -10q0 -48 -5 -93q-4 -39 -21 -83q-16 -42 -55 -67q-36 -23 -95 -23q-62 0 -156 27q-98 28 -163 28
q-97 0 -187 -45q-8 -6 -14 4l-12 16q-9 9 4 15q202 114 202 315q0 90 -53 228z" />
    <glyph glyph-name="yen.old" unicode="&#xe024;" horiz-adv-x="866" 
d="M743 346h-286v-334q0 -12 -13 -12h-22q-12 0 -12 12v334h-287q-12 0 -12 12v17q0 12 12 12h287v35l-72 156h-215q-12 0 -12 12v16q0 12 12 12h194l-245 535q-6 14 10 14h29q10 0 14 -10l305 -676h6l305 676q4 10 15 10h28q18 0 11 -14l-248 -535h196q13 0 13 -12v-16
q0 -12 -13 -12h-215l-71 -156v-35h286q13 0 13 -12v-17q0 -12 -13 -12z" />
    <glyph glyph-name="Euro.old" unicode="&#xe025;" horiz-adv-x="864" 
d="M90 492h129q-4 51 -4 92q0 37 2 67h-127q-12 0 -12 13v16q0 12 12 12h129q37 492 399 492q96 0 148 -25q11 -7 10 -22l-2 -13q-1 -14 -20 -6q-51 21 -133 21q-320 0 -353 -447h424q8 0 11.5 -3t1.5 -9l-3 -16q-2 -13 -14 -13h-424q-2 -28 -2 -67q0 -41 4 -92h400
q14 0 12 -13l-2 -16q-4 -12 -14 -12h-392q41 -422 363 -422q84 0 133 20q19 8 20 -6l2 -12q2 -16 -10 -23q-50 -24 -147 -24q-364 0 -408 467h-133q-12 0 -12 12v16q0 13 12 13z" />
    <glyph glyph-name="zero.old" unicode="&#xe026;" horiz-adv-x="872" 
d="M436 1188q346 0 346 -604t-346 -604t-346 604t346 604zM436 23q297 0 297 561t-297 561t-297 -561t297 -561z" />
    <glyph glyph-name="one.old" unicode="&#xe027;" horiz-adv-x="622" 
d="M586 0h-512q-13 0 -13 12v19q0 12 13 12h231v1059l-205 -184q-10 -10 -16 0l-14 16q-10 10 0 18l233 209q6 6 16 6h21q12 0 12 -12v-1112h234q12 0 12 -12v-19q0 -12 -12 -12z" />
    <glyph glyph-name="two.old" unicode="&#xe028;" horiz-adv-x="794" 
d="M86 12v21q0 12 8 20q75 70 134 127q47 46 136 145q90 101 137 174q48 75 88 176t40 193q0 126 -60 198q-61 73 -184 73q-229 0 -229 -252q0 -34 2 -62q0 -12 -13 -12h-22q-12 0 -12 12q-5 50 -5 64q0 132 70 214q69 81 211 81q146 0 218 -86q73 -87 73 -230
q0 -95 -41 -201q-41 -107 -92 -186q-54 -85 -136 -175q-82 -91 -136 -143q-64 -62 -126 -118h541q12 0 12 -12v-21q0 -12 -12 -12h-590q-12 0 -12 12z" />
    <glyph glyph-name="three.old" unicode="&#xe029;" horiz-adv-x="724" 
d="M227 557h78q103 0 170 79q68 80 68 218q0 148 -66 217q-67 70 -209 70q-102 0 -196 -33q-17 -5 -17 12v13q0 13 15 18q84 33 198 33q324 0 324 -330q0 -134 -57 -214q-56 -78 -138 -103q92 -11 157 -97q64 -85 64 -256q0 -422 -364 -422q-124 0 -211 29q-14 4 -14 19v12
q0 16 16 12q92 -29 209 -29q315 0 315 381q0 326 -268 326h-74q-12 0 -12 12v21q0 12 12 12z" />
    <glyph glyph-name="four.old" unicode="&#xe02a;" horiz-adv-x="851" 
d="M598 1077l-473 -872h473v872zM606 1167h27q12 0 12 -12v-950h150q12 0 12 -12v-21q0 -12 -12 -12h-150v-373q0 -12 -12 -12h-23q-12 0 -12 12v373h-516q-12 0 -12 12v21q0 8 6 20l512 944q6 10 18 10z" />
    <glyph glyph-name="five.old" unicode="&#xe02b;" horiz-adv-x="770" 
d="M610 1122h-426q-12 -395 -24 -553q90 37 205 37q315 0 315 -399q0 -445 -385 -445q-116 0 -203 29q-14 4 -14 19v12q0 16 16 12q92 -29 201 -29q336 0 336 402q0 356 -266 356q-71 0 -116 -11q-55 -13 -75 -22q-23 -10 -29 -10q-5 0 -12 4l-12 8q-8 6 -8 21
q13 179 26 602q0 12 13 12h458q13 0 13 -12v-20q0 -13 -13 -13z" />
    <glyph glyph-name="six.old" unicode="&#xe02c;" horiz-adv-x="819" 
d="M434 1421q13 13 27 13h22q9 0 11 -6q2 -4 -5 -11q-255 -245 -323 -667q76 163 250 163q155 0 234 -130t79 -337q0 -205 -80 -336q-79 -130 -237 -130q-160 0 -239 132q-79 131 -79 353q0 616 340 956zM143 446q0 -183 68 -304q67 -119 201 -119q133 0 200 119
q68 121 68 304q0 185 -66 305q-65 119 -198 119q-135 0 -203 -120q-70 -123 -70 -304z" />
    <glyph glyph-name="seven.old" unicode="&#xe02d;" horiz-adv-x="704" 
d="M53 1167h563q15 0 15 -12v-20q0 -11 -6 -21q-159 -231 -278 -634q-120 -405 -120 -693q0 -12 -12 -12h-25q-12 0 -12 12q0 297 115 689q114 388 276 646h-516q-12 0 -12 13v20q0 12 12 12z" />
    <glyph glyph-name="eight.old" unicode="&#xe02e;" horiz-adv-x="811" 
d="M406 -20q-153 0 -233 93q-79 92 -79 257q0 156 76 260t188 155q-247 121 -247 385q0 144 76 232t219 88q142 0 218 -88t76 -232q0 -264 -247 -385q112 -51 188 -155t76 -260q0 -166 -78 -258t-233 -92zM406 1407q-118 0 -182 -75q-64 -74 -64 -202q0 -261 246 -360
q245 99 245 360q0 128 -64 202q-65 75 -181 75zM406 721q-119 -44 -190 -142q-73 -100 -73 -251q0 -144 66 -225q65 -80 197 -80q130 0 196 79q66 80 66 224q0 153 -73 253q-72 98 -189 142z" />
    <glyph glyph-name="nine.old" unicode="&#xe02f;" horiz-adv-x="815" 
d="M381 -258q-12 -12 -27 -12h-22q-8 0 -10 5t4 11q255 245 323 668q-77 -164 -250 -164q-155 0 -234 130t-79 337q0 206 80 337q79 130 237 130q159 0 239 -132q79 -131 79 -354q0 -616 -340 -956zM672 717q0 183 -68 304q-68 120 -201 120t-200 -120q-68 -121 -68 -304
q0 -184 66 -304t198 -120q134 0 203 121q70 123 70 303z" />
    <glyph glyph-name="dollar.tab" unicode="&#xe030;" horiz-adv-x="942" 
d="M498 1606v-156q113 -1 188 -23q14 -4 14 -18v-14q0 -17 -16 -13q-87 23 -186 23q-146 0 -207 -67q-60 -66 -60 -205q0 -83 36 -155t77 -116q37 -40 113 -100q140 -114 188 -168q105 -125 105 -277q0 -149 -65 -235t-187 -98v-156q0 -12 -13 -12h-22q-12 0 -12 12v152
q-161 0 -256 34q-15 5 -15 19v14q0 17 17 12q90 -34 254 -34q125 0 188 76q63 77 63 216q0 26 -5 58q-2 13 -10 50q-4 20 -20 48q-3 6 -11.5 20.5t-11.5 20.5q-6 11 -32 41q-24 27 -30 36q-7 10 -38 37q-9 8 -18 15t-13.5 11t-5.5 5t-6 5t-15 12.5t-20 16.5q-36 30 -38 32
q-73 58 -120 109q-43 46 -84 128q-40 80 -40 171q0 143 61 224q60 79 206 91v158q0 12 12 12h22q13 0 13 -12z" />
    <glyph glyph-name="cent.tab" unicode="&#xe031;" horiz-adv-x="942" 
d="M238 535q0 274 65 404q66 132 227 144v158q0 12 13 12h22q13 0 13 -12v-156q63 -1 137 -26q14 -4 14 -21v-12q0 -17 -16 -10q-57 24 -148 24q-158 0 -219 -120q-61 -121 -61 -385q0 -268 61 -387t221 -119q93 0 150 24q16 7 16 -10v-12q0 -17 -14 -21q-74 -25 -141 -26
v-156q0 -12 -13 -12h-22q-13 0 -13 12v158q-164 11 -228 143t-64 406z" />
    <glyph glyph-name="sterling.tab" unicode="&#xe032;" horiz-adv-x="942" 
d="M256 713h-143q-13 0 -13 12v18q0 13 13 13h129q-72 231 -72 366q0 153 80 241q80 87 242 87q153 0 225 -82q71 -81 71 -219q0 -74 -16 -74h-22q-13 0 -13 12q2 28 2 62q0 256 -245 256q-275 0 -275 -283q0 -130 72 -366h260q12 0 12 -13v-18q0 -12 -12 -12h-246
q55 -184 55 -287q0 -108 -44 -205q-43 -96 -130 -158q84 35 131 35q66 0 161 -32q98 -33 155 -33q46 0 75 23t44 69q13 38 18 87q4 37 4 101q0 13 12 13h25q12 0 12 -13q0 -65 -6 -114q-7 -54 -23 -102q-18 -52 -59 -81q-40 -28 -102 -28q-69 0 -158 32q-91 33 -166 33
q-100 0 -186 -53q-11 -6 -17 4l-12 21q-7 10 4 16q213 141 213 389q0 102 -55 283z" />
    <glyph glyph-name="yen.tab" unicode="&#xe033;" horiz-adv-x="942" 
d="M494 430v-418q0 -12 -13 -12h-20q-12 0 -12 12v418h-304q-12 0 -12 12v19q0 12 12 12h304v55l-74 185h-230q-12 0 -12 12v18q0 13 12 13h211l-264 663q-4 15 10 15h23q9 0 14 -11l330 -833h4l330 833q5 11 14 11h23q14 0 10 -15l-266 -663h213q12 0 12 -13v-18
q0 -12 -12 -12h-230l-73 -185v-55h303q12 0 12 -12v-19q0 -12 -12 -12h-303z" />
    <glyph glyph-name="Euro.tab" unicode="&#xe034;" horiz-adv-x="942" 
d="M113 614h139q-2 44 -2 103q0 58 2 102h-139q-13 0 -13 12v19q0 12 13 12h139q16 307 117 448q100 140 313 140q90 0 156 -20q16 -6 14 -19l-2 -16q-2 -16 -19 -11q-72 21 -149 21q-188 0 -276 -130t-103 -413h467q12 0 12 -12l-2 -19q0 -12 -12 -12h-467q-2 -44 -2 -102
q0 -59 2 -103h440q13 0 13 -12l-2 -18q0 -13 -13 -13h-436q16 -281 105 -412q88 -130 276 -130q80 0 156 22q17 5 18 -10l2 -14q2 -15 -14 -21q-75 -22 -162 -22q-213 0 -313 140q-101 141 -117 447h-141q-13 0 -13 13v18q0 12 13 12z" />
    <glyph glyph-name="zero.tab" unicode="&#xe035;" horiz-adv-x="942" 
d="M471 1450q181 0 270 -174q88 -173 88 -563q0 -388 -88 -560q-89 -173 -270 -173t-270 173q-88 172 -88 562t88 562q89 173 270 173zM471 23q156 0 232 163q77 165 77 527q0 367 -75 529q-77 165 -234 165q-155 0 -232 -164q-77 -165 -77 -528q0 -364 77 -529
q76 -163 232 -163z" />
    <glyph glyph-name="one.tab" unicode="&#xe036;" horiz-adv-x="942" 
d="M489 12v1356l-227 -205q-10 -10 -16 0l-15 17q-11 10 0 18l256 229q7 7 17 7h20q13 0 13 -13v-1409q0 -12 -13 -12h-22q-13 0 -13 12z" />
    <glyph glyph-name="two.tab" unicode="&#xe037;" horiz-adv-x="942" 
d="M201 1108q0 -33 2 -61q0 -13 -13 -13h-22q-12 0 -12 13q-4 40 -4 63q0 152 76 246t233 94q156 0 229 -100q74 -101 74 -263q0 -113 -44 -245q-44 -133 -96 -229q-48 -89 -148 -224q-89 -119 -144 -185q-58 -69 -139 -159h593q13 0 13 -12v-21q0 -12 -13 -12h-643
q-12 0 -12 12v21q0 12 8 20q117 131 147 168q63 76 145 187q100 135 147 222q49 91 94 221q43 125 43 236q0 318 -256 318q-133 0 -196 -80q-62 -78 -62 -217z" />
    <glyph glyph-name="three.tab" unicode="&#xe038;" horiz-adv-x="942" 
d="M346 774h86q104 0 173 81t69 241q0 161 -66 236t-221 75q-97 0 -205 -33q-16 -4 -16 12v13q0 14 14 18q105 33 207 33q180 0 258 -85t78 -269q0 -148 -57 -235q-56 -85 -138 -107q96 -16 159 -105t63 -256q0 -208 -93 -312q-91 -101 -286 -101q-113 0 -221 30
q-15 5 -15 19v12q0 17 17 12q111 -30 219 -30q329 0 329 370q0 336 -268 336h-86q-12 0 -12 12v21q0 12 12 12z" />
    <glyph glyph-name="four.tab" unicode="&#xe039;" horiz-adv-x="942" 
d="M698 0h-22q-12 0 -12 12v361h-545q-13 0 -13 12v18q0 9 7 23l540 997q6 11 19 11h26q13 0 13 -13v-1003h161q13 0 13 -12v-21q0 -12 -13 -12h-161v-361q0 -12 -13 -12zM664 1343l-502 -925h502v925z" />
    <glyph glyph-name="five.tab" unicode="&#xe03a;" horiz-adv-x="942" 
d="M782 444q0 -464 -391 -464q-125 0 -209 28q-14 4 -14 19v12q0 16 16 12q88 -28 207 -28q342 0 342 421q0 176 -59 276q-59 101 -213 101q-70 0 -118 -11q-55 -13 -78 -22q-24 -10 -29 -10q-6 0 -13 4l-12 9q-8 6 -8 20q18 250 30 610q0 13 13 13h463q12 0 12 -13v-20
q0 -12 -12 -12h-430q-6 -295 -29 -562q90 37 211 37q96 0 159 -31t99 -93q34 -59 49 -132q14 -67 14 -164z" />
    <glyph glyph-name="six.tab" unicode="&#xe03b;" horiz-adv-x="942" 
d="M692 1384q-69 23 -149 23q-178 0 -262 -149q-84 -148 -84 -510q0 -74 2 -140q17 127 95 199q80 74 208 74q321 0 321 -453q0 -205 -80 -327q-79 -121 -233 -121q-192 0 -278 171q-85 170 -85 564t91 565q90 170 305 170q87 0 151 -23q15 -5 15 -18v-12q0 -18 -17 -13z
M510 23q132 0 198 111t66 294q0 410 -274 410q-283 0 -283 -402q0 -71 15 -140q14 -64 48 -132q32 -64 92 -103q58 -38 138 -38z" />
    <glyph glyph-name="seven.tab" unicode="&#xe03c;" horiz-adv-x="942" 
d="M317 12q0 320 122 715q121 392 290 662h-545q-12 0 -12 12v20q0 13 12 13h594q13 0 13 -13v-20q0 -9 -7 -21q-161 -235 -289 -647q-128 -411 -128 -721q0 -12 -13 -12h-24q-13 0 -13 12z" />
    <glyph glyph-name="eight.tab" unicode="&#xe03d;" horiz-adv-x="942" 
d="M471 -20q-164 0 -248 93t-84 257q0 154 80 260q78 104 201 155q-264 121 -264 385q0 143 83 232q82 88 232 88t232 -88q83 -89 83 -232q0 -264 -264 -385q123 -51 201 -155q80 -106 80 -260q0 -164 -84 -257t-248 -93zM471 1407q-125 0 -196 -75q-70 -74 -70 -202
q0 -259 266 -360q266 101 266 360q0 128 -70 202q-71 75 -196 75zM471 721q-125 -46 -203 -143q-80 -100 -80 -250q0 -144 72 -225q71 -80 211 -80t211 80q72 81 72 225q0 150 -80 250q-78 97 -203 143z" />
    <glyph glyph-name="nine.tab" unicode="&#xe03e;" horiz-adv-x="942" 
d="M254 47q66 -22 149 -22q179 0 263 148q84 149 84 511q0 73 -2 139q-16 -125 -96 -198q-80 -74 -208 -74q-321 0 -321 453q0 204 80 326t233 122q192 0 278 -171q85 -170 85 -564q0 -396 -90 -565q-90 -170 -306 -170q-89 0 -151 22q-14 4 -14 19v12q0 16 16 12zM436 1409
q-130 0 -197 -112q-67 -113 -67 -293q0 -410 274 -410q283 0 283 401q0 72 -15 141q-15 67 -47 132q-31 62 -93 102q-60 39 -138 39z" />
    <glyph glyph-name="dollar.tabold" unicode="&#xe03f;" horiz-adv-x="942" 
d="M508 1319v-135q96 -1 168 -21q14 -4 14 -18v-15q0 -16 -16 -12q-72 21 -185 21q-115 0 -176 -52q-59 -50 -59 -167q0 -69 33 -126q34 -59 66 -84q43 -34 106 -77q10 -6 56 -38q49 -34 58 -41q5 -4 22.5 -17.5t27.5 -21.5q33 -26 48 -49q4 -6 14.5 -23.5t17.5 -28.5
q19 -30 27 -67q7 -34 7 -77q0 -123 -61 -193q-62 -71 -168 -87v-142q0 -12 -12 -12h-23q-12 0 -12 12v136q-165 0 -248 30q-14 4 -14 21v14q0 14 16 10q91 -30 225 -30q118 0 184 60t66 181q0 38 -6 68q-6 31 -24 58q-4 6 -14.5 22.5t-15.5 23.5q-14 18 -44 44t-45 36
q-4 3 -12 8t-20.5 13.5t-23.5 15.5q-45 30 -53 35q-108 74 -167 146q-58 71 -58 180q0 250 254 262v137q0 12 12 12h23q12 0 12 -12z" />
    <glyph glyph-name="cent.tabold" unicode="&#xe040;" horiz-adv-x="942" 
d="M197 584q0 576 333 598v137q0 12 13 12h22q13 0 13 -12v-135q83 -1 149 -27q14 -4 14 -20v-13q0 -14 -16 -10q-69 25 -160 25q-319 0 -319 -555q0 -559 319 -559q102 0 168 24q17 5 17 -10v-12q0 -17 -15 -21q-57 -21 -157 -26v-136q0 -12 -13 -12h-22q-13 0 -13 12v138
q-333 22 -333 602z" />
    <glyph glyph-name="sterling.tabold" unicode="&#xe041;" horiz-adv-x="942" 
d="M264 578h-129q-12 0 -12 12v16q0 12 12 12h113q-72 186 -72 289q0 127 81 202t235 75q141 0 215 -68q73 -67 73 -178q0 -64 -16 -64h-23q-12 0 -12 13q2 28 2 49q0 95 -59 148q-61 55 -178 55q-133 0 -201 -62t-68 -170q0 -101 76 -289h270q13 0 13 -12v-16
q0 -12 -13 -12h-256q54 -140 54 -230q0 -84 -36 -160t-95 -116q42 16 92 16q70 0 166 -27q92 -26 147 -26q56 0 86 36q31 38 37 77q6 42 6 108q0 10 12 10h23q12 0 12 -10q0 -48 -5 -93q-4 -39 -21 -83q-16 -42 -55 -67q-36 -23 -95 -23q-61 0 -156 27q-98 28 -163 28
q-97 0 -187 -45q-8 -6 -14 4l-12 16q-9 9 4 15q202 114 202 315q0 90 -53 228z" />
    <glyph glyph-name="yen.tabold" unicode="&#xe042;" horiz-adv-x="942" 
d="M782 346h-286v-334q0 -12 -13 -12h-22q-12 0 -12 12v334h-287q-12 0 -12 12v17q0 12 12 12h287v35l-72 156h-215q-12 0 -12 12v16q0 12 12 12h194l-245 535q-7 14 10 14h29q10 0 14 -10l305 -676h6l305 676q4 10 15 10h28q17 0 11 -14l-248 -535h196q13 0 13 -12v-16
q0 -12 -13 -12h-215l-71 -156v-35h286q13 0 13 -12v-17q0 -12 -13 -12z" />
    <glyph glyph-name="Euro.tabold" unicode="&#xe043;" horiz-adv-x="942" 
d="M102 492h129q-4 51 -4 92q0 37 2 67h-127q-12 0 -12 13v16q0 12 12 12h129q37 492 400 492q95 0 147 -25q11 -7 10 -22l-2 -13q-1 -14 -20 -6q-51 21 -133 21q-319 0 -352 -447h424q17 0 12 -12l-2 -16q-2 -13 -15 -13h-424q-2 -28 -2 -67q0 -29 5 -92h399q14 0 12 -13
l-2 -16q-4 -12 -14 -12h-391q41 -422 362 -422q84 0 133 20q20 8 21 -6l2 -12q2 -16 -10 -23q-49 -24 -148 -24q-363 0 -407 467h-134q-12 0 -12 12v16q0 13 12 13z" />
    <glyph glyph-name="zero.tabold" unicode="&#xe044;" horiz-adv-x="942" 
d="M471 1188q346 0 346 -604t-346 -604t-346 604t346 604zM471 23q297 0 297 561t-297 561t-297 -561t297 -561z" />
    <glyph glyph-name="one.tabold" unicode="&#xe045;" horiz-adv-x="942" 
d="M737 0h-512q-12 0 -12 12v19q0 12 12 12h232v1059l-205 -184q-10 -10 -16 0l-15 16q-11 10 0 18l234 209q6 6 16 6h21q12 0 12 -12v-1112h233q13 0 13 -12v-19q0 -12 -13 -12z" />
    <glyph glyph-name="two.tabold" unicode="&#xe046;" horiz-adv-x="942" 
d="M160 12v21q0 12 8 20q75 70 134 127q40 39 135 145q90 101 137 174q50 79 89 176q39 98 39 193q0 127 -59 198q-61 73 -184 73q-230 0 -230 -252q0 -34 2 -62q0 -12 -12 -12h-22q-13 0 -13 12q-4 40 -4 64q0 132 70 214q69 81 211 81q146 0 218 -86q73 -87 73 -230
q0 -95 -41 -201q-40 -103 -93 -186q-54 -85 -136 -175q-89 -99 -135 -143q-64 -62 -126 -118h541q12 0 12 -12v-21q0 -12 -12 -12h-590q-12 0 -12 12z" />
    <glyph glyph-name="three.tabold" unicode="&#xe047;" horiz-adv-x="942" 
d="M354 557h78q103 0 170 79q68 80 68 218q0 148 -66 217q-67 70 -209 70q-101 0 -196 -33q-17 -5 -17 12v13q0 13 15 18q84 33 198 33q324 0 324 -330q0 -134 -57 -214q-56 -78 -138 -103q92 -11 157 -97q64 -85 64 -256q0 -422 -364 -422q-124 0 -211 29q-14 4 -14 19v12
q0 16 16 12q92 -29 209 -29q315 0 315 381q0 326 -268 326h-74q-12 0 -12 12v21q0 12 12 12z" />
    <glyph glyph-name="four.tabold" unicode="&#xe048;" horiz-adv-x="942" 
d="M635 1077l-473 -872h473v872zM643 1167h27q12 0 12 -12v-950h149q13 0 13 -12v-21q0 -12 -13 -12h-149v-373q0 -12 -12 -12h-23q-12 0 -12 12v373h-516q-13 0 -13 12v21q0 6 7 20l512 944q6 10 18 10z" />
    <glyph glyph-name="five.tabold" unicode="&#xe049;" horiz-adv-x="942" 
d="M692 1122h-426q-12 -395 -24 -553q90 37 204 37q316 0 316 -399q0 -445 -385 -445q-116 0 -203 29q-14 4 -14 19v12q0 16 16 12q92 -29 201 -29q336 0 336 402q0 356 -267 356q-70 0 -115 -11q-55 -13 -75 -22q-23 -10 -29 -10q-5 0 -12 4l-12 8q-8 6 -8 21
q13 179 26 602q0 12 12 12h459q13 0 13 -12v-20q0 -13 -13 -13z" />
    <glyph glyph-name="six.tabold" unicode="&#xe04a;" horiz-adv-x="942" 
d="M500 1421q13 13 26 13h23q8 0 10 -6q2 -5 -4 -11q-257 -246 -324 -667q76 163 250 163q156 0 235 -130t79 -337q0 -205 -80 -336q-79 -130 -238 -130t-238 132q-79 131 -79 353q0 616 340 956zM209 446q0 -185 67 -304t201 -119t201 119t67 304q0 187 -65 305
q-65 119 -199 119t-202 -120q-70 -123 -70 -304z" />
    <glyph glyph-name="seven.tabold" unicode="&#xe04b;" horiz-adv-x="942" 
d="M184 1167h564q14 0 14 -12v-20q0 -11 -6 -21q-159 -231 -278 -634q-120 -405 -120 -693q0 -12 -12 -12h-24q-13 0 -13 12q0 297 115 689q114 388 276 646h-516q-12 0 -12 13v20q0 12 12 12z" />
    <glyph glyph-name="eight.tabold" unicode="&#xe04c;" horiz-adv-x="942" 
d="M471 -20q-153 0 -232 93q-79 92 -79 257q0 156 76 260t188 155q-248 122 -248 385q0 143 77 232q76 88 218 88t218 -88q77 -89 77 -232q0 -263 -248 -385q114 -51 189 -155q75 -103 75 -260q0 -168 -77 -258q-78 -92 -234 -92zM471 1407q-117 0 -181 -75
q-65 -76 -65 -202q0 -261 246 -360q246 99 246 360q0 126 -65 202q-65 75 -181 75zM471 721q-117 -44 -189 -142q-73 -100 -73 -251q0 -145 65 -225t197 -80q131 0 197 79q65 78 65 224q0 153 -73 253q-72 98 -189 142z" />
    <glyph glyph-name="nine.tabold" unicode="&#xe04d;" horiz-adv-x="942" 
d="M442 -258q-12 -12 -26 -12h-23q-8 0 -10 5t4 11q256 246 324 668q-77 -164 -250 -164q-156 0 -235 130t-79 337q0 206 80 337q79 130 238 130t238 -132q79 -131 79 -354q0 -616 -340 -956zM733 717q0 185 -67 304q-68 120 -201 120t-201 -120q-67 -119 -67 -304
q0 -186 65 -304q66 -120 199 -120q134 0 203 121q69 122 69 303z" />
    </font>
</defs>
</svg>
