<?xml version="1.0" standalone="no"?>
<!DOCTYPE svg PUBLIC "-//W3C//DTD SVG 1.1//EN" "http://www.w3.org/Graphics/SVG/1.1/DTD/svg11.dtd" >
<svg xmlns="http://www.w3.org/2000/svg" xmlns:xlink="http://www.w3.org/1999/xlink" version="1.1">
<metadata>
Created by FontForge 20170731 at Mon Nov 21 16:50:42 2022
 By Aleksey,,,
(c) 2012, 2013, 2014, 2015 by Stawix Ruecha &#38; Foundry. All rights reserved.
</metadata>
<defs>
<font id="AmsiProCond-ThinItalic" horiz-adv-x="552" >
  <font-face 
    font-family="AmsiProCond-ThinItalic"
    font-weight="400"
    font-style="italic"
    font-stretch="condensed"
    units-per-em="2048"
    panose-1="2 11 10 6 2 2 1 1 1 4"
    ascent="1753"
    descent="-295"
    x-height="1069"
    cap-height="1434"
    bbox="-388.143 -555 2458 2140"
    underline-thickness="30"
    underline-position="-206"
    slope="-10"
    unicode-range="U+0020-FB4E"
  />
<missing-glyph horiz-adv-x="1007" 
d="M0 1413h1008v-1413h-1008v1413zM907 193v1030l-344 -516zM100 1223v-1030l344 514zM504 797l344 516h-686zM504 616l-342 -516h684z" />
    <glyph glyph-name="f_f" unicode="ff" horiz-adv-x="860" 
d="M725 1069h192q13 0 9 -12l-2 -19q-2 -12 -15 -12h-192l-178 -1014q-1 -12 -15 -12h-20q-12 0 -10 12l178 1014h-348l-179 -1014q-1 -12 -14 -12h-20q-13 0 -11 12l179 1014h-123q-12 0 -11 12l2 19q5 12 17 12h123l18 115q24 136 73 197t142 61q35 0 64 -4q12 -2 12 -21
l-2 -10q-4 -17 -21 -12q-25 4 -51 4q-76 0 -113 -51q-38 -52 -59 -172l-18 -107h348l16 94q27 153 75 216t155 63q40 0 65 -4q13 -2 13 -21l-3 -10q-4 -16 -20 -12q-21 4 -53 4q-86 0 -125 -53q-40 -54 -64 -191z" />
    <glyph glyph-name="fi" unicode="fi" horiz-adv-x="737" 
d="M713 1057l-183 -1045q-2 -12 -14 -12h-20q-12 0 -11 12l179 1014h-340l-179 -1014q-1 -12 -14 -12h-20q-13 0 -11 12l179 1014h-123q-12 0 -11 12l2 19l17 12h123l18 115q24 136 73 197t142 61q35 0 64 -4q12 -2 12 -21l-2 -10q-4 -17 -21 -12q-25 4 -51 4
q-75 0 -113 -50t-59 -171l-18 -109h373q13 0 8 -12zM782 1421l-26 -145q0 -12 -15 -12h-28q-11 0 -11 12l27 145q5 13 14 13h29q15 0 10 -13z" />
    <glyph glyph-name="fl" unicode="fl" horiz-adv-x="745" 
d="M784 1407l-245 -1395q-1 -12 -15 -12h-20q-12 0 -10 12l241 1377q-63 10 -129 10q-120 0 -179 -62t-83 -198l-12 -70h172q12 0 8 -12l-2 -19q-2 -12 -14 -12h-172l-179 -1014q-1 -12 -14 -12h-20q-13 0 -11 12l179 1014h-123q-12 0 -11 12l2 19q5 12 17 12h123l12 78
q27 152 97 223q70 72 212 72q90 0 166 -17q11 -4 10 -18z" />
    <glyph glyph-name="f_f_i" unicode="ffi" horiz-adv-x="1130" 
d="M1106 1057l-182 -1045q-2 -12 -15 -12h-20q-11 0 -10 12l178 1014h-340l-178 -1014q-1 -12 -15 -12h-20q-12 0 -10 12l178 1014h-348l-179 -1014q-1 -12 -14 -12h-20q-13 0 -11 12l179 1014h-123q-12 0 -11 12l2 19q5 12 17 12h123l18 115q24 136 73 197t142 61
q35 0 64 -4q12 -2 12 -21l-2 -10q-4 -17 -21 -12q-25 4 -51 4q-76 0 -113 -51q-38 -52 -59 -172l-18 -107h348l18 115q24 136 73 197t142 61q35 0 64 -4q12 -2 12 -21l-2 -10q-4 -16 -20 -12q-25 4 -52 4q-75 0 -113 -51q-38 -52 -59 -172l-18 -107h373q12 0 8 -12z
M1176 1421l-27 -145q0 -12 -14 -12h-29q-10 0 -10 12l26 145q5 13 15 13h28q16 0 11 -13z" />
    <glyph glyph-name="f_f_l" unicode="ffl" horiz-adv-x="1138" 
d="M717 1026l-178 -1014q-1 -12 -15 -12h-20q-12 0 -10 12l178 1014h-348l-179 -1014q-1 -12 -14 -12h-20q-13 0 -11 12l179 1014h-123q-12 0 -11 12l2 19q5 12 17 12h123l18 115q24 136 73 197t142 61q35 0 64 -4q12 -2 12 -21l-2 -8q-2 -19 -21 -14q-25 4 -51 4
q-76 0 -113 -51q-38 -52 -59 -172l-18 -107h348l12 78q27 150 98 223q70 72 209 72q92 0 168 -17q12 -5 11 -18l-246 -1395q-2 -12 -14 -12h-21q-11 0 -10 12l241 1377q-63 10 -129 10q-120 0 -179 -62t-83 -198l-12 -70h172q12 0 8 -12l-2 -19q-1 -12 -14 -12h-172z" />
    <glyph glyph-name="f_b" unicode="fb" horiz-adv-x="1236" 
d="M629 535q-25 -134 -25 -228q0 -280 193 -280q241 0 331 508q25 142 25 241q0 266 -178 266q-250 0 -346 -507zM784 1407l-96 -547q44 102 116 164q71 61 173 61q223 0 223 -307q0 -106 -24 -243q-49 -274 -140 -413q-90 -138 -241 -138q-104 0 -160 62q-58 64 -64 163
l-32 -197q-1 -12 -15 -12h-20q-12 0 -10 12l241 1377q-63 10 -129 10q-120 0 -179 -62t-83 -198l-12 -70h172q8 0 8 -12l-2 -19q0 -12 -14 -12h-172l-179 -1014q-1 -12 -14 -12h-20q-13 0 -11 12l179 1014h-123q-12 0 -11 12l2 19q0 12 17 12h123l12 78q24 150 96 222
q73 73 211 73q92 0 168 -17q11 -4 10 -18z" />
    <glyph glyph-name="f_f_b" unicode="ffb" horiz-adv-x="1630" 
d="M1022 535q-25 -153 -25 -228q0 -280 193 -280q242 0 332 510q24 140 24 239q0 266 -178 266q-256 0 -346 -507zM1178 1407l-97 -547q91 225 289 225q223 0 223 -307q0 -119 -24 -248q-49 -271 -140 -409q-90 -137 -241 -137q-104 0 -160 62q-57 63 -63 163l-33 -197
q-2 -12 -14 -12h-21q-11 0 -10 12l241 1377q-63 10 -129 10q-120 0 -179 -62t-83 -198l-12 -70h172q8 0 8 -12l-2 -19q-1 -12 -14 -12h-172l-178 -1014q-1 -12 -15 -12h-20q-12 0 -10 12l178 1014h-348l-179 -1014q-1 -12 -14 -12h-20q-13 0 -11 12l179 1014h-123
q-12 0 -11 12l2 19q0 12 17 12h123l18 115q21 130 71 194t144 64q35 0 64 -4q17 -2 12 -21l-2 -10q-4 -17 -21 -12q-25 4 -51 4q-76 0 -113 -51q-38 -52 -59 -172l-18 -107h348l12 78q24 151 96 223t211 72q92 0 168 -17q12 -5 11 -18z" />
    <glyph glyph-name="f_h" unicode="fh" horiz-adv-x="1236" 
d="M784 1407l-92 -518q114 196 297 196q199 0 199 -217q0 -46 -8 -96l-133 -760q-1 -12 -15 -12h-20q-12 0 -11 12l134 760q10 54 10 96q0 174 -158 174q-116 0 -208 -91q-93 -92 -117 -238l-123 -701q-1 -12 -15 -12h-20q-12 0 -10 12l241 1377q-63 10 -129 10
q-120 0 -179 -62t-83 -198l-12 -70h172q12 0 8 -12l-2 -19q-2 -12 -14 -12h-172l-179 -1014q-1 -12 -14 -12h-20q-11 0 -11 12l179 1014h-123q-12 0 -11 12l2 19q5 12 17 12h123l12 78q27 152 97 223q70 72 210 72q92 0 168 -17q11 -4 10 -18z" />
    <glyph glyph-name="f_f_h" unicode="ffh" horiz-adv-x="1630" 
d="M1178 1407l-93 -518q111 196 297 196q199 0 199 -217q0 -48 -8 -94l-133 -762q-2 -12 -15 -12h-20q-11 0 -10 12l133 760q10 54 10 96q0 174 -158 174q-116 0 -208 -91q-93 -92 -117 -238l-123 -701q-2 -12 -15 -12h-20q-11 0 -10 12l241 1377q-63 10 -129 10
q-120 0 -179 -62t-83 -198l-12 -70h172q12 0 8 -12l-2 -19q-1 -12 -14 -12h-172l-178 -1014q-1 -12 -15 -12h-20q-12 0 -10 12l178 1014h-348l-179 -1014q-1 -12 -14 -12h-20q-13 0 -11 12l179 1014h-123q-12 0 -11 12l2 19q5 12 17 12h123l18 115q24 136 73 197t142 61
q35 0 64 -4q12 -2 12 -21l-2 -10q-4 -17 -21 -12q-25 4 -51 4q-76 0 -113 -51q-38 -52 -59 -172l-18 -107h348l12 78q27 150 98 223q70 72 209 72q92 0 168 -17q12 -5 11 -18z" />
    <glyph glyph-name="f_j" unicode="fj" horiz-adv-x="737" 
d="M713 1057l-193 -1100q-18 -103 -52 -146q-35 -44 -110 -44q-22 0 -36 2q-17 2 -13 18l2 14q2 16 17 11q14 -2 34 -2q52 0 75 32q23 31 38 113l189 1071h-340l-179 -1014q-1 -12 -14 -12h-20q-13 0 -11 12l179 1014h-123q-12 0 -11 12l2 19q5 12 17 12h123l18 115
q24 136 73 197t142 61q35 0 64 -4q12 -2 12 -21l-2 -10q-4 -17 -21 -12q-25 4 -51 4q-76 0 -113 -51q-38 -52 -59 -172l-18 -107h373q13 0 8 -12zM782 1421l-26 -145q0 -12 -15 -12h-28q-11 0 -11 12l27 145q5 13 14 13h29q15 0 10 -13z" />
    <glyph glyph-name="f_f_j" unicode="ffj" horiz-adv-x="1130" 
d="M1106 1057l-193 -1100q-18 -103 -52 -146q-35 -44 -109 -44q-23 0 -37 2q-17 2 -13 18l2 14q2 16 17 11q14 -2 35 -2q51 0 74 33t38 116l189 1067h-340l-178 -1014q-1 -12 -15 -12h-20q-12 0 -10 12l178 1014h-348l-179 -1014q-1 -12 -14 -12h-20q-13 0 -11 12l179 1014
h-123q-12 0 -11 12l2 19q5 12 17 12h123l18 115q24 136 73 197t142 61q35 0 64 -4q12 -2 12 -21l-2 -10q-4 -17 -21 -12q-25 4 -51 4q-76 0 -113 -51q-38 -52 -59 -172l-18 -107h348l18 115q24 136 73 197t142 61q35 0 64 -4q12 -2 12 -21l-2 -10q-4 -16 -20 -12
q-25 4 -52 4q-75 0 -113 -51q-38 -52 -59 -172l-18 -107h373q12 0 8 -12zM1176 1421l-27 -145q0 -12 -14 -12h-29q-10 0 -10 12l26 145q5 13 15 13h28q16 0 11 -13z" />
    <glyph glyph-name="f_k" unicode="fk" horiz-adv-x="1101" 
d="M784 1407l-139 -789l447 439q16 12 30 12h27q9 0 11 -6q1 -5 -7 -12l-469 -457l299 -576q11 -18 -10 -18h-15q-18 0 -24 12l-295 572l-100 -572q-1 -12 -15 -12h-20q-12 0 -10 12l241 1377q-63 10 -129 10q-120 0 -179 -62t-83 -198l-12 -70h172q10 0 8 -12l-2 -19
q-2 -12 -14 -12h-172l-179 -1014q-1 -12 -14 -12h-20q-13 0 -11 12l179 1014h-123q-12 0 -11 12l2 19q0 12 17 12h123l12 78q24 148 96 221q72 74 211 74q92 0 168 -17q11 -4 10 -18z" />
    <glyph glyph-name="f_f_k" unicode="ffk" horiz-adv-x="1495" 
d="M1178 1407l-140 -789l447 439q17 12 31 12h26q10 0 11 -6q1 -5 -7 -12l-469 -457l299 -576q10 -18 -10 -18h-14q-19 0 -25 12l-295 572l-100 -572q-2 -12 -14 -12h-21q-11 0 -10 12l241 1377q-63 10 -129 10q-120 0 -179 -62t-83 -198l-12 -70h172q8 0 8 -12l-2 -19
q0 -12 -14 -12h-172l-178 -1014q-1 -12 -15 -12h-20q-12 0 -10 12l178 1014h-348l-179 -1014q-1 -12 -14 -12h-20q-13 0 -11 12l179 1014h-123q-12 0 -11 12l2 19q1 12 17 12h123l18 115q21 130 71 194t144 64q35 0 64 -4q17 -2 12 -21l-2 -10q-4 -17 -21 -12q-25 4 -51 4
q-76 0 -113 -51q-38 -52 -59 -172l-18 -107h348l12 78q24 148 96 221q72 74 211 74q92 0 168 -17q12 -5 11 -18z" />
    <glyph glyph-name="f_t" unicode="ft" horiz-adv-x="892" 
d="M332 1069h348l43 246q0 12 14 12h21q10 0 10 -12l-43 -246h192q13 0 9 -12l-2 -19q-2 -12 -15 -12h-192l-139 -782q-11 -53 -11 -103q0 -59 25 -84q24 -24 80 -24q32 0 65 6q7 2 11 -1q4 -2 2 -9l-2 -13q-5 -19 -19 -20q-29 -6 -59 -6q-73 0 -111 32q-37 31 -37 115
q0 40 10 103l140 786h-348l-179 -1014q-1 -12 -14 -12h-20q-13 0 -11 12l179 1014h-123q-12 0 -11 12l2 19q5 12 17 12h123l18 115q24 136 73 197t142 61q35 0 64 -4q12 -2 12 -21l-2 -10q-4 -17 -21 -12q-25 4 -51 4q-76 0 -113 -51q-38 -52 -59 -172z" />
    <glyph glyph-name="f_f_t" unicode="fft" horiz-adv-x="1286" 
d="M680 1069l18 115q24 136 73 197t142 61q35 0 64 -4q12 -2 12 -21l-2 -10q-4 -16 -20 -12q-25 4 -52 4q-75 0 -113 -51q-38 -52 -59 -174l-18 -105h348l43 246q0 12 14 12h21q10 0 10 -12l-43 -246h193q13 0 8 -12l-2 -19q-1 -12 -14 -12h-193l-139 -782q-10 -49 -10 -103
q0 -60 24 -84t80 -24q32 0 65 6q7 2 11 -1q4 -2 2 -9l-2 -13q-5 -19 -19 -20q-28 -6 -59 -6q-73 0 -111 32q-37 31 -37 115q0 34 11 103l139 786h-348l-178 -1014q-1 -12 -15 -12h-20q-12 0 -10 12l178 1014h-348l-179 -1014q-1 -12 -14 -12h-20q-13 0 -11 12l179 1014h-123
q-12 0 -11 12l2 19q5 12 17 12h123l18 115q24 136 73 197t142 61q35 0 64 -4q12 -2 12 -21l-2 -8q-2 -19 -21 -14q-25 4 -51 4q-76 0 -113 -51q-38 -52 -59 -172l-18 -107h348z" />
    <glyph glyph-name="t_t" unicode="tt" horiz-adv-x="884" 
d="M901 1026h-192l-140 -782q-10 -49 -10 -103q0 -59 25 -84q24 -24 80 -24q32 0 65 6q7 3 10 0.5t2 -10.5l-2 -13q-5 -19 -18 -20q-29 -6 -59 -6q-74 0 -111 33t-37 116q0 40 10 103l140 784h-349l-139 -782q-10 -50 -10 -107q0 -58 20 -81t68 -23q28 0 61 6q8 3 11 0.5
t2 -10.5l-2 -13q-5 -19 -19 -20q-29 -6 -55 -6q-131 0 -131 147q0 39 10 103l139 786h-118q-12 0 -11 12l2 19q4 12 17 12h119l45 266q5 13 16 13h20q14 0 9 -13l-45 -266h348l45 266q5 13 16 13h21q13 0 8 -13l-45 -266h192q13 0 9 -12l-3 -19q-1 -12 -14 -12z" />
    <glyph glyph-name="t_t_f" unicode="ttf" horiz-adv-x="1245" 
d="M709 1026l-140 -782q-10 -49 -10 -103q0 -59 25 -84q24 -24 80 -24q32 0 65 6q7 3 10 0.5t2 -10.5l-2 -13q-5 -19 -18 -20q-29 -6 -59 -6q-74 0 -111 33t-37 116q0 40 10 103l140 784h-349l-139 -782q-10 -50 -10 -107q0 -58 20 -81t68 -23q28 0 61 6q8 3 11 0.5t2 -10.5
l-2 -13q-5 -19 -19 -20q-29 -6 -55 -6q-131 0 -131 147q0 39 10 103l139 786h-118q-12 0 -11 12l2 19q4 12 17 12h119l45 266q5 13 16 13h20q14 0 9 -13l-45 -266h348l45 266q5 13 16 13h21q13 0 8 -13l-45 -266h348l16 96q27 152 76 214q49 63 154 63q40 0 65 -4
q13 -2 13 -21l-3 -10q-4 -16 -20 -12q-21 4 -53 4q-88 0 -126 -53q-39 -55 -63 -189l-14 -88h193q13 0 8 -12l-2 -19q-1 -12 -15 -12h-192l-178 -1014q-2 -12 -15 -12h-20q-11 0 -10 12l178 1014h-348z" />
    <glyph glyph-name=".notdef" horiz-adv-x="1007" 
d="M0 1413h1008v-1413h-1008v1413zM907 193v1030l-344 -516zM100 1223v-1030l344 514zM504 797l344 516h-686zM504 616l-342 -516h684z" />
    <glyph glyph-name=".null" horiz-adv-x="0" 
 />
    <glyph glyph-name="nonmarkingreturn" horiz-adv-x="681" 
 />
    <glyph glyph-name="space" unicode=" " horiz-adv-x="409" 
 />
    <glyph glyph-name="exclam" unicode="!" horiz-adv-x="364" 
d="M63 12l19 113q4 12 14 12h54q14 0 10 -12l-19 -113q-1 -12 -14 -12h-53q-12 0 -11 12zM172 365h-16q-12 0 -11 12l179 1044q5 13 14 13h29q15 0 10 -13l-191 -1044q-2 -12 -14 -12z" />
    <glyph glyph-name="quotedbl" unicode="&#x22;" horiz-adv-x="499" 
d="M311 1282l-55 -254h-29l35 254q10 84 19 127q6 35 12 44t24 9q21 0 24 -10t-3 -43zM524 1282l-55 -254h-29l35 254q10 84 19 127q6 35 12 44t26 9q19 0 22 -10t-3 -45z" />
    <glyph glyph-name="numbersign" unicode="#" horiz-adv-x="942" 
d="M1053 1425l-199 -442h141q13 0 11 -12l-5 -21q0 -12 -14 -12h-153l-191 -426h143q11 0 11 -12l-4 -21q-1 -12 -15 -12h-155l-213 -471q-6 -12 -17 -10l-20 6q-10 1 -6 16l206 459h-346l-213 -471q-6 -11 -16 -10l-21 6q-10 1 -6 16l207 459h-141q-11 0 -10 12l4 21
q0 12 14 12h154l190 426h-143q-10 0 -10 12l4 21q2 12 14 12h156l204 455q6 10 17 8l20 -6q12 -4 6 -15l-198 -442h346l205 455q5 10 16 8l21 -6q12 -4 6 -15zM438 938l-190 -426h346l190 426h-346z" />
    <glyph glyph-name="dollar" unicode="$" horiz-adv-x="749" 
d="M608 1606l-28 -156q113 -1 184 -23q13 -4 12 -18l-2 -14q-2 -19 -18 -13q-87 23 -185 23q-151 0 -235 -89q-84 -88 -84 -249q0 -93 43 -161q41 -65 123 -144q123 -119 164 -182q57 -92 57 -197q0 -152 -84 -266q-85 -115 -233 -133l-27 -156q-5 -12 -14 -12h-23
q-12 0 -10 12l26 152q-165 0 -249 34q-14 4 -13 19l4 14q6 18 19 12q81 -34 248 -34q135 0 222 105t87 251q0 67 -33 133t-61 97q-32 35 -97 96l-18 18q-178 174 -178 342q0 159 83 263q82 103 244 118l29 158q5 12 14 12h23q12 0 10 -12z" />
    <glyph glyph-name="percent" unicode="%" horiz-adv-x="1294" 
d="M1180 1417l-928 -1405q-10 -12 -21 -12h-22q-18 0 -6 16l927 1405q8 13 21 13h23q14 0 6 -17zM168 1055q69 391 295 391q182 0 182 -240q0 -77 -14 -151q-69 -391 -293 -391q-184 0 -184 241q0 77 14 150zM584 1055q16 92 16 155q0 193 -139 193q-183 0 -246 -348
q-16 -92 -16 -154q0 -194 139 -194q184 0 246 348zM750 379q69 391 294 391q183 0 183 -240q0 -69 -15 -153q-69 -389 -292 -389q-185 0 -185 235q0 77 15 156zM1165 379q15 84 15 153q0 195 -138 195q-183 0 -245 -348q-17 -97 -17 -154q0 -194 140 -194q184 0 245 348z
" />
    <glyph glyph-name="ampersand" unicode="&#x26;" horiz-adv-x="1024" 
d="M905 573q0 -195 -117 -378l82 -181q6 -14 -8 -14h-28q-13 0 -17 10l-61 140q-139 -166 -348 -166q-160 0 -248 79t-88 234q0 183 97 341q98 160 269 228l-26 60q-50 108 -50 219q0 134 88 220q86 85 232 85q101 0 154 -20q12 -6 10 -19l-2 -12q-2 -18 -19 -13
q-57 21 -141 21q-116 0 -196 -71q-78 -69 -78 -191q0 -85 47 -197l311 -706q90 147 90 336q0 12 12 12h23q12 0 12 -17zM410 29q202 0 325 166l-280 632q-152 -61 -242 -207q-92 -149 -92 -319q0 -272 289 -272z" />
    <glyph glyph-name="quotesingle" unicode="'" horiz-adv-x="286" 
d="M311 1282l-55 -254h-29l35 254q10 84 19 127q6 35 12 44t24 9q21 0 24 -10t-3 -43z" />
    <glyph glyph-name="parenleft" unicode="(" horiz-adv-x="454" 
d="M129 279q0 310 98 610q100 305 287 549q8 8 18 8h21q10 0 4 -12q-178 -232 -278 -541q-99 -305 -99 -619q0 -294 84 -495q6 -12 -8 -12h-20q-9 0 -15 8q-92 219 -92 504z" />
    <glyph glyph-name="parenright" unicode=")" horiz-adv-x="454" 
d="M373 934q0 -307 -98 -613q-98 -307 -287 -546q-6 -8 -19 -8h-20q-10 0 -4 12q180 231 280 538q99 303 99 615q0 292 -86 502q-6 12 8 12h20q13 0 15 -8q92 -219 92 -504z" />
    <glyph glyph-name="asterisk" unicode="*" horiz-adv-x="684" 
d="M416 885q-27 0 -21 43q0 4 5.5 26t20.5 80.5t28 112.5q-198 -119 -203 -121q-40 -21 -51 2q-8 23 32 43q29 17 213 98q-150 78 -178 99q-33 22 -18 43q18 23 53 2q16 -10 160 -121q18 180 24 219q7 43 35 43q26 0 19 -43q-5 -29 -54 -219q13 8 42 25t41 24q70 41 77 46
q31 20 45 26q44 23 51 0q8 -24 -32 -45l-216 -99l181 -98q33 -21 16 -45q-15 -20 -51 0q-46 29 -162 121q-16 -181 -24 -219q-6 -43 -33 -43z" />
    <glyph glyph-name="plus" unicode="+" horiz-adv-x="925" 
d="M866 713h-338l-73 -412q0 -12 -15 -12h-20q-10 0 -10 12l73 412h-338q-15 0 -10 12l4 20q0 13 17 13h336l71 411q2 13 15 13h20q12 0 10 -13l-71 -411h337q11 0 11 -13l-4 -20q-5 -12 -15 -12z" />
    <glyph glyph-name="comma" unicode="," horiz-adv-x="299" 
d="M102 -2l-61 -154q-6 -12 -16 -12h-9q-12 0 -8 14l58 154h-25q-11 0 -10 12l18 113q5 12 14 12h54q15 0 10 -12l-18 -111z" />
    <glyph glyph-name="hyphen" unicode="-" horiz-adv-x="544" 
d="M461 528h-357q-15 0 -10 13l4 18q0 12 15 12h356q10 0 10 -12l-4 -18q-5 -13 -14 -13z" />
    <glyph glyph-name="period" unicode="." horiz-adv-x="299" 
d="M31 12l18 113q5 12 14 12h54q15 0 10 -12l-18 -113q-1 -12 -15 -12h-53q-11 0 -10 12z" />
    <glyph glyph-name="slash" unicode="/" horiz-adv-x="528" 
d="M-61 12l692 1411q5 11 16 11h23q14 0 8 -13l-694 -1411q-1 -10 -15 -10h-22q-14 0 -8 12z" />
    <glyph glyph-name="zero" unicode="0" horiz-adv-x="897" 
d="M614 1450q271 0 271 -387q0 -152 -35 -350q-68 -389 -183 -561t-298 -172q-135 0 -203 92t-68 293q0 152 35 350q68 390 183 562q116 173 298 173zM369 23q158 0 263 163q106 165 169 527q37 209 37 354q0 340 -224 340q-156 0 -261 -164t-171 -526q-37 -195 -37 -355
q0 -175 56 -258q54 -81 168 -81z" />
    <glyph glyph-name="one" unicode="1" horiz-adv-x="544" 
d="M233 12l238 1356l-262 -205q-12 -10 -16 0l-13 17q-8 11 4 18l295 229q9 7 19 7h20q15 0 10 -13l-247 -1409q-1 -12 -15 -12h-22q-16 0 -11 12z" />
    <glyph glyph-name="two" unicode="2" horiz-adv-x="835" 
d="M260 1047q0 -13 -12 -13h-23q-12 0 -12 17q0 165 105 282t264 117q128 0 192 -73t64 -193t-56 -258q-55 -136 -128 -248q-71 -109 -192 -244q-117 -130 -198 -208q-60 -57 -192 -181h594q12 0 10 -12l-2 -21q0 -12 -15 -12h-643q-12 0 -10 12l2 21q0 9 12 20
q131 124 170 163q94 94 166 169q109 113 170 197q63 85 130 191q70 110 101 211q31 102 31 202q0 219 -210 219q-140 0 -229 -105q-89 -106 -89 -253z" />
    <glyph glyph-name="three" unicode="3" horiz-adv-x="741" 
d="M309 774h86q101 0 176 73q74 72 104 166q30 93 30 189q0 106 -58 156q-56 49 -184 49q-99 0 -211 -33q-7 -2 -11 1q-5 3 -3 11l2 13q1 13 18 18q108 33 207 33q291 0 291 -244q0 -152 -69 -286q-69 -133 -200 -168q75 -12 122 -74q46 -61 46 -170q0 -236 -115 -382
t-337 -146q-124 0 -226 30q-12 6 -10 19l2 12q2 17 19 12q105 -30 213 -30q199 0 302 138q103 137 103 343q0 225 -219 225h-86q-15 0 -10 12l4 21q5 12 14 12z" />
    <glyph glyph-name="four" unicode="4" horiz-adv-x="872" 
d="M567 0h-22q-11 0 -10 12l63 361h-545q-11 0 -10 12l2 18q5 17 10 23l717 997q8 11 21 11h26q12 0 10 -13l-178 -1003h162q15 0 10 -12l-2 -21q-1 -12 -14 -12h-162l-63 -361q-4 -12 -15 -12zM768 1343l-666 -925h502z" />
    <glyph glyph-name="five" unicode="5" horiz-adv-x="761" 
d="M209 -20q-130 0 -211 28q-12 6 -10 19l2 12q2 17 18 12q81 -28 201 -28q147 0 248 86q100 85 142 208t42 269q0 235 -221 235q-71 0 -119 -11q-59 -14 -81 -22q-26 -10 -32 -10q-5 0 -12 4l-10 9q-11 8 -6 20q74 294 139 610q5 13 14 13h463q15 0 10 -13l-4 -20
q-5 -12 -14 -12h-430q-54 -265 -127 -562q95 37 211 37q268 0 268 -276q0 -254 -123 -431t-358 -177z" />
    <glyph glyph-name="six" unicode="6" horiz-adv-x="839" 
d="M797 1384q-64 23 -146 23q-195 0 -309 -178q-115 -180 -176 -621q39 125 128 199t218 74q136 0 199 -80q63 -79 63 -217q0 -103 -22 -201q-22 -100 -68 -194q-45 -92 -126 -151q-80 -58 -185 -58q-279 0 -279 368q0 138 39 367q68 393 189 566q118 169 333 169
q89 0 150 -23q13 -4 12 -18l-2 -12q-2 -17 -18 -13zM373 23q93 0 164 55q70 54 110 144t59 181q19 89 19 183q0 252 -217 252q-125 0 -212 -88t-120 -200q-33 -111 -33 -231q0 -124 55 -211q54 -85 175 -85z" />
    <glyph glyph-name="seven" unicode="7" horiz-adv-x="753" 
d="M131 12q56 324 247 715q193 396 406 662h-544q-16 0 -11 12l4 20q5 13 15 13h594q15 0 10 -13l-4 -20q0 -10 -10 -21q-206 -241 -405 -649q-201 -412 -253 -719q-4 -12 -14 -12h-25q-15 0 -10 12z" />
    <glyph glyph-name="eight" unicode="8" horiz-adv-x="835" 
d="M334 -20q-138 0 -209 70q-72 71 -72 194q0 169 103 304q102 134 260 197q-205 100 -205 306q0 170 105 284q106 115 270 115q128 0 199 -69t71 -181q0 -158 -94 -273q-95 -117 -244 -182q96 -44 155 -127q60 -84 60 -206q0 -188 -110 -310t-289 -122zM584 1407
q-148 0 -235 -105t-87 -247q0 -201 209 -285q150 56 243 168t93 258q0 98 -57 155q-56 56 -166 56zM463 721q-163 -61 -262 -189t-99 -288q0 -104 60 -163q59 -58 176 -58q160 0 252 114q92 115 92 271q0 228 -219 313z" />
    <glyph glyph-name="nine" unicode="9" horiz-adv-x="839" 
d="M131 47q59 -22 145 -22q195 0 309 178t175 620q-38 -125 -129 -198q-92 -74 -221 -74q-258 0 -258 293q0 102 22 202q22 99 69 195q47 95 127 153t185 58q139 0 208 -89q68 -87 68 -284q0 -140 -38 -362q-69 -395 -188 -566q-118 -169 -331 -169q-94 0 -153 22
q-17 6 -12 19l2 12q2 17 20 12zM553 1409q-93 0 -164 -58q-70 -57 -110 -150q-41 -96 -58 -181q-18 -90 -18 -170q0 -256 217 -256q126 0 211 88q86 89 119 200q32 108 32 230q0 126 -54 212q-54 85 -175 85z" />
    <glyph glyph-name="colon" unicode=":" horiz-adv-x="356" 
d="M59 12l19 113q4 12 14 12h53q15 0 11 -12l-19 -113q-1 -12 -14 -12h-53q-12 0 -11 12zM221 936l21 111q0 14 14 14h53q10 0 10 -12l-20 -113q-5 -12 -14 -12h-54q-15 0 -10 12z" />
    <glyph glyph-name="semicolon" unicode=";" horiz-adv-x="356" 
d="M131 -2l-61 -154q-6 -12 -17 -12h-8q-12 0 -8 14l57 154h-24q-12 0 -11 12l19 113q4 12 14 12h53q15 0 11 -12l-19 -111zM221 936l21 113q0 12 12 12h55q10 0 10 -12l-20 -113q-5 -12 -14 -12h-54q-15 0 -10 12z" />
    <glyph glyph-name="less" unicode="&#x3c;" horiz-adv-x="925" 
d="M182 733q0 4 8 12l648 551q12 10 18 0l14 -16q7 -8 -4 -16l-622 -531l436 -530q7 -8 -2 -17l-21 -16q-11 -10 -18 0l-453 551q-6 6 -4 12z" />
    <glyph glyph-name="equal" unicode="=" horiz-adv-x="925" 
d="M891 922h-696q-15 0 -11 12l4 20q0 13 15 13h696q10 0 10 -13l-4 -20q-5 -12 -14 -12zM817 504h-696q-15 0 -10 12l4 21q0 12 14 12h696q11 0 11 -12l-5 -21q-5 -12 -14 -12z" />
    <glyph glyph-name="greater" unicode="&#x3e;" horiz-adv-x="925" 
d="M838 733q-1 -4 -9 -12l-649 -551q-8 -10 -18 0l-12 16q-9 9 2 17l624 530l-438 531q-7 8 4 16l18 16q13 11 19 0l455 -551q4 -4 4 -12z" />
    <glyph glyph-name="question" unicode="?" horiz-adv-x="679" 
d="M190 12l19 113q4 12 14 12h53q16 0 11 -12l-19 -113q-2 -12 -14 -12h-53q-13 0 -11 12zM336 481l-19 -102q-1 -14 -14 -14h-24q-13 0 -11 12l19 104q16 82 57 156q42 75 93 140q88 112 100 128q47 62 81 148q33 83 33 172q0 180 -202 180q-93 0 -195 -31q-7 -2 -11 1
q-5 3 -3 11l2 15q1 13 18 18q95 31 191 31q249 0 249 -223q0 -114 -50 -220q-52 -110 -112 -176t-124 -164q-61 -94 -78 -186z" />
    <glyph glyph-name="at" unicode="@" horiz-adv-x="1486" 
d="M932 457l125 432q-54 10 -125 10q-139 0 -240 -100q-102 -101 -147 -237q-45 -137 -45 -275q0 -181 118 -181q103 0 187 102q83 101 127 249zM905 -143q7 2 11 -1q6 -4 4 -12l-2 -10q-4 -16 -17 -18q-114 -27 -250 -27q-269 0 -407 101q-140 102 -140 339q0 170 54 349
q52 174 151 323q98 149 258 244q158 94 355 94q254 0 370 -103q117 -104 117 -307q0 -106 -31 -235q-30 -126 -90 -244t-163 -196t-230 -78h-35q-34 0 -26 33l32 133q-95 -179 -256 -179q-73 0 -115 62q-42 61 -42 160q0 102 30 213q29 109 87 212q56 100 153 167
q95 65 215 65q97 0 160 -18q14 -4 8 -21l-231 -788h18q95 0 177 47t134 123q55 80 91 171q38 96 56 190q17 89 17 183q0 187 -105 278q-104 91 -343 91q-181 0 -330 -85q-151 -86 -245 -223q-94 -138 -147 -308q-53 -171 -53 -344q0 -225 129 -316q130 -92 379 -92
q133 0 252 27z" />
    <glyph glyph-name="A" unicode="A" horiz-adv-x="876" 
d="M231 504h426l-61 848h-4zM594 1434h29q14 0 14 -13l104 -1407q0 -14 -12 -14h-22q-13 0 -13 12l-35 447h-446l-190 -447q-6 -12 -17 -12h-22q-15 0 -9 14l600 1407q7 13 19 13z" />
    <glyph glyph-name="B" unicode="B" horiz-adv-x="864" 
d="M225 766h219q181 0 284 112q101 110 101 302q0 115 -67 161q-70 48 -205 48h-221zM309 0h-252q-11 0 -10 12l248 1409q5 13 14 13h252q316 0 316 -254q0 -152 -75 -277q-76 -126 -218 -160q198 -33 198 -260q0 -221 -122 -352t-351 -131zM98 45h211q203 0 314 116
q110 114 110 324q0 122 -70 179q-71 57 -214 57h-230z" />
    <glyph glyph-name="C" unicode="C" horiz-adv-x="757" 
d="M428 29q88 0 162 20q7 2 11 -1q5 -3 3 -11l-2 -14q-2 -13 -18 -19q-70 -20 -158 -20q-172 0 -251 88t-79 293q0 142 37 352q72 408 191 571q118 162 344 162q89 0 155 -20q13 -6 11 -19l-3 -14q-2 -17 -18 -13q-72 21 -147 21q-204 0 -310 -153q-107 -153 -174 -535
q-39 -228 -39 -352q0 -180 68 -259q67 -77 217 -77z" />
    <glyph glyph-name="D" unicode="D" horiz-adv-x="888" 
d="M285 0h-228q-11 0 -10 12l248 1409q5 13 16 13h213q173 0 262 -91q88 -89 88 -311q0 -138 -32 -315q-39 -215 -89 -350q-53 -144 -123 -222q-69 -78 -154 -112q-82 -33 -191 -33zM522 1389h-186l-238 -1344h187q96 0 172 31q72 29 139 104q66 73 114 206q49 134 83 329
q32 179 32 315q0 201 -75 279q-77 80 -228 80z" />
    <glyph glyph-name="E" unicode="E" horiz-adv-x="716" 
d="M649 713h-432l-119 -668h449q15 0 10 -12l-4 -23q0 -10 -12 -10h-484q-11 0 -10 12l248 1409q5 13 16 13h477q16 0 11 -13l-4 -20q-5 -12 -15 -12h-444l-111 -631h432q11 0 11 -13l-4 -20q-4 -12 -15 -12z" />
    <glyph glyph-name="F" unicode="F" horiz-adv-x="688" 
d="M641 713h-424l-123 -701q-4 -12 -14 -12h-23q-11 0 -10 12l248 1409q5 13 14 13h471q12 0 11 -15l-5 -18q-4 -12 -14 -12h-436l-111 -631h424q10 0 10 -13l-4 -20q-5 -12 -14 -12z" />
    <glyph glyph-name="G" unicode="G" horiz-adv-x="819" 
d="M442 770h308q12 0 10 -12l-127 -719q-2 -17 -21 -25q-68 -30 -182 -30q-172 0 -253 89q-81 88 -81 296q0 145 37 348q72 407 193 570t348 163q96 0 162 -20q12 -6 10 -19l-2 -14q-2 -18 -19 -13q-72 21 -153 21q-206 0 -314 -153q-109 -154 -176 -535q-37 -206 -37 -348
q0 -181 69 -261q69 -79 218 -79q87 0 156 24l119 672h-273q-12 0 -10 12l4 21q2 12 14 12z" />
    <glyph glyph-name="H" unicode="H" horiz-adv-x="892" 
d="M639 12l123 701h-545l-123 -701q-4 -12 -14 -12h-23q-11 0 -10 12l248 1409q5 13 14 13h23q12 0 10 -13l-117 -663h545l117 663q2 13 14 13h23q15 0 10 -13l-248 -1409q-2 -12 -14 -12h-23q-15 0 -10 12z" />
    <glyph glyph-name="I" unicode="I" horiz-adv-x="319" 
d="M57 12l248 1409q2 13 14 13h23q15 0 10 -13l-248 -1409q-2 -12 -14 -12h-22q-16 0 -11 12z" />
    <glyph glyph-name="J" unicode="J" horiz-adv-x="544" 
d="M338 285l201 1136q2 13 14 13h22q16 0 11 -13l-201 -1138q-29 -165 -89 -228t-179 -63q-80 0 -129 20q-14 4 -13 19l2 14q2 18 19 12q54 -20 123 -20q95 0 145 53t74 195z" />
    <glyph glyph-name="K" unicode="K" horiz-adv-x="757" 
d="M225 768l596 655q11 11 19 11h37q15 0 4 -15l-625 -682l389 -723q6 -14 -8 -14h-27q-10 0 -16 10l-375 707l-125 -705q-4 -12 -14 -12h-23q-11 0 -10 12l248 1409q5 13 14 13h23q12 0 10 -13z" />
    <glyph glyph-name="L" unicode="L" horiz-adv-x="663" 
d="M342 1421l-244 -1376h416q11 0 10 -14l-2 -19q-2 -12 -14 -12h-451q-11 0 -10 12l248 1409q5 13 14 13h23q12 0 10 -13z" />
    <glyph glyph-name="M" unicode="M" horiz-adv-x="1036" 
d="M516 461q-10 0 -16 12l-176 842l-230 -1303q-4 -12 -14 -12h-23q-11 0 -10 12l248 1409q5 13 14 13h23q12 0 14 -11l182 -882l494 882q8 11 18 11h27q15 0 10 -13l-248 -1409q-1 -12 -14 -12h-22q-16 0 -11 12l230 1303l-475 -842q-6 -12 -21 -12z" />
    <glyph glyph-name="N" unicode="N" horiz-adv-x="913" 
d="M954 1419l-247 -1407q-1 -12 -15 -12h-20q-12 0 -17 12l-331 1309l-230 -1309q-4 -12 -14 -12h-23q-11 0 -10 12l248 1409q5 13 14 13h21q14 0 16 -13l330 -1308l231 1308q2 13 15 13h22q12 0 10 -15z" />
    <glyph glyph-name="O" unicode="O" horiz-adv-x="937" 
d="M635 1450q148 0 220 -89q73 -90 73 -292q0 -146 -37 -352q-71 -399 -188 -567q-115 -166 -312 -166q-150 0 -222 89q-73 90 -73 292q0 146 37 352q72 400 189 567q117 166 313 166zM391 27q175 0 280 156q105 155 171 534q39 228 39 356q0 177 -61 256q-60 78 -185 78
q-174 0 -281 -158q-106 -157 -172 -532q-37 -212 -37 -355q0 -176 61 -257q59 -78 185 -78z" />
    <glyph glyph-name="P" unicode="P" horiz-adv-x="798" 
d="M184 524h154q201 0 288 90t132 344q20 103 20 195q0 131 -65 183q-67 53 -224 53h-153zM80 0h-23q-11 0 -10 12l248 1409q5 13 16 13h178q179 0 260 -64q78 -62 78 -219q0 -74 -20 -195q-46 -271 -149 -374t-322 -103h-160l-82 -467q-4 -12 -14 -12z" />
    <glyph glyph-name="Q" unicode="Q" horiz-adv-x="937" 
d="M408 -16q95 -80 243 -80q18 0 30 1t24 1q18 0 16 -17l-2 -12q-1 -18 -35 -18q-223 0 -340 127q-125 11 -186 100q-62 91 -62 279q0 146 37 352q72 401 190 567t314 166q145 0 216 -87q71 -88 71 -288q0 -146 -37 -358q-66 -389 -179 -555q-114 -167 -300 -178zM391 27
q174 0 279 157q104 156 172 533q39 228 39 356q0 175 -60 255q-60 79 -184 79q-176 0 -283 -157q-106 -155 -172 -533q-37 -212 -37 -355q0 -176 61 -257q59 -78 185 -78z" />
    <glyph glyph-name="R" unicode="R" horiz-adv-x="835" 
d="M195 582h176q187 0 279 86q91 85 132 317q17 91 17 168q0 133 -69 184q-70 52 -232 52h-162zM309 1434h191q184 0 267 -63t83 -214q0 -67 -19 -172q-39 -226 -124 -326t-256 -118l184 -527q4 -14 -10 -14h-23q-12 0 -16 10l-183 527h-217l-92 -525q-4 -12 -14 -12h-23
q-11 0 -10 12l248 1409q5 13 14 13z" />
    <glyph glyph-name="S" unicode="S" horiz-adv-x="679" 
d="M580 395q0 -177 -97 -297q-96 -118 -278 -118q-109 0 -193 22q-13 4 -12 18l2 15q4 17 21 12q75 -22 184 -22q155 0 239 100q84 101 84 264q0 72 -27 136q-26 62 -60 104q-28 34 -89 94q-172 168 -172 338q0 168 91 278q91 111 264 111q91 0 165 -23q14 -4 13 -18l-2 -14
q-2 -19 -19 -13q-80 23 -162 23q-147 0 -225 -94q-78 -95 -78 -250q0 -93 40 -160q41 -69 116 -139q91 -85 143 -169t52 -198z" />
    <glyph glyph-name="T" unicode="T" horiz-adv-x="661" 
d="M213 1401l4 20q5 13 16 13h537q12 0 10 -13l-4 -20q-2 -12 -14 -12h-246l-242 -1377q-4 -12 -14 -12h-22q-12 0 -11 12l242 1377h-246q-15 0 -10 12z" />
    <glyph glyph-name="U" unicode="U" horiz-adv-x="880" 
d="M362 -16q-140 0 -205 60t-65 198q0 62 17 164l180 1015q2 13 14 13h23q15 0 10 -13l-178 -1011q-19 -104 -19 -170q0 -115 52 -164t171 -49q154 0 229 86q73 83 111 297l179 1011q5 13 14 13h23q12 0 10 -13l-180 -1015q-41 -233 -126 -327q-86 -95 -260 -95z" />
    <glyph glyph-name="V" unicode="V" horiz-adv-x="843" 
d="M356 0h-32q-15 0 -15 12l-86 1407q0 15 13 15h22q12 0 12 -13l60 -981l18 -360h8l146 358l407 983q7 13 17 13h22q14 0 8 -15l-581 -1407q-6 -12 -19 -12z" />
    <glyph glyph-name="W" unicode="W" horiz-adv-x="1302" 
d="M811 1434h20q13 0 13 -13l20 -956l2 -381h8l136 381l348 956q6 13 16 13h25q14 0 8 -15l-516 -1407q-6 -12 -19 -12h-32q-15 0 -15 12l-18 989l-4 322h-4l-115 -322l-367 -989q-5 -12 -18 -12h-33q-14 0 -14 12l-21 1407q0 15 13 15h22q15 0 15 -13l12 -956v-383h8
l137 383l357 956q5 13 16 13z" />
    <glyph glyph-name="X" unicode="X" horiz-adv-x="782" 
d="M428 680l-410 -672q-2 -8 -14 -8h-27q-16 0 -6 14l443 721l-178 684q-6 15 10 15h26q13 0 13 -9l161 -637l388 637q7 9 16 9h27q12 0 6 -15l-420 -684l188 -721q4 -14 -10 -14h-27q-12 0 -14 8z" />
    <glyph glyph-name="Y" unicode="Y" horiz-adv-x="829" 
d="M457 569l-99 -557q-2 -12 -14 -12h-22q-16 0 -11 12l99 557l-183 850q-4 15 13 15h22q12 0 12 -11l121 -565l43 -231h6l125 231l322 565q6 11 16 11h23q12 0 8 -15z" />
    <glyph glyph-name="Z" unicode="Z" horiz-adv-x="729" 
d="M-6 12l2 21l8 14l760 1342h-494q-12 0 -10 12l4 20q2 13 15 13h534q15 0 10 -13l-4 -18q0 -5 -3 -9t-3 -8l-760 -1341h518q15 0 11 -12l-2 -21q-2 -12 -15 -12h-561q-12 0 -10 12z" />
    <glyph glyph-name="bracketleft" unicode="[" horiz-adv-x="454" 
d="M256 -195l-4 -18q-2 -12 -14 -12h-185q-11 0 -10 12l289 1634q5 13 14 13h184q16 0 11 -13l-4 -18q0 -12 -15 -12h-151l-277 -1573h152q10 0 10 -13z" />
    <glyph glyph-name="backslash" unicode="\" horiz-adv-x="528" 
d="M231 1423l197 -1411q0 -12 -12 -12h-19q-13 0 -14 10l-195 1411q0 13 13 13h18q12 0 12 -11z" />
    <glyph glyph-name="bracketright" unicode="]" horiz-adv-x="454" 
d="M-39 -213l4 18q0 13 15 13h151l277 1573h-152q-10 0 -10 12l4 18q5 13 14 13h185q15 0 10 -13l-289 -1634q-2 -12 -14 -12h-185q-11 0 -10 12z" />
    <glyph glyph-name="asciicircum" unicode="^" horiz-adv-x="925" 
d="M625 1434h16q9 0 14 -13l187 -686q1 -14 -13 -14h-22q-13 0 -14 12l-175 621l-391 -621q-11 -12 -18 -12h-23q-15 0 -8 14l428 686q8 13 19 13z" />
    <glyph glyph-name="underscore" unicode="_" horiz-adv-x="688" 
d="M526 -150h-581q-16 0 -11 13l3 18q2 13 14 13h581q13 0 11 -13l-2 -18q-5 -13 -15 -13z" />
    <glyph glyph-name="grave" unicode="`" horiz-adv-x="491" 
d="M381 1376l84 -172q7 -12 -8 -12h-11q-10 0 -12 8l-115 174q-8 19 11 19h28q17 0 23 -17z" />
    <glyph glyph-name="a" unicode="a" horiz-adv-x="720" 
d="M668 801l-138 -789q-2 -12 -14 -12h-20q-12 0 -11 12l29 172q-94 -194 -287 -194q-96 0 -148 55t-52 156q0 126 38 213t117 133q81 47 176 68q99 22 238 26l29 162q8 46 8 88q0 77 -39 115q-37 36 -127 36q-123 0 -234 -43q-7 -2 -11 1q-5 3 -3 10l2 12q4 16 19 20
q113 43 233 43q203 0 203 -192q0 -46 -8 -92zM547 365l41 235q-88 -1 -160 -11q-62 -8 -139 -34q-70 -23 -117 -67q-46 -43 -74 -114t-28 -171q0 -170 161 -170q117 0 204 95q88 95 112 237z" />
    <glyph glyph-name="b" unicode="b" horiz-adv-x="778" 
d="M170 535q-25 -153 -25 -228q0 -280 193 -280q242 0 332 508q24 136 24 241q0 266 -178 266q-256 0 -346 -507zM113 209l-33 -197q-2 -12 -14 -12h-21q-11 0 -10 12l248 1409q5 13 14 13h20q16 0 11 -13l-99 -561q91 225 289 225q223 0 223 -307q0 -106 -24 -243
q-50 -276 -139 -413q-90 -138 -242 -138q-104 0 -160 62q-57 63 -63 163z" />
    <glyph glyph-name="c" unicode="c" horiz-adv-x="591" 
d="M86 535q50 290 137 419q89 131 260 131q85 0 146 -24q12 -6 10 -21l-2 -12q-4 -17 -19 -10q-48 22 -135 22q-150 0 -226 -119q-78 -122 -124 -386q-29 -162 -29 -259q0 -126 49 -187q48 -60 154 -60q92 0 146 22q6 4 11 1t3 -11l-2 -12q-5 -17 -19 -21q-69 -24 -143 -24
q-130 0 -186 71q-58 73 -58 221q0 100 27 259z" />
    <glyph glyph-name="d" unicode="d" horiz-adv-x="778" 
d="M633 535q22 116 22 223q0 284 -192 284q-245 0 -330 -507q-24 -141 -24 -246q0 -262 176 -262q257 0 348 508zM539 12l32 197q-40 -103 -112 -164q-73 -61 -176 -61q-224 0 -224 303q0 95 27 248q49 274 138 412t241 138q195 0 223 -225l98 561q5 13 15 13h20
q15 0 10 -13l-247 -1409q-2 -12 -15 -12h-20q-11 0 -10 12z" />
    <glyph glyph-name="e" unicode="e" horiz-adv-x="700" 
d="M334 27q104 0 182 28q6 2 10 -1q4 -2 2 -9l-2 -12q-5 -17 -16 -21q-81 -28 -178 -28q-144 0 -208 73q-65 74 -65 232q0 92 27 248q50 281 138 414q89 134 245 134q205 0 205 -272q0 -94 -25 -233l-10 -58q-1 -12 -14 -12h-498q-21 -122 -21 -217q0 -136 54 -202
q52 -64 174 -64zM467 1042q-132 0 -209 -119q-78 -120 -123 -370h463l4 27q27 164 27 237q0 225 -162 225z" />
    <glyph glyph-name="f" unicode="f" horiz-adv-x="466" 
d="M332 1069h192q12 0 8 -12l-2 -19q-2 -12 -14 -12h-192l-179 -1014q-1 -12 -14 -12h-20q-13 0 -11 12l179 1014h-123q-12 0 -11 12l2 19q5 12 17 12h123l16 94q27 152 78 215q52 64 158 64q34 0 59 -4q12 -2 12 -21l-2 -10q-4 -16 -20 -12q-21 4 -53 4q-88 0 -126 -53
q-39 -55 -63 -191z" />
    <glyph glyph-name="g" unicode="g" horiz-adv-x="761" 
d="M627 580q18 100 18 184q0 278 -192 278q-232 0 -314 -462q-20 -106 -20 -209q0 -254 172 -254q125 0 212 122q86 120 124 341zM754 1057l-168 -955q-33 -182 -115 -263t-233 -81q-122 0 -205 45q-15 7 -13 21l3 12q1 14 16 10q90 -45 194 -45q135 0 208 70q74 71 102 235
l32 193q-40 -103 -112 -164q-73 -61 -174 -61q-217 0 -217 295q0 105 20 211q44 244 129 374q86 131 234 131q100 0 154 -61q55 -63 67 -164l33 197q5 12 16 12h20q13 0 9 -12z" />
    <glyph glyph-name="h" unicode="h" horiz-adv-x="778" 
d="M721 772l-133 -760q-2 -12 -15 -12h-20q-11 0 -10 12l133 760q10 54 10 96q0 174 -158 174q-115 0 -207 -91q-94 -93 -118 -238l-123 -699q-1 -14 -14 -14h-21q-11 0 -10 12l248 1409q5 13 14 13h20q16 0 11 -13l-95 -532q111 196 297 196q199 0 199 -217q0 -46 -8 -96z
" />
    <glyph glyph-name="i" unicode="i" horiz-adv-x="299" 
d="M274 1057l-182 -1045q-2 -12 -14 -12h-21q-11 0 -10 12l182 1045q5 12 17 12h20q12 0 8 -12zM338 1393l-25 -146q-1 -12 -14 -12h-29q-12 0 -10 12l25 146q1 12 14 12h29q12 0 10 -12z" />
    <glyph glyph-name="j" unicode="j" horiz-adv-x="311" 
d="M49 -41l193 1098q4 12 16 12h21q13 0 8 -12l-193 -1100q-18 -103 -51 -146q-33 -44 -109 -44q-22 0 -36 2q-17 2 -13 18l2 14q2 16 17 11q14 -2 33 -2q51 0 74 33t38 116zM350 1393l-24 -146q-2 -12 -15 -12h-28q-13 0 -11 12l25 146q1 12 14 12h29q12 0 10 -12z" />
    <glyph glyph-name="k" unicode="k" horiz-adv-x="643" 
d="M514 0h-14q-19 0 -25 12l-295 572l-100 -572q-2 -12 -14 -12h-21q-11 0 -10 12l248 1409q5 13 14 13h20q16 0 11 -13l-142 -803l447 439q17 12 31 12h26q10 0 11 -6q1 -5 -7 -12l-469 -457l299 -576q10 -18 -10 -18z" />
    <glyph glyph-name="l" unicode="l" horiz-adv-x="299" 
d="M340 1421l-248 -1409q-2 -12 -14 -12h-21q-11 0 -10 12l248 1409q5 13 14 13h21q15 0 10 -13z" />
    <glyph glyph-name="m" unicode="m" horiz-adv-x="1216" 
d="M676 731l-125 -719q-1 -12 -14 -12h-21q-12 0 -10 12l135 768q8 50 8 94q0 168 -145 168q-104 0 -192 -93q-89 -94 -113 -232l-123 -705q-2 -12 -15 -12h-20q-11 0 -10 12l182 1045q5 12 16 12h21q12 0 8 -12l-29 -164q37 76 112 134q74 58 165 58q92 0 140 -55
q48 -56 44 -149q33 78 114 141t177 63q188 0 188 -211q0 -48 -8 -94l-135 -768q-2 -12 -14 -12h-21q-11 0 -10 12l135 768q8 50 8 94q0 168 -145 168q-103 0 -191 -88t-112 -223z" />
    <glyph glyph-name="n" unicode="n" horiz-adv-x="774" 
d="M717 772l-133 -760q-2 -12 -15 -12h-20q-11 0 -10 12l133 760q10 54 10 96q0 174 -158 174q-117 0 -209 -95t-116 -236l-123 -699q-2 -12 -15 -12h-20q-11 0 -10 12l182 1045q5 12 16 12h21q12 0 8 -12l-29 -172q38 78 116 139q79 61 181 61q199 0 199 -217q0 -46 -8 -96
z" />
    <glyph glyph-name="o" unicode="o" horiz-adv-x="753" 
d="M297 -16q-124 0 -180 74q-58 76 -58 227q0 97 27 250q50 285 140 416q92 134 253 134q124 0 180 -75q58 -78 58 -230q0 -98 -25 -245q-52 -285 -142 -417q-92 -134 -253 -134zM299 27q137 0 218 123q82 124 128 385q27 153 27 245q0 262 -195 262q-138 0 -218 -123
q-81 -125 -126 -384q-27 -156 -27 -248q0 -260 193 -260z" />
    <glyph glyph-name="p" unicode="p" horiz-adv-x="774" 
d="M166 535q-25 -153 -25 -228q0 -280 193 -280q242 0 332 508q24 136 24 241q0 266 -178 266q-256 0 -346 -507zM258 1057l-33 -197q91 225 289 225q223 0 223 -307q0 -106 -24 -243q-49 -274 -140 -413q-90 -138 -241 -138q-104 0 -160 62q-57 63 -63 163l-74 -422
q-1 -12 -15 -12h-20q-12 0 -10 12l223 1270q5 12 16 12h21q12 0 8 -12z" />
    <glyph glyph-name="q" unicode="q" horiz-adv-x="774" 
d="M633 535q22 132 22 223q0 284 -192 284q-245 0 -330 -507q-24 -141 -24 -246q0 -262 176 -262q263 0 348 508zM688 860l33 197q5 12 16 12h21q12 0 8 -12l-223 -1270q-1 -12 -15 -12h-20q-12 0 -10 12l75 426q-40 -105 -114 -166q-77 -63 -176 -63q-224 0 -224 303
q0 95 27 248q49 274 138 412t241 138q101 0 156 -61t67 -164z" />
    <glyph glyph-name="r" unicode="r" horiz-adv-x="466" 
d="M229 1069h21q12 0 8 -12l-33 -189q33 88 113 153q79 64 174 64q18 0 22 -4q5 -5 1 -14l-3 -14q-2 -17 -16 -17q-7 0 -15 1t-16 1q-90 0 -177 -97q-86 -96 -113 -249l-119 -680q-2 -12 -15 -12h-20q-11 0 -10 12l182 1045q5 12 16 12z" />
    <glyph glyph-name="s" unicode="s" horiz-adv-x="610" 
d="M520 324q0 -141 -89 -241q-89 -99 -236 -99q-123 0 -199 30q-16 6 -12 21l4 12q4 14 16 10q86 -30 193 -30q116 0 196 83t80 209q0 27 -4 46q-5 23 -15 38t-20 31q-6 10 -30 32q-27 25 -31 28l-14 10q-14 11 -26 19t-25.5 18.5t-14.5 11.5q-77 59 -122 117
q-40 52 -40 127q0 130 85 209t222 79q82 0 156 -20q13 -4 12 -18l-2 -13q-2 -17 -20 -12q-63 20 -148 20q-111 0 -185 -67q-75 -67 -75 -180q0 -12 2 -30q1 -12 8 -27q2 -5 6 -12t5 -11q6 -14 15 -24q11 -13 16 -19q2 -3 22 -21q17 -15 23 -19l28 -22q23 -18 27 -22
q9 -7 41 -32q30 -24 42 -33q4 -3 33 -30q24 -22 32 -36q3 -4 10.5 -16.5t12.5 -20.5q12 -20 17 -46q4 -21 4 -50z" />
    <glyph glyph-name="t" unicode="t" horiz-adv-x="491" 
d="M508 1026h-193l-139 -782q-10 -49 -10 -103q0 -60 24 -84t80 -24q33 0 66 6q6 2 10 -1q4 -2 2 -9l-2 -13q-5 -19 -18 -20q-27 -6 -60 -6q-72 0 -110 32q-37 31 -37 115q0 40 10 103l139 786h-118q-12 0 -11 12l2 19q4 12 17 12h119l45 266q5 13 16 13h20q14 0 9 -13
l-45 -266h192q12 0 8 -12l-2 -19q-2 -12 -14 -12z" />
    <glyph glyph-name="u" unicode="u" horiz-adv-x="765" 
d="M82 313l131 744q5 12 16 12h21q12 0 8 -12l-131 -744q-10 -54 -10 -98q0 -188 168 -188q115 0 197 97q83 98 110 241l121 692q5 12 16 12h21q12 0 8 -12l-183 -1045q-1 -12 -14 -12h-20q-13 0 -11 12l29 172q-30 -80 -102 -140t-176 -60q-209 0 -209 229q0 46 10 100z
" />
    <glyph glyph-name="v" unicode="v" horiz-adv-x="663" 
d="M260 0h-20q-15 0 -15 12l-75 1043q0 14 14 14h22q13 0 13 -12l51 -750l12 -221h4l90 221l314 750q6 12 20 12h23q12 0 6 -14l-440 -1043q-6 -12 -19 -12z" />
    <glyph glyph-name="w" unicode="w" horiz-adv-x="1040" 
d="M614 1069h25q11 0 12 -10l15 -740v-239h4l88 239l274 738q6 12 21 12h20q12 0 6 -14l-395 -1043q-6 -12 -18 -12h-21q-14 0 -14 12l-19 719v250h-4l-90 -250l-272 -719q-6 -12 -19 -12h-20q-14 0 -14 12l-27 1043q0 14 14 14h21q12 0 12 -12l12 -738l2 -239h4l86 239
l281 740q1 10 16 10z" />
    <glyph glyph-name="x" unicode="x" horiz-adv-x="684" 
d="M213 1061l149 -473l318 473q5 8 16 8h23q16 0 4 -16l-344 -510l170 -527q4 -16 -10 -16h-23q-9 0 -14 8l-156 490l-328 -490q-5 -8 -14 -8h-22q-19 0 -7 16l355 527l-164 510q-4 16 12 16h23q7 0 12 -8z" />
    <glyph glyph-name="y" unicode="y" horiz-adv-x="679" 
d="M731 1055l-434 -1037q-55 -132 -111 -196q-52 -60 -147 -60q-40 0 -84 13q-14 4 -10 20l2 12q2 15 18 11q47 -13 84 -13q86 0 140 89q55 90 49 149l-80 1012q0 14 14 14h23q12 0 12 -12l59 -750l10 -217h5l88 217l313 750q6 12 20 12h23q12 0 6 -14z" />
    <glyph glyph-name="z" unicode="z" horiz-adv-x="671" 
d="M680 1057l-2 -15q0 -4 -6 -16l-617 -983h451q14 0 10 -12l-2 -19q-2 -12 -14 -12h-492q-12 0 -10 12l2 13q0 4 6 16l617 985h-422q-13 0 -11 12l3 19q5 12 16 12h463q12 0 8 -12z" />
    <glyph glyph-name="braceleft" unicode="{" horiz-adv-x="454" 
d="M96 594l2 20q5 13 15 13h18q53 0 90 100q37 98 82 352q34 193 76 275q41 80 137 80h47q15 0 10 -13l-4 -18q0 -12 -14 -12h-47q-63 0 -96 -70q-34 -72 -64 -242q-44 -257 -83 -360q-37 -99 -97 -115q57 -15 57 -127q0 -103 -43 -348q-24 -129 -24 -203q0 -108 73 -108h48
q10 0 10 -13l-4 -18q-1 -12 -15 -12h-47q-62 0 -87 32t-25 103q0 80 26 219q43 233 43 342q0 111 -55 111h-19q-12 0 -10 12z" />
    <glyph glyph-name="bar" unicode="|" horiz-adv-x="454" 
d="M250 1462v-1675q0 -12 -12 -12h-21q-12 0 -12 12v1675q0 13 12 13h21q12 0 12 -13z" />
    <glyph glyph-name="braceright" unicode="}" horiz-adv-x="454" 
d="M406 614l-3 -20q-1 -12 -14 -12h-18q-52 0 -90 -101q-37 -98 -82 -352q-34 -191 -76 -274q-41 -80 -137 -80h-47q-13 0 -11 12l4 18q0 13 15 13h47q63 0 96 69q34 72 64 242q45 263 83 362q37 96 99 113q-60 16 -60 129q0 103 43 346q25 134 25 203q0 109 -74 109h-47
q-10 0 -10 12l4 18q5 13 14 13h48q61 0 87 -33q25 -32 25 -103q0 -80 -26 -219q-43 -233 -43 -342q0 -110 55 -110h18q16 0 11 -13z" />
    <glyph glyph-name="asciitilde" unicode="~" horiz-adv-x="925" 
d="M328 827q50 0 151 -45l90 -41q96 -41 138 -41q59 0 104 56q14 20 31 51q6 12 20 6l15 -8q6 -6 0 -17q-67 -143 -181 -143q-54 0 -155 45l-101 45q-81 37 -127 37q-59 0 -104 -55q-14 -20 -31 -51q-6 -12 -20 -7l-15 9q-6 5 -2 16q69 143 187 143z" />
    <glyph glyph-name="uni00A0" unicode="&#xa0;" horiz-adv-x="0" 
 />
    <glyph glyph-name="exclamdown" unicode="&#xa1;" horiz-adv-x="364" 
d="M324 1057l-19 -113q-1 -12 -14 -12h-53q-12 0 -11 12l19 113q4 12 16 12h53q13 0 9 -12zM215 705h16q16 0 11 -13l-154 -905q-2 -12 -14 -12h-29q-11 0 -10 12l166 905q5 13 14 13z" />
    <glyph glyph-name="cent" unicode="&#xa2;" horiz-adv-x="630" 
d="M90 535q46 271 134 404q87 132 255 144l27 158q2 12 14 12h23q15 0 10 -12l-27 -156q64 -1 133 -26q12 -6 11 -21l-2 -12q-4 -17 -19 -10q-52 24 -143 24q-158 0 -240 -119q-82 -120 -129 -386q-26 -150 -26 -248q0 -132 51 -195t168 -63q92 0 153 24q6 5 12 1
q5 -3 3 -11l-2 -12q-5 -17 -19 -21q-74 -25 -145 -26l-27 -156q-1 -12 -14 -12h-23q-14 0 -10 12l27 158q-222 15 -222 299q0 94 27 250z" />
    <glyph glyph-name="sterling" unicode="&#xa3;" horiz-adv-x="884" 
d="M279 713h-144q-11 0 -10 12l4 18q2 13 14 13h129q-20 140 -20 233q0 206 97 333q98 128 288 128q132 0 194 -58q64 -59 64 -161q0 -47 -6 -84q-5 -29 -15 -54q-8 -18 -16 -18h-22q-11 0 -11 12q0 2 5 19q8 28 11 45q5 33 5 74q0 180 -209 180q-95 0 -163 -37t-104 -100
q-37 -64 -53 -135q-16 -70 -16 -158q0 -75 21 -219h260q12 0 10 -13l-4 -18q-2 -12 -15 -12h-245q10 -81 10 -150q0 -342 -244 -500q90 35 137 35q66 0 155 -32q92 -33 149 -33q46 0 79 23q35 24 56 68q18 37 32 88q13 48 23 101q5 13 16 13h25q13 0 8 -13q-12 -74 -24 -113
q-17 -55 -40 -102q-26 -53 -71 -82q-44 -28 -107 -28q-68 0 -151 32q-85 33 -160 33q-106 0 -201 -53q-12 -6 -16 4l-8 21q-6 10 6 16q287 168 287 518q0 70 -10 154z" />
    <glyph glyph-name="currency" unicode="&#xa4;" horiz-adv-x="942" 
d="M84 225l113 115q-37 93 -37 240q0 146 37 239l-113 115q-8 10 0 18l14 15q8 8 19 0l102 -103q80 146 252 146t252 -146l102 103q11 8 19 0l14 -15q8 -8 0 -18l-113 -115q37 -93 37 -239q0 -147 -37 -240l113 -115q8 -11 0 -18l-14 -14q-8 -8 -19 0l-102 102
q-79 -145 -252 -145t-252 145l-102 -102q-11 -8 -19 0l-14 14q-8 7 0 18zM739 580q0 193 -69 292t-199 99q-127 0 -198 -99q-70 -98 -70 -292t69 -293t199 -99t199 99t69 293z" />
    <glyph glyph-name="yen" unicode="&#xa5;" horiz-adv-x="876" 
d="M455 430l-74 -418q-5 -12 -14 -12h-21q-14 0 -10 12l74 418h-304q-12 0 -10 12l2 19q4 12 15 12h303l10 55l-41 185h-229q-12 0 -11 12l5 18q0 13 14 13h211l-148 663q-4 15 13 15h22q12 0 12 -11l183 -833h4l477 833q6 11 16 11h23q13 0 8 -15l-383 -663h213
q10 0 10 -13l-4 -18q-1 -12 -14 -12h-229l-107 -185l-10 -55h303q14 0 10 -12l-2 -19q-2 -12 -14 -12h-303z" />
    <glyph glyph-name="brokenbar" unicode="&#xa6;" horiz-adv-x="454" 
d="M250 1462v-651q0 -12 -12 -12h-21q-12 0 -12 12v651q0 13 12 13h21q12 0 12 -13zM250 438v-651q0 -12 -12 -12h-21q-12 0 -12 12v651q0 13 12 13h21q12 0 12 -13z" />
    <glyph glyph-name="section" unicode="&#xa7;" horiz-adv-x="942" 
d="M186 602q0 116 88 205t209 110q-147 113 -147 236q0 137 92 217t242 80q138 0 217 -31q11 -6 10 -20l-2 -13q-1 -15 -18 -10q-91 31 -207 31q-123 0 -206 -65t-83 -187q0 -22 6 -43q2 -8 6 -20.5t5 -15.5q4 -14 23 -36q21 -25 25 -30q5 -7 34 -31q26 -21 33 -27
q2 -2 7 -5.5t14 -10t18 -13.5t17.5 -13t14 -10t6.5 -5q56 -41 102 -82q39 -34 73 -91q34 -56 34 -116q0 -113 -82 -198q-84 -87 -201 -111q146 -108 146 -234q0 -137 -101 -217q-100 -79 -250 -79q-143 0 -221 30q-15 4 -10 21l2 12q1 15 18 10q88 -30 213 -30q123 0 213 66
t90 187q0 43 -15 80t-54 73q-29 27 -64 53q-14 10 -82 57q-68 46 -107 77q-38 31 -73 85q-35 55 -35 114zM530 881q-109 -1 -204 -83q-95 -81 -95 -194q0 -20 7 -44q7 -25 13 -38q7 -16 27 -37q5 -5 15 -15.5t14 -15.5q7 -8 38 -32q29 -23 38 -29q27 -19 45 -31
q9 -6 19.5 -12.5t16 -10t7.5 -5.5q106 6 194 85q89 80 89 187q0 55 -38 111q-36 53 -73 82q-22 18 -113 82z" />
    <glyph glyph-name="dieresis" unicode="&#xa8;" horiz-adv-x="491" 
d="M297 1288l-14 -84q-5 -12 -15 -12h-28q-16 0 -11 12l15 84q2 12 14 12h29q11 0 10 -12zM535 1288l-15 -84q-4 -12 -14 -12h-29q-15 0 -10 12l14 84q1 12 15 12h28q12 0 11 -12z" />
    <glyph glyph-name="copyright" unicode="&#xa9;" horiz-adv-x="1347" 
d="M717 334q78 0 119 14q12 4 12 -8v-16q0 -16 -10 -17q-51 -16 -123 -16q-144 0 -204 100t-60 326q0 225 60 325q60 101 202 101q67 0 121 -17q12 -2 12 -16v-16q0 -14 -15 -9q-39 15 -116 15q-121 0 -169 -87t-48 -296t48 -296t171 -87zM166 717q0 -148 25 -264
q26 -122 82 -219q57 -100 158 -153q102 -54 243 -54q140 0 242 54q101 53 158 153q56 97 82 219q26 121 26 264t-26 264t-82 218q-58 101 -158 154q-102 54 -242 54q-141 0 -243 -54q-100 -53 -158 -154q-56 -97 -82 -218q-25 -116 -25 -264zM119 717q0 129 17 228
q18 104 59 200t103 161q63 66 159 105t217 39t217 -39t159 -105q62 -65 103 -161q40 -92 58 -200q18 -105 18 -228q0 -124 -18 -229q-18 -106 -58 -199q-41 -96 -103 -161q-63 -66 -159 -105t-217 -39t-217 39t-159 105q-62 65 -103 161q-41 97 -59 199q-17 99 -17 229z" />
    <glyph glyph-name="ordfeminine" unicode="&#xaa;" horiz-adv-x="614" 
d="M623 1296l32 187q-91 -1 -157 -14q-63 -12 -129 -42q-65 -29 -100 -94q-33 -60 -33 -159q0 -142 133 -142q94 0 163 75q70 76 91 189zM573 1012l23 137q-74 -158 -231 -158q-80 0 -125 50t-45 133q0 195 122 268q124 74 347 80l22 129q6 38 6 65q0 65 -33 94
q-34 29 -106 29q-96 0 -193 -35q-4 -1 -8 0t-2 8l2 17q4 13 17 18q88 33 188 33q176 0 176 -160q0 -32 -6 -71l-111 -637q-2 -13 -14 -13h-18q-16 0 -11 13z" />
    <glyph glyph-name="guillemotleft" unicode="&#xab;" horiz-adv-x="524" 
d="M285 530l4 9l155 268q6 10 15 10h26q11 0 7 -12l-160 -277l63 -272q0 -12 -12 -12h-27q-6 0 -10 10l-61 268v8zM84 530l4 9l156 268q6 10 14 10h27q11 0 6 -12l-160 -275l64 -274q0 -12 -13 -12h-26q-7 0 -11 10l-61 268v8z" />
    <glyph glyph-name="logicalnot" unicode="&#xac;" horiz-adv-x="925" 
d="M815 745l-65 -362q0 -12 -15 -12h-20q-10 0 -10 12l59 330h-594q-14 0 -10 12l4 20q0 13 14 13h627q10 0 10 -13z" />
    <glyph glyph-name="uni00AD" unicode="&#xad;" horiz-adv-x="544" 
d="M461 528h-357q-15 0 -10 13l4 18q0 12 15 12h356q10 0 10 -12l-4 -18q-5 -13 -14 -13z" />
    <glyph glyph-name="registered" unicode="&#xae;" horiz-adv-x="774" 
d="M330 1081h55q52 0 70 20q18 19 18 70q0 50 -18 68t-74 18h-51v-176zM387 1450q142 0 227 -104q86 -106 86 -254t-86 -254q-86 -105 -227 -105t-227 105q-86 106 -86 254t86 254q85 104 227 104zM387 774q125 0 199 92q73 91 73 226q0 134 -73 225q-74 92 -199 92
t-199 -92q-73 -91 -73 -225q0 -135 73 -226q74 -92 199 -92zM287 905v383q0 10 10 10h84q75 0 105 -29q32 -30 32 -98q0 -117 -94 -129l80 -133q7 -14 -8 -14h-21q-8 0 -14 10l-80 135h-51v-135q0 -10 -11 -10h-22q-10 0 -10 10z" />
    <glyph glyph-name="macron" unicode="&#xaf;" horiz-adv-x="491" 
d="M537 1208h-320q-12 0 -10 13l2 14q4 12 14 12h320q15 0 10 -12l-2 -14q-2 -13 -14 -13z" />
    <glyph glyph-name="degree" unicode="&#xb0;" horiz-adv-x="569" 
d="M379 1008q92 0 151 77q60 78 60 183q0 68 -36 109q-36 40 -101 40q-92 0 -152 -78q-60 -77 -61 -176q-2 -73 34 -113q38 -42 105 -42zM379 967q-85 0 -134 54q-50 55 -50 138q0 117 71 207q72 92 189 92q83 0 133 -53q49 -52 49 -137q0 -114 -71 -208q-71 -93 -187 -93z
" />
    <glyph glyph-name="plusminus" unicode="&#xb1;" horiz-adv-x="925" 
d="M866 713h-338l-73 -412q0 -12 -15 -12h-20q-10 0 -10 12l73 412h-338q-15 0 -10 12l4 20q0 13 15 13h338l71 411q2 13 15 13h20q12 0 10 -13l-71 -411h337q11 0 11 -13l-4 -20q-5 -12 -15 -12zM741 0h-721q-12 0 -10 12l2 21q4 12 15 12h721q14 0 10 -12l-2 -21
q-2 -12 -15 -12z" />
    <glyph glyph-name="two.superior" unicode="&#xb2;" 
d="M317 1642q0 -16 -12 -16h-18q-13 0 -13 16q0 102 66 170t164 68q86 0 127 -45q41 -46 41 -121q0 -58 -19 -125q-18 -63 -65 -133q-27 -39 -78 -114q-27 -39 -106 -118q-88 -88 -95 -94q-4 -4 -96 -90h344q11 0 10 -12l-4 -16q-2 -13 -14 -13h-383q-15 0 -10 13l4 16
q5 16 8 19q220 205 307 317q154 198 154 352q0 127 -125 127q-87 0 -136 -58q-51 -60 -51 -143z" />
    <glyph glyph-name="three.superior" unicode="&#xb3;" 
d="M416 1436h-56q-12 0 -10 12l2 14q5 13 15 13h53q96 0 144 72t48 175q0 65 -37 92t-116 27q-58 0 -127 -20q-10 -4 -10 8l2 18q0 9 10 13q53 20 125 20q196 0 196 -160q0 -88 -42 -166q-42 -77 -117 -98q45 -5 75 -49q31 -47 31 -117q0 -141 -81 -222t-218 -81
q-90 0 -135 21q-6 4 -6 12l2 16q1 10 12 8q46 -18 127 -18q121 0 189 73q67 71 67 193q0 144 -143 144z" />
    <glyph glyph-name="acute" unicode="&#xb4;" horiz-adv-x="491" 
d="M285 1204l143 172q12 17 27 17h32q26 0 7 -19l-175 -174q-8 -8 -16 -8h-14q-11 0 -4 12z" />
    <glyph glyph-name="mu" unicode="&#xb5;" horiz-adv-x="765" 
d="M758 1057l-131 -744q-57 -329 -301 -329q-105 0 -160 61q-56 62 -62 139l-69 -397q-1 -12 -15 -12h-20q-12 0 -10 12l223 1270q5 12 16 12h21q12 0 8 -12l-121 -692q-8 -43 -8 -91q0 -110 51 -179q50 -68 146 -68q205 0 256 286l131 744q5 12 16 12h21q12 0 8 -12z" />
    <glyph glyph-name="paragraph" unicode="&#xb6;" horiz-adv-x="770" 
d="M862 1391h-63q-62 0 -89 -29q-28 -30 -40 -100l-228 -1289q-21 -117 -62 -161q-42 -45 -142 -45q-34 0 -72 6q-15 1 -10 18l2 14q2 15 16 11q30 -6 68 -6q73 0 106 34q32 34 49 131l123 691h-39q-141 0 -219 75q-80 77 -80 213q0 197 111 338q112 142 309 142h268
q16 0 11 -13l-4 -18q-1 -12 -15 -12z" />
    <glyph glyph-name="periodcentered" unicode="&#xb7;" horiz-adv-x="299" 
d="M113 477l18 113q5 12 14 12h54q14 0 10 -12l-19 -113q-2 -12 -14 -12h-53q-11 0 -10 12z" />
    <glyph glyph-name="cedilla" unicode="&#xb8;" horiz-adv-x="491" 
d="M104 18h43q107 -68 107 -168q0 -56 -36 -91q-34 -33 -95 -33q-37 0 -53 6q-11 5 -7 16l3 12q5 13 14 13h39q38 0 62 20q26 21 26 62q0 89 -103 163z" />
    <glyph glyph-name="one.superior" unicode="&#xb9;" 
d="M532 1802l-204 -172q-8 -8 -17 0l-12 12q-6 11 4 17l240 203q8 6 16 6h16q16 0 11 -13l-150 -843q-2 -13 -14 -13h-19q-15 0 -10 13z" />
    <glyph glyph-name="ordmasculine" unicode="&#xba;" horiz-adv-x="630" 
d="M559 1841q-112 0 -178 -100q-64 -98 -102 -307q-21 -108 -21 -195q0 -213 156 -213q110 0 176 100q64 97 102 308q21 108 21 194q0 213 -154 213zM412 987q-195 0 -195 254q0 81 19 193q39 227 114 335q76 111 207 111q197 0 197 -256q0 -78 -19 -190q-39 -226 -115 -336
q-76 -111 -208 -111z" />
    <glyph glyph-name="guillemotright" unicode="&#xbb;" horiz-adv-x="524" 
d="M461 530q0 -4 -4 -8l-156 -268q-4 -10 -14 -10h-27q-12 0 -4 12l158 274l-62 275q-5 12 10 12h27q10 0 10 -10l62 -268v-9zM260 530q0 -4 -4 -8l-156 -268q-4 -10 -14 -10h-27q-11 0 -4 12l158 274l-61 275q-5 12 10 12h26q11 0 11 -10l61 -268v-9z" />
    <glyph glyph-name="onequarter" unicode="&#xbc;" horiz-adv-x="1331" 
d="M459 1368l-205 -172q-8 -8 -16 0l-13 12q-6 11 4 17l240 202q9 7 16 7h17q15 0 10 -13l-150 -843q-2 -13 -14 -13h-18q-16 0 -11 13zM1239 1417l-926 -1405q-11 -12 -22 -12h-23q-16 0 -4 16l926 1405q11 13 20 13h23q14 0 6 -17zM1225 791l-400 -535h305zM1262 215h-95
l-37 -203q-4 -12 -14 -12h-18q-12 0 -11 12l37 203h-342q-10 0 -10 12l2 19q1 5 12 22l445 590q10 10 18 10h21q12 0 10 -12l-106 -600h94q14 0 10 -12l-2 -17q-2 -12 -14 -12z" />
    <glyph glyph-name="onehalf" unicode="&#xbd;" horiz-adv-x="1331" 
d="M459 1368l-205 -172q-8 -8 -16 0l-13 12q-6 11 4 17l240 202q9 7 16 7h17q15 0 10 -13l-150 -843q-2 -13 -14 -13h-18q-16 0 -11 13zM922 643q0 83 50 142t136 59q125 0 125 -127q0 -85 -40 -174q-43 -95 -116 -181q-83 -98 -135 -151q-65 -67 -145 -141q-22 -20 -25 -23
q-4 -4 -8 -18l-4 -17q-2 -12 10 -12h383q9 0 14 12l4 17q5 12 -10 12h-344q92 86 96 90q21 18 96 93q74 74 105 119q51 75 78 114q47 70 65 133q19 66 19 125q0 75 -41 121q-41 45 -127 45q-98 0 -164 -68q-65 -66 -65 -170q0 -16 12 -16h18q13 0 13 16zM1157 1417
l-926 -1405q-11 -12 -22 -12h-23q-16 0 -4 16l926 1405q11 13 20 13h23q14 0 6 -17z" />
    <glyph glyph-name="threequarters" unicode="&#xbe;" horiz-adv-x="1331" 
d="M342 1001h-55q-13 0 -11 13l3 14q5 12 14 12h53q95 0 144 73t49 175q0 64 -37 91q-39 28 -117 28q-55 0 -127 -21q-10 -4 -10 9l2 18q0 8 10 12q55 21 125 21q197 0 197 -160q0 -88 -42 -166q-41 -77 -118 -98q46 -5 76 -49q30 -45 30 -117q0 -141 -81 -222t-218 -81
q-92 0 -135 20q-6 5 -6 13l2 16q1 10 12 8q47 -18 127 -18q121 0 189 73q67 71 67 193q0 143 -143 143zM1260 1417l-926 -1405q-10 -12 -23 -12h-22q-16 0 -4 16l925 1405q11 13 21 13h22q15 0 7 -17zM1225 791l-400 -535h306zM1262 215h-95l-37 -203q-4 -12 -14 -12h-18
q-12 0 -11 12l37 203h-342q-10 0 -10 12l2 19q1 5 12 22l445 590q10 10 18 10h21q12 0 10 -12l-106 -600h94q14 0 10 -12l-2 -17q-2 -12 -14 -12z" />
    <glyph glyph-name="questiondown" unicode="&#xbf;" horiz-adv-x="655" 
d="M496 1057l-19 -113q-1 -12 -14 -12h-53q-12 0 -11 12l19 113q4 12 16 12h53q13 0 9 -12zM369 692l-7 -37q-16 -94 -73 -188q-57 -95 -117 -159q-58 -63 -107 -154q-49 -92 -49 -183q0 -209 236 -209q97 0 192 31q16 5 17 19l2 12q1 9 -2 12.5t-10 1.5q-102 -31 -197 -31
q-186 0 -186 166q0 83 47 172t106 154q61 67 117 163q58 99 74 193l6 37q5 13 -10 13h-25q-9 0 -14 -13z" />
    <glyph glyph-name="Agrave" unicode="&#xc0;" horiz-adv-x="876" 
d="M231 504h426l-61 848h-4zM594 1434h29q14 0 14 -13l104 -1407q0 -14 -12 -14h-22q-13 0 -13 12l-35 447h-446l-190 -447q-6 -12 -17 -12h-22q-15 0 -9 14l600 1407q7 13 19 13zM549 1706l84 -162q8 -12 -8 -12h-11q-6 0 -12 8l-115 164q-7 18 13 18h28q15 0 21 -16z" />
    <glyph glyph-name="Aacute" unicode="&#xc1;" horiz-adv-x="876" 
d="M231 504h426l-61 848h-4zM594 1434h29q14 0 14 -13l104 -1407q0 -14 -12 -14h-22q-13 0 -13 12l-35 447h-446l-190 -447q-6 -12 -17 -12h-22q-15 0 -9 14l600 1407q7 13 19 13zM621 1544l137 162q12 16 28 16h33q22 0 4 -18l-168 -164q-6 -8 -16 -8h-14q-11 0 -4 12z" />
    <glyph glyph-name="Acircumflex" unicode="&#xc2;" horiz-adv-x="876" 
d="M231 504h426l-61 848h-4zM594 1434h29q14 0 14 -13l104 -1407q0 -14 -12 -14h-22q-13 0 -13 12l-35 447h-446l-190 -447q-6 -12 -17 -12h-22q-15 0 -9 14l600 1407q7 13 19 13zM768 1540l-113 146l-161 -146q-8 -8 -17 -8h-18q-13 0 -6 12l168 170q15 15 26 15h25
q16 0 22 -15l107 -170q8 -12 -10 -12h-11q-4 0 -12 8z" />
    <glyph glyph-name="Atilde" unicode="&#xc3;" horiz-adv-x="876" 
d="M231 504h426l-61 848h-4zM594 1434h29q14 0 14 -13l104 -1407q0 -14 -12 -14h-22q-13 0 -13 12l-35 447h-446l-190 -447q-6 -12 -17 -12h-22q-15 0 -9 14l600 1407q7 13 19 13zM848 1640q-7 -49 -43 -82q-35 -32 -78 -32q-44 0 -84 37l-51 43q-48 31 -79 13
q-32 -19 -44 -56l-4 -17q-6 -14 -19 -14h-10q-11 0 -10 14q7 49 43 85q34 34 78 34q40 0 84 -37l43 -37q27 -26 59 -26q55 0 70 59l6 16q6 15 16 15h11q14 0 12 -15z" />
    <glyph glyph-name="Adieresis" unicode="&#xc4;" horiz-adv-x="876" 
d="M231 504h426l-61 848h-4zM594 1434h29q14 0 14 -13l104 -1407q0 -14 -12 -14h-22q-13 0 -13 12l-35 447h-446l-190 -447q-6 -12 -17 -12h-22q-15 0 -9 14l600 1407q7 13 19 13zM551 1628l-16 -84q0 -12 -15 -12h-28q-11 0 -11 12l17 84q0 12 14 12h29q10 0 10 -12z
M788 1628l-16 -84q0 -12 -14 -12h-29q-10 0 -10 12l16 84q0 12 15 12h28q10 0 10 -12z" />
    <glyph glyph-name="Aring" unicode="&#xc5;" horiz-adv-x="876" 
d="M471 1520q0 75 49 124q50 50 127 50q64 0 101 -34q36 -33 36 -89q0 -69 -40 -116q-40 -48 -105 -58l102 -1383q0 -14 -12 -14h-22q-13 0 -13 12l-35 447h-446l-190 -447q-6 -12 -17 -12h-22q-15 0 -9 14l590 1385q-94 22 -94 121zM231 504h426l-61 848h-4zM647 1655
q-56 0 -96 -38q-39 -37 -39 -97q0 -86 96 -86h10q52 5 88 42q35 36 35 95q0 84 -94 84z" />
    <glyph glyph-name="AE" unicode="&#xc6;" horiz-adv-x="1105" 
d="M1038 713h-395l-119 -668h412q14 0 10 -12l-2 -21q-2 -12 -14 -12h-447q-11 0 -10 12l76 441h-346l-201 -441q-6 -12 -16 -12h-23q-14 0 -8 14l647 1407q6 13 19 13h557q15 0 10 -13l-4 -20q-4 -12 -15 -12h-407l-111 -631h396q10 0 10 -13l-4 -20q-5 -12 -15 -12z
M223 498h334l158 891h-82z" />
    <glyph glyph-name="Ccedilla" unicode="&#xc7;" horiz-adv-x="757" 
d="M428 29q88 0 162 20q7 2 11 -1q5 -3 3 -11l-2 -14q-2 -13 -18 -19q-70 -20 -158 -20q-14 0 -24 1t-21 1q68 -60 68 -138q0 -63 -37 -97t-103 -34q-45 0 -59 7q-10 5 -8 16l2 12q2 12 14 12h47q98 0 98 89q0 74 -75 139q-119 23 -175 110q-57 88 -57 263q0 142 37 352
q72 408 191 571q118 162 344 162q89 0 155 -20q13 -6 11 -19l-3 -14q-2 -17 -18 -13q-72 21 -147 21q-204 0 -310 -153q-107 -153 -174 -535q-39 -228 -39 -352q0 -180 68 -259q67 -77 217 -77z" />
    <glyph glyph-name="Egrave" unicode="&#xc8;" horiz-adv-x="716" 
d="M649 713h-432l-119 -668h449q15 0 10 -12l-4 -23q0 -10 -12 -10h-484q-11 0 -10 12l248 1409q5 13 16 13h477q16 0 11 -13l-4 -20q-5 -12 -15 -12h-444l-111 -631h432q11 0 11 -13l-4 -20q-4 -12 -15 -12zM530 1706l84 -162q8 -12 -8 -12h-10q-6 0 -12 8l-115 164
q-11 18 12 18h29q14 0 20 -16z" />
    <glyph glyph-name="Eacute" unicode="&#xc9;" horiz-adv-x="716" 
d="M649 713h-432l-119 -668h449q15 0 10 -12l-4 -23q0 -10 -12 -10h-484q-11 0 -10 12l248 1409q5 13 16 13h477q16 0 11 -13l-4 -20q-5 -12 -15 -12h-444l-111 -631h432q11 0 11 -13l-4 -20q-4 -12 -15 -12zM541 1544l137 162q12 16 29 16h32q22 0 4 -18l-168 -164
q-6 -8 -16 -8h-14q-11 0 -4 12z" />
    <glyph glyph-name="Ecircumflex" unicode="&#xca;" horiz-adv-x="716" 
d="M649 713h-432l-119 -668h449q15 0 10 -12l-4 -23q0 -10 -12 -10h-484q-11 0 -10 12l248 1409q5 13 16 13h477q16 0 11 -13l-4 -20q-5 -12 -15 -12h-444l-111 -631h432q11 0 11 -13l-4 -20q-4 -12 -15 -12zM729 1540l-113 146l-161 -146q-8 -8 -17 -8h-18q-13 0 -6 12
l168 170q15 15 26 15h25q15 0 22 -15l107 -170q7 -12 -10 -12h-11q-4 0 -12 8z" />
    <glyph glyph-name="Edieresis" unicode="&#xcb;" horiz-adv-x="716" 
d="M649 713h-432l-119 -668h449q15 0 10 -12l-4 -23q0 -10 -12 -10h-484q-11 0 -10 12l248 1409q5 13 16 13h477q16 0 11 -13l-4 -20q-5 -12 -15 -12h-444l-111 -631h432q11 0 11 -13l-4 -20q-4 -12 -15 -12zM512 1628l-16 -84q0 -12 -15 -12h-28q-11 0 -11 12l17 84
q0 12 14 12h29q10 0 10 -12zM750 1628l-17 -84q0 -12 -14 -12h-29q-10 0 -10 12l16 84q0 12 15 12h28q11 0 11 -12z" />
    <glyph glyph-name="Igrave" unicode="&#xcc;" horiz-adv-x="319" 
d="M57 12l248 1409q2 13 14 13h23q15 0 10 -13l-248 -1409q-2 -12 -14 -12h-22q-16 0 -11 12zM274 1706l84 -162q8 -12 -8 -12h-10q-6 0 -12 8l-115 164q-8 18 12 18h29q14 0 20 -16z" />
    <glyph glyph-name="Iacute" unicode="&#xcd;" horiz-adv-x="319" 
d="M57 12l248 1409q2 13 14 13h23q15 0 10 -13l-248 -1409q-2 -12 -14 -12h-22q-16 0 -11 12zM338 1544l137 162q12 16 29 16h33q22 0 4 -18l-168 -164q-6 -8 -17 -8h-14q-12 0 -4 12z" />
    <glyph glyph-name="Icircumflex" unicode="&#xce;" horiz-adv-x="319" 
d="M57 12l248 1409q2 13 14 13h23q15 0 10 -13l-248 -1409q-2 -12 -14 -12h-22q-16 0 -11 12zM489 1540l-112 146l-162 -146q-8 -8 -16 -8h-19q-13 0 -6 12l168 170q15 15 27 15h24q17 0 23 -15l106 -170q7 -12 -10 -12h-10q-5 0 -13 8z" />
    <glyph glyph-name="Idieresis" unicode="&#xcf;" horiz-adv-x="319" 
d="M57 12l248 1409q2 13 14 13h23q15 0 10 -13l-248 -1409q-2 -12 -14 -12h-22q-16 0 -11 12zM272 1628l-16 -84q0 -12 -14 -12h-29q-10 0 -10 12l16 84q0 12 14 12h29q10 0 10 -12zM510 1628l-16 -84q0 -12 -15 -12h-28q-11 0 -11 12l17 84q0 12 14 12h29q10 0 10 -12z" />
    <glyph glyph-name="Eth" unicode="&#xd0;" horiz-adv-x="892" 
d="M289 0h-228q-11 0 -10 12l121 686h-82q-12 0 -10 13l2 14q4 12 14 12h82l121 684q5 13 16 13h213q174 0 263 -91q88 -89 88 -311q0 -132 -33 -315q-39 -215 -89 -350q-53 -144 -123 -222q-69 -78 -154 -112q-82 -33 -191 -33zM526 1389h-186l-115 -652h191q14 0 10 -12
l-2 -14q-2 -13 -14 -13h-191l-117 -653h187q96 0 172 31q73 30 139 105t114 207q49 134 83 329q32 177 32 313q0 201 -75 279q-77 80 -228 80z" />
    <glyph glyph-name="Ntilde" unicode="&#xd1;" horiz-adv-x="913" 
d="M954 1419l-247 -1407q-1 -12 -15 -12h-20q-12 0 -17 12l-331 1309l-230 -1309q-4 -12 -14 -12h-23q-11 0 -10 12l248 1409q5 13 14 13h21q14 0 16 -13l330 -1308l231 1308q2 13 15 13h22q12 0 10 -15zM866 1640q-7 -49 -43 -82q-35 -32 -78 -32q-44 0 -84 37l-51 43
q-48 31 -79 13q-32 -19 -44 -56l-4 -17q-6 -14 -18 -14h-10q-12 0 -11 14q7 49 43 85q34 34 78 34q40 0 84 -37l43 -37q27 -26 60 -26q54 0 69 59l6 16q6 15 17 15h10q14 0 12 -15z" />
    <glyph glyph-name="Ograve" unicode="&#xd2;" horiz-adv-x="937" 
d="M635 1450q148 0 220 -89q73 -90 73 -292q0 -146 -37 -352q-71 -399 -188 -567q-115 -166 -312 -166q-150 0 -222 89q-73 90 -73 292q0 146 37 352q72 400 189 567q117 166 313 166zM391 27q175 0 280 156q105 155 171 534q39 228 39 356q0 177 -61 256q-60 78 -185 78
q-174 0 -281 -158q-106 -157 -172 -532q-37 -212 -37 -355q0 -176 61 -257q59 -78 185 -78zM600 1706l84 -162q8 -12 -8 -12h-10q-7 0 -13 8l-114 164q-11 18 12 18h29q14 0 20 -16z" />
    <glyph glyph-name="Oacute" unicode="&#xd3;" horiz-adv-x="937" 
d="M635 1450q148 0 220 -89q73 -90 73 -292q0 -146 -37 -352q-71 -399 -188 -567q-115 -166 -312 -166q-150 0 -222 89q-73 90 -73 292q0 146 37 352q72 400 189 567q117 166 313 166zM391 27q175 0 280 156q105 155 171 534q39 228 39 356q0 177 -61 256q-60 78 -185 78
q-174 0 -281 -158q-106 -157 -172 -532q-37 -212 -37 -355q0 -176 61 -257q59 -78 185 -78zM631 1544l137 162q12 16 29 16h32q23 0 5 -18l-168 -164q-6 -8 -17 -8h-14q-11 0 -4 12z" />
    <glyph glyph-name="Ocircumflex" unicode="&#xd4;" horiz-adv-x="937" 
d="M635 1450q148 0 220 -89q73 -90 73 -292q0 -146 -37 -352q-71 -399 -188 -567q-115 -166 -312 -166q-150 0 -222 89q-73 90 -73 292q0 146 37 352q72 400 189 567q117 166 313 166zM391 27q175 0 280 156q105 155 171 534q39 228 39 356q0 177 -61 256q-60 78 -185 78
q-174 0 -281 -158q-106 -157 -172 -532q-37 -212 -37 -355q0 -176 61 -257q59 -78 185 -78zM799 1540l-113 146l-162 -146q-8 -8 -16 -8h-19q-13 0 -6 12l168 170q15 15 27 15h24q16 0 23 -15l106 -170q8 -12 -10 -12h-10q-4 0 -12 8z" />
    <glyph glyph-name="Otilde" unicode="&#xd5;" horiz-adv-x="937" 
d="M635 1450q148 0 220 -89q73 -90 73 -292q0 -146 -37 -352q-71 -399 -188 -567q-115 -166 -312 -166q-150 0 -222 89q-73 90 -73 292q0 146 37 352q72 400 189 567q117 166 313 166zM391 27q175 0 280 156q105 155 171 534q39 228 39 356q0 177 -61 256q-60 78 -185 78
q-174 0 -281 -158q-106 -157 -172 -532q-37 -212 -37 -355q0 -176 61 -257q59 -78 185 -78zM879 1640q-7 -49 -43 -82q-35 -32 -78 -32q-44 0 -84 37l-51 43q-48 31 -79 13q-32 -19 -44 -56l-4 -17q-6 -14 -19 -14h-10q-11 0 -10 14q7 49 43 85q34 34 78 34q40 0 84 -37
l43 -37q27 -26 59 -26q55 0 70 59l6 16q6 15 16 15h10q14 0 13 -15z" />
    <glyph glyph-name="Odieresis" unicode="&#xd6;" horiz-adv-x="937" 
d="M635 1450q148 0 220 -89q73 -90 73 -292q0 -146 -37 -352q-71 -399 -188 -567q-115 -166 -312 -166q-150 0 -222 89q-73 90 -73 292q0 146 37 352q72 400 189 567q117 166 313 166zM391 27q175 0 280 156q105 155 171 534q39 228 39 356q0 177 -61 256q-60 78 -185 78
q-174 0 -281 -158q-106 -157 -172 -532q-37 -212 -37 -355q0 -176 61 -257q59 -78 185 -78zM582 1628l-17 -84q0 -12 -14 -12h-29q-10 0 -10 12l16 84q0 12 15 12h28q11 0 11 -12zM819 1628l-16 -84q0 -12 -15 -12h-28q-10 0 -10 12l16 84q0 12 14 12h29q10 0 10 -12z" />
    <glyph glyph-name="multiply" unicode="&#xd7;" horiz-adv-x="925" 
d="M766 383l-262 319l-377 -319q-7 -11 -18 0l-11 14q-8 9 2 19l377 319l-264 320q-6 11 4 18l16 14q13 11 19 0l264 -319l375 319q12 11 18 0l13 -14q6 -11 -4 -18l-375 -320l262 -319q9 -8 -2 -19l-19 -14q-10 -11 -18 0z" />
    <glyph glyph-name="Oslash" unicode="&#xd8;" horiz-adv-x="950" 
d="M639 1450q209 0 266 -180l109 143q10 12 20 6l17 -12q10 -6 0 -16l-131 -177q12 -61 12 -145q0 -146 -37 -352q-72 -401 -187 -567t-313 -166q-207 0 -268 174l-104 -140q-8 -12 -19 -4l-16 11q-14 6 -2 18l127 170q-13 71 -13 152q0 146 37 352q72 400 189 567
q117 166 313 166zM150 362q0 -69 4 -94l716 955q-43 184 -231 184q-174 0 -281 -158q-106 -157 -172 -532q-36 -206 -36 -355zM395 27q175 0 280 156q105 155 171 534q39 228 39 356q0 39 -4 90l-717 -954q43 -182 231 -182z" />
    <glyph glyph-name="Ugrave" unicode="&#xd9;" horiz-adv-x="880" 
d="M362 -16q-140 0 -205 60t-65 198q0 62 17 164l180 1015q2 13 14 13h23q15 0 10 -13l-178 -1011q-19 -104 -19 -170q0 -115 52 -164t171 -49q154 0 229 86q73 83 111 297l179 1011q5 13 14 13h23q12 0 10 -13l-180 -1015q-41 -233 -126 -327q-86 -95 -260 -95zM571 1706
l84 -162q7 -12 -8 -12h-10q-6 0 -12 8l-115 164q-10 18 12 18h29q14 0 20 -16z" />
    <glyph glyph-name="Uacute" unicode="&#xda;" horiz-adv-x="880" 
d="M362 -16q-140 0 -205 60t-65 198q0 62 17 164l180 1015q2 13 14 13h23q15 0 10 -13l-178 -1011q-19 -104 -19 -170q0 -115 52 -164t171 -49q154 0 229 86q73 83 111 297l179 1011q5 13 14 13h23q12 0 10 -13l-180 -1015q-41 -233 -126 -327q-86 -95 -260 -95zM602 1544
l137 162q12 16 29 16h33q22 0 4 -18l-168 -164q-6 -8 -16 -8h-15q-12 0 -4 12z" />
    <glyph glyph-name="Ucircumflex" unicode="&#xdb;" horiz-adv-x="880" 
d="M362 -16q-140 0 -205 60t-65 198q0 62 17 164l180 1015q2 13 14 13h23q15 0 10 -13l-178 -1011q-19 -104 -19 -170q0 -115 52 -164t171 -49q154 0 229 86q73 83 111 297l179 1011q5 13 14 13h23q12 0 10 -13l-180 -1015q-41 -233 -126 -327q-86 -95 -260 -95zM770 1540
l-113 146l-161 -146q-8 -8 -17 -8h-18q-13 0 -6 12l168 170q15 15 26 15h25q14 0 22 -15l107 -170q8 -12 -10 -12h-11q-4 0 -12 8z" />
    <glyph glyph-name="Udieresis" unicode="&#xdc;" horiz-adv-x="880" 
d="M362 -16q-140 0 -205 60t-65 198q0 62 17 164l180 1015q2 13 14 13h23q15 0 10 -13l-178 -1011q-19 -104 -19 -170q0 -115 52 -164t171 -49q154 0 229 86q73 83 111 297l179 1011q5 13 14 13h23q12 0 10 -13l-180 -1015q-41 -233 -126 -327q-86 -95 -260 -95zM553 1628
l-16 -84q0 -12 -15 -12h-28q-11 0 -11 12l17 84q0 12 14 12h29q10 0 10 -12zM791 1628l-17 -84q0 -12 -14 -12h-29q-10 0 -10 12l16 84q0 12 15 12h28q11 0 11 -12z" />
    <glyph glyph-name="Yacute" unicode="&#xdd;" horiz-adv-x="829" 
d="M457 569l-99 -557q-2 -12 -14 -12h-22q-16 0 -11 12l99 557l-183 850q-4 15 13 15h22q12 0 12 -11l121 -565l43 -231h6l125 231l322 565q6 11 16 11h23q12 0 8 -15zM575 1544l138 162q12 16 28 16h33q22 0 4 -18l-168 -164q-6 -8 -16 -8h-14q-12 0 -5 12z" />
    <glyph glyph-name="Thorn" unicode="&#xde;" horiz-adv-x="770" 
d="M80 0h-23q-11 0 -10 12l248 1409q5 13 14 13h23q12 0 10 -13l-29 -159h131q168 0 245 -66t77 -215q0 -66 -16 -162q-44 -241 -145 -343q-101 -101 -304 -101h-143l-64 -363q-4 -12 -14 -12zM166 420h137q180 0 269 89t128 310q17 102 17 160q0 129 -65 183
q-66 55 -210 55h-137z" />
    <glyph glyph-name="germandbls" unicode="&#xdf;" horiz-adv-x="798" 
d="M557 1399q-101 0 -180 -67q-78 -66 -105 -218l-192 -1102q-2 -12 -14 -12h-21q-11 0 -10 12l194 1104q28 166 118 247q88 79 212 79q114 0 169 -53q54 -52 54 -136q0 -72 -43 -136t-94 -103t-94 -91t-43 -102q0 -37 31 -88q27 -44 68 -92q41 -47 69 -115q31 -74 31 -151
q0 -167 -91 -275q-90 -106 -247 -106q-35 0 -72 6q-17 2 -12 20l2 13q1 15 18 10q53 -8 70 -8q126 0 205 91t79 245q0 76 -30 145q-30 70 -68 112q-35 39 -67 92q-31 51 -31 95q0 52 29 99q28 46 69 81q27 23 81 71q40 35 69 83q28 46 28 102q0 67 -45 107q-46 41 -137 41z
" />
    <glyph glyph-name="agrave" unicode="&#xe0;" horiz-adv-x="720" 
d="M668 801l-138 -789q-2 -12 -14 -12h-20q-12 0 -11 12l29 172q-94 -194 -287 -194q-96 0 -148 55t-52 156q0 126 38 213t117 133q81 47 176 68q99 22 238 26l29 162q8 46 8 88q0 77 -39 115q-37 36 -127 36q-123 0 -234 -43q-7 -2 -11 1q-5 3 -3 10l2 12q4 16 19 20
q113 43 233 43q203 0 203 -192q0 -46 -8 -92zM547 365l41 235q-88 -1 -160 -11q-62 -8 -139 -34q-70 -23 -117 -67q-46 -43 -74 -114t-28 -171q0 -170 161 -170q117 0 204 95q88 95 112 237zM434 1376l84 -172q8 -12 -8 -12h-10q-11 0 -13 8l-114 174q-8 19 10 19h29
q16 0 22 -17z" />
    <glyph glyph-name="aacute" unicode="&#xe1;" horiz-adv-x="720" 
d="M668 801l-138 -789q-2 -12 -14 -12h-20q-12 0 -11 12l29 172q-94 -194 -287 -194q-96 0 -148 55t-52 156q0 126 38 213t117 133q81 47 176 68q99 22 238 26l29 162q8 46 8 88q0 77 -39 115q-37 36 -127 36q-123 0 -234 -43q-7 -2 -11 1q-5 3 -3 10l2 12q4 16 19 20
q113 43 233 43q203 0 203 -192q0 -46 -8 -92zM547 365l41 235q-88 -1 -160 -11q-62 -8 -139 -34q-70 -23 -117 -67q-46 -43 -74 -114t-28 -171q0 -170 161 -170q117 0 204 95q88 95 112 237zM461 1204l143 172q12 17 27 17h33q25 0 6 -19l-174 -174q-8 -8 -17 -8h-14
q-11 0 -4 12z" />
    <glyph glyph-name="acircumflex" unicode="&#xe2;" horiz-adv-x="720" 
d="M668 801l-138 -789q-2 -12 -14 -12h-20q-12 0 -11 12l29 172q-94 -194 -287 -194q-96 0 -148 55t-52 156q0 126 38 213t117 133q81 47 176 68q99 22 238 26l29 162q8 46 8 88q0 77 -39 115q-37 36 -127 36q-123 0 -234 -43q-7 -2 -11 1q-5 3 -3 10l2 12q4 16 19 20
q113 43 233 43q203 0 203 -192q0 -46 -8 -92zM547 365l41 235q-88 -1 -160 -11q-62 -8 -139 -34q-70 -23 -117 -67q-46 -43 -74 -114t-28 -171q0 -170 161 -170q117 0 204 95q88 95 112 237zM627 1200l-107 158l-160 -158q-13 -8 -16 -8h-18q-14 0 -7 12l166 182
q15 15 27 15h25q16 0 22 -15l100 -182q7 -12 -10 -12h-10q-7 0 -12 8z" />
    <glyph glyph-name="atilde" unicode="&#xe3;" horiz-adv-x="720" 
d="M668 801l-138 -789q-2 -12 -14 -12h-20q-12 0 -11 12l29 172q-94 -194 -287 -194q-96 0 -148 55t-52 156q0 126 38 213t117 133q81 47 176 68q99 22 238 26l29 162q8 46 8 88q0 77 -39 115q-37 36 -127 36q-123 0 -234 -43q-7 -2 -11 1q-5 3 -3 10l2 12q4 16 19 20
q113 43 233 43q203 0 203 -192q0 -46 -8 -92zM547 365l41 235q-88 -1 -160 -11q-62 -8 -139 -34q-70 -23 -117 -67q-46 -43 -74 -114t-28 -171q0 -170 161 -170q117 0 204 95q88 95 112 237zM713 1300q-7 -49 -40 -82q-32 -32 -75 -32q-46 0 -84 37l-47 39q-30 24 -55 24
q-46 0 -68 -63l-6 -17q-6 -14 -16 -14h-11q-13 0 -12 14q11 51 43 85q33 34 76 34q42 0 82 -37l43 -37q32 -26 59 -26q25 0 43 19q20 21 25 40l4 16q6 15 18 15h10q12 0 11 -15z" />
    <glyph glyph-name="adieresis" unicode="&#xe4;" horiz-adv-x="720" 
d="M668 801l-138 -789q-2 -12 -14 -12h-20q-12 0 -11 12l29 172q-94 -194 -287 -194q-96 0 -148 55t-52 156q0 126 38 213t117 133q81 47 176 68q99 22 238 26l29 162q8 46 8 88q0 77 -39 115q-37 36 -127 36q-123 0 -234 -43q-7 -2 -11 1q-5 3 -3 10l2 12q4 16 19 20
q113 43 233 43q203 0 203 -192q0 -46 -8 -92zM547 365l41 235q-88 -1 -160 -11q-62 -8 -139 -34q-70 -23 -117 -67q-46 -43 -74 -114t-28 -171q0 -170 161 -170q117 0 204 95q88 95 112 237zM420 1288l-14 -84q-4 -12 -15 -12h-28q-15 0 -11 12l15 84q1 12 14 12h29
q12 0 10 -12zM657 1288l-14 -84q-5 -12 -14 -12h-29q-14 0 -10 12l14 84q2 12 14 12h29q11 0 10 -12z" />
    <glyph glyph-name="aring" unicode="&#xe5;" horiz-adv-x="720" 
d="M668 801l-138 -789q-2 -12 -14 -12h-20q-12 0 -11 12l29 172q-94 -194 -287 -194q-96 0 -148 55t-52 156q0 126 38 213t117 133q81 47 176 68q99 22 238 26l29 162q8 46 8 88q0 77 -39 115q-37 36 -127 36q-123 0 -234 -43q-7 -2 -11 1q-5 3 -3 10l2 12q4 16 19 20
q113 43 233 43q203 0 203 -192q0 -46 -8 -92zM547 365l41 235q-88 -1 -160 -11q-62 -8 -139 -34q-70 -23 -117 -67q-46 -43 -74 -114t-28 -171q0 -170 161 -170q117 0 204 95q88 95 112 237zM500 1210q54 0 92 37q39 37 39 96q0 84 -92 84q-58 0 -95 -36q-38 -37 -38 -99
q0 -82 94 -82zM543 1466q63 0 96 -32q35 -33 35 -88q0 -75 -50 -125t-128 -50q-62 0 -98 33t-36 84q0 73 50 126q49 52 131 52z" />
    <glyph glyph-name="ae" unicode="&#xe6;" horiz-adv-x="1142" 
d="M788 27q90 0 168 28q8 3 11 0.5t2 -10.5l-2 -12q-4 -16 -17 -21q-81 -28 -166 -28q-122 0 -182 67q-59 66 -65 203q-38 -115 -121 -189q-84 -75 -189 -75q-94 0 -148 61t-54 160q0 97 29 164q30 69 76 109q48 42 121 65q81 26 146 34q77 10 170 11l31 172q12 66 12 121
q0 73 -35 114t-122 41q-104 0 -215 -43q-8 -2 -12 1q-5 3 -3 10l2 12q4 16 19 20q101 43 215 43q99 0 148 -48t48 -146q91 194 269 194q196 0 196 -256q0 -91 -22 -217l-8 -49q-4 -12 -15 -12h-471q-29 -162 -29 -262q0 -135 51 -200q49 -62 162 -62zM922 1042
q-123 0 -195 -108q-71 -107 -115 -340h437l2 18q22 208 22 217q0 213 -151 213zM526 365l33 186q-65 -1 -143 -7q-57 -4 -130 -26q-72 -21 -114 -55q-43 -34 -73 -99q-29 -62 -29 -153q0 -81 41 -130q41 -48 120 -48q111 0 190 94q78 92 105 238z" />
    <glyph glyph-name="ccedilla" unicode="&#xe7;" horiz-adv-x="591" 
d="M86 535q50 290 137 419q89 131 260 131q85 0 146 -24q12 -6 10 -21l-2 -12q-4 -17 -19 -10q-48 22 -135 22q-150 0 -226 -119q-78 -122 -124 -386q-29 -162 -29 -259q0 -126 49 -187q48 -60 154 -60q92 0 146 22q6 4 11 1t3 -11l-2 -12q-5 -17 -19 -21q-69 -24 -143 -24
q-12 0 -21 1t-20 1q64 -62 64 -136q0 -56 -36 -91q-34 -33 -95 -33q-39 0 -54 6q-10 4 -6 16l2 12q2 13 15 13h38q39 0 63 20q26 21 26 62q0 77 -78 145q-142 47 -142 276q0 100 27 259z" />
    <glyph glyph-name="egrave" unicode="&#xe8;" horiz-adv-x="700" 
d="M334 27q104 0 182 28q6 2 10 -1q4 -2 2 -9l-2 -12q-5 -17 -16 -21q-81 -28 -178 -28q-144 0 -208 73q-65 74 -65 232q0 92 27 248q50 281 138 414q89 134 245 134q205 0 205 -272q0 -94 -25 -233l-10 -58q-1 -12 -14 -12h-498q-21 -122 -21 -217q0 -136 54 -202
q52 -64 174 -64zM467 1042q-132 0 -209 -119q-78 -120 -123 -370h463l4 27q27 164 27 237q0 225 -162 225zM424 1376l84 -172q8 -12 -8 -12h-11q-10 0 -12 8l-115 174q-11 19 11 19h28q17 0 23 -17z" />
    <glyph glyph-name="eacute" unicode="&#xe9;" horiz-adv-x="700" 
d="M334 27q104 0 182 28q6 2 10 -1q4 -2 2 -9l-2 -12q-5 -17 -16 -21q-81 -28 -178 -28q-144 0 -208 73q-65 74 -65 232q0 92 27 248q50 281 138 414q89 134 245 134q205 0 205 -272q0 -94 -25 -233l-10 -58q-1 -12 -14 -12h-498q-21 -122 -21 -217q0 -136 54 -202
q52 -64 174 -64zM467 1042q-132 0 -209 -119q-78 -120 -123 -370h463l4 27q27 164 27 237q0 225 -162 225zM451 1204l143 172q12 17 27 17h32q25 0 6 -19l-174 -174q-8 -8 -16 -8h-14q-11 0 -4 12z" />
    <glyph glyph-name="ecircumflex" unicode="&#xea;" horiz-adv-x="700" 
d="M334 27q104 0 182 28q6 2 10 -1q4 -2 2 -9l-2 -12q-5 -17 -16 -21q-81 -28 -178 -28q-144 0 -208 73q-65 74 -65 232q0 92 27 248q50 281 138 414q89 134 245 134q205 0 205 -272q0 -94 -25 -233l-10 -58q-1 -12 -14 -12h-498q-21 -122 -21 -217q0 -136 54 -202
q52 -64 174 -64zM467 1042q-132 0 -209 -119q-78 -120 -123 -370h463l4 27q27 164 27 237q0 225 -162 225zM625 1200l-107 158l-160 -158q-13 -8 -16 -8h-18q-14 0 -7 12l166 182q15 15 27 15h25q15 0 22 -15l100 -182q7 -12 -10 -12h-10q-7 0 -12 8z" />
    <glyph glyph-name="edieresis" unicode="&#xeb;" horiz-adv-x="700" 
d="M334 27q104 0 182 28q6 2 10 -1q4 -2 2 -9l-2 -12q-5 -17 -16 -21q-81 -28 -178 -28q-144 0 -208 73q-65 74 -65 232q0 92 27 248q50 281 138 414q89 134 245 134q205 0 205 -272q0 -94 -25 -233l-10 -58q-1 -12 -14 -12h-498q-21 -122 -21 -217q0 -136 54 -202
q52 -64 174 -64zM467 1042q-132 0 -209 -119q-78 -120 -123 -370h463l4 27q27 164 27 237q0 225 -162 225zM410 1288l-15 -84q-1 -12 -14 -12h-29q-12 0 -10 12l14 84q4 12 15 12h28q15 0 11 -12zM647 1288l-14 -84q-1 -12 -15 -12h-28q-12 0 -10 12l14 84q4 12 14 12h29
q15 0 10 -12z" />
    <glyph glyph-name="igrave" unicode="&#xec;" horiz-adv-x="299" 
d="M274 1057l-182 -1045q-2 -12 -14 -12h-21q-11 0 -10 12l182 1045q5 12 17 12h20q12 0 8 -12zM203 1376l84 -172q7 -12 -8 -12h-11q-10 0 -12 8l-115 174q-11 19 11 19h28q17 0 23 -17z" />
    <glyph glyph-name="iacute" unicode="&#xed;" horiz-adv-x="299" 
d="M274 1057l-182 -1045q-2 -12 -14 -12h-21q-11 0 -10 12l182 1045q5 12 17 12h20q12 0 8 -12zM270 1204l144 172q12 17 26 17h33q25 0 6 -19l-174 -174q-8 -8 -16 -8h-15q-12 0 -4 12z" />
    <glyph glyph-name="icircumflex" unicode="&#xee;" horiz-adv-x="299" 
d="M274 1057l-182 -1045q-2 -12 -14 -12h-21q-11 0 -10 12l182 1045q5 12 17 12h20q12 0 8 -12zM416 1200l-107 158l-159 -158q-13 -8 -17 -8h-18q-13 0 -6 12l165 182q15 15 27 15h25q14 0 22 -15l101 -182q8 -12 -11 -12h-10q-7 0 -12 8z" />
    <glyph glyph-name="idieresis" unicode="&#xef;" horiz-adv-x="299" 
d="M274 1057l-182 -1045q-2 -12 -14 -12h-21q-11 0 -10 12l182 1045q5 12 17 12h20q12 0 8 -12zM201 1288l-15 -84q-2 -12 -14 -12h-29q-11 0 -10 12l14 84q5 12 15 12h28q16 0 11 -12zM438 1288l-14 -84q-2 -12 -14 -12h-29q-11 0 -10 12l14 84q4 12 14 12h29q14 0 10 -12z
" />
    <glyph glyph-name="eth" unicode="&#xf0;" horiz-adv-x="757" 
d="M764 1229h-107q66 -162 66 -369q0 -141 -31 -325q-52 -285 -142 -417q-92 -134 -253 -134q-124 0 -180 74q-58 76 -58 227q0 97 27 250q50 285 140 416q92 134 253 134q143 0 199 -120q-16 147 -66 264h-168q-14 0 -10 12l4 14q5 13 15 13h143q-48 85 -100 153q-4 4 -1 9
q3 4 9 4h22q10 0 17 -9q59 -77 98 -157h131q15 0 10 -13l-4 -14q-4 -12 -14 -12zM299 27q137 0 219 124q82 123 127 384q27 153 27 245q0 262 -195 262q-138 0 -218 -123q-81 -125 -126 -384q-27 -156 -27 -248q0 -260 193 -260z" />
    <glyph glyph-name="ntilde" unicode="&#xf1;" horiz-adv-x="774" 
d="M717 772l-133 -760q-2 -12 -15 -12h-20q-11 0 -10 12l133 760q10 54 10 96q0 174 -158 174q-117 0 -209 -95t-116 -236l-123 -699q-2 -12 -15 -12h-20q-11 0 -10 12l182 1045q5 12 16 12h21q12 0 8 -12l-29 -172q38 78 116 139q79 61 181 61q199 0 199 -217q0 -46 -8 -96
zM731 1300q-7 -49 -40 -82q-32 -32 -75 -32q-44 0 -84 37l-47 39q-30 24 -55 24q-46 0 -68 -63l-6 -17q-6 -14 -16 -14h-10q-14 0 -13 14q11 51 43 85q33 34 76 34q42 0 82 -37l43 -37q32 -26 60 -26q25 0 43 19q18 20 24 40l4 16q6 15 19 15h10q11 0 10 -15z" />
    <glyph glyph-name="ograve" unicode="&#xf2;" horiz-adv-x="753" 
d="M297 -16q161 0 253 134q90 132 142 417q25 147 25 245q0 152 -58 230q-56 75 -180 75q-161 0 -253 -134q-90 -131 -140 -416q-27 -153 -27 -250q0 -151 58 -227q56 -74 180 -74zM299 27q-193 0 -193 260q0 92 27 248q45 259 126 384q80 123 218 123q195 0 195 -262
q0 -92 -27 -245q-46 -261 -128 -385q-81 -123 -218 -123zM451 1376l84 -172q7 -12 -9 -12h-10q-10 0 -12 8l-115 174q-8 19 10 19h29q17 0 23 -17z" />
    <glyph glyph-name="oacute" unicode="&#xf3;" horiz-adv-x="753" 
d="M297 -16q161 0 253 134q90 132 142 417q25 147 25 245q0 152 -58 230q-56 75 -180 75q-161 0 -253 -134q-90 -131 -140 -416q-27 -153 -27 -250q0 -151 58 -227q56 -74 180 -74zM299 27q-193 0 -193 260q0 92 27 248q45 259 126 384q80 123 218 123q195 0 195 -262
q0 -92 -27 -245q-46 -261 -128 -385q-81 -123 -218 -123zM477 1204l144 172q12 17 26 17h33q25 0 6 -19l-174 -174q-8 -8 -16 -8h-15q-11 0 -4 12z" />
    <glyph glyph-name="ocircumflex" unicode="&#xf4;" horiz-adv-x="753" 
d="M297 -16q161 0 253 134q90 132 142 417q25 147 25 245q0 152 -58 230q-56 75 -180 75q-161 0 -253 -134q-90 -131 -140 -416q-27 -153 -27 -250q0 -151 58 -227q56 -74 180 -74zM299 27q-193 0 -193 260q0 92 27 248q45 259 126 384q80 123 218 123q195 0 195 -262
q0 -92 -27 -245q-46 -261 -128 -385q-81 -123 -218 -123zM643 1200l-106 158l-160 -158q-13 -8 -17 -8h-18q-14 0 -6 12l166 182q15 15 26 15h25q16 0 22 -15l101 -182q8 -12 -10 -12h-11q-7 0 -12 8z" />
    <glyph glyph-name="otilde" unicode="&#xf5;" horiz-adv-x="753" 
d="M297 -16q-124 0 -180 74q-58 76 -58 227q0 97 27 250q50 285 140 416q92 134 253 134q124 0 180 -75q58 -78 58 -230q0 -98 -25 -245q-52 -285 -142 -417q-92 -134 -253 -134zM299 27q137 0 218 123q82 124 128 385q27 153 27 245q0 262 -195 262q-138 0 -218 -123
q-81 -125 -126 -384q-27 -156 -27 -248q0 -260 193 -260zM721 1300q-7 -49 -40 -82q-32 -32 -75 -32q-46 0 -84 37l-47 39q-30 24 -55 24q-46 0 -68 -63l-6 -17q-6 -14 -16 -14h-11q-13 0 -12 14q11 51 43 85q33 34 76 34q42 0 82 -37l43 -37q32 -26 59 -26q25 0 43 19
q20 21 25 40l4 16q6 15 18 15h11q11 0 10 -15z" />
    <glyph glyph-name="odieresis" unicode="&#xf6;" horiz-adv-x="753" 
d="M297 -16q161 0 253 134q90 132 142 417q25 147 25 245q0 152 -58 230q-56 75 -180 75q-161 0 -253 -134q-90 -131 -140 -416q-27 -153 -27 -250q0 -151 58 -227q56 -74 180 -74zM299 27q-193 0 -193 260q0 92 27 248q45 259 126 384q80 123 218 123q195 0 195 -262
q0 -92 -27 -245q-46 -261 -128 -385q-81 -123 -218 -123zM428 1288l-14 -84q-4 -12 -15 -12h-28q-15 0 -11 12l15 84q1 12 14 12h29q12 0 10 -12zM666 1288l-15 -84q-5 -12 -14 -12h-29q-14 0 -10 12l14 84q2 12 15 12h28q13 0 11 -12z" />
    <glyph glyph-name="divide" unicode="&#xf7;" horiz-adv-x="925" 
d="M854 713h-696q-16 0 -11 12l5 20q0 13 14 13h696q10 0 10 -13l-4 -20q-4 -12 -14 -12zM408 381l20 113q2 12 14 12h54q12 0 10 -12l-21 -113q0 -12 -14 -12h-53q-10 0 -10 12zM514 977l18 113q4 12 15 12h53q14 0 10 -12l-18 -113q-2 -12 -14 -12h-54q-12 0 -10 12z" />
    <glyph glyph-name="oslash" unicode="&#xf8;" horiz-adv-x="761" 
d="M301 -16q-156 0 -207 118l-74 -98q-6 -10 -14 -2l-12 12q-8 8 -2 15l86 116q-15 55 -15 140q0 97 27 250q50 285 140 416q92 134 253 134q153 0 205 -120l72 98q6 10 16 4l15 -8q8 -6 0 -17l-86 -116q16 -64 16 -146q0 -98 -25 -245q-52 -285 -142 -417
q-92 -134 -253 -134zM303 27q137 0 218 123q82 124 128 385q27 153 27 245q0 38 -8 99l-541 -732q40 -120 176 -120zM111 287q0 -49 6 -90l538 727q-40 118 -174 118q-138 0 -218 -123q-81 -125 -126 -384q-26 -150 -26 -248z" />
    <glyph glyph-name="ugrave" unicode="&#xf9;" horiz-adv-x="765" 
d="M82 313l131 744q5 12 16 12h21q12 0 8 -12l-131 -744q-10 -54 -10 -98q0 -188 168 -188q115 0 197 97q83 98 110 241l121 692q5 12 16 12h21q12 0 8 -12l-183 -1045q-1 -12 -14 -12h-20q-13 0 -11 12l29 172q-30 -80 -102 -140t-176 -60q-209 0 -209 229q0 46 10 100z
M457 1376l84 -172q7 -12 -9 -12h-10q-10 0 -12 8l-115 174q-11 19 11 19h28q17 0 23 -17z" />
    <glyph glyph-name="uacute" unicode="&#xfa;" horiz-adv-x="765" 
d="M82 313l131 744q5 12 16 12h21q12 0 8 -12l-131 -744q-10 -54 -10 -98q0 -188 168 -188q115 0 197 97q83 98 110 241l121 692q5 12 16 12h21q12 0 8 -12l-183 -1045q-1 -12 -14 -12h-20q-13 0 -11 12l29 172q-30 -80 -102 -140t-176 -60q-209 0 -209 229q0 46 10 100z
M483 1204l144 172q12 17 26 17h33q25 0 6 -19l-174 -174q-8 -8 -16 -8h-15q-11 0 -4 12z" />
    <glyph glyph-name="ucircumflex" unicode="&#xfb;" horiz-adv-x="765" 
d="M82 313l131 744q5 12 16 12h21q12 0 8 -12l-131 -744q-10 -54 -10 -98q0 -188 168 -188q115 0 197 97q83 98 110 241l121 692q5 12 16 12h21q12 0 8 -12l-183 -1045q-1 -12 -14 -12h-20q-13 0 -11 12l29 172q-30 -80 -102 -140t-176 -60q-209 0 -209 229q0 46 10 100z
M649 1200l-106 158l-160 -158q-13 -8 -16 -8h-19q-14 0 -6 12l166 182q15 15 27 15h24q15 0 23 -15l100 -182q7 -12 -10 -12h-10q-8 0 -13 8z" />
    <glyph glyph-name="udieresis" unicode="&#xfc;" horiz-adv-x="765" 
d="M82 313l131 744q5 12 16 12h21q12 0 8 -12l-131 -744q-10 -54 -10 -98q0 -188 168 -188q115 0 197 97q83 98 110 241l121 692q5 12 16 12h21q12 0 8 -12l-183 -1045q-1 -12 -14 -12h-20q-13 0 -11 12l29 172q-30 -80 -102 -140t-176 -60q-209 0 -209 229q0 46 10 100z
M434 1288l-14 -84q-2 -12 -14 -12h-29q-11 0 -10 12l14 84q5 12 14 12h29q14 0 10 -12zM672 1288l-15 -84q-1 -12 -14 -12h-29q-12 0 -10 12l14 84q4 12 15 12h29q14 0 10 -12z" />
    <glyph glyph-name="yacute" unicode="&#xfd;" horiz-adv-x="679" 
d="M731 1055l-434 -1037q-55 -132 -111 -196q-52 -60 -147 -60q-40 0 -84 13q-14 4 -10 20l2 12q2 15 18 11q47 -13 84 -13q86 0 140 89q55 90 49 149l-80 1012q0 14 14 14h23q12 0 12 -12l59 -750l10 -217h5l88 217l313 750q6 12 20 12h23q12 0 6 -14zM440 1204l144 172
q12 17 26 17h33q25 0 6 -19l-174 -174q-8 -8 -16 -8h-15q-12 0 -4 12z" />
    <glyph glyph-name="thorn" unicode="&#xfe;" horiz-adv-x="778" 
d="M297 1434h20q16 0 11 -13l-99 -561q91 225 289 225q223 0 223 -307q0 -112 -26 -254q-49 -267 -138 -404q-88 -136 -241 -136q-104 0 -160 62q-57 63 -63 163l-74 -422q-1 -12 -14 -12h-21q-12 0 -10 12l289 1634q5 13 14 13zM170 535q-25 -153 -25 -228q0 -280 193 -280
q242 0 332 508q24 136 24 241q0 266 -178 266q-256 0 -346 -507z" />
    <glyph glyph-name="ydieresis" unicode="&#xff;" horiz-adv-x="679" 
d="M731 1055l-434 -1037q-55 -132 -111 -196q-52 -60 -147 -60q-40 0 -84 13q-14 4 -10 20l2 12q2 15 18 11q47 -13 84 -13q86 0 140 89q55 90 49 149l-80 1012q0 14 14 14h23q12 0 12 -12l59 -750l10 -217h5l88 217l313 750q6 12 20 12h23q12 0 6 -14zM391 1288l-14 -84
q-5 -12 -15 -12h-28q-14 0 -10 12l14 84q2 12 14 12h29q11 0 10 -12zM629 1288l-15 -84q-4 -12 -14 -12h-29q-15 0 -10 12l14 84q1 12 15 12h28q12 0 11 -12z" />
    <glyph glyph-name="Amacron" unicode="&#x100;" horiz-adv-x="876" 
d="M231 504h426l-61 848h-4zM594 1434h29q14 0 14 -13l104 -1407q0 -14 -12 -14h-22q-13 0 -13 12l-35 447h-446l-190 -447q-6 -12 -17 -12h-22q-15 0 -9 14l600 1407q7 13 19 13zM788 1532h-327q-10 0 -10 12l4 15q0 12 14 12h328q10 0 10 -12l-4 -15q0 -12 -15 -12z" />
    <glyph glyph-name="amacron" unicode="&#x101;" horiz-adv-x="720" 
d="M668 801l-138 -789q-2 -12 -14 -12h-20q-12 0 -11 12l29 172q-94 -194 -287 -194q-96 0 -148 55t-52 156q0 126 38 213t117 133q81 47 176 68q99 22 238 26l29 162q8 46 8 88q0 77 -39 115q-37 36 -127 36q-123 0 -234 -43q-7 -2 -11 1q-5 3 -3 10l2 12q4 16 19 20
q113 43 233 43q203 0 203 -192q0 -46 -8 -92zM547 365l41 235q-88 -1 -160 -11q-62 -8 -139 -34q-70 -23 -117 -67q-46 -43 -74 -114t-28 -171q0 -170 161 -170q117 0 204 95q88 95 112 237zM659 1208h-319q-12 0 -10 13l2 14q4 12 14 12h320q14 0 10 -12l-2 -14
q-2 -13 -15 -13z" />
    <glyph glyph-name="Abreve" unicode="&#x102;" horiz-adv-x="876" 
d="M231 504h426l-61 848h-4zM594 1434h29q14 0 14 -13l104 -1407q0 -14 -12 -14h-22q-13 0 -13 12l-35 447h-446l-190 -447q-6 -12 -17 -12h-22q-15 0 -9 14l600 1407q7 13 19 13zM629 1520q-82 0 -124 48q-43 49 -32 118q0 12 14 12h19q10 0 10 -12q-8 -123 115 -123
q121 0 160 123q0 12 14 12h18q11 0 11 -12q-16 -72 -70 -119q-53 -47 -135 -47z" />
    <glyph glyph-name="abreve" unicode="&#x103;" horiz-adv-x="720" 
d="M668 801l-138 -789q-2 -12 -14 -12h-20q-12 0 -11 12l29 172q-94 -194 -287 -194q-96 0 -148 55t-52 156q0 126 38 213t117 133q81 47 176 68q99 22 238 26l29 162q8 46 8 88q0 77 -39 115q-37 36 -127 36q-123 0 -234 -43q-7 -2 -11 1q-5 3 -3 10l2 12q4 16 19 20
q113 43 233 43q203 0 203 -192q0 -46 -8 -92zM547 365l41 235q-88 -1 -160 -11q-62 -8 -139 -34q-70 -23 -117 -67q-46 -43 -74 -114t-28 -171q0 -170 161 -170q117 0 204 95q88 95 112 237zM502 1188q-82 0 -125 48q-44 48 -33 118q4 12 14 12h19q11 0 10 -12
q-7 -123 115 -123q121 0 160 123q2 12 14 12h18q16 0 11 -12q-17 -73 -69 -119q-53 -47 -134 -47z" />
    <glyph glyph-name="Aogonek" unicode="&#x104;" horiz-adv-x="876" 
d="M594 1434h29q14 0 14 -13l104 -1407q0 -14 -12 -14h-22q-144 -90 -144 -188q0 -48 74 -48h47q12 0 10 -12l-2 -12q-4 -14 -12 -16q-21 -7 -51 -7q-115 0 -115 90q0 110 180 209l-35 443h-446l-190 -447q-6 -12 -17 -12h-22q-15 0 -9 14l600 1407q7 13 19 13zM231 504h426
l-61 848h-4z" />
    <glyph glyph-name="aogonek" unicode="&#x105;" horiz-adv-x="720" 
d="M668 801l-138 -789q-2 -12 -14 -12h-16q-138 -85 -138 -180q0 -47 68 -47h39q15 0 10 -13l-2 -12q-4 -11 -12 -16q-15 -6 -43 -6q-47 0 -77 21t-30 60q0 120 170 209l29 168q-94 -194 -287 -194q-96 0 -148 55t-52 156q0 126 38 213t117 133q81 47 176 68q99 22 238 26
l29 162q8 46 8 88q0 77 -39 115q-37 36 -127 36q-123 0 -234 -43q-7 -2 -11 1q-5 3 -3 10l2 12q4 16 19 20q113 43 233 43q203 0 203 -192q0 -46 -8 -92zM547 365l41 235q-88 -1 -160 -11q-62 -8 -139 -34q-70 -23 -117 -67q-46 -43 -74 -114t-28 -171q0 -170 161 -170
q117 0 204 95q88 95 112 237z" />
    <glyph glyph-name="Cacute" unicode="&#x106;" horiz-adv-x="757" 
d="M428 29q88 0 162 20q7 2 11 -1q5 -3 3 -11l-2 -14q-2 -13 -18 -19q-70 -20 -158 -20q-172 0 -251 88t-79 293q0 142 37 352q72 408 191 571q118 162 344 162q89 0 155 -20q13 -6 11 -19l-3 -14q-2 -17 -18 -13q-72 21 -147 21q-204 0 -310 -153q-107 -153 -174 -535
q-39 -228 -39 -352q0 -180 68 -259q67 -77 217 -77zM602 1544l137 162q12 16 29 16h33q22 0 4 -18l-168 -164q-6 -8 -16 -8h-15q-12 0 -4 12z" />
    <glyph glyph-name="cacute" unicode="&#x107;" horiz-adv-x="591" 
d="M86 535q50 290 137 419q89 131 260 131q85 0 146 -24q12 -6 10 -21l-2 -12q-4 -17 -19 -10q-48 22 -135 22q-150 0 -226 -119q-78 -122 -124 -386q-29 -162 -29 -259q0 -126 49 -187q48 -60 154 -60q92 0 146 22q6 4 11 1t3 -11l-2 -12q-5 -17 -19 -21q-69 -24 -143 -24
q-130 0 -186 71q-58 73 -58 221q0 100 27 259zM436 1204l144 172q12 17 26 17h33q25 0 6 -19l-174 -174q-8 -8 -16 -8h-15q-12 0 -4 12z" />
    <glyph glyph-name="Ccircumflex" unicode="&#x108;" horiz-adv-x="757" 
d="M428 29q88 0 162 20q7 2 11 -1q5 -3 3 -11l-2 -14q-2 -13 -18 -19q-70 -20 -158 -20q-172 0 -251 88t-79 293q0 142 37 352q72 408 191 571q118 162 344 162q89 0 155 -20q13 -6 11 -19l-3 -14q-2 -17 -18 -13q-72 21 -147 21q-204 0 -310 -153q-107 -153 -174 -535
q-39 -228 -39 -352q0 -180 68 -259q67 -77 217 -77zM811 1540l-113 146l-161 -146q-8 -8 -17 -8h-18q-14 0 -6 12l168 170q15 15 26 15h25q15 0 22 -15l107 -170q8 -12 -10 -12h-11q-4 0 -12 8z" />
    <glyph glyph-name="ccircumflex" unicode="&#x109;" horiz-adv-x="591" 
d="M86 535q50 290 137 419q89 131 260 131q85 0 146 -24q12 -6 10 -21l-2 -12q-4 -17 -19 -10q-48 22 -135 22q-150 0 -226 -119q-78 -122 -124 -386q-29 -162 -29 -259q0 -126 49 -187q48 -60 154 -60q92 0 146 22q6 4 11 1t3 -11l-2 -12q-5 -17 -19 -21q-69 -24 -143 -24
q-130 0 -186 71q-58 73 -58 221q0 100 27 259zM633 1200l-107 158l-159 -158q-13 -8 -17 -8h-18q-14 0 -6 12l166 182q15 15 26 15h25q15 0 22 -15l101 -182q8 -12 -11 -12h-10q-7 0 -12 8z" />
    <glyph glyph-name="Cdotaccent" unicode="&#x10a;" horiz-adv-x="757" 
d="M428 29q88 0 162 20q7 2 11 -1q5 -3 3 -11l-2 -14q-2 -13 -18 -19q-70 -20 -158 -20q-172 0 -251 88t-79 293q0 142 37 352q72 408 191 571q118 162 344 162q89 0 155 -20q13 -6 11 -19l-3 -14q-2 -17 -18 -13q-72 21 -147 21q-204 0 -310 -153q-107 -153 -174 -535
q-39 -228 -39 -352q0 -180 68 -259q67 -77 217 -77zM713 1628l-17 -84q0 -12 -14 -12h-29q-10 0 -10 12l16 84q0 12 15 12h28q11 0 11 -12z" />
    <glyph glyph-name="cdotaccent" unicode="&#x10b;" horiz-adv-x="591" 
d="M86 535q50 290 137 419q89 131 260 131q85 0 146 -24q12 -6 10 -21l-2 -12q-4 -17 -19 -10q-48 22 -135 22q-150 0 -226 -119q-78 -122 -124 -386q-29 -162 -29 -259q0 -126 49 -187q48 -60 154 -60q92 0 146 22q6 4 11 1t3 -11l-2 -12q-5 -17 -19 -21q-69 -24 -143 -24
q-130 0 -186 71q-58 73 -58 221q0 100 27 259zM537 1288l-15 -84q-2 -12 -14 -12h-29q-11 0 -10 12l14 84q5 12 15 12h28q16 0 11 -12z" />
    <glyph glyph-name="Ccaron" unicode="&#x10c;" horiz-adv-x="757" 
d="M428 29q88 0 162 20q7 2 11 -1q5 -3 3 -11l-2 -14q-2 -13 -18 -19q-70 -20 -158 -20q-172 0 -251 88t-79 293q0 142 37 352q72 408 191 571q118 162 344 162q89 0 155 -20q13 -6 11 -19l-3 -14q-2 -17 -18 -13q-72 21 -147 21q-204 0 -310 -153q-107 -153 -174 -535
q-39 -228 -39 -352q0 -180 68 -259q67 -77 217 -77zM674 1575l162 145q9 9 14 9h18q19 0 6 -13l-165 -170q-14 -14 -29 -14h-25q-13 0 -20 14l-109 170q-5 13 11 13h10q5 0 14 -9z" />
    <glyph glyph-name="ccaron" unicode="&#x10d;" horiz-adv-x="591" 
d="M86 535q50 290 137 419q89 131 260 131q85 0 146 -24q12 -6 10 -21l-2 -12q-4 -17 -19 -10q-48 22 -135 22q-150 0 -226 -119q-78 -122 -124 -386q-29 -162 -29 -259q0 -126 49 -187q48 -60 154 -60q92 0 146 22q6 4 11 1t3 -11l-2 -12q-5 -17 -19 -21q-69 -24 -143 -24
q-130 0 -186 71q-58 73 -58 221q0 100 27 259zM498 1235l159 158q13 8 17 8h18q18 0 6 -12l-166 -183q-10 -14 -26 -14h-25q-12 0 -22 14l-101 183q-5 12 11 12h10q7 0 12 -8z" />
    <glyph glyph-name="Dcaron" unicode="&#x10e;" horiz-adv-x="888" 
d="M285 0h-228q-11 0 -10 12l248 1409q5 13 16 13h213q173 0 262 -91q88 -89 88 -311q0 -138 -32 -315q-39 -215 -89 -350q-53 -144 -123 -222q-69 -78 -154 -112q-82 -33 -191 -33zM522 1389h-186l-238 -1344h187q96 0 172 31q72 29 139 104q66 73 114 206q49 134 83 329
q32 179 32 315q0 201 -75 279q-77 80 -228 80zM637 1575l162 145q9 9 14 9h18q20 0 7 -13l-166 -170q-14 -14 -29 -14h-25q-13 0 -20 14l-109 170q-5 13 11 13h10q5 0 14 -9z" />
    <glyph glyph-name="dcaron" unicode="&#x10f;" horiz-adv-x="860" 
d="M633 535q22 116 22 223q0 284 -192 284q-245 0 -330 -507q-24 -141 -24 -246q0 -262 176 -262q257 0 348 508zM539 12l32 197q-40 -103 -112 -164q-73 -61 -176 -61q-224 0 -224 303q0 95 27 248q49 274 138 412t241 138q195 0 223 -225l98 561q5 13 15 13h20
q15 0 10 -13l-247 -1409q-2 -12 -15 -12h-20q-11 0 -10 12zM1006 1335l-70 -170q-2 -12 -16 -12h-9q-12 0 -8 14l64 170h-25q-12 0 -10 13l20 112q2 13 15 13h53q12 0 10 -13l-20 -110q0 -10 -4 -17z" />
    <glyph glyph-name="Dcroat" unicode="&#x110;" horiz-adv-x="892" 
d="M289 0h-228q-11 0 -10 12l121 686h-82q-12 0 -10 13l2 14q4 12 14 12h82l121 684q5 13 16 13h213q174 0 263 -91q88 -89 88 -311q0 -132 -33 -315q-39 -215 -89 -350q-53 -144 -123 -222q-69 -78 -154 -112q-82 -33 -191 -33zM526 1389h-186l-115 -652h191q14 0 10 -12
l-2 -14q-2 -13 -14 -13h-191l-117 -653h187q96 0 172 31q73 30 139 105t114 207q49 134 83 329q32 177 32 313q0 201 -75 279q-77 80 -228 80z" />
    <glyph glyph-name="dcroat" unicode="&#x111;" horiz-adv-x="778" 
d="M539 12l32 197q-40 -103 -112 -164q-73 -61 -176 -61q-224 0 -224 305q0 95 27 248q50 275 138 411q89 137 241 137q101 0 156 -61t67 -164l64 365h-201q-15 0 -10 12l2 14q2 13 14 13h201l28 157q5 13 15 13h20q15 0 10 -13l-28 -157h74q12 0 10 -13l-2 -14
q-5 -12 -15 -12h-73l-213 -1213q-2 -12 -15 -12h-20q-11 0 -10 12zM633 535q22 116 22 223q0 284 -192 284q-245 0 -330 -507q-24 -141 -24 -246q0 -262 176 -262q257 0 348 508z" />
    <glyph glyph-name="Emacron" unicode="&#x112;" horiz-adv-x="716" 
d="M649 713h-432l-119 -668h449q15 0 10 -12l-4 -23q0 -10 -12 -10h-484q-11 0 -10 12l248 1409q5 13 16 13h477q16 0 11 -13l-4 -20q-5 -12 -15 -12h-444l-111 -631h432q11 0 11 -13l-4 -20q-4 -12 -15 -12zM737 1532h-327q-11 0 -11 12l4 15q0 12 15 12h327q11 0 11 -12
l-4 -15q0 -12 -15 -12z" />
    <glyph glyph-name="emacron" unicode="&#x113;" horiz-adv-x="700" 
d="M334 27q104 0 182 28q6 2 10 -1q4 -2 2 -9l-2 -12q-5 -17 -16 -21q-81 -28 -178 -28q-144 0 -208 73q-65 74 -65 232q0 92 27 248q50 281 138 414q89 134 245 134q205 0 205 -272q0 -94 -25 -233l-10 -58q-1 -12 -14 -12h-498q-21 -122 -21 -217q0 -136 54 -202
q52 -64 174 -64zM467 1042q-132 0 -209 -119q-78 -120 -123 -370h463l4 27q27 164 27 237q0 225 -162 225zM651 1208h-319q-12 0 -10 13l2 14q4 12 14 12h319q15 0 11 -12l-2 -14q-2 -13 -15 -13z" />
    <glyph glyph-name="Ebreve" unicode="&#x114;" horiz-adv-x="716" 
d="M649 713h-432l-119 -668h449q15 0 10 -12l-4 -23q0 -10 -12 -10h-484q-11 0 -10 12l248 1409q5 13 16 13h477q16 0 11 -13l-4 -20q-5 -12 -15 -12h-444l-111 -631h432q11 0 11 -13l-4 -20q-4 -12 -15 -12zM598 1520q-82 0 -124 48q-43 49 -32 118q0 12 15 12h18
q10 0 10 -12q-7 -123 115 -123q121 0 160 123q0 12 14 12h19q10 0 10 -12q-16 -72 -70 -119q-53 -47 -135 -47z" />
    <glyph glyph-name="ebreve" unicode="&#x115;" horiz-adv-x="700" 
d="M334 27q104 0 182 28q6 2 10 -1q4 -2 2 -9l-2 -12q-5 -17 -16 -21q-81 -28 -178 -28q-144 0 -208 73q-65 74 -65 232q0 92 27 248q50 281 138 414q89 134 245 134q205 0 205 -272q0 -94 -25 -233l-10 -58q-1 -12 -14 -12h-498q-21 -122 -21 -217q0 -136 54 -202
q52 -64 174 -64zM467 1042q-132 0 -209 -119q-78 -120 -123 -370h463l4 27q27 164 27 237q0 225 -162 225zM494 1188q-82 0 -125 48q-44 48 -33 118q4 12 14 12h19q11 0 10 -12q-7 -123 115 -123q120 0 159 123q1 12 15 12h18q14 0 10 -12q-17 -74 -68 -119
q-53 -47 -134 -47z" />
    <glyph glyph-name="Edotaccent" unicode="&#x116;" horiz-adv-x="716" 
d="M649 713h-432l-119 -668h449q15 0 10 -12l-4 -23q0 -10 -12 -10h-484q-11 0 -10 12l248 1409q5 13 16 13h477q16 0 11 -13l-4 -20q-5 -12 -15 -12h-444l-111 -631h432q11 0 11 -13l-4 -20q-4 -12 -15 -12zM643 1628l-16 -84q0 -12 -15 -12h-28q-11 0 -11 12l17 84
q0 12 14 12h29q10 0 10 -12z" />
    <glyph glyph-name="edotaccent" unicode="&#x117;" horiz-adv-x="700" 
d="M334 27q104 0 182 28q6 2 10 -1q4 -2 2 -9l-2 -12q-5 -17 -16 -21q-81 -28 -178 -28q-144 0 -208 73q-65 74 -65 232q0 92 27 248q50 281 138 414q89 134 245 134q205 0 205 -272q0 -94 -25 -233l-10 -58q-1 -12 -14 -12h-498q-21 -122 -21 -217q0 -136 54 -202
q52 -64 174 -64zM467 1042q-132 0 -209 -119q-78 -120 -123 -370h463l4 27q27 164 27 237q0 225 -162 225zM530 1288l-14 -84q-4 -12 -14 -12h-29q-15 0 -10 12l14 84q1 12 15 12h28q12 0 10 -12z" />
    <glyph glyph-name="Eogonek" unicode="&#x118;" horiz-adv-x="716" 
d="M649 713h-432l-119 -668h449q15 0 10 -12l-4 -23q0 -10 -12 -10h-62q-143 -89 -143 -188q0 -48 74 -48h47q15 0 10 -12l-2 -12q-4 -14 -12 -16q-21 -7 -52 -7q-114 0 -114 90q0 104 149 193h-379q-11 0 -10 12l248 1409q5 13 16 13h477q16 0 11 -13l-4 -20
q-5 -12 -15 -12h-444l-111 -631h432q11 0 11 -13l-4 -20q-4 -12 -15 -12z" />
    <glyph glyph-name="eogonek" unicode="&#x119;" horiz-adv-x="700" 
d="M334 27q104 0 182 28q6 2 10 -1q4 -2 2 -9l-2 -12q-5 -17 -16 -21l-43 -12q-137 -84 -137 -180q0 -47 67 -47h39q15 0 10 -13l-2 -12q-4 -11 -12 -16q-15 -6 -43 -6q-47 0 -77 21q-29 20 -29 60q0 98 120 181q-40 -4 -71 -4q-144 0 -208 73q-65 74 -65 232q0 92 27 248
q50 281 138 414q89 134 245 134q205 0 205 -272q0 -94 -25 -233l-10 -58q-1 -12 -14 -12h-498q-21 -122 -21 -217q0 -136 54 -202q52 -64 174 -64zM467 1042q-132 0 -209 -119q-78 -120 -123 -370h463l4 27q27 164 27 237q0 225 -162 225z" />
    <glyph glyph-name="Ecaron" unicode="&#x11a;" horiz-adv-x="716" 
d="M649 713h-432l-119 -668h449q15 0 10 -12l-4 -23q0 -10 -12 -10h-484q-11 0 -10 12l248 1409q5 13 16 13h477q16 0 11 -13l-4 -20q-5 -12 -15 -12h-444l-111 -631h432q11 0 11 -13l-4 -20q-4 -12 -15 -12zM596 1575l162 145q9 9 14 9h19q19 0 6 -13l-166 -170
q-14 -14 -29 -14h-24q-14 0 -21 14l-108 170q-5 13 10 13h10q5 0 14 -9z" />
    <glyph glyph-name="ecaron" unicode="&#x11b;" horiz-adv-x="700" 
d="M334 27q104 0 182 28q6 2 10 -1q4 -2 2 -9l-2 -12q-5 -17 -16 -21q-81 -28 -178 -28q-144 0 -208 73q-65 74 -65 232q0 92 27 248q50 281 138 414q89 134 245 134q205 0 205 -272q0 -94 -25 -233l-10 -58q-1 -12 -14 -12h-498q-21 -122 -21 -217q0 -136 54 -202
q52 -64 174 -64zM467 1042q-132 0 -209 -119q-78 -120 -123 -370h463l4 27q27 164 27 237q0 225 -162 225zM492 1235l159 158q13 8 17 8h18q18 0 6 -12l-166 -183q-10 -14 -26 -14h-25q-12 0 -22 14l-101 183q-5 12 10 12h11q7 0 12 -8z" />
    <glyph glyph-name="Gcircumflex" unicode="&#x11c;" horiz-adv-x="819" 
d="M442 770h308q12 0 10 -12l-127 -719q-2 -17 -21 -25q-68 -30 -182 -30q-172 0 -253 89q-81 88 -81 296q0 145 37 348q72 407 193 570t348 163q96 0 162 -20q12 -6 10 -19l-2 -14q-2 -18 -19 -13q-72 21 -153 21q-206 0 -314 -153q-109 -154 -176 -535q-37 -206 -37 -348
q0 -181 69 -261q69 -79 218 -79q87 0 156 24l119 672h-273q-12 0 -10 12l4 21q2 12 14 12zM809 1540l-113 146l-161 -146q-8 -8 -17 -8h-18q-13 0 -6 12l168 170q15 15 26 15h25q16 0 22 -15l107 -170q7 -12 -11 -12h-10q-4 0 -12 8z" />
    <glyph glyph-name="gcircumflex" unicode="&#x11d;" horiz-adv-x="761" 
d="M627 580q18 100 18 184q0 278 -192 278q-232 0 -314 -462q-20 -106 -20 -209q0 -254 172 -254q125 0 212 122q86 120 124 341zM754 1057l-168 -955q-33 -182 -115 -263t-233 -81q-122 0 -205 45q-15 7 -13 21l3 12q1 14 16 10q90 -45 194 -45q135 0 208 70q74 71 102 235
l32 193q-40 -103 -112 -164q-73 -61 -174 -61q-217 0 -217 295q0 105 20 211q44 244 129 374q86 131 234 131q100 0 154 -61q55 -63 67 -164l33 197q5 12 16 12h20q13 0 9 -12zM647 1200l-106 158l-160 -158q-13 -8 -16 -8h-19q-14 0 -6 12l166 182q15 15 26 15h25
q17 0 23 -15l100 -182q8 -12 -10 -12h-11q-7 0 -12 8z" />
    <glyph glyph-name="Gbreve" unicode="&#x11e;" horiz-adv-x="819" 
d="M442 770h308q12 0 10 -12l-127 -719q-2 -17 -21 -25q-68 -30 -182 -30q-172 0 -253 89q-81 88 -81 296q0 145 37 348q72 407 193 570t348 163q96 0 162 -20q12 -6 10 -19l-2 -14q-2 -18 -19 -13q-72 21 -153 21q-206 0 -314 -153q-109 -154 -176 -535q-37 -206 -37 -348
q0 -181 69 -261q69 -79 218 -79q87 0 156 24l119 672h-273q-12 0 -10 12l4 21q2 12 14 12zM670 1520q-82 0 -124 48q-43 49 -32 118q0 12 14 12h19q10 0 10 -12q-7 -123 115 -123q120 0 159 123q0 12 15 12h18q10 0 10 -12q-17 -73 -69 -119q-53 -47 -135 -47z" />
    <glyph glyph-name="gbreve" unicode="&#x11f;" horiz-adv-x="761" 
d="M627 580q18 100 18 184q0 278 -192 278q-232 0 -314 -462q-20 -106 -20 -209q0 -254 172 -254q125 0 212 122q86 120 124 341zM754 1057l-168 -955q-33 -182 -115 -263t-233 -81q-122 0 -205 45q-15 7 -13 21l3 12q1 14 16 10q90 -45 194 -45q135 0 208 70q74 71 102 235
l32 193q-40 -103 -112 -164q-73 -61 -174 -61q-217 0 -217 295q0 105 20 211q44 244 129 374q86 131 234 131q100 0 154 -61q55 -63 67 -164l33 197q5 12 16 12h20q13 0 9 -12zM514 1188q-82 0 -125 48q-44 48 -33 118q4 12 15 12h18q11 0 10 -12q-7 -123 115 -123
q121 0 160 123q2 12 14 12h19q15 0 10 -12q-17 -73 -69 -119q-53 -47 -134 -47z" />
    <glyph glyph-name="Gdotaccent" unicode="&#x120;" horiz-adv-x="819" 
d="M442 770h308q12 0 10 -12l-127 -719q-2 -17 -21 -25q-68 -30 -182 -30q-172 0 -253 89q-81 88 -81 296q0 145 37 348q72 407 193 570t348 163q96 0 162 -20q12 -6 10 -19l-2 -14q-2 -18 -19 -13q-72 21 -153 21q-206 0 -314 -153q-109 -154 -176 -535q-37 -206 -37 -348
q0 -181 69 -261q69 -79 218 -79q87 0 156 24l119 672h-273q-12 0 -10 12l4 21q2 12 14 12zM711 1628l-17 -84q0 -12 -14 -12h-29q-10 0 -10 12l16 84q0 12 15 12h28q11 0 11 -12z" />
    <glyph glyph-name="gdotaccent" unicode="&#x121;" horiz-adv-x="761" 
d="M627 580q18 100 18 184q0 278 -192 278q-232 0 -314 -462q-20 -106 -20 -209q0 -254 172 -254q125 0 212 122q86 120 124 341zM754 1057l-168 -955q-33 -182 -115 -263t-233 -81q-122 0 -205 45q-15 7 -13 21l3 12q1 14 16 10q90 -45 194 -45q135 0 208 70q74 71 102 235
l32 193q-40 -103 -112 -164q-73 -61 -174 -61q-217 0 -217 295q0 105 20 211q44 244 129 374q86 131 234 131q100 0 154 -61q55 -63 67 -164l33 197q5 12 16 12h20q13 0 9 -12zM551 1288l-14 -84q-5 -12 -15 -12h-28q-16 0 -11 12l15 84q2 12 14 12h29q11 0 10 -12z" />
    <glyph glyph-name="Gcommaaccent" unicode="&#x122;" horiz-adv-x="819" 
d="M442 770h308q12 0 10 -12l-127 -719q-2 -17 -21 -25q-68 -30 -182 -30q-172 0 -253 89q-81 88 -81 296q0 145 37 348q72 407 193 570t348 163q96 0 162 -20q12 -6 10 -19l-2 -14q-2 -18 -19 -13q-72 21 -153 21q-206 0 -314 -153q-109 -154 -176 -535q-37 -206 -37 -348
q0 -181 69 -261q69 -79 218 -79q87 0 156 24l119 672h-273q-12 0 -10 12l4 21q2 12 14 12zM414 -233l-64 -158q-6 -12 -16 -12h-8q-15 0 -9 14l58 158h-27q-12 0 -10 12l16 92q0 12 15 12h57q10 0 10 -12l-16 -90z" />
    <glyph glyph-name="gcommaaccent" unicode="&#x123;" horiz-adv-x="761" 
d="M754 1057l-168 -955q-33 -182 -115 -263t-233 -81q-122 0 -205 45q-15 7 -13 21l3 12q1 14 16 10q90 -45 194 -45q135 0 208 70q74 71 102 235l32 193q-40 -103 -112 -164q-73 -61 -174 -61q-217 0 -217 295q0 105 20 211q44 244 129 374q86 131 234 131q100 0 154 -61
q55 -63 67 -164l33 197q5 12 16 12h20q13 0 9 -12zM627 580q18 100 18 184q0 278 -192 278q-232 0 -314 -462q-20 -106 -20 -209q0 -254 172 -254q125 0 212 122q86 120 124 341zM666 1303l61 141q1 12 16 12h9q12 0 8 -14l-55 -142h26q15 0 10 -12l-16 -92q0 -12 -14 -12
h-58q-10 0 -10 12l16 90z" />
    <glyph glyph-name="Hcircumflex" unicode="&#x124;" horiz-adv-x="892" 
d="M639 12l123 701h-545l-123 -701q-4 -12 -14 -12h-23q-11 0 -10 12l248 1409q5 13 14 13h23q12 0 10 -13l-117 -663h545l117 663q2 13 14 13h23q15 0 10 -13l-248 -1409q-2 -12 -14 -12h-23q-15 0 -10 12zM776 1540l-112 146l-162 -146q-8 -8 -17 -8h-18q-13 0 -6 12
l168 170q15 15 26 15h25q16 0 22 -15l107 -170q7 -12 -10 -12h-11q-4 0 -12 8z" />
    <glyph glyph-name="hcircumflex" unicode="&#x125;" horiz-adv-x="778" 
d="M721 772l-133 -760q-2 -12 -15 -12h-20q-11 0 -10 12l133 760q10 54 10 96q0 174 -158 174q-115 0 -207 -91q-94 -93 -118 -238l-123 -699q-1 -14 -14 -14h-21q-11 0 -10 12l248 1409q5 13 14 13h20q16 0 11 -13l-95 -532q111 196 297 196q199 0 199 -217q0 -46 -8 -96z
M719 1540l-113 146l-162 -146q-8 -8 -16 -8h-18q-14 0 -7 12l168 170q15 15 27 15h25q16 0 22 -15l107 -170q7 -12 -11 -12h-10q-4 0 -12 8z" />
    <glyph glyph-name="Hbar" unicode="&#x126;" horiz-adv-x="892" 
d="M639 12l123 701h-545l-123 -701q-4 -12 -14 -12h-23q-11 0 -10 12l195 1112h-78q-10 0 -10 11l4 16q2 12 14 12h78l45 258q5 13 14 13h23q12 0 10 -13l-45 -258h545l45 258q2 13 14 13h23q15 0 10 -11l-45 -260h78q11 0 10 -12l-4 -14q-2 -13 -15 -13h-77l-195 -1112
q-2 -12 -14 -12h-23q-15 0 -10 12zM225 758h545l64 366h-545z" />
    <glyph glyph-name="hbar" unicode="&#x127;" horiz-adv-x="778" 
d="M721 774l-133 -762q-2 -12 -15 -12h-20q-11 0 -10 12l133 760q10 54 10 96q0 174 -158 174q-115 0 -207 -91q-94 -93 -118 -238l-123 -701q-2 -12 -14 -12h-21q-11 0 -10 12l213 1213h-74q-15 0 -10 12l2 14q2 13 14 13h74l29 157q5 13 14 13h20q16 0 11 -13l-29 -157
h201q12 0 10 -13l-2 -14q-5 -12 -14 -12h-201l-60 -336q41 79 117 138q76 58 180 58q199 0 199 -217q0 -48 -8 -94z" />
    <glyph glyph-name="Itilde" unicode="&#x128;" horiz-adv-x="319" 
d="M57 12l248 1409q2 13 14 13h23q15 0 10 -13l-248 -1409q-2 -12 -14 -12h-22q-16 0 -11 12zM569 1640q-7 -49 -43 -82q-35 -32 -77 -32q-44 0 -84 37l-52 43q-48 31 -79 13q-32 -19 -44 -56l-4 -17q-6 -14 -18 -14h-10q-12 0 -11 14q7 49 43 85q34 34 78 34q40 0 84 -37
l43 -37q27 -26 60 -26q54 0 69 59l6 16q6 15 17 15h10q13 0 12 -15z" />
    <glyph glyph-name="itilde" unicode="&#x129;" horiz-adv-x="299" 
d="M274 1057l-182 -1045q-2 -12 -14 -12h-21q-11 0 -10 12l182 1045q5 12 17 12h20q12 0 8 -12zM494 1300q-7 -49 -40 -82q-32 -32 -75 -32q-44 0 -84 37l-47 39q-30 24 -55 24q-45 0 -68 -63l-6 -17q-6 -14 -17 -14h-10q-13 0 -12 14q11 51 43 85q33 34 76 34q42 0 82 -37
l43 -37q32 -26 59 -26q25 0 43 19q20 21 25 40l4 16q6 15 18 15h10q13 0 11 -15z" />
    <glyph glyph-name="Imacron" unicode="&#x12a;" horiz-adv-x="319" 
d="M57 12l248 1409q2 13 14 13h23q15 0 10 -13l-248 -1409q-2 -12 -14 -12h-22q-16 0 -11 12zM510 1532h-328q-10 0 -10 12l4 15q0 12 14 12h328q10 0 10 -12l-4 -15q0 -12 -14 -12z" />
    <glyph glyph-name="imacron" unicode="&#x12b;" horiz-adv-x="299" 
d="M274 1057l-182 -1045q-2 -12 -14 -12h-21q-11 0 -10 12l182 1045q5 12 17 12h20q12 0 8 -12zM440 1208h-319q-15 0 -10 13l2 14q1 12 14 12h319q12 0 11 -12l-2 -14q-5 -13 -15 -13z" />
    <glyph glyph-name="Ibreve" unicode="&#x12c;" horiz-adv-x="319" 
d="M57 12l248 1409q2 13 14 13h23q15 0 10 -13l-248 -1409q-2 -12 -14 -12h-22q-16 0 -11 12zM350 1520q-82 0 -124 48t-31 118q0 12 14 12h18q11 0 11 -12q-8 -123 114 -123q121 0 160 123q0 12 14 12h19q10 0 10 -12q-16 -72 -70 -119q-53 -47 -135 -47z" />
    <glyph glyph-name="ibreve" unicode="&#x12d;" horiz-adv-x="299" 
d="M274 1057l-182 -1045q-2 -12 -14 -12h-21q-11 0 -10 12l182 1045q5 12 17 12h20q12 0 8 -12zM283 1188q-81 0 -125 48t-33 118q1 12 14 12h19q14 0 10 -12q-8 -123 115 -123q120 0 159 123q4 12 15 12h18q11 0 10 -12q-17 -74 -68 -119q-53 -47 -134 -47z" />
    <glyph glyph-name="Iogonek" unicode="&#x12e;" horiz-adv-x="319" 
d="M90 0h-20q-144 -90 -144 -188q0 -48 74 -48h47q15 0 10 -12l-2 -12q-4 -14 -12 -16q-21 -7 -51 -7q-115 0 -115 90q0 109 180 209l248 1405q2 13 14 13h23q15 0 10 -13l-248 -1409q-2 -12 -14 -12z" />
    <glyph glyph-name="iogonek" unicode="&#x12f;" horiz-adv-x="299" 
d="M274 1057l-182 -1045q-2 -12 -14 -12h-17q-137 -86 -137 -180q0 -47 68 -47h39q15 0 10 -13l-2 -12q-4 -11 -12 -16q-15 -6 -43 -6q-47 0 -77 21t-30 60q0 117 170 209l182 1041q5 12 17 12h20q12 0 8 -12zM338 1393l-25 -146q-1 -12 -14 -12h-29q-12 0 -10 12l25 146
q1 12 14 12h29q12 0 10 -12z" />
    <glyph glyph-name="Idotaccent" unicode="&#x130;" horiz-adv-x="319" 
d="M57 12l248 1409q2 13 14 13h23q15 0 10 -13l-248 -1409q-2 -12 -14 -12h-22q-16 0 -11 12zM391 1628l-16 -84q0 -12 -15 -12h-28q-10 0 -10 12l16 84q0 12 14 12h29q10 0 10 -12z" />
    <glyph glyph-name="dotlessi" unicode="&#x131;" horiz-adv-x="299" 
d="M274 1057l-182 -1045q-2 -12 -14 -12h-21q-11 0 -10 12l182 1045q5 12 17 12h20q12 0 8 -12z" />
    <glyph glyph-name="IJ" unicode="&#x132;" horiz-adv-x="864" 
d="M57 12l248 1409q2 13 14 13h23q15 0 10 -13l-248 -1409q-2 -12 -14 -12h-22q-16 0 -11 12zM657 285l201 1136q2 13 14 13h23q15 0 10 -13l-200 -1138q-28 -163 -90 -228q-60 -63 -179 -63q-80 0 -129 20q-13 4 -12 19l2 14q1 18 18 12q54 -20 123 -20q96 0 146 53
q49 52 73 195z" />
    <glyph glyph-name="ij" unicode="&#x133;" horiz-adv-x="610" 
d="M274 1057l-182 -1045q-2 -12 -14 -12h-21q-11 0 -10 12l182 1045q5 12 17 12h20q12 0 8 -12zM338 1393l-25 -146q-1 -12 -14 -12h-29q-12 0 -10 12l25 146q1 12 14 12h29q12 0 10 -12zM387 184l154 873q5 12 16 12h21q12 0 8 -12l-154 -875q-18 -103 -51 -146
q-33 -44 -109 -44q-23 0 -39 2q-15 1 -10 18l2 15q1 15 17 10q10 -2 32 -2q52 0 76 35q25 36 37 114zM649 1393l-24 -146q-1 -12 -15 -12h-28q-12 0 -11 12l25 146q2 12 14 12h29q11 0 10 -12z" />
    <glyph glyph-name="Jcircumflex" unicode="&#x134;" horiz-adv-x="544" 
d="M338 285l201 1136q2 13 14 13h22q16 0 11 -13l-201 -1138q-29 -165 -89 -228t-179 -63q-80 0 -129 20q-14 4 -13 19l2 14q2 18 19 12q54 -20 123 -20q95 0 145 53t74 195zM623 1540l-113 146l-162 -146q-8 -8 -16 -8h-19q-13 0 -6 12l168 170q15 15 27 15h24q16 0 23 -15
l106 -170q7 -12 -10 -12h-10q-4 0 -12 8z" />
    <glyph glyph-name="jcircumflex" unicode="&#x135;" horiz-adv-x="311" 
d="M49 -41l193 1098q4 12 16 12h21q13 0 8 -12l-193 -1100q-18 -103 -52 -146q-35 -44 -110 -44q-20 0 -34 2q-17 2 -13 18l2 14q2 11 17 11q5 0 12 -1t21 -1q51 0 74 33t38 116zM422 1200l-107 158l-159 -158q-13 -8 -17 -8h-18q-13 0 -6 12l166 182q15 15 26 15h25
q16 0 22 -15l101 -182q7 -12 -11 -12h-10q-7 0 -12 8z" />
    <glyph glyph-name="Kcommaaccent" unicode="&#x136;" horiz-adv-x="757" 
d="M225 768l596 655q11 11 19 11h37q15 0 4 -15l-625 -682l389 -723q6 -14 -8 -14h-27q-10 0 -16 10l-375 707l-125 -705q-4 -12 -14 -12h-23q-11 0 -10 12l248 1409q5 13 14 13h23q12 0 10 -13zM334 -233l-64 -158q-6 -12 -16 -12h-8q-15 0 -8 14l57 158h-27q-14 0 -10 12
l16 92q0 12 15 12h57q10 0 10 -12l-16 -90z" />
    <glyph glyph-name="kcommaaccent" unicode="&#x137;" horiz-adv-x="643" 
d="M514 0h-14q-19 0 -25 12l-295 572l-100 -572q-2 -12 -14 -12h-21q-11 0 -10 12l248 1409q5 13 14 13h20q16 0 11 -13l-142 -803l447 439q17 12 31 12h26q10 0 11 -6q1 -5 -7 -12l-469 -457l299 -576q10 -18 -10 -18zM268 -233l-61 -142q-1 -12 -17 -12h-8q-12 0 -8 14
l55 142h-26q-15 0 -10 12l16 92q0 12 14 12h58q10 0 10 -12l-17 -90z" />
    <glyph glyph-name="kgreenlandic" unicode="&#x138;" horiz-adv-x="638" 
d="M510 0h-14q-19 0 -25 12l-295 572l-100 -572q-2 -12 -15 -12h-20q-11 0 -10 12l182 1045q5 12 14 12h21q14 0 10 -12l-76 -439l447 439q15 12 30 12h27q10 0 11 -6q1 -5 -7 -12l-469 -457l299 -576q10 -18 -10 -18z" />
    <glyph glyph-name="Lacute" unicode="&#x139;" horiz-adv-x="663" 
d="M342 1421l-244 -1376h416q11 0 10 -14l-2 -19q-2 -12 -14 -12h-451q-11 0 -10 12l248 1409q5 13 14 13h23q12 0 10 -13zM330 1544l137 162q12 16 29 16h32q22 0 4 -18l-167 -164q-6 -8 -17 -8h-14q-12 0 -4 12z" />
    <glyph glyph-name="lacute" unicode="&#x13a;" horiz-adv-x="299" 
d="M340 1421l-248 -1409q-2 -12 -14 -12h-21q-11 0 -10 12l248 1409q5 13 14 13h21q15 0 10 -13zM326 1544l137 162q12 16 29 16h32q22 0 4 -18l-168 -164q-6 -8 -16 -8h-14q-12 0 -4 12z" />
    <glyph glyph-name="Lcommaaccent" unicode="&#x13b;" horiz-adv-x="663" 
d="M342 1421l-244 -1376h416q11 0 10 -14l-2 -19q-2 -12 -14 -12h-451q-11 0 -10 12l248 1409q5 13 14 13h23q12 0 10 -13zM287 -233l-64 -158q-6 -12 -16 -12h-8q-15 0 -9 14l58 158h-27q-11 0 -10 12l16 92q0 12 15 12h57q10 0 10 -12l-16 -90z" />
    <glyph glyph-name="lcommaaccent" unicode="&#x13c;" horiz-adv-x="299" 
d="M340 1421l-248 -1409q-2 -12 -14 -12h-21q-11 0 -10 12l248 1409q5 13 14 13h21q15 0 10 -13zM63 -233l-61 -142q-2 -12 -16 -12h-9q-12 0 -8 14l56 142h-27q-14 0 -10 12l16 92q0 12 14 12h58q10 0 10 -12l-16 -90z" />
    <glyph glyph-name="Lcaron" unicode="&#x13d;" horiz-adv-x="663" 
d="M342 1421l-244 -1376h416q11 0 10 -14l-2 -19q-2 -12 -14 -12h-451q-11 0 -10 12l248 1409q5 13 14 13h23q12 0 10 -13zM596 1335l-70 -170q-2 -12 -16 -12h-8q-12 0 -8 14l63 170h-25q-12 0 -10 13l21 112q2 13 14 13h53q13 0 11 -13l-21 -110q0 -10 -4 -17z" />
    <glyph glyph-name="lcaron" unicode="&#x13e;" horiz-adv-x="368" 
d="M340 1421l-248 -1409q-2 -12 -14 -12h-21q-11 0 -10 12l248 1409q5 13 14 13h21q15 0 10 -13zM514 1335l-70 -170q-2 -12 -16 -12h-8q-12 0 -8 14l63 170h-24q-13 0 -11 13l21 112q2 13 14 13h53q13 0 11 -13l-21 -110q0 -10 -4 -17z" />
    <glyph glyph-name="Ldot" unicode="&#x13f;" horiz-adv-x="663" 
d="M342 1421l-244 -1376h416q11 0 10 -14l-2 -19q-2 -12 -14 -12h-451q-11 0 -10 12l248 1409q5 13 14 13h23q12 0 10 -13zM541 563l18 113q1 12 14 12h54q11 0 10 -12l-19 -113q-4 -12 -14 -12h-53q-15 0 -10 12z" />
    <glyph glyph-name="ldot" unicode="&#x140;" horiz-adv-x="405" 
d="M332 1421l-248 -1409q-2 -12 -14 -12h-21q-11 0 -10 12l248 1409q5 13 14 13h21q15 0 10 -13zM301 477l18 113q5 12 15 12h53q14 0 10 -12l-18 -113q-1 -12 -14 -12h-54q-11 0 -10 12z" />
    <glyph glyph-name="Lslash" unicode="&#x141;" horiz-adv-x="667" 
d="M346 1421l-119 -676l224 117q10 7 14 -6l6 -12q6 -11 -8 -17l-244 -129l-117 -653h416q14 0 10 -12l-2 -21q-2 -12 -14 -12h-451q-11 0 -10 12l115 660l-96 -51q-13 -7 -19 4l-2 14q-7 8 6 16l119 62l125 704q5 13 14 13h23q12 0 10 -13z" />
    <glyph glyph-name="lslash" unicode="&#x142;" horiz-adv-x="307" 
d="M344 1421l-119 -678l97 52q10 7 14 -7l6 -12q6 -10 -8 -16l-117 -62l-121 -686q-2 -12 -14 -12h-21q-11 0 -10 12l115 660l-96 -51q-13 -7 -19 4l-2 14q-7 8 6 16l119 62l125 704q5 13 14 13h21q15 0 10 -13z" />
    <glyph glyph-name="Nacute" unicode="&#x143;" horiz-adv-x="913" 
d="M954 1419l-247 -1407q-1 -12 -15 -12h-20q-12 0 -17 12l-331 1309l-230 -1309q-4 -12 -14 -12h-23q-11 0 -10 12l248 1409q5 13 14 13h21q14 0 16 -13l330 -1308l231 1308q2 13 15 13h22q12 0 10 -15zM618 1544l138 162q12 16 28 16h33q22 0 4 -18l-168 -164
q-6 -8 -16 -8h-14q-13 0 -5 12z" />
    <glyph glyph-name="nacute" unicode="&#x144;" horiz-adv-x="774" 
d="M717 772l-133 -760q-2 -12 -15 -12h-20q-11 0 -10 12l133 760q10 54 10 96q0 174 -158 174q-117 0 -209 -95t-116 -236l-123 -699q-2 -12 -15 -12h-20q-11 0 -10 12l182 1045q5 12 16 12h21q12 0 8 -12l-29 -172q38 78 116 139q79 61 181 61q199 0 199 -217q0 -46 -8 -96
zM508 1204l143 172q12 17 27 17h33q25 0 6 -19l-174 -174q-8 -8 -17 -8h-14q-12 0 -4 12z" />
    <glyph glyph-name="Ncommaaccent" unicode="&#x145;" horiz-adv-x="913" 
d="M954 1419l-247 -1407q-1 -12 -15 -12h-20q-12 0 -17 12l-331 1309l-230 -1309q-4 -12 -14 -12h-23q-11 0 -10 12l248 1409q5 13 14 13h21q14 0 16 -13l330 -1308l231 1308q2 13 15 13h22q12 0 10 -15zM371 -233l-64 -158q-6 -12 -16 -12h-8q-16 0 -9 14l58 158h-27
q-15 0 -10 12l16 92q0 12 15 12h57q10 0 10 -12l-16 -90z" />
    <glyph glyph-name="ncommaaccent" unicode="&#x146;" horiz-adv-x="774" 
d="M717 772l-133 -760q-2 -12 -15 -12h-20q-11 0 -10 12l133 760q10 54 10 96q0 174 -158 174q-117 0 -209 -95t-116 -236l-123 -699q-2 -12 -15 -12h-20q-11 0 -10 12l182 1045q5 12 16 12h21q12 0 8 -12l-29 -172q38 78 116 139q79 61 181 61q199 0 199 -217q0 -46 -8 -96
zM301 -233l-61 -142q-2 -12 -17 -12h-8q-12 0 -8 14l55 142h-26q-16 0 -11 12l17 92q0 12 14 12h57q11 0 11 -12l-17 -90z" />
    <glyph glyph-name="Ncaron" unicode="&#x147;" horiz-adv-x="913" 
d="M954 1419l-247 -1407q-1 -12 -15 -12h-20q-12 0 -17 12l-331 1309l-230 -1309q-4 -12 -14 -12h-23q-11 0 -10 12l248 1409q5 13 14 13h21q14 0 16 -13l330 -1308l231 1308q2 13 15 13h22q12 0 10 -15zM649 1575l162 145q9 9 14 9h19q19 0 6 -13l-166 -170
q-14 -14 -29 -14h-24q-14 0 -21 14l-108 170q-5 13 10 13h10q6 0 15 -9z" />
    <glyph glyph-name="ncaron" unicode="&#x148;" horiz-adv-x="774" 
d="M717 772l-133 -760q-2 -12 -15 -12h-20q-11 0 -10 12l133 760q10 54 10 96q0 174 -158 174q-117 0 -209 -95t-116 -236l-123 -699q-2 -12 -15 -12h-20q-11 0 -10 12l182 1045q5 12 16 12h21q12 0 8 -12l-29 -172q38 78 116 139q79 61 181 61q199 0 199 -217q0 -46 -8 -96
zM539 1235l159 158q13 8 17 8h18q18 0 6 -12l-166 -183q-10 -14 -26 -14h-25q-12 0 -22 14l-101 183q-5 12 11 12h10q7 0 12 -8z" />
    <glyph glyph-name="napostrophe" unicode="&#x149;" horiz-adv-x="827" 
d="M770 772l-133 -760q-1 -12 -14 -12h-21q-12 0 -10 12l133 760q10 54 10 96q0 174 -157 174q-117 0 -209 -95q-93 -96 -117 -236l-123 -699q-1 -12 -14 -12h-21q-12 0 -10 12l182 1045q4 12 17 12h20q13 0 8 -12l-28 -172q38 80 115 139q79 61 182 61q198 0 198 -217
q0 -46 -8 -96zM221 1335l-69 -170q-5 -12 -17 -12h-8q-12 0 -8 14l63 170h-24q-16 0 -11 13l21 112q5 13 14 13h54q15 0 10 -13l-21 -110q0 -10 -4 -17z" />
    <glyph glyph-name="Eng" unicode="&#x14a;" horiz-adv-x="913" 
d="M954 1421l-241 -1366q-29 -163 -84 -228q-56 -65 -160 -65q-65 0 -113 19q-13 4 -12 18l2 15q6 16 21 12q49 -19 104 -19q72 0 117 45q43 43 67 154l-331 1315l-230 -1309q-4 -12 -14 -12h-23q-11 0 -10 12l248 1409q5 13 14 13h21q14 0 16 -13l330 -1308l231 1308
q2 13 15 13h22q15 0 10 -13z" />
    <glyph glyph-name="eng" unicode="&#x14b;" horiz-adv-x="774" 
d="M528 -41l144 813q10 54 10 96q0 174 -158 174q-117 0 -209 -95t-116 -238l-123 -697q-2 -12 -15 -12h-20q-11 0 -10 12l182 1045q5 12 16 12h21q12 0 8 -12l-29 -172q37 75 118 138q80 62 185 62q195 0 195 -213q0 -41 -10 -100l-144 -815q-18 -103 -52 -146
q-35 -44 -109 -44q-23 0 -37 2q-17 2 -13 18l3 14q2 11 14 11q7 0 13 -1t16 -1q55 0 79 28q24 29 41 121z" />
    <glyph glyph-name="Omacron" unicode="&#x14c;" horiz-adv-x="937" 
d="M635 1450q148 0 220 -89q73 -90 73 -292q0 -146 -37 -352q-71 -399 -188 -567q-115 -166 -312 -166q-150 0 -222 89q-73 90 -73 292q0 146 37 352q72 400 189 567q117 166 313 166zM391 27q175 0 280 156q105 155 171 534q39 228 39 356q0 177 -61 256q-60 78 -185 78
q-174 0 -281 -158q-106 -157 -172 -532q-37 -212 -37 -355q0 -176 61 -257q59 -78 185 -78zM819 1532h-327q-11 0 -11 12l4 15q0 12 15 12h327q11 0 11 -12l-4 -15q0 -12 -15 -12z" />
    <glyph glyph-name="omacron" unicode="&#x14d;" horiz-adv-x="753" 
d="M297 -16q161 0 253 134q90 132 142 417q25 147 25 245q0 152 -58 230q-56 75 -180 75q-161 0 -253 -134q-90 -131 -140 -416q-27 -153 -27 -250q0 -151 58 -227q56 -74 180 -74zM299 27q-193 0 -193 260q0 92 27 248q45 259 126 384q80 123 218 123q195 0 195 -262
q0 -92 -27 -245q-46 -261 -128 -385q-81 -123 -218 -123zM668 1208h-320q-12 0 -10 13l2 14q4 12 14 12h320q14 0 10 -12l-2 -14q-2 -13 -14 -13z" />
    <glyph glyph-name="Obreve" unicode="&#x14e;" horiz-adv-x="937" 
d="M635 1450q148 0 220 -89q73 -90 73 -292q0 -146 -37 -352q-71 -399 -188 -567q-115 -166 -312 -166q-150 0 -222 89q-73 90 -73 292q0 146 37 352q72 400 189 567q117 166 313 166zM391 27q175 0 280 156q105 155 171 534q39 228 39 356q0 177 -61 256q-60 78 -185 78
q-174 0 -281 -158q-106 -157 -172 -532q-37 -212 -37 -355q0 -176 61 -257q59 -78 185 -78zM659 1520q-81 0 -123 48q-43 49 -32 118q0 12 14 12h19q10 0 10 -12q-7 -123 115 -123q120 0 159 123q0 12 15 12h18q10 0 10 -12q-17 -73 -69 -119q-53 -47 -136 -47z" />
    <glyph glyph-name="obreve" unicode="&#x14f;" horiz-adv-x="753" 
d="M297 -16q-124 0 -180 74q-58 76 -58 227q0 97 27 250q50 285 140 416q92 134 253 134q124 0 180 -75q58 -78 58 -230q0 -98 -25 -245q-52 -285 -142 -417q-92 -134 -253 -134zM299 27q137 0 218 123q82 124 128 385q27 153 27 245q0 262 -195 262q-138 0 -218 -123
q-81 -125 -126 -384q-27 -156 -27 -248q0 -260 193 -260zM510 1188q-82 0 -125 48q-44 48 -33 118q4 12 15 12h18q11 0 10 -12q-7 -123 115 -123q121 0 160 123q2 12 14 12h18q16 0 11 -12q-17 -73 -69 -119q-53 -47 -134 -47z" />
    <glyph glyph-name="Ohungarumlaut" unicode="&#x150;" horiz-adv-x="937" 
d="M635 1450q148 0 220 -89q73 -90 73 -292q0 -146 -37 -352q-71 -399 -188 -567q-115 -166 -312 -166q-150 0 -222 89q-73 90 -73 292q0 146 37 352q72 400 189 567q117 166 313 166zM391 27q175 0 280 156q105 155 171 534q39 228 39 356q0 177 -61 256q-60 78 -185 78
q-174 0 -281 -158q-106 -157 -172 -532q-37 -212 -37 -355q0 -176 61 -257q59 -78 185 -78zM551 1544l121 160q12 16 28 16h31q22 0 4 -18l-149 -162q-6 -8 -17 -8h-14q-11 0 -4 12zM745 1544l121 160q12 16 29 16h31q22 0 4 -18l-150 -162q-6 -8 -16 -8h-14q-12 0 -5 12z
" />
    <glyph glyph-name="ohungarumlaut" unicode="&#x151;" horiz-adv-x="753" 
d="M297 -16q161 0 253 134q90 132 142 417q25 147 25 245q0 152 -58 230q-56 75 -180 75q-161 0 -253 -134q-90 -131 -140 -416q-27 -153 -27 -250q0 -151 58 -227q56 -74 180 -74zM299 27q-193 0 -193 260q0 92 27 248q45 259 126 384q80 123 218 123q195 0 195 -262
q0 -92 -27 -245q-46 -261 -128 -385q-81 -123 -218 -123zM397 1204l127 172q12 17 27 17h31q25 0 6 -19l-156 -174q-8 -8 -16 -8h-15q-11 0 -4 12zM592 1204l127 172q12 17 26 17h31q25 0 6 -19l-155 -174q-8 -8 -17 -8h-14q-12 0 -4 12z" />
    <glyph glyph-name="OE" unicode="&#x152;" horiz-adv-x="1269" 
d="M1202 713h-424l-119 -668h441q12 0 10 -12l-2 -21q-2 -12 -14 -12h-621q-179 0 -273 96q-96 98 -96 330q0 131 29 291q72 402 214 559q143 158 370 158h624q16 0 11 -13l-4 -20q-4 -12 -15 -12h-436l-111 -631h424q16 0 11 -13l-4 -20q-5 -12 -15 -12zM850 1389h-137
q-133 0 -230 -56t-176 -207q-80 -153 -125 -409q-30 -173 -30 -293q0 -210 82 -295q83 -86 241 -86h137z" />
    <glyph glyph-name="oe" unicode="&#x153;" horiz-adv-x="1228" 
d="M872 27q94 0 172 28q7 2 11 -1q4 -2 2 -9l-2 -12q-4 -16 -17 -21q-81 -28 -170 -28q-133 0 -196 67q-64 68 -68 209q-100 -276 -317 -276q-228 0 -228 299q0 96 27 252q50 283 138 416q89 134 245 134q223 0 227 -276q102 276 312 276q194 0 194 -270q0 -102 -24 -235
l-11 -58q-1 -12 -14 -12h-483q-21 -140 -21 -215q0 -136 53 -203q52 -65 170 -65zM289 27q134 0 213 124q81 127 127 384q26 134 26 247q0 260 -188 260q-131 0 -210 -123t-124 -384q-26 -153 -26 -252q0 -256 182 -256zM1006 1042q-128 0 -205 -120q-78 -122 -123 -369h448
l5 27q26 157 26 241q0 221 -151 221z" />
    <glyph glyph-name="Racute" unicode="&#x154;" horiz-adv-x="835" 
d="M195 582h176q187 0 279 86q91 85 132 317q17 91 17 168q0 133 -69 184q-70 52 -232 52h-162zM309 1434h191q184 0 267 -63t83 -214q0 -67 -19 -172q-39 -226 -124 -326t-256 -118l184 -527q4 -14 -10 -14h-23q-12 0 -16 10l-183 527h-217l-92 -525q-4 -12 -14 -12h-23
q-11 0 -10 12l248 1409q5 13 14 13zM559 1544l137 162q12 16 29 16h33q22 0 4 -18l-168 -164q-6 -8 -16 -8h-15q-11 0 -4 12z" />
    <glyph glyph-name="racute" unicode="&#x155;" horiz-adv-x="466" 
d="M229 1069h21q12 0 8 -12l-33 -189q33 88 113 153q79 64 174 64q18 0 22 -4q5 -5 1 -14l-3 -14q-2 -17 -16 -17q-7 0 -15 1t-16 1q-90 0 -177 -97q-86 -96 -113 -249l-119 -680q-2 -12 -15 -12h-20q-11 0 -10 12l182 1045q5 12 16 12zM334 1204l143 172q12 17 27 17h33
q25 0 6 -19l-174 -174q-8 -8 -17 -8h-14q-12 0 -4 12z" />
    <glyph glyph-name="Rcommaaccent" unicode="&#x156;" horiz-adv-x="835" 
d="M309 1434h191q184 0 267 -63t83 -214q0 -67 -19 -172q-39 -226 -124 -326t-256 -118l184 -527q4 -14 -10 -14h-23q-12 0 -16 10l-183 527h-217l-92 -525q-4 -12 -14 -12h-23q-11 0 -10 12l248 1409q5 13 14 13zM195 582h176q187 0 279 86q91 85 132 317q17 91 17 168
q0 133 -69 184q-70 52 -232 52h-162zM332 -233l-64 -158q-6 -12 -16 -12h-8q-14 0 -8 14l57 158h-27q-12 0 -10 12l16 92q0 12 15 12h57q10 0 10 -12l-16 -90z" />
    <glyph glyph-name="rcommaaccent" unicode="&#x157;" horiz-adv-x="466" 
d="M229 1069h21q12 0 8 -12l-33 -189q33 88 113 153q79 64 174 64q18 0 22 -4q5 -5 1 -14l-3 -14q-2 -17 -16 -17q-7 0 -15 1t-16 1q-90 0 -177 -97q-86 -96 -113 -249l-119 -680q-2 -12 -15 -12h-20q-11 0 -10 12l182 1045q5 12 16 12zM47 -233l-61 -142q-2 -12 -17 -12h-8
q-12 0 -8 14l55 142h-26q-15 0 -11 12l17 92q0 12 14 12h57q11 0 11 -12l-17 -90z" />
    <glyph glyph-name="Rcaron" unicode="&#x158;" horiz-adv-x="835" 
d="M195 582h176q187 0 279 86q91 85 132 317q17 91 17 168q0 133 -69 184q-70 52 -232 52h-162zM309 1434h191q184 0 267 -63t83 -214q0 -67 -19 -172q-39 -226 -124 -326t-256 -118l184 -527q4 -14 -10 -14h-23q-12 0 -16 10l-183 527h-217l-92 -525q-4 -12 -14 -12h-23
q-11 0 -10 12l248 1409q5 13 14 13zM610 1575l162 145q9 9 14 9h19q19 0 6 -13l-166 -170q-14 -14 -29 -14h-24q-15 0 -21 14l-108 170q-5 13 10 13h10q6 0 15 -9z" />
    <glyph glyph-name="rcaron" unicode="&#x159;" horiz-adv-x="466" 
d="M229 1069h21q12 0 8 -12l-33 -189q33 88 113 153q79 64 174 64q18 0 22 -4q5 -5 1 -14l-3 -14q-2 -17 -16 -17q-7 0 -15 1t-16 1q-90 0 -177 -97q-86 -96 -113 -249l-119 -680q-2 -12 -15 -12h-20q-11 0 -10 12l182 1045q5 12 16 12zM365 1235l159 158q13 8 17 8h18
q18 0 6 -12l-166 -183q-10 -14 -26 -14h-25q-12 0 -22 14l-101 183q-5 12 11 12h10q7 0 12 -8z" />
    <glyph glyph-name="Sacute" unicode="&#x15a;" horiz-adv-x="679" 
d="M580 395q0 -177 -97 -297q-96 -118 -278 -118q-109 0 -193 22q-13 4 -12 18l2 15q4 17 21 12q75 -22 184 -22q155 0 239 100q84 101 84 264q0 72 -27 136q-26 62 -60 104q-28 34 -89 94q-172 168 -172 338q0 168 91 278q91 111 264 111q91 0 165 -23q14 -4 13 -18l-2 -14
q-2 -19 -19 -13q-80 23 -162 23q-147 0 -225 -94q-78 -95 -78 -250q0 -93 40 -160q41 -69 116 -139q91 -85 143 -169t52 -198zM502 1544l137 162q12 16 29 16h32q23 0 5 -18l-168 -164q-6 -8 -17 -8h-14q-12 0 -4 12z" />
    <glyph glyph-name="sacute" unicode="&#x15b;" horiz-adv-x="610" 
d="M520 324q0 -141 -89 -241q-89 -99 -236 -99q-123 0 -199 30q-16 6 -12 21l4 12q4 14 16 10q86 -30 193 -30q116 0 196 83t80 209q0 27 -4 46q-5 23 -15 38t-20 31q-6 10 -30 32q-27 25 -31 28l-14 10q-14 11 -26 19t-25.5 18.5t-14.5 11.5q-77 59 -122 117
q-40 52 -40 127q0 130 85 209t222 79q82 0 156 -20q13 -4 12 -18l-2 -13q-2 -17 -20 -12q-63 20 -148 20q-111 0 -185 -67q-75 -67 -75 -180q0 -12 2 -30q1 -12 8 -27q2 -5 6 -12t5 -11q6 -14 15 -24q11 -13 16 -19q2 -3 22 -21q17 -15 23 -19l28 -22q23 -18 27 -22
q9 -7 41 -32q30 -24 42 -33q4 -3 33 -30q24 -22 32 -36q3 -4 10.5 -16.5t12.5 -20.5q12 -20 17 -46q4 -21 4 -50zM406 1204l143 172q12 17 26 17h33q25 0 6 -19l-174 -174q-8 -8 -16 -8h-14q-12 0 -4 12z" />
    <glyph glyph-name="Scircumflex" unicode="&#x15c;" horiz-adv-x="679" 
d="M580 395q0 -177 -97 -297q-96 -118 -278 -118q-109 0 -193 22q-13 4 -12 18l2 15q4 17 21 12q75 -22 184 -22q155 0 239 100q84 101 84 264q0 72 -27 136q-26 62 -60 104q-28 34 -89 94q-172 168 -172 338q0 168 91 278q91 111 264 111q91 0 165 -23q14 -4 13 -18l-2 -14
q-2 -19 -19 -13q-80 23 -162 23q-147 0 -225 -94q-78 -95 -78 -250q0 -93 40 -160q41 -69 116 -139q91 -85 143 -169t52 -198zM682 1540l-113 146l-161 -146q-8 -8 -17 -8h-18q-13 0 -6 12l168 170q15 15 26 15h25q16 0 22 -15l107 -170q7 -12 -10 -12h-11q-4 0 -12 8z" />
    <glyph glyph-name="scircumflex" unicode="&#x15d;" horiz-adv-x="610" 
d="M520 324q0 -141 -89 -241q-89 -99 -236 -99q-123 0 -199 30q-16 6 -12 21l4 12q4 14 16 10q86 -30 193 -30q116 0 196 83t80 209q0 27 -4 46q-5 23 -15 38t-20 31q-6 10 -30 32q-27 25 -31 28l-14 10q-14 11 -26 19t-25.5 18.5t-14.5 11.5q-77 59 -122 117
q-40 52 -40 127q0 130 85 209t222 79q82 0 156 -20q13 -4 12 -18l-2 -13q-2 -17 -20 -12q-63 20 -148 20q-111 0 -185 -67q-75 -67 -75 -180q0 -12 2 -30q1 -12 8 -27q2 -5 6 -12t5 -11q6 -14 15 -24q11 -13 16 -19q2 -3 22 -21q17 -15 23 -19l28 -22q23 -18 27 -22
q9 -7 41 -32q30 -24 42 -33q4 -3 33 -30q24 -22 32 -36q3 -4 10.5 -16.5t12.5 -20.5q12 -20 17 -46q4 -21 4 -50zM571 1200l-106 158l-160 -158q-13 -8 -16 -8h-19q-13 0 -6 12l166 182q15 15 27 15h24q15 0 23 -15l100 -182q8 -12 -10 -12h-10q-8 0 -13 8z" />
    <glyph glyph-name="Scedilla" unicode="&#x15e;" horiz-adv-x="679" 
d="M580 395q0 -149 -68 -259q-67 -109 -199 -142q76 -63 76 -146q0 -63 -37 -97t-102 -34q-46 0 -60 7q-10 5 -8 16l2 12q4 12 15 12h47q98 0 98 89q0 70 -68 133q-34 -6 -71 -6q-109 0 -193 22q-13 4 -12 18l2 15q4 17 21 12q75 -22 184 -22q155 0 239 100q84 101 84 264
q0 72 -27 136q-26 62 -60 104q-28 34 -89 94q-172 168 -172 338q0 168 91 278q91 111 264 111q91 0 165 -23q14 -4 13 -18l-2 -14q-2 -19 -19 -13q-80 23 -162 23q-147 0 -225 -94q-78 -95 -78 -250q0 -93 40 -160q41 -69 116 -139q91 -85 143 -169t52 -198z" />
    <glyph glyph-name="scedilla" unicode="&#x15f;" horiz-adv-x="610" 
d="M520 324q0 -132 -78 -228q-77 -95 -209 -110q64 -62 64 -136q0 -56 -36 -91q-34 -33 -95 -33q-38 0 -53 6q-11 5 -7 16l3 12q2 13 14 13h39q38 0 62 20q26 21 26 62q0 67 -62 129q-126 1 -192 30q-16 6 -12 21l4 12q4 14 16 10q86 -30 193 -30q116 0 196 83t80 209
q0 27 -4 46q-5 23 -15 38t-20 31q-6 10 -30 32q-27 25 -31 28l-14 10q-14 11 -26 19t-25.5 18.5t-14.5 11.5q-77 59 -122 117q-40 52 -40 127q0 130 85 209t222 79q82 0 156 -20q13 -4 12 -18l-2 -13q-2 -17 -20 -12q-63 20 -148 20q-111 0 -185 -67q-75 -67 -75 -180
q0 -12 2 -30q1 -12 8 -27q2 -5 6 -12t5 -11q6 -14 15 -24q11 -13 16 -19q2 -3 22 -21q17 -15 23 -19l28 -22q23 -18 27 -22q9 -7 41 -32q30 -24 42 -33q4 -3 33 -30q24 -22 32 -36q3 -4 10.5 -16.5t12.5 -20.5q12 -20 17 -46q4 -21 4 -50z" />
    <glyph glyph-name="Scaron" unicode="&#x160;" horiz-adv-x="679" 
d="M580 395q0 -177 -97 -297q-96 -118 -278 -118q-109 0 -193 22q-13 4 -12 18l2 15q4 17 21 12q75 -22 184 -22q155 0 239 100q84 101 84 264q0 72 -27 136q-26 62 -60 104q-28 34 -89 94q-172 168 -172 338q0 168 91 278q91 111 264 111q91 0 165 -23q14 -4 13 -18l-2 -14
q-2 -19 -19 -13q-80 23 -162 23q-147 0 -225 -94q-78 -95 -78 -250q0 -93 40 -160q41 -69 116 -139q91 -85 143 -169t52 -198zM553 1575l162 145q9 9 14 9h19q19 0 6 -13l-166 -170q-14 -14 -29 -14h-24q-15 0 -21 14l-108 170q-5 13 10 13h10q5 0 14 -9z" />
    <glyph glyph-name="scaron" unicode="&#x161;" horiz-adv-x="610" 
d="M520 324q0 -141 -89 -241q-89 -99 -236 -99q-123 0 -199 30q-16 6 -12 21l4 12q4 14 16 10q86 -30 193 -30q116 0 196 83t80 209q0 27 -4 46q-5 23 -15 38t-20 31q-6 10 -30 32q-27 25 -31 28l-14 10q-14 11 -26 19t-25.5 18.5t-14.5 11.5q-77 59 -122 117
q-40 52 -40 127q0 130 85 209t222 79q82 0 156 -20q13 -4 12 -18l-2 -13q-2 -17 -20 -12q-63 20 -148 20q-111 0 -185 -67q-75 -67 -75 -180q0 -12 2 -30q1 -12 8 -27q2 -5 6 -12t5 -11q6 -14 15 -24q11 -13 16 -19q2 -3 22 -21q17 -15 23 -19l28 -22q23 -18 27 -22
q9 -7 41 -32q30 -24 42 -33q4 -3 33 -30q24 -22 32 -36q3 -4 10.5 -16.5t12.5 -20.5q12 -20 17 -46q4 -21 4 -50zM436 1235l160 158q13 8 16 8h19q18 0 6 -12l-166 -183q-10 -14 -27 -14h-24q-13 0 -23 14l-100 183q-5 12 10 12h10q8 0 13 -8z" />
    <glyph glyph-name="Tcommaaccent" unicode="&#x162;" horiz-adv-x="661" 
d="M213 1401l4 20q5 13 16 13h537q12 0 10 -13l-4 -20q-2 -12 -14 -12h-246l-242 -1377q-4 -12 -14 -12h-22q-12 0 -11 12l242 1377h-246q-15 0 -10 12zM244 -233l-64 -158q-6 -12 -16 -12h-8q-16 0 -9 14l58 158h-27q-14 0 -10 12l16 92q0 12 15 12h57q10 0 10 -12l-16 -90
z" />
    <glyph glyph-name="tcommaaccent" unicode="&#x163;" horiz-adv-x="491" 
d="M508 1026h-193l-139 -782q-10 -49 -10 -103q0 -60 24 -84t80 -24q33 0 66 6q6 2 10 -1q4 -2 2 -9l-2 -13q-5 -19 -18 -20q-27 -6 -60 -6q-72 0 -110 32q-37 31 -37 115q0 40 10 103l139 786h-118q-12 0 -11 12l2 19q4 12 17 12h119l45 266q5 13 16 13h20q14 0 9 -13
l-45 -266h192q12 0 8 -12l-2 -19q-2 -12 -14 -12zM201 -233l-62 -142q-5 -12 -16 -12h-8q-13 0 -9 14l56 142h-27q-11 0 -10 12l16 92q0 12 15 12h57q10 0 10 -12l-16 -90z" />
    <glyph glyph-name="Tcaron" unicode="&#x164;" horiz-adv-x="661" 
d="M213 1401l4 20q5 13 16 13h537q12 0 10 -13l-4 -20q-2 -12 -14 -12h-246l-242 -1377q-4 -12 -14 -12h-22q-12 0 -11 12l242 1377h-246q-15 0 -10 12zM522 1575l162 145q9 9 14 9h19q19 0 6 -13l-166 -170q-14 -14 -29 -14h-24q-14 0 -21 14l-108 170q-5 13 10 13h10
q6 0 15 -9z" />
    <glyph glyph-name="tcaron" unicode="&#x165;" horiz-adv-x="561" 
d="M512 1026h-193l-139 -782q-10 -49 -10 -103q0 -59 25 -84q24 -24 79 -24q33 0 66 6q7 3 10 0.5t2 -10.5l-2 -13q-5 -19 -18 -20q-28 -6 -60 -6q-72 0 -110 32q-37 31 -37 115q0 40 10 103l139 786h-118q-12 0 -11 12l2 19q5 12 17 12h119l45 266q5 13 16 13h21
q13 0 8 -13l-45 -266h192q12 0 8 -12l-2 -19q-2 -12 -14 -12zM707 1335l-70 -170q-1 -12 -16 -12h-9q-12 0 -8 14l64 170h-25q-12 0 -10 13l20 112q2 13 15 13h53q12 0 10 -13l-20 -110q0 -10 -4 -17z" />
    <glyph glyph-name="Tbar" unicode="&#x166;" horiz-adv-x="661" 
d="M213 1401l4 20q5 13 14 13h539q12 0 10 -13l-4 -20q-2 -12 -14 -12h-246l-110 -633h147q10 0 10 -13l-4 -14q0 -12 -14 -12h-148l-123 -705q-4 -12 -14 -12h-22q-12 0 -11 12l123 705h-149q-11 5 -11 12l5 14q0 13 14 13h149l111 633h-246q-15 0 -10 12z" />
    <glyph glyph-name="tbar" unicode="&#x167;" horiz-adv-x="491" 
d="M508 1026h-193l-75 -432h176q10 0 10 -12l-4 -15q0 -12 -14 -12h-177l-55 -311q-10 -49 -10 -103q0 -60 24 -84t80 -24q33 0 66 6q6 2 10 -1q4 -2 2 -9l-2 -13q-5 -19 -18 -20q-27 -6 -60 -6q-72 0 -110 32q-37 31 -37 115q0 40 10 103l55 315h-118q-11 0 -11 12l4 15
q0 12 15 12h119l75 432h-118q-12 0 -11 12l2 19q4 12 17 12h119l45 266q5 13 16 13h20q14 0 9 -13l-45 -266h192q12 0 8 -12l-2 -19q-2 -12 -14 -12z" />
    <glyph glyph-name="Utilde" unicode="&#x168;" horiz-adv-x="880" 
d="M362 -16q-140 0 -205 60t-65 198q0 62 17 164l180 1015q2 13 14 13h23q15 0 10 -13l-178 -1011q-19 -104 -19 -170q0 -115 52 -164t171 -49q154 0 229 86q73 83 111 297l179 1011q5 13 14 13h23q12 0 10 -13l-180 -1015q-41 -233 -126 -327q-86 -95 -260 -95zM850 1640
q-7 -49 -43 -82q-35 -32 -78 -32q-44 0 -84 37l-51 43q-48 31 -79 13q-32 -19 -44 -56l-4 -17q-6 -14 -18 -14h-11q-11 0 -10 14q7 49 43 85q34 34 78 34q40 0 84 -37l43 -37q27 -26 59 -26q55 0 70 59l6 16q6 15 16 15h11q14 0 12 -15z" />
    <glyph glyph-name="utilde" unicode="&#x169;" horiz-adv-x="765" 
d="M82 313l131 744q5 12 16 12h21q12 0 8 -12l-131 -744q-10 -54 -10 -98q0 -188 168 -188q115 0 197 97q83 98 110 241l121 692q5 12 16 12h21q12 0 8 -12l-183 -1045q-1 -12 -14 -12h-20q-13 0 -11 12l29 172q-30 -80 -102 -140t-176 -60q-209 0 -209 229q0 46 10 100z
M727 1300q-7 -49 -40 -82q-32 -32 -75 -32q-44 0 -84 37l-47 39q-30 24 -55 24q-45 0 -68 -63l-6 -17q-6 -14 -16 -14h-10q-14 0 -13 14q11 51 43 85q33 34 76 34q42 0 82 -37l43 -37q32 -26 59 -26q25 0 43 19q20 21 25 40l4 16q6 15 19 15h10q11 0 10 -15z" />
    <glyph glyph-name="Umacron" unicode="&#x16a;" horiz-adv-x="880" 
d="M362 -16q-140 0 -205 60t-65 198q0 62 17 164l180 1015q2 13 14 13h23q15 0 10 -13l-178 -1011q-19 -104 -19 -170q0 -115 52 -164t171 -49q154 0 229 86q73 83 111 297l179 1011q5 13 14 13h23q12 0 10 -13l-180 -1015q-41 -233 -126 -327q-86 -95 -260 -95zM791 1532
h-328q-10 0 -10 12l4 15q0 12 14 12h328q10 0 10 -12l-4 -15q0 -12 -14 -12z" />
    <glyph glyph-name="umacron" unicode="&#x16b;" horiz-adv-x="765" 
d="M82 313l131 744q5 12 16 12h21q12 0 8 -12l-131 -744q-10 -54 -10 -98q0 -188 168 -188q115 0 197 97q83 98 110 241l121 692q5 12 16 12h21q12 0 8 -12l-183 -1045q-1 -12 -14 -12h-20q-13 0 -11 12l29 172q-30 -80 -102 -140t-176 -60q-209 0 -209 229q0 46 10 100z
M674 1208h-320q-15 0 -10 13l2 14q2 12 14 12h320q12 0 10 -12l-2 -14q-5 -13 -14 -13z" />
    <glyph glyph-name="Ubreve" unicode="&#x16c;" horiz-adv-x="880" 
d="M362 -16q-140 0 -205 60t-65 198q0 62 17 164l180 1015q2 13 14 13h23q15 0 10 -13l-178 -1011q-19 -104 -19 -170q0 -115 52 -164t171 -49q154 0 229 86q73 83 111 297l179 1011q5 13 14 13h23q12 0 10 -13l-180 -1015q-41 -233 -126 -327q-86 -95 -260 -95zM631 1520
q-82 0 -124 48q-43 49 -32 118q0 12 14 12h19q10 0 10 -12q-8 -123 115 -123q121 0 160 123q0 12 14 12h18q11 0 11 -12q-16 -72 -70 -119q-53 -47 -135 -47z" />
    <glyph glyph-name="ubreve" unicode="&#x16d;" horiz-adv-x="765" 
d="M82 313l131 744q5 12 16 12h21q12 0 8 -12l-131 -744q-10 -54 -10 -98q0 -188 168 -188q115 0 197 97q83 98 110 241l121 692q5 12 16 12h21q12 0 8 -12l-183 -1045q-1 -12 -14 -12h-20q-13 0 -11 12l29 172q-30 -80 -102 -140t-176 -60q-209 0 -209 229q0 46 10 100z
M516 1188q-82 0 -125 48q-44 48 -33 118q2 12 15 12h18q15 0 10 -12q-7 -123 115 -123q121 0 160 123q4 12 14 12h19q11 0 10 -12q-17 -73 -69 -119q-53 -47 -134 -47z" />
    <glyph glyph-name="Uring" unicode="&#x16e;" horiz-adv-x="880" 
d="M362 -16q-140 0 -205 60t-65 198q0 62 17 164l180 1015q2 13 14 13h23q15 0 10 -13l-178 -1011q-19 -104 -19 -170q0 -115 52 -164t171 -49q154 0 229 86q73 83 111 297l179 1011q5 13 14 13h23q12 0 10 -13l-180 -1015q-41 -233 -126 -327q-86 -95 -260 -95zM672 1780
q-57 0 -97 -38q-38 -37 -38 -97q0 -86 96 -86q56 0 94 38q39 39 39 99q0 84 -94 84zM496 1645q0 74 49 123q51 51 127 51q63 0 100 -34t37 -89q0 -76 -50 -126t-128 -50q-65 0 -100 34t-35 91z" />
    <glyph glyph-name="uring" unicode="&#x16f;" horiz-adv-x="765" 
d="M82 313l131 744q5 12 16 12h21q12 0 8 -12l-131 -744q-10 -54 -10 -98q0 -188 168 -188q115 0 197 97q83 98 110 241l121 692q5 12 16 12h21q12 0 8 -12l-183 -1045q-1 -12 -14 -12h-20q-13 0 -11 12l29 172q-30 -80 -102 -140t-176 -60q-209 0 -209 229q0 46 10 100z
M514 1210q54 0 92 37q39 37 39 96q0 84 -92 84q-57 0 -94 -36q-39 -37 -39 -99q0 -82 94 -82zM557 1466q63 0 96 -32q35 -33 35 -88q0 -76 -49 -125q-50 -50 -129 -50q-61 0 -97 33t-36 84q0 74 49 126t131 52z" />
    <glyph glyph-name="Uhungarumlaut" unicode="&#x170;" horiz-adv-x="880" 
d="M362 -16q-140 0 -205 60t-65 198q0 62 17 164l180 1015q2 13 14 13h23q15 0 10 -13l-178 -1011q-19 -104 -19 -170q0 -115 52 -164t171 -49q154 0 229 86q73 83 111 297l179 1011q5 13 14 13h23q12 0 10 -13l-180 -1015q-41 -233 -126 -327q-86 -95 -260 -95zM514 1544
l121 160q12 16 29 16h30q22 0 4 -18l-149 -162q-6 -8 -17 -8h-14q-11 0 -4 12zM709 1544l120 160q12 16 29 16h31q22 0 4 -18l-150 -162q-6 -8 -16 -8h-14q-11 0 -4 12z" />
    <glyph glyph-name="uhungarumlaut" unicode="&#x171;" horiz-adv-x="765" 
d="M82 313l131 744q5 12 16 12h21q12 0 8 -12l-131 -744q-10 -54 -10 -98q0 -188 168 -188q115 0 197 97q83 98 110 241l121 692q5 12 16 12h21q12 0 8 -12l-183 -1045q-1 -12 -14 -12h-20q-13 0 -11 12l29 172q-30 -80 -102 -140t-176 -60q-209 0 -209 229q0 46 10 100z
M395 1204l127 172q12 17 27 17h31q25 0 6 -19l-156 -174q-8 -8 -16 -8h-15q-11 0 -4 12zM590 1204l127 172q12 17 26 17h31q25 0 6 -19l-155 -174q-8 -8 -17 -8h-14q-12 0 -4 12z" />
    <glyph glyph-name="Uogonek" unicode="&#x172;" horiz-adv-x="880" 
d="M362 -16q-140 0 -205 60t-65 198q0 62 17 164l180 1015q2 13 14 13h23q15 0 10 -13l-178 -1011q-19 -104 -19 -170q0 -115 52 -164t171 -49q154 0 229 86q73 83 111 297l179 1011q5 13 14 13h23q12 0 10 -13l-180 -1015q-38 -205 -105 -300t-197 -116q-127 -84 -127 -178
q0 -48 74 -48h47q15 0 11 -12l-2 -12q-4 -14 -13 -16q-21 -7 -51 -7q-115 0 -115 90q0 95 125 179q-14 -2 -33 -2z" />
    <glyph glyph-name="uogonek" unicode="&#x173;" horiz-adv-x="765" 
d="M82 313l131 744q5 12 16 12h21q12 0 8 -12l-131 -744q-10 -54 -10 -98q0 -188 168 -188q115 0 197 97q83 98 110 241l121 692q5 12 16 12h21q12 0 8 -12l-183 -1045q-1 -12 -14 -12h-16q-137 -84 -137 -180q0 -47 67 -47h39q15 0 10 -13l-2 -12q-4 -11 -12 -16
q-15 -6 -43 -6q-47 0 -77 21t-30 60q0 120 170 209l29 168q-30 -80 -102 -140t-176 -60q-209 0 -209 229q0 46 10 100z" />
    <glyph glyph-name="Wcircumflex" unicode="&#x174;" horiz-adv-x="1302" 
d="M811 1434h20q13 0 13 -13l20 -956l2 -381h8l136 381l348 956q6 13 16 13h25q14 0 8 -15l-516 -1407q-6 -12 -19 -12h-32q-15 0 -15 12l-18 989l-4 322h-4l-115 -322l-367 -989q-5 -12 -18 -12h-33q-14 0 -14 12l-21 1407q0 15 13 15h22q15 0 15 -13l12 -956v-383h8
l137 383l357 956q5 13 16 13zM981 1540l-113 146l-161 -146q-8 -8 -17 -8h-18q-14 0 -6 12l168 170q15 15 26 15h25q16 0 22 -15l107 -170q8 -12 -10 -12h-11q-4 0 -12 8z" />
    <glyph glyph-name="wcircumflex" unicode="&#x175;" horiz-adv-x="1040" 
d="M614 1069h25q11 0 12 -10l15 -740v-239h4l88 239l274 738q6 12 21 12h20q12 0 6 -14l-395 -1043q-6 -12 -18 -12h-21q-14 0 -14 12l-19 719v250h-4l-90 -250l-272 -719q-6 -12 -19 -12h-20q-14 0 -14 12l-27 1043q0 14 14 14h21q12 0 12 -12l12 -738l2 -239h4l86 239
l281 740q1 10 16 10zM786 1200l-106 158l-160 -158q-13 -8 -16 -8h-19q-13 0 -6 12l166 182q15 15 27 15h24q17 0 23 -15l100 -182q7 -12 -10 -12h-10q-8 0 -13 8z" />
    <glyph glyph-name="Ycircumflex" unicode="&#x176;" horiz-adv-x="829" 
d="M457 569l-99 -557q-2 -12 -14 -12h-22q-16 0 -11 12l99 557l-183 850q-4 15 13 15h22q12 0 12 -11l121 -565l43 -231h6l125 231l322 565q6 11 16 11h23q12 0 8 -15zM743 1540l-112 146l-162 -146q-8 -8 -16 -8h-19q-14 0 -6 12l168 170q15 15 27 15h24q17 0 23 -15
l106 -170q8 -12 -10 -12h-10q-5 0 -13 8z" />
    <glyph glyph-name="ycircumflex" unicode="&#x177;" horiz-adv-x="679" 
d="M731 1055l-434 -1037q-55 -132 -111 -196q-52 -60 -147 -60q-40 0 -84 13q-14 4 -10 20l2 12q2 15 18 11q47 -13 84 -13q86 0 140 89q55 90 49 149l-80 1012q0 14 14 14h23q12 0 12 -12l59 -750l10 -217h5l88 217l313 750q6 12 20 12h23q12 0 6 -14zM606 1200l-106 158
l-160 -158q-13 -8 -16 -8h-19q-13 0 -6 12l166 182q15 15 27 15h24q17 0 23 -15l100 -182q7 -12 -10 -12h-11q-7 0 -12 8z" />
    <glyph glyph-name="Ydieresis" unicode="&#x178;" horiz-adv-x="829" 
d="M457 569l-99 -557q-2 -12 -14 -12h-22q-16 0 -11 12l99 557l-183 850q-4 15 13 15h22q12 0 12 -11l121 -565l43 -231h6l125 231l322 565q6 11 16 11h23q12 0 8 -15zM526 1628l-16 -84q0 -12 -14 -12h-29q-10 0 -10 12l16 84q0 12 14 12h29q10 0 10 -12zM764 1628l-16 -84
q0 -12 -15 -12h-28q-11 0 -11 12l17 84q0 12 14 12h29q10 0 10 -12z" />
    <glyph glyph-name="Zacute" unicode="&#x179;" horiz-adv-x="729" 
d="M-6 12l2 21l8 14l760 1342h-494q-12 0 -10 12l4 20q2 13 15 13h534q15 0 10 -13l-4 -18q0 -5 -3 -9t-3 -8l-760 -1341h518q15 0 11 -12l-2 -21q-2 -12 -15 -12h-561q-12 0 -10 12zM514 1544l137 162q12 16 29 16h33q22 0 4 -18l-168 -164q-6 -8 -17 -8h-14q-11 0 -4 12z
" />
    <glyph glyph-name="zacute" unicode="&#x17a;" horiz-adv-x="671" 
d="M680 1057l-2 -15q0 -4 -6 -16l-617 -983h451q14 0 10 -12l-2 -19q-2 -12 -14 -12h-492q-12 0 -10 12l2 13q0 4 6 16l617 985h-422q-13 0 -11 12l3 19q5 12 16 12h463q12 0 8 -12zM436 1204l144 172q12 17 26 17h33q25 0 6 -19l-174 -174q-8 -8 -16 -8h-15q-12 0 -4 12z
" />
    <glyph glyph-name="Zdotaccent" unicode="&#x17b;" horiz-adv-x="729" 
d="M-6 12l2 21l8 14l760 1342h-494q-12 0 -10 12l4 20q2 13 15 13h534q15 0 10 -13l-4 -18q0 -5 -3 -9t-3 -8l-760 -1341h518q15 0 11 -12l-2 -21q-2 -12 -15 -12h-561q-12 0 -10 12zM608 1628l-16 -84q0 -12 -14 -12h-29q-10 0 -10 12l16 84q0 12 14 12h29q10 0 10 -12z
" />
    <glyph glyph-name="zdotaccent" unicode="&#x17c;" horiz-adv-x="671" 
d="M680 1057l-2 -15q0 -4 -6 -16l-617 -983h451q14 0 10 -12l-2 -19q-2 -12 -14 -12h-492q-12 0 -10 12l2 13q0 4 6 16l617 985h-422q-13 0 -11 12l3 19q5 12 16 12h463q12 0 8 -12zM506 1288l-14 -84q-4 -12 -15 -12h-28q-15 0 -11 12l15 84q1 12 14 12h29q12 0 10 -12z
" />
    <glyph glyph-name="Zcaron" unicode="&#x17d;" horiz-adv-x="729" 
d="M-6 12l2 21l8 14l760 1342h-494q-12 0 -10 12l4 20q2 13 15 13h534q15 0 10 -13l-4 -18q0 -5 -3 -9t-3 -8l-760 -1341h518q15 0 11 -12l-2 -21q-2 -12 -15 -12h-561q-12 0 -10 12zM588 1575l162 145q9 9 14 9h18q19 0 6 -13l-165 -170q-14 -14 -29 -14h-25q-13 0 -20 14
l-109 170q-5 13 11 13h10q5 0 14 -9z" />
    <glyph glyph-name="zcaron" unicode="&#x17e;" horiz-adv-x="671" 
d="M680 1057l-2 -15q0 -4 -6 -16l-617 -983h451q14 0 10 -12l-2 -19q-2 -12 -14 -12h-492q-12 0 -10 12l2 13q0 4 6 16l617 985h-422q-13 0 -11 12l3 19q5 12 16 12h463q12 0 8 -12zM467 1235l160 158q13 8 16 8h18q19 0 7 -12l-166 -183q-10 -14 -27 -14h-24q-13 0 -23 14
l-100 183q-5 12 10 12h10q7 0 12 -8z" />
    <glyph glyph-name="longs" unicode="&#x17f;" horiz-adv-x="454" 
d="M346 1155l-201 -1143q-1 -12 -14 -12h-20q-13 0 -11 12l179 1014h-123q-12 0 -11 12l2 19q5 12 17 12h123l16 94q27 155 72 217t149 62q33 0 58 -4q12 -2 12 -21l-2 -10q-4 -17 -21 -12q-21 4 -45 4q-86 0 -120 -52q-37 -56 -60 -192z" />
    <glyph glyph-name="florin" unicode="&#x192;" horiz-adv-x="942" 
d="M651 1155l-108 -352h192q14 0 8 -15l-6 -16q-6 -12 -14 -12h-195l-237 -776q-35 -118 -87 -168q-52 -49 -145 -49q-40 0 -65 4q-14 1 -8 20l2 10q6 14 22 13q15 -4 51 -4q76 0 112 39q38 41 71 143l237 768h-121q-16 0 -10 14l8 17q2 12 15 12h121l112 360
q46 151 105 216q57 63 161 63q46 0 76 -8q13 -5 8 -17l-6 -12q-4 -16 -22 -12q-24 6 -58 6q-86 0 -130 -53q-43 -52 -89 -191z" />
    <glyph glyph-name="Aringacute" unicode="&#x1fa;" horiz-adv-x="876" 
d="M471 1522q0 62 34 106q35 45 91 60l121 143q12 16 28 16h33q22 0 4 -18l-137 -133h2q64 0 101 -34q36 -33 36 -89q0 -69 -40 -116q-40 -48 -105 -58l102 -1385q0 -14 -12 -14h-22q-13 0 -13 12l-35 447h-446l-190 -447q-6 -12 -17 -12h-22q-15 0 -9 14l590 1387
q-94 22 -94 121zM231 504h426l-61 848h-4zM647 1657q-56 0 -96 -38q-39 -37 -39 -97q0 -86 96 -86q55 0 94 39t39 98q0 84 -94 84z" />
    <glyph glyph-name="aringacute" unicode="&#x1fb;" horiz-adv-x="720" 
d="M668 801l-138 -789q-2 -12 -14 -12h-20q-12 0 -11 12l29 172q-94 -194 -287 -194q-96 0 -148 55t-52 156q0 126 38 213t117 133q81 47 176 68q99 22 238 26l29 162q8 46 8 88q0 77 -39 115q-37 36 -127 36q-123 0 -234 -43q-7 -2 -11 1q-5 3 -3 10l2 12q4 16 19 20
q113 43 233 43q203 0 203 -192q0 -46 -8 -92zM547 365l41 235q-88 -1 -160 -11q-62 -8 -139 -34q-70 -23 -117 -67q-46 -43 -74 -114t-28 -171q0 -170 161 -170q117 0 204 95q88 95 112 237zM535 1466q63 0 96 -32q35 -33 35 -88q0 -74 -51 -125q-50 -50 -128 -50
q-61 0 -97 33t-36 84q0 58 30 103q29 43 83 65l131 156q12 16 27 16h32q25 0 7 -18l-144 -144h15zM492 1210q54 0 92 37q39 37 39 96q0 84 -93 84q-57 0 -94 -36q-39 -37 -39 -99q0 -82 95 -82z" />
    <glyph glyph-name="AEacute" unicode="&#x1fc;" horiz-adv-x="1105" 
d="M1038 713h-395l-119 -668h412q14 0 10 -12l-2 -21q-2 -12 -14 -12h-447q-11 0 -10 12l76 441h-346l-201 -441q-6 -12 -16 -12h-23q-14 0 -8 14l647 1407q6 13 19 13h557q15 0 10 -13l-4 -20q-4 -12 -15 -12h-407l-111 -631h396q10 0 10 -13l-4 -20q-5 -12 -15 -12z
M223 498h334l158 891h-82zM715 1544l137 162q12 16 29 16h32q22 0 4 -18l-167 -164q-6 -8 -17 -8h-14q-11 0 -4 12z" />
    <glyph glyph-name="aeacute" unicode="&#x1fd;" horiz-adv-x="1142" 
d="M788 27q90 0 168 28q8 3 11 0.5t2 -10.5l-2 -12q-4 -16 -17 -21q-81 -28 -166 -28q-122 0 -182 67q-59 66 -65 203q-38 -115 -121 -189q-84 -75 -189 -75q-94 0 -148 61t-54 160q0 97 29 164q30 69 76 109q48 42 121 65q81 26 146 34q77 10 170 11l31 172q12 66 12 121
q0 73 -35 114t-122 41q-104 0 -215 -43q-8 -2 -12 1q-5 3 -3 10l2 12q4 16 19 20q101 43 215 43q99 0 148 -48t48 -146q91 194 269 194q196 0 196 -256q0 -91 -22 -217l-8 -49q-4 -12 -15 -12h-471q-29 -162 -29 -262q0 -135 51 -200q49 -62 162 -62zM922 1042
q-123 0 -195 -108q-71 -107 -115 -340h437l2 18q22 208 22 217q0 213 -151 213zM526 365l33 186q-65 -1 -143 -7q-57 -4 -130 -26q-72 -21 -114 -55q-43 -34 -73 -99q-29 -62 -29 -153q0 -81 41 -130q41 -48 120 -48q111 0 190 94q78 92 105 238zM692 1204l144 172
q12 17 26 17h33q25 0 6 -19l-174 -174q-8 -8 -16 -8h-15q-12 0 -4 12z" />
    <glyph glyph-name="Oslashacute" unicode="&#x1fe;" horiz-adv-x="950" 
d="M639 1450q209 0 266 -180l109 143q10 12 20 6l17 -12q10 -6 0 -16l-131 -177q12 -61 12 -145q0 -146 -37 -352q-72 -401 -187 -567t-313 -166q-207 0 -268 174l-104 -140q-8 -12 -19 -4l-16 11q-14 6 -2 18l127 170q-13 71 -13 152q0 146 37 352q72 400 189 567
q117 166 313 166zM150 362q0 -69 4 -94l716 955q-43 184 -231 184q-174 0 -281 -158q-106 -157 -172 -532q-36 -206 -36 -355zM395 27q175 0 280 156q105 155 171 534q39 228 39 356q0 39 -4 90l-717 -954q43 -182 231 -182zM637 1544l137 162q12 16 29 16h33q22 0 4 -18
l-168 -164q-6 -8 -17 -8h-14q-11 0 -4 12z" />
    <glyph glyph-name="oslashacute" unicode="&#x1ff;" horiz-adv-x="761" 
d="M301 -16q-156 0 -207 118l-74 -98q-6 -10 -14 -2l-12 12q-8 8 -2 15l86 116q-15 55 -15 140q0 97 27 250q50 285 140 416q92 134 253 134q153 0 205 -120l72 98q6 10 16 4l15 -8q8 -6 0 -17l-86 -116q16 -64 16 -146q0 -98 -25 -245q-52 -285 -142 -417
q-92 -134 -253 -134zM303 27q137 0 218 123q82 124 128 385q27 153 27 245q0 38 -8 99l-541 -732q40 -120 176 -120zM111 287q0 -49 6 -90l538 727q-40 118 -174 118q-138 0 -218 -123q-81 -125 -126 -384q-26 -150 -26 -248zM481 1204l144 172q12 17 26 17h33q25 0 6 -19
l-174 -174q-8 -8 -16 -8h-15q-11 0 -4 12z" />
    <glyph glyph-name="Scommaaccent" unicode="&#x218;" horiz-adv-x="679" 
d="M580 395q0 -177 -97 -297q-96 -118 -278 -118q-109 0 -193 22q-13 4 -12 18l2 15q4 17 21 12q75 -22 184 -22q155 0 239 100q84 101 84 264q0 72 -27 136q-26 62 -60 104q-28 34 -89 94q-172 168 -172 338q0 168 91 278q91 111 264 111q91 0 165 -23q14 -4 13 -18l-2 -14
q-2 -19 -19 -13q-80 23 -162 23q-147 0 -225 -94q-78 -95 -78 -250q0 -93 40 -160q41 -69 116 -139q91 -85 143 -169t52 -198zM238 -233l-64 -158q-6 -12 -16 -12h-8q-15 0 -9 14l58 158h-27q-12 0 -10 12l16 92q0 12 15 12h57q10 0 10 -12l-16 -90z" />
    <glyph glyph-name="scommaaccent" unicode="&#x219;" horiz-adv-x="610" 
d="M520 324q0 -141 -89 -241q-89 -99 -236 -99q-123 0 -199 30q-16 6 -12 21l4 12q4 14 16 10q86 -30 193 -30q116 0 196 83t80 209q0 27 -4 46q-5 23 -15 38t-20 31q-6 10 -30 32q-27 25 -31 28l-14 10q-14 11 -26 19t-25.5 18.5t-14.5 11.5q-77 59 -122 117
q-40 52 -40 127q0 130 85 209t222 79q82 0 156 -20q13 -4 12 -18l-2 -13q-2 -17 -20 -12q-63 20 -148 20q-111 0 -185 -67q-75 -67 -75 -180q0 -12 2 -30q1 -12 8 -27q2 -5 6 -12t5 -11q6 -14 15 -24q11 -13 16 -19q2 -3 22 -21q17 -15 23 -19l28 -22q23 -18 27 -22
q9 -7 41 -32q30 -24 42 -33q4 -3 33 -30q24 -22 32 -36q3 -4 10.5 -16.5t12.5 -20.5q12 -20 17 -46q4 -21 4 -50zM219 -233l-61 -142q-2 -12 -17 -12h-8q-12 0 -8 14l55 142h-26q-16 0 -11 12l17 92q0 12 14 12h57q11 0 11 -12l-17 -90z" />
    <glyph glyph-name="uni021A" unicode="&#x21a;" horiz-adv-x="661" 
d="M213 1401l4 20q5 13 16 13h537q12 0 10 -13l-4 -20q-2 -12 -14 -12h-246l-242 -1377q-4 -12 -14 -12h-22q-12 0 -11 12l242 1377h-246q-15 0 -10 12zM244 -233l-64 -158q-6 -12 -16 -12h-8q-16 0 -9 14l58 158h-27q-14 0 -10 12l16 92q0 12 15 12h57q10 0 10 -12l-16 -90
z" />
    <glyph glyph-name="uni021B" unicode="&#x21b;" horiz-adv-x="491" 
d="M508 1026h-193l-139 -782q-10 -49 -10 -103q0 -60 24 -84t80 -24q33 0 66 6q6 2 10 -1q4 -2 2 -9l-2 -13q-5 -19 -18 -20q-27 -6 -60 -6q-72 0 -110 32q-37 31 -37 115q0 40 10 103l139 786h-118q-12 0 -11 12l2 19q4 12 17 12h119l45 266q5 13 16 13h20q14 0 9 -13
l-45 -266h192q12 0 8 -12l-2 -19q-2 -12 -14 -12zM201 -233l-62 -142q-5 -12 -16 -12h-8q-13 0 -9 14l56 142h-27q-11 0 -10 12l16 92q0 12 15 12h57q10 0 10 -12l-16 -90z" />
    <glyph glyph-name="dotlessj" unicode="&#x237;" horiz-adv-x="311" 
d="M49 -41l193 1098q4 12 16 12h21q13 0 8 -12l-193 -1100q-18 -103 -52 -146q-35 -44 -110 -44q-20 0 -34 2q-17 2 -13 18l2 14q2 11 17 11q5 0 12 -1t21 -1q51 0 74 33t38 116z" />
    <glyph glyph-name="circumflex" unicode="&#x2c6;" horiz-adv-x="491" 
d="M512 1200l-106 158l-160 -158q-13 -8 -17 -8h-18q-13 0 -6 12l166 182q15 15 26 15h25q16 0 22 -15l101 -182q7 -12 -10 -12h-11q-7 0 -12 8z" />
    <glyph glyph-name="caron" unicode="&#x2c7;" horiz-adv-x="491" 
d="M377 1235l160 158q13 8 16 8h18q19 0 7 -12l-166 -183q-10 -14 -27 -14h-25q-12 0 -22 14l-100 183q-5 12 10 12h10q7 0 12 -8z" />
    <glyph glyph-name="uni02C9" unicode="&#x2c9;" horiz-adv-x="491" 
d="M537 1208h-320q-12 0 -10 13l2 14q4 12 14 12h320q15 0 10 -12l-2 -14q-2 -13 -14 -13z" />
    <glyph glyph-name="breve" unicode="&#x2d8;" horiz-adv-x="491" 
d="M379 1188q-81 0 -125 48t-33 118q5 12 15 12h18q12 0 10 -12q-8 -123 115 -123q121 0 160 123q1 12 14 12h18q15 0 11 -12q-17 -73 -69 -119q-53 -47 -134 -47z" />
    <glyph glyph-name="dotaccent" unicode="&#x2d9;" horiz-adv-x="491" 
d="M416 1288l-15 -84q-5 -12 -14 -12h-29q-14 0 -10 12l14 84q2 12 15 12h29q12 0 10 -12z" />
    <glyph glyph-name="ring" unicode="&#x2da;" horiz-adv-x="491" 
d="M377 1210q54 0 92 37q39 37 39 96q0 84 -92 84q-57 0 -94 -36q-39 -37 -39 -99q0 -82 94 -82zM420 1466q63 0 96 -32q35 -33 35 -88q0 -75 -50 -125t-128 -50q-62 0 -98 33q-35 32 -35 84q0 74 49 126t131 52z" />
    <glyph glyph-name="ogonek" unicode="&#x2db;" horiz-adv-x="491" 
d="M184 18h43q-168 -94 -168 -198q0 -47 68 -47h39q15 0 10 -13l-2 -12q-4 -11 -12 -16q-15 -6 -43 -6q-47 0 -77 21t-30 60q0 117 172 211z" />
    <glyph glyph-name="tilde" unicode="&#x2dc;" horiz-adv-x="491" 
d="M590 1300q-7 -49 -40 -82q-32 -32 -75 -32q-46 0 -84 37l-47 39q-30 24 -55 24q-45 0 -68 -63l-6 -17q-6 -14 -16 -14h-11q-13 0 -12 14q11 51 43 85q33 34 76 34q42 0 82 -37l43 -37q32 -26 59 -26q25 0 43 19q20 21 25 40l4 16q6 15 18 15h11q12 0 10 -15z" />
    <glyph glyph-name="hungarumlaut" unicode="&#x2dd;" horiz-adv-x="491" 
d="M260 1204l127 172q12 17 27 17h30q26 0 7 -19l-156 -174q-8 -8 -16 -8h-15q-12 0 -4 12zM455 1204l127 172q12 17 26 17h31q25 0 6 -19l-156 -174q-8 -8 -16 -8h-14q-11 0 -4 12z" />
    <glyph glyph-name="uni037E" unicode="&#x37e;" horiz-adv-x="299" 
d="M113 477l18 113q5 12 14 12h54q14 0 10 -12l-19 -113q-2 -12 -14 -12h-53q-11 0 -10 12z" />
    <glyph glyph-name="uni0394" unicode="&#x394;" horiz-adv-x="966" 
d="M641 1446h29q8 0 12 -12l84 -1401q4 -33 -31 -33h-667q-34 0 -23 33l580 1401q5 12 16 12zM637 1362l-541 -1317h623l-74 1317h-8z" />
    <glyph glyph-name="uni03A9" unicode="&#x3a9;" horiz-adv-x="1056" 
d="M694 1450q183 0 267 -110q83 -108 83 -298q0 -253 -100 -475t-299 -346l-33 -176h211q13 0 11 -12l-3 -21q0 -12 -14 -12h-258l39 223q1 19 27 35q180 106 276 330q94 219 94 461q0 358 -301 358q-128 0 -229 -71q-99 -70 -157 -185q-56 -113 -84 -240q-27 -125 -27 -249
q0 -283 161 -404q16 -15 15 -35l-39 -223h-258q-10 0 -10 12l2 21q0 12 14 12h211l33 176q-181 152 -181 436q0 101 18 204q19 107 59 211q41 106 103 191q60 83 156 135q95 52 213 52z" />
    <glyph glyph-name="uni03BC" unicode="&#x3bc;" horiz-adv-x="765" 
d="M758 1057l-131 -744q-57 -329 -301 -329q-105 0 -160 61q-56 62 -62 139l-69 -397q-1 -12 -15 -12h-20q-12 0 -10 12l223 1270q5 12 16 12h21q12 0 8 -12l-121 -692q-8 -43 -8 -91q0 -110 51 -179q50 -68 146 -68q205 0 256 286l131 744q5 12 16 12h21q12 0 8 -12z" />
    <glyph glyph-name="pi" unicode="&#x3c0;" horiz-adv-x="876" 
d="M758 1026l-150 -842q-6 -41 -6 -67q0 -82 80 -82q39 0 63 6q7 2 11 -1q4 -2 2 -9l-2 -15q-1 -13 -19 -18q-18 -6 -59 -6q-123 0 -123 117q0 12 8 73l150 844h-301l-340 -1014q-6 -12 -17 -12h-22q-14 0 -8 12l340 1014h-168q-13 0 -11 12l2 19q4 12 17 12h713q12 0 8 -12
l-2 -19q-2 -12 -15 -12h-151z" />
    <glyph glyph-name="Wgrave" unicode="&#x1e80;" horiz-adv-x="1302" 
d="M811 1434h20q13 0 13 -13l20 -956l2 -381h8l136 381l348 956q6 13 16 13h25q14 0 8 -15l-516 -1407q-6 -12 -19 -12h-32q-15 0 -15 12l-18 989l-4 322h-4l-115 -322l-367 -989q-5 -12 -18 -12h-33q-14 0 -14 12l-21 1407q0 15 13 15h22q15 0 15 -13l12 -956v-383h8
l137 383l357 956q5 13 16 13zM782 1706l84 -162q8 -12 -8 -12h-10q-6 0 -12 8l-115 164q-8 18 12 18h29q14 0 20 -16z" />
    <glyph glyph-name="wgrave" unicode="&#x1e81;" horiz-adv-x="1040" 
d="M614 1069h25q11 0 12 -10l15 -740v-239h4l88 239l274 738q6 12 21 12h20q12 0 6 -14l-395 -1043q-6 -12 -18 -12h-21q-14 0 -14 12l-19 719v250h-4l-90 -250l-272 -719q-6 -12 -19 -12h-20q-14 0 -14 12l-27 1043q0 14 14 14h21q12 0 12 -12l12 -738l2 -239h4l86 239
l281 740q1 10 16 10zM573 1376l84 -172q7 -12 -8 -12h-10q-10 0 -12 8l-115 174q-8 19 10 19h29q16 0 22 -17z" />
    <glyph glyph-name="Wacute" unicode="&#x1e82;" horiz-adv-x="1302" 
d="M811 1434h20q13 0 13 -13l20 -956l2 -381h8l136 381l348 956q6 13 16 13h25q14 0 8 -15l-516 -1407q-6 -12 -19 -12h-32q-15 0 -15 12l-18 989l-4 322h-4l-115 -322l-367 -989q-5 -12 -18 -12h-33q-14 0 -14 12l-21 1407q0 15 13 15h22q15 0 15 -13l12 -956v-383h8
l137 383l357 956q5 13 16 13zM813 1544l137 162q12 16 29 16h33q22 0 4 -18l-168 -164q-6 -8 -17 -8h-14q-11 0 -4 12z" />
    <glyph glyph-name="wacute" unicode="&#x1e83;" horiz-adv-x="1040" 
d="M614 1069h25q11 0 12 -10l15 -740v-239h4l88 239l274 738q6 12 21 12h20q12 0 6 -14l-395 -1043q-6 -12 -18 -12h-21q-14 0 -14 12l-19 719v250h-4l-90 -250l-272 -719q-6 -12 -19 -12h-20q-14 0 -14 12l-27 1043q0 14 14 14h21q12 0 12 -12l12 -738l2 -239h4l86 239
l281 740q1 10 16 10zM641 1204l143 172q12 17 27 17h33q25 0 6 -19l-174 -174q-8 -8 -17 -8h-14q-11 0 -4 12z" />
    <glyph glyph-name="Wdieresis" unicode="&#x1e84;" horiz-adv-x="1302" 
d="M811 1434h20q13 0 13 -13l20 -956l2 -381h8l136 381l348 956q6 13 16 13h25q14 0 8 -15l-516 -1407q-6 -12 -19 -12h-32q-15 0 -15 12l-18 989l-4 322h-4l-115 -322l-367 -989q-5 -12 -18 -12h-33q-14 0 -14 12l-21 1407q0 15 13 15h22q15 0 15 -13l12 -956v-383h8
l137 383l357 956q5 13 16 13zM764 1628l-16 -84q0 -12 -15 -12h-28q-11 0 -11 12l17 84q0 12 14 12h29q10 0 10 -12zM1001 1628l-16 -84q0 -12 -14 -12h-29q-10 0 -10 12l16 84q0 12 15 12h28q10 0 10 -12z" />
    <glyph glyph-name="wdieresis" unicode="&#x1e85;" horiz-adv-x="1040" 
d="M614 1069h25q11 0 12 -10l15 -740v-239h4l88 239l274 738q6 12 21 12h20q12 0 6 -14l-395 -1043q-6 -12 -18 -12h-21q-14 0 -14 12l-19 719v250h-4l-90 -250l-272 -719q-6 -12 -19 -12h-20q-14 0 -14 12l-27 1043q0 14 14 14h21q12 0 12 -12l12 -738l2 -239h4l86 239
l281 740q1 10 16 10zM571 1288l-14 -84q-5 -12 -14 -12h-29q-14 0 -10 12l14 84q2 12 14 12h29q11 0 10 -12zM809 1288l-14 -84q-5 -12 -15 -12h-28q-16 0 -11 12l15 84q2 12 14 12h29q11 0 10 -12z" />
    <glyph glyph-name="Ygrave" unicode="&#x1ef2;" horiz-adv-x="829" 
d="M457 569l-99 -557q-2 -12 -14 -12h-22q-16 0 -11 12l99 557l-183 850q-4 15 13 15h22q12 0 12 -11l121 -565l43 -231h6l125 231l322 565q6 11 16 11h23q12 0 8 -15zM545 1706l84 -162q7 -12 -8 -12h-11q-6 0 -12 8l-115 164q-8 18 13 18h28q15 0 21 -16z" />
    <glyph glyph-name="ygrave" unicode="&#x1ef3;" horiz-adv-x="679" 
d="M731 1055l-434 -1037q-55 -132 -111 -196q-52 -60 -147 -60q-40 0 -84 13q-14 4 -10 20l2 12q2 15 18 11q47 -13 84 -13q86 0 140 89q55 90 49 149l-80 1012q0 14 14 14h23q12 0 12 -12l59 -750l10 -217h5l88 217l313 750q6 12 20 12h23q12 0 6 -14zM475 1376l84 -172
q7 -12 -8 -12h-10q-11 0 -13 8l-114 174q-8 19 10 19h29q16 0 22 -17z" />
    <glyph glyph-name="figuredash" unicode="&#x2012;" horiz-adv-x="778" 
d="M668 541h-533q-11 0 -10 12l4 18q0 13 14 13h533q10 0 10 -13l-4 -18q-2 -12 -14 -12z" />
    <glyph glyph-name="endash" unicode="&#x2013;" horiz-adv-x="720" 
d="M641 528h-541q-15 0 -10 13l4 18q0 12 15 12h540q10 0 10 -12l-4 -18q-5 -13 -14 -13z" />
    <glyph glyph-name="emdash" unicode="&#x2014;" horiz-adv-x="1048" 
d="M969 528h-869q-15 0 -10 13l4 18q0 12 15 12h868q10 0 10 -12l-4 -18q-5 -13 -14 -13z" />
    <glyph glyph-name="quoteleft" unicode="&#x2018;" horiz-adv-x="294" 
d="M250 1251l69 170q7 13 17 13h8q13 0 8 -15l-63 -170h24q15 0 11 -12l-21 -113q0 -12 -14 -12h-53q-11 0 -11 12l21 111z" />
    <glyph glyph-name="quoteright" unicode="&#x2019;" horiz-adv-x="294" 
d="M328 1294l-70 -170q-4 -12 -16 -12h-9q-12 0 -8 14l64 170h-25q-15 0 -10 13l20 112q5 13 15 13h53q15 0 10 -13l-20 -110q0 -10 -4 -17z" />
    <glyph glyph-name="quotesinglbase" unicode="&#x201a;" horiz-adv-x="294" 
d="M100 -2l-69 -170q-1 -12 -17 -12h-8q-12 0 -8 14l63 170h-24q-11 0 -10 12l20 113q1 12 14 12h54q11 0 10 -12l-21 -111q0 -9 -4 -16z" />
    <glyph glyph-name="quotedblleft" unicode="&#x201c;" horiz-adv-x="507" 
d="M463 1251l69 170q6 13 17 13h8q13 0 8 -15l-63 -170h24q16 0 11 -12l-21 -113q0 -12 -14 -12h-53q-11 0 -11 12l21 111zM250 1251l69 170q7 13 17 13h8q13 0 8 -15l-63 -170h24q15 0 11 -12l-21 -113q0 -12 -14 -12h-53q-11 0 -11 12l21 111z" />
    <glyph glyph-name="quotedblright" unicode="&#x201d;" horiz-adv-x="507" 
d="M328 1294l-70 -170q-4 -12 -16 -12h-9q-12 0 -8 14l64 170h-25q-15 0 -10 13l20 112q5 13 15 13h53q15 0 10 -13l-20 -110q0 -10 -4 -17zM541 1294l-70 -170q-5 -12 -16 -12h-9q-12 0 -8 14l64 170h-25q-15 0 -10 13l20 112q5 13 15 13h53q15 0 10 -13l-20 -110
q0 -10 -4 -17z" />
    <glyph glyph-name="quotedblbase" unicode="&#x201e;" horiz-adv-x="507" 
d="M100 -2l-69 -170q-1 -12 -17 -12h-8q-12 0 -8 14l63 170h-24q-11 0 -10 12l20 113q1 12 14 12h54q11 0 10 -12l-21 -111q0 -9 -4 -16zM313 -2l-69 -170q-2 -12 -17 -12h-8q-12 0 -8 14l63 170h-24q-12 0 -10 12l20 113q2 12 14 12h54q12 0 10 -12l-21 -111q0 -9 -4 -16z
" />
    <glyph glyph-name="dagger" unicode="&#x2020;" horiz-adv-x="686" 
d="M707 1057l-2 -21q-5 -12 -15 -12h-225l-219 -1237q-4 -12 -15 -12h-22q-11 0 -10 12l219 1237h-225q-13 0 -11 12l2 21q4 12 17 12h225l61 352q5 13 15 13h22q13 0 11 -13l-62 -352h225q10 0 9 -12z" />
    <glyph glyph-name="daggerdbl" unicode="&#x2021;" horiz-adv-x="686" 
d="M551 172l-2 -20q-5 -13 -17 -13h-225l-61 -352q-4 -12 -15 -12h-22q-11 0 -10 12l61 352h-225q-10 0 -8 13l2 20q5 12 14 12h225l150 840h-225q-13 0 -11 12l2 21q4 12 17 12h225l61 352q5 13 15 13h22q13 0 11 -13l-62 -352h225q10 0 9 -12l-2 -21q-5 -12 -15 -12h-225
l-150 -840h226q11 0 10 -12z" />
    <glyph glyph-name="bullet" unicode="&#x2022;" horiz-adv-x="602" 
d="M281 332q-78 0 -128 47q-51 48 -51 121q0 97 70 172q69 73 172 73q80 0 130 -47t50 -123q0 -100 -70 -171q-70 -72 -173 -72z" />
    <glyph glyph-name="onedotenleader" unicode="&#x2024;" horiz-adv-x="299" 
d="M31 12l18 113q5 12 14 12h54q15 0 10 -12l-18 -113q-1 -12 -15 -12h-53q-11 0 -10 12z" />
    <glyph glyph-name="twodotenleader" unicode="&#x2025;" horiz-adv-x="598" 
d="M330 12l18 113q4 12 14 12h54q14 0 10 -12l-18 -113q-2 -12 -15 -12h-53q-12 0 -10 12zM31 12l18 113q5 12 14 12h54q15 0 10 -12l-18 -113q-1 -12 -15 -12h-53q-11 0 -10 12z" />
    <glyph glyph-name="ellipsis" unicode="&#x2026;" horiz-adv-x="897" 
d="M31 12l18 113q5 12 14 12h54q15 0 10 -12l-18 -113q-1 -12 -15 -12h-53q-11 0 -10 12zM330 12l18 113q4 12 14 12h54q14 0 10 -12l-18 -113q-2 -12 -15 -12h-53q-12 0 -10 12zM629 12l18 113q5 12 15 12h53q15 0 10 -12l-18 -113q-1 -12 -15 -12h-53q-11 0 -10 12z" />
    <glyph glyph-name="perthousand" unicode="&#x2030;" horiz-adv-x="1875" 
d="M1180 1417l-928 -1405q-10 -12 -21 -12h-22q-18 0 -6 16l927 1405q8 13 21 13h23q14 0 6 -17zM168 1053q69 393 295 393q182 0 182 -240q0 -77 -14 -151q-69 -391 -293 -391q-184 0 -184 241q0 79 14 148zM584 1055q16 92 16 155q0 193 -139 193q-183 0 -246 -348
q-16 -92 -16 -154q0 -194 139 -194q184 0 246 348zM750 379q69 391 294 391q183 0 183 -240q0 -69 -15 -153q-69 -389 -292 -389q-185 0 -185 239q0 73 15 152zM1165 379q15 84 15 153q0 195 -138 195q-183 0 -245 -348q-17 -97 -17 -154q0 -194 140 -194q184 0 245 348z
M1333 379q69 391 295 391q182 0 182 -240q0 -77 -14 -151q-69 -391 -293 -391q-184 0 -184 239q0 78 14 152zM1749 379q14 78 14 153q0 195 -137 195q-184 0 -246 -348q-16 -92 -16 -154q0 -194 139 -194q185 0 246 348z" />
    <glyph glyph-name="guilsinglleft" unicode="&#x2039;" horiz-adv-x="323" 
d="M84 530l4 9l156 268q6 10 14 10h27q11 0 6 -12l-160 -275l64 -274q0 -12 -13 -12h-26q-7 0 -11 10l-61 268v8z" />
    <glyph glyph-name="guilsinglright" unicode="&#x203a;" horiz-adv-x="323" 
d="M260 530q0 -4 -4 -8l-156 -268q-4 -10 -14 -10h-27q-11 0 -4 12l158 274l-61 275q-5 12 10 12h26q11 0 11 -10l61 -268v-9z" />
    <glyph glyph-name="exclamdbl" unicode="&#x203c;" horiz-adv-x="708" 
d="M63 12l19 113q4 12 14 12h54q14 0 10 -12l-19 -113q-1 -12 -14 -12h-53q-12 0 -11 12zM172 365h-16q-12 0 -11 12l179 1044q5 13 14 13h29q15 0 10 -13l-191 -1044q-2 -12 -14 -12zM408 12l18 113q4 12 14 12h54q14 0 10 -12l-19 -113q-1 -12 -14 -12h-53q-12 0 -10 12z
M516 365h-16q-12 0 -11 12l179 1044q5 13 14 13h29q15 0 10 -13l-191 -1044q-2 -12 -14 -12z" />
    <glyph glyph-name="fraction" unicode="&#x2044;" horiz-adv-x="118" 
d="M592 1417l-926 -1405q-10 -12 -22 -12h-23q-16 0 -4 16l926 1405q11 13 20 13h23q14 0 6 -17z" />
    <glyph glyph-name="zero.superior" unicode="&#x2070;" 
d="M373 987q-172 0 -172 242q0 96 20 205q40 235 113 341q72 105 184 105q174 0 174 -244q0 -96 -20 -202q-44 -237 -114 -342t-185 -105zM373 1026q91 0 154 96q63 95 102 312q22 126 22 206q0 201 -133 201q-91 0 -151 -95q-59 -93 -103 -312q-22 -111 -22 -211
q0 -197 131 -197z" />
    <glyph glyph-name="four.superior" unicode="&#x2074;" 
d="M623 1790l-400 -535h305zM659 1214h-94l-37 -202q-5 -13 -14 -13h-18q-13 0 -11 13l37 202h-342q-10 0 -10 13l2 18q2 7 12 23l445 590q10 10 18 10h21q12 0 10 -13l-107 -600h95q14 0 10 -12l-2 -16q-2 -13 -15 -13z" />
    <glyph glyph-name="five.superior" unicode="&#x2075;" 
d="M317 987q-88 0 -137 21q-6 4 -6 12l2 16q1 10 14 8q46 -18 127 -18q128 0 192 88t64 217q0 150 -131 150q-42 0 -74 -7q-29 -6 -54 -14q-20 -6 -21 -6q-4 0 -6 2l-4 4q-6 6 -4 15q54 219 83 380q2 13 15 13h287q12 0 10 -13l-4 -16q-2 -12 -15 -12h-260
q-29 -157 -73 -328q57 21 124 21q170 0 170 -189q0 -148 -79 -246t-220 -98z" />
    <glyph glyph-name="six.superior" unicode="&#x2076;" 
d="M651 1827q-32 14 -86 14q-123 0 -191 -101q-70 -103 -104 -351q27 68 84 109q56 40 123 40q170 0 170 -197q0 -134 -65 -243q-66 -111 -185 -111q-184 0 -184 240q0 75 23 207q44 250 116 347q74 99 213 99q61 0 97 -14q8 -2 6 -11l-4 -20q-2 -13 -13 -8zM397 1026
q71 0 120 57q52 59 69 126q18 69 18 134q0 156 -133 156q-101 0 -158 -94q-57 -95 -57 -199q0 -77 35 -129q35 -51 106 -51z" />
    <glyph glyph-name="seven.superior" unicode="&#x2077;" 
d="M723 1855l-4 -18q0 -6 -6 -16q-127 -150 -249 -387q-122 -238 -155 -422q-2 -13 -14 -13h-21q-12 0 -10 13q32 177 152 413q118 234 252 402h-349q-10 0 -10 12l4 16q2 13 15 13h385q12 0 10 -13z" />
    <glyph glyph-name="eight.superior" unicode="&#x2078;" 
d="M373 987q-90 0 -142 44q-51 43 -51 122q0 99 64 180t157 119q-118 63 -118 182q0 109 68 177q69 69 167 69q84 0 131 -42t47 -112q0 -93 -56 -164q-58 -74 -144 -110q131 -62 131 -199q0 -117 -73 -192q-72 -74 -181 -74zM444 1432q-94 -34 -157 -109q-62 -74 -62 -166
q0 -131 148 -131q93 0 151 64t58 155q0 134 -138 187zM453 1470q89 37 145 102q55 64 55 150q0 55 -35 88q-34 33 -100 33q-88 0 -140 -60q-52 -59 -52 -140q0 -121 127 -173z" />
    <glyph glyph-name="nine.superior" unicode="&#x2079;" 
d="M238 1040q32 -14 88 -14q123 0 191 101q70 103 104 352q-28 -69 -82 -110q-52 -40 -119 -40q-88 0 -132 54q-44 55 -44 143q0 131 66 242q67 112 184 112q184 0 184 -250q0 -88 -21 -196q-46 -250 -118 -348q-73 -99 -213 -99q-63 0 -99 14q-6 1 -4 11l4 20q1 10 11 8z
M494 1841q-70 0 -120 -57q-52 -59 -69 -126q-18 -69 -18 -134q0 -156 133 -156q101 0 158 92t57 197q0 79 -36 131q-36 53 -105 53z" />
    <glyph glyph-name="parenleft.superior" unicode="&#x207d;" horiz-adv-x="307" 
d="M252 1268q0 166 57 329t166 289q8 8 17 8h22q16 0 4 -12q-108 -114 -165 -280q-56 -164 -56 -340q0 -170 63 -277q4 -12 -8 -12h-22q-11 0 -13 8q-65 120 -65 287z" />
    <glyph glyph-name="parenright.superior" unicode="&#x207e;" horiz-adv-x="307" 
d="M393 1595q0 -165 -57 -327q-57 -161 -166 -287q-6 -8 -14 -8h-23q-16 0 -4 12q105 113 163 280q56 162 56 337q0 174 -63 280q-5 12 8 12h22q11 0 13 -8q65 -123 65 -291z" />
    <glyph glyph-name="n.superior" unicode="&#x207f;" horiz-adv-x="649" 
d="M354 1868h19q12 0 10 -13l-25 -137q86 162 240 162q168 0 168 -178q0 -34 -6 -72l-109 -618q-5 -13 -14 -13h-18q-13 0 -11 13l109 618q8 56 8 74q0 135 -127 135q-94 0 -170 -79t-94 -189l-98 -559q-2 -13 -15 -13h-18q-15 0 -10 13l147 843q5 13 14 13z" />
    <glyph glyph-name="zero.inferior" unicode="&#x2080;" 
d="M121 -446q-172 0 -172 241q0 96 20 205q40 235 113 341q72 105 184 105q174 0 174 -243q0 -97 -20 -203q-44 -237 -114 -342q-70 -104 -185 -104zM121 -408q90 0 154 97q63 96 102 311q22 126 22 207q0 201 -133 201q-90 0 -151 -96q-59 -93 -103 -312q-22 -111 -22 -211
q0 -197 131 -197z" />
    <glyph glyph-name="one.inferior" unicode="&#x2081;" 
d="M283 369l-205 -172q-8 -9 -17 0l-12 12q-6 10 4 16l240 203q11 6 16 6h17q14 0 10 -12l-150 -844q-2 -12 -14 -12h-18q-16 0 -11 12z" />
    <glyph glyph-name="two.inferior" unicode="&#x2082;" 
d="M68 209q0 -16 -13 -16h-18q-12 0 -12 16q0 104 65 170q66 67 164 67q86 0 127 -45q41 -46 41 -120q0 -59 -19 -125q-18 -63 -65 -133q-27 -39 -78 -114q-31 -45 -105 -119q-75 -75 -96 -93q-4 -4 -96 -90h344q12 0 10 -13l-4 -16q-1 -12 -14 -12h-383q-14 0 -10 12l4 16
q5 16 8 19q220 205 307 317q154 198 154 353q0 127 -125 127q-86 0 -136 -59t-50 -142z" />
    <glyph glyph-name="three.inferior" unicode="&#x2083;" 
d="M166 2h-55q-13 0 -11 12l2 15q4 12 15 12h53q95 0 144 73q48 72 48 175q0 65 -36 91q-39 28 -117 28q-55 0 -127 -21q-10 -4 -10 8l2 19q0 8 10 12q53 20 125 20q197 0 197 -159q0 -88 -42 -166q-41 -77 -118 -98q46 -5 76 -50t30 -116q0 -142 -81 -223q-80 -80 -218 -80
q-92 0 -135 20q-6 4 -6 12l2 17q1 10 12 8q49 -19 127 -19q121 0 189 73q67 71 67 194q0 143 -143 143z" />
    <glyph glyph-name="four.inferior" unicode="&#x2084;" 
d="M371 356l-400 -534h305zM408 -219h-95l-37 -203q-2 -12 -14 -12h-18q-16 0 -11 12l37 203h-342q-10 0 -10 12l2 19q1 5 12 22l445 590q10 10 18 10h21q14 0 10 -12l-107 -600h95q12 0 10 -12l-2 -17q-4 -12 -14 -12z" />
    <glyph glyph-name="five.inferior" unicode="&#x2085;" 
d="M66 -446q-91 0 -138 20q-6 4 -6 12l2 17q1 10 15 8q49 -19 127 -19q126 0 191 89t65 217q0 149 -132 149q-42 0 -74 -7q-40 -9 -54 -13q-6 -2 -11 -3.5t-7 -2.5l-3 -1q-3 0 -6 3l-4 4q-6 6 -4 14q57 231 84 381q5 12 14 12h287q14 0 10 -12l-4 -16q-5 -13 -15 -13h-260
q-28 -154 -73 -327q54 20 125 20q170 0 170 -188q0 -146 -80 -246q-79 -98 -219 -98z" />
    <glyph glyph-name="six.inferior" unicode="&#x2086;" 
d="M399 393q-34 15 -86 15q-122 0 -191 -102q-70 -103 -104 -351q27 70 84 110q55 39 123 39q170 0 170 -196q0 -135 -65 -244q-65 -110 -185 -110q-184 0 -184 239q0 75 23 207q44 250 116 347q74 99 213 99q61 0 97 -14q8 -2 6 -10l-4 -21q-2 -13 -13 -8zM145 -408
q70 0 120 58q52 59 69 126q18 69 18 134q0 156 -133 156q-101 0 -158 -95t-57 -198q0 -77 35 -129t106 -52z" />
    <glyph glyph-name="seven.inferior" unicode="&#x2087;" 
d="M471 422l-4 -19q0 -5 -6 -16q-127 -150 -249 -387q-122 -238 -155 -422q-5 -12 -14 -12h-20q-15 0 -11 12q33 178 152 414q117 231 252 401h-348q-11 0 -11 13l4 16q5 12 15 12h385q15 0 10 -12z" />
    <glyph glyph-name="eight.inferior" unicode="&#x2088;" 
d="M121 -446q-89 0 -141 44t-52 121q0 100 64 181q62 78 158 118q-119 63 -119 183q0 109 68 177t167 68q84 0 131 -42t47 -111q0 -94 -56 -165q-58 -74 -144 -110q131 -62 131 -198q0 -118 -73 -193q-72 -73 -181 -73zM193 -2q-96 -34 -158 -109q-62 -74 -62 -165
q0 -132 148 -132q93 0 151 64t58 156q0 133 -137 186zM201 37q91 38 145 101q55 64 55 151q0 55 -34 88q-35 33 -101 33q-87 0 -140 -61q-52 -59 -52 -140q0 -120 127 -172z" />
    <glyph glyph-name="nine.inferior" unicode="&#x2089;" 
d="M-14 -393q35 -15 88 -15q122 0 191 102q70 103 104 351q-28 -69 -82 -110q-51 -39 -119 -39q-88 0 -132 54q-44 55 -44 142q0 132 66 243t184 111q184 0 184 -249q0 -94 -20 -197q-45 -247 -119 -347q-73 -99 -213 -99q-63 0 -99 14q-6 1 -4 10l4 21q1 10 11 8zM242 408
q-70 0 -120 -58q-52 -59 -69 -126q-18 -69 -18 -134q0 -156 133 -156q100 0 158 93q57 91 57 196q0 79 -36 131q-37 54 -105 54z" />
    <glyph glyph-name="parenleft.inferior" unicode="&#x208d;" horiz-adv-x="307" 
d="M0 -166q0 166 57 330q57 163 166 289q8 8 17 8h22q16 0 4 -12q-108 -114 -165 -281q-56 -164 -56 -340q0 -169 64 -277q4 -12 -9 -12h-22q-10 0 -12 8q-66 122 -66 287z" />
    <glyph glyph-name="parenright.inferior" unicode="&#x208e;" horiz-adv-x="307" 
d="M141 162q0 -166 -57 -328q-57 -161 -166 -287q-6 -8 -14 -8h-23q-16 0 -4 12q105 113 163 280q56 162 56 337q0 174 -63 281q-5 12 8 12h22q11 0 13 -8q65 -123 65 -291z" />
    <glyph glyph-name="Euro" unicode="&#x20ac;" horiz-adv-x="888" 
d="M98 614h140q2 24 16 103q10 60 20 102h-139q-11 0 -10 12l4 19q0 12 14 12h140q69 307 192 448q122 140 334 140q94 0 160 -20q15 -6 10 -19l-4 -16q-6 -15 -21 -11q-72 21 -147 21q-188 0 -299 -131q-111 -130 -174 -412h467q10 0 10 -12l-6 -19q-1 -12 -14 -12h-467
q-14 -61 -21 -102q-14 -79 -16 -103h440q15 0 10 -12l-4 -18q-5 -13 -14 -13h-436q-13 -110 -13 -180q0 -185 71 -274q70 -88 226 -88q78 0 160 22q16 4 16 -10v-14q0 -15 -18 -21q-81 -22 -160 -22q-179 0 -261 97q-83 98 -83 306q0 84 12 184h-141q-15 0 -10 13l2 18
q2 12 14 12z" />
    <glyph glyph-name="afii61289" unicode="&#x2113;" horiz-adv-x="925" 
d="M399 33q43 0 86 8q8 2 11 -0.5t2 -9.5l-2 -13q-4 -16 -19 -20q-40 -8 -80 -8q-164 0 -164 170q0 32 11 96l39 231q-102 -51 -203 -75q-13 -2 -14 8l-5 16q-2 12 11 17q113 29 221 84l80 458q80 455 309 455q162 0 162 -199q0 -218 -146 -418q-146 -199 -366 -321
l-43 -252q-10 -59 -10 -96q0 -72 29 -101q30 -30 91 -30zM418 997l-76 -432q202 117 330 297q127 179 127 395q0 150 -117 150q-91 0 -160 -102q-70 -103 -104 -308z" />
    <glyph glyph-name="trademark" unicode="&#x2122;" horiz-adv-x="946" 
d="M518 1393h-121l-106 -609q0 -10 -12 -10h-23q-8 0 -8 10l106 609h-121q-8 0 -8 10l4 20q5 11 13 11h284q14 0 9 -11l-5 -20q0 -10 -12 -10zM731 979q-12 0 -16 14l-84 363l-101 -572q0 -10 -12 -10h-20q-9 0 -9 10l113 639q5 11 12 11h31q7 0 8 -4l86 -394l226 394
q1 4 8 4h35q13 0 8 -11l-113 -639q0 -10 -12 -10h-21q-8 0 -8 10l101 574l-211 -365q-3 0 -4 -4q-1 -3 -7 -7q-5 -3 -10 -3z" />
    <glyph glyph-name="Omega" unicode="&#x2126;" horiz-adv-x="1056" 
d="M694 1450q183 0 267 -110q83 -108 83 -298q0 -253 -100 -475t-299 -346l-33 -176h211q13 0 11 -12l-3 -21q0 -12 -14 -12h-258l39 223q1 19 27 35q180 106 276 330q94 219 94 461q0 358 -301 358q-128 0 -229 -71q-99 -70 -157 -185q-56 -113 -84 -240q-27 -125 -27 -249
q0 -283 161 -404q16 -15 15 -35l-39 -223h-258q-10 0 -10 12l2 21q0 12 14 12h211l33 176q-181 152 -181 436q0 101 18 204q19 107 59 211q41 106 103 191q60 83 156 135q95 52 213 52z" />
    <glyph glyph-name="estimated" unicode="&#x212e;" horiz-adv-x="1753" 
d="M1679 686h-1286q-10 0 -10 -8v-379q0 -39 16 -59q170 -197 492 -197q324 0 516 223h119q-111 -132 -279 -209q-163 -75 -358 -75q-338 0 -573 215q-234 215 -234 518q0 307 230 521t569 214q338 0 568 -214t230 -521v-29zM1378 748v380q0 51 -22 74q-192 187 -473 187
q-289 0 -482 -199q-18 -18 -18 -60v-382q0 -13 10 -13h975q10 0 10 13z" />
    <glyph glyph-name="onethird" unicode="&#x2153;" horiz-adv-x="1331" 
d="M459 1368l-205 -172q-8 -8 -16 0l-13 12q-6 11 4 17l240 202q9 7 16 7h17q15 0 10 -13l-150 -843q-2 -13 -14 -13h-18q-16 0 -11 13zM1157 1417l-926 -1405q-11 -12 -22 -12h-23q-16 0 -4 16l926 1405q11 13 20 13h23q14 0 6 -17zM965 436h55q143 0 143 -143
q0 -123 -67 -194q-68 -72 -189 -72q-81 0 -127 18q-11 2 -12 -8l-2 -17q0 -8 6 -12q43 -20 135 -20q137 0 218 81t81 222q0 72 -30 117q-30 44 -76 49q77 21 118 98q42 78 42 166q0 160 -197 160q-68 0 -125 -21q-10 -4 -10 -12l-2 -19q0 -12 10 -8q72 21 127 21
q78 0 117 -28q37 -27 37 -91q0 -101 -49 -175q-49 -73 -144 -73h-53q-13 0 -15 -12l-2 -14q-5 -13 11 -13z" />
    <glyph glyph-name="twothirds" unicode="&#x2154;" horiz-adv-x="1331" 
d="M244 1208q0 -16 -13 -16h-18q-12 0 -12 16q0 104 65 170q66 68 164 68q86 0 127 -45q41 -46 41 -121q0 -62 -18 -125q-17 -61 -66 -133q-27 -39 -78 -114q-29 -42 -105 -118q-88 -88 -95 -94q-15 -13 -97 -90h344q13 0 11 -12l-5 -16q-2 -13 -14 -13h-383q-15 0 -10 13
l4 16q4 14 8 18q217 203 307 318q154 198 154 352q0 127 -125 127q-87 0 -136 -58q-50 -59 -50 -143zM1198 1417l-926 -1405q-10 -12 -22 -12h-23q-16 0 -4 16l926 1405q11 13 20 13h23q14 0 6 -17zM1020 436h-55q-16 0 -11 13l2 14q2 12 15 12h53q95 0 144 73t49 175
q0 64 -37 91q-39 28 -117 28q-55 0 -127 -21q-10 -4 -10 8l2 19q0 8 10 12q57 21 125 21q197 0 197 -160q0 -88 -42 -166q-41 -77 -118 -98q46 -5 76 -49q30 -45 30 -117q0 -141 -81 -222t-218 -81q-92 0 -135 20q-6 4 -6 12l2 17q1 10 12 8q46 -18 127 -18q121 0 189 72
q67 71 67 194q0 143 -143 143z" />
    <glyph glyph-name="oneeighth" unicode="&#x215b;" horiz-adv-x="1331" 
d="M459 1368l-205 -172q-8 -8 -16 0l-13 12q-6 11 4 17l240 202q9 7 16 7h17q15 0 10 -13l-150 -843q-2 -13 -14 -13h-18q-16 0 -11 13zM1157 1417l-926 -1405q-11 -12 -22 -12h-23q-16 0 -4 16l926 1405q11 13 20 13h23q14 0 6 -17zM975 -12q109 0 181 73q73 75 73 193
q0 137 -131 199q87 37 144 109q56 71 56 165q0 70 -47 112t-131 42q-98 0 -167 -69q-68 -68 -68 -177q0 -119 119 -182q-95 -39 -158 -119q-64 -81 -64 -180q0 -78 52 -122t141 -44zM1047 432q137 -53 137 -186q0 -92 -58 -156q-57 -63 -151 -63q-148 0 -148 131
q0 92 62 166q61 73 158 108zM1055 471q-127 52 -127 172q0 81 52 140q53 61 140 61q66 0 101 -33q34 -33 34 -88q0 -87 -55 -151q-54 -63 -145 -101z" />
    <glyph glyph-name="threeeighths" unicode="&#x215c;" horiz-adv-x="1331" 
d="M342 1001h-55q-13 0 -11 13l3 14q5 12 14 12h53q95 0 144 73t49 175q0 64 -37 91q-39 28 -117 28q-55 0 -127 -21q-10 -4 -10 9l2 18q0 8 10 12q55 21 125 21q197 0 197 -160q0 -88 -42 -166q-41 -77 -118 -98q46 -5 76 -49q30 -45 30 -117q0 -141 -81 -222t-218 -81
q-92 0 -135 20q-6 5 -6 13l2 16q1 10 12 8q47 -18 127 -18q121 0 189 73q67 71 67 193q0 143 -143 143zM1198 1417l-926 -1405q-10 -12 -22 -12h-23q-16 0 -4 16l926 1405q11 13 20 13h23q14 0 6 -17zM975 -12q-89 0 -141 44t-52 122q0 99 64 180q63 80 158 119
q-119 63 -119 182q0 109 68 177q69 69 167 69q84 0 131 -42t47 -112q0 -94 -56 -165q-57 -72 -144 -109q131 -62 131 -199q0 -118 -73 -193q-72 -73 -181 -73zM1047 432q-97 -35 -158 -108q-62 -74 -62 -166q0 -131 148 -131q94 0 151 63q58 64 58 156q0 133 -137 186z
M1055 471q91 38 145 101q55 64 55 151q0 55 -34 88q-35 33 -101 33q-87 0 -140 -61q-52 -59 -52 -140q0 -120 127 -172z" />
    <glyph glyph-name="fiveeighths" unicode="&#x215d;" horiz-adv-x="1331" 
d="M242 553q-91 0 -138 20q-6 5 -6 13l2 16q1 10 15 8q46 -18 127 -18q127 0 191 88q65 89 65 217q0 150 -131 150q-38 0 -75 -8t-53 -13q-19 -6 -22 -6q-4 0 -6 2l-4 4q-6 6 -4 14q57 231 84 381q5 13 14 13h287q15 0 10 -13l-4 -16q-4 -12 -14 -12h-261q-29 -157 -73 -328
q54 20 125 20q170 0 170 -188q0 -146 -80 -246q-79 -98 -219 -98zM1198 1417l-926 -1405q-10 -12 -22 -12h-23q-16 0 -4 16l926 1405q11 13 20 13h23q14 0 6 -17zM975 -12q-89 0 -141 44t-52 122q0 99 64 180q63 80 158 119q-119 63 -119 182q0 109 68 177q69 69 167 69
q84 0 131 -42t47 -112q0 -94 -56 -165q-57 -72 -144 -109q131 -62 131 -199q0 -118 -73 -193q-72 -73 -181 -73zM1047 432q-97 -35 -158 -108q-62 -74 -62 -166q0 -131 148 -131q94 0 151 63q58 64 58 156q0 133 -137 186zM1055 471q91 38 145 101q55 64 55 151q0 55 -34 88
q-35 33 -101 33q-87 0 -140 -61q-52 -59 -52 -140q0 -120 127 -172z" />
    <glyph glyph-name="seveneighths" unicode="&#x215e;" horiz-adv-x="1331" 
d="M647 1421l-4 -18q0 -7 -6 -17q-127 -150 -249 -387q-122 -239 -155 -421q-5 -13 -14 -13h-20q-16 0 -11 13q32 177 152 413q118 234 252 402h-348q-11 0 -11 12l5 16q5 13 14 13h385q15 0 10 -13zM1116 1417l-926 -1405q-10 -12 -22 -12h-23q-16 0 -4 16l926 1405
q11 13 20 13h23q14 0 6 -17zM975 -12q-89 0 -141 44t-52 122q0 99 64 180q63 80 158 119q-119 63 -119 182q0 109 68 177q69 69 167 69q84 0 131 -42t47 -112q0 -94 -56 -165q-57 -72 -144 -109q131 -62 131 -199q0 -118 -73 -193q-72 -73 -181 -73zM1047 432
q-97 -35 -158 -108q-62 -74 -62 -166q0 -131 148 -131q94 0 151 63q58 64 58 156q0 133 -137 186zM1055 471q91 38 145 101q55 64 55 151q0 55 -34 88q-35 33 -101 33q-87 0 -140 -61q-52 -59 -52 -140q0 -120 127 -172z" />
    <glyph glyph-name="arrowleft" unicode="&#x2190;" horiz-adv-x="962" 
d="M561 958l-371 -401h652q14 0 10 -12l-2 -17q-2 -12 -14 -12h-652l228 -401q10 -15 -9 -15h-24q-11 0 -17 11l-229 401q-7 15 -6 25q0 7 14 24l371 402q10 10 20 10h25q8 0 8 -5q0 -6 -4 -10z" />
    <glyph glyph-name="arrowup" unicode="&#x2191;" horiz-adv-x="962" 
d="M926 600l-348 299l-115 -651q-5 -12 -14 -12h-17q-14 0 -10 12l115 651l-455 -299q-4 -4 -9 -2t-3 8l4 25q2 12 12 18l455 301q22 11 26 11q7 0 23 -11l348 -301q10 -7 8 -18l-4 -25q-1 -13 -16 -6z" />
    <glyph glyph-name="arrowright" unicode="&#x2192;" horiz-adv-x="962" 
d="M801 557l-228 401q-5 15 9 15h24q13 0 17 -10l231 -402q6 -15 6 -24q0 -4 -14 -25l-373 -401q-11 -11 -20 -11h-25q-14 0 -4 15l371 401h-652q-11 0 -10 12l2 17q5 12 15 12h651z" />
    <glyph glyph-name="arrowdown" unicode="&#x2193;" horiz-adv-x="962" 
d="M59 473l349 -299l116 651q0 13 15 13h16q10 0 10 -13l-116 -651l454 299q5 4 11 2t4 -8l-5 -25q-1 -12 -14 -18l-455 -301q-14 -10 -26 -10q-7 0 -23 10l-348 301q-7 8 -6 18l4 25q4 16 14 6z" />
    <glyph glyph-name="arrowboth" unicode="&#x2194;" horiz-adv-x="1413" 
d="M1251 557l-227 401q-4 15 8 15h25q12 0 16 -10l232 -402q6 -15 6 -24q0 -3 -15 -25l-372 -401q-11 -11 -21 -11h-24q-15 0 -5 15l371 401l-520 4l-541 -4l228 -401q10 -15 -9 -15h-24q-11 0 -17 11l-229 401q-7 15 -6 25q0 7 14 24l371 402q10 10 20 10h25q8 0 8 -5
q0 -6 -4 -10l-371 -401l541 -4z" />
    <glyph glyph-name="arrowupdn" unicode="&#x2195;" horiz-adv-x="962" 
d="M420 6l454 299q4 4 10 2q5 -2 3 -8l-4 -25q-1 -11 -13 -18l-454 -301q-20 -10 -27 -10q-12 0 -22 10l-349 301q-10 7 -8 18l4 25q1 14 17 6l348 -299l96 520l90 541l-452 -299q-6 -4 -12 -2q-5 2 -3 8l4 25q1 11 15 18l454 301q16 10 27 10q7 0 23 -10l348 -301
q7 -7 6 -18l-4 -25q-5 -16 -15 -6l-350 299l-98 -541z" />
    <glyph glyph-name="arrowupleft" unicode="&#x2196;" horiz-adv-x="962" 
d="M831 856l-507 -72l378 -460q7 -8 -2 -17l-14 -12q-10 -7 -16 0l-379 461l-160 -496q-12 -10 -16 -6l-15 18q-8 8 -2 21l158 495q7 18 16 25q8 9 25 10l510 72q12 1 18 -6l15 -19q4 -4 1 -9t-10 -5z" />
    <glyph glyph-name="arrowupright" unicode="&#x2197;" horiz-adv-x="962" 
d="M750 784l-484 72q-4 0 -6 5t2 9l23 19q10 7 22 6l481 -72q16 -1 25 -10q4 -5 4 -25l-14 -495q0 -11 -10 -21l-23 -18q-4 -4 -9 -1q-4 3 -3 7l16 496l-543 -461q-10 -7 -16 0l-10 12q-9 9 2 17z" />
    <glyph glyph-name="arrowdownright" unicode="&#x2198;" horiz-adv-x="962" 
d="M154 217l507 72l-378 461q-6 8 2 16l16 12q8 8 16 0l379 -461l160 496q0 4 6 7q7 3 8 -1l15 -18q9 -9 4 -21l-160 -495q-5 -16 -14 -25q-12 -9 -27 -10l-508 -72q-12 -2 -18 4l-17 21q-4 4 -1 9t10 5z" />
    <glyph glyph-name="arrowdownleft" unicode="&#x2199;" horiz-adv-x="962" 
d="M236 289l483 -72q14 -4 4 -14l-23 -19q-8 -8 -20 -6l-483 72q-18 1 -23 10q-5 5 -6 25l16 495q0 12 9 21l22 18q14 10 14 -6l-16 -496l543 461q8 8 16 0l8 -12q8 -8 -2 -16z" />
    <glyph glyph-name="partialdiff" unicode="&#x2202;" horiz-adv-x="884" 
d="M465 1386q-5 -1 -10 2q-4 2 -2 11l2 12q0 13 20 19q63 20 146 20q278 0 278 -299q0 -94 -21 -232q-21 -136 -71 -305q-48 -163 -117 -306q-66 -138 -176 -234q-107 -94 -233 -94q-115 0 -175 70q-59 69 -59 196q0 144 49 281q50 140 157 238q108 99 247 99q134 0 196 -68
q64 -71 60 -192q94 336 94 541q0 136 -56 198q-58 64 -178 64q-84 0 -151 -21zM285 23q123 0 226 107q105 109 155 244q51 136 51 247q0 200 -217 200q-127 0 -226 -102q-97 -100 -140 -230q-42 -127 -42 -243q0 -105 49 -164t144 -59z" />
    <glyph glyph-name="Delta" unicode="&#x2206;" horiz-adv-x="966" 
d="M641 1446h29q8 0 12 -12l84 -1401q4 -33 -31 -33h-667q-34 0 -23 33l580 1401q5 12 16 12zM637 1362l-541 -1317h623l-74 1317h-8z" />
    <glyph glyph-name="product" unicode="&#x220f;" horiz-adv-x="1011" 
d="M229 1401l4 20q5 13 15 13h856q15 0 10 -13l-4 -20l-14 -12h-172l-242 -1377q-2 -12 -14 -12h-23q-15 0 -10 12l242 1377h-418l-242 -1377q-5 -12 -14 -12h-23q0 5 -10 12l242 1377h-172q-16 0 -11 12z" />
    <glyph glyph-name="summation" unicode="&#x2211;" horiz-adv-x="798" 
d="M518 586l-489 -766h569q12 0 10 -13l-4 -20q-2 -12 -14 -12h-619q-11 0 -10 12l2 14q2 11 8 19l506 792l-221 777v18l2 14q5 13 14 13h602q16 0 11 -13l-4 -20q-5 -12 -15 -12h-557l217 -758v-19v-8z" />
    <glyph glyph-name="minus" unicode="&#x2212;" horiz-adv-x="925" 
d="M854 713h-696q-16 0 -11 12l5 20q0 13 14 13h696q10 0 10 -13l-4 -20q-4 -12 -14 -12z" />
    <glyph glyph-name="uni2215" unicode="&#x2215;" horiz-adv-x="118" 
d="M592 1417l-926 -1405q-10 -12 -22 -12h-23q-16 0 -4 16l926 1405q11 13 20 13h23q14 0 6 -17z" />
    <glyph glyph-name="uni2219" unicode="&#x2219;" horiz-adv-x="299" 
d="M113 477l18 113q5 12 14 12h54q14 0 10 -12l-19 -113q-2 -12 -14 -12h-53q-11 0 -10 12z" />
    <glyph glyph-name="radical" unicode="&#x221a;" horiz-adv-x="1011" 
d="M426 -143h-20q-14 0 -15 12l-63 1085h-148q-12 0 -10 13l2 18q4 12 14 12h174q15 0 15 -12l55 -1034h4l600 1593q6 12 21 12h22q12 0 6 -14l-639 -1673q-2 -12 -18 -12z" />
    <glyph glyph-name="infinity" unicode="&#x221e;" horiz-adv-x="1028" 
d="M606 899q72 143 215 143q168 0 168 -196q0 -74 -12 -146q-11 -69 -41 -145q-29 -75 -88 -119q-60 -45 -141 -45q-85 0 -134 45q-47 43 -63 99q-76 -144 -217 -144q-168 0 -168 197q0 73 12 145q12 73 42 146t88 118q59 45 141 45q84 0 134 -45q49 -44 64 -98zM506 637
l76 205q-33 157 -174 157q-68 0 -117 -40q-51 -42 -74 -105q-24 -67 -36 -131q-11 -61 -11 -131q0 -158 125 -158q83 0 126 46q45 49 85 157zM608 797l-76 -205q38 -158 177 -158q66 0 116 41q49 40 74 108q24 66 36 132q11 61 11 131q0 153 -125 153q-82 0 -127 -46
q-47 -48 -86 -156z" />
    <glyph glyph-name="integral" unicode="&#x222b;" horiz-adv-x="514" 
d="M143 -41l230 1301q18 103 52 146q35 44 110 44q22 0 38 -2q13 -2 13 -18l-4 -17q-1 -15 -17 -10q-14 2 -35 2q-50 0 -73 -33q-22 -32 -37 -112l-230 -1303q-18 -99 -53 -145q-35 -45 -110 -45q-23 0 -37 2q-17 2 -13 18l5 16q0 17 14 11q14 -2 35 -2q51 0 74 32
q23 31 38 115z" />
    <glyph glyph-name="approxequal" unicode="&#x2248;" horiz-adv-x="925" 
d="M846 590q-33 -74 -76 -114t-113 -40q-52 0 -151 45l-98 45q-82 39 -129 39q-84 0 -123 -90l-6 -14q-6 -12 -17 -12h-29q-10 0 -4 16q33 74 76 114q42 39 113 39q51 0 151 -45l117 -53q71 -31 113 -31q74 0 118 91l9 14q4 12 16 12h29q11 0 4 -16zM920 1008
q-33 -74 -76 -114t-113 -40q-52 0 -151 45l-99 45q-83 39 -129 39q-84 0 -123 -90l-6 -14q-7 -13 -16 -13h-29q-11 0 -6 17q33 74 78 114q44 39 112 39q52 0 152 -45l117 -53q71 -31 112 -31q75 0 119 90l8 15q4 12 17 12h28q12 0 5 -16z" />
    <glyph glyph-name="notequal" unicode="&#x2260;" horiz-adv-x="925" 
d="M817 500h-393l-242 -490q-1 -10 -14 -10h-23q-14 0 -8 12l240 488h-256q-15 0 -10 12l2 20q2 13 14 13h270l187 381h-389q-11 0 -11 12l4 20q5 13 15 13h403l223 452q6 11 17 11h22q16 0 9 -13l-224 -450h246q15 0 10 -13l-4 -20q0 -12 -14 -12h-260l-187 -381h379
q13 0 11 -13l-3 -20q-5 -12 -14 -12z" />
    <glyph glyph-name="lessequal" unicode="&#x2264;" horiz-adv-x="925" 
d="M182 733q0 4 8 12l648 551q12 10 18 0l14 -16q7 -8 -4 -16l-622 -531l436 -530q7 -8 -2 -17l-21 -16q-11 -10 -18 0l-453 551q-6 6 -4 12zM635 0h-563q-16 0 -11 12l2 21q1 12 15 12h563q15 0 10 -12l-2 -21q-1 -12 -14 -12z" />
    <glyph glyph-name="greaterequal" unicode="&#x2265;" horiz-adv-x="925" 
d="M838 733q-1 -4 -9 -12l-649 -551q-8 -10 -18 0l-12 16q-9 9 2 17l624 530l-438 531q-7 8 4 16l18 16q13 11 19 0l455 -551q4 -4 4 -12zM690 0h-563q-11 0 -10 12l2 21q5 12 14 12h563q12 0 11 -12l-2 -21q-5 -12 -15 -12z" />
    <glyph glyph-name="lozenge" unicode="&#x25ca;" horiz-adv-x="966" 
d="M397 -12q-10 0 -10 12l-213 700l-4 17l10 16l459 701q5 12 16 12q9 0 13 -12l213 -701q4 -14 2 -16q0 -4 -9 -17l-458 -700q-8 -12 -19 -12zM412 63l422 654l-193 653l-422 -653z" />
    <glyph glyph-name="uniE000" unicode="&#xe000;" horiz-adv-x="1024" 
 />
    <glyph glyph-name="Q.alt" unicode="&#xe001;" horiz-adv-x="937" 
d="M635 1450q148 0 220 -89q73 -90 73 -292q0 -146 -37 -352q-68 -392 -181 -558q-115 -167 -307 -175l-30 -197q-5 -12 -15 -12h-26q-12 0 -10 12l38 197q-132 6 -198 96t-66 282q0 145 37 355q72 400 189 567q117 166 313 166zM391 27q175 0 280 156q105 155 171 534
q39 228 39 356q0 177 -61 256q-60 78 -185 78q-174 0 -281 -158q-106 -157 -172 -534q-37 -210 -37 -353q0 -176 61 -257q59 -78 185 -78z" />
    <glyph glyph-name="a.alt" unicode="&#xe002;" horiz-adv-x="765" 
d="M625 535q22 132 22 225q0 282 -188 282q-238 0 -328 -510q-25 -145 -25 -241q0 -264 175 -264q259 0 344 508zM758 1057l-183 -1045q-1 -12 -14 -12h-20q-13 0 -11 12l33 197q-91 -225 -284 -225q-220 0 -220 303q0 95 27 248q50 276 137 412q89 138 238 138
q98 0 152 -61q55 -63 67 -164l33 197q5 12 16 12h21q12 0 8 -12z" />
    <glyph glyph-name="u.alt" unicode="&#xe003;" horiz-adv-x="765" 
d="M305 -16q-125 0 -178 53t-53 166q0 62 16 151l123 703q5 12 16 12h21q12 0 8 -12l-123 -703q-16 -92 -16 -153q0 -90 42 -132t144 -42q139 0 195 75q57 76 90 252l123 703q5 12 16 12h21q12 0 8 -12l-123 -703q-34 -195 -104 -283q-69 -87 -226 -87z" />
    <glyph glyph-name="y.alt" unicode="&#xe004;" horiz-adv-x="753" 
d="M535 106l28 168q-29 -76 -100 -139q-68 -61 -170 -61q-101 0 -153 60q-52 59 -52 171q0 44 10 98l115 654q5 12 16 12h21q12 0 8 -12l-115 -654q-10 -54 -10 -98q0 -188 162 -188q111 0 193 98q84 101 108 240l104 602q4 12 17 12h20q13 0 8 -12l-167 -955
q-33 -181 -116 -263q-82 -81 -229 -81q-132 0 -206 41q-13 8 -11 21l2 12q1 15 17 10q84 -41 194 -41q129 0 202 71q74 73 104 234z" />
    <glyph glyph-name="j.alt" unicode="&#xe005;" horiz-adv-x="299" 
d="M274 1057l-223 -1270q-1 -12 -14 -12h-21q-12 0 -10 12l223 1270q5 12 17 12h20q12 0 8 -12zM338 1393l-25 -146q-1 -12 -14 -12h-29q-12 0 -10 12l25 146q1 12 14 12h29q12 0 10 -12z" />
    <glyph glyph-name="agrave.alt" unicode="&#xe006;" horiz-adv-x="765" 
d="M625 535q22 132 22 225q0 282 -188 282q-238 0 -328 -510q-25 -145 -25 -241q0 -264 175 -264q259 0 344 508zM758 1057l-183 -1045q-1 -12 -14 -12h-20q-13 0 -11 12l33 197q-91 -225 -284 -225q-220 0 -220 303q0 95 27 248q50 276 137 412q89 138 238 138
q98 0 152 -61q55 -63 67 -164l33 197q5 12 16 12h21q12 0 8 -12zM457 1376l84 -172q7 -12 -9 -12h-10q-10 0 -12 8l-115 174q-11 19 11 19h28q17 0 23 -17z" />
    <glyph glyph-name="aacute.alt" unicode="&#xe007;" horiz-adv-x="765" 
d="M625 535q22 132 22 225q0 282 -188 282q-238 0 -328 -510q-25 -145 -25 -241q0 -264 175 -264q259 0 344 508zM758 1057l-183 -1045q-1 -12 -14 -12h-20q-13 0 -11 12l33 197q-91 -225 -284 -225q-220 0 -220 303q0 95 27 248q50 276 137 412q89 138 238 138
q98 0 152 -61q55 -63 67 -164l33 197q5 12 16 12h21q12 0 8 -12zM483 1204l144 172q12 17 26 17h33q25 0 6 -19l-174 -174q-8 -8 -16 -8h-15q-11 0 -4 12z" />
    <glyph glyph-name="acircumflex.alt" unicode="&#xe008;" horiz-adv-x="765" 
d="M625 535q22 132 22 225q0 282 -188 282q-238 0 -328 -510q-25 -145 -25 -241q0 -264 175 -264q259 0 344 508zM758 1057l-183 -1045q-1 -12 -14 -12h-20q-13 0 -11 12l33 197q-91 -225 -284 -225q-220 0 -220 303q0 95 27 248q50 276 137 412q89 138 238 138
q98 0 152 -61q55 -63 67 -164l33 197q5 12 16 12h21q12 0 8 -12zM633 1200l-107 158l-159 -158q-13 -8 -17 -8h-18q-14 0 -6 12l166 182q15 15 26 15h25q15 0 22 -15l101 -182q8 -12 -11 -12h-10q-7 0 -12 8z" />
    <glyph glyph-name="atilde.alt" unicode="&#xe009;" horiz-adv-x="765" 
d="M625 535q22 132 22 225q0 282 -188 282q-238 0 -328 -510q-25 -145 -25 -241q0 -264 175 -264q259 0 344 508zM758 1057l-183 -1045q-1 -12 -14 -12h-20q-13 0 -11 12l33 197q-91 -225 -284 -225q-220 0 -220 303q0 95 27 248q50 276 137 412q89 138 238 138
q98 0 152 -61q55 -63 67 -164l33 197q5 12 16 12h21q12 0 8 -12zM715 1300q-7 -49 -40 -82q-32 -32 -75 -32q-44 0 -84 37l-47 39q-30 24 -55 24q-46 0 -68 -63l-6 -17q-6 -14 -16 -14h-11q-13 0 -12 14q11 51 43 85q33 34 76 34q42 0 82 -37l43 -37q32 -26 59 -26
q25 0 43 19q20 21 25 40l4 16q6 15 18 15h11q11 0 10 -15z" />
    <glyph glyph-name="adieresis.alt" unicode="&#xe00a;" horiz-adv-x="765" 
d="M625 535q22 132 22 225q0 282 -188 282q-238 0 -328 -510q-25 -145 -25 -241q0 -264 175 -264q259 0 344 508zM758 1057l-183 -1045q-1 -12 -14 -12h-20q-13 0 -11 12l33 197q-91 -225 -284 -225q-220 0 -220 303q0 95 27 248q50 276 137 412q89 138 238 138
q98 0 152 -61q55 -63 67 -164l33 197q5 12 16 12h21q12 0 8 -12zM418 1288l-15 -84q-1 -12 -14 -12h-29q-12 0 -10 12l15 84q5 12 14 12h29q14 0 10 -12zM655 1288l-14 -84q-1 -12 -14 -12h-29q-12 0 -10 12l14 84q4 12 14 12h29q15 0 10 -12z" />
    <glyph glyph-name="amacron.alt" unicode="&#xe00b;" horiz-adv-x="765" 
d="M625 535q22 132 22 225q0 282 -188 282q-238 0 -328 -510q-25 -145 -25 -241q0 -264 175 -264q259 0 344 508zM758 1057l-183 -1045q-1 -12 -14 -12h-20q-13 0 -11 12l33 197q-91 -225 -284 -225q-220 0 -220 303q0 95 27 248q50 276 137 412q89 138 238 138
q98 0 152 -61q55 -63 67 -164l33 197q5 12 16 12h21q12 0 8 -12zM662 1208h-320q-15 0 -10 13l2 14q2 12 14 12h320q12 0 10 -12l-2 -14q-5 -13 -14 -13z" />
    <glyph glyph-name="abreve.alt" unicode="&#xe00c;" horiz-adv-x="765" 
d="M625 535q22 132 22 225q0 282 -188 282q-238 0 -328 -510q-25 -145 -25 -241q0 -264 175 -264q259 0 344 508zM758 1057l-183 -1045q-1 -12 -14 -12h-20q-13 0 -11 12l33 197q-91 -225 -284 -225q-220 0 -220 303q0 95 27 248q50 276 137 412q89 138 238 138
q98 0 152 -61q55 -63 67 -164l33 197q5 12 16 12h21q12 0 8 -12zM504 1188q-82 0 -125 48q-44 48 -33 118q2 12 14 12h19q15 0 10 -12q-7 -123 115 -123q121 0 160 123q4 12 14 12h18q12 0 11 -12q-17 -73 -69 -119q-53 -47 -134 -47z" />
    <glyph glyph-name="aring.alt" unicode="&#xe00d;" horiz-adv-x="765" 
d="M625 535q22 132 22 225q0 282 -188 282q-238 0 -328 -510q-25 -145 -25 -241q0 -264 175 -264q259 0 344 508zM758 1057l-183 -1045q-1 -12 -14 -12h-20q-13 0 -11 12l33 197q-91 -225 -284 -225q-220 0 -220 303q0 95 27 248q50 276 137 412q89 138 238 138
q98 0 152 -61q55 -63 67 -164l33 197q5 12 16 12h21q12 0 8 -12zM502 1210q54 0 92 37q39 37 39 96q0 84 -92 84q-58 0 -95 -36q-38 -37 -38 -99q0 -82 94 -82zM545 1466q63 0 96 -32q35 -33 35 -88q0 -76 -49 -125q-50 -50 -129 -50q-62 0 -98 33q-35 32 -35 84
q0 74 49 126t131 52z" />
    <glyph glyph-name="aringacute.alt" unicode="&#xe00e;" horiz-adv-x="765" 
d="M758 1057l-183 -1045q-1 -12 -14 -12h-20q-13 0 -11 12l33 197q-91 -225 -284 -225q-220 0 -220 303q0 95 27 248q50 276 137 412q89 138 238 138q98 0 152 -61q55 -63 67 -164l33 197q5 12 16 12h21q12 0 8 -12zM625 535q22 132 22 225q0 282 -188 282q-238 0 -328 -510
q-25 -145 -25 -241q0 -264 175 -264q259 0 344 508zM705 1610l-144 -144q55 -5 84 -38q31 -36 31 -82q0 -76 -49 -125q-50 -50 -129 -50q-62 0 -98 33q-35 32 -35 84q0 68 41 118q41 51 110 58l123 148q12 16 27 16h32q25 0 7 -18zM502 1210q54 0 92 37q39 37 39 96
q0 84 -92 84q-58 0 -95 -36q-38 -37 -38 -99q0 -82 94 -82z" />
    <glyph glyph-name="aogonek.alt" unicode="&#xe00f;" horiz-adv-x="765" 
d="M758 1057l-183 -1045q-1 -12 -14 -12h-16q-137 -84 -137 -180q0 -47 67 -47h39q15 0 10 -13l-2 -12q-4 -11 -12 -16q-15 -6 -43 -6q-47 0 -77 21t-30 60q0 120 170 209l33 193q-91 -225 -284 -225q-220 0 -220 303q0 95 27 248q50 276 137 412q89 138 238 138
q98 0 152 -61q55 -63 67 -164l33 197q5 12 16 12h21q12 0 8 -12zM625 535q22 132 22 225q0 282 -188 282q-238 0 -328 -510q-25 -145 -25 -241q0 -264 175 -264q259 0 344 508z" />
    <glyph glyph-name="ij.alt" unicode="&#xe010;" horiz-adv-x="589" 
d="M274 1057l-182 -1045q-2 -12 -14 -12h-21q-11 0 -10 12l182 1045q5 12 17 12h20q12 0 8 -12zM338 1393l-25 -146q-1 -12 -14 -12h-29q-12 0 -10 12l25 146q1 12 14 12h29q12 0 10 -12zM565 1057l-223 -1270q-2 -12 -14 -12h-21q-11 0 -10 12l223 1270q4 12 17 12h20
q13 0 8 -12zM629 1393l-25 -146q-2 -12 -14 -12h-29q-11 0 -10 12l24 146q1 12 15 12h28q12 0 11 -12z" />
    <glyph glyph-name="jcircumflex.alt" unicode="&#xe011;" horiz-adv-x="299" 
d="M274 1057l-223 -1270q-1 -12 -14 -12h-21q-12 0 -10 12l223 1270q5 12 17 12h20q12 0 8 -12zM416 1200l-107 158l-159 -158q-13 -8 -17 -8h-18q-13 0 -6 12l165 182q15 15 27 15h25q14 0 22 -15l101 -182q8 -12 -11 -12h-10q-7 0 -12 8z" />
    <glyph glyph-name="dotlessj.alt" unicode="&#xe012;" horiz-adv-x="299" 
d="M274 1057l-223 -1270q-1 -12 -14 -12h-21q-12 0 -10 12l223 1270q5 12 17 12h20q12 0 8 -12z" />
    <glyph glyph-name="ugrave.alt" unicode="&#xe013;" horiz-adv-x="765" 
d="M305 -16q-125 0 -178 53t-53 166q0 62 16 151l123 703q5 12 16 12h21q12 0 8 -12l-123 -703q-16 -92 -16 -153q0 -90 42 -132t144 -42q139 0 195 75q57 76 90 252l123 703q5 12 16 12h21q12 0 8 -12l-123 -703q-34 -195 -104 -283q-69 -87 -226 -87zM436 1376l84 -172
q8 -12 -8 -12h-10q-11 0 -13 8l-114 174q-11 19 10 19h29q16 0 22 -17z" />
    <glyph glyph-name="uacute.alt" unicode="&#xe014;" horiz-adv-x="765" 
d="M305 -16q-125 0 -178 53t-53 166q0 62 16 151l123 703q5 12 16 12h21q12 0 8 -12l-123 -703q-16 -92 -16 -153q0 -90 42 -132t144 -42q139 0 195 75q57 76 90 252l123 703q5 12 16 12h21q12 0 8 -12l-123 -703q-34 -195 -104 -283q-69 -87 -226 -87zM504 1204l143 172
q12 17 27 17h33q25 0 6 -19l-174 -174q-8 -8 -17 -8h-14q-11 0 -4 12z" />
    <glyph glyph-name="ucircumflex.alt" unicode="&#xe015;" horiz-adv-x="765" 
d="M305 -16q-125 0 -178 53t-53 166q0 62 16 151l123 703q5 12 16 12h21q12 0 8 -12l-123 -703q-16 -92 -16 -153q0 -90 42 -132t144 -42q139 0 195 75q57 76 90 252l123 703q5 12 16 12h21q12 0 8 -12l-123 -703q-34 -195 -104 -283q-69 -87 -226 -87zM649 1200l-106 158
l-160 -158q-13 -8 -16 -8h-19q-14 0 -6 12l166 182q15 15 27 15h24q15 0 23 -15l100 -182q7 -12 -10 -12h-11q-7 0 -12 8z" />
    <glyph glyph-name="utilde.alt" unicode="&#xe016;" horiz-adv-x="765" 
d="M305 -16q-125 0 -178 53t-53 166q0 62 16 151l123 703q5 12 16 12h21q12 0 8 -12l-123 -703q-16 -92 -16 -153q0 -90 42 -132t144 -42q139 0 195 75q57 76 90 252l123 703q5 12 16 12h21q12 0 8 -12l-123 -703q-34 -195 -104 -283q-69 -87 -226 -87zM727 1300
q-7 -49 -40 -82q-32 -32 -75 -32q-44 0 -84 37l-47 39q-30 24 -55 24q-45 0 -68 -63l-6 -17q-6 -14 -16 -14h-10q-14 0 -13 14q11 51 43 85q33 34 76 34q42 0 82 -37l43 -37q32 -26 59 -26q25 0 43 19q20 21 25 40l4 16q6 15 19 15h10q11 0 10 -15z" />
    <glyph glyph-name="udieresis.alt" unicode="&#xe017;" horiz-adv-x="765" 
d="M305 -16q-125 0 -178 53t-53 166q0 62 16 151l123 703q5 12 16 12h21q12 0 8 -12l-123 -703q-16 -92 -16 -153q0 -90 42 -132t144 -42q139 0 195 75q57 76 90 252l123 703q5 12 16 12h21q12 0 8 -12l-123 -703q-34 -195 -104 -283q-69 -87 -226 -87zM434 1288l-14 -84
q-2 -12 -15 -12h-28q-11 0 -10 12l14 84q5 12 14 12h29q14 0 10 -12zM672 1288l-15 -84q-1 -12 -14 -12h-29q-12 0 -10 12l14 84q4 12 15 12h28q15 0 11 -12z" />
    <glyph glyph-name="umacron.alt" unicode="&#xe018;" horiz-adv-x="765" 
d="M305 -16q-125 0 -178 53t-53 166q0 62 16 151l123 703q5 12 16 12h21q12 0 8 -12l-123 -703q-16 -92 -16 -153q0 -90 42 -132t144 -42q139 0 195 75q57 76 90 252l123 703q5 12 16 12h21q12 0 8 -12l-123 -703q-34 -195 -104 -283q-69 -87 -226 -87zM674 1208h-320
q-15 0 -10 13l2 14q2 12 14 12h320q12 0 10 -12l-2 -14q-5 -13 -14 -13z" />
    <glyph glyph-name="ubreve.alt" unicode="&#xe019;" horiz-adv-x="765" 
d="M305 -16q-125 0 -178 53t-53 166q0 62 16 151l123 703q5 12 16 12h21q12 0 8 -12l-123 -703q-16 -92 -16 -153q0 -90 42 -132t144 -42q139 0 195 75q57 76 90 252l123 703q5 12 16 12h21q12 0 8 -12l-123 -703q-34 -195 -104 -283q-69 -87 -226 -87zM516 1188
q-82 0 -125 48q-44 48 -33 118q2 12 15 12h18q15 0 10 -12q-7 -123 115 -123q121 0 160 123q4 12 14 12h19q11 0 10 -12q-17 -73 -69 -119q-53 -47 -134 -47z" />
    <glyph glyph-name="uring.alt" unicode="&#xe01a;" horiz-adv-x="765" 
d="M305 -16q-125 0 -178 53t-53 166q0 62 16 151l123 703q5 12 16 12h21q12 0 8 -12l-123 -703q-16 -92 -16 -153q0 -90 42 -132t144 -42q139 0 195 75q57 76 90 252l123 703q5 12 16 12h21q12 0 8 -12l-123 -703q-34 -195 -104 -283q-69 -87 -226 -87zM514 1210q54 0 92 37
q39 37 39 96q0 84 -92 84q-57 0 -94 -36q-39 -37 -39 -99q0 -82 94 -82zM557 1466q63 0 96 -32q35 -33 35 -88q0 -76 -49 -125q-50 -50 -129 -50q-61 0 -97 33t-36 84q0 74 49 126t131 52z" />
    <glyph glyph-name="uhungarumlaut.alt" unicode="&#xe01b;" horiz-adv-x="765" 
d="M305 -16q-125 0 -178 53t-53 166q0 62 16 151l123 703q5 12 16 12h21q12 0 8 -12l-123 -703q-16 -92 -16 -153q0 -90 42 -132t144 -42q139 0 195 75q57 76 90 252l123 703q5 12 16 12h21q12 0 8 -12l-123 -703q-34 -195 -104 -283q-69 -87 -226 -87zM395 1204l127 172
q12 17 27 17h31q25 0 6 -19l-156 -174q-8 -8 -16 -8h-15q-11 0 -4 12zM590 1204l127 172q12 17 26 17h31q25 0 6 -19l-155 -174q-8 -8 -17 -8h-14q-12 0 -4 12z" />
    <glyph glyph-name="ydieresis.alt" unicode="&#xe01c;" horiz-adv-x="753" 
d="M535 106l28 168q-29 -76 -100 -139q-68 -61 -170 -61q-101 0 -153 60q-52 59 -52 171q0 44 10 98l115 654q5 12 16 12h21q12 0 8 -12l-115 -654q-10 -54 -10 -98q0 -188 162 -188q111 0 193 98q84 101 108 240l104 602q4 12 17 12h20q13 0 8 -12l-167 -955
q-33 -181 -116 -263q-82 -81 -229 -81q-132 0 -206 41q-13 8 -11 21l2 12q1 15 17 10q84 -41 194 -41q129 0 202 71q74 73 104 234zM428 1288l-14 -84q-4 -12 -15 -12h-28q-15 0 -11 12l15 84q1 12 14 12h29q12 0 10 -12zM666 1288l-15 -84q-5 -12 -14 -12h-29q-14 0 -10 12
l14 84q2 12 15 12h28q13 0 11 -12z" />
    <glyph glyph-name="yacute.alt" unicode="&#xe01d;" horiz-adv-x="753" 
d="M535 106l28 168q-29 -76 -100 -139q-68 -61 -170 -61q-101 0 -153 60q-52 59 -52 171q0 44 10 98l115 654q5 12 16 12h21q12 0 8 -12l-115 -654q-10 -54 -10 -98q0 -188 162 -188q111 0 193 98q84 101 108 240l104 602q4 12 17 12h20q13 0 8 -12l-167 -955
q-33 -181 -116 -263q-82 -81 -229 -81q-132 0 -206 41q-13 8 -11 21l2 12q1 15 17 10q84 -41 194 -41q129 0 202 71q74 73 104 234zM489 1204l144 172q12 17 26 17h33q25 0 6 -19l-174 -174q-8 -8 -16 -8h-14q-12 0 -5 12z" />
    <glyph glyph-name="ycircumflex.alt" unicode="&#xe01e;" horiz-adv-x="753" 
d="M535 106l28 168q-29 -76 -100 -139q-68 -61 -170 -61q-101 0 -153 60q-52 59 -52 171q0 44 10 98l115 654q5 12 16 12h21q12 0 8 -12l-115 -654q-10 -54 -10 -98q0 -188 162 -188q111 0 193 98q84 101 108 240l104 602q4 12 17 12h20q13 0 8 -12l-167 -955
q-33 -181 -116 -263q-82 -81 -229 -81q-132 0 -206 41q-13 8 -11 21l2 12q1 15 17 10q84 -41 194 -41q129 0 202 71q74 73 104 234zM643 1200l-106 158l-160 -158q-13 -8 -17 -8h-18q-14 0 -6 12l166 182q15 15 26 15h25q16 0 22 -15l101 -182q8 -12 -10 -12h-11q-7 0 -12 8
z" />
    <glyph glyph-name="ygrave.alt" unicode="&#xe01f;" horiz-adv-x="753" 
d="M535 106l28 168q-29 -76 -100 -139q-68 -61 -170 -61q-101 0 -153 60q-52 59 -52 171q0 44 10 98l115 654q5 12 16 12h21q12 0 8 -12l-115 -654q-10 -54 -10 -98q0 -188 162 -188q111 0 193 98q84 101 108 240l104 602q4 12 17 12h20q13 0 8 -12l-167 -955
q-33 -181 -116 -263q-82 -81 -229 -81q-132 0 -206 41q-13 8 -11 21l2 12q1 15 17 10q84 -41 194 -41q129 0 202 71q74 73 104 234zM438 1376l84 -172q8 -12 -8 -12h-10q-10 0 -12 8l-115 174q-8 19 10 19h29q16 0 22 -17z" />
    <glyph glyph-name="i.dot" unicode="&#xe020;" horiz-adv-x="299" 
d="M274 1057l-182 -1045q-2 -12 -14 -12h-21q-11 0 -10 12l182 1045q5 12 17 12h20q12 0 8 -12zM338 1393l-25 -146q-1 -12 -14 -12h-29q-12 0 -10 12l25 146q1 12 14 12h29q12 0 10 -12z" />
    <glyph glyph-name="dollar.old" unicode="&#xe021;" horiz-adv-x="708" 
d="M541 1319l-25 -135q93 -1 166 -21q15 -1 10 -18l-2 -15q-2 -16 -18 -12q-72 21 -180 21q-120 0 -200 -72q-79 -72 -79 -201q0 -50 26 -96q27 -47 51 -70q22 -21 81 -67q24 -18 44 -34q35 -28 47 -38q2 -1 39 -35q31 -27 39 -43q11 -19 25 -43q18 -29 22 -54q5 -30 5 -60
q0 -128 -78 -222q-77 -93 -207 -114l-26 -142q-1 -12 -15 -12h-22q-16 0 -11 12l25 136q-166 0 -242 30q-16 6 -12 21l4 14q1 15 19 10q85 -30 219 -30q126 0 211 81q86 81 86 214q0 31 -11 62q-11 32 -19 49q-9 19 -37 47t-40 37t-51 39q-11 8 -22 16.5t-17 13t-8 6.5
q-79 60 -128 127q-46 62 -46 149q0 134 84 219t221 93l25 137q2 12 14 12h22q16 0 11 -12z" />
    <glyph glyph-name="cent.old" unicode="&#xe022;" horiz-adv-x="737" 
d="M115 584q102 581 438 598l25 137q4 12 14 12h22q12 0 11 -12l-25 -135q84 -1 145 -27q15 -5 11 -20l-2 -13q-4 -17 -19 -10q-64 25 -153 25q-319 0 -418 -555q-25 -153 -25 -236q0 -323 246 -323q103 0 172 24q7 2 11 -1t3 -9l-2 -12q-5 -17 -18 -21q-60 -21 -162 -26
l-24 -136q-5 -12 -15 -12h-22q-12 0 -11 12l25 138q-250 18 -250 372q0 97 23 230z" />
    <glyph glyph-name="sterling.old" unicode="&#xe023;" horiz-adv-x="860" 
d="M238 578h-129q-15 0 -11 12l4 16q2 12 15 12h112q-28 150 -28 203q0 165 100 264q101 99 266 99q254 0 254 -209q0 -101 -28 -101h-23q-10 0 -10 13q0 1 3 12q3 10 6 32q3 21 3 48q0 160 -205 160q-144 0 -230 -86q-85 -85 -85 -224q0 -61 31 -211h270q11 0 10 -12
l-4 -16q-1 -12 -14 -12h-256q14 -62 14 -140q0 -249 -180 -366q44 16 94 16q69 0 161 -27q88 -26 142 -26t92 36q37 36 52 76q13 34 26 109q4 10 12 10h23q5 0 10 -3q4 -2 2 -7q-8 -46 -15 -74q-8 -28 -24 -69q-16 -40 -38 -65q-19 -22 -57 -41q-34 -17 -83 -17
q-61 0 -151 27q-93 28 -160 28q-103 0 -199 -45q-7 -4 -14 4l-10 16q-5 9 6 15q262 133 262 399q0 68 -16 144z" />
    <glyph glyph-name="yen.old" unicode="&#xe024;" horiz-adv-x="866" 
d="M721 346h-287l-57 -334q-5 -12 -15 -12h-22q-12 0 -10 12l57 334h-287q-10 0 -10 12l4 17q0 12 15 12h286l6 35l-45 156h-215q-10 0 -10 12l4 16q0 12 15 12h194l-151 535q-7 14 12 14h28q13 0 13 -10l186 -676h6l424 676q6 10 17 10h28q14 0 8 -14l-342 -535h197
q10 0 10 -12l-4 -16q0 -12 -14 -12h-215l-98 -156l-7 -35h287q10 0 10 -12l-4 -17q0 -12 -14 -12z" />
    <glyph glyph-name="Euro.old" unicode="&#xe025;" horiz-adv-x="864" 
d="M94 492h129q1 37 13 92q6 39 14 67h-127q-12 0 -10 13l2 16q4 12 14 12h129q124 492 479 492q105 0 150 -25q12 -7 6 -22l-4 -13q-6 -16 -21 -6q-51 21 -129 21q-321 0 -432 -447h424q16 0 10 -12l-4 -16q-7 -13 -16 -13h-424q-9 -31 -14 -67q-11 -72 -13 -92h400
q15 0 10 -13l-6 -16q-2 -12 -17 -12h-391q-2 -36 -2 -74q0 -348 291 -348q83 0 137 20q19 8 19 -6v-12q0 -15 -15 -23q-52 -24 -145 -24q-336 0 -336 383q0 33 4 84h-133q-10 0 -10 12l4 16q0 13 14 13z" />
    <glyph glyph-name="zero.old" unicode="&#xe026;" horiz-adv-x="872" 
d="M557 1188q270 0 270 -361q0 -108 -24 -243q-106 -604 -447 -604q-270 0 -270 360q0 103 25 244q106 604 446 604zM356 23q299 0 398 561q24 135 24 241q0 320 -223 320q-296 0 -395 -561q-25 -141 -25 -244q0 -317 221 -317z" />
    <glyph glyph-name="one.old" unicode="&#xe027;" horiz-adv-x="622" 
d="M504 0h-512q-12 0 -10 12l2 19q5 12 14 12h231l187 1059l-238 -184q-10 -10 -16 0l-10 16q-8 11 2 18l270 209q10 6 18 6h21q11 0 10 -12l-197 -1112h234q14 0 10 -12l-2 -19q-2 -12 -14 -12z" />
    <glyph glyph-name="two.old" unicode="&#xe028;" horiz-adv-x="794" 
d="M6 12l2 21q0 9 12 20q295 236 414 361q273 286 273 532q0 193 -203 193q-127 0 -205 -93t-78 -212q0 -21 -12 -21h-23q-12 0 -12 21q0 147 94 248q94 102 238 102q123 0 186 -66q64 -67 64 -176q0 -102 -50 -214q-48 -107 -114 -197q-58 -79 -173 -189
q-109 -104 -175 -160q-57 -48 -172 -137h540q12 0 11 -12l-2 -21q0 -12 -15 -12h-590q-12 0 -10 12z" />
    <glyph glyph-name="three.old" unicode="&#xe029;" horiz-adv-x="724" 
d="M242 557h77q138 0 219 120q80 119 80 267q0 102 -56 149q-57 48 -175 48q-104 0 -203 -33q-7 -2 -11 1q-5 3 -3 11l2 13q2 12 18 18q89 33 197 33q281 0 281 -238q0 -140 -69 -255t-189 -154q70 -7 119 -66q49 -58 49 -172q0 -226 -115 -382q-114 -155 -328 -155
q-132 0 -211 29q-12 6 -10 19l2 12q1 16 16 12q87 -29 205 -29q192 0 293 140q100 139 100 346q0 221 -221 221h-73q-12 0 -11 12l2 21q1 12 15 12z" />
    <glyph glyph-name="four.old" unicode="&#xe02a;" horiz-adv-x="851" 
d="M705 1077l-627 -872h473zM729 1167h27q14 0 10 -12l-168 -950h150q14 0 10 -12l-4 -21q0 -12 -15 -12h-149l-66 -373q-4 -12 -14 -12h-23q-11 0 -10 12l66 373h-516q-11 0 -11 12l4 21q4 12 11 20l678 944q7 10 20 10z" />
    <glyph glyph-name="five.old" unicode="&#xe02b;" horiz-adv-x="770" 
d="M725 1122h-426q-94 -441 -121 -553q95 37 205 37q262 0 262 -272q0 -245 -120 -408q-120 -164 -349 -164q-124 0 -203 29q-13 4 -12 19l2 12q2 17 19 12q87 -29 196 -29q208 0 314 154q104 152 104 377q0 227 -215 227q-70 0 -118 -11q-54 -12 -79 -22q-26 -10 -30 -10
q-7 0 -11 4l-12 8q-8 7 -4 21q54 212 133 602q2 12 14 12h459q11 0 10 -12l-4 -20q-2 -13 -14 -13z" />
    </font>
</defs>
</svg>
